<?xml version="1.0" encoding="UTF-8"?>
<svg width="32px" height="32px" viewBox="0 0 32 32" version="1.1" xmlns="http://www.w3.org/2000/svg" xmlns:xlink="http://www.w3.org/1999/xlink">
    <!-- Generator: Sketch 48.2 (47327) - http://www.bohemiancoding.com/sketch -->
    <title>Icons / 24px / Travel / icn-file-document (custom)</title>
    <desc>Created with Sketch.</desc>
    <defs>
        <path d="M18,4 L8.4,4 C7.08,4 6.012,5.08 6.012,6.4 L6,25.6 C6,26.92 7.068,28 8.388,28 L22.8,28 C24.12,28 25.2,26.92 25.2,25.6 L25.2,11.2 L18,4 L18,4 Z M20.4,23.2 L10.8,23.2 L10.8,20.8 L20.4,20.8 L20.4,23.2 L20.4,23.2 Z M20.4,18.4 L10.8,18.4 L10.8,16 L20.4,16 L20.4,18.4 L20.4,18.4 Z M16.8,12.4 L16.8,5.8 L23.4,12.4 L16.8,12.4 L16.8,12.4 Z" id="path-1"></path>
    </defs>
    <g id="Icons" stroke="none" stroke-width="1" fill="none" fill-rule="evenodd">
        <g id="Icons-/-24px-/-Travel-/-icn-file-document-(custom)">
            <mask id="mask-2" fill="white">
                <use xlink:href="#path-1"></use>
            </mask>
            <use id="Mask" fill="#5F6B76" xlink:href="#path-1"></use>
            <g id="_Library-Helpers-/-Colors-/-Front-/-Casper" mask="url(#mask-2)" fill="#BAC7D5">
                <g transform="translate(1.000000, 1.000000)" id="Rectangle">
                    <rect x="0" y="0" width="30" height="30"></rect>
                </g>
            </g>
        </g>
    </g>
</svg>