<?xml version="1.0" encoding="UTF-8"?>
<svg width="32px" height="32px" viewBox="0 0 32 32" version="1.1" xmlns="http://www.w3.org/2000/svg" xmlns:xlink="http://www.w3.org/1999/xlink">
    <!-- Generator: Sketch 48.2 (47327) - http://www.bohemiancoding.com/sketch -->
    <title>Icons / 24px / Travel / icn-credit-card</title>
    <desc>Created with Sketch.</desc>
    <defs>
        <path d="M25.6,7 L6.4,7 C5.068,7 4.012,8.056875 4.012,9.375 L4,23.625 C4,24.943125 5.068,26 6.4,26 L25.6,26 C26.932,26 28,24.943125 28,23.625 L28,9.375 C28,8.056875 26.932,7 25.6,7 L25.6,7 Z M25.6,23.625 L6.4,23.625 L6.4,16.5 L25.6,16.5 L25.6,23.625 L25.6,23.625 Z M25.6,11.75 L6.4,11.75 L6.4,9.375 L25.6,9.375 L25.6,11.75 L25.6,11.75 Z" id="path-1"></path>
    </defs>
    <g id="Icons" stroke="none" stroke-width="1" fill="none" fill-rule="evenodd">
        <g id="Icons-/-24px-/-Travel-/-icn-credit-card">
            <mask id="mask-2" fill="white">
                <use xlink:href="#path-1"></use>
            </mask>
            <use id="Mask" fill="#171B1E" xlink:href="#path-1"></use>
            <g id="_Library-Helpers-/-Colors-/-Front-/-Casper" mask="url(#mask-2)" fill="#BAC7D5">
                <g transform="translate(1.000000, 1.000000)" id="Rectangle">
                    <rect x="0" y="0" width="30" height="30"></rect>
                </g>
            </g>
        </g>
    </g>
</svg>