<?xml version="1.0" encoding="UTF-8"?>
<svg width="32px" height="32px" viewBox="0 0 32 32" version="1.1" xmlns="http://www.w3.org/2000/svg" xmlns:xlink="http://www.w3.org/1999/xlink">
    <!-- Generator: Sketch 48.2 (47327) - http://www.bohemiancoding.com/sketch -->
    <title>Icons / 24px / Travel / icn-account-multiple</title>
    <desc>Created with Sketch.</desc>
    <defs>
        <path d="M21.4,16.4 C23.056,16.4 24.388,15.056 24.388,13.4 C24.388,11.744 23.056,10.4 21.4,10.4 C19.744,10.4 18.4,11.744 18.4,13.4 C18.4,15.056 19.744,16.4 21.4,16.4 L21.4,16.4 Z M12.4,15.2 C14.392,15.2 15.988,13.592 15.988,11.6 C15.988,9.608 14.392,8 12.4,8 C10.408,8 8.8,9.608 8.8,11.6 C8.8,13.592 10.408,15.2 12.4,15.2 L12.4,15.2 Z M21.4,18.8 C19.204,18.8 14.8,19.904 14.8,22.1 L14.8,24.8 L28,24.8 L28,22.1 C28,19.904 23.596,18.8 21.4,18.8 L21.4,18.8 Z M12.4,17.6 C9.604,17.6 4,19.004 4,21.8 L4,24.8 L12.4,24.8 L12.4,22.1 C12.4,21.08 12.796,19.292 15.244,17.936 C14.2,17.72 13.192,17.6 12.4,17.6 L12.4,17.6 Z" id="path-1"></path>
    </defs>
    <g id="Icons" stroke="none" stroke-width="1" fill="none" fill-rule="evenodd">
        <g id="Icons-/-24px-/-Travel-/-icn-account-multiple">
            <mask id="mask-2" fill="white">
                <use xlink:href="#path-1"></use>
            </mask>
            <use id="Mask" fill="#79818A" xlink:href="#path-1"></use>
            <g id="_Library-Helpers-/-Colors-/-Front-/-Casper" mask="url(#mask-2)" fill="#BAC7D5">
                <g transform="translate(1.000000, 1.000000)" id="Rectangle">
                    <rect x="0" y="0" width="30" height="30"></rect>
                </g>
            </g>
        </g>
    </g>
</svg>