<?xml version="1.0" encoding="UTF-8"?>
<svg width="32px" height="32px" viewBox="0 0 32 32" version="1.1" xmlns="http://www.w3.org/2000/svg" xmlns:xlink="http://www.w3.org/1999/xlink">
    <!-- Generator: Sketch 48.2 (47327) - http://www.bohemiancoding.com/sketch -->
    <title>Icons / 24px / Travel / icn-taxi</title>
    <desc>Created with Sketch.</desc>
    <defs>
        <path d="M25.2266667,8.01333333 C24.96,7.22666667 24.2133333,6.66666667 23.3333333,6.66666667 L20,6.66666667 L20,4 L12,4 L12,6.66666667 L8.66666667,6.66666667 C7.78666667,6.66666667 7.05333333,7.22666667 6.77333333,8.01333333 L4,16 L4,26.6666667 C4,27.4 4.6,28 5.33333333,28 L6.66666667,28 C7.4,28 8,27.4 8,26.6666667 L8,25.3333333 L24,25.3333333 L24,26.6666667 C24,27.4 24.6,28 25.3333333,28 L26.6666667,28 C27.4,28 28,27.4 28,26.6666667 L28,16 L25.2266667,8.01333333 Z M8.66666667,21.3333333 C7.56,21.3333333 6.66666667,20.44 6.66666667,19.3333333 C6.66666667,18.2266667 7.56,17.3333333 8.66666667,17.3333333 C9.77333333,17.3333333 10.6666667,18.2266667 10.6666667,19.3333333 C10.6666667,20.44 9.77333333,21.3333333 8.66666667,21.3333333 Z M23.3333333,21.3333333 C22.2266667,21.3333333 21.3333333,20.44 21.3333333,19.3333333 C21.3333333,18.2266667 22.2266667,17.3333333 23.3333333,17.3333333 C24.44,17.3333333 25.3333333,18.2266667 25.3333333,19.3333333 C25.3333333,20.44 24.44,21.3333333 23.3333333,21.3333333 Z M6.66666667,14.6666667 L8.66666667,8.66666667 L23.3333333,8.66666667 L25.3333333,14.6666667 L6.66666667,14.6666667 Z" id="path-1"></path>
    </defs>
    <g id="Icons" stroke="none" stroke-width="1" fill="none" fill-rule="evenodd">
        <g id="Icons-/-24px-/-Travel-/-icn-taxi">
            <mask id="mask-2" fill="white">
                <use xlink:href="#path-1"></use>
            </mask>
            <use id="Mask" fill="#F2A911" fill-rule="nonzero" xlink:href="#path-1"></use>
            <g id="_Library-Helpers-/-Colors-/-Front-/-Casper" mask="url(#mask-2)" fill="#BAC7D5">
                <g transform="translate(1.000000, 1.000000)" id="Rectangle">
                    <rect x="0" y="0" width="30" height="30"></rect>
                </g>
            </g>
        </g>
    </g>
</svg>