<?xml version="1.0" encoding="UTF-8"?>
<svg width="32px" height="32px" viewBox="0 0 32 32" version="1.1" xmlns="http://www.w3.org/2000/svg" xmlns:xlink="http://www.w3.org/1999/xlink">
    <!-- Generator: Sketch 48.2 (47327) - http://www.bohemiancoding.com/sketch -->
    <title>Icons / 24px / Travel / icn-passport (custom)</title>
    <desc>Created with Sketch.</desc>
    <defs>
        <path d="M9.4,4 C8.0745166,4 7,5.0745166 7,6.4 L7,25.6 C7,26.9254834 8.0745166,28 9.4,28 L23.8,28 C25.1254834,28 26.2,26.9254834 26.2,25.6 L26.2,6.4 C26.2,5.0745166 25.1254834,4 23.8,4 L9.4,4 Z M16.6,7.6 C19.9137085,7.6 22.6,10.2862915 22.6,13.6 C22.6,16.9137085 19.9137085,19.6 16.6,19.6 C13.2862915,19.6 10.6,16.9137085 10.6,13.6 C10.6,10.2862915 13.2862915,7.6 16.6,7.6 Z M16.6,8.8 C16.108,9.544 15.7,10.348 15.448,11.2 L17.752,11.2 C17.5,10.348 17.104,9.544 16.6,8.8 Z M15.04,9.064 C13.936,9.436 13,10.204 12.448,11.2 L14.2,11.2 C14.416,10.456 14.68,9.736 15.04,9.064 Z M18.148,9.064 C18.508,9.736 18.784,10.456 19,11.2 L20.752,11.2 C20.2,10.204 19.252,9.448 18.148,9.064 Z M11.956,12.4 C11.86,12.784 11.8,13.18 11.8,13.6 C11.8,14.02 11.86,14.416 11.956,14.8 L13.984,14.8 C13.936,14.404 13.9,14.008 13.9,13.6 C13.9,13.192 13.936,12.796 13.984,12.4 L11.956,12.4 Z M15.196,12.4 C15.136,12.784 15.1,13.192 15.1,13.6 C15.1,14.008 15.136,14.404 15.196,14.8 L18.004,14.8 C18.052,14.404 18.1,14.008 18.1,13.6 C18.1,13.192 18.052,12.784 18.004,12.4 L15.196,12.4 Z M19.216,12.4 C19.264,12.796 19.3,13.192 19.3,13.6 C19.3,14.008 19.264,14.404 19.216,14.8 L21.244,14.8 C21.34,14.416 21.4,14.02 21.4,13.6 C21.4,13.18 21.34,12.784 21.244,12.4 L19.216,12.4 Z M12.448,16 C13,16.996 13.936,17.752 15.04,18.136 C14.68,17.464 14.416,16.756 14.2,16 L12.448,16 Z M15.448,16 C15.7,16.864 16.108,17.656 16.6,18.4 C17.104,17.656 17.5,16.864 17.752,16 L15.448,16 Z M19,16 C18.784,16.756 18.508,17.464 18.148,18.136 C19.252,17.752 20.2,16.996 20.752,16 L19,16 Z M10.6,22 L22.6,22 L22.6,24.4 L10.6,24.4 L10.6,22 Z" id="path-1"></path>
    </defs>
    <g id="Icons" stroke="none" stroke-width="1" fill="none" fill-rule="evenodd">
        <g id="Icons-/-24px-/-Travel-/-icn-passport-(custom)">
            <mask id="mask-2" fill="white">
                <use xlink:href="#path-1"></use>
            </mask>
            <use id="Mask" fill="#000000" fill-rule="nonzero" xlink:href="#path-1"></use>
            <g id="_Library-Helpers-/-Colors-/-Front-/-Casper" mask="url(#mask-2)" fill="#BAC7D5">
                <g transform="translate(1.000000, 1.000000)" id="Rectangle">
                    <rect x="0" y="0" width="30" height="30"></rect>
                </g>
            </g>
        </g>
    </g>
</svg>