<?xml version="1.0" encoding="UTF-8"?>
<svg width="32px" height="32px" viewBox="0 0 32 32" version="1.1" xmlns="http://www.w3.org/2000/svg" xmlns:xlink="http://www.w3.org/1999/xlink">
    <!-- Generator: Sketch 48.2 (47327) - http://www.bohemiancoding.com/sketch -->
    <title>Icons / 24px / Travel / icn-walk</title>
    <desc>Created with Sketch.</desc>
    <defs>
        <path d="M17.5346579,8.46511628 C18.7864078,8.46511628 19.8105667,7.46046512 19.8105667,6.23255814 C19.8105667,5.00465116 18.7864078,4 17.5346579,4 C16.2829081,4 15.2587492,5.00465116 15.2587492,6.23255814 C15.2587492,7.46046512 16.2829081,8.46511628 17.5346579,8.46511628 L17.5346579,8.46511628 Z M13.3242267,12.2604651 L10.1379544,28 L12.5276586,28 L14.5759765,19.0697674 L16.9656807,21.3023256 L16.9656807,28 L19.2415895,28 L19.2415895,19.627907 L16.8518853,17.3953488 L17.5346579,14.0465116 C19.0139986,15.7209302 21.2899074,16.8372093 23.7934071,16.8372093 L23.7934071,14.6046512 C21.6312937,14.6046512 19.8105667,13.4883721 18.9002032,11.9255814 L17.7622488,10.1395349 C17.3070671,9.46976744 16.6242944,9.02325581 15.8277263,9.02325581 C15.48634,9.02325581 15.2587492,9.13488372 14.9173628,9.13488372 L9,11.5906977 L9,16.8372093 L11.2759088,16.8372093 L11.2759088,13.0418605 L13.3242267,12.2604651 L13.3242267,12.2604651 Z" id="path-1"></path>
    </defs>
    <g id="Icons" stroke="none" stroke-width="1" fill="none" fill-rule="evenodd">
        <g id="Icons-/-24px-/-Travel-/-icn-walk">
            <mask id="mask-2" fill="white">
                <use xlink:href="#path-1"></use>
            </mask>
            <use id="Mask" fill="#C0C8D1" xlink:href="#path-1"></use>
            <g id="_Library-Helpers-/-Colors-/-Front-/-Casper" mask="url(#mask-2)" fill="#BAC7D5">
                <g transform="translate(1.000000, 1.000000)" id="Rectangle">
                    <rect x="0" y="0" width="30" height="30"></rect>
                </g>
            </g>
        </g>
    </g>
</svg>