<?xml version="1.0" encoding="UTF-8"?>
<svg width="32px" height="32px" viewBox="0 0 32 32" version="1.1" xmlns="http://www.w3.org/2000/svg" xmlns:xlink="http://www.w3.org/1999/xlink">
    <!-- Generator: Sketch 48.2 (47327) - http://www.bohemiancoding.com/sketch -->
    <title>Icons / 24px / Travel / icn-bus</title>
    <desc>Created with Sketch.</desc>
    <defs>
        <path d="M7.28768523,25.4884211 L7.28768523,27.7368421 C7.28768523,28.4315789 7.86714359,29 8.57537046,29 L9.8630557,29 C10.5712826,29 11.1507409,28.4315789 11.1507409,27.7368421 L11.1507409,26.4736842 L21.4522228,26.4736842 L21.4522228,27.7368421 C21.4522228,28.4315789 22.0316811,29 22.739908,29 L24.0275933,29 C24.7358201,29 25.3152785,28.4315789 25.3152785,27.7368421 L25.3152785,25.4884211 C26.1007665,24.7936842 26.6029637,23.7957895 26.6029637,22.6842105 L26.6029637,10.0526316 C26.6029637,5.63157895 21.9930506,5 16.3014819,5 C10.6099131,5 6,5.63157895 6,10.0526316 L6,22.6842105 C6,23.7957895 6.50219724,24.7936842 7.28768523,25.4884211 Z M8.57537046,22.0526316 C8.57537046,21.0042105 9.43811957,20.1578947 10.5068983,20.1578947 C11.5756771,20.1578947 12.4384262,21.0042105 12.4384262,22.0526316 C12.4384262,23.1010526 11.5756771,23.9473684 10.5068983,23.9473684 C9.43811957,23.9473684 8.57537046,23.1010526 8.57537046,22.0526316 Z M20.1645376,22.0526316 C20.1645376,21.0042105 21.0272867,20.1578947 22.0960654,20.1578947 C23.1648441,20.1578947 24.0275933,21.0042105 24.0275933,22.0526316 C24.0275933,23.1010526 23.1648441,23.9473684 22.0960654,23.9473684 C21.0272867,23.9473684 20.1645376,23.1010526 20.1645376,22.0526316 Z M8.57537046,16.3684211 L8.57537046,10.0526316 L24.0275933,10.0526316 L24.0275933,16.3684211 L8.57537046,16.3684211 Z" id="path-1"></path>
    </defs>
    <g id="Icons" stroke="none" stroke-width="1" fill="none" fill-rule="evenodd">
        <g id="Icons-/-24px-/-Travel-/-icn-bus">
            <mask id="mask-2" fill="white">
                <use xlink:href="#path-1"></use>
            </mask>
            <use id="Mask" fill="#C0C8D1" xlink:href="#path-1"></use>
            <g id="_Library-Helpers-/-Colors-/-Front-/-Casper" mask="url(#mask-2)" fill="#BAC7D5">
                <g transform="translate(1.000000, 1.000000)" id="Rectangle">
                    <rect x="0" y="0" width="30" height="30"></rect>
                </g>
            </g>
        </g>
    </g>
</svg>