<?xml version="1.0" encoding="UTF-8"?>
<svg width="32px" height="32px" viewBox="0 0 32 32" version="1.1" xmlns="http://www.w3.org/2000/svg" xmlns:xlink="http://www.w3.org/1999/xlink">
    <!-- Generator: Sketch 48.2 (47327) - http://www.bohemiancoding.com/sketch -->
    <title>Icons / 24px / Travel / icn-baggage (custom)</title>
    <desc>Created with Sketch.</desc>
    <defs>
        <path d="M20.6956522,11.3043478 L16.4264367,11.3043478 C15.3352603,11.3043478 14.4347826,12.199492 14.4347826,13.3037083 L14.4347826,14.6434783 L10.573913,14.6434783 L8.69565217,14.6434783 L4,14.6434783 L4,10.4695652 C4,9.42713043 4.83582609,8.59130435 5.87826087,8.59130435 L8.69565217,8.59130435 L8.69565217,5.87826087 C8.69565217,4.83582609 9.53147826,4 10.573913,4 L14.1217391,4 C15.1641739,4 16,4.83582609 16,5.87826087 L16,8.59130435 L18.8173913,8.59130435 C19.8598261,8.59130435 20.6956522,9.42713043 20.6956522,10.4695652 L20.6956522,11.3043478 Z M10.2608696,26.226087 L9.2173913,26.226087 L9.2173913,26.9467455 C9.2173913,27.5284419 8.75422801,28 8.17391304,28 C7.59761591,28 7.13043478,27.5373706 7.13043478,26.9467455 L7.13043478,26.226087 L5.87826087,26.226087 C4.83582609,26.226087 4,25.3902609 4,24.3478261 L4,16.7304348 L10.8196364,16.7304348 C10.4675211,17.2224221 10.2608696,17.8256922 10.2608696,18.4775294 L10.2608696,26.226087 Z M10.573913,5.87826087 L10.573913,8.59130435 L14.1217391,8.59130435 L14.1217391,5.87826087 L10.573913,5.87826087 Z M23.826087,16.5217391 L25.9130435,16.5217391 C27.0713043,16.5217391 28,17.4504348 28,18.6086957 L28,25.9130435 C28,27.0713043 27.0713043,28 25.9130435,28 L13.3913043,28 C12.2330435,28 11.3043478,27.0713043 11.3043478,25.9130435 L11.3147826,18.6086957 C11.3147826,17.4504348 12.2330435,16.5217391 13.3913043,16.5217391 L15.4782609,16.5217391 L15.4782609,14.4347826 C15.4782609,13.2765217 16.4069565,12.3478261 17.5652174,12.3478261 L21.7391304,12.3478261 C22.8973913,12.3478261 23.826087,13.2765217 23.826087,14.4347826 L23.826087,16.5217391 Z M17.5652174,16.5217391 L21.7391304,16.5217391 L21.7391304,14.4347826 L17.5652174,14.4347826 L17.5652174,16.5217391 Z" id="path-1"></path>
    </defs>
    <g id="Icons" stroke="none" stroke-width="1" fill="none" fill-rule="evenodd">
        <g id="Icons-/-24px-/-Travel-/-icn-baggage-(custom)">
            <mask id="mask-2" fill="white">
                <use xlink:href="#path-1"></use>
            </mask>
            <use id="Mask" fill="#79818A" xlink:href="#path-1"></use>
            <g id="_Library-Helpers-/-Colors-/-Front-/-Casper" mask="url(#mask-2)" fill="#BAC7D5">
                <g transform="translate(1.000000, 1.000000)" id="Rectangle">
                    <rect x="0" y="0" width="30" height="30"></rect>
                </g>
            </g>
        </g>
    </g>
</svg>