<?xml version="1.0" encoding="UTF-8"?>
<svg width="32px" height="32px" viewBox="0 0 32 32" version="1.1" xmlns="http://www.w3.org/2000/svg" xmlns:xlink="http://www.w3.org/1999/xlink">
    <!-- Generator: Sketch 48.2 (47327) - http://www.bohemiancoding.com/sketch -->
    <title>Icons / 24px / Travel / icn-train</title>
    <desc>Created with Sketch.</desc>
    <defs>
        <path d="M22.8,14.8 L8.4,14.8 L8.4,8.8 L22.8,8.8 L22.8,14.8 Z M15.6,23.2 C14.268,23.2 13.2,22.12 13.2,20.8 C13.2,19.468 14.268,18.4 15.6,18.4 C16.9254834,18.4 18,19.4745166 18,20.8 C18,22.1254834 16.9254834,23.2 15.6,23.2 Z M6,21.4 C6,23.7195959 7.88040405,25.6 10.2,25.6 L8.4,27.4 L8.4,28 L22.8,28 L22.8,27.4 L21,25.6 C23.3195959,25.6 25.2,23.7195959 25.2,21.4 L25.2,8.8 C25.2,4.6 20.904,4 15.6,4 C10.296,4 6,4.6 6,8.8 L6,21.4 Z" id="path-1"></path>
    </defs>
    <g id="Icons" stroke="none" stroke-width="1" fill="none" fill-rule="evenodd">
        <g id="Icons-/-24px-/-Travel-/-icn-train">
            <mask id="mask-2" fill="white">
                <use xlink:href="#path-1"></use>
            </mask>
            <use id="Mask" fill="#000000" fill-rule="nonzero" xlink:href="#path-1"></use>
            <g id="_Library-Helpers-/-Colors-/-Front-/-Casper" mask="url(#mask-2)" fill="#BAC7D5">
                <g transform="translate(1.000000, 1.000000)" id="Rectangle">
                    <rect x="0" y="0" width="30" height="30"></rect>
                </g>
            </g>
        </g>
    </g>
</svg>