
            <svg width="24px" height="24px" viewBox="0 0 24 24" version="1.1" xmlns="http://www.w3.org/2000/svg" xmlns:xlink="http://www.w3.org/1999/xlink">
            
            <g>
               <path d="M19,7 C17.896,7 17,6.104 17,5 C17,3.896 17.896,3 19,3 C20.104,3 21,3.896 21,5 C21,6.104 20.104,7 19,7 M19,1 C21.209,1 23,2.791 23,5 C23,8 19,13 19,13 C19,13 15,8 15,5 C15,2.791 16.791,1 19,1 Z M6,9 C8.209,9 10,10.791 10,13 C10,16 6,21 6,21 C6,21 2,16 2,13 C2,10.791 3.791,9 6,9 Z M6,15 C7.104,15 8,14.104 8,13 C8,11.896 7.104,11 6,11 C4.896,11 4,11.896 4,13 C4,14.104 4.896,15 6,15 Z M9.5527,18.106 L17.5527,14.106 L18.4477,15.895 L10.4477,19.895 L9.5527,18.106 Z" id="path-1"></path>
            </g>
        </svg>
        