
            <svg width="24px" height="24px" viewBox="0 0 24 24" version="1.1" xmlns="http://www.w3.org/2000/svg" xmlns:xlink="http://www.w3.org/1999/xlink">
            
            <g>
               <path d="M6.2979,12.1924 C8.4239,12.7684 9.9999,14.6944 9.9999,17.0004 L9.9999,19.0004 C9.9999,19.5524 9.5519,20.0004 8.9999,20.0004 L7.9999,20.0004 L7.9999,23.0004 C7.9999,23.5524 7.5519,24.0004 6.9999,24.0004 L2.9999,24.0004 C2.4479,24.0004 1.9999,23.5524 1.9999,23.0004 L1.9999,20.0004 L0.9999,20.0004 C0.4479,20.0004 -0.0001,19.5524 -0.0001,19.0004 L-0.0001,17.0004 C-0.0001,14.6944 1.5769,12.7684 3.7019,12.1924 C2.6989,11.7064 1.9999,10.6874 1.9999,9.5004 C1.9999,7.8454 3.3459,6.5004 4.9999,6.5004 C6.6539,6.5004 7.9999,7.8454 7.9999,9.5004 C7.9999,10.6874 7.3009,11.7064 6.2979,12.1924 Z M15.7539,18.4229 C17.0789,19.0749 17.9999,20.4269 17.9999,21.9999 L17.9999,22.9999 C17.9999,23.5519 17.5519,23.9999 16.9999,23.9999 L10.9999,23.9999 C10.4479,23.9999 9.9999,23.5519 9.9999,22.9999 L9.9999,21.9999 C9.9999,20.4269 10.9209,19.0749 12.2459,18.4229 C11.4949,17.8769 10.9999,16.9979 10.9999,15.9999 C10.9999,14.3459 12.3459,12.9999 13.9999,12.9999 C15.6539,12.9999 16.9999,14.3459 16.9999,15.9999 C16.9999,16.9979 16.5049,17.8769 15.7539,18.4229 Z M21,6 L21,8 L18,8 L18,11 L16,11 L16,8 L13,8 L13,6 L16,6 L16,3 L18,3 L18,6 L21,6 Z" id="path-1"></path>
            </g>
        </svg>
        