
            <svg width="24px" height="24px" viewBox="0 0 24 24" version="1.1" xmlns="http://www.w3.org/2000/svg" xmlns:xlink="http://www.w3.org/1999/xlink">
            
            <g>
               <path d="M9.2979,9.1924 C11.4239,9.7684 12.9999,11.6944 12.9999,14.0004 L12.9999,16.0004 C12.9999,16.5524 12.5519,17.0004 11.9999,17.0004 L10.9999,17.0004 L10.9999,20.0004 C10.9999,20.5524 10.5519,21.0004 9.9999,21.0004 L5.9999,21.0004 C5.4479,21.0004 4.9999,20.5524 4.9999,20.0004 L4.9999,17.0004 L3.9999,17.0004 C3.4479,17.0004 2.9999,16.5524 2.9999,16.0004 L2.9999,14.0004 C2.9999,11.6944 4.5769,9.7684 6.7019,9.1924 C5.6989,8.7064 4.9999,7.6874 4.9999,6.5004 C4.9999,4.8454 6.3459,3.5004 7.9999,3.5004 C9.6539,3.5004 10.9999,4.8454 10.9999,6.5004 C10.9999,7.6874 10.3009,8.7064 9.2979,9.1924 Z M18.7539,15.4229 C20.0789,16.0749 20.9999,17.4269 20.9999,18.9999 L20.9999,19.9999 C20.9999,20.5519 20.5519,20.9999 19.9999,20.9999 L13.9999,20.9999 C13.4479,20.9999 12.9999,20.5519 12.9999,19.9999 L12.9999,18.9999 C12.9999,17.4269 13.9209,16.0749 15.2459,15.4229 C14.4949,14.8769 13.9999,13.9979 13.9999,12.9999 C13.9999,11.3459 15.3459,9.9999 16.9999,9.9999 C18.6539,9.9999 19.9999,11.3459 19.9999,12.9999 C19.9999,13.9979 19.5049,14.8769 18.7539,15.4229 Z" id="path-1"></path>
            </g>
        </svg>
        