
            <svg width="24px" height="24px" viewBox="0 0 24 24" version="1.1" xmlns="http://www.w3.org/2000/svg" xmlns:xlink="http://www.w3.org/1999/xlink">
            
            <g>
               <path d="M21.9336,10.2979 C21.8356,10.5499 21.6446,10.7519 21.3966,10.8599 L18.6636,12.0639 L16.4726,16.0669 L14.6756,16.9999 L16.1996,13.0469 L13.9996,14.0619 L9.9996,12.0559 L11.5836,11.1429 L13.6856,12.0819 L16.1166,10.9999 C15.9266,10.9999 13.0406,9.0779 12.8806,8.9749 L14.4886,8.1429 L17.8096,10.2459 L20.6156,8.9969 C21.1176,8.7959 21.6896,9.0269 21.9126,9.5209 C22.0216,9.7659 22.0296,10.0459 21.9336,10.2979 M5.9996,7.9999 C5.4476,7.9999 4.9996,7.5529 4.9996,6.9999 C4.9996,6.4479 5.4476,5.9999 5.9996,5.9999 C6.5526,5.9999 6.9996,6.4479 6.9996,6.9999 C6.9996,7.5529 6.5526,7.9999 5.9996,7.9999 M5.9996,11.9999 C5.4476,11.9999 4.9996,11.5529 4.9996,10.9999 C4.9996,10.4479 5.4476,9.9999 5.9996,9.9999 C6.5526,9.9999 6.9996,10.4479 6.9996,10.9999 C6.9996,11.5529 6.5526,11.9999 5.9996,11.9999 M5.9996,15.9999 C5.4476,15.9999 4.9996,15.5529 4.9996,14.9999 C4.9996,14.4479 5.4476,13.9999 5.9996,13.9999 C6.5526,13.9999 6.9996,14.4479 6.9996,14.9999 C6.9996,15.5529 6.5526,15.9999 5.9996,15.9999 M5.9996,19.9999 C5.4476,19.9999 4.9996,19.5529 4.9996,18.9999 C4.9996,18.4479 5.4476,17.9999 5.9996,17.9999 C6.5526,17.9999 6.9996,18.4479 6.9996,18.9999 C6.9996,19.5529 6.5526,19.9999 5.9996,19.9999 M21.9996,3.9999 L1.9996,3.9999 C0.8996,3.9999 -0.0004,4.9009 -0.0004,5.9999 L-0.0004,19.9999 C-0.0004,21.0999 0.8996,21.9999 1.9996,21.9999 L21.9996,21.9999 C23.1006,21.9999 23.9996,21.0999 23.9996,19.9999 L23.9996,5.9999 C23.9996,4.9009 23.1006,3.9999 21.9996,3.9999" id="path-1"></path>
            </g>
        </svg>
        