
            <svg width="24px" height="24px" viewBox="0 0 24 24" version="1.1" xmlns="http://www.w3.org/2000/svg" xmlns:xlink="http://www.w3.org/1999/xlink">
            
            <g>
               <path d="M16,13 L16,15 L15,15 L15,13 L8,13 L8,12 L16,12 L16,13 Z M16,9 C17.104,9 18,9.896 18,11 L18,20 C18,21.104 17.104,22 16,22 L16,23 L14,23 L14,22 L10,22 L10,23 L8,23 L8,22 C6.896,22 6,21.104 6,20 L6,11 C6,9.896 6.896,9 8,9 L16,9 Z M11,8 L11,5 L8,5 L8,3 L16,3 L16,5 L13,5 L13,8 L11,8 Z" id="path-1"></path>
            </g>
        </svg>
        