
            <svg width="24px" height="24px" viewBox="0 0 24 24" version="1.1" xmlns="http://www.w3.org/2000/svg" xmlns:xlink="http://www.w3.org/1999/xlink">
            
            <g>
               <path d="M4,12.2 L20,12.2 L20,19.5 C20,20.499 19.199,21.3 18.2,21.3 L17,21.3 L17,21.9906311 C17,22.5480902 16.5561352,23 16,23 C15.4477153,23 15,22.5566468 15,21.9906311 L15,21.3 L9,21.3 L9,21.9906311 C9,22.5480902 8.55613518,23 8,23 C7.44771525,23 7,22.5566468 7,21.9906311 L7,21.3 L5.8,21.3 C4.801,21.3 4,20.499 4,19.5 L4,12.2 Z M4,10.2 L4,6.2 C4,5.201 4.801,4.4 5.8,4.4 L8.5,4.4 L8.5,1.8 C8.5,0.801 9.301,0 10.3,0 L13.7,0 C14.699,0 15.5,0.801 15.5,1.8 L15.5,4.4 L18.2,4.4 C19.199,4.4 20,5.201 20,6.2 L20,10.2 L16.5,10.2 L14.7,10.2 L9.3,10.2 L7.5,10.2 L4,10.2 Z M10.3,1.8 L13.7,1.8 L13.7,4.4 L10.3,4.4 L10.3,1.8 Z" id="path-1"></path>
            </g>
        </svg>
        