<svg xmlns="http://www.w3.org/2000/svg" width="278" height="138" viewBox="0 0 278 138">
  <g fill="#FFF" fill-rule="evenodd">
    <path fill-rule="nonzero" d="M120.447,57.027 C120.587,56.673 120.729,56.108 120.729,55.755 C120.729,53.848 119.246,52.929 117.692,52.929 C116.35,52.929 115.502,53.565 115.007,55.049 L108.791,74.052 L101.656,54.907 C101.232,53.707 100.456,52.929 98.971,52.929 C97.488,52.929 96.711,53.706 96.288,54.907 L89.223,74.052 L83.007,55.049 C82.512,53.566 81.664,52.929 80.322,52.929 C78.768,52.929 77.285,53.848 77.285,55.755 C77.285,56.108 77.425,56.673 77.567,57.027 L86.256,82.811 C86.539,83.941 87.456,84.719 89.011,84.719 C90.565,84.719 91.413,83.871 91.837,82.74 L98.971,63.172 L106.177,82.74 C106.601,83.94 107.519,84.719 109.003,84.719 C110.487,84.719 111.334,84.013 111.758,82.811 L120.447,57.027 Z M55.67,78.823 L45.39,68.605 L55.67,58.388 C56.968,57.088 57.07,55.09 55.67,53.692 C54.271,52.293 52.273,52.392 50.975,53.692 L38.467,66.2 C37.8260254,66.8343989 37.4723235,67.703299 37.488,68.605 C37.4722063,69.5067228 37.8259263,70.3756673 38.467,71.01 L50.975,83.517 C52.273,84.817 54.271,84.917 55.67,83.517 C57.068,82.12 56.968,80.122 55.67,78.823 Z M35.913,81.16 L35.913,56.01 C35.913,54.174 34.501,52.69 32.593,52.69 C30.685,52.69 29.273,54.174 29.273,56.01 L29.273,81.16 C29.273,82.995 30.614,84.479 32.593,84.479 C34.571,84.479 35.913,82.995 35.913,81.159 L35.913,81.16 Z M64.018,56.25 L64.018,81.397 C64.018,83.234 65.361,84.719 67.338,84.719 C69.318,84.719 70.66,83.234 70.66,81.397 L70.66,56.25 C70.66,54.413 69.246,52.93 67.339,52.93 C65.432,52.93 64.019,54.413 64.019,56.25 L64.018,56.25 Z M127.468,56.25 L127.468,81.397 C127.468,83.234 128.81,84.719 130.788,84.719 C132.766,84.719 134.108,83.234 134.108,81.397 L134.108,56.25 C134.108,54.413 132.695,52.93 130.788,52.93 C128.881,52.93 127.468,54.413 127.468,56.25 Z M127.468,56.25 L127.468,81.397 C127.468,83.234 128.81,84.719 130.788,84.719 C132.766,84.719 134.108,83.234 134.108,81.397 L134.108,56.25 C134.108,54.413 132.695,52.93 130.788,52.93 C128.881,52.93 127.468,54.413 127.468,56.25 Z M127.468,56.25 L127.468,81.397 C127.468,83.234 128.81,84.719 130.788,84.719 C132.766,84.719 134.108,83.234 134.108,81.397 L134.108,56.25 C134.108,54.413 132.695,52.93 130.788,52.93 C128.881,52.93 127.468,54.413 127.468,56.25 Z M194.668,58.71 C197.643,58.71 199.378,59.846 201.039,61.112 C201.702,61.57 202.351,61.792 203.021,61.792 C204.633,61.792 205.85,60.556 205.85,58.918 C205.85,58.154 205.54,57.472 204.903,56.834 C202.533,54.381 198.707,52.917 194.668,52.917 C185.508,52.917 179.109,59.407 179.109,68.699 C179.109,77.992 185.507,84.482 194.669,84.482 C198.707,84.482 202.527,83.023 204.886,80.581 C205.534,79.931 205.85,79.245 205.85,78.481 C205.85,76.843 204.633,75.607 203.02,75.607 C202.349,75.607 201.686,75.84 200.991,76.321 C199.422,77.519 197.641,78.689 194.668,78.689 C189.181,78.689 185.348,74.581 185.348,68.699 C185.348,62.817 189.181,58.71 194.668,58.71 Z M225.582,52.917 C216.662,52.917 209.934,59.702 209.934,68.699 C209.934,77.697 216.661,84.482 225.582,84.482 C234.502,84.482 241.229,77.697 241.229,68.699 C241.229,59.702 234.503,52.917 225.582,52.917 Z M225.582,78.845 C219.392,78.845 216.154,73.741 216.154,68.699 C216.154,62.039 220.897,58.554 225.582,58.554 C231.774,58.554 235.014,63.658 235.014,68.699 C235.014,75.36 230.269,78.845 225.582,78.845 Z M275.009,53.095 C273.859,53.095 272.849,53.776 272.306,54.915 L262.635,75.165 L262.55,74.987 L252.857,54.875 C252.188,53.661 251.322,53.095 250.13,53.095 C249.353208,53.0866072 248.605812,53.3916186 248.056693,53.9411137 C247.507574,54.4906088 247.203075,55.2382139 247.212,56.015 L247.212,81.339 C247.212,82.946 248.548,84.303 250.13,84.303 C251.736,84.303 253.093,82.946 253.093,81.339 L253.093,67.883 L260.073,82.675 C260.631,83.785 261.446,84.303 262.637,84.303 C263.772,84.303 264.708,83.704 265.206,82.66 L272.09,67.886 L272.09,81.385 C272.09,82.994 273.4,84.303 275.009,84.303 C276.67,84.303 277.971,83.021 277.971,81.385 L277.971,56.059 C277.971,54.287 276.781,53.096 275.009,53.096 L275.009,53.095 Z"/>
    <path d="M149.934,97.876 C149.080291,97.2425519 148.045049,96.9013288 146.982,96.903 C145.40053,96.9058143 143.913546,97.6563522 142.972,98.927 C136.728,107.387 127.912,114.48 117.476,119.438 C106.625,124.598 94.222,127.323 81.572,127.323 C62.271,127.323 44.169,121.116 30.602,109.843 C24.089,104.439 18.987,98.165 15.437,91.197 C11.804,84.062 9.961,76.493 9.959,68.701 C9.961,60.909 11.804,53.339 15.437,46.202 C20.78,35.711 29.687,26.754 41.196,20.3 C53.123,13.61 67.092,10.074 81.598,10.074 C94.246,10.074 106.679,12.814 117.554,17.998 C128.012,22.982 136.833,30.105 143.064,38.598 C144.005215,39.8744294 145.496077,40.6287651 147.082,40.631 C148.140716,40.6327674 149.172015,40.2944929 150.024,39.666 C152.237513,38.0368268 152.714808,34.9234522 151.091,32.706 C143.885,22.891 133.771,14.696 121.839,9.008 C109.635,3.191 95.72,0.117 81.6,0.116 C59.978,0.12 39.608,7.144 24.24,19.893 C16.68,26.17 10.733,33.5 6.564,41.682 C2.207,50.227 -0.002,59.317 -4.31772694e-15,68.7 C-0.002,78.083 2.207,87.172 6.564,95.717 C12.812,107.97 23.104,118.367 36.325,125.783 C49.737,133.304 65.392,137.281 81.598,137.282 C95.681,137.282 109.566,134.222 121.751,128.432 C133.66,122.77 143.768,114.612 150.984,104.84 C152.613705,102.625808 152.144036,99.5103362 149.934,97.875"/>
    <path d="M157.898,63.215 C154.871032,63.2188577 152.418306,65.6720311 152.415,68.699 C152.418306,71.7259689 154.871032,74.1791423 157.898,74.183 C160.924968,74.1791423 163.377694,71.7259689 163.381,68.699 C163.377694,65.6720311 160.924968,63.2188577 157.898,63.215"/>
  </g>
</svg>
