<?xml version="1.0" encoding="UTF-8"?>
<svg width="191px" height="30px" viewBox="0 0 191 30" version="1.1" xmlns="http://www.w3.org/2000/svg" xmlns:xlink="http://www.w3.org/1999/xlink">
    <!-- Generator: Sketch 56.2 (81672) - https://sketch.com -->
    <title>Logo</title>
    <desc>Created with Sketch.</desc>
    <g id="Page-1" stroke="none" stroke-width="1" fill="none" fill-rule="evenodd">
        <g id="Screen-1" transform="translate(-32.000000, -32.000000)">
            <g id="Sidebar">
                <g id="Logo" transform="translate(32.000000, 32.000000)">
                    <g id="-3.-Assets-/-6.-Kiwi.com-Logos-/-1.-Colored-" transform="translate(150.000000, 5.000000)">
                        <g id="Logo-colored" transform="translate(-0.000000, 0.000000)">
                            <path d="M17.6715942,8.26478261 C17.6921346,8.21347826 17.7129683,8.1315942 17.7129683,8.08043478 C17.7129683,7.80405797 17.4953874,7.67086957 17.2673895,7.67086957 C17.0704956,7.67086957 16.9460798,7.76304348 16.873455,7.97811594 L15.9614636,10.7321739 L14.9146395,7.95753623 C14.8524316,7.78362319 14.7385794,7.67086957 14.520705,7.67086957 C14.303124,7.67086957 14.1891251,7.78347826 14.1270639,7.95753623 L13.0905099,10.7321739 L12.1785185,7.97811594 C12.1058937,7.76318841 11.9814779,7.67086957 11.784584,7.67086957 C11.5565862,7.67086957 11.3390052,7.80405797 11.3390052,8.08043478 C11.3390052,8.1315942 11.3595455,8.21347826 11.3803793,8.26478261 L12.6552013,12.0015942 C12.6967221,12.1653623 12.8312614,12.2781159 13.059406,12.2781159 C13.2874038,12.2781159 13.4118196,12.1552174 13.4740276,11.9913043 L14.520705,9.15536232 L15.577946,11.9913043 C15.6401539,12.1652174 15.7748399,12.2781159 15.9925675,12.2781159 C16.2102952,12.2781159 16.3345643,12.1757971 16.3967722,12.0015942 L17.6715942,8.26478261 L17.6715942,8.26478261 Z M8.16772231,11.4236232 L6.65947397,9.94275362 L8.16772231,8.46202899 C8.35816067,8.27362319 8.37312578,7.98405797 8.16772231,7.78144928 C7.96246556,7.57869565 7.66932546,7.59304348 7.4788871,7.78144928 L5.6437538,9.5942029 C5.54971209,9.68614477 5.49781808,9.81207233 5.50011809,9.94275362 C5.49780089,10.0734381 5.54969755,10.1993721 5.6437538,10.2913043 L7.4788871,12.103913 C7.66932546,12.2923188 7.96246556,12.3068116 8.16772231,12.103913 C8.37283235,11.9014493 8.35816067,11.6118841 8.16772231,11.4236232 L8.16772231,11.4236232 Z M5.26903918,11.7623188 L5.26903918,8.1173913 C5.26903918,7.85130435 5.06187511,7.63623188 4.78193952,7.63623188 C4.50200394,7.63623188 4.29483986,7.85130435 4.29483986,8.1173913 L4.29483986,11.7623188 C4.29483986,12.0282609 4.49158705,12.2433333 4.78193952,12.2433333 C5.07214529,12.2433333 5.26903918,12.0282609 5.26903918,11.7621739 L5.26903918,11.7623188 Z M9.39251387,8.15217391 L9.39251387,11.7966667 C9.39251387,12.0628986 9.58955448,12.2781159 9.87961353,12.2781159 C10.1701127,12.2781159 10.3670066,12.0628986 10.3670066,11.7966667 L10.3670066,8.15217391 C10.3670066,7.88594203 10.1595491,7.67101449 9.87976024,7.67101449 C9.59997137,7.67101449 9.39266058,7.88594203 9.39266058,8.15217391 L9.39251387,8.15217391 Z M18.7016926,8.15217391 L18.7016926,11.7966667 C18.7016926,12.0628986 18.8985865,12.2781159 19.1887923,12.2781159 C19.478998,12.2781159 19.6758919,12.0628986 19.6758919,11.7966667 L19.6758919,8.15217391 C19.6758919,7.88594203 19.4685811,7.67101449 19.1887923,7.67101449 C18.9090034,7.67101449 18.7016926,7.88594203 18.7016926,8.15217391 L18.7016926,8.15217391 Z M18.7016926,8.15217391 L18.7016926,11.7966667 C18.7016926,12.0628986 18.8985865,12.2781159 19.1887923,12.2781159 C19.478998,12.2781159 19.6758919,12.0628986 19.6758919,11.7966667 L19.6758919,8.15217391 C19.6758919,7.88594203 19.4685811,7.67101449 19.1887923,7.67101449 C18.9090034,7.67101449 18.7016926,7.88594203 18.7016926,8.15217391 L18.7016926,8.15217391 Z M18.7016926,8.15217391 L18.7016926,11.7966667 C18.7016926,12.0628986 18.8985865,12.2781159 19.1887923,12.2781159 C19.478998,12.2781159 19.6758919,12.0628986 19.6758919,11.7966667 L19.6758919,8.15217391 C19.6758919,7.88594203 19.4685811,7.67101449 19.1887923,7.67101449 C18.9090034,7.67101449 18.7016926,7.88594203 18.7016926,8.15217391 L18.7016926,8.15217391 Z M28.5610592,8.50869565 C28.9975416,8.50869565 29.2520952,8.67333333 29.4957917,8.85681159 C29.5930649,8.92318841 29.6882841,8.95536232 29.7865844,8.95536232 C30.0230918,8.95536232 30.2016461,8.77623188 30.2016461,8.53884058 C30.2016461,8.42811594 30.1561639,8.32927536 30.0627053,8.23681159 C29.7149866,7.88130435 29.1536482,7.66913043 28.5610592,7.66913043 C27.2171337,7.66913043 26.2782931,8.60971014 26.2782931,9.95637681 C26.2782931,11.3031884 27.2169869,12.2437681 28.5612059,12.2437681 C29.1536482,12.2437681 29.7141063,12.0323188 30.0602111,11.6784058 C30.1552836,11.5842029 30.2016461,11.4847826 30.2016461,11.374058 C30.2016461,11.1366667 30.0230918,10.9575362 29.7864376,10.9575362 C29.6879907,10.9575362 29.5907175,10.9913043 29.4887493,11.0610145 C29.2585507,11.2346377 28.9972482,11.4042029 28.5610592,11.4042029 C27.7560243,11.4042029 27.193659,10.8088406 27.193659,9.95637681 C27.193659,9.10391304 27.7560243,8.50869565 28.5610592,8.50869565 L28.5610592,8.50869565 Z M33.0966613,7.66913043 C31.7879478,7.66913043 30.8008374,8.65246377 30.8008374,9.95637681 C30.8008374,11.2604348 31.787801,12.2437681 33.0966613,12.2437681 C34.4053748,12.2437681 35.3923385,11.2604348 35.3923385,9.95637681 C35.3923385,8.65246377 34.4055216,7.66913043 33.0966613,7.66913043 Z M33.0966613,11.4268116 C32.1884845,11.4268116 31.7134156,10.6871014 31.7134156,9.95637681 C31.7134156,8.99115942 32.4092933,8.48608696 33.0966613,8.48608696 C34.0051315,8.48608696 34.4804938,9.2257971 34.4804938,9.95637681 C34.4804938,10.9217391 33.7843228,11.4268116 33.0966613,11.4268116 Z M40.3484308,7.69490308 C40.1797066,7.69490308 40.0315226,7.79362319 39.9518554,7.95869565 L38.5329576,10.8934783 L38.5204867,10.8676812 L37.0983611,7.95289855 C37.0002076,7.77695652 36.8731508,7.69490308 36.6982644,7.69490308 C36.584296,7.69371119 36.4746405,7.73791574 36.3940755,7.81755271 C36.3135106,7.89718968 36.2688355,8.00553825 36.2701169,8.11811594 L36.2701169,11.7882609 C36.2701169,12.0211594 36.4661585,12.2178261 36.6982644,12.2178261 C36.9338916,12.2178261 37.1329862,12.0211594 37.1329862,11.7882609 L37.1329862,9.83811594 L38.1570692,11.9818841 C38.2389372,12.1427536 38.3585114,12.2178261 38.533251,12.2178261 C38.6997746,12.2178261 38.8371014,12.1310145 38.9101664,11.9797101 L39.9201646,9.83855072 L39.9201646,11.7949275 C39.9201646,12.0281159 40.1123636,12.2178261 40.3484308,12.2178261 C40.5921274,12.2178261 40.7830059,12.032029 40.7830059,11.7949275 L40.7830059,8.12449275 C40.7830059,7.86768116 40.608413,7.69507246 40.3484308,7.69507246 L40.3484308,7.69490308 Z" id="Shape" fill="#171B1E" fill-rule="nonzero"></path>
                            <path d="M21.9978315,14.1849275 C21.872578,14.0931235 21.7206907,14.0436708 21.5647236,14.043913 C21.3326955,14.0443209 21.1145299,14.1530945 20.9763893,14.3372464 C20.0602899,15.5633333 18.7668349,16.5913043 17.2356987,17.3098551 C15.6436751,18.0576812 13.823947,18.4526087 11.96798,18.4526087 C9.13619968,18.4526087 6.4803328,17.5530435 4.48982644,15.9192754 C3.53426015,15.136087 2.78571122,14.2268116 2.2648667,13.2169565 C1.73184469,12.1828986 1.4614457,11.085942 1.46115226,9.95666667 C1.4614457,8.8273913 1.73184469,7.73028986 2.2648667,6.69594203 C3.04877438,5.17550725 4.3555806,3.8773913 6.04414385,2.94202899 C7.79403471,1.97246377 9.8435212,1.46 11.9717946,1.46 C13.8274682,1.46 15.6515978,1.85710145 17.2471426,2.6084058 C18.7815065,3.33072464 20.0756951,4.36304348 20.9898873,5.59391304 C21.1279793,5.77890281 21.3467137,5.88822683 21.5793952,5.88855072 C21.7347266,5.88880686 21.8860354,5.83978157 22.011036,5.74869565 C22.3357955,5.5125836 22.4058226,5.06136988 22.1675828,4.74 C21.1103417,3.31753623 19.6264484,2.12985507 17.8758239,1.30550725 C16.0852925,0.462463768 14.0437288,0.0168115942 11.972088,0.0168115942 C8.79977814,0.0173913043 5.81115763,1.03536232 3.55641439,2.88304348 C2.44723564,3.79275362 1.57471104,4.85507246 0.963048846,6.04086957 C0.323803901,7.27927536 -0.00029343353,8.59666667 -1.99073807e-07,9.95652174 C-0.00029343353,11.3163768 0.323803901,12.6336232 0.963048846,13.872029 C1.87973519,15.6478261 3.38974414,17.1546377 5.32948649,18.2294203 C7.29725174,19.3194203 9.5941027,19.895942 11.9717946,19.895942 C14.0380068,19.895942 16.0751691,19.4524638 17.8629129,18.6133333 C19.6101628,17.7927536 21.0931759,16.6104348 22.1518841,15.1942029 C22.3909891,14.8733056 22.3220808,14.4217879 21.9978315,14.1847826" id="Path" fill="#00A991" fill-rule="nonzero"></path>
                            <path d="M23.1662838,9.1615942 C22.7221768,9.16215329 22.3623208,9.51768566 22.3618357,9.95637681 C22.3623208,10.395068 22.7221768,10.7506003 23.1662838,10.7511594 C23.6103908,10.7506003 23.9702468,10.395068 23.9707318,9.95637681 C23.9702468,9.51768566 23.6103908,9.16215329 23.1662838,9.1615942" id="Path" fill="#00A991" fill-rule="nonzero"></path>
                        </g>
                    </g>
                    <text id="by" font-family="CircularPro-Book, Circular Pro" font-size="14" font-weight="300" line-spacing="20" fill="#5F738C">
                        <tspan x="130" y="19">by</tspan>
                    </text>
                    <g id="LogoOrbit" fill-rule="nonzero">
                        <path d="M46,5 C40.4268342,5.05418116 35.9522778,9.52205481 36.0025257,14.982543 C35.9212038,18.5344319 37.8087257,21.8511479 40.9354001,23.650492 C44.0620745,25.449836 47.9379255,25.449836 51.0645999,23.650492 C54.1912743,21.8511479 56.0787962,18.5344319 55.9974743,14.982543 C56.0477222,9.52205481 51.5731658,5.05418116 46,5 Z M46,21.1430855 C43.4470577,21.1881163 41.1198203,19.7160356 40.1108402,17.4179314 C39.10186,15.1198271 39.6115142,12.4520879 41.4005387,10.6671193 C43.1895632,8.88215062 45.9026693,8.33443585 48.2661535,9.28110689 C50.6296377,10.2277779 52.1741271,12.480832 52.1745407,14.982543 C52.2052398,18.354076 49.4411243,21.1119249 46,21.1430855 L46,21.1430855 Z" id="Shape" fill="#000000"></path>
                        <path d="M67.1775394,17.5226669 L63.5347452,17.5226669 L63.4318414,17.5226669 L63.4112607,23.3809324 L63.3829621,23.6643571 C63.3395094,23.8506072 63.2702955,24.0304661 63.1771545,24.1991672 C62.7480065,24.8668017 61.8945341,25.1621713 61.1190787,24.9114258 C60.549579,24.705372 60.1345893,24.2282966 60.0257259,23.6544989 C60.0119406,23.5596987 60.0033535,23.4642713 60,23.3686096 L60.0257259,15.9749215 L60.0257259,15.8911264 L60.0257259,15.797473 L60.0565971,6.67859111 L60.082323,6.39763097 C60.1174656,6.2110458 60.1862367,6.03174352 60.285558,5.86774999 C60.5362848,5.4545097 60.9611463,5.16519298 61.4509434,5.07416081 C61.6212223,5.04995605 61.7933841,5.04006012 61.9654624,5.04458606 C63.4061155,5.0265126 64.8450535,5.01747587 66.2822764,5.01747587 C67.2600653,4.97641953 68.2397036,5.00773033 69.2124618,5.11112925 C71.4002648,5.45846623 73.2550567,6.84472882 74.1389808,8.79318589 C75.2972941,11.4247912 74.4867768,14.4733097 72.1555103,16.2534171 C71.7677742,16.5286468 71.3482519,16.7601971 70.9052292,16.9434947 L74.715242,22.4567214 C75.2366774,23.2101126 75.0218686,24.2258128 74.2354531,24.7253513 C73.4490376,25.2248899 72.388815,25.0191016 71.8673796,24.2657104 L67.1775394,17.5226669 Z M65.9941458,8.30766704 C65.199214,8.30766704 64.4017096,8.30766704 63.6067779,8.30766704 L63.4627125,8.30766704 L63.4421318,14.2447985 C65.0011242,14.2447985 66.5292455,14.2447985 68.1113913,14.2300112 C69.3108401,14.276319 70.4237847,13.6336862 70.9412455,12.5960061 C71.4272203,11.5384782 71.2755062,10.3115554 70.5450659,9.39207462 C69.9480361,8.71602629 69.0742616,8.32131214 68.1499802,8.31013161 C67.4296537,8.30520248 66.7016094,8.30520248 65.9941458,8.30520248 L65.9941458,8.30766704 Z" id="Shape" fill="#000000"></path>
                        <path d="M84.0903718,5.00257319 C84.9973835,5.00257319 85.9070396,5.00257319 86.8140513,5.02227681 C86.8140513,5.02227681 87.046754,5.02227681 87.213348,5.03951748 C89.5740326,5.19999269 91.5965941,6.67318536 92.3328077,8.76842788 C92.9273704,10.569148 92.5745007,12.5256097 91.380842,14.0465355 C93.4187287,15.4778996 94.384379,17.8776032 93.858597,20.2039173 C93.42032,22.3440014 91.7604326,24.0894196 89.5324421,24.7529909 C88.8865958,24.9037964 88.2229347,24.9782705 87.5571134,24.9746567 C85.3067724,25.0165269 83.0617201,24.9992862 80.8060904,24.9746567 L80.7452703,24.9746567 C80.5411598,24.9747846 80.3387026,24.9405752 80.1476475,24.8736756 C79.4589601,24.6337798 79.0018435,24.021628 79,23.3367931 L79.0158661,14.6499589 L79.0158661,14.6056258 L79.0158661,6.64536264 L79.0423096,6.36458604 C79.0779781,6.17723242 79.148686,5.99716638 79.2512132,5.83258825 C79.5096112,5.41697974 79.9500833,5.12728095 80.4570363,5.03951748 C80.7850417,5.00172508 81.1159917,4.99101059 81.4460228,5.00749909 L84.0903718,5.00257319 Z M83.0564314,16.2656559 L82.5275616,16.2656559 L82.5275616,21.728485 C84.349518,21.728485 86.1688301,21.7629663 87.9907866,21.6989296 C88.398626,21.6878424 88.7965562,21.5792817 89.1463671,21.3836716 C90.1261322,20.7547812 90.6384706,19.6629633 90.4685416,18.5660537 C90.3578727,17.6366573 89.7313789,16.8296449 88.8184678,16.4405256 C88.1597835,16.2660979 87.4717849,16.2084506 86.7902522,16.2705818 L83.0564314,16.2656559 Z M83.8497361,8.27337438 L82.5487164,8.27337438 L82.5487164,12.9850029 C83.9317109,12.9850029 85.3199941,12.9850029 86.6950556,12.9850029 C87.3973474,12.9314693 88.046986,12.6170256 88.497645,12.112498 C88.9483039,11.6079703 89.1620851,10.9557869 89.0908358,10.3028474 C89.0353529,9.45873479 88.4537655,8.7233062 87.6047116,8.4236145 C87.0733042,8.29592492 86.5233332,8.24852569 85.9757927,8.28322619 C85.2653442,8.27665832 84.5540144,8.27337438 83.841803,8.27337438 L83.8497361,8.27337438 Z" id="Shape" fill="#000000"></path>
                        <path d="M100.467753,5.02471162 C101.192975,5.12591141 101.794186,5.52877894 102.042651,6.0800402 C102.125326,6.25930251 102.167313,6.44881817 102.166667,6.63975886 L102.117056,23.3622784 C102.112885,23.4571601 102.102537,23.5518062 102.086054,23.6458364 C101.913228,24.4288757 101.058111,25 100.058528,25 C99.0589454,25 98.2038276,24.4288757 98.0310019,23.6458364 C98.0145191,23.5518062 98.0041712,23.4571601 98,23.3622784 L98.0465029,6.63236169 C98.0505613,5.94406312 98.5938855,5.33081281 99.4074875,5.09621753 C99.6329838,5.03104799 99.8713175,4.99848086 100.111231,5 L100.467753,5.02471162 Z" id="Path" fill="#000000"></path>
                        <path d="M112.983664,8.28594053 L108.649431,8.28594053 C107.937478,8.26729695 107.310622,7.81719981 107.072439,7.15362319 C106.839052,6.38535314 107.184154,5.56073679 107.898364,5.18008533 C108.13122,5.06572183 108.386964,5.00419696 108.646936,5 L120.354606,5 C121.035075,5.01715678 121.641438,5.4290586 121.901655,6.05090891 C122.171337,6.80333842 121.871657,7.63971086 121.183026,8.05651676 C120.929634,8.19663375 120.644911,8.27209394 120.354606,8.27607284 L116.297344,8.27607284 L116.20502,23.3711705 C116.200822,23.4661403 116.191661,23.5608321 116.177573,23.6548666 C116.0337,24.4375117 115.341885,25.0048341 114.537303,25 C113.732721,24.9951038 113.047977,24.4194577 112.913798,23.6351312 C112.898826,23.5389212 112.898826,23.4451782 112.89134,23.3489682 L112.983664,8.28594053 Z" id="Path" fill="#000000"></path>
                        <path d="M30,9.12 C30.0016574,4.08599078 25.9221927,0.00331266524 20.8871777,0 L9.11282379,0 C6.69463718,0.000795296708 4.37585317,0.962192396 2.66678126,2.67261054 C0.957709354,4.38302869 -0.00159011194,6.70229722 0,9.12 L0,20.895 C0.00496863746,25.923837 4.08297902,29.9983471 9.11282379,30 L20.8871777,30 C25.9186784,29.9966905 29.9966893,25.9194949 30,20.889 L30,9.12 Z" id="Path" fill="#00A991"></path>
                        <path d="M20.8309978,13.473272 L20.8309978,13.500272 C20.8312959,13.8661688 21.1254923,14.1639462 21.4913587,14.1686711 C21.8572251,14.173396 22.1590132,13.8833152 22.1687602,13.5175481 C22.1785072,13.1517811 21.8925966,12.8460392 21.5269978,12.831272 L21.5,12.831272 C21.1414307,12.8325153 20.8470032,13.1150601 20.8309978,13.473272 Z" id="Path" fill="#FFFFFF"></path>
                        <path d="M25.9310039,10.0736953 C25.5594443,9.0650953 24.1346206,8.91015976 20.73224,9.56939528 C18.7041814,7.26840393 15.4680482,6.414396 12.5510387,7.41039558 C9.6340292,8.40639516 7.61921472,11.0533152 7.45742808,14.1020192 C3.00178337,16.3713692 2.81446819,17.577436 3.07548115,18.2883167 C3.31192818,18.9384384 4.05504742,19.2574233 5.36625368,19.2574233 C6.06489304,19.2458593 6.76175082,19.1839235 7.4512866,19.0721082 C7.88733177,19.0052733 8.35408435,18.9171727 8.83004915,18.8199582 C10.4232105,21.0585117 13.1234049,22.2595082 15.8732849,21.9526592 C18.6231648,21.6458102 20.9851134,19.8799477 22.034234,17.3465517 C22.0561562,17.2777308 22.0675418,17.206051 22.0680122,17.133895 C22.0737072,16.8185649 21.8567877,16.5418196 21.5466723,16.4687711 C21.2365568,16.3957225 20.9168524,16.5460644 20.7783011,16.8300999 C19.9545574,18.8101527 18.1489606,20.2236724 16.0117714,20.5615994 C13.8745822,20.8995263 11.713601,20.1131919 10.3070754,18.4857836 C12.004395,18.0633792 13.6790597,17.5564078 15.3246657,16.9668077 C16.9581199,16.3975818 18.5592869,15.7414402 20.1211626,15.0012529 C20.4122051,14.8662061 20.5675455,14.5476671 20.4932552,14.2382446 C20.4189649,13.9288221 20.1354279,13.7134164 19.8140885,13.7222753 C19.7128947,13.7215998 19.6129605,13.7444953 19.5223681,13.7891102 C18.0975445,14.4817632 16.528396,15.1106192 14.8548423,15.6969439 C13.0992296,16.3338251 11.3080842,16.8704012 9.4902584,17.3040203 C8.49360617,15.4004558 8.57216355,13.1205503 9.69752999,11.2885497 C10.8228964,9.45654919 12.832254,8.33750719 14.9991671,8.33598689 L15.0206623,8.33598689 C16.9393415,8.34033575 18.7500836,9.21476642 19.9338474,10.7086272 L19.9614841,10.7329308 L20.0198281,10.7967278 L20.0443941,10.8362211 L20.1180918,10.8848284 L20.15187,10.9030561 C20.1813994,10.9187616 20.2122162,10.931973 20.2439922,10.9425495 L20.2624166,10.9425495 C20.2991036,10.9559448 20.3372269,10.965119 20.3760341,10.969891 L20.5817737,10.969891 C21.8771337,10.5994944 23.2300596,10.4666761 24.5737365,10.5779953 C24.1254797,11.1348418 23.5702708,11.5984262 22.9401025,11.9420356 C22.6377302,12.1500633 22.5570433,12.5580799 22.7578784,12.863505 C22.9587134,13.1689301 23.3684454,13.2613174 23.6832217,13.0721536 C25.5256661,11.8721627 26.238078,10.9243217 25.9310039,10.0736953 Z M4.41432408,17.8235101 C5.27565101,16.8614691 6.33668932,16.0946533 7.52498437,15.5754258 C7.63161653,16.2713662 7.83843158,16.9486144 8.1391325,17.5865499 C6.92767847,17.9208375 5.65907755,18.0015418 4.41432408,17.8235101 L4.41432408,17.8235101 Z" id="Shape" fill="#FFFFFF"></path>
                    </g>
                </g>
            </g>
        </g>
    </g>
</svg>