<svg xmlns="http://www.w3.org/2000/svg" width="198" height="43" viewBox="0 0 198 43">
  <g fill="none" fill-rule="evenodd">
    <path fill="#12A085" d="M24.1944,20.3608 L17.2984,17.2098 C17.0094,17.0778 16.8044,16.9468 16.6854,16.8188 C16.5664,16.6898 16.5064,16.5428 16.5064,16.3798 C16.5064,16.1968 16.5614,16.0528 16.6714,15.9458 C16.7814,15.8388 16.9304,15.7848 17.1194,15.7848 C17.2134,15.7848 17.3194,15.8028 17.4354,15.8378 C17.5514,15.8718 17.6974,15.9298 17.8744,16.0118 L25.3744,19.4548 C25.3994,19.4678 25.4364,19.4858 25.4864,19.5118 C26.0534,19.7628 26.3364,20.0468 26.3364,20.3608 C26.3364,20.6688 26.0594,20.9518 25.5064,21.2098 C25.4434,21.2348 25.3994,21.2538 25.3744,21.2668 L17.8744,24.7658 L17.8364,24.7848 C17.5094,24.9298 17.2704,25.0018 17.1194,25.0018 C16.9304,25.0018 16.7814,24.9448 16.6714,24.8328 C16.5614,24.7188 16.5064,24.5688 16.5064,24.3798 C16.5064,24.2158 16.5664,24.0698 16.6854,23.9408 C16.8044,23.8118 17.0094,23.6818 17.2984,23.5488 L24.1944,20.3608 Z"/>
    <path fill="#1A1919" d="M36.1094 18.1816L36.1094 18.1436C36.1094 17.9356 36.1694 17.7836 36.2884 17.6856 36.4084 17.5886 36.5934 17.5396 36.8454 17.5396 37.1034 17.5396 37.2804 17.6156 37.3784 17.7666 37.4754 17.9176 37.5244 18.2286 37.5244 18.7006L37.5244 20.4546C37.5244 20.6876 37.4644 20.8626 37.3454 20.9786 37.2254 21.0956 37.0464 21.1536 36.8074 21.1536 36.6374 21.1536 36.4914 21.1046 36.3694 21.0066 36.2464 20.9096 36.0964 20.7066 35.9214 20.3986 35.6194 19.8896 35.2524 19.5036 34.8214 19.2426 34.3914 18.9816 33.8954 18.8506 33.3364 18.8506 32.3554 18.8506 31.5574 19.1406 30.9444 19.7196 30.3314 20.2976 30.0254 21.0466 30.0254 21.9646 30.0254 22.9016 30.3184 23.6676 30.9064 24.2616 31.4944 24.8556 32.2514 25.1536 33.1754 25.1536 33.5974 25.1536 33.9984 25.0946 34.3784 24.9786 34.7584 24.8626 35.1194 24.6876 35.4584 24.4546 35.5784 24.3796 35.7384 24.2636 35.9394 24.1056 36.3484 23.7726 36.6694 23.6056 36.9014 23.6056 37.0964 23.6056 37.2554 23.6676 37.3784 23.7896 37.5014 23.9126 37.5624 24.0716 37.5624 24.2656 37.5624 24.7636 37.0924 25.2706 36.1514 25.7896 35.2124 26.3086 34.2134 26.5686 33.1564 26.5686 31.7924 26.5686 30.6554 26.1306 29.7464 25.2566 28.8374 24.3826 28.3834 23.2916 28.3834 21.9836 28.3834 20.6756 28.8364 19.5826 29.7414 18.7046 30.6474 17.8276 31.7794 17.3896 33.1374 17.3896 33.6154 17.3896 34.0954 17.4536 34.5764 17.5826 35.0574 17.7116 35.5684 17.9106 36.1094 18.1816M44.8643 25.2378C45.8323 25.2378 46.6263 24.9318 47.2463 24.3198 47.8653 23.7078 48.1753 22.9268 48.1753 21.9788 48.1753 21.0308 47.8643 20.2468 47.2413 19.6288 46.6183 19.0098 45.8263 18.6998 44.8643 18.6998 43.9023 18.6998 43.1113 19.0098 42.4913 19.6288 41.8723 20.2468 41.5623 21.0308 41.5623 21.9788 41.5623 22.9328 41.8703 23.7158 42.4873 24.3238 43.1033 24.9338 43.8953 25.2378 44.8643 25.2378M49.8173 21.9838C49.8173 23.3288 49.3583 24.4298 48.4393 25.2848 47.5213 26.1408 46.3293 26.5688 44.8643 26.5688 43.4053 26.5688 42.2163 26.1408 41.2983 25.2848 40.3803 24.4298 39.9213 23.3288 39.9213 21.9838 39.9213 20.6368 40.3803 19.5388 41.2983 18.6858 42.2163 17.8338 43.4053 17.4078 44.8643 17.4078 46.3233 17.4078 47.5133 17.8358 48.4343 18.6908 49.3563 19.5468 49.8173 20.6438 49.8173 21.9838M53.1187 22.0967C53.1187 22.9647 53.3987 23.6757 53.9577 24.2287 54.5177 24.7827 55.2287 25.0587 56.0907 25.0587 56.9577 25.0587 57.6717 24.7707 58.2317 24.1957 58.7917 23.6197 59.0717 22.8887 59.0717 22.0027 59.0717 21.1277 58.7927 20.4077 58.2367 19.8417 57.6797 19.2757 56.9647 18.9927 56.0907 18.9927 55.2037 18.9927 54.4867 19.2787 53.9397 19.8507 53.3917 20.4237 53.1187 21.1717 53.1187 22.0967L53.1187 22.0967zM59.2977 26.3327C59.1657 26.3327 59.0727 26.2997 59.0197 26.2337 58.9657 26.1667 58.9397 26.0397 58.9397 25.8507L58.9397 25.0777C58.5617 25.5497 58.0907 25.9157 57.5247 26.1767 56.9577 26.4377 56.3457 26.5687 55.6847 26.5687 54.4957 26.5687 53.5007 26.1447 52.6987 25.2997 51.8967 24.4537 51.4957 23.4017 51.4957 22.1437 51.4957 20.8417 51.9237 19.7587 52.7787 18.8937 53.6347 18.0287 54.7007 17.5967 55.9767 17.5967 56.6247 17.5967 57.2067 17.7117 57.7227 17.9407 58.2387 18.1707 58.6817 18.5087 59.0527 18.9547L59.0527 15.3417 58.5527 15.3417C58.0057 15.3417 57.6517 15.2927 57.4917 15.1957 57.3307 15.0977 57.2507 14.9207 57.2507 14.6627 57.2507 14.4367 57.3147 14.2667 57.4437 14.1537 57.5727 14.0397 57.7607 13.9837 58.0057 13.9837L59.9397 13.9837C60.1277 13.9837 60.2647 14.0147 60.3497 14.0777 60.4347 14.1407 60.4767 14.2387 60.4767 14.3697L60.4767 25.0017 60.9017 25.0017C61.2097 25.0017 61.4327 25.0547 61.5717 25.1577 61.7097 25.2617 61.7787 25.4267 61.7787 25.6537 61.7787 25.8667 61.7197 26.0337 61.5997 26.1537 61.4797 26.2727 61.3197 26.3327 61.1187 26.3327L59.2977 26.3327zM64.9111 21.1533L71.0521 21.1533C70.9581 20.4043 70.6451 19.8023 70.1141 19.3463 69.5821 18.8903 68.9301 18.6623 68.1561 18.6623 67.3201 18.6623 66.6151 18.8823 66.0431 19.3233 65.4711 19.7633 65.0931 20.3733 64.9111 21.1533L64.9111 21.1533zM64.8641 22.3893C64.9141 23.2983 65.2211 24.0003 65.7841 24.4953 66.3461 24.9903 67.1151 25.2373 68.0901 25.2373 68.8261 25.2373 69.6281 25.0413 70.4951 24.6483 71.3641 24.2553 71.8891 24.0583 72.0711 24.0583 72.2601 24.0583 72.4171 24.1183 72.5431 24.2373 72.6681 24.3573 72.7311 24.5053 72.7311 24.6813 72.7311 24.8633 72.6651 25.0303 72.5331 25.1803 72.4011 25.3313 72.1901 25.4783 71.9011 25.6223 71.2721 25.9283 70.6231 26.1623 69.9531 26.3243 69.2841 26.4863 68.6181 26.5683 67.9581 26.5683 66.5241 26.5683 65.3761 26.1543 64.5151 25.3273 63.6531 24.5003 63.2221 23.4043 63.2221 22.0403 63.2221 20.6503 63.6781 19.5243 64.5901 18.6623 65.5021 17.8003 66.6911 17.3703 68.1561 17.3703 69.4831 17.3703 70.5841 17.7733 71.4581 18.5773 72.3321 19.3823 72.7691 20.3573 72.7691 21.5023 72.7691 21.8543 72.6951 22.0903 72.5471 22.2103 72.4001 22.3293 71.9991 22.3893 71.3451 22.3893L71.2031 22.3893 64.8641 22.3893zM76.9927 25.3076C76.9927 24.9696 77.1107 24.6926 77.3467 24.4756 77.5827 24.2586 77.8897 24.1506 78.2667 24.1506 78.6517 24.1506 78.9617 24.2566 79.1957 24.4696 79.4297 24.6816 79.5467 24.9606 79.5467 25.3076 79.5467 25.6546 79.4287 25.9336 79.1927 26.1456 78.9567 26.3586 78.6477 26.4646 78.2667 26.4646 77.8857 26.4646 77.5777 26.3586 77.3437 26.1456 77.1097 25.9336 76.9927 25.6546 76.9927 25.3076M86.3037 22.7192L86.3037 25.5022C86.3037 25.7542 86.2517 25.9552 86.1477 26.1062 86.0447 26.2572 85.9107 26.3322 85.7467 26.3322L84.0017 26.3322C83.7567 26.3322 83.5707 26.2762 83.4457 26.1622 83.3197 26.0492 83.2567 25.8792 83.2567 25.6532 83.2567 25.4012 83.3307 25.2302 83.4777 25.1392 83.6257 25.0482 83.9417 25.0022 84.4267 25.0022L84.8787 25.0022 84.8787 15.3422 84.4917 15.3422C83.9517 15.3422 83.6027 15.2932 83.4457 15.1962 83.2877 15.0982 83.2097 14.9202 83.2097 14.6622 83.2097 14.4362 83.2737 14.2662 83.4027 14.1532 83.5317 14.0402 83.7187 13.9832 83.9637 13.9832L85.7657 13.9832C85.9357 13.9832 86.0677 14.0182 86.1617 14.0872 86.2567 14.1562 86.3037 14.2512 86.3037 14.3702L86.3037 21.1342 89.0297 18.8512C88.8227 18.7632 88.6697 18.6662 88.5727 18.5592 88.4747 18.4522 88.4267 18.3262 88.4267 18.1812 88.4267 17.9922 88.4957 17.8512 88.6337 17.7572 88.7717 17.6622 88.9737 17.6152 89.2377 17.6152L91.7937 17.6152C92.0327 17.6152 92.2157 17.6692 92.3417 17.7762 92.4677 17.8832 92.5297 18.0432 92.5297 18.2572 92.5297 18.6342 92.2247 18.8542 91.6147 18.9172 91.4957 18.9292 91.4007 18.9422 91.3317 18.9552 91.0747 18.9862 90.7907 19.0852 90.4827 19.2522 90.1747 19.4192 89.8637 19.6402 89.5487 19.9172L88.1807 21.1152 91.7567 25.0022 92.5677 25.0022C92.8377 25.0022 93.0317 25.0522 93.1477 25.1532 93.2637 25.2542 93.3227 25.4202 93.3227 25.6532 93.3227 25.8732 93.2577 26.0412 93.1287 26.1572 92.9997 26.2742 92.8127 26.3322 92.5677 26.3322L90.0117 26.3322C89.7347 26.3322 89.5327 26.2852 89.4077 26.1912 89.2817 26.0962 89.2187 25.9452 89.2187 25.7382 89.2187 25.5682 89.2797 25.4222 89.4027 25.2992 89.5257 25.1772 89.7097 25.0772 89.9547 25.0022L87.1527 21.9462 86.3037 22.7192zM98.7471 14.8984C98.7471 14.2194 98.8081 13.7914 98.9311 13.6154 99.0531 13.4394 99.3161 13.3514 99.7191 13.3514 100.1081 13.3514 100.3661 13.4254 100.4921 13.5734 100.6181 13.7204 100.6811 14.0714 100.6811 14.6254 100.6811 15.1664 100.6221 15.5014 100.5061 15.6294 100.3901 15.7584 100.1271 15.8234 99.7191 15.8234 99.3161 15.8234 99.0531 15.7634 98.9311 15.6444 98.8081 15.5244 98.7471 15.2754 98.7471 14.8984L98.7471 14.8984zM100.4921 25.0024L103.5201 25.0024C103.7661 25.0024 103.9461 25.0544 104.0631 25.1574 104.1791 25.2614 104.2371 25.4264 104.2371 25.6534 104.2371 25.9114 104.1821 26.0884 104.0721 26.1864 103.9621 26.2834 103.7591 26.3324 103.4641 26.3324L96.1521 26.3324C95.9011 26.3324 95.7121 26.2754 95.5861 26.1624 95.4611 26.0494 95.3981 25.8794 95.3981 25.6534 95.3981 25.4334 95.4641 25.2694 95.5961 25.1624 95.7281 25.0554 95.9261 25.0024 96.1901 25.0024L99.0671 25.0024 99.0671 18.9454 97.2211 18.9454C96.9631 18.9454 96.7651 18.8874 96.6301 18.7724 96.4941 18.6564 96.4261 18.4894 96.4261 18.2714 96.4261 18.0524 96.4891 17.8884 96.6151 17.7794 96.7411 17.6694 96.9291 17.6154 97.1811 17.6154L99.9451 17.6154C100.1151 17.6154 100.2481 17.6494 100.3461 17.7194 100.4431 17.7884 100.4921 17.8824 100.4921 18.0024L100.4921 25.0024zM111.1524 21.54L109.9354 26.021C109.8724 26.26 109.7784 26.427 109.6524 26.521 109.5264 26.615 109.3384 26.663 109.0864 26.663 108.8604 26.663 108.6834 26.602 108.5584 26.483 108.4324 26.363 108.3194 26.146 108.2184 25.831L106.0584 18.946 105.9734 18.946C105.7094 18.946 105.5184 18.894 105.4024 18.791 105.2864 18.688 105.2284 18.515 105.2284 18.271 105.2284 18.059 105.2894 17.896 105.4114 17.784 105.5344 17.672 105.7154 17.616 105.9544 17.616L108.4734 17.616C108.8124 17.616 109.0424 17.664 109.1614 17.761 109.2814 17.857 109.3404 18.027 109.3404 18.271 109.3404 18.421 109.3064 18.551 109.2374 18.66 109.1684 18.769 109.0804 18.836 108.9734 18.861 108.8664 18.893 108.7424 18.915 108.6004 18.927 108.4594 18.939 108.2874 18.946 108.0864 18.946L107.5394 18.946 109.1614 24.615 110.3794 20.502C110.4474 20.263 110.5454 20.097 110.6714 20.002 110.7974 19.908 110.9824 19.861 111.2274 19.861 111.4544 19.861 111.6314 19.922 111.7604 20.045 111.8894 20.167 112.0044 20.383 112.1054 20.691L113.2844 24.615 114.8404 18.946 114.6144 18.946 114.2094 18.946C113.7754 18.946 113.4824 18.897 113.3314 18.801 113.1804 18.704 113.1054 18.527 113.1054 18.271 113.1054 18.021 113.1614 17.85 113.2754 17.756 113.3884 17.662 113.6084 17.616 113.9354 17.616L116.4634 17.616C116.6584 17.616 116.8044 17.672 116.9024 17.784 116.9994 17.896 117.0484 18.059 117.0484 18.271 117.0484 18.509 116.9914 18.677 116.8784 18.777 116.7654 18.877 116.5514 18.933 116.2374 18.946L114.1144 26.02C114.0324 26.26 113.9304 26.426 113.8084 26.521 113.6854 26.615 113.5014 26.663 113.2564 26.663 113.0294 26.663 112.8504 26.601 112.7184 26.478 112.5864 26.356 112.4764 26.141 112.3884 25.832L111.1524 21.54zM121.9351 14.8984C121.9351 14.2194 121.9971 13.7914 122.1191 13.6154 122.2421 13.4394 122.5041 13.3514 122.9071 13.3514 123.2971 13.3514 123.5551 13.4254 123.6801 13.5734 123.8061 13.7204 123.8691 14.0714 123.8691 14.6254 123.8691 15.1664 123.8111 15.5014 123.6941 15.6294 123.5781 15.7584 123.3151 15.8234 122.9071 15.8234 122.5041 15.8234 122.2421 15.7634 122.1191 15.6444 121.9971 15.5244 121.9351 15.2754 121.9351 14.8984L121.9351 14.8984zM123.6801 25.0024L126.7081 25.0024C126.9541 25.0024 127.1351 25.0544 127.2511 25.1574 127.3681 25.2614 127.4261 25.4264 127.4261 25.6534 127.4261 25.9114 127.3711 26.0884 127.2611 26.1864 127.1501 26.2834 126.9481 26.3324 126.6521 26.3324L119.3411 26.3324C119.0891 26.3324 118.9001 26.2754 118.7751 26.1624 118.6491 26.0494 118.5861 25.8794 118.5861 25.6534 118.5861 25.4334 118.6521 25.2694 118.7841 25.1624 118.9161 25.0554 119.1141 25.0024 119.3781 25.0024L122.2561 25.0024 122.2561 18.9454 120.4101 18.9454C120.1511 18.9454 119.9541 18.8874 119.8181 18.7724 119.6821 18.6564 119.6141 18.4894 119.6141 18.2714 119.6141 18.0524 119.6771 17.8884 119.8031 17.7794 119.9291 17.6694 120.1181 17.6154 120.3691 17.6154L123.1331 17.6154C123.3031 17.6154 123.4361 17.6494 123.5341 17.7194 123.6321 17.7884 123.6801 17.8824 123.6801 18.0024L123.6801 25.0024zM145.6109 18.1816L145.6109 18.1436C145.6109 17.9356 145.6709 17.7836 145.7899 17.6856 145.9099 17.5886 146.0949 17.5396 146.3469 17.5396 146.6049 17.5396 146.7819 17.6156 146.8799 17.7666 146.9769 17.9176 147.0259 18.2286 147.0259 18.7006L147.0259 20.4546C147.0259 20.6876 146.9659 20.8626 146.8469 20.9786 146.7269 21.0956 146.5479 21.1536 146.3089 21.1536 146.1389 21.1536 145.9929 21.1046 145.8699 21.0066 145.7479 20.9096 145.5979 20.7066 145.4229 20.3986 145.1199 19.8896 144.7539 19.5036 144.3229 19.2426 143.8929 18.9816 143.3969 18.8506 142.8379 18.8506 141.8569 18.8506 141.0589 19.1406 140.4459 19.7196 139.8329 20.2976 139.5259 21.0466 139.5259 21.9646 139.5259 22.9016 139.8199 23.6676 140.4079 24.2616 140.9959 24.8556 141.7529 25.1536 142.6769 25.1536 143.0979 25.1536 143.4999 25.0946 143.8799 24.9786 144.2599 24.8626 144.6199 24.6876 144.9599 24.4546 145.0799 24.3796 145.2399 24.2636 145.4409 24.1056 145.8499 23.7726 146.1709 23.6056 146.4029 23.6056 146.5979 23.6056 146.7569 23.6676 146.8799 23.7896 147.0029 23.9126 147.0639 24.0716 147.0639 24.2656 147.0639 24.7636 146.5939 25.2706 145.6529 25.7896 144.7129 26.3086 143.7149 26.5686 142.6579 26.5686 141.2939 26.5686 140.1569 26.1306 139.2479 25.2566 138.3389 24.3826 137.8849 23.2916 137.8849 21.9836 137.8849 20.6756 138.3379 19.5826 139.2429 18.7046 140.1489 17.8276 141.2809 17.3896 142.6389 17.3896 143.1169 17.3896 143.5969 17.4536 144.0779 17.5826 144.5589 17.7116 145.0699 17.9106 145.6109 18.1816M154.3652 25.2378C155.3342 25.2378 156.1282 24.9318 156.7472 24.3198 157.3662 23.7078 157.6762 22.9268 157.6762 21.9788 157.6762 21.0308 157.3652 20.2468 156.7422 19.6288 156.1202 19.0098 155.3272 18.6998 154.3652 18.6998 153.4032 18.6998 152.6122 19.0098 151.9922 19.6288 151.3732 20.2468 151.0632 21.0308 151.0632 21.9788 151.0632 22.9328 151.3712 23.7158 151.9882 24.3238 152.6042 24.9338 153.3972 25.2378 154.3652 25.2378M159.3182 21.9838C159.3182 23.3288 158.8592 24.4298 157.9412 25.2848 157.0232 26.1408 155.8302 26.5688 154.3652 26.5688 152.9062 26.5688 151.7182 26.1408 150.7992 25.2848 149.8812 24.4298 149.4222 23.3288 149.4222 21.9838 149.4222 20.6368 149.8812 19.5388 150.7992 18.6858 151.7182 17.8338 152.9062 17.4078 154.3652 17.4078 155.8242 17.4078 157.0152 17.8358 157.9362 18.6908 158.8582 19.5468 159.3182 20.6438 159.3182 21.9838M169.4595 21.0776C169.4595 20.1906 169.3795 19.5916 169.2205 19.2806 169.0605 18.9696 168.7855 18.8136 168.3975 18.8136 167.9345 18.8136 167.5655 19.0146 167.2925 19.4176 167.0205 19.8196 166.8845 20.3736 166.8845 21.0776L166.8845 25.0016 167.0525 25.0016C167.4335 25.0016 167.6875 25.0476 167.8145 25.1396 167.9425 25.2296 168.0065 25.4016 168.0065 25.6536 168.0065 25.8796 167.9535 26.0496 167.8465 26.1626 167.7395 26.2756 167.5755 26.3326 167.3555 26.3326L166.1575 26.3326C165.8875 26.3326 165.7035 26.2696 165.6055 26.1436 165.5085 26.0176 165.4595 25.7476 165.4595 25.3326L165.4595 25.0586 165.4595 21.0776 165.4595 20.3416C165.4595 19.8696 165.3535 19.4976 165.1395 19.2236 164.9255 18.9506 164.6325 18.8136 164.2615 18.8136 163.9795 18.8136 163.7195 18.8966 163.4825 19.0636 163.2475 19.2306 163.0445 19.4766 162.8745 19.8046L162.8745 25.0016 163.2215 25.0016C163.5955 25.0016 163.8495 25.0496 163.9805 25.1436 164.1105 25.2376 164.1765 25.4076 164.1765 25.6536 164.1765 25.9106 164.1235 26.0886 164.0175 26.1856 163.9095 26.2836 163.7065 26.3326 163.4045 26.3326L160.9015 26.3326C160.6565 26.3326 160.4765 26.2776 160.3595 26.1666 160.2435 26.0566 160.1865 25.8856 160.1865 25.6536 160.1865 25.4016 160.2595 25.2296 160.4065 25.1396 160.5535 25.0476 160.8385 25.0016 161.2635 25.0016L161.4505 25.0016 161.4505 18.9456 161.2815 18.9456C160.8445 18.9456 160.5465 18.8956 160.3875 18.7956 160.2285 18.6956 160.1475 18.5206 160.1475 18.2706 160.1475 18.0526 160.2115 17.8886 160.3375 17.7796 160.4625 17.6696 160.6515 17.6156 160.9025 17.6156L162.3465 17.6156C162.5545 17.6156 162.6905 17.6516 162.7575 17.7236 162.8225 17.7946 162.8615 17.9466 162.8745 18.1776 163.1335 17.9016 163.4095 17.6986 163.7065 17.5676 164.0025 17.4356 164.3365 17.3696 164.7085 17.3696 165.1495 17.3696 165.5135 17.4656 165.8005 17.6566 166.0865 17.8476 166.2995 18.1366 166.4385 18.5246 166.7015 18.1306 167.0075 17.8396 167.3535 17.6516 167.6995 17.4646 168.0965 17.3696 168.5425 17.3696 169.3555 17.3696 169.9475 17.6346 170.3225 18.1626 170.6965 18.6906 170.8845 19.5466 170.8845 20.7286L170.8845 25.0016 171.0335 25.0016C171.4205 25.0016 171.6795 25.0496 171.8105 25.1436 171.9405 25.2376 172.0065 25.4076 172.0065 25.6536 172.0065 25.8796 171.9495 26.0496 171.8365 26.1626 171.7245 26.2756 171.5575 26.3326 171.3365 26.3326L170.1955 26.3326C169.9435 26.3326 169.7585 26.2566 169.6395 26.1056 169.5195 25.9546 169.4595 25.7156 169.4595 25.3896L169.4595 21.0776z"/>
    <polygon fill="#EB9033" points="172.799 27.669 184.733 27.669 184.733 26.546 172.799 26.546"/>
    <path fill="#1A1919" d="M131.3311,25.3076 C131.3311,24.9696 131.4491,24.6926 131.6851,24.4756 C131.9211,24.2586 132.2281,24.1506 132.6051,24.1506 C132.9911,24.1506 133.3011,24.2566 133.5351,24.4696 C133.7691,24.6816 133.8861,24.9606 133.8861,25.3076 C133.8861,25.6546 133.7681,25.9336 133.5311,26.1456 C133.2951,26.3586 132.9861,26.4646 132.6051,26.4646 C132.2241,26.4646 131.9161,26.3586 131.6821,26.1456 C131.4481,25.9336 131.3311,25.6546 131.3311,25.3076"/>
  </g>
</svg>
