<?xml version="1.0" encoding="UTF-8"?>
<svg width="32px" height="32px" viewBox="0 0 32 32" version="1.1" xmlns="http://www.w3.org/2000/svg" xmlns:xlink="http://www.w3.org/1999/xlink">
    <!-- Generator: Sketch 48.2 (47327) - http://www.bohemiancoding.com/sketch -->
    <title>Icons / 24px / Custom / icn-account-edit</title>
    <desc>Created with Sketch.</desc>
    <defs>
        <path d="M28.9882353,17.2 L27.5764706,18.6117647 L24.6823529,15.7176471 L26.0941176,14.3058824 C26.3905882,14.0094118 26.8847059,14.0094118 27.1811765,14.3058824 L28.9882353,16.1129412 C29.2847059,16.4094118 29.2847059,16.9035294 28.9882353,17.2 Z M15.2941176,25.0917647 L23.8494118,16.5364706 L26.7435294,19.4305882 L18.2023529,28 L15.2941176,28 L15.2941176,25.0917647 Z M15.2941176,18.1176471 C9.05411765,18.1176471 4,20.6447059 4,23.7647059 L4,26.5882353 L12.4705882,26.5882353 L12.4705882,23.92 L18.1176471,18.2729412 C17.1858824,18.16 16.24,18.1176471 15.2941176,18.1176471 Z M15.2941176,4 C12.1753332,4 9.64705882,6.52827435 9.64705882,9.64705882 C9.64705882,12.7658433 12.1753332,15.2941176 15.2941176,15.2941176 C18.4129021,15.2941176 20.9411765,12.7658433 20.9411765,9.64705882 C20.9411765,6.52827435 18.4129021,4 15.2941176,4 Z" id="path-1"></path>
    </defs>
    <g id="Icons" stroke="none" stroke-width="1" fill="none" fill-rule="evenodd">
        <g id="Icons-/-24px-/-Custom-/-icn-account-edit">
            <mask id="mask-2" fill="white">
                <use xlink:href="#path-1"></use>
            </mask>
            <use id="Mask" fill="#000000" fill-rule="nonzero" xlink:href="#path-1"></use>
            <g id="_Library-Helpers-/-Colors-/-Front-/-Casper" mask="url(#mask-2)" fill="#BAC7D5">
                <g transform="translate(1.000000, 1.000000)" id="Rectangle">
                    <rect x="0" y="0" width="30" height="30"></rect>
                </g>
            </g>
        </g>
    </g>
</svg>