<!--character:E184-->
<svg xmlns="http://www.w3.org/2000/svg" width="24" height="24" viewBox="0 0 24 24"><path id="a" d="M14.0277949 3.00028026c-.2637711.00623623-.5143914.11645314-.697265.3066407l-1.292969 1.2929687-1.292969-1.2929687c-.1882711-.19353269-.446795-.3027186-.7167966-.3027344-.40692313.00010687-.77320907.24675544-.92633107.62377011-.153122.37701467-.06254591.80921472.22906543 1.09302669l1.70703124 1.7070313v3.78124954L7.83248276 8.20340526l-.5800781-2.5195312c-.10317298-.47541634-.53348156-.80762774-1.0195313-.7871094-.29937033.01255314-.57733997.15867268-.75742253.3981522-.18008256.23947953-.2433028.5470852-.17226497.8381759l.4492188 1.9492188-1.9492188.4492187c-.34827213.08017189-.62730152.34008293-.73195003.68179874-.1046485.34171581-.01901202.71330368.22464167.9747494.24365368.2614458.60829496.3730159.95652716.2926708l2.5195312-.58203144 3.38085904 2.11523444-3.38085904 2.115234-2.5351562-.583984a1.00009739 1.00009739 0 0 0-.1972657-.029297c-.51808521-.0203901-.96584153.3585419-1.03140265.8728665-.06556111.5143246.2728164.9934654.77944955 1.1036965l1.9648438.453125-.453125 1.96289c-.12398024.5382339.21180387 1.0750738.75002431 1.1991127.53822043.1240388 1.07509692-.2116868 1.19919439-.7498937l.5839844-2.533203 3.20507814-2.005859v3.78125l-1.70703124 1.707031c-.26123931.2508169-.36647299.6232666-.27511595.9737077.09135705.3504412.36502924.6241133.7154704.7154703.35044119.091357.72289089-.0138767.97370779-.275116l1.292969-1.292969 1.292969 1.292969c.2508165.2612408.6232669.3664756.973709.2751188.3504421-.0913568.6241149-.3650297.7154718-.7154718.0913568-.350442-.013878-.7228925-.2751188-.973709l-1.707031-1.707031v-3.78125l3.205078 2.005859.5625 2.443359c.1240481.5382619.6609565.8740486 1.1992185.7500005.5382619-.1240482.8740486-.6609566.7500005-1.1992185l-.431641-1.873047 1.875-.431641c.4929184-.1078704.8282763-.5660335.7821012-1.0684998-.0461752-.5024664-.4594187-.8918352-.9637412-.9080622a1.00010026 1.00010026 0 0 0-.267578.027343l-2.445313.564453-3.380859-2.115234 3.380859-2.11523444 2.470703.57031244c.3509245.0872104.7215949-.0218001.9694372-.285102.2478424-.26330188.3342523-.63988268.2259932-.9848953-.108259-.34501261-.3943243-.60471708-.7481644-.67922134l-1.898438-.4375.4375-1.8984375c.0726674-.2962439.0061676-.60945539-.1805996-.85061721-.1867672-.24116181-.4733814-.38390622-.7783844-.38766409-.4750205-.00507699-.8880653.32470595-.988281.7890625l-.56836 2.46875-3.207031 2.00585894V6.42801466l1.707031-1.7070313c.297242-.28582924.3885717-.7247965.2299975-1.10546095-.1585742-.38066446-.5345367-.62497083-.9467945-.61524215z"/></svg>
