<!--description:Use in trip timeline-->
<!--category:travel-->
<!--character:E035-->
<!--added:0.11-->
<svg xmlns="http://www.w3.org/2000/svg" width="24" height="24" viewBox="0 0 24 24"><path id="airport-security-a" d="M4,2 L4,22 L6,22 L6,5 L18,5 L18,22 L20,22 L20,2 L4,2 Z M10,3 L11,3 L11,4 L10,4 L10,3 Z M13,3 L14,3 L14,4 L13,4 L13,3 Z M14.3999,10.4 C14.3999,11.3496 13.8407,12.1648 13.0383,12.5536 C14.7391,13.0144 15.9999,14.5552 15.9999,16.4 L15.9999,18 C15.9999,18.4416 15.6415,18.8 15.1999,18.8 L14.3999,18.8 L14.3999,21.2 C14.3999,21.6416 14.0415,22 13.5999,22 L10.3999,22 C9.9583,22 9.5999,21.6416 9.5999,21.2 L9.5999,18.8 L8.7999,18.8 C8.3583,18.8 7.9999,18.4416 7.9999,18 L7.9999,16.4 C7.9999,14.5552 9.2615,13.0144 10.9615,12.5536 C10.1591,12.1648 9.5999,11.3496 9.5999,10.4 C9.5999,9.076 10.6767,8 11.9999,8 C13.3231,8 14.3999,9.076 14.3999,10.4 Z"/></svg>
