<!--description:Use for getting users attention, e.g. in warning message.-->
<!--category:basic-->
<!--character:E07F-->
<svg width="24" height="24" viewBox="0 0 24 24" version="1.1" xmlns="http://www.w3.org/2000/svg"><path d="M12,19.25 C11.31,19.25 10.75,18.69 10.75,18 C10.75,17.31 11.31,16.75 12,16.75 C12.69,16.75 13.25,17.31 13.25,18 C13.25,18.69 12.69,19.25 12,19.25 L12,19.25 Z M11,10 L13,10 L13,16 L11,16 L11,10 Z M21.895,20.553 L12.895,2.553 C12.556,1.875 11.444,1.875 11.105,2.553 L2.105,20.553 C1.951,20.863 1.967,21.231 2.149,21.526 C2.332,21.82 2.653,22 3,22 L21,22 C21.347,22 21.668,21.82 21.851,21.526 C22.033,21.231 22.049,20.863 21.895,20.553 L21.895,20.553 Z" id="path-1"></path></svg>