<!--description:Used just for developer purposes-->
<!--category:basic-->
<!--character:004e-->
<!--added:0.11-->
<svg width="24" height="24" viewBox="0 0 24 24" version="1.1" xmlns="http://www.w3.org/2000/svg"><path id="bug-a" d="M17.3135714,5.81285714 C15.9742857,4.11642857 14.0992857,3 12.0007143,3 C9.90214286,3 8.02714286,4.11642857 6.68785714,5.81285714 C7.00071429,6.52714286 7.40214286,7.15214286 7.93785714,7.73285714 C9.05428571,8.80428571 10.4828571,9.385 12.0007143,9.385 C13.5185714,9.385 14.9471429,8.80428571 16.0635714,7.73285714 C16.5992857,7.15214286 17.0014286,6.52714286 17.3135714,5.81285714 Z M6.24214286,6.52714286 C6.15285714,6.66142857 6.06357143,6.795 6.01857143,6.88428571 C5.88428571,6.83928571 5.795,6.75 5.66142857,6.66071429 C5.61642857,6.61571429 5.52714286,6.48214286 5.48285714,6.30357143 C5.70642857,5.81214286 5.52785714,5.18714286 5.03642857,4.91928571 C4.50071429,4.65142857 3.83071429,4.83 3.56285714,5.32142857 C3.25,5.85714286 3.47357143,6.48214286 3.965,6.795 C4.01,6.84 4.09928571,6.84 4.14357143,6.88428571 C4.27785714,7.15214286 4.45642857,7.50928571 4.76857143,7.73285714 C4.94714286,7.91142857 5.12571429,8.04571429 5.43857143,8.22428571 C5.12571429,9.11714286 4.90285714,10.0992857 4.85785714,11.1264286 C4.36642857,11.1714286 4.05428571,11.2157143 3.74142857,11.305 C3.56285714,11.3942857 3.38428571,11.4835714 3.20571429,11.5728571 C3.16071429,11.5728571 3.11642857,11.5728571 3.07142857,11.5728571 C2.49071429,11.5728571 2,12.0642857 2,12.6442857 C2,13.2242857 2.49142857,13.7157143 3.07142857,13.7157143 C3.65214286,13.7157143 4.09857143,13.2692857 4.14285714,12.6885714 C4.36642857,12.6435714 4.58928571,12.5542857 4.90214286,12.5542857 C5.03642857,14.0278571 5.48285714,15.4114286 6.19714286,16.5721429 C5.57214286,17.0635714 5.17,17.5992857 4.99142857,18.1792857 C4.99142857,18.1792857 4.94642857,18.1792857 4.90214286,18.2242857 C4.85785714,18.2692857 4.81285714,18.3135714 4.76785714,18.3585714 C4.41071429,18.805 4.41071429,19.475 4.85714286,19.8764286 C5.30357143,20.2778571 5.97357143,20.2335714 6.375,19.7871429 C6.73214286,19.385 6.73214286,18.805 6.42,18.4028571 C6.55428571,18.135 6.68785714,18.0007143 7.00071429,17.7328571 C8.20642857,19.1171429 9.85785714,20.0542857 11.6435714,20.1435714 L11.6435714,10.0985714 C9.27714286,9.96428571 7.22357143,8.53571429 6.24142857,6.52714286 L6.24214286,6.52714286 Z M20.9292857,11.5714286 C20.8842857,11.5714286 20.84,11.5714286 20.795,11.5714286 C20.6164286,11.4821429 20.4378571,11.3928571 20.2592857,11.3035714 C19.9464286,11.2142857 19.6342857,11.1692857 19.1428571,11.125 C19.0978571,10.0978571 18.875,9.11571429 18.5621429,8.22285714 C18.875,8.04428571 19.0535714,7.91 19.2321429,7.73142857 C19.545,7.50785714 19.7235714,7.15071429 19.8571429,6.88285714 C19.9021429,6.83785714 19.9914286,6.83785714 20.0357143,6.79357143 C20.5271429,6.48071429 20.75,5.85571429 20.4378571,5.32 C20.17,4.82857143 19.5,4.65 18.9642857,4.91785714 C18.4728571,5.18571429 18.2942857,5.81071429 18.5178571,6.30214286 C18.4728571,6.48071429 18.3835714,6.615 18.3392857,6.65928571 C18.205,6.74857143 18.1157143,6.83785714 17.9821429,6.88285714 C17.9371429,6.79357143 17.8478571,6.65928571 17.7585714,6.52571429 C16.7764286,8.535 14.7228571,9.96357143 12.3564286,10.0971429 L12.3564286,20.1421429 C14.1421429,20.0528571 15.7942857,19.115 16.9992857,17.7314286 C17.3121429,17.9992857 17.4457143,18.1335714 17.58,18.4014286 C17.2671429,18.8035714 17.2671429,19.3835714 17.625,19.7857143 C18.0271429,20.2321429 18.6964286,20.2771429 19.1428571,19.875 C19.5892857,19.4728571 19.5892857,18.8035714 19.2321429,18.3571429 C19.1871429,18.3121429 19.1428571,18.2678571 19.0978571,18.2228571 C19.0528571,18.1778571 19.0085714,18.1778571 19.0085714,18.1778571 C18.83,17.5971429 18.4278571,17.0614286 17.8028571,16.5707143 C18.5171429,15.41 18.9635714,14.0257143 19.0978571,12.5528571 C19.4107143,12.5528571 19.6335714,12.6421429 19.8571429,12.6871429 C19.9021429,13.2678571 20.3485714,13.7142857 20.9285714,13.7142857 C21.5085714,13.7142857 22,13.2228571 22,12.6428571 C22,12.0621429 21.5085714,11.5714286 20.9285714,11.5714286 L20.9292857,11.5714286 Z"/></svg>
