<!--character:E185-->
<svg xmlns="http://www.w3.org/2000/svg" width="24" height="24" viewBox="0 0 24 24"><path id="car-door-a" d="M20.99,6.42 C20.99,5.08 19.93,4 18.63,4 L10.84,4 C10.04,4 9.26,4.33 8.7,4.89 L3.58,10.09 C3.21,10.46 3,10.96 3,11.49 L3,18.58 C3,19.92 4.06,21 5.36,21 L18.64,21 C19.94,21 21,19.92 21,18.58 L20.99,6.42 Z M18,16 L15,16 C14.448,16 14,15.552 14,15 C14,14.448 14.448,14 15,14 L18,14 C18.552,14 19,14.448 19,15 C19,15.552 18.552,16 18,16 Z M5.49,11 L10.12,6.3 C10.31,6.11 10.57,6 10.84,6 L18.63,6 C18.83,6 18.99,6.19 18.99,6.42 L19,11 L5.49,11 Z"/></svg>
