<!--category:services-->
<!--character:E030-->
<!--added:0.11-->
<svg width="24" height="24" viewBox="0 0 24 24" version="1.1" xmlns="http://www.w3.org/2000/svg"><path id="car-rental-a" d="M7.5,11 L4.5,17 L4.5,21 L6.5,21 L6.5,21.5 C6.5,22.328 7.172,23 8,23 C8.828,23 9.5,22.328 9.5,21.5 L9.5,21 L15.5,21 L15.5,21.5 C15.5,22.328 16.172,23 17,23 C17.828,23 18.5,22.328 18.5,21.5 L18.5,21 L20.5,21 L20.5,17 L17.499,11 L7.5,11 Z M9.5,19 L6.5,19 L6.5,17 L9.5,17 L9.5,19 Z M18.5,19 L15.5,19 L15.5,17 L18.5,17 L18.5,19 Z M7.5,15 L8.5,13 L16.5,13 L17.5,15 L7.5,15 Z M10.858,3.001 L21,3 L21,5 L19.001,5 L19,8 L17,8 L17.001,5 L15.001,5 L15,7.002 L13,7.002 L13.001,5.001 L10.858,5.001 C10.41,6.721 8.858,8 7,8 C4.794,8 3,6.206 3,4 C3,1.794 4.794,0 7,0 C8.858,0 10.411,1.281 10.858,3.001 Z M7,6 C8.103,6 9,5.102 9,4 C9,2.897 8.103,2 7,2 C5.897,2 5,2.897 5,4 C5,5.102 5.897,6 7,6 Z"/></svg>