<!--description:Basically for code.kiwi.com in menu-->
<!--category:basic-->
<!--character:E141-->
<!--added:0.19-->
<svg width="24" height="24" viewBox="0 0 24 24" version="1.1" xmlns="http://www.w3.org/2000/svg"><path id="code-a" d="M8.7,15.9 L4.8,12 L8.7,8.1 C9.09,7.71 9.09,7.09 8.7,6.7 C8.31,6.31 7.69,6.31 7.3,6.7 L2.71,11.29 C2.32,11.68 2.32,12.31 2.71,12.7 L7.3,17.3 C7.69,17.69 8.31,17.69 8.7,17.3 C9.09,16.91 9.09,16.29 8.7,15.9 Z M15.3,15.9 L19.2,12 L15.3,8.1 C14.91,7.71 14.91,7.09 15.3,6.7 C15.69,6.31 16.31,6.31 16.7,6.7 L21.29,11.29 C21.68,11.68 21.68,12.31 21.29,12.7 L16.7,17.3 C16.31,17.69 15.69,17.69 15.3,17.3 C14.91,16.91 14.91,16.29 15.3,15.9 Z"/></svg>