<!--description:Use in map for coffee places-->
<!--category:services-->
<!--character:E02F-->
<!--added:0.11-->
<svg xmlns="http://www.w3.org/2000/svg" width="24" height="24" viewBox="0 0 24 24"><path id="coffee-a" d="M11,2 C11,3.277344 10.78125,3.28125 10.28125,3.78125 C9.78125,4.28125 9,5.277344 9,7 L11,7 C11,5.722656 11.21875,5.71875 11.71875,5.21875 C12.21875,4.71875 13,3.722656 13,2 L11,2 Z M14.6875,3 C14.6875,5.398438 13,5.398438 13,7 L15,7 C15,5.5 16.6875,5.699219 16.6875,3 L14.6875,3 Z M5,8 L5,14 C5,16.199219 6.800781,18 9,18 L15,18 C16.902344,18 18.472656,16.660156 18.875,14.875 C20.664063,14.476563 22,12.910156 22,11 L22,10 C22,9.476563 21.816406,8.941406 21.4375,8.5625 C21.058594,8.183594 20.523438,8 20,8 L5,8 Z M19,10 L20,10 L20,11 C20,11.808594 19.613281,12.429688 19,12.75 L19,10 Z M2,19 C2,20.699219 3.300781,22 5,22 L19,22 C20.699219,22 22,20.699219 22,19 L2,19 Z"/></svg>
