<!--character:E155-->
<!--added:0.23-->
<svg width="24" height="24" viewBox="0 0 24 24" version="1.1" xmlns="http://www.w3.org/2000/svg"><path id="compare-a" d="M2,2 L2,4 L11,4 C11.554688,4 12,4.445313 12,5 L12,13 C12,13.554688 11.554688,14 11,14 L2,14 L2,16 L10,16 L10,19 C10,20.644531 11.355469,22 13,22 L22,22 L22,20 L13,20 C12.445313,20 12,19.554688 12,19 L12,15.8125 C13.15625,15.394531 14,14.292969 14,13 L14,10 L22,10 L22,8 L14,8 L14,5 C14,3.355469 12.644531,2 11,2 L2,2 Z M5,6 L5,8 L2,8 L2,10 L5,10 L5,12 L9,9 L5,6 Z M19,12 L15,15 L19,18 L19,16 L22,16 L22,14 L19,14 L19,12 Z"/></svg>