<!--description:Use when you need to show that editing is not available anymore-->
<!--category:basic-->
<!--character:E00D-->
<svg xmlns="http://www.w3.org/2000/svg" width="24" height="24" viewBox="0 0 24 24"><path id="edit-off-a" d="M14.0646223,13.845634 L14.102822,13.845634 L10.388957,10.2075621 L10.3507572,10.2075621 L4.40069063,4.37148843 L3.188,5.58417906 L9.13806658,11.4202527 L3.188,17.2563264 L3.188,20.8943983 L6.90186506,20.8943983 L12.8519316,15.0583246 L19.7873094,21.842116 L21,20.6670188 L14.0646223,13.845634 Z M15.2773129,12.6329434 L17.8542805,10.1317689 L14.1404154,6.49369703 L11.6010413,8.99487146 L15.2773129,12.6329434 Z M20.696221,7.32742184 C21.0751868,6.94845602 21.0751868,6.3421107 20.696221,5.96314488 L18.3842263,3.68934995 C18.0052605,3.31038412 17.3989152,3.31038412 16.9817496,3.68934995 L15.2003071,5.47079248 L18.9141721,9.10886438 L20.696221,7.32742184 Z"/></svg>
