<!--description:Use when there is an movie entertainement on board-->
<!--category:services-->
<!--character:E06E-->
<!--added:0.11-->
<svg width="24" height="24" viewBox="0 0 24 24" version="1.1" xmlns="http://www.w3.org/2000/svg"><path id="entertainment-a" d="M19,2 L22,2 L22,22 L19,22 L19,19.998 L5,19.998 L5,22 L2,22 L2,2 L5,2 L5,3.998 L19,3.998 L19,2 Z M5,16.998 L19,16.998 L19,6.998 L5,6.998 L5,16.998 Z M9.748,15.57 C9.593,15.659 9.403,15.658 9.249,15.57 C9.095,15.48 9,15.315 9,15.137 L9,8.86 C9,8.681 9.095,8.516 9.249,8.426 C9.403,8.338 9.593,8.337 9.748,8.426 L15.24,11.563 C15.396,11.653 15.492,11.817 15.492,11.997 C15.492,12.177 15.396,12.342 15.24,12.431 L9.748,15.57 Z"/></svg>