<!--description:Use as general icon for in-flight services-->
<!--category:services-->
<!--character:E049-->
<!--added:0.11-->
<svg xmlns="http://www.w3.org/2000/svg" width="24" height="24" viewBox="0 0 24 24"><path id="flight-services-a" d="M22,10 L22,9 C22,4.582 18.418,1 14,1 C9.582,1 6,4.582 6,9 L6,10 L4,10 L4,12 L24,12 L24,10 L22,10 Z M14,3.25 L14,4.75 C11.657,4.75 9.75,6.657 9.75,9 L8.25,9 C8.25,5.83 10.83,3.25 14,3.25 Z M20,18 C20.404,18 20.769,18.244 20.924,18.617 C21.079,18.991 20.993,19.421 20.707,19.707 L17.707,22.707 C17.52,22.895 17.265,23 17,23 L6,23 L6,16.522 L9.628,15.071 C10,14.924 10.424,15.01 10.707,15.293 L11.707,16.293 C12.098,16.684 12.098,17.316 11.707,17.707 L11.414,18 L20,18 Z M4,15 C4.552,15 5,15.447 5,16 L5,23 C5,23.553 4.552,24 4,24 L2,24 C1.448,24 1,23.553 1,23 L1,16 C1,15.447 1.448,15 2,15 L4,15 Z"/></svg>
