<!--character:E183-->
<svg xmlns="http://www.w3.org/2000/svg" width="24" height="24" viewBox="0 0 24 24"><path id="fuel-a" d="M7.01424249,2 C5.36024249,2 4.01424249,3.346 4.01424249,5 L4.01424249,20 L3.01424249,20 C2.65360657,19.9948997 2.31816112,20.1843753 2.13635477,20.4958728 C1.95454841,20.8073704 1.95454841,21.1926296 2.13635477,21.5041272 C2.31816112,21.8156247 2.65360657,22.0051003 3.01424249,22 L17.0142425,22 C17.3748784,22.0051003 17.7103239,21.8156247 17.8921302,21.5041272 C18.0739366,21.1926296 18.0739366,20.8073704 17.8921302,20.4958728 C17.7103239,20.1843753 17.3748784,19.9948997 17.0142425,20 L16.0142425,20 L16.0142425,18 L18.0142425,18 C19.6592125,18 21.0142425,16.64497 21.0142425,15 L21.0142425,7.5859375 L18.7212735,5.2929688 C18.5330024,5.09943601 18.2744783,4.99025009 18.0044765,4.9902344 C17.5975535,4.99034151 17.2312678,5.23699017 17.0781459,5.61400478 C16.9250241,5.9910194 17.0156002,6.4232193 17.3072115,6.7070312 L18.0142425,7.4140625 L18.0142425,9 C18.0142425,9.552 18.4622425,10 19.0142425,10 L19.0142425,15 C19.0142425,15.56503 18.5792725,16 18.0142425,16 L16.0142425,16 L16.0142425,5 C16.0142425,3.346 14.6682425,2 13.0142425,2 L7.01424249,2 Z M7.01424249,4 L13.0142425,4 C13.5662425,4 14.0142425,4.448 14.0142425,5 L14.0142425,8 C14.0142425,8.552 13.5662425,9 13.0142425,9 L7.01424249,9 C6.46224249,9 6.01424249,8.552 6.01424249,8 L6.01424249,5 C6.01424249,4.448 6.46224249,4 7.01424249,4 Z"/></svg>
