<!--category:basic-->
<!--character:E152-->
<!--added:0.21-->
<svg width="24" height="24" viewBox="0 0 24 24" version="1.1" xmlns="http://www.w3.org/2000/svg"><path id="gender-man-a" d="M12,2 C9.8,2 7.687,2.805 6.187,4.406 C4.77571392,5.92631359 3.99407536,7.92562136 4,10 L4,10.406 C3,11.207 3,12.508 3,12.906 C3,14.207 3.988,15.289 5.188,15.687 C6.188,19.586 9.398,21.907 12,21.907 C14.602,21.907 17.813,19.586 18.813,15.687 C20.012,15.387 21,14.302 21,13 C21,12.5 21,11.3 20,10.5 L20,10.094 C20,7.992 19.21,6 17.812,4.5 C16.313,2.8 14.2,2 12,2 Z M9,7 C12.5,11.5 15.602,5.895 18,11.594 C18,11.594 19.2,11.898 19,13 C18.8,14.398 17.187,14.094 17.187,14.094 L17,14.813 C16.3,18.21 13.602,20 12,20 C10.398,20 7.7,18.21 7,14.812 L6.906,14.094 C6.906,14.094 5.094,14.199 5.094,13 C5.094,11.7 6.094,11.594 6.094,11.594 L7,12 C7,9.898 7.8,7.5 9,7 Z M9.5,11 C8.9641016,11 8.46891106,11.2858984 8.20096186,11.75 C7.93301265,12.2141016 7.93301265,12.7858984 8.20096186,13.25 C8.46891106,13.7141016 8.9641016,14 9.5,14 C10.3284271,14 11,13.3284271 11,12.5 C11,11.6715729 10.3284271,11 9.5,11 Z M14.5,11 C13.9641016,11 13.4689111,11.2858984 13.2009619,11.75 C12.9330127,12.2141016 12.9330127,12.7858984 13.2009619,13.25 C13.4689111,13.7141016 13.9641016,14 14.5,14 C15.3284271,14 16,13.3284271 16,12.5 C16,11.6715729 15.3284271,11 14.5,11 Z"/></svg>