<!--category:basic-->
<!--character:E151-->
<!--added:0.21-->
<svg width="24" height="24" viewBox="0 0 24 24" version="1.1" xmlns="http://www.w3.org/2000/svg"><path id="gender-woman-a" d="M12,2 C9.7,2 7.7,2.813 7,4.813 C3.2,4.612 0.613,14.101 2.812,22 L7.75,20.094 C8.871,21.214 10.277,22 12,22 C13.723,22 15.129,21.215 16.25,20.094 L21.5,22 C23.2,14.102 20.602,2 12,2 Z M10.406,8.406 C10.406,8.406 13.301,11.602 16,12 C16.36,13.387 16.379,15.117 16.313,16.625 C15.252,18.566 13.828,20 12,20 C10.121,20 8.66,18.496 7.594,16.469 C7.52,16.324 7.445,16.179 7.375,16.031 C7.289,14.797 7.289,13.406 7.5,12 C9.102,11 10.406,8.406 10.406,8.406 Z M9.5,13 C8.75,12.988 8,13.148 8,13.5 C8,14.3 8.7,15 9.5,15 C10.3,15 11,14.3 11,13.5 C11,13.2 10.25,13.012 9.5,13 Z M14.5,13 C13.75,12.988 13,13.148 13,13.5 C13,14.3 13.7,15 14.5,15 C15.3,15 16,14.3 16,13.5 C16,13.2 15.25,13.012 14.5,13 Z"/></svg>