<!--description:Use this icon only in pre-defined colors-->
<!--category:social-->
<!--character:E003-->
<svg xmlns="http://www.w3.org/2000/svg" width="24" height="24" viewBox="0 0 24 24">
  <g fill="none" transform="translate(2.824 2.824)">
    <path fill="#FFC107" d="M18.6397059,7.56801459 L17.8823529,7.56801459 L17.8823529,7.52941176 L9.41176471,7.52941176 L9.41176471,11.2941176 L14.7316179,11.2941176 C13.9540442,13.4852941 11.8694852,15.0588235 9.41176471,15.0588235 C6.29227953,15.0588235 3.76470588,12.5312499 3.76470588,9.41176471 C3.76470588,6.29227953 6.29227953,3.76470588 9.41176471,3.76470588 C10.8511031,3.76470588 12.1617647,4.30698541 13.1580885,5.19485318 L15.8198532,2.53308847 C14.1397059,0.966912 11.891544,0 9.41176471,0 C4.21323529,0 0,4.21323529 0,9.41176471 C0,14.6102941 4.21323529,18.8235294 9.41176471,18.8235294 C14.6102941,18.8235294 18.8235294,14.6102941 18.8235294,9.41176471 C18.8235294,8.78124988 18.7591911,8.16544141 18.6397059,7.56801459 Z"/>
    <path fill="#FF3D00" d="M1.08455906,5.03124988 L4.17830871,7.29963247 C5.01470588,5.22794118 7.04044141,3.76470588 9.41176471,3.76470588 C10.8511031,3.76470588 12.1617647,4.30698541 13.1580885,5.19485318 L15.8198532,2.53308847 C14.1397059,0.966912 11.891544,0 9.41176471,0 C5.79595576,0 2.66176471,2.04044141 1.08455906,5.03124988 Z"/>
    <path fill="#4CAF50" d="M9.41176471,18.8235294 C11.841912,18.8235294 14.0514706,17.8933826 15.7224264,16.3805148 L12.8088235,13.9154414 C11.8639708,14.6305148 10.6893384,15.0588235 9.41176471,15.0588235 C6.96323529,15.0588235 4.88602965,13.4981619 4.10294118,11.3198532 L1.03308847,13.6838235 C2.59007341,16.7316179 5.75367671,18.8235294 9.41176471,18.8235294 Z"/>
    <path fill="#1976D2" d="M18.6397059,7.56801459 L17.8823529,7.56801459 L17.8823529,7.52941176 L9.41176471,7.52941176 L9.41176471,11.2941176 L14.7316179,11.2941176 C14.358456,12.3474264 13.6801473,13.2536767 12.8069854,13.9154414 C12.8088235,13.9154414 12.8088235,13.9154414 12.8088235,13.9154414 L15.7224264,16.3805148 C15.516544,16.5661765 18.8235294,14.1176471 18.8235294,9.41176471 C18.8235294,8.78124988 18.7591911,8.16544141 18.6397059,7.56801459 Z"/>
  </g>
</svg>
