<!--category:basic-->
<!--character:E186-->
<svg width="24" height="24" viewBox="0 0 24 24" xmlns="http://www.w3.org/2000/svg"><path d="M20.8476 12.6532c.0879-.0846.2045-.2407.2045-.6172 0-.4463-.0966-.76-.2872-.9325-.2941-.2663-.8114-.2226-.8162-.2223-.4997.0517-.9675-.2852-1.0657-.7767-.276-1.3808-1.6418-3.4826-3.8513-4.5258.0317.3242.0203.692-.0654 1.1106-.3518 1.718-1.6944 2.2802-2.7527 2.2802-.1767 0-.345-.0156-.4998-.044-.529-.0977-.8787-.6055-.7813-1.1345.0968-.5251.5982-.8732 1.123-.7834.5522.0832.8889-.1544 1.0024-.7087.082-.4016.051-.7146-.0927-.9306-.1625-.244-.4702-.3726-.6339-.419-1.283-.019-2.621.3239-3.9776 1.0307-2.2874 1.1924-3.246 4.2517-3.2555 4.2826-.1255.4093-.504.691-.932.691-.309 0-.7563.1399-1.0076.4471-.2053.2513-.2601.5947-.1675 1.05.1444.7115.9372.6706 1.1771.641a1.0367 1.0367 0 0 1 .1205-.0072c.4848 0 .9119.3582.9745.8499.3556 2.7966 3.029 4.117 3.056 4.1301a.999.999 0 0 1 .1174.067c1.619 1.0806 3.7314.9982 3.754.9966.023-.0009.0489-.0017.072-.0009.0178-.0011 1.9515.0095 3.8769-1.4506 2.2966-1.742 2.6934-3.878 2.6967-3.8992.0785-.4928.5151-.8484 1.0143-.8195.1673.007.719-.0364.997-.3047zm1.199-3.0165c.435.3832.9534 1.1106.9534 2.3993 0 1.0421-.4438 1.6819-.8165 2.0347-.5047.4787-1.1314.6854-1.6245.773-.3364 1.0058-1.1905 2.8287-3.2424 4.3848-2.3383 1.7734-4.6878 1.8466-5.0573 1.8466h-.0056a5.4214 5.4214 0 0 1-.1937.003c-.6965 0-2.837-.1045-4.654-1.293-.471-.2438-3.1326-1.7398-3.9148-4.7685-1.014-.145-2.1193-.7522-2.409-2.1783-.2655-1.3074.1625-2.1736.5682-2.6703.499-.6106 1.1793-.9411 1.8032-1.0806.4603-1.152 1.6766-3.6236 3.9999-4.8347 1.6599-.8654 3.3248-1.2847 4.9466-1.2508h.0075c.0203.0003.0403-.0011.0604-.0005.4374.0125.876.059 1.304.1383 3.3695.6236 5.9678 3.3225 6.8184 5.834.4444.0714.9862.2487 1.4562.663zm-13.135 2.08c.6708 0 1.2147.5439 1.2147 1.2146 0 .6707-.5439 1.2147-1.2146 1.2147-.6708 0-1.2147-.544-1.2147-1.2147 0-.6707.544-1.2147 1.2147-1.2147zm5.9138 0c.6707 0 1.2147.5439 1.2147 1.2146 0 .6707-.544 1.2147-1.2147 1.2147-.6707 0-1.2147-.544-1.2147-1.2147 0-.6707.544-1.2147 1.2147-1.2147zm-2.9626 2.9968c.6707 0 1.2147.544 1.2147 1.2147 0 .6707-.544 1.2147-1.2147 1.2147-.6707 0-1.2147-.544-1.2147-1.2147 0-.6707.544-1.2147 1.2147-1.2147z" /></svg>
