<!--category:money-->
<!--character:E113-->
<svg width="24" height="24" viewBox="0 0 24 24" version="1.1" xmlns="http://www.w3.org/2000/svg"><path id="invoice-a" d="M15,10 L11.5,10 C11.224,10 11,10.225 11,10.5 C11,10.775 11.224,11 11.5,11 L12.5,11 C13.878,11 15,12.122 15,13.5 C15,14.707 14.14,15.717 13,15.949 L13,17 L11,17 L11,16 L9,16 L9,14 L12.5,14 C12.776,14 13,13.775 13,13.5 C13,13.225 12.776,13 12.5,13 L11.5,13 C10.122,13 9,11.878 9,10.5 C9,9.293 9.86,8.283 11,8.051 L11,7 L13,7 L13,8 L15,8 L15,10 Z M19.526,1.15 C19.231,0.967 18.862,0.951 18.553,1.106 L15.072,2.846 L12.555,1.168 C12.219,0.944 11.781,0.944 11.445,1.168 L8.928,2.846 L5.447,1.106 C5.137,0.951 4.769,0.967 4.474,1.15 C4.18,1.332 4,1.653 4,2 L4,22 C4,22.347 4.18,22.668 4.474,22.851 C4.635,22.951 4.817,23 5,23 C5.153,23 5.306,22.965 5.447,22.895 L8.928,21.154 L11.445,22.832 C11.781,23.056 12.219,23.056 12.555,22.832 L15.071,21.154 L18.553,22.895 C18.862,23.05 19.231,23.033 19.526,22.851 C19.821,22.668 20,22.347 20,22 L20,2 C20,1.653 19.82,1.332 19.526,1.15 L19.526,1.15 Z"/></svg>