<!--category:kiwicom-->
<!--character:E144-->
<!--added:0.19-->
<svg width="24" height="24" viewBox="0 0 24 24" version="1.1" xmlns="http://www.w3.org/2000/svg"><path id="care-kiwi.com-a" d="M12,22 C16.56,22 20.33,18.6 20.92,14.2 C21.01,13.56 20.44,12.99 19.8,13.08 C15.4,13.67 12,17.44 12,22 Z M5.6,10.25 C5.6,11.63 6.72,12.75 8.1,12.75 C8.63,12.75 9.11,12.59 9.52,12.31 L9.5,12.5 C9.5,13.88 10.62,15 12,15 C13.38,15 14.5,13.88 14.5,12.5 L14.48,12.31 C14.88,12.59 15.37,12.75 15.9,12.75 C17.28,12.75 18.4,11.63 18.4,10.25 C18.4,9.25 17.81,8.4 16.97,8 C17.81,7.6 18.4,6.75 18.4,5.75 C18.4,4.37 17.28,3.25 15.9,3.25 C15.37,3.25 14.89,3.41 14.48,3.69 L14.5,3.5 C14.5,2.12 13.38,1 12,1 C10.62,1 9.5,2.12 9.5,3.5 L9.52,3.69 C9.12,3.41 8.63,3.25 8.1,3.25 C6.72,3.25 5.6,4.37 5.6,5.75 C5.6,6.75 6.19,7.6 7.03,8 C6.19,8.4 5.6,9.25 5.6,10.25 Z M12,5.5 C13.38,5.5 14.5,6.62 14.5,8 C14.5,9.38 13.38,10.5 12,10.5 C10.62,10.5 9.5,9.38 9.5,8 C9.5,6.62 10.62,5.5 12,5.5 Z M3.08,14.2 C3.67,18.6 7.44,22 12,22 C12,17.44 8.6,13.67 4.2,13.08 C3.56,12.99 2.99,13.56 3.08,14.2 Z"/></svg>