<!--character:E170-->
<!--added:0.28-->
<svg width="24" height="24" viewBox="0 0 24 24" version="1.1" xmlns="http://www.w3.org/2000/svg"><path id="lock-open-a" d="M12,14 C10.9,14 10,14.9 10,16 C10,17.1 10.9,18 12,18 C13.1,18 14,17.1 14,16 C14,14.9 13.1,14 12,14 Z M18,9 L17,9 L17,7 C17,4.24 14.76,2 12,2 C9.72,2 7.73,3.54 7.16,5.75 C7.02,6.29 7.34,6.83 7.88,6.97 C8.41,7.11 8.96,6.79 9.1,6.25 C9.44,4.93 10.63,4 12,4 C13.65,4 15,5.35 15,7 L15,9 L6,9 C4.9,9 4,9.9 4,11 L4,21 C4,22.1 4.9,23 6,23 L18,23 C19.1,23 20,22.1 20,21 L20,11 C20,9.9 19.1,9 18,9 Z M18,20 C18,20.55 17.55,21 17,21 L7,21 C6.45,21 6,20.55 6,20 L6,12 C6,11.45 6.45,11 7,11 L17,11 C17.55,11 18,11.45 18,12 L18,20 Z"/></svg>