<!--category:services-->
<!--character:E04E-->
<!--added:0.11-->
<svg width="24" height="24" viewBox="0 0 24 24" version="1.1" xmlns="http://www.w3.org/2000/svg"><path id="lounge-a" d="M20.1818182,10.6428571 C19.1818182,10.6428571 18.3636364,11.4785714 18.3636364,12.5 L18.3636364,15.2857143 L5.63636364,15.2857143 L5.63636364,12.5 C5.63636364,11.4785714 4.81818182,10.6428571 3.81818182,10.6428571 C2.81818182,10.6428571 2,11.4785714 2,12.5 L2,17.1428571 C2,18.1642857 2.81818182,19 3.81818182,19 L20.1818182,19 C21.1818182,19 22,18.1642857 22,17.1428571 L22,12.5 C22,11.4785714 21.1818182,10.6428571 20.1818182,10.6428571 Z M17.4545455,6 L6.54545455,6 C5.54545455,6 4.72727273,6.83571429 4.72727273,7.85714286 L4.72727273,9.85357143 C5.78181818,10.2342857 6.54545455,11.2557143 6.54545455,12.4721429 L6.54545455,14.3571429 L17.4545455,14.3571429 L17.4545455,12.4721429 C17.4545455,11.265 18.2181818,10.2435714 19.2727273,9.85357143 L19.2727273,7.85714286 C19.2727273,6.83571429 18.4545455,6 17.4545455,6 Z"/></svg>