<!--character:E168-->
<!--added:0.27-->
<svg width="24" height="24" viewBox="0 0 24 24" version="1.1" xmlns="http://www.w3.org/2000/svg"><path id="money-transfer-out-a" d="M11.951172,2 L7.9511719,6 L11,6 L11,8 L13,8 L13,6 L15.951172,6 L11.951172,2 Z M3,10 C2.448,10 2,10.448 2,11 L2,21 C2,21.552 2.448,22 3,22 L21,22 C21.552,22 22,21.552 22,21 L22,11 C22,10.448 21.552,10 21,10 L3,10 Z M4.9121094,12 L19.087891,12 C19.2390014,12.4259145 19.5740855,12.7609986 20,12.912109 L20,19.087891 C19.5740855,19.2390014 19.2390014,19.5740855 19.087891,20 L4.9121094,20 C4.76099894,19.5740854 4.42591463,19.2390013 4,19.087891 L4,12.912109 C4.42591463,12.7609987 4.76099894,12.4259146 4.9121094,12 Z M12,13 C10.3431458,13 9,14.3431458 9,16 C9,17.6568542 10.3431458,19 12,19 C13.6568542,19 15,17.6568542 15,16 C15,14.3431458 13.6568542,13 12,13 Z M7,15 C6.448,15 6,15.447 6,16 C6,16.553 6.448,17 7,17 C7.552,17 8,16.553 8,16 C8,15.447 7.552,15 7,15 Z M17,15 C16.448,15 16,15.447 16,16 C16,16.553 16.448,17 17,17 C17.552,17 18,16.553 18,16 C18,15.447 17.552,15 17,15 Z"/></svg>