<!--category:money-->
<!--character:E081-->
<svg width="24" height="24" viewBox="0 0 24 24" version="1.1" xmlns="http://www.w3.org/2000/svg"><path d="M18,7 L16,7 L16,5 L18,5 L18,7 Z M18,11 L16,11 L16,9 L18,9 L18,11 Z M18,15 L16,15 L16,13 L18,13 L18,15 Z M18,19 L16,19 L16,17 L18,17 L18,19 Z M13,17 C11.896,17 11,16.106 11,15 C11,13.896 11.896,13 13,13 C14.104,13 15,13.896 15,15 C15,16.106 14.104,17 13,17 L13,17 Z M4.293,15.293 L13.293,6.293 L14.707,7.707 L5.707,16.707 L4.293,15.293 Z M6,6 C7.104,6 8,6.896 8,8 C8,9.106 7.104,10 6,10 C4.896,10 4,9.106 4,8 C4,6.896 4.896,6 6,6 L6,6 Z M23,10 L24,10 L24,3 L0,3 L0,10 L1,10 C2.103,10 3,10.898 3,12 C3,13.103 2.103,14 1,14 L0,14 L0,21 L24,21 L24,14 L23,14 C21.897,14 21,13.103 21,12 C21,10.898 21.897,10 23,10 L23,10 Z" id="path-1"></path></svg>