<!--category:services-->
<!--character:E046-->
<!--added:0.11-->
<svg xmlns="http://www.w3.org/2000/svg" width="24" height="24" viewBox="0 0 24 24"><path id="relax-a" d="M15,9.268 L15,11 L9,11 L9,9.266 L12,4.016 L15,9.268 Z M4.001,11 C3.448,11 3,10.553 3,10 L3,9 C3,8.686 3.149,8.389 3.401,8.2 L10.236,3.075 L7.133,8.504 C7.046,8.654 7.001,8.827 7.001,9 L7.001,11 L4.001,11 Z M17,9.002 C17,8.828 16.956,8.657 16.869,8.507 L13.766,3.075 L20.6,8.2 C20.852,8.389 21,8.686 21,9 L21,10 C21,10.553 20.553,11 20,11 L17,11 L17,9.002 Z M11,12 L13,12 L13,22 L11,22 L11,12 Z M20.03,14.758 L21.971,15.244 L21,19.123 L21,22 L19,22 L19,20 L17,20 L17,22 L15,22 L15,19 C15,18.447 15.447,18 16,18 L19.219,18 L20.03,14.758 Z M8,18 C8.553,18 9,18.447 9,19 L9,22 L7,22 L7,20 L5,20 L5,22 L3,22 L3,19.123 L2.03,15.243 L3.971,14.758 L4.782,18 L8,18 Z"/></svg>
