<!--character:E190-->
<svg width="24" height="24" viewBox="0 0 24 24" xmlns="http://www.w3.org/2000/svg"><path d="M9.6663 6.5662c-1.261 0-2.2831-1.0222-2.2831-2.283C7.3832 3.0221 8.4054 2 9.6663 2c1.261 0 2.2831 1.0222 2.2831 2.2831 0 1.261-1.0222 2.2831-2.2831 2.2831zm9.1594 15.4332c-.514 0-1.005-.295-1.23-.793-.647-1.427-1.252-2.698-1.799-3.778-.364-.719-.675-.836-.86-.852h-1.436c-2.767.276-3.659-1.487-3.917-2.262l-.054-.229-.745-5.037c-.109-.737.4-1.424 1.138-1.533.739-.112 1.424.401 1.533 1.138l.725 4.907c.086.21.273.419 1.101.325l.148-.008h1.333c.072-.004.146-.004.221 0l.075.003c.989.051 2.239.534 3.147 2.329.564 1.114 1.186 2.421 1.849 3.882.308.679.006 1.479-.673 1.787-.181.082-.37.121-.556.121zm-5.5064-4.2003c.548 0 .9132.3653.9132.9132 0 .548-.3653.9133-.9132.9133H9.7576c-1.2785 0-2.3744-.822-2.6484-2.1005L5.648 11.1324c-.1826-.4566.1827-1.0045.6393-1.0959.4566-.1826 1.0046.1827 1.0959.6393l1.4612 6.3927c.0913.4566.4566.7306.9132.7306h3.5617z"/></svg>
