<!--description:Share version only for iOS devices-->
<!--category:social-->
<!--character:E163-->
<!--added:0.11.0-->
<svg width="24" height="24" viewBox="0 0 24 24" version="1.1" xmlns="http://www.w3.org/2000/svg"><path id="share-ios-a" d="M11,5.828 L8.707,8.121 L7.293,6.707 L12,2 L16.707,6.707 L15.293,8.121 L13,5.828 L13,15.414 L11,15.414 L11,5.828 Z M17,9.414 C18.104,9.414 19,10.31 19,11.414 L19,19.414 C19,20.516 18.104,21.414 17,21.414 L7,21.414 C5.896,21.414 5,20.516 5,19.414 L5,11.414 C5,10.31 5.896,9.414 7,9.414 L8,9.414 L8,11.414 L7,11.414 L7,19.414 L17,19.414 L17,11.414 L16,11.414 L16,9.414 L17,9.414 Z"/></svg>