<!--category:services-->
<!--character:E036-->
<!--added:0.11-->
<svg width="24" height="24" viewBox="0 0 24 24" version="1.1" xmlns="http://www.w3.org/2000/svg"><path id="shopping-a" d="M18.58,10 L14.868,3.503 L13.132,4.495 L16.277,10 L7.723,10 L10.869,4.496 L9.132,3.503 L5.42,10 L2,10 L2,12 L3.198,12 L5.023,20.217 C5.125,20.675 5.531,21 6,21 L18,21 C18.469,21 18.875,20.675 18.977,20.217 L20.802,12 L22,12 L22,10 L18.58,10 Z M9,18 L7,18 L7,13 L9,13 L9,18 Z M13,18 L11,18 L11,13 L13,13 L13,18 Z M17,18 L15,18 L15,13 L17,13 L17,18 Z"/></svg>