<!--category:basic-->
<!--character:E126-->
<!--added:0.11-->
<svg width="24" height="24" viewBox="0 0 24 24" version="1.1" xmlns="http://www.w3.org/2000/svg"><path id="smoking-off-a" d="M2,12.9199877 L5,12.9199877 L5,15.9199877 L2,15.9199877 L2,12.9199877 Z M3.8,10.5199877 C2.916,9.85798771 2.737,8.60398771 3.4,7.71998771 C3.713,7.30298771 4.158,7.04998771 4.632,6.96098771 C4.051,5.83798771 4.111,4.43898771 4.92,3.35998771 C6.047,1.85898771 8.178,1.55298771 9.679,2.67998771 C11.182,3.80598771 11.486,5.93698771 10.36,7.43898771 C9.551,8.51998771 8.225,8.96798771 6.984,8.72498771 C7.032,9.20598771 6.912,9.70398771 6.6,10.1199877 C5.938,11.0039877 4.684,11.1829877 3.8,10.5199877 Z M7,15.9199877 L7,12.9199877 L10.268,12.9199877 L7.231,15.9199877 L7,15.9199877 Z M22,12.9199877 L22,15.9199877 L12.923,15.9199877 L5.117,23.6309877 L3.711,22.2099877 L20.297,5.82398771 L21.703,7.24698771 L15.96,12.9199877 L22,12.9199877 Z"/></svg>