<!--category:basic-->
<!--character:E08C-->
<svg width="24" height="24" viewBox="0 0 24 24" version="1.1" xmlns="http://www.w3.org/2000/svg"><path d="M12,16 C12.193,16 12.387,16.056 12.555,16.168 L16.291,18.659 L15.039,14.275 C14.938,13.926 15.036,13.55 15.293,13.293 L18.586,10 L15,10 C14.621,10 14.275,9.786 14.105,9.447 L12,5.236 L9.895,9.447 C9.725,9.786 9.379,10 9,10 L5.414,10 L8.707,13.293 C8.964,13.55 9.062,13.926 8.961,14.275 L7.709,18.659 L11.445,16.168 C11.613,16.056 11.807,16 12,16 M18,22 C17.807,22 17.614,21.944 17.445,21.832 L12,18.202 L6.555,21.832 C6.207,22.064 5.75,22.056 5.411,21.808 C5.072,21.561 4.923,21.128 5.039,20.725 L6.877,14.291 L2.293,9.707 C2.007,9.422 1.921,8.991 2.076,8.618 C2.231,8.244 2.596,8 3,8 L8.382,8 L11.105,2.553 C11.444,1.876 12.556,1.876 12.895,2.553 L15.618,8 L21,8 C21.404,8 21.769,8.244 21.924,8.618 C22.079,8.991 21.993,9.422 21.707,9.707 L17.123,14.291 L18.961,20.725 C19.077,21.128 18.928,21.561 18.589,21.808 C18.414,21.936 18.207,22 18,22" id="path-1"></path></svg>