<!--category:time-->
<!--character:E08E-->
<!--added:0.22-->
<svg width="24" height="24" viewBox="0 0 24 24" version="1.1" xmlns="http://www.w3.org/2000/svg"><path id="sunrise-a" d="M16.0239044,13 L7.97609562,13 L7.97609562,13.9163347 L6.10358566,13.9163347 L6.10358566,13 C6.10358566,9.77290837 8.77290837,7.10358566 12,7.10358566 C15.2270916,7.10358566 17.8565737,9.77290837 17.8565737,13 L17.8565737,13.9163347 L16.0239044,13.9163347 L16.0239044,13 Z M2,13.9163347 L2,12.0438247 L4.66932271,12.0438247 L4.66932271,13.9163347 L2,13.9163347 Z M4.27091633,6.54581673 L5.54581673,5.2310757 L7.45816733,7.14342629 L6.14342629,8.45816733 L4.27091633,6.54581673 Z M11.0836653,3 L12.9163347,3 L12.9163347,5.66932271 L11.0836653,5.66932271 L11.0836653,3 Z M18.4143426,5.2310757 L19.7290837,6.54581673 L17.8565737,8.45816733 L16.5418327,7.14342629 L18.4143426,5.2310757 Z M22,12.0438247 L22,13.9163347 L19.2908367,13.9163347 L19.2908367,12.0438247 L22,12.0438247 Z M2,17.2231076 L2,15.3505976 L22,15.3505976 L22,17.2231076 L2,17.2231076 Z M4.47011952,20.5298805 L4.47011952,18.6573705 L19.5298805,18.6573705 L19.5298805,20.5298805 L4.47011952,20.5298805 Z"/></svg>