<!--description:Also for Terms of Use and other similar features-->
<!--category:services-->
<!--character:E0A4-->
<!--added:0.11-->
<svg xmlns="http://www.w3.org/2000/svg" width="24" height="24" viewBox="0 0 24 24"><path id="terms-and-conditions-a" d="M21,5 C22.104,5 23,5.896 23,7 L23,16 L19,16 L19,7 C19,5.896 19.896,5 21,5 Z M21,21 L19,18 L23,18 L21,21 Z M14,3 C15.103,3 16,3.898 16,5 L16,19 C16,20.103 15.103,21 14,21 L4,21 C2.897,21 2,20.103 2,19 L2,5 C2,3.898 2.897,3 4,3 L14,3 Z M10,17 L10,15 L5,15 L5,17 L10,17 Z M13,13 L13,11 L5,11 L5,13 L13,13 Z M13,9 L13,7 L5,7 L5,9 L13,9 Z"/></svg>
