<!--description:Use for flight tickets-->
<!--category:travel-->
<!--character:0036-->
<!--added:0.11-->
<svg xmlns="http://www.w3.org/2000/svg" width="24" height="24" viewBox="0 0 24 24"><path id="ticket-airport-a" d="M21.9996,3.9999 C23.1006,3.9999 23.9996,4.9009 23.9996,5.9999 L23.9996,19.9999 C23.9996,21.0999 23.1006,21.9999 21.9996,21.9999 L1.9996,21.9999 C0.8996,21.9999 -0.0004,21.0999 -0.0004,19.9999 L-0.0004,5.9999 C-0.0004,4.9009 0.8996,3.9999 1.9996,3.9999 L21.9996,3.9999 Z M5.9996,7.9999 C6.5526,7.9999 6.9996,7.5529 6.9996,6.9999 C6.9996,6.4479 6.5526,5.9999 5.9996,5.9999 C5.4476,5.9999 4.9996,6.4479 4.9996,6.9999 C4.9996,7.5529 5.4476,7.9999 5.9996,7.9999 Z M5.9996,11.9999 C6.5526,11.9999 6.9996,11.5529 6.9996,10.9999 C6.9996,10.4479 6.5526,9.9999 5.9996,9.9999 C5.4476,9.9999 4.9996,10.4479 4.9996,10.9999 C4.9996,11.5529 5.4476,11.9999 5.9996,11.9999 Z M5.9996,15.9999 C6.5526,15.9999 6.9996,15.5529 6.9996,14.9999 C6.9996,14.4479 6.5526,13.9999 5.9996,13.9999 C5.4476,13.9999 4.9996,14.4479 4.9996,14.9999 C4.9996,15.5529 5.4476,15.9999 5.9996,15.9999 Z M5.9996,19.9999 C6.5526,19.9999 6.9996,19.5529 6.9996,18.9999 C6.9996,18.4479 6.5526,17.9999 5.9996,17.9999 C5.4476,17.9999 4.9996,18.4479 4.9996,18.9999 C4.9996,19.5529 5.4476,19.9999 5.9996,19.9999 Z M19.9997,14.8946105 L19.9997,13.9473053 L16.2104789,11.5790421 L16.2104789,8.97395263 C16.2104789,8.58082095 15.8931317,8.26347368 15.5,8.26347368 C15.1068683,8.26347368 14.7895211,8.58082095 14.7895211,8.97395263 L14.7895211,11.5790421 L11.0003,13.9473053 L11.0003,14.8946105 L14.7895211,13.7104789 L14.7895211,16.3155684 L13.8422158,17.0260474 L13.8422158,17.7365263 L15.5,17.2628737 L17.1577842,17.7365263 L17.1577842,17.0260474 L16.2104789,16.3155684 L16.2104789,13.7104789 L19.9997,14.8946105 Z"/></svg>
