<!--description:Non-selected icon for mobile menu-->
<!--category:travel-->
<!--character:E138-->
<!--added:0.11-->
<svg width="24" height="24" viewBox="0 0 24 24" version="1.1" xmlns="http://www.w3.org/2000/svg"><path id="ticket-outline-a" d="M22,4 C23.104,4 24,4.896 24,6 L24,20 C24,21.104 23.104,22 22,22 L2,22 C0.897,22 0,21.104 0,20 L0,6 C0,4.896 0.897,4 2,4 L22,4 Z M5.79686912,20.2369663 L22.3395402,20.2369663 L22.3385063,5.76303372 L5.79686912,5.76303372 L1.66145982,5.76303372 L1.66145982,20.2369663 L5.79686912,20.2369663 Z M6,6 C6.552,6 7,6.448 7,7 C7,7.552 6.552,8 6,8 C5.448,8 5,7.552 5,7 C5,6.448 5.448,6 6,6 Z M6,10 C6.552,10 7,10.448 7,11 C7,11.552 6.552,12 6,12 C5.448,12 5,11.552 5,11 C5,10.448 5.448,10 6,10 Z M6,14 C6.552,14 7,14.447 7,15 C7,15.553 6.552,16 6,16 C5.448,16 5,15.553 5,15 C5,14.447 5.448,14 6,14 Z M6,18 C6.552,18 7,18.447 7,19 C7,19.553 6.552,20 6,20 C5.448,20 5,19.553 5,19 C5,18.447 5.448,18 6,18 Z"/></svg>