<!--description:Use when showing some interesting tips-->
<!--category:travel-->
<!--character:E047-->
<!--added:0.11-->
<svg width="24" height="24" viewBox="0 0 24 24" version="1.1" xmlns="http://www.w3.org/2000/svg"><path id="tips-a" d="M12,6 C15.3137085,6 18,8.6862915 18,12 C18,14.22 16.79,16.16 15,17.2 L15,19 C15,19.5522847 14.5522847,20 14,20 L10,20 C9.44771525,20 9,19.5522847 9,19 L9,17.2 C7.21,16.16 6,14.22 6,12 C6,8.6862915 8.6862915,6 12,6 Z M14,21 L14,22 C14,22.5522847 13.5522847,23 13,23 L11,23 C10.4477153,23 10,22.5522847 10,22 L10,21 L14,21 Z M20,11 L23,11 L23,13 L20,13 L20,11 Z M1,11 L4,11 L4,13 L1,13 L1,11 Z M13,1 L13,4 L11,4 L11,1 L13,1 Z M4.92,3.5 L7.05,5.64 L5.63,7.05 L3.5,4.93 L4.92,3.5 Z M16.95,5.63 L19.07,3.5 L20.5,4.93 L18.37,7.05 L16.95,5.63 Z"/></svg>