<!--character:E182-->
<svg xmlns="http://www.w3.org/2000/svg" width="24" height="24" viewBox="0 0 24 24"><path d="M5,3 C3.8954305,3 3,3.8954305 3,5 C3.00056488,5.71396592 3.38168705,6.37348595 4,6.7304688 L4,15.271484 C3.38229019,15.6281174 3.00126128,16.286732 3,17 C3,18.1045695 3.8954305,19 5,19 C6.1045695,19 7,18.1045695 7,17 C6.99943519,16.286034 6.61831301,15.6265139 6,15.269531 L6,12.5 C6,12.224 6.224,12 6.5,12 L10.5,12 C10.776,12 11,12.224 11,12.5 L11,15.271484 C10.3822902,15.6281174 10.0012613,16.286732 10,17 C10,18.1045695 10.8954305,19 12,19 C13.1045695,19 14,18.1045695 14,17 C13.9994352,16.286034 13.618313,15.6265139 13,15.269531 L13,12.5 C13,12.224 13.224,12 13.5,12 L17.5,12 C17.776,12 18,12.224 18,12.5 L18,17.271484 C17.3822902,17.6281174 17.0012613,18.286732 17,19 C17,20.1045695 17.8954305,21 19,21 C20.1045695,21 21,20.1045695 21,19 C20.9994352,18.286034 20.618313,17.6265139 20,17.269531 L20,6.7285156 C20.6177097,6.37188223 20.9987386,5.71326785 21,5 C21,3.8954305 20.1045695,3 19,3 C17.8954305,3 17,3.8954305 17,5 C17.0005649,5.71396592 17.3816871,6.37348595 18,6.7304688 L18,9.5 C18,9.776 17.776,10 17.5,10 L13.5,10 C13.224,10 13,9.776 13,9.5 L13,6.7285156 C13.6177097,6.37188223 13.9987386,5.71326785 14,5 C14,3.8954305 13.1045695,3 12,3 C10.8954305,3 10,3.8954305 10,5 C10.0005649,5.71396592 10.3816871,6.37348595 11,6.7304688 L11,9.5 C11,9.776 10.776,10 10.5,10 L6.5,10 C6.224,10 6,9.776 6,9.5 L6,6.7285156 C6.61770969,6.37188223 6.99873858,5.71326785 7,5 C7,3.8954305 6.1045695,3 5,3 Z"/></svg>
