<!--character:E192-->
<svg width="24" height="24" viewBox="0 0 24 24" xmlns="http://www.w3.org/2000/svg"><path d="M7.2006 14.168c-.4164.7487-.6336 1.584-.6323 2.4322 0 .2208-.187.3998-.4177.3998H2.421a.4263.4263 0 0 1-.3153-.134.3885.3885 0 0 1-.1024-.3154c.141-1.0785.784-2.0381 1.7491-2.6109.9652-.5727 2.1491-.6971 3.2211-.3385.115.0392.2062.1244.2499.2334a.3844.3844 0 0 1-.0227.3335zm11.0623-1.5654c-1.1534 0-2.0884-.8949-2.0884-1.9988 0-1.1039.935-1.9988 2.0884-1.9988 1.1533 0 2.0883.895 2.0883 1.9988 0 1.104-.935 1.9988-2.0883 1.9988zm-.8345 3.9976c.0012-.848-.2148-1.6833-.629-2.433a.3844.3844 0 0 1-.021-.3338c.0444-.1088.1363-.1937.2515-.2322 1.0716-.3575 2.2546-.2324 3.2189.3402.9643.5726 1.6067 1.5315 1.748 2.6092a.3885.3885 0 0 1-.1024.3153.4263.4263 0 0 1-.3153.134h-3.733c-.2307 0-.4177-.1789-.4177-.3997zM5.733 12.6026c-1.1534 0-2.0884-.8949-2.0884-1.9988 0-1.1039.935-1.9988 2.0884-1.9988 1.1533 0 2.0883.895 2.0883 1.9988 0 1.104-.935 1.9988-2.0883 1.9988zm7.9088.3198c1.5404.6179 2.5408 2.0625 2.5353 3.661a.3904.3904 0 0 1-.1172.2915.4273.4273 0 0 1-.3005.1219h-7.518a.4273.4273 0 0 1-.3007-.1222.3904.3904 0 0 1-.117-.292c-.0051-1.597.9931-3.0407 2.5311-3.6602.0721-.0294.121-.095.1264-.1699a.1976.1976 0 0 0-.1005-.185c-1.2051-.6954-1.7781-2.0744-1.4011-3.372S10.5912 7 11.9983 7c1.4072 0 2.6418.8979 3.0188 2.1955.377 1.2976-.196 2.6766-1.4012 3.372a.1976.1976 0 0 0-.1004.185c.0054.0749.0542.1405.1263.17zm-1.6439-1.1193c.9825.0008 1.8002-.7223 1.877-1.6598a.1957.1957 0 0 0-.0703-.1654.2155.2155 0 0 0-.1803-.0457 4.3667 4.3667 0 0 1-.791.072c-.8205.0008-1.6227-.2319-2.3047-.6684a.2186.2186 0 0 0-.1838-.0224.2012.2012 0 0 0-.1303.1255c-.1908.5482-.0944 1.1508.259 1.6193.3534.4685.9207.7457 1.5244.7449z"/></svg>
