<!--category:transportation-->
<!--character:E102-->
<svg width="24" height="24" viewBox="0 0 24 24" xmlns="http://www.w3.org/2000/svg"><path d="M20.5912 2.2485a.825.825 0 0 1 1.1665 1.167L3.4147 21.7509a.825.825 0 1 1-1.1664-1.167l6.2452-6.245-4.3348 1.4685C3.624 16.0748 3 15.6291 3 15.0052v-.5757c0-.2674.1783-.624.4457-.713l6.685-3.6545c.2673-.1783.4456-.4457.4456-.8022v-3.666c0-1.337.5294-2.1738 1.4237-2.1738s1.4237 1.1043 1.4237 2.263v3.5768c0 .049.0034.0963.0099.1419l7.1576-7.1532zM15.72 11.073l4.8343 2.6434c.2674.1783.4457.4457.4457.8022v.5757c0 .624-.624 1.0696-1.1587.8022l-5.7937-1.9609c-.3565-.0891-.6239.1783-.6239.4457v2.9918c0 .3565.1783.5386.4457.7169l1.6935 1.0696c.3565.1783.5918.4665.4755.6766-.0264.0477-.0691.2493-.3152.3039-.246.0545-1.2286-.1759-2.6655-.425l-.0812-.012c-.2448.583-.5703.8746-.9765.8746-.407 0-.7345-.2926-.9827-.8776a1.3162 1.3162 0 0 0-.075.0112c-1.4369.2491-2.4194.4795-2.6655.425-.246-.0546-.2888-.2563-.3152-.3039-.1163-.2101.119-.4984.4755-.6766l1.6935-1.0696c.2674-.1783.4457-.5348.4457-.8022l-.0003-1.069 5.144-5.142z"/></svg>
