<!--description:Use for arrival date-->
<!--category:travel-->
<!--character:0025-->
<svg xmlns="http://www.w3.org/2000/svg" width="24" height="24" viewBox="0 0 24 24"><path d="M21.1667 18.33c.5 0 .8333.3333.8333.8333s-.3333.8334-.8333.8334H8.8333c-.5 0-.8333-.3334-.8333-.8334s.3333-.8333.8333-.8333zM4.7827 5.9811c.4441.064.8954.2614 1.0902.5343.1299.1819.4386.6164.9261 1.3034.109.1222.1396.1399.2887.1667 7.0861.953 11.152 1.5862 12.1973 1.8997 1.5681.4704 1.698 1.1067 1.6067 1.684-.0915.5773-.976 1.219-2.5907.9566a262.3898 262.3898 0 0 1-3.6199-.5705c-.1553-.0164-.186-.0112-.2998.0193-3.0824 2.0426-4.7668 3.1577-5.0532 3.3452-.3897.2535-.52.2313-1.1974.1284-.6775-.103-.6496-.1029-1.3866-.2196-.2375-.0376-.5894-.1218-.5733-.4088.016-.287.489-.621.7724-.8483.2833-.2272 2.3048-1.8053 3.0281-2.3667.143-.111.178-.183.1865-.2222.0113-.0715-.019-.1451-.1116-.1807l-.0633-.0164-4.3575-.6673c-.372-.0224-.619-.2612-.7105-.6027-.4444-1.9237-.678-2.9345-.7007-3.0324-.034-.1467-.0565-.3038-.0578-.526-.0012-.2221.182-.44.6263-.376zm4.824-1.9004c.8534.0996.79.1521 1.2472.5288.4573.3766 3.7264 3.4491 3.7772 3.632.0508.183-.1024.1774-.1972.1749-.0947-.0025-2.9122-.4062-3.1061-.4455-.194-.0392-.3087-.233-.401-.3595-.0616-.0844-.7227-.9378-1.9833-2.5603-.3303-.4512-.6046-.711-.4606-.9086.1439-.1975.2702-.1614 1.1237-.0618z"/></svg>
