<!--description:Use in lists when there is a chance to meet other transportation types-->
<!--category:transportation-->
<!--character:E160-->
<!--added:0.26-->
<svg width="24" height="24" viewBox="0 0 24 24" xmlns="http://www.w3.org/2000/svg"><path d="M21 14.6743v-.5757c0-.3565-.1783-.624-.4457-.8022l-6.685-3.6544c-.2673-.1783-.4456-.4457-.4456-.8022V5.263C13.4237 4.1043 12.8943 3 12 3s-1.4237.8369-1.4237 2.1739v3.6659c0 .3565-.1783.6239-.4457.8022l-6.685 3.6544c-.2673.0891-.4456.4457-.4456.713v.5758c0 .624.624 1.0696 1.1587.8022l5.7937-1.961c.2674-.089.6239.0892.6239.4457v2.9919c0 .2674-.1783.6239-.4457.8022l-1.6935 1.0696c-.3565.1782-.4457.5348-.4457.8913l.3566.5985c.364.6239.713.8913 1.2478.6239l2.3036-1.2479 2.5048 1.337c.5348.1783.863 0 1.2478-.624l.3566-.5984c.089-.3565-.0892-.713-.4457-.8913l-1.6935-1.0696c-.2674-.1783-.4457-.4457-.4457-.8022v-3.081c0-.2674.2674-.5348.624-.4456l5.7936 2.05C20.376 15.744 21 15.2983 21 14.6743z"/></svg>