<!--category:transportation-->
<!--character:E102-->
<svg width="24" height="24" viewBox="0 0 24 24" xmlns="http://www.w3.org/2000/svg"><path d="M10.5327 16.7884v-.5362l5.454-5.4537 4.466 2.4417c.267.1771.444.4432.444.7983v.5722c0 .6202-.621 1.0643-1.153.7982l-5.76-1.9506c-.354-.089-.62.178-.62.4432v2.9759c0 .354.177.6202.443.7982l1.684 1.0634c.354.177.532.5311.443.8862l-.355.5952c-.382.6212-.709.7983-1.24.6212l-2.491-1.3304-2.29 1.2414c-.532.266-.879 0-1.241-.6202l-.354-.5962c-.1722-.3455.0594-.6641.443-.8863l1.684-1.0633c.266-.178.443-.5322.443-.7982zM20.5813 2.2438a.8345.8345 0 0 1 1.179 0c.319.3281.319.8513 0 1.1784l-6.81 6.8081-4.418 4.4174-7.114 7.1142a.8377.8377 0 0 1-.59.2381.8354.8354 0 0 1-.589-.2381.8463.8463 0 0 1 0-1.1794l6.979-6.9781-2.425.8212-2.641.8943c-.532.266-1.152-.177-1.152-.7983v-.5721c0-.2651.177-.6202.443-.7093l6.646-3.635c.266-.1761.443-.4422.443-.7973V5.1617c0-1.3294.527-2.1616 1.416-2.1616.889 0 1.416 1.0983 1.416 2.2507v3.5571c0 .195.057.361.149.5021l7.068-7.0662z"/></svg>
