<svg width="24" height="24" viewBox="0 0 24 24" version="1.1" xmlns="http://www.w3.org/2000/svg"><path id="all-a" d="M17,7 C13.945,7 12.461,9.375 11.152,11.471 C9.779,13.666 8.814,15 7,15 C5.613,15 4,13.689 4,12 C4,10.311 5.613,9 7,9 C8.037,9 8.795,9.448 9.512,10.231 L10.651,8.525 C9.721,7.631 8.569,7 7,7 C4.336,7 2,9.336 2,12 C2,14.664 4.336,17 7,17 C10.055,17 11.539,14.625 12.848,12.529 C14.221,10.334 15.186,9 17,9 C18.387,9 20,10.311 20,12 C20,14.074 19.074,15 17,15 C16.012,15 15.277,14.594 14.591,13.879 L13.375,15.501 C14.3,16.382 15.445,17 17,17 C20.178,17 22,15.178 22,12 C22,9.336 19.664,7 17,7 Z"/></svg>