<!--description:Use in filters & lists for "All" option-->
<!--category:services-->
<!--character:E061-->
<!--added:0.11-->
<svg width="24" height="24" viewBox="0 0 24 24" xmlns="http://www.w3.org/2000/svg"><path d="M17 17.0217c-.6667 0-1.3333-.1667-1.9167-.4167-.5833-.25-1.1666-.5833-1.5833-1.0833-.5-.5-.5-1.25 0-1.75s1.25-.5 1.75 0c.25.25.5.4166.8333.5.5834.25 1.3334.25 1.9167 0 .3333-.1667.5833-.3334.8333-.5834.25-.25.4167-.5.5-.8333.1667-.3333.1667-.5833.1667-.9167 0-.3333-.0833-.6666-.1667-1-.1666-.3333-.3333-.5833-.5833-.8333-.25-.25-.5-.4167-.8333-.5-.5834-.25-1.3334-.25-1.9167 0-.3333.1667-.5833.3333-.8333.5833l-4.5834 5.25c-.5.5-1.0833.9167-1.6666 1.1667-1.25.5-2.6667.5-3.8334 0-.5833-.25-1.1666-.5833-1.5833-1.0833-.5-.4167-.8333-1-1.0833-1.5834-.25-.5833-.4167-1.25-.4167-1.9166 0-.6667.1667-1.3334.4167-1.9167.25-.5833.5833-1.1667 1-1.5833.5-.5 1-.8334 1.5833-1.0834 1.25-.5 2.6667-.5 3.8333 0 .6667.25 1.25.5834 1.6667 1 .5.5.5 1.25 0 1.75s-1.25.5-1.75 0c-.25-.25-.5-.4166-.8333-.5-.5834-.25-1.3334-.25-1.9167 0-.3333.1667-.5833.3334-.8333.5834-.25.25-.4167.5-.5.8333-.0834.25-.1667.5833-.1667.9167 0 .3333.0833.6666.1667 1 .1666.3333.3333.5833.5833.8333.25.25.5.4167.8333.5.5834.25 1.3334.25 1.9167 0 .3333-.1667.5833-.3333.8333-.5833l4.5834-5.25c.5-.5 1.0833-.9167 1.6666-1.1667 1.25-.5 2.6667-.5 3.8334 0 .5833.25 1.1666.5833 1.5833 1.0833.5.5.8333 1 1.0833 1.5834.25.5833.4167 1.25.4167 2 0 .6666-.1667 1.3333-.4167 1.9166-.25.5834-.5833 1.1667-1.0833 1.5834-.5.5-1 .8333-1.5833 1.0833-.5834.25-1.25.4167-1.9167.4167"/></svg>