<!--description:Use in search for discover feature-->
<!--category:travel-->
<!--character:0067-->
<!--added:0.11-->
<svg width="24" height="24" viewBox="0 0 24 24" xmlns="http://www.w3.org/2000/svg"><path d="M8.7262 17.7322c-1.6736-.4184-3.2636-1.2552-4.4352-2.4268-.3347-.3347-.3347-.8368 0-1.1715.3348-.3347.8369-.3347 1.1716 0 3.0125 2.9289 7.7824 2.8452 10.6276-.1674 2.8452-2.9288 2.8452-7.5314 0-10.4602-.3347-.3348-.3347-.8368 0-1.1716.3347-.3347.8368-.3347 1.1716 0a9.1419 9.1419 0 0 1 0 12.9707c-1.339 1.2553-3.0126 2.1758-4.8536 2.5105-.251.0837-.3347.251-.3347.502v.0838l.6694 1.6736c.0837.1674.251.251.4184.251h2.8452c.5021 0 .8368.3348.8368.8369 0 .502-.3347.8368-.8368.8368H5.128c-.5021 0-.8369-.3347-.8369-.8368s.3348-.8368.8369-.8368H7.973c.1673 0 .3347-.0837.4184-.251l.6694-1.7574c.0837-.251-.0837-.5021-.3347-.5858zm8.2845-9.205c0 3.5983-2.8452 6.5272-6.5272 6.5272-3.5146 0-6.4435-2.9289-6.4435-6.5272C4.04 4.9289 6.8852 2 10.4835 2s6.5272 2.9289 6.5272 6.5272zm-2.8452-.251c.1674-.4185.0837-.9206-.1673-1.1716l-.5021-.5858c-.3348-.3347-.8369-.502-1.2553-.3347-.3347.0837-.6694 0-.8368-.251l-.9205-1.0042-1.4226-1.59c-.0837-.0837-.251-.1674-.4184-.0837-.6694.251-1.3389.5858-1.841 1.0879-.0837.0837-.251.1674-.3347.251-.1674.1674-.1674.4185 0 .5858l1.6736 1.841c.251.3347.251.8368-.0837 1.0879l-.251.251c-.3347.3348-.4184.8369-.0837 1.0879l1.1716 1.1715c.251.3348.753.3348 1.0878.0837L11.404 9.364l.251-.251c.2511-.251.6695-.3348 1.0042-.1674.5858.251 1.2553-.0837 1.5063-.6694z"/></svg>