<!--description:Use in search for discover feature-->
<!--category:travel-->
<!--character:0067-->
<!--added:0.11-->
<svg width="24" height="24" viewBox="0 0 24 24" xmlns="http://www.w3.org/2000/svg"><path d="M16.09021 2.334728c.334727-.334728.83682-.334728 1.171547 0 3.598327 3.598326 3.598327 9.372385 0 12.970711-1.338912 1.25523-3.012552 2.175732-4.853556 2.51046-.251046.083683-.334728.251047-.334728.502093v.083682l.669456 1.67364c.083682.167364.251046.251046.41841.251046h2.845188c.502092 0 .83682.334728.83682.83682S16.50862 22 16.006527 22H5.127867c-.502093 0-.836821-.334728-.836821-.83682s.334728-.83682.83682-.83682h2.845188c.167364 0 .334728-.083682.41841-.251046l.669457-1.757322c.083682-.251046-.083683-.502092-.334729-.585774l-.333513-.089236c-1.550262-.442238-3.008188-1.244098-4.101633-2.337543-.334728-.334728-.334728-.83682 0-1.171548s.83682-.334728 1.171548 0l.198925.186743c3.020104 2.737105 7.645354 2.592955 10.42869-.354107 2.845188-2.92887 2.845188-7.53138 0-10.46025-.334728-.334729-.334728-.83682 0-1.171549zM10.5 2C14.082152 2 17 4.917848 17 8.5S14.082152 15 10.5 15 4 12.082152 4 8.5c0-1.45575.48747-2.79715 1.3-3.882227V4.6h.013965C6.501648 3.025302 8.381695 2 10.5 2zM5.699322 7.5C5.285637 7.5 5.25 8.182913 5.25 8.567056c0 2.543492 2.005501 4.62677 4.609179 4.931746.52597.045533.563112-1.221006-.148174-1.337592-.711286-.116587-1.168735-.360168-1.168735-1.107029-.007284-.4481-.064589-.739715-.171914-.874845-.160988-.202695-1.34599-.719887-1.609446-1.118613C6.497454 8.661998 6.113007 7.5 5.699322 7.5zm7.497859-3c-.379415.017442-.428748.099982-.428748.21688 0 .716198-.431436.716198-1.259347.77316-.479838.038849-.810812.150733-.992922.335653-.18211.18492-.292643.495597-.331597.932032 0 .357775-.289392.648142-.645966.648142-.292765.028223-.465362.180417-.517793.456582-.078646.414247.029973.839704.316968.839704h1.975671c.686553 0 .954986.49118.954986.982988-.03282.639623.007088 1.065277.119725 1.276962.112637.211684.288051.322558.526242.33262.965844.34784.385183 1.829359 1.226327.907653.841145-.921706 1.312732-2.14799 1.357539-3.500223C15.57181 6.482664 13.78465 4.5 13.197181 4.5z"/></svg>
