<!--description:Use in search for discover feature-->
<!--category:travel-->
<!--character:g-->
<!--added:0.11-->
<svg xmlns="http://www.w3.org/2000/svg" width="24" height="24" viewBox="0 0 24 24"><path id="anywhere-a" d="M18.071,16.07 C16.42,17.722 14.293,18.724 12,18.951 L12,20 L17,20 L17,22 L5,22 L5,20 L10,20 L10,18.95 C7.706,18.724 5.58,17.721 3.929,16.07 L5.344,14.656 C6.854,16.168 8.863,17 11,17 C13.137,17 15.146,16.168 16.657,14.656 C18.168,13.146 19,11.137 19,9 C19,6.863 18.168,4.853 16.657,3.343 L18.071,1.929 C19.96,3.818 21,6.329 21,9 C21,11.671 19.96,14.182 18.071,16.07 Z M11,15 C7.6862915,15 5,12.3137085 5,9 C5,5.6862915 7.6862915,3 11,3 C14.3137085,3 17,5.6862915 17,9 C17,12.3137085 14.3137085,15 11,15 Z"/></svg>
