<!--description:Use in map for ATMs-->
<!--category:money-->
<!--character:E02C-->
<!--added:0.11-->
<svg xmlns="http://www.w3.org/2000/svg" width="24" height="24" viewBox="0 0 24 24"><path id="atm-a" d="M20,0 C20.55,0 21,0.45 21,1 L21,23 C21,23.552 20.553,24 20,24 L4,24 C3.448,24 3,23.552 3,23 L3,1 C3,0.449 3.45,0 4,0 L20,0 Z M9.667,1 L9.667,2.556 L11.222,2.556 L11.222,7.223 L12.777,7.223 L12.777,2.556 L14.334,2.556 L14.334,7.222 L15.89,7.222 L15.89,4.136 L16.117,4.477 C16.239,4.662 16.446,4.772 16.667,4.772 C16.888,4.772 17.095,4.662 17.217,4.477 L17.444,4.136 L17.444,7.221 L19,7.221 L19,1.776 C19,1.348 18.653,1 18.223,1 C17.779,1 17.964,1.036 16.667,2.918 C15.37,1.036 15.554,1 15.111,1 C14.682,1 14.334,1.347 14.334,1.776 L14.334,1 L9.667,1 Z M8.111,3.333 L8.112,3.333 L8.112,4.111 L6.556,4.111 L6.556,3.333 C6.556,2.905 6.904,2.555 7.334,2.555 C7.762,2.555 8.111,2.905 8.111,3.333 Z M5,3.333 L5,7.223 L6.556,7.223 L6.556,5.667 L8.111,5.667 L8.111,7.222 L9.667,7.222 L9.667,3.333 C9.667,2.046 8.62,1 7.334,1 C6.047,1 5,2.046 5,3.333 Z M7,10.001 L17,10.001 L17,16.001 L7,16.001 L7,10.001 Z M7,17.001 L13,17.001 L13,19.001 L7,19.001 L7,17.001 Z M5,22.001 L19,22.001 L19,9.001 L5,9.001 L5,22.001 Z M16,19 C15.4477153,19 15,18.5522847 15,18 C15,17.4477153 15.4477153,17 16,17 C16.5522847,17 17,17.4477153 17,18 C17,18.5522847 16.5522847,19 16,19 Z"/></svg>
