<!--description:Use in map for ATMs-->
<!--category:money-->
<!--character:E02C-->
<!--added:0.11-->
<svg width="24" height="24" viewBox="0 0 24 24" xmlns="http://www.w3.org/2000/svg"><path d="M20.7273 3.91C21.4545 3.91 22 4.4555 22 5.1827v4.5455c0 .7273-.5455 1.2727-1.2727 1.2727H18.909c-.091 0-.1818-.0909-.1818-.1818l-.8182-2.4546v-.0909c0-.0909.0909-.1818.1818-.1818h1a.8148.8148 0 0 0 .8182-.8182.8148.8148 0 0 0-.8182-.8181H4.9091a.8148.8148 0 0 0-.8182.8181c0 .4546.3636.8182.8182.8182H6c.091 0 .091.1818.091.2727-.2728.7273-.5455 1.5455-.8183 2.3637 0 .0909-.0909.1818-.1818.1818H3.2727C2.5455 10.91 2 10.3645 2 9.6373V5.0918C2 4.4555 2.5455 3.91 3.2727 3.91h17.4546zm-4.5455 4.6364c1.3637 3.6363 2 7.3636 2.1818 11.0909 0 .2727-.1818.4545-.4545.4545H6.2727c-.2727 0-.4545-.1818-.4545-.4545 0-3.7273.6363-7.5455 2-11.091 0 0 .0909-.0908.1818-.0908h8c.091 0 .1818 0 .1818.0909zm-3.2727 8.6363c.5454-.0909 1-.5454 1.2727-1.0909.3637-.909-.0909-1.909-1-2.2727l-1.7273-.7273c-.1818-.0909-.2727-.2727-.2727-.4545 0-.2728.1818-.4546.4546-.4546h1.7272c.3637 0 .6364-.2727.6364-.6363 0-.3637-.2727-.6364-.6364-.6364h-.4545c-.091 0-.1818-.091-.1818-.1818v-.1818c0-.3637-.2728-.6364-.6364-.6364s-.6364.2727-.6364.6364v.2727c0 .0909-.0909.1818-.1818.1818-.5454.1818-1.0909.5455-1.2727 1.091-.3636.909.091 1.909 1 2.2726l1.7273.7273c.1818.091.2727.2727.2727.4546 0 .2727-.1818.4545-.4545.4545h-1.7273c-.3637 0-.6364.2727-.6364.6364 0 .3636.2727.6363.6364.6363h.4545c.091 0 .1818.091.1818.1819v.1818c0 .3636.2728.6363.6364.6363s.6364-.2727.6364-.6363v-.2728c0-.0909.0909-.1818.1818-.1818z"/></svg>