<!--description:Use for multi-type attachments, like images, etc.-->
<!--category:files-->
<!--character:E104-->
<svg width="24" height="24" viewBox="0 0 24 24" xmlns="http://www.w3.org/2000/svg"><path d="M20.2353 4.8217c-2.269-2.269-5.9664-2.269-8.2353 0L3.2605 13.477c-1.6807 1.6807-1.6807 4.4538 0 6.1345 1.6807 1.6807 4.3698 1.6807 6.0504 0l7.0588-7.0588c1.0925-1.0084 1.1765-2.7731.1681-3.9496-1.0084-1.1765-2.773-1.1765-3.9496-.168l-.168.168-4.3698 4.3697c-.3361.3362-.3361.8404 0 1.1765.3362.3361.8404.3361 1.1765 0l4.3697-4.3697a1.0651 1.0651 0 0 1 1.5126 0 1.0651 1.0651 0 0 1 0 1.5126L8.0504 18.351c-1.0084 1.0084-2.689 1.0084-3.6975 0-1.0084-1.0084-1.0084-2.689 0-3.6975l8.8236-8.6554c1.5966-1.5967 4.2857-1.5967 5.8823 0 1.5967 1.5966 1.5967 4.2857 0 5.8823l-6.5546 6.5546c-.3361.3362-.3361.8404 0 1.1765.3361.3361.8403.3361 1.1765 0l6.5546-6.5546c2.353-2.269 2.353-5.9664 0-8.2353z"/></svg>