<svg width="24" height="24" viewBox="0 0 24 24" version="1.1" xmlns="http://www.w3.org/2000/svg"><path d="M11,23 C8.103,23 6,20.687 6,17.5 L6,9 C6,5.009 8.794,2 12.5,2 C16.206,2 19,5.009 19,9 L19,16 L17,16 L17,9 C17,6.103 15.107,4 12.5,4 C9.893,4 8,6.103 8,9 L8,17.5 C8,19.243 8.928,21 11,21 C13.072,21 14,19.243 14,17.5 L14,10 C14,9.398 13.854,8 12.5,8 C11.146,8 11,9.398 11,10 L11,17 L9,17 L9,10 C9,7.607 10.407,6 12.5,6 C14.593,6 16,7.607 16,10 L16,17.5 C16,20.687 13.897,23 11,23" id="path-1"></path></svg>