<svg width="24" height="24" viewBox="0 0 24 24" version="1.1" xmlns="http://www.w3.org/2000/svg"><path id="baggage-storage-a" d="M18,16 C18.552,16 19,16.448 19,17 L19,23 C19,23.553 18.552,24 18,24 L6,24 C5.448,24 5,23.553 5,23 L5,17 C5,16.448 5.448,16 6,16 L9,16 L9,15 C9,13.896 9.897,13 11,13 L13,13 C14.103,13 15,13.896 15,15 L15,16 L18,16 Z M17,22 L17,18 L15,18 L15,22 L17,22 Z M9,22 L9,18 L7,18 L7,22 L9,22 Z M11,15 L11,16 L13,16 L13,15 L11,15 Z M10.858,5.001 L21,5 L21,7 L19.001,7 L19,10 L17,10 L17.001,7 L15.001,7 L15,9.002 L13,9.002 L13.001,7.001 L10.858,7.001 C10.41,8.721 8.858,10 7,10 C4.794,10 3,8.206 3,6 C3,3.794 4.794,2 7,2 C8.858,2 10.411,3.281 10.858,5.001 Z M7,8 C8.103,8 9,7.102 9,6 C9,4.897 8.103,4 7,4 C5.897,4 5,4.897 5,6 C5,7.102 5.897,8 7,8 Z"/></svg>