<svg width="24" height="24" viewBox="0 0 24 24" version="1.1" xmlns="http://www.w3.org/2000/svg"><path id="baggage-storage-a" d="M18,16 C18.552,16 19,16.448 19,17 L19,23 C19,23.553 18.552,24 18,24 L6,24 C5.448,24 5,23.553 5,23 L5,17 C5,16.448 5.448,16 6,16 L9,16 L9,15 C9,13.896 9.897,13 11,13 L13,13 C14.103,13 15,13.896 15,15 L15,16 L18,16 Z M17,22 L17,18 L15,18 L15,22 L17,22 Z M9,22 L9,18 L7,18 L7,22 L9,22 Z M11,15 L11,16 L13,16 L13,15 L11,15 Z M6.5,2 C8.46,2 10.13,3.25 10.74,5 L22,5 L22,8 L18,8 L18,11 L15,11 L15,8 L10.74,8 C10.13,9.75 8.46,11 6.5,11 C4,11 2,9 2,6.5 C2,4 4,2 6.5,2 Z M6.5,5 C5.67157288,5 5,5.67157288 5,6.5 C5,7.32842712 5.67157288,8 6.5,8 C7.32842712,8 8,7.32842712 8,6.5 C8,5.67157288 7.32842712,5 6.5,5 Z"/></svg>