<!--description:the smallest baggage allowed-->
<!--character:E156-->
<!--added:0.23-->
<svg width="24" height="24" viewBox="0 0 24 24" version="1.1" xmlns="http://www.w3.org/2000/svg"><path id="personal-item-a" d="M12,4 C9.7593752,4 8,5.7593752 8,8 L9.6,8 C9.6,6.6406248 10.6406248,5.6 12,5.6 C13.3593752,5.6 14.4,6.6406248 14.4,8 L16,8 C16,5.7593752 14.2406248,4 12,4 Z M5.6,8.8 L4.875,13.275 C4.9562504,13.5156248 5.2062504,13.7593752 5.525,14 C5.7656248,14.1593752 6.0812504,14.3187504 6.4,14.4 C6.5593752,14.4812504 6.7093752,14.55 6.95,14.55 C8.3906248,14.95 10.1562504,15.125 11.275,15.125 C11.275,15.6062504 11.5937504,15.925 12.075,15.925 C12.5562504,15.925 12.875,15.6062504 12.875,15.125 C13.9937504,15.125 15.9093752,14.9562504 17.35,14.475 C17.5093752,14.475 17.5937504,14.4062504 17.675,14.325 C18.075,14.1656248 18.4062504,13.9906248 18.725,13.75 C18.8843752,13.5906248 19.0437504,13.4406248 19.125,13.2 L18.4,8.8 L5.6,8.8 Z M6.875,10.4 L17.05,10.4 L17.35,12.8 C16.7093752,13.1187504 14.8812504,13.6 12,13.6 C9.1187504,13.6 7.2687504,13.1187504 6.55,12.8 L6.875,10.4 Z M19.275,14.65 C18.9562504,14.8906248 18.55,15.0406248 18.15,15.2 C17.9906248,15.2812504 17.9093752,15.2687504 17.75,15.35 L18.075,17.6 L5.925,17.6 L6.25,15.45 C6.0093752,15.3687504 5.8406248,15.2812504 5.6,15.2 C5.2812504,15.0406248 4.9687504,14.9656248 4.65,14.725 L4,19.2 L20,19.2 L19.275,14.65 Z"/></svg>