<!--character:E175-->
<!--added:0.33-->
<svg width="24" height="24" viewBox="0 0 24 24" xmlns="http://www.w3.org/2000/svg"><path d="M14.25 8.5833l1.504-1.504A.7936.7936 0 0 1 15.75 7c0-1-.4167-1.9167-1.1667-2.5C12.6667 2.9167 8.25 3.4167 8.25 7c0 .5-.3333.8333-.8333.8333S6.5833 7.5 6.5833 7c0-3.25 2.75-5 5.4167-5 2.255 0 4.5695 1.2514 5.2304 3.6029l3.353-3.3529c.3333-.3333.8333-.3333 1.1666 0 .3333.3333.3333.8333 0 1.1667L3.4167 21.75c-.25.3333-.8334.3333-1.1667 0-.3333-.3333-.3333-.8333 0-1.1667l1.5548-1.5548c-.4995-.8696-.6707-1.8657-.4715-2.8618l1.1667-6.5c.0833-.5834.5833-1 1.1667-1.0834H14.25zm-2.5 2.5H7.1667c-.4167 0-.6667.3334-.6667.6667 0 .4167.3333.6667.6667.6667H8c.0833 0 .1667.0833.1667.1666V14.25c0 .1323.0252.2477.0729.3438L9.5 13.3333v-.75c0-.0833.0833-.1666.1667-.1666h.75l1.3333-1.3334zm7.75-1.4166l1.1667 6.4166c.25 1.25-.0834 2.5-.9167 3.5-.8333 1-2 1.5834-3.3333 1.5834h-8.75C7.0833 21.1667 6.5 21 6 20.8333L14.4167 12.5H16.75c.4167 0 .6667-.3333.6667-.6667 0-.4166-.3334-.6666-.6667-.6666h-1.0833l2.5-2.5h.1666c.5834 0 1.0834.4166 1.1667 1z"/></svg>