<svg width="24" height="24" viewBox="0 0 24 24" version="1.1" xmlns="http://www.w3.org/2000/svg"><path id="baggage-personal-item-none-a" d="M9.02055285,5.30633929 C9.74784881,4.49999066 10.8055421,4 12,4 C14.2406248,4 16,5.7593752 16,8 L14.4,8 C14.4,6.6406248 13.3593752,5.6 12,5.6 C11.2449724,5.6 10.5882774,5.92102671 10.1536044,6.43939082 L9.02055285,5.30633929 Z M12.5142136,8.8 L18.4,8.8 L19.125,13.2 C19.0437504,13.4406248 18.8843752,13.5906248 18.725,13.75 C18.4766911,13.9374489 18.220796,14.0850731 17.9307234,14.2165098 L16.7448424,13.0306288 C17.004756,12.9504287 17.2069737,12.8711644 17.35,12.8 L17.05,10.4 L14.1142136,10.4 L12.5142136,8.8 Z M18.6924486,14.978235 C18.9024569,14.8849017 19.1016659,14.7808503 19.275,14.65 L19.4476327,15.7334192 L18.6924486,14.978235 Z M21.9459415,21.0601551 L20.5459415,22.4601551 L17.2857864,19.2 L4,19.2 L4.65,14.725 C4.9687504,14.9656248 5.2812504,15.0406248 5.6,15.2 C5.8406248,15.2812504 6.0093752,15.3687504 6.25,15.45 L5.925,17.6 L15.6857864,17.6 L13.2063047,15.1205183 C13.0896758,15.1235445 12.9789012,15.125 12.875,15.125 C12.875,15.6062504 12.5562504,15.925 12.075,15.925 C11.5937504,15.925 11.275,15.6062504 11.275,15.125 C10.1562504,15.125 8.3906248,14.95 6.95,14.55 C6.7093752,14.55 6.5593752,14.4812504 6.4,14.4 C6.0812504,14.3187504 5.7656248,14.1593752 5.525,14 C5.2062504,13.7593752 4.9562504,13.5156248 4.875,13.275 L5.6,8.8 L6.88578644,8.8 L2.16116524,4.0753788 L3.56116524,2.6753788 L21.9459415,21.0601551 Z M8.48578644,10.4 L6.875,10.4 L6.55,12.8 C7.24210654,13.1069344 8.98314705,13.5645437 11.6838353,13.5980488 L8.48578644,10.4 Z"/></svg>