<svg width="24" height="24" viewBox="0 0 24 24" version="1.1" xmlns="http://www.w3.org/2000/svg"><path id="baggage-a" d="M16,8 L12.9973917,8 C11.8958578,8 11,8.8918564 11,9.99201702 L11,11 L7.35869565,11 L5.59782609,11 L1,11 L1,6.82159624 C1,5.88356808 1.7509375,5.1314554 2.6875,5.1314554 L5.21875,5.1314554 L5.21875,2.69014085 C5.21875,1.75211268 5.9696875,1 6.90625,1 L10.09375,1 C11.0303125,1 11.78125,1.75211268 11.78125,2.69014085 L11.78125,5.1314554 L14.3125,5.1314554 C15.2490625,5.1314554 16,5.88356808 16,6.82159624 L16,8 Z M7,21 L6,21 L6,21.9906311 C6,22.5480902 5.55613518,23 5,23 C4.44771525,23 4,22.5566468 4,21.9906311 L4,21 L2.6875,21 C1.7509375,21 1,20.2478873 1,19.3098592 L1,13 L7.76569128,13 C7.28938884,13.532013 7,14.2350258 7,15.0057983 L7,21 Z M7,3 L7,5 L10,5 L10,3 L7,3 Z M19.25,12.7333333 L21.125,12.7333333 C22.165625,12.7333333 23,13.564 23,14.6 L23,21.1333333 C23,22.1693333 22.165625,23 21.125,23 L9.875,23 C8.834375,23 8,22.1693333 8,21.1333333 L8.009375,14.6 C8.009375,13.564 8.834375,12.7333333 9.875,12.7333333 L11.75,12.7333333 L11.75,10.8666667 C11.75,9.83066667 12.584375,9 13.625,9 L17.375,9 C18.415625,9 19.25,9.83066667 19.25,10.8666667 L19.25,12.7333333 Z M13,13 L18,13 L18,11 L13,11 L13,13 Z"/></svg>