<!--category:travel-->
<!--character:E105-->
<svg width="24" height="24" viewBox="0 0 24 24" version="1.1" xmlns="http://www.w3.org/2000/svg"><path d="M12,12 C8.691,12 6,9.309 6,6 C6,2.691 8.691,-4e-16 12,-4e-16 C15.309,-4e-16 18,2.691 18,6 C18,9.309 15.309,12 12,12 Z M12,2 C9.794,2 8,3.794 8,6 C8,8.206 9.794,10 12,10 C14.206,10 16,8.206 16,6 C16,3.794 14.206,2 12,2 Z M14.7451,4.4307 L12.0781,7.4117 L10.5881,6.0777 L13.2551,3.0977 L14.7451,4.4307 Z M18,16 C18.552,16 19,16.448 19,17 L19,23 C19,23.553 18.552,24 18,24 L6,24 C5.448,24 5,23.553 5,23 L5,17 C5,16.448 5.448,16 6,16 L9,16 L9,15 C9,13.896 9.897,13 11,13 L13,13 C14.103,13 15,13.896 15,15 L15,16 L18,16 Z M17,22 L17,18 L15,18 L15,22 L17,22 Z M9,22 L9,18 L7,18 L7,22 L9,22 Z M11,15 L11,16 L13,16 L13,15 L11,15 Z" id="path-1"></path></svg>