<svg width="24" height="24" viewBox="0 0 24 24" version="1.1" xmlns="http://www.w3.org/2000/svg"><path id="baggage-none-a" d="M10.48,10.2 L9.3,10.2 L7.5,10.2 L4,10.2 L4,6.22 L1,3.22 L2.22,2 L4.87382497,4.65382497 C4.88637688,4.64632706 4.89902945,4.63897807 4.91178013,4.63178013 L10.48,10.2 Z M12.48,12.2 L19.78,19.5 L20,19.28 L20,19.5 C20,19.5888467 19.9936645,19.6761272 19.9814175,19.7614175 L22,21.78 L20.78,23 L18.9282507,21.1482507 C18.7059352,21.2458876 18.4596557,21.3 18.2,21.3 L17,21.3 L17,21.9906311 C17,22.5480902 16.5561352,23 16,23 C15.4477153,23 15,22.5566468 15,21.9906311 L15,21.3 L9,21.3 L9,21.9906311 C9,22.5480902 8.55613518,23 8,23 C7.44771525,23 7,22.5566468 7,21.9906311 L7,21.3 L5.8,21.3 C4.801,21.3 4,20.499 4,19.5 L4,12.2 L12.48,12.2 Z M20,10.2 L16.5,10.2 L14.7,10.2 L12.92,10.2 L7.12,4.4 L8.5,4.4 L8.5,1.8 C8.5,0.801 9.301,0 10.3,0 L13.7,0 C14.699,0 15.5,0.801 15.5,1.8 L15.5,4.4 L18.2,4.4 C19.199,4.4 20,5.201 20,6.2 L20,10.2 Z M20,12.2 L20,17.28 L14.92,12.2 L20,12.2 Z M10.3,1.8 L10.3,4.4 L13.7,4.4 L13.7,1.8 L10.3,1.8 Z"/></svg>