<!--category:travel-->
<!--character:E105-->
<svg width="24" height="24" viewBox="0 0 24 24" xmlns="http://www.w3.org/2000/svg"><path d="M12.4 12c1.36 0 2.48 1.04 2.48 2.4l-.0031 7.44c0 .08-.08.16-.16.16h-5.36c-.08 0-.16-.08-.16-.16L9.2 14.4c0-1.36 1.04-2.4 2.4-2.4h.8zm.72 2.8c.08 0 .16-.08.16-.16v-.16c0-.48-.32-.8-.8-.8h-.8c-.48 0-.8.32-.8.8v.16c0 .08.08.16.16.16h2.08zM6.8 16c0-.64.56-1.2 1.2-1.2h.16c.08 0 .16.08.16.16v6.88c0 .08-.08.16-.16.16H8c-.64 0-1.2-.56-1.2-1.2V16zm10.4 4.8c0 .64-.56 1.2-1.2 1.2h-.16c-.08 0-.16-.08-.16-.16v-6.88c0-.08.08-.16.16-.16H16c.64 0 1.2.56 1.2 1.2v4.8zM12 2c2.2091 0 4 1.7909 4 4 0 2.2091-1.7909 4-4 4-2.2091 0-4-1.7909-4-4 0-2.2091 1.7909-4 4-4zm0 1.2c-1.5464 0-2.8 1.2536-2.8 2.8 0 1.5464 1.2536 2.8 2.8 2.8 1.5464 0 2.8-1.2536 2.8-2.8 0-1.5464-1.2536-2.8-2.8-2.8zm1.6749 1.1536a.5.5 0 0 1 0 .707L12.2607 6.475a.5.5 0 0 1-.7071-.7071l1.4142-1.4142a.5.5 0 0 1 .707 0z"/></svg>