<!--category:travel-->
<!--character:0068-->
<svg width="24" height="24" viewBox="0 0 24 24" xmlns="http://www.w3.org/2000/svg"><path d="M19.0833 6.9967C20.6667 6.9967 22 8.33 22 9.9133v8.3334c0 1.5833-1.3333 2.9166-2.9167 2.9166-.25 0-.4166-.1666-.4166-.4166V7.4133c0-.25.1666-.4166.4166-.4166zm-13.75.4166v13.3334c0 .25-.1666.4166-.4166.4166C3.3333 21.1633 2 19.83 2 18.2467V9.9133C2 8.33 3.3333 6.9967 4.9167 6.9967c.25 0 .4166.1666.4166.4166zM9.6667 5.33v1.25c0 .25.25.4167.5.4167h3.75c.25 0 .4166-.1667.4166-.4167V5.33c0-.5-.3333-.8333-.8333-.8333h-2.9167c-.5 0-.9166.3333-.9166.8333zM7 20.7467V7.4133c0-.25.1667-.4166.4167-.4166h.1666C7.8333 6.9967 8 6.83 8 6.58V5.33c0-1.4167 1.0833-2.5 2.5-2.5h2.9167c1.4166 0 2.5 1.0833 2.5 2.5v1.25c.0833.25.25.4167.4166.4167H16.5c.3333 0 .5.1666.5.4166v13.3334c0 .25-.1667.4166-.4167.4166H7.4167c-.25 0-.4167-.1666-.4167-.4166z"/></svg>