<!--category:travel-->
<!--character:E106-->
<svg width="24" height="24" viewBox="0 0 24 24" xmlns="http://www.w3.org/2000/svg"><path d="M11.16 4.0833c0-.25.1667-.4166.4167-.4166h.8333c.25 0 .4167.1666.4167.4166v2.5c0 .25-.1667.4167-.4167.4167h-.8333c-.25 0-.4167-.1667-.4167-.4167v-2.5zm3.75 6.25h-3.5c-.25 0-.4167.1667-.4167.4167v.8333c0 .3334-.25.6667-.6666.6667-.4167 0-.6667-.25-.6667-.6667V10.75c0-.25-.1667-.4167-.3333-.4167h-.25c-.3334 0-.6667-.25-.6667-.6666C8.41 9.25 8.66 9 9.0767 9H14.91c.3333 0 .6667.25.6667.6667 0 .4166-.3334.6666-.6667.6666zm0-3.25c-.25 0-.4167-.1666-.4167-.4166v-2.5c0-.25.1667-.4167.4167-.4167.5833 0 .8333-.4167.8333-.9167 0-.5-.25-.8333-.8333-.8333H9.0767c-.5834 0-.8334.4167-.8334.8333 0 .4167.25.8334.75.8334.3334.0833.5.25.5.5v2.4166c0 .25-.1666.4167-.4166.4167h-.8334C7.0767 7.0833 6.16 8 6.16 9.0833v10c0 1 .6667 1.8334 1.6667 2 .0833 0 .1666.1667.1666.25 0 .5.3334.6667.8334.6667s.8333-.1667.8333-.6667c0-.0833.0833-.1666.1667-.1666h4.1666c.0834 0 .1667.0833.1667.1666 0 .5.3333.6667.8333.6667s.8334-.1667.8334-.6667c0-.0833.25-.25.3333-.25 1-.1666 1.6667-1.0833 1.6667-2v-10c0-1.0833-.75-2-1.9167-2h-1z"/></svg>