<svg width="24" height="24" viewBox="0 0 24 24" version="1.1" xmlns="http://www.w3.org/2000/svg"><path id="baggage-cabin-none-a" d="M21.9459415,21.0601551 L20.5459415,22.4601551 L17.8490289,19.7632424 C17.5488849,20.4889646 16.833759,21 16,21 L16,22 L14,22 L14,21 L10,21 L10,22 L8,22 L8,21 C6.896,21 6,20.104 6,19 L6,10 C6,9.42619523 6.24204615,8.90857974 6.62953921,8.54375277 L2.16116524,4.0753788 L3.56116524,2.6753788 L21.9459415,21.0601551 Z M11.7142136,8 L16,8 C17.104,8 18,8.896 18,10 L18,14.2857864 L16,12.2857864 L16,12 L16,11 L14.7142136,11 L11.7142136,8 Z M10.0857864,12 L9.08578644,11 L8,11 L8,12 L10.0857864,12 Z M11,7 L11,4 L8,4 L8,2 L16,2 L16,4 L13,4 L13,7 L11,7 Z"/></svg>