<!--category:travel-->
<!--character:E174-->
<svg width="24" height="24" viewBox="0 0 24 24" xmlns="http://www.w3.org/2000/svg"><path d="M6.1667 16.6667V9.0833c0-1.0833.9166-2 2.0833-2.0833h.8333c.25 0 .4167-.1667.4167-.4167V4.1667c0-.25-.1667-.4167-.5-.5-.5 0-.75-.4167-.75-.8334C8.25 2.4167 8.5 2 9.0833 2h5.8334c.5833 0 .8333.3333.8333.8333s-.25.9167-.8333.9167c-.25 0-.4167.1667-.4167.4167v2.5c0 .25.1667.4166.4167.4166h.8333L20.5833 2.25c.3334-.3333.8334-.3333 1.1667 0 .3333.3333.3333.8333 0 1.1667L3.4167 21.75c-.25.3333-.8334.3333-1.1667 0-.3333-.3333-.3333-.8333 0-1.1667l3.9167-3.9166zm4.5017-4.5018l.2399-.2398A.6871.6871 0 0 0 11 11.5833V10.75c0-.25.1667-.4167.4167-.4167H12.5L13.8333 9h-4.75c-.4166 0-.6666.25-.6666.6667 0 .4166.3333.6666.6666.6666h.25c.1667 0 .3334.1667.3334.4167v.8333c0 .4167.25.6667.6666.6667.1284 0 .2409-.0316.3351-.0851zm.4983-8.0816v2.5c0 .25.1666.4167.4166.4167h.8334c.25 0 .4166-.1667.4166-.4167v-2.5c0-.25-.1666-.4166-.4166-.4166h-.8334c-.25 0-.4166.1666-.4166.4166zM6.5833 20.25L17.8333 9v10.0833c0 .9167-.6666 1.8334-1.6666 2-.0834 0-.3334.1667-.3334.25 0 .5-.3333.6667-.8333.6667s-.8333-.1667-.8333-.6667c0-.0833-.0834-.1666-.1667-.1666H9.8333c-.0833 0-.1666.0833-.1666.1666 0 .5-.3334.6667-.8334.6667S8 21.8333 8 21.3333c0-.0833-.0833-.25-.1667-.25-.5-.1666-.9166-.4166-1.25-.8333z"/></svg>