<!--category:money-->
<!--character:E108-->
<svg width="24" height="24" viewBox="0 0 24 24" xmlns="http://www.w3.org/2000/svg"><path d="M19.5473 2.2098L16.0974 4.261c-.2797.1865-.746.1865-1.0256-.0933l-2.704-1.958c-.373-.2797-.746-.2797-1.1189 0l-2.6107 1.958c-.2797.1865-.6527.2798-1.0256.0933L4.2559 2.2098c-.373-.1865-.7459 0-.7459.373v18.8344c0 .373.373.5595.746.373l3.4498-2.0513c.2797-.1865.746-.1865 1.0256.0933l2.704 1.958c.373.2797.746.2797 1.1189 0l2.704-1.958c.2797-.1865.7459-.2798 1.0256-.0933l3.4499 2.0513c.2797.1865.7459 0 .7459-.373V2.5828c-.1865-.373-.5594-.5595-.9324-.373zM7.2396 7.338h3.7296c.5594 0 .9324.373.9324.9324s-.373.9324-.9324.9324H7.2396c-.5594 0-.9324-.373-.9324-.9324s.373-.9324.9324-.9324zm0 3.7296h1.8648c.5594 0 .9324.373.9324.9324s-.373.9324-.9324.9324H7.2396c-.5594 0-.9324-.373-.9324-.9324s.373-.9324.9324-.9324zm5.5944 5.5944H7.2396c-.5594 0-.9324-.373-.9324-.9324s.373-.9324.9324-.9324h5.5944c.5594 0 .9324.373.9324.9324s-.373.9324-.9324.9324zm3.7296 0h-.9324c-.5594 0-.9324-.373-.9324-.9324s.373-.9324.9324-.9324h.9324c.5595 0 .9324.373.9324.9324s-.373.9324-.9324.9324zm0-3.7296h-.9324c-.5594 0-.9324-.373-.9324-.9324s.373-.9324.9324-.9324h.9324c.5595 0 .9324.373.9324.9324s-.373.9324-.9324.9324zm0-3.7296h-.9324c-.5594 0-.9324-.373-.9324-.9324s.373-.9324.9324-.9324h.9324c.5595 0 .9324.373.9324.9324s-.373.9324-.9324.9324z"/></svg>