<svg width="24" height="24" viewBox="0 0 24 24" version="1.1" xmlns="http://www.w3.org/2000/svg"><path id="boarding-gate-a" d="M19,7 L20,7 C21.104,7 22,7.896 22,9 L22,18 C22,19.104 21.104,20 20,20 L4,20 C2.895,20 2,19.104 2,18 L2,9 C2,7.896 2.895,7 4,7 L5,7 L5,5 L2,5 L2,3 L22,3 L22,5 L19,5 L19,7 Z M17,7 L17,5 L7,5 L7,7 L17,7 Z M15,13.414 L15,17 L17,17 L17,13.414 L18.293,14.707 L19.707,13.293 L16,9.586 L12.293,13.293 L13.707,14.707 L15,13.414 Z M10.25,11.75 L10.25,10 L6.75,10 C5.785,10 5,10.786 5,11.75 L5,15.25 C5,16.215 5.785,17 6.75,17 L8.5,17 C9.465,17 10.25,16.215 10.25,15.25 L10.25,12.625 L7.625,12.625 L7.625,14.375 L8.5,14.375 L8.5,15.25 L6.75,15.25 L6.75,11.75 L10.25,11.75 Z"/></svg>