<svg width="24" height="24" viewBox="0 0 24 24" version="1.1" xmlns="http://www.w3.org/2000/svg"><path id="boat-a" d="M20.00233,21 C18.61233,21 17.22233,20.53 16.00233,19.68 C13.56233,21.39 10.44233,21.39 8.00232999,19.68 C6.78232999,20.53 5.39232999,21 4.00232999,21 L2.00232999,21 L2.00232999,23 L4.00232999,23 C5.38232999,23 6.74232999,22.65 8.00232999,22.01 C10.52233,23.3 13.48233,23.3 16.00233,22.01 C17.26233,22.66 18.62233,23 20.00233,23 L22.00233,23 L22.00233,21 L20.00233,21 Z M3.95232999,19 L4.00232999,19 C5.60232999,19 7.02232999,18.12 8.00232999,17 C8.98232999,18.12 10.40233,19 12.00233,19 C13.60233,19 15.02233,18.12 16.00233,17 C16.98233,18.12 18.40233,19 20.00233,19 L20.05233,19 L21.94233,12.32 C22.02233,12.06 22.00233,11.78 21.88233,11.54 C21.76233,11.3 21.54233,11.12 21.28233,11.04 L20.00233,10.62 L20.00233,6 C20.00233,4.9 19.10233,4 18.00233,4 L15.00233,4 L15.00233,1 L9.00232999,1 L9.00232999,4 L6.00232999,4 C4.90232999,4 4.00232999,4.9 4.00232999,6 L4.00232999,10.62 L2.71232999,11.04 C2.45232999,11.12 2.23232999,11.3 2.11232999,11.54 C1.99232999,11.78 1.96232999,12.06 2.05232999,12.32 L3.95232999,19 Z M6.00232999,6 L18.00233,6 L18.00233,9.97 L12.00233,8 L6.00232999,9.97 L6.00232999,6 Z"/></svg>