<!--category:transportation-->
<!--character:E139-->
<!--added:0.14-->
<svg width="24" height="24" viewBox="0 0 24 24" xmlns="http://www.w3.org/2000/svg"><path d="M6.8569 9.238a.2059.2059 0 0 1-.0759-.1617V7.8437c.0019-1.265 1.0269-2.29 2.2919-2.2918h1.4609a.2083.2083 0 0 0 .2083-.2084V2.4267a.4167.4167 0 0 1 .4167-.4167h2.5002a.4167.4167 0 0 1 .4167.4167v2.9168c0 .1151.0933.2084.2083.2084h1.4584c1.2652.0014 2.2905 1.0266 2.2919 2.2918v1.2334a.2075.2075 0 0 1-.25.205l-5.0645-.9659c-.2062-.04-.4181-.04-.6243 0l-5.067.966a.2067.2067 0 0 1-.1716-.0442zm6.2595.505a.2092.2092 0 0 1 .1717-.0467l7.1063 1.3584a.4167.4167 0 0 1 .3259.511l-1.451 5.7878a.21.21 0 0 1-.2817.1425 2.0901 2.0901 0 0 0-.7925-.1567 2.0135 2.0135 0 0 0-1.7826 1.005 1.5584 1.5584 0 0 1-1.235.7084 1.0734 1.0734 0 0 1-.881-.5258 2.071 2.071 0 0 0-1.1226-1.0376.2092.2092 0 0 1-.1333-.1942V9.9038a.21.21 0 0 1 .0758-.1608zm-7.6021 7.4796L4.095 11.5631a.4167.4167 0 0 1 .3259-.5109l7.1263-1.3592a.2125.2125 0 0 1 .1717.0442.2092.2092 0 0 1 .075.1608v7.3988a.2075.2075 0 0 1-.1334.1942 2.0535 2.0535 0 0 0-.9325.7084 2.346 2.346 0 0 1-1.5835.8508 1.7684 1.7684 0 0 1-1.245-.7317 2.0835 2.0835 0 0 0-1.7718-.9817 1.8835 1.8835 0 0 0-.37.0392.2075.2075 0 0 1-.2434-.1534zm16.4785 3.7536a.8334.8334 0 0 1-.715.9342 3.797 3.797 0 0 1-3.0769-1.05.2083.2083 0 0 0-.2775 0 4.1911 4.1911 0 0 1-2.8168 1.0834 3.7252 3.7252 0 0 1-2.6585-1.0834.2083.2083 0 0 0-.2759-.0134 4.742 4.742 0 0 1-2.9643 1.101 4.242 4.242 0 0 1-2.861-1.1493.21.21 0 0 0-.2734-.005 4.667 4.667 0 0 1-2.901 1.1859c-.151 0-.302-.0097-.4517-.0292a.8334.8334 0 0 1 .2167-1.6526c1.39.1792 2.6543-1.355 2.6668-1.3709a.8684.8684 0 0 1 1.365.075 2.8868 2.8868 0 0 0 2.2386 1.2826 3.5002 3.5002 0 0 0 2.5201-1.3334.8692.8692 0 0 1 1.431.13 2.2718 2.2718 0 0 0 1.9476 1.2 2.7227 2.7227 0 0 0 2.2284-1.2575.8692.8692 0 0 1 1.4326-.0242c.0067.0108.9393 1.4426 2.2885 1.261a.8334.8334 0 0 1 .9367.7158z"/></svg>