<!--description:Used just for developer purposes-->
<!--category:basic-->
<!--character:004e-->
<!--added:0.11-->
<svg width="24" height="24" viewBox="0 0 24 24" xmlns="http://www.w3.org/2000/svg"><path d="M20.416667 8.834072c.417485-.169614.894176.023374 1.076083.435651.181907.412277.003125.894476-.403583 1.088516l-1.23.5475c-.188523.08374-.287393.29282-.2325.491667a7.610843 7.610843 0 0 1 .195.908333c.031527.2051.20917.355742.416666.353333h.928334c.460237 0 .833333.373096.833333.833334 0 .460237-.373096.833333-.833333.833333h-.928334c-.205333.000014-.380045.149616-.411666.3525a7.88167 7.88167 0 0 1-.278334 1.175c-.062123.196916.029344.409629.215.5l1.215.5925c.350044.16953.536267.558654.44871.937605-.087558.378952-.42561.646942-.814543.645728a.820833.820833 0 0 1-.365-.083333l-1.2175-.594167c-.18495-.090043-.407933-.031643-.525.1375-1.256105 1.81951-3.215863 3.030838-5.405 3.340834-.120208.017002-.241853-.01927-.33312-.099328-.091266-.080058-.143077-.19594-.1419-.31734V10.369907c0-.230119.186568-.416667.416687-.416667h4.7825a.425.425 0 0 0 .166666-.035833zM3.485155 8.797567l.098178.036505 2.428334 1.083334a.424999.424999 0 0 0 .109624.03142l.057042.004413h4.78c.20455 0 .37469.147396.409973.34177l.006714.074897v10.5425c.001177.121398-.050634.23728-.1419.317339-.091267.080058-.212912.11633-.33312.099327-2.189137-.309995-4.148895-1.521323-5.405-3.340833-.100343-.14498-.278503-.208598-.443827-.167112L4.97 17.85074l-1.2175.594167a.820832.820832 0 0 1-.365.083333c-.388934.001214-.726985-.266776-.814542-.645728-.078802-.341057.064158-.690353.34872-.880389l.099989-.057216 1.215-.5925c.185656-.090371.277123-.303084.215-.5a7.894998 7.894998 0 0 1-.278334-1.174167c-.027303-.17754-.164196-.314532-.33552-.346333l-.075313-.007h-.929167C2.373096 14.324906 2 13.95181 2 13.491572c0-.424834.317904-.775418.728802-.82684l.104531-.006493H3.7575c.207496.002409.38514-.148233.416667-.353333a7.610833 7.610833 0 0 1 .195-.908334c.04803-.17399-.021663-.355816-.166132-.454653l-.066368-.037013-1.23-.5475c-.420657-.186857-.61019-.679344-.423334-1.1.172483-.388299.605385-.579664 1.001822-.45984zm4.883178-4.832661c.178907.737533.575535 1.404195 1.138334 1.913333.054481.048439.130186.065157.2.044167 1.496086-.455577 3.093913-.455577 4.59 0 .069554.020845.144944.004127.199166-.044167.562464-.507775.933361-1.215795 1.136667-1.91.203306-.694205.357671-1.366444 1.106852-1.303135.749182.06331.749182.831894.559815 1.469802-.189368.637908-.559184 1.685193-1.119167 2.374166a.209166.209166 0 0 0 .049167.3075 7.97 7.97 0 0 1 1.778333 1.5425c.052385.061992.06418.148692.030259.222425-.02544.0553-.073151.095817-.129656.112854l-.058936.008888-11.698334-.003333c-.08116-.000555-.154671-.04801-.188592-.121743-.03392-.073733-.022126-.160432.030259-.222424a7.949166 7.949166 0 0 1 1.779167-1.541667.208333.208333 0 0 0 .05-.3075c-.560233-.689237-.93845-1.614702-1.12-2.375-.18155-.760298-.05899-1.403158.574103-1.466468.633093-.06331.849786.467576 1.092563 1.299802z"/></svg>
