<!--description:Used just for developer purposes-->
<!--category:basic-->
<!--character:004e-->
<!--added:0.11-->
<svg width="24" height="24" viewBox="0 0 24 24" xmlns="http://www.w3.org/2000/svg"><path d="M17.8492 7.2432L6.1508 7.24a.2092.2092 0 0 1-.1583-.3442 7.9492 7.9492 0 0 1 1.7792-1.5416.2083.2083 0 0 0 .05-.3075c-.5603-.6893-.9385-1.6147-1.12-2.375-.1816-.7603-.059-1.4032.574-1.4665.6332-.0633.8499.4676 1.0926 1.2998a3.7825 3.7825 0 0 0 1.1384 1.9133.21.21 0 0 0 .2.0442 7.8783 7.8783 0 0 1 4.59 0 .2092.2092 0 0 0 .1991-.0442c.5625-.5077.9334-1.2158 1.1367-1.91.2033-.6942.3577-1.3664 1.1069-1.3031.7491.0633.7491.8319.5598 1.4698-.1894.638-.5592 1.6852-1.1192 2.3742a.2092.2092 0 0 0 .0492.3075 7.97 7.97 0 0 1 1.7783 1.5425.2092.2092 0 0 1-.1583.3441zM11.375 8.91v10.5425a.4168.4168 0 0 1-.475.4167 7.9167 7.9167 0 0 1-5.405-3.3409.4167.4167 0 0 0-.525-.1375l-1.2175.5942a.8208.8208 0 0 1-.365.0833.8333.8333 0 0 1-.3658-1.5833l1.215-.5925a.4167.4167 0 0 0 .215-.5 7.895 7.895 0 0 1-.2784-1.1742.4167.4167 0 0 0-.4108-.3533h-.9292a.8333.8333 0 1 1 0-1.6667h.9242a.4167.4167 0 0 0 .4167-.3533 7.6108 7.6108 0 0 1 .195-.9083.4167.4167 0 0 0-.2325-.4917l-1.23-.5475a.8334.8334 0 1 1 .6766-1.5233l2.4284 1.0833a.425.425 0 0 0 .1666.0358h4.78a.4167.4167 0 0 1 .4167.4167zm1.25 10.5433V8.91a.4167.4167 0 0 1 .4167-.4167h4.7825a.425.425 0 0 0 .1666-.0358l2.4259-1.0833a.8333.8333 0 0 1 .6725 1.5241l-1.23.5475a.4167.4167 0 0 0-.2325.4917c.0834.2985.1485.6019.195.9083a.4167.4167 0 0 0 .4166.3534h.9284a.8333.8333 0 1 1 0 1.6666h-.9284a.4167.4167 0 0 0-.4116.3525 7.8817 7.8817 0 0 1-.2784 1.175.4167.4167 0 0 0 .215.5l1.215.5925a.8333.8333 0 0 1-.3658 1.5834.8208.8208 0 0 1-.365-.0834l-1.2175-.5941a.4167.4167 0 0 0-.525.1375 7.9167 7.9167 0 0 1-5.405 3.3408.4167.4167 0 0 1-.475-.4167z"/></svg>