<!--category:transportation-->
<!--character:<-->
<svg xmlns="http://www.w3.org/2000/svg" width="24" height="24" viewBox="0 0 24 24"><path id="bus-a" d="M18,2 L6,2 C4.896,2 4,2.895 4,4 L4,20 C4,21.104 4.896,22 6,22 C7.104,22 8,21.104 8,20 L16,20 C16,21.104 16.896,22 18,22 C19.104,22 20,21.104 20,20 L20,4 C20,2.895 19.104,2 18,2 Z M6,6 L18,6 L18,13 L6,13 L6,6 Z M7.5,18 C6.672,18 6,17.328 6,16.5 C6,15.672 6.672,15 7.5,15 C8.328,15 9,15.672 9,16.5 C9,17.328 8.328,18 7.5,18 Z M15,16.5 C15,15.672 15.672,15 16.5,15 C17.328,15 18,15.672 18,16.5 C18,17.328 17.328,18 16.5,18 C15.672,18 15,17.328 15,16.5 Z M21,7 L23,7 L23,11 L21,11 L21,7 Z M1,7 L3,7 L3,11 L1,11 L1,7 Z"/></svg>
