<!--category:time-->
<!--character:0066-->
<svg width="24" height="24" viewBox="0 0 24 24" xmlns="http://www.w3.org/2000/svg"><path d="M19.9167 4.5c.9166 0 1.6666.75 1.6666 1.6667v14.1666c0 .9167-.75 1.6667-1.6666 1.6667H4.0833c-.9166 0-1.6666-.75-1.6666-1.6667V6.1667c0-.9167.75-1.6667 1.6666-1.6667h1.25c.25 0 .4167.1667.3334.4167v1.9166c0 .4167.3333.6667.6666.6667C6.75 7.5 7 7.1667 7 6.8333v-4c0-.5.3333-.8333.8333-.8333s.8334.3333.8334.8333v1.5c0 .0834.0833.1667.1666.1667h5.25c.25 0 .4167.1667.3334.4167v1.9166c0 .4167.3333.6667.6666.6667.4167 0 .6667-.3333.6667-.6667v-4c0-.5.3333-.8333.8333-.8333s.8334.3333.8334.8333v1.5c0 .0834.0833.1667.1666.1667h2.3334zM19.5 20.3333c.25 0 .4167-.1666.4167-.4166v-10c0-.25-.1667-.4167-.4167-.4167h-15c-.25 0-.4167.1667-.4167.4167v10c0 .25.1667.4166.4167.4166h15zM8.25 10.75c.5 0 .8333.3333.8333.8333s-.3333.8334-.8333.8334h-.8333c-.5 0-.8334-.3334-.8334-.8334s.3334-.8333.8334-.8333H8.25z"/></svg>