<svg width="24" height="24" viewBox="0 0 24 24" version="1.1" xmlns="http://www.w3.org/2000/svg"><path id="camera-a" d="M20,6.001 C21.104,6.001 22,6.897 22,8 L22,19 C22,20.104 21.104,21 20,21 L4,21 C2.895,21 2,20.104 2,19 L2,8 C2,6.896 2.895,6 4,6 L5.93,6 C6.598,6 7.223,5.667 7.594,5.11 L8.406,3.89 C8.777,3.335 9.402,3 10.07,3 L13.93,3 C14.598,3 15.223,3.335 15.594,3.891 L16.406,5.111 C16.777,5.667 17.402,6.001 18.07,6.001 L20,6.001 Z M12,9 C14.206,9 16,10.795 16,13 C16,15.207 14.206,17 12,17 C9.794,17 8,15.207 8,13 C8,10.794 9.794,9 12,9 Z M12,19 C15.309,19 18,16.31 18,13 C18,9.692 15.309,7 12,7 C8.691,7 6,9.692 6,13 C6,16.309 8.691,19 12,19 Z"/></svg>