<!--category:services-->
<!--character:E030-->
<!--added:0.11-->
<svg width="24" height="24" viewBox="0 0 24 24" xmlns="http://www.w3.org/2000/svg"><path d="M17.121 15.4414c-.699 0-1.266.565-1.266 1.266 0 .699.567 1.264 1.266 1.264.699 0 1.266-.565 1.266-1.264 0-.701-.567-1.266-1.266-1.266zm-9.083-1.437h8.412c.083 0 .166-.084.166-.084v-.166l-.333-1.166c0-.333-.333-.583-.666-.583H8.871c-.334 0-.583.25-.667.666l-.333 1.166c0 .083.083.167.167.167zm-.576 3.967c.699 0 1.266-.565 1.266-1.264 0-.701-.567-1.266-1.266-1.266-.699 0-1.266.565-1.266 1.266 0 .336.134.657.371.893.237.237.56.371.895.371zm11.569-5.133c.5-.25 1.166-.084 1.416.416s.084 1.166-.416 1.416l-.583.334c-.083.083-.083.083-.083.166 0 .084.083.167.083.167.583.583.916 1.333.749 2.166v.583c0 .749-.416 1.415-1.082 1.665 0 0-.084.084-.084.167v.5c0 .005-.002.012-.002.019v.738c0 .456-.375.828-.834.828h-1.496c-.46 0-.835-.372-.835-.828v-1.18c-.005-.081-.083-.16-.164-.16H8.704c-.082 0-.161.079-.165.161v1.179c0 .456-.375.828-.834.828H6.208c-.46 0-.835-.372-.835-.828v-.754c0-.001-.001-.002-.001-.003v-.5c0-.083 0-.167-.083-.167-.666-.333-1.083-.916-1.083-1.665v-.583c0-.833.333-1.583.916-2.166.084-.083.084-.083.084-.167 0-.083 0-.166-.084-.166l-.583-.334c-.499-.25-.666-.916-.416-1.416.25-.5.916-.666 1.416-.416l.749.416h.084c.083 0 .166-.083.166-.167l.25-.832c.167-1 1.083-1.749 2.083-1.749H15.7c.999 0 1.916.749 2.082 1.749l.25.832v.084c.083.083.167.166.25.083l.749-.416zM7.038 4.0938c-.916 0-1.666.749-1.666 1.665 0 .917.75 1.666 1.666 1.666.916 0 1.666-.749 1.666-1.666 0-.916-.75-1.665-1.666-1.665zm1.416 5.163c-1.999.75-4.165-.249-4.914-2.165-.75-1.916.25-4.081 2.165-4.831 1.916-.749 4.082.167 4.831 2.083.084.083.167.166.25.166h8.828c.667 0 1.083.583 1.083 1.249 0 .667-.583 1.25-1.249 1.25h-.167c-.083 0-.166.083-.166.166v.167c0 .666-.583 1.249-1.25 1.249-.666 0-1.249-.583-1.249-1.249v-.167c0-.083-.083-.166-.166-.166h-.833c-.084 0-.167.083-.25.166v.167c0 .666-.583 1.249-1.249 1.249-.667 0-1.25-.583-1.25-1.249v-.167c0-.083-.083-.166-.166-.166h-1.916c-.083 0-.166.083-.25.166-.333.916-1.166 1.666-2.082 2.082z"/></svg>