<svg width="24" height="24" viewBox="0 0 24 24" version="1.1" xmlns="http://www.w3.org/2000/svg"><path id="chart-a" d="M6.4,9.2 L6.6,9.2 C7.37,9.2 8,9.83 8,10.6 L8,17.6 C8,18.37 7.37,19 6.6,19 L6.4,19 C5.63,19 5,18.37 5,17.6 L5,10.6 C5,9.83 5.63,9.2 6.4,9.2 Z M12,5 C12.77,5 13.4,5.63 13.4,6.4 L13.4,17.6 C13.4,18.37 12.77,19 12,19 C11.23,19 10.6,18.37 10.6,17.6 L10.6,6.4 C10.6,5.63 11.23,5 12,5 Z M17.6,13 C18.37,13 19,13.63 19,14.4 L19,17.6 C19,18.37 18.37,19 17.6,19 C16.83,19 16.2,18.37 16.2,17.6 L16.2,14.4 C16.2,13.63 16.83,13 17.6,13 Z"/></svg>