<!--description:Use when confirming user's action.-->
<!--category:basic-->
<!--character:0053-->
<svg width="24" height="24" viewBox="0 0 24 24" xmlns="http://www.w3.org/2000/svg"><path d="M10.506142 16.990688c-.299999 0-.549997-.1-.749996-.299998l-2.499985-2.699984c-.349998-.399997-.349998-1.049993.05-1.399991.399997-.349998 1.049994-.349998 1.399991.05l1.64999 1.799988 4.799971-5.949958c.349998-.499997.949995-.649996 1.399992-.299998.449997.299998.599996.899995.249999 1.349992l-5.499967 6.999952c-.15.249998-.449998.399997-.749996.449997h-.05zM1.9996 12c0 5.5 4.5 10 10 10s10-4.5 10-10-4.5-10-10-10-10 4.5-10 10z"/></svg>
