<!--category:navigation-->
<!--character:006d-->
<svg width="24" height="24" viewBox="0 0 24 24" xmlns="http://www.w3.org/2000/svg"><path d="M15.895482 15.48l-3.53259-3.961511c-.183786-.2061-.499851-.22419-.705952-.040405a.49998.49998 0 0 0-.040405.040405L8.083945 15.48c-.42062.48-1.201775.54-1.682485.12-.48071-.42-.540798-1.2-.120177-1.68l4.8071-5.4c.240354-.24.540798-.42.90133-.42.360533 0 .660977.12.901332.42l4.8071 5.4c.42062.48.42062 1.26-.120178 1.68-.240355.18-.48071.3-.781154.3-.360532 0-.660976-.12-.901331-.42z"/></svg>
