<!--category:navigation-->
<!--character:E01F-->
<svg width="24" height="24" viewBox="0 0 24 24" xmlns="http://www.w3.org/2000/svg"><path d="M8.40141 17.57933c-.42-.480767-.42-1.262013.12-1.682683l3.961582-3.53307c.20609-.183797.224161-.499864.040364-.705954a.499997.499997 0 0 0-.040364-.040363L8.52141 8.08419c-.54-.42067-.54-1.201916-.12-1.682682.42-.480767 1.2-.540863 1.68-.120192l5.4 4.807665c.24.240384.42.540863.42.901438 0 .360574-.12.661054-.42.901437l-5.4 4.807665c-.24.180287-.48.300479-.78.300479-.36 0-.66-.120192-.9-.42067z"/></svg>
