<!--category:navigation-->
<!--character:0021-->
<svg width="24" height="24" viewBox="0 0 24 24" xmlns="http://www.w3.org/2000/svg"><path d="M13.919316 17.700035L8.519951 12.9006C8.279979 12.660627 8.1 12.360663 8.1 12.000705s.119986-.659923.41995-.899894l5.399366-4.799436c.479944-.419951 1.259852-.419951 1.679803.119985.41995.479944.41995 1.259852-.119986 1.679803l-3.960103 3.52612c-.206236.183634-.224558.499686-.040923.705921a.500012.500012 0 0 0 .040923.040923l3.960103 3.52612c.479944.41995.539937 1.199859.119986 1.679802-.239972.299965-.539937.419951-.899894.419951-.299965 0-.539937-.119986-.779909-.299965z"/></svg>
