<!--category:navigation-->
<!--character:E09D-->
<svg width="24" height="24" viewBox="0 0 24 24" xmlns="http://www.w3.org/2000/svg"><path d="M11.108905 15.48141l-4.8071-5.4c-.42062-.48-.42062-1.26.120178-1.68.48071-.42 1.261864-.42 1.682485.12l3.53259 3.961511c.183786.2061.499851.22419.705952.040405a.499995.499995 0 0 0 .040405-.040405l3.53259-3.961511c.420621-.48 1.201775-.54 1.682485-.12.48071.42.540798 1.2.120177 1.68l-4.8071 5.4c-.240354.3-.540798.42-.90133.42-.360533 0-.660977-.12-.901332-.42z"/></svg>
