<!--category:travel-->
<!--character:E05D-->
<svg width="24" height="24" viewBox="0 0 24 24" xmlns="http://www.w3.org/2000/svg"><path d="M2.6252 10.1263a.625.625 0 0 1-.625-.625c.2142-4.107 3.5377-7.3661 7.6482-7.5a1.0533 1.0533 0 0 1 .7759.285c.2078.197.3256.4705.3258.7567v6.4583a.625.625 0 0 1-.625.625h-7.5zm3.9583 11.875c-.8055 0-1.4584-.653-1.4584-1.4584 0-.8054.653-1.4583 1.4584-1.4583.8054 0 1.4583.6529 1.4583 1.4583 0 .8054-.653 1.4583-1.4583 1.4583zm7.009-3.4592a.2083.2083 0 0 1 .145.3575 2.295 2.295 0 0 0-.6066 1.0083.4167.4167 0 0 1-.4.3008H9.1851a.4167.4167 0 0 1-.4-.3008 2.3033 2.3033 0 0 0-.6067-1.0083.2083.2083 0 0 1 .145-.3575h5.2692zm7.5742-14.1666v-.005a.8333.8333 0 1 1 0 1.6667h-.9717a.8333.8333 0 0 0-.8116.6425l-2.7442 11.6665a.2042.2042 0 0 1-.1133.1409.2075.2075 0 0 1-.1817 0 2.275 2.275 0 0 0-1.0108-.2359.3033.3033 0 0 1-.2958-.3741l.135-.5742a.4167.4167 0 0 0-.405-.5116H5.125a.6242.6242 0 0 1-.5483-.3259l-2.5-4.5833a.6242.6242 0 0 1 .5484-.9241H16.335a.4167.4167 0 0 0 .4059-.3217l1.02-4.3333c.2632-1.1311 1.2728-1.9305 2.4341-1.9275h.9717zm-5.8333 17.6257c-.8054 0-1.4583-.6529-1.4583-1.4583 0-.8054.6529-1.4583 1.4583-1.4583.8054 0 1.4583.6529 1.4583 1.4583 0 .8054-.653 1.4583-1.4583 1.4583z"/></svg>