<!--description:Use when you need to select child as passenger-->
<!--category:travel-->
<!--character:E050-->
<svg width="24" height="24" viewBox="0 0 24 24" xmlns="http://www.w3.org/2000/svg"><path d="M8.5625 10.8529c.6325 0 1.1458.5131 1.1458 1.1454s-.5133 1.1455-1.1458 1.1455-1.1459-.5132-1.1459-1.1455.5134-1.1454 1.1459-1.1454zm6.875 0c.6325 0 1.1458.5131 1.1458 1.1454s-.5133 1.1455-1.1458 1.1455-1.1459-.5132-1.1459-1.1455.5134-1.1454 1.1459-1.1454zm4.3541 4.3528c.759-.0055 1.3705-.625 1.365-1.3847-.0055-.7587-.6243-1.37-1.3842-1.3645h-.0046c-.4996-.0064-.8992-.417-.8928-.9163v-1.3746c-.0028-2.4614-1.321-4.7331-3.4586-5.9546a.2385.2385 0 0 0-.142-.0257.231.231 0 0 0-.1953.2603c.0916.471.087.9567-.0129 1.4268-.3327 1.4176-1.584 2.4302-3.0396 2.4604a3.0934 3.0934 0 0 1-2.509-1.5184c-.2209-.4554-.0311-1.0034.4245-1.2252.4555-.22 1.0046-.0302 1.2255.4252.3658.4793 1.0368.6002 1.5474.2804a.2347.2347 0 0 0 .0238-.0183c.6774-.5214.8048-1.4919.2833-2.169a1.8142 1.8142 0 0 0-1.1532-.7983c-.0064-.0027-.0128-.0055-.0193-.0091-3.7354.0815-6.7219 3.1303-6.7246 6.8655V11.552c.0036.4994-.3979.9072-.8974.9118-.76-.0055-1.3796.6057-1.3842 1.3644-.0055.7597.605 1.3792 1.365 1.3847h.3427c.4025 0 .7581.262.8764.647 1.3585 4.4114 6.764 6.6235 11.4583 3.1156a4.734 4.734 0 0 0 1.661-3.024c.0816-.4325.461-.746.901-.746h.3438zm.9167-4.6076a.2228.2228 0 0 0 .1522.209 3.2082 3.2082 0 0 1 2.1092 2.585c.2411 1.7558-.9854 3.3742-2.7408 3.616a.2149.2149 0 0 0-.1723.132 8.708 8.708 0 0 1-4.7511 4.7496c-4.4495 1.8245-9.5361-.3015-11.3621-4.7496a.2149.2149 0 0 0-.1723-.132 3.2081 3.2081 0 0 1-2.553-2.016c-.6407-1.6513.1779-3.5097 1.8297-4.1511a.4799.4799 0 0 0 .2438-.3932v-.2822c0-.1925.0065-.3858.0193-.5783.3245-4.8018 4.4825-8.4315 9.2858-8.1071 4.6384.4187 8.1721 4.3372 8.1116 8.9924v.1255zm-7.021 4.9217a.8969.8969 0 0 1 .078-.0678.9156.9156 0 0 1 1.287.1567c.3126.3977.242.974-.1568 1.2857-1.6729 1.4103-4.1185 1.4103-5.7915 0a.9159.9159 0 0 1-.0779-1.2179c.3117-.3986.8874-.4683 1.2861-.1567a2.7656 2.7656 0 0 0 3.3752 0z" fill="currentColor"/></svg>
