<!--description:Use when you need to select child as passenger-->
<!--category:travel-->
<!--character:E050-->
<svg width="24" height="24" viewBox="0 0 24 24" version="1.1" xmlns="http://www.w3.org/2000/svg"><path d="M22.94,12.66 C22.98,12.45 23,12.23 23,12 C23,11.77 22.98,11.55 22.94,11.34 C22.69,9.83 21.58,8.6 20.13,8.17 C19.6,7.05 18.85,6.07 17.94,5.26 C16.36,3.85 14.28,3 12,3 C9.72,3 7.64,3.85 6.06,5.26 C5.14,6.07 4.39,7.06 3.87,8.17 C2.42,8.6 1.31,9.82 1.06,11.34 C1.02,11.55 1,11.77 1,12 C1,12.23 1.02,12.45 1.06,12.66 C1.31,14.17 2.42,15.4 3.87,15.83 C4.39,16.94 5.14,17.92 6.04,18.72 C7.62,20.14 9.71,21 12,21 C14.29,21 16.38,20.14 17.97,18.72 C18.87,17.92 19.62,16.93 20.14,15.83 C21.58,15.4 22.69,14.18 22.94,12.66 L22.94,12.66 Z M19,14 C18.9,14 18.81,13.98 18.71,13.97 C18.51,14.64 18.22,15.26 17.85,15.83 C16.6,17.74 14.45,19 12,19 C9.55,19 7.4,17.74 6.15,15.83 C5.78,15.26 5.49,14.64 5.29,13.97 C5.19,13.98 5.1,14 5,14 C3.9,14 3,13.1 3,12 C3,10.9 3.9,10 5,10 C5.1,10 5.19,10.02 5.29,10.03 C5.49,9.36 5.78,8.74 6.15,8.17 C7.4,6.26 9.55,5 12,5 C14.45,5 16.6,6.26 17.85,8.17 C18.22,8.74 18.51,9.36 18.71,10.03 C18.81,10.02 18.9,10 19,10 C20.1,10 21,10.9 21,12 C21,13.1 20.1,14 19,14 L19,14 Z M7.5,14 L16.5,14 C15.74,15.77 14.01,17 12,17 C9.99,17 8.26,15.77 7.5,14 Z M9.5,11.75 C8.80964406,11.75 8.25,11.1903559 8.25,10.5 C8.25,9.80964406 8.80964406,9.25 9.5,9.25 C10.1903559,9.25 10.75,9.80964406 10.75,10.5 C10.75,11.1903559 10.1903559,11.75 9.5,11.75 Z M14.5,11.75 C13.8096441,11.75 13.25,11.1903559 13.25,10.5 C13.25,9.80964406 13.8096441,9.25 14.5,9.25 C15.1903559,9.25 15.75,9.80964406 15.75,10.5 C15.75,11.1903559 15.1903559,11.75 14.5,11.75 Z" id="path-1"></path></svg>