<!--description:Use when you need to select child as passenger-->
<!--category:travel-->
<!--character:E050-->
<svg width="24" height="24" viewBox="0 0 24 24" xmlns="http://www.w3.org/2000/svg"><path d="M8.875 10.949c.575 0 1.0417.4665 1.0417 1.0413 0 .5748-.4667 1.0414-1.0417 1.0414-.575 0-1.0417-.4666-1.0417-1.0414 0-.5748.4667-1.0413 1.0417-1.0413zm6.25 0c.575 0 1.0417.4665 1.0417 1.0413 0 .5748-.4667 1.0414-1.0417 1.0414-.575 0-1.0417-.4666-1.0417-1.0414 0-.5748.4667-1.0413 1.0417-1.0413zm3.9583 3.957c.69-.005 1.2459-.568 1.2409-1.2587-.005-.6898-.5675-1.2454-1.2584-1.2404h-.0041c-.4542-.0059-.8175-.379-.8117-.8331v-1.2496a6.2412 6.2412 0 0 0-3.1442-5.4133.2168.2168 0 0 0-.1291-.0233.21.21 0 0 0-.1775.2365 3.2529 3.2529 0 0 1-.0117 1.2971c-.3025 1.2888-1.44 2.2093-2.7633 2.2368a2.8122 2.8122 0 0 1-2.2809-1.3804.8338.8338 0 0 1 .3859-1.1138c.4141-.2.9133-.0275 1.1141.3866.3325.4357.9425.5456 1.4067.2549a.2133.2133 0 0 0 .0217-.0167c.6158-.474.7316-1.3562.2575-1.9719a1.6492 1.6492 0 0 0-1.0484-.7256.1666.1666 0 0 1-.0175-.0083c-3.3958.0741-6.1108 2.8458-6.1133 6.2414v1.2604a.823.823 0 0 1-.8159.829c-.6908-.005-1.2541.5506-1.2583 1.2404-.005.6906.55 1.2537 1.2408 1.2587h.3117a.833.833 0 0 1 .7967.5882c1.235 4.0104 6.1492 6.0214 10.4167 2.8324a4.3036 4.3036 0 0 0 1.51-2.7491.834.834 0 0 1 .8191-.6781h.3125zm.8334-4.1886a.2025.2025 0 0 0 .1383.19 2.9166 2.9166 0 0 1 1.9175 2.35c.2192 1.5962-.8958 3.0674-2.4917 3.2873a.1953.1953 0 0 0-.1566.12 7.9164 7.9164 0 0 1-4.3192 4.3178c-4.045 1.6586-8.6692-.274-10.3292-4.3178a.1953.1953 0 0 0-.1567-.12 2.9165 2.9165 0 0 1-2.3208-1.8327c-.5825-1.5012.1617-3.1907 1.6633-3.7738a.4362.4362 0 0 0 .2217-.3574v-.2566c0-.175.0058-.3507.0175-.5257.295-4.3653 4.075-7.665 8.4417-7.3702 4.2167.3807 7.4292 3.943 7.3742 8.175v.114zm-6.3827 4.4743a.8153.8153 0 0 1 .0708-.0617.8324.8324 0 0 1 1.17.1425c.2842.3615.22.8855-.1425 1.1688-1.5208 1.282-3.7441 1.282-5.265 0a.8326.8326 0 0 1-.0708-1.1072c.2833-.3624.8067-.4257 1.1692-.1424a2.5142 2.5142 0 0 0 3.0683 0z"/></svg>