<svg width="24" height="24" viewBox="0 0 24 24" version="1.1" xmlns="http://www.w3.org/2000/svg"><path id="city-a" d="M22.447,8.724 C22.786,8.893 23,9.239 23,9.619 L23,22 C23,22.553 22.552,23 22,23 L20,23 L20,13 L17,11.2 L17,7.619 C17,7.272 17.18,6.95 17.474,6.768 C17.769,6.585 18.137,6.569 18.447,6.724 L22.447,8.724 Z M6.585,5.576 C6.846,5.764 7,6.066 7,6.387 L7,22 C7,22.553 6.552,23 6,23 L2,23 C1.448,23 1,22.553 1,22 L1,7.721 C1,7.291 1.275,6.908 1.684,6.772 L5.684,5.438 C5.989,5.338 6.324,5.388 6.585,5.576 Z M5,20 L5,18 L3,18 L3,20 L5,20 Z M5,16 L5,14 L3,14 L3,16 L5,16 Z M5,12 L5,10 L3,10 L3,12 L5,12 Z M17.447,13.724 C17.786,13.893 18,14.239 18,14.619 L18,23 L15,23 L15,21.5 C15,20.672 14.328,20 13.5,20 C12.672,20 12,20.672 12,21.5 L12,23 L10,23 C9.448,23 9,22.553 9,22 L9,13 L13,13 L13,11 L9,11 L9,9 L13,9 L13,7 L9,7 L9,5 L13,5 L13,3 L9,3 L9,1.387 C9,1.066 9.154,0.764 9.415,0.577 C9.676,0.389 10.011,0.338 10.316,0.439 L14.316,1.773 C14.725,1.909 15,2.291 15,2.721 L15,12.623 C15.401,12.623 17.044,13.522 17.447,13.724 Z M16,17 L16,15 L11,15 L11,17 L16,17 Z"/></svg>