<!--category:time-->
<!--character:0065-->
<svg width="24" height="24" viewBox="0 0 24 24" xmlns="http://www.w3.org/2000/svg"><path d="M12 2c5.5202.0064 9.9936 4.4798 10 10 0 5.5228-4.4772 10-10 10S2 17.5228 2 12 6.4772 2 12 2zm0 18.3333c4.6003-.005 8.3283-3.733 8.3333-8.3333 0-4.6024-3.731-8.3333-8.3333-8.3333-4.6024 0-8.3333 3.731-8.3333 8.3333 0 4.6024 3.731 8.3333 8.3333 8.3333zm4.2783-5.1583a.8333.8333 0 0 1 .0517 1.1767.8417.8417 0 0 1-1.1775.0508L11.02 12.615a.8333.8333 0 0 1-.27-.615V7.4167a.8333.8333 0 0 1 1.6667 0v4.2175l3.8616 3.5408z"/></svg>