<!--category:time-->
<!--character:e-->
<svg xmlns="http://www.w3.org/2000/svg" width="24" height="24" viewBox="0 0 24 24"><path id="clock-a" d="M12,22 C6.48666667,22 2,17.5144444 2,12 C2,6.48555556 6.48666667,2 12,2 C17.5133333,2 22,6.48555556 22,12 C22,17.5144444 17.5133333,22 12,22 Z M12,4.22222222 C7.71111111,4.22222222 4.22222222,7.71111111 4.22222222,12 C4.22222222,16.2888889 7.71111111,19.7777778 12,19.7777778 C16.2888889,19.7777778 19.7777778,16.2888889 19.7777778,12 C19.7777778,7.71111111 16.2888889,4.22222222 12,4.22222222 Z M14.5490784,16.1209915 L11.2140434,12.7859566 C11.0050479,12.576961 10.8883217,12.2945948 10.8883217,12 L10.8883217,6.44160839 L13.1116783,6.44160839 L13.1116783,11.5397652 L16.1209915,14.5490784 L14.5490784,16.1209915 Z"/></svg>
