<!--category:basic-->
<!--character:0074-->
<svg width="24" height="24" viewBox="0 0 24 24" xmlns="http://www.w3.org/2000/svg"><path d="M16.5996 14.4004c.601.6.601 1.5 0 2.1-.3.299-.699.4-1.1.4-.4 0-.799-.101-1.099-.4l-2.401-2.401-2.4 2.401c-.3.4-.7.5-1.1.5-.4 0-.799-.1-1.1-.401-.6-.599-.6-1.5 0-2.099l2.5-2.5-2.5-2.4c-.5-.6-.5-1.6 0-2.2.6-.5 1.6-.5 2.2 0l2.4 2.5 2.401-2.4c.599-.6 1.5-.6 2.099 0 .6.6.6 1.5 0 2.1l-2.4 2.4 2.5 2.4zm-4.6-12.4c-5.5 0-10 4.5-10 10s4.5 10 10 10 10-4.5 10-10-4.5-10-10-10z"/></svg>