<!--category:basic-->
<!--character:0058-->
<svg width="24" height="24" viewBox="0 0 24 24" xmlns="http://www.w3.org/2000/svg"><path d="M17.656854 6.343146c.50823.50823.50823 1.332233 0 1.840463l-3.816391 3.815867 3.816391 3.816915c.476466.476466.506245 1.230467.089337 1.741624l-.089337.09884c-.50823.50823-1.332233.50823-1.840463 0L12 13.839938l-3.816391 3.816915c-.476466.476466-1.230466.506245-1.741624.089337l-.09884-.089337c-.50823-.50823-.50823-1.332233 0-1.840463l3.816392-3.816915L6.343146 8.18361c-.476466-.476466-.506245-1.230466-.089338-1.741624l.089338-.09884c.50823-.50823 1.332233-.50823 1.840463 0L12 10.159014l3.816391-3.815867c.476466-.476466 1.230467-.506245 1.741624-.089338l.09884.089338z"/></svg>
