<!--category:basic-->
<!--character:0058-->
<svg width="24" height="24" viewBox="0 0 24 24" xmlns="http://www.w3.org/2000/svg"><path d="M17.6555 6.3331a.9.9 0 0 1 .001 1.2728l-4.1032 4.1085a.4.4 0 0 0 0 .5653l4.1031 4.1088a.9002.9002 0 0 1 .0797 1.1807l-.0806.092a.9.9 0 0 1-1.2728-.0009l-4.1006-4.1068a.4.4 0 0 0-.5662 0l-4.099 4.1068a.9.9 0 1 1-1.2738-1.2718l4.1027-4.1089a.4.4 0 0 0 0-.5652L6.343 7.6059a.9002.9002 0 0 1-.0796-1.1807l.0806-.092a.9.9 0 0 1 1.2728.0009l4.099 4.1055a.4.4 0 0 0 .5662 0l4.1006-4.1055a.9.9 0 0 1 1.2728-.001z"/></svg>
