<!--category:basic-->
<!--character:0074-->
<svg width="24" height="24" viewBox="0 0 24 24" xmlns="http://www.w3.org/2000/svg"><path d="M7.567161 7.604375c.505686-.50967 1.328794-.5129 1.838464-.007214L12.004 10.175l2.598612-2.577839c.50967-.505685 1.332777-.502455 1.838463.007214.505686.50967.502456 1.332778-.007214 1.838464L13.849 12.006l2.58486 2.564455c.475693.471973.51022 1.220457.101567 1.732537l-.094352.105926c-.505686.50967-1.328794.5129-1.838463.007215L12.004 13.837l-2.598375 2.579133c-.50967.505685-1.332778.502455-1.838464-.007215-.505685-.50967-.502455-1.332778.007214-1.838463L10.158 12.006 7.574375 9.442839c-.475691-.471973-.510218-1.220457-.101566-1.732537l.094352-.105927zM11.9996 2.0004c-5.5 0-10 4.5-10 10s4.5 10 10 10 10-4.5 10-10-4.5-10-10-10z"/></svg>
