<!--category:basic-->
<!--character:0058-->
<svg width="24" height="24" viewBox="0 0 24 24" xmlns="http://www.w3.org/2000/svg"><path d="M14.7195 12l3.7196 3.7195c.7479.748.7479 1.9717 0 2.7196-.7479.7479-1.9717.7479-2.7196 0L12 14.7195l-3.7195 3.7196c-.748.7479-1.9717.7479-2.7196 0-.7479-.7479-.7479-1.9717 0-2.7196L9.2805 12 5.5609 8.2805c-.7479-.748-.7479-1.9717 0-2.7196.7479-.7479 1.9717-.7479 2.7196 0L12 9.2805l3.7195-3.7196c.748-.7479 1.9717-.7479 2.7196 0 .7479.7479.7479 1.9717 0 2.7196L14.7195 12z"/></svg>
