<svg width="24" height="24" viewBox="0 0 24 24" version="1.1" xmlns="http://www.w3.org/2000/svg"><path id="coctail-a" d="M18,2 C20.205,2 22,3.794 22,6 C22,7.858 20.721,9.41 19,9.858 L19,6 L14,6 C14,3.794 15.795,2 18,2 Z M17,7 C17.404,7 17.77,7.244 17.924,7.617 C18.078,7.991 17.993,8.42 17.707,8.706 L11,15.414 L11,20 L14,20 L14,22 L6,22 L6,20 L9,20 L9,15.414 L2.293,8.707 C2.007,8.421 1.922,7.991 2.076,7.617 C2.23,7.244 2.596,7 3,7 L17,7 Z M5.586,6 L4.586,5 L2,5 L2,3 L5,3 C5.266,3 5.519,3.106 5.707,3.293 L8.414,6 L5.586,6 Z"/></svg>