<!--category:services-->
<!--character:E038-->
<!--added:0.11-->
<svg width="24" height="24" viewBox="0 0 24 24" xmlns="http://www.w3.org/2000/svg"><path d="M5.3842 4.15l-.4259-.4833h-2.125a.8333.8333 0 0 1 0-1.6667h2.3084a1.25 1.25 0 0 1 .9416.425l1.0284 1.1758a.4167.4167 0 0 1-.3134.6909H5.6967a.4167.4167 0 0 1-.3125-.1417zM22 5.75c-.0032 2.0697-1.6803 3.7468-3.75 3.75a.2176.2176 0 0 1-.1667-.3608l1.0584-1.1975c.139-.156.2568-.3297.35-.5167a2.0833 2.0833 0 1 0-2.6234-3.2358.4167.4167 0 0 1-.2741.1025H15.495a.4167.4167 0 0 1-.3433-.6525c.9266-1.3591 2.6309-1.9556 4.2029-1.4711C20.9266 2.6526 21.9993 4.105 22 5.75zm-6.2142 15.4167a.8333.8333 0 0 1-.8333.8333h-7.5a.8333.8333 0 0 1 0-1.6667h2.4633a.4167.4167 0 0 0 .4167-.4166v-5.5992a.4167.4167 0 0 0-.1042-.275L4.1175 7.1067a.9867.9867 0 0 1-.1792-1A.8333.8333 0 0 1 4.705 5.54h12.9233a.8333.8333 0 0 1 .7667.5667.9867.9867 0 0 1-.1792 1l-6.1116 6.9358a.4167.4167 0 0 0-.1042.275v5.5992c0 .23.1865.4166.4167.4166h2.5358a.8333.8333 0 0 1 .8333.8334zm-9.4-14.0475a.1792.1792 0 0 0 .0384.185l1.7641 1.8575c.0787.083.1881.13.3025.13h5.3517a.4167.4167 0 0 0 .3025-.13l1.7642-1.8575a.1792.1792 0 0 0 .0383-.185.1533.1533 0 0 0-.1425-.1075H6.5283a.1533.1533 0 0 0-.1425.1075z"/></svg>
