<!--description:Basically for code.kiwi.com in menu-->
<!--category:basic-->
<!--character:E141-->
<!--added:0.19-->
<svg width="24" height="24" viewBox="0 0 24 24" xmlns="http://www.w3.org/2000/svg"><path d="M21.6245 12.9066l-4.1025 4.1025c-.503.486-1.3026.4793-1.7972-.0151-.4947-.4944-.5019-1.294-.0161-1.7972l2.8297-2.8338a.5128.5128 0 0 0 0-.725L15.7087 8.804a1.282 1.282 0 1 1 1.8133-1.8123l4.1025 4.1025a1.281 1.281 0 0 1 0 1.8123zM8.2913 6.9918a1.281 1.281 0 0 1 0 1.8123l-2.8338 2.8338a.5128.5128 0 0 0 0 .7251l2.8338 2.8338a1.282 1.282 0 1 1-1.8133 1.8123l-4.1025-4.1025a1.281 1.281 0 0 1 0-1.8123L6.478 6.9918a1.281 1.281 0 0 1 1.8133 0zm2.4051 10.8758a1.284 1.284 0 0 1-.9784-1.5303l2.0512-9.2306c.1538-.6928.84-1.1297 1.5328-.9759.6928.1538 1.1297.84.976 1.5328l-2.0513 9.2306a1.284 1.284 0 0 1-1.2513 1.0031 1.2966 1.2966 0 0 1-.279-.0297z"/></svg>