<!--character:E199-->
<svg width="24" height="24" viewBox="0 0 24 24" xmlns="http://www.w3.org/2000/svg">
  <path d="M18.2504 2c-.9598 0-1.9194.3666-2.6515 1.0987l-2.7442 2.7442-.2653-.2653a.8338.8338 0 00-.5974-.2523.8336.8336 0 00-.581 1.4307l.2441.2442-6.911 6.911c-.9807.9807-1.2615 2.0541-1.4698 2.8875-.2083.8333-.3443 1.4266-1.0303 2.1127a.8334.8334 0 000 1.1784l1.6667 1.6667a.8336.8336 0 001.1784 0c.686-.686 1.2794-.822 2.1127-1.0303.8334-.2083 1.9068-.4891 2.8875-1.4698l6.911-6.911.2442.2441a.8327.8327 0 00.9162.1944.8325.8325 0 00.4566-.4565.8347.8347 0 00-.0066-.6457.8333.8333 0 00-.1878-.2706l-.2653-.2653 2.7442-2.7442c1.4643-1.4642 1.4643-3.8387 0-5.303C20.1697 2.3667 19.2102 2 18.2504 2zm-5.4169 6.1786l2.9884 2.9884-6.911 6.911c-.686.6861-1.2794.822-2.1127 1.0303-.6388.1597-1.4167.4641-2.1876.9913l-.7097-.7097c.5272-.7709.8316-1.5488.9913-2.1876.2083-.8333.3442-1.4266 1.0303-2.1127l6.911-6.911z"/>
</svg>
