<!--character:E07E-->
<svg height="48" viewBox="0 0 48 48" width="48" xmlns="http://www.w3.org/2000/svg"><path d="m24 27.0476c1.6832 0 3.0476-1.3644 3.0476-3.0476s-1.3644-3.0476-3.0476-3.0476-3.0476 1.3644-3.0476 3.0476 1.3644 3.0476 3.0476 3.0476z"/><path  d="m24 44c11.0457 0 20-8.9543 20-20s-8.9543-20-20-20-20 8.9543-20 20 8.9543 20 20 20zm4.6997-14.0963c1.5492-1.1144 2.5442-2.8497 2.7285-4.7576l.9361-9.6879c.2741-2.8366-2.8958-4.6791-5.1987-3.0215l-7.8653 5.6593c-1.5494 1.1153-2.5441 2.8505-2.7286 4.7585l-.936 9.6878c-.2741 2.8357 2.8958 4.6783 5.1986 3.0215z" fill-rule="evenodd"/></svg>
