<!--character:E07E-->
<svg width="24" height="24" xmlns="http://www.w3.org/2000/svg">
  <path d="M12 13.5238c.8416 0 1.5238-.6822 1.5238-1.5238S12.8416 10.4762 12 10.4762s-1.5238.6822-1.5238 1.5238.6822 1.5238 1.5238 1.5238z"/>
  <path fill-rule="evenodd" clip-rule="evenodd" d="M12 22c5.5229 0 10-4.4771 10-10S17.5229 2 12 2 2 6.4771 2 12s4.4771 10 10 10zm2.3498-7.0482c.7746-.5572 1.2721-1.4248 1.3643-2.3788l.468-4.8439c.1371-1.4183-1.4479-2.3396-2.5993-1.5107L9.6501 9.048c-.7746.5577-1.272 1.4252-1.3643 2.3792l-.468 4.844c-.137 1.4178 1.448 2.3391 2.5993 1.5107l3.9327-2.8301z"/>
</svg>
