<!--category:money-->
<!--character:0075-->
<svg width="24" height="24" viewBox="0 0 24 24" version="1.1" xmlns="http://www.w3.org/2000/svg"><path id="credit-card-a" d="M2,18.001 L2,10.001 L22,10.001 L22,18.001 C22,19.104 21.103,20.001 20,20.001 L4,20.001 C2.897,20.001 2,19.104 2,18.001 Z M20,4.0012 C21.103,4.0012 22,4.8982 22,6.0012 L22,8.0012 L2,8.0012 L2,6.0012 C2,4.8982 2.897,4.0012 4,4.0012 L20,4.0012 Z M5,15.001 L5,17.001 L10,17.001 L10,15.001 L5,15.001 Z M5,12.001 L5,14.001 L12,14.001 L12,12.001 L5,12.001 Z M15,12.001 L15,14.001 L19,14.001 L19,12.001 L15,12.001 Z"/></svg>
