<!--character:E194-->
<svg width="24" height="24" viewBox="0 0 24 24" xmlns="http://www.w3.org/2000/svg"><path d="M21.81401 13.916323c.000454-1.622624-.982155-3.068903-2.451358-3.608092v-.647738C19.362652 5.42972 16.07012 2 12.008578 2S4.654504 5.42972 4.654504 9.660493v.647738C3.183731 10.84833 2.2 12.29611 2.2 13.920579s.983731 3.072249 2.454504 3.612348c.37593.138453.79302.077767 1.118141-.162688.325122-.240454.517637-.630621.516098-1.045967V9.660493c0-2.128646 1.090194-4.095596 2.859917-5.159919 1.769723-1.064323 3.950112-1.064323 5.719835 0 1.769724 1.064323 2.859918 3.031273 2.859918 5.15992v6.663778c.003548.358097.151885.698037.40856.936282v.483462c0 1.254619-1.054901 1.702332-2.042799 1.702332h-1.452838c-.369833-.66726-1.123802-.992576-1.838264-.79316-.714462.199416-1.211267.873841-1.211267 1.644326s.496805 1.44491 1.211267 1.644327c.714462.199416 1.468431-.125901 1.838264-.79316h1.452838c2.16455 0 3.677037-1.400169 3.677037-3.404665v-.406857c1.24812-.645036 2.03904-1.969498 2.042799-3.420836z"/></svg>
