<!--category:services-->
<!--character:E142-->
<!--added:0.19-->
<svg width="24" height="24" viewBox="0 0 24 24" xmlns="http://www.w3.org/2000/svg"><path d="M2.8757 11.4734l10.1215 9.9419.0146.0137c.6741.6546 1.749.6466 2.4131-.018l6.0714-6.0697A1.7188 1.7188 0 0 0 21.486 12.9L11.3988 2.9794c-.0154-.0163-.03-.0318-.0464-.0464a3.2235 3.2235 0 0 0-2.0547-.843h-5.579C2.7695 2.09 2 2.8595 2 3.8087l.006 5.5816a3.2518 3.2518 0 0 0 .8697 2.083zM5.867 7.2462c0-.712.5771-1.289 1.289-1.289.712 0 1.2891.577 1.2891 1.289 0 .7119-.5771 1.289-1.289 1.289-.712 0-1.289-.5771-1.289-1.289z"/></svg>