<!--character:E197-->
<svg width="24" height="22" xmlns="http://www.w3.org/2000/svg" viewBox="0 0 24 24"><path fill-rule="evenodd" d="M5.0195 1.1182A2.249 2.249 0 016.037.875h12a2.25 2.25 0 011.8.9l3.3351 4.4512A2.246 2.246 0 0123.62 7.665a2.2464 2.2464 0 01-.5189 1.35l-.001.0012-9.336 11.2976-.0031.0037a2.2503 2.2503 0 01-1.6523.8043.7526.7526 0 01-.1424.0001 2.2499 2.2499 0 01-1.6553-.8044l-.0032-.0037L.9718 9.0162l-.001-.0014a2.2455 2.2455 0 01-.515-1.2812.7563.7563 0 01-.0055-.1675 2.2458 2.2458 0 01.4496-1.34l3.337-4.4511a2.249 2.249 0 01.7826-.6568zm.0342 2.068L2.2882 6.875h4.093L5.0538 3.1862zM2.388 8.375l8.0308 9.7182L6.9211 8.375H2.388zm11.2688 9.7141l8.0274-9.7141h-4.5319l-3.4955 9.7141zM21.7839 6.875l-2.7643-3.6894L17.692 6.875h4.0919zm-4.0668-4.5H13.537l2.8248 3.7664 1.3553-3.7664zm-2.6801 4.5l-3-4-3 4h6zm-7.3253-.733L6.3559 2.375h4.1811L7.7117 6.142zm.8036 2.233h7.0428l-3.5211 9.7851L8.5153 8.375z"/></svg>
