<!--character:E197-->
<svg width="24" height="24" xmlns="http://www.w3.org/2000/svg" viewBox="0 0 24 24"><path fill-rule="evenodd" d="M5.01955 2.11819c.31123-.15779.65904-.24319 1.01744-.24319H18.037c.7082 0 1.3751.33344 1.8.9l3.3351 4.45118c.3131.41772.462.91575.4488 1.40948-.0001.00982-.0004.01958-.0009.0293-.0192.48195-.1928.95821-.5189 1.35004l-.001.0012-9.336 11.2976-.0031.0037c-.4119.4919-1.0134.7836-1.6523.8043-.0469.0045-.0946.0046-.1424.0001-.6401-.0198-1.2427-.3117-1.6553-.8044l-.0032-.0037L.971859 10.0162l-.001127-.0014C.66022 9.64167.487991 9.19191.455803 8.7336.45066 8.69814.447998 8.66188.447998 8.625c0-.01982.000769-.03945.002278-.05889.001948-.47076.151179-.94181.449583-1.33993L4.23699 2.775c.20263-.27017.46028-.48733.75119-.6406.01028-.00563.02074-.01104.03137-.01621zm.03416 2.06805L2.28817 7.875h4.09312L5.05371 4.18624zM2.3879 9.375l8.0308 9.7182L6.92113 9.375H2.3879zm11.2688 9.7141l8.0274-9.7141h-4.5319l-3.4955 9.7141zM21.7839 7.875l-2.7643-3.68936L17.692 7.875h4.0919zm-4.0668-4.5H13.537l2.8248 3.76645L17.7171 3.375zm-2.6801 4.5l-3-4-3.00003 4H15.037zm-7.32531-.73295L6.35593 3.375H10.537L7.71169 7.14205zM8.51532 9.375h7.04278l-3.5211 9.7851L8.51532 9.375z" clip-rule="evenodd"/></svg>
