<!--character:E197-->
<svg width="24" height="24" xmlns="http://www.w3.org/2000/svg" viewBox="0 0 24 24">
  <path d="M18.037,0.875 C18.7452,0.875 19.4121,1.20844 19.837,1.775 L19.837,1.775 L23.1721,6.22618 C23.4852,6.6439 23.6341,7.14193 23.6209,7.63566 L23.6209,7.63566 L23.62,7.66496 C23.6008,8.14691 23.4272,8.62317 23.1011,9.01495 L23.1011,9.01495 L23.1001,9.01618 L13.7641,20.3138 C13.3491,20.8094 12.7476,21.1011 12.1087,21.1218 C12.0618,21.1263 12.0141,21.1264 11.9663,21.1219 C11.3262,21.1021 10.7236,20.8102 10.311,20.3175 L10.311,20.3175 L10.3078,20.3138 L0.971859,9.01618 C0.66022,8.64167 0.487991,8.19191 0.455803,7.7336 C0.45066,7.69814 0.447998,7.66188 0.447998,7.625 C0.447998,7.60518 0.448767,7.58555 0.450276,7.56611 C0.452224,7.09535 0.601455,6.6243 0.899859,6.22618 L0.899859,6.22618 L4.23699,1.775 C4.43962,1.50483 4.69727,1.28767 4.98818,1.1344 C4.99846,1.12877 5.00892,1.12336 5.01955,1.11819 C5.33078,0.960396 5.67859,0.875 6.03699,0.875 L6.03699,0.875 Z M15.5581,8.375 L8.51532,8.375 L12.037,18.1601 L15.5581,8.375 Z M6.92111,8.375 L2.38788,8.375 L10.4187,18.0932 L6.92111,8.375 Z M21.6841,8.375 L17.1522,8.375 L13.6566,18.0891 L21.6841,8.375 Z M19.0196,3.18567 L17.692,6.87503 L21.7839,6.87503 L19.0196,3.18567 Z M12.0369,2.875 L9.03693,6.875 L15.0369,6.875 L12.0369,2.875 Z M5.05368,3.18624 L2.28815,6.875 L6.38126,6.875 L5.05368,3.18624 Z M10.5369,2.375 L6.3559,2.375 L7.71165,6.14205 L10.5369,2.375 Z M17.7171,2.375 L13.5369,2.375 L16.3618,6.14145 L17.7171,2.375 Z" />
</svg>
