<!--description:alias copy-->
<!--character:E154-->
<!--added:0.23-->
<svg width="24" height="24" viewBox="0 0 24 24" xmlns="http://www.w3.org/2000/svg"><path d="M20.25 17.333c0-.084.0834-.2508.0834-.3332V4.0832c0-.25-.1675-.4167-.4167-.4167H7.0003c-.25 0-.4167.1667-.4167.4167v12.9164c0 .2492.1667.4167.4167.4167h12.9164c.1667 0 .2492 0 .3333-.0833zM20.3334 2C21.2492 2 22 2.75 22 3.6666v13.7498c0 .9158-.7508 1.6666-1.6666 1.6666H6.5836c-.9167 0-1.6666-.7508-1.6666-1.6666V3.6666C4.917 2.75 5.667 2 6.5836 2h13.7498zm-2.0837 18.3327c.5 0 .8333.3333.8333.8333s-.3333.8333-.8333.8333H3.6667C2.75 21.9993 2 21.2493 2 20.3327V5.7496c0-.5.3333-.8333.8333-.8333s.8333.3333.8333.8333V19.916c0 .25.1667.4167.4167.4167h14.1664zM9.333 9.6664h3.1667c.0833 0 .1666-.0834.1666-.1667V6.3331c0-.5.3334-.8333.8333-.8333.5009 0 .8334.3333.8334.8333v3.1666c0 .0833.0841.1667.1666.1667h3.1666c.5009 0 .8334.3333.8334.8333s-.3325.8333-.8334.8333h-3.1666c-.0825 0-.1666.0833-.1666.1667v3.1666c0 .5-.3325.8333-.8334.8333-.5 0-.8333-.3333-.8333-.8333v-3.1666c0-.0834-.0833-.1667-.1666-.1667H9.333c-.5 0-.8333-.3333-.8333-.8333-.0833-.5.3334-.8333.8333-.8333z"/></svg>