<!--description:Use when you need to show that editing is not available anymore-->
<!--category:basic-->
<!--character:E00D-->
<svg width="24" height="24" viewBox="0 0 24 24" xmlns="http://www.w3.org/2000/svg"><path d="M13.551 14.7176l-3.7448 3.7447a.3772.3772 0 0 1-.5334 0L5.54 14.7294a.3772.3772 0 0 1 0-.5334l3.7442-3.7452L2.25 3.4167c-.3333-.3334-.3333-.8334 0-1.1667.3333-.3333.8333-.3333 1.1667 0L21.75 20.5833c.3333.3334.3333.8334 0 1.1667-.3333.3333-.9167.3333-1.1667 0l-7.0324-7.0324zm2.0099-2.01l-4.2671-4.267 2.486-2.4867a.3771.3771 0 0 1 .267-.1109.3772.3772 0 0 1 .2671.1117l3.7284 3.739a.3772.3772 0 0 1 0 .5326l-2.4814 2.4814zM4.7802 15.622l3.5956 3.6032a.3772.3772 0 0 1-.1788.6337l-4.7317 1.1316a.3825.3825 0 0 1-.3546-.0996.3772.3772 0 0 1-.1004-.3545l1.1362-4.7356a.3772.3772 0 0 1 .2648-.2746.3772.3772 0 0 1 .369.0958zM20.4497 5.1535c.7337.736.7337 1.927 0 2.6631l-1.0683 1.0705a.3772.3772 0 0 1-.5334 0l-3.7344-3.7336a.3772.3772 0 0 1 0-.5334l1.0698-1.069c.7362-.7348 1.9284-.7348 2.6646 0l1.6017 1.6024z"/></svg>