<!--category:basic-->
<!--character:0047-->
<svg width="24" height="24" viewBox="0 0 24 24" xmlns="http://www.w3.org/2000/svg"><path d="M11.2617 14.1267l-8.07-8.0717a.4206.4206 0 0 1-.1183-.235.4178.4178 0 0 1 .3525-.4725c.08-.0117.1608-.0175.2409-.0175h16.6666c.08 0 .1608.0058.2392.0175a.4256.4256 0 0 1 .2358.1183.417.417 0 0 1-.0008.5892l-8.0725 8.0717c-.4067.4058-1.0658.4058-1.4733 0zm10.4791-7.2373a.1498.1498 0 0 1 .1659-.0325.1508.1508 0 0 1 .0933.14v10c0 .92-.7458 1.6667-1.6667 1.6667H3.6667c-.92 0-1.6667-.7467-1.6667-1.6667v-10a.152.152 0 0 1 .0933-.1383.1497.1497 0 0 1 .1667.0325l5.1675 5.1667a.2097.2097 0 0 1 0 .295L4.225 15.5552a.6237.6237 0 0 0-.0008.8684c.24.2492.635.255.8833.0158L8.31 13.237a.2097.2097 0 0 1 .295 0l1.7758 1.7725c.895.8942 2.345.8942 3.2409 0l1.7741-1.775c.0809-.0808.2125-.08.2942.0008l3.2025 3.2026c.005.005.0108.01.0158.0158.2475.2391.6442.2316.8834-.0167a.625.625 0 0 0-.015-.8833l-3.2025-3.2025a.2082.2082 0 0 1 0-.295l5.1666-5.1667z"/></svg>