<svg width="24" height="24" viewBox="0 0 24 24" version="1.1" xmlns="http://www.w3.org/2000/svg"><path id="email-a" d="M12,11.823 L3.035,6.26 C3.322,6.1 3.648,6 4,6 L20,6 C20.352,6 20.677,6.1 20.965,6.26 L12,11.823 Z M12.527,13.849 L21.997,7.972 C21.997,7.981 22,7.99 22,7.999 L22,16.999 C22,18.101 21.103,18.999 20,18.999 L4,18.999 C2.897,18.999 2,18.101 2,16.999 L2,7.999 C2,7.991 2.003,7.982 2.003,7.973 L11.473,13.85 C11.634,13.949 11.817,14 12,14 C12.183,14 12.366,13.949 12.527,13.849 Z"/></svg>