<svg xmlns="http://www.w3.org/2000/svg" width="24" height="24" viewBox="0 0 24 24"><path id="exchange-a" d="M8.675,13.217 C10.294,15.486 12.936,16.975 15.931,16.997 C15.438,20.938 12.073,24 8,24 C3.589,24 0,20.411 0,16 C0,11.927 3.062,8.562 7.003,8.07 C7.012,9.268 7.254,10.411 7.689,11.454 C6.396,12.013 5.352,13.128 5.077,15 L4,15 L4,17 L5.077,17 C5.506,19.922 7.817,21 10,21 L10,19 C8.843,19 7.509,18.613 7.121,17 L10,17 L10,15 L7.121,15 C7.362,13.995 7.968,13.469 8.675,13.217 Z M16,16 C11.589,16 8,12.411 8,8 C8,3.589 11.589,0 16,0 C20.411,0 24,3.589 24,8 C24,12.411 20.411,16 16,16 Z M4,7 L0,3 L3,3 L3,1 C3,0.449 3.448,0 4,0 L9,0 L9,2 L5,2 L5,3 L8,3 L4,7 Z M20,17 L24,21 L21,21 L21,23 C21,23.552 20.552,24 20,24 L15,24 L15,22 L19,22 L19,21 L16,21 L20,17 Z M13,10 L13,12 L15,12 L15,13 L17,13 L17,11.949 C18.14,11.717 19,10.707 19,9.5 C19,8.122 17.878,7 16.5,7 L15.5,7 C15.224,7 15,6.776 15,6.5 C15,6.225 15.224,6 15.5,6 L19,6 L19,4 L17,4 L17,3 L15,3 L15,4.051 C13.86,4.283 13,5.293 13,6.5 C13,7.878 14.122,9 15.5,9 L16.5,9 C16.776,9 17,9.225 17,9.5 C17,9.776 16.776,10 16.5,10 L13,10 Z"/></svg>
