<!--category:social-->
<!--character:E140-->
<!--added:0.16-->
<svg width="24" height="24" viewBox="0 0 24 24" xmlns="http://www.w3.org/2000/svg"><path d="M20.6957 4.8C21.416 4.8 22 5.384 22 6.1043v11.7392c0 .7203-.584 1.3043-1.3043 1.3043h-8.56l-5.54 3.8357a.4348.4348 0 0 1-.6827-.3574v-3.4783H3.3043A1.2687 1.2687 0 0 1 2 17.8887V6.1043C2 5.384 2.584 4.8 3.3043 4.8h17.3914zm-9.4955 3v4c0 .5.3.8.8.8.4 0 .8-.3.8-.8v-4c0-.4-.3-.8-.8-.8-.4 0-.8.3-.8.8zM12 16.4501c.718 0 1.3-.582 1.3-1.3 0-.718-.582-1.3-1.3-1.3-.718 0-1.3.582-1.3 1.3 0 .718.582 1.3 1.3 1.3z"/></svg>