<!--description:Shows additional options of filtering results, e.g. in search-->
<!--category:basic-->
<!--character:0026-->
<svg width="24" height="24" viewBox="0 0 24 24" xmlns="http://www.w3.org/2000/svg"><path d="M7.8235 19h-4.647C2.527 19 2 18.552 2 18s.527-1 1.1765-1h4.647C8.4741 17 9 17.448 9 18s-.5259 1-1.1765 1zM13 19v.3235c0 .6494-.448 1.1765-1 1.1765s-1-.527-1-1.1765v-2.647c0-.6506.448-1.1765 1-1.1765s1 .5259 1 1.1765V17h7.8235C21.4741 17 22 17.448 22 18s-.5259 1-1.1765 1H13zm-.8235-6C11.5259 13 11 12.552 11 12s.5259-1 1.1765-1h8.647C21.473 11 22 11.448 22 12s-.527 1-1.1765 1h-8.647zM7 13H3.1765C2.5259 13 2 12.552 2 12s.5259-1 1.1765-1H7v-.3235C7 10.0259 7.448 9.5 8 9.5s1 .5259 1 1.1765v2.647C9 13.973 8.552 14.5 8 14.5s-1-.527-1-1.1765V13zm4.8235-6h-8.647C2.527 7 2 6.552 2 6s.527-1 1.1765-1h8.647C12.4741 5 13 5.448 13 6s-.5259 1-1.1765 1zM17 7v.3235C17 7.973 16.552 8.5 16 8.5s-1-.527-1-1.1765v-2.647c0-.6506.448-1.1765 1-1.1765s1 .5259 1 1.1765V5h3.8235C21.4741 5 22 5.448 22 6s-.5259 1-1.1765 1H17z"/></svg>