<!--category:travel-->
<!--character:E150-->
<!--added:0.21-->
<svg width="24" height="24" viewBox="0 0 24 24" xmlns="http://www.w3.org/2000/svg"><path d="M19.0616 3.7157l2.6547 2.6667c.3783.381.3783.9524 0 1.0476l-2.6547 2.6667c-.1896.1904-.3792.2857-.6636.2857-.5698 0-.9481-.381-.9481-.9524v-.9524c0-.0952-.0958-.1905-.1896-.1905h-.4698c-1.517 0-2.8443 2-4.3612 4.0953-2.0858 2.8571-4.3612 6.0952-8.1536 6.0952h-.8533c-.7585 0-1.4221-.6666-1.4221-1.4286 0-.7628.6636-1.4285 1.4221-1.4285h.9481c2.3702 0 3.982-2.381 5.7834-4.8572 1.8013-2.5714 3.6975-5.238 6.6366-5.238h.4698c.0938 0 .1896-.0953.1896-.1905v-.9524c0-.2857.0948-.4762.2844-.6667.3792-.381.948-.381 1.3273 0zm0 10.0953l2.6547 2.5714c.3783.38.3783 1.0476 0 1.238l-2.6547 2.6667c-.3792.381-.948.381-1.3273 0-.1896-.1914-.2844-.381-.2844-.6676v-.9524c0-.0942-.0958-.1895-.1896-.1895h-.4698c-1.517 0-2.939-.7628-4.3612-2.2857-.474-.5714-.474-1.4286.0948-2 .5679-.4762 1.4221-.4762 1.99.0952.8543.8572 1.6127 1.3334 2.2764 1.3334h.4698c.0938 0 .1896-.0953.1896-.1905v-.9524c0-.5724.3783-.9524.948-.9524.2845 0 .4741.0953.6637.2858zM7.5937 10.0012c-1.1377-1.1428-2.1806-1.619-3.3183-1.619h-.8533C2.6637 8.3822 2 7.7155 2 6.9536c0-.7619.6637-1.4286 1.4221-1.4286h.8533c1.8962 0 3.6976.8572 5.3093 2.5715.5689.5714.5689 1.4285 0 2-.2844.2857-.5688.381-.948.381-.3793 0-.7585-.1905-1.043-.4763z"/></svg>