<!--category:travel-->
<!--character:005d-->
<svg width="24" height="24" viewBox="0 0 24 24" xmlns="http://www.w3.org/2000/svg"><path d="M17.9494 8.6105l.0854.0721 2.7817 2.9217c.2192.2192.241.537.0658.7314l-.0658.06-2.7817 2.9223c-.1218.1211-.2435.182-.4261.182-.3287 0-.5588-.1972-.6015-.5029L17 14.8913V12.9h-3a.9002.9002 0 0 1-.893-.7871L13.1 12a.9.9 0 0 1 .9-.9l3-.001V9.1087c0-.1217.0609-.3044.1826-.426.2164-.2165.529-.2406.7668-.0722zm-10.1 0l.0854.0721 2.7817 2.9217c.2192.2192.241.537.0658.7314l-.0658.06-2.7817 2.9223c-.1218.1211-.2435.182-.4261.182-.3287 0-.5588-.1972-.6015-.5029L6.9 14.8913V12.899l-3 .001a.9002.9002 0 0 1-.893-.7871L3 12a.9002.9002 0 0 1 .7871-.893L3.9 11.1l3-.001V9.1087c0-.1217.0609-.3044.1826-.426.2164-.2165.529-.2406.7668-.0722z"/></svg>
