<!--category:travel-->
<!--character:0073-->
<svg width="24" height="24" viewBox="0 0 24 24" xmlns="http://www.w3.org/2000/svg"><path d="M21.7506 15.75c.3325.3333.3325.8333 0 1l-4 4c-.1667.1667-.3334.2509-.5834.2509-.5008 0-.8333-.3342-.8333-.8334v-2.5c0-.0842-.0842-.1667-.1667-.1667H7.4171c-.6667 0-1.25-.5842-1.25-1.25 0-.6667.5833-1.25 1.25-1.25h8.7501c.0825 0 .1667-.0842.1667-.1675v-2.5c0-.2492.0833-.4167.25-.5834.3333-.3333.8333-.3333 1.1667 0l4 4zM2.25 7.25c-.3333-.3333-.3333-.8333 0-1.1666l4-3.8334c.1667-.1667.3334-.25.5834-.25.5 0 .8333.3333.8333.8333v2.5c0 .0834.0834.1668.1667.1668h8.7501c.6667 0 1.25.5833 1.25 1.25 0 .6666-.5833 1.25-1.25 1.25h-8.75c-.0834 0-.1668.0833-.1668.1667v2.5c0 .25-.0833.4167-.25.5833-.3333.3334-.8333.3334-1.1666 0l-4.0001-4z"/></svg>