<svg xmlns="http://www.w3.org/2000/svg" width="24" height="24" viewBox="0 0 24 24"><path id="flight-multicity-a" d="M18,4 C20.209,4 22,5.791 22,8 C22,11 18,16 18,16 C18,16 17.534,15.415 16.923,14.533 C17.173,13.755 17.333,13.005 17.333,12.333 C17.333,10.118 15.982,8.22 14.059,7.414 C14.345,5.486 15.992,4 18,4 Z M9.941,7.414 C8.018,8.22 6.667,10.118 6.667,12.333 C6.667,13.005 6.826,13.755 7.077,14.533 C6.466,15.415 6,16 6,16 C6,16 2,11 2,8 C2,5.791 3.791,4 6,4 C8.008,4 9.655,5.486 9.941,7.414 Z M12,9 C14.209,9 16,10.791 16,13 C16,16 12,21 12,21 C12,21 8,16 8,13 C8,10.791 9.791,9 12,9 Z M4,8 C4,9.104 4.896,10 6,10 C7.104,10 8,9.104 8,8 C8,6.896 7.104,6 6,6 C4.896,6 4,6.896 4,8 Z M18,10 C19.104,10 20,9.104 20,8 C20,6.896 19.104,6 18,6 C16.896,6 16,6.896 16,8 C16,9.104 16.896,10 18,10 Z M12,15 C13.104,15 14,14.104 14,13 C14,11.896 13.104,11 12,11 C10.896,11 10,11.896 10,13 C10,14.104 10.896,15 12,15 Z"/></svg>
