<!--category:travel-->
<!--character:005d-->
<svg width="24" height="24" viewBox="0 0 24 24" xmlns="http://www.w3.org/2000/svg"><path d="M21.7506 11.4601c.3325.3334.3325.8334 0 1l-4.0001 4.0002c-.1667.1667-.3334.25-.5834.25-.5008 0-.8333-.3333-.8333-.8334v-2.5c0-.0834-.0842-.1659-.1667-.1659h-2.0834c-.6667 0-1.25-.5842-1.25-1.2509 0-.6666.5833-1.25 1.25-1.25h2.0834c.0825 0 .1667-.0833.1667-.1667v-2.5c0-.25.0833-.4167.25-.5834.3333-.3333.8333-.3333 1.1667 0l4.0001 4.0001zm-10.8337 0c.3334.3334.3334.8334 0 1.0834l-4 4.001c-.1668.1658-.3334.2491-.5834.2491-.5 0-.8334-.3333-.8334-.8333v-2.5001c0-.0833-.0833-.1667-.1667-.1667H3.25c-.6666 0-1.25-.5833-1.25-1.25s.5834-1.25 1.25-1.3334h2.0834c.0834 0 .1667-.0833.1667-.1667v-2.5c0-.1667.0833-.4167.25-.5834.3334-.3333.8334-.3333 1.1667 0l4.0001 4.0001z"/></svg>