<!--category:navigation-->
<!--character:E111-->
<!--added:0.11-->
<svg width="24" height="24" viewBox="0 0 24 24" xmlns="http://www.w3.org/2000/svg"><path d="M21.6883 2.3116c.4153.4153.4153 1.0885 0 1.5047L18.7845 6.72a.2132.2132 0 0 0 0 .3004l1.1302 1.1285a.851.851 0 0 1-.6034 1.4528H15.25a.8508.8508 0 0 1-.851-.851v-4.063a.8516.8516 0 0 1 .2484-.6018c.332-.3327.8715-.3327 1.2043 0l1.1234 1.1294a.2142.2142 0 0 0 .3013 0l2.9072-2.9038c.4162-.4153 1.0894-.4153 1.5047 0zM2.3116 21.6883c-.4153-.4153-.4153-1.0885 0-1.5047l2.9038-2.9038a.2132.2132 0 0 0 0-.3004l-1.1302-1.1277a.8557.8557 0 0 1-.2494-.6034.8508.8508 0 0 1 .8528-.8494h4.0621c.4698 0 .8511.3804.8511.851v4.064a.8524.8524 0 0 1-.2494.6016.8501.8501 0 0 1-1.2034 0l-1.1242-1.131a.2142.2142 0 0 0-.3013 0l-2.9072 2.9038c-.4162.4153-1.0894.4153-1.5047 0zm12.0869-2.377V15.25c0-.4707.3804-.851.851-.851h4.063a.85.85 0 0 1 .6018.2484c.3327.332.3327.8715 0 1.2043l-1.1303 1.1251a.2148.2148 0 0 0 0 .3004l2.9039 2.9064c.4161.4162.4161 1.0894 0 1.5047-.4153.4153-1.0885.4153-1.5039 0l-2.903-2.9038a.2152.2152 0 0 0-.302 0l-1.1277 1.1285a.8488.8488 0 0 1-.6017.2493.8503.8503 0 0 1-.8511-.851zM9.6017 4.6885v4.0622a.8514.8514 0 0 1-.851.851H4.6868a.8539.8539 0 0 1-.6017-.2493.8501.8501 0 0 1 0-1.2035l1.1302-1.1242a.2132.2132 0 0 0 0-.3004L2.3115 3.8162c-.4153-.4153-.4153-1.0894 0-1.5047s1.0894-.4153 1.5047 0l2.903 2.9038a.2142.2142 0 0 0 .3012 0L8.149 4.086a.8417.8417 0 0 1 .9269-.1839.8502.8502 0 0 1 .526.7864z"/></svg>