<!--description:Use when you need to display number of photos in gallery-->
<!--category:navigation-->
<!--character:E064-->
<!--added:0.11-->
<svg xmlns="http://www.w3.org/2000/svg" width="24" height="24" viewBox="0 0 24 24"><path id="gallery-a" d="M17,7 L17,6.999 L7,6.999 C5.896,6.999 5,7.895 5,8.999 L5,16 L3,16 C1.895,16 1,15.104 1,14 L1,6 C1,4.896 1.895,4 3,4 L15,4 C16.104,4 17,4.896 17,6 L17,7 Z M21,8.999 C22.104,8.999 23,9.895 23,10.999 L23,18.999 C23,20.103 22.104,20.999 21,20.999 L9,20.999 C7.896,20.999 7,20.103 7,18.999 L7,10.999 C7,9.895 7.896,8.999 9,8.999 L21,8.999 Z M9,18.999 L21,18.999 L17.023,12.618 L13.85,17.706 L11.828,14.462 L9,18.999 Z"/></svg>
