<!--category:basic-->
<!--character:E151-->
<!--added:0.21-->
<svg width="24" height="24" viewBox="0 0 24 24" xmlns="http://www.w3.org/2000/svg"><path d="M16.1192 12.4578c0 .5564-.451 1.0063-1.0073 1.0063s-1.0072-.4499-1.0072-1.0063c0-.5573.4509-1.0082 1.0072-1.0082.5564 0 1.0073.451 1.0073 1.0082zm-7.0546-1.0082c.5573 0 1.0082.451 1.0082 1.0082 0 .5564-.451 1.0063-1.0082 1.0063-.5574 0-1.0083-.4499-1.0083-1.0063 0-.5573.451-1.0082 1.0083-1.0082zm4.897 4.3206c.3086 0 .598.1839.7218.4829.0068.0184.0145.0348.0203.0532a.793.793 0 0 1-.5022 1.0034c-.6908.2303-1.3865.3473-2.086.3473h-.0552c-.6976 0-1.3933-.117-2.0861-.3473-.4151-.1394-.6396-.5883-.5003-1.0034a.588.588 0 0 1 .0194-.0532.781.781 0 0 1 .9627-.4441c.4567.148 1.0015.2206 1.6323.2206.6309 0 1.1747-.0726 1.6333-.2206a.7728.7728 0 0 1 .24-.0388zm-6.1713 2.5352c.117.117.2457.236.387.3619 2.2632 1.9535 5.2385 1.7813 7.3362.3628.1412-.0977.2796-.1954.4064-.297.03-.0242.059-.0503.088-.0755a5.9099 5.9099 0 0 0 .3967-.3532c.1539-.151.301-.3086.4364-.476.0058-.0078.0116-.0145.0174-.0223.4577-.5708.808-1.2288 1.0111-1.9516.0213-.0745.0426-.1606.0639-.2467.2583-1.0992.1925-2.2013.061-3.1504-.2797-2.0223-1.104-4.3203-1.2221-4.5148-.2158-.36-.4673-.598-.7499-.7228-.1074-.0348-.21-.0725-.3396-.0948-.2283.657-.8699 1.2182-1.9255 1.6817-.1654.0725-.3473.1238-.5205.1887-.0368.0145-.0736.0251-.1103.0396-1.3285.4712-2.8505.6909-4.448.5293-3.2724-.331-2.6599 5.013-2.239 6.3792.208.6744.4074 1.165.7286 1.6304.091.1268.1867.2545.296.3832.0833.0967.1762.1945.2739.2941.0174.0184.0348.0358.0523.0542zM21.0209 7.125c.2555.7206.5089 1.91.4072 3.3935-.1017 1.4834-.36 3.3946-.4072 4.5607-.1017 2.5156.7093 2.727.9274 4.1801.2182 1.4532-.2181 2.4375-2.0055 2.4375-1.7873 0-2.5813-1.2482-3.2634-1.4882-2.0996 1.5936-4.9453 2.0871-7.4987.9502-.656-.2932-1.2424-.6454-1.7649-1.0411-.748.3435-.8706.7448-2.2387 1.3499-1.368.6051-2.8372.0905-3.1443-1.4682-.3071-1.5588 1.6523-2.9653 1.3325-7.556-.3198-4.5906 1.022-6.5182 2.752-8.2085.0755-.0745.1751-.1297.2554-.2003a6.2655 6.2655 0 0 1 .3435-.268c.241-.178.4993-.3426.778-.4906.1625-.088.329-.1703.5002-.2467.1461-.0639.2893-.1297.4451-.1868.866-.33 1.8036-.5254 2.7247-.5825.0406-.0038.0755-.0135.117-.0174 2.2187-.1432 3.7862.3938 4.7035 1.6072.1451.1828.2748.3764.3715.5921.0813-.0329.1607-.0493.238-.059 1.944-.538 3.4224.3648 4.4267 2.7421z"/></svg>