<svg width="24" height="24" viewBox="0 0 24 24" version="1.1" xmlns="http://www.w3.org/2000/svg"><path id="google-a" d="M5,3 L19,3 C20.1045695,3 21,3.8954305 21,5 L21,19 C21,20.1045695 20.1045695,21 19,21 L5,21 C3.8954305,21 3,20.1045695 3,19 L3,5 C3,3.8954305 3.8954305,3 5,3 Z M11.9052778,11.5388889 L11.9052778,13.25 L14.7608333,13.25 C14.6163889,13.9611111 13.9052778,15.3944444 11.9052778,15.3944444 C10.1941667,15.3944444 8.83861111,13.9611111 8.83861111,12.25 C8.83861111,10.5388889 10.1941667,9.10555556 11.9052778,9.10555556 C12.9052778,9.10555556 13.5497222,9.53888889 13.9052778,9.89444444 L15.2608333,8.60555556 C14.4052778,7.75 13.2608333,7.25 11.9052778,7.25 C9.11638889,7.25 6.90527778,9.47222222 6.90527778,12.25 C6.90527778,15.0277778 9.11638889,17.25 11.9052778,17.25 C14.7608333,17.25 16.6941667,15.25 16.6941667,12.3944444 C16.6941667,12.0388889 16.6941667,11.8166667 16.6163889,11.5388889 L11.9052778,11.5388889 Z"/></svg>