<!--description:Use this icon only in pre-defined colors-->
<!--category:social-->
<!--character:E003-->
<!--iconFont:false-->
<svg width="24" height="24" viewBox="0 0 24 24" xmlns="http://www.w3.org/2000/svg"><path d="M21.4632 10.3915h-.7573v-.0386h-8.4706v3.7647h5.3198c-.7775 2.1912-2.862 3.7648-5.3198 3.7648-3.1195 0-5.647-2.5276-5.647-5.6471s2.5275-5.647 5.647-5.647c1.4393 0 2.75.5422 3.7463 1.43l2.6618-2.6617c-1.6802-1.5662-3.9283-2.533-6.4081-2.533-5.1985 0-9.4118 4.2132-9.4118 9.4117s4.2133 9.4118 9.4118 9.4118c5.1985 0 9.4118-4.2133 9.4118-9.4118a9.3889 9.3889 0 0 0-.1839-1.8438z" fill="#FFC107"/><path d="M3.908 7.8548l3.0938 2.2684c.8364-2.0717 2.8622-3.535 5.2335-3.535 1.4393 0 2.75.5423 3.7463 1.4302l2.6618-2.6618c-1.6802-1.5662-3.9283-2.533-6.4081-2.533-3.6158 0-6.75 2.0404-8.3272 5.0312z" fill="#FF3D00"/><path d="M12.2353 21.647c2.4301 0 4.6397-.93 6.3107-2.443l-2.9136-2.465c-.9449.715-2.1195 1.1434-3.3971 1.1434-2.4485 0-4.5257-1.5607-5.3088-3.739l-3.0699 2.364c1.557 3.0477 4.7206 5.1397 8.3787 5.1397z" fill="#4CAF50"/><path d="M21.4632 10.3915h-.7573v-.0386h-8.4706v3.7647h5.3198c-.3731 1.0534-1.0514 1.9596-1.9246 2.6214h.0019l2.9136 2.465c-.206.1857 3.101-2.2628 3.101-6.9687a9.3889 9.3889 0 0 0-.1838-1.8438z" fill="#1976D2"/></svg>
