<!--description:Use in map when you need to locate position of user-->
<!--category:transportation-->
<!--character:0022-->
<!--added:0.11-->
<svg width="24" height="24" viewBox="0 0 24 24" xmlns="http://www.w3.org/2000/svg"><path d="M12 15.3333c-1.841 0-3.3333-1.4924-3.3333-3.3333 0-1.841 1.4924-3.3333 3.3333-3.3333 1.841 0 3.3333 1.4924 3.3333 3.3333 0 1.841-1.4924 3.3333-3.3333 3.3333zm9.1667-4.1666a.8333.8333 0 1 1 0 1.6666h-1.3525a.4167.4167 0 0 0-.4109.3509c-.5165 3.1965-3.0226 5.7026-6.2191 6.2191a.4167.4167 0 0 0-.3509.4109v1.3525a.8333.8333 0 1 1-1.6666 0v-1.3525a.4167.4167 0 0 0-.3509-.4109c-3.1965-.5165-5.7026-3.0226-6.2191-6.2191a.4167.4167 0 0 0-.4109-.3509H2.8333a.8333.8333 0 1 1 0-1.6666h1.3525a.4167.4167 0 0 0 .4109-.3509c.5165-3.1965 3.0226-5.7026 6.2191-6.2191a.4167.4167 0 0 0 .3509-.4109V2.8333a.8333.8333 0 1 1 1.6666 0v1.3525a.4167.4167 0 0 0 .3509.4109c3.1965.5165 5.7026 3.0226 6.2191 6.2191a.4167.4167 0 0 0 .4109.3509h1.3525zM12 17.8333c3.2201-.0036 5.8297-2.6132 5.8333-5.8333 0-3.2217-2.6116-5.8333-5.8333-5.8333-3.2217 0-5.8333 2.6116-5.8333 5.8333 0 3.2217 2.6116 5.8333 5.8333 5.8333z"/></svg>
