<!--description:Use when GPS is not available-->
<!--category:transportation-->
<!--character:E01C-->
<!--added:0.11-->
<svg xmlns="http://www.w3.org/2000/svg" width="24" height="24" viewBox="0 0 24 24"><path id="gps-off-a" d="M5.116,16.055 C4.573,15.137 4.21,14.104 4.069,13 L2,13 L2,11 L4.069,11 C4.523,7.389 7.389,4.523 11,4.069 L11,2 L13,2 L13,4.069 C14.103,4.21 15.137,4.573 16.055,5.115 L14.58,6.591 C14.087,6.355 13.555,6.191 13,6.095 L13,7 L11,7 L11,6.09 C8.167,6.569 6,9.033 6,12 C6,12.924 6.216,13.797 6.592,14.579 L5.116,16.055 Z M18.884,7.944 C19.427,8.862 19.792,9.894 19.931,11 L22,11 L22,13 L19.931,13 C19.477,16.611 16.612,19.477 13,19.931 L13,22 L11,22 L11,19.93 C9.895,19.791 8.862,19.426 7.944,18.884 L4.621,22.206 L3.207,20.793 L21.178,2.822 L22.592,4.236 L18.884,7.944 Z M12,18 C15.309,18 18,15.309 18,12 C18,11.076 17.784,10.203 17.408,9.419 L15.849,10.978 C16.202,12.31 15.873,13.785 14.828,14.829 C13.783,15.873 12.309,16.203 10.977,15.851 L9.419,17.409 C10.203,17.784 11.075,18 12,18 Z"/></svg>
