<!--description:Use when GPS is not available-->
<!--category:transportation-->
<!--character:E01C-->
<!--added:0.11-->
<svg width="24" height="24" viewBox="0 0 24 24" xmlns="http://www.w3.org/2000/svg"><path d="M11.9975 21.997c-.464 0-.8409-.3779-.8409-.842v-1.1817a.619.619 0 0 0-.5021-.6044c-3.0449-.5612-5.4663-2.9828-6.0276-6.0278a.6138.6138 0 0 0-.6043-.5022H2.8419c-.464 0-.8419-.3778-.8419-.842 0-.463.3779-.8408.8419-.8408h1.1786a.6157.6157 0 0 0 .6054-.5022 7.1959 7.1959 0 0 1 .2736-1.0685c.1203-.3247.437-.5462.7888-.5462.0922 0 .1844.016.2726.0461.429.1473.6665.6174.5302 1.0504-.7186 2.1099-.1854 4.4041 1.3941 5.9828 1.0975 1.0965 2.5578 1.7019 4.1103 1.7019a5.7842 5.7842 0 0 0 1.8762-.3127.8178.8178 0 0 1 .2646-.0431.8378.8378 0 0 1 .5553.2084.8398.8398 0 0 1 .2716.7949.8439.8439 0 0 1-.5543.6344 7.496 7.496 0 0 1-1.0664.2737.6119.6119 0 0 0-.5031.6044v1.1747c0 .464-.3779.8419-.842.8419zm-.003-15.8154a5.799 5.799 0 0 0-2.7923.7187.6197.6197 0 0 0-.3117.452.6163.6163 0 0 0 .1744.5212l7.0599 7.0602a.614.614 0 0 0 .436.1805c.2756-.0331.445-.1514.5372-.3208.9892-1.791.9551-4.0002-.0872-5.7622-1.0414-1.758-2.9567-2.8496-4.9993-2.8496h-.017zM21.159 22a.8512.8512 0 0 1-.5963-.2466L2.2466 3.4353a.8349.8349 0 0 1-.2456-.5934.836.836 0 0 1 .2456-.5953A.8362.8362 0 0 1 2.8419 2c.2245 0 .436.0872.5953.2466l3.516 3.52a.6127.6127 0 0 0 .433.1765.6113.6113 0 0 0 .3527-.1113c.881-.6094 1.8632-1.0163 2.9186-1.2058a.6145.6145 0 0 0 .5041-.6044V2.841c0-.464.3769-.8409.841-.8409.464 0 .8418.3769.8418.841v1.1847c0 .2956.2115.5502.5021.6054 3.0449.5602 5.4663 2.9818 6.0266 6.0268a.6137.6137 0 0 0 .6043.5022h1.1817c.464 0 .8409.3778.8409.8419 0 .464-.3768.842-.8409.842h-1.1806a.6157.6157 0 0 0-.6054.5021c-.1894 1.0564-.5943 2.0377-1.2037 2.9187a.613.613 0 0 0 .0721.7848l3.512 3.5141a.8453.8453 0 0 1 .2174.8129.8444.8444 0 0 1-.5953.5953.8725.8725 0 0 1-.2165.0281z"/></svg>