<svg width="24" height="24" viewBox="0 0 24 24" version="1.1" xmlns="http://www.w3.org/2000/svg"><path id="gps-a" d="M22,11 L22,13 L19.931,13 C19.477,16.611 16.612,19.477 13,19.931 L13,22 L11,22 L11,19.931 C7.388,19.478 4.523,16.611 4.069,13 L2,13 L2,11 L4.069,11 C4.523,7.389 7.389,4.523 11,4.069 L11,2 L13,2 L13,4.069 C16.612,4.523 19.477,7.389 19.931,11 L22,11 Z M12,18 C15.309,18 18,15.309 18,12 C18,8.691 15.309,6 12,6 C8.691,6 6,8.691 6,12 C6,15.309 8.691,18 12,18 Z M12,15 C10.3431458,15 9,13.6568542 9,12 C9,10.3431458 10.3431458,9 12,9 C13.6568542,9 15,10.3431458 15,12 C15,13.6568542 13.6568542,15 12,15 Z"/></svg>