<!--category:navigation-->
<!--character:E06D-->
<svg width="24" height="24" viewBox="0 0 24 24" xmlns="http://www.w3.org/2000/svg"><path d="M6.5455 7.4545H2.909C2.3636 7.4545 2 7.091 2 6.5455V2.909C2 2.3636 2.3636 2 2.909 2h3.6365c.5454 0 .909.3636.909.909v3.6365c0 .5454-.3636.909-.909.909zm7.2727 0h-3.6364c-.5454 0-.909-.3636-.909-.909V2.909c0-.5455.3636-.9091.909-.9091h3.6364c.5454 0 .909.3636.909.909v3.6365c0 .5454-.3636.909-.909.909zm7.2727 0h-3.6364c-.5454 0-.909-.3636-.909-.909V2.909c0-.5455.3636-.9091.909-.9091h3.6364c.5455 0 .9091.3636.9091.909v3.6365c0 .5454-.3636.909-.909.909zM6.5455 14.7273H2.909c-.5455 0-.9091-.3637-.9091-.9091v-3.6364c0-.5454.3636-.909.909-.909h3.6365c.5454 0 .909.3636.909.909v3.6364c0 .5454-.3636.909-.909.909zm7.2727 0h-3.6364c-.5454 0-.909-.3637-.909-.9091v-3.6364c0-.5454.3636-.909.909-.909h3.6364c.5454 0 .909.3636.909.909v3.6364c0 .5454-.3636.909-.909.909zm7.2727 0h-3.6364c-.5454 0-.909-.3637-.909-.9091v-3.6364c0-.5454.3636-.909.909-.909h3.6364c.5455 0 .9091.3636.9091.909v3.6364c0 .5454-.3636.909-.909.909zM6.5455 22H2.909C2.3636 22 2 21.6364 2 21.091v-3.6365c0-.5454.3636-.909.909-.909h3.6365c.5454 0 .909.3636.909.909v3.6364c0 .5455-.3636.9091-.909.9091zm7.2727 0h-3.6364c-.5454 0-.909-.3636-.909-.909v-3.6365c0-.5454.3636-.909.909-.909h3.6364c.5454 0 .909.3636.909.909v3.6364c0 .5455-.3636.9091-.909.9091zm7.2727 0h-3.6364c-.5454 0-.909-.3636-.909-.909v-3.6365c0-.5454.3636-.909.909-.909h3.6364c.5455 0 .9091.3636.9091.909v3.6364c0 .5455-.3636.9091-.909.9091z"/></svg>