<!--category:services-->
<!--character:E089-->
<!--added:0.11-->
<svg width="24" height="24" viewBox="0 0 24 24" xmlns="http://www.w3.org/2000/svg"><path d="M3.6667 8.2467a.4167.4167 0 0 1 .4166.4166V15.33a.4167.4167 0 0 1-.4166.4167h-.8334A.8333.8333 0 0 1 2 14.9133V9.08a.8333.8333 0 0 1 .8333-.8333h.8334zM7.8333 6.58a.4167.4167 0 0 1 .4167.4167v10a.4167.4167 0 0 1-.4167.4166H5.75a.8333.8333 0 0 1-.8333-.8333V7.4133A.8333.8333 0 0 1 5.75 6.58h2.0833zm13.3334 1.6667A.8333.8333 0 0 1 22 9.08v5.8333a.8333.8333 0 0 1-.8333.8334h-.8334a.4167.4167 0 0 1-.4166-.4167V8.6633a.4167.4167 0 0 1 .4166-.4166h.8334zM18.25 6.58a.8333.8333 0 0 1 .8333.8333V16.58a.8333.8333 0 0 1-.8333.8333h-2.0833a.4167.4167 0 0 1-.4167-.4166v-10a.4167.4167 0 0 1 .4167-.4167H18.25zm-8.6667 4.1667h4.8334a.5.5 0 0 1 .5.5v1.5a.5.5 0 0 1-.5.5H9.5833a.5.5 0 0 1-.5-.5v-1.5a.5.5 0 0 1 .5-.5z"/></svg>