<svg xmlns="http://www.w3.org/2000/svg" width="24" height="24" viewBox="0 0 24 24"><path d="M21.051,0.684 L20.507,2.316 C20.371,2.726 19.99,3 19.559,3 L15,3 L15,5 L17.819,5 L16.315,14.027 L10.594,11.619 L9.388,8 L12,8 L12,6 L5,6 L5,8 L7.279,8 L8.155,10.627 C6.802,10.224 5.331,10.432 4.14,11.223 C2.804,12.11 2,13.607 2,15.212 C2,17.856 4.144,20 6.788,20 L18.596,20 C19.924,20 21,18.924 21,17.596 C21,16.629 20.42,15.757 19.529,15.381 L18.209,14.825 L19.851,4.977 C21.02,4.862 22.026,4.081 22.405,2.949 L22.949,1.316 L21.051,0.684 Z M6.5,18 C5.119,18 4,16.881 4,15.5 C4,14.119 5.119,13 6.5,13 C7.881,13 9,14.119 9,15.5 C9,16.881 7.881,18 6.5,18 Z M2,21 L22,21 L22,23 L2,23 L2,21 Z"/></svg>
