<!--category:basic-->
<!--character:E153-->
<!--added:0.21-->
<svg width="24" height="24" viewBox="0 0 24 24" version="1.1" xmlns="http://www.w3.org/2000/svg"><path id="history-a" d="M13.5,8 L12,8 L12,13 L16.28,15.54 L17,14.33 L13.5,12.25 L13.5,8 M13,3 C8.02943725,3 4,7.02943725 4,12 L1,12 L4.96,16.03 L9,12 L6,12 C6,8.13400675 9.13400675,5 13,5 C16.8659932,5 20,8.13400675 20,12 C20,15.8659932 16.8659932,19 13,19 C11.07,19 9.32,18.21 8.06,16.94 L6.64,18.36 C8.27,20 10.5,21 13,21 C17.9705627,21 22,16.9705627 22,12 C22,7.02943725 17.9705627,3 13,3"/></svg>