<!--category:basic-->
<!--character:E186-->
<svg width="24" height="24" viewBox="0 0 24 24" xmlns="http://www.w3.org/2000/svg"><path d="M9.1924 11.7042c.6098 0 1.1043.4945 1.1043 1.1042 0 .6098-.4945 1.1043-1.1043 1.1043-.6097 0-1.1042-.4945-1.1042-1.1043 0-.6097.4945-1.1042 1.1042-1.1042zm5.3761 0c.6098 0 1.1043.4945 1.1043 1.1042 0 .6098-.4945 1.1043-1.1043 1.1043-.6097 0-1.1042-.4945-1.1042-1.1043 0-.6097.4945-1.1042 1.1042-1.1042zm-2.6932 2.7245c.6097 0 1.1042.4945 1.1042 1.1042 0 .6098-.4945 1.1043-1.1042 1.1043-.6098 0-1.1043-.4945-1.1043-1.1043 0-.6097.4945-1.1042 1.1043-1.1042zm8.168-1.873c-.2528.2438-.7544.2833-.9065.277-.4538-.0263-.8507.297-.922.745-.003.0192-.3638 1.961-2.4516 3.5447-1.7504 1.3273-3.5083 1.3177-3.5245 1.3187a.9433.9433 0 0 0-.0655.0008c-.0205.0015-1.9408.0764-3.4126-.906a.9081.9081 0 0 0-.1068-.0609c-.0245-.0119-2.4548-1.2123-2.7781-3.7547-.057-.447-.4453-.7725-.886-.7725a.9425.9425 0 0 0-.1095.0065c-.218.0269-.9388.064-1.07-.5828-.0843-.4139-.0345-.726.1522-.9545.2284-.2793.635-.4065.916-.4065.3891 0 .7331-.256.8472-.6282.0086-.028.8801-2.8092 2.9596-3.8932 1.2332-.6426 2.4495-.9543 3.616-.937.1488.0422.4285.159.5763.381.1305.1962.1589.4808.0842.8459-.1032.5039-.4093.72-.9112.6443-.4771-.0817-.933.2348-1.021.7121a.8858.8858 0 0 0 .7104 1.0314c.1406.0258.2937.04.4543.04.962 0 2.1827-.511 2.5024-2.0729.078-.3805.0883-.715.0595-1.0096 2.0086.9484 3.2502 2.8591 3.5011 4.1144.0893.4467.5146.753.969.706.0042-.0002.4745-.04.742.2021.1732.1569.261.442.261.8478 0 .3422-.106.4841-.186.561m1.0901-2.7422c-.4273-.3767-.9198-.5378-1.3238-.6028-.7734-2.2831-3.1354-4.7367-6.1986-5.3036a7.7411 7.7411 0 0 0-1.1855-.1258c-.0182-.0005-.0364.0008-.0549.0005h-.0068c-1.4743-.0308-2.9879.3504-4.4969 1.1372C5.7548 6.0198 4.649 8.2667 4.2306 9.314c-.5672.1268-1.1857.4273-1.6393.9823-.3689.4516-.758 1.2391-.5166 2.4276.2634 1.2965 1.2682 1.8485 2.19 1.9803.7111 2.7533 3.1308 4.1133 3.5589 4.335 1.6519 1.0804 3.5978 1.1755 4.231 1.1755.0817 0 .1416-.0015.176-.0028h.005c.336 0 2.4719-.0665 4.5976-1.6787 1.8655-1.4146 2.6419-3.0719 2.9477-3.9861.4483-.0797 1.018-.2677 1.4769-.7028.3387-.3208.7422-.9024.7422-1.8497 0-1.1716-.4713-1.8328-.8667-2.1812"/></svg>