<!--category:basic-->
<!--character:E186-->
<svg width="24" height="24" viewBox="0 0 24 24" xmlns="http://www.w3.org/2000/svg"><path d="M4.059292 14.35001c2.546745 4.24139 6.785309 6.493774 12.65781 6.751438l-.047667.024954c-1.208637.618914-2.756784.96856-4.669595.96856-5.618846 0-8.082174-3.017017-7.940548-7.744952zM20 14.128772c.247543 2.413024-.3415 4.546837-1.893632 5.997229-.044456-.000327-.081739.000011-.112394.000146-1.630692.007176-3.132297-.132222-4.506096-.418325 2.789278-1.091165 4.963671-2.961714 6.51097-5.59963-.000338.006085.000408.013322.001152.02058zM12.425417 1.91c.397676.011384.796364.05363 1.185439.125728 3.06327.566917 5.425293 3.020517 6.198637 5.303613.404.065015.896542.22616 1.323816.602839.3954.348346.866691 1.009622.866691 2.181147 0 .94739-.403495 1.528979-.742227 1.84975-.407908.38677-.903364.578257-1.323264.672001l-.143673.028265c-.11384.031348-.210869.115302-.279246.247574-1.661887 3.21484-4.204217 5.301327-7.652826 6.281648-.040652.011556-.084438.02337-.129175.036045-3.247943-1.07387-5.650734-3.122377-7.230513-6.147752-.07701-.14748-.18481-.245332-.311877-.271865l-.000201.000204c-.89934-.149276-1.856254-.706037-2.112291-1.966544-.241338-1.188475.147737-1.975985.516574-2.427545.453584-.555026 1.072107-.85556 1.639276-.9823.41842-1.047315 1.524172-3.294236 3.636257-4.395181 1.392917-.726232 2.789714-1.106933 4.15597-1.13693L12.425416 1.91zm-.124211 1.770822c-1.166466-.017202-2.382768.294463-3.61602.937018-2.07945 1.083997-2.950948 3.8652-2.95955 3.89328-.11409.372125-.458136.628136-.847211.628136-.281055 0-.687585.127246-.916021.40653-.186696.228436-.236532.540607-.152291.954473.131294.646856.852018.609669 1.070083.582854.03668-.0043.073362-.006578.109538-.006578.440681 0 .828997.325579.885917.772585.323301 2.542395 2.753628 3.74276 2.778167 3.75465.036934.01796.072604.038198.106755.060966 1.471807.9823 3.392137.90742 3.412628.905902l.03276-.000948.060389-.00031c.230997-.005546 1.867195-.082441 3.496814-1.318257 2.0878-1.583621 2.448541-3.525455 2.451577-3.54468.071339-.448019.468256-.77132.922092-.745011.152038.006324.653687-.03314.906408-.277007.07994-.076905.185937-.218823.185937-.561098 0-.405771-.087782-.690874-.26107-.847718-.267394-.242097-.737674-.20238-.741975-.202127-.454342.047054-.879593-.259299-.968892-.706052-.250951-1.25526-1.49255-3.165977-3.50117-4.11438.02884.294716.018468.629149-.059448 1.009623-.31976 1.561865-1.540363 2.072874-2.502425 2.072874-.16064 0-.313689-.014167-.454343-.03997-.480904-.088794-.798894-.550473-.710352-1.031378.088035-.477363.543895-.793834 1.021005-.712123.501902.075639.808001-.140401.911215-.644327.074627-.365042.046294-.649639-.08424-.845947-.147738-.221859-.427528-.338733-.576277-.38098zm-.308374 8.876797c1.037908.00333 1.857168.064608 1.857168 1.121153 0 1.10457-.870152 1.592091-1.974721 1.592091-1.10457 0-2.025279-.487521-2.025279-1.59209 0-1.056546.81926-1.117823 1.857168-1.121154h.285664zM9.192429 9.83296c.60975 0 1.10425.4945 1.10425 1.10425s-.4945 1.10425-1.10425 1.10425-1.10425-.4945-1.10425-1.10425.4945-1.10425 1.10425-1.10425zm5.3761 0c.60975 0 1.10425.4945 1.10425 1.10425s-.4945 1.10425-1.10425 1.10425-1.10425-.4945-1.10425-1.10425.4945-1.10425 1.10425-1.10425z"/></svg>
