<!--category:basic-->
<!--character:R-->
<svg width="24" height="24" viewBox="0 0 24 24" version="1.1" xmlns="http://www.w3.org/2000/svg"><path d="M15,17 L9,17 L9,15 L11,15 L11,12 L10,12 L10,10 L12,10 C12.552,10 13,10.448 13,11 L13,15 L15,15 L15,17 Z M12,6.75 C12.69,6.75 13.25,7.31 13.25,8 C13.25,8.69 12.69,9.25 12,9.25 C11.31,9.25 10.75,8.69 10.75,8 C10.75,7.31 11.31,6.75 12,6.75 L12,6.75 Z M12,2 C6.486,2 2,6.486 2,12 C2,17.515 6.486,22 12,22 C17.514,22 22,17.515 22,12 C22,6.486 17.514,2 12,2 L12,2 Z" id="path-1"></path></svg>