<svg width="24" height="24" viewBox="0 0 24 24" version="1.1" xmlns="http://www.w3.org/2000/svg"><path d="M19.038889,11.1914412 L17.5589696,11.1914412 C17.6668021,11.6100058 17.7304804,12.0473435 17.7304804,12.4995494 C17.7304804,15.3888015 15.3888015,17.7304804 12.5,17.7304804 C9.61134866,17.7304804 7.26951959,15.3888015 7.26951959,12.4995494 C7.26951959,12.0473435 7.33349824,11.6100058 7.44133081,11.1914412 L5.9612612,11.1914412 L5.9612612,18.3842341 C5.9612612,18.7448275 6.25412124,19.0375373 6.61576585,19.0375373 L18.3843843,19.0375373 C18.7460289,19.0375373 19.038889,18.7449776 19.038889,18.3842341 L19.038889,11.1914412 L19.038889,11.1914412 Z M19.038889,6.61486475 C19.038889,6.25397106 18.7460289,5.96111101 18.3843843,5.96111101 L16.4232733,5.96111101 C16.0620793,5.96111101 15.7693694,6.25397106 15.7693694,6.61486475 L15.7693694,8.57672668 C15.7693694,8.93762037 16.0619291,9.23048041 16.4232733,9.23048041 L18.3843843,9.23048041 C18.7460289,9.23048041 19.038889,8.93762037 19.038889,8.57672668 L19.038889,6.61486475 L19.038889,6.61486475 Z M12.4998498,9.23048041 C10.6941799,9.23048041 9.2306306,10.6938795 9.2306306,12.4995494 C9.2306306,14.304919 10.6941799,15.769069 12.4998498,15.769069 C14.3055197,15.769069 15.7693694,14.304919 15.7693694,12.4995494 C15.7693694,10.6938795 14.3055197,9.23048041 12.4998498,9.23048041 L12.4998498,9.23048041 Z M19.038889,20.9996996 L5.96111101,20.9996996 C4.87812958,20.9996996 4,20.1212697 4,19.0373871 L4,5.96111101 C4,4.8779794 4.87812958,4 5.96111101,4 L19.038889,4 C20.1220206,4 21,4.8779794 21,5.96111101 L21,19.0373871 C20.9998498,20.1212697 20.1220206,20.9996996 19.038889,20.9996996 L19.038889,20.9996996 Z" id="path-1"></path></svg>