<svg width="24" height="24" viewBox="0 0 24 24" version="1.1" xmlns="http://www.w3.org/2000/svg"><path id="instagram-a" d="M7.8,2 L16.2,2 C19.4,2 22,4.6 22,7.8 L22,16.2 C22,19.4032515 19.4032515,22 16.2,22 L7.8,22 C4.6,22 2,19.4 2,16.2 L2,7.8 C2,4.59674845 4.59674845,2 7.8,2 Z M7.6,4 C5.6117749,4 4,5.6117749 4,7.6 L4,16.4 C4,18.39 5.61,20 7.6,20 L16.4,20 C18.3882251,20 20,18.3882251 20,16.4 L20,7.6 C20,5.61 18.39,4 16.4,4 L7.6,4 Z M17.25,5.5 C17.9403559,5.5 18.5,6.05964406 18.5,6.75 C18.5,7.44035594 17.9403559,8 17.25,8 C16.5596441,8 16,7.44035594 16,6.75 C16,6.05964406 16.5596441,5.5 17.25,5.5 Z M12,7 C14.7614237,7 17,9.23857625 17,12 C17,14.7614237 14.7614237,17 12,17 C9.23857625,17 7,14.7614237 7,12 C7,9.23857625 9.23857625,7 12,7 Z M12,9 C10.3431458,9 9,10.3431458 9,12 C9,13.6568542 10.3431458,15 12,15 C13.6568542,15 15,13.6568542 15,12 C15,10.3431458 13.6568542,9 12,9 Z"/></svg>