<!--category:travel-->
<!--character:003a-->
<svg width="24" height="24" viewBox="0 0 24 24" xmlns="http://www.w3.org/2000/svg"><path d="M5.6978 17.2522C4.5062 15.6429 3.75 13.6504 3.75 11.55V6.075c0-.675.45-1.35 1.125-1.65C7.125 3.45 9.525 3 12 3c2.3204 0 4.5749.3955 6.7016 1.2484L19.725 3.225c.3-.3.75-.3 1.05 0 .3.3.3.75 0 1.05l-16.5 16.5c-.225.3-.75.3-1.05 0-.3-.3-.3-.75 0-1.05l2.4728-2.4728zM7.5 19.05L20.325 6.3v5.25c-.075 4.05-2.625 7.575-6.375 8.925l-.825.3c-.675.225-1.5.225-2.175 0l-.825-.3c-.975-.3-1.875-.825-2.625-1.425z"/></svg>