<!--category:travel-->
<!--character:0072-->
<svg width="24" height="24" viewBox="0 0 24 24" xmlns="http://www.w3.org/2000/svg"><path d="M19.1032 4.4295c.6771.301 1.1285.978 1.2038 1.6551v5.4922c-.0753 4.0627-2.6333 7.5987-6.395 8.953l-.8276.301c-.6771.2256-1.5047.2256-2.1818 0l-.8276-.301c-3.837-1.3543-6.395-4.8903-6.395-8.953V6.0846c0-.677.4514-1.3542 1.1285-1.6551C7.0655 3.4515 9.4731 3 11.956 3c2.4827 0 4.8902.4514 7.1473 1.4295zm-8.6673 11.6121h.045c.27-.045.54-.18.675-.405l5.85-6.3c.315-.405.18-.945-.225-1.215-.405-.315-.945-.18-1.26.27l-5.22 5.355-1.485-1.62c-.315-.36-.9-.36-1.26-.045s-.36.9-.045 1.26l2.25 2.43c.18.18.405.27.675.27z"/></svg>