<!--category:travel-->
<!--character:0072-->
<svg width="24" height="24" viewBox="0 0 24 24" xmlns="http://www.w3.org/2000/svg"><path d="M11.955862 3c2.482759 0 4.890282.45141 7.147336 1.429467.677115.30094 1.128526.978057 1.203761 1.655172v5.492163c-.075235 4.062696-2.633229 7.598747-6.394984 8.952979l-.827586.30094c-.677116.225705-1.504703.225705-2.181819 0l-.827586-.30094C6.237994 19.175549 3.68 15.639498 3.68 11.576802V6.08464c0-.677115.45141-1.354231 1.128527-1.655172C7.06558 3.451411 9.473103 3 11.955862 3zm4.600243 4.190747c-.449997-.349998-1.049994-.199999-1.399991.299998l-4.799971 5.949958-1.64999-1.799989c-.349998-.399997-.999995-.399997-1.399992-.05-.399998.349999-.399998.999995-.05 1.399992l2.499985 2.699984c.199999.199999.449997.299998.749996.299998h.05c.299997-.05.599996-.199999.749995-.449997l5.499966-6.999952c.349998-.449997.2-1.049994-.249998-1.349992z"/></svg>
