<!--category:basic-->
<!--character:E149-->
<!--added:0.21-->
<svg width="24" height="24" viewBox="0 0 24 24" xmlns="http://www.w3.org/2000/svg"><path d="M4.75 8c-.5523 0-1-.4477-1-1s.4477-1 1-1 1 .4477 1 1-.4477 1-1 1zm3 .002c-.5523 0-1-.4477-1-1s.4477-1 1-1h11.5c.5523 0 1 .4477 1 1s-.4477 1-1 1H7.75zM4.75 13c-.5523 0-1-.4477-1-1s.4477-1 1-1 1 .4477 1 1-.4477 1-1 1zm5.2-1.998c.5523 0 1 .4477 1 1s-.4477 1-1 1h-2.2c-.5523 0-1-.4477-1-1s.4477-1 1-1h2.2zM4.75 18c-.5523 0-1-.4477-1-1s.4477-1 1-1 1 .4477 1 1-.4477 1-1 1zm5.2-1.998c.5523 0 1 .4477 1 1s-.4477 1-1 1h-2.2c-.5523 0-1-.4477-1-1s.4477-1 1-1h2.2zm6.266 1.0681h.0262c.1575-.0262.315-.105.3937-.2362l3.4125-3.675c.1838-.2363.105-.5513-.1312-.7088-.2363-.1837-.5513-.105-.735.1575l-3.045 3.1238-.8663-.945c-.1837-.21-.525-.21-.735-.0263-.21.1838-.21.525-.0262.735l1.3125 1.4175c.105.105.2362.1575.3937.1575zM11.75 14.45c0-2.8875 2.3625-5.25 5.25-5.25s5.25 2.3625 5.25 5.25S19.8875 19.7 17 19.7s-5.25-2.3625-5.25-5.25z"/></svg>