<!--category:basic-->
<!--character:E149-->
<!--added:0.21-->
<svg width="24" height="24" viewBox="0 0 24 24" xmlns="http://www.w3.org/2000/svg"><path d="M17 9.2c2.8875 0 5.25 2.3625 5.25 5.25S19.8875 19.7 17 19.7s-5.25-2.3625-5.25-5.25S14.1125 9.2 17 9.2zm-9.25 6.802h2.2c.552285 0 1 .447715 1 1 0 .512836-.38604.935507-.883379.993272L9.95 18.002h-2.2c-.552285 0-1-.447715-1-1 0-.512836.38604-.935507.883379-.993272L7.75 16.002h2.2zm-3-.002c.552285 0 1 .447715 1 1s-.447715 1-1 1-1-.447715-1-1 .447715-1 1-1zm14.926465-3.794963c-.276143-.207107-.667894-.151143-.875.125l-2.276667 3.035833a.2075.2075 0 0 1-.314167.0225l-1.083333-1.083333c-.157941-.157941-.388146-.219624-.603897-.161814-.215752.05781-.384273.226332-.442084.442083-.05781.215752.003873.445956.161814.603897l1.25 1.25c.232977.23488.550006.36715.880833.3675h.090834c.36406-.024291.69914-.207062.916667-.5l2.416666-3.228333c.21044-.274476.154476-.666226-.121666-.873333zM9.95 11.002c.552285 0 1 .447715 1 1 0 .512836-.38604.935507-.883379.993272L9.95 13.002h-2.2c-.552285 0-1-.447715-1-1 0-.512836.38604-.935507.883379-.993272L7.75 11.002h2.2zM4.75 11c.552285 0 1 .447715 1 1s-.447715 1-1 1-1-.447715-1-1 .447715-1 1-1zm14.5-4.998c.552285 0 1 .447715 1 1 0 .512836-.38604.935507-.883379.993272L19.25 8.002H7.75c-.552285 0-1-.447715-1-1 0-.512836.38604-.935507.883379-.993272L7.75 6.002h11.5zM4.75 6c.552285 0 1 .447715 1 1s-.447715 1-1 1-1-.447715-1-1 .447715-1 1-1z"/></svg>
