<!--description:Only for Kiwi.com Guarantee!-->
<!--category:kiwicom-->
<!--character:E145-->
<!--added:0.19-->
<svg width="24" height="24" viewBox="0 0 24 24" xmlns="http://www.w3.org/2000/svg"><path d="M21.3217 10.564l-1.5984-1.2873a.9518.9518 0 0 1-.3478-.8457l.2217-2.0425a1.823 1.823 0 0 0-.5213-1.4875 1.8168 1.8168 0 0 0-1.485-.5228l-2.0419.2195a.9498.9498 0 0 1-.8444-.3484l-1.2853-1.6A1.8746 1.8746 0 0 0 12.0009 2c-.5445 0-1.0621.237-1.4184.6493l-1.2854 1.6a.9437.9437 0 0 1-.8444.3484l-2.0393-.2195a1.8168 1.8168 0 0 0-1.4852.5222 1.823 1.823 0 0 0-.522 1.4872L4.628 8.43a.9475.9475 0 0 1-.3479.8457L2.68 10.564c-.43.3459-.68.8683-.68 1.4206 0 .5523.25 1.0748.68 1.4206l1.5984 1.2873a.9483.9483 0 0 1 .3479.8458l-.2218 2.0425a1.823 1.823 0 0 0 .5213 1.4874c.3902.391.9364.5833 1.485.5228l2.0402-.222a.949.949 0 0 1 .8444.3483l1.287 1.6035c.3454.4306.867.681 1.4185.681.5514 0 1.073-.2504 1.4184-.681l1.2853-1.6009a.9498.9498 0 0 1 .8444-.3484l2.0393.2221a1.8168 1.8168 0 0 0 1.4852-.5221 1.823 1.823 0 0 0 .522-1.4873l-.2218-2.0433a.9466.9466 0 0 1 .3479-.8457l1.5984-1.2874c.43-.3458.68-.8683.68-1.4206 0-.5522-.25-1.0747-.68-1.4206l.0017-.0026zm-8.973 4.092a1.551 1.551 0 0 1-2.3159.1655L7.9075 12.698a.8719.8719 0 0 1-.2371-.847.8703.8703 0 0 1 .621-.6221.8688.8688 0 0 1 .8458.2375l1.9576 1.9606 3.3994-4.5388a.869.869 0 0 1 1.4955.1805.8721.8721 0 0 1-.104.8647l-3.5369 4.7226z"/></svg>
