<!--description:Our logo, use for company related links like Press Kit or About page.-->
<!--category:kiwicom-->
<!--character:E143-->
<!--added:0.19-->
<svg width="24" height="24" viewBox="0 0 24 24" xmlns="http://www.w3.org/2000/svg"><path d="M14.7896 8.9839c.254.2547.254.6217 0 .8764l-2.4047 2.399 2.4047 2.3989c.1198.1194.1876.272.1904.4303.003.164-.0634.318-.1904.4446-.1255.1238-.2755.19-.437.19-.1602 0-.3174-.0676-.44-.19l-2.8303-2.8234a.618.618 0 0 1-.1832-.4533c-.003-.1684.062-.3267.1832-.4476l2.8303-2.825c.1226-.1222.2784-.1899.44-.1899.1615 0 .313.0662.437.19zm-4.2723.43v5.6892c0 .1702-.0603.3259-.1692.4398-.1147.1182-.2682.1802-.4474.1802-.357 0-.6166-.261-.6166-.62V9.414c0-.3533.2653-.62.6166-.62.1706 0 .327.0635.4416.1802.1133.1154.175.2725.175.4398zm10.9223 2.3455a.6756.6756 0 0 1 .6753.6753c0 .372-.3034.6753-.6753.6753-.372 0-.6754-.3033-.6754-.6753s.3034-.6753.6754-.6753zm-.967 4.0995c.2737.203.3327.5903.1282.8638-.8943 1.2108-2.1472 2.223-3.6233 2.924-1.5107.7185-3.2316 1.0971-4.977 1.0971-2.009 0-3.9502-.4938-5.6121-1.4253-1.6389-.9185-2.9148-2.207-3.6896-3.726-.54-1.0595-.8137-2.1854-.8137-3.3487 0-1.1632.2737-2.289.8137-3.3487.517-1.015 1.2543-1.9235 2.1919-2.7009 1.9052-1.5793 4.4297-2.4504 7.1098-2.4504 1.7511 0 3.475.3801 4.9885 1.1014 1.479.7055 2.7333 1.7204 3.6262 2.937.2016.2735.1426.6608-.1325.8624a.6134.6134 0 0 1-.3643.1195.618.618 0 0 1-.4983-.252c-.772-1.0524-1.8664-1.935-3.1625-2.5526-1.348-.642-2.8888-.9818-4.4571-.9818-1.7987 0-3.5297.4376-5.0087 1.2669C5.566 7.045 4.4615 8.155 3.799 9.455c-.4508.8854-.6798 1.8227-.6798 2.7887.0015.9646.229 1.9033.6798 2.7873.4392.8638 1.0714 1.6413 1.8793 2.3107 1.682 1.398 3.9272 2.1668 6.3192 2.1668 1.5683 0 3.1063-.3384 4.4514-.9776 1.2946-.6147 2.3877-1.4944 3.161-2.5425a.618.618 0 0 1 .4969-.2505.6094.6094 0 0 1 .3657.121z"/></svg>
