<!--description:Only for Kiwi.com Guarantee!-->
<!--category:kiwicom-->
<!--character:E145-->
<!--added:0.19-->
<svg width="24" height="24" viewBox="0 0 24 24" version="1.1" xmlns="http://www.w3.org/2000/svg"><path id="kiwi.com-guarantee-a" d="M9.75910668,4.31115573 C10.2228533,3.52591669 11.0719721,3 12.0426458,3 C13.0133195,3 13.8624383,3.52591669 14.3261849,4.31115573 C15.142382,3.90630012 16.13989,3.92812661 16.9532375,4.45632065 C17.7690861,4.98613893 18.1948617,5.89245929 18.1540082,6.80560662 C19.0501849,6.9029538 19.8720024,7.44787563 20.2777599,8.31802541 C20.6940784,9.21082339 20.5665789,10.2190724 20.0312695,10.9750941 C20.7460644,11.5434504 21.1499146,12.4586286 21.0146469,13.4211083 C20.8790691,14.3857947 20.2359767,15.15552 19.3893442,15.5037085 C19.6892824,16.374845 19.5322329,17.3727336 18.8892496,18.1124012 C18.2568046,18.8399461 17.3115345,19.1366994 16.4200607,18.9789529 C16.1973753,19.8732881 15.5220416,20.6250506 14.5796345,20.8952815 C13.6556784,21.1602217 12.7041528,20.8965939 12.0426458,20.2826202 C11.3811388,20.8965939 10.4296132,21.1602217 9.50565714,20.8952815 C8.56324997,20.6250506 7.88791634,19.8732881 7.66523094,18.9789529 C6.77375712,19.1366994 5.82848703,18.8399461 5.19604196,18.1124012 C4.55305868,17.3727336 4.39600921,16.374845 4.69594744,15.5037085 C3.84931493,15.15552 3.20622254,14.3857947 3.0706447,13.4211083 C2.935377,12.4586286 3.33922722,11.5434504 4.05402215,10.9750941 C3.51871272,10.2190724 3.39121318,9.21082339 3.80753172,8.31802541 C4.21328922,7.44787563 5.03510667,6.9029538 5.93128344,6.80560662 C5.8904299,5.89245929 6.31620554,4.98613893 7.13205415,4.45632065 C7.94540165,3.92812661 8.94290959,3.90630012 9.75910668,4.31115573 Z M10.7445652,15.8504348 L16.9402174,9.58956522 L15.8482337,8.47826087 L10.7445652,13.6356522 L8.73872283,11.6165217 L7.64673913,12.72 L10.7445652,15.8504348 Z"/></svg>