<!--category:basic-->
<!--character:E057-->
<!--added:0.11-->
<svg xmlns="http://www.w3.org/2000/svg" width="24" height="24" viewBox="0 0 24 24"><path id="link-a" d="M3.5835,16.2845 L2.8775,15.5775 C1.7075,14.4075 1.7075,12.5045 2.8775,11.3345 L11.3625,2.8505 C12.4945,1.7165 14.4715,1.7165 15.6055,2.8505 L16.3115,3.5575 L14.8985,4.9705 L14.1915,4.2635 C14.0015,4.0745 13.7515,3.9705 13.4835,3.9705 C13.2155,3.9705 12.9645,4.0745 12.7765,4.2635 L4.2905,12.7485 C3.9005,13.1395 3.9005,13.7735 4.2905,14.1635 L4.9975,14.8705 L3.5835,16.2845 Z M21.2615,8.5085 C21.8275,9.0745 22.1395,9.8285 22.1395,10.6295 C22.1395,11.4305 21.8275,12.1835 21.2615,12.7495 L12.7765,21.2345 C12.2095,21.8015 11.4565,22.1135 10.6555,22.1135 C9.8535,22.1135 9.1005,21.8015 8.5335,21.2345 L7.8265,20.5275 L9.2405,19.1145 L9.9475,19.8215 C10.3255,20.1985 10.9845,20.1985 11.3625,19.8215 L19.8475,11.3355 C20.0355,11.1465 20.1395,10.8955 20.1395,10.6295 C20.1395,10.3615 20.0365,10.1115 19.8475,9.9225 L19.1395,9.2155 L20.5535,7.8015 L21.2615,8.5085 Z M19.8466823,2.8504935 L21.2608823,4.2646935 L14.1898823,11.3356935 L12.7756823,9.9214935 L19.8466823,2.8504935 Z M9.947222,12.7484748 L11.3609148,14.1617678 L4.2902078,21.234475 L2.876515,19.821182 L9.947222,12.7484748 Z"/></svg>
