<!--category:social-->
<!--character:E114-->
<svg width="24" height="24" viewBox="0 0 24 24" version="1.1" xmlns="http://www.w3.org/2000/svg"><path d="M7.74611395,9.18458282 L7.74611395,19.7520275 L4.20908836,19.7520275 L4.20908836,9.18458282 L7.74611395,9.18458282 Z M5.97758541,4 C7.21101779,4 7.97872474,4.81146117 7.97872474,5.82555311 C7.95573762,6.86247228 7.21101779,7.65141893 6.00098189,7.65141893 C4.79107195,7.65141893 4,6.86247228 4,5.82555311 C4,4.81146117 4.76754951,4 5.95453531,4 L5.97752243,4 L5.97758541,4 Z M9.70326285,20 L9.70335732,20 C9.70335732,20 9.74977242,10.4241328 9.70335732,9.43255535 L13.2403514,9.43255535 L13.2403514,10.9651069 L13.2167345,10.9651069 C13.682145,10.2437038 14.519821,9.18458282 16.4279412,9.18458282 C18.7550254,9.18458282 20.5,10.6949325 20.5,13.9407772 L20.5,20 L16.9632893,20 L16.9632893,14.3466641 C16.9632893,12.9260599 16.4513062,11.956997 15.1714273,11.956997 C14.1943171,11.956997 13.6123335,12.6105438 13.3566411,13.241576 C13.2632441,13.4673467 13.240257,13.7828628 13.240257,14.0986916 L13.240257,20 L9.70326285,20 Z" id="path-1"></path></svg>