<!--category:basic-->
<!--character:E057-->
<!--added:0.11-->
<svg width="24" height="24" viewBox="0 0 24 24" xmlns="http://www.w3.org/2000/svg"><path d="M12.3796 14.7129c.477-.197 1.022.0289 1.2189.5058a2.8071 2.8071 0 0 1-.6076 3.052L10.3506 20.91c-1.4579 1.4569-3.821 1.4569-5.2788 0l-1.9805-1.9796c-1.455-1.4597-1.455-3.821 0-5.2807l2.6431-2.6384a2.831 2.831 0 0 1 3.05-.6086c.477.196.7038.742.5069 1.218a.934.934 0 0 1-1.219.5077.9457.9457 0 0 0-1.0182.2026L4.411 14.9695c0 .001 0 .001-.001.001-.728.7298-.728 1.9114.001 2.6394l1.9805 1.9805c.7289.7289 1.9105.7289 2.6394 0l2.6394-2.6413a.9317.9317 0 0 0 .2025-1.0164v-.001c-.197-.4768.0308-1.0228.5068-1.2188zm-4.3389 1.2469a.934.934 0 0 1 0-1.3197l7.2602-7.2593a.9345.9345 0 0 1 1.2973 0c.3696.3574.3808.9492.0224 1.3197l-7.2602 7.2593a.9443.9443 0 0 1-1.3197 0zm12.8695-10.889c1.4541 1.4607 1.4532 3.822-.0037 5.2807L18.2671 12.99a2.8229 2.8229 0 0 1-3.052.6085c-.476-.197-.7027-.7439-.5058-1.2198.197-.477.743-.7028 1.2199-.5059a.9475.9475 0 0 0 1.0182-.2025l2.6431-2.6348s.001 0 .001-.0009c.728-.729.728-1.9105-.001-2.6394L17.611 4.4156v-.0009c-.729-.729-1.9114-.728-2.6404.001L12.3312 7.055a.9323.9323 0 0 0-.2025 1.0136c.197.476-.0299 1.022-.5058 1.219-.477.1969-1.023-.03-1.2199-.506a2.8066 2.8066 0 0 1 .6076-3.051l2.6403-2.6393c1.4588-1.455 3.82-1.455 5.2798 0l1.9795 1.9795z"/></svg>