<!--category:navigation-->
<!--character:E115-->
<svg width="24" height="24" viewBox="0 0 24 24" xmlns="http://www.w3.org/2000/svg"><path d="M4.75 8c-.5523 0-1-.4477-1-1s.4477-1 1-1 1 .4477 1 1-.4477 1-1 1zm3 .002c-.5523 0-1-.4477-1-1s.4477-1 1-1h11.5c.5523 0 1 .4477 1 1s-.4477 1-1 1H7.75zM4.75 13c-.5523 0-1-.4477-1-1s.4477-1 1-1 1 .4477 1 1-.4477 1-1 1zm14.5-1.998c.5523 0 1 .4477 1 1s-.4477 1-1 1H7.75c-.5523 0-1-.4477-1-1s.4477-1 1-1h11.5zM4.75 18c-.5523 0-1-.4477-1-1s.4477-1 1-1 1 .4477 1 1-.4477 1-1 1zm14.5-1.998c.5523 0 1 .4477 1 1s-.4477 1-1 1H7.75c-.5523 0-1-.4477-1-1s.4477-1 1-1h11.5z"/></svg>