<!--description:Use in multicity when adding new location-->
<!--category:travel-->
<!--character:003f-->
<svg width="24" height="24" viewBox="0 0 24 24" xmlns="http://www.w3.org/2000/svg"><path d="M11.9933 2c-4.3701.005-7.9116 3.5465-7.9166 7.9167 0 5.4558 5.4483 10.4066 7.1175 11.7941a1.25 1.25 0 0 0 1.5975 0c1.6666-1.3875 7.1183-6.34 7.1183-11.795C19.9045 5.546 16.3632 2.0051 11.9933 2zm3.9584 9.2358h-2.7084a.4167.4167 0 0 0-.4166.4167v2.7083a.8333.8333 0 0 1-1.6667 0v-2.7083a.4167.4167 0 0 0-.4167-.4167H8.035a.8333.8333 0 1 1 0-1.6666h2.7083a.4167.4167 0 0 0 .4167-.4167V6.4442a.8333.8333 0 1 1 1.6667 0v2.7083c0 .2301.1865.4167.4166.4167h2.7084a.8333.8333 0 1 1 0 1.6666z"/></svg>