<!--category:travel-->
<!--character:007d-->
<svg width="24" height="24" viewBox="0 0 24 24" xmlns="http://www.w3.org/2000/svg"><path d="M12.042 2C7.7222 2 4.15 5.5722 4.15 9.892c0 5.3998 5.3998 10.3842 7.0613 11.7965.4984.4153 1.163.4153 1.5784 0 1.6614-1.4123 7.0612-6.3136 7.0612-11.7965C19.934 5.5722 16.362 2 12.042 2zm3.9875 11.3811c0 .5815-.4984 1.08-1.08 1.08-.5814 0-1.0799-.4985-1.0799-1.08v-2.5753c0-.083-.083-.1661-.1661-.1661h-3.406c-.0831 0-.1662.083-.1662.1661v2.5753c0 .5815-.4984 1.08-1.08 1.08-.5815 0-1.08-.4985-1.08-1.08V6.0706c0-.5815.4985-1.08 1.08-1.08.5816 0 1.08.4985 1.08 1.08v2.4922c0 .0831.083.1662.1662.1662h3.406c.083 0 .1661-.0831.1661-.1662V6.0706c0-.5815.4985-1.08 1.08-1.08.5815 0 1.08.4985 1.08 1.08v7.3105z"/></svg>