<svg width="24" height="24" viewBox="0 0 24 24" version="1.1" xmlns="http://www.w3.org/2000/svg"><path d="M10.9999368,12.9998105 L10.9999368,14.9997474 L9,14.9997474 L9,7.99924117 C9,7.44798585 9.44798585,7 10.0006957,7 L13.9991149,7 C14.5518247,7 14.9998105,7.44798585 14.9998105,7.99924117 L14.9998105,14.9997474 L12.9998737,14.9997474 L12.9998737,12.9998105 L10.9999368,12.9998105 Z M12.9998737,8.99993685 L10.9999368,8.99993685 L10.9999368,10.9998737 L12.9998737,10.9998737 L12.9998737,8.99993685 Z M12,3 C8.134,3 5,6.134 5,10 C5,15 12,23 12,23 C12,23 19,15 19,10 C19,6.134 15.866,3 12,3" id="path-1"></path></svg>