<!--category:travel-->
<!--character:007c-->
<svg width="24" height="24" viewBox="0 0 24 24" xmlns="http://www.w3.org/2000/svg"><path d="M12.042 2C7.7222 2 4.15 5.5722 4.15 9.892c0 5.3998 5.3998 10.3842 7.0613 11.7965.4984.4153 1.163.4153 1.5784 0 1.6614-1.4123 7.0612-6.3136 7.0612-11.7965C19.934 5.5722 16.362 2 12.042 2zm4.486 11.5472c0 .4985-.4154.9139-.9138.9139-.997 0-.9138-.997-.9138-.997-.4154.5816-1.3292 1.1631-2.6584 1.1631-2.6584 0-4.7352-1.9107-4.7352-4.9013 0-2.9907 2.243-4.9014 4.9014-4.9014 2.0768 0 3.2398.9138 3.9044 1.9107.3323.4984.083 1.08-.4984 1.3292l-.2492.083c-.4154.1662-.8308 0-1.08-.3322-.3323-.4985-.9969-.997-2.0768-.997-1.2462 0-2.7415.8308-2.7415 2.9907 0 1.9938 1.3292 2.9907 2.8245 2.9907 1.3292 0 1.9938-.7477 2.243-1.2461.083-.0831.083-.2492-.1661-.2492h-1.6615c-.4984 0-.9138-.4154-.9138-.9139 0-.4984.4154-.9138.9138-.9138h2.9906c.4985 0 .9139.4154.9139.9138v3.1568h-.0831z"/></svg>