<!--category:travel-->
<!--character:0060-->
<svg xmlns="http://www.w3.org/2000/svg" width="24" height="24" viewBox="0 0 24 24"><path id="location-e-a" d="M12,3 C8.134,3 5,6.134 5,10 C5,15 12,23 12,23 C12,23 19,15 19,10 C19,6.134 15.866,3 12,3 M15,9.0007622 L10.9996189,9.0007622 L10.9996189,10.0011433 L14.0007622,10.0011433 L14.0007622,11.9996189 L10.9996189,11.9996189 L10.9996189,13 L15,13 L15,15.0007622 L10.0003811,15.0007622 C9.44702744,15.0007622 9,14.5525915 9,14.0003811 L9,8.0003811 C9,7.44702744 9.44702744,7 10.0003811,7 L15,7 L15,9.0007622 Z"/></svg>
