<svg width="24" height="24" viewBox="0 0 24 24" version="1.1" xmlns="http://www.w3.org/2000/svg"><path d="M12,3 C15.866,3 19,6.134 19,10 C19,15 12,23 12,23 C12,23 5,15 5,10 C5,6.134 8.134,3 12,3 Z M12.4999273,9 C12.7762909,9 13.0002909,9.224 13.0002909,9.50036364 C13.0002909,9.77527273 12.7762909,9.99927273 12.4999273,9.99927273 L11.0002909,9.99927273 L11.0002909,9 L12.4999273,9 Z M15,12.4996364 C15,11.9352727 14.8050909,11.4189091 14.488,11 C14.8050909,10.5810909 15,10.0647273 15,9.50036364 C15,8.12145455 13.8785455,7 12.4996364,7 L9,7 L9,15 L12.4996364,15 C13.8785455,15 15,13.8785455 15,12.4996364 Z M12.4999273,12 C12.7762909,12 13.0002909,12.224 13.0002909,12.5003636 C13.0002909,12.7752727 12.7762909,12.9992727 12.4999273,12.9992727 L11.0002909,12.9992727 L11.0002909,12 L12.4999273,12 Z" id="path-1"></path></svg>