<!--character:E170-->
<!--added:0.28-->
<svg width="24" height="24" viewBox="0 0 24 24" xmlns="http://www.w3.org/2000/svg"><path d="M17.4 10.448V7.4C17.4 4.4177 14.9823 2 12 2 9.0177 2 6.6 4.4177 6.6 7.4c0 .5523.4477 1 1 1s1-.4477 1-1C8.6 5.5222 10.1222 4 12 4s3.4 1.5222 3.4 3.4v2.2a.4.4 0 0 1-.4.4H8.4c-2.208.0026-3.9974 1.792-4 4v4.2c.0026 2.208 1.792 3.9974 4 4h7.2c2.208-.0026 3.9974-1.792 4-4V14a3.9904 3.9904 0 0 0-2.2-3.552zm-3.8 5.322c0 .8837-.7163 1.6-1.6 1.6s-1.6-.7163-1.6-1.6.7163-1.6 1.6-1.6 1.6.7163 1.6 1.6z"/></svg>