<!--category:basic-->
<!--character:E0A7-->
<!--added:0.11-->
<svg width="24" height="24" viewBox="0 0 24 24" xmlns="http://www.w3.org/2000/svg"><path d="M13.3636 16.9955c0-.5028.4073-.9091.9091-.9091.5028 0 .9091.4063.9091.909v2.7273c0 1.0037-.8145 1.8182-1.8182 1.8182H3.8182C2.8145 21.541 2 20.7264 2 19.7227V4.2682C2 3.2645 2.8145 2.45 3.8182 2.45h9.5454c1.0037 0 1.8182.8145 1.8182 1.8182v2.7273a.9088.9088 0 0 1-.909.909c-.5019 0-.9092-.4072-.9092-.909V4.7227a.4547.4547 0 0 0-.4545-.4545H4.2727a.4547.4547 0 0 0-.4545.4545v14.5455c0 .2509.2036.4545.4545.4545h8.6364a.4547.4547 0 0 0 .4545-.4545v-2.2727zm4.7732-9.1364l3.6365 3.6365c.3023.303.3023.7576 0 .9849l-3.6365 3.6372c-.1515.1508-.303.2265-.5303.2265-.4553 0-.7576-.303-.7576-.7576v-2.2728c0-.0757-.0765-.1515-.1515-.1515H8.5909c-.606 0-1.1364-.5303-1.1364-1.1364 0-.606.5304-1.1364 1.1364-1.2122h8.1065c.075 0 .1515-.0757.1515-.1515V8.3894c0-.2273.0758-.3788.2273-.5303.303-.303.7576-.303 1.0606 0z"/></svg>