<svg width="24" height="24" viewBox="0 0 24 24" version="1.1" xmlns="http://www.w3.org/2000/svg"><path id="map-a" d="M20.555,17.831 C20.833,17.646 21,17.334 21,17 L21,3 C21,2.631 20.797,2.292 20.472,2.119 C20.147,1.944 19.752,1.963 19.446,2.168 L14.054,5.763 L9.625,2.219 C9.475,2.101 9.256,2.016 9.036,2.008 C8.829,2 8.6,2.066 8.445,2.168 L2.445,6.168 C2.167,6.353 2,6.666 2,7 L2,21 C2,21.369 2.203,21.708 2.528,21.882 C2.676,21.961 2.838,22 3,22 C3.194,22 3.387,21.943 3.555,21.831 L8.947,18.237 L13.376,21.78 C13.556,21.926 13.777,22 14,22 C14.148,22 14.295,21.969 14.433,21.902 L20.555,17.831 Z M4,7.535 L8,4.868 L8,16.465 L4,19.132 L4,7.535 Z M19,16.465 L15,19.132 L15,18 L15,7.535 L19,4.868 L19,16.465 Z"/></svg>