<!--description:Use for meal on board, don't use for restaurants-->
<!--category:services-->
<!--character:E116-->
<svg width="24" height="24" viewBox="0 0 24 24" xmlns="http://www.w3.org/2000/svg"><path d="M6.4642 8.7856c-.0534-.1067-.1309-.2325-.1784-.3167-.6672-.7895-.6127-1.96.125-2.6841a.8333.8333 0 0 1 1.1784 1.1775.2875.2875 0 0 0-.0534.3333c.0534.1067.1284.2333.1784.3167.6672.7895.6127 1.96-.125 2.6841A.8333.8333 0 1 1 6.4108 9.119a.2875.2875 0 0 0 .0534-.3333zm9.8216-1.1733c.0475-.0842.1259-.21.1784-.3167a.2875.2875 0 0 0-.0534-.3333.8333.8333 0 0 1 1.1784-1.1784c.7377.7242.7922 1.8946.125 2.6842-.05.0842-.125.21-.1784.3167a.2875.2875 0 0 0 .0534.3333.8333.8333 0 0 1-1.1784 1.1783c-.7377-.7241-.7922-1.8946-.125-2.6841zM11.41 8.7014c.7375-.7375.5508-.9908-.0783-1.8308-.6292-.84-1.6817-2.2458.0791-4.0067a.8333.8333 0 0 1 1.1784 1.1784c-.74.7441-.5517.9958.0766 1.8333.6284.8375 1.6809 2.2442-.0758 4.0042a.8338.8338 0 0 1-1.18-1.1784zM4.2183 16.374H4.22a.4167.4167 0 0 1-.3925-.5566 2.4167 2.4167 0 0 1 .6667-.9934 4.8275 4.8275 0 0 1 3.0225-.9725.8333.8333 0 0 0 .6875-.3941A4.3025 4.3025 0 0 1 12 11.3739a4.3025 4.3025 0 0 1 3.7975 2.0867.8333.8333 0 0 0 .6875.3942 4.8333 4.8333 0 0 1 3.0225.9691c.302.27.5312.6116.6667.9934a.4167.4167 0 0 1-.3925.5566H4.2183zm17.1567 1.0417a.625.625 0 1 1 0 1.25h-.8442a.8333.8333 0 0 0-.79.5667l-.4708 1.3975a1.2584 1.2584 0 0 1-1.1408.7441H5.8708a1.2425 1.2425 0 0 1-1.1183-.6908l-.4917-1.4517a.8333.8333 0 0 0-.7891-.5658H2.625a.625.625 0 0 1 0-1.25h18.75z"/></svg>