<!--description:Use for meal on board, don't use for restaurants-->
<!--category:services-->
<!--character:E116-->
<svg width="24" height="24" viewBox="0 0 24 24" version="1.1" xmlns="http://www.w3.org/2000/svg"><path d="M17,13 C18.654,13 20,14.346 20,16 L4,16 C4,14.346 5.346,13 7,13 C7.307,13 7.61,13.049 7.9,13.142 C8.821,11.814 10.336,11 12,11 C13.664,11 15.179,11.814 16.1,13.142 C16.39,13.049 16.693,13 17,13 Z M2,17 L22,17 L22,19 L19.535,19 L17.832,21.555 C17.646,21.833 17.334,22 17,22 L7,22 C6.666,22 6.354,21.833 6.168,21.555 L4.465,19 L2,19 L2,17 Z M7.707,8.293 L6.293,9.707 C3.94,7.354 5.004,4.582 6.293,3.293 L7.711,4.703 C7.415,5.007 6.023,6.609 7.707,8.293 Z M11.293,6.293 C12.472,5.113 11.587,4.011 11.287,3.701 L12.707,2.293 C13.795,3.381 14.693,5.721 12.707,7.707 L11.293,6.293 Z M17.4043,8.293 C18.8083,6.889 17.2953,4.578 17.2793,4.555 L18.9433,3.445 C19.7923,4.719 20.8593,7.667 18.8183,9.707 L17.4043,8.293 Z" id="path-1"></path></svg>