<svg width="24" height="24" viewBox="0 0 24 24" version="1.1" xmlns="http://www.w3.org/2000/svg"><path id="menu-kebab-a" d="M12,7 C10.8954305,7 10,6.1045695 10,5 C10,3.8954305 10.8954305,3 12,3 C13.1045695,3 14,3.8954305 14,5 C14,6.1045695 13.1045695,7 12,7 Z M12,14 C10.8954305,14 10,13.1045695 10,12 C10,10.8954305 10.8954305,10 12,10 C13.1045695,10 14,10.8954305 14,12 C14,13.1045695 13.1045695,14 12,14 Z M12,20.999 C10.8954305,20.999 10,20.1035695 10,18.999 C10,17.8944305 10.8954305,16.999 12,16.999 C13.1045695,16.999 14,17.8944305 14,18.999 C14,20.1035695 13.1045695,20.999 12,20.999 Z"/></svg>