<!--category:basic-->
<!--character:E135-->
<svg width="24" height="24" viewBox="0 0 24 24" xmlns="http://www.w3.org/2000/svg"><path d="M14.0833 12.0167c-1.6078.0063-2.9809 1.1619-3.2616 2.745a.2075.2075 0 0 1-.205.1716h-.8334a.2058.2058 0 0 0-.1566.0717l-2.73 3.1192a.4167.4167 0 0 1-.73-.2742v-2.9167H5.75c-2.071 0-3.75-1.6789-3.75-3.75V7.85c.0023-2.0701 1.6799-3.7477 3.75-3.75h8.3333c2.0701.0023 3.7477 1.6799 3.75 3.75v3.9583a.2083.2083 0 0 1-.2083.2084h-3.5417zM22 15.35v2.5a2.0833 2.0833 0 0 1-2.0833 2.0833h-1.25v2.0834a.4167.4167 0 0 1-.7117.295l-2.3775-2.3784h-1.4942C12.9327 19.9333 12 19.0006 12 17.85v-2.5c0-1.1506.9327-2.0833 2.0833-2.0833h5.8334A2.0833 2.0833 0 0 1 22 15.35z"/></svg>