<svg width="24" height="24" viewBox="0 0 24 24" version="1.1" xmlns="http://www.w3.org/2000/svg"><path id="money-transfer-in-a" d="M3,2 C2.448,2 2,2.448 2,3 L2,13 C2,13.552 2.448,14 3,14 L21,14 C21.552,14 22,13.552 22,13 L22,3 C22,2.448 21.552,2 21,2 L3,2 Z M4.9121094,4 L19.087891,4 C19.2390013,4.42591463 19.5740854,4.76099894 20,4.9121094 L20,11.087891 C19.5740855,11.2390014 19.2390014,11.5740855 19.087891,12 L4.9121094,12 C4.76099894,11.5740854 4.42591463,11.2390013 4,11.087891 L4,4.9121094 C4.42591472,4.76099904 4.76099904,4.42591472 4.9121094,4 Z M12,5 C10.3431458,5 9,6.34314575 9,8 C9,9.65685425 10.3431458,11 12,11 C13.6568542,11 15,9.65685425 15,8 C15,6.34314575 13.6568542,5 12,5 Z M7,7 C6.448,7 6,7.447 6,8 C6,8.553 6.448,9 7,9 C7.552,9 8,8.553 8,8 C8,7.447 7.552,7 7,7 Z M17,7 C16.448,7 16,7.447 16,8 C16,8.553 16.448,9 17,9 C17.552,9 18,8.553 18,8 C18,7.447 17.552,7 17,7 Z M11,16 L11,18 L7.9511719,18 L11.951172,22 L15.951172,18 L13,18 L13,16 L11,16 Z"/></svg>