<svg width="24" height="24" viewBox="0 0 24 24" version="1.1" xmlns="http://www.w3.org/2000/svg"><path id="money-a" d="M8,16.0005 L3,11.0005 L3,6.0005 L14,6.0005 L19,11.0005 L19,16.0005 L8,16.0005 Z M22,8.0005 L24,8.0005 L24,21.0005 L5,21.0005 L5,19.0005 L22,19.0005 L22,8.0005 Z M11,8.0005 C9.343,8.0005 8,9.3435 8,11.0005 C8,12.6575 9.343,14.0005 11,14.0005 C12.657,14.0005 14,12.6575 14,11.0005 C14,9.3435 12.657,8.0005 11,8.0005 Z M21,4.0005 L1,4.0005 L1,18.0005 L21,18.0005 L21,4.0005 Z"/></svg>