<!--category:services-->
<!--character:E086-->
<svg width="24" height="24" viewBox="0 0 24 24" version="1.1" xmlns="http://www.w3.org/2000/svg"><path d="M21.799,7.94848131 C22.064,8.21448131 22.158,8.60448131 22.044,8.96148131 C21.93,9.31848131 21.626,9.58048131 21.257,9.64348131 L16.517,9.80248131 C16.632,9.88648131 16.747,9.96848131 16.849,10.0704813 L18.263,11.4844813 C18.83,12.0514813 19.142,12.8044813 19.142,13.6054813 C19.142,14.4064813 18.83,15.1594813 18.263,15.7274813 L16.849,14.3124813 C17.239,13.9234813 17.239,13.2894813 16.849,12.8984813 L15.435,11.4844813 C15.045,11.0944813 14.41,11.0944813 14.021,11.4844813 L8.364,17.1414813 C7.974,17.5324813 7.974,18.1664813 8.364,18.5554813 L9.778,19.9704813 C10.168,20.3604813 10.803,20.3604813 11.193,19.9704813 L12.607,21.3844813 C12.04,21.9504813 11.287,22.2624813 10.485,22.2624813 C9.684,22.2624813 8.93,21.9504813 8.364,21.3844813 L6.95,19.9704813 C6.704,19.7254813 6.516,19.4384813 6.371,19.1344813 L5.536,19.9704813 L6.243,20.6774813 L3.414,22.0914813 L2,20.6774813 L3.414,17.8474813 L4.122,18.5554813 L14.261,8.41648131 L14.448,2.83548131 C14.511,2.46548131 14.773,2.16148131 15.13,2.04748131 C15.487,1.93348131 15.877,2.02848131 16.142,2.29248131 L21.799,7.94848131 Z M10.4857,17.8478813 L11.8997,16.4338813 L15.4357,19.9708813 L14.0207,21.3848813 L10.4857,17.8478813 Z M13.3137,15.0196813 L14.7277,13.6046813 L18.2637,17.1406813 L16.8497,18.5556813 L13.3137,15.0196813 Z" id="path-1"></path></svg>