<!--category:navigation-->
<!--character:E05E-->
<svg width="24" height="24" viewBox="0 0 24 24" xmlns="http://www.w3.org/2000/svg"><path d="M20.5 9.9001v8.6c0 1.1-.9 2-2 2h-13c-1.1 0-2-.9-2-2v-13c0-1.1.9-2 2-2H14c.6 0 1 .4 1 1s-.4 1-1 1H5.8c-.1 0-.2.1-.2.2v12.4c0 .1.1.2.2.2h12.5c.1 0 .2-.1.2-.2v-8.2c0-.5.5-.9 1-.9s1 .4 1 .9zM21.9004 7.8c-.101.1-.301.1-.4.1-.3 0-.5-.1-.701-.3l-.899-.9c-.101-.1-.301-.1-.4 0l-7.1 7.1c-.5.5-1.3.5-1.8 0s-.5-1.3 0-1.8l7.1-7.1c.099-.1.099-.3 0-.4l-.901-.9c-.2-.2-.299-.4-.299-.7 0-.6.4-1 1-1h4c.599 0 1 .4 1 1v4c0 .4-.201.8-.6.9z"/></svg>