<!--category:navigation-->
<!--character:E05E-->
<svg width="24" height="24" viewBox="0 0 24 24" xmlns="http://www.w3.org/2000/svg"><path d="M12.92726 5.692071c.502578 0 .91.407421.91.91 0 .50258-.407422.91-.91.91H5.49c-.049706 0-.09.040294-.09.09V18.51c0 .049706.040294.09.09.09h10.906575c.049706 0 .09-.040294.09-.09v-7.430915c0-.502579.40742-.91.91-.91.502579 0 .91.407421.91.91V18.51c0 1.054864-.855136 1.91-1.91 1.91H5.49c-1.054864 0-1.91-.855136-1.91-1.91V7.602071c0-1.054864.855136-1.91 1.91-1.91zM19.662912 3.58c.452604 0 .7556.30224.7556.7556v3.022404c0 .30224-.151875.60448-.45336.68004-.076316.07556-.227436.07556-.30224.07556-.22668 0-.3778-.07556-.529677-.22668l-.679285-.68004c-.076315-.07556-.227435-.07556-.30224 0l-5.364766 5.364766c-.3778.3778-.98228.3778-1.360081 0-.3778-.3778-.3778-.982281 0-1.360082l5.364765-5.364766c.074805-.07556.074805-.22668 0-.30224l-.680796-.68004c-.15112-.15112-.225924-.30224-.225924-.528921 0-.45336.30224-.755601.7556-.755601z"/></svg>
