<svg width="24" height="24" viewBox="0 0 24 24" version="1.1" xmlns="http://www.w3.org/2000/svg"><path id="new-window-a" d="M17.4444444,17.4444444 L6.55555556,17.4444444 L6.55555556,6.55555556 L12,6.55555556 L12,5 L6.55555556,5 C5.69222222,5 5,5.7 5,6.55555556 L5,17.4444444 C5,18.3 5.69222222,19 6.55555556,19 L17.4444444,19 C18.3,19 19,18.3 19,17.4444444 L19,12 L17.4444444,12 L17.4444444,17.4444444 L17.4444444,17.4444444 Z M13.5555556,5 L13.5555556,6.55555556 L16.3477778,6.55555556 L8.70222222,14.2011111 L9.79888889,15.2977778 L17.4444444,7.65222222 L17.4444444,10.4444444 L19,10.4444444 L19,5 L13.5555556,5 L13.5555556,5 Z"/></svg>