<!--category:navigation-->
<!--character:E05E-->
<svg width="24" height="24" viewBox="0 0 24 24" xmlns="http://www.w3.org/2000/svg"><path d="M13.97726 3.642071c.502578 0 .91.407421.91.91 0 .50258-.407422.91-.91.91H5.54c-.049706 0-.09.040294-.09.09V18.46c0 .049706.040294.09.09.09h12.906575c.049706 0 .09-.040294.09-.09v-8.430915c0-.502579.40742-.91.91-.91.502579 0 .91.407421.91.91V18.46c0 1.054864-.855136 1.91-1.91 1.91H5.54c-1.054864 0-1.91-.855136-1.91-1.91V5.552071c0-1.054864.855136-1.91 1.91-1.91zM21.468512 1.53c.599 0 1 .4 1 1v4c0 .4-.201.8-.6.9-.101.1-.301.1-.4.1-.3 0-.5-.1-.701-.3l-.899-.9c-.101-.1-.301-.1-.4 0l-7.1 7.1c-.5.5-1.3.5-1.8 0s-.5-1.3 0-1.8l7.1-7.1c.099-.1.099-.3 0-.4l-.901-.9c-.2-.2-.299-.4-.299-.7 0-.6.4-1 1-1z"/></svg>
