<svg width="24" height="24" viewBox="0 0 24 24" version="1.1" xmlns="http://www.w3.org/2000/svg"><path d="M2.5713,7.5713 C3.9893,7.5713 5.1433,8.7253 5.1433,10.1423 C5.1433,11.4093 3.8763,13.1703 2.8083,14.4283 L5.1433,14.4283 L5.1433,16.1423 L0.8573,16.1423 C0.5103,16.1423 0.1983,15.9343 0.0653,15.6143 C-0.0677,15.2943 0.0063,14.9253 0.2513,14.6793 C1.7793,13.1503 3.4283,10.9803 3.4283,10.1423 C3.4283,9.6703 3.0443,9.2853 2.5713,9.2853 C2.0993,9.2853 1.7143,9.6703 1.7143,10.1423 L1.7143,11.0003 L0.0003,11.0003 L0.0003,10.1423 C0.0003,8.7253 1.1533,7.5713 2.5713,7.5713 Z M10.2853,8.4288 L10.2853,12.7148 L11.1433,12.7148 L11.1433,14.4288 L10.2853,14.4288 L10.2853,16.1438 L8.5713,16.1438 L8.5713,14.4288 L6.0003,14.4288 C5.6843,14.4288 5.3933,14.2558 5.2443,13.9768 C5.0953,13.6978 5.1113,13.3598 5.2873,13.0968 L8.7153,7.9538 C8.9253,7.6398 9.3163,7.4978 9.6763,7.6088 C10.0383,7.7188 10.2853,8.0518 10.2853,8.4288 Z M8.5713,12.7148 L8.5713,11.2608 L7.6013,12.7148 L8.5713,12.7148 Z M23.8525,7.9492 C24.0115,8.1842 24.0445,8.4842 23.9385,8.7482 L20.9795,16.1432 L19.1345,16.1432 L21.8765,9.2862 L18.8565,9.2862 L18.8565,7.5732 L23.1425,7.5732 C23.4275,7.5732 23.6925,7.7132 23.8525,7.9492 Z M11.9951,17.0005 L16.1091,6.7155 L17.9561,6.7155 L13.8411,17.0005 L11.9951,17.0005 Z" id="path-1"></path></svg>