<!--category:time-->
<!--character:E120-->
<svg width="24" height="24" viewBox="0 0 24 24" xmlns="http://www.w3.org/2000/svg"><path d="M6.001073 5.810297l.13386.118015L7.9041 7.69687c.77263.773327.811262 2.002878.115894 2.821827l-.115894.125769-1.321667 1.32186a39.09572 39.09572 0 0 0 4.247191 4.333112l.576975.49394 1.321667-1.321025c.390717-.391053.920704-.610753 1.473334-.610753.491226 0 .964562.17359 1.338096.486815l.135237.123938 1.764167 1.768558c.77263.773327.811262 2.002878.115894 2.821827l-.115894.12577-.97.97058c-.98682.963129-2.507774 1.116353-3.666667.369387-4.34387-2.88677-8.067113-6.613374-10.950833-10.960722-.724357-1.10085-.619743-2.542026.233853-3.524957l.133647-.143903.97-.97058c.78031-.747428 1.986801-.786766 2.811973-.118016zm6.43913-.796054c1.42411-.143766 2.725479.815387 3.010563 2.218889.315834 1.55593-.555833 2.324723-1.325833 3.001795l-1.154167 1.019776h2.0925c.460237 0 .833334.37332.833334.833832 0 .460513-.373096.833832-.833334.833832H10.7666c-.346664.000196-.657242-.214373-.779897-.538808-.122656-.324435-.031768-.690963.22823-.920398L13.0241 8.981677c.766666-.673736.906666-.855511.793333-1.417514-.114724-.564026-.637819-.949377-1.210147-.891486-.572328.05789-1.007763.540198-1.007353 1.115787 0 .460512-.373096.833832-.833334.833832-.459587 0-.832414-.372303-.833333-.832165-.00084-1.432196 1.082827-2.632122 2.506937-2.775888zm8.949672.733653l.006007.105509V9.67h.38548c.469442 0 .85.380558.85.85 0 .433331-.324262.790927-.743378.843377l-.106622.006623h-.38548v.700607c0 .469442-.380558.85-.85.85-.433331 0-.790926-.324263-.843377-.743378l-.006623-.106622V11.37h-3.061508c-.68571 0-1.074948-.760667-.714618-1.311015l.06319-.085008 3.911508-4.666595c.486739-.5807 1.412286-.278549 1.49542.440514zm-1.693993 2.4428L18.45594 9.67h1.239943V8.190696z"/></svg>
