<!--category:time-->
<!--character:E120-->
<svg width="24" height="24" viewBox="0 0 24 24" xmlns="http://www.w3.org/2000/svg"><path d="M16.305 15.4724l1.7641 1.7685c.8133.814.8133 2.1336 0 2.9476l-.97.9706c-.9868.9631-2.5078 1.1163-3.6667.3694A39.1326 39.1326 0 0 1 2.4816 10.5678c-.7606-1.156-.6072-2.687.3675-3.669l.97-.9705c.8237-.789 2.1222-.789 2.9458 0L8.5341 7.697c.8133.814.8133 2.1335 0 2.9476l-.3217.3218a39.095 39.095 0 0 0 4.8242 4.827l.3217-.321a2.0827 2.0827 0 0 1 2.9466 0zM21.164 2.001a.833.833 0 0 1 .5893.2442.834.834 0 0 1 .244.5896v6.2537c0 .4605-.373.8339-.8333.8339-.4602 0-.8333-.3734-.8333-.8339V8.359h-3.075c-.4603 0-.8334-.3733-.8334-.8338V6.743c.0032-2.6186 2.1247-4.7402 4.7417-4.742zm-.8333 4.6903V3.7829c-1.305.3706-2.2147 1.5512-2.2409 2.9084h2.2409zm-8.9342-1.069c-.4596 0-.8324-.3723-.8333-.8322-.0009-1.4322 1.0828-2.632 2.5069-2.7759 1.4241-.1437 2.7255.8154 3.0106 2.219.3158 1.5559-.5559 2.3247-1.3259 3.0017l-1.1541 1.0198h2.0925c.4602 0 .8333.3733.8333.8338 0 .4605-.3731.8339-.8333.8339h-4.2967a.8333.8333 0 0 1-.7799-.5388.8342.8342 0 0 1 .2282-.9204l2.8092-2.4815c.7667-.6738.9067-.8555.7933-1.4175a1.12 1.12 0 0 0-1.2101-.8915 1.1204 1.1204 0 0 0-1.0074 1.1158c0 .4605-.373.8338-.8333.8338z"/></svg>