<!--character:E195-->
<svg width="24" height="24" viewBox="0 0 24 24" xmlns="http://www.w3.org/2000/svg"><path d="M9.5767 19.5h3.75c.0666 0 .1333.0533.2.1173l.05.0494v.25c0 1.1666-.9167 2.0833-2.0834 2.0833-1.116 0-2.0031-.8387-2.0782-1.9326l-.0051-.1507v-.25c0-.0667.0533-.1334.1173-.1574l.0494-.0093h3.75zM11.4933 2c.5 0 .8334.3333.8334.8333v.5c-.6667.9167-1.0834 2.0834-1.0834 3.3334 0 3.1666 2.5834 5.75 5.75 5.75.25 0 .5-.0834.75-.0834v3c0 .6667.5834 1.25 1.25 1.25.4167 0 .8334.3334.8334.8334s-.3334.8333-.8334.8333h-15c-.5 0-.8333-.3333-.8333-.8333s.3333-.8334.8333-.8334c.6667 0 1.25-.5833 1.25-1.25V11.25C5.0767 8 7.41 5.1667 10.66 4.5833v-1.75c0-.5.3333-.8333.8333-.8333zm5.5017 0c2.531.0031 4.5819 2.054 4.585 4.585 0 2.5322-2.0528 4.585-4.585 4.585S12.41 9.1172 12.41 6.585 14.4628 2 16.995 2zm0 1.4108a.7055.7055 0 0 0-.699.6096l-.0064.0958v1.4107a.3528.3528 0 0 1-.2816.3455l-.071.0072h-1.4108a.7054.7054 0 0 0-.0958 1.4043l.0958.0065h1.4107a.3528.3528 0 0 1 .3455.2816l.0072.071v1.4108a.7054.7054 0 0 0 1.4043.0958l.0065-.0958V7.6431a.3528.3528 0 0 1 .2816-.3455l.071-.0072h1.4108a.7054.7054 0 0 0 .0958-1.4043l-.0958-.0065h-1.4107a.3528.3528 0 0 1-.3455-.2816l-.0072-.071V4.1161a.7054.7054 0 0 0-.7054-.7054z"/></svg>
