<!--character:E195-->
<svg width="24" height="24" viewBox="0 0 24 24" xmlns="http://www.w3.org/2000/svg"><path d="M13.326667 19.5c.083333 0 .166666.083333.25.166667v.25C13.576667 21.083333 12.66 22 11.493333 22 10.326667 22 9.41 21.083333 9.41 19.916667v-.25c0-.083334.083333-.166667.166667-.166667zM11.493333 2c.461539 0 .781065.284024.827492.720983l.005842.11235-.00047.41712C10.709824 4.432918 9.66 6.34386 9.66 8.5c0 3.58985 2.91015 6.5 6.5 6.5.546282 0 1.076823-.06739 1.583766-.19431l-.000433.527643c0 .666667.583334 1.25 1.25 1.25.416667 0 .833334.333334.833334.833334 0 .461538-.284024.781065-.720983.827492l-.11235.005841h-15c-.5 0-.833334-.333333-.833334-.833333s.333333-.833334.833333-.833334c.625 0 1.176758-.512695 1.243286-1.126098l.006714-.123902V11.25c-.162601-3.170732 2.054333-5.944874 5.180521-6.619995L10.66 4.583333v-1.75c0-.5.333333-.833333.833333-.833333zM16.25 3.25c2.898019.00356 5.24644 2.351981 5.25 5.25 0 2.899495-2.350505 5.25-5.25 5.25S11 11.399495 11 8.5s2.350505-5.25 5.25-5.25zm0 1.615385c-.446076 0-.807692.361616-.807692.807692v1.615385c0 .223038-.180808.403846-.403847.403846h-1.615384c-.446076 0-.807692.361616-.807692.807692s.361616.807692.807692.807692h1.615385c.223038 0 .403846.180808.403846.403846v1.615385c0 .446076.361616.807692.807692.807692s.807692-.361616.807692-.807692V9.711538c0-.223038.180808-.403846.403847-.403846h1.615384c.446076 0 .807692-.361616.807692-.807692s-.361616-.807692-.807692-.807692h-1.615385c-.223038 0-.403846-.180808-.403846-.403846V5.673077c0-.446076-.361616-.807692-.807692-.807692z"/></svg>
