<!--category:time-->
<!--character:E025-->
<svg width="24" height="24" viewBox="0 0 24 24" xmlns="http://www.w3.org/2000/svg"><path d="M9.576667 19.5h3.75c.066666 0 .133333.053333.2.117333l.05.049334v.25C13.576667 21.083333 12.66 22 11.493333 22c-1.115942 0-2.00315-.83869-2.07819-1.932632L9.41 19.916667v-.25c0-.066667.053333-.133334.117333-.157334L9.576667 19.5h3.75zM11.493333 2c.5 0 .833334.333333.833334.833333v.5C11.66 4.25 11.243333 5.416667 11.243333 6.666667c0 3.166666 2.583334 5.75 5.75 5.75.25 0 .5-.083334.75-.083334v3c0 .666667.583334 1.25 1.25 1.25.416667 0 .833334.333334.833334.833334s-.333334.833333-.833334.833333h-15c-.5 0-.833333-.333333-.833333-.833333s.333333-.833334.833333-.833334c.666667 0 1.25-.583333 1.25-1.25V11.25C5.076667 8 7.41 5.166667 10.66 4.583333v-1.75c0-.5.333333-.833333.833333-.833333zM16.995 2c2.52175 0 4.585 2.06325 4.585 4.585s-2.06325 4.585-4.585 4.585-4.585-2.06325-4.585-4.585S14.47325 2 16.995 2zm1.873836 2.393842l-.067372.076195-2.276666 3.035833a.2075.2075 0 0 1-.266586.058383l-.04758-.035883-1.083334-1.083333c-.157941-.157941-.388146-.219624-.603897-.161814-.215752.05781-.384273.226332-.442084.442083-.049551.18493-.011312.380479.100086.532037l.061728.07186 1.25 1.25c.199695.201326.461142.327265.7401.35936l.140733.00814h.090834c.318553-.021255.614917-.163846.829757-.395406l.08691-.104594L19.79813 5.21837c.21044-.274476.154476-.666226-.121666-.873333-.248529-.186396-.5907-.159705-.80763.048805z"/></svg>
