<!--category:time-->
<!--character:E023-->
<svg width="24" height="24" viewBox="0 0 24 24" version="1.1" xmlns="http://www.w3.org/2000/svg"><path d="M20,18.69 L7.84,6.14 L5.27,3.49 L4,4.76 L6.8,7.56 L6.8,7.57 C6.28,8.56 6,9.73 6,10.99 L6,15.99 L4,17.99 L4,18.99 L17.73,18.99 L19.73,20.99 L21,19.72 L20,18.69 L20,18.69 Z M12,22 C13.11,22 14,21.11 14,20 L10,20 C10,21.11 10.89,22 12,22 L12,22 Z M18,14.68 L18,11 C18,7.92 16.36,5.36 13.5,4.68 L13.5,4 C13.5,3.17 12.83,2.5 12,2.5 C11.17,2.5 10.5,3.17 10.5,4 L10.5,4.68 C10.35,4.71 10.21,4.76 10.08,4.8 C9.98,4.83 9.88,4.87 9.78,4.91 L9.77,4.91 C9.76,4.91 9.76,4.91 9.75,4.92 C9.52,5.01 9.29,5.12 9.07,5.23 C9.07,5.23 9.06,5.23 9.06,5.24 L18,14.68 L18,14.68 Z" id="path-1"></path></svg>