<!--category:time-->
<!--character:E025-->
<svg width="24" height="24" viewBox="0 0 24 24" xmlns="http://www.w3.org/2000/svg"><path d="M16.9933 2c2.5 0 4.5834 2.0833 4.5834 4.5833 0 2.5-2.0834 4.5834-4.5834 4.5834S12.41 9.0833 12.41 6.5833 14.4933 2 16.9933 2zm-.9166 6.75c.1666 0 .3333-.0833.5-.1667l3.1666-3.1666c.25-.25.25-.5834 0-.8334s-.6666-.25-.9166 0L16.16 7.25l-.8333-.8333c-.25-.25-.6667-.25-.9167 0s-.25.6666 0 .9166l1.25 1.25c.0833.0834.25.1667.4167.1667zm-2.75 10.75c.0833 0 .1666.0833.25.1667v.25c0 1.1666-.9167 2.0833-2.0834 2.0833-1.1666 0-2.0833-.9167-2.0833-2.0833v-.25c0-.0834.0833-.1667.1667-.1667h3.75zm5.6666-2.9167c.4167 0 .8334.3334.8334.8334s-.3334.8333-.8334.8333h-15c-.5 0-.8333-.3333-.8333-.8333s.3333-.8334.8333-.8334c.6667 0 1.25-.5833 1.25-1.25V11.25C5.0767 8 7.41 5.1667 10.66 4.5833v-1.75c0-.5.3333-.8333.8333-.8333s.8334.3333.8334.8333v.5c-.6667.9167-1.0834 2.0834-1.0834 3.3334 0 3.1666 2.5834 5.75 5.75 5.75.25 0 .5-.0834.75-.0834v3c0 .6667.5834 1.25 1.25 1.25z"/></svg>
