<!--category:time-->
<!--character:E025-->
<svg width="24" height="24" viewBox="0 0 24 24" xmlns="http://www.w3.org/2000/svg"><path d="M13.326667 19.5c.083333 0 .166666.083333.25.166667v.25C13.576667 21.083333 12.66 22 11.493333 22 10.326667 22 9.41 21.083333 9.41 19.916667v-.25c0-.083334.083333-.166667.166667-.166667zM11.493333 2c.461539 0 .781065.284024.827492.720983l.005842.11235-.00047.41712C10.709824 4.432918 9.66 6.34386 9.66 8.5c0 3.58985 2.91015 6.5 6.5 6.5.546282 0 1.076823-.06739 1.583766-.19431l-.000433.527643c0 .666667.583334 1.25 1.25 1.25.416667 0 .833334.333334.833334.833334 0 .461538-.284024.781065-.720983.827492l-.11235.005841h-15c-.5 0-.833334-.333333-.833334-.833333s.333333-.833334.833333-.833334c.625 0 1.176758-.512695 1.243286-1.126098l.006714-.123902V11.25c-.162601-3.170732 2.054333-5.944874 5.180521-6.619995L10.66 4.583333v-1.75c0-.5.333333-.833333.833333-.833333zM16.25 3.25c2.8875 0 5.25 2.3625 5.25 5.25s-2.3625 5.25-5.25 5.25S11 11.3875 11 8.5s2.3625-5.25 5.25-5.25zm3.07038 2.685157c-.316194-.237146-.764764-.173064-1.00191.14313L15.7116 9.55443a.237596.237596 0 01-.359732.025764L14.11141 8.339737c-.180849-.180849-.444442-.251478-.691485-.185283-.247044.066195-.440008.259158-.506203.506202-.066195.247044.004435.510637.185283.691485l1.431298 1.431298c.266768.268947.629777.420401 1.008588.420802h.104007c.416863-.027815.800543-.237095 1.049619-.57252l2.767175-3.696564c.240962-.314286.17688-.762855-.139313-1z"/></svg>
