<!--category:time-->
<!--character:E018-->
<svg width="24" height="24" viewBox="0 0 24 24" xmlns="http://www.w3.org/2000/svg"><path d="M19.4933 16.5833a.8333.8333 0 0 1 0 1.6667h-15a.8333.8333 0 1 1 0-1.6667c.6904 0 1.25-.5596 1.25-1.25v-4.0516C5.644 8.012 7.9438 5.1583 11.16 4.5608V2.8333a.8333.8333 0 1 1 1.6667 0v1.7275c3.2161.5975 5.516 3.4512 5.4166 6.7209v4.0516c0 .6904.5597 1.25 1.25 1.25zM13.8567 19.5a.2067.2067 0 0 1 .2066.185c.0091.0769.0136.1542.0134.2317 0 1.1506-.9328 2.0833-2.0834 2.0833-1.1506 0-2.0833-.9327-2.0833-2.0833a1.9338 1.9338 0 0 1 .0133-.2317.2083.2083 0 0 1 .2067-.185h3.7267z"/></svg>