<!--category:travel-->
<!--character:E00E-->
<!--added:0.11-->
<svg xmlns="http://www.w3.org/2000/svg" width="24" height="24" viewBox="0 0 24 24"><path id="online-checkin-off-a" d="M14,17 L16,17 L16,20 C16,21.104 15.104,22 14,22 L6,22 C4.896,22 4,21.104 4,20 L4,4 C4,2.896 4.896,2 6,2 L14,2 C15.104,2 16,2.895 16,4 L16,7 L14,7 L14,6 L6,6 L6,18 L14,18 L14,17 Z M19.707,9.707 L17.414,12 L19.707,14.293 L18.293,15.707 L16,13.414 L13.707,15.707 L12.293,14.293 L14.586,12 L12.293,9.707 L13.707,8.293 L16,10.586 L18.293,8.293 L19.707,9.707 Z"/></svg>
