<svg width="24" height="24" viewBox="0 0 24 24" version="1.1" xmlns="http://www.w3.org/2000/svg"><path d="M22,12 L20,12 L20,17 L10,17 L10,19 L4,19 C2.89,19 2,18.11 2,17 L2.01,5 C2.01,3.89 2.89,3 4,3 L20,3 C21.11,3 22,3.89 22,5 L22,12 Z M20,17 L20,5 L4,5 L4,17 L10,17 L20,17 Z M13,15 L14,15 C14.55,15 15,14.55 15,14 L15,11 C15,10.45 14.55,10 14,10 L11,10 L11,9 L15,9 L15,7 L13,7 L13,6 L11,6 L11,7 L10,7 C9.45,7 9,7.45 9,8 L9,11 C9,11.55 9.45,12 10,12 L13,12 L13,13 L9,13 L9,15 L11,15 L13,15 Z M21.5,13.5 L23,15 L16.01,22 L11.5,17.5 L13,16 L16.01,19 L21.5,13.5 L21.5,13.5 Z" id="path-1"></path></svg>