<!--category:services-->
<!--character:E03E-->
<svg width="24" height="24" viewBox="0 0 24 24" xmlns="http://www.w3.org/2000/svg"><path d="M11.9517 2H9.1198C7.173 2 5.58 3.593 5.58 5.5398v14.3363C5.58 21.0265 6.5535 22 7.7039 22c1.1504 0 2.1239-.9735 2.1239-2.1239v-4.6903c0-.177.177-.354.354-.354h1.7699c3.5398 0 6.4602-2.9203 6.4602-6.4601C18.4119 4.8319 15.4915 2 11.9517 2zm0 8.584h-1.77c-.177 0-.354-.177-.354-.354V6.6904c0-.177.177-.354.354-.354h1.77c1.1504 0 2.1239.9734 2.1239 2.1239 0 1.1504-.9735 2.1239-2.124 2.1239z"/></svg>