<svg width="24" height="24" viewBox="0 0 24 24" version="1.1" xmlns="http://www.w3.org/2000/svg"><path id="partners-a" d="M21.3617016,7.37899349 L19.606808,7.37899349 C19.3412548,7.3806697 19.0794778,7.44204186 18.8408506,7.55856796 C18.7874173,7.58416663 18.7257301,7.58632568 18.6706378,7.5645254 L15.0110635,6.16452544 C14.2942112,5.90874866 13.5045339,5.95261962 12.8204252,6.28622757 L11.0136168,7.16282329 C10.9484196,7.19543428 10.8710936,7.19254658 10.8085104,7.15516371 C10.127137,6.75004573 9.29546205,6.68706391 8.56085088,6.98495095 L6.01361691,8.07090837 C5.92825188,8.10772138 5.82886103,8.0845992 5.76851053,8.01388709 C5.42519759,7.61102197 4.92249671,7.37895832 4.39319142,7.37899349 L2.63829785,7.37899349 C2.28577568,7.37899349 2,7.66476918 2,8.01729135 L2,16.1023975 C2,16.4549197 2.28577568,16.7406954 2.63829785,16.7406954 L4.39319142,16.7406954 C4.97839549,16.7403403 5.52715042,16.4564469 5.86553181,15.9789933 C5.90508445,15.9241249 5.96812065,15.8910309 6.03574457,15.8896316 L6.82808497,15.8896316 C6.8758207,15.8897499 6.9221857,15.9056037 6.95999986,15.9347379 L9.33787213,17.8070783 L9.35659554,17.8232485 C9.95717607,18.4227522 10.9148675,18.4680584 11.5693614,17.9279294 L14.1710635,15.7934613 C14.1982229,15.7713429 14.2303503,15.7561555 14.2646805,15.749206 L17.579574,15.0862273 C17.6357447,15.0751769 17.6940004,15.0871346 17.7412761,15.1194188 C17.788235,15.1520244 17.820366,15.2019039 17.8306378,15.2581422 C17.9841752,16.1174729 18.7321675,16.7427729 19.6051059,16.7415464 L21.3617016,16.7415464 C21.7142237,16.7415464 21.9999994,16.4557707 21.9999994,16.1032486 L21.9999994,8.01814241 C22.0002253,7.84870789 21.933076,7.6861356 21.8133475,7.5662474 C21.6936189,7.4463592 21.5311363,7.37899334 21.3617016,7.37899349 Z M14.3693614,13.4326103 L13.4051061,14.2385678 L13.3855316,14.2530359 C13.3483039,14.2784066 13.3132858,14.3068766 13.2808507,14.3381422 L13.2731912,14.3449507 L10.6876593,16.5075039 C10.6190981,16.5627255 10.521327,16.5627255 10.4527657,16.5075039 L7.72936154,14.361972 C7.57907016,14.2441533 7.39352059,14.180305 7.20255304,14.1806954 L6.41531902,14.1806954 C6.35882059,14.1809228 6.30457054,14.1585795 6.26461979,14.1186287 C6.22466904,14.078678 6.20232571,14.0244279 6.20255307,13.9679295 L6.20255307,9.98069555 C6.20243838,9.89559197 6.25344584,9.81874521 6.33191477,9.78580194 L9.20680831,8.56112112 L9.21191469,8.56112112 C9.27911092,8.5346312 9.3554955,8.54820564 9.40945046,8.59622555 C9.46340542,8.64424546 9.48574952,8.71853955 9.46723383,8.78835516 C9.34519508,9.25154817 9.37502659,9.74167984 9.55234021,10.186653 C9.77316901,10.7445008 10.2062585,11.1919757 10.7565955,11.4309083 C11.0384546,11.5526778 11.3423238,11.6152476 11.6493614,11.6147381 C11.9386662,11.6146789 12.2253695,11.56011 12.4944678,11.453887 L12.6289359,11.3985678 C12.7119129,11.3647299 12.8071972,11.3865091 12.8672337,11.4530359 L14.3889358,13.1304827 C14.4282276,13.1731929 14.4482841,13.2301483 14.4444237,13.2880542 C14.4405633,13.3459602 14.4131238,13.3997492 14.3685103,13.4368657 L14.3693614,13.4326103 Z M17.7974464,13.1321848 C17.797467,13.2333058 17.7263115,13.3204713 17.6272336,13.3406955 L16.5106379,13.5636742 C16.4471611,13.5768528 16.3811602,13.5598811 16.3319145,13.5177167 C16.2818472,13.4756364 16.2539151,13.4128676 16.2561698,13.347504 C16.2645339,12.9445721 16.1317686,12.5513942 15.8808507,12.2360146 L15.8697868,12.2223976 L13.6263826,9.75431258 C13.3774083,9.50359484 13.0059637,9.41935651 12.6731912,9.53814237 L11.8578721,9.87261045 C11.7213231,9.92667366 11.5688804,9.92422027 11.4341418,9.86579099 C11.2994032,9.8073617 11.1934286,9.6977526 11.1395742,9.56112109 C11.0332297,9.29940056 11.1439314,8.99976802 11.3948934,8.87005728 L13.5702124,7.81048284 C13.8334565,7.68392078 14.1356021,7.66469333 14.4127656,7.75686582 L17.6808506,9.00792962 C17.7481651,9.03307332 17.7924387,9.09778094 17.7914889,9.16963174 L17.7974464,13.1321848 Z"/></svg>