<!--category:travel-->
<!--character:Q-->
<svg width="24" height="24" viewBox="0 0 24 24" version="1.1" xmlns="http://www.w3.org/2000/svg"><path d="M7.05,3 C6.05588745,3 5.25,3.80588745 5.25,4.8 L5.25,19.2 C5.25,20.1941125 6.05588745,21 7.05,21 L17.85,21 C18.8441125,21 19.65,20.1941125 19.65,19.2 L19.65,4.8 C19.65,3.80588745 18.8441125,3 17.85,3 L7.05,3 Z M12.45,5.7 C14.9352814,5.7 16.95,7.71471863 16.95,10.2 C16.95,12.6852814 14.9352814,14.7 12.45,14.7 C9.96471863,14.7 7.95,12.6852814 7.95,10.2 C7.95,7.71471863 9.96471863,5.7 12.45,5.7 Z M12.45,6.6 C12.081,7.158 11.775,7.761 11.586,8.4 L13.314,8.4 C13.125,7.761 12.828,7.158 12.45,6.6 Z M11.28,6.798 C10.452,7.077 9.75,7.653 9.336,8.4 L10.65,8.4 C10.812,7.842 11.01,7.302 11.28,6.798 Z M13.611,6.798 C13.881,7.302 14.088,7.842 14.25,8.4 L15.564,8.4 C15.15,7.653 14.439,7.086 13.611,6.798 Z M8.967,9.3 C8.895,9.588 8.85,9.885 8.85,10.2 C8.85,10.515 8.895,10.812 8.967,11.1 L10.488,11.1 C10.452,10.803 10.425,10.506 10.425,10.2 C10.425,9.894 10.452,9.597 10.488,9.3 L8.967,9.3 Z M11.397,9.3 C11.352,9.588 11.325,9.894 11.325,10.2 C11.325,10.506 11.352,10.803 11.397,11.1 L13.503,11.1 C13.539,10.803 13.575,10.506 13.575,10.2 C13.575,9.894 13.539,9.588 13.503,9.3 L11.397,9.3 Z M14.412,9.3 C14.448,9.597 14.475,9.894 14.475,10.2 C14.475,10.506 14.448,10.803 14.412,11.1 L15.933,11.1 C16.005,10.812 16.05,10.515 16.05,10.2 C16.05,9.885 16.005,9.588 15.933,9.3 L14.412,9.3 Z M9.336,12 C9.75,12.747 10.452,13.314 11.28,13.602 C11.01,13.098 10.812,12.567 10.65,12 L9.336,12 Z M11.586,12 C11.775,12.648 12.081,13.242 12.45,13.8 C12.828,13.242 13.125,12.648 13.314,12 L11.586,12 Z M14.25,12 C14.088,12.567 13.881,13.098 13.611,13.602 C14.439,13.314 15.15,12.747 15.564,12 L14.25,12 Z M7.95,16.5 L16.95,16.5 L16.95,18.3 L7.95,18.3 L7.95,16.5 Z" id="path-1"></path></svg>