<!--description:Non-selected version for mobile menu-->
<!--category:travel-->
<!--character:E137-->
<!--added:0.11-->
<svg width="24" height="24" viewBox="0 0 24 24" xmlns="http://www.w3.org/2000/svg"><path d="M3.6807 20.3185h16.7227c-.084-1.0916-.2521-2.184-.7563-3.1924-.4202-.8404-2.269-1.5127-4.6219-2.4379l-.9244-.252-.168-.1681c-.168-.2521-.3362-.5034-.3362-.7555-.084-.505-.084-1.1773.084-1.7655l.0841-.1681.168-.168c1.0085-1.0925 1.5127-2.521 1.3446-4.0337 0-2.2689-1.3445-3.7815-3.1933-3.7815-1.8487 0-3.2773 1.5126-3.2773 3.6975-.168 1.5126.3362 3.0252 1.3446 4.1176l.084.168.084.1682c.168.5882.2521 1.2605.084 1.8487 0 .169-.168.5042-.336.6723l-.0841.168-.9244.337c-2.353.8403-4.2017 1.5958-4.7059 2.4361-.4201.9253-.6722 2.0177-.6722 3.1093zm16.9748 1.6807H3.3445C2.5882 21.9992 2 21.4109 2 20.6555c0-1.4286.3361-2.858.8403-4.2017.7563-1.5135 2.7731-2.269 5.6303-3.2782l.3361-.0832v-.673C7.5462 10.9907 6.958 9.1428 7.1261 7.2932 7.126 4.268 9.1429 2 12 2s4.874 2.268 4.874 5.3773c.168 1.7656-.4202 3.6975-1.6807 5.042-.084.2521-.084.4202 0 .6731l.3361.0832c2.8572 1.0093 4.874 1.7647 5.6303 3.2782v.0832c.5882 1.3445.8403 2.6899.8403 4.1185 0 .7554-.5882 1.3437-1.3445 1.3437z"/></svg>