<!--description:Non-selected version for mobile menu-->
<!--category:travel-->
<!--character:E137-->
<!--added:0.11-->
<svg width="24" height="24" viewBox="0 0 24 24" version="1.1" xmlns="http://www.w3.org/2000/svg"><path id="passenger-outline-a" d="M12,12 C9.794,12 8,10.206 8,8 C8,5.795 9.794,4 12,4 C14.206,4 16,5.795 16,8 C16,10.206 14.206,12 12,12 Z M12,6 C10.897,6 10,6.896 10,8 C10,9.103 10.897,10 12,10 C13.103,10 14,9.103 14,8 C14,6.896 13.103,6 12,6 Z M20,20 L4,20 L4,19 C4,15.467 7.29,13 12,13 C16.71,13 20,15.467 20,19 L20,20 Z M6.159,18 L17.842,18 C17.244,16.192 15.009,15 12.001,15 C8.993,15 6.757,16.192 6.159,18 Z"/></svg>