<!--category:services-->
<!--character:E043-->
<svg width="24" height="24" viewBox="0 0 24 24" version="1.1" xmlns="http://www.w3.org/2000/svg"><path d="M23,7 C23,8.721 22.126,10.24 20.799,11.141 C20.924,11.402 21,11.691 21,12 L21,19 C21,19.553 20.552,20 20,20 C19.447,20 19,19.553 19,19 L19,18 C19,16.896 18.104,16 17,16 L12,16 C10.896,16 10,16.896 10,18 L10,19 C10,19.553 9.552,20 9,20 C8.447,20 8,19.553 8,19 L8,12 L7,10 L4.5,10 C3.672,10 3,9.328 3,8.5 C3,7.672 3.672,7 4.5,7 L6.5,7 L8,4 L11.429,10 L18,10 C19.654,10 21,8.654 21,7 L23,7 Z M19.5303,2.5303 L13.0303,9.0303 L11.9693,7.9693 L18.4693,1.4693 L19.5303,2.5303 Z" id="path-1"></path></svg>