<!--category:services-->
<!--character:E034-->
<!--added:0.11-->
<svg xmlns="http://www.w3.org/2000/svg" width="24" height="24" viewBox="0 0 24 24"><path id="pharmacy-a" d="M19.465,4.051 C20.787,5.373 21.516,7.044 21.516,8.758 C21.516,10.472 20.787,12.143 19.465,13.465 L13.465,19.465 C12.144,20.787 10.473,21.515 8.758,21.515 C7.045,21.515 5.373,20.788 4.051,19.465 C2.729,18.143 2,16.471 2,14.758 C2,13.044 2.729,11.373 4.051,10.051 L10.051,4.051 C11.372,2.728 13.044,2 14.758,2 C16.471,2 18.143,2.729 19.465,4.051 Z M18.051,12.051 C19.01,11.093 19.516,9.954 19.516,8.758 C19.516,7.562 19.01,6.423 18.051,5.465 C17.092,4.507 15.953,4 14.758,4 C13.561,4 12.423,4.507 11.465,5.465 L9.465,7.465 L16.051,14.051 L18.051,12.051 Z M11.93,7.051 C13.489,5.493 16.028,5.493 17.586,7.051 L16.172,8.466 C15.393,7.687 14.123,7.687 13.344,8.466 L11.93,7.051 Z"/></svg>
