<!--category:basic-->
<!--character:E058-->
<svg width="24" height="24" viewBox="0 0 24 24" xmlns="http://www.w3.org/2000/svg"><path d="M18.4314 13.5463a2.2 2.2 0 0 0-1.557-.6458c-.5843 0-2.0445 1.1323-2.4572 1.5458l-.3913.3913A42.5492 42.5492 0 0 1 8.7024 9.507l.3913-.3913c.858-.8605 1.758-2.253.9-3.1134L8.0707 4.085c-.872-.8332-2.2451-.8332-3.1172 0L3.9047 5.1383c-1.0387 1.0462-1.202 1.7772-.3913 3.0085a42.399 42.399 0 0 0 11.875 11.8774c1.235.8028 2.8618.6402 3.9133-.3913l1.0526-1.0534a2.1984 2.1984 0 0 0 0-3.1126l-1.923-1.9206z"/></svg>
