<!--category:basic-->
<!--character:E058-->
<svg width="24" height="24" viewBox="0 0 24 24" xmlns="http://www.w3.org/2000/svg"><path d="M17.964933 13.805754c-.390717-.391053-.920704-.610754-1.473333-.610754-.55263 0-1.082617.2197-1.473334.610754L13.6966 15.126779c-1.7456-1.465238-3.359805-3.080408-4.824166-4.827053l1.321667-1.32186c.813295-.814028.813295-2.133567 0-2.947596L8.424933 4.261713c-.823662-.78895-2.122171-.78895-2.945833 0l-.97.97058c-.974709.981866-1.128075 2.512968-.3675 3.668861 2.88372 4.347348 6.606963 8.073953 10.950833 10.960722 1.158893.746966 2.679846.593742 3.666667-.369388l.97-.97058c.813295-.814028.813295-2.133568 0-2.947596l-1.764167-1.768558z"/></svg>
