<!--category:basic-->
<!--character:E058-->
<svg width="24" height="24" viewBox="0 0 24 24" xmlns="http://www.w3.org/2000/svg"><path d="M19.146 13.717a2.4445 2.4445 0 0 0-1.7301-.7176c-.649 0-2.2715 1.2582-2.73 1.7176l-.4349.4348a47.2769 47.2769 0 0 1-5.915-5.9229l.4348-.4348c.9533-.956 1.9533-2.5032 1-3.4593L7.6342 3.2043c-.969-.9257-2.4947-.9257-3.4637 0L3.0053 4.3748C1.851 5.5372 1.6697 6.3494 2.5705 7.7176a47.11 47.11 0 0 0 13.1945 13.197c1.372.8921 3.1797.7113 4.348-.4347l1.1696-1.1705a2.4427 2.4427 0 0 0 0-3.4584l-2.1366-2.134z"/></svg>