<!--category:services-->
<!--character:E053-->
<!--added:0.11-->
<svg width="24" height="24" viewBox="0 0 24 24" xmlns="http://www.w3.org/2000/svg"><path d="M22 9.4971v11.6666a.8333.8333 0 1 1-1.6667 0V10.7471a.4167.4167 0 0 0-.4166-.4166H18.25a.4167.4167 0 0 0-.4166.4166v4.2583a.8333.8333 0 1 1-1.6667 0v-4.2583a.4167.4167 0 0 0-.4166-.4166H14.5a.4167.4167 0 0 0-.4167.4166v4.2583a.8333.8333 0 1 1-1.6666 0v-4.2583A.4167.4167 0 0 0 12 10.3305h-1.4592a.4167.4167 0 0 0-.4166.4166v10.4166a.8333.8333 0 1 1-1.6667 0v-.4167a.4167.4167 0 0 0-.4166-.4166H4.7077a.4167.4167 0 0 0-.4167.4166v.4167a.8333.8333 0 1 1-1.6667 0V8.3821a.4167.4167 0 0 0-.1791-.3425 1.0383 1.0383 0 0 1-.2184-1.5L5.5601 2.373a1.075 1.075 0 0 1 1.6284 0l3.3333 4.1667a1.0383 1.0383 0 0 1-.2184 1.5.4167.4167 0 0 0-.1783.3416c0 .156.1265.2825.2825.2825h10.759c.4603 0 .8334.3731.8334.8333zM8.0418 8.2288H4.7085a.4167.4167 0 0 0-.4167.4167v2.5183c0 .2301.1866.4166.4167.4166h3.3333a.4167.4167 0 0 0 .4167-.4166V8.6455a.4167.4167 0 0 0-.4167-.4167zm-3.75 5.435v1.0416c0 .2301.1866.4167.4167.4167h3.3333a.4167.4167 0 0 0 .4167-.4167v-1.0416a.4167.4167 0 0 0-.4167-.4167H4.7085a.4167.4167 0 0 0-.4167.4167zm.4167 5h3.3333a.4167.4167 0 0 0 .4167-.4167v-1.0417a.4167.4167 0 0 0-.4167-.4167H4.7085a.4167.4167 0 0 0-.4167.4167v1.0417c0 .23.1866.4166.4167.4166zm13.0049-2.1059a.8335.8335 0 1 1 .6558 1.5325 8.2858 8.2858 0 0 1-6.4891 0 .8335.8335 0 0 1 .6558-1.5325 6.6016 6.6016 0 0 0 5.1775 0z"/></svg>