<!--category:basic-->
<!--character:E027-->
<svg width="24" height="24" viewBox="0 0 24 24" xmlns="http://www.w3.org/2000/svg"><path d="M12 2c5.5 0 10 4.5 10 10s-4.5 10-10 10S2 17.5 2 12 6.5 2 12 2zm0 4.11l-.1129.007a.9002.9002 0 0 0-.7871.893v3.688a.4.4 0 0 1-.4.4H7.012a.9.9 0 0 0-.9.9l.007.113a.9002.9002 0 0 0 .893.787H10.7a.4.4 0 0 1 .4.4v3.688a.9.9 0 0 0 .9.9l.1129-.007a.9002.9002 0 0 0 .7871-.893v-3.688a.4.4 0 0 1 .4-.4h3.688a.9.9 0 0 0 .9-.9l-.007-.1129a.9002.9002 0 0 0-.893-.787L13.3 11.098a.4.4 0 0 1-.4-.4V7.01a.9.9 0 0 0-.9-.9z"/></svg>
