<!--category:basic-->
<!--character:E027-->
<svg width="24" height="24" viewBox="0 0 24 24" xmlns="http://www.w3.org/2000/svg"><path d="M12 5.731032c.71797 0 1.3.58203 1.3 1.3l-.00046 3.645 3.67692.000429c.673098 0 1.226716.51155 1.29329 1.167082l.00671.132918c0 .71797-.582029 1.3-1.3 1.3l-3.67692-.00043.00046 3.707922c0 .673097-.51155 1.226716-1.167083 1.293289L12 18.283953c-.71797 0-1.3-.58203-1.3-1.3l-.00046-3.707921-3.676.000429c-.673098 0-1.226716-.51155-1.29329-1.167083l-.00671-.132917c0-.71797.582029-1.3 1.3-1.3l3.676-.00043.00046-3.645c0-.673096.51155-1.226715 1.167083-1.293288L12 5.731032zM12 2C6.5 2 2 6.5 2 12s4.5 10 10 10 10-4.5 10-10S17.5 2 12 2"/></svg>
