<!--category:basic-->
<!--character:E122-->
<svg width="24" height="24" viewBox="0 0 24 24" xmlns="http://www.w3.org/2000/svg"><path d="M12 4.731032c.71797 0 1.3.58203 1.3 1.3l-.00046 4.645 4.67692.000429c.673098 0 1.226716.51155 1.29329 1.167082l.00671.132918c0 .71797-.582029 1.3-1.3 1.3l-4.67692-.00043.00046 4.707922c0 .673097-.51155 1.226716-1.167083 1.293289L12 19.283953c-.71797 0-1.3-.58203-1.3-1.3l-.00046-4.707921-4.676.000429c-.673098 0-1.226716-.51155-1.29329-1.167083l-.00671-.132917c0-.71797.582029-1.3 1.3-1.3l4.676-.00043.00046-4.645c0-.673096.51155-1.226715 1.167083-1.293288L12 4.731032z"/></svg>
