<!--category:services-->
<!--character:E123-->
<!--added:0.11-->
<svg width="24" height="24" viewBox="0 0 24 24" version="1.1" xmlns="http://www.w3.org/2000/svg"><path id="pool-a" d="M22,4 L24,4 L24,2 L22,2 C20.346,2 19,3.346 19,5 L19,6 L13,6 L13,5 C13,4.449 13.449,4 14,4 L16,4 L16,2 L14,2 C12.346,2 11,3.346 11,5 L11,14.723 C10.405,14.375 10,13.737 10,13 L8,13 C8,14.102 7.103,15 6,15 C4.897,15 4,14.102 4,13 L2,13 C2,14.102 1.103,15 0,15 L0,17 C1.2,17 2.266,16.458 3,15.618 C3.734,16.458 4.8,17 6,17 C7.2,17 8.266,16.458 9,15.618 C9.734,16.458 10.8,17 12,17 C13.2,17 14.266,16.458 15,15.618 C15.734,16.458 16.8,17 18,17 C19.2,17 20.266,16.458 21,15.618 C21.734,16.458 22.8,17 24,17 L24,15 C22.897,15 22,14.102 22,13 L21,13 L21,5 C21,4.449 21.449,4 22,4 Z M19,8 L19,10 L13,10 L13,8 L19,8 Z M16,13 L14,13 C14,13.737 13.595,14.375 13,14.723 L13,12 L19,12 L19,14.723 C18.705,14.894 18.366,15 18,15 C16.897,15 16,14.102 16,13 Z M22,18 C22,19.103 22.897,20 24,20 L24,22 C22.8,22 21.734,21.458 21,20.618 C20.266,21.458 19.2,22 18,22 C16.8,22 15.734,21.458 15,20.618 C14.266,21.458 13.2,22 12,22 C10.8,22 9.734,21.458 9,20.618 C8.266,21.458 7.2,22 6,22 C4.8,22 3.734,21.458 3,20.618 C2.266,21.458 1.2,22 0,22 L0,20 C1.103,20 2,19.103 2,18 L4,18 C4,19.103 4.897,20 6,20 C7.103,20 8,19.103 8,18 L10,18 C10,19.103 10.897,20 12,20 C13.103,20 14,19.103 14,18 L16,18 C16,19.103 16.897,20 18,20 C19.103,20 20,19.103 20,18 L22,18 Z"/></svg>