<!--category:services-->
<!--character:E06F-->
<!--added:0.11-->
<svg width="24" height="24" viewBox="0 0 24 24" xmlns="http://www.w3.org/2000/svg"><path d="M20.5035 5.7805a.8338.8338 0 0 0-1.179 0l-1.5892 1.5892a.2084.2084 0 0 1-.2951 0l-2.0637-2.0636a.2101.2101 0 0 1 0-.2952l1.5892-1.5842a.8351.8351 0 0 0-1.179-1.1831l-1.5891 1.5892a.2076.2076 0 0 1-.2944 0l-.386-.3852c-.4884-.4883-1.28-.4883-1.7685 0L9.0964 6.0998a4.7743 4.7743 0 0 0-1.3732 3.642 5.4963 5.4963 0 0 0 .5928 2.2413.2093.2093 0 0 1-.0384.241L6.741 13.7648a.4169.4169 0 0 0 0 .5895l.1842.185a.2084.2084 0 0 1 0 .296L3.972 17.7097c-.976.9766-.976 2.5594 0 3.536.99.9439 2.5468.9439 3.5369 0l2.6506-2.6506a.4171.4171 0 0 1 .5903.5895L9.3482 20.587a.8338.8338 0 0 0 1.179 1.179l1.4041-1.4033c.8077-.8154.8042-2.1303-.0076-2.9415-.812-.8112-2.1268-.8135-2.9415-.0051l-2.6531 2.653a.8546.8546 0 0 1-1.179 0 .8338.8338 0 0 1-.0083-1.1672l2.959-2.885a.2093.2093 0 0 1 .2927 0l.1101.1101a.4169.4169 0 0 0 .5895 0l1.5408-1.5383a.2076.2076 0 0 1 .241-.0384 5.4872 5.4872 0 0 0 2.4714.5987 4.7851 4.7851 0 0 0 3.4135-1.3808l2.6548-2.6573c.4882-.4884.4882-1.28 0-1.7684l-.5003-.5003a.2084.2084 0 0 1 0-.2952l1.5892-1.5875a.8338.8338 0 0 0 0-1.179zm-6.9863 3.562c.651.6512.651 1.7067 0 2.358a1.6676 1.6676 0 1 1 0-2.358z"/></svg>