<svg xmlns="http://www.w3.org/2000/svg" width="24" height="24" viewBox="0 0 24 24"><path id="power-plug-off-a" d="M8,3 L8,6.18 C11.1,9.23 14.1,12.3 17.2,15.3 C17.4,15 17.8,14.8 18,14.4 L18,8.8 C18,7.68 16.7,7.16 16,6.84 L16,3 L14,3 L14,7 L10,7 L10,3 L8,3 Z M3.28,4 C2.85,4.42 2.43,4.85 2,5.27 L6,9.27 L6,14.5 C7.17,15.65 8.33,16.83 9.5,18 L9.5,21 L14.5,21 L14.5,18 C14.72,17.73 14.95,18.33 15.17,18.44 C16.37,19.64 17.47,20.84 18.67,22.04 C19.17,21.64 19.57,21.14 19.97,20.74 C14.37,15.14 8.77,9.64 3.27,4.04 L3.28,4 Z"/></svg>
