<!--category:travel-->
<!--character:E08D-->
<!--added:0.11-->
<svg width="24" height="24" viewBox="0 0 24 24" xmlns="http://www.w3.org/2000/svg"><path d="M12.9124 3.849a.8327.8327 0 0 1 .5432-.7799.8134.8134 0 0 1 .9233.2267l7.3987 8.1365A.8503.8503 0 0 1 22 12.003a.8281.8281 0 0 1-.2283.5708l-7.3978 8.1356a.8394.8394 0 0 1-1.4615-.559v-1.1752c0-.1043.039-.2049.1092-.282l5.316-5.8466a1.2533 1.2533 0 0 0 0-1.6948l-5.316-5.8457a.4194.4194 0 0 1-.1092-.282V3.8488zm3.403 8.7249l-7.3977 8.1356a.8394.8394 0 0 1-1.4615-.559v-1.1752c0-.1043.039-.2049.1091-.282l5.3144-5.8466a1.2533 1.2533 0 0 0 0-1.6948l-5.316-5.8457a.4194.4194 0 0 1-.1092-.282V3.8488a.8327.8327 0 0 1 .5448-.7798.8134.8134 0 0 1 .9234.2267l7.3986 8.1365a.8503.8503 0 0 1 .2225.5708.8281.8281 0 0 1-.2283.5708zm-5.447-.0084L3.4607 20.712A.8394.8394 0 0 1 2 20.148V3.8522a.8394.8394 0 0 1 1.4614-.564l7.407 8.1482a.8394.8394 0 0 1 0 1.129z"/></svg>