<svg width="24" height="24" viewBox="0 0 24 24" version="1.1" xmlns="http://www.w3.org/2000/svg"><path id="profit-a" d="M22,3 L16.699219,3.8007812 L18.242188,5.34375 L15.177734,8.4082031 L13.568359,6.9003906 L9.4921875,11.078125 L8.0078125,9.59375 L3.3027344,14.203125 L4.703125,15.630859 L7.9921875,12.40625 L9.5078125,13.921875 L13.630859,9.6992188 L15.222656,11.191406 L19.65625,6.7578125 L21.199219,8.3007812 L22,3 Z M19,11 L19,22 L21,22 L21,11 L19,11 Z M15,13 L15,22 L17,22 L17,13 L15,13 Z M11,15 L11,22 L13,22 L13,15 L11,15 Z M7,17 L7,22 L9,22 L9,17 L7,17 Z M3,19 L3,22 L5,22 L5,19 L3,19 Z"/></svg>