<!--character:E193-->
<svg width="24" height="24" viewBox="0 0 24 24" xmlns="http://www.w3.org/2000/svg"><path d="M2.8333 8.6667A.8333.8333 0 0 1 2 7.8333v-5A.8333.8333 0 0 1 2.8333 2h5a.8333.8333 0 0 1 .8334.8333v5a.8333.8333 0 0 1-.8334.8334h-5zm.8334-4.7917v2.9167c0 .115.0932.2083.2083.2083h2.9167A.2083.2083 0 0 0 7 6.7917V3.875a.2083.2083 0 0 0-.2083-.2083H3.875a.2083.2083 0 0 0-.2083.2083zm4.1666 11.4583a.8333.8333 0 0 1 .8334.8334v5A.8333.8333 0 0 1 7.8333 22h-5A.8333.8333 0 0 1 2 21.1667v-5a.8333.8333 0 0 1 .8333-.8334h5zM7 20.125v-2.9167A.2083.2083 0 0 0 6.7917 17H3.875a.2083.2083 0 0 0-.2083.2083v2.9167c0 .115.0932.2083.2083.2083h2.9167A.2083.2083 0 0 0 7 20.125zM21.1667 2A.8333.8333 0 0 1 22 2.8333v5a.8333.8333 0 0 1-.8333.8334h-5a.8333.8333 0 0 1-.8334-.8334v-5A.8333.8333 0 0 1 16.1667 2h5zm-.8334 4.7917V3.875a.2083.2083 0 0 0-.2083-.2083h-2.9167A.2083.2083 0 0 0 17 3.875v2.9167c0 .115.0933.2083.2083.2083h2.9167a.2083.2083 0 0 0 .2083-.2083zm-10-1.25a.625.625 0 0 1-.625-.625V2.8333a.625.625 0 1 1 1.25 0v1.25c0 .115.0933.2084.2084.2084a.625.625 0 0 1 0 1.25h-.8334zm2.5-2.0834a.625.625 0 0 1 0-1.25h.8334a.625.625 0 0 1 .625.625V8.25a.625.625 0 0 1-1.25 0V3.6667a.2083.2083 0 0 0-.2084-.2084zM6.7917 10.75a.625.625 0 0 1 .625-.625H9.5a.2083.2083 0 0 0 .2083-.2083v-2.5a.625.625 0 1 1 1.25 0V10.75a.625.625 0 0 1-.625.625H7.4167a.625.625 0 0 1-.625-.625zM4.5 10.125a.625.625 0 0 1 .625.625v2.0833c0 .115.0933.2084.2083.2084h7.5a.2083.2083 0 0 0 .2084-.2084v-1.6666a.625.625 0 1 1 1.25 0v2.5a.625.625 0 0 1-.625.625H2.8333a.625.625 0 0 1 0-1.25h.8334a.2083.2083 0 0 0 .2083-.2084V10.75a.625.625 0 0 1 .625-.625zm8.9583 6.0417a.625.625 0 0 1-.625.625h-1.6666a.2083.2083 0 0 0-.2084.2083v2.5a.625.625 0 1 1-1.25 0v-3.3333a.625.625 0 0 1 .625-.625h2.5a.625.625 0 0 1 .625.625zm7.7084 4.375a.625.625 0 0 1 0 1.25H13.25a.625.625 0 0 1-.625-.625v-2.5a.625.625 0 1 1 1.25 0v1.6666c0 .115.0933.2084.2083.2084h7.0834zM15.75 18.875a.625.625 0 0 1-.625-.625v-2.5a.625.625 0 0 1 .625-.625h2.5a.625.625 0 0 1 .625.625v2.5a.625.625 0 0 1-.625.625h-2.5zm.625-2.2917v.8334c0 .115.0933.2083.2083.2083h.8334a.2083.2083 0 0 0 .2083-.2083v-.8334a.2083.2083 0 0 0-.2083-.2083h-.8334a.2083.2083 0 0 0-.2083.2083zm4.375-3.9583a.625.625 0 0 1 .625.625v5.4167a.625.625 0 0 1-1.25 0V13.25a.625.625 0 0 1 .625-.625zm.625-2.2917a.625.625 0 0 1-.625.625H17a.2083.2083 0 0 0-.2083.2084v1.6666a.625.625 0 0 1-1.25 0v-2.5a.625.625 0 0 1 .625-.625H20.75a.625.625 0 0 1 .625.625z"/></svg>
