<!--category:basic-->
<!--character:0046-->
<!--added:0.11-->
<svg width="24" height="24" viewBox="0 0 24 24" version="1.1" xmlns="http://www.w3.org/2000/svg"><path id="question-circle-a" d="M12,2 C6.486,2 2,6.487 2,12 C2,17.515 6.486,22 12,22 C17.514,22 22,17.515 22,12 C22,6.487 17.514,2 12,2 Z M12,18.25 C11.31,18.25 10.75,17.691 10.75,17 C10.75,16.31 11.31,15.75 12,15.75 C12.69,15.75 13.25,16.31 13.25,17 C13.25,17.691 12.69,18.25 12,18.25 Z M13,13.875 L13,15 L11,15 L11,12 L12,12 C13.104,12 14,11.103 14,10 C14,8.896 13.104,8 12,8 C10.896,8 10,8.896 10,10 L8,10 C8,7.795 9.795,6 12,6 C14.205,6 16,7.795 16,10 C16,11.861 14.723,13.429 13,13.875 Z"/></svg>
