<!--character:E198-->
<svg width="24" height="24" xmlns="http://www.w3.org/2000/svg"><path d="M12 2c2.6876 0 5.2083 1.06616 7.0711 2.92893.2967.2967.2967.77775 0 1.07446-.2967.2967-.7778.2967-1.0745 0C16.416 4.42276 14.2805 3.51951 12 3.51951c-4.68365 0-8.48049 3.79684-8.48049 8.48049 0 4.6836 3.79684 8.4805 8.48049 8.4805 4.6836 0 8.4805-3.7969 8.4805-8.4805 0-.4196.3401-.7598.7597-.7598.4196 0 .7598.3402.7598.7598 0 5.5228-4.4772 10-10 10-5.52285 0-10-4.4772-10-10C2 6.47715 6.47715 2 12 2z" /><path d="M12 5.69604c1.694 0 3.2834.67229 4.4575 1.84638.2967.2967.2967.77775 0 1.07445-.2967.2967-.7777.2967-1.0744 0-.892-.89195-2.0963-1.40132-3.3831-1.40132-2.64237 0-4.78442 2.14205-4.78442 4.78435 0 2.6424 2.14205 4.7844 4.78442 4.7844 2.6423 0 4.7844-2.142 4.7844-4.7844 0-.4196.3401-.7597.7597-.7597.4196 0 .7598.3401.7598.7597 0 3.4816-2.8224 6.3039-6.3039 6.3039-3.48157 0-6.30392-2.8223-6.30392-6.3039 0-3.4815 2.82235-6.30386 6.30392-6.30386z" /><path d="M12 9.39209c-1.4402 0-2.60776 1.16751-2.60776 2.60781 0 1.4402 1.16756 2.6078 2.60776 2.6078 1.4403 0 2.6078-1.1676 2.6078-2.6078 0-1.4403-1.1675-2.60781-2.6078-2.60781zm0 1.51951c.6011 0 1.0883.4872 1.0883 1.0883 0 .601-.4872 1.0883-1.0883 1.0883-.601 0-1.0882-.4873-1.0882-1.0883 0-.6011.4872-1.0883 1.0882-1.0883z" /><path d="M19.2373 3.83464c.3003-.29305.7813-.28715 1.0743.01316.2687.27529.2861.70242.0558.99741l-.0689.07697-6.4669 6.31032c-.3003.293-.7813.2871-1.0744-.0132-.2686-.2753-.286-.7024-.0558-.9974l.069-.077 6.4669-6.31026z"/></svg>
