<!--character:E198-->
<svg width="24" height="24" xmlns="http://www.w3.org/2000/svg"><path d="M12 2a9.97 9.97 0 017.071 2.929.76.76 0 11-1.074 1.074A8.45 8.45 0 0012 3.52 8.48 8.48 0 1020.48 12 .76.76 0 1122 12c0 5.523-4.477 10-10 10S2 17.523 2 12 6.477 2 12 2z" fill="#000"/><path d="M12 5.696c1.694 0 3.283.672 4.457 1.846a.76.76 0 01-1.074 1.075A4.784 4.784 0 1016.784 12a.76.76 0 111.52 0A6.304 6.304 0 1112 5.696z" fill="#000"/><path d="M12 9.392a2.608 2.608 0 100 5.216 2.608 2.608 0 000-5.216zm0 1.52a1.088 1.088 0 110 2.176 1.088 1.088 0 010-2.176z" fill="#000"/><path d="M19.237 3.835a.76.76 0 011.13 1.01l-.069.077-6.466 6.31a.76.76 0 01-1.13-1.01l.068-.077 6.467-6.31z" /></svg>
