<!--category:travel-->
<!--character:d-->
<!--added:0.11-->
<svg xmlns="http://www.w3.org/2000/svg" width="24" height="24" viewBox="0 0 24 24"><path id="radius-search-a" d="M14,9.294 L14,7.481 L17,5.082 L17,9 L19,9 L19,3 C19,2.615 18.78,2.265 18.433,2.099 C18.087,1.934 17.676,1.979 17.375,2.22 L13,5.72 L8.625,2.22 C8.449,2.078 8.218,2.01 7.998,2.01 C7.782,2.01 7.55,2.079 7.376,2.22 L2.376,6.22 C2.138,6.409 2,6.696 2,7 L2,21 C2,21.385 2.22,21.735 2.567,21.902 C2.91,22.067 3.323,22.022 3.625,21.78 L8.625,17.78 C8.862,17.591 9,17.304 9,17 C9,16.889 9,16.103 9,16 C9,12.829 11.109,10.155 14,9.294 Z M7,16.52 L4,18.92 L4,7.481 L7,5.082 L7,16.52 Z M20.167,18.753 L23.414,22 L22,23.414 L18.753,20.167 C17.963,20.691 17.018,21 16,21 C13.243,21 11,18.757 11,16 C11,13.243 13.243,11 16,11 C18.757,11 21,13.243 21,16 C21,17.018 20.691,17.963 20.167,18.753 Z M16,19 C17.654,19 19,17.654 19,16 C19,14.346 17.654,13 16,13 C14.346,13 13,14.346 13,16 C13,17.654 14.346,19 16,19 Z"/></svg>
