<!--character:E165-->
<!--added:0.27-->
<svg width="24" height="24" viewBox="0 0 24 24" version="1.1" xmlns="http://www.w3.org/2000/svg"><path id="refund-a" d="M13,3 C17.9705627,3 22,7.02943725 22,12 C22,16.9705627 17.9705627,21 13,21 C10.5,21 8.27,20 6.64,18.36 L8.06,16.94 C9.32,18.21 11.07,19 13,19 C16.8659932,19 20,15.8659932 20,12 C20,8.13400675 16.8659932,5 13,5 C9.13400675,5 6,8.13400675 6,12 L9,12 L4.96,16.03 L1,12 L4,12 C4,7.02943725 8.02943725,3 13,3 Z M16,10 L12.5,10 C12.224,10 12,10.225 12,10.5 C12,10.775 12.224,11 12.5,11 L13.5,11 C14.878,11 16,12.122 16,13.5 C16,14.707 15.14,15.717 14,15.949 L14,17 L12,17 L12,16 L10,16 L10,14 L13.5,14 C13.776,14 14,13.775 14,13.5 C14,13.225 13.776,13 13.5,13 L12.5,13 C11.122,13 10,11.878 10,10.5 C10,9.293 10.86,8.283 12,8.051 L12,7 L14,7 L14,8 L16,8 L16,10 Z"/></svg>