<!--category:basic-->
<!--character:0032-->
<svg width="24" height="24" viewBox="0 0 24 24" xmlns="http://www.w3.org/2000/svg"><path d="M17.7637 7.2216l3.9303 1.2766c.1632.0535.2727.1343.3556.297.1661.326.0594.653-.266.8187l-1.8054.9193c.0873.48.1318.9705.1318 1.4668 0 4.5011-3.6489 8.15-8.15 8.15-1.1634 0-2.294-.2445-3.3339-.7111a.9.9 0 1 1 .737-1.6422c.8092.3631 1.6888.5533 2.5969.5533 3.507 0 6.35-2.843 6.35-6.35 0-.202-.0094-.4026-.028-.6013l-1.6507.8405c-.1302.0663-.2433.0802-.3672.0559l-.0954-.0252c-.3275-.1064-.4933-.4318-.3869-.7593l1.2769-3.9297c.1067-.327.432-.4928.705-.3593zM11.96 3.85c1.1688 0 2.3045.2467 3.3482.7175a.9.9 0 0 1-.7402 1.6408c-.8122-.3663-1.6957-.5583-2.608-.5583-3.507 0-6.35 2.843-6.35 6.35 0 .183.0077.3647.023.545l1.7228-.8779c.1302-.0663.2433-.0802.3672-.056l.0953.0253c.3275.1064.4933.4318.387.7593l-1.277 3.9297c-.1066.327-.432.4927-.705.3592L2.293 15.4081c-.1632-.0535-.2727-.1343-.3556-.297-.166-.326-.0594-.653.266-.8187l1.7286-.8807A8.1975 8.1975 0 0 1 3.81 12c0-4.5011 3.6489-8.15 8.15-8.15z"/></svg>
