<!--category:basic-->
<!--character:0032-->
<svg width="24" height="24" viewBox="0 0 24 24" xmlns="http://www.w3.org/2000/svg"><path d="M7.0585 11.8239l-1.0215.5107v-.3405c0-.7661.1703-1.5322.4257-2.2984.2553-.681.681-1.362 1.2768-1.8727.5108-.5959 1.1918-1.0215 1.8728-1.2769 1.4471-.5959 3.1496-.5959 4.5968 0 .766.3405 1.6173-.1702 1.7876-1.0215.0851-.5959-.3405-1.1918-.8513-1.4471-2.043-.8513-4.4265-.7662-6.4695.0851-1.0215.4256-1.9579 1.0215-2.724 1.8728-.7661.766-1.362 1.7025-1.7876 2.724-.4257 1.0215-.681 2.128-.681 3.2347 0 .5108.085 1.1066.1702 1.6174l-1.1917.5959c-.681.3405-.596 1.362.1702 1.5322l3.4902 1.1067c.4256.1702.9363-.0852 1.1066-.596l1.1066-3.405c.1703-.766-.5959-1.362-1.2769-1.0214zm14.3862-3.5753L17.9546 7.142c-.4257-.1703-.9364.0851-1.1067.5959l-1.1066 3.405c-.2554.681.5108 1.362 1.1918 1.0215l1.0215-.5108v.3405c0 .7661-.1703 1.5323-.4257 2.2984-.2553.681-.766 1.362-1.2768 1.8728-.5108.5958-1.1918 1.0215-1.8728 1.2768-1.4471.596-3.1496.596-4.5968 0-.766-.3405-1.7025.1703-1.7876 1.1067-.0851.5958.2554 1.1066.8513 1.2768.9363.4257 2.043.681 3.1496.681 1.1917 0 2.2984-.2553 3.3199-.681 1.0215-.4256 1.9579-1.0215 2.724-1.8727.7661-.7661 1.362-1.7025 1.7876-2.724.4256-1.0215.681-2.1282.681-3.2348 0-.5107-.0851-1.1066-.1702-1.6174l1.1917-.5958c.681-.3405.5959-1.362-.0851-1.5323z"/></svg>