<!--description:Use for switching from and to location in search form-->
<!--category:navigation-->
<!--character:0049-->
<!--added:0.11-->
<svg width="24" height="24" viewBox="0 0 24 24" xmlns="http://www.w3.org/2000/svg"><path d="M5.3957 6.2822L8.318 9.2039c.1211.1217.182.2435.182.426 0 .3659-.2435.6088-.6087.6088L5.9 10.238V14.5c0 1.1094.8602 2.0178 1.95 2.0947L8 16.6h7.2754a.9.9 0 0 1 .1129 1.793l-.1129.007H8c-2.0866 0-3.7905-1.6387-3.895-3.6993L4.1 14.5v-4.262l-1.9913.0007c-.146 0-.2532-.039-.3526-.1169l-.0735-.0657c-.2435-.2435-.2435-.6087 0-.8522l2.9217-2.9217c.2435-.243.6087-.243.7914 0zM15.9954 5.6c2.0866 0 3.7905 1.6387 3.895 3.6993l.005.2007v4.262l1.9913-.0007c.146 0 .2532.039.3526.1169l.0735.0657c.2435.2435.2435.6087 0 .8522l-2.9218 2.9217c-.2434.243-.6086.243-.7913 0l-2.9223-2.9217c-.1211-.1217-.182-.2435-.182-.426 0-.3659.2435-.6088.6087-.6088l1.9913.0007V9.5c0-1.1094-.8602-2.0178-1.95-2.0947l-.15-.0053H8.72a.9.9 0 0 1-.1129-1.793L8.72 5.6h7.2754z"/></svg>
