<svg xmlns="http://www.w3.org/2000/svg" width="24" height="24" viewBox="0 0 24 24"><path id="replace-a" d="M7.99601498,9.5296716 L6.84189553,10.6837911 L3,6.84189553 L6.84189553,3 L7.99601498,4.15411945 L6.12444786,6.02568658 L16.3972537,6.02568658 C17.2983484,6.02568658 18.0296716,6.75700979 18.0296716,7.65810447 L18.0296716,12.5553582 L16.3972537,12.5553582 L16.3972537,7.65810447 L6.12444786,7.65810447 L7.99601498,9.5296716 Z M15.003985,14.6886045 L16.1581045,13.534485 L20,17.3763805 L16.1581045,21.2182761 L15.003985,20.0641566 L16.8755521,18.1925895 L6.6027463,18.1925895 C5.70165162,18.1925895 4.9703284,17.4612663 4.9703284,16.5601716 L4.9703284,11.6629179 L6.6027463,11.6629179 L6.6027463,16.5601716 L16.8755521,16.5601716 L15.003985,14.6886045 Z"/></svg>
