<!--description:Use for switching from and to location in search form-->
<!--category:navigation-->
<!--character:0049-->
<!--added:0.11-->
<svg width="24" height="24" viewBox="0 0 24 24" xmlns="http://www.w3.org/2000/svg"><path d="M14.9973 18.738H8.0036c-2.298 0-4.1962-1.8983-4.2961-4.296v-4.1963c0-.1-.1-.1998-.1998-.1998h-.9991c-.1 0-.1999 0-.2998-.1-.1998-.1998-.2997-.4995-.0999-.6993l2.4978-2.9973.0999-.1c.1998-.1997.4995-.0998.6993.1l2.4978 2.9973c.0999.1.0999.1998.0999.2997 0 .2998-.1998.4996-.5995.6994h-.999c-.1 0-.1999.1-.1999.1998v4.1952c.1.9002.7993 1.6995 1.7984 1.6995h6.9937c.5995 0 1.199.5995 1.199 1.199 0 .5984-.4996 1.1988-1.199 1.1988zm4.396-.8994c-.0999.1-.2997.1999-.3996.1999-.1 0-.2997-.1-.2997-.2998l-2.4978-2.9973c-.0999-.0999-.0999-.1998-.0999-.2997 0-.2997.1998-.4995.4996-.4995h.999c.1 0 .1999-.1.1999-.1999V9.5461a1.7909 1.7909 0 0 0-1.7984-1.7984H9.0027c-.6994 0-1.199-.6993-1.199-1.2988 0-.5994.4996-1.1989 1.199-1.1989h7.0936c2.298.1 4.1962 1.9982 4.1962 4.2961v4.2962c0 .0999.1.1998.1998.1998h.9991c.1 0 .1999 0 .2998.0999.1998.1998.2997.4995.0999.6994l-2.4978 2.9972z"/></svg>