<!--category:services-->
<!--character:0031-->
<!--added:0.11-->
<svg width="24" height="24" viewBox="0 0 24 24" xmlns="http://www.w3.org/2000/svg"><path d="M14.9117 2c1.9433 0 3.905 5.0458 3.9583 11.0358v.0059a1.036 1.036 0 0 1-1.0417 1.0416H16.37a.4167.4167 0 0 0-.4167.4167v6.6667a.8333.8333 0 1 1-1.6666 0V2.625a.625.625 0 0 1 .625-.625zm-3.9584 0a.8333.8333 0 0 1 .8334.8333V7a3.3408 3.3408 0 0 1-2.2225 3.1433.4167.4167 0 0 0-.2775.3925v10.6309a.8333.8333 0 0 1-1.6667 0V10.5358a.4167.4167 0 0 0-.2775-.3925A3.3408 3.3408 0 0 1 5.12 7V2.8333a.8333.8333 0 1 1 1.6667 0V7a1.6608 1.6608 0 0 0 .4758 1.165.2092.2092 0 0 0 .3575-.1458V2.8333a.8333.8333 0 1 1 1.6667 0v5.1875a.2092.2092 0 0 0 .3575.1459A1.6608 1.6608 0 0 0 10.12 7V2.8333A.8333.8333 0 0 1 10.9533 2z"/></svg>
