<!--category:services-->
<!--character:1-->
<!--added:0.11-->
<svg width="24" height="24" viewBox="0 0 24 24" version="1.1" xmlns="http://www.w3.org/2000/svg"><path id="restaurants-a" d="M16.707,2.293 C16.842,2.428 20,5.694 20,15 C20,15.553 19.553,16 19,16 L17,16 L17,22 L15,22 L15,3 C15,2.596 15.244,2.23 15.617,2.076 C15.991,1.92 16.42,2.007 16.707,2.293 Z M11,8 L11,2 L13,2 L13,8 C13,9.858 11.721,11.41 10,11.858 L10,22 L8,22 L8,11.858 C6.279,11.411 5,9.858 5,8 L5,2 L7,2 L7,8 C7,8.737 7.405,9.375 8,9.723 L8,2 L10,2 L10,9.723 C10.595,9.375 11,8.737 11,8 Z"/></svg>