<!--description:Use as connecting symbol between locations for trip with one stop-->
<!--category:travel-->
<!--character:q-->
<!--added:0.11-->
<svg width="24" height="24" viewBox="0 0 24 24" version="1.1" xmlns="http://www.w3.org/2000/svg"><path id="route-one-stop-a" d="M18.688,9.688 C18.563,9.688 18.438,9.751 18.313,9.876 C18.063,10.126 18.063,10.439 18.313,10.689 L19.063,11.439 L12.875,11.439 C12.625,10.751 12,10.314 11.25,10.314 C10.562,10.314 9.875,10.752 9.625,11.439 L3.25,11.439 L3.25,12.564 L9.625,12.564 C9.875,13.252 10.563,13.689 11.25,13.689 C12,13.689 12.625,13.251 12.875,12.564 L19.063,12.564 L18.313,13.314 C18.063,13.564 18.063,13.877 18.313,14.127 C18.438,14.252 18.501,14.315 18.688,14.315 C18.875,14.315 19.001,14.252 19.126,14.127 L20.689,12.502 C20.877,12.377 20.877,12.189 20.877,12.002 C20.877,11.815 20.814,11.627 20.689,11.502 L19.126,9.877 C19.001,9.752 18.813,9.689 18.688,9.689 L18.688,9.688 Z"/></svg>