<!--description:Use as connecting symbol between locations for trip with one stop-->
<!--category:travel-->
<!--character:0071-->
<!--added:0.11-->
<svg width="24" height="24" viewBox="0 0 24 24" xmlns="http://www.w3.org/2000/svg"><path d="M12.858 11.1612h4.7258c.0834 0 .1667-.0834.1667-.1667V9.411c0-.75.9167-1.0834 1.4159-.5833l2.5842 2.5834c.3325.3333.3325.8333 0 1.1667l-2.5842 2.5834c-.4992.5008-1.416.1667-1.416-.5834v-1.5833c0-.0834-.0832-.1667-.1666-.1667h-4.7256c-.3431.9711-1.2692 1.6669-2.358 1.6669-1.0887 0-2.0147-.6958-2.3578-1.667h-5.309c-.5 0-.8334-.3333-.8334-.8333s.3333-.8333.8334-.8333h5.309c.3433-.971 1.2693-1.6666 2.3579-1.6666 1.0886 0 2.0145.6956 2.3578 1.6666z"/></svg>