<!--description:Use as connecting symbol between locations for trip with two stops-->
<!--category:travel-->
<!--character:0070-->
<!--added:0.11-->
<svg width="24" height="24" viewBox="0 0 24 24" xmlns="http://www.w3.org/2000/svg"><path d="M9.3579 11.1612h1.7844c.3432-.971 1.2692-1.6666 2.3578-1.6666 1.088 0 2.0143.6956 2.3577 1.6666h1.726c.0834 0 .1667-.0834.1667-.1667V9.411c0-.75.9167-1.0834 1.4159-.5833l2.5842 2.5834c.3325.3333.3325.8333 0 1.1667l-2.5842 2.5834c-.4992.5008-1.416.1667-1.416-.5834v-1.5833c0-.0834-.0832-.1667-.1666-.1667H15.858c-.3433.9711-1.2698 1.6669-2.3578 1.6669-1.0887 0-2.0148-.6958-2.358-1.667H9.358c-.3431.9712-1.2692 1.667-2.358 1.667-1.0886 0-2.0147-.6958-2.3578-1.667H2.8334c-.5 0-.8334-.3333-.8334-.8333s.3333-.8333.8334-.8333h1.8089C4.9855 10.1902 5.9115 9.4946 7 9.4946s2.0146.6956 2.3578 1.6666z"/></svg>
