<svg width="24" height="24" viewBox="0 0 24 24" version="1.1" xmlns="http://www.w3.org/2000/svg"><path id="route-two-stop-a" d="M18.439,10 C18.314,10 18.189,10.063 18.064,10.188 C17.814,10.438 17.814,10.751 18.064,11.001 L18.814,11.751 L15.814,11.751 C15.564,11.063 14.939,10.626 14.251,10.626 C13.501,10.626 12.876,11.064 12.626,11.751 L9.688,11.751 C9.438,11.063 8.813,10.626 8.063,10.626 C7.375,10.626 6.75,11.064 6.5,11.751 L3,11.751 L3,12.876 L6.5,12.876 C6.75,13.564 7.375,14.001 8.063,14.001 C8.813,14.001 9.438,13.563 9.688,12.876 L12.626,12.876 C12.876,13.564 13.501,14.001 14.251,14.001 C14.939,14.001 15.564,13.563 15.814,12.876 L18.814,12.876 L18.064,13.626 C17.814,13.876 17.814,14.189 18.064,14.439 C18.189,14.564 18.252,14.627 18.439,14.627 C18.626,14.627 18.752,14.564 18.877,14.439 L20.44,12.814 C20.628,12.689 20.628,12.501 20.628,12.314 C20.628,12.127 20.565,11.939 20.44,11.814 L18.877,10.189 C18.752,10.064 18.564,10.001 18.439,10.001 L18.439,10 Z"/></svg>