<!--category:basic-->
<!--character:E07C-->
<svg width="24" height="24" viewBox="0 0 24 24" xmlns="http://www.w3.org/2000/svg"><path d="M20.561 18.4391l-3.4815-3.4816c2.1963-3.2877 1.5405-7.7053-1.5162-10.2132-3.0568-2.5079-7.5174-2.288-10.3127.5083-2.7953 2.7963-3.0135 7.257-.5046 10.3128 2.509 3.0558 6.9268 3.71 10.2138 1.5126l3.4816 3.4808c.5895.5751 1.5301.5751 2.1197 0 .5852-.5854.5852-1.5343 0-2.1197zM10.6943 5.2577c3.0012 0 5.4341 2.433 5.4341 5.4342s-2.433 5.4342-5.4341 5.4342c-3.0013 0-5.4342-2.433-5.4342-5.4342.0033-2.9998 2.4343-5.4309 5.4342-5.4342z"/></svg>