<!--category:services-->
<!--character:E02A-->
<!--added:0.11-->
<svg width="24" height="24" viewBox="0 0 24 24" version="1.1" xmlns="http://www.w3.org/2000/svg"><path id="seat-a" d="M15.6153779,2 C14.4044409,2 13.4083469,2.859375 13.1778779,4 L18.0528779,4 C17.8224089,2.859375 16.8263159,2 15.6153779,2 Z M5.42787795,2.9375 C5.33022195,2.945313 5.21694095,2.972656 5.11537795,3 C4.31459695,3.21875 3.83412795,4.042969 4.05287795,4.84375 L7.49037795,16 L16.1153779,16 C16.9435029,16 17.6153779,15.328125 17.6153779,14.5 C17.6153779,13.671875 16.9435029,13 16.1153779,13 L9.77162795,13 L6.95912795,4.0625 C6.76772195,3.363281 6.12319095,2.890625 5.42787795,2.9375 Z M13.1153779,5 L13.1153779,6.5 C13.1153779,7.882813 14.2325659,9 15.6153779,9 C16.9981909,9 18.1153779,7.882813 18.1153779,6.5 L18.1153779,5 L13.1153779,5 Z M9.83412795,10 L10.3653779,12 L13.1153779,12 C13.6661589,12 14.1153779,11.550781 14.1153779,11 C14.1153779,10.449219 13.6661589,10 13.1153779,10 L9.83412795,10 Z M9.11537795,17 L7.11537795,22 L17.1153779,22 L15.1466279,17 L13.1153779,17 L14.1153779,20 L10.1153779,20 L11.1466279,17 L9.11537795,17 Z"/></svg>