<!--description:Use when passengers need to transfer between locations on their own-->
<!--category:transportation-->
<!--character:E020-->
<!--added:0.11-->
<svg xmlns="http://www.w3.org/2000/svg" width="24" height="24" viewBox="0 0 24 24"><path id="self-transfer-a" d="M16.6707442,2 C15.5787584,2 14.6814581,2.96164132 14.6814581,4.13192805 C14.6814581,5.3443451 15.5787584,6.2638561 16.6707442,6.2638561 C17.7627301,6.2638561 18.6600304,5.3443451 18.6600304,4.13192805 C18.6600304,2.96164132 17.7627301,2 16.6707442,2 Z M15.384073,7.26629028 C14.994078,7.22415996 14.5647716,7.34988219 14.2140882,7.51706601 C13.9800912,7.64278824 12.2641135,9.02172037 12.2641135,9.02172037 C11.6401216,9.48181024 9.72883443,12.2818048 9.72883443,12.2818048 L10.1581409,12.5747109 L8.55884963,16.5035306 L6.49156449,15.4582974 C5.98425908,15.2075217 5.39957868,15.4582974 5.16558172,16.0019792 L3.09829658,20.8503099 C2.86429962,21.3939917 3.05898509,22.0627269 3.5662905,22.3135027 L4.15159489,22.5642784 C4.15159489,22.4806865 4.1122834,22.3970946 4.1122834,22.3135027 C4.1122834,21.1432159 5.00958374,20.1815746 6.10156956,20.1815746 C6.76487294,20.1815746 7.34955334,20.5580726 7.70086078,21.1010856 L11.0941287,13.2434462 L11.3674371,13.4527603 C11.3674371,13.4527603 12.9667284,11.0700565 13.3954108,10.7778192 C13.3954108,10.7778192 13.8634047,10.4434516 14.4093976,10.1090839 C14.2533997,11.2793707 13.9020922,12.3660655 13.8240932,12.8261553 C13.5120973,14.6237158 13.6680953,15.0416753 14.1754007,15.7518722 C14.6433946,16.4627378 16.0866878,18.9283647 16.0866878,18.9283647 L17.8026655,23.4008662 L19.7526402,23.4008662 L17.841353,18.0924456 L16.9440527,14.4558632 L17.9580395,9.39821833 C18.07535,8.56229924 17.6460436,7.80997206 16.9440527,7.60065792 L15.384073,7.26629028 Z M18.5820314,11.1115181 L17.996727,13.2849077 L20.1026997,14.4137329 L21,12.491119 L18.8940274,11.3208322 C18.6987179,11.2372403 18.7380294,11.2372403 18.5820314,11.1115181 Z M13.9020922,17.4645032 L11.7961196,23.3995288 L13.7854057,23.3995288 L15.1893875,19.470709 L13.9020922,17.4645032 Z M6.10219355,21.2682694 C5.55620064,21.2682694 5.08820672,21.7283593 5.08820672,22.3135027 C5.08820672,22.9407764 5.55620064,23.4001975 6.10219355,23.4001975 C6.64818646,23.4001975 7.07749288,22.9401076 7.07749288,22.3135027 C7.07749288,21.7283593 6.64818646,21.2682694 6.10219355,21.2682694 Z"/></svg>
