<!--description:Use for send button for chat-->
<!--category:basic-->
<!--character:004d-->
<!--added:0.11-->
<svg width="24" height="24" viewBox="0 0 24 24" xmlns="http://www.w3.org/2000/svg"><path d="M21.8482 2.9268a.4166.4166 0 0 0-.4267-.065l-19.1652 7.916a.4167.4167 0 0 0 .0083.7725l5.2763 2.049a.4166.4166 0 0 0 .39-.0466l6.9994-4.978a.4166.4166 0 0 1 .5308.64L9.6282 14.835a.4166.4166 0 0 0-.1275.3v5.6104a.4166.4166 0 0 0 .7758.21l2.639-4.5205a.2092.2092 0 0 1 .2808-.0775l4.8546 2.6665a.4166.4166 0 0 0 .6083-.2767l3.3331-15.4155a.4233.4233 0 0 0-.1441-.405z"/></svg>