<svg width="24" height="24" viewBox="0 0 24 24" version="1.1" xmlns="http://www.w3.org/2000/svg"><path id="share-a" d="M2.47623966,21 C2.4687992,21 2.46321874,21 2.45577828,21 C2.19908273,20.9882799 1.99633039,20.7656028 2.00005038,20.4960457 C2.00191037,20.3729875 2.2753473,8.3405964 13.428593,8.00853341 L13.428593,4.5003882 C13.428593,4.30701036 13.5346194,4.13121269 13.70017,4.04917341 C13.86386,3.96518144 14.0628919,3.99057435 14.2042606,4.11167934 L21.823289,10.6122958 C21.9348959,10.7080084 22,10.8505999 22,11.0010047 C22,11.1514095 21.9348959,11.2940015 21.8251495,11.3897136 L14.2061211,17.8903301 C14.0628919,18.0114351 13.86572,18.0348748 13.70017,17.952836 C13.5346194,17.8707967 13.428593,17.6949991 13.428593,17.5016212 L13.428593,14.0051961 C3.50488278,14.1946671 2.96916984,20.2733686 2.95056894,20.5351119 C2.93382803,20.7988089 2.72549522,21 2.47623966,21 Z"/></svg>