<!--category:navigation-->
<!--character:E124-->
<svg width="24" height="24" viewBox="0 0 24 24" xmlns="http://www.w3.org/2000/svg"><path d="M12.709756 14.199522l2.720024 3.255755c.332507.370248.301123.939236-.070098 1.27087-.371222.331636-.941707.300334-1.274214-.069914l-1.753672-2.17972c-.147608-.164362-.40051-.177944-.564871-.030336a.400001.400001 0 00-.029399.029295L9.91242 18.70486c-.333804.369085-.904396.398395-1.274451.065467-.370056-.332929-.399443-.902023-.065639-1.271108l2.795225-3.302038c.359209-.397174.98439-.396083 1.342201.002342zM9.91242 5.297187l1.825107 2.229387a.399995.399995 0 00.029398.029295c.164361.147608.417263.134026.564871-.030335l1.753672-2.179721c.332507-.370248.902992-.40155 1.274214-.069915.371221.331635.402605.900623.070098 1.27087l-2.720023 3.255756c-.357813.398425-.982993.399516-1.342202.002343L8.57233 6.502828c-.333804-.369085-.304417-.938179.065639-1.271108.370055-.332928.940647-.303618 1.274451.065467z"/></svg>
