<!--category:navigation-->
<!--character:E124-->
<svg width="24" height="24" viewBox="0 0 24 24" xmlns="http://www.w3.org/2000/svg"><path d="M12.7097565,14.199522 L15.42978,17.4552774 C15.7622873,17.8255249 15.7309032,18.3945131 15.3596816,18.7261479 C14.98846,19.0577828 14.417975,19.026481 14.0854677,18.6562335 L12.331796,16.4765127 C12.184188,16.3121508 11.9312864,16.2985692 11.7669246,16.4461772 C11.7566249,16.455427 11.7468123,16.4652053 11.7375265,16.4754725 L9.91242015,18.7048594 C9.5786157,19.073944 9.00802436,19.1032543 8.63796871,18.7703257 C8.26791306,18.4373972 8.23852566,17.868303 8.5723301,17.4992183 L11.3675553,14.1971795 C11.7267636,13.8000061 12.3519441,13.8010972 12.7097565,14.199522 Z M9.91242015,5.29718688 L11.7375265,7.52657373 C11.7468123,7.53684096 11.7566249,7.54661921 11.7669246,7.55586901 C11.9312864,7.70347705 12.184188,7.68989541 12.331796,7.52553356 L14.0854677,5.34581278 C14.417975,4.97556522 14.98846,4.94426345 15.3596816,5.27589832 C15.7309032,5.60753319 15.7622873,6.17652132 15.42978,6.54676888 L12.7097565,9.80252428 C12.3519441,10.2009491 11.7267636,10.2020402 11.3675553,9.80486677 L8.5723301,6.50282795 C8.23852566,6.13374328 8.26791306,5.56464909 8.63796871,5.2317205 C9.00802436,4.89879191 9.5786157,4.92810221 9.91242015,5.29718688 Z"/></svg>
