<!--category:navigation-->
<!--character:E124-->
<svg width="24" height="24" viewBox="0 0 24 24" xmlns="http://www.w3.org/2000/svg"><path d="M11.9787 9.9368c-.4 0-.9-.2-1.2-.5l-4.2-4.8c-.5-.5-.4-1.3.1-1.8.5-.4 1.3-.3 1.7.2l3.5 3.9c.1 0 .2 0 .2-.1l3.4-3.8c.4-.5 1.2-.6 1.7-.2.5.4.6 1.2.2 1.7l-4.2 4.8c-.3.4-.7.6-1.2.6zm0 4.2002c.4 0 .9.2 1.2.5l4.3 4.8c.4.5.4 1.3-.2 1.7-.5.399-1.3.399-1.7-.101l-3.5-3.899c-.1-.101-.2-.101-.2 0l-3.4 3.8c-.4.5-1.2.599-1.7.2-.5-.4-.6-1.2-.2-1.7l4.2-4.8c.3-.3.7-.5 1.2-.5z"/></svg>