<!--category:navigation-->
<!--character:E125-->
<svg width="24" height="24" viewBox="0 0 24 24" xmlns="http://www.w3.org/2000/svg"><path d="M8.458775 14.1l3.228916 3.564916c.185378.204669.501574.220307.706243.034928a.499977.499977 0 0 0 .035378-.035424L15.558775 14.2c.4-.5 1.2-.6 1.7-.2.5.4.6 1.2.2 1.7l-4.2 4.8c-.3.3-.7.5-1.2.5-.4 0-.9-.2-1.2-.5l-4.3-4.8c-.4-.5-.4-1.3.2-1.7.5-.4 1.3-.4 1.7.1zm3.6-11.1c.5 0 .9.2 1.2.5l4.2 4.8c.4.5.3 1.3-.2 1.7-.5.4-1.3.3-1.7-.2l-3.129463-3.46442a.499998.499998 0 0 0-.035378-.035424c-.204669-.185379-.520865-.16974-.706243.034928L8.458775 9.9c-.4.5-1.2.5-1.7.1-.6-.4-.6-1.2-.2-1.7l4.3-4.8c.3-.3.8-.5 1.2-.5z"/></svg>
