<!--category:navigation-->
<!--character:E125-->
<svg width="24" height="24" viewBox="0 0 24 24" xmlns="http://www.w3.org/2000/svg"><path d="M12.7098 20.7025c-.3579.3984-.983.3995-1.3422.0024l-4.7953-5.302a.8983.8983 0 0 1 .0657-1.2712c.37-.333.9406-.3036 1.2744.0655l3.8251 4.2294a.4.4 0 0 0 .5943-.001l3.7537-4.1798c.3325-.3702.903-.4015 1.2742-.0699a.8983.8983 0 0 1 .07 1.2709l-4.72 5.2557zM7.9124 9.805c-.3338.369-.9044.3984-1.2744.0654a.8983.8983 0 0 1-.0657-1.271l4.7953-5.3021c.3592-.3972.9843-.3961 1.3422.0023l4.72 5.2558a.8983.8983 0 0 1-.0701 1.2708c-.3712.3317-.9417.3004-1.2742-.0699l-3.7537-4.1797a.4.4 0 0 0-.5943-.001l-3.825 4.2294z"/></svg>
