<!--category:navigation-->
<!--character:E125-->
<svg width="24" height="24" viewBox="0 0 24 24" xmlns="http://www.w3.org/2000/svg"><path d="M12.709756 18.702524c-.357812.398425-.982992.399516-1.3422.002343L8.57233 15.402828c-.333804-.369085-.304417-.938179.065639-1.271107.370055-.33293.940647-.303619 1.274451.065466l1.825107 2.229387a.399982.399982 0 00.029398.029295c.164361.147608.417263.134026.564871-.030335l1.753672-2.179721c.332507-.370248.902992-.40155 1.274214-.069915.371221.331635.402605.900623.070098 1.27087l-2.720023 3.255756zM9.91242 9.80486c-.333804.369085-.904396.398395-1.274451.065467-.370056-.332929-.399443-.902023-.065639-1.271108l2.795225-3.302039c.359209-.397173.98439-.396082 1.342201.002343l2.720024 3.255755c.332507.370248.301123.939236-.070098 1.27087-.371222.331636-.941707.300334-1.274214-.069914l-1.753672-2.17972c-.147608-.164362-.40051-.177944-.564871-.030336a.399995.399995 0 00-.029399.029296L9.91242 9.804859z"/></svg>
