<svg width="24" height="24" viewBox="0 0 24 24" version="1.1" xmlns="http://www.w3.org/2000/svg"><path id="sightseeings-a" d="M4,9 C3.448,9 3,8.553 3,8 L3,6.65 C3,6.255 3.233,5.897 3.594,5.736 L11.594,2.181 C11.852,2.066 12.147,2.066 12.406,2.181 L20.406,5.736 C20.768,5.897 21,6.255 21,6.65 L21,8 C21,8.553 20.552,9 20,9 L4,9 Z M21.562,18.684 C21.663,18.989 21.612,19.324 21.424,19.585 C21.236,19.846 20.934,20 20.613,20 L3.387,20 C3.066,20 2.764,19.846 2.576,19.585 C2.388,19.324 2.336,18.989 2.438,18.684 L2.772,17.684 C2.909,17.275 3.291,17 3.721,17 L5,17 L5,10 L7,10 L7,17 L9,17 L9,10 L11,10 L11,17 L13,17 L13,10 L15,10 L15,17 L17,17 L17,10 L19,10 L19,17 L20.279,17 C20.71,17 21.092,17.275 21.229,17.684 L21.562,18.684 Z"/></svg>