<svg width="24" height="24" viewBox="0 0 24 24" version="1.1" xmlns="http://www.w3.org/2000/svg"><path id="spa-a" d="M15.906,7.516 C18.251,6.647 20.778,6.601 20.778,6.601 C20.778,6.601 20.694,11.714 18.264,14.144 C16.959,15.449 15.248,15.711 13.939,15.678 C15.154,14.518 16.46,12.728 16.46,10.366 C16.46,9.413 16.24,8.448 15.906,7.516 Z M7.872,7.516 C7.538,8.448 7.318,9.413 7.318,10.366 C7.318,12.728 8.623,14.518 9.839,15.678 C8.53,15.711 6.818,15.449 5.514,14.144 C3.084,11.714 3,6.601 3,6.601 C3,6.601 5.527,6.647 7.872,7.516 Z M15.445,10.112 C15.445,12.349 13.941,13.929 12.889,14.763 L12.889,20.223 L10.889,20.223 L10.889,14.763 C9.837,13.929 8.333,12.349 8.333,10.112 C8.333,6.675 11.889,3 11.889,3 C11.889,3 15.445,6.675 15.445,10.112 Z"/></svg>