<svg width="24" height="24" viewBox="0 0 24 24" version="1.1" xmlns="http://www.w3.org/2000/svg"><path d="M20,19 C20,20.104 19.104,21 18,21 C16.896,21 16,20.104 16,19 L16,16 C16,14.896 16.896,14 18,14 C19.104,14 20,14.896 20,16 L20,19 Z M21.472,3 L23,3 L21.259,19.987 C21.111,21.679 19.696,23 18,23 C16.302,23 14.886,21.687 14.739,19.995 L13,3 L14.528,3 L15.257,8.105 L16.743,7.894 L16.043,3 L19.957,3 L19.257,7.894 L20.743,8.105 L21.472,3 Z M8,2 C9.696,2 11.111,3.321 11.259,5.013 L13,22 L11.472,22 L10.743,16.894 L9.257,17.105 L9.957,22 L6.043,22 L6.743,17.105 L5.257,16.894 L4.528,22 L3,22 L4.739,5.005 C4.886,3.313 6.302,2 8,2 Z" id="path-1"></path></svg>