<svg width="24" height="24" viewBox="0 0 24 24" version="1.1" xmlns="http://www.w3.org/2000/svg"><path id="sports-a" d="M8,5 L8,8 L4,8 L4,5 C4,3.895 4.896,3 6,3 C7.104,3 8,3.895 8,5 Z M8,9 C8,10.882 8.787,11.977 9.373,13.519 C8.506,14.797 8,16.34 8,18 C8,19.379 8.349,20.677 8.964,21.809 C8.322,23.17 7.524,24 7,24 L5,24 C4,24 2,21 2,17 C2,13 4,12 4,9 L8,9 Z M16,12 C19.313,12 22,14.686 22,18 C22,21.314 19.314,24 16,24 C12.686,24 10,21.314 10,18 C10,14.686 12.686,12 16,12 Z M14,16 C14.553,16 15,15.553 15,15 C15,14.447 14.553,14 14,14 C13.447,14 13,14.447 13,15 C13,15.553 13.447,16 14,16 Z M16,19 C16.553,19 17,18.553 17,18 C17,17.447 16.553,17 16,17 C15.447,17 15,17.447 15,18 C15,18.553 15.447,19 16,19 Z M18,16 C18.553,16 19,15.553 19,15 C19,14.447 18.553,14 18,14 C17.447,14 17,14.447 17,15 C17,15.553 17.447,16 18,16 Z"/></svg>