<!--category:services-->
<!--character:E127-->
<svg width="24" height="24" viewBox="0 0 24 24" version="1.1" xmlns="http://www.w3.org/2000/svg"><path id="sport-equipment-a" d="M14.475,5 L14.475,5.825 C14.475,5.825 14.4921875,6.3835943 14.578125,7.2 L8.90625,7.2 L8.803125,6.99375 C9.9847659,6.7101568 10.35,6.6371091 10.35,6.16875 C10.35,5.8378909 10.2339841,5.825 9.903125,5.825 L5.74375,5.825 C5.5246091,5.825 5.4,5.9410159 5.4,6.271875 C5.4,7.6125 5.8039068,7.6425784 7.11875,7.371875 L7.634375,8.3 L4.678125,14.246875 C4.5492193,14.5003909 4.5578125,14.8054693 4.7039068,15.0503909 C4.85,15.2953125 5.1164068,15.4457034 5.4,15.45 L11.621875,15.45 C11.8796875,15.6175784 12.2105466,15.6261716 12.4769534,15.4757818 C12.7433591,15.3210943 12.9023443,15.0332034 12.89375,14.728125 L15.3,10.6375 C15.815625,12.1800784 16.6578125,13.8515625 18.015625,15.209375 L19.184375,14.040625 C16.6191409,11.4753909 16.2925784,7.7714841 16.228125,6.65 L18.6,6.65 L18.6,5 L14.475,5 Z M9.8,8.85 L14.475,8.85 L12.034375,12.940625 L9.8,8.85 Z M8.596875,10.053125 L10.625,13.8 L6.70625,13.8 L8.596875,10.053125 Z M5.4,10.225 C2.9808591,10.225 1,12.2058591 1,14.625 C1,17.0441409 2.9808591,19.025 5.4,19.025 C7.3808591,19.025 9.04375,17.6929693 9.59375,15.93125 L7.80625,15.93125 C7.25625,16.8121091 6.3882818,17.375 5.4,17.375 C3.8617193,17.375 2.65,16.1632818 2.65,14.625 C2.65,13.1941409 3.7628909,11.9867193 5.19375,11.875 L5.95,10.225 L5.4,10.225 Z M18.6,10.225 C18.2691409,10.225 17.8308591,10.328125 17.5,10.328125 C17.7191409,10.878125 17.9253909,11.325 18.25625,11.875 L18.6,11.875 C20.1382818,11.875 21.35,13.0867193 21.35,14.625 C21.35,16.1632818 20.1382818,17.375 18.6,17.375 C17.0617193,17.375 15.85,16.1632818 15.85,14.625 C15.85,14.2941409 15.9445318,13.8472659 16.05625,13.628125 C15.7253909,13.078125 15.4160159,12.528125 15.196875,11.978125 C14.5351568,12.6398443 14.2,13.6367193 14.2,14.625 C14.2,17.0441409 16.1808591,19.025 18.6,19.025 C21.0191409,19.025 23,17.0441409 23,14.625 C23,12.2058591 21.0191409,10.225 18.6,10.225 Z M8.49375,11.53125 L7.703125,13.18125 C7.703125,13.18125 7.6945318,13.31875 7.80625,13.31875 L9.59375,13.31875 C9.3746091,12.5496091 9.04375,11.9695318 8.49375,11.53125 Z"/></svg>