<svg width="24" height="24" viewBox="0 0 24 24" version="1.1" xmlns="http://www.w3.org/2000/svg"><path d="M15.5,14 C14.119,14 13,12.881 13,11.5 C13,10.119 14.119,9 15.5,9 C16.881,9 18,10.119 18,11.5 C18,12.881 16.881,14 15.5,14 L15.5,14 Z M11,18 L5,18 L5,16 L11,16 L11,18 Z M9.5,5 C9.5,4.449 9.949,4 10.5,4 L13.5,4 C14.051,4 14.5,4.449 14.5,5 L14.5,6 L9.5,6 L9.5,5 Z M20,6 L16.5,6 L16.5,5 C16.5,3.346 15.154,2 13.5,2 L10.5,2 C8.846,2 7.5,3.346 7.5,5 L7.5,6 L4,6 C2.896,6 2,6.896 2,8 L2,18 C2,19.104 2.896,20 4,20 L20,20 C21.104,20 22,19.104 22,18 L22,8 C22,6.896 21.104,6 20,6 L20,6 Z" id="path-1"></path></svg>