<!--category:time-->
<!--character:E096-->
<!--added:0.22-->
<svg width="24" height="24" viewBox="0 0 24 24" version="1.1" xmlns="http://www.w3.org/2000/svg"><path id="sun-a" d="M7.2244898,5.91836735 L5.59183673,4.28571429 L4.32653061,5.55102041 L5.95918367,7.18367347 L7.2244898,5.91836735 Z M4.73469388,11.0612245 L2,11.0612245 L2,12.8571429 L4.73469388,12.8571429 L4.73469388,11.0612245 Z M12.8979592,2 L11.1020408,2 L11.1020408,4.69387755 L12.8979592,4.69387755 L12.8979592,2 Z M19.6734694,5.55102041 L18.4081633,4.28571429 L16.7755102,5.91836735 L18.0408163,7.18367347 L19.6734694,5.55102041 Z M16.7755102,18 L18.3673469,19.6326531 L19.6734694,18.3673469 L18.0408163,16.7346939 L16.7755102,18 Z M19.2653061,11.0612245 L19.2653061,12.8571429 L22,12.8571429 L22,11.0612245 L19.2653061,11.0612245 Z M12,6.48979592 C8.97959184,6.48979592 6.53061224,8.93877551 6.53061224,11.9591837 C6.53061224,14.9795918 8.97959184,17.4285714 12,17.4285714 C15.0204082,17.4285714 17.4693878,14.9795918 17.4693878,11.9591837 C17.4693878,8.93877551 15.0204082,6.48979592 12,6.48979592 Z M11.1020408,21.9183673 L12.8979592,21.9183673 L12.8979592,19.2244898 L11.1020408,19.2244898 L11.1020408,21.9183673 Z M4.32653061,18.3673469 L5.59183673,19.6326531 L7.2244898,18 L5.95918367,16.7346939 L4.32653061,18.3673469 Z"/></svg>