<!--category:time-->
<!--character:E08E-->
<!--added:0.22-->
<svg width="24" height="24" viewBox="0 0 24 24" xmlns="http://www.w3.org/2000/svg"><path d="M3.449 14.2134a.8338.8338 0 0 1 0-1.6675h1.2507a.8338.8338 0 0 1 0 1.6675H3.449zm2.7981-5.4027l-.8846-.8846a.8338.8338 0 0 1 1.179-1.1747l.8845.8804a.8338.8338 0 1 1-1.1789 1.179zm5.7479-1.8926a.8338.8338 0 0 1-.8338-.8337V4.8338a.8338.8338 0 0 1 1.6675 0v1.2506a.8338.8338 0 0 1-.8337.8337zm6.4616 6.4616a.8338.8338 0 0 1 .8337-.8338h1.2506a.8338.8338 0 1 1 0 1.6675h-1.2506a.8338.8338 0 0 1-.8337-.8337zM17.1542 9.055v.0042a.8338.8338 0 0 1-.5894-1.4232l.8838-.8846a.8338.8338 0 1 1 1.1789 1.1747l-.8838.8846a.8338.8338 0 0 1-.5895.2443zM7.256 16.7847c-1.7387-2.4194-1.3758-5.76.8417-7.7497 2.2176-1.9897 5.5778-1.9897 7.7954 0 2.2175 1.9897 2.5804 5.3303.8418 7.7497a.8338.8338 0 1 1-1.3532-.9738c1.241-1.7283.9812-4.1138-.6026-5.5346-1.5839-1.4207-3.9835-1.4207-5.5673 0-1.5839 1.4208-1.8436 3.8063-.6027 5.5346a.8338.8338 0 1 1-1.3531.9738zM21.1662 18.33a.8338.8338 0 0 1 0 1.6675H2.8338a.8338.8338 0 0 1 0-1.6675h18.3324z"/></svg>