<!--character:E196-->
<svg xmlns="http://www.w3.org/2000/svg" width="24" height="24" viewBox="0 0 24 24"><path d="M10.0005,6.5 C10.398,6.5 10.6333,7.0149 10.6333,7.5552 L10.6333,9.2229 C10.6333,9.3891 10.7125,9.5138 10.8313,9.5969 L13.8024,11.3009 C13.9213,11.3839 14.0005,11.5086 14.0005,11.6749 L14.0005,11.9433 C14.0005,12.2343 13.7232,12.442 13.4855,12.3173 L10.9105,11.403 C10.7521,11.3615 10.6333,11.4862 10.6333,11.6108 L10.6333,13.0058 C10.6333,13.1721 10.7125,13.257 10.8313,13.3401 L11.584,13.8388 C11.7425,13.9219 11.847,14.0563 11.7953,14.1543 C11.7836,14.1765 11.7646,14.2705 11.6553,14.296 C11.5459,14.3214 11.1092,14.214 10.4706,14.0978 L10.4346,14.0922 C10.3257,14.3641 10.181,14.5 10.0005,14.5 C9.8196,14.5 9.6741,14.3636 9.5638,14.0908 C9.56553332,14.0907919 9.56726668,14.0907919 9.569,14.0908 C8.9304,14.207 8.4937,14.3144 8.3843,14.289 C8.275,14.2635 8.256,14.1695 8.2443,14.1473 C8.1926,14.0493 8.2971,13.9149 8.4556,13.8318 L9.2083,13.3331 C9.3271,13.25 9.4063,13.0837 9.4063,12.9591 L9.4063,11.5641 C9.4063,11.3978 9.2479,11.3147 9.129,11.3563 L6.554,12.2706 C6.3164,12.3953 6.0391,12.1875 6.0391,11.8966 L6.0391,11.6281 C6.0391,11.5034 6.1183,11.3372 6.2371,11.2956 L9.2083,9.5917 C9.3271,9.5086 9.4063,9.3839 9.4063,9.2177 L9.4063,7.5084 C9.4063,6.885 9.6416,6.4948 10.0391,6.4948 L10.0005,6.5 Z M14.261,2.5 C14.669,2.5 15,2.832 15,3.24 L15,3.761 C15,4.169 14.669,4.5 14.261,4.5 L5.74,4.5 C5.331,4.5 5,4.169 5,3.761 L5,2.969 C5.017,2.709 5.228,2.5 5.494,2.5 L14.261,2.5 L14.261,2.5 Z M17.74,2.5 L19.261,2.5 C19.669,2.5 20,2.169 20,1.761 L20,1.24 C20,0.832 19.669,0.5 19.261,0.5 L0.74,0.5 C0.331,0.5 0,0.832 0,1.24 L0,1.761 C0,2.169 0.331,2.5 0.74,2.5 L2.261,2.5 C2.669,2.5 3,2.832 3,3.24 L3,4 C3,4.277 2.777,4.5 2.5,4.5 C1.12,4.5 0,5.62 0,7 L0,14.761 C0,16.274 1.227,17.5 2.74,17.5 L17.261,17.5 C18.774,17.5 20,16.274 20,14.761 L20,7 C20,5.62 18.881,4.5 17.5,4.5 C17.225,4.5 17,4.277 17,4 L17,3.24 C17,2.832 17.331,2.5 17.74,2.5 Z" /></svg>
