<!--character:E196-->
<svg xmlns="http://www.w3.org/2000/svg" width="24" height="24" viewBox="0 0 24 24"><path fill-rule="evenodd" d="M7.494 5.5c-.266 0-.477.209-.494.469v.792c0 .408.331.739.74.739h8.521c.408 0 .739-.331.739-.739V6.24c0-.408-.331-.74-.739-.74H7.494zm5.1393 5.0552c0-.5403-.2353-1.0552-.6328-1.0552s-.6328.39021-.6328 1.0136v1.7093c0 .1662-.0792.2909-.198.374l-2.97113 1.7039c-.11884.0416-.19807.2078-.19807.3325v.2685c0 .2909.2773.4987.51499.374l2.57491-.9143c.1189-.0416.2773.0415.2773.2078v1.395c0 .1246-.0792.2909-.198.374l-.7527.4987c-.1585.0831-.263.2175-.2113.3155.0017.0033.0037.0083.006.0144.0134.0345.0411.1056.134.1273.0752.0175.3051-.0279.649-.0956.1563-.0308.3361-.0663.5357-.1026.0085-.0015.0194-.0035.0334-.0052.1103.2728.2558.4092.4367.4092.1805 0 .3252-.1359.434-.4078l.0361.0056c.1996.0363.3794.0718.5357.1026.3439.0677.5738.113.649.0956.0929-.0217.1206-.0929.134-.1274.0023-.006.0043-.011.006-.0143.0517-.098-.0528-.2324-.2113-.3155l-.7527-.4987c-.1188-.0831-.198-.168-.198-.3343v-1.395c0-.1246.1188-.2493.2773-.2078l2.5749.9144c.2377.1246.515-.0832.515-.3741v-.2684c0-.1663-.0792-.2909-.1981-.3741l-2.9711-1.7039c-.1188-.0831-.198-.2078-.198-.374v-1.6677zM19.74 5.5h1.521c.408 0 .739-.331.739-.739V4.24c0-.408-.331-.74-.739-.74H2.74c-.409 0-.74.332-.74.74v.521c0 .408.331.739.74.739h1.521c.408 0 .739.332.739.74V7c0 .277-.223.5-.5.5C3.12 7.5 2 8.62 2 10v7.761C2 19.274 3.227 20.5 4.74 20.5h14.521c1.513 0 2.739-1.226 2.739-2.739V10c0-1.38-1.119-2.5-2.5-2.5-.275 0-.5-.223-.5-.5v-.76c0-.408.331-.74.74-.74z" clip-rule="evenodd"/></svg>
