<!--character:E196-->
<svg xmlns="http://www.w3.org/2000/svg" width="24" height="24" viewBox="0 0 24 24"><path d="M12.0005 9.5c.3975 0 .6328.5149.6328 1.0552v1.6677c0 .1662.0792.2909.198.374l2.9711 1.704c.1189.083.1981.2077.1981.374v.2684c0 .291-.2773.4987-.515.374l-2.575-.9143c-.1584-.0415-.2772.0832-.2772.2078v1.395c0 .1663.0792.2512.198.3343l.7527.4987c.1585.0831.263.2175.2113.3155-.0117.0222-.0307.1162-.14.1417-.1094.0254-.5461-.082-1.1847-.1982l-.036-.0056c-.1089.2719-.2536.4078-.4341.4078-.1809 0-.3264-.1364-.4367-.4092a.5594.5594 0 00-.0334.0052c-.6386.1162-1.0753.2236-1.1847.1982-.1093-.0255-.1283-.1195-.14-.1417-.0517-.098.0528-.2324.2113-.3155l.7527-.4987c.1188-.0831.198-.2494.198-.374v-1.395c0-.1663-.1584-.2494-.2773-.2078l-2.575.9143c-.2376.1247-.5149-.0831-.5149-.374v-.2685c0-.1247.0792-.2909.198-.3325l2.9712-1.7039c.1188-.0831.198-.2078.198-.374v-1.7093c0-.6234.2353-1.0136.6328-1.0136zm4.2605-4c.408 0 .739.332.739.74v.521c0 .408-.331.739-.739.739H7.74c-.409 0-.74-.331-.74-.739v-.792c.017-.26.228-.469.494-.469h8.767zm3.479 0h1.521c.408 0 .739-.331.739-.739V4.24c0-.408-.331-.74-.739-.74H2.74c-.409 0-.74.332-.74.74v.521c0 .408.331.739.74.739h1.521c.408 0 .739.332.739.74V7c0 .277-.223.5-.5.5C3.12 7.5 2 8.62 2 10v7.761C2 19.274 3.227 20.5 4.74 20.5h14.521c1.513 0 2.739-1.226 2.739-2.739V10c0-1.38-1.119-2.5-2.5-2.5-.275 0-.5-.223-.5-.5v-.76c0-.408.331-.74.74-.74z"/></svg>
