<!--category:social-->
<!--character:E128-->
<svg width="24" height="24" viewBox="0 0 24 24" xmlns="http://www.w3.org/2000/svg"><path d="M2 12.8017a2.0833 2.0833 0 0 1 1.06-1.81 1.875 1.875 0 0 1 .7992-2.565c-.453-.921-.0816-2.035.8333-2.5A1.8725 1.8725 0 0 1 4.5 5.0933c0-.545.2433-1.4583 1.875-1.4591h5.4167a14.4675 14.4675 0 0 1 3.4233.3925c.255.0541.525.11.8225.1666a.4167.4167 0 0 1 .3375.4092v8.43a.417.417 0 0 1-.18.3433c-1.5875 1.0959-3.3617 3.5959-3.3617 5.8842.0328.837-.5608 1.5683-1.3866 1.7083-.8117.1125-1.85-.3875-2.34-2.1375a7.2375 7.2375 0 0 1 .4333-3.6725.2083.2083 0 0 0-.1975-.2733H4.0833C2.9327 14.885 2 13.9523 2 12.8017zm15.625.2083V3.8433a.8333.8333 0 0 1 .8333-.8333h2.7084A.8333.8333 0 0 1 22 3.8433V13.01a.8333.8333 0 0 1-.8333.8333h-2.7084a.8333.8333 0 0 1-.8333-.8333zm1.25-7.7083a.625.625 0 1 0 1.25 0 .625.625 0 0 0-1.25 0z"/></svg>