<!--category:social-->
<!--character:E01B-->
<svg width="24" height="24" viewBox="0 0 24 24" xmlns="http://www.w3.org/2000/svg"><path d="M22 11.1917c0 .752-.405 1.4456-1.06 1.815a1.875 1.875 0 0 1-.7992 2.565c.453.921.0816 2.035-.8333 2.5.127.258.1928.5417.1925.8292 0 .5416-.2433 1.4583-1.875 1.4583h-5.4167a14.4675 14.4675 0 0 1-3.4233-.3925c-.255-.0542-.525-.11-.8225-.1667a.4167.4167 0 0 1-.3375-.4091v-8.43a.417.417 0 0 1 .18-.3434c1.5875-1.0958 3.3617-3.5958 3.3617-5.8841-.0328-.837.5608-1.5683 1.3866-1.7084.8117-.1125 1.85.3875 2.34 2.1375A7.2375 7.2375 0 0 1 14.46 8.835a.2083.2083 0 0 0 .1975.2734h5.2592A2.0833 2.0833 0 0 1 22 11.1917zm-15.625-.2083V20.15a.8333.8333 0 0 1-.8333.8334H2.8333A.8333.8333 0 0 1 2 20.15v-9.1666a.8333.8333 0 0 1 .8333-.8334h2.7084a.8333.8333 0 0 1 .8333.8334zm-1.25 7.7083a.625.625 0 1 0-1.25 0 .625.625 0 0 0 1.25 0z"/></svg>