<svg width="24" height="24" viewBox="0 0 24 24" version="1.1" xmlns="http://www.w3.org/2000/svg"><path id="ticket-a" d="M6,8 C5.448,8 5,7.553 5,7 C5,6.448 5.448,6 6,6 C6.553,6 7,6.448 7,7 C7,7.553 6.553,8 6,8 M6,12 C5.448,12 5,11.553 5,11 C5,10.448 5.448,10 6,10 C6.553,10 7,10.448 7,11 C7,11.553 6.553,12 6,12 M6,16 C5.448,16 5,15.553 5,15 C5,14.448 5.448,14 6,14 C6.553,14 7,14.448 7,15 C7,15.553 6.553,16 6,16 M6,20 C5.448,20 5,19.553 5,19 C5,18.448 5.448,18 6,18 C6.553,18 7,18.448 7,19 C7,19.553 6.553,20 6,20 M22,4 L2,4 C0.9,4 0,4.901 0,6 L0,20 C0,21.1 0.9,22 2,22 L22,22 C23.101,22 24,21.1 24,20 L24,6 C24,4.901 23.101,4 22,4"/></svg>