<!--description:Use for train tickets-->
<!--category:travel-->
<!--character:E084-->
<!--added:0.11-->
<svg xmlns="http://www.w3.org/2000/svg" width="24" height="24" viewBox="0 0 24 24"><path id="ticket-train-a" d="M21.9996,3.9999 C23.1006,3.9999 23.9996,4.9009 23.9996,5.9999 L23.9996,19.9999 C23.9996,21.0999 23.1006,21.9999 21.9996,21.9999 L1.9996,21.9999 C0.8996,21.9999 -0.0004,21.0999 -0.0004,19.9999 L-0.0004,5.9999 C-0.0004,4.9009 0.8996,3.9999 1.9996,3.9999 L21.9996,3.9999 Z M5.9996,7.9999 C6.5526,7.9999 6.9996,7.5529 6.9996,6.9999 C6.9996,6.4479 6.5526,5.9999 5.9996,5.9999 C5.4476,5.9999 4.9996,6.4479 4.9996,6.9999 C4.9996,7.5529 5.4476,7.9999 5.9996,7.9999 Z M5.9996,11.9999 C6.5526,11.9999 6.9996,11.5529 6.9996,10.9999 C6.9996,10.4479 6.5526,9.9999 5.9996,9.9999 C5.4476,9.9999 4.9996,10.4479 4.9996,10.9999 C4.9996,11.5529 5.4476,11.9999 5.9996,11.9999 Z M5.9996,15.9999 C6.5526,15.9999 6.9996,15.5529 6.9996,14.9999 C6.9996,14.4479 6.5526,13.9999 5.9996,13.9999 C5.4476,13.9999 4.9996,14.4479 4.9996,14.9999 C4.9996,15.5529 5.4476,15.9999 5.9996,15.9999 Z M5.9996,19.9999 C6.5526,19.9999 6.9996,19.5529 6.9996,18.9999 C6.9996,18.4479 6.5526,17.9999 5.9996,17.9999 C5.4476,17.9999 4.9996,18.4479 4.9996,18.9999 C4.9996,19.5529 5.4476,19.9999 5.9996,19.9999 Z M15.5298834,8.45164301 C13.6393177,8.45164301 11.748752,8.68796372 11.748752,10.3422087 L11.748752,14.8323023 C11.748752,15.7459165 12.4893827,16.4865473 13.402997,16.4865473 L12.6940349,17.1955094 L12.6940349,17.4318301 L13.7480252,17.4318301 L14.6933081,16.4865473 L16.4751663,16.4865473 L17.4204491,17.4318301 L18.365732,17.4318301 L18.365732,17.1955094 L17.6567698,16.4865473 C18.5703841,16.4865473 19.3110148,15.7459165 19.3110148,14.8323023 L19.3110148,10.3422087 C19.3110148,8.68796372 17.6189585,8.45164301 15.5298834,8.45164301 Z M13.402997,15.5412644 C13.011448,15.5412644 12.6940349,15.2238512 12.6940349,14.8323023 C12.6940349,14.4407533 13.011448,14.1233401 13.402997,14.1233401 C13.794546,14.1233401 14.1119591,14.4407533 14.1119591,14.8323023 C14.1119591,15.2238512 13.794546,15.5412644 13.402997,15.5412644 Z M15.057242,12.2327744 L12.6940349,12.2327744 L12.6940349,10.3422087 L15.057242,10.3422087 L15.057242,12.2327744 Z M16.0025248,12.2327744 L16.0025248,10.3422087 L18.365732,10.3422087 L18.365732,12.2327744 L16.0025248,12.2327744 Z M17.6567698,15.5412644 C17.2652209,15.5412644 16.9478077,15.2238512 16.9478077,14.8323023 C16.9478077,14.4407533 17.2652209,14.1233401 17.6567698,14.1233401 C18.0483188,14.1233401 18.365732,14.4407533 18.365732,14.8323023 C18.365732,15.2238512 18.0483188,15.5412644 17.6567698,15.5412644 Z"/></svg>
