<!--category:time-->
<!--character:E000-->
<svg width="24" height="24" viewBox="0 0 24 24" xmlns="http://www.w3.org/2000/svg"><path d="M12 2c5.5204.006 9.994 4.4796 10 10 0 5.5228-4.4772 10-10 10S2 17.5228 2 12 6.4772 2 12 2zM3.6667 12c0 4.6024 3.731 8.3333 8.3333 8.3333 4.6003-.005 8.3283-3.733 8.3333-8.3333 0-4.6024-3.731-8.3333-8.3333-8.3333-4.6024 0-8.3333 3.731-8.3333 8.3333zM12 5.3333c3.6819 0 6.6667 2.9848 6.6667 6.6667 0 3.6819-2.9848 6.6667-6.6667 6.6667-3.6819 0-6.6667-2.9848-6.6667-6.6667a.4167.4167 0 0 1 .4167-.4167h5.8333V5.75A.4167.4167 0 0 1 12 5.3333z"/></svg>