<svg width="24" height="24" viewBox="0 0 24 24" version="1.1" xmlns="http://www.w3.org/2000/svg"><path id="timer-a" d="M14,1 L10,1 C9.45,1 9,1.45 9,2 C9,2.55 9.45,3 10,3 L14,3 C14.55,3 15,2.55 15,2 C15,1.45 14.55,1 14,1 Z M12,14 C12.55,14 13,13.55 13,13 L13,9 C13,8.45 12.55,8 12,8 C11.45,8 11,8.45 11,9 L11,13 C11,13.55 11.45,14 12,14 Z M19.03,7.39 L19.78,6.64 C20.16,6.26 20.17,5.63 19.78,5.24 L19.77,5.23 C19.38,4.84 18.76,4.85 18.37,5.23 L17.62,5.98 C16.07,4.74 14.12,4 12,4 C7.2,4 3.12,7.96 3,12.76 C2.87,17.84 6.94,22 12,22 C16.98,22 21,17.97 21,13 C21,10.88 20.26,8.93 19.03,7.39 Z M12,20 C8.13,20 5,16.87 5,13 C5,9.13 8.13,6 12,6 C15.87,6 19,9.13 19,13 C19,16.87 15.87,20 12,20 Z"/></svg>