<!--description:Use when showing some interesting tips-->
<!--category:travel-->
<!--character:E047-->
<!--added:0.11-->
<svg width="24" height="24" viewBox="0 0 24 24" xmlns="http://www.w3.org/2000/svg"><path d="M13.5625 19.9167h.0017a.4167.4167 0 0 1 .3725.6033l-.2792.5583A1.6584 1.6584 0 0 1 12.1667 22h-.3334a1.6584 1.6584 0 0 1-1.4891-.9217l-.2792-.5583a.4167.4167 0 0 1 .3725-.6033h3.125zM12 5.75a.8333.8333 0 0 1-.8333-.8333V2.8333a.8333.8333 0 1 1 1.6666 0v2.0834A.8333.8333 0 0 1 12 5.75zm7.66-.5767a.8333.8333 0 0 1 0 1.1784l-1.4733 1.4725a.8333.8333 0 1 1-1.1784-1.1784l1.4734-1.4725a.8333.8333 0 0 1 1.1783 0zm2.34 7.66a.8333.8333 0 0 1-.8333.8334H19.5A.8333.8333 0 0 1 19.5 12h1.6667a.8333.8333 0 0 1 .8333.8333zM6.9917 6.6458a.8333.8333 0 0 1-1.1784 1.1784L4.34 6.3517a.8333.8333 0 0 1 1.1783-1.1784l1.4734 1.4725zM4.5 12a.8333.8333 0 0 1 0 1.6667H2.8333a.8333.8333 0 0 1 0-1.6667H4.5zM12 7c2.34-.0023 4.4199 1.4908 5.1661 3.7086.7462 2.218-.008 4.6646-1.8736 6.0772a.4167.4167 0 0 0-.1667.3534l.015.2975v.0258c-.0082.6668-.5506 1.2033-1.2175 1.2042h-3.8466a1.22 1.22 0 0 1-1.2209-1.2209v-.37a.4167.4167 0 0 0-.1666-.3333 5.3385 5.3385 0 0 1-2.1384-4.2942C6.5545 9.4405 8.9922 7.0033 12 7zm2.1617 8.5467h.0033c1.3562-.9445 1.9422-2.66 1.4472-4.2368-.495-1.5768-1.9562-2.6497-3.6089-2.6497-1.6526 0-3.1139 1.073-3.6088 2.6497-.495 1.5767.091 3.2923 1.4472 4.2368.4304.2995.6871.7906.6875 1.315a.1375.1375 0 0 0 .1375.1383h2.6666a.1385.1385 0 0 0 .1417-.1383 1.6033 1.6033 0 0 1 .6867-1.315z"/></svg>