<!--category:services-->
<!--character:E129-->
<!--added:0.11-->
<svg width="24" height="24" viewBox="0 0 24 24" version="1.1" xmlns="http://www.w3.org/2000/svg"><path id="toilets-a" d="M19,8 C17.8954305,8 17,7.1045695 17,6 C17,4.8954305 17.8954305,4 19,4 C20.1045695,4 21,4.8954305 21,6 C21,7.1045695 20.1045695,8 19,8 Z M19,9 C21.393,9 23,11.009 23,14 L23,16 C23,16.552 22.552,17 22,17 L21,17 L21,21 C21,21.552 20.552,22 20,22 L18,22 C17.448,22 17,21.552 17,21 L17,17 L16,17 C15.448,17 15,16.552 15,16 L15,14 C15,11.009 16.607,9 19,9 Z M11,2 L13,2 L13,22 L11,22 L11,2 Z M5,8 C3.8954305,8 3,7.1045695 3,6 C3,4.8954305 3.8954305,4 5,4 C6.1045695,4 7,4.8954305 7,6 C7,7.1045695 6.1045695,8 5,8 Z M8.175,14.533 C8.394,15.429 8.654,16.493 8.969,17.757 C9.043,18.053 8.979,18.365 8.794,18.607 C8.61,18.849 8.325,18.993 8.021,19 C8.021,19 7.277,19.016 6.69,19.018 C6.499,19.591 6.212,20.483 5.954,21.301 C5.823,21.717 5.437,22 5,22 C4.563,22 4.177,21.717 4.047,21.301 C3.789,20.483 3.503,19.591 3.311,19.018 C2.724,19.016 1.979,19 1.979,19 C1.674,18.993 1.39,18.849 1.205,18.608 C1.021,18.366 0.956,18.053 1.03,17.758 C1.345,16.496 1.605,15.434 1.824,14.539 C3.05,9.524 3.179,9 4.978,9 C6.821,9 6.949,9.523 8.175,14.533 Z"/></svg>