<!--category:transportation-->
<!--character:E028-->
<svg xmlns="http://www.w3.org/2000/svg"  width="24" height="24" viewBox="0 0 24 24"><path id="train-a" d="M12,3 C8,3 4,3.5 4,7 L4,16.5 C4,18.4329966 5.56700338,20 7.5,20 L6,21.5 L6,22 L8.23,22 L10.23,20 L14,20 L16,22 L18,22 L18,21.5 L16.5,20 C18.4329966,20 20,18.4329966 20,16.5 L20,7 C20,3.5 16.42,3 12,3 Z M7.5,18 C6.67157288,18 6,17.3284271 6,16.5 C6,15.6715729 6.67157288,15 7.5,15 C8.32842712,15 9,15.6715729 9,16.5 C9,17.3284271 8.32842712,18 7.5,18 Z M11,11 L6,11 L6,7 L11,7 L11,11 Z M13,11 L13,7 L18,7 L18,11 L13,11 Z M16.5,18 C15.6715729,18 15,17.3284271 15,16.5 C15,15.6715729 15.6715729,15 16.5,15 C17.3284271,15 18,15.6715729 18,16.5 C18,17.3284271 17.3284271,18 16.5,18 Z"/></svg>
