<!--character:E182-->
<svg width="24" height="24" viewBox="0 0 24 24" xmlns="http://www.w3.org/2000/svg"><path d="M4.2222 2C2.995 2 2 2.995 2 4.2222A2.2222 2.2222 0 0 0 3.1111 6.145v9.49A2.2222 2.2222 0 0 0 2 17.5556c0 1.2273.995 2.2222 2.2222 2.2222 1.2273 0 2.2222-.995 2.2222-2.2222a2.2222 2.2222 0 0 0-1.111-1.9228v-3.0772A.5558.5558 0 0 1 5.8888 12h4.4444a.5558.5558 0 0 1 .5556.5556v3.0794a2.2222 2.2222 0 0 0-1.1111 1.9206c0 1.2273.9949 2.2222 2.2222 2.2222s2.2222-.995 2.2222-2.2222a2.2222 2.2222 0 0 0-1.111-1.9228v-3.0772A.5558.5558 0 0 1 13.6666 12h4.4444a.5558.5558 0 0 1 .5556.5556v5.3016a2.2222 2.2222 0 0 0-1.1111 1.9206c0 1.2273.9949 2.2222 2.2222 2.2222S22 21.005 22 19.7778a2.2222 2.2222 0 0 0-1.1111-1.9228V6.1428A2.2222 2.2222 0 0 0 22 4.2222C22 2.995 21.005 2 19.7778 2c-1.2273 0-2.2222.995-2.2222 2.2222a2.2222 2.2222 0 0 0 1.111 1.9228v3.0772a.5558.5558 0 0 1-.5555.5556h-4.4444a.5558.5558 0 0 1-.5556-.5556V6.1428a2.2222 2.2222 0 0 0 1.1111-1.9206C14.2222 2.995 13.2273 2 12 2s-2.2222.995-2.2222 2.2222a2.2222 2.2222 0 0 0 1.111 1.9228v3.0772a.5558.5558 0 0 1-.5555.5556H5.889a.5558.5558 0 0 1-.5556-.5556V6.1428a2.2222 2.2222 0 0 0 1.1111-1.9206C6.4444 2.995 5.4495 2 4.2222 2z"/></svg>