<svg width="24" height="24" viewBox="0 0 24 24" version="1.1" xmlns="http://www.w3.org/2000/svg"><path d="M23,20 C23,22.2 21.2,24 19,24 L11.7,24 C10.62,24 9.6,23.57 8.85,22.81 L1,14.83 C1,14.83 1.96060341,13.8300817 2.3,13.58 C2.63939659,13.3299183 2.79421615,13.3176632 3.09,13.29 C3.38578385,13.2623368 3.51,13.35 3.69,13.45 C3.73,13.46 8,15.91 8,15.91 L8,4 C8,3.17 8.67,2.5 9.5,2.5 C10.33,2.5 11,3.17 11,4 L11,11 L12,11 L12,1.5 C12,0.67 12.67,0 13.5,0 C14.33,0 15,0.67 15,1.5 L15,11 L16,11 L16,2.5 C16,1.67 16.67,1 17.5,1 C18.33,1 19,1.67 19,2.5 L19,11 L20,11 L20,5.5 C20,4.67 20.67,4 21.5,4 C22.33,4 23,4.67 23,5.5 L23,20 Z" id="path-1"></path></svg>