<!--category:transportation-->
<!--character:E052-->
<svg width="24" height="24" viewBox="0 0 24 24" xmlns="http://www.w3.org/2000/svg"><path d="M11.438 6.4578c-1.231 0-2.2289-.998-2.2289-2.229 0-1.2309.998-2.2288 2.229-2.2288 1.2309 0 2.2288.9979 2.2288 2.2289 0 1.231-.998 2.2289-2.2289 2.2289zm1.9534 4.8108l-.2568-.1944a.2229.2229 0 0 0-.3566.1783v1.6084a.8853.8853 0 0 0 .3165.6722 15.3347 15.3347 0 0 1 4.0726 6.7027 1.3373 1.3373 0 0 1-.846 1.694 1.3195 1.3195 0 0 1-.4227.0695 1.3373 1.3373 0 0 1-1.2686-.9147 14.8185 14.8185 0 0 0-2.154-4.3927.2229.2229 0 0 0-.386.0722 15.4524 15.4524 0 0 1-2.2824 4.7333c-.4612.577-1.3028.671-1.8799.21-.577-.4612-.671-1.3028-.21-1.8799a11.3628 11.3628 0 0 0 1.973-4.1903 17.3184 17.3184 0 0 0 .4129-3.7597v-1.2098a.2229.2229 0 0 0-.3388-.1908 3.0429 3.0429 0 0 0-1.4461 2.6247c-.0352.7127-.6238 1.2722-1.3374 1.2714a1.3373 1.3373 0 0 1-1.3373-1.4381A5.6337 5.6337 0 0 1 8.774 7.9681a5.0819 5.0819 0 0 1 5.3164.4814l.9058.6794a4.916 4.916 0 0 0 1.3944.731l.9852.3272c.641.1973 1.048.826.9655 1.4916a1.3373 1.3373 0 0 1-1.7457 1.068l-1.0484-.3494a7.5943 7.5943 0 0 1-2.1558-1.1287z"/></svg>