<!--category:money-->
<!--character:E133-->
<svg width="24" height="24" viewBox="0 0 24 24" xmlns="http://www.w3.org/2000/svg"><path d="M17.76 16.9538v.09h1.71c.09 0 .18.0899.18.1798v1.8882c0 .989-.81 1.8882-1.89 1.8882H4.89C3.81 21 3 20.1009 3 19.1118V9.1312c0-1.079.81-1.8882 1.89-1.8882h12.87c1.08 0 1.89.8093 1.89 1.8882v1.8883c0 .0899-.09.1798-.18.1798h-1.71c-1.62 0-2.88 1.2588-2.88 2.8773 0 1.6184 1.35 2.8772 2.88 2.8772zm2.25-4.5856c.63.0899.99.6294.99 1.079v1.1688c0 .6295-.45 1.079-.99 1.169h-2.25c-.99 0-1.71-.8093-1.71-1.7084 0-.8992.81-1.7084 1.71-1.7084h2.25zm-2.07-8.6318l.45 2.068v.09c0 .0898-.09.1797-.18.1797H7.05c-.09 0-.18-.0899-.18-.1798s.09-.1798.18-.1798l9.81-2.6975c.45-.0899.99.1799 1.08.7194z"/></svg>