<svg width="24" height="24" viewBox="0 0 24 24" version="1.1" xmlns="http://www.w3.org/2000/svg"><path id="wallet-a" d="M21,9.9995 C21.552,9.9995 22,10.4485 22,10.9995 L22,16.9995 C22,17.5515 21.552,17.9995 21,17.9995 L20,17.9995 L20,19.9995 C20,21.1025 19.103,21.9995 18,21.9995 L4,21.9995 C2.897,21.9995 2,21.1025 2,19.9995 L2,7.9995 C2,6.8975 2.897,5.9995 4,5.9995 L4.807,5.9995 L14.628,2.0705 C15.113,1.8795 15.662,2.0875 15.894,2.5525 L17.618,5.9995 L18,5.9995 C19.103,5.9995 20,6.8975 20,7.9995 L20,9.9995 L21,9.9995 Z M14.517,4.2695 L10.193,5.9995 L15.382,5.9995 L14.517,4.2695 Z M20,15.9995 L20,11.9995 L13.415,11.9995 L11.415,13.9995 L13.415,15.9995 L20,15.9995 Z M15,14.9995 C14.448,14.9995 14,14.5525 14,13.9995 C14,13.4485 14.448,12.9995 15,12.9995 C15.552,12.9995 16,13.4485 16,13.9995 C16,14.5525 15.552,14.9995 15,14.9995 Z"/></svg>