<svg width="24" height="24" viewBox="0 0 24 24" version="1.1" xmlns="http://www.w3.org/2000/svg"><path d="M9.5,20 C7.567,20 6,18.433 6,16.5 C6,14.566 7.567,13 9.5,13 C11.433,13 13,14.566 13,16.5 C13,18.433 11.433,20 9.5,20 L9.5,20 Z M18.82,19 L17.82,14 L14.395,14 C13.985,13.2 13.387,12.514 12.656,12 L17,12 L17,10 L11,10 L11,8.316 C12.163,7.903 13,6.804 13,5.5 C13,3.844 11.657,2.5 10,2.5 C8.344,2.5 7,3.844 7,5.5 C7,6.804 7.838,7.903 9,8.316 L9,11.025 C6.197,11.278 4,13.631 4,16.5 C4,19.537 6.463,22 9.5,22 C12.537,22 15,19.537 15,16.5 C15,16.331 14.99,16.165 14.975,16 L16.18,16 L17.18,21 L20,21 L20,19 L18.82,19 Z" id="path-1"></path></svg>