<!--category:services-->
<!--character:E062-->
<!--added:0.11-->
<svg width="24" height="24" viewBox="0 0 24 24" version="1.1" xmlns="http://www.w3.org/2000/svg"><path id="wifi-copy-a" d="M11.8,21 L15.4,16.2 C14.4,15.45 13.15,15 11.8,15 C10.45,15 9.2,15.45 8.2,16.2 L11.8,21 Z M11.8,3 C7.75,3 4.01,4.34 1,6.6 L2.8,9 C5.3,7.12 8.42,6 11.8,6 C15.18,6 18.3,7.12 20.8,9 L22.6,6.6 C19.59,4.34 15.85,3 11.8,3 Z M11.8,9 C9.1,9 6.61,9.89 4.6,11.4 L6.4,13.8 C7.9,12.67 9.77,12 11.8,12 C13.83,12 15.7,12.67 17.2,13.8 L19,11.4 C16.99,9.89 14.5,9 11.8,9 Z"/></svg>