<svg width="24" height="24" viewBox="0 0 24 24" version="1.1" xmlns="http://www.w3.org/2000/svg"><path id="wifi-a" d="M12,22.001 C10.346,22.001 9,20.655 9,19.001 C9,17.347 10.346,16.001 12,16.001 C13.654,16.001 15,17.347 15,19.001 C15,20.656 13.654,22.001 12,22.001 Z M16.242,14.759 C15.109,13.624 13.603,13.001 12,13.001 C10.397,13.001 8.891,13.624 7.758,14.759 L6.344,13.345 C7.854,11.833 9.864,11.001 12,11.001 C14.136,11.001 16.146,11.833 17.656,13.345 L16.242,14.759 Z M21.9,9.101 C19.255,6.457 15.739,5.001 12,5.001 C8.26,5.001 4.744,6.456 2.1,9.101 L0.686,7.687 C3.707,4.666 7.725,3.001 12,3.001 C16.273,3.001 20.291,4.665 23.315,7.687 L21.9,9.101 Z M19.07,11.929 C15.172,8.031 8.828,8.031 4.929,11.929 L3.515,10.515 C8.193,5.837 15.805,5.837 20.484,10.515 L19.07,11.929 Z"/></svg>