<!--description:When wifi is not available.-->
<!--category:services-->
<!--character:005a-->
<!--added:0.11-->
<svg width="24" height="24" viewBox="0 0 24 24" xmlns="http://www.w3.org/2000/svg"><path d="M7.8393 14.994a.8992.8992 0 0 1-.0893-.0773 1.0562 1.0562 0 0 1 0-1.5c.9253-.9253 2.0913-1.4894 3.3311-1.6645l2.0873-2.0872c-2.2364-.3433-4.6158.3517-6.4184 2.085-.3333.4167-1 .4167-1.4167 0a1.0563 1.0563 0 0 1 0-1.5c2.592-2.518 6.303-3.3247 9.5534-2.3034l1.5273-1.5273C12.4951 4.6094 7.6976 5.3096 4.5 8.5833a1.0562 1.0562 0 0 1-1.5 0 1.0562 1.0562 0 0 1 0-1.5C7.0334 3.05 13.1606 2.3376 17.9542 4.8791L20.5833 2.25c.3334-.3333.8334-.3333 1.1667 0 .3333.3333.3333.8333 0 1.1667L3.4167 21.75c-.25.3333-.8334.3333-1.1667 0-.3333-.3333-.3333-.8333 0-1.1667l5.5893-5.5892zM12 16.5c1.1667 0 2.0833.9167 2.0833 2.0833 0 1.1667-.9166 2.0834-2.0833 2.0834s-2.0833-.9167-2.0833-2.0834c0-1.1666.9166-2.0833 2.0833-2.0833zm9-9.4167a1.0562 1.0562 0 0 1 0 1.5 1.0562 1.0562 0 0 1-1.5 0c-.25-.25-.4167-.4166-.6667-.5833l1.5-1.5c.25.1667.5.4167.6667.5833zM14.5833 12.25c.5834.3333 1.1667.6667 1.6667 1.25.25.25.3333.5.3333.75 0 .5833-.4166 1.0833-1 1.0833-.25 0-.5833-.1666-.75-.3333l-.1666-.1667c-.5-.5-1.1667-.75-1.75-.9166l1.6666-1.6667zM17.5 9.3333c.4167.25.75.5834 1.0833 1 .25.25.3334.5.3334.75 0 .5834-.4167 1-1 1-.25 0-.5834-.1666-.75-.3333-.4167-.3333-.75-.6667-1.1667-.9167l1.5-1.5z"/></svg>