<svg width="32" height="32" viewBox="0 0 32 32" xmlns="http://www.w3.org/2000/svg">
  <path fill="currentColor" d="M16 0C7.165 0 0 7.164 0 16c0 7.07 4.584 13.067 10.943 15.183.798.148 1.057-.348 1.057-.77v-2.978c-4.45.968-5.377-1.888-5.377-1.888-.728-1.85-1.778-2.342-1.778-2.342-1.452-.993.111-.972.111-.972 1.607.112 2.452 1.65 2.452 1.65 1.427 2.445 3.743 1.738 4.656 1.329.143-1.033.557-1.74 1.016-2.139-3.553-.406-7.29-1.778-7.29-7.908 0-1.748.626-3.174 1.649-4.294-.166-.404-.714-2.032.156-4.235 0 0 1.344-.43 4.401 1.64A15.345 15.345 0 0 1 16 7.737c1.36.007 2.73.184 4.008.539 3.055-2.07 4.396-1.64 4.396-1.64.87 2.204.323 3.832.157 4.235 1.027 1.12 1.647 2.548 1.647 4.294 0 6.146-3.743 7.499-7.305 7.895.573.496 1.097 1.47 1.097 2.963v4.39c0 .426.256.926 1.068.768C27.421 29.063 32 23.067 32 16c0-8.836-7.164-16-16-16z" />
</svg>
