<svg width="32" height="32" viewBox="0 0 32 32" xmlns="http://www.w3.org/2000/svg">
  <path fill="currentColor" d="M16 0C7.164 0 0 7.164 0 16s7.164 16 16 16 16-7.164 16-16S24.836 0 16 0zm8.088 12.86c.244 5.387-3.773 11.392-10.885 11.392-2.163 0-4.175-.635-5.87-1.721a7.705 7.705 0 0 0 5.67-1.586 3.838 3.838 0 0 1-3.579-2.66 3.84 3.84 0 0 0 1.73-.065c-1.84-.37-3.113-2.03-3.071-3.804a3.82 3.82 0 0 0 1.734.479A3.835 3.835 0 0 1 8.632 9.78a10.87 10.87 0 0 0 7.893 4.002c-.558-2.395 1.259-4.703 3.732-4.703 1.1 0 2.096.465 2.795 1.21a7.637 7.637 0 0 0 2.432-.93 3.845 3.845 0 0 1-1.684 2.119 7.644 7.644 0 0 0 2.199-.604 7.687 7.687 0 0 1-1.911 1.985z" />
</svg>
