<svg xmlns="http://www.w3.org/2000/svg" viewBox="0 0 186.846 186.846"><path d="M93.423.001C41.909.001 0 41.91 0 93.423s41.909 93.422 93.423 93.422 93.423-41.909 93.423-93.422S144.937.001 93.423.001zm60.88 44.06c10.488 12.91 16.945 29.205 17.482 46.968-19.428-4.022-37.02-3.55-52.55-.505a365.92 365.92 0 0 0-8.661-18.762c16.913-7.286 31.637-16.592 43.729-27.701zm-10.524-10.696c-12.003 10.956-25.913 19.068-40.156 25.057-10.454-19.117-20.456-33.513-26.549-41.694a78.382 78.382 0 0 1 16.349-1.727c19.157 0 36.722 6.914 50.356 18.364zM61.924 21.627c4.601 5.962 15.56 20.89 27.332 42.129C59.67 73.395 30.962 75.019 17.167 75.17c5.75-24.02 22.571-43.771 44.757-53.543zM15.082 90.208l.442.001c9.532 0 26.996-.641 47.556-4.39 11.73-2.139 22.853-5.018 33.29-8.586a359.016 359.016 0 0 1 8.037 17.114c-14.614 4.705-26.938 11.475-36.7 18.197-16.37 11.273-27.838 23.78-34.1 31.513C22.013 130.384 15 112.712 15 93.423c0-1.078.038-2.147.082-3.215zm29.334 64.374c5.391-6.788 16.364-19.143 32.237-29.984 10.787-7.368 21.947-12.842 33.436-16.435 6.666 17.278 12.357 36.369 15.75 56.64a77.937 77.937 0 0 1-32.416 7.042c-18.532 0-35.571-6.475-49.007-17.263zm95.223 2.144c-3.497-18.617-8.712-36.122-14.741-52.12 14.83-2.502 30.157-1.986 45.899 1.55-3.395 20.69-14.908 38.674-31.158 50.57z"/></svg>