<svg width="25" height="24" viewBox="0 0 25 24" fill="none" xmlns="http://www.w3.org/2000/svg">
<path d="M13.1286 5.76236C13.1568 5.76323 13.1851 5.76363 13.2133 5.76363C13.2133 5.76363 13.2133 5.76363 13.2134 5.76363C14.2129 5.76363 15.2975 5.2001 15.9762 4.32818C16.6767 3.42942 16.995 2.35129 16.8495 1.37013C16.8162 1.14604 16.6154 0.984878 16.3901 1.00113C15.405 1.07012 14.2898 1.66909 13.6152 2.49146C12.8811 3.38542 12.5448 4.47535 12.7155 5.40701C12.7524 5.60796 12.9244 5.75594 13.1286 5.76236ZM14.2857 3.04186C14.7041 2.53182 15.3814 2.11049 16.0161 1.94152C15.9859 2.80454 15.5173 3.5061 15.2919 3.79524C14.8538 4.35802 14.1802 4.76298 13.5376 4.86887C13.5503 4.01065 14.0978 3.27063 14.2857 3.04186Z" fill="#697D95"/>
<path d="M20.7186 14.0884C20.6727 13.978 20.5831 13.8914 20.4712 13.8492C18.6851 13.1757 18.1257 11.24 18.6319 9.83243C18.8821 9.13428 19.3744 8.56687 20.0555 8.19157C20.1675 8.12981 20.2466 8.02167 20.2716 7.89613C20.2965 7.77059 20.2646 7.64042 20.1846 7.54055C19.2794 6.41083 17.9926 5.73639 16.7425 5.73639C15.8672 5.73639 15.2747 5.9611 14.7519 6.15934C14.3668 6.30535 14.0343 6.43147 13.6531 6.43147C13.2315 6.43147 12.8469 6.29373 12.4015 6.13418C11.8809 5.94769 11.2909 5.73633 10.5535 5.73633C9.13224 5.73633 7.69187 6.59582 6.79392 7.98021C6.46164 8.49517 6.22866 9.13127 6.10115 9.87164C5.74244 11.9778 6.35021 14.4875 7.72714 16.5855C8.50799 17.7727 9.49198 18.988 10.8687 18.9997L10.8968 18.9998C11.4703 18.9998 11.8561 18.8275 12.2293 18.6608C12.6235 18.4848 12.9959 18.3184 13.6705 18.315L13.6927 18.315C14.3545 18.315 14.7151 18.4804 15.0969 18.6556C15.4627 18.8234 15.8409 18.9969 16.4129 18.9969L16.4391 18.9968C17.7883 18.9853 18.8101 17.7069 19.6326 16.4567C20.1382 15.6823 20.3307 15.2866 20.7139 14.4326C20.7629 14.3234 20.7645 14.1989 20.7186 14.0884ZM18.9071 15.9813C18.2519 16.9772 17.3785 18.1214 16.4312 18.1295L16.4128 18.1295C16.0303 18.1295 15.778 18.0137 15.4585 17.8672C15.0511 17.6802 14.544 17.4476 13.6926 17.4476L13.6658 17.4476C12.8089 17.4519 12.2912 17.6831 11.8754 17.8689C11.5457 18.0162 11.2853 18.1325 10.8968 18.1325L10.8767 18.1324C9.90158 18.124 9.06857 17.0466 8.45201 16.1092C7.19253 14.1903 6.63333 11.9129 6.95607 10.0181C7.06351 9.39421 7.25417 8.86682 7.5222 8.45139C8.26141 7.31173 9.42294 6.60374 10.5535 6.60374C11.1402 6.60374 11.6108 6.77231 12.109 6.95077C12.5868 7.12193 13.0808 7.29889 13.6531 7.29889C14.1933 7.29889 14.6337 7.13188 15.0595 6.97037C15.5347 6.79012 16.0262 6.60374 16.7425 6.60374C17.5948 6.60374 18.4801 7.01414 19.1835 7.71993C18.5473 8.18371 18.0789 8.80454 17.8156 9.53924C17.129 11.4485 17.9882 13.5653 19.7432 14.4729C19.4823 15.0386 19.297 15.3839 18.9071 15.9813Z" fill="#697D95"/>
</svg>
