<?xml version="1.0" encoding="UTF-8"?>
<svg width="32px" height="32px" viewBox="0 0 32 32" version="1.1" xmlns="http://www.w3.org/2000/svg" xmlns:xlink="http://www.w3.org/1999/xlink">
    <!-- Generator: Sketch 48.2 (47327) - http://www.bohemiancoding.com/sketch -->
    <title>Icons / 24px / Travel / icn-airplane-takeoff</title>
    <desc>Created with Sketch.</desc>
    <defs>
        <path d="M4.78106624,25.6303818 L27.2663065,25.6303818 L27.2663065,27.9972492 L4.78106624,27.9972492 L4.78106624,25.6303818 Z M27.9408637,14.5534424 C27.6923426,13.6066955 26.7100927,13.0386473 25.7633457,13.2990027 L19.4793128,14.9794786 L11.3136202,7.36999989 L9.02959321,7.97355107 L13.9290087,16.4587707 L8.04734325,18.0327375 L5.71597886,16.2102496 L4,16.6717887 L6.15384933,20.4114392 L7.06509328,21.985406 L8.95858719,21.4765296 L15.2426201,19.7960537 L20.3905567,18.4232706 L26.6745896,16.7427948 C27.6331709,16.470605 28.1893848,15.5001894 27.9408637,14.5534424 L27.9408637,14.5534424 Z" id="path-1"></path>
    </defs>
    <g id="Icons" stroke="none" stroke-width="1" fill="none" fill-rule="evenodd">
        <g id="Icons-/-24px-/-Travel-/-icn-airplane-takeoff">
            <mask id="mask-2" fill="white">
                <use xlink:href="#path-1"></use>
            </mask>
            <use id="Mask" fill="#75818E" xlink:href="#path-1"></use>
            <g id="_Library-Helpers-/-Colors-/-Front-/-Casper" mask="url(#mask-2)" fill="#BAC7D5">
                <g transform="translate(1.000000, 1.000000)" id="Rectangle">
                    <rect x="0" y="0" width="30" height="30"></rect>
                </g>
            </g>
        </g>
    </g>
</svg>