<?xml version="1.0" encoding="UTF-8"?>
<svg width="32px" height="32px" viewBox="0 0 32 32" version="1.1" xmlns="http://www.w3.org/2000/svg" xmlns:xlink="http://www.w3.org/1999/xlink">
    <!-- Generator: Sketch 48.2 (47327) - http://www.bohemiancoding.com/sketch -->
    <title>Icons / 24px / Travel / icn-verified-not (custom)</title>
    <desc>Created with Sketch.</desc>
    <defs>
        <path d="M8.12306129,7.50086143 L8.16690325,7.48137612 L22.9935352,22.3080081 C22.9847835,22.3203613 22.976012,22.3326989 22.9672207,22.3450208 L25.4990902,24.8768903 L24.2114356,26.1645448 L21.806152,23.7592612 C20.2259947,25.4357445 18.229765,26.6755217 15.9999995,27.2199993 C10.5538542,25.8901266 6.50090889,20.4123177 6.50090889,14.5545451 L6.50090889,8.45401805 L4.38999987,6.34310902 L5.67765437,5.05545451 L8.12306129,7.50086143 Z M9.94980949,6.68897335 L15.9999995,4 L25.4990902,8.22181806 L25.4990902,14.5545451 C25.4990902,16.7215838 24.9444146,18.8366216 23.9697246,20.7088885 L9.94980949,6.68897335 Z" id="path-1"></path>
    </defs>
    <g id="Icons" stroke="none" stroke-width="1" fill="none" fill-rule="evenodd">
        <g id="Icons-/-24px-/-Travel-/-icn-verified-not-(custom)">
            <mask id="mask-2" fill="white">
                <use xlink:href="#path-1"></use>
            </mask>
            <use id="Mask" fill="#ABB2BA" xlink:href="#path-1"></use>
            <g id="_Library-Helpers-/-Colors-/-Front-/-Casper" mask="url(#mask-2)" fill="#BAC7D5">
                <g transform="translate(1.000000, 1.000000)" id="Rectangle">
                    <rect x="0" y="0" width="30" height="30"></rect>
                </g>
            </g>
        </g>
    </g>
</svg>