<!--character:8613-->
  <svg width="20" height="20" viewBox="0 0 20 20" >
<path d="M1.77695 11.412C0.863275 5.76388 5.76389 0.863267 11.412 1.77694C14.8176 2.35837 17.6416 5.18245 18.2231 8.58796C19.1367 14.2361 14.2361 19.1367 8.58797 18.2231C5.0994 17.6416 2.35838 14.8175 1.77695 11.412ZM9.91694 15.8143H10.1661C12.1596 15.7312 13.8208 14.7345 14.9006 13.2394C14.07 12.8241 13.2394 12.4918 12.3257 12.1596L11.9104 11.9935C11.7443 11.9104 11.5782 11.6612 11.5782 11.4951C11.4951 11.0798 11.4951 10.6645 11.7443 10.3322C12.2427 9.75081 12.8241 9.00326 12.8241 7.09286V6.76061C12.8241 5.34857 11.5782 4.18571 10.0831 4.18571H9.66776C8.17266 4.35184 7.17592 5.59775 7.17592 7.09286C7.17592 9.00326 7.67429 9.75081 8.25572 10.3322C8.5049 10.6645 8.5049 11.0798 8.42184 11.4951C8.42184 11.7443 8.25572 11.9104 8.0896 11.9935L7.67429 12.1596C7.49193 12.2325 7.30557 12.3055 7.11696 12.3793C6.44649 12.6417 5.74765 12.9153 5.0994 13.2394C6.09613 14.8175 7.92348 15.8143 9.91694 15.8143Z" />
</svg>