<!-- character:0:462 -->
  <svg width="20" height="20" viewBox="0 0 20 20" >
<path   d="M1.77694 11.4121C0.863269 5.7639 5.76388 0.86329 11.412 1.77696C14.8175 2.35839 17.6416 5.18247 18.2231 8.58798C19.1367 14.2361 14.2361 19.1368 8.58796 18.2231C5.09939 17.6416 2.35837 14.8176 1.77694 11.4121ZM9.91694 15.8143H10.1661C12.1596 15.7312 13.8208 14.7345 14.9006 13.2394C14.07 12.8241 13.2394 12.4919 12.3257 12.1596L11.9104 11.9935C11.7443 11.9104 11.5782 11.6612 11.5782 11.4951C11.4951 11.0798 11.4951 10.6645 11.7443 10.3323C12.2427 9.75084 12.8241 9.00329 12.8241 7.09288V6.76063C12.8241 5.34859 11.5782 4.18574 10.0831 4.18574H10H9.66775C8.17265 4.35186 7.17592 5.59778 7.17592 7.09288C7.17592 9.00329 7.67429 9.75084 8.25571 10.3323C8.5049 10.6645 8.5049 11.0798 8.42184 11.4951C8.42184 11.7443 8.25571 11.9104 8.08959 11.9935L7.67429 12.1596C7.49193 12.2326 7.30556 12.3055 7.11696 12.3793C6.44649 12.6417 5.74764 12.9153 5.09939 13.2394C6.09612 14.8176 7.92347 15.8143 9.91694 15.8143Z" />
</svg>