<!--character:7884-->
  <svg width="24" height="24" viewBox="0 0 24 24" >
<path d="M2.13233 13.6944C1.03592 6.91666 6.91666 1.03592 13.6944 2.13233C17.7811 2.83005 21.17 6.21894 21.8677 10.3056C22.9641 17.0833 17.0833 22.9641 10.3056 21.8677C6.11927 21.17 2.83005 17.7811 2.13233 13.6944ZM11.9003 18.9771H12.1993C14.5915 18.8775 16.585 17.6814 17.8807 15.8873C16.884 15.3889 15.8873 14.9902 14.7909 14.5915L14.2925 14.3922C14.0931 14.2925 13.8938 13.9935 13.8938 13.7941C13.7941 13.2958 13.7941 12.7974 14.0931 12.3987C14.6912 11.701 15.3889 10.8039 15.3889 8.51144V8.11274C15.3889 6.41829 13.8938 5.02287 12.0997 5.02287H11.6013C9.80718 5.22221 8.6111 6.71732 8.6111 8.51144C8.6111 10.8039 9.20914 11.701 9.90686 12.3987C10.2059 12.7974 10.2059 13.2958 10.1062 13.7941C10.1062 14.0931 9.90686 14.2925 9.70751 14.3922L9.20914 14.5915C8.99031 14.679 8.76668 14.7666 8.54035 14.8552C7.73579 15.1701 6.89717 15.4983 6.11927 15.8873C7.31535 17.7811 9.50816 18.9771 11.9003 18.9771Z" />
</svg>