<!-- character:0:1951 -->
  <svg width="20" height="20" viewBox="0 0 20 20" >
<path   d="M16.9444 7.74445C16.9444 7.36092 17.2553 7.05001 17.6388 7.05001C18.0224 7.05001 18.3333 7.36092 18.3333 7.74445V14.3417C18.3333 14.7252 18.0224 15.0361 17.6388 15.0361C17.2553 15.0361 16.9444 14.7252 16.9444 14.3417V13.6472C16.9444 13.4555 16.7889 13.3 16.5972 13.3H3.40274C3.21097 13.3 3.05551 13.4555 3.05551 13.6472V14.3417C3.05551 14.7252 2.7446 15.0361 2.36107 15.0361C1.97754 15.0361 1.66663 14.7252 1.66663 14.3417V5.66112C1.66663 5.27759 1.97754 4.96667 2.36107 4.96667C2.7446 4.96667 3.05551 5.27759 3.05551 5.66112V11.5639C3.05551 11.7557 3.21097 11.9111 3.40274 11.9111H16.5972C16.7889 11.9111 16.9444 11.7557 16.9444 11.5639V7.74445ZM7.91663 11.0431H15.3243C15.552 11.0431 15.7585 10.9095 15.8519 10.7018C15.9453 10.494 15.9081 10.2509 15.7569 10.0806C14.3284 8.47362 11.4583 7.48195 8.13121 7.57779C7.81852 7.5868 7.56965 7.84275 7.5694 8.15556V10.6958C7.5694 10.8876 7.72486 11.0431 7.91663 11.0431ZM5.13885 11.0431C5.90591 11.0431 6.52774 10.4212 6.52774 9.65417C6.52774 8.88711 5.90591 8.26529 5.13885 8.26529C4.37179 8.26529 3.74996 8.88711 3.74996 9.65417C3.74996 10.4212 4.37179 11.0431 5.13885 11.0431Z" />
</svg>