<!--character:$550:2770-->
  <svg width="24" height="24" viewBox="0 0 24 24" >
<path d="M20.3333 9.29329C20.3333 8.83306 20.7064 8.45996 21.1667 8.45996C21.6269 8.45996 22 8.83306 22 9.29329V17.21C22 17.6702 21.6269 18.0433 21.1667 18.0433C20.7064 18.0433 20.3333 17.6702 20.3333 17.21V16.3766C20.3333 16.1465 20.1468 15.96 19.9167 15.96H4.08333C3.85321 15.96 3.66667 16.1465 3.66667 16.3766V17.21C3.66667 17.6702 3.29357 18.0433 2.83333 18.0433C2.3731 18.0433 2 17.6702 2 17.21V6.79329C2 6.33306 2.3731 5.95996 2.83333 5.95996C3.29357 5.95996 3.66667 6.33306 3.66667 6.79329V13.8766C3.66667 14.1067 3.85321 14.2933 4.08333 14.2933H19.9167C20.1468 14.2933 20.3333 14.1067 20.3333 13.8766V9.29329Z" />
<path d="M9.49998 13.2516H18.3891C18.6624 13.2516 18.9103 13.0913 19.0223 12.8421C19.1344 12.5928 19.0897 12.301 18.9083 12.0966C17.1941 10.1683 13.75 8.97829 9.75748 9.09329C9.38226 9.10411 9.08361 9.41125 9.08331 9.78662V12.835C9.08331 13.0651 9.26986 13.2516 9.49998 13.2516Z" />
<path d="M6.16667 13.2516C7.08714 13.2516 7.83333 12.5054 7.83333 11.585C7.83333 10.6645 7.08714 9.91829 6.16667 9.91829C5.24619 9.91829 4.5 10.6645 4.5 11.585C4.5 12.5054 5.24619 13.2516 6.16667 13.2516Z" />
</svg>