<!--character:7695-->
  <svg width="20" height="20" viewBox="0 0 20 20" >
<path d="M16.9448 7.74445C16.9448 7.36091 17.2557 7.05 17.6392 7.05C18.0227 7.05 18.3337 7.36091 18.3337 7.74445V14.3417C18.3337 14.7252 18.0227 15.0361 17.6392 15.0361C17.2557 15.0361 16.9448 14.7252 16.9448 14.3417V13.6472C16.9448 13.4555 16.7893 13.3 16.5975 13.3H3.4031C3.21134 13.3 3.05588 13.4555 3.05588 13.6472V14.3417C3.05588 14.7252 2.74497 15.0361 2.36144 15.0361C1.97791 15.0361 1.66699 14.7252 1.66699 14.3417V5.66111C1.66699 5.27758 1.97791 4.96667 2.36144 4.96667C2.74497 4.96667 3.05588 5.27758 3.05588 5.66111V11.5639C3.05588 11.7557 3.21134 11.9111 3.4031 11.9111H16.5975C16.7893 11.9111 16.9448 11.7557 16.9448 11.5639V7.74445Z" />
<path d="M7.91699 11.0431H15.3246C15.5524 11.0431 15.7589 10.9095 15.8523 10.7017C15.9456 10.494 15.9085 10.2509 15.7573 10.0806C14.3288 8.47361 11.4587 7.48194 8.13158 7.57778C7.81889 7.58679 7.57002 7.84274 7.56977 8.15556V10.6958C7.56977 10.8876 7.72523 11.0431 7.91699 11.0431Z" />
<path d="M5.13921 11.0431C5.90628 11.0431 6.5281 10.4212 6.5281 9.65417C6.5281 8.8871 5.90628 8.26528 5.13921 8.26528C4.37215 8.26528 3.75033 8.8871 3.75033 9.65417C3.75033 10.4212 4.37215 11.0431 5.13921 11.0431Z" />
</svg>