<!--character:3024:2679-->
<svg width="24" height="24" viewBox="0 0 24 24">
  <path d="M11.1009 15.7455C10.784 15.4044 10.5633 14.9853 10.4612 14.5311C10.3591 14.0768 10.3793 13.6037 10.5196 13.1597C10.66 12.7158 10.9155 12.3171 11.2602 12.0041C11.6049 11.6911 12.0264 11.4751 12.4817 11.3781C12.5244 11.371 12.5635 11.3497 12.5927 11.3176C12.6218 11.2856 12.6393 11.2447 12.6423 11.2015C12.6456 11.1576 12.635 11.1138 12.6119 11.0763C12.5889 11.0388 12.5545 11.0095 12.5138 10.9927L11.5986 10.6555L11.0928 10.4709C11.0317 10.4008 10.9926 10.3142 10.9804 10.222C10.907 9.87572 10.9236 9.5164 11.0286 9.17833C11.4555 8.71424 11.7803 8.16581 11.9822 7.56844C12.1841 6.97106 12.2586 6.338 12.2007 5.71009C12.2007 3.77526 10.9403 2.36227 9.19011 2.36227C8.76776 2.37068 8.35162 2.46557 7.96738 2.64108C7.58314 2.81659 7.23896 3.06901 6.95608 3.38273C6.6732 3.69646 6.45762 4.06484 6.32267 4.46513C6.18772 4.86542 6.13626 5.28913 6.17145 5.71009C6.11435 6.33486 6.18841 6.96466 6.38887 7.55914C6.58934 8.15362 6.91179 8.69967 7.33556 9.16228C7.45536 9.50263 7.47761 9.86969 7.39979 10.222C7.38757 10.3142 7.34848 10.4008 7.28739 10.4709L6.7816 10.6555C4.81466 11.3781 3.40167 11.8999 2.96814 12.7991C2.5854 13.6873 2.38082 14.642 2.36602 15.609C2.36602 15.7155 2.40831 15.8176 2.48359 15.8929C2.55887 15.9682 2.66097 16.0105 2.76743 16.0105H10.9885C11.0192 16.0099 11.0492 16.0006 11.0749 15.9835C11.1005 15.9664 11.1207 15.9423 11.133 15.9141C11.1441 15.8859 11.147 15.855 11.1413 15.8252C11.1356 15.7953 11.1216 15.7677 11.1009 15.7455Z" />
  <path d="M16.6163 17.2388C17.2814 17.2388 17.8205 16.6996 17.8205 16.0345C17.8205 15.3694 17.2814 14.8303 16.6163 14.8303C15.9512 14.8303 15.412 15.3694 15.412 16.0345C15.412 16.6996 15.9512 17.2388 16.6163 17.2388Z" />
  <path d="M21.2486 14.9266C21.4596 14.7028 21.5917 14.4163 21.625 14.1105C21.6584 13.8048 21.591 13.4966 21.4333 13.2326C21.2841 12.9664 21.0519 12.7563 20.7721 12.6345C20.4923 12.5127 20.1803 12.4859 19.8838 12.5582L18.7438 12.799C18.6547 12.8172 18.5619 12.8019 18.4834 12.756C18.4049 12.7101 18.3461 12.6368 18.3183 12.5502L17.9811 11.4342C17.8954 11.1385 17.7159 10.8787 17.4698 10.6938C17.2237 10.5089 16.9241 10.4089 16.6163 10.4089C16.3084 10.4089 16.0089 10.5089 15.7627 10.6938C15.5166 10.8787 15.3372 11.1385 15.2515 11.4342L14.9143 12.5582C14.8848 12.6454 14.8245 12.7189 14.7446 12.7647C14.6648 12.8106 14.5709 12.8256 14.4807 12.8071L13.3487 12.5421C13.0426 12.4593 12.7176 12.4807 12.4249 12.6028C12.1322 12.725 11.8885 12.9411 11.7322 13.217C11.5758 13.493 11.5157 13.8131 11.5613 14.1269C11.6068 14.4408 11.7555 14.7306 11.9839 14.9506L12.7868 15.8097C12.8488 15.8777 12.8832 15.9665 12.8832 16.0585C12.8832 16.1506 12.8488 16.2394 12.7868 16.3074L11.9839 17.1665C11.7718 17.3896 11.6388 17.6762 11.6055 17.9823C11.5721 18.2883 11.6402 18.5969 11.7993 18.8604C11.9474 19.1276 12.1795 19.3385 12.4596 19.4604C12.7398 19.5823 13.0523 19.6085 13.3487 19.5348L14.4807 19.2217C14.5709 19.2032 14.6648 19.2182 14.7446 19.2641C14.8245 19.3099 14.8848 19.3834 14.9143 19.4706L15.2515 20.5946C15.3419 20.8859 15.5231 21.1406 15.7687 21.3215C16.0143 21.5024 16.3113 21.6 16.6163 21.6C16.9213 21.6 17.2183 21.5024 17.4639 21.3215C17.7094 21.1406 17.8907 20.8859 17.9811 20.5946L18.3183 19.4706C18.3461 19.384 18.4049 19.3107 18.4834 19.2648C18.5619 19.2188 18.6547 19.2035 18.7438 19.2217L19.8838 19.4866C20.1803 19.5603 20.4928 19.5341 20.7729 19.4122C21.053 19.2903 21.2851 19.0794 21.4333 18.8123C21.5897 18.5479 21.6563 18.2399 21.623 17.9345C21.5897 17.6291 21.4584 17.3427 21.2486 17.1183L20.4458 16.2593C20.3837 16.1912 20.3493 16.1025 20.3493 16.0104C20.3493 15.9183 20.3837 15.8295 20.4458 15.7615L21.2486 14.9266ZM16.6163 18.4189C16.1399 18.4189 15.6743 18.2776 15.2782 18.013C14.8821 17.7483 14.5734 17.3722 14.3911 16.9321C14.2088 16.492 14.1611 16.0077 14.254 15.5405C14.347 15.0733 14.5764 14.6441 14.9132 14.3073C15.25 13.9705 15.6792 13.7411 16.1464 13.6482C16.6136 13.5552 17.0979 13.6029 17.538 13.7852C17.9781 13.9675 18.3542 14.2762 18.6189 14.6723C18.8835 15.0684 19.0248 15.534 19.0248 16.0104C19.0248 16.6492 18.771 17.2618 18.3193 17.7134C17.8677 18.1651 17.255 18.4189 16.6163 18.4189Z" />
</svg>
