<!-- character:1903:1009 -->
  <svg width="20" height="20" viewBox="0 0 20 20" >
<path d="M9.25059 13.1212C8.98658 12.8369 8.80266 12.4877 8.71757 12.1092C8.63249 11.7306 8.64928 11.3363 8.76625 10.9664C8.88321 10.5965 9.09615 10.2642 9.38338 10.0034C9.67061 9.74254 10.0219 9.56254 10.4013 9.4817C10.4369 9.47577 10.4695 9.45802 10.4938 9.43132C10.518 9.40462 10.5326 9.37051 10.5351 9.33451C10.5379 9.29793 10.529 9.26141 10.5098 9.23017C10.4906 9.19893 10.462 9.17457 10.4281 9.16056L9.66539 8.87957L9.2439 8.72569C9.19299 8.66726 9.16042 8.59512 9.15023 8.5183C9.08908 8.22972 9.1029 7.93028 9.19038 7.64856C9.54611 7.26181 9.81683 6.80479 9.98507 6.30698C10.1533 5.80916 10.2153 5.28161 10.1672 4.75836C10.1672 3.146 9.11678 1.96851 7.6583 1.96851C7.30635 1.97551 6.95956 2.05459 6.63936 2.20085C6.31916 2.34711 6.03234 2.55745 5.79661 2.81889C5.56087 3.08033 5.38123 3.38731 5.26877 3.72089C5.15631 4.05447 5.11342 4.40756 5.14275 4.75836C5.09517 5.27899 5.15688 5.80383 5.32394 6.29923C5.49099 6.79463 5.7597 7.24967 6.11284 7.63518C6.21268 7.9188 6.23122 8.22469 6.16637 8.5183C6.15618 8.59512 6.12361 8.66726 6.0727 8.72569L5.65121 8.87957C4.01209 9.4817 2.8346 9.91657 2.47333 10.6659C2.15438 11.406 1.9839 12.2016 1.97156 13.0075C1.97156 13.0962 2.0068 13.1813 2.06953 13.244C2.13227 13.3067 2.21735 13.342 2.30607 13.342H9.15692C9.18258 13.3416 9.20758 13.3338 9.22893 13.3195C9.25028 13.3053 9.26709 13.2852 9.27735 13.2617C9.28664 13.2382 9.28905 13.2125 9.28431 13.1876C9.27958 13.1627 9.26788 13.1397 9.25059 13.1212Z" />
<path d="M13.8468 14.3656C14.401 14.3656 14.8503 13.9163 14.8503 13.3621C14.8503 12.8078 14.401 12.3585 13.8468 12.3585C13.2925 12.3585 12.8432 12.8078 12.8432 13.3621C12.8432 13.9163 13.2925 14.3656 13.8468 14.3656Z" />
<path d="M17.7071 12.4387C17.8828 12.2522 17.993 12.0135 18.0207 11.7587C18.0485 11.504 17.9924 11.2471 17.8609 11.0271C17.7366 10.8052 17.5431 10.6302 17.3099 10.5287C17.0768 10.4272 16.8168 10.4049 16.5697 10.4651L15.6197 10.6658C15.5454 10.681 15.4682 10.6682 15.4027 10.6299C15.3373 10.5917 15.2883 10.5306 15.2651 10.4584L14.9841 9.52847C14.9127 9.28206 14.7632 9.06552 14.558 8.91143C14.3529 8.75733 14.1033 8.67401 13.8468 8.67401C13.5902 8.67401 13.3406 8.75733 13.1355 8.91143C12.9304 9.06552 12.7809 9.28206 12.7094 9.52847L12.4284 10.4651C12.4039 10.5378 12.3536 10.599 12.2871 10.6372C12.2205 10.6754 12.1423 10.688 12.0672 10.6725L11.1238 10.4517C10.8687 10.3827 10.5979 10.4005 10.354 10.5023C10.1101 10.6041 9.90699 10.7842 9.77669 11.0141C9.64639 11.2441 9.59629 11.5108 9.63427 11.7724C9.67225 12.0339 9.79616 12.2754 9.98648 12.4588L10.6555 13.1747C10.7072 13.2314 10.7359 13.3053 10.7359 13.3821C10.7359 13.4588 10.7072 13.5328 10.6555 13.5895L9.98648 14.3053C9.8097 14.4913 9.6989 14.7301 9.6711 14.9852C9.6433 15.2402 9.70004 15.4973 9.8326 15.717C9.95606 15.9396 10.1495 16.1153 10.3829 16.2169C10.6163 16.3185 10.8768 16.3403 11.1238 16.279L12.0672 16.018C12.1423 16.0026 12.2205 16.0151 12.2871 16.0533C12.3536 16.0915 12.4039 16.1527 12.4284 16.2254L12.7094 17.1621C12.7848 17.4048 12.9358 17.6171 13.1404 17.7679C13.3451 17.9186 13.5926 17.9999 13.8468 17.9999C14.1009 17.9999 14.3485 17.9186 14.5531 17.7679C14.7577 17.6171 14.9088 17.4048 14.9841 17.1621L15.2651 16.2254C15.2883 16.1533 15.3373 16.0922 15.4027 16.0539C15.4682 16.0156 15.5454 16.0029 15.6197 16.018L16.5697 16.2388C16.8168 16.3002 17.0772 16.2784 17.3106 16.1768C17.5441 16.0752 17.7375 15.8995 17.8609 15.6768C17.9913 15.4565 18.0468 15.1999 18.0191 14.9454C17.9913 14.6909 17.8819 14.4522 17.7071 14.2652L17.038 13.5493C16.9863 13.4926 16.9577 13.4187 16.9577 13.3419C16.9577 13.2652 16.9863 13.1912 17.038 13.1345L17.7071 12.4387ZM13.8468 15.349C13.4498 15.349 13.0618 15.2313 12.7317 15.0108C12.4016 14.7902 12.1444 14.4768 11.9925 14.11C11.8406 13.7433 11.8008 13.3397 11.8783 12.9504C11.9557 12.561 12.1469 12.2034 12.4275 11.9227C12.7082 11.642 13.0659 11.4509 13.4552 11.3734C13.8445 11.296 14.2481 11.3357 14.6149 11.4876C14.9816 11.6395 15.2951 11.8968 15.5156 12.2269C15.7361 12.5569 15.8539 12.945 15.8539 13.3419C15.8539 13.8742 15.6424 14.3848 15.266 14.7612C14.8896 15.1376 14.3791 15.349 13.8468 15.349Z" />
</svg>