<!--character:228:1903:1011-->
  <svg width="24" height="24" viewBox="0 0 24 24" >
<path d="M11.0951 15.9232C10.7663 15.569 10.5372 15.1341 10.4312 14.6626C10.3252 14.1911 10.3461 13.6999 10.4918 13.2392C10.6375 12.7784 10.9027 12.3645 11.2605 12.0396C11.6183 11.7147 12.0558 11.4905 12.5284 11.3898C12.5728 11.3824 12.6133 11.3603 12.6436 11.3271C12.6738 11.2938 12.692 11.2513 12.6951 11.2065C12.6986 11.1609 12.6875 11.1154 12.6636 11.0765C12.6396 11.0376 12.604 11.0073 12.5618 10.9898L11.6118 10.6398L11.0868 10.4482C11.0234 10.3754 10.9828 10.2855 10.9701 10.1898C10.8939 9.83038 10.9111 9.4574 11.0201 9.10649C11.4632 8.62477 11.8004 8.05551 12.01 7.43544C12.2195 6.81537 12.2968 6.15826 12.2368 5.50649C12.2368 3.49816 10.9284 2.03149 9.11177 2.03149C8.67339 2.04022 8.24144 2.13871 7.8426 2.32089C7.44376 2.50308 7.0865 2.76508 6.79288 3.09072C6.49925 3.41637 6.27549 3.79874 6.13541 4.21424C5.99533 4.62974 5.94191 5.06954 5.97844 5.50649C5.91917 6.15499 5.99604 6.80873 6.20412 7.42579C6.4122 8.04285 6.7469 8.60964 7.18678 9.08983C7.31113 9.44311 7.33422 9.82412 7.25344 10.1898C7.24076 10.2855 7.20018 10.3754 7.13678 10.4482L6.61177 10.6398C4.57011 11.3898 3.10344 11.9315 2.65344 12.8648C2.25616 13.7868 2.04381 14.7777 2.02844 15.7815C2.02844 15.892 2.07234 15.998 2.15048 16.0761C2.22862 16.1543 2.3346 16.1982 2.44511 16.1982H10.9784C11.0104 16.1976 11.0415 16.1879 11.0681 16.1702C11.0947 16.1525 11.1157 16.1275 11.1284 16.0982C11.14 16.0688 11.143 16.0368 11.1371 16.0058C11.1312 15.9749 11.1167 15.9462 11.0951 15.9232Z" />
<path d="M16.8201 17.4731C17.5104 17.4731 18.0701 16.9135 18.0701 16.2231C18.0701 15.5328 17.5104 14.9731 16.8201 14.9731C16.1297 14.9731 15.5701 15.5328 15.5701 16.2231C15.5701 16.9135 16.1297 17.4731 16.8201 17.4731Z" />
<path d="M21.6284 15.0731C21.8473 14.8408 21.9845 14.5434 22.0191 14.2261C22.0537 13.9087 21.9838 13.5888 21.8201 13.3147C21.6652 13.0384 21.4242 12.8204 21.1337 12.694C20.8433 12.5676 20.5195 12.5397 20.2117 12.6147L19.0284 12.8647C18.9359 12.8836 18.8396 12.8677 18.7581 12.8201C18.6766 12.7724 18.6156 12.6963 18.5867 12.6064L18.2367 11.4481C18.1477 11.1412 17.9615 10.8714 17.706 10.6795C17.4505 10.4876 17.1396 10.3838 16.8201 10.3838C16.5005 10.3838 16.1896 10.4876 15.9341 10.6795C15.6786 10.8714 15.4924 11.1412 15.4034 11.4481L15.0534 12.6147C15.0228 12.7053 14.9602 12.7815 14.8773 12.8291C14.7944 12.8767 14.697 12.8923 14.6034 12.8731L13.4284 12.5981C13.1106 12.5121 12.7733 12.5343 12.4695 12.6611C12.1657 12.7879 11.9127 13.0122 11.7504 13.2986C11.5881 13.585 11.5257 13.9173 11.573 14.2431C11.6203 14.5689 11.7747 14.8697 12.0117 15.0981L12.8451 15.9897C12.9095 16.0604 12.9452 16.1525 12.9452 16.2481C12.9452 16.3437 12.9095 16.4358 12.8451 16.5064L12.0117 17.3981C11.7915 17.6297 11.6535 17.9272 11.6189 18.2449C11.5843 18.5626 11.6549 18.8828 11.8201 19.1564C11.9738 19.4337 12.2148 19.6526 12.5055 19.7792C12.7963 19.9057 13.1206 19.9329 13.4284 19.8564L14.6034 19.5314C14.697 19.5122 14.7944 19.5278 14.8773 19.5754C14.9602 19.623 15.0228 19.6992 15.0534 19.7897L15.4034 20.9564C15.4972 21.2588 15.6854 21.5232 15.9403 21.711C16.1952 21.8988 16.5035 22.0001 16.8201 22.0001C17.1367 22.0001 17.4449 21.8988 17.6998 21.711C17.9547 21.5232 18.1429 21.2588 18.2367 20.9564L18.5867 19.7897C18.6156 19.6999 18.6766 19.6238 18.7581 19.5761C18.8396 19.5284 18.9359 19.5125 19.0284 19.5314L20.2117 19.8064C20.5195 19.8829 20.8438 19.8557 21.1346 19.7292C21.4253 19.6026 21.6663 19.3837 21.8201 19.1064C21.9825 18.832 22.0516 18.5123 22.017 18.1953C21.9825 17.8783 21.8461 17.5811 21.6284 17.3481L20.7951 16.4564C20.7306 16.3858 20.6949 16.2937 20.6949 16.1981C20.6949 16.1025 20.7306 16.0104 20.7951 15.9397L21.6284 15.0731ZM16.8201 18.6981C16.3256 18.6981 15.8423 18.5515 15.4311 18.2768C15.02 18.0021 14.6996 17.6116 14.5104 17.1548C14.3211 16.698 14.2716 16.1953 14.3681 15.7104C14.4646 15.2254 14.7027 14.7799 15.0523 14.4303C15.4019 14.0807 15.8474 13.8426 16.3323 13.7461C16.8173 13.6497 17.3199 13.6992 17.7768 13.8884C18.2336 14.0776 18.624 14.398 18.8987 14.8092C19.1734 15.2203 19.3201 15.7036 19.3201 16.1981C19.3201 16.8611 19.0567 17.497 18.5878 17.9658C18.119 18.4347 17.4831 18.6981 16.8201 18.6981Z" />
</svg>