<!--character:2910-->
  <svg width="20" height="20" viewBox="0 0 20 20" >
<path d="M9.25071 13.1213C8.9867 12.837 8.80278 12.4878 8.71769 12.1092C8.63261 11.7307 8.64941 11.3364 8.76637 10.9665C8.88333 10.5965 9.09628 10.2642 9.38351 10.0034C9.67074 9.74259 10.022 9.56259 10.4014 9.48175C10.437 9.47582 10.4696 9.45808 10.4939 9.43137C10.5182 9.40467 10.5327 9.37056 10.5352 9.33456C10.538 9.29799 10.5292 9.26147 10.5099 9.23023C10.4907 9.19898 10.4621 9.17462 10.4282 9.16062L9.66551 8.87962L9.24402 8.72575C9.19312 8.66731 9.16054 8.59518 9.15036 8.51835C9.0892 8.22977 9.10302 7.93033 9.1905 7.64861C9.54623 7.26186 9.81695 6.80484 9.9852 6.30703C10.1534 5.80922 10.2155 5.28167 10.1673 4.75841C10.1673 3.14605 9.1169 1.96856 7.65842 1.96856C7.30647 1.97556 6.95969 2.05464 6.63949 2.2009C6.31929 2.34716 6.03246 2.5575 5.79673 2.81894C5.561 3.08038 5.38135 3.38737 5.26889 3.72094C5.15644 4.05452 5.11355 4.40761 5.14287 4.75841C5.09529 5.27905 5.15701 5.80388 5.32406 6.29928C5.49111 6.79469 5.75982 7.24972 6.11297 7.63523C6.2128 7.91886 6.23134 8.22474 6.16649 8.51835C6.1563 8.59518 6.12373 8.66731 6.07282 8.72575L5.65134 8.87962C4.01222 9.48175 2.83473 9.91662 2.47345 10.6659C2.1545 11.4061 1.98402 12.2017 1.97168 13.0075C1.97168 13.0962 2.00692 13.1813 2.06966 13.2441C2.13239 13.3068 2.21748 13.342 2.30619 13.342H9.15705C9.1827 13.3416 9.2077 13.3338 9.22905 13.3196C9.2504 13.3054 9.26721 13.2853 9.27747 13.2618C9.28676 13.2382 9.28917 13.2125 9.28444 13.1876C9.2797 13.1628 9.26801 13.1398 9.25071 13.1213Z" />
<path d="M13.8469 14.3656C14.4011 14.3656 14.8504 13.9163 14.8504 13.3621C14.8504 12.8079 14.4011 12.3586 13.8469 12.3586C13.2927 12.3586 12.8434 12.8079 12.8434 13.3621C12.8434 13.9163 13.2927 14.3656 13.8469 14.3656Z" />
<path d="M17.7072 12.4388C17.883 12.2523 17.9931 12.0135 18.0209 11.7588C18.0486 11.504 17.9925 11.2471 17.8611 11.0271C17.7368 10.8053 17.5432 10.6302 17.3101 10.5288C17.0769 10.4273 16.8169 10.4049 16.5698 10.4652L15.6198 10.6659C15.5455 10.681 15.4683 10.6683 15.4029 10.63C15.3374 10.5917 15.2884 10.5306 15.2652 10.4585L14.9842 9.52852C14.9128 9.28212 14.7633 9.06557 14.5582 8.91148C14.3531 8.75738 14.1034 8.67407 13.8469 8.67407C13.5903 8.67407 13.3407 8.75738 13.1356 8.91148C12.9305 9.06557 12.781 9.28212 12.7095 9.52852L12.4286 10.4652C12.404 10.5379 12.3537 10.5991 12.2872 10.6373C12.2206 10.6755 12.1424 10.688 12.0673 10.6726L11.1239 10.4518C10.8688 10.3827 10.598 10.4005 10.3541 10.5024C10.1102 10.6042 9.90712 10.7843 9.77682 11.0142C9.64652 11.2441 9.59641 11.5109 9.63439 11.7724C9.67237 12.034 9.79628 12.2755 9.9866 12.4589L10.6556 13.1747C10.7073 13.2314 10.736 13.3054 10.736 13.3821C10.736 13.4589 10.7073 13.5328 10.6556 13.5895L9.9866 14.3054C9.80983 14.4913 9.69902 14.7302 9.67122 14.9852C9.64342 15.2403 9.70016 15.4974 9.83272 15.717C9.95618 15.9397 10.1496 16.1154 10.383 16.217C10.6165 16.3186 10.8769 16.3404 11.1239 16.279L12.0673 16.0181C12.1424 16.0026 12.2206 16.0152 12.2872 16.0534C12.3537 16.0916 12.404 16.1528 12.4286 16.2255L12.7095 17.1621C12.7849 17.4049 12.9359 17.6172 13.1406 17.7679C13.3452 17.9187 13.5927 18 13.8469 18C14.1011 18 14.3486 17.9187 14.5532 17.7679C14.7579 17.6172 14.9089 17.4049 14.9842 17.1621L15.2652 16.2255C15.2884 16.1533 15.3374 16.0922 15.4029 16.054C15.4683 16.0157 15.5455 16.0029 15.6198 16.0181L16.5698 16.2389C16.8169 16.3002 17.0773 16.2784 17.3108 16.1768C17.5442 16.0753 17.7376 15.8995 17.8611 15.6769C17.9915 15.4566 18.0469 15.1999 18.0192 14.9454C17.9915 14.6909 17.882 14.4523 17.7072 14.2652L17.0382 13.5494C16.9864 13.4927 16.9578 13.4187 16.9578 13.342C16.9578 13.2652 16.9864 13.1913 17.0382 13.1346L17.7072 12.4388ZM13.8469 15.3491C13.4499 15.3491 13.0619 15.2314 12.7318 15.0108C12.4018 14.7903 12.1445 14.4768 11.9926 14.1101C11.8407 13.7433 11.8009 13.3398 11.8784 12.9504C11.9558 12.5611 12.147 12.2035 12.4277 11.9228C12.7084 11.6421 13.066 11.4509 13.4553 11.3735C13.8447 11.296 14.2482 11.3358 14.615 11.4877C14.9817 11.6396 15.2952 11.8968 15.5157 12.2269C15.7363 12.557 15.854 12.945 15.854 13.342C15.854 13.8743 15.6425 14.3848 15.2661 14.7612C14.8897 15.1376 14.3792 15.3491 13.8469 15.3491Z" />
</svg>