<!--character:7380-->
  <svg width="24" height="24" viewBox="0 0 24 24" >
<path d="M1.2 14.34V18.0006C1.2 18.1847 1.31665 18.3482 1.4896 18.4064L3.10588 18.9505V13.3901L1.4896 13.9342C1.31665 13.9924 1.2 14.1559 1.2 14.34Z" />
<path d="M22.8 14.34C22.8 14.1559 22.6833 13.9924 22.5104 13.9342L20.8941 13.3901V18.9505L22.5104 18.4064C22.6833 18.3482 22.8 18.1847 22.8 18.0006V14.34Z" />
<path d="M3.95294 11.0376V11.3584H20.0471V11.0376C20.0471 9.97461 19.1938 9.11287 18.1412 9.11287H5.85882C4.80623 9.11287 3.95294 9.97461 3.95294 11.0376Z" />
<path d="M12.9529 5.92339V9.11287H11.0471V5.92339C10.1757 5.54884 9.56471 4.67618 9.56471 3.65941C9.56471 2.30111 10.655 1.2 12 1.2C13.345 1.2 14.4353 2.30111 14.4353 3.65941C14.4353 4.67618 13.8243 5.54884 12.9529 5.92339Z" />
<path d="M20.0471 12.7485H3.95294V20.8752C3.95294 21.9383 4.80623 22.8 5.85882 22.8H18.1412C19.1938 22.8 20.0471 21.9383 20.0471 20.8752V12.7485ZM8.29412 17.9881C7.3 17.9881 6.49412 17.1743 6.49412 16.1703C6.49412 15.1663 7.3 14.3525 8.29412 14.3525C9.28823 14.3525 10.0941 15.1663 10.0941 16.1703C10.0941 17.1743 9.28823 17.9881 8.29412 17.9881ZM17.5059 16.1703C17.5059 17.1743 16.7 17.9881 15.7059 17.9881C14.7118 17.9881 13.9059 17.1743 13.9059 16.1703C13.9059 15.1663 14.7118 14.3525 15.7059 14.3525C16.7 14.3525 17.5059 15.1663 17.5059 16.1703ZM13.9059 19.2713L14.6471 21.303H9.35294L10.0941 19.2713H13.9059Z" />
</svg>