<!-- character:1899:1029 -->
  <svg width="20" height="20" viewBox="0 0 20 20" >
<path d="M1 11.95V15.0005C1 15.1539 1.09721 15.2901 1.24133 15.3387L2.58824 15.7921V11.1584L1.24133 11.6118C1.09721 11.6603 1 11.7966 1 11.95Z" />
<path d="M19 11.95C19 11.7966 18.9028 11.6603 18.7587 11.6118L17.4118 11.1584V15.7921L18.7587 15.3387C18.9028 15.2901 19 15.1539 19 15.0005V11.95Z" />
<path d="M3.29412 9.19802V9.46535H16.7059V9.19802C16.7059 8.31218 15.9948 7.59406 15.1176 7.59406H10H4.88235C4.00519 7.59406 3.29412 8.31218 3.29412 9.19802Z" />
<path d="M10.7941 4.93616V7.59406H9.20588V4.93616C8.47972 4.62403 7.97059 3.89681 7.97059 3.0495C7.97059 1.91759 8.87919 1 10 1C11.1208 1 12.0294 1.91759 12.0294 3.0495C12.0294 3.89681 11.5203 4.62403 10.7941 4.93616Z" />
<path d="M16.7059 10.6238H3.29412V17.396C3.29412 18.2819 4.0052 19 4.88235 19H15.1176C15.9948 19 16.7059 18.2819 16.7059 17.396V10.6238ZM6.91176 14.9901C6.08334 14.9901 5.41176 14.3119 5.41176 13.4752C5.41176 12.6386 6.08334 11.9604 6.91176 11.9604C7.74019 11.9604 8.41176 12.6386 8.41176 13.4752C8.41176 14.3119 7.74019 14.9901 6.91176 14.9901ZM14.5882 13.4752C14.5882 14.3119 13.9167 14.9901 13.0882 14.9901C12.2598 14.9901 11.5882 14.3119 11.5882 13.4752C11.5882 12.6386 12.2598 11.9604 13.0882 11.9604C13.9167 11.9604 14.5882 12.6386 14.5882 13.4752ZM11.5882 16.0594L12.2059 17.7525H7.79412L8.41176 16.0594H11.5882Z" />
</svg>