<!--character:3493-->
  <svg width="24" height="24" viewBox="0 0 24 24" >
<path d="M2 14.1666V17.5561C2 17.7266 2.10801 17.8779 2.26815 17.9319L3.76471 18.4356V13.2871L2.26815 13.7909C2.10801 13.8448 2 13.9962 2 14.1666Z" />
<path d="M22 14.1666C22 13.9962 21.892 13.8448 21.7319 13.7909L20.2353 13.2871V18.4356L21.7319 17.9319C21.892 17.8779 22 17.7266 22 17.5561V14.1666Z" />
<path d="M4.54902 11.1089V11.4059H19.451V11.1089C19.451 10.1246 18.6609 9.32673 17.6863 9.32673H6.31373C5.33911 9.32673 4.54902 10.1246 4.54902 11.1089Z" />
<path d="M12.8824 6.37351V9.32673H11.1176V6.37351C10.3108 6.0267 9.7451 5.21868 9.7451 4.27723C9.7451 3.01955 10.7547 2 12 2C13.2453 2 14.2549 3.01955 14.2549 4.27723C14.2549 5.21868 13.6892 6.0267 12.8824 6.37351Z" />
<path d="M19.451 12.6931H4.54902V20.2178C4.54902 21.2021 5.33911 22 6.31373 22H17.6863C18.6609 22 19.451 21.2021 19.451 20.2178V12.6931ZM8.56863 17.5446C7.64815 17.5446 6.90196 16.791 6.90196 15.8614C6.90196 14.9318 7.64815 14.1782 8.56863 14.1782C9.4891 14.1782 10.2353 14.9318 10.2353 15.8614C10.2353 16.791 9.4891 17.5446 8.56863 17.5446ZM17.098 15.8614C17.098 16.791 16.3518 17.5446 15.4314 17.5446C14.5109 17.5446 13.7647 16.791 13.7647 15.8614C13.7647 14.9318 14.5109 14.1782 15.4314 14.1782C16.3518 14.1782 17.098 14.9318 17.098 15.8614ZM13.7647 18.7327L14.451 20.6139H9.54902L10.2353 18.7327H13.7647Z" />
</svg>