<!--character:2708-->
  <svg width="20" height="20" viewBox="0 0 20 20" >
<path d="M16.8929 11.4046C17.0702 11.4555 17.2201 11.5747 17.3093 11.7361C17.3985 11.8976 17.4198 12.0879 17.3685 12.2651C17.3171 12.4423 17.1974 12.5918 17.0357 12.6806L16.792 12.8153C16.7376 12.8461 16.704 12.9038 16.704 12.9663C16.704 13.0288 16.7376 13.0865 16.792 13.1174L16.967 13.2187C17.1836 13.3419 17.3176 13.5717 17.3182 13.8209C17.3187 14.0701 17.1857 14.3005 16.9696 14.4246C16.7535 14.5487 16.4875 14.5476 16.2725 14.4215L16.0975 14.3208C16.0434 14.2896 15.9767 14.2898 15.9228 14.3214C15.869 14.353 15.8362 14.4112 15.8371 14.4736L15.842 14.7514C15.8485 15.1347 15.5433 15.4508 15.16 15.4576H15.1475C14.7686 15.4577 14.4595 15.1539 14.4531 14.775L14.4322 13.5528C14.43 13.431 14.3641 13.3192 14.2586 13.2583L12.9753 12.5174C12.8644 12.4532 12.7272 12.4554 12.6184 12.5229L10.8628 13.6139C10.7608 13.6773 10.6988 13.7889 10.6989 13.909V15.3139C10.6991 15.4357 10.7632 15.5485 10.8677 15.6111L11.9156 16.2403C12.1283 16.3679 12.2568 16.5994 12.2526 16.8474C12.2485 17.0955 12.1123 17.3225 11.8953 17.4429C11.6784 17.5633 11.4137 17.5589 11.201 17.4312L10.9621 17.2882C10.9085 17.2559 10.8417 17.255 10.7872 17.2857C10.7327 17.3165 10.6989 17.3742 10.6989 17.4368V17.6389C10.6989 18.0224 10.388 18.3333 10.0045 18.3333C9.62093 18.3333 9.31002 18.0224 9.31002 17.6389V17.4361C9.30998 17.3735 9.27627 17.3158 9.22177 17.285C9.16727 17.2543 9.10043 17.2552 9.04682 17.2875L8.80794 17.4306C8.47848 17.6279 8.05144 17.5208 7.85412 17.1913C7.65679 16.8619 7.7639 16.4348 8.09335 16.2375L9.14127 15.6083C9.24576 15.5457 9.3098 15.4329 9.31002 15.3111V13.9062C9.31011 13.7861 9.24813 13.6745 9.14613 13.6111L7.3878 12.5194C7.27895 12.4519 7.14175 12.4497 7.03085 12.5139L5.74752 13.2549C5.642 13.3158 5.57612 13.4275 5.57391 13.5493L5.55307 14.7715C5.54663 15.1504 5.2376 15.4542 4.85863 15.4542H4.84613C4.46285 15.4473 4.15761 15.1312 4.16419 14.7479L4.16905 14.4701C4.16992 14.4077 4.13718 14.3496 4.0833 14.318C4.02943 14.2863 3.96272 14.2861 3.90863 14.3174L3.73363 14.4181C3.51865 14.5441 3.25262 14.5453 3.03653 14.4211C2.82045 14.297 2.68743 14.0666 2.68798 13.8174C2.68852 13.5682 2.82255 13.3384 3.03919 13.2153L3.21419 13.1139C3.26858 13.0831 3.3022 13.0254 3.3022 12.9628C3.3022 12.9003 3.26858 12.8426 3.21419 12.8118L2.97044 12.6771C2.63504 12.4909 2.51409 12.068 2.7003 11.7326C2.8865 11.3972 3.30934 11.2763 3.64474 11.4625L4.71419 12.0556C4.8202 12.1155 4.94984 12.1155 5.05585 12.0556L6.35863 11.3035C6.46606 11.2414 6.53224 11.1268 6.53224 11.0028V8.99722C6.53224 8.87317 6.46606 8.75855 6.35863 8.69653L5.05585 7.94166C4.94984 7.88175 4.8202 7.88175 4.71419 7.94166L3.64474 8.53472C3.42709 8.66206 3.15751 8.66141 2.94048 8.53302C2.72344 8.40463 2.59306 8.16868 2.59986 7.9166C2.60666 7.66453 2.74957 7.43595 2.97321 7.31944L3.21696 7.18472C3.27136 7.15389 3.30498 7.0962 3.30498 7.03368C3.30498 6.97116 3.27136 6.91346 3.21696 6.88264L3.04196 6.78125C2.82533 6.65808 2.6913 6.42828 2.69075 6.17908C2.69021 5.92988 2.82322 5.6995 3.03931 5.57538C3.2554 5.45126 3.52143 5.45244 3.73641 5.57847L3.91141 5.67916C3.9655 5.7104 4.0322 5.71017 4.08608 5.67857C4.13996 5.64696 4.1727 5.58884 4.17182 5.52639L4.16696 5.24861C4.16275 5.00051 4.29121 4.769 4.50396 4.6413C4.71671 4.5136 4.98144 4.5091 5.19841 4.62949C5.41538 4.74989 5.55164 4.9769 5.55585 5.225L5.57669 6.44722C5.57889 6.56903 5.64478 6.68077 5.7503 6.74166L7.03363 7.48264C7.14453 7.54677 7.28173 7.54464 7.39057 7.47708L9.14613 6.38611C9.24813 6.32269 9.31011 6.21107 9.31002 6.09097V4.68611C9.3098 4.56429 9.24576 4.4515 9.14127 4.38889L8.09335 3.75972C7.77699 3.55709 7.67915 3.1396 7.87252 2.8175C8.06589 2.4954 8.48036 2.38549 8.80794 2.56944L9.04682 2.7118C9.10043 2.7441 9.16727 2.74504 9.22177 2.71427C9.27627 2.6835 9.30998 2.62578 9.31002 2.56319V2.36111C9.31002 1.97758 9.62093 1.66666 10.0045 1.66666C10.388 1.66666 10.6989 1.97758 10.6989 2.36111V2.56319C10.6987 2.6259 10.7323 2.68385 10.7869 2.71479C10.8414 2.74573 10.9084 2.74486 10.9621 2.7125L11.201 2.56944C11.5286 2.38549 11.943 2.4954 12.1364 2.8175C12.3298 3.1396 12.2319 3.55709 11.9156 3.75972L10.8677 4.38889C10.7632 4.4515 10.6991 4.56429 10.6989 4.68611V6.09097C10.6979 6.21206 10.76 6.32495 10.8628 6.38889L12.6184 7.47708C12.7272 7.54464 12.8644 7.54677 12.9753 7.48264L14.2614 6.74514C14.3669 6.68424 14.4328 6.5725 14.435 6.45069L14.4559 5.22847C14.4714 4.84866 14.7827 4.54811 15.1628 4.54583C15.5461 4.55267 15.8513 4.86879 15.8447 5.25208L15.8399 5.52986C15.839 5.59232 15.8717 5.65043 15.9256 5.68204C15.9795 5.71365 16.0462 5.71387 16.1003 5.68264L16.2753 5.58194C16.4903 5.45591 16.7563 5.45473 16.9724 5.57885C17.1885 5.70297 17.3215 5.93336 17.321 6.18255C17.3204 6.43175 17.1864 6.66155 16.9697 6.78472L16.7947 6.88611C16.7403 6.91694 16.7067 6.97463 16.7067 7.03715C16.7067 7.09967 16.7403 7.15737 16.7947 7.18819L17.0385 7.32291C17.3739 7.50912 17.4948 7.93196 17.3086 8.26736C17.1224 8.60276 16.6996 8.7237 16.3642 8.5375L15.2947 7.94444C15.1887 7.88453 15.0591 7.88453 14.9531 7.94444L13.6503 8.69653C13.5429 8.75855 13.4767 8.87317 13.4767 8.99722V11.0028C13.4767 11.1268 13.5429 11.2414 13.6503 11.3035L14.9531 12.0583C15.0591 12.1182 15.1887 12.1182 15.2947 12.0583L16.3642 11.4653C16.5254 11.3756 16.7156 11.3538 16.8929 11.4046ZM8.08502 11.3194L9.82113 12.3986C9.93339 12.4684 10.0755 12.4684 10.1878 12.3986L11.9239 11.3201C12.0259 11.2567 12.0879 11.1451 12.0878 11.025V8.975C12.0879 8.85489 12.0259 8.74327 11.9239 8.67986L10.1878 7.60139C10.0755 7.53159 9.93339 7.53159 9.82113 7.60139L8.08502 8.67986C7.98302 8.74327 7.92104 8.85489 7.92113 8.975V11.025C7.92128 11.1449 7.98323 11.2562 8.08502 11.3194Z" />
</svg>