<!--character:255:550:2646-->
  <svg width="24" height="24" viewBox="0 0 24 24" >
<path   d="M20.272 13.6856C20.4848 13.7465 20.6645 13.8897 20.7717 14.0833C20.8787 14.2771 20.9042 14.5055 20.8426 14.7181C20.781 14.9307 20.6374 15.1101 20.4433 15.2167L20.1508 15.3783C20.0855 15.4153 20.0452 15.4846 20.0452 15.5596C20.0452 15.6346 20.0855 15.7038 20.1508 15.7408L20.3608 15.8625C20.6208 16.0103 20.7816 16.2861 20.7823 16.5851C20.7829 16.8841 20.6233 17.1606 20.364 17.3095C20.1047 17.4585 19.7855 17.4571 19.5275 17.3058L19.3175 17.185C19.2526 17.1475 19.1725 17.1478 19.1079 17.1857C19.0432 17.2236 19.0039 17.2934 19.005 17.3683L19.0108 17.7017C19.0187 18.1616 18.6524 18.541 18.1925 18.5492H18.1775C17.7227 18.5492 17.3519 18.1847 17.3442 17.73L17.3192 16.2633C17.3165 16.1172 17.2374 15.9831 17.1108 15.91L15.5708 15.0208C15.4377 14.9439 15.2731 14.9464 15.1425 15.0275L13.0358 16.3367C12.9134 16.4128 12.839 16.5467 12.8392 16.6908V18.3767C12.8394 18.5228 12.9163 18.6582 13.0417 18.7333L14.2992 19.4883C14.5544 19.6415 14.7086 19.9193 14.7036 20.2169C14.6986 20.5146 14.5352 20.787 14.2749 20.9315C14.0146 21.076 13.6969 21.0707 13.4417 20.9175L13.155 20.7458C13.0907 20.7071 13.0104 20.706 12.9451 20.7429C12.8797 20.7798 12.8392 20.8491 12.8392 20.9242V21.1667C12.8392 21.6269 12.4661 22 12.0058 22C11.5456 22 11.1725 21.6269 11.1725 21.1667V20.9233C11.1724 20.8482 11.132 20.779 11.0666 20.742C11.0012 20.7051 10.921 20.7062 10.8567 20.745L10.57 20.9167C10.1746 21.1535 9.6622 21.0249 9.4254 20.6296C9.18861 20.2342 9.31714 19.7218 9.71249 19.485L10.97 18.73C11.0954 18.6549 11.1722 18.5195 11.1725 18.3733V16.6875C11.1726 16.5434 11.0982 16.4094 10.9758 16.3333L8.86582 15.0233C8.7352 14.9423 8.57056 14.9397 8.43749 15.0167L6.89749 15.9058C6.77086 15.9789 6.6918 16.113 6.68915 16.2592L6.66415 17.7258C6.65642 18.1805 6.28558 18.5451 5.83082 18.545H5.81582C5.35588 18.5368 4.98959 18.1574 4.99749 17.6975L5.00332 17.3642C5.00437 17.2892 4.96508 17.2195 4.90043 17.1816C4.83577 17.1436 4.75573 17.1433 4.69082 17.1808L4.48082 17.3017C4.22284 17.4529 3.90361 17.4543 3.64431 17.3054C3.385 17.1564 3.22538 16.88 3.22604 16.5809C3.22669 16.2819 3.38753 16.0061 3.64749 15.8583L3.85749 15.7367C3.92276 15.6997 3.9631 15.6304 3.9631 15.5554C3.9631 15.4804 3.92276 15.4112 3.85749 15.3742L3.56499 15.2125C3.16251 14.9891 3.01737 14.4816 3.24082 14.0792C3.46427 13.6767 3.97168 13.5316 4.37415 13.755L5.65749 14.4667C5.7847 14.5386 5.94027 14.5386 6.06749 14.4667L7.63082 13.5642C7.75973 13.4897 7.83915 13.3522 7.83915 13.2033V10.7967C7.83915 10.6478 7.75973 10.5103 7.63082 10.4358L6.06749 9.53C5.94027 9.45811 5.7847 9.45811 5.65749 9.53L4.37415 10.2417C4.11297 10.3945 3.78948 10.3937 3.52904 10.2396C3.2686 10.0856 3.11214 9.80241 3.1203 9.49992C3.12846 9.19743 3.29995 8.92314 3.56832 8.78333L3.86082 8.62167C3.92609 8.58467 3.96643 8.51544 3.96643 8.44042C3.96643 8.36539 3.92609 8.29616 3.86082 8.25917L3.65082 8.1375C3.39086 7.9897 3.23003 7.71394 3.22937 7.4149C3.22871 7.11586 3.38833 6.8394 3.64764 6.69046C3.90695 6.54151 4.22618 6.54293 4.48415 6.69417L4.69415 6.815C4.75906 6.85249 4.83911 6.85221 4.90376 6.81428C4.96841 6.77635 5.00771 6.70662 5.00665 6.63167L5.00082 6.29833C4.99576 6.00061 5.14991 5.72281 5.40522 5.56956C5.66052 5.41632 5.97819 5.41092 6.23855 5.5554C6.49892 5.69987 6.66243 5.97228 6.66749 6.27L6.69249 7.73667C6.69514 7.88284 6.7742 8.01693 6.90082 8.09L8.44082 8.97917C8.5739 9.05613 8.73854 9.05357 8.86915 8.9725L10.9758 7.66333C11.0982 7.58724 11.1726 7.45329 11.1725 7.30917V5.62333C11.1722 5.47715 11.0954 5.3418 10.97 5.26667L9.71249 4.51167C9.33286 4.26851 9.21544 3.76753 9.44749 3.38101C9.67953 2.99448 10.1769 2.86259 10.57 3.08333L10.8567 3.25417C10.921 3.29292 11.0012 3.29405 11.0666 3.25712C11.132 3.2202 11.1724 3.15093 11.1725 3.07583V2.83333C11.1725 2.3731 11.5456 2 12.0058 2C12.4661 2 12.8392 2.3731 12.8392 2.83333V3.07583C12.8389 3.15108 12.8792 3.22062 12.9447 3.25775C13.0101 3.29488 13.0905 3.29383 13.155 3.255L13.4417 3.08333C13.8347 2.86259 14.3321 2.99448 14.5642 3.38101C14.7962 3.76753 14.6788 4.26851 14.2992 4.51167L13.0417 5.26667C12.9163 5.3418 12.8394 5.47715 12.8392 5.62333V7.30917C12.8379 7.45447 12.9124 7.58995 13.0358 7.66667L15.1425 8.9725C15.2731 9.05357 15.4377 9.05613 15.5708 8.97917L17.1142 8.09417C17.2408 8.02109 17.3198 7.887 17.3225 7.74083L17.3475 6.27417C17.3662 5.8184 17.7397 5.45773 18.1958 5.455C18.6558 5.46321 19.022 5.84256 19.0142 6.3025L19.0083 6.63583C19.0073 6.71078 19.0466 6.78052 19.1112 6.81845C19.1759 6.85638 19.2559 6.85665 19.3208 6.81917L19.5308 6.69833C19.7888 6.5471 20.108 6.54568 20.3673 6.69462C20.6266 6.84357 20.7863 7.12003 20.7856 7.41907C20.7849 7.71811 20.6241 7.99387 20.3642 8.14167L20.1542 8.26333C20.0889 8.30033 20.0485 8.36956 20.0485 8.44458C20.0485 8.51961 20.0889 8.58884 20.1542 8.62583L20.4467 8.7875C20.8491 9.01095 20.9943 9.51836 20.7708 9.92083C20.5474 10.3233 20.04 10.4684 19.6375 10.245L18.3542 9.53333C18.2269 9.46144 18.0714 9.46144 17.9442 9.53333L16.3808 10.4358C16.2519 10.5103 16.1725 10.6478 16.1725 10.7967V13.2033C16.1725 13.3522 16.2519 13.4897 16.3808 13.5642L17.9442 14.47C18.0714 14.5419 18.2269 14.5419 18.3542 14.47L19.6375 13.7583C19.8309 13.6508 20.0592 13.6246 20.272 13.6856ZM11.7858 14.8783C11.9205 14.9621 12.0911 14.9621 12.2258 14.8783L14.3092 13.5842C14.4316 13.5081 14.5059 13.3741 14.5058 13.23V10.77C14.5059 10.6259 14.4316 10.4919 14.3092 10.4158L12.2258 9.12166C12.0911 9.03791 11.9205 9.03791 11.7858 9.12166L9.7025 10.4158C9.5801 10.4919 9.50572 10.6259 9.50583 10.77V13.23C9.50601 13.3738 9.58035 13.5074 9.7025 13.5833L11.7858 14.8783Z" />
</svg>