<!--character:E184-->
<svg width="24" height="24" viewBox="0 0 24 24" xmlns="http://www.w3.org/2000/svg"><path d="M20.7717 14.0833a.8333.8333 0 0 0-1.1342-.325l-1.2833.7117a.4167.4167 0 0 1-.41 0l-1.5634-.9058a.4167.4167 0 0 1-.2083-.3609v-2.4066a.4167.4167 0 0 1 .2083-.3609l1.5634-.9025a.4167.4167 0 0 1 .41 0l1.2833.7117a.8335.8335 0 0 0 .8092-1.4575l-.2925-.1617a.2083.2083 0 0 1 0-.3625l.21-.1216a.8333.8333 0 1 0-.8334-1.4434l-.21.1209a.2083.2083 0 0 1-.3125-.1834l.0059-.3333a.8333.8333 0 0 0-.8184-.8475.8542.8542 0 0 0-.8483.8192l-.025 1.4666a.4167.4167 0 0 1-.2083.3534l-1.5434.885a.4167.4167 0 0 1-.4283-.0067l-2.1067-1.3058a.4167.4167 0 0 1-.1966-.3575V5.6233a.4167.4167 0 0 1 .2025-.3566l1.2575-.755a.8333.8333 0 0 0-.8575-1.4284l-.2867.1717a.2083.2083 0 0 1-.3158-.1792v-.2425a.8333.8333 0 1 0-1.6667 0v.2425a.2083.2083 0 0 1-.3158.1784l-.2867-.1709a.8333.8333 0 0 0-.8575 1.4284l1.2575.755a.4167.4167 0 0 1 .2025.3566v1.6859a.4167.4167 0 0 1-.1967.3541L8.8692 8.9725a.4167.4167 0 0 1-.4284.0067l-1.54-.8892a.4167.4167 0 0 1-.2083-.3533L6.6675 6.27a.8335.8335 0 1 0-1.6667.0283l.0059.3334a.2083.2083 0 0 1-.3125.1833l-.21-.1208a.8333.8333 0 1 0-.8334 1.4433l.21.1217a.2083.2083 0 0 1 0 .3625l-.2925.1616a.8333.8333 0 1 0 .8059 1.4584L5.6575 9.53a.4167.4167 0 0 1 .41 0l1.5633.9058a.4167.4167 0 0 1 .2084.3609v2.4066a.4167.4167 0 0 1-.2084.3609l-1.5633.9025a.4167.4167 0 0 1-.41 0l-1.2833-.7117a.8335.8335 0 0 0-.8092 1.4575l.2925.1617a.2083.2083 0 0 1 0 .3625l-.21.1216a.8333.8333 0 1 0 .8333 1.4434l.21-.1209a.2083.2083 0 0 1 .3125.1834l-.0058.3333a.8333.8333 0 0 0 .8183.8475h.015a.8333.8333 0 0 0 .8334-.8192l.025-1.4666a.4167.4167 0 0 1 .2083-.3534l1.54-.8891a.4167.4167 0 0 1 .4283.0066l2.11 1.31a.4167.4167 0 0 1 .1967.3542v1.6858a.4167.4167 0 0 1-.2025.3567l-1.2575.755a.8344.8344 0 0 0 .8575 1.4317l.2867-.1717a.2083.2083 0 0 1 .3158.1783v.2434a.8333.8333 0 0 0 1.6667 0v-.2425a.2083.2083 0 0 1 .3158-.1784l.2867.1717a.8333.8333 0 1 0 .8575-1.4292l-1.2575-.755a.4167.4167 0 0 1-.2025-.3566v-1.6859a.4167.4167 0 0 1 .1966-.3541l2.1067-1.3092a.4167.4167 0 0 1 .4283-.0067l1.54.8892a.4167.4167 0 0 1 .2084.3533l.025 1.4667a.8333.8333 0 0 0 .8333.8192h.015a.8333.8333 0 0 0 .8183-.8475l-.0058-.3334a.2083.2083 0 0 1 .3125-.1833l.21.1208a.8333.8333 0 1 0 .8333-1.4433l-.21-.1217a.2083.2083 0 0 1 0-.3625l.2925-.1616a.8333.8333 0 0 0 .3284-1.1334zm-8.5459.795a.4167.4167 0 0 1-.44 0l-2.0833-1.295a.4167.4167 0 0 1-.1967-.3533v-2.46a.4167.4167 0 0 1 .1967-.3542l2.0833-1.2941a.4167.4167 0 0 1 .44 0l2.0834 1.2941a.4167.4167 0 0 1 .1966.3542v2.46a.4167.4167 0 0 1-.1966.3542l-2.0834 1.2941z"/></svg>