<!-- character:0:2499 -->
  <svg width="20" height="20" viewBox="0 0 20 20" >
<path   d="M16.8933 11.4046C17.0706 11.4554 17.2204 11.5747 17.3097 11.7361C17.3989 11.8975 17.4202 12.0879 17.3688 12.2651C17.3175 12.4422 17.1978 12.5917 17.0361 12.6805L16.7923 12.8152C16.7379 12.8461 16.7043 12.9038 16.7043 12.9663C16.7043 13.0288 16.7379 13.0865 16.7923 13.1173L16.9673 13.2187C17.184 13.3419 17.318 13.5717 17.3185 13.8209C17.3191 14.0701 17.1861 14.3005 16.97 14.4246C16.7539 14.5487 16.4879 14.5475 16.2729 14.4215L16.0979 14.3208C16.0438 14.2896 15.9771 14.2898 15.9232 14.3214C15.8693 14.353 15.8366 14.4111 15.8375 14.4736L15.8423 14.7513C15.8489 15.1346 15.5437 15.4508 15.1604 15.4576H15.1479C14.7689 15.4577 14.4599 15.1539 14.4534 14.775L14.4326 13.5527C14.4304 13.4309 14.3645 13.3192 14.259 13.2583L12.9757 12.5173C12.8648 12.4532 12.7276 12.4553 12.6187 12.5229L10.8632 13.6138C10.7612 13.6773 10.6992 13.7889 10.6993 13.909V15.3138C10.6995 15.4357 10.7635 15.5485 10.868 15.6111L11.9159 16.2402C12.1287 16.3679 12.2572 16.5993 12.253 16.8474C12.2488 17.0955 12.1126 17.3225 11.8957 17.4429C11.6788 17.5633 11.4141 17.5589 11.2014 17.4312L10.9625 17.2882C10.9089 17.2559 10.842 17.2549 10.7875 17.2857C10.733 17.3165 10.6993 17.3742 10.6993 17.4368V17.6388C10.6993 18.0224 10.3884 18.3333 10.0048 18.3333C9.6213 18.3333 9.31039 18.0224 9.31039 17.6388V17.4361C9.31035 17.3735 9.27663 17.3158 9.22214 17.285C9.16764 17.2542 9.1008 17.2552 9.04719 17.2875L8.8083 17.4305C8.47885 17.6278 8.05181 17.5207 7.85448 17.1913C7.65716 16.8618 7.76427 16.4348 8.09372 16.2375L9.14164 15.6083C9.24613 15.5457 9.31017 15.4329 9.31039 15.3111V13.9062C9.31048 13.7861 9.24849 13.6745 9.1465 13.6111L7.38816 12.5194C7.27932 12.4518 7.14211 12.4497 7.03122 12.5138L5.74789 13.2548C5.64237 13.3157 5.57648 13.4275 5.57427 13.5493L5.55344 14.7715C5.547 15.1504 5.23796 15.4542 4.859 15.4541H4.8465C4.46321 15.4473 4.15797 15.1312 4.16455 14.7479L4.16941 14.4701C4.17029 14.4076 4.13755 14.3495 4.08367 14.3179C4.02979 14.2863 3.96309 14.2861 3.909 14.3173L3.734 14.418C3.51902 14.544 3.25299 14.5452 3.0369 14.4211C2.82081 14.297 2.68779 14.0666 2.68834 13.8174C2.68889 13.5682 2.82292 13.3384 3.03955 13.2152L3.21455 13.1138C3.26895 13.083 3.30256 13.0253 3.30256 12.9628C3.30256 12.9003 3.26895 12.8426 3.21455 12.8118L2.9708 12.677C2.6354 12.4908 2.51446 12.068 2.70066 11.7326C2.88687 11.3972 3.30971 11.2763 3.64511 11.4625L4.71455 12.0555C4.82056 12.1154 4.95021 12.1154 5.05622 12.0555L6.359 11.3034C6.46642 11.2414 6.5326 11.1268 6.53261 11.0027V8.99718C6.5326 8.87313 6.46642 8.75851 6.359 8.69649L5.05622 7.94163C4.95021 7.88172 4.82056 7.88172 4.71455 7.94163L3.64511 8.53468C3.42746 8.66202 3.15788 8.66137 2.94084 8.53298C2.72381 8.40459 2.59343 8.16864 2.60023 7.91656C2.60703 7.66449 2.74994 7.43591 2.97358 7.3194L3.21733 7.18468C3.27172 7.15385 3.30534 7.09616 3.30534 7.03364C3.30534 6.97112 3.27172 6.91342 3.21733 6.8826L3.04233 6.78121C2.8257 6.65804 2.69167 6.42824 2.69112 6.17904C2.69057 5.92985 2.82359 5.69946 3.03968 5.57534C3.25577 5.45122 3.52179 5.4524 3.73677 5.57843L3.91177 5.67913C3.96587 5.71036 4.03257 5.71014 4.08645 5.67853C4.14032 5.64692 4.17307 5.58881 4.17219 5.52635L4.16733 5.24857C4.16311 5.00047 4.29158 4.76896 4.50433 4.64126C4.71708 4.51356 4.9818 4.50906 5.19877 4.62946C5.41574 4.74985 5.552 4.97686 5.55622 5.22496L5.57705 6.44718C5.57926 6.56899 5.64514 6.68073 5.75066 6.74163L7.034 7.4826C7.14489 7.54674 7.28209 7.5446 7.39094 7.47704L9.1465 6.38607C9.24849 6.32266 9.31048 6.21103 9.31039 6.09093V4.68607C9.31017 4.56425 9.24613 4.45146 9.14164 4.38885L8.09372 3.75968C7.77736 3.55705 7.67951 3.13957 7.87289 2.81747C8.06626 2.49536 8.48073 2.38545 8.8083 2.5694L9.04719 2.71176C9.1008 2.74406 9.16764 2.745 9.22214 2.71423C9.27663 2.68346 9.31035 2.62574 9.31039 2.56315V2.36107C9.31039 1.97754 9.6213 1.66663 10.0048 1.66663C10.3884 1.66663 10.6993 1.97754 10.6993 2.36107V2.56315C10.6991 2.62586 10.7327 2.68381 10.7872 2.71475C10.8418 2.74569 10.9088 2.74482 10.9625 2.71246L11.2014 2.5694C11.5289 2.38545 11.9434 2.49536 12.1368 2.81747C12.3301 3.13957 12.2323 3.55705 11.9159 3.75968L10.868 4.38885C10.7635 4.45146 10.6995 4.56425 10.6993 4.68607V6.09093C10.6982 6.21202 10.7603 6.32491 10.8632 6.38885L12.6187 7.47704C12.7276 7.5446 12.8648 7.54674 12.9757 7.4826L14.2618 6.7451C14.3673 6.6842 14.4332 6.57246 14.4354 6.45065L14.4562 5.22843C14.4718 4.84862 14.783 4.54807 15.1632 4.54579C15.5464 4.55264 15.8517 4.86876 15.8451 5.25204L15.8402 5.52982C15.8394 5.59228 15.8721 5.65039 15.926 5.682C15.9799 5.71361 16.0466 5.71384 16.1007 5.6826L16.2757 5.5819C16.4906 5.45587 16.7567 5.45469 16.9728 5.57881C17.1888 5.70293 17.3219 5.93332 17.3213 6.18252C17.3208 6.43171 17.1867 6.66151 16.9701 6.78468L16.7951 6.88607C16.7407 6.9169 16.7071 6.97459 16.7071 7.03711C16.7071 7.09963 16.7407 7.15733 16.7951 7.18815L17.0389 7.32288C17.3743 7.50908 17.4952 7.93192 17.309 8.26732C17.1228 8.60272 16.7 8.72366 16.3646 8.53746L15.2951 7.9444C15.1891 7.88449 15.0595 7.88449 14.9534 7.9444L13.6507 8.69649C13.5432 8.75851 13.4771 8.87313 13.4771 8.99718V11.0027C13.4771 11.1268 13.5432 11.2414 13.6507 11.3034L14.9534 12.0583C15.0595 12.1182 15.1891 12.1182 15.2951 12.0583L16.3646 11.4652C16.5258 11.3756 16.716 11.3538 16.8933 11.4046ZM8.08539 11.3194L9.8215 12.3986C9.93376 12.4684 10.0759 12.4684 10.1882 12.3986L11.9243 11.3201C12.0263 11.2567 12.0883 11.1451 12.0882 11.025V8.97496C12.0883 8.85486 12.0263 8.74323 11.9243 8.67982L10.1882 7.60135C10.0759 7.53155 9.93376 7.53155 9.8215 7.60135L8.08539 8.67982C7.98339 8.74323 7.92141 8.85486 7.9215 8.97496V11.025C7.92165 11.1448 7.9836 11.2561 8.08539 11.3194Z" />
</svg>