<!--character:3024:2858-->
<svg width="24" height="24" viewBox="0 0 24 24">
  <path d="M20.2715 13.6856C20.4843 13.7465 20.6641 13.8896 20.7712 14.0833C20.8782 14.2771 20.9037 14.5055 20.8421 14.7181C20.7805 14.9307 20.6369 15.1101 20.4429 15.2167L20.1504 15.3783C20.0851 15.4153 20.0447 15.4846 20.0447 15.5596C20.0447 15.6346 20.0851 15.7038 20.1504 15.7408L20.3604 15.8625C20.6203 16.0103 20.7812 16.2861 20.7818 16.5851C20.7825 16.8841 20.6228 17.1606 20.3635 17.3095C20.1042 17.4585 19.785 17.4571 19.527 17.3058L19.317 17.185C19.2521 17.1475 19.1721 17.1478 19.1074 17.1857C19.0428 17.2236 19.0035 17.2934 19.0045 17.3683L19.0104 17.7017C19.0183 18.1616 18.652 18.541 18.192 18.5492H18.177C17.7223 18.5492 17.3514 18.1847 17.3437 17.73L17.3187 16.2633C17.316 16.1172 17.237 15.9831 17.1104 15.91L15.5704 15.0208C15.4373 14.9439 15.2726 14.9464 15.142 15.0275L13.0354 16.3367C12.913 16.4128 12.8386 16.5467 12.8387 16.6908V18.3767C12.839 18.5228 12.9158 18.6582 13.0412 18.7333L14.2987 19.4883C14.554 19.6415 14.7082 19.9193 14.7032 20.2169C14.6982 20.5146 14.5347 20.787 14.2744 20.9315C14.0141 21.076 13.6965 21.0707 13.4412 20.9175L13.1545 20.7458C13.0902 20.7071 13.01 20.706 12.9446 20.7429C12.8792 20.7798 12.8387 20.8491 12.8387 20.9242V21.1667C12.8387 21.6269 12.4656 22 12.0054 22C11.5451 22 11.172 21.6269 11.172 21.1667V20.9233C11.172 20.8482 11.1315 20.779 11.0661 20.742C11.0007 20.7051 10.9205 20.7062 10.8562 20.745L10.5695 20.9167C10.1742 21.1535 9.66173 21.0249 9.42494 20.6296C9.18815 20.2342 9.31668 19.7218 9.71202 19.485L10.9695 18.73C11.0949 18.6549 11.1718 18.5195 11.172 18.3733V16.6875C11.1721 16.5434 11.0978 16.4094 10.9754 16.3333L8.86536 15.0233C8.73474 14.9423 8.5701 14.9397 8.43702 15.0167L6.89702 15.9058C6.7704 15.9789 6.69134 16.113 6.68869 16.2592L6.66369 17.7258C6.65596 18.1805 6.28512 18.5451 5.83036 18.545H5.81536C5.35542 18.5368 4.98913 18.1574 4.99702 17.6975L5.00286 17.3642C5.00391 17.2892 4.96462 17.2195 4.89996 17.1815C4.83531 17.1436 4.75527 17.1433 4.69036 17.1808L4.48036 17.3017C4.22238 17.4529 3.90315 17.4543 3.64384 17.3054C3.38454 17.1564 3.22491 16.88 3.22557 16.5809C3.22623 16.2819 3.38706 16.0061 3.64702 15.8583L3.85702 15.7367C3.9223 15.6997 3.96264 15.6304 3.96264 15.5554C3.96264 15.4804 3.9223 15.4112 3.85702 15.3742L3.56452 15.2125C3.16205 14.9891 3.01691 14.4816 3.24036 14.0792C3.4638 13.6767 3.97121 13.5316 4.37369 13.755L5.65702 14.4667C5.78424 14.5386 5.93981 14.5386 6.06702 14.4667L7.63036 13.5642C7.75927 13.4897 7.83869 13.3522 7.83869 13.2033V10.7967C7.83869 10.6478 7.75927 10.5103 7.63036 10.4358L6.06702 9.53C5.93981 9.45811 5.78424 9.45811 5.65702 9.53L4.37369 10.2417C4.11251 10.3945 3.78901 10.3937 3.52857 10.2396C3.26813 10.0856 3.11168 9.80241 3.11984 9.49992C3.128 9.19743 3.29949 8.92314 3.56786 8.78333L3.86036 8.62166C3.92563 8.58467 3.96597 8.51544 3.96597 8.44041C3.96597 8.36539 3.92563 8.29616 3.86036 8.25916L3.65036 8.1375C3.3904 7.9897 3.22956 7.71394 3.2289 7.4149C3.22825 7.11586 3.38787 6.8394 3.64718 6.69045C3.90648 6.54151 4.22571 6.54293 4.48369 6.69416L4.69369 6.815C4.7586 6.85248 4.83864 6.85221 4.9033 6.81428C4.96795 6.77635 5.00724 6.70661 5.00619 6.63166L5.00036 6.29833C4.9953 6.00061 5.14945 5.7228 5.40475 5.56956C5.66006 5.41632 5.97772 5.41092 6.23809 5.55539C6.49845 5.69987 6.66196 5.97228 6.66702 6.27L6.69202 7.73666C6.69467 7.88283 6.77373 8.01692 6.90036 8.09L8.44036 8.97916C8.57343 9.05613 8.73807 9.05357 8.86869 8.9725L10.9754 7.66333C11.0978 7.58723 11.1721 7.45329 11.172 7.30916V5.62333C11.1718 5.47715 11.0949 5.3418 10.9695 5.26666L9.71202 4.51166C9.33239 4.26851 9.21497 3.76753 9.44702 3.381C9.67907 2.99448 10.1764 2.86259 10.5695 3.08333L10.8562 3.25416C10.9205 3.29292 11.0007 3.29404 11.0661 3.25712C11.1315 3.22019 11.172 3.15093 11.172 3.07583V2.83333C11.172 2.37309 11.5451 2 12.0054 2C12.4656 2 12.8387 2.37309 12.8387 2.83333V3.07583C12.8384 3.15108 12.8788 3.22062 12.9442 3.25775C13.0097 3.29488 13.0901 3.29383 13.1545 3.255L13.4412 3.08333C13.8343 2.86259 14.3316 2.99448 14.5637 3.381C14.7957 3.76753 14.6783 4.26851 14.2987 4.51166L13.0412 5.26666C12.9158 5.3418 12.839 5.47715 12.8387 5.62333V7.30916C12.8374 7.45447 12.9119 7.58994 13.0354 7.66666L15.142 8.9725C15.2726 9.05357 15.4373 9.05613 15.5704 8.97916L17.1137 8.09416C17.2403 8.02109 17.3194 7.887 17.322 7.74083L17.347 6.27416C17.3657 5.81839 17.7392 5.45773 18.1954 5.455C18.6553 5.46321 19.0216 5.84255 19.0137 6.3025L19.0079 6.63583C19.0068 6.71078 19.0461 6.78052 19.1108 6.81845C19.1754 6.85638 19.2554 6.85665 19.3204 6.81916L19.5304 6.69833C19.7883 6.54709 20.1076 6.54568 20.3669 6.69462C20.6262 6.84356 20.7858 7.12003 20.7851 7.41907C20.7845 7.7181 20.6236 7.99386 20.3637 8.14166L20.1537 8.26333C20.0884 8.30032 20.0481 8.36955 20.0481 8.44458C20.0481 8.51961 20.0884 8.58884 20.1537 8.62583L20.4462 8.7875C20.8487 9.01094 20.9938 9.51835 20.7704 9.92083C20.5469 10.3233 20.0395 10.4684 19.637 10.245L18.3537 9.53333C18.2265 9.46144 18.0709 9.46144 17.9437 9.53333L16.3804 10.4358C16.2514 10.5103 16.172 10.6478 16.172 10.7967V13.2033C16.172 13.3522 16.2514 13.4897 16.3804 13.5642L17.9437 14.47C18.0709 14.5419 18.2265 14.5419 18.3537 14.47L19.637 13.7583C19.8305 13.6508 20.0588 13.6246 20.2715 13.6856ZM9.70202 13.5833L11.7854 14.8783C11.9201 14.9621 12.0906 14.9621 12.2254 14.8783L14.3087 13.5842C14.4311 13.5081 14.5055 13.3741 14.5054 13.23V10.77C14.5055 10.6259 14.4311 10.4919 14.3087 10.4158L12.2254 9.12166C12.0906 9.03791 11.9201 9.03791 11.7854 9.12166L9.70202 10.4158C9.57963 10.4919 9.50525 10.6259 9.50536 10.77V13.23C9.50554 13.3738 9.57988 13.5074 9.70202 13.5833Z" />
</svg>
