<!--character:8663-->
  <svg width="20" height="20" viewBox="0 0 20 20" >
<path d="M6.54082 6.10921C7.78988 7.28032 8.44525 7.89656 8.50691 7.95794C8.51781 7.96879 8.52909 7.98037 8.54077 7.99236C8.62826 8.08217 8.73857 8.19541 8.88386 8.20161C9.04855 8.20864 11.4202 8.17363 11.4985 8.16332L11.5005 8.16306C11.579 8.15275 11.7031 8.13644 11.638 7.99371C11.5724 7.84979 8.48114 5.74705 8.05565 5.49667C7.99428 5.46055 7.94271 5.42858 7.89723 5.40038C7.62743 5.2331 7.57237 5.19896 6.96009 5.22405C6.89609 5.22667 6.83694 5.22895 6.78223 5.23106C6.2253 5.25255 6.12761 5.25631 6.0432 5.42143C5.96894 5.5667 6.1208 5.70988 6.35416 5.92991C6.41209 5.98454 6.47505 6.04391 6.54082 6.10921ZM15.2171 11.0415C16.5804 11.047 17.2247 10.4036 17.2247 9.91649C17.2247 9.4294 17.0348 8.92262 15.6828 8.73991C14.7815 8.6181 11.3525 8.6269 5.39586 8.76632C5.26961 8.7637 5.24218 8.75317 5.13653 8.66677C4.64567 8.16485 4.33494 7.84749 4.20434 7.71469C4.00844 7.51549 3.61129 7.41186 3.23736 7.41709C2.86343 7.42232 2.74093 7.62552 2.77094 7.80822C2.80095 7.99092 2.83988 8.11728 2.88709 8.23362C2.91857 8.31118 3.24257 9.11269 3.8591 10.6381C3.97894 10.9073 4.21338 11.0717 4.52248 11.0415L8.19602 11.0227C8.31585 11.0227 8.36563 11.0898 8.36563 11.1622C8.36379 11.1956 8.34437 11.2594 8.24111 11.3694C7.71893 11.9258 6.26085 13.4882 6.05727 13.7121C6.03309 13.7387 6.0069 13.7669 5.97957 13.7963C5.77677 14.0146 5.51077 14.3009 5.53209 14.511C5.55629 14.7493 5.85692 14.7727 6.05727 14.7727C6.29984 14.7727 6.44429 14.7733 6.56416 14.7737C6.75158 14.7744 6.87888 14.7749 7.22717 14.7727L7.24035 14.7726C7.79991 14.7691 7.91054 14.7684 8.19602 14.511C8.4073 14.3193 9.64831 13.1819 11.919 11.0989C12.0088 11.059 12.0333 11.0506 12.1633 11.0439C13.2763 11.0501 14.2942 11.0494 15.2171 11.0415Z" />
</svg>