<!-- character:0:832 -->
  <svg width="20" height="20" viewBox="0 0 20 20" >
<path   d="M4.03665 1.66663C3.64831 1.66663 3.33331 1.98079 3.33331 2.36913V17.6283C3.33331 18.0175 3.64915 18.3333 4.03915 18.3333H4.28748C4.68081 18.3333 4.99998 18.0141 4.99998 17.6208V4.86829C4.99998 4.48079 5.31415 4.16746 5.70165 4.16746H14.2858C14.6808 4.16746 15 4.48663 15 4.87996V17.6316C15 18.02 15.3141 18.3333 15.7008 18.3333H15.955C16.3475 18.3333 16.6666 18.0141 16.6666 17.6216V2.37829C16.6666 1.98496 16.3483 1.66663 15.955 1.66663H4.03665ZM11.25 3.33329C11.4801 3.33329 11.6666 3.14674 11.6666 2.91663C11.6666 2.68651 11.4801 2.49996 11.25 2.49996C11.0199 2.49996 10.8333 2.68651 10.8333 2.91663C10.8333 3.14674 11.0199 3.33329 11.25 3.33329ZM8.74998 3.33329C8.9801 3.33329 9.16665 3.14674 9.16665 2.91663C9.16665 2.68651 8.9801 2.49996 8.74998 2.49996C8.51986 2.49996 8.33331 2.68651 8.33331 2.91663C8.33331 3.14674 8.51986 3.33329 8.74998 3.33329ZM9.99443 8.20551C10.9533 8.20551 11.7305 7.42823 11.7305 6.4694C11.7305 5.51057 10.9533 4.73329 9.99443 4.73329C9.0356 4.73329 8.25832 5.51057 8.25832 6.4694C8.25832 7.42823 9.0356 8.20551 9.99443 8.20551ZM8.60554 8.54163H11.3833C12.1472 8.54163 12.7722 9.16663 12.7722 9.99996V12.6388C12.7722 13.0555 12.4944 13.3333 12.0778 13.3333H11.5222C11.4528 13.3333 11.3833 13.4027 11.3833 13.4722V17.6388C11.3833 18.0555 11.1055 18.3333 10.6889 18.3333H9.29998C8.88332 18.3333 8.60554 18.0555 8.60554 17.6388V13.4027C8.60554 13.3333 8.53609 13.2638 8.46665 13.2638H7.91109C7.49443 13.2638 7.21665 12.9861 7.21665 12.5694V9.93052C7.21665 9.16663 7.84165 8.54163 8.60554 8.54163Z" />
</svg>