<!-- character:0:1063 -->
  <svg width="20" height="20" viewBox="0 0 20 20" >
<path   d="M13.4506 6.10922C12.2015 7.28033 11.5461 7.89657 11.4845 7.95795C11.4736 7.9688 11.4623 7.98037 11.4506 7.99237C11.3631 8.08218 11.2528 8.19542 11.1075 8.20162C10.9428 8.20865 8.5712 8.17364 8.49286 8.16333L8.49089 8.16307C8.41242 8.15276 8.28826 8.13645 8.35336 7.99372C8.41901 7.8498 11.5103 5.74705 11.9357 5.49667C11.9971 5.46056 12.0487 5.42858 12.0942 5.40039C12.364 5.2331 12.419 5.19897 13.0313 5.22405C13.0953 5.22668 13.1545 5.22896 13.2092 5.23107C13.7661 5.25255 13.8638 5.25632 13.9482 5.42144C14.0225 5.56671 13.8706 5.70989 13.6372 5.92992C13.5793 5.98455 13.5163 6.04391 13.4506 6.10922ZM4.77425 11.0416C3.41099 11.047 2.76668 10.4036 2.76668 9.9165C2.76668 9.42941 2.9566 8.92263 4.30858 8.73992C5.2099 8.61811 8.63889 8.62691 14.5955 8.76633C14.7218 8.76371 14.7492 8.75318 14.8549 8.66678C15.3457 8.16486 15.6565 7.8475 15.7871 7.7147C15.983 7.5155 16.3801 7.41187 16.754 7.4171C17.128 7.42233 17.2505 7.62553 17.2205 7.80823C17.1904 7.99093 17.1515 8.11729 17.1043 8.23363C17.0728 8.31119 16.7488 9.1127 16.1323 10.6381C16.0125 10.9073 15.778 11.0717 15.4689 11.0416L11.7954 11.0227C11.6755 11.0227 11.6258 11.0898 11.6258 11.1622C11.6276 11.1956 11.647 11.2594 11.7503 11.3694C12.2725 11.9258 13.7305 13.4882 13.9341 13.7121C13.9583 13.7387 13.9845 13.7669 14.0118 13.7963C14.2146 14.0146 14.4806 14.301 14.4593 14.511C14.4351 14.7494 14.1345 14.7727 13.9341 14.7727C13.6916 14.7727 13.5471 14.7733 13.4272 14.7737C13.2398 14.7744 13.1125 14.7749 12.7642 14.7727L12.751 14.7726C12.1915 14.7691 12.0809 14.7684 11.7954 14.511C11.5841 14.3193 10.3431 13.1819 8.07236 11.0989C7.98264 11.059 7.95805 11.0506 7.82809 11.0439C6.71512 11.0501 5.69717 11.0494 4.77425 11.0416Z" />
</svg>