<!-- character:0:1043 -->
  <svg width="20" height="20" viewBox="0 0 20 20" >
<path   d="M9.10562 6.34284C9.11469 6.35526 9.12401 6.36846 9.13368 6.38213C9.20604 6.48452 9.29728 6.61363 9.43981 6.64248C9.60137 6.67518 11.9493 7.01161 12.0283 7.01369L12.0303 7.01374C12.1094 7.01583 12.2346 7.01914 12.1926 6.86799C12.1503 6.71557 9.42603 4.15513 9.04494 3.84127C8.98998 3.79601 8.94404 3.75636 8.90354 3.72139C8.66322 3.51396 8.61418 3.47163 8.00552 3.40063L7.82875 3.37973C7.27531 3.31383 7.17824 3.30227 7.06904 3.45215C6.97297 3.58402 7.10056 3.74919 7.29662 4.00302L7.29663 4.00303C7.3453 4.06604 7.3982 4.13452 7.45294 4.20931C7.45294 4.20931 9.02866 6.23744 9.10562 6.34284ZM17.4097 9.64104C17.4859 9.15995 17.3776 8.6297 16.0708 8.23774C14.7641 7.84578 5.90641 6.65459 5.90641 6.65459C5.78212 6.63225 5.75668 6.61757 5.66585 6.5157C5.66585 6.5157 5.0564 5.6569 4.89408 5.42951C4.73175 5.20212 4.3557 5.03764 3.98555 4.98431C3.6154 4.93098 3.46263 5.11252 3.46369 5.29766C3.46475 5.4828 3.48344 5.6137 3.51187 5.73599C3.5403 5.85829 4.09576 8.26296 4.09576 8.26296C4.17201 8.54754 4.37785 8.74657 4.68786 8.76518L8.31911 9.32125C8.43747 9.34 8.47614 9.41407 8.46481 9.48556C8.45779 9.5182 8.42862 9.57821 8.30942 9.67072C7.70663 10.1385 6.02209 11.4536 5.78598 11.643C5.75795 11.6654 5.72769 11.6892 5.6961 11.7139L5.69607 11.714C5.46161 11.8979 5.1541 12.1391 5.1423 12.3498C5.12891 12.5891 5.42218 12.6592 5.62006 12.6905C5.85963 12.7285 6.00221 12.7516 6.12053 12.7708L6.12055 12.7708C6.30556 12.8008 6.43122 12.8212 6.77556 12.8735L6.78861 12.8755C7.34182 12.9596 7.4512 12.9762 7.77343 12.7666C8.13145 12.5321 11.9844 9.97891 11.9844 9.97891C12.0792 9.9535 12.1048 9.94911 12.2342 9.9628C12.2342 9.9628 13.8817 10.2332 15.2508 10.4382C16.5965 10.6569 17.3335 10.1221 17.4097 9.64104ZM17.6389 16.6639H7.3611C6.94444 16.6639 6.66666 16.3862 6.66666 15.9695C6.66666 15.5528 6.94444 15.275 7.3611 15.275H17.6389C18.0555 15.275 18.3333 15.5528 18.3333 15.9695C18.3333 16.3862 18.0555 16.6639 17.6389 16.6639Z" />
</svg>