<!--character:4947-->
  <svg width="24" height="24" viewBox="0 0 24 24" >
<path d="M7.84906 7.33106C9.34793 8.73639 10.1344 9.47588 10.2084 9.54953C10.2214 9.56255 10.235 9.57644 10.249 9.59083C10.354 9.6986 10.4864 9.8345 10.6607 9.84194C10.8583 9.85037 13.7043 9.80835 13.7983 9.79599L13.8007 9.79568C13.8948 9.7833 14.0438 9.76373 13.9657 9.59246C13.8869 9.41975 10.1774 6.89646 9.66685 6.596C9.59321 6.55266 9.53132 6.51429 9.47675 6.48046C9.15299 6.27972 9.08691 6.23875 8.35218 6.26886C8.27538 6.272 8.2044 6.27474 8.13875 6.27727C7.47043 6.30306 7.35321 6.30758 7.25192 6.50572C7.1628 6.68004 7.34503 6.85186 7.62506 7.1159C7.69458 7.18145 7.77013 7.25269 7.84906 7.33106ZM18.2606 13.2499C19.8966 13.2564 20.6697 12.4843 20.6697 11.8998C20.6697 11.3153 20.4418 10.7071 18.8194 10.4879C17.7379 10.3417 13.6231 10.3523 6.4751 10.5196C6.3236 10.5164 6.29069 10.5038 6.16391 10.4001C5.57488 9.79782 5.20201 9.41699 5.04529 9.25763C4.8102 9.01859 4.33363 8.89423 3.88491 8.90051C3.43619 8.90678 3.28919 9.15063 3.3252 9.36987C3.36122 9.5891 3.40793 9.74074 3.46459 9.88035C3.50236 9.97342 3.89116 10.9352 4.63099 12.7658C4.7748 13.0887 5.05613 13.286 5.42705 13.2499L9.83529 13.2273C9.9791 13.2273 10.0388 13.3078 10.0388 13.3947C10.0366 13.4347 10.0133 13.5113 9.88941 13.6433C9.26279 14.3109 7.51309 16.1858 7.26879 16.4545C7.23978 16.4864 7.20835 16.5203 7.17555 16.5556C6.93219 16.8175 6.613 17.1611 6.63859 17.4132C6.66762 17.6992 7.02837 17.7273 7.26879 17.7273C7.55988 17.7273 7.73322 17.7279 7.87706 17.7285C8.10197 17.7293 8.25473 17.7299 8.67267 17.7273L8.6885 17.7272C9.35996 17.723 9.49272 17.7221 9.83529 17.4132C10.0888 17.1831 11.578 15.8183 14.3029 13.3187C14.4106 13.2708 14.4401 13.2608 14.596 13.2527C15.9316 13.2602 17.1531 13.2592 18.2606 13.2499Z" />
</svg>