<!--character:1315-->
  <svg width="20" height="20" viewBox="0 0 20 20" >
<path d="M4.03659 1.66666C3.64825 1.66666 3.33325 1.98083 3.33325 2.36916V17.6283C3.33325 18.0175 3.64909 18.3333 4.03909 18.3333H4.28742C4.68075 18.3333 4.99992 18.0142 4.99992 17.6208V4.86833C4.99992 4.48083 5.31409 4.1675 5.70159 4.1675H14.2858C14.6807 4.1675 14.9999 4.48666 14.9999 4.88V17.6317C14.9999 18.02 15.3141 18.3333 15.7008 18.3333H15.9549C16.3474 18.3333 16.6666 18.0142 16.6666 17.6217V2.37833C16.6666 1.985 16.3483 1.66666 15.9549 1.66666H4.03659ZM11.2499 3.33333C11.0198 3.33333 10.8333 3.14678 10.8333 2.91666C10.8333 2.68655 11.0198 2.5 11.2499 2.5C11.48 2.5 11.6666 2.68655 11.6666 2.91666C11.6666 3.14678 11.48 3.33333 11.2499 3.33333ZM8.74992 3.33333C8.5198 3.33333 8.33325 3.14678 8.33325 2.91666C8.33325 2.68655 8.5198 2.5 8.74992 2.5C8.98004 2.5 9.16659 2.68655 9.16659 2.91666C9.16659 3.14678 8.98004 3.33333 8.74992 3.33333Z" />
<path d="M9.99437 8.20555C10.9532 8.20555 11.7305 7.42826 11.7305 6.46944C11.7305 5.51061 10.9532 4.73332 9.99437 4.73332C9.03554 4.73332 8.25825 5.51061 8.25825 6.46944C8.25825 7.42826 9.03554 8.20555 9.99437 8.20555Z" />
<path d="M8.60548 8.54166H11.3833C12.1471 8.54166 12.7721 9.16666 12.7721 10V12.6389C12.7721 13.0556 12.4944 13.3333 12.0777 13.3333H11.5221C11.4527 13.3333 11.3833 13.4028 11.3833 13.4722V17.6389C11.3833 18.0556 11.1055 18.3333 10.6888 18.3333H9.29992C8.88326 18.3333 8.60548 18.0556 8.60548 17.6389V13.4028C8.60548 13.3333 8.53603 13.2639 8.46659 13.2639H7.91103C7.49437 13.2639 7.21659 12.9861 7.21659 12.5694V9.93055C7.21659 9.16666 7.84159 8.54166 8.60548 8.54166Z" />
</svg>