<!--category:transportation-->
<!--character:0061-->
<svg width="24" height="24" viewBox="0 0 24 24" xmlns="http://www.w3.org/2000/svg"><path d="M10.2084 9.5495c-.074-.0736-.8605-.8131-2.3593-2.2184-.3969-.394-.7084-.6078-.5972-.8254.1113-.2176.2417-.2017 1.1003-.2368.8586-.0352.804.0266 1.3147.3271.5106.3005 4.22 2.8238 4.2988 2.9965.0788.1727-.0734.1911-.1674.2035-.094.0124-2.94.0544-3.1376.046-.1976-.0085-.3413-.182-.4523-.2925zm10.4613 2.3503c0 .5845-.7731 1.3566-2.409 1.35-1.1076.0094-2.329.0104-3.6647.0029-.156.008-.1854.018-.293.066-2.725 2.4996-4.2142 3.8644-4.4677 4.0945-.3452.3113-.4774.3097-1.1626.314-.6852.0044-.6577 0-1.4039 0-.2404 0-.6012-.028-.6302-.314-.029-.286.3859-.69.6302-.9587.2443-.2687 1.994-2.1436 2.6206-2.8112.124-.132.1472-.2086.1494-.2486 0-.0869-.0597-.1674-.2035-.1674l-4.4082.0226c-.371.0361-.6523-.1612-.7961-.4841a9603.258 9603.258 0 0 0-1.1664-2.8855c-.0567-.1396-.1034-.2912-.1394-.5104-.036-.2193.111-.4631.5597-.4694.4487-.0063.9253.118 1.1604.3571.1567.1594.5296.5402 1.1186 1.1425.1268.1037.1597.1163.3112.1195 7.148-.1673 11.2628-.1779 12.3444-.0317 1.6223.2192 1.8502.8274 1.8502 1.4119z"/></svg>