<!--character:4240-->
  <svg width="24" height="24" viewBox="0 0 24 24" >
<path d="M16.1406 7.33106C14.6417 8.73639 13.8553 9.47588 13.7813 9.54953C13.7682 9.56255 13.7547 9.57644 13.7407 9.59083C13.6357 9.6986 13.5033 9.8345 13.329 9.84194C13.1313 9.85037 10.2853 9.80835 10.1913 9.79599L10.189 9.79568C10.0948 9.7833 9.94582 9.76373 10.0239 9.59246C10.1027 9.41975 13.8122 6.89646 14.3228 6.596C14.3964 6.55266 14.4583 6.51429 14.5129 6.48046C14.8367 6.27972 14.9027 6.23875 15.6375 6.26886C15.7143 6.272 15.7853 6.27474 15.8509 6.27727C16.5192 6.30306 16.6365 6.30758 16.7377 6.50572C16.8269 6.68004 16.6446 6.85186 16.3646 7.1159C16.2951 7.18145 16.2195 7.25269 16.1406 7.33106ZM5.72901 13.2499C4.0931 13.2564 3.31992 12.4843 3.31992 11.8998C3.31992 11.3153 3.54783 10.7071 5.1702 10.4879C6.25179 10.3417 10.3666 10.3523 17.5146 10.5196C17.6661 10.5164 17.699 10.5038 17.8257 10.4001C18.4148 9.79782 18.7876 9.41699 18.9444 9.25763C19.1794 9.01859 19.656 8.89423 20.1047 8.90051C20.5535 8.90678 20.7005 9.15063 20.6645 9.36987C20.6284 9.5891 20.5817 9.74074 20.5251 9.88035C20.4873 9.97342 20.0985 10.9352 19.3587 12.7658C19.2149 13.0887 18.9335 13.286 18.5626 13.2499L14.1544 13.2273C14.0106 13.2273 13.9508 13.3078 13.9508 13.3947C13.953 13.4347 13.9763 13.5113 14.1002 13.6433C14.7269 14.3109 16.4766 16.1858 16.7209 16.4545C16.7499 16.4864 16.7813 16.5203 16.8141 16.5556C17.0575 16.8175 17.3767 17.1611 17.3511 17.4132C17.322 17.6992 16.9613 17.7273 16.7209 17.7273C16.4298 17.7273 16.2564 17.7279 16.1126 17.7285C15.8877 17.7293 15.7349 17.7299 15.317 17.7273L15.3012 17.7272C14.6297 17.723 14.4969 17.7221 14.1544 17.4132C13.9008 17.1831 12.4116 15.8183 9.68674 13.3187C9.57908 13.2708 9.54957 13.2608 9.39362 13.2527C8.05805 13.2602 6.83651 13.2592 5.72901 13.2499Z" />
</svg>