<!--character:9311-->
  <svg width="20" height="20" viewBox="0 0 20 20" >
<path d="M10 2.85C10.7452 2.85 11.1864 3.77023 11.1864 4.73584V7.71647C11.1864 8.01358 11.335 8.23641 11.5578 8.38497L17.1286 11.4303C17.3514 11.5789 17.5 11.8017 17.5 12.0988V12.5786C17.5 13.0986 16.9801 13.4699 16.5344 13.2471L11.7064 11.613C11.4092 11.5387 11.1864 11.7616 11.1864 11.9844V14.4776C11.1864 14.7747 11.335 14.9264 11.5578 15.075L12.9691 15.9663C13.2662 16.1149 13.4623 16.3551 13.3653 16.5302C13.3433 16.5699 13.3077 16.7379 13.1027 16.7834C12.8976 16.8288 12.0788 16.6369 10.8814 16.4293L10.8138 16.4192C10.6098 16.9051 10.3385 17.1481 10 17.1481C9.66089 17.1481 9.38793 16.9043 9.18112 16.4167C9.15489 16.4198 9.13446 16.4233 9.11856 16.4261C7.92119 16.6337 7.10239 16.8257 6.89734 16.7802C6.69228 16.7347 6.65668 16.5667 6.6347 16.527C6.53774 16.3519 6.73381 16.1117 7.03092 15.9631L8.44219 15.0718C8.66503 14.9232 8.81358 14.6261 8.81358 14.4033V11.9101C8.81358 11.613 8.51647 11.4645 8.29364 11.5387L3.46561 13.1728C3.01994 13.3957 2.5 13.0243 2.5 12.5043V12.0246C2.5 11.8017 2.64855 11.5046 2.87139 11.4303L8.44219 8.38497C8.66503 8.23641 8.81358 8.01358 8.81358 7.71647V4.66156C8.81358 3.5474 9.25476 2.85 10 2.85Z" />
</svg>