<!--character:9442-->
  <svg width="24" height="24" viewBox="0 0 24 24" >
<path d="M12 3.42C12.8943 3.42 13.4237 4.52428 13.4237 5.68301V9.25977C13.4237 9.6163 13.602 9.8837 13.8694 10.062L20.5543 13.7164C20.8217 13.8947 21 14.1621 21 14.5186V15.0943C21 15.7183 20.3761 16.1639 19.8413 15.8965L14.0476 13.9356C13.6911 13.8465 13.4237 14.1139 13.4237 14.3813V17.3731C13.4237 17.7296 13.602 17.9117 13.8694 18.09L15.5629 19.1596C15.9194 19.3379 16.1547 19.6261 16.0384 19.8362C16.012 19.8839 15.9693 20.0855 15.7232 20.1401C15.4771 20.1946 14.4946 19.9642 13.0577 19.7151L12.9765 19.7031C12.7317 20.2862 12.4062 20.5777 12 20.5777C11.5931 20.5777 11.2655 20.2851 11.0173 19.7C10.9859 19.7038 10.9613 19.708 10.9423 19.7113C9.50542 19.9604 8.52287 20.1908 8.2768 20.1362C8.03073 20.0817 7.98801 19.88 7.96164 19.8324C7.84529 19.6223 8.08058 19.334 8.43711 19.1558L10.1306 18.0862C10.398 17.9079 10.5763 17.5514 10.5763 17.284V14.2921C10.5763 13.9356 10.2198 13.7573 9.95237 13.8465L4.15873 15.8074C3.62393 16.0748 3 15.6291 3 15.0052V14.4295C3 14.1621 3.17827 13.8055 3.44566 13.7164L10.1306 10.062C10.398 9.8837 10.5763 9.6163 10.5763 9.25977V5.59387C10.5763 4.25688 11.1057 3.42 12 3.42Z" />
</svg>