<!-- character:0:1055 -->
  <svg width="20" height="20" viewBox="0 0 20 20" >
<path   d="M6.54088 6.10922C7.78994 7.28033 8.44531 7.89657 8.50697 7.95795C8.51787 7.9688 8.52915 7.98037 8.54083 7.99237C8.62832 8.08218 8.73863 8.19542 8.88392 8.20162C9.04861 8.20865 11.4203 8.17364 11.4986 8.16333L11.5006 8.16307C11.579 8.15276 11.7032 8.13645 11.6381 7.99372C11.5724 7.8498 8.48121 5.74705 8.05571 5.49667C7.99434 5.46056 7.94277 5.42858 7.8973 5.40039C7.62749 5.2331 7.57243 5.19897 6.96015 5.22405C6.89615 5.22668 6.837 5.22896 6.78229 5.23107C6.22536 5.25255 6.12767 5.25632 6.04326 5.42144C5.969 5.56671 6.12086 5.70989 6.35422 5.92992C6.41215 5.98455 6.47511 6.04391 6.54088 6.10922ZM15.2172 11.0416C16.5805 11.047 17.2248 10.4036 17.2248 9.9165C17.2248 9.42941 17.0349 8.92263 15.6829 8.73992C14.7816 8.61811 11.3526 8.62691 5.39592 8.76633C5.26967 8.76371 5.24224 8.75318 5.13659 8.66678C4.64573 8.16486 4.335 7.8475 4.2044 7.7147C4.0085 7.5155 3.61135 7.41187 3.23742 7.4171C2.86349 7.42233 2.74099 7.62553 2.771 7.80823C2.80102 7.99093 2.83994 8.11729 2.88716 8.23363C2.91863 8.31119 3.24263 9.1127 3.85916 10.6381C3.979 10.9073 4.21344 11.0717 4.52254 11.0416L8.19608 11.0227C8.31591 11.0227 8.36569 11.0898 8.36569 11.1622C8.36385 11.1956 8.34444 11.2594 8.24117 11.3694C7.71899 11.9258 6.26091 13.4882 6.05733 13.7121C6.03315 13.7387 6.00696 13.7669 5.97963 13.7963C5.77683 14.0146 5.51084 14.301 5.53215 14.511C5.55635 14.7494 5.85698 14.7727 6.05733 14.7727C6.2999 14.7727 6.44435 14.7733 6.56422 14.7737C6.75164 14.7744 6.87895 14.7749 7.22723 14.7727L7.24041 14.7726C7.79997 14.7691 7.9106 14.7684 8.19608 14.511C8.40736 14.3193 9.64837 13.1819 11.9191 11.0989C12.0088 11.059 12.0334 11.0506 12.1634 11.0439C13.2763 11.0501 14.2943 11.0494 15.2172 11.0416Z" />
</svg>