<!--character:529-->
  <svg width="24" height="24" viewBox="0 0 24 24" >
<path d="M10.6986 4.04044C10.4179 4.04044 10.141 4.1055 9.88973 4.23048L9.88785 4.23142L8.35097 4.99028L8.34621 4.99266C8.07047 5.13085 7.83447 5.33698 7.66044 5.59162C7.48642 5.84626 7.38011 6.14102 7.35153 6.44812C7.32295 6.75522 7.37305 7.06453 7.4971 7.34691C7.62115 7.62929 7.81535 7.87565 8.06086 8.06234L9.05809 8.82006L7.12635 9.79633L5.94218 8.90291C5.68189 8.70653 5.33574 8.66629 5.03734 8.79773L3.28813 9.56821C3.27475 9.5741 3.26151 9.58032 3.24844 9.58686C2.98049 9.72083 2.74985 9.919 2.57705 10.1637C2.40425 10.4084 2.29466 10.6921 2.25805 10.9894C2.22144 11.2867 2.25893 11.5885 2.3672 11.8678C2.47547 12.1471 2.65115 12.3953 2.87858 12.5903L2.88104 12.5924L6.20599 15.4221L6.20732 15.4233C6.61307 15.7709 7.11209 15.9916 7.64231 16.0579C8.1731 16.1242 8.71256 16.0324 9.1918 15.7948L10.9064 14.9422V18.1382C10.9034 18.445 10.9787 18.7477 11.1254 19.0173C11.2731 19.2892 11.4883 19.5184 11.7503 19.683C12.0123 19.8477 12.3122 19.9421 12.6212 19.9574C12.93 19.9726 13.2381 19.9079 13.5149 19.7701L15.0808 18.9933C15.3188 18.875 15.5279 18.7058 15.6934 18.4979C15.8588 18.2899 15.9768 18.0476 16.0386 17.7891L17.4984 11.6705L19.9876 10.4356C20.3623 10.2494 20.6966 9.99122 20.9714 9.6758C21.2463 9.36039 21.4563 8.99392 21.5896 8.59732C21.7228 8.20072 21.7766 7.78177 21.748 7.36437C21.7193 6.94698 21.6087 6.53932 21.4225 6.16467C21.2363 5.79002 20.9781 5.45571 20.6627 5.18084C20.3472 4.90598 19.9808 4.69592 19.5842 4.56268C19.1876 4.42944 18.7686 4.37562 18.3512 4.40429C17.9338 4.43297 17.5262 4.54355 17.1515 4.72977L14.8198 5.90819L11.5142 4.23388L11.5093 4.23142C11.2575 4.10582 10.9799 4.04044 10.6986 4.04044ZM11.1729 9.76805L15.1629 7.75158C15.2077 7.73329 15.2511 7.71139 15.2926 7.68602L17.9551 6.34049C18.1174 6.26019 18.2939 6.21248 18.4746 6.20006C18.6562 6.18759 18.8384 6.211 19.0109 6.26896C19.1834 6.32692 19.3429 6.4183 19.4801 6.53787C19.6173 6.65744 19.7296 6.80287 19.8106 6.96584C19.8916 7.12882 19.9397 7.30616 19.9522 7.48773C19.9647 7.66931 19.9413 7.85156 19.8833 8.02408C19.8253 8.1966 19.734 8.35602 19.6144 8.49323C19.4949 8.63033 19.3496 8.74257 19.1868 8.82357L16.3209 10.2453C16.0816 10.364 15.9074 10.5829 15.8454 10.8427L14.2879 17.3709L14.2848 17.3772L14.2794 17.3816L12.7134 18.1584L12.7117 18.1592L12.7099 18.1596L12.7081 18.159L12.7068 18.1576L12.7063 18.1558L12.7064 13.4896C12.7064 13.178 12.5452 12.8886 12.2804 12.7245C12.0155 12.5605 11.6847 12.545 11.4057 12.6837L8.39125 14.1826C8.22872 14.2631 8.04553 14.2943 7.86557 14.2718C7.68539 14.2493 7.51582 14.1742 7.37801 14.056L7.3753 14.0537L4.05011 11.2237C4.04821 11.222 4.04646 11.2196 4.04553 11.2172C4.04456 11.2147 4.04423 11.212 4.04456 11.2094C4.04488 11.2067 4.04586 11.2042 4.04741 11.202L4.04922 11.1998L5.27964 10.6579L6.48984 11.5709C6.76382 11.7776 7.13152 11.8105 7.43784 11.6557L11.1372 9.78613C11.1492 9.78038 11.1611 9.77436 11.1729 9.76805ZM10.8449 7.91704L9.15013 6.62935C9.14793 6.62767 9.1462 6.62547 9.14509 6.62295C9.14398 6.62042 9.14353 6.61765 9.14378 6.61491C9.14404 6.61216 9.14499 6.60952 9.14655 6.60724C9.14799 6.60514 9.1499 6.6034 9.15213 6.60217L10.6881 5.84377L10.6913 5.84215C10.6936 5.84103 10.696 5.84044 10.6986 5.84044L10.7052 5.84187L12.8258 6.91593L10.8449 7.91704Z" />
</svg>