<!--character:2715-->
  <svg width="24" height="24" viewBox="0 0 24 24" >
<path d="M12 20.5777C11.1057 20.5777 10.5763 19.7408 10.5763 18.4038V14.7379C10.5763 14.3814 10.398 14.114 10.1306 13.9357L3.44566 10.2813C3.17827 10.1921 3 9.8356 3 9.5682V8.99248C3 8.36855 3.62393 7.92288 4.15873 8.19028L9.95237 10.1512C10.2198 10.2403 10.5763 10.0621 10.5763 9.70554V6.71371C10.5763 6.44632 10.398 6.08978 10.1306 5.91152L8.43711 4.84192C8.08058 4.66366 7.84529 4.37543 7.96164 4.16527C7.98801 4.11765 8.03073 3.91602 8.2768 3.86146C8.52287 3.8069 9.50542 4.03728 10.9423 4.28638C10.9613 4.28968 10.9859 4.29392 11.0173 4.29763C11.2655 3.71254 11.5931 3.42 12 3.42C12.4062 3.42 12.7317 3.71153 12.9765 4.29459L13.0577 4.28254C14.4946 4.03345 15.4771 3.80306 15.7232 3.85762C15.9693 3.91219 16.012 4.11381 16.0384 4.16143C16.1547 4.37159 15.9194 4.65982 15.5629 4.83809L13.8694 5.90768C13.602 6.08595 13.4237 6.26805 13.4237 6.62458V9.61641C13.4237 9.88381 13.6911 10.1512 14.0476 10.0621L19.8413 8.10115C20.3761 7.83375 21 8.27941 21 8.90334V9.47907C21 9.8356 20.8217 10.103 20.5543 10.2813L13.8694 13.9357C13.602 14.114 13.4237 14.3814 13.4237 14.7379V18.3147C13.4237 19.4734 12.8943 20.5777 12 20.5777Z" />
</svg>