<!--character:533-->
  <svg width="24" height="24" viewBox="0 0 24 24" >
<path d="M6.47295 4.44376C6.2047 4.3104 5.90763 4.24546 5.60821 4.25472C5.30879 4.26399 5.0163 4.34717 4.75682 4.49686C4.49733 4.64655 4.2789 4.8581 4.12098 5.11267C3.96306 5.36723 3.87056 5.65691 3.85172 5.95588L3.59261 10.3175L3.59249 10.3194C3.55907 10.8527 3.68314 11.3839 3.94927 11.8472C4.21572 12.3111 4.61367 12.6867 5.09188 12.9264L6.80462 13.7826L4.25224 15.706C4.00535 15.8883 3.80902 16.1305 3.68187 16.4099C3.55372 16.6916 3.50016 17.0014 3.52634 17.3097C3.55252 17.618 3.65756 17.9143 3.83136 18.1703C4.005 18.426 4.2422 18.6332 4.51876 18.7713L6.08153 19.5545C6.31927 19.6733 6.58018 19.7385 6.84586 19.7455C7.11154 19.7525 7.37602 19.7009 7.61967 19.5947L13.3848 17.0782L15.869 18.3231C16.2432 18.5102 16.6506 18.6218 17.0679 18.6515C17.4852 18.6812 17.9043 18.6284 18.3012 18.4961C18.6981 18.3639 19.0651 18.1547 19.3812 17.8806C19.6973 17.6065 19.9563 17.2729 20.1434 16.8987C20.3306 16.5245 20.4422 16.1171 20.4719 15.6998C20.5016 15.2824 20.4488 14.8634 20.3165 14.4664C20.1843 14.0695 19.9751 13.7025 19.701 13.3864C19.4269 13.0703 19.0933 12.8113 18.7191 12.6242L16.3747 11.4712L15.7225 7.8236L15.7215 7.81817C15.6703 7.54148 15.5554 7.28049 15.3861 7.05577C15.2172 6.83161 14.9986 6.64965 14.7476 6.52417L14.7457 6.52325L13.2147 5.75253L13.21 5.75016C12.9337 5.61311 12.627 5.54868 12.3189 5.56295C12.0108 5.57721 11.7114 5.6697 11.449 5.83169C11.1865 5.99368 10.9696 6.21984 10.8188 6.48885C10.6679 6.75787 10.588 7.06123 10.5867 7.36965L10.5817 8.62208L8.63945 7.66686L8.64031 6.18347C8.6405 5.8574 8.46432 5.55674 8.17977 5.39753L6.51173 4.46424C6.49897 4.4571 6.48604 4.45027 6.47295 4.44376ZM15.2394 12.9187L17.9163 14.2353C18.0781 14.3166 18.2224 14.4288 18.3411 14.5657C18.4603 14.7032 18.5513 14.8628 18.6088 15.0355C18.6664 15.2081 18.6893 15.3905 18.6764 15.572C18.6635 15.7535 18.615 15.9308 18.5335 16.0935C18.4521 16.2563 18.3395 16.4015 18.202 16.5207C18.0645 16.6399 17.9048 16.7309 17.7322 16.7884C17.5595 16.846 17.3772 16.869 17.1956 16.856C17.0141 16.8431 16.837 16.7946 16.6742 16.7132L13.8143 15.2801C13.5755 15.1605 13.2958 15.153 13.051 15.2599L6.90009 17.9448L6.89317 17.9461L6.88644 17.9445L5.32359 17.1612L5.32195 17.1604L5.32052 17.1592L5.31989 17.1574L5.32021 17.1555L5.32141 17.154L9.04801 14.3459C9.29684 14.1584 9.43099 13.8556 9.40265 13.5453C9.37431 13.235 9.18751 12.9615 8.90882 12.8222L5.89764 11.3168C5.73535 11.2354 5.6005 11.108 5.51007 10.9506C5.41962 10.7932 5.37752 10.6126 5.389 10.4314L5.38922 10.4278L5.64816 6.06908C5.64838 6.06654 5.64923 6.0637 5.65057 6.06154C5.65199 6.05926 5.65394 6.05736 5.65626 6.05603C5.65858 6.05469 5.6612 6.05394 5.66388 6.05386L5.66668 6.05402L6.84001 6.71051L6.83913 8.2265C6.83893 8.56971 7.03395 8.88316 7.34193 9.03463L11.0614 10.8639C11.0732 10.8701 11.0852 10.876 11.0973 10.8816L15.109 12.8546C15.1506 12.8794 15.1942 12.9009 15.2394 12.9187ZM14.3698 10.4852L12.3782 9.50563L12.3867 7.3771C12.3867 7.37436 12.3874 7.37168 12.3887 7.3693C12.3901 7.3669 12.392 7.36487 12.3944 7.36342C12.3967 7.36197 12.3994 7.36115 12.4021 7.36102C12.4047 7.3609 12.4072 7.36139 12.4096 7.36243L13.9396 8.13265L13.9428 8.13428C13.9451 8.1354 13.9471 8.13703 13.9486 8.13904L13.9516 8.14586L14.3698 10.4852Z" />
</svg>