<!--description:Use in lists when there is a chance to meet other transportation types-->
<!--category:transportation-->
<!--character:E160-->
<!--added:0.26-->
<svg width="24" height="24" viewBox="0 0 24 24" xmlns="http://www.w3.org/2000/svg"><path d="M12 3.42c.8943 0 1.4237 1.1043 1.4237 2.263v3.5768c0 .3565.1783.6239.4457.8022l6.685 3.6544c.2673.1783.4456.4457.4456.8022v.5757c0 .624-.624 1.0696-1.1587.8022l-5.7937-1.9609c-.3565-.0891-.6239.1783-.6239.4457v2.9918c0 .3565.1783.5386.4457.7169l1.6935 1.0696c.3565.1783.5918.4665.4755.6766-.0264.0477-.0691.2493-.3152.3039-.246.0545-1.2286-.1759-2.6655-.425l-.0812-.012c-.2448.583-.5703.8746-.9765.8746-.407 0-.7345-.2926-.9827-.8776a1.3162 1.3162 0 0 0-.075.0112c-1.4369.2491-2.4194.4795-2.6655.425-.246-.0546-.2888-.2563-.3152-.3039-.1163-.2101.119-.4984.4755-.6766l1.6935-1.0696c.2674-.1783.4457-.5348.4457-.8022V14.292c0-.3565-.3565-.5348-.624-.4456l-5.7936 1.9609C3.624 16.0748 3 15.6291 3 15.0052v-.5757c0-.2674.1783-.624.4457-.713l6.685-3.6545c.2673-.1783.4456-.4457.4456-.8022v-3.666c0-1.337.5294-2.1738 1.4237-2.1738z"/></svg>
