<!--character:3126-->
  <svg width="24" height="24" viewBox="0 0 24 24" >
<path d="M10.3944 6.67043C10.531 6.73342 10.7033 6.81285 10.8688 6.75732C11.0563 6.69437 13.6982 5.63524 13.7815 5.59L13.7836 5.58887C13.8671 5.54357 13.9992 5.4719 13.8649 5.34C13.7294 5.207 9.36205 4.18066 8.7777 4.08314C8.69342 4.06907 8.62189 4.05543 8.55882 4.0434C8.18461 3.97202 8.10825 3.95745 7.43311 4.24886L7.23687 4.33321C6.62218 4.59678 6.51436 4.64301 6.49081 4.86429C6.47008 5.05897 6.70178 5.15407 7.05783 5.30022C7.14623 5.3365 7.2423 5.37593 7.34406 5.42081C7.34406 5.42081 10.1985 6.58307 10.3417 6.64644C10.3586 6.6539 10.3762 6.66202 10.3944 6.67043Z" />
<path d="M20.9505 5.09157C20.741 4.54589 20.3103 4.05982 18.7171 4.43653C17.1239 4.81325 7.20403 8.88994 7.20403 8.88994C7.06146 8.9413 7.02621 8.9413 6.8707 8.88994C6.8707 8.88994 5.72206 8.36312 5.41693 8.22421C5.1118 8.08529 4.62231 8.13998 4.20565 8.30665C3.78898 8.47331 3.73913 8.75364 3.85132 8.94541C3.96351 9.13718 4.06147 9.262 4.16439 9.37204C4.26731 9.48207 6.28736 11.6478 6.28736 11.6478C6.53736 11.8978 6.8707 11.9811 7.20403 11.8145L11.3114 10.2136C11.4456 10.1621 11.5303 10.2158 11.5614 10.2969C11.5737 10.3351 11.5794 10.4149 11.511 10.5826C11.1652 11.4304 10.2037 13.8078 10.0719 14.1463C10.0562 14.1865 10.039 14.2293 10.0211 14.274C9.88775 14.6058 9.71289 15.0409 9.8271 15.2671C9.95671 15.5237 10.3036 15.4206 10.528 15.3345C10.7998 15.2302 10.9618 15.1686 11.0963 15.1176C11.3065 15.0378 11.4494 14.9836 11.8386 14.8314L11.8534 14.8256C12.4787 14.581 12.6024 14.5327 12.8115 14.1215C13.0429 13.663 15.515 8.6979 15.515 8.6979C15.5984 8.61457 15.6223 8.59465 15.765 8.53123C15.765 8.53123 17.6393 7.82377 19.1852 7.21532C20.7148 6.63521 21.1599 5.63725 20.9505 5.09157Z" />
<path d="M15.1668 19.9976H2.83343C2.33343 19.9976 2.0001 19.6643 2.0001 19.1643C2.0001 18.6643 2.33343 18.331 2.83343 18.331H15.1668C15.6668 18.331 16.0001 18.6643 16.0001 19.1643C16.0001 19.6643 15.6668 19.9976 15.1668 19.9976Z" />
</svg>