<!--character:E101-->
<svg xmlns="http://www.w3.org/2000/svg" width="24" height="24" viewBox="0 0 24 24"><path d="M12 20.5777c-.8943 0-1.4237-.8369-1.4237-2.1739V14.738c0-.3565-.1783-.624-.4457-.8022l-6.685-3.6544C3.1784 10.192 3 9.8356 3 9.5682v-.5757c0-.624.624-1.0696 1.1587-.8022l5.7937 1.961c.2674.089.6239-.0892.6239-.4458V6.7137c0-.2674-.1783-.624-.4457-.8022L8.4371 4.842c-.3565-.1782-.5918-.4665-.4755-.6766.0264-.0476.0691-.2493.3152-.3038.246-.0546 1.2286.1758 2.6655.4249.019.0033.0436.0075.075.0112.2482-.585.5758-.8776.9827-.8776.4062 0 .7317.2915.9765.8746l.0812-.012c1.4369-.2492 2.4194-.4795 2.6655-.425.246.0546.2888.2562.3152.3038.1163.2102-.119.4984-.4755.6767l-1.6935 1.0696c-.2674.1782-.4457.3604-.4457.7169v2.9918c0 .2674.2674.5348.624.4457l5.7936-1.961C20.376 7.8338 21 8.2794 21 8.9033v.5758c0 .3565-.1783.6239-.4457.8022l-6.685 3.6544c-.2673.1783-.4456.4457-.4456.8022v3.5768c0 1.1587-.5294 2.263-1.4237 2.263z"/></svg>
