<!--character:6338-->
  <svg width="24" height="24" viewBox="0 0 24 24" >
<path d="M7.84899 7.33106C9.34786 8.73639 10.1343 9.47588 10.2083 9.54953C10.2214 9.56255 10.2349 9.57644 10.2489 9.59083C10.3539 9.6986 10.4863 9.8345 10.6606 9.84194C10.8583 9.85037 13.7042 9.80835 13.7982 9.79599L13.8006 9.79568C13.8948 9.7833 14.0438 9.76373 13.9656 9.59246C13.8869 9.41975 10.1774 6.89646 9.66678 6.596C9.59314 6.55266 9.53125 6.51429 9.47668 6.48046C9.15291 6.27972 9.08684 6.23875 8.35211 6.26886C8.27531 6.272 8.20433 6.27474 8.13867 6.27727C7.47036 6.30306 7.35313 6.30758 7.25184 6.50572C7.16273 6.68004 7.34496 6.85186 7.62499 7.1159C7.69451 7.18145 7.77006 7.25269 7.84899 7.33106ZM18.2606 13.2499C19.8965 13.2564 20.6697 12.4843 20.6697 11.8998C20.6697 11.3153 20.4418 10.7071 18.8194 10.4879C17.7378 10.3417 13.623 10.3523 6.47503 10.5196C6.32353 10.5164 6.29062 10.5038 6.16384 10.4001C5.57481 9.79782 5.20193 9.41699 5.04521 9.25763C4.81013 9.01859 4.33355 8.89423 3.88483 8.90051C3.43611 8.90678 3.28911 9.15063 3.32513 9.36987C3.36114 9.5891 3.40786 9.74074 3.46451 9.88035C3.50228 9.97342 3.89108 10.9352 4.63092 12.7658C4.77472 13.0887 5.05605 13.286 5.42697 13.2499L9.83522 13.2273C9.97902 13.2273 10.0388 13.3078 10.0388 13.3947C10.0366 13.4347 10.0132 13.5113 9.88934 13.6433C9.26271 14.3109 7.51301 16.1858 7.26872 16.4545C7.2397 16.4864 7.20828 16.5203 7.17548 16.5556C6.93212 16.8175 6.61293 17.1611 6.63851 17.4132C6.66754 17.6992 7.0283 17.7273 7.26872 17.7273C7.55981 17.7273 7.73315 17.7279 7.87699 17.7285C8.1019 17.7293 8.25466 17.7299 8.6726 17.7273L8.68842 17.7272C9.35989 17.723 9.49265 17.7221 9.83522 17.4132C10.0888 17.1831 11.578 15.8183 14.3028 13.3187C14.4105 13.2708 14.44 13.2608 14.596 13.2527C15.9315 13.2602 17.1531 13.2592 18.2606 13.2499Z" />
</svg>