<!--character:7176-->
  <svg width="24" height="24" viewBox="0 0 24 24" >
<path d="M4.84398 2C4.37798 2 3.99998 2.377 3.99998 2.843V21.154C3.99998 21.621 4.37898 22 4.84698 22H5.14498C5.61698 22 5.99998 21.617 5.99998 21.145V5.842C5.99998 5.377 6.37698 5.001 6.84198 5.001H17.143C17.617 5.001 18 5.384 18 5.856V21.158C18 21.624 18.377 22 18.841 22H19.146C19.617 22 20 21.617 20 21.146V2.854C20 2.382 19.618 2 19.146 2H4.84398ZM13.5 4C13.2238 4 13 3.77614 13 3.5C13 3.22386 13.2238 3 13.5 3C13.7761 3 14 3.22386 14 3.5C14 3.77614 13.7761 4 13.5 4ZM10.5 4C10.2238 4 9.99998 3.77614 9.99998 3.5C9.99998 3.22386 10.2238 3 10.5 3C10.7761 3 11 3.22386 11 3.5C11 3.77614 10.7761 4 10.5 4Z" />
<path d="M11.9933 9.84666C13.1439 9.84666 14.0766 8.91392 14.0766 7.76333C14.0766 6.61273 13.1439 5.67999 11.9933 5.67999C10.8427 5.67999 9.90998 6.61273 9.90998 7.76333C9.90998 8.91392 10.8427 9.84666 11.9933 9.84666Z" />
<path d="M10.3266 10.25H13.66C14.5766 10.25 15.3266 11 15.3266 12V15.1667C15.3266 15.6667 14.9933 16 14.4933 16H13.8266C13.7433 16 13.66 16.0833 13.66 16.1667V21.1667C13.66 21.6667 13.3266 22 12.8266 22H11.16C10.66 22 10.3266 21.6667 10.3266 21.1667V16.0833C10.3266 16 10.2433 15.9167 10.16 15.9167H9.49331C8.99331 15.9167 8.65998 15.5833 8.65998 15.0833V11.9167C8.65998 11 9.40998 10.25 10.3266 10.25Z" />
</svg>