<!--character:5587-->
  <svg width="24" height="24" viewBox="0 0 24 24" >
<path d="M12 20.5777C11.1057 20.5777 10.5763 19.7408 10.5763 18.4039V14.738C10.5763 14.3814 10.398 14.114 10.1306 13.9358L3.44566 10.2813C3.17827 10.1922 3 9.83565 3 9.56825V8.99252C3 8.36859 3.62393 7.92293 4.15873 8.19033L9.95237 10.1512C10.2198 10.2404 10.5763 10.0621 10.5763 9.70559V6.71376C10.5763 6.44636 10.398 6.08983 10.1306 5.91156L8.43711 4.84197C8.08058 4.6637 7.84529 4.37547 7.96164 4.16531C7.98801 4.11769 8.03073 3.91607 8.2768 3.86151C8.52287 3.80694 9.50542 4.03733 10.9423 4.28642C10.9613 4.28973 10.9859 4.29396 11.0173 4.29768C11.2655 3.71259 11.5931 3.42004 12 3.42004C12.4062 3.42004 12.7317 3.71158 12.9765 4.29464L13.0577 4.28259C14.4946 4.03349 15.4771 3.80311 15.7232 3.85767C15.9693 3.91223 16.012 4.11386 16.0384 4.16148C16.1547 4.37164 15.9194 4.65987 15.5629 4.83813L13.8694 5.90773C13.602 6.08599 13.4237 6.2681 13.4237 6.62463V9.61645C13.4237 9.88385 13.6911 10.1512 14.0476 10.0621L19.8413 8.10119C20.3761 7.83379 21 8.27946 21 8.90339V9.47912C21 9.83565 20.8217 10.103 20.5543 10.2813L13.8694 13.9358C13.602 14.114 13.4237 14.3814 13.4237 14.738V18.3147C13.4237 19.4734 12.8943 20.5777 12 20.5777Z" />
</svg>