<!--character:6458-->
  <svg width="24" height="24" viewBox="0 0 24 24" >
<path d="M10.3416 6.64643C10.3585 6.6539 10.3761 6.66202 10.3943 6.67043C10.531 6.73342 10.7032 6.81285 10.8687 6.75732C11.0562 6.69436 13.6981 5.63523 13.7814 5.59L13.7835 5.58886C13.867 5.54357 13.9991 5.4719 13.8648 5.34C13.7293 5.207 9.36195 4.18066 8.7776 4.08314C8.69332 4.06907 8.62179 4.05543 8.55872 4.04339C8.18452 3.97201 8.10815 3.95745 7.43301 4.24886C7.36247 4.2793 7.29722 4.30728 7.23686 4.33317C6.62217 4.59674 6.51426 4.64301 6.49071 4.86429C6.46999 5.05897 6.70168 5.15407 7.05774 5.30022C7.14613 5.3365 7.2422 5.37593 7.34396 5.42081C7.34396 5.42081 10.1984 6.58307 10.3416 6.64643Z" />
<path d="M20.9504 5.09158C20.7409 4.5459 20.3102 4.05982 18.717 4.43654C17.1238 4.81326 7.20393 8.88994 7.20393 8.88994C7.06137 8.94131 7.02611 8.94131 6.8706 8.88994C6.8706 8.88994 5.72197 8.36312 5.41684 8.22421C5.11171 8.08529 4.62222 8.13998 4.20555 8.30665C3.78888 8.47332 3.73903 8.75365 3.85122 8.94541C3.96341 9.13718 4.06137 9.262 4.16429 9.37204C4.26721 9.48208 6.28726 11.6478 6.28726 11.6478C6.53726 11.8978 6.8706 11.9811 7.20393 11.8145L11.3113 10.2136C11.4455 10.1621 11.5302 10.2158 11.5613 10.2969C11.5736 10.3351 11.5793 10.4149 11.5109 10.5826C11.1651 11.4304 10.2036 13.8078 10.0718 14.1463C10.0562 14.1864 10.0389 14.2293 10.021 14.274C9.88767 14.6057 9.71279 15.041 9.827 15.2671C9.95661 15.5237 10.3035 15.4206 10.5279 15.3345C10.7996 15.2302 10.9616 15.1687 11.0961 15.1177C11.3064 15.0378 11.4493 14.9836 11.8385 14.8314L11.8533 14.8256C12.4786 14.581 12.6023 14.5327 12.8114 14.1215C13.0428 13.663 15.5149 8.6979 15.5149 8.6979C15.5983 8.61457 15.6222 8.59466 15.7649 8.53124C15.7649 8.53124 17.6392 7.82378 19.1851 7.21532C20.7147 6.63521 21.1598 5.63726 20.9504 5.09158Z" />
<path d="M15.1667 19.9976H2.83333C2.33333 19.9976 2 19.6643 2 19.1643C2 18.6643 2.33333 18.331 2.83333 18.331H15.1667C15.6667 18.331 16 18.6643 16 19.1643C16 19.6643 15.6667 19.9976 15.1667 19.9976Z" />
</svg>