<!--character:5323-->
  <svg width="24" height="24" viewBox="0 0 24 24" >
<path d="M12 3.42004C12.8943 3.42004 13.4237 4.52432 13.4237 5.68305V9.25981C13.4237 9.61634 13.602 9.88374 13.8694 10.062L20.5543 13.7165C20.8217 13.8947 21 14.1621 21 14.5187V15.0944C21 15.7183 20.3761 16.164 19.8413 15.8966L14.0476 13.9357C13.6911 13.8465 13.4237 14.1139 13.4237 14.3813V17.3731C13.4237 17.7297 13.602 17.9118 13.8694 18.09L15.5629 19.1596C15.9194 19.3379 16.1547 19.6261 16.0384 19.8363C16.012 19.8839 15.9693 20.0855 15.7232 20.1401C15.4771 20.1947 14.4946 19.9643 13.0577 19.7152L12.9765 19.7031C12.7317 20.2862 12.4062 20.5777 12 20.5777C11.5931 20.5777 11.2655 20.2852 11.0173 19.7001C10.9859 19.7038 10.9613 19.708 10.9423 19.7113C9.50542 19.9604 8.52287 20.1908 8.2768 20.1363C8.03073 20.0817 7.98801 19.8801 7.96164 19.8325C7.84529 19.6223 8.08058 19.3341 8.43711 19.1558L10.1306 18.0862C10.398 17.9079 10.5763 17.5514 10.5763 17.284V14.2922C10.5763 13.9357 10.2198 13.7574 9.95237 13.8465L4.15873 15.8074C3.62393 16.0748 3 15.6292 3 15.0052V14.4295C3 14.1621 3.17827 13.8056 3.44566 13.7165L10.1306 10.062C10.398 9.88374 10.5763 9.61634 10.5763 9.25981V5.59392C10.5763 4.25692 11.1057 3.42004 12 3.42004Z" />
</svg>