<!--character:5982-->
  <svg width="24" height="24" viewBox="0 0 24 24" >
<path d="M16.1407 7.33106C14.6418 8.73639 13.8554 9.47588 13.7814 9.54953C13.7683 9.56255 13.7548 9.57644 13.7407 9.59083C13.6357 9.6986 13.5034 9.8345 13.329 9.84194C13.1314 9.85037 10.2854 9.80835 10.1914 9.79599L10.1891 9.79568C10.0949 9.7833 9.9459 9.76373 10.024 9.59246C10.1028 9.41975 13.8123 6.89646 14.3229 6.596C14.3965 6.55266 14.4584 6.51429 14.513 6.48046C14.8367 6.27972 14.9028 6.23875 15.6375 6.26886C15.7143 6.272 15.7853 6.27474 15.851 6.27727C16.5193 6.30306 16.6365 6.30758 16.7378 6.50572C16.8269 6.68004 16.6447 6.85186 16.3647 7.1159C16.2951 7.18145 16.2196 7.25269 16.1407 7.33106ZM5.72909 13.2499C4.09317 13.2564 3.32 12.4843 3.32 11.8998C3.32 11.3153 3.5479 10.7071 5.17028 10.4879C6.25186 10.3417 10.3666 10.3523 17.5146 10.5196C17.6661 10.5164 17.699 10.5038 17.8258 10.4001C18.4148 9.79782 18.7877 9.41699 18.9444 9.25763C19.1795 9.01859 19.6561 8.89423 20.1048 8.90051C20.5535 8.90678 20.7005 9.15063 20.6645 9.36987C20.6285 9.5891 20.5818 9.74074 20.5251 9.88035C20.4874 9.97342 20.0986 10.9352 19.3587 12.7658C19.2149 13.0887 18.9336 13.286 18.5627 13.2499L14.1544 13.2273C14.0106 13.2273 13.9509 13.3078 13.9509 13.3947C13.9531 13.4347 13.9764 13.5113 14.1003 13.6433C14.7269 14.3109 16.4766 16.1858 16.7209 16.4545C16.75 16.4864 16.7814 16.5203 16.8142 16.5556C17.0575 16.8175 17.3767 17.1611 17.3511 17.4132C17.3221 17.6992 16.9614 17.7273 16.7209 17.7273C16.4298 17.7273 16.2565 17.7279 16.1127 17.7285C15.8878 17.7293 15.735 17.7299 15.3171 17.7273L15.3012 17.7272C14.6298 17.723 14.497 17.7221 14.1544 17.4132C13.9009 17.1831 12.4117 15.8183 9.68681 13.3187C9.57915 13.2708 9.54964 13.2608 9.39369 13.2527C8.05812 13.2602 6.83659 13.2592 5.72909 13.2499Z" />
</svg>