<!--character:8718-->
  <svg width="20" height="20" viewBox="0 0 20 20" >
<path d="M9.10556 6.3428C9.11463 6.35522 9.12395 6.36842 9.13362 6.3821C9.20597 6.48448 9.29722 6.61359 9.43974 6.64244C9.60131 6.67515 11.9492 7.01157 12.0282 7.01365L12.0302 7.0137C12.1093 7.01579 12.2345 7.0191 12.1925 6.86795C12.1502 6.71553 9.42597 4.1551 9.04488 3.84124C8.98992 3.79597 8.94398 3.75632 8.90348 3.72136C8.66316 3.51392 8.61412 3.47159 8.00546 3.40059L7.82869 3.37969C7.27525 3.31379 7.17818 3.30223 7.06898 3.45211C6.97291 3.58398 7.10049 3.74915 7.29656 4.00298C7.34523 4.06599 7.39814 4.13448 7.45288 4.20927C7.45288 4.20927 9.0286 6.2374 9.10556 6.3428Z" />
<path d="M17.4096 9.641C17.4858 9.15991 17.3775 8.62966 16.0708 8.2377C14.764 7.84574 5.90635 6.65455 5.90635 6.65455C5.78206 6.63222 5.75662 6.61753 5.66579 6.51566C5.66579 6.51566 5.05634 5.65687 4.89401 5.42948C4.73169 5.20208 4.35564 5.0376 3.98549 4.98427C3.61534 4.93094 3.46257 5.11248 3.46363 5.29762C3.46469 5.48276 3.48337 5.61366 3.5118 5.73596C3.54023 5.85825 4.09569 8.26292 4.09569 8.26292C4.17195 8.54751 4.37779 8.74654 4.6878 8.76514L8.31905 9.32121C8.43741 9.33996 8.47608 9.41403 8.46475 9.48552C8.45773 9.51817 8.42856 9.57817 8.30936 9.67068C7.70657 10.1385 6.02203 11.4536 5.78592 11.6429C5.75789 11.6654 5.72763 11.6891 5.69604 11.7139C5.46158 11.8978 5.15404 12.139 5.14224 12.3498C5.12885 12.589 5.42212 12.6591 5.62 12.6905C5.85957 12.7284 6.00215 12.7516 6.12046 12.7708C6.30547 12.8008 6.43116 12.8212 6.7755 12.8735L6.78855 12.8755C7.34175 12.9595 7.45114 12.9762 7.77337 12.7665C8.13138 12.532 11.9843 9.97888 11.9843 9.97888C12.0792 9.95346 12.1048 9.94907 12.2342 9.96276C12.2342 9.96276 13.8816 10.2332 15.2508 10.4382C16.5964 10.6568 17.3334 10.1221 17.4096 9.641Z" />
<path d="M17.6388 16.6639H7.36104C6.94438 16.6639 6.6666 16.3861 6.6666 15.9694C6.6666 15.5528 6.94438 15.275 7.36104 15.275H17.6388C18.0555 15.275 18.3333 15.5528 18.3333 15.9694C18.3333 16.3861 18.0555 16.6639 17.6388 16.6639Z" />
</svg>