<!--category:transportation-->
<!--character:E159-->
<!--added:0.26-->
<svg width="24" height="24" viewBox="0 0 24 24" xmlns="http://www.w3.org/2000/svg"><path d="M13.7814 9.5495c-.111.1105-.2547.284-.4524.2924-.1976.0085-3.0436-.0335-3.1376-.046-.094-.0123-.2462-.0307-.1674-.2034.0788-.1727 3.7883-2.696 4.2989-2.9965.5106-.3005.456-.3623 1.3147-.3271.8585.0351.989.0192 1.1002.2368.1113.2176-.2003.4313-.5971.8254-1.4989 1.4053-2.2853 2.1448-2.3593 2.2184zM3.32 11.8998c0-.5845.2279-1.1927 1.8503-1.412 1.0816-.146 5.1964-.1355 12.3443.0318.1515-.0032.1844-.0158.3112-.1195.589-.6023.962-.9831 1.1186-1.1425.2351-.239.7117-.3634 1.1604-.357.4487.0062.5957.25.5597.4693-.036.2192-.0827.3708-.1394.5104l-1.1664 2.8855c-.1438.323-.425.5202-.796.484l-4.4083-.0225c-.1438 0-.2035.0805-.2035.1674.0022.04.0255.1166.1494.2486.6266.6676 2.3763 2.5425 2.6206 2.8112.2443.2688.6593.6727.6302.9587-.029.286-.3897.314-.6302.314-.7462 0-.7186.0044-1.4038 0-.6853-.0043-.8174-.0027-1.1627-.314-.2535-.2301-1.7427-1.595-4.4676-4.0945-.1076-.048-.1372-.058-.2931-.066a262.3904 262.3904 0 0 1-3.6646-.0028c-1.636.0065-2.4091-.7656-2.4091-1.3501z"/></svg>