<!-- character:0:1075 -->
  <svg width="20" height="20" viewBox="0 0 20 20" >
<path   d="M18.1316 1.87395C17.8632 1.60541 17.4279 1.60532 17.1593 1.87375L11.1946 7.83472C11.1892 7.79671 11.1864 7.75729 11.1864 7.71646V4.73583C11.1864 3.77022 10.7452 2.84999 9.99999 2.84999C9.25475 2.84999 8.81358 3.54739 8.81358 4.66155V7.71646C8.81358 8.01357 8.66502 8.23641 8.44219 8.38496L2.87138 11.4303C2.64855 11.5046 2.49999 11.8017 2.49999 12.0246V12.5043C2.49999 13.0243 3.01994 13.3957 3.4656 13.1728L7.07794 11.9492L1.87357 17.1533C1.60503 17.4217 1.60494 17.857 1.87337 18.1256C2.1418 18.3941 2.5771 18.3942 2.84564 18.1258L18.1314 2.84622C18.3999 2.57779 18.4 2.14249 18.1316 1.87395ZM17.1286 11.4303L13.1 9.22749L8.81333 13.5125L8.81358 14.4033C8.81358 14.6261 8.66502 14.9232 8.44219 15.0718L7.03092 15.9631C6.73381 16.1117 6.53773 16.3519 6.6347 16.527C6.63799 16.5329 6.64159 16.5418 6.64602 16.5526C6.67115 16.6143 6.723 16.7415 6.89733 16.7802C7.03831 16.8114 7.46938 16.7305 8.11412 16.6093C8.40718 16.5543 8.74439 16.4909 9.11856 16.4261C9.13445 16.4233 9.15488 16.4198 9.18112 16.4167C9.38793 16.9043 9.66089 17.1481 10 17.1481C10.3385 17.1481 10.6098 16.9051 10.8138 16.4192L10.8814 16.4293C11.2556 16.4941 11.5928 16.5575 11.8859 16.6125C12.5306 16.7337 12.9617 16.8146 13.1027 16.7834C13.277 16.7447 13.3288 16.6175 13.354 16.5558C13.3584 16.545 13.362 16.5361 13.3653 16.5302C13.4623 16.3551 13.2662 16.1149 12.9691 15.9663L11.5578 15.075C11.335 14.9264 11.1864 14.7747 11.1864 14.4776V11.9844C11.1864 11.7616 11.4092 11.5387 11.7064 11.613L16.5344 13.2471C16.9801 13.4699 17.5 13.0985 17.5 12.5786V12.0988C17.5 11.8017 17.3514 11.5789 17.1286 11.4303Z" />
</svg>