<!--character:4763-->
  <svg width="24" height="24" viewBox="0 0 24 24" >
<path d="M4.8439 2C4.3779 2 3.9999 2.377 3.9999 2.843V21.154C3.9999 21.621 4.3789 22 4.8469 22H5.1449C5.6169 22 5.9999 21.617 5.9999 21.145V5.842C5.9999 5.377 6.3769 5.001 6.8419 5.001H17.1429C17.6169 5.001 17.9999 5.384 17.9999 5.856V21.158C17.9999 21.624 18.3769 22 18.8409 22H19.1459C19.6169 22 19.9999 21.617 19.9999 21.146V2.854C19.9999 2.382 19.6179 2 19.1459 2H4.8439ZM13.4999 4C13.2238 4 12.9999 3.77614 12.9999 3.5C12.9999 3.22385 13.2238 3 13.4999 3C13.776 3 13.9999 3.22385 13.9999 3.5C13.9999 3.77614 13.776 4 13.4999 4ZM10.4999 4C10.2238 4 9.9999 3.77614 9.9999 3.5C9.9999 3.22385 10.2238 3 10.4999 3C10.776 3 10.9999 3.22385 10.9999 3.5C10.9999 3.77614 10.776 4 10.4999 4Z" />
<path d="M11.9932 9.84666C13.1438 9.84666 14.0766 8.91392 14.0766 7.76332C14.0766 6.61273 13.1438 5.67999 11.9932 5.67999C10.8426 5.67999 9.90991 6.61273 9.90991 7.76332C9.90991 8.91392 10.8426 9.84666 11.9932 9.84666Z" />
<path d="M10.3266 10.25H13.6599C14.5766 10.25 15.3266 11 15.3266 12V15.1667C15.3266 15.6667 14.9932 16 14.4932 16H13.8266C13.7432 16 13.6599 16.0833 13.6599 16.1667V21.1667C13.6599 21.6667 13.3266 22 12.8266 22H11.1599C10.6599 22 10.3266 21.6667 10.3266 21.1667V16.0833C10.3266 16 10.2432 15.9167 10.1599 15.9167H9.49324C8.99324 15.9167 8.65991 15.5833 8.65991 15.0833V11.9167C8.65991 11 9.40991 10.25 10.3266 10.25Z" />
</svg>