<!--description:Use in trip timeline-->
<!--category:travel-->
<!--character:E035-->
<!--added:0.11-->
<svg width="24" height="24" viewBox="0 0 24 24" xmlns="http://www.w3.org/2000/svg"><path d="M4.844 2C4.378 2 4 2.377 4 2.843v18.311c0 .467.379.846.847.846h.298c.472 0 .855-.383.855-.855V5.842c0-.465.377-.841.842-.841h10.301c.474 0 .857.383.857.855v15.302c0 .466.377.842.841.842h.305c.471 0 .854-.383.854-.854V2.854c0-.472-.382-.854-.854-.854H4.844zM13.5 4a.5.5 0 1 0 0-1 .5.5 0 0 0 0 1zm-3 0a.5.5 0 1 1 0-1 .5.5 0 0 1 0 1zm1.4933 5.8467c-1.1506 0-2.0833-.9328-2.0833-2.0834 0-1.1506.9327-2.0833 2.0833-2.0833 1.1506 0 2.0834.9327 2.0834 2.0833 0 1.1506-.9328 2.0834-2.0834 2.0834zm1.6667.4033c.9167 0 1.6667.75 1.6667 1.75v3.1667c0 .5-.3334.8333-.8334.8333h-.6666c-.0834 0-.1667.0833-.1667.1667v5c0 .5-.3333.8333-.8333.8333H11.16c-.5 0-.8333-.3333-.8333-.8333v-5.0834c0-.0833-.0834-.1666-.1667-.1666h-.6667c-.5 0-.8333-.3334-.8333-.8334v-3.1666c0-.9167.75-1.6667 1.6667-1.6667H13.66z"/></svg>