<!--description:Use for departure date-->
<!--category:travel-->
<!--character:002a-->
<svg xmlns="http://www.w3.org/2000/svg" width="24" height="24" viewBox="0 0 24 24"><path d="M15.1667 18.331c.5 0 .8333.3333.8333.8333s-.3333.8333-.8333.8333H2.8333c-.5 0-.8333-.3333-.8333-.8333s.3333-.8333.8333-.8333zm5.7837-13.2394c.2094.5457-.2357 1.5436-1.7653 2.1237a262.3891 262.3891 0 0 1-3.4202 1.316c-.1427.0634-.1666.0833-.25.1666-1.648 3.31-2.5493 5.118-2.7035 5.4236-.2108.4144-.3347.4603-.9729.7099-.6381.2496-.614.2356-1.3106.503-.2244.0862-.5713.1893-.7009-.0673-.1296-.2566.113-.7824.2448-1.1208.1318-.3385 1.0933-2.7159 1.439-3.5637.0685-.1677.0628-.2475.0505-.2857-.026-.0675-.089-.1162-.187-.1007l-.063.0174-4.1074 1.6009c-.3333.1666-.6666.0833-.9166-.1667a9602.9028 9602.9028 0 0 0-2.123-2.2758c-.103-.11-.2009-.2348-.313-.4266-.1123-.1918-.0624-.472.3542-.6388.4167-.1666.9062-.2213 1.2113-.0824.2035.0926.688.3145 1.4538.6657.1555.0514.1908.0514.3333 0 6.6133-2.7178 10.451-4.2022 11.5131-4.4534 1.5932-.3767 2.024.1094 2.2334.655zM8.7776 4.083c.5844.0976 4.9517 1.1239 5.0872 1.2569.1354.133 0 .2048-.0834.25-.0833.0452-2.7252 1.1044-2.9127 1.1673-.1875.063-.3839-.0475-.5271-.1109-.0955-.0422-1.0947-.4507-2.9976-1.2256-.5117-.2256-.8792-.3135-.8533-.5565.0259-.243.1534-.275.9423-.6154.789-.3406.7602-.2633 1.3446-.1658z"/></svg>
