<!--character:5765-->
  <svg width="24" height="24" viewBox="0 0 24 24" >
<path d="M10.9267 7.61136C10.9376 7.62627 10.9487 7.64211 10.9603 7.65852C11.0472 7.78138 11.1567 7.93631 11.3277 7.97093C11.5216 8.01017 14.3391 8.41389 14.4339 8.41638L14.4362 8.41644C14.5312 8.41895 14.6814 8.42292 14.631 8.24154C14.5802 8.05864 11.3112 4.98611 10.8539 4.60948C10.7879 4.55516 10.7328 4.50758 10.6842 4.46563C10.3958 4.21671 10.3369 4.16591 9.60655 4.08071L9.39442 4.05563C8.7303 3.97655 8.61381 3.96268 8.48278 4.14253C8.36749 4.30077 8.52059 4.49898 8.75587 4.80357C8.81428 4.87919 8.87776 4.96138 8.94345 5.05113C8.94345 5.05113 10.8343 7.48488 10.9267 7.61136Z" />
<path d="M20.8916 11.5692C20.983 10.9919 20.853 10.3556 19.2849 9.88524C17.7168 9.41489 7.08762 7.98546 7.08762 7.98546C6.93847 7.95866 6.90794 7.94103 6.79894 7.81879C6.79894 7.81879 6.06761 6.78824 5.87282 6.51537C5.67802 6.2425 5.22677 6.04512 4.78259 5.98112C4.33841 5.91713 4.15508 6.13498 4.15635 6.35715C4.15763 6.57932 4.18005 6.73639 4.21417 6.88315C4.24828 7.0299 4.91483 9.9155 4.91483 9.9155C5.00634 10.257 5.25335 10.4958 5.62536 10.5182L9.98286 11.1855C10.1249 11.208 10.1713 11.2968 10.1577 11.3826C10.1493 11.4218 10.1143 11.4938 9.97124 11.6048C9.24789 12.1662 7.22643 13.7443 6.9431 13.9715C6.90947 13.9985 6.87315 14.027 6.83525 14.0567C6.5539 14.2774 6.18485 14.5668 6.17069 14.8198C6.15462 15.1068 6.50655 15.191 6.744 15.2286C7.03148 15.2741 7.20258 15.3019 7.34456 15.3249C7.56657 15.3609 7.71739 15.3854 8.1306 15.4482L8.14626 15.4506C8.81011 15.5514 8.94136 15.5714 9.32804 15.3198C9.75766 15.0385 14.3812 11.9747 14.3812 11.9747C14.495 11.9441 14.5257 11.9389 14.681 11.9553C14.681 11.9553 16.658 12.2798 18.3009 12.5258C19.9157 12.7882 20.8001 12.1465 20.8916 11.5692Z" />
<path d="M21.1666 19.9967H8.83325C8.33325 19.9967 7.99992 19.6633 7.99992 19.1633C7.99992 18.6633 8.33325 18.33 8.83325 18.33H21.1666C21.6666 18.33 21.9999 18.6633 21.9999 19.1633C21.9999 19.6633 21.6666 19.9967 21.1666 19.9967Z" />
</svg>