<!-- character:0:1031 -->
  <svg width="20" height="20" viewBox="0 0 20 20" >
<path   d="M8.66192 5.55873L8.66194 5.55873C8.77579 5.61123 8.91936 5.67742 9.05722 5.63114C9.21349 5.57868 11.4151 4.69607 11.4845 4.65837L11.4863 4.65743C11.5558 4.61968 11.6659 4.55995 11.554 4.45004C11.4411 4.3392 7.80162 3.48392 7.31466 3.40265C7.24442 3.39093 7.18482 3.37956 7.13226 3.36954C6.82042 3.31005 6.75678 3.29791 6.19417 3.54075L6.03063 3.61104C5.51839 3.83069 5.42854 3.86921 5.40891 4.05361C5.39165 4.21585 5.58473 4.2951 5.88144 4.41689L5.88145 4.41689C5.95511 4.44713 6.03516 4.47998 6.11996 4.51738C6.11996 4.51738 8.49864 5.48593 8.61799 5.53874C8.63205 5.54496 8.64672 5.55172 8.66192 5.55873ZM17.4586 4.24302C17.2841 3.78828 16.9252 3.38322 15.5975 3.69715C14.2698 4.01108 6.00327 7.40832 6.00327 7.40832C5.88446 7.45112 5.85508 7.45112 5.72549 7.40832C5.72549 7.40832 4.7683 6.9693 4.51402 6.85354C4.25975 6.73778 3.85184 6.78335 3.50461 6.92224C3.15739 7.06113 3.11585 7.29474 3.20934 7.45455C3.30284 7.61435 3.38446 7.71837 3.47023 7.81007C3.556 7.90176 5.23938 9.70654 5.23938 9.70654C5.44771 9.91487 5.72549 9.98431 6.00327 9.84543L9.42606 8.51137C9.53794 8.46842 9.60846 8.51324 9.63439 8.58081C9.64463 8.6126 9.64938 8.67914 9.5924 8.81886C9.30428 9.52539 8.50296 11.5066 8.39315 11.7886C8.38011 11.8221 8.36577 11.8578 8.3508 11.895C8.2397 12.1715 8.09398 12.5342 8.18916 12.7226C8.29716 12.9365 8.5862 12.8506 8.77325 12.7788C8.9997 12.6918 9.13476 12.6406 9.24682 12.598L9.24688 12.598C9.42208 12.5315 9.54111 12.4864 9.86544 12.3595L9.87773 12.3547C10.3989 12.1509 10.5019 12.1106 10.6761 11.768C10.869 11.3859 12.9291 7.24829 12.9291 7.24829C12.9985 7.17884 13.0185 7.16225 13.1374 7.1094C13.1374 7.1094 14.6994 6.51985 15.9876 6.0128C17.2623 5.52938 17.6332 4.69775 17.4586 4.24302ZM12.6389 16.6647H2.3611C1.94443 16.6647 1.66666 16.387 1.66666 15.9703C1.66666 15.5536 1.94443 15.2759 2.3611 15.2759H12.6389C13.0555 15.2759 13.3333 15.5536 13.3333 15.9703C13.3333 16.387 13.0555 16.6647 12.6389 16.6647Z" />
</svg>