<!--character:7958-->
  <svg width="20" height="20" viewBox="0 0 20 20" >
<path d="M10 17.1481C9.25476 17.1481 8.81358 16.4507 8.81358 15.3365V12.2816C8.81358 11.9845 8.66503 11.7617 8.44219 11.6131L2.87139 8.56772C2.64855 8.49344 2.5 8.19633 2.5 7.9735V7.49373C2.5 6.97379 3.01994 6.6024 3.46561 6.82523L8.29364 8.45934C8.51647 8.53361 8.81358 8.38506 8.81358 8.08795V5.59476C8.81358 5.37193 8.66503 5.07482 8.44219 4.92626L7.03092 4.03494C6.73381 3.88638 6.53774 3.64619 6.6347 3.47106C6.65668 3.43137 6.69228 3.26335 6.89734 3.21788C7.10239 3.17242 7.92119 3.3644 9.11856 3.57198C9.13446 3.57474 9.15489 3.57826 9.18112 3.58136C9.38793 3.09379 9.66089 2.85 10 2.85C10.3385 2.85 10.6098 3.09294 10.8138 3.57883L10.8814 3.56878C12.0788 3.36121 12.8976 3.16922 13.1027 3.21469C13.3077 3.26015 13.3433 3.42818 13.3653 3.46786C13.4623 3.64299 13.2662 3.88318 12.9691 4.03174L11.5578 4.92307C11.335 5.07162 11.1864 5.22337 11.1864 5.52048V8.01367C11.1864 8.23651 11.4092 8.45934 11.7064 8.38506L16.5344 6.75096C16.9801 6.52812 17.5 6.89951 17.5 7.41945V7.89923C17.5 8.19634 17.3514 8.41917 17.1286 8.56772L11.5578 11.6131C11.335 11.7617 11.1864 11.9845 11.1864 12.2816V15.2622C11.1864 16.2278 10.7452 17.1481 10 17.1481Z" />
</svg>