<!--character:$550:2655-->
  <svg width="24" height="24" viewBox="0 0 24 24" >
<path d="M21.7579 2.24871C21.4358 1.92647 20.9135 1.92636 20.5912 2.24848L13.4336 9.40164C13.4271 9.35602 13.4237 9.30872 13.4237 9.25973V5.68297C13.4237 4.52424 12.8943 3.41996 12 3.41996C11.1057 3.41996 10.5763 4.25684 10.5763 5.59384V9.25973C10.5763 9.61626 10.398 9.88366 10.1306 10.0619L3.44568 13.7164C3.17828 13.8055 3.00001 14.162 3.00001 14.4294V15.0052C3.00001 15.6291 3.62395 16.0748 4.15874 15.8074L8.49355 14.339L2.2483 20.5839C1.92605 20.9061 1.92595 21.4284 2.24806 21.7507C2.57018 22.0729 3.09254 22.073 3.41479 21.7509L21.7577 3.41544C22.0799 3.09332 22.08 2.57096 21.7579 2.24871ZM20.5543 13.7164L15.72 11.073L10.576 16.215L10.5763 17.2839C10.5763 17.5513 10.398 17.9079 10.1306 18.0861L8.43711 19.1557C8.08058 19.334 7.84529 19.6222 7.96165 19.8324C7.9656 19.8395 7.96992 19.8501 7.97523 19.8631C8.00539 19.9371 8.06761 20.0898 8.2768 20.1362C8.44598 20.1737 8.96326 20.0765 9.73694 19.9312C10.0886 19.8651 10.4933 19.7891 10.9423 19.7113C10.9614 19.708 10.9859 19.7037 11.0173 19.7C11.2655 20.2851 11.5931 20.5776 12 20.5776C12.4062 20.5776 12.7317 20.2861 12.9765 19.703L13.0577 19.7151C13.5067 19.7929 13.9114 19.869 14.2631 19.935C15.0367 20.0804 15.554 20.1775 15.7232 20.14C15.9324 20.0936 15.9946 19.941 16.0248 19.867C16.0301 19.8539 16.0344 19.8433 16.0384 19.8362C16.1547 19.626 15.9194 19.3378 15.5629 19.1596L13.8694 18.09C13.602 17.9117 13.4237 17.7296 13.4237 17.3731V14.3812C13.4237 14.1138 13.6911 13.8464 14.0476 13.9356L19.8413 15.8965C20.3761 16.1639 21 15.7182 21 15.0943V14.5186C21 14.162 20.8217 13.8946 20.5543 13.7164Z" />
</svg>