<!--character:9310-->
  <svg width="24" height="24" viewBox="0 0 24 24" >
<path d="M21.7579 2.24875C21.4358 1.9265 20.9134 1.92639 20.5912 2.24851L13.4336 9.40168C13.4271 9.35606 13.4237 9.30875 13.4237 9.25977V5.683C13.4237 4.52428 12.8943 3.42 12 3.42C11.1057 3.42 10.5763 4.25688 10.5763 5.59387V9.25977C10.5763 9.6163 10.398 9.8837 10.1306 10.062L3.44568 13.7164C3.17828 13.8055 3.00001 14.1621 3.00001 14.4295V15.0052C3.00001 15.6291 3.62394 16.0748 4.15874 15.8074L8.49354 14.339L2.2483 20.584C1.92605 20.9061 1.92594 21.4285 2.24806 21.7507C2.57018 22.073 3.09254 22.0731 3.41479 21.7509L21.7577 3.41547C22.0799 3.09336 22.08 2.57099 21.7579 2.24875ZM20.5543 13.7164L15.72 11.073L10.576 16.215L10.5763 17.284C10.5763 17.5514 10.398 17.9079 10.1306 18.0862L8.43712 19.1558C8.08059 19.334 7.8453 19.6223 7.96166 19.8324C7.96561 19.8395 7.96993 19.8501 7.97524 19.8632C8.00539 19.9372 8.06762 20.0898 8.27681 20.1362C8.44599 20.1737 8.96327 20.0766 9.73697 19.9312C10.0886 19.8652 10.4933 19.7891 10.9423 19.7113C10.9614 19.708 10.9859 19.7038 11.0174 19.7C11.2655 20.2851 11.5931 20.5777 12 20.5777C12.4062 20.5777 12.7317 20.2862 12.9765 19.7031L13.0577 19.7151C13.5067 19.793 13.9114 19.869 14.263 19.9351C15.0367 20.0804 15.554 20.1776 15.7232 20.1401C15.9324 20.0937 15.9946 19.941 16.0248 19.867C16.0301 19.854 16.0344 19.8434 16.0384 19.8362C16.1547 19.6261 15.9194 19.3379 15.5629 19.1596L13.8694 18.09C13.602 17.9117 13.4237 17.7296 13.4237 17.3731V14.3813C13.4237 14.1139 13.6911 13.8465 14.0476 13.9356L19.8413 15.8965C20.3761 16.1639 21 15.7183 21 15.0943V14.5186C21 14.1621 20.8217 13.8947 20.5543 13.7164Z" />
</svg>