<!--character:$550:2781-->
  <svg width="24" height="24" viewBox="0 0 24 24" >
<path d="M7.84908 7.33107C9.34795 8.73639 10.1344 9.47589 10.2084 9.54954C10.2215 9.56256 10.235 9.57645 10.249 9.59084C10.354 9.69861 10.4864 9.83451 10.6607 9.84195C10.8584 9.85038 13.7043 9.80836 13.7983 9.796L13.8007 9.79569C13.8949 9.78331 14.0439 9.76374 13.9657 9.59247C13.887 9.41976 10.1775 6.89646 9.66688 6.59601C9.59323 6.55267 9.53135 6.5143 9.47678 6.48047C9.15301 6.27972 9.08694 6.23876 8.3522 6.26886C8.2754 6.27201 8.20443 6.27475 8.13877 6.27728C7.47045 6.30306 7.35323 6.30759 7.25194 6.50573C7.16283 6.68005 7.34505 6.85187 7.62508 7.11591C7.69461 7.18146 7.77016 7.2527 7.84908 7.33107ZM18.2607 13.2499C19.8966 13.2565 20.6697 12.4843 20.6697 11.8998C20.6697 11.3153 20.4418 10.7071 18.8195 10.4879C17.7379 10.3417 13.6231 10.3523 6.47512 10.5196C6.32361 10.5164 6.2907 10.5038 6.16392 10.4001C5.57489 9.79782 5.20202 9.41699 5.0453 9.25763C4.81022 9.01859 4.33364 8.89423 3.88492 8.90051C3.4362 8.90679 3.2892 9.15063 3.32521 9.36987C3.36123 9.58911 3.40795 9.74074 3.4646 9.88035C3.50237 9.97343 3.89117 10.9352 4.63101 12.7658C4.77481 13.0888 5.05614 13.286 5.42706 13.2499L9.83531 13.2273C9.97911 13.2273 10.0388 13.3078 10.0388 13.3947C10.0366 13.4347 10.0133 13.5113 9.88942 13.6433C9.2628 14.3109 7.5131 16.1858 7.2688 16.4545C7.23979 16.4864 7.20837 16.5203 7.17557 16.5556C6.93221 16.8175 6.61301 17.1611 6.6386 17.4132C6.66763 17.6992 7.02839 17.7273 7.2688 17.7273C7.55993 17.7273 7.73328 17.7279 7.87712 17.7285C8.102 17.7293 8.25478 17.7299 8.67269 17.7273L8.68852 17.7272C9.35998 17.723 9.49274 17.7221 9.83531 17.4132C10.0888 17.1831 11.5781 15.8183 14.3029 13.3187C14.4106 13.2708 14.4401 13.2608 14.596 13.2527C15.9316 13.2602 17.1532 13.2592 18.2607 13.2499Z" />
</svg>