<!--character:251:550:2604-->
  <svg width="24" height="24" viewBox="0 0 24 24" >
<path   d="M4.844 2C4.378 2 4 2.377 4 2.843V21.154C4 21.621 4.379 22 4.847 22H5.145C5.617 22 6 21.617 6 21.145V5.842C6 5.377 6.377 5.001 6.842 5.001H17.143C17.617 5.001 18 5.384 18 5.856V21.158C18 21.624 18.377 22 18.841 22H19.146C19.617 22 20 21.617 20 21.146V2.854C20 2.382 19.618 2 19.146 2H4.844ZM13.5 4C13.7761 4 14 3.77614 14 3.5C14 3.22386 13.7761 3 13.5 3C13.2239 3 13 3.22386 13 3.5C13 3.77614 13.2239 4 13.5 4ZM10.5 4C10.7761 4 11 3.77614 11 3.5C11 3.22386 10.7761 3 10.5 3C10.2239 3 10 3.22386 10 3.5C10 3.77614 10.2239 4 10.5 4ZM11.9933 9.84666C13.1439 9.84666 14.0767 8.91392 14.0767 7.76333C14.0767 6.61273 13.1439 5.67999 11.9933 5.67999C10.8428 5.67999 9.91001 6.61273 9.91001 7.76333C9.91001 8.91392 10.8428 9.84666 11.9933 9.84666ZM10.3267 10.25H13.66C14.5767 10.25 15.3267 11 15.3267 12V15.1667C15.3267 15.6667 14.9933 16 14.4933 16H13.8267C13.7433 16 13.66 16.0833 13.66 16.1667V21.1667C13.66 21.6667 13.3267 22 12.8267 22H11.16C10.66 22 10.3267 21.6667 10.3267 21.1667V16.0833C10.3267 16 10.2433 15.9167 10.16 15.9167H9.49334C8.99334 15.9167 8.66001 15.5833 8.66001 15.0833V11.9167C8.66001 11 9.41001 10.25 10.3267 10.25Z" />
</svg>