<!--character:252:550:2621-->
  <svg width="24" height="24" viewBox="0 0 24 24" >
<path   d="M16.1407 7.33107C14.6418 8.73639 13.8554 9.47589 13.7814 9.54954C13.7683 9.56256 13.7547 9.57645 13.7407 9.59084C13.6357 9.69861 13.5034 9.83451 13.329 9.84195C13.1314 9.85038 10.2854 9.80836 10.1914 9.796L10.189 9.79569C10.0949 9.78331 9.94589 9.76374 10.024 9.59247C10.1028 9.41976 13.8123 6.89646 14.3229 6.59601C14.3965 6.55267 14.4584 6.5143 14.513 6.48047C14.8367 6.27972 14.9028 6.23876 15.6375 6.26886C15.7143 6.27201 15.7853 6.27475 15.851 6.27728C16.5193 6.30306 16.6365 6.30759 16.7378 6.50573C16.8269 6.68005 16.6447 6.85187 16.3647 7.11591C16.2951 7.18146 16.2196 7.2527 16.1407 7.33107ZM5.72909 13.2499C4.09318 13.2565 3.32 12.4843 3.32 11.8998C3.32 11.3153 3.54791 10.7071 5.17028 10.4879C6.25187 10.3417 10.3667 10.3523 17.5146 10.5196C17.6661 10.5164 17.699 10.5038 17.8258 10.4001C18.4149 9.79782 18.7877 9.41699 18.9444 9.25763C19.1795 9.01859 19.6561 8.89423 20.1048 8.90051C20.5535 8.90679 20.7005 9.15063 20.6645 9.36987C20.6285 9.58911 20.5818 9.74074 20.5251 9.88035C20.4874 9.97343 20.0986 10.9352 19.3587 12.7658C19.2149 13.0888 18.9336 13.286 18.5627 13.2499L14.1544 13.2273C14.0106 13.2273 13.9509 13.3078 13.9509 13.3947C13.9531 13.4347 13.9764 13.5113 14.1003 13.6433C14.7269 14.3109 16.4766 16.1858 16.7209 16.4545C16.75 16.4864 16.7814 16.5203 16.8142 16.5556C17.0575 16.8175 17.3767 17.1611 17.3511 17.4132C17.3221 17.6992 16.9614 17.7273 16.7209 17.7273C16.4298 17.7273 16.2565 17.7279 16.1126 17.7285C15.8877 17.7293 15.735 17.7299 15.3171 17.7273L15.3012 17.7272C14.6298 17.723 14.497 17.7221 14.1544 17.4132C13.9009 17.1831 12.4117 15.8183 9.68682 13.3187C9.57916 13.2708 9.54965 13.2608 9.3937 13.2527C8.05813 13.2602 6.83659 13.2592 5.72909 13.2499Z" />
</svg>