<!--character:6603-->
  <svg width="20" height="20" viewBox="0 0 20 20" >
<path d="M18.1316 1.87396C17.8632 1.60542 17.4279 1.60533 17.1593 1.87376L11.1946 7.83473C11.1892 7.79671 11.1864 7.75729 11.1864 7.71647V4.73584C11.1864 3.77023 10.7453 2.85 10 2.85C9.25476 2.85 8.81359 3.5474 8.81359 4.66156V7.71647C8.81359 8.01358 8.66504 8.23641 8.4422 8.38497L2.8714 11.4303C2.64856 11.5046 2.50001 11.8017 2.50001 12.0246V12.5043C2.50001 13.0243 3.01995 13.3957 3.46562 13.1728L7.07795 11.9492L1.87358 17.1533C1.60504 17.4217 1.60495 17.857 1.87338 18.1256C2.14182 18.3941 2.57712 18.3942 2.84566 18.1258L18.1314 2.84623C18.4 2.5778 18.4 2.1425 18.1316 1.87396ZM17.1286 11.4303L13.1 9.2275L8.81334 13.5125L8.81359 14.4033C8.81359 14.6261 8.66504 14.9232 8.4422 15.0718L7.03093 15.9631C6.73382 16.1117 6.53775 16.3519 6.63471 16.527C6.63801 16.533 6.64161 16.5418 6.64604 16.5527C6.67116 16.6143 6.72302 16.7415 6.89735 16.7802C7.03832 16.8114 7.46939 16.7305 8.11414 16.6093C8.4072 16.5543 8.7444 16.491 9.11857 16.4261C9.13447 16.4233 9.1549 16.4198 9.18113 16.4167C9.38794 16.9043 9.6609 17.1481 10 17.1481C10.3385 17.1481 10.6098 16.9051 10.8138 16.4192L10.8814 16.4293C11.2556 16.4941 11.5928 16.5575 11.8859 16.6125C12.5306 16.7337 12.9617 16.8146 13.1027 16.7834C13.277 16.7447 13.3289 16.6175 13.354 16.5559C13.3584 16.545 13.362 16.5362 13.3653 16.5302C13.4623 16.3551 13.2662 16.1149 12.9691 15.9663L11.5578 15.075C11.335 14.9264 11.1864 14.7747 11.1864 14.4776V11.9844C11.1864 11.7616 11.4093 11.5387 11.7064 11.613L16.5344 13.2471C16.9801 13.4699 17.5 13.0986 17.5 12.5786V12.0988C17.5 11.8017 17.3515 11.5789 17.1286 11.4303Z" />
</svg>