<!--character:8093-->
  <svg width="20" height="20" viewBox="0 0 20 20" >
<path d="M8.66201 5.55869C8.77587 5.61118 8.91945 5.67738 9.05731 5.6311C9.21358 5.57864 11.4152 4.69603 11.4846 4.65834L11.4863 4.65739C11.5559 4.61964 11.666 4.55992 11.554 4.45C11.4412 4.33917 7.80171 3.48388 7.31475 3.40262C7.24451 3.39089 7.18491 3.37952 7.13235 3.3695C6.82051 3.31001 6.75688 3.29787 6.19426 3.54072L6.03072 3.61101C5.51848 3.83065 5.42863 3.86918 5.40901 4.05357C5.39174 4.21581 5.58482 4.29506 5.88153 4.41685C5.95519 4.44708 6.03525 4.47995 6.12005 4.51734C6.12005 4.51734 8.49873 5.48589 8.61808 5.5387C8.63214 5.54492 8.64681 5.55168 8.66201 5.55869Z" />
<path d="M17.4587 4.24298C17.2842 3.78824 16.9253 3.38318 15.5976 3.69711C14.2699 4.01104 6.00336 7.40828 6.00336 7.40828C5.88455 7.45109 5.85518 7.45109 5.72558 7.40828C5.72558 7.40828 4.76839 6.96927 4.51411 6.8535C4.25984 6.73774 3.85193 6.78332 3.5047 6.92221C3.15748 7.06109 3.11594 7.2947 3.20943 7.45451C3.30293 7.61432 3.38455 7.71833 3.47032 7.81003C3.55609 7.90173 5.23947 9.7065 5.23947 9.7065C5.4478 9.91483 5.72558 9.98428 6.00336 9.84539L9.42615 8.51133C9.53803 8.46838 9.60855 8.5132 9.63449 8.58077C9.64472 8.61256 9.64947 8.6791 9.59249 8.81882C9.30437 9.52536 8.50305 11.5065 8.39325 11.7885C8.3802 11.822 8.36586 11.8577 8.35089 11.895C8.23979 12.1715 8.09407 12.5341 8.18925 12.7226C8.29726 12.9364 8.5863 12.8505 8.77334 12.7787C8.99979 12.6918 9.13485 12.6405 9.24691 12.598C9.42212 12.5315 9.5412 12.4863 9.86553 12.3595L9.87782 12.3547C10.3989 12.1509 10.502 12.1106 10.6762 11.7679C10.869 11.3858 12.9292 7.24825 12.9292 7.24825C12.9986 7.17881 13.0186 7.16221 13.1375 7.10936C13.1375 7.10936 14.6995 6.51981 15.9877 6.01276C17.2624 5.52934 17.6333 4.69771 17.4587 4.24298Z" />
<path d="M12.639 16.6647H2.36119C1.94453 16.6647 1.66675 16.3869 1.66675 15.9703C1.66675 15.5536 1.94453 15.2758 2.36119 15.2758H12.639C13.0556 15.2758 13.3334 15.5536 13.3334 15.9703C13.3334 16.3869 13.0556 16.6647 12.639 16.6647Z" />
</svg>