<!--character:3208-->
  <svg width="24" height="24" viewBox="0 0 24 24" >
<path d="M10.9604 7.65849C11.0473 7.78136 11.1568 7.93631 11.3278 7.97093C11.5217 8.01017 14.3392 8.41388 14.434 8.41638L14.4363 8.41644C14.5313 8.41895 14.6815 8.42292 14.6311 8.24154C14.5803 8.05863 11.3113 4.98611 10.854 4.60948C10.788 4.55516 10.7329 4.50759 10.6843 4.46564C10.3959 4.21672 10.337 4.16591 9.60665 4.0807C9.5303 4.0718 9.45977 4.0634 9.39452 4.05563C8.7304 3.97655 8.61391 3.96268 8.48287 4.14253C8.36759 4.30077 8.52069 4.49898 8.75597 4.80357C8.81438 4.87918 8.87787 4.96138 8.94355 5.05112C8.94355 5.05112 10.8344 7.48488 10.9268 7.61136C10.9376 7.62626 10.9488 7.64209 10.9604 7.65849Z" />
<path d="M20.8917 11.5692C20.9831 10.9919 20.8531 10.3556 19.285 9.88524C17.7169 9.41489 7.0877 7.98546 7.0877 7.98546C6.93856 7.95866 6.90803 7.94103 6.79903 7.81879C6.79903 7.81879 6.0677 6.78824 5.8729 6.51537C5.67811 6.2425 5.22685 6.04511 4.78268 5.98112C4.3385 5.91712 4.15516 6.13497 4.15644 6.35714C4.15772 6.57931 4.18014 6.73639 4.21425 6.88314C4.24837 7.0299 4.91492 9.9155 4.91492 9.9155C5.00643 10.257 5.25343 10.4958 5.62544 10.5182L9.98295 11.1855C10.125 11.2079 10.1714 11.2968 10.1578 11.3826C10.1494 11.4218 10.1144 11.4938 9.97132 11.6048C9.24797 12.1662 7.22652 13.7443 6.94319 13.9715C6.90955 13.9985 6.87323 14.027 6.83532 14.0567C6.55398 14.2774 6.18494 14.5668 6.17078 14.8198C6.15471 15.1068 6.50663 15.191 6.74409 15.2286C7.03107 15.274 7.20208 15.3018 7.34391 15.3248C7.56592 15.3608 7.71747 15.3854 8.13069 15.4482L8.14634 15.4506C8.81019 15.5514 8.94145 15.5714 9.32813 15.3198C9.75775 15.0385 14.3813 11.9746 14.3813 11.9746C14.4951 11.9441 14.5258 11.9389 14.6811 11.9553C14.6811 11.9553 16.658 12.2798 18.301 12.5258C19.9158 12.7882 20.8002 12.1465 20.8917 11.5692Z" />
<path d="M21.1666 19.9967H8.83331C8.33331 19.9967 7.99997 19.6633 7.99997 19.1633C7.99997 18.6633 8.33331 18.33 8.83331 18.33H21.1666C21.6666 18.33 22 18.6633 22 19.1633C22 19.6633 21.6666 19.9967 21.1666 19.9967Z" />
</svg>