<!-- character:0:1083 -->
  <svg width="20" height="20" viewBox="0 0 20 20" >
<path d="M10 17.148C9.25476 17.148 8.81358 16.4506 8.81358 15.3365V12.2816C8.81358 11.9845 8.66503 11.7616 8.44219 11.6131L2.87139 8.5677C2.64855 8.49342 2.5 8.19631 2.5 7.97348V7.49371C2.5 6.97377 3.01994 6.60238 3.46561 6.82521L8.29364 8.45931C8.51647 8.53359 8.81358 8.38504 8.81358 8.08793V5.59474C8.81358 5.37191 8.66503 5.0748 8.44219 4.92624L7.03092 4.03491C6.73381 3.88636 6.53774 3.64617 6.6347 3.47103C6.65668 3.43135 6.69228 3.26333 6.89734 3.21786C7.10239 3.17239 7.92119 3.36438 9.11856 3.57196C9.13446 3.57471 9.15489 3.57824 9.18112 3.58134C9.38793 3.09376 9.66089 2.84998 10 2.84998C10.3385 2.84998 10.6098 3.09292 10.8138 3.5788L10.8814 3.56876C12.0788 3.36118 12.8976 3.1692 13.1027 3.21466C13.3077 3.26013 13.3433 3.42815 13.3653 3.46784C13.4623 3.64297 13.2662 3.88316 12.9691 4.03172L11.5578 4.92305C11.335 5.0716 11.1864 5.22335 11.1864 5.52046V8.01365C11.1864 8.23648 11.4092 8.45931 11.7064 8.38504L16.5344 6.75093C16.9801 6.5281 17.5 6.89949 17.5 7.41943V7.8992C17.5 8.19631 17.3514 8.41914 17.1286 8.5677L11.5578 11.6131C11.335 11.7616 11.1864 11.9845 11.1864 12.2816V15.2622C11.1864 16.2278 10.7452 17.148 10 17.148Z" />
</svg>