<!--character:7522-->
  <svg width="20" height="20" viewBox="0 0 20 20" >
<path d="M13.4505 6.10921C12.2014 7.28032 11.5461 7.89656 11.4844 7.95794C11.4735 7.96879 11.4622 7.98037 11.4505 7.99236C11.3631 8.08217 11.2527 8.19541 11.1075 8.20161C10.9428 8.20864 8.57112 8.17363 8.49278 8.16332L8.49082 8.16306C8.41234 8.15275 8.28819 8.13644 8.35329 7.99371C8.41894 7.84979 11.5102 5.74705 11.9357 5.49667C11.997 5.46055 12.0486 5.42858 12.0941 5.40038C12.3639 5.2331 12.419 5.19896 13.0312 5.22405C13.0952 5.22667 13.1544 5.22895 13.2091 5.23106C13.766 5.25255 13.8637 5.25631 13.9481 5.42143C14.0224 5.5667 13.8705 5.70989 13.6372 5.92991C13.5792 5.98454 13.5163 6.04391 13.4505 6.10921ZM4.77418 11.0415C3.41091 11.047 2.7666 10.4036 2.7666 9.91649C2.7666 9.4294 2.95652 8.92262 4.3085 8.73991C5.20983 8.6181 8.63881 8.6269 14.5955 8.76632C14.7217 8.7637 14.7491 8.75317 14.8548 8.66677C15.3456 8.16485 15.6564 7.84749 15.787 7.71469C15.9829 7.51549 16.38 7.41186 16.754 7.41709C17.1279 7.42232 17.2504 7.62552 17.2204 7.80822C17.1904 7.99092 17.1514 8.11728 17.1042 8.23362C17.0727 8.31118 16.7487 9.11269 16.1322 10.6381C16.0124 10.9073 15.7779 11.0717 15.4688 11.0415L11.7953 11.0227C11.6755 11.0227 11.6257 11.0898 11.6257 11.1622C11.6275 11.1956 11.6469 11.2594 11.7502 11.3694C12.2724 11.9258 13.7305 13.4882 13.9341 13.7121C13.9582 13.7387 13.9844 13.7669 14.0118 13.7963C14.2146 14.0146 14.4805 14.3009 14.4592 14.511C14.435 14.7493 14.1344 14.7727 13.9341 14.7727C13.6915 14.7727 13.547 14.7733 13.4272 14.7737C13.2397 14.7744 13.1124 14.7749 12.7642 14.7727L12.751 14.7726C12.1914 14.7691 12.0808 14.7684 11.7953 14.511C11.584 14.3193 10.343 13.1819 8.07228 11.0989C7.98256 11.059 7.95798 11.0506 7.82801 11.0439C6.71504 11.0501 5.69709 11.0494 4.77418 11.0415Z" />
</svg>