<!--description:Use when some action is blocking, e.g. in error message.-->
<!--category:basic-->
<!--character:0055-->
<svg width="24" height="24" viewBox="0 0 24 24" xmlns="http://www.w3.org/2000/svg"><path d="M12.0002 1.9999h.2c5.399 0 9.8 4.4 9.8 9.8 0 5.6-4.401 10.1-10 10.2h-.2c-5.4 0-9.8-4.4-9.8-9.8 0-2.7 1-5.3 2.9-7.2 1.9-1.9 4.4-3 7.1-3zm-.8 5.5801v5c0 .5.3.8.8.8.4 0 .8-.3.8-.8v-5c0-.4-.3-.8-.8-.8-.4 0-.8.3-.8.8zM12 17.2301c.718 0 1.3-.582 1.3-1.3 0-.718-.582-1.3-1.3-1.3-.718 0-1.3.582-1.3 1.3 0 .718.582 1.3 1.3 1.3z"/></svg>