<!--character:6774-->
  <svg width="24" height="24" viewBox="0 0 24 24" >
<path d="M12.0002 2C9.30024 2 6.80024 3.1 4.90024 5C3.00024 6.9 2.00024 9.5 2.00024 12.2C2.00024 17.6 6.40024 22 11.8002 22H12.0002C17.5992 21.9 22.0002 17.4 22.0002 11.8C22.0002 6.4 17.5992 2 12.2002 2H12.0002ZM11.2002 7.5801C11.2002 7.0801 11.6002 6.7801 12.0002 6.7801C12.5002 6.7801 12.8002 7.1801 12.8002 7.5801V12.5801C12.8002 13.0801 12.4002 13.3801 12.0002 13.3801C11.5002 13.3801 11.2002 13.0801 11.2002 12.5801V7.5801ZM12 17.2302C11.2821 17.2302 10.7 16.6482 10.7 15.9302C10.7 15.2122 11.2821 14.6302 12 14.6302C12.718 14.6302 13.3 15.2122 13.3 15.9302C13.3 16.6482 12.718 17.2302 12 17.2302Z" />
</svg>