<!-- character:0:28 -->
  <svg width="20" height="20" viewBox="0 0 20 20" >
<path d="M10.0002 1.6665C7.7502 1.6665 5.66687 2.58317 4.08354 4.1665C2.5002 5.74984 1.66687 7.9165 1.66687 10.1665C1.66687 14.6665 5.33354 18.3332 9.83354 18.3332H10.0002C14.666 18.2498 18.3335 14.4998 18.3335 9.83317C18.3335 5.33317 14.666 1.6665 10.1669 1.6665H10.0002ZM9.33354 6.31659C9.33354 5.89992 9.66687 5.64992 10.0002 5.64992C10.4169 5.64992 10.6669 5.98325 10.6669 6.31659V10.4833C10.6669 10.8999 10.3335 11.1499 10.0002 11.1499C9.58354 11.1499 9.33354 10.8999 9.33354 10.4833V6.31659ZM10 14.3583C9.40173 14.3583 8.9167 13.8733 8.9167 13.275C8.9167 12.6767 9.40173 12.1917 10 12.1917C10.5983 12.1917 11.0834 12.6767 11.0834 13.275C11.0834 13.8733 10.5983 14.3583 10 14.3583Z" />
</svg>