<!--character:1366-->
  <svg width="24" height="24" viewBox="0 0 24 24" >
<path d="M11.9935 2.35027C12.607 2.34207 13.2665 2.6308 13.6086 3.24718L21.8002 19.0472C21.9001 19.2472 22 19.5472 22 19.8472C22 20.8472 21.2008 21.6472 20.2018 21.6472H3.71876C3.48162 21.6472 3.30702 21.5846 3.09599 21.5089C3.04032 21.4889 2.98213 21.468 2.91958 21.4472C2.1204 20.9472 1.72081 19.9472 2.2203 19.0472C2.2203 19.0472 10.1804 3.86946 10.5118 3.24718C10.8432 2.62489 11.3799 2.35846 11.9935 2.35027ZM11.1105 8.74718V14.1472C11.1105 14.6472 11.5105 15.0472 12.0105 15.0472C12.5105 15.0472 12.9105 14.6472 12.9105 14.1472V8.84718C12.9105 8.34718 12.5105 7.94718 12.0105 7.94718C11.5105 7.94718 11.1105 8.34718 11.1105 8.74718ZM12 18.9501C12.718 18.9501 13.3 18.3681 13.3 17.6501C13.3 16.9321 12.718 16.3501 12 16.3501C11.282 16.3501 10.7 16.9321 10.7 17.6501C10.7 18.3681 11.282 18.9501 12 18.9501Z" />
</svg>