<!--character:3024:2690-->
<svg width="24" height="24" viewBox="0 0 24 24">
  <path d="M11.9933 2.35017C12.6068 2.34198 13.2663 2.6307 13.6084 3.24708L21.8 19.0471C21.8999 19.2471 21.9998 19.5471 21.9998 19.8471C21.9998 20.8471 21.2006 21.6471 20.2017 21.6471H3.71857C3.48142 21.6471 3.30683 21.5845 3.0958 21.5088C3.04013 21.4888 2.98194 21.468 2.91939 21.4471C2.12021 20.9471 1.72062 19.9471 2.2201 19.0471C2.2201 19.0471 10.1802 3.86936 10.5116 3.24708C10.843 2.6248 11.3797 2.35837 11.9933 2.35017ZM11.1103 8.74708V14.1471C11.1103 14.6471 11.5103 15.0471 12.0103 15.0471C12.5103 15.0471 12.9103 14.6471 12.9103 14.1471V8.84708C12.9103 8.34708 12.5103 7.94708 12.0103 7.94708C11.5103 7.94708 11.1103 8.34708 11.1103 8.74708ZM11.9998 18.95C12.7178 18.95 13.2998 18.368 13.2998 17.65C13.2998 16.932 12.7178 16.35 11.9998 16.35C11.2818 16.35 10.6998 16.932 10.6998 17.65C10.6998 18.368 11.2818 18.95 11.9998 18.95Z" />
</svg>
