<!-- character:0:16 -->
  <svg width="20" height="20" viewBox="0 0 20 20" >
<path d="M9.99458 1.95839C10.5059 1.95157 11.0555 2.19217 11.3405 2.70582L18.1669 15.8725C18.2501 16.0391 18.3334 16.2891 18.3334 16.5391C18.3334 17.3725 17.6674 18.0391 16.8349 18.0391H3.09899C2.90137 18.0391 2.75587 17.987 2.58001 17.9239C2.53363 17.9073 2.48513 17.8899 2.433 17.8725C1.76702 17.4558 1.43403 16.6225 1.85027 15.8725C1.85027 15.8725 8.48367 3.22438 8.75985 2.70582C9.03602 2.18725 9.48328 1.96522 9.99458 1.95839ZM9.25879 7.28915V11.7892C9.25879 12.2058 9.59212 12.5392 10.0088 12.5392C10.4255 12.5392 10.7588 12.2058 10.7588 11.7892V7.37248C10.7588 6.95582 10.4255 6.62248 10.0088 6.62248C9.59212 6.62248 9.25879 6.95582 9.25879 7.28915ZM10 15.7916C10.5983 15.7916 11.0834 15.3066 11.0834 14.7083C11.0834 14.1099 10.5983 13.6249 10 13.6249C9.40171 13.6249 8.91669 14.1099 8.91669 14.7083C8.91669 15.3066 9.40171 15.7916 10 15.7916Z" />
</svg>