<!--character:1568-->
  <svg width="20" height="20" viewBox="0 0 20 20" >
<path d="M9.9944 1.95848C10.5057 1.95165 11.0553 2.19225 11.3403 2.7059L18.1667 15.8726C18.2499 16.0392 18.3332 16.2892 18.3332 16.5392C18.3332 17.3726 17.6672 18.0392 16.8347 18.0392H3.0988C2.90119 18.0392 2.75569 17.9871 2.57983 17.924C2.53344 17.9074 2.48495 17.89 2.43282 17.8726C1.76684 17.4559 1.43385 16.6226 1.85009 15.8726C1.85009 15.8726 8.48349 3.22447 8.75966 2.7059C9.03584 2.18733 9.48309 1.9653 9.9944 1.95848ZM9.25861 7.28923V11.7892C9.25861 12.2059 9.59194 12.5392 10.0086 12.5392C10.4253 12.5392 10.7586 12.2059 10.7586 11.7892V7.37257C10.7586 6.9559 10.4253 6.62257 10.0086 6.62257C9.59194 6.62257 9.25861 6.9559 9.25861 7.28923ZM9.99984 15.7917C10.5981 15.7917 11.0832 15.3066 11.0832 14.7083C11.0832 14.11 10.5981 13.625 9.99984 13.625C9.40153 13.625 8.9165 14.11 8.9165 14.7083C8.9165 15.3066 9.40153 15.7917 9.99984 15.7917Z" />
</svg>