<!--character:2724-->
<svg width="24" height="24" viewBox="0 0 24 24">
  <path d="M16.1419 2.00001H7.85767L1.9998 7.85787V16.1421L7.85767 22H16.1419L21.9998 16.1421V7.85787L16.1419 2.00001ZM12 6.78C12.5 6.78 12.8 7.18 12.8 7.58V12.58C12.8 13.08 12.4 13.38 12 13.38C11.5 13.38 11.2 13.08 11.2 12.58V7.58C11.2 7.08 11.6 6.78 12 6.78ZM13.2998 15.9301C13.2998 16.6481 12.7178 17.2301 11.9998 17.2301C11.2818 17.2301 10.6998 16.6481 10.6998 15.9301C10.6998 15.2121 11.2818 14.6301 11.9998 14.6301C12.7178 14.6301 13.2998 15.2121 13.2998 15.9301Z" />
</svg>
