<!--character:2685-->
<svg width="24" height="24" viewBox="0 0 24 24">
  <path d="M12.0004 1.9999C9.30039 1.9999 6.80039 3.0999 4.90039 4.9999C3.00039 6.8999 2.00039 9.4999 2.00039 12.1999C2.00039 17.5999 6.40039 21.9999 11.8004 21.9999H12.0004C17.5994 21.8999 22.0004 17.3999 22.0004 11.7999C22.0004 6.3999 17.5994 1.9999 12.2004 1.9999H12.0004ZM11.2004 7.58C11.2004 7.08 11.6004 6.78 12.0004 6.78C12.5004 6.78 12.8004 7.18 12.8004 7.58V12.58C12.8004 13.08 12.4004 13.38 12.0004 13.38C11.5004 13.38 11.2004 13.08 11.2004 12.58V7.58ZM12.0002 17.2301C11.2822 17.2301 10.7002 16.6481 10.7002 15.9301C10.7002 15.2121 11.2822 14.6301 12.0002 14.6301C12.7182 14.6301 13.3002 15.2121 13.3002 15.9301C13.3002 16.6481 12.7182 17.2301 12.0002 17.2301Z" />
</svg>
