<!--character:242:550:2503-->
  <svg width="24" height="24" viewBox="0 0 24 24" >
<path d="M16.1421 2H7.85787L2 7.85786V16.1421L7.85787 22H16.1421L22 16.1421V7.85786L16.1421 2ZM12.0002 6.77999C12.5002 6.77999 12.8002 7.17999 12.8002 7.57999V12.58C12.8002 13.08 12.4002 13.38 12.0002 13.38C11.5002 13.38 11.2002 13.08 11.2002 12.58V7.57999C11.2002 7.07999 11.6002 6.77999 12.0002 6.77999ZM13.3 15.9301C13.3 16.6481 12.718 17.2301 12 17.2301C11.282 17.2301 10.7 16.6481 10.7 15.9301C10.7 15.2121 11.282 14.6301 12 14.6301C12.718 14.6301 13.3 15.2121 13.3 15.9301Z" />
</svg>