<!-- character:343:119 -->
  <svg width="20" height="20" viewBox="0 0 20 20" >
<path d="M13.4517 1.66675H6.54818L1.66663 6.5483V13.4519L6.54818 18.3334H13.4517L18.3333 13.4519V6.5483L13.4517 1.66675ZM10.0001 5.65008C10.4168 5.65008 10.6668 5.98341 10.6668 6.31674V10.4834C10.6668 10.9001 10.3335 11.1501 10.0001 11.1501C9.58347 11.1501 9.33347 10.9001 9.33347 10.4834V6.31674C9.33347 5.90008 9.6668 5.65008 10.0001 5.65008ZM11.0833 13.2752C11.0833 13.8735 10.5983 14.3585 9.99997 14.3585C9.40166 14.3585 8.91664 13.8735 8.91664 13.2752C8.91664 12.6769 9.40166 12.1918 9.99997 12.1918C10.5983 12.1918 11.0833 12.6769 11.0833 13.2752Z" />
</svg>