<!--description:Use for getting users attention, e.g. in warning message.-->
<!--category:basic-->
<!--character:E07F-->
<svg width="24" height="24" viewBox="0 0 24 24" xmlns="http://www.w3.org/2000/svg"><path d="M13.6086 3.247l8.1916 15.8c.0999.2.1998.5.1998.8 0 1-.7992 1.8-1.7982 1.8H3.7188c-.2997 0-.4995-.1-.7992-.2-.7992-.5-1.1988-1.5-.6993-2.4 5.3067-10.1184 8.0706-15.385 8.2915-15.8.3314-.6222.8681-.8886 1.4817-.897.6135-.008 1.273.2807 1.6151.897zM12 18.95c.718 0 1.3-.582 1.3-1.3 0-.718-.582-1.3-1.3-1.3-.718 0-1.3.582-1.3 1.3 0 .718.582 1.3 1.3 1.3zm-.8895-10.203v5.4c0 .5.4.9.9.9s.9-.4.9-.9v-5.3c0-.5-.4-.9-.9-.9s-.9.4-.9.8z"/></svg>