<!--character:9534-->
  <svg width="20" height="20" viewBox="0 0 20 20" >
<path d="M10.0003 1.66658C7.75033 1.66658 5.66699 2.58325 4.08366 4.16658C2.50033 5.74991 1.66699 7.91658 1.66699 10.1666C1.66699 14.6666 5.33366 18.3332 9.83366 18.3332H10.0003C14.6662 18.2499 18.3337 14.4999 18.3337 9.83325C18.3337 5.33325 14.6662 1.66658 10.167 1.66658H10.0003ZM9.33366 6.31666C9.33366 5.9 9.66699 5.65 10.0003 5.65C10.417 5.65 10.667 5.98333 10.667 6.31666V10.4833C10.667 10.9 10.3337 11.15 10.0003 11.15C9.58366 11.15 9.33366 10.9 9.33366 10.4833V6.31666ZM10.0002 14.3584C9.40185 14.3584 8.91682 13.8734 8.91682 13.2751C8.91682 12.6768 9.40185 12.1917 10.0002 12.1917C10.5985 12.1917 11.0835 12.6768 11.0835 13.2751C11.0835 13.8734 10.5985 14.3584 10.0002 14.3584Z" />
</svg>