<!--character:2818-->
  <svg width="20" height="20" viewBox="0 0 20 20" >
<path d="M13.4516 1.66667H6.54806L1.6665 6.54823V13.4518L6.54806 18.3333H13.4516L18.3332 13.4518V6.54823L13.4516 1.66667ZM10 5.65C10.4167 5.65 10.6667 5.98333 10.6667 6.31667V10.4833C10.6667 10.9 10.3333 11.15 10 11.15C9.58335 11.15 9.33335 10.9 9.33335 10.4833V6.31667C9.33335 5.9 9.66668 5.65 10 5.65ZM11.0832 13.2751C11.0832 13.8734 10.5982 14.3584 9.99985 14.3584C9.40154 14.3584 8.91651 13.8734 8.91651 13.2751C8.91651 12.6768 9.40154 12.1917 9.99985 12.1917C10.5982 12.1917 11.0832 12.6768 11.0832 13.2751Z" />
</svg>