<!-- character:0:116 -->
  <svg width="20" height="20" viewBox="0 0 20 20" >
<path d="M15.2009 7.79457C16.3599 8.42887 16.6924 9.39305 16.5412 10.3202C16.389 11.2536 15.6459 12.1839 14.3403 12.3298C13.5254 12.409 12.7957 12.086 12.1047 11.3034C11.8305 10.993 11.3565 10.9635 11.0461 11.2377C10.7356 11.5118 10.7061 11.9858 10.9803 12.2963C11.9759 13.4237 13.1669 13.9509 14.4962 13.8216C16.5781 13.589 17.7716 12.0948 18.0216 10.5617C18.2659 9.06377 17.7126 7.45924 15.9211 6.47874C14.3905 5.64106 12.8003 5.97581 11.3101 7.37696L11.2393 7.45345C9.2336 9.94849 7.83623 11.4886 7.10721 12.0273C6.32342 12.6064 5.47217 12.5909 4.54576 12.1397C3.95376 11.8513 3.41669 10.8598 3.41669 10.0243C3.41669 8.98468 3.84212 8.27587 4.98535 7.8368C5.95065 7.43452 6.92415 7.72602 8.0339 8.82151C8.32868 9.11251 8.80355 9.10944 9.09454 8.81466C9.38554 8.51987 9.38246 8.04501 9.08768 7.75402C7.58202 6.26769 5.99262 5.79178 4.42775 6.44445C2.6875 7.11249 1.91669 8.39674 1.91669 10.0243C1.91669 11.4014 2.74537 12.9312 3.88894 13.4882C5.27329 14.1625 6.70622 14.1886 7.99864 13.2336C8.86428 12.594 10.3033 11.0097 12.3747 8.43516C13.4071 7.47976 14.2979 7.30034 15.2009 7.79457Z" />
</svg>