<!--character:7717-->
  <svg width="20" height="20" viewBox="0 0 20 20" >
<path d="M15.2007 7.79467C16.3597 8.42897 16.6922 9.39315 16.541 10.3203C16.3888 11.2537 15.6457 12.184 14.3401 12.3299C13.5252 12.4091 12.7955 12.0861 12.1045 11.3035C11.8303 10.9931 11.3564 10.9636 11.0459 11.2378C10.7354 11.5119 10.7059 11.9859 10.9801 12.2964C11.9757 13.4238 13.1667 13.951 14.4961 13.8217C16.5779 13.5891 17.7714 12.0949 18.0215 10.5618C18.2657 9.06386 17.7124 7.45934 15.9209 6.47884C14.3903 5.64115 12.8001 5.9759 11.3099 7.37706L11.2391 7.45355C9.23342 9.94859 7.83605 11.4887 7.10702 12.0274C6.32323 12.6065 5.47199 12.591 4.54557 12.1398C3.95357 11.8514 3.4165 10.8599 3.4165 10.0244C3.4165 8.98478 3.84193 8.27597 4.98517 7.83689C5.95047 7.43462 6.92397 7.72612 8.03372 8.82161C8.3285 9.11261 8.80337 9.10953 9.09436 8.81475C9.38535 8.51997 9.38228 8.04511 9.0875 7.75412C7.58183 6.26779 5.99244 5.79188 4.42757 6.44455C2.68731 7.11259 1.9165 8.39684 1.9165 10.0244C1.9165 11.4015 2.74518 12.9313 3.88876 13.4883C5.27311 14.1626 6.70603 14.1887 7.99845 13.2337C8.8641 12.5941 10.3031 11.0098 12.3745 8.43526C13.407 7.47986 14.2977 7.30044 15.2007 7.79467Z" />
</svg>