<!--character:3671-->
  <svg width="24" height="24" viewBox="0 0 24 24" >
<path d="M18.2411 9.3536C19.6319 10.1148 20.0309 11.2718 19.8494 12.3844C19.6668 13.5044 18.775 14.6208 17.2084 14.7959C16.2305 14.8909 15.3548 14.5033 14.5256 13.5642C14.1966 13.1917 13.6279 13.1563 13.2553 13.4853C12.8827 13.8143 12.8473 14.3831 13.1764 14.7557C14.371 16.1086 15.8003 16.7413 17.3955 16.5861C19.8937 16.3069 21.326 14.5139 21.626 12.6741C21.9191 10.8766 21.2551 8.95121 19.1053 7.77461C17.2686 6.76939 15.3603 7.17109 13.5721 8.85247L13.4872 8.94426C11.0803 11.9383 9.40348 13.7864 8.52865 14.4328C7.5881 15.1278 6.5666 15.1092 5.45491 14.5677C4.74451 14.2217 4.10002 13.0319 4.10002 12.0293C4.10002 10.7817 4.61054 9.93116 5.98242 9.40427C7.14078 8.92155 8.30898 9.27134 9.64068 10.5859C9.99442 10.9351 10.5643 10.9314 10.9134 10.5777C11.2626 10.224 11.259 9.65413 10.9052 9.30494C9.09842 7.52135 7.19115 6.95026 5.3133 7.73346C3.225 8.5351 2.30002 10.0762 2.30002 12.0293C2.30002 13.6818 3.29444 15.5176 4.66673 16.186C6.32795 16.9951 8.04746 17.0265 9.59837 15.8805C10.6371 15.1129 12.364 13.2118 14.8497 10.1223C16.0886 8.97584 17.1575 8.76053 18.2411 9.3536Z" />
</svg>