<!--description:Use in filters & lists for "All" option-->
<!--category:services-->
<!--character:E061-->
<!--added:0.11-->
<svg width="24" height="24" viewBox="0 0 24 24" xmlns="http://www.w3.org/2000/svg"><path d="M18.241 9.3536c1.3909.7612 1.7899 1.9182 1.6084 3.0308-.1826 1.12-1.0744 2.2364-2.641 2.4115-.978.095-1.8536-.2926-2.6828-1.2317a.9.9 0 0 0-1.3493 1.1915c1.1947 1.353 2.624 1.9855 4.2192 1.8304 2.4981-.2792 3.9304-2.0722 4.2305-3.912.293-1.7975-.3709-3.7229-2.5207-4.8995-1.8368-1.0052-3.745-.6035-5.5332 1.0779l-.085.0918c-2.4068 2.994-4.0836 4.842-4.9585 5.4885-.9405.695-1.962.6764-3.0737.1349-.7104-.346-1.3549-1.5358-1.3549-2.5385 0-1.2475.5105-2.098 1.8824-2.625 1.1584-.4827 2.3266-.1329 3.6583 1.1817a.9.9 0 0 0 1.2645-1.281c-1.8068-1.7836-3.714-2.3546-5.592-1.5714C3.225 8.535 2.3 10.0762 2.3 12.0292c0 1.6526.9944 3.4884 2.3667 4.1568 1.6612.809 3.3807.8405 4.9316-.3055 1.0388-.7676 2.7656-2.6687 5.2513-5.7582 1.239-1.1465 2.3078-1.3618 3.3915-.7687z"/></svg>
