<!--character:4715-->
  <svg width="24" height="24" viewBox="0 0 24 24" >
<path d="M18.2409 9.3536C19.6317 10.1148 20.0307 11.2718 19.8492 12.3844C19.6666 13.5044 18.7748 14.6208 17.2081 14.7959C16.2303 14.8909 15.3546 14.5033 14.5254 13.5642C14.1964 13.1917 13.6276 13.1563 13.255 13.4853C12.8825 13.8143 12.8471 14.3831 13.1761 14.7557C14.3708 16.1086 15.8001 16.7413 17.3953 16.5861C19.8934 16.3069 21.3257 14.5139 21.6258 12.6741C21.9189 10.8766 21.2549 8.95121 19.1051 7.77461C17.2683 6.76939 15.3601 7.17109 13.5719 8.85247L13.487 8.94426C11.0801 11.9383 9.40326 13.7864 8.52843 14.4328C7.58788 15.1278 6.56638 15.1092 5.45469 14.5677C4.74429 14.2217 4.0998 13.0319 4.0998 12.0293C4.0998 10.7817 4.61032 9.93116 5.9822 9.40427C7.14056 8.92155 8.30876 9.27134 9.64046 10.5859C9.9942 10.9351 10.564 10.9314 10.9132 10.5777C11.2624 10.224 11.2587 9.65413 10.905 9.30494C9.0982 7.52135 7.19093 6.95026 5.31308 7.73346C3.22478 8.5351 2.2998 10.0762 2.2998 12.0293C2.2998 13.6818 3.29422 15.5176 4.66651 16.186C6.32773 16.9951 8.04724 17.0265 9.59815 15.8805C10.6369 15.1129 12.3637 13.2118 14.8494 10.1223C16.0884 8.97584 17.1572 8.76053 18.2409 9.3536Z" />
</svg>