<!--character:$550:2816-->
  <svg width="24" height="24" viewBox="0 0 24 24" >
<path d="M18.2411 9.35358C19.6319 10.1147 20.0308 11.2718 19.8494 12.3844C19.6668 13.5044 18.775 14.6207 17.2083 14.7958C16.2304 14.8909 15.3548 14.5033 14.5256 13.5642C14.1966 13.1916 13.6278 13.1563 13.2552 13.4853C12.8826 13.8143 12.8473 14.3831 13.1763 14.7557C14.371 16.1086 15.8003 16.7412 17.3954 16.586C19.8936 16.3069 21.3259 14.5139 21.6259 12.6741C21.9191 10.8766 21.2551 8.95118 19.1052 7.77459C17.2685 6.76936 15.3603 7.17106 13.5721 8.85245L13.4871 8.94424C11.0803 11.9383 9.40344 13.7864 8.52861 14.4328C7.58806 15.1278 6.56657 15.1091 5.45487 14.5677C4.74447 14.2217 4.09999 13.0319 4.09999 12.0292C4.09999 10.7817 4.6105 9.93114 5.98238 9.40425C7.14074 8.92153 8.30894 9.27132 9.64065 10.5859C9.99438 10.9351 10.5642 10.9314 10.9134 10.5777C11.2626 10.2239 11.2589 9.65411 10.9052 9.30492C9.09838 7.52133 7.19111 6.95024 5.31327 7.73344C3.22496 8.53508 2.29999 10.0762 2.29999 12.0292C2.29999 13.6818 3.2944 15.5176 4.66669 16.1859C6.32791 16.995 8.04742 17.0265 9.59833 15.8805C10.6371 15.1129 12.3639 13.2117 14.8496 10.1223C16.0885 8.97581 17.1574 8.7605 18.2411 9.35358Z" />
</svg>