<!--character:596-->
  <svg width="24" height="24" viewBox="0 0 24 24" >
<path d="M13.8221 1.98942C14.3192 1.98942 14.7221 2.39237 14.7221 2.88942V4.10417C14.7221 4.60122 14.3192 5.00417 13.8221 5.00417C13.3251 5.00417 12.9221 4.60122 12.9221 4.10417V2.88942C12.9221 2.39237 13.3251 1.98942 13.8221 1.98942ZM9.77536 3.29918C10.2199 3.07689 10.7606 3.25709 10.9828 3.70168L11.5902 4.91642C11.8125 5.361 11.6323 5.90161 11.1877 6.1239C10.7431 6.34619 10.2025 6.16598 9.98024 5.7214L9.37287 4.50666C9.15058 4.06208 9.33078 3.52147 9.77536 3.29918ZM17.8689 3.29918C18.3135 3.52147 18.4937 4.06208 18.2714 4.50666L17.664 5.7214C17.4417 6.16598 16.9011 6.34619 16.4565 6.1239C16.0119 5.90161 15.8317 5.361 16.054 4.91642L16.6614 3.70167C16.8837 3.25709 17.4243 3.07689 17.8689 3.29918ZM11.8973 6.43095C12.4078 5.92045 13.1002 5.63366 13.8221 5.63366C14.5441 5.63366 15.2364 5.92045 15.7469 6.43095C16.188 6.87199 16.4621 7.4488 16.5285 8.06314H19.8958C20.4567 8.06314 20.9946 8.28595 21.3912 8.68254C21.7878 9.07913 22.0106 9.61702 22.0106 10.1779V18.6811C22.0106 19.242 21.7878 19.7799 21.3912 20.1764C20.9946 20.573 20.4567 20.7958 19.8958 20.7958H19.7329C19.6333 20.9456 19.5189 21.0855 19.3911 21.2133C19.1383 21.4661 18.8383 21.6666 18.508 21.8034C18.1777 21.9402 17.8238 22.0106 17.4663 22.0106C17.1088 22.0106 16.7548 21.9402 16.4246 21.8034C16.0943 21.6666 15.7942 21.4661 15.5415 21.2133C15.4137 21.0855 15.2992 20.9456 15.1996 20.7958H10.6225C10.5234 20.9449 10.4091 21.0848 10.2806 21.2133C9.77014 21.7238 9.07776 22.0106 8.35581 22.0106C7.63386 22.0106 6.94148 21.7238 6.43098 21.2133C6.30254 21.0848 6.18825 20.9449 6.08913 20.7958H4.10415C3.54328 20.7958 3.00539 20.573 2.6088 20.1764C2.21221 19.7799 1.9894 19.242 1.9894 18.6811L1.9894 15.0777C1.98933 14.7289 2.07551 14.3852 2.24027 14.0779C2.40508 13.7704 2.6434 13.5084 2.93399 13.3154L3.89378 12.6776L4.20639 10.9416C4.20952 10.9242 4.21317 10.9069 4.21732 10.8897C4.32844 10.4299 4.5911 10.0208 4.96299 9.72843C5.33461 9.43626 5.79369 9.27758 6.2664 9.27788L8.26421 9.27789C8.36723 9.05881 8.50807 8.857 8.68253 8.68254C9.07912 8.28595 9.61701 8.06314 10.1779 8.06314H11.1158C11.1822 7.4488 11.4562 6.87199 11.8973 6.43095ZM12.9477 8.06314H14.6966C14.6517 7.92898 14.5761 7.80566 14.4742 7.70374C14.3012 7.53081 14.0667 7.43366 13.8221 7.43366C13.5776 7.43366 13.343 7.53081 13.1701 7.70374C13.0682 7.80566 12.9926 7.92898 12.9477 8.06314ZM10.1779 9.86314C10.0944 9.86314 10.0143 9.89631 9.95532 9.95533C9.89629 10.0144 9.86313 10.0944 9.86313 10.1779V17.0218C10.0122 17.1209 10.1522 17.2352 10.2806 17.3636C10.7217 17.8047 10.9957 18.3815 11.0622 18.9958H14.7599C14.8263 18.3815 15.1004 17.8047 15.5415 17.3636C16.052 16.8531 16.7443 16.5664 17.4663 16.5664C18.1882 16.5664 18.8806 16.8531 19.3911 17.3636C19.7996 17.7721 20.0648 18.297 20.1545 18.8604C20.1908 18.8081 20.2106 18.7456 20.2106 18.6811V10.1779C20.2106 10.0944 20.1774 10.0144 20.1184 9.95533C20.0594 9.89631 19.9793 9.86314 19.8958 9.86314H10.1779ZM18.346 19.5648C18.3741 19.4755 18.3884 19.3824 18.3884 19.2885C18.3884 19.0439 18.2912 18.8094 18.1183 18.6364C17.9454 18.4635 17.7108 18.3664 17.4663 18.3664C17.2217 18.3664 16.9872 18.4635 16.8142 18.6364C16.6413 18.8094 16.5442 19.0439 16.5442 19.2885C16.5442 19.3817 16.5583 19.4742 16.586 19.5629C16.5945 19.5844 16.6023 19.6064 16.6092 19.6287C16.6109 19.6329 16.6126 19.6371 16.6144 19.6413C16.6607 19.7532 16.7286 19.8549 16.8142 19.9405C16.8999 20.0261 17.0015 20.0941 17.1134 20.1404C17.2253 20.1867 17.3452 20.2106 17.4663 20.2106C17.5874 20.2106 17.7073 20.1867 17.8192 20.1404C17.931 20.0941 18.0327 20.0261 18.1183 19.9405C18.2039 19.8549 18.2719 19.7532 18.3182 19.6413C18.3202 19.6365 18.3222 19.6317 18.3241 19.6268C18.3307 19.6058 18.338 19.5851 18.346 19.5648ZM9.23585 19.5638C9.26349 19.4755 9.27792 19.3827 9.27792 19.2885C9.27792 19.0439 9.18077 18.8094 9.00784 18.6364C8.90967 18.5383 8.79166 18.4645 8.66314 18.4191C8.56533 18.3845 8.46154 18.3664 8.35581 18.3664C8.11125 18.3664 7.8767 18.4635 7.70377 18.6364C7.53084 18.8094 7.43369 19.0439 7.43369 19.2885C7.43369 19.383 7.44821 19.4761 7.47603 19.5647C7.4841 19.5851 7.49146 19.6058 7.49806 19.6269C7.54399 19.7433 7.61357 19.8503 7.70377 19.9405C7.8767 20.1134 8.11125 20.2106 8.35581 20.2106C8.60037 20.2106 8.83491 20.1134 9.00784 19.9405C9.09783 19.8505 9.1673 19.7438 9.21324 19.6278C9.21999 19.6061 9.22754 19.5848 9.23585 19.5638ZM5.64946 18.9958C5.71587 18.3815 5.98994 17.8047 6.43098 17.3636C6.87202 16.9226 7.44881 16.6485 8.06314 16.5821V11.0779L6.26537 11.0779C6.19651 11.0778 6.12963 11.1009 6.0755 11.1435C6.02604 11.1823 5.98985 11.2354 5.97164 11.2953L5.59727 13.3742C5.55383 13.6155 5.41384 13.8286 5.20966 13.9643L3.93012 14.8146C3.88688 14.8434 3.85127 14.8824 3.82674 14.9282C3.80221 14.974 3.78938 15.0251 3.7894 15.077V18.6811C3.7894 18.7646 3.82256 18.8446 3.88159 18.9036C3.94062 18.9627 4.02067 18.9958 4.10415 18.9958H5.64946ZM15.0369 11.1C15.5339 11.1 15.9369 11.5029 15.9369 12V12.9221H16.859C17.356 12.9221 17.759 13.3251 17.759 13.8221C17.759 14.3192 17.356 14.7221 16.859 14.7221H15.9369V15.6442C15.9369 16.1413 15.5339 16.5442 15.0369 16.5442C14.5398 16.5442 14.1369 16.1413 14.1369 15.6442V14.7221H13.2147C12.7177 14.7221 12.3147 14.3192 12.3147 13.8221C12.3147 13.3251 12.7177 12.9221 13.2147 12.9221H14.1369V12C14.1369 11.5029 14.5398 11.1 15.0369 11.1Z" />
</svg>