<!--character:7426-->
  <svg width="20" height="20" viewBox="0 0 20 20" >
<path d="M1.66854 13.6123C1.60381 13.7983 1.58453 13.9971 1.61232 14.1921C1.64012 14.387 1.71417 14.5725 1.82826 14.7328C1.94132 14.892 2.09053 15.0219 2.26357 15.1118C2.43661 15.2017 2.62852 15.2491 2.82344 15.25H17.1613C17.3583 15.251 17.5527 15.2046 17.728 15.1146C17.9034 15.0246 18.0545 14.8937 18.1688 14.7328C18.2849 14.571 18.3601 14.3834 18.3879 14.1861C18.4157 13.9888 18.3953 13.7877 18.3285 13.6C17.6046 11.5362 16.1121 9.833 14.1635 8.84708C14.0974 8.80853 14.0465 8.74824 14.0197 8.67643C13.9928 8.60461 13.9915 8.5257 14.0161 8.45306L14.8024 6.45831C14.8613 6.30389 14.8892 6.13935 14.8847 5.9741C14.8801 5.80884 14.8431 5.6461 14.7758 5.49518C14.7085 5.34425 14.6122 5.20809 14.4924 5.09446C14.3726 4.98084 14.2316 4.89198 14.0775 4.83296C13.9234 4.77394 13.7593 4.74591 13.5944 4.75048C13.4295 4.75505 13.2671 4.79212 13.1165 4.85958C12.8124 4.99582 12.5747 5.24757 12.4557 5.55944L11.608 7.76352C11.5801 7.8269 11.5331 7.87997 11.4736 7.91529C11.4142 7.95061 11.3452 7.96643 11.2763 7.96053C10.4007 7.82914 9.51039 7.82914 8.63477 7.96053C8.56534 7.97059 8.49456 7.95654 8.43421 7.92069C8.37386 7.88485 8.32757 7.82938 8.30304 7.76352L7.5413 5.57176C7.424 5.26641 7.19047 5.02028 6.89209 4.8875C6.59371 4.75473 6.25492 4.74618 5.95025 4.86374C5.64558 4.98131 5.39999 5.21535 5.26751 5.51439C5.13502 5.81343 5.1265 6.15297 5.2438 6.45831L6.01783 8.45306C6.04716 8.52346 6.0482 8.60249 6.02072 8.67364C5.99324 8.74478 5.93938 8.80252 5.87039 8.83477C3.89984 9.81474 2.39125 11.53 1.66854 13.6123ZM12.726 10.9403C12.9083 10.9403 13.0864 10.9945 13.238 11.096C13.3895 11.1975 13.5076 11.3417 13.5774 11.5104C13.6471 11.6792 13.6653 11.8649 13.6298 12.044C13.5942 12.2231 13.5065 12.3877 13.3776 12.5168C13.2487 12.646 13.0846 12.734 12.9058 12.7696C12.7271 12.8052 12.5418 12.7869 12.3734 12.717C12.205 12.6471 12.0611 12.5288 11.9599 12.3769C11.8586 12.225 11.8046 12.0465 11.8046 11.8638C11.8045 11.7394 11.8295 11.6162 11.8781 11.5017C11.9267 11.3872 11.9979 11.2837 12.0874 11.1974C12.1769 11.1112 12.2829 11.0439 12.3989 10.9997C12.515 10.9556 12.6388 10.9354 12.7629 10.9403H12.726ZM7.19729 10.9403C7.38093 10.933 7.56257 10.9808 7.71888 11.0777C7.87518 11.1746 7.999 11.3161 8.07443 11.4841C8.14986 11.652 8.17344 11.8388 8.14216 12.0203C8.11088 12.2018 8.02616 12.3698 7.89888 12.5026C7.7716 12.6355 7.60758 12.7272 7.42791 12.7659C7.24823 12.8047 7.0611 12.7887 6.89057 12.72C6.72004 12.6513 6.57389 12.5331 6.47092 12.3805C6.36794 12.228 6.31284 12.048 6.31269 11.8638C6.31269 11.6189 6.40977 11.384 6.58258 11.2108C6.75539 11.0376 6.98976 10.9403 7.23415 10.9403H7.19729Z" />
</svg>