<!--character:2402-->
  <svg width="24" height="24" viewBox="0 0 24 24" >
<path d="M2.00228 16.3348C1.9246 16.5579 1.90147 16.7965 1.93482 17.0305C1.96817 17.2644 2.05703 17.487 2.19394 17.6794C2.32961 17.8704 2.50866 18.0262 2.71631 18.1341C2.92396 18.2421 3.15425 18.2989 3.38815 18.3H20.5936C20.83 18.3013 21.0632 18.2455 21.2736 18.1375C21.4841 18.0295 21.6655 17.8724 21.8026 17.6794C21.9419 17.4853 22.0321 17.2601 22.0655 17.0234C22.0989 16.7866 22.0744 16.5452 21.9942 16.32C21.1255 13.8434 19.3345 11.7996 16.9962 10.6165C16.9169 10.5702 16.8559 10.4979 16.8236 10.4117C16.7914 10.3255 16.7899 10.2308 16.8193 10.1437L17.7629 7.74997C17.8336 7.56467 17.8671 7.36722 17.8617 7.16892C17.8562 6.97061 17.8118 6.77532 17.731 6.59421C17.6502 6.4131 17.5347 6.2497 17.3909 6.11336C17.2471 5.97701 17.0779 5.87038 16.893 5.79955C16.7081 5.72873 16.5111 5.6951 16.3133 5.70058C16.1154 5.70606 15.9205 5.75054 15.7398 5.8315C15.3749 5.99499 15.0896 6.29708 14.9469 6.67133L13.9296 9.31622C13.8961 9.39229 13.8398 9.45596 13.7684 9.49835C13.697 9.54073 13.6142 9.55971 13.5316 9.55264C12.4808 9.39497 11.4125 9.39497 10.3617 9.55264C10.2784 9.56471 10.1935 9.54784 10.1211 9.50483C10.0487 9.46182 9.99311 9.39526 9.96368 9.31622L9.04959 6.68611C8.90882 6.3197 8.62859 6.02434 8.27053 5.865C7.91248 5.70567 7.50593 5.69541 7.14033 5.83649C6.77473 5.97757 6.48002 6.25842 6.32104 6.61727C6.16206 6.97612 6.15182 7.38356 6.29259 7.74997L7.22142 10.1437C7.25662 10.2281 7.25787 10.323 7.22489 10.4084C7.19192 10.4937 7.12728 10.563 7.0445 10.6017C4.67983 11.7777 2.86953 13.836 2.00228 16.3348ZM15.2713 13.1284C15.49 13.1284 15.7038 13.1934 15.8856 13.3152C16.0674 13.4369 16.2092 13.61 16.2929 13.8125C16.3765 14.015 16.3984 14.2378 16.3558 14.4528C16.3131 14.6678 16.2078 14.8652 16.0532 15.0202C15.8985 15.1752 15.7015 15.2807 15.487 15.3235C15.2725 15.3663 15.0502 15.3443 14.8481 15.2604C14.6461 15.1766 14.4734 15.0345 14.3519 14.8523C14.2304 14.67 14.1655 14.4558 14.1655 14.2366C14.1654 14.0873 14.1954 13.9394 14.2537 13.802C14.312 13.6646 14.3975 13.5404 14.5049 13.4369C14.6123 13.3334 14.7395 13.2527 14.8788 13.1997C15.0181 13.1467 15.1666 13.1224 15.3155 13.1284H15.2713ZM8.63678 13.1284C8.85715 13.1196 9.07512 13.177 9.26268 13.2932C9.45024 13.4095 9.59883 13.5793 9.68934 13.7809C9.77985 13.9825 9.80816 14.2065 9.77062 14.4243C9.73308 14.6421 9.63141 14.8437 9.47868 15.0032C9.32595 15.1626 9.12913 15.2727 8.91352 15.3191C8.6979 15.3656 8.47335 15.3464 8.26871 15.264C8.06407 15.1816 7.8887 15.0397 7.76513 14.8566C7.64156 14.6736 7.57543 14.4576 7.57526 14.2366C7.57526 13.9427 7.69176 13.6608 7.89913 13.453C8.10649 13.2452 8.38775 13.1284 8.68101 13.1284H8.63678Z" />
</svg>