<!--character:5941-->
  <svg width="24" height="24" viewBox="0 0 24 24" >
<path d="M2.08163 16.3004C2.00457 16.5218 1.98162 16.7584 2.0147 16.9905C2.04779 17.2226 2.13594 17.4434 2.27177 17.6343C2.40636 17.8238 2.58399 17.9784 2.78999 18.0855C2.996 18.1925 3.22446 18.2489 3.4565 18.25H20.5254C20.7599 18.2512 20.9913 18.196 21.2 18.0888C21.4088 17.9817 21.5887 17.8258 21.7248 17.6343C21.863 17.4417 21.9525 17.2184 21.9856 16.9835C22.0187 16.7486 21.9945 16.5092 21.9149 16.2857C21.0531 13.8288 19.2763 11.8012 16.9566 10.6275C16.8778 10.5816 16.8173 10.5098 16.7854 10.4243C16.7534 10.3388 16.7519 10.2449 16.7811 10.1584L17.7172 7.7837C17.7873 7.59987 17.8206 7.40399 17.8151 7.20726C17.8097 7.01053 17.7657 6.81679 17.6855 6.63711C17.6054 6.45744 17.4907 6.29534 17.3481 6.16007C17.2055 6.02481 17.0376 5.91902 16.8542 5.84876C16.6708 5.7785 16.4753 5.74513 16.279 5.75057C16.0827 5.75601 15.8894 5.80014 15.7101 5.88045C15.3481 6.04265 15.0651 6.34235 14.9235 6.71362L13.9143 9.33752C13.8811 9.41298 13.8252 9.47615 13.7544 9.5182C13.6836 9.56025 13.6014 9.57908 13.5194 9.57206C12.477 9.41564 11.4172 9.41564 10.3748 9.57206C10.2921 9.58404 10.2078 9.5673 10.136 9.52463C10.0642 9.48197 10.009 9.41593 9.97984 9.33752L9.07301 6.72828C8.93336 6.36478 8.65535 6.07176 8.30013 5.9137C7.94492 5.75563 7.5416 5.74545 7.1789 5.88541C6.8162 6.02537 6.52383 6.30399 6.36611 6.65999C6.20839 7.01599 6.19824 7.4202 6.33789 7.7837L7.25935 10.1584C7.29427 10.2422 7.29551 10.3363 7.26279 10.421C7.23008 10.5057 7.16595 10.5744 7.08383 10.6128C4.73793 11.7794 2.94199 13.8214 2.08163 16.3004ZM15.2453 13.1195C15.4623 13.1195 15.6744 13.1839 15.8548 13.3047C16.0352 13.4255 16.1758 13.5972 16.2588 13.7981C16.3418 13.999 16.3635 14.2201 16.3212 14.4333C16.2789 14.6466 16.1744 14.8425 16.021 14.9962C15.8676 15.15 15.6721 15.2547 15.4593 15.2971C15.2465 15.3395 15.026 15.3178 14.8255 15.2346C14.6251 15.1514 14.4537 15.0104 14.3332 14.8296C14.2127 14.6488 14.1483 14.4363 14.1483 14.2189C14.1482 14.0707 14.178 13.9241 14.2358 13.7877C14.2937 13.6514 14.3784 13.5282 14.485 13.4255C14.5915 13.3228 14.7177 13.2428 14.8559 13.1902C14.9941 13.1376 15.1415 13.1135 15.2892 13.1195H15.2453ZM8.66347 13.1195C8.88209 13.1107 9.09833 13.1676 9.2844 13.283C9.47048 13.3983 9.61788 13.5668 9.70768 13.7668C9.79748 13.9667 9.82556 14.189 9.78832 14.4051C9.75108 14.6212 9.65021 14.8212 9.49869 14.9793C9.34717 15.1375 9.15192 15.2467 8.93801 15.2928C8.72411 15.3389 8.50134 15.3198 8.29833 15.2381C8.09531 15.1563 7.92133 15.0156 7.79874 14.834C7.67615 14.6523 7.61055 14.4381 7.61038 14.2189C7.61038 13.9273 7.72595 13.6476 7.93167 13.4415C8.1374 13.2353 8.41641 13.1195 8.70735 13.1195H8.66347Z" />
</svg>