<!--character:9957-->
  <svg width="24" height="24" viewBox="0 0 24 24" >
<path d="M2.00225 16.3348C1.92457 16.5579 1.90144 16.7965 1.93479 17.0305C1.96814 17.2644 2.057 17.487 2.19392 17.6794C2.32958 17.8704 2.50863 18.0262 2.71628 18.1341C2.92393 18.2421 3.15422 18.2989 3.38813 18.3H20.5936C20.83 18.3013 21.0632 18.2455 21.2736 18.1375C21.484 18.0295 21.6654 17.8724 21.8025 17.6794C21.9419 17.4853 22.0321 17.2601 22.0655 17.0234C22.0989 16.7866 22.0744 16.5452 21.9942 16.32C21.1255 13.8434 19.3345 11.7996 16.9962 10.6165C16.9168 10.5702 16.8559 10.4979 16.8236 10.4117C16.7914 10.3255 16.7898 10.2308 16.8193 10.1437L17.7629 7.74997C17.8335 7.56467 17.8671 7.36722 17.8616 7.16892C17.8562 6.97061 17.8118 6.77532 17.731 6.59421C17.6502 6.4131 17.5346 6.2497 17.3909 6.11336C17.2471 5.97701 17.0779 5.87038 16.893 5.79955C16.7081 5.72873 16.5111 5.6951 16.3132 5.70058C16.1154 5.70606 15.9205 5.75054 15.7398 5.8315C15.3748 5.99499 15.0896 6.29708 14.9469 6.67133L13.9296 9.31622C13.8961 9.39229 13.8397 9.45596 13.7684 9.49835C13.697 9.54073 13.6142 9.55971 13.5315 9.55264C12.4808 9.39497 11.4125 9.39497 10.3617 9.55264C10.2784 9.56471 10.1935 9.54784 10.1211 9.50483C10.0486 9.46182 9.99309 9.39526 9.96365 9.31622L9.04956 6.68611C8.9088 6.3197 8.62856 6.02434 8.27051 5.865C7.91245 5.70567 7.5059 5.69541 7.1403 5.83649C6.7747 5.97757 6.47999 6.25842 6.32101 6.61727C6.16203 6.97612 6.1518 7.38356 6.29256 7.74997L7.22139 10.1437C7.2566 10.2281 7.25784 10.323 7.22487 10.4084C7.19189 10.4937 7.12725 10.563 7.04447 10.6017C4.6798 11.7777 2.8695 13.836 2.00225 16.3348ZM15.2712 13.1284C15.4899 13.1284 15.7037 13.1934 15.8856 13.3152C16.0674 13.4369 16.2091 13.61 16.2928 13.8125C16.3765 14.015 16.3984 14.2378 16.3557 14.4528C16.3131 14.6678 16.2078 14.8652 16.0531 15.0202C15.8985 15.1752 15.7015 15.2807 15.487 15.3235C15.2725 15.3663 15.0501 15.3443 14.8481 15.2604C14.646 15.1766 14.4733 15.0345 14.3518 14.8523C14.2303 14.67 14.1655 14.4558 14.1655 14.2366C14.1654 14.0873 14.1954 13.9394 14.2537 13.802C14.312 13.6646 14.3974 13.5404 14.5048 13.4369C14.6123 13.3334 14.7394 13.2527 14.8787 13.1997C15.018 13.1467 15.1666 13.1224 15.3155 13.1284H15.2712ZM8.63675 13.1284C8.85712 13.1196 9.07509 13.177 9.26265 13.2932C9.45021 13.4095 9.5988 13.5793 9.68931 13.7809C9.77983 13.9825 9.80813 14.2065 9.77059 14.4243C9.73306 14.6421 9.63139 14.8437 9.47865 15.0032C9.32592 15.1626 9.1291 15.2727 8.91349 15.3191C8.69788 15.3656 8.47332 15.3464 8.26868 15.264C8.06404 15.1816 7.88867 15.0397 7.7651 14.8566C7.64153 14.6736 7.57541 14.4576 7.57523 14.2366C7.57523 13.9427 7.69173 13.6608 7.8991 13.453C8.10647 13.2452 8.38772 13.1284 8.68098 13.1284H8.63675Z" />
</svg>