<!-- character:0:1537 -->
  <svg width="20" height="20" viewBox="0 0 20 20" >
<path   d="M4.42834 3.83335C5.41808 2.52111 6.98479 1.66669 8.75004 1.66669C11.7352 1.66669 14.1667 4.09823 14.1667 7.08335C14.1667 10.0685 11.7352 12.5 8.75004 12.5C5.76491 12.5 3.33337 10.0685 3.33337 7.08335C3.33337 5.87023 3.7396 4.7524 4.41671 3.84816V3.83335H4.42834ZM12.9153 7.25181C12.9765 5.40224 11.4872 3.75002 10.9977 3.75002C10.6815 3.76455 10.6404 3.83334 10.6404 3.93075C10.6404 4.50431 10.3084 4.52668 9.67017 4.56968L9.59095 4.57505C9.59095 4.57505 8.99115 4.62361 8.76351 4.85476C8.53587 5.08591 8.48718 5.63146 8.48718 5.63146C8.48718 5.9296 8.24602 6.17158 7.94888 6.17158C7.94888 6.17158 7.58292 6.20685 7.51738 6.55206C7.45184 6.89727 7.54236 7.25181 7.78152 7.25181H9.42791C10 7.25181 10.2237 7.66113 10.2237 8.07097C10.2237 8.07097 10.1827 8.8705 10.3235 9.13511C10.4643 9.39971 10.762 9.41229 10.762 9.41229C11.1426 9.54935 11.2351 9.89763 11.3009 10.1455C11.3742 10.4219 11.4145 10.5736 11.784 10.1687C12.4849 9.40058 12.8779 8.37867 12.9153 7.25181ZM4.74948 6.25002C4.99262 6.25002 5.22364 6.73171 5.41572 7.1322C5.49597 7.29954 5.56943 7.4527 5.63413 7.55062C5.76581 7.74991 6.17373 7.9847 6.50811 8.17717C6.73125 8.30561 6.92164 8.41519 6.97534 8.4828C7.10949 8.65171 7.1186 9.21184 7.1186 9.21184C7.1186 9.83422 7.49981 10.0372 8.09255 10.1344C8.68528 10.2315 8.65433 11.287 8.21602 11.249C6.04629 10.9949 4.37504 9.25881 4.37504 7.13923C4.37504 6.81911 4.40474 6.25002 4.74948 6.25002ZM7.55081 15.265C7.62054 15.0558 7.48107 14.8466 7.27187 14.7769C5.87717 14.4282 4.5522 13.7308 3.57591 12.7546C3.29697 12.4756 3.29697 12.0572 3.57591 11.7783C3.85485 11.4993 4.27326 11.4993 4.5522 11.7783C7.06266 14.219 11.0376 14.1493 13.4085 11.6388C15.7795 9.19807 15.7795 5.36264 13.4085 2.92192C13.1296 2.64298 13.1296 2.22457 13.4085 1.94563C13.6875 1.66669 14.1059 1.66669 14.3848 1.94563C17.3834 4.94423 17.3834 9.75595 14.3848 12.7546C13.2691 13.8006 11.8744 14.5677 10.3402 14.8466C10.131 14.9163 10.0613 15.0558 10.0613 15.265V15.3347L10.6191 16.7294C10.6889 16.8689 10.8284 16.9387 10.9678 16.9387H13.3388C13.7572 16.9387 14.0362 17.2176 14.0362 17.636C14.0362 18.0544 13.7572 18.3334 13.3388 18.3334H4.27326C3.85485 18.3334 3.57591 18.0544 3.57591 17.636C3.57591 17.2176 3.85485 16.9387 4.27326 16.9387H6.64425C6.78372 16.9387 6.92319 16.8689 6.99293 16.7294L7.55081 15.265Z" />
</svg>