<!--character:$550:2553-->
  <svg width="24" height="24" viewBox="0 0 24 24" >
<path d="M5.31396 4.6C6.50165 3.0253 8.38169 2 10.5 2C14.0822 2 17 4.91785 17 8.5C17 12.0822 14.0822 15 10.5 15C6.91785 15 4 12.0822 4 8.5C4 7.04425 4.48747 5.70285 5.3 4.61777V4.6H5.31396ZM15.4983 8.70215C15.5718 6.48266 13.7847 4.5 13.1972 4.5C12.8178 4.51744 12.7684 4.59998 12.7684 4.71688C12.7684 5.40514 12.37 5.43199 11.6042 5.48359L11.5091 5.49004C11.5091 5.49004 10.7893 5.54831 10.5162 5.82569C10.243 6.10307 10.1846 6.75772 10.1846 6.75772C10.1846 7.1155 9.89518 7.40587 9.5386 7.40587C9.5386 7.40587 9.09946 7.4482 9.02081 7.86245C8.94216 8.2767 9.05078 8.70215 9.33778 8.70215H11.3135C12 8.70215 12.2684 9.19333 12.2684 9.68514C12.2684 9.68514 12.2192 10.6446 12.3882 10.9621C12.5571 11.2796 12.9144 11.2947 12.9144 11.2947C13.3711 11.4592 13.482 11.8771 13.561 12.1746C13.649 12.5063 13.6973 12.6883 14.1407 12.2024C14.9819 11.2807 15.4535 10.0544 15.4983 8.70215ZM5.69932 7.5C5.28564 7.5 5.25 8.18291 5.25 8.56706C5.25 11.1105 7.2555 13.1938 9.85918 13.4988C10.3851 13.5443 10.4223 12.2778 9.71101 12.1612C8.99972 12.0446 8.54227 11.801 8.54227 11.0542C8.54227 11.0542 8.53134 10.382 8.37036 10.1793C8.30592 10.0982 8.07745 9.9667 7.80968 9.81258C7.40843 9.58162 6.91892 9.29986 6.76091 9.06072C6.68327 8.94322 6.59512 8.75942 6.49881 8.55862C6.26832 8.07803 5.99109 7.5 5.69932 7.5Z" />
<path d="M9.06091 18.318C9.1446 18.0669 8.97723 17.8159 8.72619 17.7322C7.05255 17.3138 5.46259 16.477 4.29104 15.3054C3.95631 14.9707 3.95631 14.4686 4.29104 14.1339C4.62577 13.7992 5.12786 13.7992 5.46259 14.1339C8.47514 17.0628 13.245 16.9791 16.0902 13.9665C18.9354 11.0377 18.9354 6.43515 16.0902 3.50628C15.7555 3.17155 15.7555 2.66946 16.0902 2.33473C16.4249 2 16.927 2 17.2618 2.33473C20.8601 5.93305 20.8601 11.7071 17.2618 15.3054C15.9228 16.5607 14.2492 17.4812 12.4082 17.8159C12.1572 17.8996 12.0735 18.0669 12.0735 18.318V18.4017L12.7429 20.0753C12.8266 20.2427 12.994 20.3264 13.1613 20.3264H16.0065C16.5086 20.3264 16.8433 20.6611 16.8433 21.1632C16.8433 21.6653 16.5086 22 16.0065 22H5.12786C4.62577 22 4.29104 21.6653 4.29104 21.1632C4.29104 20.6611 4.62577 20.3264 5.12786 20.3264H7.97305C8.14041 20.3264 8.30778 20.2427 8.39146 20.0753L9.06091 18.318Z" />
</svg>