<!--character:6674-->
  <svg width="24" height="24" viewBox="0 0 24 24" >
<path d="M5.31416 4.6C6.50184 3.0253 8.38189 2 10.5002 2C14.0823 2 17.0002 4.91784 17.0002 8.5C17.0002 12.0821 14.0823 15 10.5002 15C6.91804 15 4.0002 12.0821 4.0002 8.5C4.0002 7.04425 4.48766 5.70285 5.3002 4.61777V4.6H5.31416ZM15.4985 8.70215C15.572 6.48266 13.7848 4.5 13.1974 4.5C12.818 4.51744 12.7686 4.59998 12.7686 4.71688C12.7686 5.40514 12.3702 5.43199 11.6043 5.48359L11.5093 5.49004C11.5093 5.49004 10.7895 5.54831 10.5164 5.82569C10.2432 6.10307 10.1848 6.75772 10.1848 6.75772C10.1848 7.1155 9.89537 7.40586 9.5388 7.40586C9.5388 7.40586 9.09965 7.4482 9.021 7.86245C8.94236 8.27669 9.05098 8.70215 9.33797 8.70215H11.3136C12.0002 8.70215 12.2686 9.19333 12.2686 9.68514C12.2686 9.68514 12.2194 10.6446 12.3884 10.9621C12.5573 11.2796 12.9146 11.2947 12.9146 11.2947C13.3713 11.4592 13.4822 11.8771 13.5612 12.1746C13.6492 12.5063 13.6975 12.6883 14.1409 12.2024C14.9821 11.2807 15.4537 10.0544 15.4985 8.70215ZM5.69952 7.5C5.28583 7.5 5.2502 8.18291 5.2502 8.56705C5.2502 11.1105 7.2557 13.1938 9.85937 13.4988C10.3853 13.5443 10.4225 12.2778 9.7112 12.1612C8.99991 12.0446 8.54247 11.801 8.54247 11.0542C8.54247 11.0542 8.53154 10.382 8.37055 10.1793C8.30612 10.0982 8.07765 9.9667 7.80988 9.81258C7.40862 9.58162 6.91912 9.29986 6.76111 9.06072C6.68346 8.94321 6.59532 8.75942 6.49901 8.55861C6.26852 8.07803 5.99129 7.5 5.69952 7.5Z" />
<path d="M9.06112 18.318C9.1448 18.0669 8.97743 17.8159 8.72639 17.7322C7.05275 17.3138 5.46279 16.477 4.29124 15.3054C3.95651 14.9707 3.95651 14.4686 4.29124 14.1339C4.62597 13.7992 5.12806 13.7992 5.46279 14.1339C8.47534 17.0628 13.2452 16.9791 16.0904 13.9665C18.9356 11.0377 18.9356 6.43514 16.0904 3.50627C15.7557 3.17154 15.7557 2.66945 16.0904 2.33472C16.4251 2 16.9272 2 17.262 2.33472C20.8603 5.93305 20.8603 11.7071 17.262 15.3054C15.923 16.5607 14.2494 17.4812 12.4084 17.8159C12.1574 17.8996 12.0737 18.0669 12.0737 18.318V18.4017L12.7431 20.0753C12.8268 20.2427 12.9942 20.3264 13.1615 20.3264H16.0067C16.5088 20.3264 16.8435 20.6611 16.8435 21.1632C16.8435 21.6653 16.5088 22 16.0067 22H5.12806C4.62597 22 4.29124 21.6653 4.29124 21.1632C4.29124 20.6611 4.62597 20.3264 5.12806 20.3264H7.97325C8.14061 20.3264 8.30798 20.2427 8.39166 20.0753L9.06112 18.318Z" />
</svg>