<!--character:3742-->
  <svg width="20" height="20" viewBox="0 0 20 20" >
<path d="M4.42847 3.83333C5.4182 2.52108 6.98491 1.66666 8.75016 1.66666C11.7353 1.66666 14.1668 4.0982 14.1668 7.08333C14.1668 10.0685 11.7353 12.5 8.75016 12.5C5.76504 12.5 3.3335 10.0685 3.3335 7.08333C3.3335 5.87021 3.73972 4.75237 4.41683 3.84814V3.83333H4.42847ZM12.9154 7.25179C12.9767 5.40222 11.4874 3.75 10.9978 3.75C10.6816 3.76453 10.6405 3.83332 10.6405 3.93073C10.6405 4.50428 10.3085 4.52665 9.67029 4.56966L9.59107 4.57503C9.59107 4.57503 8.99127 4.62359 8.76363 4.85474C8.536 5.08589 8.4873 5.63143 8.4873 5.63143C8.4873 5.92958 8.24614 6.17155 7.949 6.17155C7.949 6.17155 7.58304 6.20683 7.5175 6.55204C7.45196 6.89724 7.54248 7.25179 7.78164 7.25179H9.42804C10.0002 7.25179 10.2239 7.66111 10.2239 8.07095C10.2239 8.07095 10.1828 8.87048 10.3236 9.13508C10.4644 9.39969 10.7622 9.41227 10.7622 9.41227C11.1427 9.54933 11.2352 9.8976 11.301 10.1455C11.3743 10.4219 11.4146 10.5736 11.7841 10.1686C12.4851 9.40056 12.878 8.37865 12.9154 7.25179ZM4.7496 6.25C4.40486 6.25 4.37516 6.81909 4.37516 7.13921C4.37516 9.25879 6.04641 10.9949 8.21615 11.249C8.65445 11.2869 8.68541 10.2315 8.09267 10.1343C7.49993 10.0372 7.11872 9.8342 7.11872 9.21181C7.11872 9.21181 7.10962 8.65169 6.97546 8.48278C6.92177 8.41517 6.73137 8.30558 6.50823 8.17715C6.17385 7.98468 5.76593 7.74988 5.63425 7.5506C5.56955 7.45268 5.4961 7.29952 5.41584 7.13218C5.22376 6.73169 4.99274 6.25 4.7496 6.25Z" />
<path d="M7.55093 15.265C7.62066 15.0558 7.48119 14.8466 7.27199 14.7768C5.87729 14.4282 4.55232 13.7308 3.57603 12.7545C3.29709 12.4756 3.29709 12.0572 3.57603 11.7782C3.85497 11.4993 4.27338 11.4993 4.55232 11.7782C7.06278 14.219 11.0377 14.1492 13.4087 11.6388C15.7797 9.19804 15.7797 5.36262 13.4087 2.92189C13.1297 2.64295 13.1297 2.22454 13.4087 1.9456C13.6876 1.66666 14.106 1.66666 14.385 1.9456C17.3836 4.94421 17.3836 9.75592 14.385 12.7545C13.2692 13.8006 11.8745 14.5676 10.3403 14.8466C10.1311 14.9163 10.0614 15.0558 10.0614 15.265V15.3347L10.6193 16.7294C10.689 16.8689 10.8285 16.9386 10.9679 16.9386H13.3389C13.7573 16.9386 14.0363 17.2176 14.0363 17.636C14.0363 18.0544 13.7573 18.3333 13.3389 18.3333H4.27338C3.85497 18.3333 3.57603 18.0544 3.57603 17.636C3.57603 17.2176 3.85497 16.9386 4.27338 16.9386H6.64437C6.78384 16.9386 6.92331 16.8689 6.99305 16.7294L7.55093 15.265Z" />
</svg>