<!--character:3751-->
  <svg width="24" height="24" viewBox="0 0 24 24" >
<path d="M5.31394 4.60001C6.50162 3.02531 8.38167 2.00001 10.5 2.00001C14.0821 2.00001 17 4.91785 17 8.50001C17 12.0822 14.0821 15 10.5 15C6.91782 15 3.99998 12.0822 3.99998 8.50001C3.99998 7.04426 4.48744 5.70286 5.29998 4.61778V4.60001H5.31394ZM15.4982 8.70216C15.5718 6.48267 13.7846 4.50001 13.1972 4.50001C12.8177 4.51745 12.7684 4.59999 12.7684 4.71689C12.7684 5.40515 12.37 5.43199 11.6041 5.4836L11.5091 5.49005C11.5091 5.49005 10.7893 5.54832 10.5161 5.8257C10.243 6.10308 10.1845 6.75773 10.1845 6.75773C10.1845 7.11551 9.89515 7.40587 9.53858 7.40587C9.53858 7.40587 9.09943 7.44821 9.02078 7.86245C8.94214 8.2767 9.05076 8.70216 9.33775 8.70216H11.3134C12 8.70216 12.2684 9.19334 12.2684 9.68515C12.2684 9.68515 12.2192 10.6446 12.3881 10.9621C12.5571 11.2796 12.9144 11.2947 12.9144 11.2947C13.3711 11.4592 13.482 11.8771 13.561 12.1746C13.649 12.5063 13.6973 12.6883 14.1407 12.2024C14.9818 11.2807 15.4534 10.0544 15.4982 8.70216ZM5.6993 7.50001C5.28561 7.50001 5.24998 8.18292 5.24998 8.56706C5.24998 11.1106 7.25548 13.1938 9.85915 13.4988C10.3851 13.5443 10.4223 12.2778 9.71098 12.1612C8.9997 12.0446 8.54225 11.801 8.54225 11.0542C8.54225 11.0542 8.53132 10.382 8.37033 10.1793C8.3059 10.0982 8.07743 9.96671 7.80966 9.81258C7.4084 9.58162 6.9189 9.29987 6.76089 9.06073C6.68324 8.94322 6.5951 8.75943 6.49879 8.55862C6.2683 8.07804 5.99107 7.50001 5.6993 7.50001Z" />
<path d="M9.0609 18.318C9.14458 18.067 8.97721 17.8159 8.72617 17.7322C7.05253 17.3138 5.46257 16.477 4.29102 15.3054C3.95629 14.9707 3.95629 14.4686 4.29102 14.1339C4.62575 13.7992 5.12784 13.7992 5.46257 14.1339C8.47512 17.0628 13.245 16.9791 16.0902 13.9665C18.9354 11.0377 18.9354 6.43515 16.0902 3.50628C15.7555 3.17155 15.7555 2.66946 16.0902 2.33473C16.4249 2.00001 16.927 2.00001 17.2617 2.33473C20.8601 5.93306 20.8601 11.7071 17.2617 15.3054C15.9228 16.5607 14.2492 17.4812 12.4082 17.8159C12.1571 17.8996 12.0734 18.067 12.0734 18.318V18.4017L12.7429 20.0753C12.8266 20.2427 12.994 20.3264 13.1613 20.3264H16.0065C16.5086 20.3264 16.8433 20.6611 16.8433 21.1632C16.8433 21.6653 16.5086 22 16.0065 22H5.12784C4.62575 22 4.29102 21.6653 4.29102 21.1632C4.29102 20.6611 4.62575 20.3264 5.12784 20.3264H7.97303C8.14039 20.3264 8.30776 20.2427 8.39144 20.0753L9.0609 18.318Z" />
</svg>