<!--character:7906-->
  <svg width="24" height="24" viewBox="0 0 24 24" >
<path d="M11.331 11.5791L11.269 17.325C11.269 17.5504 11.1799 17.7666 11.0212 17.926C10.8625 18.0854 10.6473 18.175 10.4229 18.175H4.53885C4.31444 18.175 4.09922 18.0854 3.94053 17.926C3.78185 17.7666 3.6927 17.5504 3.6927 17.325V7.975C3.6927 7.74957 3.78185 7.53337 3.94053 7.37397C4.09922 7.21456 4.31444 7.12501 4.53885 7.12501H11.2377C11.2925 7.12615 11.3456 7.10541 11.3852 7.06733C11.4249 7.02925 11.4479 6.97694 11.4492 6.92186C11.4577 6.51726 11.4492 5.85547 11.4834 5.19727C11.4839 5.16924 11.4787 5.1414 11.4682 5.11541C11.4578 5.08942 11.4422 5.06581 11.4225 5.04599C11.4027 5.02616 11.3792 5.01053 11.3534 5.00001C11.3275 4.98949 11.2998 4.98431 11.2719 4.98477L4.11578 5.00001C3.55474 5.00001 3.01668 5.22389 2.61997 5.62241C2.22326 6.02092 2.00039 6.56142 2.00039 7.12501V19.875C2.00039 20.1541 2.05511 20.4304 2.16141 20.6882C2.26772 20.946 2.42354 21.1803 2.61997 21.3776C2.8164 21.5749 3.0496 21.7315 3.30625 21.8382C3.5629 21.945 3.83798 22 4.11578 22H7.50039H10.8459C11.1237 22 11.3988 21.945 11.6555 21.8382C11.9121 21.7315 12.1453 21.5749 12.3417 21.3776C12.5382 21.1803 12.694 20.946 12.8003 20.6882C12.9066 20.4304 12.9613 20.1541 12.9613 19.875L13.0233 11.5791C13.0233 11.5228 13.001 11.4687 12.9613 11.4289C12.9217 11.389 12.8679 11.3666 12.8117 11.3666H11.5425C11.4864 11.3666 11.4326 11.389 11.3929 11.4289C11.3533 11.4687 11.331 11.5228 11.331 11.5791Z" />
<path d="M20.7154 9.1064C20.1228 8.52296 19.7786 7.74803 19.7504 6.9336V5.6C19.7504 4.64522 19.3553 3.72954 18.652 3.05441C17.9488 2.37928 16.9949 2 16.0004 2C15.0058 2 14.052 2.37928 13.3487 3.05441C12.6455 3.72954 12.2504 4.64522 12.2504 5.6V6.9336C12.2223 7.74784 11.8781 8.52258 11.2854 9.1056L11.0837 9.36C11.0373 9.41943 11.009 9.49009 11.0021 9.56408C10.9951 9.63806 11.0098 9.71244 11.0444 9.77888C11.079 9.84533 11.1322 9.9012 11.198 9.94026C11.2638 9.97931 11.3397 10 11.417 10H20.5837C20.6611 10 20.7369 9.97931 20.8028 9.94026C20.8686 9.9012 20.9218 9.84533 20.9564 9.77888C20.991 9.71244 21.0056 9.63806 20.9987 9.56408C20.9917 9.49009 20.9635 9.41943 20.917 9.36L20.7154 9.1064Z" />
<path d="M17.0804 11H14.9203C14.8556 10.9992 14.7916 11.0162 14.7334 11.0496C14.6751 11.0831 14.6241 11.1321 14.5844 11.1929C14.5291 11.2816 14.4996 11.3893 14.5004 11.4997C14.5004 11.5418 14.5046 11.5838 14.513 11.6247C14.5972 12.0179 14.789 12.3667 15.0583 12.6157C15.3276 12.8648 15.6589 13 16 13C16.341 13 16.6723 12.8648 16.9416 12.6157C17.2109 12.3667 17.4028 12.0179 17.4869 11.6247C17.496 11.5839 17.5005 11.5419 17.5004 11.4997C17.5008 11.3894 17.4714 11.2818 17.4164 11.1929C17.3767 11.1321 17.3257 11.0831 17.2674 11.0496C17.2091 11.0162 17.1451 10.9992 17.0804 11Z" />
</svg>