<!-- character:297:5 -->
  <svg width="20" height="20" viewBox="0 0 20 20" >
<path d="M9.44212 9.64937L9.39048 14.4376C9.39048 14.6254 9.31619 14.8056 9.18396 14.9385C9.05172 15.0713 8.87237 15.1459 8.68536 15.1459H3.78201C3.595 15.1459 3.41565 15.0713 3.28341 14.9385C3.15117 14.8056 3.07688 14.6254 3.07688 14.4376V6.64592C3.07688 6.45806 3.15117 6.27789 3.28341 6.14505C3.41565 6.01222 3.595 5.93759 3.78201 5.93759H9.36438C9.41008 5.93854 9.4543 5.92126 9.48734 5.88953C9.52038 5.8578 9.53955 5.8142 9.54066 5.7683C9.54772 5.43113 9.54066 4.87964 9.56914 4.33114C9.56952 4.30778 9.56522 4.28458 9.5565 4.26293C9.54778 4.24127 9.5348 4.22159 9.51836 4.20507C9.50191 4.18855 9.48233 4.17552 9.46077 4.16676C9.43921 4.158 9.41611 4.15368 9.39286 4.15406L3.42945 4.16676C2.96192 4.16676 2.51354 4.35333 2.18294 4.68542C1.85235 5.01752 1.66663 5.46794 1.66663 5.93759V16.5626C1.66663 16.7951 1.71222 17.0254 1.80081 17.2403C1.8894 17.4551 2.01925 17.6503 2.18294 17.8148C2.34664 17.9792 2.54097 18.1096 2.75484 18.1986C2.96872 18.2876 3.19795 18.3334 3.42945 18.3334H6.24996H9.03792C9.26942 18.3334 9.49865 18.2876 9.71252 18.1986C9.9264 18.1096 10.1207 17.9792 10.2844 17.8148C10.4481 17.6503 10.578 17.4551 10.6666 17.2403C10.7551 17.0254 10.8007 16.7951 10.8007 16.5626L10.8524 9.64937C10.8524 9.60241 10.8338 9.55736 10.8007 9.52415C10.7677 9.49094 10.7228 9.47229 10.6761 9.47229H9.6184C9.57165 9.47229 9.52681 9.49094 9.49375 9.52415C9.46069 9.55736 9.44212 9.60241 9.44212 9.64937Z" />
<path d="M17.2624 7.58875C16.7686 7.10255 16.4818 6.45678 16.4583 5.77808V4.66675C16.4583 3.8711 16.129 3.10804 15.543 2.54543C14.9569 1.98282 14.1621 1.66675 13.3333 1.66675C12.5045 1.66675 11.7096 1.98282 11.1236 2.54543C10.5375 3.10804 10.2083 3.8711 10.2083 4.66675V5.77808C10.1849 6.45662 9.89808 7.10224 9.40412 7.58808L9.23606 7.80008C9.19737 7.84961 9.17381 7.90849 9.16802 7.97015C9.16223 8.0318 9.17443 8.09378 9.20327 8.14915C9.23211 8.20452 9.27644 8.25109 9.33129 8.28363C9.38614 8.31618 9.44935 8.33342 9.51384 8.33342H17.1527C17.2172 8.33342 17.2804 8.31618 17.3353 8.28363C17.3901 8.25109 17.4345 8.20452 17.4633 8.14915C17.4921 8.09378 17.5043 8.0318 17.4985 7.97015C17.4928 7.90849 17.4692 7.84961 17.4305 7.80008L17.2624 7.58875Z" />
<path d="M14.2333 9.16677H12.4332C12.3793 9.16609 12.326 9.18024 12.2774 9.20812C12.2289 9.23601 12.1864 9.27686 12.1533 9.32751C12.1072 9.40141 12.0826 9.49118 12.0833 9.58319C12.0833 9.61827 12.0868 9.65322 12.0938 9.6873C12.1639 10.015 12.3238 10.3056 12.5482 10.5132C12.7726 10.7207 13.0487 10.8334 13.3329 10.8334C13.6171 10.8334 13.8933 10.7207 14.1177 10.5132C14.3421 10.3056 14.5019 10.015 14.5721 9.6873C14.5796 9.65333 14.5834 9.61833 14.5833 9.58319C14.5836 9.49123 14.5591 9.40158 14.5133 9.32751C14.4802 9.27686 14.4377 9.23601 14.3891 9.20812C14.3406 9.18024 14.2873 9.16609 14.2333 9.16677Z" />
</svg>