<!--character:5083-->
  <svg width="24" height="24" viewBox="0 0 24 24" >
<path d="M11.3306 11.5792L11.2686 17.325C11.2686 17.5504 11.1795 17.7666 11.0208 17.9261C10.8621 18.0855 10.6469 18.175 10.4225 18.175H4.53848C4.31406 18.175 4.09884 18.0855 3.94016 17.9261C3.78147 17.7666 3.69232 17.5504 3.69232 17.325V7.97501C3.69232 7.74958 3.78147 7.53338 3.94016 7.37397C4.09884 7.21457 4.31406 7.12501 4.53848 7.12501H11.2373C11.2922 7.12616 11.3452 7.10542 11.3849 7.06734C11.4245 7.02926 11.4475 6.97695 11.4489 6.92187C11.4573 6.51727 11.4489 5.85548 11.483 5.19728C11.4835 5.16925 11.4783 5.14141 11.4679 5.11542C11.4574 5.08943 11.4418 5.06582 11.4221 5.046C11.4024 5.02617 11.3789 5.01054 11.353 5.00002C11.3271 4.9895 11.2994 4.98432 11.2715 4.98478L4.1154 5.00002C3.55436 5.00002 3.01631 5.2239 2.6196 5.62242C2.22289 6.02093 2.00002 6.56143 2.00002 7.12501V19.875C2.00002 20.1541 2.05473 20.4304 2.16104 20.6882C2.26735 20.946 2.42317 21.1803 2.6196 21.3776C2.81603 21.5749 3.04923 21.7315 3.30588 21.8382C3.56253 21.945 3.8376 22 4.1154 22H7.50002H10.8456C11.1234 22 11.3984 21.945 11.6551 21.8382C11.9117 21.7315 12.1449 21.5749 12.3414 21.3776C12.5378 21.1803 12.6936 20.946 12.7999 20.6882C12.9062 20.4304 12.961 20.1541 12.961 19.875L13.0229 11.5792C13.0229 11.5228 13.0006 11.4687 12.961 11.4289C12.9213 11.389 12.8675 11.3667 12.8114 11.3667H11.5421C11.486 11.3667 11.4322 11.389 11.3926 11.4289C11.3529 11.4687 11.3306 11.5228 11.3306 11.5792Z" />
<path d="M20.715 9.10641C20.1224 8.52297 19.7782 7.74804 19.75 6.93361V5.60001C19.75 4.64523 19.3549 3.72955 18.6517 3.05442C17.9484 2.37929 16.9946 2.00001 16 2.00001C15.0054 2.00001 14.0516 2.37929 13.3484 3.05442C12.6451 3.72955 12.25 4.64523 12.25 5.60001V6.93361C12.222 7.74785 11.8778 8.52259 11.285 9.10561L11.0833 9.36001C11.0369 9.41943 11.0086 9.4901 11.0017 9.56408C10.9947 9.63807 11.0094 9.71245 11.044 9.77889C11.0786 9.84533 11.1318 9.90121 11.1976 9.94027C11.2634 9.97932 11.3393 10 11.4167 10H20.5833C20.6607 10 20.7366 9.97932 20.8024 9.94027C20.8682 9.90121 20.9214 9.84533 20.956 9.77889C20.9906 9.71245 21.0053 9.63807 20.9983 9.56408C20.9914 9.4901 20.9631 9.41943 20.9167 9.36001L20.715 9.10641Z" />
<path d="M17.0801 11H14.9199C14.8552 10.9992 14.7913 11.0162 14.733 11.0497C14.6747 11.0831 14.6237 11.1321 14.584 11.1929C14.5287 11.2816 14.4992 11.3893 14.5 11.4997C14.5 11.5418 14.5042 11.5838 14.5126 11.6247C14.5968 12.018 14.7886 12.3667 15.0579 12.6157C15.3272 12.8648 15.6585 13 15.9996 13C16.3406 13 16.672 12.8648 16.9413 12.6157C17.2105 12.3667 17.4024 12.018 17.4866 11.6247C17.4956 11.5839 17.5001 11.5419 17.5 11.4997C17.5004 11.3894 17.471 11.2818 17.416 11.1929C17.3763 11.1321 17.3253 11.0831 17.267 11.0497C17.2088 11.0162 17.1448 10.9992 17.0801 11Z" />
</svg>