<!--character:5971-->
  <svg width="20" height="20" viewBox="0 0 20 20" >
<path d="M9.44248 9.64929L9.39085 14.4375C9.39085 14.6254 9.31656 14.8055 9.18432 14.9384C9.05209 15.0712 8.87273 15.1458 8.68572 15.1458H3.78238C3.59537 15.1458 3.41601 15.0712 3.28378 14.9384C3.15154 14.8055 3.07725 14.6254 3.07725 14.4375V6.64584C3.07725 6.45798 3.15154 6.27781 3.28378 6.14497C3.41601 6.01213 3.59537 5.9375 3.78238 5.9375H9.36475C9.41045 5.93846 9.45466 5.92117 9.4877 5.88944C9.52074 5.85771 9.53992 5.81412 9.54103 5.76821C9.54808 5.43105 9.54103 4.87955 9.56951 4.33106C9.56989 4.3077 9.56559 4.2845 9.55687 4.26284C9.54814 4.24118 9.53517 4.22151 9.51872 4.20499C9.50228 4.18847 9.48269 4.17544 9.46113 4.16668C9.43957 4.15791 9.41648 4.15359 9.39323 4.15398L3.42981 4.16668C2.96228 4.16668 2.5139 4.35325 2.18331 4.68534C1.85272 5.01744 1.66699 5.46785 1.66699 5.9375V16.5625C1.66699 16.795 1.71259 17.0253 1.80118 17.2402C1.88977 17.455 2.01962 17.6502 2.18331 17.8147C2.347 17.9791 2.54134 18.1095 2.75521 18.1985C2.96909 18.2875 3.19832 18.3333 3.42981 18.3333H6.25033H9.03829C9.26978 18.3333 9.49901 18.2875 9.71289 18.1985C9.92676 18.1095 10.1211 17.9791 10.2848 17.8147C10.4485 17.6502 10.5783 17.455 10.6669 17.2402C10.7555 17.0253 10.8011 16.795 10.8011 16.5625L10.8527 9.64929C10.8527 9.60232 10.8342 9.55728 10.8011 9.52407C10.768 9.49086 10.7232 9.4722 10.6765 9.4722H9.61876C9.57201 9.4722 9.52717 9.49086 9.49411 9.52407C9.46106 9.55728 9.44248 9.60232 9.44248 9.64929Z" />
<path d="M17.2628 7.58867C16.769 7.10247 16.4822 6.45669 16.4586 5.778V4.66666C16.4586 3.87101 16.1294 3.10795 15.5434 2.54534C14.9573 1.98273 14.1624 1.66666 13.3336 1.66666C12.5048 1.66666 11.71 1.98273 11.1239 2.54534C10.5379 3.10795 10.2086 3.87101 10.2086 4.66666V5.778C10.1853 6.45653 9.89844 7.10215 9.40448 7.588L9.23643 7.8C9.19774 7.84952 9.17418 7.90841 9.16838 7.97006C9.16259 8.03172 9.1748 8.0937 9.20364 8.14907C9.23248 8.20444 9.2768 8.251 9.33166 8.28355C9.38651 8.31609 9.44972 8.33333 9.5142 8.33333H17.1531C17.2176 8.33333 17.2808 8.31609 17.3356 8.28355C17.3905 8.251 17.4348 8.20444 17.4637 8.14907C17.4925 8.0937 17.5047 8.03172 17.4989 7.97006C17.4931 7.90841 17.4696 7.84952 17.4309 7.8L17.2628 7.58867Z" />
<path d="M14.2337 9.16669H12.4336C12.3797 9.16601 12.3264 9.18016 12.2778 9.20804C12.2292 9.23592 12.1868 9.27678 12.1536 9.32743C12.1076 9.40133 12.083 9.49109 12.0837 9.58311C12.0837 9.61818 12.0872 9.65313 12.0942 9.68721C12.1643 10.015 12.3242 10.3056 12.5486 10.5131C12.773 10.7207 13.0491 10.8333 13.3333 10.8333C13.6175 10.8333 13.8936 10.7207 14.118 10.5131C14.3424 10.3056 14.5023 10.015 14.5724 9.68721C14.58 9.65324 14.5838 9.61824 14.5836 9.58311C14.584 9.49115 14.5595 9.4015 14.5137 9.32743C14.4806 9.27678 14.4381 9.23592 14.3895 9.20804C14.3409 9.18016 14.2876 9.16601 14.2337 9.16669Z" />
</svg>