<!--character:241:550:2498-->
  <svg width="24" height="24" viewBox="0 0 24 24" >
<path d="M11.3306 11.5791L11.2686 17.325C11.2686 17.5504 11.1795 17.7666 11.0208 17.926C10.8621 18.0855 10.6469 18.175 10.4225 18.175H4.53846C4.31405 18.175 4.09882 18.0855 3.94014 17.926C3.78146 17.7666 3.69231 17.5504 3.69231 17.325V7.97501C3.69231 7.74957 3.78146 7.53337 3.94014 7.37397C4.09882 7.21456 4.31405 7.12501 4.53846 7.12501H11.2373C11.2921 7.12615 11.3452 7.10541 11.3849 7.06733C11.4245 7.02926 11.4475 6.97695 11.4488 6.92186C11.4573 6.51726 11.4488 5.85547 11.483 5.19727C11.4835 5.16924 11.4783 5.1414 11.4678 5.11541C11.4574 5.08942 11.4418 5.06581 11.4221 5.04599C11.4023 5.02617 11.3788 5.01053 11.353 5.00001C11.3271 4.9895 11.2994 4.98431 11.2715 4.98477L4.11538 5.00001C3.55435 5.00001 3.01629 5.2239 2.61958 5.62241C2.22287 6.02093 2 6.56142 2 7.12501V19.875C2 20.1541 2.05472 20.4304 2.16102 20.6882C2.26733 20.946 2.42315 21.1803 2.61958 21.3776C2.81601 21.5749 3.04921 21.7315 3.30586 21.8382C3.56251 21.945 3.83759 22 4.11538 22H7.5H10.8456C11.1234 22 11.3984 21.945 11.6551 21.8382C11.9117 21.7315 12.1449 21.5749 12.3414 21.3776C12.5378 21.1803 12.6936 20.946 12.7999 20.6882C12.9062 20.4304 12.9609 20.1541 12.9609 19.875L13.0229 11.5791C13.0229 11.5228 13.0006 11.4687 12.9609 11.4289C12.9213 11.389 12.8675 11.3666 12.8114 11.3666H11.5421C11.486 11.3666 11.4322 11.389 11.3925 11.4289C11.3529 11.4687 11.3306 11.5228 11.3306 11.5791Z" />
<path d="M20.715 9.1064C20.1224 8.52297 19.7782 7.74804 19.75 6.9336V5.6C19.75 4.64522 19.3549 3.72955 18.6516 3.05442C17.9484 2.37928 16.9945 2 16 2C15.0054 2 14.0516 2.37928 13.3483 3.05442C12.6451 3.72955 12.25 4.64522 12.25 5.6V6.9336C12.2219 7.74784 11.8777 8.52258 11.285 9.1056L11.0833 9.36C11.0369 9.41943 11.0086 9.49009 11.0017 9.56408C10.9947 9.63806 11.0094 9.71244 11.044 9.77889C11.0786 9.84533 11.1318 9.90121 11.1976 9.94026C11.2634 9.97931 11.3393 10 11.4167 10H20.5833C20.6607 10 20.7366 9.97931 20.8024 9.94026C20.8682 9.90121 20.9214 9.84533 20.956 9.77889C20.9906 9.71244 21.0053 9.63806 20.9983 9.56408C20.9914 9.49009 20.9631 9.41943 20.9167 9.36L20.715 9.1064Z" />
<path d="M17.0801 11H14.9199C14.8552 10.9992 14.7912 11.0162 14.733 11.0496C14.6747 11.0831 14.6237 11.1321 14.584 11.1929C14.5287 11.2816 14.4992 11.3893 14.5 11.4997C14.5 11.5418 14.5042 11.5838 14.5126 11.6247C14.5968 12.0179 14.7886 12.3667 15.0579 12.6157C15.3272 12.8648 15.6585 13 15.9996 13C16.3406 13 16.672 12.8648 16.9412 12.6157C17.2105 12.3667 17.4024 12.0179 17.4865 11.6247C17.4956 11.5839 17.5001 11.5419 17.5 11.4997C17.5004 11.3894 17.471 11.2818 17.416 11.1929C17.3763 11.1321 17.3253 11.0831 17.267 11.0496C17.2087 11.0162 17.1448 10.9992 17.0801 11Z" />
</svg>