<!--character:1211-->
  <svg width="24" height="24" viewBox="0 0 24 24" >
<path d="M19.4996 8.48064C19.4123 8.53357 17.3338 9.65045 17.3338 12.1268C17.4318 14.951 19.9567 15.9414 20 15.9414C19.9567 15.9943 19.6188 17.2906 18.6179 18.6494C17.8236 19.8199 16.942 21 15.6032 21C14.3297 21 13.8726 20.2199 12.4032 20.2199C10.8252 20.2199 10.3787 21 9.17052 21C7.83175 21 6.88481 19.7567 6.04718 18.5972C4.95898 17.0796 4.03404 14.6981 4.00139 12.4114C3.97939 11.1996 4.21931 10.0085 4.82837 8.99682C5.688 7.58439 7.22269 6.62559 8.89865 6.59398C10.1828 6.55205 11.3256 7.44762 12.1093 7.44762C12.8603 7.44762 14.2644 6.59398 15.8531 6.59398C16.5388 6.59467 18.3674 6.79467 19.4996 8.48064ZM12.0007 6.35205C11.7721 5.24548 12.4032 4.13891 12.9909 3.43304C13.742 2.5794 14.9281 2 15.951 2C16.0163 3.10657 15.6025 4.19183 14.8628 4.98224C14.1991 5.83588 13.0562 6.47851 12.0007 6.35205Z" />
</svg>