<!--character:E199-->
<svg width="24" height="24" viewBox="0 0 24 24" xmlns="http://www.w3.org/2000/svg"><path d="M19.4996 8.48065c-.0874.05292-2.1658 1.1698-2.1658 3.64615.098 2.8242 2.6229 3.8146 2.6662 3.8146-.0433.0529-.3812 1.3492-1.3821 2.708C17.8236 19.8199 16.942 21 15.6032 21c-1.2735 0-1.7306-.7801-3.2-.7801-1.578 0-2.0245.7801-3.23269.7801-1.33878 0-2.28572-1.2433-3.12334-2.4028-1.0882-1.5176-2.01314-3.8991-2.04579-6.1858-.02201-1.2118.21792-2.4029.82697-3.41458.85963-1.41243 2.39433-2.37122 4.07029-2.40284 1.28416-.04193 2.42696.85364 3.21066.85364.751 0 2.1551-.85364 3.7437-.85364.6858.00069 2.5143.2007 3.6466 1.88667zm-7.4989-2.1286c-.2286-1.10657.4025-2.21314.9902-2.91901C13.742 2.5794 14.9281 2 15.951 2c.0653 1.10657-.3485 2.19183-1.0882 2.98224-.6637.85364-1.8066 1.49627-2.8621 1.36981z" /></svg>
