<!--character:8506-->
  <svg width="20" height="20" viewBox="0 0 20 20" >
<path d="M16.2496 7.0672C16.1769 7.11131 14.4448 8.04204 14.4448 10.1057C14.5265 12.4592 16.6306 13.2845 16.6667 13.2845C16.6306 13.3286 16.349 14.4088 15.5149 15.5412C14.853 16.5166 14.1183 17.5 13.0027 17.5C11.9414 17.5 11.5605 16.8499 10.336 16.8499C9.02099 16.8499 8.64891 17.5 7.6421 17.5C6.52646 17.5 5.73734 16.4639 5.03932 15.4976C4.13248 14.233 3.3617 12.2484 3.33449 10.3428C3.31615 9.33304 3.5161 8.34045 4.02364 7.49735C4.74 6.32033 6.01891 5.52133 7.41554 5.49498C8.48564 5.46004 9.43803 6.20635 10.0911 6.20635C10.7169 6.20635 11.887 5.49498 13.2109 5.49498C13.7823 5.49555 15.3061 5.66223 16.2496 7.0672ZM10.0006 5.29337C9.81011 4.37123 10.336 3.44909 10.8258 2.86087C11.4516 2.1495 12.4401 1.66666 13.2925 1.66666C13.3469 2.58881 13.0021 3.49319 12.3857 4.15186C11.8326 4.86323 10.8802 5.39876 10.0006 5.29337Z" />
</svg>