<!-- character:122:58 -->
  <svg width="20" height="20" viewBox="0 0 20 20" >
<path d="M16.2496 7.06717C16.1769 7.11127 14.4448 8.042 14.4448 10.1056C14.5265 12.4591 16.6306 13.2845 16.6667 13.2845C16.6306 13.3286 16.349 14.4088 15.5149 15.5411C14.853 16.5165 14.1183 17.5 13.0026 17.5C11.9414 17.5 11.5605 16.8499 10.336 16.8499C9.02097 16.8499 8.64889 17.5 7.64209 17.5C6.52644 17.5 5.73732 16.4638 5.0393 15.4976C4.13247 14.2329 3.36169 12.2483 3.33448 10.3428C3.31614 9.333 3.51608 8.34041 4.02362 7.49731C4.73998 6.32029 6.0189 5.52129 7.41553 5.49494C8.48563 5.46001 9.43801 6.20631 10.0911 6.20631C10.7169 6.20631 11.887 5.49494 13.2109 5.49494C13.7823 5.49552 15.3061 5.66219 16.2496 7.06717ZM10.0006 5.29333C9.81009 4.37119 10.336 3.44905 10.8258 2.86083C11.4516 2.14946 12.4401 1.66663 13.2925 1.66663C13.3469 2.58877 13.0021 3.49315 12.3857 4.15183C11.8326 4.86319 10.8802 5.39872 10.0006 5.29333Z" />
</svg>