<!--category:navigation-->
<!--character:E09F-->
<svg width="24" height="24" viewBox="0 0 24 24" xmlns="http://www.w3.org/2000/svg"><path d="M11.892869 18.195034l.112894.007012c.45882 0 .837451-.343336.892987-.787106l.007013-.112894-.000763-8.393 2.418991 2.40993c.307612.261325.755182.285883 1.089679.05979l.096703-.075362c.340287-.303998.395015-.80744.145658-1.17442l-.07556-.09645-3.864952-3.933012c-.330288-.367777-.888393-.396997-1.254828-.086929l-4.04836 4.019704c-.333805.369084-.304418.938179.065638 1.271107.339217.305185.84694.305988 1.18632.019713L11.105 8.955047l.000763 8.347c0 .45882.343336.837451.787106.892987z"/></svg>
