<!--character:2781-->
<svg width="24" height="24" viewBox="0 0 24 24">
  <path d="M11.8929 18.195L12.0058 18.202C12.4647 18.202 12.8433 17.8587 12.8988 17.4149L12.9058 17.302L12.9051 8.90905L15.3241 11.319C15.6317 11.5803 16.0792 11.6049 16.4137 11.3788L16.5105 11.3034C16.8507 10.9994 16.9055 10.496 16.6561 10.129L16.5805 10.0325L12.7156 6.09952C12.3853 5.73175 11.8272 5.70253 11.4608 6.0126L7.41241 10.0323C7.0786 10.4014 7.10799 10.9705 7.47805 11.3034C7.81726 11.6086 8.32499 11.6094 8.66437 11.3231L11.1051 8.95505L11.1058 17.302C11.1058 17.7609 11.4492 18.1395 11.8929 18.195Z" />
</svg>
