<!--character:9572-->
  <svg width="24" height="24" viewBox="0 0 24 24" >
<path d="M11.8929 5.80701L12.0058 5.79999C12.4646 5.79999 12.8432 6.14333 12.8988 6.5871L12.9058 6.69999L12.905 15.093L15.324 12.6831C15.6316 12.4217 16.0792 12.3972 16.4137 12.6233L16.5104 12.6986C16.8507 13.0026 16.9054 13.5061 16.656 13.8731L16.5805 13.9695L12.7155 17.9025C12.3852 18.2703 11.8271 18.2995 11.4607 17.9894L7.41233 13.9697C7.07853 13.6007 7.10791 13.0316 7.47797 12.6986C7.81719 12.3935 8.32491 12.3926 8.66429 12.6789L11.105 15.047L11.1058 6.69999C11.1058 6.24117 11.4491 5.86254 11.8929 5.80701L12.0058 5.79999L11.8929 5.80701Z" />
</svg>