<!-- character:0:172 -->
  <svg width="20" height="20" viewBox="0 0 20 20" >
<path d="M9.91067 4.83922L10.0047 4.83337C10.3871 4.83337 10.7026 5.11949 10.7489 5.4893L10.7547 5.58337L10.7541 12.5775L12.7699 10.5693C13.0263 10.3515 13.3993 10.331 13.678 10.5194L13.7586 10.5822C14.0422 10.8356 14.0878 11.2551 13.88 11.5609L13.817 11.6413L10.5962 14.9188C10.321 15.2253 9.85588 15.2496 9.55052 14.9913L6.17688 11.6415C5.89871 11.3339 5.9232 10.8597 6.23158 10.5822C6.51426 10.3279 6.93737 10.3273 7.22018 10.5658L9.25411 12.5392L9.25475 5.58337C9.25475 5.20102 9.54086 4.8855 9.91067 4.83922L10.0047 4.83337L9.91067 4.83922Z" />
</svg>