<!--character:9971-->
  <svg width="20" height="20" viewBox="0 0 20 20" >
<path d="M9.91079 15.1625L10.0049 15.1684C10.3872 15.1684 10.7027 14.8823 10.749 14.5125L10.7549 14.4184L10.7542 7.42421L12.7701 9.43248C13.0264 9.65025 13.3994 9.67072 13.6781 9.48231L13.7587 9.41951C14.0423 9.16617 14.0879 8.74664 13.8801 8.44082L13.8171 8.36045L10.5963 5.08294C10.3211 4.77646 9.856 4.75211 9.55064 5.0105L6.17701 8.36025C5.89884 8.66782 5.92333 9.14207 6.23171 9.41951C6.51439 9.67383 6.93749 9.6745 7.22031 9.43593L9.25423 7.46254L9.25487 14.4184C9.25487 14.8007 9.54098 15.1163 9.91079 15.1625Z" />
</svg>