<!--character:62:550:216-->
  <svg width="24" height="24" viewBox="0 0 24 24" >
<path d="M11.8929 18.1951L12.0058 18.2021C12.4646 18.2021 12.8433 17.8588 12.8988 17.415L12.9058 17.3021L12.9051 8.9091L15.324 11.319C15.6317 11.5804 16.0792 11.6049 16.4137 11.3788L16.5104 11.3035C16.8507 10.9995 16.9054 10.496 16.6561 10.129L16.5805 10.0326L12.7156 6.09957C12.3853 5.73179 11.8272 5.70257 11.4607 6.01264L7.41238 10.0323C7.07858 10.4014 7.10797 10.9705 7.47802 11.3035C7.81724 11.6086 8.32496 11.6094 8.66434 11.3232L11.1051 8.9551L11.1058 17.3021C11.1058 17.7609 11.4492 18.1395 11.8929 18.1951Z" />
</svg>