<!--character:7613-->
  <svg width="24" height="24" viewBox="0 0 24 24" >
<path d="M11.8928 5.80706L12.0057 5.80005C12.4645 5.80005 12.8431 6.14339 12.8987 6.58715L12.9057 6.70005L12.9049 15.0931L15.3239 12.6831C15.6315 12.4218 16.0791 12.3972 16.4136 12.6233L16.5103 12.6987C16.8506 13.0027 16.9053 13.5061 16.656 13.8731L16.5804 13.9696L12.7155 17.9026C12.3852 18.2704 11.8271 18.2996 11.4606 17.9895L7.41226 13.9698C7.07846 13.6007 7.10784 13.0316 7.4779 12.6987C7.81712 12.3935 8.32484 12.3927 8.66422 12.679L11.1049 15.047L11.1057 6.70005C11.1057 6.24123 11.449 5.8626 11.8928 5.80706L12.0057 5.80005L11.8928 5.80706Z" />
</svg>