<!-- character:0:176 -->
  <svg width="20" height="20" viewBox="0 0 20 20" >
<path d="M9.91067 15.1626L10.0047 15.1684C10.3871 15.1684 10.7026 14.8823 10.7489 14.5125L10.7547 14.4184L10.7541 7.42425L12.7699 9.43252C13.0263 9.65029 13.3993 9.67076 13.678 9.48235L13.7586 9.41954C14.0422 9.16621 14.0878 8.74668 13.88 8.44086L13.817 8.36048L10.5962 5.08298C10.321 4.7765 9.85588 4.75214 9.55052 5.01054L6.17688 8.36029C5.89871 8.66786 5.9232 9.1421 6.23158 9.41954C6.51426 9.67386 6.93737 9.67453 7.22018 9.43597L9.25411 7.46258L9.25475 14.4184C9.25475 14.8008 9.54086 15.1163 9.91067 15.1626Z" />
</svg>