<!--character:8457-->
  <svg width="20" height="20" viewBox="0 0 20 20" >
<path d="M9.91079 4.83918L10.0049 4.83334C10.3872 4.83334 10.7027 5.11945 10.749 5.48926L10.7549 5.58334L10.7542 12.5775L12.7701 10.5692C13.0264 10.3515 13.3994 10.331 13.6781 10.5194L13.7587 10.5822C14.0423 10.8355 14.0879 11.2551 13.8801 11.5609L13.8171 11.6413L10.5963 14.9188C10.3211 15.2253 9.856 15.2496 9.55064 14.9912L6.17701 11.6415C5.89884 11.3339 5.92333 10.8596 6.23171 10.5822C6.51439 10.3279 6.93749 10.3272 7.22031 10.5658L9.25423 12.5392L9.25487 5.58334C9.25487 5.20098 9.54098 4.88546 9.91079 4.83918L10.0049 4.83334L9.91079 4.83918Z" />
</svg>