<!--character:5972-->
  <svg width="24" height="24" viewBox="0 0 24 24" >
<path d="M11.8929 5.80702L12.0058 5.8C12.4647 5.8 12.8433 6.14334 12.8988 6.58711L12.9058 6.7L12.9051 15.093L15.3241 12.6831C15.6317 12.4217 16.0792 12.3972 16.4137 12.6233L16.5105 12.6986C16.8507 13.0026 16.9055 13.5061 16.6561 13.8731L16.5805 13.9695L12.7156 17.9025C12.3853 18.2703 11.8272 18.2995 11.4608 17.9895L7.41241 13.9698C7.0786 13.6007 7.10799 13.0316 7.47805 12.6986C7.81726 12.3935 8.32499 12.3927 8.66437 12.6789L11.1051 15.047L11.1058 6.7C11.1058 6.24118 11.4492 5.86255 11.8929 5.80702L12.0058 5.8L11.8929 5.80702Z" />
</svg>