<!-- character:0:1901 -->
  <svg width="20" height="20" viewBox="0 0 20 20" >
<path   d="M2.72726 3.2583H17.2727C17.8788 3.2583 18.3333 3.71285 18.3333 4.31891V8.10678C18.3333 8.71285 17.8788 9.16739 17.2727 9.16739H15.7576C15.6818 9.16739 15.6061 9.09163 15.6061 9.01588L14.9242 6.97042V6.89466C14.9242 6.81891 15 6.74315 15.0757 6.74315H15.9091C16.2879 6.74315 16.5909 6.44012 16.5909 6.06133C16.5909 5.68254 16.2879 5.37951 15.9091 5.37951H4.0909C3.71211 5.37951 3.40908 5.68254 3.40908 6.06133C3.40908 6.44012 3.71211 6.74315 4.0909 6.74315H4.92423H4.99999C5.07575 6.74315 5.07575 6.89466 5.07575 6.97042C4.84848 7.57648 4.6212 8.25829 4.39393 8.94011L4.39393 8.94012C4.39393 9.01588 4.31817 9.09163 4.24241 9.09163H2.72726C2.1212 9.09163 1.66666 8.63709 1.66666 8.03103V4.24315C1.66666 3.71285 2.1212 3.2583 2.72726 3.2583ZM13.4848 7.12194C13.4848 7.04618 13.4091 7.04618 13.3333 7.04618H6.66666C6.5909 7.04618 6.51514 7.12194 6.51514 7.12194C5.37878 10.0765 4.84847 13.2583 4.84847 16.3644C4.84847 16.5916 4.99999 16.7431 5.22726 16.7431H14.9242C15.1515 16.7431 15.303 16.5916 15.303 16.3644C15.1515 13.2583 14.6212 10.1522 13.4848 7.12194ZM10.7576 14.3189C10.6818 14.3189 10.606 14.3947 10.606 14.4704V14.6977C10.606 15.0007 10.3788 15.228 10.0757 15.228C9.77272 15.228 9.54544 15.0007 9.54544 14.6977V14.5462C9.54544 14.4704 9.46969 14.3947 9.39393 14.3947H9.01514C8.71211 14.3947 8.48484 14.1674 8.48484 13.8644C8.48484 13.5613 8.71211 13.3341 9.01514 13.3341H10.4545C10.6818 13.3341 10.8333 13.1825 10.8333 12.9553C10.8333 12.8038 10.7576 12.6522 10.606 12.5765L9.16666 11.9704C8.40908 11.6674 8.03029 10.8341 8.33332 10.0765C8.48484 9.62194 8.93938 9.31891 9.39393 9.16739C9.46969 9.16739 9.54544 9.09163 9.54544 9.01588V8.7886C9.54544 8.48557 9.77272 8.2583 10.0757 8.2583C10.3788 8.2583 10.606 8.48557 10.606 8.7886V8.94012C10.606 9.01588 10.6818 9.09163 10.7576 9.09163H11.1364C11.4394 9.09163 11.6667 9.31891 11.6667 9.62194C11.6667 9.92497 11.4394 10.1522 11.1364 10.1522H9.69696C9.46969 10.1522 9.31817 10.3038 9.31817 10.531C9.31817 10.6825 9.39393 10.8341 9.54544 10.9098L10.9848 11.5159C11.7424 11.8189 12.1212 12.6522 11.8182 13.4098C11.5909 13.8644 11.2121 14.2432 10.7576 14.3189Z" />
</svg>