<!--character:1364-->
  <svg width="24" height="24" viewBox="0 0 24 24" >
<path d="M3.27283 3.91H20.7274C21.4546 3.91 22.0001 4.45545 22.0001 5.18272V9.72818C22.0001 10.4555 21.4546 11.0009 20.7274 11.0009H18.9092C18.8183 11.0009 18.7274 10.91 18.7274 10.8191L17.9092 8.36454V8.27363C17.9092 8.18272 18.0001 8.09181 18.091 8.09181H19.091C19.5456 8.09181 19.9092 7.72818 19.9092 7.27363C19.9092 6.81909 19.5456 6.45545 19.091 6.45545H4.90919C4.45464 6.45545 4.09101 6.81909 4.09101 7.27363C4.09101 7.72818 4.45464 8.09181 4.90919 8.09181H6.0001C6.09101 8.09181 6.09101 8.27363 6.09101 8.36454C5.81828 9.09181 5.54556 9.90999 5.27283 10.7282C5.27283 10.8191 5.18192 10.91 5.09101 10.91H3.27283C2.54555 10.91 2.0001 10.3645 2.0001 9.63727V5.09182C2.0001 4.45545 2.54555 3.91 3.27283 3.91Z" />
<path d="M16.1819 8.54636C16.1819 8.45545 16.091 8.45545 16.0001 8.45545H8.0001C7.90919 8.45545 7.81828 8.54636 7.81828 8.54636C6.45464 12.0918 5.81828 15.91 5.81828 19.6373C5.81828 19.91 6.0001 20.0918 6.27283 20.0918H17.9092C18.1819 20.0918 18.3637 19.91 18.3637 19.6373C18.1819 15.91 17.5456 12.1827 16.1819 8.54636ZM12.9092 17.1827C12.8183 17.1827 12.7274 17.2736 12.7274 17.3645V17.6373C12.7274 18.0009 12.4546 18.2736 12.091 18.2736C11.7274 18.2736 11.4546 18.0009 11.4546 17.6373V17.4555C11.4546 17.3645 11.3637 17.2736 11.2728 17.2736H10.8183C10.4546 17.2736 10.1819 17.0009 10.1819 16.6373C10.1819 16.2736 10.4546 16.0009 10.8183 16.0009H12.5456C12.8183 16.0009 13.0001 15.8191 13.0001 15.5464C13.0001 15.3645 12.9092 15.1827 12.7274 15.0918L11.0001 14.3645C10.091 14.0009 9.63646 13.0009 10.0001 12.0918C10.1819 11.5464 10.7274 11.1827 11.2728 11.0009C11.3637 11.0009 11.4546 10.91 11.4546 10.8191V10.5464C11.4546 10.1827 11.7274 9.91 12.091 9.91C12.4546 9.91 12.7274 10.1827 12.7274 10.5464V10.7282C12.7274 10.8191 12.8183 10.91 12.9092 10.91H13.3637C13.7274 10.91 14.0001 11.1827 14.0001 11.5464C14.0001 11.91 13.7274 12.1827 13.3637 12.1827H11.6365C11.3637 12.1827 11.1819 12.3645 11.1819 12.6373C11.1819 12.8191 11.2728 13.0009 11.4546 13.0918L13.1819 13.8191C14.091 14.1827 14.5456 15.1827 14.1819 16.0918C13.9092 16.6373 13.4546 17.0918 12.9092 17.1827Z" />
</svg>