<!--character:248:550:2573-->
  <svg width="24" height="24" viewBox="0 0 24 24" >
<path   d="M3.27273 3.90991H20.7273C21.4545 3.90991 22 4.45537 22 5.18264V9.72809C22 10.4554 21.4545 11.0008 20.7273 11.0008H18.9091C18.8182 11.0008 18.7273 10.9099 18.7273 10.819L17.9091 8.36446V8.27355C17.9091 8.18264 18 8.09173 18.0909 8.09173H19.0909C19.5455 8.09173 19.9091 7.72809 19.9091 7.27355C19.9091 6.819 19.5455 6.45537 19.0909 6.45537H4.90909C4.45455 6.45537 4.09091 6.819 4.09091 7.27355C4.09091 7.72809 4.45455 8.09173 4.90909 8.09173H5.90909H6C6.09091 8.09173 6.09091 8.27355 6.09091 8.36446C5.81818 9.09173 5.54545 9.90991 5.27273 10.7281C5.27273 10.819 5.18182 10.9099 5.09091 10.9099H3.27273C2.54545 10.9099 2 10.3645 2 9.63718V5.09173C2 4.45537 2.54545 3.90991 3.27273 3.90991ZM16.1818 8.54628C16.1818 8.45537 16.0909 8.45537 16 8.45537H8C7.90909 8.45537 7.81818 8.54628 7.81818 8.54628C6.45454 12.0917 5.81818 15.9099 5.81818 19.6372C5.81818 19.9099 6 20.0917 6.27273 20.0917H17.9091C18.1818 20.0917 18.3636 19.9099 18.3636 19.6372C18.1818 15.9099 17.5455 12.1826 16.1818 8.54628ZM12.9091 17.1826C12.8182 17.1826 12.7273 17.2735 12.7273 17.3645V17.6372C12.7273 18.0008 12.4545 18.2735 12.0909 18.2735C11.7273 18.2735 11.4545 18.0008 11.4545 17.6372V17.4554C11.4545 17.3645 11.3636 17.2735 11.2727 17.2735H10.8182C10.4545 17.2735 10.1818 17.0008 10.1818 16.6372C10.1818 16.2735 10.4545 16.0008 10.8182 16.0008H12.5455C12.8182 16.0008 13 15.819 13 15.5463C13 15.3645 12.9091 15.1826 12.7273 15.0917L11 14.3645C10.0909 14.0008 9.63636 13.0008 10 12.0917C10.1818 11.5463 10.7273 11.1826 11.2727 11.0008C11.3636 11.0008 11.4545 10.9099 11.4545 10.819V10.5463C11.4545 10.1826 11.7273 9.90991 12.0909 9.90991C12.4545 9.90991 12.7273 10.1826 12.7273 10.5463V10.7281C12.7273 10.819 12.8182 10.9099 12.9091 10.9099H13.3636C13.7273 10.9099 14 11.1826 14 11.5463C14 11.9099 13.7273 12.1826 13.3636 12.1826H11.6364C11.3636 12.1826 11.1818 12.3645 11.1818 12.6372C11.1818 12.819 11.2727 13.0008 11.4545 13.0917L13.1818 13.819C14.0909 14.1826 14.5454 15.1826 14.1818 16.0917C13.9091 16.6372 13.4545 17.0917 12.9091 17.1826Z" />
</svg>