<!--character:2875-->
  <svg width="20" height="20" viewBox="0 0 20 20" >
<path d="M2.72735 3.25833H17.2728C17.8789 3.25833 18.3334 3.71288 18.3334 4.31894V8.10682C18.3334 8.71288 17.8789 9.16742 17.2728 9.16742H15.7577C15.6819 9.16742 15.6061 9.09166 15.6061 9.01591L14.9243 6.97045V6.89469C14.9243 6.81894 15.0001 6.74318 15.0758 6.74318H15.9092C16.288 6.74318 16.591 6.44015 16.591 6.06136C16.591 5.68257 16.288 5.37954 15.9092 5.37954H4.09099C3.7122 5.37954 3.40917 5.68257 3.40917 6.06136C3.40917 6.44015 3.7122 6.74318 4.09099 6.74318H5.00008C5.07584 6.74318 5.07584 6.89469 5.07584 6.97045C4.84857 7.57651 4.6213 8.25832 4.39403 8.94014C4.39403 9.01589 4.31826 9.09166 4.24251 9.09166H2.72735C2.12129 9.09166 1.66675 8.63712 1.66675 8.03106V4.24318C1.66675 3.71288 2.12129 3.25833 2.72735 3.25833Z" />
<path d="M13.4849 7.12197C13.4849 7.04621 13.4092 7.04621 13.3334 7.04621H6.66675C6.59099 7.04621 6.51523 7.12197 6.51523 7.12197C5.37887 10.0765 4.84857 13.2583 4.84857 16.3644C4.84857 16.5917 5.00008 16.7432 5.22735 16.7432H14.9243C15.1516 16.7432 15.3031 16.5917 15.3031 16.3644C15.1516 13.2583 14.6213 10.1523 13.4849 7.12197ZM10.7577 14.3189C10.6819 14.3189 10.6061 14.3947 10.6061 14.4705V14.6977C10.6061 15.0008 10.3789 15.228 10.0758 15.228C9.77281 15.228 9.54554 15.0008 9.54554 14.6977V14.5462C9.54554 14.4705 9.46978 14.3947 9.39402 14.3947H9.01523C8.7122 14.3947 8.48493 14.1674 8.48493 13.8644C8.48493 13.5614 8.7122 13.3341 9.01523 13.3341H10.4546C10.6819 13.3341 10.8334 13.1826 10.8334 12.9553C10.8334 12.8038 10.7577 12.6523 10.6061 12.5765L9.16675 11.9705C8.40917 11.6674 8.03038 10.8341 8.33341 10.0765C8.48493 9.62197 8.93948 9.31894 9.39402 9.16742C9.46978 9.16742 9.54554 9.09166 9.54554 9.01591V8.78863C9.54554 8.4856 9.77281 8.25833 10.0758 8.25833C10.3789 8.25833 10.6061 8.4856 10.6061 8.78863V8.94015C10.6061 9.01591 10.6819 9.09166 10.7577 9.09166H11.1364C11.4395 9.09166 11.6667 9.31894 11.6667 9.62197C11.6667 9.925 11.4395 10.1523 11.1364 10.1523H9.69705C9.46978 10.1523 9.31826 10.3038 9.31826 10.5311C9.31826 10.6826 9.39402 10.8341 9.54554 10.9098L10.9849 11.5159C11.7425 11.8189 12.1213 12.6523 11.8183 13.4098C11.591 13.8644 11.2122 14.2432 10.7577 14.3189Z" />
</svg>