<!--character:4440-->
  <svg width="24" height="24" viewBox="0 0 24 24" >
<path d="M20.2353 4.82169C17.9664 2.55278 14.2689 2.55278 12 4.82169L3.26051 13.4772C1.57984 15.1578 1.57984 17.9309 3.26051 19.6116C4.94118 21.2923 7.63026 21.2923 9.31093 19.6116L16.3698 12.5528C17.4622 11.5444 17.5462 9.77967 16.5378 8.6032C15.5294 7.42673 13.7647 7.42673 12.5882 8.43513C12.5042 8.51917 12.5042 8.51917 12.4202 8.6032L8.05043 12.9729C7.71429 13.3091 7.71429 13.8133 8.05043 14.1494C8.38656 14.4856 8.89076 14.4856 9.2269 14.1494L13.5966 9.77967C14.0168 9.3595 14.6891 9.3595 15.1092 9.77967C15.5294 10.1998 15.5294 10.8721 15.1092 11.2923L8.05043 18.3511C7.04202 19.3595 5.36135 19.3595 4.35295 18.3511C3.34454 17.3427 3.34454 15.662 4.35295 14.6536L13.1765 5.99816C14.7731 4.40152 17.4622 4.40152 19.0588 5.99816C20.6555 7.5948 20.6555 10.2839 19.0588 11.8805L12.5042 18.4351C12.1681 18.7713 12.1681 19.2755 12.5042 19.6116C12.8403 19.9477 13.3445 19.9477 13.6807 19.6116L20.2353 13.057C22.5882 10.7881 22.5882 7.0906 20.2353 4.82169Z" />
</svg>