<!--character:7985-->
  <svg width="24" height="24" viewBox="0 0 24 24" >
<path d="M20.2357 4.82168C17.9668 2.55277 14.2693 2.55277 12.0004 4.82168L3.26089 13.4771C1.58022 15.1578 1.58022 17.9309 3.26089 19.6116C4.94157 21.2923 7.63064 21.2923 9.31132 19.6116L16.3701 12.5528C17.4626 11.5444 17.5466 9.77966 16.5382 8.60319C15.5298 7.42672 13.7651 7.42672 12.5886 8.43512C12.5046 8.51916 12.5046 8.51916 12.4206 8.60319L8.05081 12.9729C7.71468 13.3091 7.71468 13.8133 8.05081 14.1494C8.38695 14.4855 8.89115 14.4855 9.22728 14.1494L13.597 9.77966C14.0172 9.35949 14.6895 9.35949 15.1096 9.77966C15.5298 10.1998 15.5298 10.8721 15.1096 11.2923L8.05081 18.3511C7.04241 19.3595 5.36174 19.3595 4.35333 18.3511C3.34493 17.3427 3.34493 15.662 4.35333 14.6536L13.1769 5.99815C14.7735 4.40151 17.4626 4.40151 19.0592 5.99815C20.6559 7.59479 20.6559 10.2839 19.0592 11.8805L12.5046 18.4351C12.1685 18.7713 12.1685 19.2755 12.5046 19.6116C12.8407 19.9477 13.3449 19.9477 13.6811 19.6116L20.2357 13.057C22.5886 10.7881 22.5886 7.09059 20.2357 4.82168Z" />
</svg>