<!--character:3491-->
  <svg width="24" height="24" viewBox="0 0 24 24" >
<path d="M20.2353 4.82168C17.9664 2.55277 14.2689 2.55277 12 4.82168L3.2605 13.4771C1.57983 15.1578 1.57983 17.9309 3.2605 19.6116C4.94118 21.2923 7.63025 21.2923 9.31092 19.6116L16.3697 12.5528C17.4622 11.5444 17.5462 9.77966 16.5378 8.60319C15.5294 7.42672 13.7647 7.42672 12.5882 8.43512C12.5042 8.51915 12.5042 8.51916 12.4202 8.60319L8.05042 12.9729C7.71429 13.3091 7.71429 13.8133 8.05042 14.1494C8.38655 14.4855 8.89076 14.4855 9.22689 14.1494L13.5966 9.77966C14.0168 9.35949 14.6891 9.35949 15.1092 9.77966C15.5294 10.1998 15.5294 10.8721 15.1092 11.2923L8.05042 18.3511C7.04202 19.3595 5.36134 19.3595 4.35294 18.3511C3.34454 17.3427 3.34454 15.662 4.35294 14.6536L13.1765 5.99815C14.7731 4.40151 17.4622 4.40151 19.0588 5.99815C20.6555 7.59478 20.6555 10.2839 19.0588 11.8805L12.5042 18.4351C12.1681 18.7713 12.1681 19.2755 12.5042 19.6116C12.8403 19.9477 13.3445 19.9477 13.6807 19.6116L20.2353 13.057C22.5882 10.7881 22.5882 7.09058 20.2353 4.82168Z" />
</svg>