<!-- character:0:2625 -->
  <svg width="20" height="20" viewBox="0 0 20 20" >
<path d="M16.8627 4.01807C14.9719 2.12732 11.8907 2.12732 9.99996 4.01807L2.71705 11.231C1.31649 12.6315 1.31649 14.9424 2.71705 16.343C4.11761 17.7436 6.3585 17.7436 7.75906 16.343L13.6414 10.4607C14.5518 9.62031 14.6218 8.14973 13.7815 7.16933C12.9411 6.18894 11.4705 6.18894 10.4902 7.02928C10.4201 7.09931 10.4201 7.09931 10.3501 7.16933L6.70864 10.8108C6.42853 11.0909 6.42853 11.5111 6.70864 11.7912C6.98876 12.0713 7.40892 12.0713 7.68903 11.7912L11.3305 8.14973C11.6806 7.79959 12.2409 7.79959 12.591 8.14973C12.9411 8.49987 12.9411 9.06009 12.591 9.41023L6.70864 15.2926C5.86831 16.1329 4.46775 16.1329 3.62741 15.2926C2.78707 14.4522 2.78707 13.0517 3.62741 12.2114L10.9804 4.99847C12.3109 3.66793 14.5518 3.66793 15.8823 4.99847C17.2128 6.329 17.2128 8.56989 15.8823 9.90043L10.4201 15.3626C10.14 15.6427 10.14 16.0629 10.4201 16.343C10.7002 16.6231 11.1204 16.6231 11.4005 16.343L16.8627 10.8808C18.8235 8.99006 18.8235 5.90883 16.8627 4.01807Z" />
</svg>