<!--character:2670-->
  <svg width="20" height="20" viewBox="0 0 20 20" >
<path d="M16.8631 4.01807C14.9723 2.12731 11.8911 2.12731 10.0003 4.01807L2.71741 11.231C1.31685 12.6315 1.31685 14.9424 2.71741 16.343C4.11797 17.7436 6.35887 17.7436 7.75943 16.343L13.6418 10.4606C14.5521 9.62031 14.6222 8.14972 13.7818 7.16933C12.9415 6.18893 11.4709 6.18893 10.4905 7.02927C10.4205 7.0993 10.4205 7.0993 10.3505 7.16933L6.70901 10.8108C6.4289 11.0909 6.4289 11.5111 6.70901 11.7912C6.98912 12.0713 7.40929 12.0713 7.6894 11.7912L11.3309 8.14972C11.681 7.79958 12.2412 7.79958 12.5914 8.14972C12.9415 8.49986 12.9415 9.06008 12.5914 9.41022L6.70901 15.2926C5.86867 16.1329 4.46811 16.1329 3.62778 15.2926C2.78744 14.4522 2.78744 13.0517 3.62778 12.2113L10.9807 4.99846C12.3113 3.66793 14.5521 3.66793 15.8827 4.99846C17.2132 6.32899 17.2132 8.56989 15.8827 9.90042L10.4205 15.3626C10.1404 15.6427 10.1404 16.0629 10.4205 16.343C10.7006 16.6231 11.1208 16.6231 11.4009 16.343L16.8631 10.8808C18.8239 8.99005 18.8239 5.90882 16.8631 4.01807Z" />
</svg>