<!--character:$550:2684-->
  <svg width="24" height="24" viewBox="0 0 24 24" >
<path d="M8.52859 7.41887C8.3209 7.48157 8.02699 7.77548 7.94862 7.98709L7.94334 8.00162C7.90367 8.11087 7.87742 8.18317 7.82798 8.23199C7.73124 8.32753 7.54572 8.33317 6.99718 8.34984L6.9415 8.35153C6.5026 8.36721 6.07937 8.39856 5.99316 8.42599C5.65615 8.52788 5.28779 8.75516 5.01347 9.0334C4.66471 9.37825 4.47661 9.73093 4.38647 10.1894C4.31986 10.5382 3.97501 16.8037 3.97501 17.4816C3.97501 18.1556 4.17486 18.6572 4.6216 19.1079C4.94686 19.4331 5.21725 19.5977 5.62088 19.7075C5.87871 19.7806 6.01562 19.7894 6.92222 19.7897H7.92188L7.92115 19.7859H9.18716L9.18644 19.7897L14.4518 19.7897L14.4511 19.7859H15.7143L15.7136 19.7897H16.7128C17.603 19.7894 17.7471 19.7804 17.9963 19.7114C18.396 19.6016 18.686 19.4253 19.0034 19.1079C19.4501 18.6572 19.65 18.1595 19.65 17.4816C19.65 16.835 19.3012 10.5421 19.2385 10.1894C19.1523 9.73485 18.9603 9.37825 18.6115 9.0334C18.3372 8.75516 17.9689 8.52788 17.6319 8.42599C17.5456 8.39856 17.1224 8.36721 16.6835 8.35153L16.6278 8.34984C16.0793 8.33317 15.8938 8.32753 15.797 8.23199C15.7476 8.18317 15.7213 8.11087 15.6817 8.00162L15.6764 7.98709C15.5941 7.76372 15.3002 7.48157 15.0729 7.41495C14.877 7.35617 14.6262 7.35617 14.4302 7.41495C14.2892 7.45627 14.2913 7.59979 14.2936 7.75613C14.295 7.85184 14.2964 7.95234 14.2652 8.03716C14.2558 8.06319 14.2478 8.08726 14.2405 8.10948C14.2206 8.16983 14.2052 8.21671 14.1764 8.25311C14.101 8.34873 13.684 8.3435 12.9816 8.33467C12.7534 8.33181 12.4952 8.32857 12.2087 8.32828L11.8125 8.32802L11.4163 8.32828C11.2189 8.32848 11.0375 8.32947 10.8718 8.33039C10.0564 8.33488 9.62125 8.33727 9.53815 8.23199C9.5292 8.22065 9.51142 8.20331 9.49057 8.183C9.44453 8.13812 9.38357 8.0787 9.36988 8.03716C9.33906 7.95351 9.33864 7.85461 9.33824 7.7601C9.33757 7.60222 9.33696 7.45662 9.19478 7.41495C9.0106 7.36009 8.70886 7.36009 8.52859 7.41887ZM9.28172 12.2835C9.03695 12.2835 8.87378 12.4467 8.87378 12.6915C8.87378 12.6915 8.88015 12.9324 8.87378 13.5074C8.87378 13.9115 8.79044 14.1601 8.22108 14.1601C7.69045 14.1601 7.56837 13.9153 7.56837 13.5074V12.6915C7.56837 12.4467 7.40519 12.2835 7.24201 12.2835H7.10784C6.78149 12.2835 6.45513 12.0388 6.45513 11.6308C6.45513 11.2229 6.6999 10.9781 7.10784 10.9781H16.4091C16.7354 10.9781 17.0618 11.2229 17.0618 11.6308C17.0618 12.0388 16.7354 12.2835 16.4091 12.2835H9.28172Z" />
<path d="M10.726 5.1469C10.1657 5.2723 9.72677 5.46824 9.32705 5.76998C9.05274 5.97376 8.67262 6.36955 8.48844 6.63211C8.11224 7.18465 7.77523 8.25839 7.94765 8.36419C8.02211 8.41122 9.29178 8.41122 9.32705 8.36419C9.34665 8.3446 9.39759 8.19961 9.4407 8.05069C9.73068 7.09844 10.5889 6.51288 11.5647 6.51288C13.3891 6.51288 13.909 7.47979 14.0691 8.12907C14.0926 8.23488 14.1318 8.3446 14.1475 8.36419C14.1828 8.41122 15.5491 8.41122 15.6236 8.36419C15.749 8.28974 15.604 7.61571 15.3571 7.10628C15.024 6.41266 14.4283 5.80525 13.7426 5.45648C13.2488 5.2096 12.6537 5.13462 11.5647 5.10379C11.1493 5.09204 10.9024 5.10771 10.726 5.1469Z" />
</svg>