<!--character:7174-->
  <svg width="29" height="29" viewBox="0 0 29 29" >
<path   d="M9.95084 5.67985C9.95084 3.87802 11.4115 2.41735 13.2133 2.41735H15.7868C17.5886 2.41735 19.0493 3.87802 19.0493 5.67985V7.9118C19.0493 8.51241 18.5624 8.9993 17.9618 8.9993C17.3612 8.9993 16.8743 8.51241 16.8743 7.9118V5.67985C16.8743 5.07924 16.3874 4.59235 15.7868 4.59235H13.2133C12.6127 4.59235 12.1258 5.07924 12.1258 5.67985V7.9118C12.1258 8.51241 11.639 8.9993 11.0383 8.9993C10.4377 8.9993 9.95084 8.51241 9.95084 7.9118V5.67985Z" />
<path   d="M2.72383 26.2761C2.29914 25.8514 2.29914 25.1629 2.72383 24.7382L24.7381 2.72387C25.1628 2.29917 25.8514 2.29917 26.2761 2.72387C26.7008 3.14856 26.7008 3.83713 26.2761 4.26182L4.26179 26.2761C3.83709 26.7008 3.14853 26.7008 2.72383 26.2761Z" />
<path d="M8.20425 25.3769H8.5792V25.4977C8.5792 26.0983 9.06609 26.5852 9.6667 26.5852C10.2673 26.5852 10.7542 26.0983 10.7542 25.4977V25.3769H18.2458V25.4977C18.2458 26.0983 18.7327 26.5852 19.3333 26.5852C19.9339 26.5852 20.4208 26.0983 20.4208 25.4977V25.3769H21.5217C23.6438 25.3769 25.3642 23.6565 25.3642 21.5344V11.0952C25.3642 10.2804 25.1106 9.52481 24.678 8.90311L23.0802 10.5009C23.1506 10.6855 23.1892 10.8858 23.1892 11.0952V21.5344C23.1892 22.4553 22.4426 23.2019 21.5217 23.2019H10.3792L8.20425 25.3769Z" />
<path d="M10.7438 19.7614L9.70046 20.8047C9.68609 20.8053 9.67165 20.8056 9.65714 20.8056C9.05653 20.8056 8.56964 20.3187 8.56964 19.7181V13.1931C8.56964 12.5925 9.05653 12.1056 9.65714 12.1056C10.2577 12.1056 10.7446 12.5925 10.7446 13.1931L10.7446 19.7181C10.7446 19.7326 10.7444 19.747 10.7438 19.7614Z" />
<path d="M13.4766 20.1045C13.6325 20.5143 14.029 20.8056 14.4935 20.8056C15.0941 20.8056 15.581 20.3187 15.581 19.7181V18.0001L13.4766 20.1045Z" />
<path d="M15.581 14.9242L13.406 17.0992L13.406 13.1931C13.406 12.5925 13.8929 12.1056 14.4935 12.1056C15.0941 12.1056 15.581 12.5925 15.581 13.1931V14.9242Z" />
<path d="M21.0775 9.42768H7.47839C6.55745 9.42768 5.81089 10.1742 5.81089 11.0952V21.5344C5.81089 22.399 6.46896 23.1099 7.31157 23.1936L5.61152 24.8937C4.43307 24.2374 3.63589 22.979 3.63589 21.5344V11.0952C3.63589 8.97303 5.35623 7.25268 7.47839 7.25268H21.5217C22.0341 7.25268 22.5231 7.35299 22.9701 7.53504L21.0775 9.42768Z" />
<path d="M18.2417 15.3394L18.2417 19.7181C18.2417 20.3187 18.7286 20.8056 19.3292 20.8056C19.9298 20.8056 20.4167 20.3187 20.4167 19.7181V13.1931C20.4167 13.1836 20.4166 13.1742 20.4164 13.1647L18.2417 15.3394Z" />
</svg>