<!--character:5863-->
  <svg width="20" height="20" viewBox="0 0 20 20" >
<path d="M12.0777 4.72222C12.0777 4.93055 12.3608 5.06944 12.5692 5.06944H13.8192C14.7914 5.06944 15.4164 5.83333 15.4164 6.73611V15.9028C15.4164 16.6667 14.8608 17.4306 14.0275 17.5694C13.958 17.5694 13.7497 17.7083 13.7497 17.7778C13.7497 18.1944 13.4719 18.3333 13.0553 18.3333C12.6386 18.3333 12.3608 18.1944 12.3608 17.7778C12.3608 17.7083 12.2914 17.6389 12.2219 17.6389H7.56923C7.49978 17.6389 7.43034 17.7083 7.43034 17.7778C7.43034 18.1944 7.15256 18.3333 6.73589 18.3333C6.31923 18.3333 6.04145 18.1944 6.04145 17.7778C6.04145 17.7083 5.97201 17.5694 5.90256 17.5694C5.06923 17.4306 4.51367 16.7361 4.51367 15.9028V6.73611C4.51367 5.83333 5.27756 5.06944 6.24978 5H7.5638C7.77214 5 7.91102 4.86111 7.91102 4.65278V3.47222C7.91102 3.26389 7.77214 3.125 7.49436 3.05555C7.07769 3.05555 6.86936 2.70833 6.86936 2.36111C6.86936 2.01389 7.07769 1.66666 7.5638 1.66666H12.4249C12.911 1.66666 13.1194 1.94444 13.1194 2.36111C13.1194 2.77778 12.911 3.125 12.4249 3.125C12.2166 3.125 12.0777 3.26389 12.0777 3.47222V4.72222ZM9.64713 3.05555C9.4388 3.05555 9.29991 3.1943 9.29991 3.40243V4.65034C9.29991 4.85847 9.4388 4.99722 9.64713 4.99722H10.3416C10.5499 4.99722 10.6888 4.85847 10.6888 4.65034V3.40243C10.6888 3.1943 10.5499 3.05555 10.3416 3.05555H9.64713ZM11.8749 7.5C11.5297 7.5 11.2499 7.77982 11.2499 8.125V14.375C11.2499 14.7202 11.5297 15 11.8749 15C12.22 15 12.4999 14.7202 12.4999 14.375V8.125C12.4999 7.77982 12.22 7.5 11.8749 7.5ZM8.12487 7.5C7.77969 7.5 7.49987 7.77982 7.49987 8.125V14.375C7.49987 14.7202 7.77969 15 8.12487 15C8.47005 15 8.74987 14.7202 8.74987 14.375V8.125C8.74987 7.77982 8.47005 7.5 8.12487 7.5Z" />
</svg>