<!--category:travel-->
<!--character:E021-->
<svg width="24" height="24" viewBox="0 0 24 24" xmlns="http://www.w3.org/2000/svg"><path d="M14.493 4.917c0 .25 0 .416 1.417.416h1.59l3.083-3.083a.806.806 0 011.167 0 .806.806 0 010 1.167l-2.476 2.476a.414.414 0 01.01.01l-2.369 2.354-.002-.003L3.417 21.75c-.25.333-.834.333-1.167 0a.806.806 0 010-1.167l1.91-1.91V7.333c0-1.083.917-2 2.083-2.083h2.834c.25 0 .416-.167.416-.417v-.666c0-.25-.166-.417-.5-.5-.5 0-.75-.417-.75-.834 0-.416.25-.833.834-.833h5.833c.583 0 .833.333.833.833 0 .5-.25.917-.833.917-.25 0-.417.167-.417.417v.75zM7 15.833l1.5-1.5V8.75a.75.75 0 00-1.5 0v7.083zm4.3-4.3l1.5-1.5V8.75a.75.75 0 00-1.5 0v2.783zm.277-7.866c-.25 0-.417.166-.417.416v.747c0 .25.167.417.417.417h.833c.25 0 .417-.167.417-.417v-.747c0-.25-.167-.416-.417-.416h-.833zM17.1 9.696l2.704-2.688c.015.106.023.215.023.325v11.75c0 .917-.667 1.834-1.667 2-.083 0-.333.167-.333.25 0 .5-.334.667-.834.667-.5 0-.833-.167-.833-.667a.18.18 0 00-.167-.166H7.827a.18.18 0 00-.167.166c0 .5-.333.667-.833.667-.5 0-.834-.167-.834-.667 0-.083-.083-.25-.166-.25a2.08 2.08 0 01-.153-.03L11.3 15.46v1.79a.75.75 0 001.5 0v-3.28l2.8-2.784v6.064a.75.75 0 001.5 0V9.696z"/></svg>
