<!-- character:853:1017 -->
  <svg width="20" height="20" viewBox="0 0 20 20" >
<path   d="M12.0777 7.34246C12.0777 7.5508 12.2166 7.68969 12.425 7.68969H13.2583C14.2305 7.68969 14.8555 8.45358 14.8555 9.35635V15.9028C14.8555 16.6667 14.3 17.4305 13.4666 17.5694C13.3972 17.5694 13.1889 17.7083 13.1889 17.7778C13.1889 18.1944 12.9111 18.3333 12.4944 18.3333C12.0777 18.3333 11.8 18.1944 11.8 17.7778C11.8 17.7083 11.7305 17.6389 11.6611 17.6389H8.18886C8.11941 17.6389 8.04997 17.7083 8.04997 17.7778C8.04997 18.1944 7.77219 18.3333 7.35552 18.3333C6.93886 18.3333 6.66108 18.1944 6.66108 17.7778C6.66108 17.7083 6.59163 17.5694 6.52219 17.5694C5.68886 17.4305 5.1333 16.7361 5.1333 15.9028V9.35635C5.1333 8.45358 5.89719 7.68968 6.86941 7.62024H7.56386C7.77219 7.62024 7.91108 7.48135 7.91108 7.27302V3.47221C7.91108 3.26388 7.77219 3.12499 7.49441 3.05555C7.07774 3.05555 6.86941 2.70832 6.86941 2.3611C6.86941 2.01388 7.07775 1.66666 7.56386 1.66666H12.425C12.9111 1.66666 13.1194 1.94443 13.1194 2.3611C13.1194 2.77777 12.9111 3.12499 12.425 3.12499C12.2166 3.12499 12.0777 3.26388 12.0777 3.47221V7.34246ZM9.64719 3.05555C9.43886 3.05555 9.29997 3.1943 9.29997 3.40242V7.27059C9.29997 7.47871 9.43886 7.61746 9.64719 7.61746H10.3416C10.55 7.61746 10.6889 7.47871 10.6889 7.27059V3.40242C10.6889 3.1943 10.55 3.05555 10.3416 3.05555H9.64719ZM8.12494 10.1203C7.77976 10.1203 7.49994 10.4001 7.49994 10.7453V14.375C7.49994 14.7202 7.77976 15 8.12494 15C8.47012 15 8.74994 14.7202 8.74994 14.375V10.7453C8.74994 10.4001 8.47012 10.1203 8.12494 10.1203ZM11.8749 10.1203C11.5298 10.1203 11.2499 10.4001 11.2499 10.7453V14.375C11.2499 14.7202 11.5298 15 11.8749 15C12.2201 15 12.4999 14.7202 12.4999 14.375V10.7453C12.4999 10.4001 12.2201 10.1203 11.8749 10.1203Z" />
</svg>