<!-- character:0:869 -->
  <svg width="20" height="20" viewBox="0 0 20 20" >
<path   d="M13.2585 4.44443C12.0779 4.44443 12.0779 4.30555 12.0779 4.09721V3.47221C12.0779 3.26388 12.2168 3.12499 12.4251 3.12499C12.9112 3.12499 13.1196 2.77777 13.1196 2.3611C13.1196 1.94443 12.9112 1.66666 12.4251 1.66666H7.56402C7.07791 1.66666 6.86957 2.01388 6.86957 2.3611C6.86957 2.70832 7.07791 3.05555 7.49457 3.05555C7.77235 3.12499 7.91124 3.26388 7.91124 3.47221V4.02777C7.91124 4.2361 7.77235 4.37499 7.56402 4.37499H5.20291C4.23069 4.44443 3.4668 5.20832 3.4668 6.1111V15.9028C3.4668 16.7361 4.02235 17.4305 4.85569 17.5694C4.92513 17.5694 4.99457 17.7083 4.99457 17.7778C4.99457 18.1944 5.27235 18.3333 5.68902 18.3333C6.10569 18.3333 6.38346 18.1944 6.38346 17.7778C6.38346 17.7083 6.45291 17.6389 6.52235 17.6389H13.3279C13.3974 17.6389 13.4668 17.7083 13.4668 17.7778C13.4668 18.1944 13.7446 18.3333 14.1612 18.3333C14.5779 18.3333 14.8557 18.1944 14.8557 17.7778C14.8557 17.7083 15.064 17.5694 15.1335 17.5694C15.9668 17.4305 16.5224 16.6667 16.5224 15.9028V6.1111C16.5224 5.20832 15.8974 4.44443 14.9251 4.44443H13.2585ZM13 7.29166C13 6.94648 13.2798 6.66666 13.625 6.66666C13.9702 6.66666 14.25 6.94648 14.25 7.29166V14.375C14.25 14.7202 13.9702 15 13.625 15C13.2798 15 13 14.7202 13 14.375V7.29166ZM9.41667 7.29166C9.41667 6.94648 9.69649 6.66666 10.0417 6.66666C10.3868 6.66666 10.6667 6.94648 10.6667 7.29166V14.375C10.6667 14.7202 10.3868 15 10.0417 15C9.69649 15 9.41667 14.7202 9.41667 14.375V7.29166ZM6.45833 6.66666C6.80351 6.66666 7.08333 6.94648 7.08333 7.29166V14.375C7.08333 14.7202 6.80351 15 6.45833 15C6.11315 15 5.83333 14.7202 5.83333 14.375V7.29166C5.83333 6.94648 6.11315 6.66666 6.45833 6.66666ZM9.30013 3.40241C9.30013 3.19429 9.43902 3.05554 9.64735 3.05554H10.3418C10.5501 3.05554 10.689 3.19429 10.689 3.40241V4.02533C10.689 4.23345 10.5501 4.3722 10.3418 4.3722H9.64735C9.43902 4.3722 9.30013 4.23345 9.30013 4.02533V3.40241Z" />
</svg>