<!--character:3186-->
  <svg width="29" height="29" viewBox="0 0 29 29" >
<path   d="M9.65717 12.1056C10.2578 12.1056 10.7447 12.5925 10.7447 13.1931L10.7447 19.7181C10.7447 20.3187 10.2578 20.8056 9.65717 20.8056C9.05656 20.8056 8.56967 20.3187 8.56967 19.7181V13.1931C8.56967 12.5925 9.05656 12.1056 9.65717 12.1056Z" />
<path   d="M14.4935 12.1056C15.0941 12.1056 15.581 12.5925 15.581 13.1931V19.7181C15.581 20.3187 15.0941 20.8056 14.4935 20.8056C13.8929 20.8056 13.406 20.3187 13.406 19.7181L13.406 13.1931C13.406 12.5925 13.8929 12.1056 14.4935 12.1056Z" />
<path   d="M19.3293 12.1056C19.9299 12.1056 20.4168 12.5925 20.4168 13.1931V19.7181C20.4168 20.3187 19.9299 20.8056 19.3293 20.8056C18.7286 20.8056 18.2418 20.3187 18.2418 19.7181L18.2418 13.1931C18.2418 12.5925 18.7286 12.1056 19.3293 12.1056Z" />
<path   d="M9.66673 23.2019C10.2673 23.2019 10.7542 23.6887 10.7542 24.2894V25.4977C10.7542 26.0983 10.2673 26.5852 9.66673 26.5852C9.06612 26.5852 8.57923 26.0983 8.57923 25.4977V24.2894C8.57923 23.6887 9.06612 23.2019 9.66673 23.2019Z" />
<path   d="M19.3333 23.2019C19.934 23.2019 20.4208 23.6887 20.4208 24.2894V25.4977C20.4208 26.0983 19.934 26.5852 19.3333 26.5852C18.7327 26.5852 18.2458 26.0983 18.2458 25.4977V24.2894C18.2458 23.6887 18.7327 23.2019 19.3333 23.2019Z" />
<path   d="M3.63592 11.0952C3.63592 8.97303 5.35626 7.25268 7.47841 7.25268H21.5217C23.6439 7.25268 25.3642 8.97302 25.3642 11.0952V21.5344C25.3642 23.6565 23.6439 25.3769 21.5217 25.3769H7.47842C5.35626 25.3769 3.63592 23.6565 3.63592 21.5344V11.0952ZM7.47841 9.42768C6.55748 9.42768 5.81092 10.1742 5.81092 11.0952V21.5344C5.81092 22.4553 6.55748 23.2019 7.47842 23.2019H21.5217C22.4427 23.2019 23.1892 22.4553 23.1892 21.5344V11.0952C23.1892 10.1742 22.4427 9.42768 21.5217 9.42768H7.47841Z" />
<path   d="M9.95094 5.67985C9.95094 3.87802 11.4116 2.41735 13.2134 2.41735H15.7869C17.5887 2.41735 19.0494 3.87802 19.0494 5.67985V7.9118C19.0494 8.51241 18.5625 8.9993 17.9619 8.9993C17.3613 8.9993 16.8744 8.51241 16.8744 7.9118V5.67985C16.8744 5.07924 16.3875 4.59235 15.7869 4.59235H13.2134C12.6128 4.59235 12.1259 5.07924 12.1259 5.67985V7.9118C12.1259 8.51241 11.639 8.9993 11.0384 8.9993C10.4378 8.9993 9.95094 8.51241 9.95094 7.9118V5.67985Z" />
</svg>