<!--character:7840-->
  <svg width="20" height="20" viewBox="0 0 20 20" >
<path d="M13.3974 7.57476L18.125 2.84722C18.4027 2.56944 18.4027 2.15278 18.125 1.875C17.8472 1.59722 17.4305 1.59722 17.1527 1.875L12.0779 6.94987V3.47222C12.0779 3.26389 12.2168 3.125 12.4251 3.125C12.9112 3.125 13.1195 2.77778 13.1195 2.36111C13.1195 1.94444 12.9112 1.66666 12.4251 1.66666H7.56398C7.07787 1.66666 6.86953 2.01389 6.86953 2.36111C6.86953 2.70833 7.07787 3.05555 7.49453 3.05555C7.77231 3.125 7.9112 3.26389 7.9112 3.47222V7.15278C7.9112 7.36111 7.77231 7.5 7.56398 7.5H6.86953C5.89731 7.56944 5.13342 8.33333 5.13342 9.23611V13.8943L1.87496 17.1528C1.59718 17.4306 1.59718 17.8472 1.87496 18.125C2.15274 18.4028 2.63885 18.4028 2.84718 18.125L13.0859 7.88627L13.3994 7.57492L13.3974 7.57476ZM10.3418 3.05555C10.5501 3.05555 10.689 3.1943 10.689 3.40243V7.15035C10.689 7.35847 10.5501 7.49722 10.3418 7.49722H9.64731C9.43898 7.49722 9.30009 7.35847 9.30009 7.15035V3.40243C9.30009 3.1943 9.43898 3.05555 9.64731 3.05555C9.85565 3.05555 10.1334 3.05555 10.3418 3.05555ZM7.55552 10H9.03545L7.91663 11.1111H7.55552C7.27774 11.1111 6.99996 10.9028 6.99996 10.5556C6.99996 10.2083 7.27774 10 7.55552 10Z" />
<path d="M12.318 10L14.3454 7.98659C14.6706 8.29488 14.8556 8.74494 14.8556 9.23611V15.9028C14.8556 16.6667 14.3001 17.4306 13.4668 17.5694C13.3973 17.5694 13.189 17.7083 13.189 17.7778C13.189 18.1944 12.9112 18.3333 12.4945 18.3333C12.0779 18.3333 11.8001 18.1944 11.8001 17.7778C11.8001 17.7083 11.7306 17.6389 11.6612 17.6389H8.18898C8.11953 17.6389 8.05009 17.7083 8.05009 17.7778C8.05009 18.1944 7.77231 18.3333 7.35565 18.3333C6.93898 18.3333 6.6612 18.1944 6.6612 17.7778C6.6612 17.7083 6.59176 17.5694 6.52231 17.5694C6.04294 17.4895 5.65549 17.2258 5.41283 16.8576L11.1992 11.1111H12.4251C12.7029 11.1111 12.9806 10.9028 12.9806 10.5556C12.9806 10.2083 12.7029 10 12.4251 10H12.318Z" />
</svg>