<!--character:E175-->
<!--added:0.33-->
<svg width="24" height="24" viewBox="0 0 24 24" xmlns="http://www.w3.org/2000/svg"><path d="M20.583 2.25a.806.806 0 011.167 0 .806.806 0 010 1.167l-4.907 4.906h.008l-1.149 1.141L3.417 21.75c-.25.333-.834.333-1.167 0a.806.806 0 010-1.167l1.808-1.808c-.176-.327-.258-.692-.258-1.129 0-.692.352-7.091.42-7.448.093-.468.285-.828.64-1.18.281-.285.657-.517 1.002-.62.088-.029.52-.06.968-.077l.057-.002c.56-.017.75-.022.849-.12a.41.41 0 00.085-.147c.053-.39.31-1.078.59-1.487.187-.268.576-.673.856-.88.408-.309.856-.509 1.429-.637.18-.04.432-.056.856-.044 1.113.031 1.72.108 2.225.36.7.356 1.309.977 1.649 1.685.039.08.075.165.108.25l5.05-5.049zm-8.753 8.754H7c-.417 0-.667.25-.667.667 0 .416.334.666.667.666h.137c.167 0 .333.167.333.417v.833c0 .417.125.667.667.667.582 0 .667-.254.667-.667.006-.587 0-.833 0-.833 0-.25.166-.417.416-.417h1.276l1.333-1.333zM9.363 8.078c.022.024.048.05.07.071.021.02.04.038.048.05.085.108.53.105 1.363.1l.556-.002h.809c.293 0 .556.004.79.007.604.007 1.001.012 1.158-.045a1.499 1.499 0 01-.048-.165c-.163-.663-.694-1.65-2.558-1.65-.996 0-1.873.597-2.17 1.57a4.237 4.237 0 01-.018.064zM15.785 11.004l2.42-2.405c.197.114.386.258.545.419.356.352.552.716.64 1.18.064.36.42 6.788.42 7.448 0 .693-.204 1.201-.66 1.662-.324.324-.62.504-1.029.616-.254.07-.401.08-1.31.08H15.79V20H14.5l.001.004H9.123V20H7.832v.004H6.722l7.72-7.667H16.5c.334 0 .667-.25.667-.666a.657.657 0 00-.667-.667h-.715z" /></svg>
