<!--character:9781-->
  <svg width="29" height="29" viewBox="0 0 29 29" >
<path   d="M4.84086 13.5032C4.84086 11.381 6.5612 9.66067 8.68336 9.66067H20.3168C22.4389 9.66067 24.1593 11.381 24.1593 13.5032V20.3333C24.1593 22.4554 22.4389 24.1758 20.3168 24.1758H8.68335C6.5612 24.1758 4.84086 22.4554 4.84086 20.3333V13.5032ZM8.68336 11.8357C7.76242 11.8357 7.01586 12.5822 7.01586 13.5032V20.3333C7.01586 21.2542 7.76242 22.0008 8.68335 22.0008H20.3168C21.2377 22.0008 21.9843 21.2542 21.9843 20.3333V13.5032C21.9843 12.5822 21.2377 11.8357 20.3168 11.8357H8.68336Z" />
<path   d="M9.92057 15.7083C9.92057 15.1077 10.4075 14.6208 11.0081 14.6208L17.992 14.6208C18.5926 14.6208 19.0795 15.1077 19.0795 15.7083C19.0795 16.3089 18.5926 16.7958 17.992 16.7958L11.0081 16.7958C10.4075 16.7958 9.92057 16.3089 9.92057 15.7083Z" />
<path   d="M9.35983 8.11888C9.35983 6.31705 10.8205 4.85638 12.6223 4.85638H16.3777C18.1796 4.85638 19.6402 6.31705 19.6402 8.11888V10.5145C19.6402 11.1151 19.1533 11.602 18.5527 11.602C17.9521 11.602 17.4652 11.1151 17.4652 10.5145V8.11888C17.4652 7.51827 16.9783 7.03138 16.3777 7.03138H12.6223C12.0217 7.03138 11.5348 7.51827 11.5348 8.11888V10.5145C11.5348 11.1151 11.0479 11.602 10.4473 11.602C9.84672 11.602 9.35983 11.1151 9.35983 10.5145V8.11888Z" />
</svg>