<!--character:5715-->
  <svg width="24" height="24" viewBox="0 0 24 24" >
<path d="M14.4932 5.66666C14.4932 5.91666 14.833 6.08333 15.083 6.08333H16.583C17.7497 6.08333 18.4997 7 18.4997 8.08333V19.0833C18.4997 20 17.833 20.9167 16.833 21.0833C16.7497 21.0833 16.4997 21.25 16.4997 21.3333C16.4997 21.8333 16.1663 22 15.6663 22C15.1663 22 14.833 21.8333 14.833 21.3333C14.833 21.25 14.7497 21.1667 14.6663 21.1667H9.08307C8.99974 21.1667 8.91641 21.25 8.91641 21.3333C8.91641 21.8333 8.58307 22 8.08307 22C7.58307 22 7.24974 21.8333 7.24974 21.3333C7.24974 21.25 7.16641 21.0833 7.08307 21.0833C6.08307 20.9167 5.41641 20.0833 5.41641 19.0833V8.08333C5.41641 7 6.33307 6.08333 7.49974 6H9.07656C9.32656 6 9.49323 5.83333 9.49323 5.58333V4.16666C9.49323 3.91666 9.32656 3.75 8.99323 3.66666C8.49323 3.66666 8.24323 3.25 8.24323 2.83333C8.24323 2.41666 8.49323 2 9.07656 2H14.9099C15.4932 2 15.7432 2.33333 15.7432 2.83333C15.7432 3.33333 15.4932 3.75 14.9099 3.75C14.6599 3.75 14.4932 3.91666 14.4932 4.16666V5.66666ZM11.5766 3.66666C11.3266 3.66666 11.1599 3.83316 11.1599 4.08291V5.58041C11.1599 5.83016 11.3266 5.99666 11.5766 5.99666H12.4099C12.6599 5.99666 12.8266 5.83016 12.8266 5.58041V4.08291C12.8266 3.83316 12.6599 3.66666 12.4099 3.66666H11.5766ZM14.2498 9C13.8356 9 13.4998 9.33578 13.4998 9.75V17.25C13.4998 17.6642 13.8356 18 14.2498 18C14.6641 18 14.9998 17.6642 14.9998 17.25V9.75C14.9998 9.33578 14.6641 9 14.2498 9ZM9.74984 9C9.33563 9 8.99984 9.33578 8.99984 9.75V17.25C8.99984 17.6642 9.33563 18 9.74984 18C10.1641 18 10.4998 17.6642 10.4998 17.25V9.75C10.4998 9.33578 10.1641 9 9.74984 9Z" />
</svg>