<!-- character:0:923 -->
  <svg width="20" height="20" viewBox="0 0 20 20" >
<path   d="M6.61073 6.83078C6.52844 6.91205 6.37063 6.91684 5.90404 6.93103L5.85668 6.93247C5.48334 6.9458 5.12334 6.97247 5.05001 6.9958C4.76334 7.08247 4.45001 7.2758 4.21668 7.51247C3.92001 7.8058 3.76001 8.1058 3.68334 8.4958C3.62668 8.79247 3.33334 14.1219 3.33334 14.6986C3.33334 15.2719 3.50334 15.6986 3.88334 16.0819C4.16001 16.3586 4.39001 16.4986 4.73334 16.5919C4.95266 16.6541 5.06911 16.6617 5.84028 16.6619H6.6906L6.68998 16.6587H7.76686L7.76625 16.6619L12.245 16.6619L12.2444 16.6587H13.3189L13.3183 16.6619H14.1683C14.9254 16.6616 15.0481 16.654 15.26 16.5953C15.6 16.5019 15.8467 16.3519 16.1167 16.0819C16.4967 15.6986 16.6667 15.2753 16.6667 14.6986C16.6667 14.1486 16.37 8.7958 16.3167 8.4958C16.2433 8.10914 16.08 7.8058 15.7833 7.51247C15.55 7.2758 15.2367 7.08247 14.95 6.9958C14.8767 6.97247 14.5167 6.9458 14.1433 6.93247L14.096 6.93103C13.6294 6.91684 13.4716 6.91205 13.3893 6.83078C13.3472 6.78926 13.3249 6.72776 13.2912 6.63483L13.2867 6.62247C13.2764 6.59449 13.2622 6.56542 13.2448 6.53601C13.2004 6.33265 13.1182 6.08606 13.0151 5.87324C12.7317 5.28324 12.2251 4.76657 11.6417 4.4699C11.2217 4.2599 10.7155 4.19612 9.78919 4.1699C9.43585 4.1599 9.22585 4.17324 9.07585 4.20657C8.59919 4.31324 8.22586 4.4799 7.88586 4.73657C7.65252 4.9099 7.32919 5.24657 7.17252 5.4699C7.13082 5.53115 7.08969 5.59992 7.05001 5.67342C6.88704 5.97527 6.74855 6.35681 6.69584 6.62391C6.69 6.65348 6.68522 6.68165 6.68157 6.70815C6.66047 6.76181 6.64056 6.80132 6.61073 6.83078ZM8.94704 6.91813C8.44373 6.92445 8.24545 6.91813 8.02197 6.91269C7.96284 6.91125 7.97883 6.91813 8.02197 6.74324C8.1582 6.19095 8.60039 5.36849 10.1523 5.36849C10.9823 5.36849 11.7123 5.86657 11.959 6.67657C11.9784 6.73597 11.9947 6.84596 11.959 6.87262C11.959 6.93616 11.4352 6.9183 10.7416 6.91448C10.6007 6.9137 10.4464 6.91286 10.2785 6.91269L9.94146 6.91247L9.60442 6.91269C9.36077 6.91293 9.14109 6.91569 8.94704 6.91813ZM13.9099 10.2771H7.84729C7.63909 10.2771 7.5003 10.4159 7.5003 10.6241C7.5003 10.6241 7.50572 10.829 7.5003 11.3181C7.5003 11.6618 7.42941 11.8733 6.9451 11.8733C6.49374 11.8733 6.3899 11.6651 6.3899 11.3181V10.6241C6.3899 10.4159 6.2511 10.2771 6.1123 10.2771H5.99817C5.72057 10.2771 5.44297 10.0689 5.44297 9.72188C5.44297 9.37488 5.65117 9.16669 5.99817 9.16669H13.9099C14.1875 9.16669 14.4651 9.37488 14.4651 9.72188C14.4651 10.0689 14.1875 10.2771 13.9099 10.2771Z" />
</svg>