<!--category:travel-->
<!--character:E021-->
<svg width="24" height="24" viewBox="0 0 24 24" xmlns="http://www.w3.org/2000/svg"><path d="M5.3333 17.5L7 15.8333V7.4167C7 7.1667 7.1667 7 7.4167 7h.25c.1666 0 .3333-.1667.4166-.4167v-1.25c0-1.4166 1.0834-2.5 2.5-2.5H13.5c1.4167 0 2.5 1.0834 2.5 2.5v1.25c0 .077.0158.1462.045.205L20.5833 2.25c.3334-.3333.8334-.3333 1.1667 0 .3333.3333.3333.8333 0 1.1667L3.4167 21.75c-.25.3333-.8334.3333-1.1667 0-.3333-.3333-.3333-.8333 0-1.1667l.4466-.4466C2.259 19.64 2 18.9774 2 18.25V9.9167C2 8.3333 3.3333 7 4.9167 7c.25 0 .4166.1667.4166.4167V17.5zM9.6667 5.3333v1.25c0 .25.25.4167.5.4167h3.6666c.25 0 .4167-.1667.4167-.4167v-1.25c0-.5-.3333-.8333-.8333-.8333H10.5c-.5 0-.8333.3333-.8333.8333zM7 19.8333l10-10V20.75c0 .25-.1667.4167-.4167.4167H7.4167C7.1667 21.1667 7 21 7 20.75v-.9167zm12.75-12.75C21 7.4167 22 8.5 22 9.9167V18.25c0 1.5833-1.3333 2.9167-2.9167 2.9167-.25 0-.4166-.1667-.4166-.4167V8.1667L19.75 7.0833z"/></svg>
