<!--character:8851-->
  <svg width="24" height="24" viewBox="0 0 24 24" >
<path d="M19.0833 7.12333C18.8333 7.12333 18.6667 6.95666 18.6667 6.70666V4.20666C18.6667 3.95666 18.8333 3.79 19.0833 3.79C19.6667 3.79 19.9167 3.37333 19.9167 2.87333C19.9167 2.37333 19.6667 2.04 19.0833 2.04H13.25C12.6667 2.04 12.4167 2.45666 12.4167 2.87333C12.4167 3.29 12.6667 3.70666 13.1667 3.70666C13.5 3.79 13.6667 3.95666 13.6667 4.20666V6.62333C13.6667 6.87333 13.5 7.04 13.25 7.04H12.4167C11.25 7.12333 10.3333 8.04 10.3333 9.12333V11.4567C10.6667 11.8733 10.9167 12.29 11 12.79H11.3333C12.5 12.79 13.5 13.79 13.6667 15.04V19.6233C13.6667 20.54 13.0833 21.3733 12.3333 21.7067C12.5 21.8733 12.6667 21.9567 13 21.9567C13.5 21.9567 13.8333 21.79 13.8333 21.29C13.8333 21.2067 13.9167 21.1233 14 21.1233H18.1667C18.25 21.1233 18.3333 21.2067 18.3333 21.29C18.3333 21.79 18.6667 21.9567 19.1667 21.9567C19.6667 21.9567 20 21.79 20 21.29C20 21.2067 20.25 21.04 20.3333 21.04C21.3333 20.8733 22 19.9567 22 19.04V9.04C22 8.04 21.25 7.12333 20.0833 7.12333H19.0833ZM15.75 3.70666H16.5833C16.8333 3.70666 17 3.87333 17 4.12333V6.62333C17 6.87333 16.8333 7.04 16.5833 7.04H15.75C15.5 7.04 15.3333 6.87333 15.3333 6.62333V4.12333C15.3333 3.87333 15.5 3.70666 15.75 3.70666ZM19.0833 10.3733H15.5833C15.3333 10.3733 15.1667 10.54 15.1667 10.79V11.6233C15.1667 11.9567 14.9167 12.29 14.5 12.29C14.0833 12.29 13.8333 12.04 13.8333 11.6233V10.79C13.8333 10.54 13.6667 10.3733 13.5 10.3733H13.25C12.9167 10.3733 12.5833 10.1233 12.5833 9.70666C12.5833 9.29 12.8333 9.04 13.25 9.04H19.0833C19.4167 9.04 19.75 9.29 19.75 9.70666C19.75 10.1233 19.4167 10.3733 19.0833 10.3733Z" />
<path d="M11.4167 13.6233H10.3333C10.3333 12.2067 9.24999 11.1233 7.83332 11.1233H6.99999C5.58332 11.1233 4.49999 12.2067 4.49999 13.6233H3.49999C2.66665 13.6233 1.99999 14.29 1.99999 15.1233V19.7067C1.99999 20.54 2.66665 21.2067 3.49999 21.2067H11.4167C12.25 21.2067 12.9167 20.54 12.9167 19.7067V15.1233C12.8333 14.29 12.1667 13.6233 11.4167 13.6233ZM6.16665 13.6233C6.16665 13.1233 6.49999 12.79 6.99999 12.79H7.83332C8.33332 12.79 8.66666 13.1233 8.66666 13.6233H6.16665Z" />
</svg>