<!--character:6606-->
  <svg width="24" height="24" viewBox="0 0 24 24" >
<path   d="M7.99204 10.0184C8.4891 10.0184 8.89204 10.4213 8.89204 10.9184L8.89204 16.3184C8.89204 16.8155 8.4891 17.2184 7.99204 17.2184C7.49498 17.2184 7.09204 16.8155 7.09204 16.3184V10.9184C7.09204 10.4213 7.49498 10.0184 7.99204 10.0184Z" />
<path   d="M11.9945 10.0184C12.4916 10.0184 12.8945 10.4213 12.8945 10.9184V16.3184C12.8945 16.8155 12.4916 17.2184 11.9945 17.2184C11.4975 17.2184 11.0945 16.8155 11.0945 16.3184L11.0945 10.9184C11.0945 10.4213 11.4975 10.0184 11.9945 10.0184Z" />
<path   d="M15.9965 10.0184C16.4936 10.0184 16.8965 10.4213 16.8965 10.9184V16.3184C16.8965 16.8155 16.4936 17.2184 15.9965 17.2184C15.4995 17.2184 15.0965 16.8155 15.0965 16.3184L15.0965 10.9184C15.0965 10.4213 15.4995 10.0184 15.9965 10.0184Z" />
<path   d="M7.99995 19.2015C8.49701 19.2015 8.89995 19.6045 8.89995 20.1015V21.1015C8.89995 21.5986 8.49701 22.0015 7.99995 22.0015C7.5029 22.0015 7.09995 21.5986 7.09995 21.1015V20.1015C7.09995 19.6045 7.5029 19.2015 7.99995 19.2015Z" />
<path   d="M15.9999 19.2015C16.497 19.2015 16.8999 19.6045 16.8999 20.1015V21.1015C16.8999 21.5986 16.497 22.0015 15.9999 22.0015C15.5029 22.0015 15.0999 21.5986 15.0999 21.1015V20.1015C15.0999 19.6045 15.5029 19.2015 15.9999 19.2015Z" />
<path   d="M3.00894 9.18222C3.00894 7.42595 4.43267 6.00222 6.18894 6.00222H17.811C19.5672 6.00222 20.991 7.42595 20.991 9.18222V17.8215C20.991 19.5778 19.5672 21.0015 17.811 21.0015H6.18894C4.43267 21.0015 3.00894 19.5778 3.00894 17.8215V9.18222ZM6.18894 7.80222C5.42678 7.80222 4.80894 8.42006 4.80894 9.18222V17.8215C4.80894 18.5837 5.42678 19.2015 6.18894 19.2015H17.811C18.5731 19.2015 19.191 18.5837 19.191 17.8215V9.18222C19.191 8.42006 18.5731 7.80222 17.811 7.80222H6.18894Z" />
<path   d="M8.23516 4.70056C8.23516 3.20939 9.44399 2.00056 10.9352 2.00056H13.0649C14.5561 2.00056 15.7649 3.2094 15.7649 4.70056V6.5477C15.7649 7.04475 15.362 7.4477 14.8649 7.4477C14.3678 7.4477 13.9649 7.04475 13.9649 6.5477V4.70056C13.9649 4.20351 13.562 3.80056 13.0649 3.80056H10.9352C10.4381 3.80056 10.0352 4.20351 10.0352 4.70056V6.5477C10.0352 7.04475 9.63222 7.4477 9.13516 7.4477C8.63811 7.4477 8.23516 7.04475 8.23516 6.5477V4.70056Z" />
</svg>