<!--character:5988-->
  <svg width="24" height="24" viewBox="0 0 24 24" >
<path   d="M10 10.0184C10.4971 10.0184 10.9 10.4213 10.9 10.9184L10.9 16.3184C10.9 16.8155 10.4971 17.2184 10 17.2184C9.50296 17.2184 9.10002 16.8155 9.10002 16.3184V10.9184C9.10002 10.4213 9.50296 10.0184 10 10.0184Z" />
<path   d="M14.0025 10.0184C14.4996 10.0184 14.9025 10.4213 14.9025 10.9184V16.3184C14.9025 16.8155 14.4996 17.2184 14.0025 17.2184C13.5054 17.2184 13.1025 16.8155 13.1025 16.3184L13.1025 10.9184C13.1025 10.4213 13.5054 10.0184 14.0025 10.0184Z" />
<path   d="M7.99996 19.2015C8.49702 19.2015 8.89996 19.6045 8.89996 20.1015V21.1015C8.89996 21.5986 8.49702 22.0015 7.99996 22.0015C7.5029 22.0015 7.09996 21.5986 7.09996 21.1015V20.1015C7.09996 19.6045 7.5029 19.2015 7.99996 19.2015Z" />
<path   d="M15.9999 19.2015C16.497 19.2015 16.8999 19.6045 16.8999 20.1015V21.1015C16.8999 21.5986 16.497 22.0015 15.9999 22.0015C15.5029 22.0015 15.0999 21.5986 15.0999 21.1015V20.1015C15.0999 19.6045 15.5029 19.2015 15.9999 19.2015Z" />
<path   d="M4.02026 9.18222C4.02026 7.42595 5.444 6.00222 7.20026 6.00222H16.7997C18.5559 6.00222 19.9797 7.42595 19.9797 9.18222V17.8215C19.9797 19.5778 18.5559 21.0015 16.7997 21.0015H7.20027C5.444 21.0015 4.02026 19.5778 4.02026 17.8215V9.18222ZM7.20026 7.80222C6.43811 7.80222 5.82026 8.42006 5.82026 9.18222V17.8215C5.82026 18.5837 6.43811 19.2015 7.20027 19.2015H16.7997C17.5618 19.2015 18.1797 18.5837 18.1797 17.8215V9.18222C18.1797 8.42006 17.5618 7.80222 16.7997 7.80222H7.20026Z" />
<path   d="M8.23517 4.70056C8.23517 3.20939 9.444 2.00056 10.9352 2.00056H13.0649C14.5561 2.00056 15.7649 3.2094 15.7649 4.70056V6.5477C15.7649 7.04475 15.362 7.4477 14.8649 7.4477C14.3679 7.4477 13.9649 7.04475 13.9649 6.5477V4.70056C13.9649 4.20351 13.562 3.80056 13.0649 3.80056H10.9352C10.4381 3.80056 10.0352 4.20351 10.0352 4.70056V6.5477C10.0352 7.04475 9.63223 7.4477 9.13517 7.4477C8.63811 7.4477 8.23517 7.04475 8.23517 6.5477V4.70056Z" />
</svg>