<!--character:$853:1023-->
  <svg width="24" height="24" viewBox="0 0 24 24" >
<path d="M14.4325 8.89069C14.4325 9.13444 14.595 9.29694 14.8387 9.29694H15.8137C16.9512 9.29694 17.6825 10.1907 17.6825 11.2469V18.9063C17.6825 19.8 17.0325 20.6938 16.0575 20.8563C15.9762 20.8563 15.7325 21.0187 15.7325 21.1C15.7325 21.5875 15.4075 21.75 14.92 21.75C14.4325 21.75 14.1075 21.5875 14.1075 21.1C14.1075 21.0187 14.0262 20.9375 13.945 20.9375H9.88249C9.80124 20.9375 9.71999 21.0187 9.71999 21.1C9.71999 21.5875 9.39499 21.75 8.9075 21.75C8.42 21.75 8.095 21.5875 8.095 21.1C8.095 21.0187 8.01374 20.8563 7.93249 20.8563C6.95749 20.6938 6.3075 19.8813 6.3075 18.9063V11.2469C6.3075 10.1907 7.20125 9.29694 8.33874 9.21569H9.15124C9.39499 9.21569 9.55749 9.05319 9.55749 8.80944V4.3625C9.55749 4.11875 9.39499 3.95625 9.06999 3.875C8.58249 3.875 8.33874 3.46875 8.33874 3.0625C8.33874 2.65625 8.58249 2.25 9.15124 2.25H14.8387C15.4075 2.25 15.6512 2.575 15.6512 3.0625C15.6512 3.55 15.4075 3.95625 14.8387 3.95625C14.595 3.95625 14.4325 4.11875 14.4325 4.3625V8.89069ZM11.5887 3.875C11.345 3.875 11.1825 4.03734 11.1825 4.28084V8.8066C11.1825 9.0501 11.345 9.21244 11.5887 9.21244H12.4012C12.645 9.21244 12.8075 9.0501 12.8075 8.8066V4.28084C12.8075 4.03734 12.645 3.875 12.4012 3.875H11.5887ZM9.80771 12.1407C9.40385 12.1407 9.07646 12.4681 9.07646 12.8719V17.1188C9.07646 17.5226 9.40385 17.85 9.80771 17.85C10.2116 17.85 10.539 17.5226 10.539 17.1188V12.8719C10.539 12.4681 10.2116 12.1407 9.80771 12.1407ZM13.464 12.8719V17.1188C13.464 17.5226 13.7914 17.85 14.1952 17.85C14.5991 17.85 14.9265 17.5226 14.9265 17.1188V12.8719C14.9265 12.4681 14.5991 12.1407 14.1952 12.1407C13.7914 12.1407 13.464 12.4681 13.464 12.8719Z" />
</svg>