<!--character:257:550:2664-->
<svg width="24" height="24" viewBox="0 0 24 24" xmlns="http://www.w3.org/2000/svg"><path d="M16.077 9.09l5.673-5.673a.806.806 0 000-1.167.806.806 0 00-1.167 0l-6.09 6.09V4.167c0-.25.167-.417.417-.417.583 0 .833-.417.833-.917S15.493 2 14.91 2H9.077c-.584 0-.834.417-.834.833 0 .417.25.834.75.834.334.083.5.25.5.5v4.416c0 .25-.166.417-.416.417h-.834c-1.166.083-2.083 1-2.083 2.083v5.59l-3.91 3.91a.806.806 0 000 1.167c.333.333.917.333 1.167 0L15.703 9.464l.376-.374h-.002zM12.41 3.667c.25 0 .417.166.417.416V8.58c0 .25-.167.417-.417.417h-.833c-.25 0-.417-.167-.417-.417V4.083c0-.25.167-.416.417-.416h.833zM9.067 12h1.776L9.5 13.333h-.433a.657.657 0 01-.667-.666c0-.417.333-.667.667-.667zM14.782 12l2.433-2.416c.39.37.612.91.612 1.5v8c0 .916-.667 1.833-1.667 2-.083 0-.333.166-.333.25 0 .5-.334.666-.834.666-.5 0-.833-.167-.833-.667a.18.18 0 00-.167-.166H9.827a.18.18 0 00-.167.166c0 .5-.333.667-.833.667-.5 0-.834-.167-.834-.667 0-.083-.083-.25-.166-.25a1.958 1.958 0 01-1.332-.854l6.944-6.896h1.471c.333 0 .667-.25.667-.666A.657.657 0 0014.91 12h-.128z"/></svg>
