<!--character:6846-->
  <svg width="24" height="24" viewBox="0 0 24 24" >
<path d="M13.4 12C14.76 12 15.88 13.04 15.88 14.4L15.8769 21.84C15.8769 21.92 15.7969 22 15.7169 22H10.3569C10.2769 22 10.1969 21.92 10.1969 21.84L10.2 14.4C10.2 13.04 11.24 12 12.6 12H13.4ZM14.12 14.8C14.2 14.8 14.28 14.72 14.28 14.64V14.48C14.28 14 13.96 13.68 13.48 13.68H12.68C12.2 13.68 11.88 14 11.88 14.48V14.64C11.88 14.72 11.96 14.8 12.04 14.8H14.12ZM7.80002 16C7.80002 15.36 8.36002 14.8 9.00002 14.8H9.16002C9.24002 14.8 9.32002 14.88 9.32002 14.96V21.84C9.32002 21.92 9.24002 22 9.16002 22H9.00002C8.36002 22 7.80002 21.44 7.80002 20.8V16ZM18.2 20.8C18.2 21.44 17.64 22 17 22H16.84C16.76 22 16.68 21.92 16.68 21.84V14.96C16.68 14.88 16.76 14.8 16.84 14.8H17C17.64 14.8 18.2 15.36 18.2 16V20.8ZM11.9714 6.54349C11.6857 7.22919 11.1714 7.74349 10.5428 8.02919C9.17142 8.54349 7.68572 7.91489 7.17142 6.54349C6.65712 5.17209 7.34282 3.68639 8.65712 3.17209C9.97142 2.65779 11.4571 3.34349 12.0286 4.60069C12.0286 4.65779 12.0857 4.71489 12.1428 4.71489H18.1428C18.6571 4.71489 19 5.17209 19 5.62919C19 6.08639 18.6 6.48639 18.1429 6.48639H17.9714C17.9143 6.48639 17.8571 6.54349 17.8571 6.60069V6.71489C17.8571 7.17209 17.4571 7.57209 17 7.57209C16.5429 7.57209 16.1429 7.22919 16.1429 6.65779V6.54349C16.1429 6.48639 16.0857 6.42919 16.0286 6.42919H15.4571C15.3429 6.42919 15.2857 6.54349 15.2857 6.60069V6.71489C15.2857 7.22919 14.8857 7.57209 14.4286 7.57209C13.9714 7.57209 13.5714 7.22919 13.5714 6.71489V6.60069C13.5714 6.54349 13.5143 6.42919 13.4 6.42919H12.0857C12.0286 6.42919 11.9714 6.48639 11.9714 6.54349ZM8.42862 5.62919C8.42862 6.25779 8.94282 6.77209 9.57142 6.77209C10.2 6.77209 10.7143 6.25779 10.7143 5.62919C10.7143 5.00069 10.2 4.48639 9.57142 4.48639C8.94282 4.48639 8.42862 5.00069 8.42862 5.62919Z" />
</svg>