<!--description:the smallest baggage allowed-->
<!--character:E156-->
<!--added:0.23-->
<svg width="24" height="24" viewBox="0 0 24 24"  xmlns="http://www.w3.org/2000/svg"><path d="M7.933 8.197c-.099.097-.288.103-.848.12l-.057.002c-.448.016-.88.048-.968.076-.344.104-.72.336-1 .62a2.144 2.144 0 00-.64 1.18c-.068.356-.42 6.751-.42 7.443 0 .688.204 1.2.66 1.66.332.332.608.5 1.02.612.263.075.403.084 1.328.084h1.02v-.004H9.32v.004h5.374v-.004h1.289l-.001.004h1.02c.909 0 1.056-.01 1.31-.08.408-.112.704-.292 1.028-.616.456-.46.66-.968.66-1.66 0-.66-.356-7.083-.42-7.443a2.132 2.132 0 00-.64-1.18 2.505 2.505 0 00-1-.62c-.088-.028-.52-.06-.968-.076l-.057-.002c-.56-.017-.75-.023-.848-.12-.05-.05-.077-.124-.118-.235l-.005-.015a.642.642 0 00-.05-.104 3.763 3.763 0 00-.276-.795 3.77 3.77 0 00-1.648-1.684c-.504-.252-1.111-.329-2.223-.36-.424-.012-.676.004-.856.044-.572.128-1.02.328-1.428.636a4.68 4.68 0 00-.856.88c-.05.073-.1.156-.147.244-.196.362-.362.82-.425 1.14-.007.036-.013.07-.017.102a.41.41 0 01-.085.147zm2.803.105c-.604.007-.841 0-1.11-.007-.07-.001-.051.007 0-.203.164-.663.694-1.65 2.557-1.65.996 0 1.872.598 2.168 1.57.023.071.043.203 0 .235 0 .076-.629.055-1.461.05l-.556-.002h-.809c-.292 0-.556.004-.789.007zm5.956 4.03H9.417c-.25 0-.417.167-.417.417 0 0 .007.246 0 .833 0 .412-.085.666-.666.666-.542 0-.666-.25-.666-.666v-.833c0-.25-.167-.417-.333-.417h-.137a.657.657 0 01-.666-.666c0-.416.25-.666.666-.666h9.494c.333 0 .666.25.666.666a.657.657 0 01-.666.666z"/></svg>
