<!-- character:0:967 -->
  <svg width="20" height="20" viewBox="0 0 20 20" >
<path d="M10.3333 9.99999C11.4666 9.99999 12.4 10.8667 12.4 12L12.3974 18.2C12.3974 18.2667 12.3307 18.3333 12.264 18.3333H7.79738C7.73071 18.3333 7.66404 18.2667 7.66404 18.2L7.66663 12C7.66663 10.8667 8.53329 9.99999 9.66663 9.99999H10.3333ZM10.9333 12.3333C11 12.3333 11.0666 12.2667 11.0666 12.2V12.0667C11.0666 11.6667 10.8 11.4 10.4 11.4H9.73329C9.33329 11.4 9.06663 11.6667 9.06663 12.0667V12.2C9.06663 12.2667 9.13329 12.3333 9.19996 12.3333H10.9333ZM5.66663 13.3333C5.66663 12.8 6.13329 12.3333 6.66663 12.3333H6.79996C6.86663 12.3333 6.93329 12.4 6.93329 12.4667V18.2C6.93329 18.2667 6.86663 18.3333 6.79996 18.3333H6.66663C6.13329 18.3333 5.66663 17.8667 5.66663 17.3333V13.3333ZM14.3333 17.3333C14.3333 17.8667 13.8666 18.3333 13.3333 18.3333H13.2C13.1333 18.3333 13.0666 18.2667 13.0666 18.2V12.4667C13.0666 12.4 13.1333 12.3333 13.2 12.3333H13.3333C13.8666 12.3333 14.3333 12.8 14.3333 13.3333V17.3333ZM9.99996 1.66666C11.8409 1.66666 13.3333 3.15907 13.3333 4.99999C13.3333 6.84091 11.8409 8.33332 9.99996 8.33332C8.15904 8.33332 6.66663 6.84091 6.66663 4.99999C6.66663 3.15907 8.15904 1.66666 9.99996 1.66666ZM9.99996 2.66666C8.71129 2.66666 7.66663 3.71132 7.66663 4.99999C7.66663 6.28866 8.71129 7.33332 9.99996 7.33332C11.2886 7.33332 12.3333 6.28866 12.3333 4.99999C12.3333 3.71132 11.2886 2.66666 9.99996 2.66666ZM11.3957 3.62799C11.4738 3.70613 11.5177 3.81209 11.5177 3.92257C11.5177 4.03306 11.4738 4.13902 11.3957 4.21716L10.2172 5.39582C10.139 5.4734 10.0332 5.51681 9.92296 5.51657C9.81277 5.51633 9.70716 5.47245 9.62925 5.39454C9.55133 5.31662 9.50745 5.21101 9.50721 5.10082C9.50697 4.99063 9.55039 4.88483 9.62796 4.80657L10.8065 3.62807C10.8846 3.54996 10.9906 3.50608 11.101 3.50608C11.2115 3.50608 11.3175 3.54996 11.3956 3.62807L11.3957 3.62799Z" />
</svg>