<!--character:258:550:2630-->
  <svg width="24" height="24" viewBox="0 0 24 24" >
<path d="M14.4325 8.75C14.4325 8.99375 14.595 9.15625 14.8387 9.15625H15.8137C16.9512 9.15625 17.6825 10.05 17.6825 11.1063V18.9063C17.6825 19.8 17.0325 20.6938 16.0575 20.8563C15.9762 20.8563 15.7325 21.0188 15.7325 21.1C15.7325 21.5875 15.4075 21.75 14.92 21.75C14.4325 21.75 14.1075 21.5875 14.1075 21.1C14.1075 21.0188 14.0262 20.9375 13.945 20.9375H9.8825C9.80125 20.9375 9.72 21.0188 9.72 21.1C9.72 21.5875 9.395 21.75 8.9075 21.75C8.42 21.75 8.095 21.5875 8.095 21.1C8.095 21.0188 8.01375 20.8563 7.9325 20.8563C6.9575 20.6938 6.3075 19.8813 6.3075 18.9063V11.1063C6.3075 10.05 7.20125 9.15625 8.33875 9.075H9.15125C9.395 9.075 9.5575 8.9125 9.5575 8.66875V4.3625C9.5575 4.11875 9.395 3.95625 9.07 3.875C8.5825 3.875 8.33875 3.46875 8.33875 3.0625C8.33875 2.65625 8.5825 2.25 9.15125 2.25H14.8387C15.4075 2.25 15.6512 2.575 15.6512 3.0625C15.6512 3.55 15.4075 3.95625 14.8387 3.95625C14.595 3.95625 14.4325 4.11875 14.4325 4.3625V8.75ZM11.1825 4.28083V8.6659C11.1825 8.9094 11.345 9.07174 11.5887 9.07174H12.4012C12.645 9.07174 12.8075 8.9094 12.8075 8.6659V4.28083C12.8075 4.03733 12.645 3.87499 12.4012 3.87499H11.5887C11.345 3.87499 11.1825 4.03733 11.1825 4.28083ZM14.8387 13.3C15.1637 13.3 15.4887 13.0563 15.4887 12.65C15.4887 12.2437 15.1637 12 14.8387 12H9.15125C8.745 12 8.50125 12.2437 8.50125 12.65C8.50125 13.0563 8.82625 13.3 9.15125 13.3H9.395C9.5575 13.3 9.72 13.4625 9.72 13.7063V14.5188C9.72 14.925 9.96375 15.1688 10.37 15.1688C10.7762 15.1688 11.02 14.8438 11.02 14.5188V13.7063C11.02 13.4625 11.1825 13.3 11.4262 13.3H14.8387Z" />
</svg>