<!-- character:0:899 -->
  <svg width="20" height="20" viewBox="0 0 20 20" >
<path   d="M12.4251 7.56943C12.2168 7.56943 12.0779 7.43055 12.0779 7.22221V3.47221C12.0779 3.26388 12.2168 3.12499 12.4251 3.12499C12.9112 3.12499 13.1196 2.77777 13.1196 2.3611C13.1196 1.94443 12.9112 1.66666 12.4251 1.66666H7.56402C7.07791 1.66666 6.86957 2.01388 6.86957 2.3611C6.86957 2.70832 7.07791 3.05555 7.49457 3.05555C7.77235 3.12499 7.91124 3.26388 7.91124 3.47221V7.15277C7.91124 7.3611 7.77235 7.49999 7.56402 7.49999H6.86957C5.89735 7.56943 5.13346 8.33332 5.13346 9.2361V15.9028C5.13346 16.7361 5.68902 17.4305 6.52235 17.5694C6.59179 17.5694 6.66124 17.7083 6.66124 17.7778C6.66124 18.1944 6.93902 18.3333 7.35568 18.3333C7.77235 18.3333 8.05013 18.1944 8.05013 17.7778C8.05013 17.7083 8.11957 17.6389 8.18902 17.6389H11.6612C11.7307 17.6389 11.8001 17.7083 11.8001 17.7778C11.8001 18.1944 12.0779 18.3333 12.4946 18.3333C12.9112 18.3333 13.189 18.1944 13.189 17.7778C13.189 17.7083 13.3973 17.5694 13.4668 17.5694C14.3001 17.4305 14.8557 16.6667 14.8557 15.9028V9.2361C14.8557 8.33332 14.2307 7.56943 13.2585 7.56943H12.4251ZM12.4251 11.1111H9.50846C9.30013 11.1111 9.16124 11.25 9.16124 11.4583V12.1528C9.16124 12.4305 8.95291 12.7083 8.60568 12.7083C8.25846 12.7083 8.05013 12.5 8.05013 12.1528V11.4583C8.05013 11.25 7.91124 11.1111 7.77235 11.1111H7.56402C7.28624 11.1111 7.00846 10.9028 7.00846 10.5555C7.00846 10.2083 7.21679 9.99999 7.56402 9.99999H12.4251C12.7029 9.99999 12.9807 10.2083 12.9807 10.5555C12.9807 10.9028 12.7029 11.1111 12.4251 11.1111ZM10.3418 3.05555C10.5501 3.05555 10.689 3.1943 10.689 3.40242V7.15034C10.689 7.35846 10.5501 7.49721 10.3418 7.49721H9.64735C9.43902 7.49721 9.30013 7.35846 9.30013 7.15034V3.40242C9.30013 3.1943 9.43902 3.05555 9.64735 3.05555H10.3418Z" />
</svg>