<!--character:2193-->
  <svg width="24" height="24" viewBox="0 0 24 24" >
<path   d="M8.23516 4.70056C8.23516 3.20939 9.44399 2.00056 10.9352 2.00056H13.0649C14.5561 2.00056 15.7649 3.20939 15.7649 4.70056V6.54769C15.7649 7.04475 15.3619 7.44769 14.8649 7.44769C14.3678 7.44769 13.9649 7.04475 13.9649 6.54769V4.70056C13.9649 4.20351 13.5619 3.80056 13.0649 3.80056H10.9352C10.4381 3.80056 10.0352 4.20351 10.0352 4.70056V6.54769C10.0352 7.04475 9.63221 7.44769 9.13516 7.44769C8.6381 7.44769 8.23516 7.04475 8.23516 6.54769V4.70056Z" />
<path   d="M2.25418 21.7458C1.90271 21.3943 1.90271 20.8244 2.25418 20.473L20.4729 2.25424C20.8244 1.90276 21.3942 1.90276 21.7457 2.25424C22.0972 2.60571 22.0972 3.17555 21.7457 3.52703L3.52697 21.7458C3.1755 22.0972 2.60565 22.0972 2.25418 21.7458Z" />
<path d="M6.7897 21.0015H7.1V21.1015C7.1 21.5986 7.50295 22.0015 8 22.0015C8.49706 22.0015 8.9 21.5986 8.9 21.1015V21.0015H15.1V21.1015C15.1 21.5986 15.5029 22.0015 16 22.0015C16.497 22.0015 16.9 21.5986 16.9 21.1015V21.0015H17.811C19.5673 21.0015 20.991 19.5778 20.991 17.8215V9.18222C20.991 8.5079 20.7811 7.8826 20.4231 7.36809L19.1008 8.69041C19.1591 8.84318 19.191 9.00897 19.191 9.18222V17.8215C19.191 18.5837 18.5732 19.2015 17.811 19.2015H8.58969L6.7897 21.0015Z" />
<path d="M8.89139 16.3543L8.02794 17.2177C8.01605 17.2182 8.0041 17.2184 7.99209 17.2184C7.49503 17.2184 7.09209 16.8155 7.09209 16.3184V10.9184C7.09209 10.4213 7.49503 10.0184 7.99209 10.0184C8.48915 10.0184 8.89209 10.4213 8.89209 10.9184L8.89209 16.3184C8.89209 16.3304 8.89185 16.3424 8.89139 16.3543Z" />
<path d="M11.153 16.6382C11.282 16.9774 11.6101 17.2184 11.9946 17.2184C12.4916 17.2184 12.8946 16.8155 12.8946 16.3184V14.8967L11.153 16.6382Z" />
<path d="M12.8946 12.3511L11.0946 14.1511L11.0946 10.9184C11.0946 10.4213 11.4975 10.0184 11.9946 10.0184C12.4916 10.0184 12.8946 10.4213 12.8946 10.9184V12.3511Z" />
<path d="M17.4434 7.80222H6.18898C5.42683 7.80222 4.80898 8.42007 4.80898 9.18222V17.8215C4.80898 18.5371 5.3536 19.1255 6.05093 19.1947L4.64399 20.6017C3.66872 20.0585 3.00898 19.0171 3.00898 17.8215V9.18222C3.00898 7.42595 4.43272 6.00222 6.18898 6.00222H17.811C18.2351 6.00222 18.6398 6.08523 19.0097 6.2359L17.4434 7.80222Z" />
<path d="M15.0966 12.6947V16.3184C15.0966 16.8155 15.4995 17.2184 15.9966 17.2184C16.4936 17.2184 16.8966 16.8155 16.8966 16.3184V10.9184C16.8966 10.9106 16.8965 10.9027 16.8963 10.895L15.0966 12.6947Z" />
</svg>