<!--character:2461-->
  <svg width="24" height="24" viewBox="0 0 24 24" >
<path   d="M4.0062 11.175C4.0062 9.41877 5.42993 7.99503 7.1862 7.99503H16.8138C18.5701 7.99503 19.9938 9.41877 19.9938 11.175V16.8275C19.9938 18.5838 18.5701 20.0075 16.8138 20.0075H7.1862C5.42993 20.0075 4.0062 18.5838 4.0062 16.8275V11.175ZM7.1862 9.79503C6.42405 9.79503 5.8062 10.4129 5.8062 11.175V16.8275C5.8062 17.5897 6.42405 18.2075 7.1862 18.2075H16.8138C17.576 18.2075 18.1938 17.5897 18.1938 16.8275V11.175C18.1938 10.4129 17.576 9.79503 16.8138 9.79503H7.1862Z" />
<path   d="M8.2101 13C8.2101 12.5029 8.61305 12.1 9.1101 12.1L14.8899 12.1C15.387 12.1 15.7899 12.5029 15.7899 13C15.7899 13.4971 15.387 13.9 14.8899 13.9L9.1101 13.9C8.61305 13.9 8.2101 13.4971 8.2101 13Z" />
<path   d="M7.74604 6.71907C7.74604 5.22791 8.95487 4.01907 10.446 4.01907H13.554C15.0451 4.01907 16.254 5.2279 16.254 6.71907V8.70168C16.254 9.19874 15.851 9.60168 15.354 9.60168C14.8569 9.60168 14.454 9.19874 14.454 8.70168V6.71907C14.454 6.22202 14.051 5.81907 13.554 5.81907H10.446C9.94898 5.81907 9.54604 6.22202 9.54604 6.71907V8.70168C9.54604 9.19874 9.1431 9.60168 8.64604 9.60168C8.14898 9.60168 7.74604 9.19874 7.74604 8.70168V6.71907Z" />
</svg>