<!--character:257:550:2664-->
  <svg width="24" height="24" viewBox="0 0 24 24" >
<path d="M15.975 9.16248L21.5063 3.63125C21.8313 3.30625 21.8313 2.81875 21.5063 2.49375C21.1812 2.16875 20.6938 2.16875 20.3688 2.49375L14.4312 8.43135V4.3625C14.4312 4.11875 14.5937 3.95625 14.8374 3.95625C15.4062 3.95625 15.6499 3.55 15.6499 3.0625C15.6499 2.575 15.4062 2.25 14.8374 2.25H9.1499C8.58115 2.25 8.3374 2.65625 8.3374 3.0625C8.3374 3.46875 8.58115 3.875 9.06865 3.875C9.39365 3.95625 9.55615 4.11875 9.55615 4.3625V8.66875C9.55615 8.9125 9.39365 9.075 9.1499 9.075H8.3374C7.1999 9.15625 6.30615 10.05 6.30615 11.1063V16.5563L2.49375 20.3688C2.16875 20.6938 2.16875 21.1812 2.49375 21.5063C2.81875 21.8313 3.3875 21.8313 3.63125 21.5063L15.6106 9.52694L15.9774 9.16266L15.975 9.16248ZM10.8625 12L9.52625 13.3362C9.48441 13.3127 9.43903 13.3 9.39365 13.3H9.1499C8.8249 13.3 8.4999 13.0562 8.4999 12.65C8.4999 12.2438 8.74365 12 9.1499 12H10.8625ZM11.1812 4.28084C11.1812 4.03734 11.3437 3.875 11.5874 3.875H12.3999C12.6437 3.875 12.8062 4.03734 12.8062 4.28084V8.66591C12.8062 8.90941 12.6437 9.07175 12.3999 9.07175H11.5874C11.3437 9.07175 11.1812 8.90941 11.1812 8.66591V4.28084Z" />
<path d="M14.7121 12L17.0841 9.64431C17.4647 10.005 17.6812 10.5316 17.6812 11.1063V18.9062C17.6812 19.8 17.0312 20.6938 16.0562 20.8563C15.9749 20.8563 15.7312 21.0187 15.7312 21.1C15.7312 21.5875 15.4062 21.75 14.9187 21.75C14.4312 21.75 14.1062 21.5875 14.1062 21.1C14.1062 21.0187 14.0249 20.9375 13.9437 20.9375H9.88115C9.7999 20.9375 9.71865 21.0187 9.71865 21.1C9.71865 21.5875 9.39365 21.75 8.90615 21.75C8.41865 21.75 8.09365 21.5875 8.09365 21.1C8.09365 21.0187 8.0124 20.8563 7.93115 20.8563C7.37029 20.7628 6.91697 20.4542 6.63306 20.0234L13.4031 13.3H14.8374C15.1624 13.3 15.4874 13.0562 15.4874 12.65C15.4874 12.2438 15.1624 12 14.8374 12H14.7121Z" />
</svg>