<!--character:3296-->
  <svg width="24" height="24" viewBox="0 0 24 24" >
<path   d="M2.01182 14.5515C2.01182 13.155 3.1439 12.0229 4.54039 12.0229H13.2832C14.6797 12.0229 15.8118 13.155 15.8118 14.5515V19.473C15.8118 20.8695 14.6797 22.0015 13.2832 22.0015H4.54039C3.1439 22.0015 2.01182 20.8695 2.01182 19.473V14.5515ZM4.54039 13.8229C4.13801 13.8229 3.81182 14.1491 3.81182 14.5515V19.473C3.81182 19.8753 4.13801 20.2015 4.54039 20.2015H13.2832C13.6856 20.2015 14.0118 19.8753 14.0118 19.473V14.5515C14.0118 14.1491 13.6856 13.8229 13.2832 13.8229H4.54039Z" />
<path   d="M5.24253 11.1868C5.24253 9.97962 6.22111 9.00104 7.42824 9.00104H10.3953C11.6024 9.00104 12.581 9.97962 12.581 11.1868V12.7938C12.581 13.2909 12.1781 13.6938 11.681 13.6938C11.1839 13.6938 10.781 13.2909 10.781 12.7938V11.1868C10.781 10.9737 10.6083 10.801 10.3953 10.801H7.42824C7.21522 10.801 7.04253 10.9737 7.04253 11.1868V12.7938C7.04253 13.2909 6.63959 13.6938 6.14253 13.6938C5.64547 13.6938 5.24253 13.2909 5.24253 12.7938V11.1868Z" />
<path   d="M19.0271 19.2015C19.5241 19.2015 19.9271 19.6045 19.9271 20.1015V21.1015C19.9271 21.5986 19.5241 22.0015 19.0271 22.0015C18.53 22.0015 18.1271 21.5986 18.1271 21.1015V20.1015C18.1271 19.6045 18.53 19.2015 19.0271 19.2015Z" />
<path   d="M8.03965 9.18222C8.03965 7.42595 9.46339 6.00222 11.2197 6.00222H18.8346C20.5909 6.00222 22.0146 7.42595 22.0146 9.18222V17.8215C22.0146 19.5778 20.5909 21.0015 18.8346 21.0015H15.0271C14.5301 21.0015 14.1271 20.5986 14.1271 20.1015C14.1271 19.6045 14.5301 19.2015 15.0271 19.2015H18.8346C19.5967 19.2015 20.2146 18.5837 20.2146 17.8215V9.18222C20.2146 8.42007 19.5967 7.80222 18.8346 7.80222H11.2197C10.4575 7.80222 9.83966 8.42006 9.83966 9.18222V9.79311C9.83966 10.2902 9.43671 10.6931 8.93966 10.6931C8.4426 10.6931 8.03965 10.2902 8.03965 9.79311V9.18222Z" />
<path   d="M11.2623 4.70056C11.2623 3.20939 12.4712 2.00056 13.9623 2.00056H16.0921C17.5832 2.00056 18.7921 3.2094 18.7921 4.70056V6.5477C18.7921 7.04475 18.3891 7.4477 17.8921 7.4477C17.395 7.4477 16.9921 7.04475 16.9921 6.5477V4.70056C16.9921 4.20351 16.5891 3.80056 16.0921 3.80056H13.9623C13.4653 3.80056 13.0623 4.20351 13.0623 4.70056V6.5477C13.0623 7.04475 12.6594 7.4477 12.1623 7.4477C11.6653 7.4477 11.2623 7.04475 11.2623 6.5477V4.70056Z" />
</svg>