<!--character:6177-->
  <svg width="29" height="29" viewBox="0 0 29 29" >
<path   d="M12.0834 12.1056C12.684 12.1056 13.1709 12.5925 13.1709 13.1931L13.1709 19.7181C13.1709 20.3187 12.684 20.8056 12.0834 20.8056C11.4827 20.8056 10.9959 20.3187 10.9959 19.7181V13.1931C10.9959 12.5925 11.4827 12.1056 12.0834 12.1056Z" />
<path   d="M16.9197 12.1056C17.5203 12.1056 18.0072 12.5925 18.0072 13.1931V19.7181C18.0072 20.3187 17.5203 20.8056 16.9197 20.8056C16.3191 20.8056 15.8322 20.3187 15.8322 19.7181L15.8322 13.1931C15.8322 12.5925 16.3191 12.1056 16.9197 12.1056Z" />
<path   d="M9.66662 23.2019C10.2672 23.2019 10.7541 23.6887 10.7541 24.2894V25.4977C10.7541 26.0983 10.2672 26.5852 9.66662 26.5852C9.06601 26.5852 8.57912 26.0983 8.57912 25.4977V24.2894C8.57912 23.6887 9.06601 23.2019 9.66662 23.2019Z" />
<path   d="M19.3332 23.2019C19.9338 23.2019 20.4207 23.6887 20.4207 24.2894V25.4977C20.4207 26.0983 19.9338 26.5852 19.3332 26.5852C18.7326 26.5852 18.2457 26.0983 18.2457 25.4977V24.2894C18.2457 23.6887 18.7326 23.2019 19.3332 23.2019Z" />
<path   d="M4.85782 11.0952C4.85782 8.97303 6.57816 7.25268 8.70032 7.25268H20.2996C22.4218 7.25268 24.1421 8.97302 24.1421 11.0952V21.5344C24.1421 23.6565 22.4218 25.3769 20.2996 25.3769H8.70032C6.57817 25.3769 4.85782 23.6565 4.85782 21.5344V11.0952ZM8.70032 9.42768C7.77938 9.42768 7.03282 10.1742 7.03282 11.0952V21.5344C7.03282 22.4553 7.77939 23.2019 8.70032 23.2019H20.2996C21.2205 23.2019 21.9671 22.4553 21.9671 21.5344V11.0952C21.9671 10.1742 21.2205 9.42768 20.2996 9.42768H8.70032Z" />
<path   d="M9.95083 5.67985C9.95083 3.87802 11.4115 2.41735 13.2133 2.41735H15.7868C17.5886 2.41735 19.0493 3.87802 19.0493 5.67985V7.9118C19.0493 8.51241 18.5624 8.9993 17.9618 8.9993C17.3612 8.9993 16.8743 8.51241 16.8743 7.9118V5.67985C16.8743 5.07924 16.3874 4.59235 15.7868 4.59235H13.2133C12.6127 4.59235 12.1258 5.07924 12.1258 5.67985V7.9118C12.1258 8.51241 11.6389 8.9993 11.0383 8.9993C10.4377 8.9993 9.95083 8.51241 9.95083 7.9118V5.67985Z" />
</svg>