<!--description:... or 'luggage storage' if you prefer-->
<!--category:services-->
<!--character:E147-->
<!--added:0.21-->
<svg width="24" height="24" viewBox="0 0 24 24" xmlns="http://www.w3.org/2000/svg"><path d="M12.4 12c1.36 0 2.48 1.04 2.48 2.4l-.0031 7.44c0 .08-.08.16-.16.16h-5.36c-.08 0-.16-.08-.16-.16L9.2 14.4c0-1.36 1.04-2.4 2.4-2.4h.8zm.72 2.8c.08 0 .16-.08.16-.16v-.16c0-.48-.32-.8-.8-.8h-.8c-.48 0-.8.32-.8.8v.16c0 .08.08.16.16.16h2.08zM6.8 16c0-.64.56-1.2 1.2-1.2h.16c.08 0 .16.08.16.16v6.88c0 .08-.08.16-.16.16H8c-.64 0-1.2-.56-1.2-1.2V16zm10.4 4.8c0 .64-.56 1.2-1.2 1.2h-.16c-.08 0-.16-.08-.16-.16v-6.88c0-.08.08-.16.16-.16H16c.64 0 1.2.56 1.2 1.2v4.8zM10.9714 6.5435c-.2857.6857-.8 1.2-1.4286 1.4857-1.3714.5143-2.8571-.1143-3.3714-1.4857s.1714-2.8571 1.4857-3.3714 2.8.1714 3.3715 1.4286c0 .0571.0571.1142.1142.1142h6c.5143 0 .8572.4572.8572.9143 0 .4572-.4.8572-.8571.8572h-.1715c-.0571 0-.1143.0571-.1143.1143v.1142c0 .4572-.4.8572-.8571.8572-.4571 0-.8571-.3429-.8571-.9143v-.1143c0-.0571-.0572-.1143-.1143-.1143h-.5715c-.1142 0-.1714.1143-.1714.1715v.1142c0 .5143-.4.8572-.8571.8572-.4572 0-.8572-.3429-.8572-.8572v-.1142c0-.0572-.0571-.1715-.1714-.1715h-1.3143c-.0571 0-.1143.0572-.1143.1143zm-3.5428-.9143c0 .6286.5142 1.1429 1.1428 1.1429s1.1429-.5143 1.1429-1.1429c0-.6285-.5143-1.1428-1.1429-1.1428s-1.1428.5143-1.1428 1.1428z"/></svg>