<!-- character:0:947 -->
  <svg width="20" height="20" viewBox="0 0 20 20" >
<path d="M11.1667 9.99999C12.3 9.99999 13.2333 10.8667 13.2333 12L13.2307 18.2C13.2307 18.2667 13.1641 18.3333 13.0974 18.3333H8.63075C8.56408 18.3333 8.49741 18.2667 8.49741 18.2L8.49999 12C8.49999 10.8667 9.36666 9.99999 10.5 9.99999H11.1667ZM11.7667 12.3333C11.8333 12.3333 11.9 12.2667 11.9 12.2V12.0667C11.9 11.6667 11.6333 11.4 11.2333 11.4H10.5667C10.1667 11.4 9.89999 11.6667 9.89999 12.0667V12.2C9.89999 12.2667 9.96666 12.3333 10.0333 12.3333H11.7667ZM6.5 13.3333C6.5 12.8 6.96666 12.3333 7.49999 12.3333H7.63333C7.69999 12.3333 7.76666 12.4 7.76666 12.4667V18.2C7.76666 18.2667 7.69999 18.3333 7.63333 18.3333H7.49999C6.96666 18.3333 6.5 17.8667 6.5 17.3333V13.3333ZM15.1667 17.3333C15.1667 17.8667 14.7 18.3333 14.1667 18.3333H14.0333C13.9667 18.3333 13.9 18.2667 13.9 18.2V12.4667C13.9 12.4 13.9667 12.3333 14.0333 12.3333H14.1667C14.7 12.3333 15.1667 12.8 15.1667 13.3333V17.3333ZM9.97616 5.45291C9.73808 6.02432 9.30949 6.45291 8.78566 6.69099C7.64283 7.11957 6.40474 6.59574 5.97616 5.45291C5.54758 4.31007 6.119 3.07199 7.21425 2.64341C8.30949 2.21482 9.54758 2.78624 10.0238 3.83391C10.0238 3.88149 10.0714 3.92907 10.119 3.92907H15.119C15.5476 3.92907 15.8333 4.31007 15.8333 4.69099C15.8333 5.07199 15.5 5.40532 15.1191 5.40532H14.9762C14.9286 5.40532 14.8809 5.45291 14.8809 5.50057V5.59574C14.8809 5.97674 14.5476 6.31007 14.1667 6.31007C13.7857 6.31007 13.4524 6.02432 13.4524 5.54816V5.45291C13.4524 5.40532 13.4047 5.35766 13.3572 5.35766H12.8809C12.7857 5.35766 12.7381 5.45291 12.7381 5.50057V5.59574C12.7381 6.02432 12.4047 6.31007 12.0238 6.31007C11.6428 6.31007 11.3095 6.02432 11.3095 5.59574V5.50057C11.3095 5.45291 11.2619 5.35766 11.1667 5.35766H10.0714C10.0238 5.35766 9.97616 5.40532 9.97616 5.45291ZM7.02383 4.69099C7.02383 5.21482 7.45233 5.64341 7.97616 5.64341C8.49999 5.64341 8.92858 5.21482 8.92858 4.69099C8.92858 4.16724 8.49999 3.73866 7.97616 3.73866C7.45233 3.73866 7.02383 4.16724 7.02383 4.69099Z" />
</svg>