<!--character:9817-->
  <svg width="20" height="20" viewBox="0 0 20 20" >
<path d="M12.0777 4.09722C12.0777 4.30555 12.0777 4.44444 13.2583 4.44444H14.5832L17.1526 1.875C17.4304 1.59722 17.8471 1.59722 18.1248 1.875C18.4026 2.15278 18.4026 2.56944 18.1248 2.84722L16.0614 4.91068C16.0641 4.91355 16.0669 4.91643 16.0696 4.91932L14.096 6.88098L14.0937 6.87837L2.84706 18.125C2.63873 18.4028 2.15262 18.4028 1.87484 18.125C1.59706 17.8472 1.59706 17.4306 1.87484 17.1528L3.46663 15.561V6.11111C3.46663 5.20833 4.23052 4.44444 5.20275 4.375H7.56386C7.77219 4.375 7.91108 4.23611 7.91108 4.02778V3.47222C7.91108 3.26389 7.77219 3.125 7.49441 3.05555C7.07775 3.05555 6.86941 2.70833 6.86941 2.36111C6.86941 2.01389 7.07775 1.66666 7.56386 1.66666H12.425C12.9111 1.66666 13.1194 1.94444 13.1194 2.36111C13.1194 2.77778 12.9111 3.125 12.425 3.125C12.2166 3.125 12.0777 3.26389 12.0777 3.47222V4.09722ZM5.83317 13.1944L7.08317 11.9444V7.29166C7.08317 6.94649 6.80335 6.66666 6.45817 6.66666C6.11299 6.66666 5.83317 6.94649 5.83317 7.29166V13.1944ZM9.4165 9.61111L10.6665 8.36111V7.29166C10.6665 6.94649 10.3867 6.66666 10.0415 6.66666C9.69633 6.66666 9.4165 6.94649 9.4165 7.29166V9.61111ZM9.64719 3.05555C9.43886 3.05555 9.29997 3.1943 9.29997 3.40243V4.02534C9.29997 4.23347 9.43886 4.37222 9.64719 4.37222H10.3416C10.55 4.37222 10.6889 4.23347 10.6889 4.02534V3.40243C10.6889 3.1943 10.55 3.05555 10.3416 3.05555H9.64719Z" />
<path d="M14.2498 8.07962L16.503 5.84012C16.5157 5.92857 16.5222 6.01912 16.5222 6.11111V15.9028C16.5222 16.6667 15.9666 17.4306 15.1333 17.5694C15.0639 17.5694 14.8555 17.7083 14.8555 17.7778C14.8555 18.1944 14.5777 18.3333 14.1611 18.3333C13.7444 18.3333 13.4666 18.1944 13.4666 17.7778C13.4666 17.7083 13.3972 17.6389 13.3277 17.6389H6.52219C6.45275 17.6389 6.3833 17.7083 6.3833 17.7778C6.3833 18.1944 6.10552 18.3333 5.68886 18.3333C5.27219 18.3333 4.99441 18.1944 4.99441 17.7778C4.99441 17.7083 4.92497 17.5694 4.85552 17.5694C4.81233 17.5622 4.76989 17.5536 4.72822 17.5434L9.4165 12.8836V14.375C9.4165 14.7202 9.69633 15 10.0415 15C10.3867 15 10.6665 14.7202 10.6665 14.375V11.6412L12.9998 9.32203V14.375C12.9998 14.7202 13.2797 15 13.6248 15C13.97 15 14.2498 14.7202 14.2498 14.375V8.07962Z" />
</svg>