<!--character:9038-->
  <svg width="24" height="24" viewBox="0 0 24 24" >
<path d="M14.4933 8.81096C14.4933 9.06096 14.66 9.22763 14.91 9.22763H15.91C17.0766 9.22763 17.8266 10.1443 17.8266 11.2276V19.0833C17.8266 20 17.16 20.9167 16.16 21.0833C16.0766 21.0833 15.8266 21.25 15.8266 21.3333C15.8266 21.8333 15.4933 22 14.9933 22C14.4933 22 14.16 21.8333 14.16 21.3333C14.16 21.25 14.0766 21.1667 13.9933 21.1667H9.82663C9.74329 21.1667 9.65996 21.25 9.65996 21.3333C9.65996 21.8333 9.32663 22 8.82663 22C8.32663 22 7.99329 21.8333 7.99329 21.3333C7.99329 21.25 7.90996 21.0833 7.82663 21.0833C6.82663 20.9167 6.15996 20.0833 6.15996 19.0833V11.2276C6.15996 10.1443 7.07663 9.22763 8.24329 9.1443H9.07663C9.32663 9.1443 9.49329 8.97763 9.49329 8.72763V4.16666C9.49329 3.91666 9.32663 3.75 8.99329 3.66666C8.49329 3.66666 8.24329 3.25 8.24329 2.83333C8.24329 2.41666 8.49329 2 9.07663 2H14.91C15.4933 2 15.7433 2.33333 15.7433 2.83333C15.7433 3.33333 15.4933 3.75 14.91 3.75C14.66 3.75 14.4933 3.91666 14.4933 4.16666V8.81096ZM11.5766 3.66666C11.3266 3.66666 11.16 3.83316 11.16 4.08291V8.72471C11.16 8.97446 11.3266 9.14096 11.5766 9.14096H12.41C12.66 9.14096 12.8266 8.97446 12.8266 8.72471V4.08291C12.8266 3.83316 12.66 3.66666 12.41 3.66666H11.5766ZM9.74993 12.1443C9.33571 12.1443 8.99993 12.4801 8.99993 12.8943V17.25C8.99993 17.6642 9.33571 18 9.74993 18C10.1641 18 10.4999 17.6642 10.4999 17.25V12.8943C10.4999 12.4801 10.1641 12.1443 9.74993 12.1443ZM14.2499 12.1443C13.8357 12.1443 13.4999 12.4801 13.4999 12.8943V17.25C13.4999 17.6642 13.8357 18 14.2499 18C14.6641 18 14.9999 17.6642 14.9999 17.25V12.8943C14.9999 12.4801 14.6641 12.1443 14.2499 12.1443Z" />
</svg>