<!-- character:0:881 -->
  <svg width="20" height="20" viewBox="0 0 20 20" >
<path   d="M12.0779 4.09721C12.0779 4.30555 12.0779 4.44443 13.2585 4.44443H14.5834L17.1528 1.87499C17.4306 1.59721 17.8472 1.59721 18.125 1.87499C18.4028 2.15277 18.4028 2.56943 18.125 2.84721L16.0616 4.91067C16.0643 4.91354 16.0671 4.91642 16.0698 4.91931L14.0962 6.88097L14.0939 6.87836L2.84724 18.125C2.63891 18.4028 2.1528 18.4028 1.87502 18.125C1.59724 17.8472 1.59724 17.4305 1.87502 17.1528L3.46682 15.561V6.1111C3.46682 5.20832 4.23071 4.44443 5.20293 4.37499H7.56404C7.77237 4.37499 7.91126 4.2361 7.91126 4.02777V3.47221C7.91126 3.26388 7.77237 3.12499 7.4946 3.05555C7.07793 3.05555 6.8696 2.70832 6.8696 2.3611C6.8696 2.01388 7.07793 1.66666 7.56404 1.66666H12.4252C12.9113 1.66666 13.1196 1.94443 13.1196 2.3611C13.1196 2.77777 12.9113 3.12499 12.4252 3.12499C12.2168 3.12499 12.0779 3.26388 12.0779 3.47221V4.09721ZM5.83335 13.1944L7.08335 11.9444V7.29166C7.08335 6.94648 6.80353 6.66666 6.45835 6.66666C6.11318 6.66666 5.83335 6.94648 5.83335 7.29166V13.1944ZM9.41669 9.6111L10.6667 8.3611V7.29166C10.6667 6.94648 10.3869 6.66666 10.0417 6.66666C9.69651 6.66666 9.41669 6.94648 9.41669 7.29166V9.6111ZM9.64737 3.05555C9.43904 3.05555 9.30015 3.1943 9.30015 3.40242V4.02534C9.30015 4.23346 9.43904 4.37221 9.64737 4.37221H10.3418C10.5502 4.37221 10.689 4.23346 10.689 4.02534V3.40242C10.689 3.1943 10.5502 3.05555 10.3418 3.05555H9.64737Z" />
<path d="M14.25 8.07961L16.5032 5.84012C16.5159 5.92856 16.5224 6.01911 16.5224 6.1111V15.9028C16.5224 16.6667 15.9668 17.4305 15.1335 17.5694C15.064 17.5694 14.8557 17.7083 14.8557 17.7778C14.8557 18.1944 14.5779 18.3333 14.1613 18.3333C13.7446 18.3333 13.4668 18.1944 13.4668 17.7778C13.4668 17.7083 13.3974 17.6389 13.3279 17.6389H6.52237C6.45293 17.6389 6.38348 17.7083 6.38348 17.7778C6.38348 18.1944 6.10571 18.3333 5.68904 18.3333C5.27237 18.3333 4.9946 18.1944 4.9946 17.7778C4.9946 17.7083 4.92515 17.5694 4.85571 17.5694C4.81251 17.5622 4.77007 17.5535 4.72841 17.5434L9.41669 12.8836V14.375C9.41669 14.7202 9.69651 15 10.0417 15C10.3869 15 10.6667 14.7202 10.6667 14.375V11.6412L13 9.32202V14.375C13 14.7202 13.2798 15 13.625 15C13.9702 15 14.25 14.7202 14.25 14.375V8.07961Z" />
</svg>