<!--character:9187-->
  <svg width="24" height="24" viewBox="0 0 24 24" >
<path   d="M10.0001 10.0184C10.4971 10.0184 10.9001 10.4213 10.9001 10.9184L10.9001 16.3184C10.9001 16.8155 10.4971 17.2184 10.0001 17.2184C9.50301 17.2184 9.10007 16.8155 9.10007 16.3184V10.9184C9.10007 10.4213 9.50301 10.0184 10.0001 10.0184Z" />
<path   d="M14.0026 10.0184C14.4996 10.0184 14.9026 10.4213 14.9026 10.9184V16.3184C14.9026 16.8155 14.4996 17.2184 14.0026 17.2184C13.5055 17.2184 13.1026 16.8155 13.1026 16.3184L13.1026 10.9184C13.1026 10.4213 13.5055 10.0184 14.0026 10.0184Z" />
<path   d="M8.00001 19.2015C8.49707 19.2015 8.90001 19.6045 8.90001 20.1015V21.1015C8.90001 21.5986 8.49707 22.0015 8.00001 22.0015C7.50296 22.0015 7.10001 21.5986 7.10001 21.1015V20.1015C7.10001 19.6045 7.50296 19.2015 8.00001 19.2015Z" />
<path   d="M16 19.2015C16.497 19.2015 16.9 19.6045 16.9 20.1015V21.1015C16.9 21.5986 16.497 22.0015 16 22.0015C15.5029 22.0015 15.1 21.5986 15.1 21.1015V20.1015C15.1 19.6045 15.5029 19.2015 16 19.2015Z" />
<path   d="M5.01255 9.18222C5.01255 7.42595 6.43628 6.00222 8.19255 6.00222H15.8075C17.5638 6.00222 18.9875 7.42595 18.9875 9.18222V17.8215C18.9875 19.5778 17.5638 21.0015 15.8075 21.0015H8.19255C6.43629 21.0015 5.01255 19.5778 5.01255 17.8215V9.18222ZM8.19255 7.80222C7.4304 7.80222 6.81255 8.42006 6.81255 9.18222V17.8215C6.81255 18.5837 7.4304 19.2015 8.19255 19.2015H15.8075C16.5696 19.2015 17.1875 18.5837 17.1875 17.8215V9.18222C17.1875 8.42007 16.5696 7.80222 15.8075 7.80222H8.19255Z" />
<path   d="M8.23522 4.70056C8.23522 3.20939 9.44405 2.00056 10.9352 2.00056H13.065C14.5561 2.00056 15.765 3.2094 15.765 4.70056V6.5477C15.765 7.04475 15.362 7.4477 14.865 7.4477C14.3679 7.4477 13.965 7.04475 13.965 6.5477V4.70056C13.965 4.20351 13.562 3.80056 13.065 3.80056H10.9352C10.4382 3.80056 10.0352 4.20351 10.0352 4.70056V6.5477C10.0352 7.04475 9.63228 7.4477 9.13522 7.4477C8.63816 7.4477 8.23522 7.04475 8.23522 6.5477V4.70056Z" />
</svg>