<!--character:3024:2826-->
<svg width="24" height="24" viewBox="0 0 24 24">
  <path d="M16.0769 9.08972L21.75 3.41666C22.0833 3.08333 22.0833 2.58333 21.75 2.25C21.4166 1.91666 20.9166 1.91666 20.5833 2.25L14.4934 8.33984V4.16666C14.4934 3.91666 14.6601 3.75 14.9101 3.75C15.4934 3.75 15.7434 3.33333 15.7434 2.83333C15.7434 2.33333 15.4934 2 14.9101 2H9.07677C8.49344 2 8.24344 2.41666 8.24344 2.83333C8.24344 3.25 8.49344 3.66666 8.99344 3.66666C9.32677 3.75 9.49344 3.91666 9.49344 4.16666V8.58333C9.49344 8.83333 9.32678 9 9.07677 9H8.24344C7.07677 9.08333 6.16011 10 6.16011 11.0833V16.6732L2.24995 20.5833C1.91662 20.9167 1.91662 21.4167 2.24995 21.75C2.58328 22.0833 3.16662 22.0833 3.41662 21.75L15.7031 9.46353L16.0793 9.0899L16.0769 9.08972ZM12.4101 3.66666C12.6601 3.66666 12.8268 3.83316 12.8268 4.08291V8.58041C12.8268 8.83016 12.6601 8.99666 12.4101 8.99666H11.5768C11.3268 8.99666 11.1601 8.83016 11.1601 8.58041V4.08291C11.1601 3.83316 11.3268 3.66666 11.5768 3.66666C11.8268 3.66666 12.1601 3.66666 12.4101 3.66666ZM9.06662 12H10.8425L9.49995 13.3333H9.06662C8.73329 13.3333 8.39995 13.0833 8.39995 12.6667C8.39995 12.25 8.73329 12 9.06662 12Z" />
  <path d="M14.7816 12L17.2144 9.5839C17.6048 9.95385 17.8268 10.4939 17.8268 11.0833V19.0833C17.8268 20 17.1601 20.9167 16.1601 21.0833C16.0768 21.0833 15.8268 21.25 15.8268 21.3333C15.8268 21.8333 15.4934 22 14.9934 22C14.4934 22 14.1601 21.8333 14.1601 21.3333C14.1601 21.25 14.0768 21.1667 13.9934 21.1667H9.82677C9.74344 21.1667 9.66011 21.25 9.66011 21.3333C9.66011 21.8333 9.32677 22 8.82677 22C8.32677 22 7.99344 21.8333 7.99344 21.3333C7.99344 21.25 7.91011 21.0833 7.82677 21.0833C7.25153 20.9875 6.78659 20.671 6.4954 20.2291L13.439 13.3333H14.9101C15.2434 13.3333 15.5768 13.0833 15.5768 12.6667C15.5768 12.25 15.2434 12 14.9101 12H14.7816Z" />
</svg>
