<!--character:4774-->
  <svg width="20" height="20" viewBox="0 0 20 20" >
<path d="M15.9026 5.93611C15.6943 5.93611 15.5554 5.79722 15.5554 5.58889V3.50555C15.5554 3.29722 15.6943 3.15833 15.9026 3.15833C16.3887 3.15833 16.5971 2.81111 16.5971 2.39444C16.5971 1.97777 16.3887 1.7 15.9026 1.7H11.0415C10.5554 1.7 10.3471 2.04722 10.3471 2.39444C10.3471 2.74166 10.5554 3.08889 10.9721 3.08889C11.2498 3.15833 11.3887 3.29722 11.3887 3.50555V5.51944C11.3887 5.72777 11.2498 5.86666 11.0415 5.86666H10.3471C9.37484 5.93611 8.61095 6.7 8.61095 7.60277V9.54722C8.88873 9.89444 9.09706 10.2417 9.1665 10.6583H9.44428C10.4165 10.6583 11.2498 11.4917 11.3887 12.5333V16.3528C11.3887 17.1167 10.9026 17.8111 10.2776 18.0889C10.4165 18.2278 10.5554 18.2972 10.8332 18.2972C11.2498 18.2972 11.5276 18.1583 11.5276 17.7417C11.5276 17.6722 11.5971 17.6028 11.6665 17.6028H15.1387C15.2082 17.6028 15.2776 17.6722 15.2776 17.7417C15.2776 18.1583 15.5554 18.2972 15.9721 18.2972C16.3887 18.2972 16.6665 18.1583 16.6665 17.7417C16.6665 17.6722 16.8748 17.5333 16.9443 17.5333C17.7776 17.3944 18.3332 16.6306 18.3332 15.8667V7.53333C18.3332 6.7 17.7082 5.93611 16.7359 5.93611H15.9026ZM13.1248 3.08889H13.8193C14.0276 3.08889 14.1665 3.22777 14.1665 3.43611V5.51944C14.1665 5.72777 14.0276 5.86666 13.8193 5.86666H13.1248C12.9165 5.86666 12.7776 5.72777 12.7776 5.51944V3.43611C12.7776 3.22777 12.9165 3.08889 13.1248 3.08889ZM15.9026 8.64444H12.9859C12.7776 8.64444 12.6387 8.78333 12.6387 8.99166V9.68611C12.6387 9.96388 12.4304 10.2417 12.0832 10.2417C11.7359 10.2417 11.5276 10.0333 11.5276 9.68611V8.99166C11.5276 8.78333 11.3887 8.64444 11.2498 8.64444H11.0415C10.7637 8.64444 10.4859 8.43611 10.4859 8.08889C10.4859 7.74166 10.6943 7.53333 11.0415 7.53333H15.9026C16.1804 7.53333 16.4582 7.74166 16.4582 8.08889C16.4582 8.43611 16.1804 8.64444 15.9026 8.64444Z" />
<path d="M9.51373 11.3528H8.61095C8.61095 10.1722 7.70817 9.26944 6.52761 9.26944H5.83317C4.65261 9.26944 3.74984 10.1722 3.74984 11.3528H2.9165C2.22206 11.3528 1.6665 11.9083 1.6665 12.6028V16.4222C1.6665 17.1167 2.22206 17.6722 2.9165 17.6722H9.51373C10.2082 17.6722 10.7637 17.1167 10.7637 16.4222V12.6028C10.6943 11.9083 10.1387 11.3528 9.51373 11.3528ZM5.13873 11.3528C5.13873 10.9361 5.4165 10.6583 5.83317 10.6583H6.52762C6.94428 10.6583 7.22206 10.9361 7.22206 11.3528H5.13873Z" />
</svg>