<!--character:9714-->
  <svg width="24" height="24" viewBox="0 0 24 24" >
<path d="M15.9102 5.33333C14.4935 5.33333 14.4935 5.16666 14.4935 4.91666V4.16666C14.4935 3.91666 14.6602 3.75 14.9102 3.75C15.4935 3.75 15.7435 3.33333 15.7435 2.83333C15.7435 2.33333 15.4935 2 14.9102 2H9.07682C8.49349 2 8.24349 2.41666 8.24349 2.83333C8.24349 3.25 8.49349 3.66666 8.99349 3.66666C9.32682 3.75 9.49349 3.91666 9.49349 4.16666V4.83333C9.49349 5.08333 9.32682 5.25 9.07682 5.25H6.24349C5.07682 5.33333 4.16016 6.25 4.16016 7.33333V19.0833C4.16016 20.0833 4.82682 20.9167 5.82682 21.0833C5.91016 21.0833 5.99349 21.25 5.99349 21.3333C5.99349 21.8333 6.32682 22 6.82682 22C7.32682 22 7.66016 21.8333 7.66016 21.3333C7.66016 21.25 7.74349 21.1667 7.82682 21.1667H15.9935C16.0768 21.1667 16.1602 21.25 16.1602 21.3333C16.1602 21.8333 16.4935 22 16.9935 22C17.4935 22 17.8268 21.8333 17.8268 21.3333C17.8268 21.25 18.0768 21.0833 18.1602 21.0833C19.1602 20.9167 19.8268 20 19.8268 19.0833V7.33333C19.8268 6.25 19.0768 5.33333 17.9102 5.33333H15.9102ZM15.6 8.75C15.6 8.33578 15.9358 8 16.35 8C16.7642 8 17.1 8.33578 17.1 8.75V17.25C17.1 17.6642 16.7642 18 16.35 18C15.9358 18 15.6 17.6642 15.6 17.25V8.75ZM11.3 8.75C11.3 8.33578 11.6358 8 12.05 8C12.4642 8 12.8 8.33578 12.8 8.75V17.25C12.8 17.6642 12.4642 18 12.05 18C11.6358 18 11.3 17.6642 11.3 17.25V8.75ZM7.75 8C8.16421 8 8.5 8.33578 8.5 8.75V17.25C8.5 17.6642 8.16421 18 7.75 18C7.33579 18 7 17.6642 7 17.25V8.75C7 8.33578 7.33579 8 7.75 8ZM11.1602 4.0829C11.1602 3.83315 11.3268 3.66665 11.5768 3.66665H12.4102C12.6602 3.66665 12.8268 3.83315 12.8268 4.0829V4.8304C12.8268 5.08015 12.6602 5.24665 12.4102 5.24665H11.5768C11.3268 5.24665 11.1602 5.08015 11.1602 4.8304V4.0829Z" />
</svg>