<!--character:4786-->
  <svg width="29" height="29" viewBox="0 0 29 29" >
<path   d="M9.9509 5.67985C9.9509 3.87802 11.4116 2.41735 13.2134 2.41735H15.7868C17.5887 2.41735 19.0493 3.87802 19.0493 5.67985V7.9118C19.0493 8.51241 18.5624 8.9993 17.9618 8.9993C17.3612 8.9993 16.8743 8.51241 16.8743 7.9118V5.67985C16.8743 5.07924 16.3874 4.59235 15.7868 4.59235H13.2134C12.6128 4.59235 12.1259 5.07924 12.1259 5.67985V7.9118C12.1259 8.51241 11.639 8.9993 11.0384 8.9993C10.4378 8.9993 9.9509 8.51241 9.9509 7.9118V5.67985Z" />
<path   d="M2.72383 26.2761C2.29914 25.8514 2.29914 25.1629 2.72383 24.7382L24.7381 2.72387C25.1628 2.29917 25.8514 2.29917 26.2761 2.72387C26.7008 3.14856 26.7008 3.83713 26.2761 4.26182L4.26179 26.2761C3.83709 26.7008 3.14853 26.7008 2.72383 26.2761Z" />
<path d="M8.47638 25.1047C8.51043 25.1183 8.54472 25.1314 8.57924 25.1441V25.4977C8.57924 26.0983 9.06613 26.5852 9.66674 26.5852C10.2673 26.5852 10.7542 26.0983 10.7542 25.4977V25.3769H18.2459V25.4977C18.2459 26.0983 18.7327 26.5852 19.3334 26.5852C19.934 26.5852 20.4209 26.0983 20.4209 25.4977V25.1441C21.8927 24.6057 22.9433 23.1927 22.9433 21.5344V11.0952C22.9433 10.9487 22.9351 10.8042 22.9191 10.662L20.7683 12.8129V21.5344C20.7683 22.4553 20.0217 23.2019 19.1008 23.2019H10.3793L8.47638 25.1047Z" />
<path d="M20.4244 10.0808C20.1196 9.6837 19.6401 9.42768 19.1008 9.42768H9.89939C8.97846 9.42768 8.23189 10.1742 8.23189 11.0952V21.5344C8.23189 21.7534 8.27414 21.9626 8.35093 22.1543L6.7578 23.7474C6.31625 23.1218 6.05689 22.3584 6.05689 21.5344V11.0952C6.05689 8.97303 7.77723 7.25268 9.89939 7.25268H19.1008C20.2405 7.25268 21.2644 7.74892 21.9681 8.53713L20.4244 10.0808Z" />
</svg>