<!--character:3427-->
  <svg width="24" height="24" viewBox="0 0 24 24" >
<path   d="M8.2352 4.70056C8.2352 3.20939 9.44404 2.00056 10.9352 2.00056H13.0649C14.5561 2.00056 15.7649 3.20939 15.7649 4.70056V6.54769C15.7649 7.04475 15.362 7.44769 14.8649 7.44769C14.3679 7.44769 13.9649 7.04475 13.9649 6.54769V4.70056C13.9649 4.20351 13.562 3.80056 13.0649 3.80056H10.9352C10.4381 3.80056 10.0352 4.20351 10.0352 4.70056V6.54769C10.0352 7.04475 9.63226 7.44769 9.1352 7.44769C8.63815 7.44769 8.2352 7.04475 8.2352 6.54769V4.70056Z" />
<path   d="M2.25418 21.7458C1.90271 21.3943 1.90271 20.8244 2.25418 20.473L20.4729 2.25424C20.8244 1.90276 21.3942 1.90276 21.7457 2.25424C22.0972 2.60571 22.0972 3.17555 21.7457 3.52703L3.52697 21.7458C3.1755 22.0972 2.60565 22.0972 2.25418 21.7458Z" />
<path d="M7.01491 20.7763C7.04309 20.7876 7.07147 20.7984 7.10004 20.8089V21.1015C7.10004 21.5986 7.50298 22.0015 8.00004 22.0015C8.49709 22.0015 8.90004 21.5986 8.90004 21.1015V21.0015H15.1V21.1015C15.1 21.5986 15.5029 22.0015 16 22.0015C16.497 22.0015 16.9 21.5986 16.9 21.1015V20.8089C18.1181 20.3633 18.9875 19.194 18.9875 17.8215V9.18222C18.9875 9.06102 18.9807 8.9414 18.9675 8.82373L17.1875 10.6037V17.8215C17.1875 18.5837 16.5697 19.2015 15.8075 19.2015H8.58972L7.01491 20.7763Z" />
<path d="M16.9029 8.34276C16.6507 8.0141 16.2538 7.80222 15.8075 7.80222H8.19257C7.43042 7.80222 6.81257 8.42007 6.81257 9.18222V17.8215C6.81257 18.0028 6.84754 18.176 6.91109 18.3346L5.59264 19.653C5.22722 19.1353 5.01257 18.5035 5.01257 17.8215V9.18222C5.01257 7.42595 6.43631 6.00222 8.19257 6.00222H15.8075C16.7508 6.00222 17.5981 6.4129 18.1805 7.06521L16.9029 8.34276Z" />
</svg>