<!--character:3727-->
  <svg width="20" height="20" viewBox="0 0 20 20" >
<path d="M17.1529 1.875C17.4306 1.59722 17.8473 1.59722 18.1251 1.875C18.4029 2.15278 18.4029 2.56944 18.1251 2.84722L14.0361 6.93621L14.0424 6.93645L13.0853 7.88699L2.8473 18.125C2.63897 18.4028 2.15286 18.4028 1.87508 18.125C1.5973 17.8472 1.5973 17.4306 1.87508 17.1528L3.38214 15.6457C3.23526 15.3737 3.16692 15.069 3.16692 14.7054C3.16692 14.1283 3.46044 8.79544 3.51714 8.49858C3.59386 8.10833 3.75396 7.80814 4.05082 7.51462C4.2843 7.2778 4.59783 7.08434 4.88468 6.99762C4.95806 6.97427 5.31829 6.94759 5.69187 6.93425L5.73926 6.9328C6.20615 6.91861 6.36406 6.91382 6.4464 6.8325C6.47625 6.80302 6.49618 6.76348 6.51729 6.70978C6.56196 6.3854 6.7765 5.81158 7.00855 5.47075C7.16532 5.24727 7.48886 4.91039 7.72234 4.73694C8.06256 4.48011 8.43613 4.31334 8.91311 4.2066C9.0632 4.17325 9.27334 4.15991 9.6269 4.16991C10.5538 4.19615 11.0604 4.25997 11.4806 4.47011C12.0643 4.76696 12.5713 5.28396 12.8548 5.87434C12.8872 5.9412 12.9176 6.01138 12.9453 6.08252L17.1529 1.875ZM9.85796 9.1699H5.83345C5.48622 9.1699 5.27789 9.37823 5.27789 9.72545C5.27789 10.0727 5.55567 10.281 5.83345 10.281H5.94765C6.08654 10.281 6.22543 10.4199 6.22543 10.6282V11.3227C6.22543 11.6699 6.32934 11.8782 6.78098 11.8782C7.2656 11.8782 7.33654 11.6666 7.33654 11.3227C7.34196 10.8333 7.33654 10.6282 7.33654 10.6282C7.33654 10.4199 7.47543 10.281 7.68376 10.281H8.74685L9.85796 9.1699ZM7.80321 6.73144C7.82178 6.75205 7.84306 6.7728 7.86153 6.7908C7.87927 6.80809 7.8944 6.82284 7.90202 6.8325C7.97276 6.92211 8.34315 6.92007 9.03719 6.91625C9.17821 6.91547 9.33265 6.91462 9.5006 6.91445L9.83785 6.91423L10.1751 6.91445C10.4189 6.9147 10.6387 6.91746 10.8329 6.9199C11.3365 6.92622 11.6677 6.93038 11.798 6.88289C11.7845 6.8447 11.7696 6.7943 11.7586 6.7449C11.6223 6.19226 11.1798 5.36927 9.6269 5.36927C8.79637 5.36927 8.0659 5.86767 7.81907 6.67819C7.81389 6.6961 7.80857 6.71395 7.80321 6.73144Z" />
<path d="M13.154 9.1699L15.1716 7.16612C15.3355 7.26082 15.493 7.3808 15.6249 7.51462C15.9217 7.80814 16.0852 8.11167 16.1586 8.49858C16.2119 8.79878 16.5088 14.155 16.5088 14.7054C16.5088 15.2824 16.3387 15.706 15.9584 16.0896C15.6883 16.3598 15.4414 16.5098 15.1012 16.6032C14.8891 16.662 14.7664 16.6696 14.0088 16.6699H13.1583L13.1589 16.6667H12.0837L12.0843 16.6699L7.60266 16.6699L7.60328 16.6667H6.5257L6.52632 16.6699L5.60193 16.6699L12.0352 10.281H13.7503C14.028 10.281 14.3058 10.0727 14.3058 9.72545C14.3058 9.37823 14.028 9.1699 13.7503 9.1699H13.154Z" />
</svg>