<!--character:1137-->
  <svg width="24" height="24" viewBox="0 0 24 24" >
<path d="M19.0831 7.12333C18.8331 7.12333 18.6665 6.95666 18.6665 6.70666V4.20666C18.6665 3.95666 18.8331 3.79 19.0831 3.79C19.6665 3.79 19.9165 3.37333 19.9165 2.87333C19.9165 2.37333 19.6665 2.04 19.0831 2.04H13.2498C12.6665 2.04 12.4165 2.45666 12.4165 2.87333C12.4165 3.29 12.6665 3.70666 13.1665 3.70666C13.4998 3.79 13.6665 3.95666 13.6665 4.20666V6.62333C13.6665 6.87333 13.4998 7.04 13.2498 7.04H12.4165C11.2498 7.12333 10.3331 8.04 10.3331 9.12333V11.4567C10.6665 11.8733 10.9165 12.29 10.9998 12.79H11.3331C12.4998 12.79 13.4998 13.79 13.6665 15.04V19.6233C13.6665 20.54 13.0831 21.3733 12.3331 21.7067C12.4998 21.8733 12.6665 21.9567 12.9998 21.9567C13.4998 21.9567 13.8331 21.79 13.8331 21.29C13.8331 21.2067 13.9165 21.1233 13.9998 21.1233H18.1665C18.2498 21.1233 18.3331 21.2067 18.3331 21.29C18.3331 21.79 18.6665 21.9567 19.1665 21.9567C19.6665 21.9567 19.9998 21.79 19.9998 21.29C19.9998 21.2067 20.2498 21.04 20.3331 21.04C21.3331 20.8733 21.9998 19.9567 21.9998 19.04V9.04C21.9998 8.04 21.2498 7.12333 20.0831 7.12333H19.0831ZM15.7498 3.70666H16.5831C16.8331 3.70666 16.9998 3.87333 16.9998 4.12333V6.62333C16.9998 6.87333 16.8331 7.04 16.5831 7.04H15.7498C15.4998 7.04 15.3331 6.87333 15.3331 6.62333V4.12333C15.3331 3.87333 15.4998 3.70666 15.7498 3.70666ZM19.0831 10.3733H15.5831C15.3331 10.3733 15.1665 10.54 15.1665 10.79V11.6233C15.1665 11.9567 14.9165 12.29 14.4998 12.29C14.0831 12.29 13.8331 12.04 13.8331 11.6233V10.79C13.8331 10.54 13.6665 10.3733 13.4998 10.3733H13.2498C12.9165 10.3733 12.5831 10.1233 12.5831 9.70666C12.5831 9.29 12.8331 9.04 13.2498 9.04H19.0831C19.4165 9.04 19.7498 9.29 19.7498 9.70666C19.7498 10.1233 19.4165 10.3733 19.0831 10.3733Z" />
<path d="M11.4165 13.6233H10.3331C10.3331 12.2067 9.2498 11.1233 7.83314 11.1233H6.9998C5.58314 11.1233 4.4998 12.2067 4.4998 13.6233H3.4998C2.66647 13.6233 1.9998 14.29 1.9998 15.1233V19.7067C1.9998 20.54 2.66647 21.2067 3.4998 21.2067H11.4165C12.2498 21.2067 12.9165 20.54 12.9165 19.7067V15.1233C12.8331 14.29 12.1665 13.6233 11.4165 13.6233ZM6.16647 13.6233C6.16647 13.1233 6.4998 12.79 6.9998 12.79H7.83314C8.33314 12.79 8.66647 13.1233 8.66647 13.6233H6.16647Z" />
</svg>