<!--character:7228-->
  <svg width="24" height="24" viewBox="0 0 24 24" >
<path d="M14.4312 5.09375C14.4312 5.3375 14.4312 5.5 15.8124 5.5H17.3625L20.3687 2.49375C20.6938 2.16875 21.1812 2.16875 21.5063 2.49375C21.8313 2.81875 21.8313 3.30625 21.5063 3.63125L19.092 6.0455C19.0952 6.04885 19.0984 6.05222 19.1017 6.05561L16.7925 8.35075L16.7898 8.34769L3.63125 21.5062C3.3875 21.8312 2.81875 21.8312 2.49375 21.5062C2.16875 21.1812 2.16875 20.6938 2.49375 20.3687L4.35615 18.5063V7.45C4.35615 6.39375 5.2499 5.5 6.3874 5.41875H9.1499C9.39365 5.41875 9.55615 5.25625 9.55615 5.0125V4.3625C9.55615 4.11875 9.39365 3.95625 9.06865 3.875C8.58115 3.875 8.3374 3.46875 8.3374 3.0625C8.3374 2.65625 8.58115 2.25 9.1499 2.25H14.8374C15.4062 2.25 15.6499 2.575 15.6499 3.0625C15.6499 3.55 15.4062 3.95625 14.8374 3.95625C14.5937 3.95625 14.4312 4.11875 14.4312 4.3625V5.09375ZM7.125 15.7375L8.5875 14.275V8.83125C8.5875 8.42739 8.26011 8.1 7.85625 8.1C7.45239 8.1 7.125 8.42739 7.125 8.83125V15.7375ZM11.3175 11.545L12.78 10.0825V8.83125C12.78 8.42739 12.4526 8.1 12.0487 8.1C11.6449 8.1 11.3175 8.42739 11.3175 8.83125V11.545ZM11.5874 3.875C11.3437 3.875 11.1812 4.03734 11.1812 4.28084V5.00966C11.1812 5.25316 11.3437 5.4155 11.5874 5.4155H12.3999C12.6437 5.4155 12.8062 5.25316 12.8062 5.00966V4.28084C12.8062 4.03734 12.6437 3.875 12.3999 3.875H11.5874Z" />
<path d="M16.9725 9.75316L19.6087 7.13295C19.6236 7.23643 19.6312 7.34237 19.6312 7.45V18.9062C19.6312 19.8 18.9812 20.6938 18.0062 20.8562C17.9249 20.8562 17.6812 21.0187 17.6812 21.1C17.6812 21.5875 17.3562 21.75 16.8687 21.75C16.3812 21.75 16.0562 21.5875 16.0562 21.1C16.0562 21.0187 15.9749 20.9375 15.8937 20.9375H7.93115C7.8499 20.9375 7.76865 21.0187 7.76865 21.1C7.76865 21.5875 7.44365 21.75 6.95615 21.75C6.46865 21.75 6.14365 21.5875 6.14365 21.1C6.14365 21.0187 6.0624 20.8562 5.98115 20.8562C5.93062 20.8478 5.88096 20.8377 5.83221 20.8258L11.3175 15.3738V17.1187C11.3175 17.5226 11.6449 17.85 12.0487 17.85C12.4526 17.85 12.78 17.5226 12.78 17.1187V13.9202L15.51 11.2068V17.1187C15.51 17.5226 15.8374 17.85 16.2413 17.85C16.6451 17.85 16.9725 17.5226 16.9725 17.1187V9.75316Z" />
</svg>