<!-- character:0:935 -->
  <svg width="20" height="20" viewBox="0 0 20 20" >
<path   d="M17.1528 1.87499C17.4305 1.59721 17.8472 1.59721 18.125 1.87499C18.4028 2.15277 18.4028 2.56943 18.125 2.84721L14.036 6.93621L14.0424 6.93645L13.0852 7.88699L2.84721 18.125C2.63888 18.4028 2.15277 18.4028 1.87499 18.125C1.59721 17.8472 1.59721 17.4305 1.87499 17.1528L3.38205 15.6457C3.23517 15.3737 3.16682 15.069 3.16682 14.7054C3.16682 14.1283 3.46035 8.79543 3.51705 8.49858C3.59376 8.10833 3.75387 7.80813 4.05072 7.51461C4.28421 7.27779 4.59774 7.08434 4.88459 6.99761C4.95797 6.97426 5.3182 6.94758 5.69177 6.93424L5.73917 6.9328C6.20606 6.91861 6.36397 6.91381 6.44631 6.83249C6.47616 6.80301 6.49608 6.76347 6.5172 6.70977C6.56187 6.38539 6.77641 5.81157 7.00846 5.47074C7.16523 5.24726 7.48877 4.91038 7.72225 4.73694C8.06247 4.4801 8.43604 4.31333 8.91301 4.2066C9.06311 4.17324 9.27324 4.1599 9.6268 4.16991C10.5538 4.19614 11.0603 4.25996 11.4805 4.4701C12.0643 4.76696 12.5712 5.28395 12.8548 5.87433C12.8872 5.94119 12.9175 6.01138 12.9452 6.08251L17.1528 1.87499ZM9.85787 9.16989H5.83335C5.48613 9.16989 5.2778 9.37822 5.2778 9.72544C5.2778 10.0727 5.55558 10.281 5.83335 10.281H5.94756C6.08645 10.281 6.22534 10.4199 6.22534 10.6282V11.3227C6.22534 11.6699 6.32924 11.8782 6.78089 11.8782C7.26551 11.8782 7.33645 11.6666 7.33645 11.3227C7.34187 10.8333 7.33645 10.6282 7.33645 10.6282C7.33645 10.4199 7.47533 10.281 7.68367 10.281H8.74676L9.85787 9.16989ZM7.80312 6.73144C7.82168 6.75204 7.84297 6.77279 7.86143 6.79079C7.87917 6.80808 7.89431 6.82284 7.90193 6.83249C7.97266 6.9221 8.34306 6.92006 9.0371 6.91624C9.17812 6.91546 9.33256 6.91461 9.5005 6.91444L9.83776 6.91423L10.175 6.91444C10.4188 6.91469 10.6386 6.91745 10.8328 6.91989C11.3364 6.92621 11.6676 6.93037 11.798 6.88289C11.7845 6.84469 11.7695 6.79429 11.7585 6.74489C11.6222 6.19225 11.1797 5.36926 9.6268 5.36926C8.79627 5.36926 8.06581 5.86766 7.81898 6.67818C7.81379 6.69609 7.80848 6.71394 7.80312 6.73144Z" />
<path d="M13.1539 9.16989L15.1716 7.16611C15.3354 7.26081 15.4929 7.38079 15.6248 7.51461C15.9217 7.80813 16.0851 8.11166 16.1585 8.49858C16.2118 8.79877 16.5087 14.155 16.5087 14.7054C16.5087 15.2824 16.3386 15.706 15.9583 16.0896C15.6882 16.3597 15.4413 16.5098 15.1011 16.6032C14.8891 16.662 14.7663 16.6696 14.0087 16.6699H13.1582L13.1588 16.6667H12.0836L12.0842 16.6699L7.60257 16.6699L7.60319 16.6667H6.52561L6.52623 16.6699L5.60184 16.6699L12.0351 10.281H13.7502C14.0279 10.281 14.3057 10.0727 14.3057 9.72544C14.3057 9.37822 14.0279 9.16989 13.7502 9.16989H13.1539Z" />
</svg>