<!--character:1585-->
  <svg width="24" height="24" viewBox="0 0 24 24" >
<path d="M7.93291 8.19695C7.83417 8.29447 7.64479 8.30022 7.08489 8.31724L7.02805 8.31897C6.58005 8.33497 6.14805 8.36697 6.06005 8.39497C5.71605 8.49897 5.34005 8.73097 5.06005 9.01497C4.70405 9.36697 4.51205 9.72697 4.42005 10.195C4.35205 10.551 4.00005 16.9463 4.00005 17.6383C4.00005 18.3263 4.20405 18.8383 4.66005 19.2983C4.99205 19.6303 5.26805 19.7983 5.68005 19.9103C5.94323 19.985 6.08297 19.994 7.00837 19.9943H8.02875L8.02801 19.9904H9.32027L9.31953 19.9943L14.6941 19.9943L14.6933 19.9904H15.9827L15.982 19.9943H17.002C17.9106 19.994 18.0577 19.9848 18.312 19.9143C18.72 19.8023 19.016 19.6223 19.34 19.2983C19.796 18.8383 20 18.3303 20 17.6383C20 16.9783 19.644 10.555 19.58 10.195C19.492 9.73097 19.296 9.36697 18.94 9.01497C18.66 8.73097 18.284 8.49897 17.94 8.39497C17.852 8.36697 17.42 8.33497 16.972 8.31897L16.9152 8.31724C16.3553 8.30022 16.1659 8.29447 16.0672 8.19695C16.0167 8.14712 15.9899 8.07332 15.9494 7.96181L15.944 7.94697C15.9317 7.91339 15.9146 7.87851 15.8938 7.84323C15.8406 7.59919 15.7419 7.30328 15.6181 7.04789C15.2781 6.33989 14.6701 5.71989 13.9701 5.36389C13.4661 5.11189 12.8587 5.03536 11.7471 5.00389C11.3231 4.99189 11.0711 5.00789 10.8911 5.04789C10.3191 5.17589 9.87106 5.37589 9.46306 5.68389C9.18306 5.89189 8.79506 6.29589 8.60706 6.56389C8.55702 6.63739 8.50766 6.71992 8.46005 6.80812C8.26449 7.17033 8.0983 7.62818 8.03504 7.9487C8.02804 7.98418 8.0223 8.01798 8.01792 8.04979C7.9926 8.11418 7.96871 8.16159 7.93291 8.19695ZM10.7365 8.30176C10.1325 8.30935 9.89458 8.30176 9.6264 8.29523C9.55544 8.2935 9.57463 8.30176 9.6264 8.09189C9.78987 7.42915 10.3205 6.44219 12.1828 6.44219C13.1788 6.44219 14.0548 7.03989 14.3508 8.01189C14.3741 8.08317 14.3936 8.21516 14.3508 8.24715C14.3508 8.3234 13.7223 8.30197 12.89 8.29739C12.7208 8.29646 12.5357 8.29544 12.3342 8.29523L11.9298 8.29497L11.5253 8.29523C11.233 8.29553 10.9693 8.29884 10.7365 8.30176ZM16.6919 12.3325H9.41679C9.16695 12.3325 9.00039 12.4991 9.00039 12.7489C9.00039 12.7489 9.0069 12.9948 9.00039 13.5817C9.00039 13.9942 8.91532 14.248 8.33415 14.248C7.79252 14.248 7.66791 13.9981 7.66791 13.5817V12.7489C7.66791 12.4991 7.50135 12.3325 7.33479 12.3325H7.19784C6.86472 12.3325 6.5316 12.0827 6.5316 11.6663C6.5316 11.2499 6.78144 11 7.19784 11H16.6919C17.025 11 17.3582 11.2499 17.3582 11.6663C17.3582 12.0827 17.025 12.3325 16.6919 12.3325Z" />
</svg>