<!--character:263:550:2738-->
  <svg width="24" height="24" viewBox="0 0 24 24" >
<path   d="M19.0833 7.12334H20.0833C21.25 7.12334 22 8.04001 22 9.04001V19.04C22 19.9567 21.3333 20.8733 20.3333 21.04C20.25 21.04 20 21.2067 20 21.29C20 21.79 19.6667 21.9567 19.1667 21.9567C18.6667 21.9567 18.3333 21.79 18.3333 21.29C18.3333 21.2067 18.25 21.1233 18.1667 21.1233H14C13.9167 21.1233 13.8333 21.2067 13.8333 21.29C13.8333 21.79 13.5 21.9567 13 21.9567C12.6667 21.9567 12.5 21.8733 12.3333 21.7067C13.0833 21.3733 13.6667 20.54 13.6667 19.6233V15.04C13.5 13.79 12.5 12.79 11.3333 12.79H11C10.9167 12.29 10.6667 11.8733 10.3333 11.4567V9.12334C10.3333 8.04001 11.25 7.12334 12.4167 7.04001H13.25C13.5 7.04001 13.6667 6.87334 13.6667 6.62334V4.20668C13.6667 3.95668 13.5 3.79001 13.1667 3.70668C12.6667 3.70668 12.4167 3.29001 12.4167 2.87334C12.4167 2.45668 12.6667 2.04001 13.25 2.04001H19.0833C19.6667 2.04001 19.9167 2.37334 19.9167 2.87334C19.9167 3.37334 19.6667 3.79001 19.0833 3.79001C18.8333 3.79001 18.6667 3.95668 18.6667 4.20668V6.70668C18.6667 6.95668 18.8333 7.12334 19.0833 7.12334ZM15.75 3.70668C15.5 3.70668 15.3333 3.87335 15.3333 4.12335V6.62335C15.3333 6.87335 15.5 7.04001 15.75 7.04001H16.5833C16.8333 7.04001 17 6.87335 17 6.62335V4.12335C17 3.87335 16.8333 3.70668 16.5833 3.70668H15.75ZM19.0833 10.3733H15.5833C15.3333 10.3733 15.1667 10.54 15.1667 10.79V11.6233C15.1667 11.9567 14.9167 12.29 14.5 12.29C14.0833 12.29 13.8333 12.04 13.8333 11.6233V10.79C13.8333 10.54 13.6667 10.3733 13.5 10.3733H13.25C12.9167 10.3733 12.5833 10.1233 12.5833 9.70667C12.5833 9.29001 12.8333 9.04001 13.25 9.04001H19.0833C19.4167 9.04001 19.75 9.29001 19.75 9.70667C19.75 10.1233 19.4167 10.3733 19.0833 10.3733ZM11.4167 13.6233H10.3333C10.3333 12.2067 9.25 11.1233 7.83333 11.1233H7C5.58333 11.1233 4.5 12.2067 4.5 13.6233H3.5C2.66667 13.6233 2 14.29 2 15.1233V19.7067C2 20.54 2.66667 21.2067 3.5 21.2067H11.4167C12.25 21.2067 12.9167 20.54 12.9167 19.7067V15.1233C12.8333 14.29 12.1667 13.6233 11.4167 13.6233ZM6.16666 13.6233C6.16666 13.1233 6.49999 12.79 6.99999 12.79H7.83332C8.33332 12.79 8.66666 13.1233 8.66666 13.6233H6.16666Z" />
</svg>