<!--character:3977:1701-->
  <svg width="24" height="24" viewBox="0 0 24 24" >
<path d="M10.446 4.01907C8.95484 4.01907 7.74601 5.2279 7.74601 6.71907V7.99503H7.18617C5.4299 7.99503 4.00617 9.41877 4.00617 11.175V16.8275C4.00617 18.0222 4.66498 19.063 5.63911 19.6065L7.04519 18.2004C6.34926 18.1298 5.80617 17.5421 5.80617 16.8275V11.175C5.80617 10.4129 6.42402 9.79503 7.18617 9.79503H15.4506L17.2243 8.02128C17.0899 8.00396 16.9529 7.99503 16.8138 7.99503H16.2539V6.71907C16.2539 5.2279 15.0451 4.01907 13.5539 4.01907H10.446ZM14.4539 7.99503H9.54601V6.71907C9.54601 6.22202 9.94895 5.81907 10.446 5.81907H13.5539C14.051 5.81907 14.4539 6.22202 14.4539 6.71907V7.99503Z" />
<path d="M18.9614 8.82977L17.6858 10.1054C17.9959 10.3584 18.1938 10.7436 18.1938 11.175V16.8275C18.1938 17.5897 17.576 18.2075 16.8138 18.2075H9.58367L7.78367 20.0075H16.8138C18.5701 20.0075 19.9938 18.5838 19.9938 16.8275V11.175C19.9938 10.2466 19.596 9.41113 18.9614 8.82977Z" />
<path d="M13.8912 13.9H14.8899C15.387 13.9 15.7899 13.4971 15.7899 13C15.7899 12.7264 15.6678 12.4812 15.475 12.3162L13.8912 13.9Z" />
<path d="M13.1456 12.1L9.11007 12.1C8.61302 12.1 8.21007 12.5029 8.21007 13C8.21007 13.4971 8.61302 13.9 9.11007 13.9H11.3456L13.1456 12.1Z" />
<path d="M2.25418 21.7458C1.90271 21.3943 1.90271 20.8244 2.25418 20.473L20.4729 2.25424C20.8244 1.90276 21.3942 1.90276 21.7457 2.25424C22.0972 2.60571 22.0972 3.17555 21.7457 3.52703L3.52697 21.7458C3.1755 22.0972 2.60565 22.0972 2.25418 21.7458Z" />
</svg>