<!--character:7766-->
  <svg width="24" height="24" viewBox="0 0 24 24" >
<path d="M12.4 12C13.76 12 14.88 13.04 14.88 14.4L14.8769 21.84C14.8769 21.92 14.7969 22 14.7169 22H9.35689C9.27689 22 9.19689 21.92 9.19689 21.84L9.19999 14.4C9.19999 13.04 10.24 12 11.6 12H12.4ZM13.12 14.8C13.2 14.8 13.28 14.72 13.28 14.64V14.48C13.28 14 12.96 13.68 12.48 13.68H11.68C11.2 13.68 10.88 14 10.88 14.48V14.64C10.88 14.72 10.96 14.8 11.04 14.8H13.12ZM6.79999 16C6.79999 15.36 7.35999 14.8 7.99999 14.8H8.15999C8.23999 14.8 8.31999 14.88 8.31999 14.96V21.84C8.31999 21.92 8.23999 22 8.15999 22H7.99999C7.35999 22 6.79999 21.44 6.79999 20.8V16ZM17.2 20.8C17.2 21.44 16.64 22 16 22H15.84C15.76 22 15.68 21.92 15.68 21.84V14.96C15.68 14.88 15.76 14.8 15.84 14.8H16C16.64 14.8 17.2 15.36 17.2 16V20.8ZM12 2.00001C14.2091 2.00001 16 3.79091 16 6.00001C16 8.20911 14.2091 10 12 10C9.79089 10 7.99999 8.20911 7.99999 6.00001C7.99999 3.79091 9.79089 2.00001 12 2.00001ZM12 3.20001C10.4536 3.20001 9.19999 4.45361 9.19999 6.00001C9.19999 7.54641 10.4536 8.80001 12 8.80001C13.5464 8.80001 14.8 7.54641 14.8 6.00001C14.8 4.45361 13.5464 3.20001 12 3.20001ZM13.6749 4.35361C13.7686 4.44737 13.8213 4.57452 13.8213 4.70711C13.8213 4.83969 13.7686 4.96684 13.6749 5.06061L12.2607 6.47501C12.1668 6.5681 12.0398 6.6202 11.9076 6.61991C11.7754 6.61962 11.6486 6.56696 11.5551 6.47346C11.4616 6.37996 11.409 6.25323 11.4087 6.121C11.4084 5.98877 11.4605 5.86181 11.5536 5.76791L12.9678 4.35371C13.0616 4.25997 13.1887 4.20731 13.3213 4.20731C13.4539 4.20731 13.581 4.25997 13.6748 4.35371L13.6749 4.35361Z" />
</svg>