<!--character:245-->
  <svg width="24" height="24" viewBox="0 0 24 24" >
<path d="M2.25418 20.4736C1.90271 20.8251 1.90271 21.3949 2.25418 21.7464C2.60565 22.0979 3.1755 22.0979 3.52697 21.7464L4.96777 20.3056C4.99691 20.2644 5.02993 20.2251 5.06682 20.1882L20.4159 4.83914C20.4528 4.80226 20.4921 4.76924 20.5333 4.74009L21.7457 3.52766C22.0972 3.17619 22.0972 2.60634 21.7457 2.25487C21.3942 1.90339 20.8244 1.9034 20.4729 2.25487L16.7256 6.00222H15.7649V4.70056C15.7649 3.20939 14.5561 2.00056 13.0649 2.00056H10.9352C9.44401 2.00056 8.23518 3.20939 8.23518 4.70056V6.00222H7.20021C5.44395 6.00222 4.02021 7.42596 4.02021 9.18222V17.8215C4.02021 18.0934 4.05434 18.3573 4.11853 18.6093L2.25418 20.4736ZM9.10005 13.6277L5.82021 16.9076V9.18222C5.82021 8.42007 6.43806 7.80222 7.20021 7.80222H14.9256L10.9 11.8277V10.9184C10.9 10.4213 10.4971 10.0184 10 10.0184C9.50299 10.0184 9.10005 10.4213 9.10005 10.9184V13.6277ZM13.9649 6.00222H10.0352V4.70056C10.0352 4.20351 10.4381 3.80056 10.9352 3.80056H13.0649C13.562 3.80056 13.9649 4.20351 13.9649 4.70056V6.00222Z" />
<path d="M19.7662 8.03445L18.1796 9.62101V17.8215C18.1796 18.5837 17.5618 19.2015 16.7996 19.2015H16.004L15.9999 19.2015L15.9958 19.2015H8.59909L6.82142 20.9792C6.91311 20.9901 7.00601 20.9971 7.09993 21V21.1015C7.09993 21.5986 7.50287 22.0015 7.99993 22.0015C8.49698 22.0015 8.89993 21.5986 8.89993 21.1015V21.0015H15.0999V21.1015C15.0999 21.5986 15.5029 22.0015 15.9999 22.0015C16.497 22.0015 16.8999 21.5986 16.8999 21.1015V21C18.6098 20.947 19.9796 19.5442 19.9796 17.8215V9.18222C19.9796 8.77752 19.904 8.39048 19.7662 8.03445Z" />
<path d="M13.1025 14.6981V16.3184C13.1025 16.8155 13.5054 17.2184 14.0025 17.2184C14.4995 17.2184 14.9025 16.8155 14.9025 16.3184V12.8981L13.1025 14.6981Z" />
</svg>