<!--character:9345-->
  <svg width="29" height="29" viewBox="0 0 29 29" >
<path   d="M12.6223 4.85638C10.8205 4.85638 9.35979 6.31705 9.35979 8.11888V9.66066H8.68332C6.56116 9.66066 4.84082 11.381 4.84082 13.5032V20.3333C4.84082 21.7769 5.63688 23.0345 6.81396 23.6912L8.51297 21.9922C7.67205 21.9069 7.01582 21.1967 7.01582 20.3333V13.5032C7.01582 12.5822 7.76239 11.8357 8.68332 11.8357H18.6695L20.8128 9.69239C20.6504 9.67146 20.4848 9.66066 20.3167 9.66066H19.6402V8.11888C19.6402 6.31705 18.1795 4.85638 16.3777 4.85638H12.6223ZM17.4652 9.66066V8.11888C17.4652 7.51827 16.9783 7.03138 16.3777 7.03138H12.6223C12.0217 7.03138 11.5348 7.51827 11.5348 8.11888V9.66066H17.4652Z" />
<path d="M22.9118 10.6693L21.3704 12.2107C21.745 12.5165 21.9842 12.9819 21.9842 13.5032V20.3333C21.9842 21.2542 21.2377 22.0008 20.3167 22.0008H11.5803L9.40529 24.1758H20.3167C22.4389 24.1758 24.1592 22.4554 24.1592 20.3333V13.5032C24.1592 12.3813 23.6785 11.3718 22.9118 10.6693Z" />
<path d="M16.7852 16.7958H17.992C18.5926 16.7958 19.0795 16.3089 19.0795 15.7083C19.0795 15.3777 18.9319 15.0815 18.699 14.882L16.7852 16.7958Z" />
<path d="M15.8843 14.6208L11.008 14.6208C10.4074 14.6208 9.92053 15.1077 9.92053 15.7083C9.92053 16.3089 10.4074 16.7958 11.008 16.7958H13.7093L15.8843 14.6208Z" />
<path   d="M2.72383 26.2761C2.29914 25.8514 2.29914 25.1629 2.72383 24.7382L24.7381 2.72387C25.1628 2.29917 25.8514 2.29917 26.2761 2.72387C26.7008 3.14856 26.7008 3.83713 26.2761 4.26182L4.26179 26.2761C3.83709 26.7008 3.14853 26.7008 2.72383 26.2761Z" />
</svg>