<!--character:1561-->
  <svg width="20" height="20" viewBox="0 0 20 20" >
<path d="M6.61076 6.83079C6.52847 6.91206 6.37066 6.91685 5.90407 6.93103L5.85671 6.93248C5.48337 6.94581 5.12337 6.97248 5.05004 6.99581C4.76337 7.08248 4.45004 7.27581 4.21671 7.51248C3.92004 7.80581 3.76004 8.10581 3.68337 8.49581C3.62671 8.79248 3.33337 14.1219 3.33337 14.6986C3.33337 15.2719 3.50337 15.6986 3.88337 16.0819C4.16004 16.3586 4.39004 16.4986 4.73337 16.5919C4.95269 16.6541 5.06914 16.6617 5.84031 16.6619H6.69063L6.69001 16.6587H7.7669L7.76628 16.6619L12.2451 16.6619L12.2444 16.6587H13.3189L13.3183 16.6619H14.1683C14.9255 16.6616 15.0481 16.654 15.26 16.5953C15.6 16.5019 15.8467 16.3519 16.1167 16.0819C16.4967 15.6986 16.6667 15.2753 16.6667 14.6986C16.6667 14.1486 16.37 8.79581 16.3167 8.49581C16.2434 8.10914 16.08 7.80581 15.7834 7.51248C15.55 7.27581 15.2367 7.08248 14.95 6.99581C14.8767 6.97248 14.5167 6.94581 14.1434 6.93248L14.096 6.93103C13.6294 6.91685 13.4716 6.91206 13.3893 6.83079C13.3473 6.78926 13.3249 6.72776 13.2912 6.63484L13.2867 6.62248C13.2764 6.59449 13.2622 6.56543 13.2448 6.53602C13.2005 6.33266 13.1182 6.08607 13.0151 5.87325C12.7318 5.28325 12.2251 4.76658 11.6418 4.46991C11.2218 4.25991 10.7156 4.19613 9.78922 4.16991C9.43588 4.15991 9.22588 4.17325 9.07589 4.20658C8.59922 4.31325 8.22589 4.47991 7.88589 4.73658C7.65255 4.90991 7.32922 5.24658 7.17255 5.46991C7.13085 5.53116 7.08972 5.59993 7.05004 5.67343C6.88707 5.97528 6.74858 6.35682 6.69587 6.62392C6.69003 6.65349 6.68525 6.68165 6.6816 6.70815C6.6605 6.76181 6.64059 6.80133 6.61076 6.83079ZM8.94707 6.91814C8.44377 6.92446 8.24548 6.91814 8.022 6.91269C7.96287 6.91125 7.97886 6.91814 8.022 6.74325C8.15823 6.19096 8.60043 5.3685 10.1523 5.3685C10.9823 5.3685 11.7123 5.86658 11.959 6.67658C11.9784 6.73598 11.9947 6.84597 11.959 6.87263C11.959 6.93617 11.4352 6.91831 10.7416 6.91449C10.6007 6.91371 10.4464 6.91286 10.2785 6.91269L9.94149 6.91248L9.60445 6.91269C9.3608 6.91294 9.14112 6.9157 8.94707 6.91814ZM13.9099 10.2771H7.84732C7.63912 10.2771 7.50033 10.4159 7.50033 10.6241C7.50033 10.6241 7.50575 10.829 7.50033 11.3181C7.50033 11.6618 7.42944 11.8733 6.94513 11.8733C6.49377 11.8733 6.38993 11.6651 6.38993 11.3181V10.6241C6.38993 10.4159 6.25113 10.2771 6.11233 10.2771H5.9982C5.7206 10.2771 5.443 10.0689 5.443 9.72189C5.443 9.37489 5.6512 9.16669 5.9982 9.16669H13.9099C14.1875 9.16669 14.4651 9.37489 14.4651 9.72189C14.4651 10.0689 14.1875 10.2771 13.9099 10.2771Z" />
</svg>