<!--character:9785-->
  <svg width="24" height="24" viewBox="0 0 24 24" >
<path d="M12.3998 12C13.7598 12 14.8798 13.04 14.8798 14.4L14.8767 21.84C14.8767 21.92 14.7967 22 14.7167 22H9.3567C9.2767 22 9.19671 21.92 9.19671 21.84L9.1998 14.4C9.1998 13.04 10.2398 12 11.5998 12H12.3998ZM13.1198 14.8C13.1998 14.8 13.2798 14.72 13.2798 14.64V14.48C13.2798 14 12.9598 13.68 12.4798 13.68H11.6798C11.1998 13.68 10.8798 14 10.8798 14.48V14.64C10.8798 14.72 10.9598 14.8 11.0398 14.8H13.1198ZM6.7998 16C6.7998 15.36 7.3598 14.8 7.9998 14.8H8.1598C8.2398 14.8 8.3198 14.88 8.3198 14.96V21.84C8.3198 21.92 8.2398 22 8.1598 22H7.9998C7.3598 22 6.7998 21.44 6.7998 20.8V16ZM17.1998 20.8C17.1998 21.44 16.6398 22 15.9998 22H15.8398C15.7598 22 15.6798 21.92 15.6798 21.84V14.96C15.6798 14.88 15.7598 14.8 15.8398 14.8H15.9998C16.6398 14.8 17.1998 15.36 17.1998 16V20.8ZM11.9998 2C14.2089 2 15.9998 3.7909 15.9998 6C15.9998 8.2091 14.2089 10 11.9998 10C9.7907 10 7.9998 8.2091 7.9998 6C7.9998 3.7909 9.7907 2 11.9998 2ZM11.9998 3.2C10.4534 3.2 9.1998 4.4536 9.1998 6C9.1998 7.5464 10.4534 8.8 11.9998 8.8C13.5462 8.8 14.7998 7.5464 14.7998 6C14.7998 4.4536 13.5462 3.2 11.9998 3.2ZM13.6747 4.3536C13.7684 4.44736 13.8211 4.57451 13.8211 4.7071C13.8211 4.83968 13.7684 4.96683 13.6747 5.0606L12.2605 6.475C12.1666 6.56809 12.0396 6.62019 11.9074 6.6199C11.7752 6.61961 11.6485 6.56695 11.555 6.47345C11.4615 6.37995 11.4088 6.25322 11.4085 6.12099C11.4082 5.98877 11.4603 5.86181 11.5534 5.7679L12.9676 4.3537C13.0614 4.25996 13.1885 4.2073 13.3211 4.2073C13.4537 4.2073 13.5808 4.25996 13.6746 4.3537L13.6747 4.3536Z" />
</svg>