<!--character:2799-->
<svg width="24" height="24" viewBox="0 0 24 24">
  <path d="M14.9101 9.08333C14.6601 9.08333 14.4934 8.91666 14.4934 8.66666V4.16666C14.4934 3.91666 14.6601 3.75 14.9101 3.75C15.4934 3.75 15.7434 3.33333 15.7434 2.83333C15.7434 2.33333 15.4934 2 14.9101 2H9.07677C8.49344 2 8.24344 2.41666 8.24344 2.83333C8.24344 3.25 8.49344 3.66666 8.99344 3.66666C9.32677 3.75 9.49344 3.91666 9.49344 4.16666V8.58333C9.49344 8.83333 9.32677 9 9.07677 9H8.24344C7.07677 9.08333 6.16011 10 6.16011 11.0833V19.0833C6.16011 20.0833 6.82677 20.9167 7.82677 21.0833C7.91011 21.0833 7.99344 21.25 7.99344 21.3333C7.99344 21.8333 8.32677 22 8.82677 22C9.32677 22 9.66011 21.8333 9.66011 21.3333C9.66011 21.25 9.74344 21.1667 9.82677 21.1667H13.9934C14.0768 21.1667 14.1601 21.25 14.1601 21.3333C14.1601 21.8333 14.4934 22 14.9934 22C15.4934 22 15.8268 21.8333 15.8268 21.3333C15.8268 21.25 16.0768 21.0833 16.1601 21.0833C17.1601 20.9167 17.8268 20 17.8268 19.0833V11.0833C17.8268 10 17.0768 9.08333 15.9101 9.08333H14.9101ZM14.9101 13.3333H11.4101C11.1601 13.3333 10.9934 13.5 10.9934 13.75V14.5833C10.9934 14.9167 10.7434 15.25 10.3268 15.25C9.91011 15.25 9.66011 15 9.66011 14.5833V13.75C9.66011 13.5 9.49344 13.3333 9.32677 13.3333H9.07677C8.74344 13.3333 8.41011 13.0833 8.41011 12.6667C8.41011 12.25 8.66011 12 9.07677 12H14.9101C15.2434 12 15.5768 12.25 15.5768 12.6667C15.5768 13.0833 15.2434 13.3333 14.9101 13.3333ZM12.4101 3.66666C12.6601 3.66666 12.8268 3.83316 12.8268 4.08291V8.58041C12.8268 8.83016 12.6601 8.99666 12.4101 8.99666H11.5768C11.3268 8.99666 11.1601 8.83016 11.1601 8.58041V4.08291C11.1601 3.83316 11.3268 3.66666 11.5768 3.66666H12.4101Z" />
</svg>
