<!--category:travel-->
<!--character:E107-->
<svg width="24" height="24" viewBox="0 0 24 24" xmlns="http://www.w3.org/2000/svg"><path d="M11.4167 13.6233c.75 0 1.4166.6667 1.5 1.5v4.5834c0 .8333-.6667 1.5-1.5 1.5H3.5c-.8333 0-1.5-.6667-1.5-1.5v-4.5834c0-.8333.6667-1.5 1.5-1.5h1c0-1.4166 1.0833-2.5 2.5-2.5h.8333c1.4167 0 2.5 1.0834 2.5 2.5h1.0834zm-5.25 0h2.5c0-.5-.3334-.8333-.8334-.8333H7c-.5 0-.8333.3333-.8333.8333zm13.9166-6.5C21.25 7.1233 22 8.04 22 9.04v10c0 .9167-.6667 1.8333-1.6667 2-.0833 0-.3333.1667-.3333.25 0 .5-.3333.6667-.8333.6667s-.8334-.1667-.8334-.6667c0-.0833-.0833-.1667-.1666-.1667H14c-.0833 0-.1667.0834-.1667.1667 0 .5-.3333.6667-.8333.6667-.3333 0-.5-.0834-.6667-.25.75-.3334 1.3334-1.1667 1.3334-2.0834V15.04c-.1667-1.25-1.1667-2.25-2.3334-2.25H11c-.0833-.5-.3333-.9167-.6667-1.3333V9.1233c0-1.0833.9167-2 2.0834-2.0833h.8333c.25 0 .4167-.1667.4167-.4167V4.2067c0-.25-.1667-.4167-.5-.5-.5 0-.75-.4167-.75-.8334 0-.4166.25-.8333.8333-.8333h5.8333c.5834 0 .8334.3333.8334.8333s-.25.9167-.8334.9167c-.25 0-.4166.1667-.4166.4167v2.5c0 .25.1666.4166.4166.4166h1zm-4.75-3v2.5c0 .25.1667.4167.4167.4167h.8333c.25 0 .4167-.1667.4167-.4167v-2.5c0-.25-.1667-.4166-.4167-.4166H15.75c-.25 0-.4167.1666-.4167.4166zm3.75 6.25c.3334 0 .6667-.25.6667-.6666 0-.4167-.3333-.6667-.6667-.6667H13.25c-.4167 0-.6667.25-.6667.6667 0 .4166.3334.6666.6667.6666h.25c.1667 0 .3333.1667.3333.4167v.8333c0 .4167.25.6667.6667.6667.4167 0 .6667-.3333.6667-.6667V10.79c0-.25.1666-.4167.4166-.4167h3.5z"/></svg>