<!--character:9312-->
  <svg width="20" height="20" viewBox="0 0 20 20" >
<path d="M12.4251 7.56944C12.2168 7.56944 12.0779 7.43055 12.0779 7.22222V3.47222C12.0779 3.26389 12.2168 3.125 12.4251 3.125C12.9112 3.125 13.1195 2.77778 13.1195 2.36111C13.1195 1.94444 12.9112 1.66666 12.4251 1.66666H7.56398C7.07787 1.66666 6.86953 2.01389 6.86953 2.36111C6.86953 2.70833 7.07787 3.05555 7.49453 3.05555C7.77231 3.125 7.9112 3.26389 7.9112 3.47222V7.15278C7.9112 7.36111 7.77231 7.5 7.56398 7.5H6.86953C5.89731 7.56944 5.13342 8.33333 5.13342 9.23611V15.9028C5.13342 16.7361 5.68898 17.4306 6.52231 17.5694C6.59176 17.5694 6.6612 17.7083 6.6612 17.7778C6.6612 18.1944 6.93898 18.3333 7.35564 18.3333C7.77231 18.3333 8.05009 18.1944 8.05009 17.7778C8.05009 17.7083 8.11953 17.6389 8.18898 17.6389H11.6612C11.7306 17.6389 11.8001 17.7083 11.8001 17.7778C11.8001 18.1944 12.0779 18.3333 12.4945 18.3333C12.9112 18.3333 13.189 18.1944 13.189 17.7778C13.189 17.7083 13.3973 17.5694 13.4668 17.5694C14.3001 17.4306 14.8556 16.6667 14.8556 15.9028V9.23611C14.8556 8.33333 14.2306 7.56944 13.2584 7.56944H12.4251ZM12.4251 11.1111H9.50842C9.30009 11.1111 9.1612 11.25 9.1612 11.4583V12.1528C9.1612 12.4306 8.95287 12.7083 8.60565 12.7083C8.25842 12.7083 8.05009 12.5 8.05009 12.1528V11.4583C8.05009 11.25 7.9112 11.1111 7.77231 11.1111H7.56398C7.2862 11.1111 7.00842 10.9028 7.00842 10.5556C7.00842 10.2083 7.21676 10 7.56398 10H12.4251C12.7029 10 12.9806 10.2083 12.9806 10.5556C12.9806 10.9028 12.7029 11.1111 12.4251 11.1111ZM10.3418 3.05555C10.5501 3.05555 10.689 3.1943 10.689 3.40243V7.15034C10.689 7.35847 10.5501 7.49722 10.3418 7.49722H9.64731C9.43898 7.49722 9.30009 7.35847 9.30009 7.15034V3.40243C9.30009 3.1943 9.43898 3.05555 9.64731 3.05555H10.3418Z" />
</svg>