<!--character:226-->
  <svg width="24" height="24" viewBox="0 0 24 24" >
<path d="M2.25418 20.4736C1.90271 20.8251 1.90271 21.3949 2.25418 21.7464C2.60565 22.0979 3.1755 22.0979 3.52697 21.7464L4.96777 20.3056C4.99691 20.2644 5.02993 20.2251 5.06682 20.1882L20.4159 4.83914C20.4528 4.80226 20.4921 4.76924 20.5333 4.74009L21.7457 3.52766C22.0972 3.17619 22.0972 2.60634 21.7457 2.25487C21.3942 1.90339 20.8244 1.9034 20.4729 2.25487L16.6206 6.10714C16.3611 6.03868 16.0885 6.00222 15.8074 6.00222H15.7649V4.70056C15.7649 3.20939 14.5561 2.00056 13.0649 2.00056H10.9352C9.44399 2.00056 8.23516 3.20939 8.23516 4.70056V6.00222H8.1925C6.43623 6.00222 5.0125 7.42596 5.0125 9.18222V17.7153L2.25418 20.4736ZM9.10005 13.6277L6.8125 15.9153V9.18222C6.8125 8.42007 7.43035 7.80222 8.1925 7.80222H14.9256L10.9 11.8277V10.9184C10.9 10.4213 10.4971 10.0184 10 10.0184C9.50299 10.0184 9.10005 10.4213 9.10005 10.9184V13.6277ZM13.9649 6.00222H10.0352V4.70056C10.0352 4.20351 10.4381 3.80056 10.9352 3.80056H13.0649C13.5619 3.80056 13.9649 4.20351 13.9649 4.70056V6.00222Z" />
<path d="M18.9684 8.83223L17.1874 10.6132V17.8215C17.1874 18.5837 16.5696 19.2015 15.8074 19.2015H8.59909L7.0216 20.779C7.04757 20.7893 7.07372 20.7993 7.10002 20.8089V21.1015C7.10002 21.5986 7.50297 22.0015 8.00002 22.0015C8.49708 22.0015 8.90002 21.5986 8.90002 21.1015V21.0015H15.0999V21.1015C15.0999 21.5986 15.5028 22.0015 15.9999 22.0015C16.497 22.0015 16.8999 21.5986 16.8999 21.1015V20.8089C18.118 20.3633 18.9874 19.194 18.9874 17.8215V9.18222C18.9874 9.06394 18.981 8.94716 18.9684 8.83223Z" />
<path d="M13.1025 14.6981V16.3184C13.1025 16.8155 13.5054 17.2184 14.0025 17.2184C14.4995 17.2184 14.9025 16.8155 14.9025 16.3184V12.8981L13.1025 14.6981Z" />
</svg>