<!--category:travel-->
<!--character:0068-->
<svg width="24" height="24" viewBox="0 0 24 24" xmlns="http://www.w3.org/2000/svg"><path d="M15.91 5.333c-1.417 0-1.417-.166-1.417-.416v-.75c0-.25.167-.417.417-.417.583 0 .833-.417.833-.917S15.493 2 14.91 2H9.077c-.584 0-.834.417-.834.833 0 .417.25.834.75.834.334.083.5.25.5.5v.666c0 .25-.166.417-.416.417H6.243c-1.166.083-2.083 1-2.083 2.083v11.75c0 1 .667 1.834 1.667 2 .083 0 .166.167.166.25 0 .5.334.667.834.667.5 0 .833-.167.833-.667a.18.18 0 01.167-.166h8.166a.18.18 0 01.167.166c0 .5.334.667.834.667.5 0 .833-.167.833-.667 0-.083.25-.25.333-.25 1-.166 1.667-1.083 1.667-2V7.333c0-1.083-.75-2-1.917-2h-2zM15.6 8.75a.75.75 0 011.5 0v8.5a.75.75 0 01-1.5 0v-8.5zm-4.3 0a.75.75 0 011.5 0v8.5a.75.75 0 01-1.5 0v-8.5zM7.75 8a.75.75 0 01.75.75v8.5a.75.75 0 01-1.5 0v-8.5A.75.75 0 017.75 8zm3.41-3.917c0-.25.167-.416.417-.416h.833c.25 0 .417.166.417.416v.747c0 .25-.167.417-.417.417h-.833c-.25 0-.417-.167-.417-.417v-.747z" /></svg>
