<!--character:7000-->
  <svg width="20" height="20" viewBox="0 0 20 20" >
<path d="M10.3332 10C11.4665 10 12.3998 10.8667 12.3998 12L12.3973 18.2C12.3973 18.2667 12.3306 18.3333 12.2639 18.3333H7.79725C7.73059 18.3333 7.66392 18.2667 7.66392 18.2L7.6665 12C7.6665 10.8667 8.53317 10 9.6665 10H10.3332ZM10.9332 12.3333C10.9998 12.3333 11.0665 12.2667 11.0665 12.2V12.0667C11.0665 11.6667 10.7998 11.4 10.3998 11.4H9.73317C9.33317 11.4 9.0665 11.6667 9.0665 12.0667V12.2C9.0665 12.2667 9.13317 12.3333 9.19984 12.3333H10.9332ZM5.6665 13.3333C5.6665 12.8 6.13317 12.3333 6.6665 12.3333H6.79984C6.8665 12.3333 6.93317 12.4 6.93317 12.4667V18.2C6.93317 18.2667 6.8665 18.3333 6.79984 18.3333H6.6665C6.13317 18.3333 5.6665 17.8667 5.6665 17.3333V13.3333ZM14.3332 17.3333C14.3332 17.8667 13.8665 18.3333 13.3332 18.3333H13.1998C13.1332 18.3333 13.0665 18.2667 13.0665 18.2V12.4667C13.0665 12.4 13.1332 12.3333 13.1998 12.3333H13.3332C13.8665 12.3333 14.3332 12.8 14.3332 13.3333V17.3333ZM9.99984 1.66666C11.8408 1.66666 13.3332 3.15908 13.3332 5C13.3332 6.84091 11.8408 8.33333 9.99984 8.33333C8.15892 8.33333 6.6665 6.84091 6.6665 5C6.6665 3.15908 8.15892 1.66666 9.99984 1.66666ZM9.99984 2.66666C8.71117 2.66666 7.6665 3.71133 7.6665 5C7.6665 6.28866 8.71117 7.33333 9.99984 7.33333C11.2885 7.33333 12.3332 6.28866 12.3332 5C12.3332 3.71133 11.2885 2.66666 9.99984 2.66666ZM11.3956 3.628C11.4737 3.70613 11.5176 3.8121 11.5176 3.92258C11.5176 4.03307 11.4737 4.13903 11.3956 4.21716L10.2171 5.39583C10.1388 5.47341 10.033 5.51682 9.92284 5.51658C9.81265 5.51634 9.70704 5.47246 9.62913 5.39454C9.55121 5.31663 9.50733 5.21102 9.50709 5.10083C9.50685 4.99064 9.55026 4.88484 9.62784 4.80658L10.8063 3.62808C10.8845 3.54997 10.9904 3.50609 11.1009 3.50609C11.2114 3.50609 11.3174 3.54997 11.3955 3.62808L11.3956 3.628Z" />
</svg>