<!--character:7799-->
  <svg width="24" height="24" viewBox="0 0 24 24" >
<path d="M14.4674 5.825C14.4674 6.06875 14.7987 6.23125 15.0424 6.23125H16.5049C17.6424 6.23125 18.3737 7.125 18.3737 8.18125V18.9062C18.3737 19.8 17.7237 20.6938 16.7487 20.8563C16.6674 20.8563 16.4237 21.0187 16.4237 21.1C16.4237 21.5875 16.0987 21.75 15.6112 21.75C15.1237 21.75 14.7987 21.5875 14.7987 21.1C14.7987 21.0187 14.7174 20.9375 14.6362 20.9375H9.19249C9.11124 20.9375 9.02999 21.0187 9.02999 21.1C9.02999 21.5875 8.70499 21.75 8.21749 21.75C7.72999 21.75 7.40499 21.5875 7.40499 21.1C7.40499 21.0187 7.32374 20.8563 7.24249 20.8563C6.26749 20.6938 5.61749 19.8813 5.61749 18.9062V8.18125C5.61749 7.125 6.51124 6.23125 7.64874 6.15H9.18614C9.42989 6.15 9.59239 5.9875 9.59239 5.74375V4.3625C9.59239 4.11875 9.42989 3.95625 9.10489 3.875C8.61739 3.875 8.37364 3.46875 8.37364 3.0625C8.37364 2.65625 8.61739 2.25 9.18614 2.25H14.8736C15.4424 2.25 15.6861 2.575 15.6861 3.0625C15.6861 3.55 15.4424 3.95625 14.8736 3.95625C14.6299 3.95625 14.4674 4.11875 14.4674 4.3625V5.825ZM11.6236 3.875C11.3799 3.875 11.2174 4.03734 11.2174 4.28084V5.74091C11.2174 5.98441 11.3799 6.14675 11.6236 6.14675H12.4361C12.6799 6.14675 12.8424 5.98441 12.8424 5.74091V4.28084C12.8424 4.03734 12.6799 3.875 12.4361 3.875H11.6236ZM9.84261 9.075C9.43875 9.075 9.11136 9.40239 9.11136 9.80625V17.1187C9.11136 17.5226 9.43875 17.85 9.84261 17.85C10.2465 17.85 10.5739 17.5226 10.5739 17.1187V9.80625C10.5739 9.40239 10.2465 9.075 9.84261 9.075ZM13.4989 9.80625V17.1187C13.4989 17.5226 13.8263 17.85 14.2301 17.85C14.634 17.85 14.9614 17.5226 14.9614 17.1187V9.80625C14.9614 9.40239 14.634 9.075 14.2301 9.075C13.8263 9.075 13.4989 9.40239 13.4989 9.80625Z" />
</svg>