<!--character:2660-->
<svg width="24" height="24" viewBox="0 0 24 24">
  <path d="M20.5834 2.25C20.9168 1.91666 21.4168 1.91666 21.7501 2.25C22.0834 2.58333 22.0834 3.08333 21.7501 3.41666L16.8433 8.32346L16.8509 8.32374L15.7024 9.46439L3.41676 21.75C3.16676 22.0833 2.58343 22.0833 2.2501 21.75C1.91676 21.4167 1.91676 20.9167 2.2501 20.5833L4.05857 18.7749C3.88231 18.4484 3.8003 18.0828 3.8003 17.6464C3.8003 16.954 4.15252 10.5545 4.22057 10.1983C4.31263 9.73 4.50475 9.36977 4.86098 9.01754C5.14116 8.73336 5.5174 8.50121 5.86162 8.39715C5.94968 8.36913 6.38195 8.33711 6.83024 8.3211L6.88712 8.31936C7.44738 8.30234 7.63687 8.29658 7.73568 8.199C7.7715 8.16362 7.79541 8.11617 7.82075 8.05174C7.87435 7.66248 8.1318 6.97389 8.41027 6.5649C8.59839 6.29672 8.98663 5.89247 9.26681 5.68433C9.67507 5.37614 10.1234 5.17601 10.6957 5.04793C10.8758 5.0079 11.128 4.99189 11.5523 5.0039C12.6646 5.03538 13.2724 5.11197 13.7768 5.36413C14.4772 5.72036 15.0856 6.34075 15.4258 7.04921C15.4647 7.12944 15.5011 7.21366 15.5344 7.29902L20.5834 2.25ZM11.8296 11.0039H7.00014C6.58347 11.0039 6.33347 11.2539 6.33347 11.6705C6.33347 12.0872 6.6668 12.3372 7.00014 12.3372H7.13718C7.30385 12.3372 7.47051 12.5039 7.47051 12.7539V13.5872C7.47051 14.0039 7.5952 14.2539 8.13718 14.2539C8.71872 14.2539 8.80385 14 8.80385 13.5872C8.81036 13 8.80385 12.7539 8.80385 12.7539C8.80385 12.5039 8.97051 12.3372 9.22051 12.3372H10.4962L11.8296 11.0039ZM9.36385 8.07773C9.38613 8.10246 9.41167 8.12736 9.43383 8.14896C9.45512 8.16971 9.47328 8.18741 9.48243 8.199C9.56731 8.30653 10.0118 8.30409 10.8446 8.2995C11.0138 8.29857 11.1992 8.29755 11.4007 8.29734L11.8054 8.29708L12.2101 8.29734C12.5027 8.29764 12.7665 8.30095 12.9995 8.30388C13.6038 8.31147 14.0013 8.31646 14.1577 8.25947C14.1415 8.21364 14.1235 8.15315 14.1103 8.09388C13.9467 7.43071 13.4157 6.44312 11.5523 6.44312C10.5556 6.44312 9.67908 7.0412 9.38289 8.01382C9.37666 8.03532 9.37028 8.05674 9.36385 8.07773Z" />
  <path d="M15.7848 11.0039L18.206 8.59935C18.4025 8.71298 18.5915 8.85695 18.7499 9.01754C19.1061 9.36977 19.3022 9.734 19.3903 10.1983C19.4543 10.5585 19.8105 16.986 19.8105 17.6464C19.8105 18.3389 19.6064 18.8472 19.1501 19.3075C18.8259 19.6317 18.5297 19.8118 18.1215 19.9239C17.867 19.9944 17.7197 20.0036 16.8105 20.0039H15.7899L15.7907 20H14.5004L14.5012 20.0039L9.12319 20.0039L9.12393 20H7.83084L7.83159 20.0039L6.72232 20.0039L14.4422 12.3372H16.5003C16.8336 12.3372 17.167 12.0872 17.167 11.6705C17.167 11.2539 16.8336 11.0039 16.5003 11.0039H15.7848Z" />
</svg>
