<!--character:2836-->
<svg width="24" height="24" viewBox="0 0 24 24" >
<path d="M14.4935 4.91666C14.4935 5.16666 14.4935 5.33333 15.9102 5.33333H17.5L20.5834 2.25C20.9167 1.91666 21.4167 1.91666 21.75 2.25C22.0834 2.58333 22.0834 3.08333 21.75 3.41666L19.2739 5.89282C19.2772 5.89626 19.2805 5.89971 19.2838 5.90318L16.9154 8.25718L16.9126 8.25404L3.41669 21.75C3.16669 22.0833 2.58336 22.0833 2.25002 21.75C1.91669 21.4167 1.91669 20.9167 2.25002 20.5833L4.16018 18.6732V7.33333C4.16018 6.25 5.07685 5.33333 6.24351 5.25H9.07685C9.32685 5.25 9.49351 5.08333 9.49351 4.83333V4.16666C9.49351 3.91666 9.32685 3.75 8.99351 3.66666C8.49351 3.66666 8.24351 3.25 8.24351 2.83333C8.24351 2.41666 8.49352 2 9.07685 2H14.9102C15.4935 2 15.7435 2.33333 15.7435 2.83333C15.7435 3.33333 15.4935 3.75 14.9102 3.75C14.6602 3.75 14.4935 3.91666 14.4935 4.16666V4.91666ZM7.00002 15.8333L8.50002 14.3333V8.75C8.50002 8.33578 8.16424 8 7.75002 8C7.33581 8 7.00002 8.33578 7.00002 8.75V15.8333ZM11.3 11.5333L12.8 10.0333V8.75C12.8 8.33578 12.4642 8 12.05 8C11.6358 8 11.3 8.33578 11.3 8.75V11.5333ZM11.5768 3.66666C11.3268 3.66666 11.1602 3.83316 11.1602 4.08291V4.83041C11.1602 5.08016 11.3268 5.24666 11.5768 5.24666H12.4102C12.6602 5.24666 12.8268 5.08016 12.8268 4.83041V4.08291C12.8268 3.83316 12.6602 3.66666 12.4102 3.66666H11.5768Z" />
<path d="M17.1 9.69555L19.8038 7.00815C19.8191 7.11428 19.8269 7.22294 19.8269 7.33333V19.0833C19.8269 20 19.1602 20.9167 18.1602 21.0833C18.0768 21.0833 17.8268 21.25 17.8268 21.3333C17.8268 21.8333 17.4935 22 16.9935 22C16.4935 22 16.1602 21.8333 16.1602 21.3333C16.1602 21.25 16.0768 21.1667 15.9935 21.1667H7.82685C7.74351 21.1667 7.66018 21.25 7.66018 21.3333C7.66018 21.8333 7.32685 22 6.82685 22C6.32685 22 5.99351 21.8333 5.99351 21.3333C5.99351 21.25 5.91018 21.0833 5.82685 21.0833C5.77502 21.0747 5.72408 21.0643 5.67409 21.0521L11.3 15.4603V17.25C11.3 17.6642 11.6358 18 12.05 18C12.4642 18 12.8 17.6642 12.8 17.25V13.9694L15.6 11.1864V17.25C15.6 17.6642 15.9358 18 16.35 18C16.7642 18 17.1 17.6642 17.1 17.25V9.69555Z" />
</svg>