<!-- character:853:998 -->
  <svg width="20" height="20" viewBox="0 0 20 20" >
<path   d="M12.0779 4.72221C12.0779 4.93055 12.361 5.06943 12.5693 5.06943H13.8193C14.7916 5.06943 15.4166 5.83332 15.4166 6.7361V15.9028C15.4166 16.6667 14.861 17.4305 14.0277 17.5694C13.9582 17.5694 13.7499 17.7083 13.7499 17.7778C13.7499 18.1944 13.4721 18.3333 13.0555 18.3333C12.6388 18.3333 12.361 18.1944 12.361 17.7778C12.361 17.7083 12.2916 17.6389 12.2221 17.6389H7.56941C7.49997 17.6389 7.43052 17.7083 7.43052 17.7778C7.43052 18.1944 7.15274 18.3333 6.73608 18.3333C6.31941 18.3333 6.04163 18.1944 6.04163 17.7778C6.04163 17.7083 5.97219 17.5694 5.90274 17.5694C5.06941 17.4305 4.51385 16.7361 4.51385 15.9028V6.7361C4.51385 5.83332 5.27774 5.06943 6.24997 4.99999H7.56399C7.77232 4.99999 7.91121 4.8611 7.91121 4.65277V3.47221C7.91121 3.26388 7.77232 3.12499 7.49454 3.05555C7.07787 3.05555 6.86954 2.70832 6.86954 2.3611C6.86954 2.01388 7.07787 1.66666 7.56399 1.66666H12.4251C12.9112 1.66666 13.1195 1.94443 13.1195 2.3611C13.1195 2.77777 12.9112 3.12499 12.4251 3.12499C12.2168 3.12499 12.0779 3.26388 12.0779 3.47221V4.72221ZM9.64732 3.05555C9.43898 3.05555 9.3001 3.1943 9.3001 3.40242V4.65034C9.3001 4.85846 9.43898 4.99721 9.64732 4.99721H10.3418C10.5501 4.99721 10.689 4.85846 10.689 4.65034V3.40242C10.689 3.1943 10.5501 3.05555 10.3418 3.05555H9.64732ZM11.8751 7.49999C11.5299 7.49999 11.2501 7.77981 11.2501 8.12499V14.375C11.2501 14.7202 11.5299 15 11.8751 15C12.2202 15 12.5001 14.7202 12.5001 14.375V8.12499C12.5001 7.77981 12.2202 7.49999 11.8751 7.49999ZM8.12505 7.49999C7.77987 7.49999 7.50005 7.77981 7.50005 8.12499V14.375C7.50005 14.7202 7.77987 15 8.12505 15C8.47023 15 8.75005 14.7202 8.75005 14.375V8.12499C8.75005 7.77981 8.47023 7.49999 8.12505 7.49999Z" />
</svg>