<!--character:$550:2790-->
  <svg width="24" height="24" viewBox="0 0 24 24" >
<path d="M14.4325 5.09375C14.4325 5.3375 14.4325 5.5 15.8137 5.5H17.7637C18.9012 5.5 19.6325 6.39375 19.6325 7.45V18.9063C19.6325 19.8 18.9825 20.6938 18.0075 20.8563C17.9262 20.8563 17.6825 21.0188 17.6825 21.1C17.6825 21.5875 17.3575 21.75 16.87 21.75C16.3825 21.75 16.0575 21.5875 16.0575 21.1C16.0575 21.0188 15.9762 20.9375 15.895 20.9375H7.93248C7.85123 20.9375 7.76998 21.0188 7.76998 21.1C7.76998 21.5875 7.44498 21.75 6.95748 21.75C6.46998 21.75 6.14498 21.5875 6.14498 21.1C6.14498 21.0188 6.06373 20.8563 5.98248 20.8563C5.00748 20.6938 4.35748 19.8813 4.35748 18.9063V7.45C4.35748 6.39375 5.25123 5.5 6.38873 5.41875H9.15123C9.39498 5.41875 9.55748 5.25625 9.55748 5.0125V4.3625C9.55748 4.11875 9.39498 3.95625 9.06998 3.875C8.58248 3.875 8.33873 3.46875 8.33873 3.0625C8.33873 2.65625 8.58248 2.25 9.15123 2.25H14.8387C15.4075 2.25 15.6512 2.575 15.6512 3.0625C15.6512 3.55 15.4075 3.95625 14.8387 3.95625C14.595 3.95625 14.4325 4.11875 14.4325 4.3625V5.09375ZM11.5887 3.875C11.345 3.875 11.1825 4.03734 11.1825 4.28084V5.00966C11.1825 5.25316 11.345 5.4155 11.5887 5.4155H12.4012C12.645 5.4155 12.8075 5.25316 12.8075 5.00966V4.28084C12.8075 4.03734 12.645 3.875 12.4012 3.875H11.5887ZM7.85757 8.1C7.45371 8.1 7.12632 8.42739 7.12632 8.83125V17.1187C7.12632 17.5226 7.45371 17.85 7.85757 17.85C8.26143 17.85 8.58882 17.5226 8.58882 17.1187V8.83125C8.58882 8.42739 8.26143 8.1 7.85757 8.1ZM11.3188 8.83125V17.1187C11.3188 17.5226 11.6462 17.85 12.0501 17.85C12.4539 17.85 12.7813 17.5226 12.7813 17.1187V8.83125C12.7813 8.42739 12.4539 8.1 12.0501 8.1C11.6462 8.1 11.3188 8.42739 11.3188 8.83125ZM16.2426 8.1C15.8387 8.1 15.5113 8.42739 15.5113 8.83125V17.1187C15.5113 17.5226 15.8387 17.85 16.2426 17.85C16.6464 17.85 16.9738 17.5226 16.9738 17.1187V8.83125C16.9738 8.42739 16.6464 8.1 16.2426 8.1Z" />
</svg>