<!--character:7248-->
  <svg width="24" height="24" viewBox="0 0 24 24" >
<path d="M12.4 12C13.76 12 14.88 13.04 14.88 14.4L14.8769 21.84C14.8769 21.92 14.7969 22 14.7169 22H9.35691C9.27691 22 9.19691 21.92 9.19691 21.84L9.20001 14.4C9.20001 13.04 10.24 12 11.6 12H12.4ZM13.12 14.8C13.2 14.8 13.28 14.72 13.28 14.64V14.48C13.28 14 12.96 13.68 12.48 13.68H11.68C11.2 13.68 10.88 14 10.88 14.48V14.64C10.88 14.72 10.96 14.8 11.04 14.8H13.12ZM6.80001 16C6.80001 15.36 7.36001 14.8 8.00001 14.8H8.16001C8.24001 14.8 8.32001 14.88 8.32001 14.96V21.84C8.32001 21.92 8.24001 22 8.16001 22H8.00001C7.36001 22 6.80001 21.44 6.80001 20.8V16ZM17.2 20.8C17.2 21.44 16.64 22 16 22H15.84C15.76 22 15.68 21.92 15.68 21.84V14.96C15.68 14.88 15.76 14.8 15.84 14.8H16C16.64 14.8 17.2 15.36 17.2 16V20.8ZM12 2.00001C14.2091 2.00001 16 3.79091 16 6.00001C16 8.20911 14.2091 10 12 10C9.79091 10 8.00001 8.20911 8.00001 6.00001C8.00001 3.79091 9.79091 2.00001 12 2.00001ZM12 3.20001C10.4536 3.20001 9.20001 4.45361 9.20001 6.00001C9.20001 7.54641 10.4536 8.80001 12 8.80001C13.5464 8.80001 14.8 7.54641 14.8 6.00001C14.8 4.45361 13.5464 3.20001 12 3.20001ZM13.6749 4.35361C13.7686 4.44737 13.8213 4.57452 13.8213 4.70711C13.8213 4.83969 13.7686 4.96684 13.6749 5.06061L12.2607 6.47501C12.1668 6.5681 12.0398 6.6202 11.9076 6.61991C11.7754 6.61962 11.6487 6.56696 11.5552 6.47346C11.4617 6.37996 11.409 6.25323 11.4087 6.121C11.4084 5.98877 11.4605 5.86181 11.5536 5.76791L12.9678 4.35371C13.0616 4.25997 13.1887 4.20731 13.3213 4.20731C13.4539 4.20731 13.581 4.25997 13.6748 4.35371L13.6749 4.35361Z" />
</svg>