<!--character:5865-->
  <svg width="24" height="24" viewBox="0 0 24 24" >
<path d="M14.4933 4.91666C14.4933 5.16666 14.4933 5.33333 15.91 5.33333H17.4998L20.5831 2.25C20.9165 1.91666 21.4165 1.91666 21.7498 2.25C22.0831 2.58333 22.0831 3.08333 21.7498 3.41666L19.2737 5.89282C19.277 5.89626 19.2803 5.89971 19.2836 5.90318L16.9152 8.25718L16.9124 8.25404L3.41647 21.75C3.16647 22.0833 2.58314 22.0833 2.2498 21.75C1.91647 21.4167 1.91647 20.9167 2.2498 20.5833L4.15996 18.6732V7.33333C4.15996 6.25 5.07663 5.33333 6.24329 5.25H9.07663C9.32663 5.25 9.49329 5.08333 9.49329 4.83333V4.16666C9.49329 3.91666 9.32663 3.75 8.99329 3.66666C8.49329 3.66666 8.24329 3.25 8.24329 2.83333C8.24329 2.41666 8.4933 2 9.07663 2H14.91C15.4933 2 15.7433 2.33333 15.7433 2.83333C15.7433 3.33333 15.4933 3.75 14.91 3.75C14.66 3.75 14.4933 3.91666 14.4933 4.16666V4.91666ZM6.99981 15.8333L8.49981 14.3333V8.75C8.49981 8.33578 8.16402 8 7.74981 8C7.33559 8 6.99981 8.33578 6.99981 8.75V15.8333ZM11.2998 11.5333L12.7998 10.0333V8.75C12.7998 8.33578 12.464 8 12.0498 8C11.6356 8 11.2998 8.33578 11.2998 8.75V11.5333ZM11.5766 3.66666C11.3266 3.66666 11.16 3.83316 11.16 4.08291V4.83041C11.16 5.08016 11.3266 5.24666 11.5766 5.24666H12.41C12.66 5.24666 12.8266 5.08016 12.8266 4.83041V4.08291C12.8266 3.83316 12.66 3.66666 12.41 3.66666H11.5766Z" />
<path d="M17.0998 9.69555L19.8036 7.00815C19.8188 7.11428 19.8266 7.22294 19.8266 7.33333V19.0833C19.8266 20 19.16 20.9167 18.16 21.0833C18.0766 21.0833 17.8266 21.25 17.8266 21.3333C17.8266 21.8333 17.4933 22 16.9933 22C16.4933 22 16.16 21.8333 16.16 21.3333C16.16 21.25 16.0766 21.1667 15.9933 21.1667H7.82663C7.7433 21.1667 7.65996 21.25 7.65996 21.3333C7.65996 21.8333 7.32663 22 6.82663 22C6.32663 22 5.99329 21.8333 5.99329 21.3333C5.99329 21.25 5.90996 21.0833 5.82663 21.0833C5.7748 21.0747 5.72386 21.0643 5.67387 21.0521L11.2998 15.4603V17.25C11.2998 17.6642 11.6356 18 12.0498 18C12.464 18 12.7998 17.6642 12.7998 17.25V13.9694L15.5998 11.1864V17.25C15.5998 17.6642 15.9356 18 16.3498 18C16.764 18 17.0998 17.6642 17.0998 17.25V9.69555Z" />
</svg>