<!--character:4854-->
  <svg width="29" height="29" viewBox="0 0 29 29" >
<path   d="M9.66671 23.2019C10.2673 23.2019 10.7542 23.6887 10.7542 24.2894V25.4977C10.7542 26.0983 10.2673 26.5852 9.66671 26.5852C9.0661 26.5852 8.57921 26.0983 8.57921 25.4977V24.2894C8.57921 23.6887 9.0661 23.2019 9.66671 23.2019Z" />
<path   d="M19.3333 23.2019C19.9339 23.2019 20.4208 23.6887 20.4208 24.2894V25.4977C20.4208 26.0983 19.9339 26.5852 19.3333 26.5852C18.7327 26.5852 18.2458 26.0983 18.2458 25.4977V24.2894C18.2458 23.6887 18.7327 23.2019 19.3333 23.2019Z" />
<path   d="M6.05686 11.0952C6.05686 8.97303 7.7772 7.25268 9.89936 7.25268H19.1007C21.2229 7.25268 22.9432 8.97302 22.9432 11.0952V21.5344C22.9432 23.6565 21.2229 25.3769 19.1007 25.3769H9.89936C7.77721 25.3769 6.05686 23.6565 6.05686 21.5344V11.0952ZM9.89936 9.42768C8.97843 9.42768 8.23186 10.1742 8.23186 11.0952V21.5344C8.23186 22.4553 8.97843 23.2019 9.89936 23.2019H19.1007C20.0217 23.2019 20.7682 22.4553 20.7682 21.5344V11.0952C20.7682 10.1742 20.0217 9.42768 19.1007 9.42768H9.89936Z" />
<path   d="M9.95092 5.67985C9.95092 3.87802 11.4116 2.41735 13.2134 2.41735H15.7869C17.5887 2.41735 19.0494 3.87802 19.0494 5.67985V7.9118C19.0494 8.51241 18.5625 8.9993 17.9619 8.9993C17.3612 8.9993 16.8744 8.51241 16.8744 7.9118V5.67985C16.8744 5.07924 16.3875 4.59235 15.7869 4.59235H13.2134C12.6128 4.59235 12.1259 5.07924 12.1259 5.67985V7.9118C12.1259 8.51241 11.639 8.9993 11.0384 8.9993C10.4378 8.9993 9.95092 8.51241 9.95092 7.9118V5.67985Z" />
</svg>