<!--character:5433-->
  <svg width="20" height="20" viewBox="0 0 20 20" >
<path d="M11.1668 10C12.3002 10 13.2335 10.8667 13.2335 12L13.2309 18.2C13.2309 18.2667 13.1643 18.3333 13.0976 18.3333H8.63093C8.56426 18.3333 8.4976 18.2667 8.4976 18.2L8.50018 12C8.50018 10.8667 9.36684 10 10.5002 10H11.1668ZM11.7668 12.3333C11.8335 12.3333 11.9002 12.2667 11.9002 12.2V12.0667C11.9002 11.6667 11.6335 11.4 11.2335 11.4H10.5668C10.1668 11.4 9.90018 11.6667 9.90018 12.0667V12.2C9.90018 12.2667 9.96684 12.3333 10.0335 12.3333H11.7668ZM6.50018 13.3333C6.50018 12.8 6.96684 12.3333 7.50018 12.3333H7.63351C7.70018 12.3333 7.76684 12.4 7.76684 12.4667V18.2C7.76684 18.2667 7.70018 18.3333 7.63351 18.3333H7.50018C6.96684 18.3333 6.50018 17.8667 6.50018 17.3333V13.3333ZM15.1668 17.3333C15.1668 17.8667 14.7002 18.3333 14.1668 18.3333H14.0335C13.9668 18.3333 13.9002 18.2667 13.9002 18.2V12.4667C13.9002 12.4 13.9668 12.3333 14.0335 12.3333H14.1668C14.7002 12.3333 15.1668 12.8 15.1668 13.3333V17.3333ZM9.97635 5.45291C9.73826 6.02433 9.30968 6.45291 8.78584 6.691C7.64301 7.11958 6.40493 6.59575 5.97634 5.45291C5.54776 4.31008 6.11918 3.072 7.21443 2.64341C8.30968 2.21483 9.54776 2.78625 10.024 3.83391C10.024 3.8815 10.0716 3.92908 10.1192 3.92908H15.1192C15.5478 3.92908 15.8335 4.31008 15.8335 4.691C15.8335 5.072 15.5002 5.40533 15.1193 5.40533H14.9763C14.9288 5.40533 14.8811 5.45291 14.8811 5.50058V5.59575C14.8811 5.97675 14.5478 6.31008 14.1668 6.31008C13.7859 6.31008 13.4526 6.02433 13.4526 5.54816V5.45291C13.4526 5.40533 13.4049 5.35766 13.3573 5.35766H12.8811C12.7859 5.35766 12.7383 5.45291 12.7383 5.50058V5.59575C12.7383 6.02433 12.4049 6.31008 12.024 6.31008C11.643 6.31008 11.3097 6.02433 11.3097 5.59575V5.50058C11.3097 5.45291 11.2621 5.35766 11.1668 5.35766H10.0716C10.024 5.35766 9.97635 5.40533 9.97635 5.45291ZM7.02401 4.691C7.02401 5.21483 7.45251 5.64341 7.97634 5.64341C8.50018 5.64341 8.92876 5.21483 8.92876 4.691C8.92876 4.16725 8.50018 3.73866 7.97634 3.73866C7.45251 3.73866 7.02401 4.16725 7.02401 4.691Z" />
</svg>