<!--character:261:550:2716-->
  <svg width="24" height="24" viewBox="0 0 24 24" >
<path   d="M20.3688 2.49375C20.6938 2.16875 21.1812 2.16875 21.5063 2.49375C21.8313 2.81875 21.8313 3.30625 21.5063 3.63125L16.7221 8.41537L16.7296 8.41565L15.6097 9.52778L3.63125 21.5063C3.3875 21.8313 2.81875 21.8313 2.49375 21.5063C2.16875 21.1812 2.16875 20.6938 2.49375 20.3688L4.25701 18.6055C4.08516 18.2872 4.0052 17.9307 4.0052 17.5053C4.0052 16.8301 4.34862 10.5907 4.41496 10.2433C4.50472 9.78675 4.69204 9.43553 5.03936 9.09211C5.31253 8.81503 5.67937 8.58868 6.01498 8.48722C6.10084 8.4599 6.52231 8.42868 6.95939 8.41307L7.01484 8.41138C7.5611 8.39478 7.74585 8.38917 7.84219 8.29403C7.87712 8.25953 7.90043 8.21327 7.92513 8.15045C7.9774 7.77092 8.22841 7.09955 8.49991 6.70078C8.68333 6.43931 9.06187 6.04516 9.33505 5.84223C9.7331 5.54173 10.1702 5.34661 10.7282 5.22173C10.9039 5.18271 11.1497 5.1671 11.5634 5.1788C12.6479 5.2095 13.2405 5.28417 13.7323 5.53003C14.4152 5.87735 15.0084 6.48224 15.3401 7.17298C15.378 7.2512 15.4135 7.33332 15.446 7.41655L20.3688 2.49375ZM11.8337 11.0288H7.12504C6.71879 11.0288 6.47504 11.2725 6.47504 11.6788C6.47504 12.085 6.80004 12.3288 7.12504 12.3288H7.25866C7.42116 12.3288 7.58366 12.4913 7.58366 12.735V13.5475C7.58366 13.9538 7.70523 14.1975 8.23366 14.1975C8.80066 14.1975 8.88365 13.95 8.88365 13.5475C8.89 12.975 8.88365 12.735 8.88365 12.735C8.88365 12.4913 9.04615 12.3288 9.2899 12.3288H10.5337L11.8337 11.0288ZM9.42966 8.17579C9.45138 8.1999 9.47629 8.22418 9.49789 8.24524C9.51865 8.26547 9.53636 8.28273 9.54527 8.29403C9.62803 8.39887 10.0614 8.39649 10.8734 8.39201C11.0384 8.39111 11.2191 8.39011 11.4156 8.38991L11.8102 8.38966L12.2048 8.38991C12.49 8.3902 12.7472 8.39343 12.9744 8.39628C13.5636 8.40368 13.9512 8.40855 14.1036 8.35299C14.0878 8.3083 14.0703 8.24933 14.0574 8.19153C13.8979 7.54494 13.3802 6.58204 11.5634 6.58204C10.5917 6.58204 9.737 7.16517 9.44822 8.11348C9.44215 8.13444 9.43593 8.15533 9.42966 8.17579Z" />
<path d="M15.6901 11.0288L18.0507 8.68437C18.2424 8.79516 18.4267 8.93553 18.581 9.09211C18.9283 9.43553 19.1196 9.79066 19.2054 10.2433C19.2679 10.5946 19.6152 16.8614 19.6152 17.5053C19.6152 18.1804 19.4162 18.676 18.9713 19.1248C18.6552 19.4409 18.3664 19.6165 17.9683 19.7258C17.7202 19.7945 17.5766 19.8035 16.6902 19.8038H15.6951L15.6958 19.8H14.4378L14.4385 19.8038L9.19502 19.8038L9.19574 19.8H7.93498L7.9357 19.8038L6.85416 19.8038L14.381 12.3288H16.3877C16.7127 12.3288 17.0377 12.085 17.0377 11.6788C17.0377 11.2725 16.7127 11.0288 16.3877 11.0288H15.6901Z" />
</svg>