<!--category:travel-->
<!--character:E106-->
<svg width="24" height="24" viewBox="0 0 24 24" xmlns="http://www.w3.org/2000/svg"><path d="M14.91 9.083c-.25 0-.417-.166-.417-.416v-4.5c0-.25.167-.417.417-.417.583 0 .833-.417.833-.917S15.493 2 14.91 2H9.077c-.584 0-.834.417-.834.833 0 .417.25.834.75.834.334.083.5.25.5.5v4.416c0 .25-.166.417-.416.417h-.834c-1.166.083-2.083 1-2.083 2.083v8c0 1 .667 1.834 1.667 2 .083 0 .166.167.166.25 0 .5.334.667.834.667.5 0 .833-.167.833-.667a.18.18 0 01.167-.166h4.166a.18.18 0 01.167.166c0 .5.333.667.833.667.5 0 .834-.167.834-.667 0-.083.25-.25.333-.25 1-.166 1.667-1.083 1.667-2v-8c0-1.083-.75-2-1.917-2h-1zm0 4.25h-3.5c-.25 0-.417.167-.417.417v.833c0 .334-.25.667-.666.667-.417 0-.667-.25-.667-.667v-.833c0-.25-.167-.417-.333-.417h-.25a.657.657 0 01-.667-.666c0-.417.25-.667.667-.667h5.833c.333 0 .667.25.667.667a.657.657 0 01-.667.666zm-2.5-9.666c.25 0 .417.166.417.416V8.58c0 .25-.167.417-.417.417h-.833c-.25 0-.417-.167-.417-.417V4.083c0-.25.167-.416.417-.416h.833z"/></svg>
