<!--character:7470-->
  <svg width="29" height="29" viewBox="0 0 29 29" >
<path   d="M2.43083 17.5831C2.43083 15.8957 3.79876 14.5277 5.48618 14.5277H16.0505C17.7379 14.5277 19.1058 15.8957 19.1058 17.5831V23.5298C19.1058 25.2173 17.7379 26.5852 16.0505 26.5852H5.48618C3.79876 26.5852 2.43083 25.2173 2.43083 23.5298V17.5831ZM5.48618 16.7027C4.99998 16.7027 4.60583 17.0969 4.60583 17.5831V23.5298C4.60583 24.016 4.99998 24.4102 5.48618 24.4102H16.0505C16.5367 24.4102 16.9308 24.016 16.9308 23.5298V17.5831C16.9308 17.0969 16.5367 16.7027 16.0505 16.7027H5.48618Z" />
<path   d="M6.3346 13.5173C6.3346 12.0587 7.51705 10.8763 8.97568 10.8763H12.5608C14.0195 10.8763 15.2019 12.0587 15.2019 13.5173V15.4592C15.2019 16.0598 14.715 16.5467 14.1144 16.5467C13.5138 16.5467 13.0269 16.0598 13.0269 15.4592V13.5173C13.0269 13.2599 12.8183 13.0513 12.5608 13.0513H8.97568C8.71827 13.0513 8.50961 13.2599 8.50961 13.5173V15.4592C8.50961 16.0598 8.02271 16.5467 7.42211 16.5467C6.8215 16.5467 6.3346 16.0598 6.3346 15.4592V13.5173Z" />
<path   d="M22.9909 23.2019C23.5915 23.2019 24.0784 23.6887 24.0784 24.2894V25.4977C24.0784 26.0983 23.5915 26.5852 22.9909 26.5852C22.3903 26.5852 21.9034 26.0983 21.9034 25.4977V24.2894C21.9034 23.6887 22.3903 23.2019 22.9909 23.2019Z" />
<path   d="M9.71446 11.0952C9.71446 8.97302 11.4348 7.25268 13.557 7.25268H22.7583C24.8805 7.25268 26.6008 8.97302 26.6008 11.0952V21.5344C26.6008 23.6565 24.8805 25.3769 22.7583 25.3769H18.1577C17.557 25.3769 17.0702 24.89 17.0702 24.2894C17.0702 23.6887 17.557 23.2019 18.1577 23.2019H22.7583C23.6793 23.2019 24.4259 22.4553 24.4259 21.5344V11.0952C24.4259 10.1742 23.6793 9.42768 22.7583 9.42768H13.557C12.636 9.42768 11.8895 10.1742 11.8895 11.0952V11.8333C11.8895 12.434 11.4026 12.9208 10.802 12.9208C10.2014 12.9208 9.71446 12.434 9.71446 11.8333V11.0952Z" />
<path   d="M13.6085 5.67985C13.6085 3.87802 15.0692 2.41735 16.871 2.41735H19.4445C21.2463 2.41735 22.707 3.87802 22.707 5.67985V7.9118C22.707 8.51241 22.2201 8.9993 21.6195 8.9993C21.0188 8.9993 20.532 8.51241 20.532 7.9118V5.67985C20.532 5.07924 20.0451 4.59235 19.4445 4.59235H16.871C16.2704 4.59235 15.7835 5.07924 15.7835 5.67985V7.9118C15.7835 8.51241 15.2966 8.9993 14.696 8.9993C14.0954 8.9993 13.6085 8.51241 13.6085 7.9118V5.67985Z" />
</svg>