<!--character:$550:2568-->
  <svg width="24" height="24" viewBox="0 0 24 24" >
<path d="M12.4 12C13.76 12 14.88 13.04 14.88 14.4L14.8769 21.84C14.8769 21.92 14.7969 22 14.7169 22H9.35695C9.27695 22 9.19695 21.92 9.19695 21.84L9.20005 14.4C9.20005 13.04 10.24 12 11.6 12H12.4ZM13.12 14.8C13.2 14.8 13.28 14.72 13.28 14.64V14.48C13.28 14 12.96 13.68 12.48 13.68H11.68C11.2 13.68 10.88 14 10.88 14.48V14.64C10.88 14.72 10.96 14.8 11.04 14.8H13.12ZM6.80005 16C6.80005 15.36 7.36005 14.8 8.00005 14.8H8.16005C8.24005 14.8 8.32005 14.88 8.32005 14.96V21.84C8.32005 21.92 8.24005 22 8.16005 22H8.00005C7.36005 22 6.80005 21.44 6.80005 20.8V16ZM17.2001 20.8C17.2001 21.44 16.64 22 16 22H15.84C15.76 22 15.68 21.92 15.68 21.84V14.96C15.68 14.88 15.76 14.8 15.84 14.8H16C16.64 14.8 17.2001 15.36 17.2001 16V20.8ZM12 2C14.2091 2 16 3.7909 16 6C16 8.2091 14.2091 10 12 10C9.79095 10 8.00005 8.2091 8.00005 6C8.00005 3.7909 9.79095 2 12 2ZM12 3.2C10.4536 3.2 9.20005 4.4536 9.20005 6C9.20005 7.5464 10.4536 8.8 12 8.8C13.5464 8.8 14.8 7.5464 14.8 6C14.8 4.4536 13.5464 3.2 12 3.2ZM13.6749 4.3536C13.7687 4.44736 13.8213 4.57452 13.8213 4.7071C13.8213 4.83968 13.7687 4.96684 13.6749 5.0606L12.2607 6.475C12.1668 6.56809 12.0399 6.62019 11.9077 6.6199C11.7754 6.61961 11.6487 6.56696 11.5552 6.47345C11.4617 6.37995 11.409 6.25322 11.4087 6.121C11.4085 5.98877 11.4606 5.86181 11.5536 5.7679L12.9678 4.3537C13.0616 4.25996 13.1888 4.20731 13.3213 4.20731C13.4539 4.20731 13.5811 4.25996 13.6748 4.3537L13.6749 4.3536Z" />
</svg>