<!-- character:0:851 -->
  <svg width="20" height="20" viewBox="0 0 20 20" >
<path   d="M15.9028 5.93612H16.7361C17.7084 5.93612 18.3334 6.70001 18.3334 7.53335V15.8667C18.3334 16.6306 17.7778 17.3945 16.9445 17.5333C16.875 17.5333 16.6667 17.6722 16.6667 17.7417C16.6667 18.1583 16.3889 18.2972 15.9722 18.2972C15.5556 18.2972 15.2778 18.1583 15.2778 17.7417C15.2778 17.6722 15.2084 17.6028 15.1389 17.6028H11.6667C11.5972 17.6028 11.5278 17.6722 11.5278 17.7417C11.5278 18.1583 11.25 18.2972 10.8334 18.2972C10.5556 18.2972 10.4167 18.2278 10.2778 18.0889C10.9028 17.8111 11.3889 17.1167 11.3889 16.3528V12.5333C11.25 11.4917 10.4167 10.6583 9.44446 10.6583H9.16669C9.09724 10.2417 8.88891 9.89446 8.61113 9.54723V7.60279C8.61113 6.70001 9.37502 5.93612 10.3472 5.86668H11.0417C11.25 5.86668 11.3889 5.72779 11.3889 5.51946V3.50557C11.3889 3.29723 11.25 3.15835 10.9722 3.0889C10.5556 3.0889 10.3472 2.74168 10.3472 2.39446C10.3472 2.04723 10.5556 1.70001 11.0417 1.70001H15.9028C16.3889 1.70001 16.5972 1.97779 16.5972 2.39446C16.5972 2.81112 16.3889 3.15835 15.9028 3.15835C15.6945 3.15835 15.5556 3.29723 15.5556 3.50557V5.5889C15.5556 5.79723 15.6945 5.93612 15.9028 5.93612ZM13.125 3.0889C12.9167 3.0889 12.7778 3.22779 12.7778 3.43612V5.51946C12.7778 5.72779 12.9167 5.86668 13.125 5.86668H13.8195C14.0278 5.86668 14.1667 5.72779 14.1667 5.51946V3.43612C14.1667 3.22779 14.0278 3.0889 13.8195 3.0889H13.125ZM15.9028 8.64446H12.9861C12.7778 8.64446 12.6389 8.78334 12.6389 8.99168V9.68612C12.6389 9.9639 12.4306 10.2417 12.0834 10.2417C11.7361 10.2417 11.5278 10.0333 11.5278 9.68612V8.99168C11.5278 8.78334 11.3889 8.64446 11.25 8.64446H11.0417C10.7639 8.64446 10.4861 8.43612 10.4861 8.0889C10.4861 7.74168 10.6945 7.53335 11.0417 7.53335H15.9028C16.1806 7.53335 16.4584 7.74168 16.4584 8.0889C16.4584 8.43612 16.1806 8.64446 15.9028 8.64446ZM9.51391 11.3528H8.61113C8.61113 10.1722 7.70835 9.26946 6.5278 9.26946H5.83335C4.6528 9.26946 3.75002 10.1722 3.75002 11.3528H2.91669C2.22224 11.3528 1.66669 11.9083 1.66669 12.6028V16.4222C1.66669 17.1167 2.22224 17.6722 2.91669 17.6722H9.51391C10.2084 17.6722 10.7639 17.1167 10.7639 16.4222V12.6028C10.6945 11.9083 10.1389 11.3528 9.51391 11.3528ZM5.13891 11.3528C5.13891 10.9361 5.41669 10.6583 5.83335 10.6583H6.5278C6.94447 10.6583 7.22224 10.9361 7.22224 11.3528H5.13891Z" />
</svg>