<!-- character:0:909 -->
  <svg width="20" height="20" viewBox="0 0 20 20" >
<path   d="M13.3975 7.57476L18.125 2.84721C18.4028 2.56943 18.4028 2.15277 18.125 1.87499C17.8472 1.59721 17.4306 1.59721 17.1528 1.87499L12.0779 6.94986V3.47221C12.0779 3.26388 12.2168 3.12499 12.4251 3.12499C12.9112 3.12499 13.1196 2.77777 13.1196 2.3611C13.1196 1.94443 12.9112 1.66666 12.4251 1.66666H7.56402C7.07791 1.66666 6.86958 2.01388 6.86958 2.3611C6.86958 2.70832 7.07791 3.05555 7.49458 3.05555C7.77236 3.12499 7.91125 3.26388 7.91125 3.47221V7.15277C7.91125 7.3611 7.77236 7.49999 7.56402 7.49999H6.86958C5.89736 7.56943 5.13347 8.33332 5.13347 9.2361V13.8943L1.87501 17.1528C1.59723 17.4305 1.59723 17.8472 1.87501 18.125C2.15278 18.4028 2.63889 18.4028 2.84723 18.125L13.086 7.88626L13.3995 7.57491L13.3975 7.57476ZM10.3418 3.05555C10.5501 3.05555 10.689 3.1943 10.689 3.40242V7.15034C10.689 7.35846 10.5501 7.49721 10.3418 7.49721H9.64736C9.43902 7.49721 9.30014 7.35846 9.30014 7.15034V3.40242C9.30014 3.1943 9.43902 3.05555 9.64736 3.05555C9.85569 3.05555 10.1335 3.05555 10.3418 3.05555ZM7.55556 9.99999H9.03549L7.91667 11.1111H7.55556C7.27778 11.1111 7.00001 10.9028 7.00001 10.5555C7.00001 10.2083 7.27778 9.99999 7.55556 9.99999Z" />
<path d="M12.318 9.99999L14.3454 7.98658C14.6707 8.29487 14.8557 8.74493 14.8557 9.2361V15.9028C14.8557 16.6667 14.3001 17.4305 13.4668 17.5694C13.3974 17.5694 13.189 17.7083 13.189 17.7778C13.189 18.1944 12.9112 18.3333 12.4946 18.3333C12.0779 18.3333 11.8001 18.1944 11.8001 17.7778C11.8001 17.7083 11.7307 17.6389 11.6612 17.6389H8.18902C8.11958 17.6389 8.05014 17.7083 8.05014 17.7778C8.05014 18.1944 7.77236 18.3333 7.35569 18.3333C6.93902 18.3333 6.66125 18.1944 6.66125 17.7778C6.66125 17.7083 6.5918 17.5694 6.52236 17.5694C6.04299 17.4895 5.65554 17.2258 5.41288 16.8576L11.1992 11.1111H12.4251C12.7029 11.1111 12.9807 10.9028 12.9807 10.5555C12.9807 10.2083 12.7029 9.99999 12.4251 9.99999H12.318Z" />
</svg>