<!--description:the smallest baggage allowed-->
<!--character:E156-->
<!--added:0.23-->
<svg width="24" height="24" viewBox="0 0 24 24" xmlns="http://www.w3.org/2000/svg"><path d="M20.9864 16.7474a4.4328 4.4328 0 0 1-.9707 3.6303A4.5386 4.5386 0 0 1 16.5276 22h-9.071a4.5308 4.5308 0 0 1-3.4838-1.6206 4.4285 4.4285 0 0 1-.9741-3.6312l1.202-6.7241a1.2497 1.2497 0 0 1 1.2332-1.02h1.111c.0225 0 .0893.0086.1092.0086h10.6595c.0121-.0008.1196-.0121.1317-.0121h1.1058a1.2462 1.2462 0 0 1 1.2324 1.0235l1.2029 6.7233zM6.758 13.1024h1.3c.1196 0 .2166.097.2166.2166v1.748a.65.65 0 1 0 1.3 0v-1.748c0-.1197.097-.2167.2166-.2167h7.3663a.65.65 0 1 0 0-1.2999H6.7581a.65.65 0 1 0 0 1.3zm.4324-4.9684a.8666.8666 0 0 1-.8666-.8666C6.324 3.8095 9.1578 2 11.957 2c2.7993 0 5.6332 1.8095 5.6332 5.2674a.8666.8666 0 1 1-1.7333 0 3.2334 3.2334 0 0 0-1.1734-2.6311C12.671 2.9836 8.0572 3.527 8.0572 7.2673a.8666.8666 0 0 1-.8667.8667z"/></svg>