<!--character:3024:2845-->
<svg width="24" height="24" viewBox="0 0 24 24">
  <path d="M13.4002 12C14.7602 12 15.8802 13.04 15.8802 14.4L15.8771 21.84C15.8771 21.92 15.7971 22 15.7171 22H10.3571C10.2771 22 10.1971 21.92 10.1971 21.84L10.2002 14.4C10.2002 13.04 11.2402 12 12.6002 12H13.4002ZM14.1202 14.8C14.2002 14.8 14.2802 14.72 14.2802 14.64V14.48C14.2802 14 13.9602 13.68 13.4802 13.68H12.6802C12.2002 13.68 11.8802 14 11.8802 14.48V14.64C11.8802 14.72 11.9602 14.8 12.0402 14.8H14.1202ZM7.80021 16C7.80021 15.36 8.36021 14.8 9.00021 14.8H9.16021C9.24021 14.8 9.32021 14.88 9.32021 14.96V21.84C9.32021 21.92 9.24021 22 9.16021 22H9.00021C8.36021 22 7.80021 21.44 7.80021 20.8V16ZM18.2002 20.8C18.2002 21.44 17.6402 22 17.0002 22H16.8402C16.7602 22 16.6802 21.92 16.6802 21.84V14.96C16.6802 14.88 16.7602 14.8 16.8402 14.8H17.0002C17.6402 14.8 18.2002 15.36 18.2002 16V20.8ZM11.9716 6.5435C11.6859 7.2292 11.1716 7.7435 10.543 8.0292C9.17161 8.5435 7.68591 7.9149 7.17161 6.5435C6.65731 5.1721 7.34301 3.6864 8.65731 3.1721C9.97161 2.6578 11.4573 3.3435 12.0288 4.6007C12.0288 4.6578 12.0859 4.7149 12.143 4.7149H18.143C18.6573 4.7149 19.0002 5.1721 19.0002 5.6292C19.0002 6.0864 18.6002 6.4864 18.1431 6.4864H17.9716C17.9145 6.4864 17.8573 6.5435 17.8573 6.6007V6.7149C17.8573 7.1721 17.4573 7.5721 17.0002 7.5721C16.5431 7.5721 16.1431 7.2292 16.1431 6.6578V6.5435C16.1431 6.4864 16.0859 6.4292 16.0288 6.4292H15.4573C15.3431 6.4292 15.2859 6.5435 15.2859 6.6007V6.7149C15.2859 7.2292 14.8859 7.5721 14.4288 7.5721C13.9716 7.5721 13.5716 7.2292 13.5716 6.7149V6.6007C13.5716 6.5435 13.5145 6.4292 13.4002 6.4292H12.0859C12.0288 6.4292 11.9716 6.4864 11.9716 6.5435ZM8.42881 5.6292C8.42881 6.2578 8.94301 6.7721 9.57161 6.7721C10.2002 6.7721 10.7145 6.2578 10.7145 5.6292C10.7145 5.0007 10.2002 4.4864 9.57161 4.4864C8.94301 4.4864 8.42881 5.0007 8.42881 5.6292Z" />
</svg>
