<!--character:8027-->
  <svg width="20" height="20" viewBox="0 0 20 20" >
<path d="M6.8765 9.99607C7.04218 9.99607 7.20108 9.93019 7.31823 9.81292C7.43539 9.69564 7.5012 9.53659 7.5012 9.37074C7.5012 9.2049 7.43539 9.04584 7.31823 8.92857C7.20108 8.8113 7.04218 8.74542 6.8765 8.74542H4.37771C4.21203 8.74542 4.05313 8.8113 3.93598 8.92857C3.81882 9.04584 3.75301 9.2049 3.75301 9.37074C3.75301 9.53659 3.81882 9.69564 3.93598 9.81292C4.05313 9.93019 4.21203 9.99607 4.37771 9.99607H4.53388C4.5753 9.99607 4.61503 10.0125 4.64431 10.0419C4.6736 10.0712 4.69006 10.1109 4.69006 10.1524V12.6537C4.69006 12.6952 4.6736 12.7349 4.64431 12.7642C4.61503 12.7936 4.5753 12.81 4.53388 12.81H4.37771C4.21203 12.81 4.05313 12.8759 3.93598 12.9932C3.81882 13.1105 3.75301 13.2695 3.75301 13.4354C3.75301 13.6012 3.81882 13.7603 3.93598 13.8775C4.05313 13.9948 4.21203 14.0607 4.37771 14.0607H6.8765C7.04218 14.0607 7.20108 13.9948 7.31823 13.8775C7.43539 13.7603 7.5012 13.6012 7.5012 13.4354C7.5012 13.2695 7.43539 13.1105 7.31823 12.9932C7.20108 12.8759 7.04218 12.81 6.8765 12.81H6.72033C6.67891 12.81 6.63919 12.7936 6.6099 12.7642C6.58061 12.7349 6.56415 12.6952 6.56415 12.6537V10.1524C6.56415 10.1109 6.58061 10.0712 6.6099 10.0419C6.63919 10.0125 6.67891 9.99607 6.72033 9.99607H6.8765Z" />
<path d="M11.2494 9.99607C11.4151 9.99607 11.574 9.93019 11.6911 9.81292C11.8083 9.69564 11.8741 9.53659 11.8741 9.37074C11.8741 9.2049 11.8083 9.04584 11.6911 8.92857C11.574 8.8113 11.4151 8.74542 11.2494 8.74542H8.7506C8.58492 8.74542 8.42603 8.8113 8.30887 8.92857C8.19172 9.04584 8.1259 9.2049 8.1259 9.37074C8.1259 9.53659 8.19172 9.69564 8.30887 9.81292C8.42603 9.93019 8.58492 9.99607 8.7506 9.99607H8.90678C8.9482 9.99607 8.98792 10.0125 9.01721 10.0419C9.0465 10.0712 9.06295 10.1109 9.06295 10.1524V12.6537C9.06295 12.6952 9.0465 12.7349 9.01721 12.7642C8.98792 12.7936 8.9482 12.81 8.90678 12.81H8.7506C8.58492 12.81 8.42603 12.8759 8.30887 12.9932C8.19172 13.1105 8.1259 13.2695 8.1259 13.4354C8.1259 13.6012 8.19172 13.7603 8.30887 13.8775C8.42603 13.9948 8.58492 14.0607 8.7506 14.0607H11.2494C11.4151 14.0607 11.574 13.9948 11.6911 13.8775C11.8083 13.7603 11.8741 13.6012 11.8741 13.4354C11.8741 13.2695 11.8083 13.1105 11.6911 12.9932C11.574 12.8759 11.4151 12.81 11.2494 12.81H11.0932C11.0518 12.81 11.0121 12.7936 10.9828 12.7642C10.9535 12.7349 10.937 12.6952 10.937 12.6537V10.1524C10.937 10.1109 10.9535 10.0712 10.9828 10.0419C11.0121 10.0125 11.0518 9.99607 11.0932 9.99607H11.2494Z" />
<path d="M15.9346 9.99607C16.1003 9.99607 16.2592 9.93019 16.3764 9.81292C16.4935 9.69564 16.5593 9.53659 16.5593 9.37074C16.5593 9.2049 16.4935 9.04584 16.3764 8.92857C16.2592 8.8113 16.1003 8.74542 15.9346 8.74542H13.4358C13.2702 8.74542 13.1113 8.8113 12.9941 8.92857C12.877 9.04584 12.8111 9.2049 12.8111 9.37074C12.8111 9.53659 12.877 9.69564 12.9941 9.81292C13.1113 9.93019 13.2702 9.99607 13.4358 9.99607H13.592C13.6334 9.99607 13.6732 10.0125 13.7025 10.0419C13.7317 10.0712 13.7482 10.1109 13.7482 10.1524V12.6537C13.7482 12.6952 13.7317 12.7349 13.7025 12.7642C13.6732 12.7936 13.6334 12.81 13.592 12.81H13.4358C13.2702 12.81 13.1113 12.8759 12.9941 12.9932C12.877 13.1105 12.8111 13.2695 12.8111 13.4354C12.8111 13.6012 12.877 13.7603 12.9941 13.8775C13.1113 13.9948 13.2702 14.0607 13.4358 14.0607H15.9346C16.1003 14.0607 16.2592 13.9948 16.3764 13.8775C16.4935 13.7603 16.5593 13.6012 16.5593 13.4354C16.5593 13.2695 16.4935 13.1105 16.3764 12.9932C16.2592 12.8759 16.1003 12.81 15.9346 12.81H15.7785C15.737 12.81 15.6973 12.7936 15.668 12.7642C15.6387 12.7349 15.6223 12.6952 15.6223 12.6537V10.1524C15.6223 10.1109 15.6387 10.0712 15.668 10.0419C15.6973 10.0125 15.737 9.99607 15.7785 9.99607H15.9346Z" />
<path d="M4.03412 7.80743H16.0283C16.1499 7.81015 16.2697 7.77728 16.3729 7.71285C16.4761 7.64843 16.5583 7.55524 16.6093 7.44474C16.6591 7.32797 16.667 7.19756 16.6317 7.07561C16.5964 6.95367 16.5201 6.84769 16.4157 6.77564L10.7122 2.61722C10.6009 2.54087 10.4691 2.5 10.3342 2.5C10.1993 2.5 10.0675 2.54087 9.95627 2.61722L3.6718 6.76313C3.56205 6.83064 3.47983 6.93497 3.43978 7.05751C3.39974 7.18006 3.40448 7.31286 3.45315 7.43223C3.50234 7.54508 3.58371 7.64087 3.68706 7.70762C3.79041 7.77436 3.91114 7.80908 4.03412 7.80743Z" />
<path d="M17.4464 17.0122L16.197 15.1362C16.1677 15.0938 16.1285 15.059 16.0828 15.0351C16.0371 15.0111 15.9862 14.9986 15.9346 14.9987H4.06536C4.01376 14.9986 3.96293 15.0111 3.91723 15.0351C3.87153 15.059 3.83232 15.0938 3.80298 15.1362L2.55358 17.0122C2.52165 17.0595 2.50326 17.1146 2.50039 17.1716C2.49753 17.2286 2.51031 17.2853 2.53733 17.3356C2.56436 17.3858 2.60462 17.4277 2.65373 17.4567C2.70285 17.4857 2.75895 17.5006 2.81596 17.5H17.184C17.2411 17.5006 17.2972 17.4857 17.3463 17.4567C17.3954 17.4277 17.4356 17.3858 17.4627 17.3356C17.4897 17.2853 17.5025 17.2286 17.4996 17.1716C17.4967 17.1146 17.4783 17.0595 17.4464 17.0122Z" />
</svg>