<!--character:5209-->
  <svg width="24" height="24" viewBox="0 0 24 24" >
<path d="M7.93946 11.9949C8.15484 11.9949 8.3614 11.9092 8.5137 11.7568C8.666 11.6043 8.75156 11.3976 8.75156 11.182C8.75156 10.9664 8.666 10.7596 8.5137 10.6071C8.3614 10.4547 8.15484 10.369 7.93946 10.369H4.69102C4.47563 10.369 4.26907 10.4547 4.11677 10.6071C3.96447 10.7596 3.87891 10.9664 3.87891 11.182C3.87891 11.3976 3.96447 11.6043 4.11677 11.7568C4.26907 11.9092 4.47563 11.9949 4.69102 11.9949H4.89405C4.94789 11.9949 4.99953 12.0163 5.03761 12.0544C5.07568 12.0925 5.09707 12.1442 5.09707 12.1981V15.4498C5.09707 15.5037 5.07568 15.5554 5.03761 15.5935C4.99953 15.6316 4.94789 15.653 4.89405 15.653H4.69102C4.47563 15.653 4.26907 15.7387 4.11677 15.8911C3.96447 16.0436 3.87891 16.2504 3.87891 16.466C3.87891 16.6816 3.96447 16.8883 4.11677 17.0408C4.26907 17.1932 4.47563 17.2789 4.69102 17.2789H7.93946C8.15484 17.2789 8.3614 17.1932 8.5137 17.0408C8.666 16.8883 8.75156 16.6816 8.75156 16.466C8.75156 16.2504 8.666 16.0436 8.5137 15.8911C8.3614 15.7387 8.15484 15.653 7.93946 15.653H7.73643C7.68258 15.653 7.63094 15.6316 7.59287 15.5935C7.55479 15.5554 7.5334 15.5037 7.5334 15.4498V12.1981C7.5334 12.1442 7.55479 12.0925 7.59287 12.0544C7.63094 12.0163 7.68258 11.9949 7.73643 11.9949H7.93946Z" />
<path d="M13.6242 11.9949C13.8396 11.9949 14.0462 11.9092 14.1985 11.7568C14.3508 11.6043 14.4363 11.3976 14.4363 11.182C14.4363 10.9664 14.3508 10.7596 14.1985 10.6071C14.0462 10.4547 13.8396 10.369 13.6242 10.369H10.3758C10.1604 10.369 9.95383 10.4547 9.80153 10.6071C9.64923 10.7596 9.56367 10.9664 9.56367 11.182C9.56367 11.3976 9.64923 11.6043 9.80153 11.7568C9.95383 11.9092 10.1604 11.9949 10.3758 11.9949H10.5788C10.6327 11.9949 10.6843 12.0163 10.7224 12.0544C10.7604 12.0925 10.7818 12.1442 10.7818 12.1981V15.4498C10.7818 15.5037 10.7604 15.5554 10.7224 15.5935C10.6843 15.6316 10.6327 15.653 10.5788 15.653H10.3758C10.1604 15.653 9.95383 15.7387 9.80153 15.8911C9.64923 16.0436 9.56367 16.2504 9.56367 16.466C9.56367 16.6816 9.64923 16.8883 9.80153 17.0408C9.95383 17.1932 10.1604 17.2789 10.3758 17.2789H13.6242C13.8396 17.2789 14.0462 17.1932 14.1985 17.0408C14.3508 16.8883 14.4363 16.6816 14.4363 16.466C14.4363 16.2504 14.3508 16.0436 14.1985 15.8911C14.0462 15.7387 13.8396 15.653 13.6242 15.653H13.4212C13.3673 15.653 13.3157 15.6316 13.2776 15.5935C13.2396 15.5554 13.2182 15.5037 13.2182 15.4498V12.1981C13.2182 12.1442 13.2396 12.0925 13.2776 12.0544C13.3157 12.0163 13.3673 11.9949 13.4212 11.9949H13.6242Z" />
<path d="M19.715 11.9949C19.9304 11.9949 20.137 11.9092 20.2893 11.7568C20.4416 11.6043 20.5271 11.3976 20.5271 11.182C20.5271 10.9664 20.4416 10.7596 20.2893 10.6071C20.137 10.4547 19.9304 10.369 19.715 10.369H16.4666C16.2512 10.369 16.0447 10.4547 15.8924 10.6071C15.7401 10.7596 15.6545 10.9664 15.6545 11.182C15.6545 11.3976 15.7401 11.6043 15.8924 11.7568C16.0447 11.9092 16.2512 11.9949 16.4666 11.9949H16.6696C16.7235 11.9949 16.7751 12.0163 16.8132 12.0544C16.8513 12.0925 16.8727 12.1442 16.8727 12.1981V15.4498C16.8727 15.5037 16.8513 15.5554 16.8132 15.5935C16.7751 15.6316 16.7235 15.653 16.6696 15.653H16.4666C16.2512 15.653 16.0447 15.7387 15.8924 15.8911C15.7401 16.0436 15.6545 16.2504 15.6545 16.466C15.6545 16.6816 15.7401 16.8883 15.8924 17.0408C16.0447 17.1932 16.2512 17.2789 16.4666 17.2789H19.715C19.9304 17.2789 20.137 17.1932 20.2893 17.0408C20.4416 16.8883 20.5271 16.6816 20.5271 16.466C20.5271 16.2504 20.4416 16.0436 20.2893 15.8911C20.137 15.7387 19.9304 15.653 19.715 15.653H19.512C19.4582 15.653 19.4065 15.6316 19.3684 15.5935C19.3304 15.5554 19.309 15.5037 19.309 15.4498V12.1981C19.309 12.1442 19.3304 12.0925 19.3684 12.0544C19.4065 12.0163 19.4582 11.9949 19.512 11.9949H19.715Z" />
<path d="M4.24436 9.14966H19.8369C19.9949 9.1532 20.1506 9.11047 20.2848 9.02671C20.4189 8.94296 20.5257 8.82182 20.5921 8.67816C20.6568 8.52636 20.6671 8.35682 20.6212 8.1983C20.5754 8.03977 20.4761 7.90199 20.3404 7.80833L12.9258 2.40239C12.7811 2.30313 12.6099 2.25 12.4345 2.25C12.2591 2.25 12.0878 2.30313 11.9432 2.40239L3.77334 7.79208C3.63067 7.87983 3.52378 8.01546 3.47172 8.17477C3.41966 8.33408 3.42582 8.50672 3.4891 8.6619C3.55304 8.8086 3.65882 8.93314 3.79317 9.0199C3.92753 9.10667 4.08448 9.15181 4.24436 9.14966Z" />
<path d="M21.6803 21.1159L20.0561 18.6771C20.018 18.6219 19.967 18.5768 19.9076 18.5456C19.8482 18.5145 19.7821 18.4982 19.715 18.4983H4.28496C4.21789 18.4982 4.15181 18.5145 4.0924 18.5456C4.03298 18.5768 3.98202 18.6219 3.94388 18.6771L2.31966 21.1159C2.27815 21.1774 2.25424 21.249 2.25051 21.3231C2.24679 21.3972 2.2634 21.4709 2.29854 21.5362C2.33367 21.6016 2.386 21.656 2.44985 21.6937C2.5137 21.7314 2.58663 21.7508 2.66075 21.75H21.3393C21.4134 21.7508 21.4863 21.7314 21.5501 21.6937C21.614 21.656 21.6663 21.6016 21.7015 21.5362C21.7366 21.4709 21.7532 21.3972 21.7495 21.3231C21.7458 21.249 21.7219 21.1774 21.6803 21.1159Z" />
</svg>