<!--character:6692-->
  <svg width="24" height="24" viewBox="0 0 24 24" >
<path d="M8.2518 11.9953C8.45062 11.9953 8.6413 11.9162 8.78188 11.7755C8.92246 11.6348 9.00144 11.4439 9.00144 11.2449C9.00144 11.0459 8.92246 10.855 8.78188 10.7143C8.6413 10.5736 8.45062 10.4945 8.2518 10.4945H5.25325C5.05443 10.4945 4.86376 10.5736 4.72317 10.7143C4.58259 10.855 4.50361 11.0459 4.50361 11.2449C4.50361 11.4439 4.58259 11.6348 4.72317 11.7755C4.86376 11.9162 5.05443 11.9953 5.25325 11.9953H5.44066C5.49036 11.9953 5.53803 12.015 5.57318 12.0502C5.60832 12.0854 5.62807 12.1331 5.62807 12.1829V15.1844C5.62807 15.2342 5.60832 15.2819 5.57318 15.3171C5.53803 15.3523 5.49036 15.372 5.44066 15.372H5.25325C5.05443 15.372 4.86376 15.4511 4.72317 15.5918C4.58259 15.7326 4.50361 15.9234 4.50361 16.1224C4.50361 16.3215 4.58259 16.5123 4.72317 16.653C4.86376 16.7938 5.05443 16.8728 5.25325 16.8728H8.2518C8.45062 16.8728 8.6413 16.7938 8.78188 16.653C8.92246 16.5123 9.00144 16.3215 9.00144 16.1224C9.00144 15.9234 8.92246 15.7326 8.78188 15.5918C8.6413 15.4511 8.45062 15.372 8.2518 15.372H8.0644C8.01469 15.372 7.96702 15.3523 7.93188 15.3171C7.89673 15.2819 7.87698 15.2342 7.87698 15.1844V12.1829C7.87698 12.1331 7.89673 12.0854 7.93188 12.0502C7.96702 12.015 8.01469 11.9953 8.0644 11.9953H8.2518Z" />
<path d="M13.4993 11.9953C13.6981 11.9953 13.8888 11.9162 14.0294 11.7755C14.1699 11.6348 14.2489 11.4439 14.2489 11.2449C14.2489 11.0459 14.1699 10.855 14.0294 10.7143C13.8888 10.5736 13.6981 10.4945 13.4993 10.4945H10.5007C10.3019 10.4945 10.1112 10.5736 9.97065 10.7143C9.83006 10.855 9.75108 11.0459 9.75108 11.2449C9.75108 11.4439 9.83006 11.6348 9.97065 11.7755C10.1112 11.9162 10.3019 11.9953 10.5007 11.9953H10.6881C10.7378 11.9953 10.7855 12.015 10.8207 12.0502C10.8558 12.0854 10.8755 12.1331 10.8755 12.1829V15.1844C10.8755 15.2342 10.8558 15.2819 10.8207 15.3171C10.7855 15.3523 10.7378 15.372 10.6881 15.372H10.5007C10.3019 15.372 10.1112 15.4511 9.97065 15.5918C9.83006 15.7326 9.75108 15.9234 9.75108 16.1224C9.75108 16.3215 9.83006 16.5123 9.97065 16.653C10.1112 16.7938 10.3019 16.8728 10.5007 16.8728H13.4993C13.6981 16.8728 13.8888 16.7938 14.0294 16.653C14.1699 16.5123 14.2489 16.3215 14.2489 16.1224C14.2489 15.9234 14.1699 15.7326 14.0294 15.5918C13.8888 15.4511 13.6981 15.372 13.4993 15.372H13.3119C13.2622 15.372 13.2145 15.3523 13.1794 15.3171C13.1442 15.2819 13.1245 15.2342 13.1245 15.1844V12.1829C13.1245 12.1331 13.1442 12.0854 13.1794 12.0502C13.2145 12.015 13.2622 11.9953 13.3119 11.9953H13.4993Z" />
<path d="M19.1216 11.9953C19.3204 11.9953 19.5111 11.9162 19.6516 11.7755C19.7922 11.6348 19.8712 11.4439 19.8712 11.2449C19.8712 11.0459 19.7922 10.855 19.6516 10.7143C19.5111 10.5736 19.3204 10.4945 19.1216 10.4945H16.123C15.9242 10.4945 15.7335 10.5736 15.5929 10.7143C15.4524 10.855 15.3734 11.0459 15.3734 11.2449C15.3734 11.4439 15.4524 11.6348 15.5929 11.7755C15.7335 11.9162 15.9242 11.9953 16.123 11.9953H16.3104C16.3601 11.9953 16.4078 12.015 16.4429 12.0502C16.4781 12.0854 16.4978 12.1331 16.4978 12.1829V15.1844C16.4978 15.2342 16.4781 15.2819 16.4429 15.3171C16.4078 15.3523 16.3601 15.372 16.3104 15.372H16.123C15.9242 15.372 15.7335 15.4511 15.5929 15.5918C15.4524 15.7326 15.3734 15.9234 15.3734 16.1224C15.3734 16.3215 15.4524 16.5123 15.5929 16.653C15.7335 16.7938 15.9242 16.8728 16.123 16.8728H19.1216C19.3204 16.8728 19.5111 16.7938 19.6516 16.653C19.7922 16.5123 19.8712 16.3215 19.8712 16.1224C19.8712 15.9234 19.7922 15.7326 19.6516 15.5918C19.5111 15.4511 19.3204 15.372 19.1216 15.372H18.9342C18.8845 15.372 18.8368 15.3523 18.8016 15.3171C18.7665 15.2819 18.7468 15.2342 18.7468 15.1844V12.1829C18.7468 12.1331 18.7665 12.0854 18.8016 12.0502C18.8368 12.015 18.8845 11.9953 18.9342 11.9953H19.1216Z" />
<path d="M4.84095 9.36891H19.234C19.3799 9.37218 19.5236 9.33274 19.6475 9.25543C19.7713 9.17811 19.8699 9.06629 19.9312 8.93369C19.9909 8.79356 20.0004 8.63707 19.9581 8.49073C19.9157 8.3444 19.8241 8.21723 19.6988 8.13077L12.8546 3.14067C12.7211 3.04904 12.563 3 12.4011 3C12.2392 3 12.0811 3.04904 11.9475 3.14067L4.40616 8.11576C4.27446 8.19677 4.1758 8.32196 4.12774 8.46901C4.07969 8.61607 4.08537 8.77543 4.14378 8.91868C4.20281 9.05409 4.30045 9.16905 4.42447 9.24914C4.54849 9.32924 4.69337 9.3709 4.84095 9.36891Z" />
<path d="M20.9357 20.4147L19.4364 18.1635C19.4012 18.1125 19.3542 18.0709 19.2993 18.0421C19.2445 18.0133 19.1835 17.9984 19.1216 17.9984H4.87843C4.81652 17.9984 4.75552 18.0133 4.70067 18.0421C4.64583 18.0709 4.59878 18.1125 4.56358 18.1635L3.0643 20.4147C3.02598 20.4714 3.00391 20.5376 3.00047 20.606C2.99704 20.6744 3.01237 20.7424 3.0448 20.8027C3.07724 20.863 3.12554 20.9132 3.18448 20.948C3.24342 20.9828 3.31074 21.0008 3.37915 21H20.6209C20.6893 21.0008 20.7566 20.9828 20.8155 20.948C20.8745 20.9132 20.9228 20.863 20.9552 20.8027C20.9876 20.7424 21.003 20.6744 20.9995 20.606C20.9961 20.5376 20.974 20.4714 20.9357 20.4147Z" />
</svg>