<!--character:$550:2516-->
  <svg width="24" height="24" viewBox="0 0 24 24" >
<path d="M19.5473 2.20979L16.0974 4.26107C15.8177 4.44755 15.3515 4.44755 15.0718 4.16783L12.3678 2.20979C11.9949 1.93007 11.6219 1.93007 11.2489 2.20979L8.63822 4.16783C8.35849 4.35431 7.98553 4.44755 7.61257 4.26107L4.25593 2.20979C3.88297 2.02331 3.51001 2.20979 3.51001 2.58275V21.4172C3.51001 21.7902 3.88297 21.9767 4.25593 21.7902L7.70581 19.7389C7.98553 19.5524 8.45173 19.5524 8.73145 19.8322L11.4354 21.7902C11.8084 22.0699 12.1813 22.0699 12.5543 21.7902L15.2583 19.8322C15.538 19.6457 16.0042 19.5524 16.2839 19.7389L19.7338 21.7902C20.0135 21.9767 20.4797 21.7902 20.4797 21.4172V2.58275C20.2932 2.20979 19.9203 2.02331 19.5473 2.20979ZM7.23961 7.338H10.9692C11.5287 7.338 11.9016 7.71096 11.9016 8.2704C11.9016 8.82984 11.5287 9.2028 10.9692 9.2028H7.23961C6.68017 9.2028 6.30721 8.82984 6.30721 8.2704C6.30721 7.71096 6.68017 7.338 7.23961 7.338ZM9.10442 11.0676C9.66386 11.0676 10.0368 11.4406 10.0368 12C10.0368 12.5594 9.66386 12.9324 9.10442 12.9324H7.23961C6.68017 12.9324 6.30721 12.5594 6.30721 12C6.30721 11.4406 6.68017 11.0676 7.23961 11.0676H9.10442ZM12.834 16.662H7.23962C6.68017 16.662 6.30721 16.289 6.30721 15.7296C6.30721 15.1702 6.68017 14.7972 7.23962 14.7972H12.834C13.3935 14.7972 13.7664 15.1702 13.7664 15.7296C13.7664 16.289 13.3935 16.662 12.834 16.662ZM14.6988 15.7296C14.6988 15.1702 15.0718 14.7972 15.6312 14.7972H16.5636C17.1231 14.7972 17.496 15.1702 17.496 15.7296C17.496 16.289 17.1231 16.662 16.5636 16.662H15.6312C15.0718 16.662 14.6988 16.289 14.6988 15.7296ZM16.5636 12.9324H15.6312C15.0718 12.9324 14.6988 12.5594 14.6988 12C14.6988 11.4406 15.0718 11.0676 15.6312 11.0676H16.5636C17.1231 11.0676 17.496 11.4406 17.496 12C17.496 12.5594 17.1231 12.9324 16.5636 12.9324ZM15.6312 9.2028C15.0718 9.2028 14.6988 8.82984 14.6988 8.2704C14.6988 7.71096 15.0718 7.338 15.6312 7.338H16.5636C17.1231 7.338 17.496 7.71096 17.496 8.2704C17.496 8.82984 17.1231 9.2028 16.5636 9.2028H15.6312Z" />
</svg>