<!--character:2707-->
<svg width="24" height="24" viewBox="0 0 24 24">
  <path d="M19.5474 2.20979L16.0975 4.26107C15.8178 4.44755 15.3516 4.44755 15.0718 4.16783L12.3679 2.20979C11.9949 1.93007 11.6219 1.93007 11.249 2.20979L8.63826 4.16783C8.35854 4.35431 7.98558 4.44755 7.61262 4.26107L4.25598 2.20979C3.88302 2.02331 3.51006 2.20979 3.51006 2.58275V21.4172C3.51006 21.7902 3.88302 21.9767 4.25598 21.7902L7.70586 19.7389C7.98558 19.5524 8.45178 19.5524 8.7315 19.8322L11.4355 21.7902C11.8084 22.0699 12.1814 22.0699 12.5543 21.7902L15.2583 19.8322C15.538 19.6457 16.0042 19.5524 16.284 19.7389L19.7338 21.7902C20.0136 21.9767 20.4798 21.7902 20.4798 21.4172V2.58275C20.2933 2.20979 19.9203 2.02331 19.5474 2.20979ZM7.23966 7.33799H10.9693C11.5287 7.33799 11.9017 7.71095 11.9017 8.27039C11.9017 8.82983 11.5287 9.20279 10.9693 9.20279H7.23966C6.68022 9.20279 6.30726 8.82983 6.30726 8.27039C6.30726 7.71095 6.68022 7.33799 7.23966 7.33799ZM9.10446 11.0676C9.6639 11.0676 10.0369 11.4406 10.0369 12C10.0369 12.5594 9.6639 12.9324 9.10446 12.9324H7.23966C6.68022 12.9324 6.30726 12.5594 6.30726 12C6.30726 11.4406 6.68022 11.0676 7.23966 11.0676H9.10446ZM12.8341 16.662H7.23966C6.68022 16.662 6.30726 16.289 6.30726 15.7296C6.30726 15.1702 6.68022 14.7972 7.23966 14.7972H12.8341C13.3935 14.7972 13.7665 15.1702 13.7665 15.7296C13.7665 16.289 13.3935 16.662 12.8341 16.662ZM15.6313 16.662C15.0718 16.662 14.6989 16.289 14.6989 15.7296C14.6989 15.1702 15.0718 14.7972 15.6313 14.7972H16.5637C17.1231 14.7972 17.4961 15.1702 17.4961 15.7296C17.4961 16.289 17.1231 16.662 16.5637 16.662H15.6313ZM16.5637 12.9324H15.6313C15.0718 12.9324 14.6989 12.5594 14.6989 12C14.6989 11.4406 15.0718 11.0676 15.6313 11.0676H16.5637C17.1231 11.0676 17.4961 11.4406 17.4961 12C17.4961 12.5594 17.1231 12.9324 16.5637 12.9324ZM15.6313 9.20279C15.0718 9.20279 14.6989 8.82983 14.6989 8.27039C14.6989 7.71095 15.0718 7.33799 15.6313 7.33799H16.5637C17.1231 7.33799 17.4961 7.71095 17.4961 8.27039C17.4961 8.82983 17.1231 9.20279 16.5637 9.20279H15.6313Z" />
</svg>
