<!--character:9169-->
  <svg width="20" height="20" viewBox="0 0 20 20" >
<path d="M16.2895 1.84149L13.4146 3.55089C13.1815 3.70629 12.793 3.70629 12.5599 3.47319L10.3066 1.84149C9.99576 1.60839 9.68496 1.60839 9.37416 1.84149L7.19855 3.47319C6.96545 3.62859 6.65465 3.70629 6.34385 3.55089L3.54665 1.84149C3.23585 1.68609 2.92505 1.84149 2.92505 2.15229V17.8477C2.92505 18.1585 3.23585 18.3139 3.54665 18.1585L6.42155 16.4491C6.65465 16.2937 7.04315 16.2937 7.27625 16.5268L9.52956 18.1585C9.84036 18.3916 10.1512 18.3916 10.462 18.1585L12.7153 16.5268C12.9484 16.3714 13.3369 16.2937 13.57 16.4491L16.4449 18.1585C16.678 18.3139 17.0665 18.1585 17.0665 17.8477V2.15229C16.9111 1.84149 16.6003 1.68609 16.2895 1.84149ZM6.03305 6.11499H9.14105C9.60725 6.11499 9.91806 6.42579 9.91806 6.89199C9.91806 7.35819 9.60725 7.669 9.14105 7.669H6.03305C5.56685 7.669 5.25605 7.35819 5.25605 6.89199C5.25605 6.42579 5.56685 6.11499 6.03305 6.11499ZM7.58705 9.223C8.05325 9.223 8.36405 9.5338 8.36405 10C8.36405 10.4662 8.05325 10.777 7.58705 10.777H6.03305C5.56685 10.777 5.25605 10.4662 5.25605 10C5.25605 9.5338 5.56685 9.223 6.03305 9.223H7.58705ZM10.6951 13.885H6.03305C5.56685 13.885 5.25605 13.5742 5.25605 13.108C5.25605 12.6418 5.56685 12.331 6.03305 12.331H10.6951C11.1613 12.331 11.4721 12.6418 11.4721 13.108C11.4721 13.5742 11.1613 13.885 10.6951 13.885ZM13.0261 13.885C12.5599 13.885 12.2491 13.5742 12.2491 13.108C12.2491 12.6418 12.5599 12.331 13.0261 12.331H13.8031C14.2693 12.331 14.5801 12.6418 14.5801 13.108C14.5801 13.5742 14.2693 13.885 13.8031 13.885H13.0261ZM13.8031 10.777H13.0261C12.5599 10.777 12.2491 10.4662 12.2491 10C12.2491 9.5338 12.5599 9.223 13.0261 9.223H13.8031C14.2693 9.223 14.5801 9.5338 14.5801 10C14.5801 10.4662 14.2693 10.777 13.8031 10.777ZM13.0261 7.669C12.5599 7.669 12.2491 7.35819 12.2491 6.89199C12.2491 6.42579 12.5599 6.11499 13.0261 6.11499H13.8031C14.2693 6.11499 14.5801 6.42579 14.5801 6.89199C14.5801 7.35819 14.2693 7.669 13.8031 7.669H13.0261Z" />
</svg>