<!-- character:0:1857 -->
  <svg width="20" height="20" viewBox="0 0 20 20" >
<path   d="M16.2894 1.84157L13.4145 3.55097C13.1814 3.70638 12.7929 3.70638 12.5598 3.47327L10.3065 1.84157C9.9957 1.60847 9.6849 1.60847 9.37409 1.84157L7.19849 3.47327C6.96539 3.62868 6.65459 3.70638 6.34379 3.55097L3.54659 1.84157C3.23579 1.68617 2.92499 1.84157 2.92499 2.15237V17.8478C2.92499 18.1586 3.23579 18.314 3.54659 18.1586L6.42149 16.4492C6.65459 16.2938 7.04309 16.2938 7.27619 16.5269L9.52949 18.1586C9.84029 18.3917 10.1511 18.3917 10.4619 18.1586L12.7152 16.5269C12.9483 16.3715 13.3368 16.2938 13.5699 16.4492L16.4448 18.1586C16.6779 18.314 17.0664 18.1586 17.0664 17.8478V2.15237C16.911 1.84157 16.6002 1.68617 16.2894 1.84157ZM6.03299 6.11508H9.14099C9.60719 6.11508 9.91799 6.42588 9.91799 6.89208C9.91799 7.35828 9.60719 7.66908 9.14099 7.66908H6.03299C5.56679 7.66908 5.25599 7.35828 5.25599 6.89208C5.25599 6.42588 5.56679 6.11508 6.03299 6.11508ZM7.58699 9.22308H6.03299C5.56679 9.22308 5.25599 9.53388 5.25599 10.0001C5.25599 10.4663 5.56679 10.7771 6.03299 10.7771H7.58699C8.05319 10.7771 8.36399 10.4663 8.36399 10.0001C8.36399 9.53388 8.05319 9.22308 7.58699 9.22308ZM10.695 13.8851H6.03299C5.56679 13.8851 5.25599 13.5743 5.25599 13.1081C5.25599 12.6419 5.56679 12.3311 6.03299 12.3311H10.695C11.1612 12.3311 11.472 12.6419 11.472 13.1081C11.472 13.5743 11.1612 13.8851 10.695 13.8851ZM13.026 13.8851H13.803C14.2692 13.8851 14.58 13.5743 14.58 13.1081C14.58 12.6419 14.2692 12.3311 13.803 12.3311H13.026C12.5598 12.3311 12.249 12.6419 12.249 13.1081C12.249 13.5743 12.5598 13.8851 13.026 13.8851ZM13.803 10.7771H13.026C12.5598 10.7771 12.249 10.4663 12.249 10.0001C12.249 9.53388 12.5598 9.22308 13.026 9.22308H13.803C14.2692 9.22308 14.58 9.53388 14.58 10.0001C14.58 10.4663 14.2692 10.7771 13.803 10.7771ZM13.026 7.66908H13.803C14.2692 7.66908 14.58 7.35828 14.58 6.89208C14.58 6.42588 14.2692 6.11508 13.803 6.11508H13.026C12.5598 6.11508 12.249 6.42588 12.249 6.89208C12.249 7.35828 12.5598 7.66908 13.026 7.66908Z" />
</svg>