<!--character:260:550:2703-->
  <svg width="24" height="24" viewBox="0 0 24 24" >
<path   d="M19.1845 13.271C19.4735 13.559 19.4735 14.028 19.1845 14.316L18.8155 14.685C18.5265 14.973 18.0595 14.973 17.7705 14.685L16.9995 13.915V16.761C16.9995 17.169 16.6685 17.5 16.2605 17.5H15.7395C15.3305 17.5 14.9995 17.169 14.9995 16.761V13.915L14.2295 14.685C13.9405 14.973 13.4735 14.973 13.1845 14.685L12.8155 14.316C12.5265 14.028 12.5265 13.559 12.8155 13.271L15.4775 10.609C15.7665 10.321 16.2335 10.321 16.5225 10.609L19.1845 13.271ZM11.3025 16.996C11.3025 17.371 10.9275 17.641 10.5525 17.641C9.8025 17.641 9.8645 16.892 9.8645 16.892C9.5525 17.33 8.8645 17.766 7.8645 17.766C5.8655 17.766 4.3035 16.33 4.3035 14.08C4.3035 11.83 5.9905 10.393 7.9895 10.393C9.5525 10.393 10.4275 11.081 10.9275 11.83C11.1775 12.205 10.9895 12.642 10.5525 12.83L10.3645 12.892C10.0525 13.017 9.7395 12.892 9.5525 12.642C9.3025 12.267 8.8025 11.892 7.9895 11.892C7.0525 11.892 5.9275 12.517 5.9275 14.142C5.9275 15.642 6.9275 16.392 8.0525 16.392C9.0525 16.392 9.5525 15.83 9.7395 15.455C9.8025 15.392 9.8025 15.267 9.6145 15.267H8.3645C7.9895 15.267 7.6775 14.955 7.6775 14.58C7.6775 14.205 7.9895 13.892 8.3645 13.892H10.6145C10.9895 13.892 11.3025 14.205 11.3025 14.58V16.996ZM6.99951 5.969C7.01651 5.709 7.22751 5.5 7.49351 5.5H7.57651H7.99951H16.2605C16.6685 5.5 16.9995 5.832 16.9995 6.24V6.761C16.9995 7.169 16.6685 7.5 16.2605 7.5H7.73951C7.33051 7.5 6.99951 7.169 6.99951 6.761V5.969ZM19.7395 5.5H21.2605C21.6685 5.5 21.9995 5.169 21.9995 4.761V4.24C21.9995 3.832 21.6685 3.5 21.2605 3.5H2.73951C2.33051 3.5 1.99951 3.832 1.99951 4.24V4.761C1.99951 5.169 2.33051 5.5 2.73951 5.5H4.26051C4.66851 5.5 4.99951 5.832 4.99951 6.24V7C4.99951 7.277 4.77651 7.5 4.49951 7.5C3.11951 7.5 1.99951 8.62 1.99951 10V17.761C1.99951 19.274 3.22651 20.5 4.73951 20.5H19.2605C20.7735 20.5 21.9995 19.274 21.9995 17.761V10C21.9995 8.62 20.8805 7.5 19.4995 7.5C19.2245 7.5 18.9995 7.277 18.9995 7V6.24C18.9995 5.832 19.3305 5.5 19.7395 5.5Z" />
</svg>