<!-- character:0:1661 -->
  <svg width="20" height="20" viewBox="0 0 20 20" >
<path   d="M15.9871 11.0591C16.2279 11.2991 16.2279 11.69 15.9871 11.93L15.6796 12.2375C15.4388 12.4775 15.0496 12.4775 14.8088 12.2375L14.1663 11.5958V13.9675C14.1663 14.3075 13.8904 14.5833 13.5504 14.5833H13.1163C12.7754 14.5833 12.4996 14.3075 12.4996 13.9675V11.5958L11.8579 12.2375C11.6171 12.4775 11.2279 12.4775 10.9871 12.2375L10.6796 11.93C10.4388 11.69 10.4388 11.2991 10.6796 11.0591L12.8979 8.84079C13.1388 8.60079 13.5279 8.60079 13.7688 8.84079L15.9871 11.0591ZM9.41876 14.1633C9.41876 14.4758 9.10626 14.7008 8.79376 14.7008C8.16876 14.7008 8.22043 14.0766 8.22043 14.0766C7.96043 14.4416 7.38709 14.805 6.55376 14.805C4.88793 14.805 3.58626 13.6083 3.58626 11.7333C3.58626 9.85829 4.99209 8.66079 6.65793 8.66079C7.96043 8.66079 8.68959 9.23413 9.10626 9.85829C9.31459 10.1708 9.15793 10.535 8.79376 10.6916L8.63709 10.7433C8.37709 10.8475 8.11626 10.7433 7.96043 10.535C7.75209 10.2225 7.33543 9.90996 6.65793 9.90996C5.87709 9.90996 4.93959 10.4308 4.93959 11.785C4.93959 13.035 5.77293 13.66 6.71043 13.66C7.54376 13.66 7.96043 13.1916 8.11626 12.8791C8.16876 12.8266 8.16876 12.7225 8.01209 12.7225H6.97043C6.65793 12.7225 6.39793 12.4625 6.39793 12.15C6.39793 11.8375 6.65793 11.5766 6.97043 11.5766H8.84543C9.15793 11.5766 9.41876 11.8375 9.41876 12.15V14.1633ZM5.83293 4.97413C5.84709 4.75746 6.02293 4.58329 6.24459 4.58329H6.31376H6.66626H13.5504C13.8904 4.58329 14.1663 4.85996 14.1663 5.19996V5.63413C14.1663 5.97413 13.8904 6.24996 13.5504 6.24996H6.44959C6.10876 6.24996 5.83293 5.97413 5.83293 5.63413V4.97413ZM16.4496 4.58329H17.7171C18.0571 4.58329 18.3329 4.30746 18.3329 3.96746V3.53329C18.3329 3.19329 18.0571 2.91663 17.7171 2.91663H2.28293C1.94209 2.91663 1.66626 3.19329 1.66626 3.53329V3.96746C1.66626 4.30746 1.94209 4.58329 2.28293 4.58329H3.55043C3.89043 4.58329 4.16626 4.85996 4.16626 5.19996V5.83329C4.16626 6.06413 3.98043 6.24996 3.74959 6.24996C2.59959 6.24996 1.66626 7.18329 1.66626 8.33329V14.8008C1.66626 16.0616 2.68876 17.0833 3.94959 17.0833H16.0504C17.3113 17.0833 18.3329 16.0616 18.3329 14.8008V8.33329C18.3329 7.18329 17.4004 6.24996 16.2496 6.24996C16.0204 6.24996 15.8329 6.06413 15.8329 5.83329V5.19996C15.8329 4.85996 16.1088 4.58329 16.4496 4.58329Z" />
</svg>