<!--description:Use in info about boarding gate & in timeline for gate-->
<!--category:travel-->
<!--character:E00A-->
<svg width="24" height="24" viewBox="0 0 24 24" xmlns="http://www.w3.org/2000/svg"><path d="M19.1845 13.271c.289.288.289.757 0 1.045l-.369.369a.74.74 0 0 1-1.045 0l-.771-.77v2.846c0 .408-.331.739-.739.739h-.521c-.409 0-.74-.331-.74-.739v-2.846l-.77.77a.74.74 0 0 1-1.045 0l-.369-.369a.7381.7381 0 0 1 0-1.045l2.662-2.662a.74.74 0 0 1 1.045 0l2.662 2.662zm-7.882 3.725c0 .375-.375.645-.75.645-.75 0-.688-.749-.688-.749-.312.438-1 .874-2 .874-1.999 0-3.561-1.436-3.561-3.686s1.687-3.687 3.686-3.687c1.563 0 2.438.688 2.938 1.437.25.375.062.812-.375 1l-.188.062c-.312.125-.625 0-.812-.25-.25-.375-.75-.75-1.563-.75-.937 0-2.062.625-2.062 2.25 0 1.5 1 2.25 2.125 2.25 1 0 1.5-.562 1.687-.937.063-.063.063-.188-.125-.188h-1.25c-.375 0-.687-.312-.687-.687 0-.375.312-.688.687-.688h2.25c.375 0 .688.313.688.688v2.416zM6.9995 5.969c.017-.26.228-.469.494-.469h8.767c.408 0 .739.332.739.74v.521c0 .408-.331.739-.739.739h-8.521c-.409 0-.74-.331-.74-.739v-.792zm12.74-.469h1.521c.408 0 .739-.331.739-.739V4.24c0-.408-.331-.74-.739-.74H2.7395c-.409 0-.74.332-.74.74v.521c0 .408.331.739.74.739h1.521c.408 0 .739.332.739.74V7c0 .277-.223.5-.5.5-1.38 0-2.5 1.12-2.5 2.5v7.761c0 1.513 1.227 2.739 2.74 2.739h14.521c1.513 0 2.739-1.226 2.739-2.739V10c0-1.38-1.119-2.5-2.5-2.5-.275 0-.5-.223-.5-.5v-.76c0-.408.331-.74.74-.74z"/></svg>