<!--character:8032-->
  <svg width="20" height="20" viewBox="0 0 20 20" >
<path d="M15.9868 11.0592C16.2277 11.2992 16.2277 11.69 15.9868 11.93L15.6793 12.2375C15.4385 12.4775 15.0493 12.4775 14.8085 12.2375L14.166 11.5958V13.9675C14.166 14.3075 13.8902 14.5833 13.5502 14.5833H13.116C12.7752 14.5833 12.4993 14.3075 12.4993 13.9675V11.5958L11.8577 12.2375C11.6168 12.4775 11.2277 12.4775 10.9868 12.2375L10.6793 11.93C10.4385 11.69 10.4385 11.2992 10.6793 11.0592L12.8977 8.84083C13.1385 8.60083 13.5277 8.60083 13.7685 8.84083L15.9868 11.0592ZM9.41852 14.1633C9.41852 14.4758 9.10602 14.7008 8.79352 14.7008C8.16852 14.7008 8.22018 14.0767 8.22018 14.0767C7.96018 14.4417 7.38685 14.805 6.55352 14.805C4.88768 14.805 3.58602 13.6083 3.58602 11.7333C3.58602 9.85833 4.99185 8.66083 6.65768 8.66083C7.96018 8.66083 8.68935 9.23416 9.10602 9.85833C9.31435 10.1708 9.15768 10.535 8.79352 10.6917L8.63685 10.7433C8.37685 10.8475 8.11602 10.7433 7.96018 10.535C7.75185 10.2225 7.33518 9.91 6.65768 9.91C5.87685 9.91 4.93935 10.4308 4.93935 11.785C4.93935 13.035 5.77268 13.66 6.71018 13.66C7.54352 13.66 7.96018 13.1917 8.11602 12.8792C8.16852 12.8267 8.16852 12.7225 8.01185 12.7225H6.97018C6.65768 12.7225 6.39768 12.4625 6.39768 12.15C6.39768 11.8375 6.65768 11.5767 6.97018 11.5767H8.84518C9.15768 11.5767 9.41852 11.8375 9.41852 12.15V14.1633ZM5.83268 4.97416C5.84685 4.7575 6.02268 4.58333 6.24435 4.58333H13.5502C13.8902 4.58333 14.166 4.86 14.166 5.2V5.63416C14.166 5.97416 13.8902 6.25 13.5502 6.25H6.44935C6.10851 6.25 5.83268 5.97416 5.83268 5.63416V4.97416ZM16.4493 4.58333H17.7168C18.0568 4.58333 18.3327 4.3075 18.3327 3.9675V3.53333C18.3327 3.19333 18.0568 2.91666 17.7168 2.91666H2.28268C1.94185 2.91666 1.66602 3.19333 1.66602 3.53333V3.9675C1.66602 4.3075 1.94185 4.58333 2.28268 4.58333H3.55018C3.89018 4.58333 4.16602 4.86 4.16602 5.2V5.83333C4.16602 6.06416 3.98018 6.25 3.74935 6.25C2.59935 6.25 1.66602 7.18333 1.66602 8.33333V14.8008C1.66602 16.0617 2.68852 17.0833 3.94935 17.0833H16.0502C17.311 17.0833 18.3327 16.0617 18.3327 14.8008V8.33333C18.3327 7.18333 17.4002 6.25 16.2493 6.25C16.0202 6.25 15.8327 6.06416 15.8327 5.83333V5.2C15.8327 4.86 16.1085 4.58333 16.4493 4.58333Z" />
</svg>