<!--character:1460-->
  <svg width="24" height="24" viewBox="0 0 24 24" >
<path d="M19.1842 13.271C19.4732 13.559 19.4732 14.028 19.1842 14.316L18.8152 14.685C18.5262 14.973 18.0592 14.973 17.7702 14.685L16.9992 13.915V16.761C16.9992 17.169 16.6682 17.5 16.2602 17.5H15.7392C15.3302 17.5 14.9992 17.169 14.9992 16.761V13.915L14.2292 14.685C13.9402 14.973 13.4732 14.973 13.1842 14.685L12.8152 14.316C12.5262 14.028 12.5262 13.559 12.8152 13.271L15.4772 10.609C15.7662 10.321 16.2332 10.321 16.5222 10.609L19.1842 13.271ZM11.3022 16.996C11.3022 17.371 10.9272 17.641 10.5522 17.641C9.80222 17.641 9.86422 16.892 9.86422 16.892C9.55222 17.33 8.86422 17.766 7.86422 17.766C5.86522 17.766 4.30322 16.33 4.30322 14.08C4.30322 11.83 5.99022 10.393 7.98922 10.393C9.55222 10.393 10.4272 11.081 10.9272 11.83C11.1772 12.205 10.9892 12.642 10.5522 12.83L10.3642 12.892C10.0522 13.017 9.73922 12.892 9.55222 12.642C9.30222 12.267 8.80222 11.892 7.98922 11.892C7.05222 11.892 5.92722 12.517 5.92722 14.142C5.92722 15.642 6.92722 16.392 8.05222 16.392C9.05222 16.392 9.55222 15.83 9.73922 15.455C9.80222 15.392 9.80222 15.267 9.61422 15.267H8.36422C7.98922 15.267 7.67722 14.955 7.67722 14.58C7.67722 14.205 7.98922 13.892 8.36422 13.892H10.6142C10.9892 13.892 11.3022 14.205 11.3022 14.58V16.996ZM6.99922 5.969C7.01622 5.709 7.22722 5.5 7.49322 5.5H16.2602C16.6682 5.5 16.9992 5.832 16.9992 6.24V6.761C16.9992 7.169 16.6682 7.5 16.2602 7.5H7.73922C7.33022 7.5 6.99922 7.169 6.99922 6.761V5.969ZM19.7392 5.5H21.2602C21.6682 5.5 21.9992 5.169 21.9992 4.761V4.24C21.9992 3.832 21.6682 3.5 21.2602 3.5H2.73922C2.33022 3.5 1.99922 3.832 1.99922 4.24V4.761C1.99922 5.169 2.33022 5.5 2.73922 5.5H4.26022C4.66822 5.5 4.99922 5.832 4.99922 6.24V7C4.99922 7.277 4.77622 7.5 4.49922 7.5C3.11922 7.5 1.99922 8.62 1.99922 10V17.761C1.99922 19.274 3.22622 20.5 4.73922 20.5H19.2602C20.7732 20.5 21.9992 19.274 21.9992 17.761V10C21.9992 8.62 20.8802 7.5 19.4992 7.5C19.2242 7.5 18.9992 7.277 18.9992 7V6.24C18.9992 5.832 19.3302 5.5 19.7392 5.5Z" />
</svg>