<!--character:245:550:2535-->
  <svg width="24" height="24" viewBox="0 0 24 24" >
<path d="M7.02856 9.28214C6.9676 9.29395 6.90457 9.27773 6.85688 9.23797C6.80832 9.19842 6.78041 9.13891 6.78104 9.07629V7.84371C6.78288 6.57874 7.80788 5.55374 9.07286 5.5519H10.5338C10.6488 5.5519 10.7421 5.45862 10.7421 5.34355V2.4267C10.7421 2.19657 10.9287 2.01001 11.1588 2.01001H13.659C13.8891 2.01001 14.0757 2.19657 14.0757 2.4267V5.34355C14.0757 5.45862 14.169 5.5519 14.284 5.5519H15.7424C17.0076 5.55328 18.0329 6.57855 18.0343 7.84371V9.07713C18.0348 9.13995 18.0069 9.19965 17.9583 9.23949C17.9098 9.27933 17.8457 9.29501 17.7842 9.28214L12.7198 8.31624C12.5136 8.27624 12.3017 8.27624 12.0955 8.31624L7.02856 9.28214Z" />
<path d="M13.0406 9.90384C13.0408 9.84165 13.0686 9.78274 13.1164 9.743C13.1639 9.70267 13.2268 9.68556 13.2881 9.69633L20.3944 11.0548C20.507 11.0763 20.6058 11.1433 20.6675 11.2399C20.7291 11.3366 20.7482 11.4544 20.7203 11.5656L19.2693 17.3535C19.2546 17.4121 19.2151 17.4614 19.161 17.4885C19.107 17.5159 19.0438 17.5186 18.9877 17.496C18.7362 17.3927 18.467 17.3395 18.1951 17.3393C17.4622 17.3249 16.7795 17.7099 16.4125 18.3444C16.139 18.7658 15.6792 19.0295 15.1774 19.0528C14.8136 19.0382 14.482 18.8402 14.2965 18.5269C14.0683 18.0505 13.6668 17.6794 13.1739 17.4893C13.0938 17.4582 13.0409 17.3811 13.0406 17.2951V9.90384Z" />
<path d="M5.51429 17.2226C5.54108 17.3308 5.64851 17.3985 5.75764 17.376C5.87939 17.3507 6.00334 17.3376 6.12767 17.3368C6.8483 17.3356 7.51838 17.7069 7.89945 18.3185C8.19143 18.7285 8.64428 18.9947 9.14452 19.0503C9.76437 18.9881 10.3341 18.682 10.728 18.1994C10.9635 17.8777 11.2875 17.6316 11.6605 17.491C11.741 17.4602 11.794 17.3829 11.7939 17.2968V9.89801C11.794 9.83592 11.7665 9.77699 11.7189 9.73717C11.6708 9.69814 11.6081 9.68201 11.5472 9.693L4.42089 11.0523C4.30827 11.0738 4.20951 11.1408 4.14785 11.2374C4.08619 11.3341 4.06708 11.4519 4.09504 11.5631L5.51429 17.2226Z" />
<path d="M21.6728 20.4242C21.8485 20.5585 21.9636 20.757 21.9928 20.9762C22.0525 21.4314 21.7328 21.8491 21.2778 21.9104C20.1466 22.0394 19.0173 21.654 18.2009 20.8604C18.1219 20.7898 18.0025 20.7898 17.9234 20.8604C17.1516 21.5588 16.1475 21.945 15.1066 21.9438C14.1113 21.9523 13.1539 21.5622 12.4481 20.8604C12.3727 20.7869 12.2543 20.7812 12.1722 20.847C11.3392 21.5424 10.2928 21.931 9.20786 21.9479C8.1438 21.9373 7.12262 21.5271 6.34685 20.7987C6.26944 20.7298 6.15337 20.7277 6.0735 20.7937C5.2721 21.5116 4.24728 21.9305 3.17248 21.9796C3.02144 21.9797 2.87056 21.97 2.72079 21.9504C2.26644 21.8884 1.94755 21.471 2.00716 21.0164C2.06678 20.5617 2.4825 20.2406 2.93747 20.2978C4.32755 20.477 5.5918 18.9428 5.6043 18.9269C5.78018 18.7262 6.03861 18.6175 6.3051 18.6321C6.5716 18.6467 6.81656 18.7831 6.96939 19.0019C7.47238 19.7576 8.30155 20.2327 9.20786 20.2845C10.1991 20.2178 11.1153 19.7331 11.728 18.9511C11.9107 18.729 12.1915 18.6117 12.4779 18.6378C12.7642 18.6638 13.0192 18.8297 13.1589 19.0811C13.5447 19.8027 14.2886 20.2611 15.1066 20.2812C16.0124 20.2589 16.8478 19.7875 17.335 19.0236C17.4932 18.7849 17.7587 18.6394 18.045 18.6346C18.3312 18.6298 18.6015 18.7662 18.7676 18.9994C18.7743 19.0103 19.7069 20.442 21.0561 20.2603C21.2753 20.231 21.4971 20.2899 21.6728 20.4242Z" />
</svg>