<!--character:3024:2788-->
<svg width="24" height="24" viewBox="0 0 24 24">
  <path d="M7.02836 9.28213C6.96741 9.29394 6.90437 9.27772 6.85669 9.23796C6.80813 9.19841 6.78022 9.13891 6.78085 9.07628V7.84371C6.78268 6.57874 7.80769 5.55373 9.07266 5.55189H10.5336C10.6487 5.55189 10.7419 5.45861 10.7419 5.34355V2.4267C10.7419 2.19656 10.9285 2.01 11.1586 2.01H13.6588C13.8889 2.01 14.0755 2.19656 14.0755 2.4267V5.34355C14.0755 5.45861 14.1688 5.55189 14.2838 5.55189H15.7422C17.0074 5.55327 18.0327 6.57855 18.0341 7.84371V9.07712C18.0346 9.13994 18.0067 9.19965 17.9581 9.23948C17.9096 9.27932 17.8455 9.295 17.784 9.28213L12.7196 8.31624C12.5134 8.27624 12.3015 8.27624 12.0954 8.31624L7.02836 9.28213Z" />
  <path d="M13.0404 9.90384C13.0406 9.84164 13.0684 9.78273 13.1162 9.74299C13.1637 9.70266 13.2266 9.68556 13.2879 9.69632L20.3942 11.0547C20.5068 11.0763 20.6056 11.1433 20.6673 11.2399C20.7289 11.3366 20.748 11.4544 20.7201 11.5656L19.2691 17.3535C19.2544 17.4121 19.2149 17.4614 19.1608 17.4885C19.1068 17.5159 19.0436 17.5186 18.9875 17.496C18.736 17.3927 18.4668 17.3395 18.1949 17.3393C17.4621 17.3249 16.7793 17.7098 16.4123 18.3444C16.1388 18.7658 15.679 19.0295 15.1772 19.0528C14.8134 19.0382 14.4818 18.8402 14.2963 18.5269C14.0681 18.0505 13.6666 17.6794 13.1738 17.4893C13.0936 17.4581 13.0407 17.3811 13.0404 17.2951V9.90384Z" />
  <path d="M5.5141 17.2226C5.54089 17.3308 5.64832 17.3985 5.75745 17.376C5.8792 17.3507 6.00314 17.3376 6.12747 17.3368C6.8481 17.3356 7.51818 17.7069 7.89925 18.3185C8.19124 18.7285 8.64409 18.9946 9.14433 19.0503C9.76418 18.9881 10.3339 18.682 10.7278 18.1994C10.9633 17.8777 11.2873 17.6316 11.6603 17.491C11.7408 17.4602 11.7938 17.3829 11.7937 17.2968V9.898C11.7938 9.83591 11.7663 9.77699 11.7187 9.73716C11.6706 9.69813 11.6079 9.682 11.547 9.69299L4.4207 11.0522C4.30808 11.0738 4.20931 11.1408 4.14765 11.2374C4.08599 11.3341 4.06689 11.4519 4.09484 11.5631L5.5141 17.2226Z" />
  <path d="M21.6726 20.4242C21.8483 20.5584 21.9634 20.757 21.9926 20.9762C22.0523 21.4314 21.7326 21.8491 21.2776 21.9104C20.1464 22.0394 19.0171 21.654 18.2007 20.8604C18.1217 20.7898 18.0023 20.7898 17.9232 20.8604C17.1514 21.5588 16.1473 21.945 15.1064 21.9438C14.1111 21.9523 13.1537 21.5622 12.4479 20.8604C12.3725 20.7869 12.2541 20.7811 12.172 20.847C11.339 21.5424 10.2926 21.9309 9.20767 21.9479C8.14361 21.9373 7.12242 21.5271 6.34665 20.7987C6.26924 20.7298 6.15318 20.7277 6.0733 20.7937C5.27191 21.5116 4.24708 21.9305 3.17229 21.9796C3.02125 21.9797 2.87036 21.9699 2.72059 21.9504C2.26625 21.8884 1.94736 21.471 2.00697 21.0164C2.06658 20.5617 2.4823 20.2406 2.93727 20.2978C4.32736 20.477 5.59161 18.9427 5.60411 18.9269C5.77999 18.7262 6.03841 18.6174 6.30491 18.6321C6.5714 18.6467 6.81636 18.7831 6.96919 19.0019C7.47219 19.7576 8.30135 20.2327 9.20767 20.2845C10.1989 20.2178 11.1151 19.7331 11.7278 18.9511C11.9106 18.729 12.1913 18.6117 12.4777 18.6377C12.7641 18.6638 13.019 18.8297 13.1588 19.0811C13.5445 19.8026 14.2884 20.261 15.1064 20.2812C16.0122 20.2589 16.8476 19.7875 17.3348 19.0236C17.493 18.7849 17.7585 18.6394 18.0448 18.6346C18.3311 18.6298 18.6013 18.7662 18.7674 18.9994C18.7741 19.0102 19.7067 20.442 21.0559 20.2603C21.2751 20.231 21.4969 20.2899 21.6726 20.4242Z" />
</svg>
