<!--character:7053-->
  <svg width="20" height="20" viewBox="0 0 20 20" >
<path d="M5.85697 7.73511C5.80617 7.74495 5.75364 7.73144 5.71391 7.6983C5.67344 7.66534 5.65018 7.61576 5.65071 7.56357V6.53642C5.65224 5.48228 6.50641 4.62811 7.56055 4.62658H8.77799C8.87388 4.62658 8.95161 4.54885 8.95161 4.45296V2.02225C8.95161 1.83047 9.10708 1.675 9.29885 1.675H11.3823C11.5741 1.675 11.7296 1.83047 11.7296 2.02225V4.45296C11.7296 4.54885 11.8073 4.62658 11.9032 4.62658H13.1185C14.1728 4.62773 15.0272 5.48212 15.0284 6.53642V7.56427C15.0289 7.61662 15.0056 7.66637 14.9651 7.69957C14.9246 7.73277 14.8713 7.74583 14.82 7.73511L10.5996 6.9302C10.4278 6.89686 10.2512 6.89686 10.0795 6.9302L5.85697 7.73511Z" />
<path d="M10.867 8.2532C10.8672 8.20136 10.8903 8.15228 10.9302 8.11916C10.9697 8.08555 11.0222 8.0713 11.0733 8.08027L16.9952 9.21229C17.089 9.23023 17.1713 9.28606 17.2227 9.36661C17.2741 9.44717 17.29 9.54534 17.2667 9.63801L16.0576 14.4612C16.0453 14.5101 16.0124 14.5512 15.9673 14.5737C15.9223 14.5965 15.8697 14.5988 15.8229 14.58C15.6133 14.4939 15.389 14.4496 15.1624 14.4494C14.5517 14.4374 13.9827 14.7582 13.6769 15.287C13.449 15.6381 13.0658 15.8579 12.6477 15.8773C12.3445 15.8652 12.0681 15.7002 11.9136 15.4391C11.7234 15.0421 11.3888 14.7328 10.9781 14.5744C10.9114 14.5485 10.8673 14.4843 10.867 14.4126V8.2532Z" />
<path d="M4.59508 14.3522C4.61741 14.4423 4.70693 14.4987 4.79787 14.48C4.89933 14.459 5.00262 14.448 5.10623 14.4473C5.70675 14.4463 6.26515 14.7558 6.58271 15.2654C6.82603 15.6071 7.20341 15.8289 7.62028 15.8752C8.13682 15.8234 8.61155 15.5683 8.9398 15.1661C9.13606 14.8981 9.40608 14.693 9.71694 14.5758C9.78397 14.5502 9.82818 14.4858 9.82805 14.414V8.24834C9.82814 8.19659 9.80524 8.14749 9.76555 8.1143C9.7255 8.08178 9.67326 8.06834 9.62249 8.07749L3.68392 9.2102C3.59007 9.22815 3.50776 9.28397 3.45638 9.36453C3.40499 9.44509 3.38908 9.54326 3.41237 9.63592L4.59508 14.3522Z" />
<path d="M18.0605 17.0201C18.2069 17.132 18.3029 17.2975 18.3272 17.4802C18.3769 17.8595 18.1105 18.2076 17.7313 18.2587C16.7887 18.3662 15.8475 18.045 15.1673 17.3836C15.1014 17.3248 15.0019 17.3248 14.936 17.3836C14.2928 17.9656 13.4561 18.2875 12.5886 18.2865C11.7592 18.2936 10.9614 17.9685 10.3732 17.3836C10.3104 17.3224 10.2118 17.3176 10.1434 17.3725C9.44914 17.952 8.5772 18.2758 7.67306 18.2899C6.78634 18.2811 5.93535 17.9392 5.28888 17.3322C5.22437 17.2749 5.12765 17.2731 5.06109 17.3281C4.39325 17.9263 3.53923 18.2754 2.64357 18.3163C2.51771 18.3164 2.39197 18.3083 2.26716 18.292C1.88854 18.2404 1.6228 17.8925 1.67247 17.5136C1.72215 17.1347 2.06858 16.8672 2.44773 16.9149C3.60613 17.0642 4.65967 15.7856 4.67009 15.7724C4.81666 15.6051 5.03201 15.5145 5.25409 15.5267C5.47617 15.5389 5.6803 15.6526 5.80766 15.8349C6.22682 16.4647 6.91779 16.8606 7.67306 16.9037C8.49907 16.8482 9.26256 16.4442 9.77319 15.7926C9.92546 15.6075 10.1594 15.5098 10.3981 15.5314C10.6367 15.5531 10.8492 15.6914 10.9656 15.9009C11.2871 16.5022 11.907 16.8842 12.5886 16.901C13.3435 16.8824 14.0396 16.4896 14.4457 15.853C14.5775 15.6541 14.7988 15.5328 15.0373 15.5288C15.2759 15.5248 15.5011 15.6385 15.6395 15.8328C15.6451 15.8419 16.4222 17.035 17.5466 16.8836C17.7292 16.8591 17.9141 16.9083 18.0605 17.0201Z" />
</svg>