<!-- character:0:1087 -->
  <svg width="20" height="20" viewBox="0 0 20 20" >
<path   d="M5.85709 7.73516C5.8063 7.745 5.75377 7.73148 5.71403 7.69835C5.67356 7.66539 5.6503 7.6158 5.65083 7.56362V6.53647C5.65236 5.48233 6.50653 4.62815 7.56067 4.62662H8.77811C8.874 4.62662 8.95173 4.54889 8.95173 4.453V2.02229C8.95173 1.83052 9.1072 1.67505 9.29898 1.67505H11.3824C11.5742 1.67505 11.7297 1.83052 11.7297 2.02229V4.453C11.7297 4.54889 11.8074 4.62662 11.9033 4.62662H13.1187C14.173 4.62777 15.0274 5.48217 15.0285 6.53647V7.56431C15.029 7.61666 15.0057 7.66642 14.9652 7.69961C14.9247 7.73281 14.8714 7.74588 14.8202 7.73516L10.5998 6.93024C10.428 6.89691 10.2514 6.89691 10.0796 6.93024L5.85709 7.73516ZM10.8671 8.25324C10.8673 8.20141 10.8905 8.15232 10.9303 8.11921C10.9699 8.0856 11.0223 8.07134 11.0734 8.08032L16.9953 9.21233C17.0891 9.23028 17.1715 9.2861 17.2228 9.36666C17.2742 9.44722 17.2901 9.54539 17.2668 9.63805L16.0577 14.4613C16.0455 14.5101 16.0125 14.5512 15.9675 14.5738C15.9225 14.5966 15.8698 14.5989 15.823 14.58C15.6134 14.494 15.3891 14.4496 15.1625 14.4495C14.5518 14.4374 13.9828 14.7583 13.677 15.287C13.4491 15.6382 13.066 15.8579 12.6478 15.8773C12.3446 15.8652 12.0683 15.7002 11.9137 15.4391C11.7236 15.0422 11.3889 14.7329 10.9782 14.5745C10.9115 14.5485 10.8674 14.4843 10.8671 14.4127V8.25324ZM4.59521 14.3522C4.61753 14.4424 4.70705 14.4988 4.798 14.48C4.89945 14.459 5.00274 14.4481 5.10635 14.4474C5.70687 14.4464 6.26527 14.7558 6.58283 15.2655C6.82615 15.6071 7.20353 15.8289 7.6204 15.8753C8.13694 15.8235 8.61167 15.5684 8.93993 15.1662C9.13618 14.8981 9.40621 14.693 9.71706 14.5759C9.78409 14.5502 9.82831 14.4858 9.82818 14.4141V8.24838C9.82827 8.19664 9.80537 8.14753 9.76567 8.11435C9.72562 8.08182 9.67338 8.06838 9.62261 8.07754L3.68404 9.21025C3.59019 9.22819 3.50788 9.28402 3.4565 9.36458C3.40512 9.44513 3.3892 9.5433 3.41249 9.63597L4.59521 14.3522ZM18.0606 17.0202C18.207 17.1321 18.303 17.2976 18.3273 17.4802C18.377 17.8596 18.1106 18.2077 17.7315 18.2587C16.7888 18.3662 15.8477 18.045 15.1674 17.3837C15.1015 17.3249 15.002 17.3249 14.9361 17.3837C14.2929 17.9657 13.4562 18.2875 12.5888 18.2865C11.7593 18.2936 10.9616 17.9685 10.3734 17.3837C10.3105 17.3224 10.2119 17.3177 10.1435 17.3726C9.44926 17.952 8.57732 18.2758 7.67318 18.29C6.78646 18.2811 5.93547 17.9393 5.289 17.3323C5.22449 17.2749 5.12777 17.2731 5.06121 17.3281C4.39338 17.9264 3.53936 18.2755 2.64369 18.3164C2.51783 18.3165 2.39209 18.3083 2.26728 18.2921C1.88866 18.2404 1.62292 17.8926 1.6726 17.5137C1.72227 17.1348 2.06871 16.8672 2.44785 16.9149C3.60625 17.0642 4.65979 15.7857 4.67021 15.7725C4.81678 15.6052 5.03213 15.5146 5.25421 15.5268C5.47629 15.539 5.68043 15.6526 5.80778 15.835C6.22695 16.4647 6.91792 16.8606 7.67318 16.9038C8.49919 16.8482 9.26268 16.4443 9.77331 15.7926C9.92558 15.6076 10.1595 15.5098 10.3982 15.5315C10.6368 15.5532 10.8493 15.6915 10.9657 15.9009C11.2872 16.5022 11.9071 16.8842 12.5888 16.901C13.3436 16.8825 14.0398 16.4896 14.4458 15.853C14.5776 15.6541 14.7989 15.5329 15.0374 15.5289C15.276 15.5248 15.5012 15.6386 15.6397 15.8329C15.6452 15.8419 16.4223 17.035 17.5467 16.8836C17.7294 16.8592 17.9142 16.9083 18.0606 17.0202Z" />
</svg>