<!--character:1827-->
  <svg width="24" height="24" viewBox="0 0 24 24" >
<path d="M18.5227 20.9983C18.3759 20.9988 18.2341 20.9416 18.124 20.8376L11.9977 16.0733L5.87128 20.8376C5.78473 20.9201 5.67777 20.9739 5.5633 20.9926C5.44882 21.0114 5.33173 20.9942 5.22616 20.9432C5.12058 20.8923 5.03102 20.8097 4.9683 20.7054C4.90557 20.6011 4.87236 20.4796 4.87266 20.3555V5.57119C4.87335 4.8895 5.12643 4.23594 5.57637 3.75391C6.02631 3.27188 6.63635 3.00074 7.27266 3H16.7227C17.359 3.00074 17.969 3.27188 18.4189 3.75391C18.8689 4.23594 19.122 4.8895 19.1227 5.57119V20.3555C19.1227 20.526 19.0594 20.6895 18.9469 20.8101C18.8344 20.9306 18.6818 20.9983 18.5227 20.9983Z" />
</svg>