<!--character:7882-->
  <svg width="24" height="24" viewBox="0 0 24 24" >
<path d="M18.5221 20.9983C18.3753 20.9988 18.2335 20.9416 18.1234 20.8376L11.9971 16.0733L5.8707 20.8376C5.78415 20.9201 5.67718 20.9739 5.56271 20.9926C5.44824 21.0114 5.33115 20.9942 5.22557 20.9432C5.11999 20.8923 5.03044 20.8097 4.96771 20.7054C4.90499 20.6011 4.87177 20.4796 4.87207 20.3555V5.57119C4.87277 4.8895 5.12585 4.23594 5.57578 3.75391C6.02572 3.27188 6.63577 3.00074 7.27207 3H16.7221C17.3584 3.00074 17.9684 3.27188 18.4184 3.75391C18.8683 4.23594 19.1214 4.8895 19.1221 5.57119V20.3555C19.1221 20.526 19.0589 20.6895 18.9463 20.8101C18.8338 20.9306 18.6812 20.9983 18.5221 20.9983Z" />
</svg>