<!-- character:2057:999 -->
  <svg width="20" height="20" viewBox="0 0 20 20" >
<path d="M15.4351 17.4986C15.3128 17.499 15.1946 17.4513 15.1029 17.3647L9.99756 13.3944L4.89225 17.3647C4.82012 17.4334 4.73099 17.4782 4.63559 17.4939C4.5402 17.5095 4.44262 17.4952 4.35464 17.4527C4.26666 17.4102 4.19203 17.3414 4.13976 17.2545C4.08749 17.1676 4.05981 17.0663 4.06006 16.9629V4.64266C4.06064 4.07458 4.27154 3.52995 4.64649 3.12826C5.02143 2.72656 5.5298 2.50062 6.06006 2.5H13.9351C14.4653 2.50062 14.9737 2.72656 15.3486 3.12826C15.7236 3.52995 15.9345 4.07458 15.9351 4.64266V16.9629C15.9351 17.105 15.8824 17.2413 15.7886 17.3417C15.6948 17.4422 15.5677 17.4986 15.4351 17.4986Z" />
</svg>