<!--character:2549-->
  <svg width="20" height="20" viewBox="0 0 20 20" >
<path d="M15.4355 17.4986C15.3133 17.499 15.1951 17.4513 15.1034 17.3647L9.99805 13.3944L4.89274 17.3647C4.82061 17.4334 4.73147 17.4782 4.63608 17.4939C4.54069 17.5095 4.44311 17.4952 4.35513 17.4527C4.26715 17.4102 4.19252 17.3414 4.14025 17.2545C4.08798 17.1676 4.0603 17.0663 4.06055 16.9629V4.64266C4.06113 4.07458 4.27203 3.52995 4.64697 3.12826C5.02192 2.72656 5.53029 2.50062 6.06055 2.5H13.9355C14.4658 2.50062 14.9742 2.72656 15.3491 3.12826C15.7241 3.52995 15.935 4.07458 15.9355 4.64266V16.9629C15.9355 17.105 15.8829 17.2413 15.7891 17.3417C15.6953 17.4422 15.5682 17.4986 15.4355 17.4986Z" />
</svg>