<!--character:239:550:2474-->
  <svg width="24" height="24" viewBox="0 0 24 24" >
<path   d="M17.8492 8.70315C17.9303 8.7026 18.0038 8.65514 18.0378 8.58141C18.0717 8.50768 18.0599 8.42098 18.0075 8.35898C17.4943 7.75963 16.895 7.23979 16.2292 6.81648C16.1792 6.78429 16.1453 6.73238 16.136 6.67371C16.1266 6.61504 16.1426 6.55514 16.18 6.50898C16.74 5.82001 17.1098 4.77273 17.2992 4.13482C17.4885 3.49691 17.4885 2.72833 16.7394 2.66502C16.0277 2.60488 15.8528 3.20849 15.6627 3.86416L15.6325 3.96815C15.4292 4.66236 15.0583 5.37038 14.4958 5.87815C14.4416 5.92645 14.3662 5.94316 14.2967 5.92232C12.8006 5.46674 11.2028 5.46674 9.70667 5.92232C9.63685 5.94331 9.56115 5.92659 9.50667 5.87815C8.94387 5.36901 8.54724 4.70235 8.36833 3.96482C8.12556 3.13259 7.90886 2.60171 7.27577 2.66502C6.64268 2.72833 6.52012 3.37119 6.70167 4.13148C6.88322 4.89178 7.26143 5.81725 7.82167 6.50648C7.85926 6.55265 7.87531 6.6127 7.86575 6.67147C7.85619 6.73023 7.82195 6.78211 7.77167 6.81398C7.10538 7.23672 6.50575 7.75631 5.9925 8.35565C5.94011 8.41764 5.92832 8.50434 5.96224 8.57808C5.99616 8.65181 6.06967 8.69926 6.15083 8.69982L17.8492 8.70315ZM11.375 10.3698C11.375 10.1397 11.1885 9.95315 10.9583 9.95315H6.17833C6.12093 9.95259 6.06423 9.9404 6.01167 9.91732L3.58333 8.83399C3.16268 8.64713 2.67019 8.83666 2.48333 9.25732C2.29648 9.67798 2.48601 10.1705 2.90667 10.3573L4.13667 10.9048C4.32519 10.9886 4.42406 11.1976 4.36917 11.3965C4.28573 11.695 4.22061 11.9984 4.17417 12.3048C4.14264 12.5099 3.965 12.6606 3.7575 12.6582H2.83333C2.3731 12.6582 2 13.0312 2 13.4915C2 13.9517 2.3731 14.3248 2.83333 14.3248H3.7625C3.96779 14.3253 4.14213 14.4752 4.17333 14.6782C4.23602 15.0761 4.32907 15.4686 4.45167 15.8523C4.51379 16.0492 4.42232 16.2619 4.23667 16.3523L3.02167 16.9448C2.67162 17.1143 2.4854 17.5035 2.57296 17.8824C2.66052 18.2614 2.99857 18.5294 3.3875 18.5282C3.51396 18.5289 3.63888 18.5003 3.7525 18.4448L4.97 17.8507C5.15495 17.7606 5.37793 17.819 5.495 17.9882C6.7511 19.8077 8.71086 21.019 10.9 21.329C11.0202 21.346 11.1419 21.3097 11.2331 21.2297C11.3244 21.1496 11.3762 21.0337 11.375 20.9123V10.3698ZM12.7669 21.2305C12.6756 21.1504 12.6238 21.0346 12.625 20.9132V10.3698C12.625 10.1397 12.8115 9.95316 13.0417 9.95316H17.8242C17.8816 9.95259 17.9383 9.9404 17.9908 9.91732L20.4167 8.83399C20.8342 8.66437 21.3108 8.85736 21.4928 9.26964C21.6747 9.68192 21.4959 10.1641 21.0892 10.3582L19.8592 10.9057C19.6706 10.9894 19.5718 11.1985 19.6267 11.3973C19.7101 11.6958 19.7752 11.9992 19.8217 12.3057C19.8532 12.5108 20.0308 12.6614 20.2383 12.659H21.1667C21.6269 12.659 22 13.0321 22 13.4923C22 13.9526 21.6269 14.3257 21.1667 14.3257H20.2383C20.033 14.3257 19.8583 14.4753 19.8267 14.6782C19.7641 15.0764 19.671 15.4692 19.5483 15.8532C19.4862 16.0501 19.5777 16.2628 19.7633 16.3532L20.9783 16.9457C21.3284 17.1152 21.5146 17.5043 21.427 17.8833C21.3395 18.2622 21.0014 18.5302 20.6125 18.529C20.486 18.5297 20.3611 18.5012 20.2475 18.4457L19.03 17.8515C18.8451 17.7614 18.6221 17.8198 18.505 17.989C17.2489 19.8085 15.2891 21.0198 13.1 21.3298C12.9798 21.3468 12.8581 21.3106 12.7669 21.2305Z" />
</svg>