<!-- character:0:688 -->
  <svg width="20" height="20" viewBox="0 0 20 20" >
<path   d="M14.8743 7.25258C14.9419 7.25212 15.0032 7.21258 15.0315 7.15113C15.0597 7.08969 15.0499 7.01744 15.0062 6.96578C14.5786 6.46631 14.0792 6.03312 13.5243 5.68036C13.4827 5.65353 13.4544 5.61027 13.4466 5.56138C13.4388 5.51249 13.4521 5.46258 13.4833 5.42411C13.95 4.84997 14.2582 3.97723 14.416 3.44564C14.5738 2.91405 14.5738 2.27356 13.9495 2.22081C13.3564 2.17069 13.2106 2.6737 13.0523 3.22009L13.0271 3.30675C12.8577 3.88526 12.5486 4.47527 12.0799 4.89842C12.0347 4.93866 11.9718 4.9526 11.9139 4.93522C10.6671 4.55558 9.33562 4.55558 8.08888 4.93522C8.0307 4.95272 7.96761 4.93878 7.92221 4.89842C7.45321 4.47414 7.12269 3.91859 6.9736 3.30397C6.77129 2.61045 6.59071 2.16805 6.06313 2.22081C5.53555 2.27356 5.43342 2.80928 5.58471 3.44286C5.736 4.07644 6.05118 4.84766 6.51805 5.42203C6.54937 5.4605 6.56274 5.51054 6.55478 5.55951C6.54682 5.60849 6.51828 5.65171 6.47638 5.67828C5.92114 6.03056 5.42145 6.46355 4.99374 6.963C4.95009 7.01466 4.94026 7.08691 4.96852 7.14836C4.99679 7.2098 5.05805 7.24934 5.12568 7.24981L14.8743 7.25258ZM9.47916 8.64147C9.47916 8.44971 9.3237 8.29425 9.13193 8.29425H5.1486C5.10076 8.29378 5.05352 8.28362 5.00971 8.26439L2.9861 7.36161C2.63555 7.2059 2.22515 7.36384 2.06943 7.71439C1.91372 8.06494 2.07166 8.47534 2.42221 8.63106L3.44721 9.08731C3.60431 9.15709 3.68671 9.33132 3.64096 9.49703C3.57143 9.7458 3.51716 9.99859 3.47846 10.254C3.45219 10.4249 3.30415 10.5504 3.13124 10.5484H2.3611C1.97757 10.5484 1.66666 10.8593 1.66666 11.2429C1.66666 11.6264 1.97757 11.9373 2.3611 11.9373H3.13541C3.30648 11.9377 3.45176 12.0627 3.47777 12.2318C3.53001 12.5633 3.60755 12.8905 3.70971 13.2102C3.76148 13.3743 3.68526 13.5516 3.53055 13.6269L2.51805 14.1206C2.22634 14.2619 2.07116 14.5862 2.14412 14.902C2.21709 15.2178 2.4988 15.4411 2.82291 15.4401C2.92829 15.4407 3.03239 15.4169 3.12707 15.3706L4.14166 14.8755C4.29578 14.8005 4.4816 14.8491 4.57916 14.9901C5.62591 16.5063 7.25904 17.5158 9.08332 17.7741C9.1835 17.7883 9.28487 17.7581 9.36092 17.6913C9.43698 17.6246 9.48015 17.5281 9.47916 17.4269V8.64147ZM10.6391 17.692C10.563 17.6253 10.5198 17.5287 10.5208 17.4276V8.64148C10.5208 8.44971 10.6763 8.29425 10.868 8.29425H14.8535C14.9013 8.29378 14.9485 8.28362 14.9924 8.26439L17.0139 7.36161C17.3618 7.22027 17.759 7.38109 17.9106 7.72466C18.0622 8.06822 17.9132 8.47005 17.5743 8.63175L16.5493 9.088C16.3922 9.15779 16.3098 9.33202 16.3555 9.49773C16.4251 9.7465 16.4793 9.99928 16.518 10.2547C16.5443 10.4256 16.6924 10.5511 16.8653 10.5491H17.6389C18.0224 10.5491 18.3333 10.86 18.3333 11.2436C18.3333 11.6271 18.0224 11.938 17.6389 11.938H16.8653C16.6942 11.938 16.5486 12.0627 16.5222 12.2318C16.47 12.5636 16.3925 12.8909 16.2903 13.2109C16.2385 13.375 16.3147 13.5523 16.4694 13.6276L17.4819 14.1213C17.7736 14.2626 17.9288 14.5869 17.8559 14.9027C17.7829 15.2185 17.5012 15.4418 17.1771 15.4408C17.0717 15.4414 16.9676 15.4176 16.8729 15.3713L15.8583 14.8762C15.7042 14.8012 15.5184 14.8498 15.4208 14.9908C14.3741 16.507 12.7409 17.5165 10.9167 17.7748C10.8165 17.789 10.7151 17.7587 10.6391 17.692Z" />
</svg>