<!--character:4114-->
  <svg width="20" height="20" viewBox="0 0 20 20" >
<path d="M14.8744 7.2527C14.942 7.25224 15.0033 7.21269 15.0315 7.15125C15.0598 7.0898 15.05 7.01755 15.0063 6.96589C14.5787 6.46643 14.0793 6.03323 13.5244 5.68048C13.4828 5.65365 13.4545 5.61039 13.4467 5.5615C13.4389 5.5126 13.4522 5.46269 13.4834 5.42423C13.9501 4.85008 14.2582 3.97734 14.4161 3.44576C14.5739 2.91417 14.5739 2.27368 13.9495 2.22092C13.3565 2.1708 13.2107 2.67382 13.0524 3.2202L13.0272 3.30687C12.8577 3.88537 12.5487 4.47539 12.0799 4.89853C12.0348 4.93878 11.9719 4.95271 11.914 4.93534C10.6672 4.55569 9.33571 4.55569 8.08897 4.93534C8.03079 4.95283 7.9677 4.9389 7.9223 4.89853C7.45331 4.47425 7.12278 3.9187 6.97369 3.30409C6.77138 2.61057 6.5908 2.16816 6.06322 2.22092C5.53565 2.27368 5.43351 2.8094 5.5848 3.44298C5.73609 4.07656 6.05128 4.84778 6.51814 5.42214C6.54947 5.46062 6.56284 5.51066 6.55487 5.55963C6.54691 5.6086 6.51837 5.65183 6.47647 5.67839C5.92123 6.03067 5.42154 6.46366 4.99383 6.96312C4.95018 7.01478 4.94035 7.08703 4.96862 7.14847C4.99688 7.20991 5.05814 7.24946 5.12578 7.24992L14.8744 7.2527Z" />
<path d="M9.47925 8.64159C9.47925 8.44982 9.32379 8.29437 9.13202 8.29437H5.14869C5.10085 8.29389 5.05361 8.28374 5.0098 8.2645L2.98619 7.36173C2.63565 7.20601 2.22524 7.36396 2.06953 7.7145C1.91381 8.06505 2.07176 8.47546 2.4223 8.63117L3.4473 9.08742C3.60441 9.15721 3.6868 9.33144 3.64105 9.49714C3.57152 9.74591 3.51726 9.9987 3.47855 10.2541C3.45228 10.425 3.30424 10.5505 3.13133 10.5485H2.36119C1.97766 10.5485 1.66675 10.8594 1.66675 11.243C1.66675 11.6265 1.97766 11.9374 2.36119 11.9374H3.1355C3.30657 11.9378 3.45186 12.0628 3.47786 12.2319C3.5301 12.5635 3.60764 12.8906 3.7098 13.2103C3.76157 13.3744 3.68535 13.5517 3.53064 13.627L2.51814 14.1208C2.22643 14.262 2.07125 14.5863 2.14421 14.9021C2.21718 15.2179 2.49889 15.4412 2.823 15.4402C2.92838 15.4408 3.03248 15.417 3.12716 15.3708L4.14175 14.8756C4.29587 14.8006 4.48169 14.8492 4.57925 14.9902C5.626 16.5065 7.25913 17.5159 9.08341 17.7742C9.18359 17.7884 9.28496 17.7582 9.36101 17.6915C9.43707 17.6247 9.48024 17.5282 9.47925 17.427V8.64159Z" />
<path d="M10.6391 17.6921C10.5631 17.6254 10.5199 17.5289 10.5209 17.4277V8.64159C10.5209 8.44982 10.6764 8.29437 10.8681 8.29437H14.8536C14.9014 8.2939 14.9486 8.28374 14.9924 8.26451L17.014 7.36173C17.3619 7.22038 17.7591 7.38121 17.9107 7.72477C18.0623 8.06834 17.9133 8.47017 17.5744 8.63187L16.5494 9.08812C16.3923 9.1579 16.3099 9.33213 16.3556 9.49784C16.4252 9.74661 16.4794 9.9994 16.5181 10.2548C16.5444 10.4257 16.6924 10.5512 16.8654 10.5492H17.639C18.0225 10.5492 18.3334 10.8601 18.3334 11.2437C18.3334 11.6272 18.0225 11.9381 17.639 11.9381H16.8654C16.6942 11.9381 16.5487 12.0628 16.5223 12.2319C16.4701 12.5637 16.3926 12.8911 16.2904 13.211C16.2386 13.3751 16.3148 13.5524 16.4695 13.6277L17.482 14.1214C17.7737 14.2627 17.9289 14.587 17.856 14.9028C17.783 15.2186 17.5013 15.4419 17.1772 15.4409C17.0718 15.4415 16.9677 15.4177 16.873 15.3714L15.8584 14.8763C15.7043 14.8013 15.5185 14.8499 15.4209 14.9909C14.3742 16.5072 12.741 17.5166 10.9167 17.7749C10.8166 17.7891 10.7152 17.7589 10.6391 17.6921Z" />
</svg>