<!--character:7656-->
  <svg width="24" height="24" viewBox="0 0 24 24" >
<path d="M17.8493 8.70324C17.9304 8.70268 18.0039 8.65523 18.0379 8.5815C18.0718 8.50776 18.06 8.42106 18.0076 8.35907C17.4944 7.75971 16.8951 7.23988 16.2293 6.81657C16.1793 6.78438 16.1454 6.73247 16.1361 6.6738C16.1267 6.61512 16.1427 6.55523 16.1801 6.50907C16.7401 5.8201 17.1099 4.77281 17.2993 4.13491C17.4886 3.497 17.4886 2.72841 16.7395 2.6651C16.0278 2.60496 15.8528 3.20858 15.6628 3.86425L15.6326 3.96824C15.4293 4.66244 15.0584 5.37046 14.4959 5.87824C14.4417 5.92653 14.3663 5.94325 14.2968 5.92241C12.8007 5.46683 11.2029 5.46683 9.70676 5.92241C9.63695 5.9434 9.56125 5.92668 9.50676 5.87824C8.94397 5.3691 8.54734 4.70244 8.36843 3.96491C8.12565 3.13268 7.90896 2.6018 7.27587 2.6651C6.64277 2.72841 6.52021 3.37128 6.70176 4.13157C6.88331 4.89187 7.26153 5.81734 7.82176 6.50657C7.85936 6.55274 7.8754 6.61279 7.86585 6.67156C7.85629 6.73032 7.82205 6.78219 7.77176 6.81407C7.10548 7.23681 6.50585 7.75639 5.9926 8.35574C5.94021 8.41773 5.92842 8.50443 5.96234 8.57816C5.99626 8.6519 6.06977 8.69935 6.15093 8.69991L17.8493 8.70324Z" />
<path d="M11.3751 10.3699C11.3751 10.1398 11.1885 9.95324 10.9584 9.95324H6.17843C6.12102 9.95267 6.06433 9.94048 6.01176 9.91741L3.58343 8.83407C3.16277 8.64722 2.67029 8.83675 2.48343 9.25741C2.29657 9.67806 2.48611 10.1705 2.90676 10.3574L4.13676 10.9049C4.32529 10.9886 4.42416 11.1977 4.36926 11.3966C4.28583 11.6951 4.22071 11.9984 4.17426 12.3049C4.14274 12.51 3.96509 12.6606 3.7576 12.6582H2.83343C2.37319 12.6582 2.0001 13.0313 2.0001 13.4916C2.0001 13.9518 2.37319 14.3249 2.83343 14.3249H3.7626C3.96789 14.3254 4.14223 14.4753 4.17343 14.6782C4.23612 15.0762 4.32917 15.4687 4.45176 15.8524C4.51389 16.0493 4.42242 16.262 4.23676 16.3524L3.02176 16.9449C2.67172 17.1144 2.4855 17.5036 2.57306 17.8825C2.66061 18.2615 2.99866 18.5295 3.3876 18.5282C3.51406 18.529 3.63897 18.5004 3.7526 18.4449L4.9701 17.8507C5.15505 17.7607 5.37803 17.8191 5.4951 17.9882C6.7512 19.8078 8.71096 21.0191 10.9001 21.3291C11.0203 21.3461 11.1419 21.3098 11.2332 21.2297C11.3245 21.1497 11.3763 21.0338 11.3751 20.9124V10.3699Z" />
<path d="M12.767 21.2306C12.6757 21.1505 12.6239 21.0346 12.6251 20.9132V10.3699C12.6251 10.1398 12.8116 9.95324 13.0418 9.95324H17.8243C17.8817 9.95268 17.9384 9.94049 17.9909 9.91741L20.4168 8.83407C20.8342 8.66446 21.3109 8.85745 21.4928 9.26972C21.6748 9.682 21.496 10.1642 21.0893 10.3582L19.8593 10.9057C19.6707 10.9895 19.5719 11.1986 19.6268 11.3974C19.7102 11.6959 19.7753 11.9993 19.8218 12.3057C19.8533 12.5108 20.0309 12.6615 20.2384 12.6591H21.1668C21.627 12.6591 22.0001 13.0322 22.0001 13.4924C22.0001 13.9526 21.627 14.3257 21.1668 14.3257H20.2384C20.0331 14.3258 19.8584 14.4754 19.8268 14.6782C19.7642 15.0764 19.6711 15.4693 19.5484 15.8532C19.4863 16.0502 19.5778 16.2629 19.7634 16.3532L20.9784 16.9457C21.3285 17.1153 21.5147 17.5044 21.4271 17.8833C21.3396 18.2623 21.0015 18.5303 20.6126 18.5291C20.4861 18.5298 20.3612 18.5013 20.2476 18.4457L19.0301 17.8516C18.8451 17.7615 18.6222 17.8199 18.5051 17.9891C17.249 19.8086 15.2892 21.0199 13.1001 21.3299C12.9799 21.3469 12.8582 21.3106 12.767 21.2306Z" />
</svg>