<!--category:transportation-->
<!--character:003c-->
<svg width="24" height="24" viewBox="0 0 24 24" xmlns="http://www.w3.org/2000/svg"><path d="M18.25 13.426c0 .115-.094.208-.208.208H5.958a.2078.2078 0 0 1-.208-.208V5.3c0-.46.373-.833.833-.833h10.834c.459 0 .833.373.833.833v8.126zm-2.5 3.333a.6246.6246 0 0 1-.625-.625c0-.345.28-.625.625-.625h1.667c.345 0 .625.28.625.625 0 .346-.28.625-.625.625H15.75zm-9.167 0a.6246.6246 0 0 1-.625-.625c0-.345.28-.625.625-.625H8.25c.345 0 .625.28.625.625 0 .346-.28.625-.625.625H6.583zM20.125 6.344a.2056.2056 0 0 1-.148-.062.2037.2037 0 0 1-.06-.149V5.3c0-1.381-1.12-2.5-2.5-2.5H6.583c-1.381 0-2.5 1.119-2.5 2.5v.833c0 .115-.093.209-.208.209h-.417C2.653 6.343 2 6.995 2 7.8v2.5c0 .805.653 1.457 1.458 1.458h.417c.115 0 .208.094.208.209v5.416c0 1.293-.019 2.357 1.24 2.487H5.2c.044 0 .087.012.119.04.033.027.049.061.049.099v1.396c0 .308.304.559.676.559h1.35c.372 0 .676-.251.676-.559v-1.41c0-.048.037-.09.088-.112h7.717c.016.007.031.016.044.027.033.027.049.061.049.099v1.396c0 .308.303.559.677.559h1.349c.372 0 .676-.251.676-.559v-1.41c0-.061.059-.11.13-.125h-.124c1.259-.13 1.241-1.194 1.241-2.487v-5.416c0-.115.093-.209.208-.209h.417c.805-.001 1.457-.653 1.458-1.458V7.8c-.002-.804-.654-1.455-1.458-1.456h-.417z"/></svg>