<!--character:3592-->
  <svg width="20" height="20" viewBox="0 0 20 20" >
<path d="M15.2082 11.1883C15.2082 11.2842 15.1298 11.3617 15.0348 11.3617H4.96484C4.869 11.3617 4.7915 11.2842 4.7915 11.1883V4.41667C4.7915 4.03334 5.10234 3.7225 5.48567 3.7225H14.514C14.8965 3.7225 15.2082 4.03334 15.2082 4.41667V11.1883ZM13.1248 13.9658C12.8373 13.9658 12.604 13.7333 12.604 13.445C12.604 13.1575 12.8373 12.9242 13.1248 12.9242H14.514C14.8015 12.9242 15.0348 13.1575 15.0348 13.445C15.0348 13.7333 14.8015 13.9658 14.514 13.9658H13.1248ZM5.48567 13.9658C5.19817 13.9658 4.96484 13.7333 4.96484 13.445C4.96484 13.1575 5.19817 12.9242 5.48567 12.9242H6.87484C7.16234 12.9242 7.39567 13.1575 7.39567 13.445C7.39567 13.7333 7.16234 13.9658 6.87484 13.9658H5.48567ZM16.7707 5.28667C16.724 5.28667 16.6798 5.26834 16.6473 5.235C16.614 5.20167 16.5965 5.1575 16.5973 5.11084V4.41667C16.5973 3.26584 15.664 2.33334 14.514 2.33334H5.48567C4.33484 2.33334 3.40234 3.26584 3.40234 4.41667V5.11084C3.40234 5.20667 3.32484 5.285 3.229 5.285H2.8815C2.21067 5.28584 1.6665 5.82917 1.6665 6.5V8.58334C1.6665 9.25417 2.21067 9.7975 2.8815 9.79834H3.229C3.32484 9.79834 3.40234 9.87667 3.40234 9.9725V14.4858C3.40234 15.5633 3.3865 16.45 4.43567 16.5583H4.33317C4.36984 16.5583 4.40567 16.5683 4.43234 16.5917C4.45984 16.6142 4.47317 16.6425 4.47317 16.6742V17.8375C4.47317 18.0942 4.7265 18.3033 5.0365 18.3033H6.1615C6.4715 18.3033 6.72484 18.0942 6.72484 17.8375V16.6625C6.72484 16.6225 6.75567 16.5875 6.79817 16.5692H13.229C13.2423 16.575 13.2548 16.5825 13.2657 16.5917C13.2932 16.6142 13.3065 16.6425 13.3065 16.6742V17.8375C13.3065 18.0942 13.559 18.3033 13.8707 18.3033H14.9948C15.3048 18.3033 15.5582 18.0942 15.5582 17.8375V16.6625C15.5582 16.6117 15.6073 16.5708 15.6665 16.5583H15.5632C16.6123 16.45 16.5973 15.5633 16.5973 14.4858V9.9725C16.5973 9.87667 16.6748 9.79834 16.7707 9.79834H17.1182C17.789 9.7975 18.3323 9.25417 18.3332 8.58334V6.5C18.3315 5.83 17.7882 5.2875 17.1182 5.28667H16.7707Z" />
</svg>