<!--character:249:550:2586-->
  <svg width="24" height="24" viewBox="0 0 24 24" >
<path   d="M18.25 13.426C18.25 13.541 18.156 13.634 18.042 13.634H5.958C5.843 13.634 5.75 13.541 5.75 13.426V5.30005C5.75 4.84005 6.123 4.46705 6.583 4.46705H17.417C17.876 4.46705 18.25 4.84005 18.25 5.30005V13.426ZM15.75 16.759C15.405 16.759 15.125 16.48 15.125 16.134C15.125 15.789 15.405 15.509 15.75 15.509H17.417C17.762 15.509 18.042 15.789 18.042 16.134C18.042 16.48 17.762 16.759 17.417 16.759H15.75ZM6.583 16.759C6.238 16.759 5.958 16.48 5.958 16.134C5.958 15.789 6.238 15.509 6.583 15.509H8.25C8.595 15.509 8.875 15.789 8.875 16.134C8.875 16.48 8.595 16.759 8.25 16.759H6.583ZM20.125 6.34405C20.069 6.34405 20.016 6.32205 19.977 6.28205C19.937 6.24205 19.916 6.18905 19.917 6.13305V5.30005C19.917 3.91905 18.797 2.80005 17.417 2.80005H6.583C5.202 2.80005 4.083 3.91905 4.083 5.30005V6.13305C4.083 6.24805 3.99 6.34205 3.875 6.34205H3.458C2.653 6.34305 2 6.99505 2 7.80005V10.3C2 11.105 2.653 11.757 3.458 11.758H3.875C3.99 11.758 4.083 11.852 4.083 11.967V17.383C4.083 18.676 4.064 19.74 5.323 19.87H5.2C5.244 19.87 5.287 19.882 5.319 19.91C5.352 19.937 5.368 19.971 5.368 20.009V21.405C5.368 21.713 5.672 21.964 6.044 21.964H7.394C7.766 21.964 8.07 21.713 8.07 21.405V19.995C8.07 19.947 8.107 19.905 8.158 19.883H15.875C15.891 19.89 15.906 19.899 15.919 19.91C15.952 19.937 15.968 19.971 15.968 20.009V21.405C15.968 21.713 16.271 21.964 16.645 21.964H17.994C18.366 21.964 18.67 21.713 18.67 21.405V19.995C18.67 19.934 18.729 19.885 18.8 19.87H18.676C19.935 19.74 19.917 18.676 19.917 17.383V11.967C19.917 11.852 20.01 11.758 20.125 11.758H20.542C21.347 11.757 21.999 11.105 22 10.3V7.80005C21.998 6.99605 21.346 6.34505 20.542 6.34405H20.125Z" />
</svg>