<!--character:2131-->
  <svg width="24" height="24" viewBox="0 0 24 24" >
<path d="M18.2498 13.426C18.2498 13.541 18.1558 13.634 18.0418 13.634H5.9578C5.8428 13.634 5.7498 13.541 5.7498 13.426V5.3C5.7498 4.84 6.1228 4.467 6.5828 4.467H17.4168C17.8758 4.467 18.2498 4.84 18.2498 5.3V13.426ZM15.7498 16.759C15.4048 16.759 15.1248 16.48 15.1248 16.134C15.1248 15.789 15.4048 15.509 15.7498 15.509H17.4168C17.7618 15.509 18.0418 15.789 18.0418 16.134C18.0418 16.48 17.7618 16.759 17.4168 16.759H15.7498ZM6.5828 16.759C6.2378 16.759 5.9578 16.48 5.9578 16.134C5.9578 15.789 6.2378 15.509 6.5828 15.509H8.2498C8.5948 15.509 8.8748 15.789 8.8748 16.134C8.8748 16.48 8.5948 16.759 8.2498 16.759H6.5828ZM20.1248 6.344C20.0688 6.344 20.0158 6.322 19.9768 6.282C19.9368 6.242 19.9158 6.189 19.9168 6.133V5.3C19.9168 3.919 18.7968 2.8 17.4168 2.8H6.5828C5.2018 2.8 4.0828 3.919 4.0828 5.3V6.133C4.0828 6.248 3.9898 6.342 3.8748 6.342H3.4578C2.6528 6.343 1.9998 6.995 1.9998 7.8V10.3C1.9998 11.105 2.6528 11.757 3.4578 11.758H3.8748C3.9898 11.758 4.0828 11.852 4.0828 11.967V17.383C4.0828 18.676 4.0638 19.74 5.3228 19.87H5.1998C5.24381 19.87 5.2868 19.882 5.3188 19.91C5.3518 19.937 5.3678 19.971 5.3678 20.009V21.405C5.3678 21.713 5.6718 21.964 6.04381 21.964H7.39381C7.76581 21.964 8.06981 21.713 8.06981 21.405V19.995C8.06981 19.947 8.10681 19.905 8.15781 19.883H15.8748C15.8908 19.89 15.9058 19.899 15.9188 19.91C15.9518 19.937 15.9678 19.971 15.9678 20.009V21.405C15.9678 21.713 16.2708 21.964 16.6448 21.964H17.9938C18.3658 21.964 18.6698 21.713 18.6698 21.405V19.995C18.6698 19.934 18.7288 19.885 18.7998 19.87H18.6758C19.9348 19.74 19.9168 18.676 19.9168 17.383V11.967C19.9168 11.852 20.0098 11.758 20.1248 11.758H20.5418C21.3468 11.757 21.9988 11.105 21.9998 10.3V7.8C21.9978 6.996 21.3458 6.345 20.5418 6.344H20.1248Z" />
</svg>