<!-- character:0:1139 -->
  <svg width="20" height="20" viewBox="0 0 20 20" >
<path   d="M15.2084 11.1884C15.2084 11.2842 15.13 11.3617 15.035 11.3617H4.96502C4.86919 11.3617 4.79169 11.2842 4.79169 11.1884V4.41671C4.79169 4.03337 5.10252 3.72254 5.48585 3.72254H14.5142C14.8967 3.72254 15.2084 4.03337 15.2084 4.41671V11.1884ZM13.125 13.9659C12.8375 13.9659 12.6042 13.7334 12.6042 13.445C12.6042 13.1575 12.8375 12.9242 13.125 12.9242H14.5142C14.8017 12.9242 15.035 13.1575 15.035 13.445C15.035 13.7334 14.8017 13.9659 14.5142 13.9659H13.125ZM5.48585 13.9659C5.19835 13.9659 4.96502 13.7334 4.96502 13.445C4.96502 13.1575 5.19835 12.9242 5.48585 12.9242H6.87502C7.16252 12.9242 7.39585 13.1575 7.39585 13.445C7.39585 13.7334 7.16252 13.9659 6.87502 13.9659H5.48585ZM16.7709 5.28671C16.7242 5.28671 16.68 5.26837 16.6475 5.23504C16.6142 5.20171 16.5967 5.15754 16.5975 5.11087V4.41671C16.5975 3.26587 15.6642 2.33337 14.5142 2.33337H5.48585C4.33502 2.33337 3.40252 3.26587 3.40252 4.41671V5.11087C3.40252 5.20671 3.32502 5.28504 3.22919 5.28504H2.88169C2.21085 5.28587 1.66669 5.82921 1.66669 6.50004V8.58337C1.66669 9.25421 2.21085 9.79754 2.88169 9.79837H3.22919C3.32502 9.79837 3.40252 9.87671 3.40252 9.97254V14.4859C3.40252 15.5634 3.38669 16.45 4.43585 16.5584H4.33335C4.37002 16.5584 4.40585 16.5684 4.43252 16.5917C4.46002 16.6142 4.47335 16.6425 4.47335 16.6742V17.8375C4.47335 18.0942 4.72669 18.3034 5.03669 18.3034H6.16169C6.47169 18.3034 6.72502 18.0942 6.72502 17.8375V16.6625C6.72502 16.6225 6.75585 16.5875 6.79835 16.5692H13.2292C13.2425 16.575 13.255 16.5825 13.2659 16.5917C13.2934 16.6142 13.3067 16.6425 13.3067 16.6742V17.8375C13.3067 18.0942 13.5592 18.3034 13.8709 18.3034H14.995C15.305 18.3034 15.5584 18.0942 15.5584 17.8375V16.6625C15.5584 16.6117 15.6075 16.5709 15.6667 16.5584H15.5634C16.6125 16.45 16.5975 15.5634 16.5975 14.4859V9.97254C16.5975 9.87671 16.675 9.79837 16.7709 9.79837H17.1184C17.7892 9.79754 18.3325 9.25421 18.3334 8.58337V6.50004C18.3317 5.83004 17.7884 5.28754 17.1184 5.28671H16.7709Z" />
</svg>