<!--character:6585-->
  <svg width="24" height="24" viewBox="0 0 24 24" >
<path d="M6.58009 6.5833C7.61722 6.58008 8.45601 5.73793 8.45509 4.70079C8.30439 3.84852 7.93965 3.0485 7.39509 2.37579C7.19148 2.13732 6.89365 2 6.58009 2C6.26652 2 5.96869 2.13732 5.76508 2.37579C5.22024 3.04832 4.85547 3.84842 4.70508 4.70079C4.70416 5.73793 5.54296 6.58008 6.58009 6.5833Z" />
<path d="M17.4134 6.5833C18.4506 6.58008 19.2894 5.73793 19.2884 4.70079C19.1377 3.84852 18.773 3.0485 18.2284 2.37579C18.0248 2.13732 17.727 2 17.4134 2C17.0999 2 16.802 2.13732 16.5984 2.37579C16.0536 3.04832 15.6888 3.84842 15.5384 4.70079C15.5375 5.73793 16.3763 6.58008 17.4134 6.5833Z" />
<path d="M13.8718 4.70079C13.8727 5.73793 13.0339 6.58008 11.9968 6.5833C10.9596 6.58008 10.1208 5.73793 10.1218 4.70079C10.2721 3.84842 10.6369 3.04832 11.1818 2.37579C11.3854 2.13732 11.6832 2 11.9968 2C12.3103 2 12.6082 2.13732 12.8118 2.37579C13.3563 3.0485 13.7211 3.84852 13.8718 4.70079Z" />
<path d="M19.0801 11.1666C18.85 11.1666 18.6634 10.9801 18.6634 10.75V8.24997C18.6634 7.78973 18.2903 7.41663 17.8301 7.41663H16.9968C16.5365 7.41663 16.1634 7.78973 16.1634 8.24997V10.75C16.1634 10.9801 15.9769 11.1666 15.7468 11.1666H13.6634C13.4333 11.1666 13.2468 10.9801 13.2468 10.75V8.24997C13.2468 7.78973 12.8737 7.41663 12.4134 7.41663H11.5801C11.1199 7.41663 10.7468 7.78973 10.7468 8.24997V10.75C10.7468 10.9801 10.5602 11.1666 10.3301 11.1666H8.24676C8.01664 11.1666 7.83009 10.9801 7.83009 10.75V8.24997C7.83009 7.78973 7.45699 7.41663 6.99675 7.41663H6.16342C5.70318 7.41663 5.33008 7.78973 5.33008 8.24997V10.75C5.33008 10.9801 5.14354 11.1666 4.91342 11.1666C3.76282 11.1666 2.83008 12.0994 2.83008 13.25V13.5491C2.83022 14.3844 3.46317 15.0836 4.29425 15.1666C4.98752 15.2391 5.66437 14.9239 6.05508 14.3466C6.25866 14.0391 6.60292 13.8541 6.97175 13.8541C7.3653 13.8494 7.73473 14.0433 7.95426 14.37C8.30518 14.8749 8.88107 15.1759 9.49593 15.1759C10.1108 15.1759 10.6867 14.8749 11.0376 14.37C11.2637 14.0682 11.6188 13.8905 11.9959 13.8905C12.373 13.8905 12.7281 14.0682 12.9543 14.37C13.3052 14.8749 13.8811 15.1759 14.4959 15.1759C15.1108 15.1759 15.6867 14.8749 16.0376 14.37C16.2553 14.0413 16.6259 13.8467 17.0201 13.8541C17.3889 13.8541 17.7332 14.0391 17.9368 14.3466C18.3275 14.9239 19.0043 15.2391 19.6976 15.1666C20.5293 15.0844 21.1632 14.3849 21.1635 13.5491V13.25C21.1635 12.0994 20.2307 11.1666 19.0801 11.1666Z" />
<path d="M19.8251 16.4108C20.0889 16.3843 20.3477 16.3215 20.5943 16.2242C20.7225 16.1737 20.8674 16.1899 20.9813 16.2675C21.0952 16.345 21.1634 16.4739 21.1635 16.6117V19.9167C21.1635 20.4692 20.944 20.9991 20.5533 21.3898C20.1626 21.7805 19.6326 22 19.0801 22H4.91342C4.36088 22 3.83098 21.7805 3.44027 21.3898C3.04957 20.9991 2.83008 20.4692 2.83008 19.9167V16.6117C2.8311 16.4737 2.90031 16.3453 3.01491 16.2685C3.12952 16.1918 3.27467 16.1767 3.40258 16.2283C3.64915 16.3257 3.90798 16.3885 4.17175 16.415C5.10804 16.5091 6.03752 16.1807 6.70675 15.5191C6.86877 15.3603 7.12807 15.3603 7.29009 15.5191C8.50968 16.7349 10.483 16.7349 11.7026 15.5191C11.8652 15.357 12.1283 15.357 12.2909 15.5191C12.8753 16.1017 13.6666 16.4292 14.4918 16.43C15.3174 16.4334 16.1094 16.1028 16.6876 15.5133C16.7652 15.4326 16.872 15.3865 16.9839 15.3855C17.0958 15.3844 17.2035 15.4283 17.2826 15.5075C17.9517 16.1748 18.885 16.5064 19.8251 16.4108Z" />
</svg>