<!--character:105-->
  <svg width="24" height="24" viewBox="0 0 24 24" >
<path d="M19.42 13.7129C19.42 13.5235 19.3754 13.4405 19.3545 13.4092C19.3299 13.3723 19.2902 13.337 19.2237 13.3037C19.1535 13.2686 19.0722 13.2462 19.001 13.2344C18.9677 13.2288 18.9418 13.2266 18.9278 13.2256C18.9214 13.2251 18.918 13.2246 18.918 13.2246H5.05767C4.86846 13.2246 4.78632 13.2701 4.75493 13.291C4.71803 13.3156 4.68178 13.3544 4.64849 13.4209C4.6134 13.4911 4.59101 13.5724 4.57915 13.6436C4.57408 13.674 4.57152 13.6982 4.57036 13.7129V13.7188L4.56938 13.7266C4.5694 13.726 4.57033 13.7245 4.57036 13.7227V16.1816C4.68892 16.3297 4.83331 16.4559 4.99907 16.5508C5.22798 16.6817 5.4873 16.75 5.75103 16.75C6.01472 16.75 6.27407 16.6817 6.50298 16.5508C6.73189 16.4198 6.92301 16.2312 7.05669 16.0039L7.1231 15.9053C7.29219 15.6889 7.55314 15.5597 7.83208 15.5596C8.15109 15.5596 8.44677 15.7289 8.60845 16.0039C8.74213 16.2312 8.93328 16.4198 9.16216 16.5508C9.39103 16.6816 9.65047 16.75 9.91411 16.75C10.1778 16.7499 10.4372 16.6817 10.6661 16.5508C10.8948 16.4199 11.0852 16.2311 11.2188 16.0039L11.2862 15.9053C11.4554 15.689 11.7162 15.5596 11.9952 15.5596C12.3141 15.5596 12.6089 15.729 12.7706 16.0039C12.9042 16.2313 13.0953 16.4198 13.3243 16.5508C13.5532 16.6817 13.8125 16.75 14.0762 16.75L14.2725 16.7373C14.4675 16.7118 14.6564 16.649 14.8282 16.5508C15.0571 16.4198 15.2482 16.2313 15.3819 16.0039L15.4483 15.9053C15.6174 15.6889 15.8783 15.5596 16.1573 15.5596C16.4763 15.5596 16.772 15.7289 16.9336 16.0039C17.0673 16.2311 17.2576 16.4199 17.4864 16.5508C17.7152 16.6817 17.9747 16.7499 18.2383 16.75C18.502 16.75 18.7614 16.6816 18.9903 16.5508C19.1561 16.4559 19.3014 16.3298 19.42 16.1816V13.7129ZM5.82622 3.34668C6.17328 3.01813 6.71646 3.01813 7.06353 3.34668L7.0645 3.34766L7.06645 3.34864C7.06762 3.34975 7.06855 3.35179 7.07036 3.35352C7.07403 3.35702 7.07981 3.36123 7.08599 3.36719C7.09833 3.37911 7.11544 3.39596 7.13677 3.41699C7.17953 3.45917 7.2395 3.51891 7.3106 3.59278C7.45186 3.73954 7.64275 3.94721 7.83599 4.1836C8.02631 4.41647 8.23524 4.69677 8.40044 4.99024C8.55226 5.25997 8.73242 5.6527 8.73247 6.08106C8.73247 6.68774 8.49154 7.27023 8.06255 7.69922C7.63367 8.128 7.05181 8.36904 6.44536 8.36914C5.83872 8.36914 5.25618 8.12815 4.8272 7.69922C4.39821 7.27023 4.15728 6.68774 4.15728 6.08106C4.15733 5.6527 4.33846 5.25997 4.49028 4.99024C4.65554 4.69673 4.8644 4.41645 5.05474 4.1836C5.24799 3.94718 5.43885 3.73954 5.58013 3.59278C5.65102 3.51913 5.71029 3.4591 5.75298 3.41699C5.77439 3.39588 5.79238 3.37911 5.80474 3.36719C5.81074 3.3614 5.81578 3.35696 5.81938 3.35352C5.82114 3.35184 5.82214 3.34973 5.82329 3.34864L5.82524 3.34766L5.82622 3.34668ZM11.376 3.34668C11.7231 3.01815 12.2663 3.01819 12.6133 3.34668L12.6143 3.34766L12.6163 3.34864C12.6174 3.34975 12.6193 3.35176 12.6211 3.35352C12.6248 3.35698 12.6298 3.36145 12.6358 3.36719C12.6481 3.3791 12.6652 3.39593 12.6866 3.41699C12.7293 3.45916 12.7893 3.51891 12.8604 3.59278C13.0017 3.73954 13.1925 3.94718 13.3858 4.1836C13.5761 4.41646 13.785 4.69676 13.9502 4.99024C14.1021 5.25997 14.2822 5.6527 14.2823 6.08106C14.2823 6.68774 14.0413 7.27023 13.6124 7.69922C13.1834 8.12798 12.6016 8.36909 11.9952 8.36914C11.3885 8.36914 10.806 8.12821 10.377 7.69922C9.94801 7.27023 9.70708 6.68774 9.70708 6.08106C9.70714 5.6527 9.88827 5.25997 10.0401 4.99024C10.2053 4.69674 10.4142 4.41646 10.6045 4.1836C10.7978 3.94718 10.9887 3.73954 11.1299 3.59278C11.2009 3.519 11.261 3.45912 11.3038 3.41699C11.3251 3.396 11.3422 3.37907 11.3545 3.36719C11.3605 3.36141 11.3656 3.35697 11.3692 3.35352L11.376 3.34668ZM16.9258 3.34668C17.2729 3.01813 17.817 3.01813 18.1641 3.34668L18.1709 3.35352C18.1746 3.35698 18.1796 3.36142 18.1856 3.36719C18.1979 3.37909 18.215 3.39595 18.2364 3.41699C18.2791 3.45914 18.3391 3.51896 18.4102 3.59278C18.5515 3.73954 18.7423 3.94718 18.9356 4.1836C19.1259 4.41646 19.3348 4.69675 19.5 4.99024C19.6519 5.25997 19.832 5.6527 19.8321 6.08106C19.8321 6.68774 19.5911 7.27023 19.1622 7.69922C18.7332 8.12797 18.1515 8.36914 17.545 8.36914C16.9385 8.36914 16.3567 8.12797 15.9278 7.69922C15.4988 7.27023 15.2579 6.68774 15.2579 6.08106C15.2579 5.6527 15.4381 5.25997 15.5899 4.99024C15.7551 4.69675 15.964 4.41646 16.1543 4.1836C16.3476 3.94718 16.5385 3.73954 16.6797 3.59278C16.7508 3.51896 16.8108 3.45914 16.8536 3.41699C16.8749 3.39595 16.892 3.37909 16.9043 3.36719C16.9103 3.36142 16.9154 3.35698 16.919 3.35352L16.9258 3.34668ZM6.44438 5.32617C6.28936 5.51614 6.15279 5.70676 6.05864 5.87403C5.97737 6.01847 5.96105 6.08796 5.95806 6.09473L5.96685 6.17676C5.98557 6.27049 6.03205 6.3572 6.10063 6.42578C6.19205 6.51715 6.31611 6.56836 6.44536 6.56836C6.57451 6.56826 6.69876 6.51712 6.79009 6.42578C6.8585 6.35726 6.9042 6.27034 6.9229 6.17676L6.93169 6.09473C6.92862 6.08756 6.91214 6.01804 6.8311 5.87403C6.73686 5.70659 6.5996 5.51633 6.44438 5.32617ZM11.9952 5.3252C11.8398 5.51548 11.7028 5.70647 11.6084 5.87403C11.5337 6.00682 11.5138 6.07622 11.5088 6.0918C11.5116 6.21726 11.5615 6.33685 11.6504 6.42578C11.7419 6.51721 11.8659 6.56836 11.9952 6.56836C12.1244 6.56831 12.2485 6.51716 12.3399 6.42578C12.4083 6.35725 12.454 6.27037 12.4727 6.17676L12.4815 6.09473C12.4783 6.0872 12.4617 6.01766 12.3809 5.87403C12.2866 5.70653 12.1505 5.51542 11.9952 5.3252ZM17.545 5.3252C17.3897 5.51545 17.2525 5.7065 17.1583 5.87403C17.0835 6.00692 17.0636 6.07634 17.0586 6.0918C17.0614 6.21722 17.1114 6.33686 17.2002 6.42578C17.2917 6.51721 17.4157 6.56836 17.545 6.56836C17.6743 6.56836 17.7983 6.51721 17.8897 6.42578C17.9786 6.33687 18.0276 6.21721 18.0303 6.0918C18.0252 6.07579 18.006 6.00613 17.9317 5.87403C17.8374 5.7065 17.7003 5.51545 17.545 5.3252ZM4.57036 19.7246C4.57036 19.914 4.61491 19.997 4.63579 20.0283C4.66044 20.0652 4.7002 20.1006 4.76665 20.1338C4.8367 20.1688 4.91734 20.1913 4.98833 20.2031C5.02144 20.2086 5.04747 20.2109 5.06157 20.2119C5.06803 20.2124 5.07231 20.2129 5.07231 20.2129H18.9327C19.1219 20.2129 19.2041 20.1674 19.2354 20.1465C19.2723 20.1219 19.3086 20.0831 19.3418 20.0166C19.3769 19.9465 19.3983 19.865 19.4102 19.7939L19.42 19.7236V18.3311C19.0439 18.4746 18.6437 18.5508 18.2383 18.5508C17.6611 18.5507 17.0938 18.3999 16.5928 18.1133C16.4389 18.0252 16.2943 17.9232 16.1573 17.8125C16.0204 17.9231 15.8756 18.0253 15.7217 18.1133C15.2833 18.364 14.7941 18.5102 14.292 18.543L14.0762 18.5508C13.499 18.5508 12.9318 18.3998 12.4307 18.1133C12.2768 18.0253 12.1321 17.9231 11.9952 17.8125C11.8582 17.9232 11.7136 18.0252 11.5596 18.1133C11.0586 18.3999 10.4913 18.5507 9.91411 18.5508C9.33675 18.5508 8.76876 18.4 8.26763 18.1133C8.11364 18.0252 7.96908 17.9232 7.83208 17.8125C7.69526 17.923 7.55126 18.0253 7.39751 18.1133C6.89637 18.4 6.32838 18.5508 5.75103 18.5508C5.34585 18.5508 4.94625 18.4745 4.57036 18.3311V19.7246ZM21.2198 19.7246H20.3204C21.1635 19.7246 21.2165 19.7242 21.2198 19.7246V19.7432C21.2197 19.7508 21.2191 19.7601 21.2188 19.7705C21.2181 19.7913 21.2171 19.8176 21.2149 19.8486C21.2105 19.9105 21.2017 19.9932 21.1856 20.0898C21.1541 20.2789 21.0895 20.5447 20.9512 20.8213C20.8111 21.1015 20.5867 21.4091 20.2334 21.6445C19.8746 21.8837 19.4368 22.0127 18.9327 22.0127H5.05767V21.1123C5.05767 21.9986 5.05811 22.0125 5.05767 22.0127H5.03911C5.0315 22.0126 5.02217 22.0121 5.01177 22.0117C4.99101 22.011 4.96466 22.01 4.93364 22.0078C4.87178 22.0034 4.78904 21.9946 4.69243 21.9785C4.50343 21.947 4.23753 21.8824 3.96099 21.7441C3.68082 21.604 3.37322 21.3796 3.13774 21.0264C2.89851 20.6675 2.76958 20.2289 2.76958 19.7246V13.7129H3.66997C2.78712 13.7129 2.7699 13.7133 2.76958 13.7129V13.7041C2.7696 13.7012 2.7705 13.6979 2.77056 13.6943C2.77068 13.6867 2.77021 13.6774 2.77056 13.667C2.77125 13.6462 2.77322 13.6199 2.77544 13.5889C2.77986 13.527 2.78765 13.4443 2.80376 13.3477C2.83526 13.1587 2.89984 12.8928 3.03813 12.6162C3.17822 12.336 3.40271 12.0285 3.75591 11.793C4.11482 11.5537 4.5533 11.4248 5.05767 11.4248H5.54497V10.2441C5.54497 9.74709 5.94831 9.34375 6.44536 9.34375C6.94224 9.34396 7.34478 9.74722 7.34478 10.2441V11.4248H11.0948V10.2441C11.0948 9.74709 11.4981 9.34375 11.9952 9.34375C12.4921 9.34386 12.8946 9.74715 12.8946 10.2441V11.4248H16.6446V10.2441C16.6446 9.74709 17.0479 9.34375 17.545 9.34375C18.042 9.34375 18.4454 9.74709 18.4454 10.2441V11.4248H18.9327V11.8848C18.9328 11.425 18.9323 11.4248 18.9327 11.4248H18.9512C18.9587 11.4249 18.9675 11.4254 18.9776 11.4258C18.9984 11.4265 19.0256 11.4275 19.0567 11.4297C19.1184 11.4341 19.2006 11.4429 19.2969 11.459C19.4859 11.4905 19.7518 11.5551 20.0284 11.6934C20.3085 11.8334 20.6161 12.058 20.8516 12.4111C21.0909 12.77 21.2198 13.2085 21.2198 13.7129V19.7246Z" />
</svg>