<!-- character:0:2065 -->
  <svg width="20" height="20" viewBox="0 0 20 20" >
<path   d="M5.48328 5.48604C6.34756 5.48336 7.04656 4.78157 7.04579 3.91729C6.9202 3.20706 6.61625 2.54038 6.16245 1.97978C5.99278 1.78107 5.74458 1.66663 5.48328 1.66663C5.22198 1.66663 4.97379 1.78107 4.80412 1.97978C4.35008 2.54023 4.0461 3.20698 3.92078 3.91729C3.92001 4.78157 4.61901 5.48336 5.48328 5.48604ZM14.5111 5.48604C15.3754 5.48336 16.0744 4.78157 16.0736 3.91729C15.948 3.20706 15.644 2.54038 15.1902 1.97978C15.0206 1.78107 14.7724 1.66663 14.5111 1.66663C14.2498 1.66663 14.0016 1.78107 13.8319 1.97978C13.3779 2.54023 13.0739 3.20698 12.9486 3.91729C12.9478 4.78157 13.6468 5.48336 14.5111 5.48604ZM11.5597 3.91729C11.5605 4.78157 10.8615 5.48336 9.99718 5.48604C9.13291 5.48336 8.43391 4.78157 8.43468 3.91729C8.56 3.20698 8.86398 2.54023 9.31801 1.97978C9.48769 1.78107 9.73588 1.66663 9.99718 1.66663C10.2585 1.66663 10.5067 1.78107 10.6764 1.97978C11.1301 2.54038 11.4341 3.20706 11.5597 3.91729ZM15.9 9.3055C15.7082 9.3055 15.5527 9.15004 15.5527 8.95827V6.87493C15.5527 6.4914 15.2418 6.18049 14.8583 6.18049H14.1639C13.7803 6.18049 13.4694 6.4914 13.4694 6.87493V8.95827C13.4694 9.15004 13.314 9.3055 13.1222 9.3055H11.3861C11.1943 9.3055 11.0388 9.15004 11.0388 8.95827V6.87493C11.0388 6.4914 10.7279 6.18049 10.3444 6.18049H9.64996C9.26643 6.18049 8.95551 6.4914 8.95551 6.87493V8.95827C8.95551 9.15004 8.80006 9.3055 8.60829 9.3055H6.87217C6.68041 9.3055 6.52495 9.15004 6.52495 8.95827V6.87493C6.52495 6.4914 6.21404 6.18049 5.83051 6.18049H5.13606C4.75253 6.18049 4.44161 6.4914 4.44161 6.87493V8.95827C4.44161 9.15004 4.28616 9.3055 4.09439 9.3055C3.13556 9.3055 2.35828 10.0828 2.35828 11.0416V11.2909C2.35839 11.9869 2.88586 12.5696 3.57842 12.6388C4.15615 12.6992 4.72018 12.4365 5.04578 11.9555C5.21543 11.6992 5.50231 11.5451 5.80967 11.5451C6.13763 11.5411 6.44548 11.7027 6.62842 11.9749C6.92086 12.3957 7.40077 12.6466 7.91315 12.6466C8.42553 12.6466 8.90544 12.3957 9.19787 11.9749C9.38632 11.7234 9.68222 11.5754 9.99649 11.5754C10.3108 11.5754 10.6067 11.7234 10.7951 11.9749C11.0875 12.3957 11.5674 12.6466 12.0798 12.6466C12.5922 12.6466 13.0721 12.3957 13.3646 11.9749C13.546 11.7011 13.8548 11.5389 14.1833 11.5451C14.4907 11.5451 14.7775 11.6992 14.9472 11.9555C15.2728 12.4365 15.8368 12.6992 16.4146 12.6388C17.1077 12.5703 17.6359 11.9874 17.6361 11.2909V11.0416C17.6361 10.0828 16.8588 9.3055 15.9 9.3055ZM16.5208 13.6756C16.7406 13.6536 16.9563 13.6012 17.1618 13.5201C17.2686 13.4781 17.3894 13.4916 17.4843 13.5562C17.5792 13.6208 17.636 13.7282 17.6361 13.843V16.5972C17.6361 17.0576 17.4532 17.4992 17.1276 17.8248C16.802 18.1504 16.3604 18.3333 15.9 18.3333H4.09439C3.63394 18.3333 3.19236 18.1504 2.86677 17.8248C2.54119 17.4992 2.35828 17.0576 2.35828 16.5972V13.843C2.35913 13.7281 2.4168 13.621 2.5123 13.5571C2.60781 13.4931 2.72877 13.4806 2.83536 13.5236C3.04083 13.6047 3.25653 13.657 3.47633 13.6791C4.25657 13.7576 5.03114 13.4839 5.58884 12.9326C5.72385 12.8002 5.93994 12.8002 6.07495 12.9326C7.09128 13.9457 8.73571 13.9457 9.75204 12.9326C9.88755 12.7975 10.1068 12.7975 10.2423 12.9326C10.7293 13.418 11.3887 13.6909 12.0764 13.6916C12.7644 13.6944 13.4244 13.4189 13.9062 12.9277C13.9709 12.8605 14.0598 12.8221 14.1531 12.8212C14.2464 12.8203 14.3361 12.8569 14.4021 12.9229C14.9596 13.479 15.7374 13.7553 16.5208 13.6756Z" />
</svg>