<!--character:8395-->
  <svg width="20" height="20" viewBox="0 0 20 20" >
<path d="M5.48341 5.48608C6.34768 5.4834 7.04668 4.78161 7.04591 3.91733C6.92032 3.2071 6.61637 2.54041 6.16257 1.97982C5.9929 1.7811 5.74471 1.66666 5.48341 1.66666C5.2221 1.66666 4.97391 1.7811 4.80424 1.97982C4.3502 2.54027 4.04622 3.20702 3.9209 3.91733C3.92013 4.78161 4.61913 5.4834 5.48341 5.48608Z" />
<path d="M14.5112 5.48608C15.3755 5.4834 16.0745 4.78161 16.0737 3.91733C15.9481 3.2071 15.6442 2.54041 15.1904 1.97982C15.0207 1.7811 14.7725 1.66666 14.5112 1.66666C14.2499 1.66666 14.0017 1.7811 13.832 1.97982C13.378 2.54027 13.074 3.20702 12.9487 3.91733C12.9479 4.78161 13.6469 5.4834 14.5112 5.48608Z" />
<path d="M11.5598 3.91733C11.5606 4.78161 10.8616 5.4834 9.9973 5.48608C9.13303 5.4834 8.43403 4.78161 8.4348 3.91733C8.56012 3.20702 8.8641 2.54027 9.31814 1.97982C9.48781 1.7811 9.736 1.66666 9.9973 1.66666C10.2586 1.66666 10.5068 1.7811 10.6765 1.97982C11.1303 2.54041 11.4342 3.2071 11.5598 3.91733Z" />
<path d="M15.9001 9.30553C15.7083 9.30553 15.5529 9.15008 15.5529 8.95831V6.87497C15.5529 6.49144 15.242 6.18053 14.8584 6.18053H14.164C13.7804 6.18053 13.4695 6.49144 13.4695 6.87497V8.95831C13.4695 9.15008 13.3141 9.30553 13.1223 9.30553H11.3862C11.1944 9.30553 11.039 9.15008 11.039 8.95831V6.87497C11.039 6.49144 10.7281 6.18053 10.3445 6.18053H9.65008C9.26655 6.18053 8.95563 6.49144 8.95563 6.87497V8.95831C8.95563 9.15008 8.80018 9.30553 8.60841 9.30553H6.8723C6.68053 9.30553 6.52507 9.15008 6.52507 8.95831V6.87497C6.52507 6.49144 6.21416 6.18053 5.83063 6.18053H5.13618C4.75265 6.18053 4.44174 6.49144 4.44174 6.87497V8.95831C4.44174 9.15008 4.28628 9.30553 4.09451 9.30553C3.13568 9.30553 2.3584 10.0828 2.3584 11.0416V11.291C2.35852 11.987 2.88598 12.5697 3.57854 12.6389C4.15627 12.6992 4.72031 12.4366 5.0459 11.9555C5.21555 11.6992 5.50243 11.5451 5.80979 11.5451C6.13775 11.5411 6.44561 11.7028 6.62855 11.975C6.92098 12.3957 7.40089 12.6466 7.91327 12.6466C8.42565 12.6466 8.90556 12.3957 9.198 11.975C9.38644 11.7235 9.68234 11.5754 9.99661 11.5754C10.3109 11.5754 10.6068 11.7235 10.7952 11.975C11.0877 12.3957 11.5676 12.6466 12.0799 12.6466C12.5923 12.6466 13.0722 12.3957 13.3647 11.975C13.5461 11.7011 13.8549 11.5389 14.1834 11.5451C14.4908 11.5451 14.7777 11.6992 14.9473 11.9555C15.2729 12.4366 15.8369 12.6992 16.4147 12.6389C17.1078 12.5703 17.636 11.9874 17.6362 11.291V11.0416C17.6362 10.0828 16.8589 9.30553 15.9001 9.30553Z" />
<path d="M16.5209 13.6757C16.7407 13.6536 16.9564 13.6013 17.1619 13.5201C17.2688 13.4781 17.3895 13.4916 17.4844 13.5562C17.5793 13.6209 17.6361 13.7282 17.6362 13.843V16.5972C17.6362 17.0577 17.4533 17.4992 17.1277 17.8248C16.8021 18.1504 16.3605 18.3333 15.9001 18.3333H4.09451C3.63407 18.3333 3.19248 18.1504 2.86689 17.8248C2.54131 17.4992 2.3584 17.0577 2.3584 16.5972V13.843C2.35925 13.7281 2.41692 13.621 2.51243 13.5571C2.60793 13.4932 2.72889 13.4806 2.83548 13.5236C3.04096 13.6047 3.25665 13.6571 3.47646 13.6792C4.2567 13.7576 5.03126 13.4839 5.58896 12.9326C5.72398 12.8003 5.94006 12.8003 6.07507 12.9326C7.0914 13.9458 8.73583 13.9458 9.75216 12.9326C9.88768 12.7975 10.1069 12.7975 10.2424 12.9326C10.7294 13.4181 11.3888 13.691 12.0765 13.6917C12.7645 13.6945 13.4245 13.419 13.9063 12.9278C13.971 12.8605 14.06 12.8221 14.1532 12.8212C14.2465 12.8203 14.3362 12.8569 14.4022 12.9229C14.9597 13.479 15.7375 13.7553 16.5209 13.6757Z" />
</svg>