<!--character:E187-->
<svg width="24" height="24" viewBox="0 0 24 24" xmlns="http://www.w3.org/2000/svg"><path d="M6.58 6.5833c-1.0371-.0032-1.876-.8454-1.875-1.8825a5.1017 5.1017 0 0 1 1.06-2.325 1.0717 1.0717 0 0 1 1.63 0 5.1092 5.1092 0 0 1 1.06 2.325c.001 1.0371-.8379 1.8793-1.875 1.8825zm10.8334 0c-1.0372-.0032-1.876-.8454-1.875-1.8825a5.1017 5.1017 0 0 1 1.06-2.325 1.0717 1.0717 0 0 1 1.63 0 5.1092 5.1092 0 0 1 1.06 2.325c.0009 1.0371-.838 1.8793-1.875 1.8825zm-5.4167 0c-1.0371-.0032-1.876-.8454-1.875-1.8825a5.1017 5.1017 0 0 1 1.06-2.325 1.0717 1.0717 0 0 1 1.63 0 5.1092 5.1092 0 0 1 1.06 2.325c.001 1.0371-.8379 1.8793-1.875 1.8825zm7.0833 4.5833c1.1506 0 2.0834.9328 2.0834 2.0834v.2991c-.0003.8358-.6341 1.5353-1.4659 1.6176a1.8892 1.8892 0 0 1-1.7608-.82 1.0992 1.0992 0 0 0-.9167-.4926 1.1525 1.1525 0 0 0-.9825.5159 1.8775 1.8775 0 0 1-3.0833 0 1.1975 1.1975 0 0 0-1.9167 0 1.8775 1.8775 0 0 1-3.0833 0 1.1667 1.1667 0 0 0-.9825-.5159c-.3689 0-.7131.185-.9167.4926a1.8892 1.8892 0 0 1-1.7608.82C3.463 15.0836 2.83 14.3844 2.83 13.549V13.25c0-1.1506.9327-2.0834 2.0833-2.0834A.4167.4167 0 0 0 5.33 10.75v-2.5a.8333.8333 0 0 1 .8333-.8334h.8334A.8333.8333 0 0 1 7.83 8.25v2.5c0 .23.1866.4166.4167.4166H10.33a.4167.4167 0 0 0 .4167-.4166v-2.5a.8333.8333 0 0 1 .8333-.8334h.8334a.8333.8333 0 0 1 .8333.8334v2.5c0 .23.1865.4166.4167.4166h2.0833a.4167.4167 0 0 0 .4167-.4166v-2.5a.8333.8333 0 0 1 .8333-.8334h.8333a.8333.8333 0 0 1 .8334.8334v2.5c0 .23.1865.4166.4166.4166zm1.5142 5.0576a.4167.4167 0 0 1 .5692.3875v3.305A2.0833 2.0833 0 0 1 19.08 22H4.9133A2.0833 2.0833 0 0 1 2.83 19.9167v-3.305a.4167.4167 0 0 1 .5725-.3834c.2466.0974.5054.1602.7692.1867a3.1567 3.1567 0 0 0 2.535-.8958.4167.4167 0 0 1 .5833 0c1.2196 1.2157 3.193 1.2157 4.4125 0a.4167.4167 0 0 1 .5884 0 3.1217 3.1217 0 0 0 2.2008.9108 3.0583 3.0583 0 0 0 2.1958-.9167.4168.4168 0 0 1 .595-.0058 3.1492 3.1492 0 0 0 2.5425.9033 2.8775 2.8775 0 0 0 .7692-.1866z"/></svg>