<!--character:$550:2162-->
  <svg width="24" height="24" viewBox="0 0 24 24" >
<path d="M6.57996 6.5833C7.61709 6.58008 8.45589 5.73793 8.45497 4.7008C8.30427 3.84852 7.93952 3.0485 7.39497 2.37579C7.19136 2.13733 6.89353 2 6.57996 2C6.2664 2 5.96857 2.13733 5.76496 2.37579C5.22012 3.04833 4.85535 3.84842 4.70496 4.7008C4.70404 5.73793 5.54283 6.58008 6.57996 6.5833Z" />
<path d="M17.4133 6.5833C18.4505 6.58008 19.2893 5.73793 19.2883 4.7008C19.1376 3.84852 18.7729 3.0485 18.2283 2.37579C18.0247 2.13733 17.7269 2 17.4133 2C17.0998 2 16.8019 2.13733 16.5983 2.37579C16.0535 3.04833 15.6887 3.84842 15.5383 4.7008C15.5374 5.73793 16.3762 6.58008 17.4133 6.5833Z" />
<path d="M13.8716 4.7008C13.8726 5.73793 13.0338 6.58008 11.9966 6.5833C10.9595 6.58008 10.1207 5.73793 10.1216 4.7008C10.272 3.84842 10.6368 3.04833 11.1816 2.37579C11.3852 2.13733 11.6831 2 11.9966 2C12.3102 2 12.608 2.13733 12.8116 2.37579C13.3562 3.0485 13.7209 3.84852 13.8716 4.7008Z" />
<path d="M19.08 11.1666C18.8499 11.1666 18.6633 10.9801 18.6633 10.75V8.24997C18.6633 7.78973 18.2902 7.41663 17.83 7.41663H16.9967C16.5364 7.41663 16.1633 7.78973 16.1633 8.24997V10.75C16.1633 10.9801 15.9768 11.1666 15.7467 11.1666H13.6633C13.4332 11.1666 13.2466 10.9801 13.2466 10.75V8.24997C13.2466 7.78973 12.8735 7.41663 12.4133 7.41663H11.58C11.1197 7.41663 10.7466 7.78973 10.7466 8.24997V10.75C10.7466 10.9801 10.5601 11.1666 10.33 11.1666H8.24663C8.01652 11.1666 7.82997 10.9801 7.82997 10.75V8.24997C7.82997 7.78973 7.45687 7.41663 6.99663 7.41663H6.1633C5.70306 7.41663 5.32996 7.78973 5.32996 8.24997V10.75C5.32996 10.9801 5.14341 11.1666 4.91329 11.1666C3.7627 11.1666 2.82996 12.0994 2.82996 13.25V13.5491C2.8301 14.3844 3.46305 15.0836 4.29413 15.1667C4.9874 15.2391 5.66424 14.9239 6.05496 14.3466C6.25854 14.0391 6.6028 13.8541 6.97163 13.8541C7.36518 13.8494 7.73461 14.0433 7.95413 14.37C8.30506 14.8749 8.88095 15.1759 9.4958 15.1759C10.1107 15.1759 10.6865 14.8749 11.0375 14.37C11.2636 14.0682 11.6187 13.8905 11.9958 13.8905C12.3729 13.8905 12.728 14.0682 12.9541 14.37C13.3051 14.8749 13.881 15.1759 14.4958 15.1759C15.1107 15.1759 15.6866 14.8749 16.0375 14.37C16.2552 14.0413 16.6258 13.8467 17.02 13.8541C17.3888 13.8541 17.7331 14.0391 17.9367 14.3466C18.3274 14.9239 19.0042 15.2391 19.6975 15.1667C20.5292 15.0844 21.1631 14.3849 21.1633 13.5491V13.25C21.1633 12.0994 20.2306 11.1666 19.08 11.1666Z" />
<path d="M19.825 16.4108C20.0888 16.3843 20.3476 16.3215 20.5942 16.2242C20.7224 16.1737 20.8673 16.1899 20.9812 16.2675C21.095 16.345 21.1632 16.4739 21.1633 16.6117V19.9167C21.1633 20.4692 20.9438 20.9991 20.5531 21.3898C20.1624 21.7805 19.6325 22 19.08 22H4.91329C4.36076 22 3.83085 21.7805 3.44015 21.3898C3.04945 20.9991 2.82996 20.4692 2.82996 19.9167V16.6117C2.83098 16.4737 2.90018 16.3453 3.01479 16.2685C3.12939 16.1918 3.27455 16.1767 3.40246 16.2283C3.64902 16.3257 3.90786 16.3885 4.17163 16.415C5.10791 16.5091 6.03739 16.1807 6.70663 15.5192C6.86865 15.3603 7.12795 15.3603 7.28997 15.5192C8.50956 16.7349 10.4829 16.7349 11.7025 15.5192C11.8651 15.357 12.1282 15.357 12.2908 15.5192C12.8752 16.1017 13.6665 16.4292 14.4916 16.43C15.3173 16.4334 16.1093 16.1028 16.6875 15.5133C16.7651 15.4326 16.8718 15.3866 16.9838 15.3855C17.0957 15.3844 17.2033 15.4283 17.2825 15.5075C17.9515 16.1748 18.8849 16.5064 19.825 16.4108Z" />
</svg>