<!--character:4460-->
  <svg width="24" height="24" viewBox="0 0 24 24" >
<path d="M6.58001 6.58331C7.61714 6.58009 8.45594 5.73794 8.45502 4.7008C8.30431 3.84853 7.93957 3.04851 7.39501 2.3758C7.19141 2.13733 6.89357 2.00001 6.58001 2.00001C6.26645 2.00001 5.96862 2.13733 5.76501 2.3758C5.22017 3.04833 4.8554 3.84843 4.70501 4.7008C4.70409 5.73794 5.54288 6.58009 6.58001 6.58331Z" />
<path d="M17.4134 6.58331C18.4505 6.58009 19.2893 5.73794 19.2884 4.7008C19.1377 3.84853 18.7729 3.04851 18.2284 2.3758C18.0248 2.13733 17.7269 2.00001 17.4134 2.00001C17.0998 2.00001 16.802 2.13733 16.5984 2.3758C16.0535 3.04833 15.6888 3.84843 15.5384 4.7008C15.5374 5.73794 16.3762 6.58009 17.4134 6.58331Z" />
<path d="M13.8717 4.7008C13.8726 5.73794 13.0338 6.58009 11.9967 6.58331C10.9596 6.58009 10.1208 5.73794 10.1217 4.7008C10.2721 3.84843 10.6368 3.04833 11.1817 2.3758C11.3853 2.13733 11.6831 2.00001 11.9967 2.00001C12.3103 2.00001 12.6081 2.13733 12.8117 2.3758C13.3563 3.04851 13.721 3.84853 13.8717 4.7008Z" />
<path d="M19.08 11.1666C18.8499 11.1666 18.6634 10.9801 18.6634 10.75V8.24998C18.6634 7.78974 18.2903 7.41664 17.83 7.41664H16.9967C16.5365 7.41664 16.1634 7.78974 16.1634 8.24998V10.75C16.1634 10.9801 15.9768 11.1666 15.7467 11.1666H13.6634C13.4332 11.1666 13.2467 10.9801 13.2467 10.75V8.24998C13.2467 7.78974 12.8736 7.41664 12.4134 7.41664H11.58C11.1198 7.41664 10.7467 7.78974 10.7467 8.24998V10.75C10.7467 10.9801 10.5601 11.1666 10.33 11.1666H8.24668C8.01656 11.1666 7.83002 10.9801 7.83002 10.75V8.24998C7.83002 7.78974 7.45692 7.41664 6.99668 7.41664H6.16335C5.70311 7.41664 5.33001 7.78974 5.33001 8.24998V10.75C5.33001 10.9801 5.14346 11.1666 4.91334 11.1666C3.76275 11.1666 2.83 12.0994 2.83 13.25V13.5492C2.83015 14.3844 3.4631 15.0836 4.29417 15.1667C4.98745 15.2391 5.66429 14.9239 6.05501 14.3467C6.25858 14.0391 6.60285 13.8541 6.97168 13.8542C7.36522 13.8494 7.73465 14.0433 7.95418 14.37C8.30511 14.8749 8.881 15.1759 9.49585 15.1759C10.1107 15.1759 10.6866 14.8749 11.0375 14.37C11.2637 14.0682 11.6187 13.8905 11.9959 13.8905C12.373 13.8905 12.7281 14.0682 12.9542 14.37C13.3051 14.8749 13.881 15.1759 14.4959 15.1759C15.1107 15.1759 15.6866 14.8749 16.0375 14.37C16.2553 14.0413 16.6259 13.8467 17.02 13.8542C17.3889 13.8541 17.7331 14.0391 17.9367 14.3467C18.3274 14.9239 19.0043 15.2391 19.6975 15.1667C20.5293 15.0844 21.1632 14.3849 21.1634 13.5492V13.25C21.1634 12.0994 20.2306 11.1666 19.08 11.1666Z" />
<path d="M19.825 16.4108C20.0888 16.3843 20.3476 16.3215 20.5942 16.2242C20.7224 16.1737 20.8673 16.19 20.9812 16.2675C21.0951 16.345 21.1633 16.4739 21.1634 16.6117V19.9167C21.1634 20.4692 20.9439 20.9991 20.5532 21.3898C20.1625 21.7805 19.6326 22 19.08 22H4.91334C4.36081 22 3.8309 21.7805 3.4402 21.3898C3.0495 20.9991 2.83 20.4692 2.83 19.9167V16.6117C2.83103 16.4737 2.90023 16.3453 3.01484 16.2685C3.12944 16.1918 3.27459 16.1767 3.40251 16.2283C3.64907 16.3257 3.90791 16.3885 4.17167 16.415C5.10796 16.5092 6.03744 16.1807 6.70668 15.5192C6.8687 15.3603 7.128 15.3603 7.29001 15.5192C8.50961 16.7349 10.4829 16.7349 11.7025 15.5192C11.8651 15.3571 12.1282 15.3571 12.2909 15.5192C12.8753 16.1017 13.6665 16.4292 14.4917 16.43C15.3174 16.4334 16.1093 16.1028 16.6875 15.5133C16.7651 15.4326 16.8719 15.3866 16.9838 15.3855C17.0957 15.3844 17.2034 15.4283 17.2825 15.5075C17.9516 16.1748 18.8849 16.5064 19.825 16.4108Z" />
</svg>