<!--character:215:550:2273-->
<svg width="24" height="24" viewBox="0 0 24 24" xmlns="http://www.w3.org/2000/svg"><path d="M19.9167 4.5h-2.3334c-.0833 0-.1666-.0833-.1666-.1667v-1.5c0-.5-.3334-.8333-.8334-.8333s-.8333.3333-.8333.8333v4c0 .3334-.25.6667-.6667.6667-.3333 0-.6666-.25-.6666-.6667V4.9167c.0833-.25-.0834-.4167-.3334-.4167h-5.25c-.0833 0-.1666-.0833-.1666-.1667v-1.5c0-.5-.3334-.8333-.8334-.8333S7 2.3333 7 2.8333v4c0 .3334-.25.6667-.6667.6667-.3333 0-.6666-.25-.6666-.6667V4.9167c.0833-.25-.0834-.4167-.3334-.4167h-1.25c-.9166 0-1.6666.75-1.6666 1.6667v14.1666c0 .9167.75 1.6667 1.6666 1.6667h15.8334c.9166 0 1.6666-.75 1.6666-1.6667V6.1667c0-.9167-.75-1.6667-1.6666-1.6667zM19.5 20.3333h-15c-.25 0-.4167-.1666-.4167-.4166v-10c0-.25.1667-.4167.4167-.4167h15c.25 0 .4167.1667.4167.4167v10c0 .25-.1667.4166-.4167.4166zm-5.7495-6.3331v-1.5834c0-.75.9167-1.0842 1.4159-.5834l2.5842 2.5834c.3325.3334.3325.8334 0 1.1667l-2.5842 2.5835c-.4992.5-1.416.1666-1.416-.5834v-1.5834c0-.0833-.0832-.1667-.1666-.1667h-3.1676c-.0834 0-.1667.0834-.1667.1667v1.5834c0 .75-.9167 1.0834-1.4159.5834l-2.5842-2.5835c-.3325-.3333-.3325-.8333 0-1.1667l2.5842-2.5834c.4992-.5008 1.416-.1667 1.416.5834v1.5834c0 .0833.0832.1666.1666.1666h3.1676c.0834 0 .1667-.0833.1667-.1666z"/></svg>
