<!--character:5176-->
  <svg width="24" height="24" viewBox="0 0 24 24" >
<path d="M19.9164 4.5H17.5831C17.4997 4.5 17.4164 4.41666 17.4164 4.33333V2.83333C17.4164 2.33333 17.0831 2 16.5831 2C16.0831 2 15.7497 2.33333 15.7497 2.83333V6.83333C15.7497 7.16666 15.4997 7.5 15.0831 7.5C14.7497 7.5 14.4164 7.25 14.4164 6.83333V4.91666C14.4997 4.66666 14.3331 4.5 14.0831 4.5H8.83307C8.74974 4.5 8.66641 4.41666 8.66641 4.33333V2.83333C8.66641 2.33333 8.33307 2 7.83307 2C7.33307 2 6.99974 2.33333 6.99974 2.83333V6.83333C6.99974 7.16666 6.74974 7.5 6.33307 7.5C5.99974 7.5 5.66641 7.25 5.66641 6.83333V4.91666C5.74974 4.66666 5.58307 4.5 5.33307 4.5H4.08307C3.16641 4.5 2.41641 5.25 2.41641 6.16666V20.3333C2.41641 21.25 3.16641 22 4.08307 22H19.9164C20.8331 22 21.5831 21.25 21.5831 20.3333V6.16666C21.5831 5.25 20.8331 4.5 19.9164 4.5ZM13.7502 14.0002V12.4168C13.7502 11.6667 14.6669 11.3326 15.1661 11.8334L17.7504 14.4168C18.0829 14.7502 18.0829 15.2502 17.7504 15.5835L15.1661 18.1669C14.6669 18.667 13.7502 18.3336 13.7502 17.5836V16.0002C13.7502 15.9169 13.6669 15.8335 13.5836 15.8335H10.4159C10.3326 15.8335 10.2492 15.9169 10.2492 16.0002V17.5836C10.2492 18.3336 9.33255 18.667 8.83337 18.1669L6.24912 15.5835C5.91661 15.2502 5.91661 14.7502 6.24912 14.4168L8.83337 11.8334C9.33255 11.3326 10.2492 11.6667 10.2492 12.4168V14.0002C10.2492 14.0835 10.3326 14.1668 10.4159 14.1668H13.5836C13.6669 14.1668 13.7502 14.0835 13.7502 14.0002ZM4.49974 20.3333C4.24974 20.3333 4.08307 20.1667 4.08307 19.9167V9.91666C4.08307 9.66666 4.24974 9.5 4.49974 9.5H19.4997C19.7497 9.5 19.9164 9.66666 19.9164 9.91666V19.9167C19.9164 20.1667 19.7497 20.3333 19.4997 20.3333H4.49974Z" />
</svg>