<!--character:6740-->
  <svg width="24" height="24" viewBox="0 0 24 24" >
<path d="M7.41641 10.75H8.24974C8.74974 10.75 9.08307 11.0833 9.08307 11.5833C9.08307 12.0833 8.74974 12.4167 8.24974 12.4167H7.41641C6.91641 12.4167 6.58307 12.0833 6.58307 11.5833C6.58307 11.0833 6.91641 10.75 7.41641 10.75Z" />
<path d="M19.9164 4.5H17.5831C17.4997 4.5 17.4164 4.41666 17.4164 4.33333V2.83333C17.4164 2.33333 17.0831 2 16.5831 2C16.0831 2 15.7497 2.33333 15.7497 2.83333V6.83333C15.7497 7.16666 15.4997 7.5 15.0831 7.5C14.7497 7.5 14.4164 7.25 14.4164 6.83333V4.91666C14.4997 4.66666 14.3331 4.5 14.0831 4.5H8.83307C8.74974 4.5 8.66641 4.41666 8.66641 4.33333V2.83333C8.66641 2.33333 8.33307 2 7.83307 2C7.33307 2 6.99974 2.33333 6.99974 2.83333V6.83333C6.99974 7.16666 6.74974 7.5 6.33307 7.5C5.99974 7.5 5.66641 7.25 5.66641 6.83333V4.91666C5.74974 4.66666 5.58307 4.5 5.33307 4.5H4.08307C3.16641 4.5 2.41641 5.25 2.41641 6.16666V20.3333C2.41641 21.25 3.16641 22 4.08307 22H19.9164C20.8331 22 21.5831 21.25 21.5831 20.3333V6.16666C21.5831 5.25 20.8331 4.5 19.9164 4.5ZM19.4997 20.3333H4.49974C4.24974 20.3333 4.08307 20.1667 4.08307 19.9167V9.91666C4.08307 9.66666 4.24974 9.5 4.49974 9.5H19.4997C19.7497 9.5 19.9164 9.66666 19.9164 9.91666V19.9167C19.9164 20.1667 19.7497 20.3333 19.4997 20.3333Z" />
</svg>