<!--character:2162-->
  <svg width="20" height="20" viewBox="0 0 20 20" >
<path d="M13.6877 11.5487C14.0467 11.5487 14.3377 11.8397 14.3377 12.1987V13.7295L15.4974 14.8891C15.7512 15.143 15.7512 15.5545 15.4974 15.8084C15.2435 16.0622 14.832 16.0622 14.5781 15.8083L13.2281 14.4584C13.1062 14.3365 13.0377 14.1711 13.0377 13.9987V12.1987C13.0377 11.8397 13.3288 11.5487 13.6877 11.5487Z" />
<path d="M15.125 3.875H13.375C13.3125 3.875 13.25 3.8125 13.25 3.75V2.625C13.25 2.25 13 2 12.625 2C12.25 2 12 2.25 12 2.625V5.625C12 5.875 11.8125 6.125 11.5 6.125C11.25 6.125 11 5.9375 11 5.625V4.1875C11.0625 4 10.9375 3.875 10.75 3.875H6.8125C6.75 3.875 6.6875 3.8125 6.6875 3.75V2.625C6.6875 2.25 6.4375 2 6.0625 2C5.6875 2 5.4375 2.25 5.4375 2.625V5.625C5.4375 5.875 5.25 6.125 4.9375 6.125C4.6875 6.125 4.4375 5.9375 4.4375 5.625V4.1875C4.5 4 4.375 3.875 4.1875 3.875H3.25C2.5625 3.875 2 4.4375 2 5.125V15.75C2 16.4375 2.5625 17 3.25 17H9.0776C8.82591 16.6142 8.62135 16.1948 8.47209 15.75H3.5625C3.375 15.75 3.25 15.625 3.25 15.4375V7.9375C3.25 7.75 3.375 7.625 3.5625 7.625H14.8125C15 7.625 15.125 7.75 15.125 7.9375V8.68878C15.5661 8.80789 15.9852 8.9805 16.375 9.19921V5.125C16.375 4.4375 15.8125 3.875 15.125 3.875Z" />
<path d="M13.6877 17.1988C15.4551 17.1988 16.8877 15.7661 16.8877 13.9988C16.8877 12.2315 15.4551 10.7988 13.6877 10.7988C11.9204 10.7988 10.4877 12.2315 10.4877 13.9988C10.4877 15.7661 11.9204 17.1988 13.6877 17.1988ZM13.6877 18.4988C11.2025 18.4988 9.18774 16.4841 9.18774 13.9988C9.18774 11.5135 11.2025 9.49878 13.6877 9.49878C16.173 9.49878 18.1877 11.5135 18.1877 13.9988C18.1877 16.4841 16.173 18.4988 13.6877 18.4988Z" />
</svg>