<!--description:Use for calendar feature when removing specific date-->
<!--category:time-->
<!--character:0041-->
<svg width="24" height="24" viewBox="0 0 24 24" xmlns="http://www.w3.org/2000/svg"><path d="M21.5833 6.1667v14.1666c0 .9205-.7462 1.6667-1.6666 1.6667H4.0833c-.9204 0-1.6666-.7462-1.6666-1.6667V6.1667c0-.9205.7462-1.6667 1.6666-1.6667h1.25a.4167.4167 0 0 1 .4167.4167v1.875a.625.625 0 1 0 1.25 0V2.8333a.8333.8333 0 1 1 1.6667 0v1.4592A.2083.2083 0 0 0 8.875 4.5h5.2083a.4167.4167 0 0 1 .4167.4167v1.875a.625.625 0 1 0 1.25 0V2.8333a.8333.8333 0 1 1 1.6667 0v1.4584c0 .115.0932.2083.2083.2083h2.2917c.9204 0 1.6666.7462 1.6666 1.6667zm-1.6666 13.75v-10A.4167.4167 0 0 0 19.5 9.5h-15a.4167.4167 0 0 0-.4167.4167v10c0 .23.1866.4166.4167.4166h15a.4167.4167 0 0 0 .4167-.4166zM12 10.3333c2.5302.0028 4.5806 2.0532 4.5833 4.5834 0 2.5313-2.052 4.5833-4.5833 4.5833-2.5313 0-4.5833-2.052-4.5833-4.5833 0-2.5313 2.052-4.5834 4.5833-4.5834zm1.9167 5.6142l-.8842-.8825a.21.21 0 0 1 0-.295l.8842-.8833A.6267.6267 0 0 0 13.0308 13l-.8833.8842a.21.21 0 0 1-.295 0L10.9692 13a.6267.6267 0 1 0-.8859.8867l.8842.8833a.21.21 0 0 1 0 .295l-.8842.8833a.626.626 0 0 0 .8859.885l.8833-.8841a.21.21 0 0 1 .295 0l.8833.8841a.6264.6264 0 1 0 .8859-.8858z"/></svg>