<!--character:4038-->
  <svg width="24" height="24" viewBox="0 0 24 24" >
<path d="M16.4253 14.6384V16.7984L18.0453 18.4184" stroke="#252A31" stroke-width="1.5" stroke-linecap="round" stroke-linejoin="round"/>
<path   d="M18.1499 4.6499H16.0499C15.9749 4.6499 15.8999 4.5749 15.8999 4.4999V3.1499C15.8999 2.6999 15.5999 2.3999 15.1499 2.3999C14.6999 2.3999 14.3999 2.6999 14.3999 3.1499V6.7499C14.3999 7.0499 14.1749 7.3499 13.7999 7.3499C13.4999 7.3499 13.1999 7.1249 13.1999 6.7499V5.0249C13.2749 4.7999 13.1249 4.6499 12.8999 4.6499H8.1749C8.0999 4.6499 8.0249 4.5749 8.0249 4.4999V3.1499C8.0249 2.6999 7.7249 2.3999 7.2749 2.3999C6.8249 2.3999 6.5249 2.6999 6.5249 3.1499V6.7499C6.5249 7.0499 6.2999 7.3499 5.9249 7.3499C5.6249 7.3499 5.3249 7.1249 5.3249 6.7499V5.0249C5.3999 4.7999 5.2499 4.6499 5.0249 4.6499H3.8999C3.0749 4.6499 2.3999 5.3249 2.3999 6.1499V18.8999C2.3999 19.7249 3.0749 20.3999 3.8999 20.3999H11.0373C10.7282 19.9384 10.4768 19.4349 10.2935 18.8999H4.2749C4.0499 18.8999 3.8999 18.7499 3.8999 18.5249V9.5249C3.8999 9.2999 4.0499 9.1499 4.2749 9.1499H17.7749C17.9999 9.1499 18.1499 9.2999 18.1499 9.5249V10.5506C18.6802 10.6966 19.1833 10.9084 19.6499 11.1766V6.1499C19.6499 5.3249 18.9749 4.6499 18.1499 4.6499Z" />
<circle cx="16.4254" cy="16.7984" r="4.65" stroke="#252A31" stroke-width="1.5"/>
</svg>