<!--character:5952-->
  <svg width="24" height="24" viewBox="0 0 24 24" >
<path d="M7.4167 10.75H8.25003C8.75003 10.75 9.08337 11.15 9.08337 11.75C9.08337 12.35 8.75003 12.75 8.25003 12.75H7.4167C6.9167 12.75 6.58337 12.35 6.58337 11.75C6.58337 11.15 6.9167 10.75 7.4167 10.75Z" />
<path d="M11.5834 10.75H12.4167C12.9167 10.75 13.25 11.15 13.25 11.75C13.25 12.35 12.9167 12.75 12.4167 12.75H11.5834C11.0834 12.75 10.75 12.35 10.75 11.75C10.75 11.15 11.0834 10.75 11.5834 10.75Z" />
<path d="M16.5834 10.75H15.75C15.25 10.75 14.9167 11.15 14.9167 11.75C14.9167 12.35 15.25 12.75 15.75 12.75H16.5834C17.0834 12.75 17.4167 12.35 17.4167 11.75C17.4167 11.15 17.0834 10.75 16.5834 10.75Z" />
<path d="M19.9167 4.49999H17.5834C17.5 4.49999 17.4167 4.41665 17.4167 4.33332V2.83332C17.4167 2.33332 17.0834 1.99999 16.5834 1.99999C16.0834 1.99999 15.75 2.33332 15.75 2.83332V6.83332C15.75 7.16665 15.5 7.49999 15.0834 7.49999C14.75 7.49999 14.4167 7.24999 14.4167 6.83332V4.91665C14.5 4.66665 14.3334 4.49999 14.0834 4.49999H8.83337C8.75003 4.49999 8.6667 4.41665 8.6667 4.33332V2.83332C8.6667 2.33332 8.33337 1.99999 7.83337 1.99999C7.33337 1.99999 7.00003 2.33332 7.00003 2.83332V6.83332C7.00003 7.16665 6.75003 7.49999 6.33337 7.49999C6.00003 7.49999 5.6667 7.24999 5.6667 6.83332V4.91665C5.75003 4.66665 5.58337 4.49999 5.33337 4.49999H4.08337C3.1667 4.49999 2.4167 5.24999 2.4167 6.16665V20.3333C2.4167 21.25 3.1667 22 4.08337 22H19.9167C20.8334 22 21.5834 21.25 21.5834 20.3333V6.16665C21.5834 5.24999 20.8334 4.49999 19.9167 4.49999ZM19.5 20.3333H4.50003C4.25003 20.3333 4.08337 20.1667 4.08337 19.9167V9.91665C4.08337 9.66665 4.25003 9.49999 4.50003 9.49999H19.5C19.75 9.49999 19.9167 9.66665 19.9167 9.91665V19.9167C19.9167 20.1667 19.75 20.3333 19.5 20.3333Z" />
</svg>