<!--character:4527-->
  <svg width="24" height="24" viewBox="0 0 24 24" >
<path d="M12 10.3333C9.46873 10.3333 7.4167 12.3853 7.4167 14.9167C7.4167 17.448 9.46873 19.5 12 19.5C14.5313 19.5 16.5834 17.448 16.5834 14.9167C16.5806 12.3865 14.5302 10.3361 12 10.3333ZM13.9167 15.9475C14.1613 16.1921 14.1613 16.5887 13.9167 16.8333C13.6721 17.0779 13.2755 17.0779 13.0309 16.8333L12.1475 15.9492C12.0658 15.8685 11.9343 15.8685 11.8525 15.9492L10.9692 16.8333C10.7248 17.0779 10.3284 17.0781 10.0838 16.8337C9.83917 16.5894 9.83898 16.1929 10.0834 15.9483L10.9675 15.065C11.0482 14.9832 11.0482 14.8518 10.9675 14.77L10.0834 13.8867C9.92498 13.7284 9.86304 13.4977 9.92089 13.2814C9.97873 13.0651 10.1476 12.8961 10.3638 12.8381C10.58 12.78 10.8108 12.8417 10.9692 13L11.8525 13.8842C11.9343 13.9648 12.0658 13.9648 12.1475 13.8842L13.0309 13C13.2757 12.7554 13.6725 12.7556 13.9171 13.0004C14.1617 13.2453 14.1615 13.642 13.9167 13.8867L13.0325 14.77C12.9518 14.8518 12.9518 14.9832 13.0325 15.065L13.9167 15.9475Z" />
<path d="M21.5834 6.16665C21.5834 5.24618 20.8372 4.49999 19.9167 4.49999H17.625C17.51 4.49999 17.4167 4.40671 17.4167 4.29165V2.83332C17.4167 2.37308 17.0436 1.99999 16.5834 1.99999C16.1231 1.99999 15.75 2.37308 15.75 2.83332V6.79165C15.75 7.13683 15.4702 7.41665 15.125 7.41665C14.7799 7.41665 14.5 7.13683 14.5 6.79165V4.91665C14.5 4.68654 14.3135 4.49999 14.0834 4.49999H8.87503C8.7603 4.49999 8.66716 4.40722 8.6667 4.29249V2.83332C8.6667 2.37308 8.2936 1.99999 7.83337 1.99999C7.37313 1.99999 7.00003 2.37308 7.00003 2.83332V6.79165C7.00003 7.13683 6.72021 7.41665 6.37503 7.41665C6.02985 7.41665 5.75003 7.13683 5.75003 6.79165V4.91665C5.75003 4.68654 5.56348 4.49999 5.33337 4.49999H4.08337C3.16289 4.49999 2.4167 5.24618 2.4167 6.16665V20.3333C2.4167 21.2538 3.16289 22 4.08337 22H19.9167C20.8372 22 21.5834 21.2538 21.5834 20.3333V6.16665ZM19.9167 19.9167C19.9167 20.1468 19.7301 20.3333 19.5 20.3333H4.50003C4.26991 20.3333 4.08337 20.1468 4.08337 19.9167V9.91665C4.08337 9.68654 4.26991 9.49999 4.50003 9.49999H19.5C19.7301 9.49999 19.9167 9.68654 19.9167 9.91665V19.9167Z" />
</svg>