<!--character:5784-->
  <svg width="20" height="20" viewBox="0 0 20 20" >
<path d="M6.18034 8.95833H6.87478C7.29145 8.95833 7.56923 9.29166 7.56923 9.79166C7.56923 10.2917 7.29145 10.625 6.87478 10.625H6.18034C5.76367 10.625 5.48589 10.2917 5.48589 9.79166C5.48589 9.29166 5.76367 8.95833 6.18034 8.95833Z" />
<path d="M9.65256 8.95833H10.347C10.7637 8.95833 11.0414 9.29166 11.0414 9.79166C11.0414 10.2917 10.7637 10.625 10.347 10.625H9.65256C9.23589 10.625 8.95812 10.2917 8.95812 9.79166C8.95812 9.29166 9.23589 8.95833 9.65256 8.95833Z" />
<path d="M13.8192 8.95833H13.1248C12.7081 8.95833 12.4303 9.29166 12.4303 9.79166C12.4303 10.2917 12.7081 10.625 13.1248 10.625H13.8192C14.2359 10.625 14.5137 10.2917 14.5137 9.79166C14.5137 9.29166 14.2359 8.95833 13.8192 8.95833Z" />
<path d="M16.597 3.75H14.6526C14.5831 3.75 14.5137 3.68055 14.5137 3.61111V2.36111C14.5137 1.94444 14.2359 1.66666 13.8192 1.66666C13.4026 1.66666 13.1248 1.94444 13.1248 2.36111V5.69444C13.1248 5.97222 12.9164 6.25 12.5692 6.25C12.2914 6.25 12.0137 6.04166 12.0137 5.69444V4.09722C12.0831 3.88889 11.9442 3.75 11.7359 3.75H7.36089C7.29145 3.75 7.222 3.68055 7.222 3.61111V2.36111C7.222 1.94444 6.94423 1.66666 6.52756 1.66666C6.11089 1.66666 5.83312 1.94444 5.83312 2.36111V5.69444C5.83312 5.97222 5.62478 6.25 5.27756 6.25C4.99978 6.25 4.72201 6.04166 4.72201 5.69444V4.09722C4.79145 3.88889 4.65256 3.75 4.44423 3.75H3.40256C2.63867 3.75 2.01367 4.375 2.01367 5.13889V16.9444C2.01367 17.7083 2.63867 18.3333 3.40256 18.3333H16.597C17.3609 18.3333 17.9859 17.7083 17.9859 16.9444V5.13889C17.9859 4.375 17.3609 3.75 16.597 3.75ZM16.2498 16.9444H3.74978C3.54145 16.9444 3.40256 16.8056 3.40256 16.5972V8.26389C3.40256 8.05555 3.54145 7.91666 3.74978 7.91666H16.2498C16.4581 7.91666 16.597 8.05555 16.597 8.26389V16.5972C16.597 16.8056 16.4581 16.9444 16.2498 16.9444Z" />
</svg>