<!-- character:0:1235 -->
  <svg width="20" height="20" viewBox="0 0 20 20" >
<path   d="M16.5972 3.75008H14.6528C14.5834 3.75008 14.5139 3.68064 14.5139 3.61119V2.36119C14.5139 1.94453 14.2361 1.66675 13.8195 1.66675C13.4028 1.66675 13.125 1.94453 13.125 2.36119V5.69453C13.125 5.9723 12.9167 6.25008 12.5695 6.25008C12.2917 6.25008 12.0139 6.04175 12.0139 5.69453V4.0973C12.0834 3.88897 11.9445 3.75008 11.7361 3.75008H7.36114C7.29169 3.75008 7.22225 3.68064 7.22225 3.61119V2.36119C7.22225 1.94453 6.94447 1.66675 6.5278 1.66675C6.11114 1.66675 5.83336 1.94453 5.83336 2.36119V5.69453C5.83336 5.9723 5.62503 6.25008 5.2778 6.25008C5.00003 6.25008 4.72225 6.04175 4.72225 5.69453V4.0973C4.79169 3.88897 4.6528 3.75008 4.44447 3.75008H3.4028C2.63892 3.75008 2.01392 4.37508 2.01392 5.13897V16.9445C2.01392 17.7084 2.63892 18.3334 3.4028 18.3334H16.5972C17.3611 18.3334 17.9861 17.7084 17.9861 16.9445V5.13897C17.9861 4.37508 17.3611 3.75008 16.5972 3.75008ZM11.4588 11.6669V10.3474C11.4588 9.72237 12.2227 9.44389 12.6387 9.86126L14.7922 12.0141C15.0693 12.2919 15.0693 12.7086 14.7922 12.9864L12.6387 15.1392C12.2227 15.5559 11.4588 15.2781 11.4588 14.6531V13.3336C11.4588 13.2641 11.3893 13.1947 11.3199 13.1947H8.68018C8.61073 13.1947 8.54128 13.2641 8.54128 13.3336V14.6531C8.54128 15.2781 7.77737 15.5559 7.36139 15.1392L5.20785 12.9864C4.93075 12.7086 4.93075 12.2919 5.20785 12.0141L7.36139 9.86126C7.77737 9.44389 8.54128 9.72237 8.54128 10.3474V11.6669C8.54128 11.7363 8.61073 11.8058 8.68018 11.8058H11.3199C11.3893 11.8058 11.4588 11.7363 11.4588 11.6669ZM3.75003 16.9445H16.25C16.4584 16.9445 16.5972 16.8056 16.5972 16.5973V8.26397C16.5972 8.05564 16.4584 7.91675 16.25 7.91675H3.75003C3.54169 7.91675 3.4028 8.05564 3.4028 8.26397V16.5973C3.4028 16.8056 3.54169 16.9445 3.75003 16.9445Z" />
</svg>