<!--character:3556-->
  <svg width="24" height="24" viewBox="0 0 24 24" >
<path d="M19.9167 4.49999H17.5834C17.5 4.49999 17.4167 4.41665 17.4167 4.33332V2.83332C17.4167 2.33332 17.0834 1.99999 16.5834 1.99999C16.0834 1.99999 15.75 2.33332 15.75 2.83332V6.83332C15.75 7.16665 15.5 7.49999 15.0834 7.49999C14.75 7.49999 14.4167 7.24999 14.4167 6.83332V4.91665C14.5 4.66665 14.3334 4.49999 14.0834 4.49999H8.83337C8.75003 4.49999 8.6667 4.41665 8.6667 4.33332V2.83332C8.6667 2.33332 8.33337 1.99999 7.83337 1.99999C7.33337 1.99999 7.00003 2.33332 7.00003 2.83332V6.83332C7.00003 7.16665 6.75003 7.49999 6.33337 7.49999C6.00003 7.49999 5.6667 7.24999 5.6667 6.83332V4.91665C5.75003 4.66665 5.58337 4.49999 5.33337 4.49999H4.08337C3.1667 4.49999 2.4167 5.24999 2.4167 6.16665V20.3333C2.4167 21.25 3.1667 22 4.08337 22H19.9167C20.8334 22 21.5834 21.25 21.5834 20.3333V6.16665C21.5834 5.24999 20.8334 4.49999 19.9167 4.49999ZM13.7505 14.0001V12.4168C13.7505 11.6667 14.6672 11.3326 15.1664 11.8334L17.7506 14.4168C18.0832 14.7502 18.0832 15.2502 17.7506 15.5835L15.1664 18.1669C14.6672 18.667 13.7505 18.3336 13.7505 17.5836V16.0002C13.7505 15.9169 13.6672 15.8335 13.5839 15.8335H10.4162C10.3329 15.8335 10.2495 15.9169 10.2495 16.0002V17.5836C10.2495 18.3336 9.33285 18.667 8.83366 18.1669L6.24942 15.5835C5.91691 15.2502 5.91691 14.7502 6.24942 14.4168L8.83366 11.8334C9.33285 11.3326 10.2495 11.6667 10.2495 12.4168V14.0001C10.2495 14.0835 10.3329 14.1668 10.4162 14.1668H13.5839C13.6672 14.1668 13.7505 14.0835 13.7505 14.0001ZM4.50003 20.3333C4.25003 20.3333 4.08337 20.1667 4.08337 19.9167V9.91665C4.08337 9.66665 4.25003 9.49999 4.50003 9.49999H19.5C19.75 9.49999 19.9167 9.66665 19.9167 9.91665V19.9167C19.9167 20.1667 19.75 20.3333 19.5 20.3333H4.50003Z" />
</svg>