<!--character:2629-->
  <svg width="24" height="24" viewBox="0 0 24 24" >
<path d="M7.41677 10.75H8.2501C8.7501 10.75 9.08343 11.15 9.08343 11.75C9.08343 12.35 8.7501 12.75 8.2501 12.75H7.41677C6.91677 12.75 6.58344 12.35 6.58344 11.75C6.58344 11.15 6.91677 10.75 7.41677 10.75Z" />
<path d="M11.5834 10.75H12.4167C12.9167 10.75 13.2501 11.15 13.2501 11.75C13.2501 12.35 12.9167 12.75 12.4167 12.75H11.5834C11.0834 12.75 10.7501 12.35 10.7501 11.75C10.7501 11.15 11.0834 10.75 11.5834 10.75Z" />
<path d="M16.5834 10.75H15.7501C15.2501 10.75 14.9167 11.15 14.9167 11.75C14.9167 12.35 15.2501 12.75 15.7501 12.75H16.5834C17.0834 12.75 17.4167 12.35 17.4167 11.75C17.4167 11.15 17.0834 10.75 16.5834 10.75Z" />
<path d="M19.9167 4.5H17.5834C17.5001 4.5 17.4167 4.41667 17.4167 4.33333V2.83333C17.4167 2.33333 17.0834 2 16.5834 2C16.0834 2 15.7501 2.33333 15.7501 2.83333V6.83333C15.7501 7.16667 15.5001 7.5 15.0834 7.5C14.7501 7.5 14.4167 7.25 14.4167 6.83333V4.91667C14.5001 4.66667 14.3334 4.5 14.0834 4.5H8.83341C8.75008 4.5 8.66675 4.41667 8.66675 4.33333V2.83333C8.66675 2.33333 8.33341 2 7.83341 2C7.33341 2 7.00008 2.33333 7.00008 2.83333V6.83333C7.00008 7.16667 6.75008 7.5 6.33341 7.5C6.00008 7.5 5.66675 7.25 5.66675 6.83333V4.91667C5.75008 4.66667 5.58341 4.5 5.33341 4.5H4.08341C3.16675 4.5 2.41675 5.25 2.41675 6.16667V20.3333C2.41675 21.25 3.16675 22 4.08341 22H19.9167C20.8334 22 21.5834 21.25 21.5834 20.3333V6.16667C21.5834 5.25 20.8334 4.5 19.9167 4.5ZM19.5001 20.3333H4.5001C4.2501 20.3333 4.08344 20.1667 4.08344 19.9167V9.91667C4.08344 9.66667 4.2501 9.5 4.5001 9.5H19.5001C19.7501 9.5 19.9168 9.66667 19.9168 9.91667V19.9167C19.9168 20.1667 19.7501 20.3333 19.5001 20.3333Z" />
</svg>