<!-- character:0:1245 -->
  <svg width="20" height="20" viewBox="0 0 20 20" >
<path   d="M17.9861 5.13897C17.9861 4.37191 17.3643 3.75008 16.5972 3.75008H14.6875C14.5916 3.75008 14.5139 3.67235 14.5139 3.57647V2.36119C14.5139 1.97766 14.203 1.66675 13.8195 1.66675C13.4359 1.66675 13.125 1.97766 13.125 2.36119V5.6598C13.125 5.94745 12.8918 6.18064 12.6042 6.18064C12.3165 6.18064 12.0834 5.94745 12.0834 5.6598V4.0973C12.0834 3.90554 11.9279 3.75008 11.7361 3.75008H7.39586C7.30025 3.75008 7.22263 3.67278 7.22225 3.57716V2.36119C7.22225 1.97766 6.91134 1.66675 6.5278 1.66675C6.14427 1.66675 5.83336 1.97766 5.83336 2.36119V5.6598C5.83336 5.94745 5.60018 6.18064 5.31253 6.18064C5.02488 6.18064 4.79169 5.94745 4.79169 5.6598V4.0973C4.79169 3.90554 4.63624 3.75008 4.44447 3.75008H3.4028C2.63574 3.75008 2.01392 4.37191 2.01392 5.13897V16.9445C2.01392 17.7116 2.63574 18.3334 3.4028 18.3334H16.5972C17.3643 18.3334 17.9861 17.7116 17.9861 16.9445V5.13897ZM16.5972 16.5973C16.5972 16.7891 16.4418 16.9445 16.25 16.9445H3.75003C3.55826 16.9445 3.40281 16.7891 3.40281 16.5973V8.26397C3.40281 8.0722 3.55826 7.91675 3.75003 7.91675H16.25C16.4418 7.91675 16.5972 8.0722 16.5972 8.26397V16.5973ZM10 8.61119C7.89061 8.61119 6.18058 10.3212 6.18058 12.4306C6.18058 14.5401 7.89061 16.2501 10 16.2501C12.1094 16.2501 13.8195 14.5401 13.8195 12.4306C13.8172 10.3222 12.1085 8.61349 10 8.61119ZM11.5972 13.2897C11.8011 13.4935 11.8011 13.824 11.5972 14.0279C11.3934 14.2317 11.0629 14.2317 10.8591 14.0279L10.1229 13.2911C10.0548 13.2238 9.94526 13.2238 9.87711 13.2911L9.141 14.0279C8.93734 14.2317 8.607 14.2319 8.40315 14.0282C8.19931 13.8246 8.19915 13.4942 8.40281 13.2904L9.13961 12.5542C9.20686 12.4861 9.20686 12.3766 9.13961 12.3084L8.40281 11.5723C8.27082 11.4404 8.2192 11.2482 8.26741 11.0679C8.31561 10.8877 8.45631 10.7469 8.6365 10.6985C8.8167 10.6501 9.00901 10.7015 9.141 10.8334L9.87711 11.5702C9.94526 11.6375 10.0548 11.6375 10.1229 11.5702L10.8591 10.8334C11.0631 10.6296 11.3938 10.6297 11.5976 10.8338C11.8014 11.0378 11.8013 11.3685 11.5972 11.5723L10.8604 12.3084C10.7932 12.3766 10.7932 12.4861 10.8604 12.5542L11.5972 13.2897Z" />
</svg>