<!--character:3075-->
  <svg width="24" height="24" viewBox="0 0 24 24" >
<path   d="M16.4066 13.8086C16.8374 13.8086 17.1866 14.1578 17.1866 14.5886V16.4255L18.5782 17.817C18.8828 18.1216 18.8828 18.6155 18.5782 18.9201C18.2736 19.2247 17.7797 19.2247 17.4751 18.9201L15.8551 17.3001C15.7088 17.1538 15.6266 16.9554 15.6266 16.7486V14.5886C15.6266 14.1578 15.9759 13.8086 16.4066 13.8086Z" />
<path d="M18.1313 4.6001H16.0313C15.9563 4.6001 15.8813 4.5251 15.8813 4.4501V3.1001C15.8813 2.6501 15.5813 2.3501 15.1313 2.3501C14.6813 2.3501 14.3813 2.6501 14.3813 3.1001V6.7001C14.3813 7.0001 14.1563 7.3001 13.7813 7.3001C13.4813 7.3001 13.1813 7.0751 13.1813 6.7001V4.9751C13.2563 4.7501 13.1063 4.6001 12.8813 4.6001H8.15635C8.08135 4.6001 8.00635 4.5251 8.00635 4.4501V3.1001C8.00635 2.6501 7.70635 2.3501 7.25635 2.3501C6.80635 2.3501 6.50635 2.6501 6.50635 3.1001V6.7001C6.50635 7.0001 6.28135 7.3001 5.90635 7.3001C5.60635 7.3001 5.30635 7.0751 5.30635 6.7001V4.9751C5.38135 4.7501 5.23135 4.6001 5.00635 4.6001H3.88135C3.05635 4.6001 2.38135 5.2751 2.38135 6.1001V18.8501C2.38135 19.6751 3.05635 20.3501 3.88135 20.3501H10.8745C10.5724 19.8871 10.327 19.3838 10.1479 18.8501H4.25635C4.03135 18.8501 3.88135 18.7001 3.88135 18.4751V9.4751C3.88135 9.2501 4.03135 9.1001 4.25635 9.1001H17.7564C17.9814 9.1001 18.1313 9.2501 18.1313 9.4751V10.3766C18.6607 10.5196 19.1636 10.7267 19.6313 10.9892V6.1001C19.6313 5.2751 18.9563 4.6001 18.1313 4.6001Z" />
<path   d="M16.4066 20.5886C18.5274 20.5886 20.2466 18.8694 20.2466 16.7486C20.2466 14.6279 18.5274 12.9086 16.4066 12.9086C14.2859 12.9086 12.5666 14.6279 12.5666 16.7486C12.5666 18.8694 14.2859 20.5886 16.4066 20.5886ZM16.4066 22.1486C19.389 22.1486 21.8066 19.731 21.8066 16.7486C21.8066 13.7663 19.389 11.3486 16.4066 11.3486C13.4243 11.3486 11.0066 13.7663 11.0066 16.7486C11.0066 19.731 13.4243 22.1486 16.4066 22.1486Z" />
</svg>