<!-- character:0:1219 -->
  <svg width="20" height="20" viewBox="0 0 20 20" >
<path   d="M16.5972 3.75008H14.6528C14.5834 3.75008 14.5139 3.68064 14.5139 3.61119V2.36119C14.5139 1.94453 14.2361 1.66675 13.8195 1.66675C13.4028 1.66675 13.125 1.94453 13.125 2.36119V5.69453C13.125 5.9723 12.9167 6.25008 12.5695 6.25008C12.2917 6.25008 12.0139 6.04175 12.0139 5.69453V4.0973C12.0834 3.88897 11.9445 3.75008 11.7361 3.75008H7.36114C7.29169 3.75008 7.22225 3.68064 7.22225 3.61119V2.36119C7.22225 1.94453 6.94447 1.66675 6.5278 1.66675C6.11114 1.66675 5.83336 1.94453 5.83336 2.36119V5.69453C5.83336 5.9723 5.62503 6.25008 5.2778 6.25008C5.00003 6.25008 4.72225 6.04175 4.72225 5.69453V4.0973C4.79169 3.88897 4.6528 3.75008 4.44447 3.75008H3.4028C2.63892 3.75008 2.01392 4.37508 2.01392 5.13897V16.9445C2.01392 17.7084 2.63892 18.3334 3.4028 18.3334H16.5972C17.3611 18.3334 17.9861 17.7084 17.9861 16.9445V5.13897C17.9861 4.37508 17.3611 3.75008 16.5972 3.75008ZM16.25 16.9445H3.75003C3.54169 16.9445 3.40281 16.8056 3.40281 16.5973V8.26397C3.40281 8.05564 3.54169 7.91675 3.75003 7.91675H16.25C16.4584 7.91675 16.5972 8.05564 16.5972 8.26397V16.5973C16.5972 16.8056 16.4584 16.9445 16.25 16.9445ZM6.18058 8.95841H6.87503C7.29169 8.95841 7.56947 9.29175 7.56947 9.79175C7.56947 10.2917 7.29169 10.6251 6.87503 10.6251H6.18058C5.76392 10.6251 5.48614 10.2917 5.48614 9.79175C5.48614 9.29175 5.76392 8.95841 6.18058 8.95841ZM9.6528 8.95841H10.3472C10.7639 8.95841 11.0417 9.29175 11.0417 9.79175C11.0417 10.2917 10.7639 10.6251 10.3472 10.6251H9.6528C9.23614 10.6251 8.95836 10.2917 8.95836 9.79175C8.95836 9.29175 9.23614 8.95841 9.6528 8.95841ZM13.8195 8.95841H13.125C12.7084 8.95841 12.4306 9.29175 12.4306 9.79175C12.4306 10.2917 12.7084 10.6251 13.125 10.6251H13.8195C14.2361 10.6251 14.5139 10.2917 14.5139 9.79175C14.5139 9.29175 14.2361 8.95841 13.8195 8.95841Z" />
</svg>