<!--character:6054-->
  <svg width="24" height="24" viewBox="0 0 24 24" >
<path d="M11.9997 10.3333C9.46844 10.3333 7.41641 12.3854 7.41641 14.9167C7.41641 17.448 9.46844 19.5 11.9997 19.5C14.531 19.5 16.5831 17.448 16.5831 14.9167C16.5803 12.3865 14.5299 10.3361 11.9997 10.3333ZM13.9164 15.9475C14.161 16.1921 14.161 16.5887 13.9164 16.8333C13.6718 17.0779 13.2752 17.0779 13.0306 16.8333L12.1472 15.9492C12.0655 15.8685 11.934 15.8685 11.8522 15.9492L10.9689 16.8333C10.7245 17.0779 10.3281 17.0781 10.0835 16.8337C9.83887 16.5894 9.83869 16.1929 10.0831 15.9483L10.9672 15.065C11.0479 14.9832 11.0479 14.8518 10.9672 14.77L10.0831 13.8867C9.92469 13.7284 9.86275 13.4977 9.92059 13.2814C9.97844 13.0651 10.1473 12.8961 10.3635 12.8381C10.5797 12.78 10.8105 12.8418 10.9689 13L11.8522 13.8842C11.934 13.9649 12.0655 13.9649 12.1472 13.8842L13.0306 13C13.2754 12.7554 13.6722 12.7556 13.9168 13.0004C14.1614 13.2453 14.1613 13.642 13.9164 13.8867L13.0322 14.77C12.9515 14.8518 12.9515 14.9832 13.0322 15.065L13.9164 15.9475Z" />
<path d="M21.5831 6.16666C21.5831 5.24619 20.8369 4.5 19.9164 4.5H17.6247C17.5097 4.5 17.4164 4.40672 17.4164 4.29166V2.83333C17.4164 2.37309 17.0433 2 16.5831 2C16.1228 2 15.7497 2.37309 15.7497 2.83333V6.79166C15.7497 7.13684 15.4699 7.41666 15.1247 7.41666C14.7796 7.41666 14.4997 7.13684 14.4997 6.79166V4.91666C14.4997 4.68655 14.3132 4.5 14.0831 4.5H8.87474C8.76 4.5 8.66686 4.40723 8.66641 4.2925V2.83333C8.66641 2.37309 8.29331 2 7.83307 2C7.37284 2 6.99974 2.37309 6.99974 2.83333V6.79166C6.99974 7.13684 6.71992 7.41666 6.37474 7.41666C6.02956 7.41666 5.74974 7.13684 5.74974 6.79166V4.91666C5.74974 4.68655 5.56319 4.5 5.33307 4.5H4.08307C3.1626 4.5 2.41641 5.24619 2.41641 6.16666V20.3333C2.41641 21.2538 3.1626 22 4.08307 22H19.9164C20.8369 22 21.5831 21.2538 21.5831 20.3333V6.16666ZM19.9164 19.9167C19.9164 20.1468 19.7299 20.3333 19.4997 20.3333H4.49974C4.26962 20.3333 4.08307 20.1468 4.08307 19.9167V9.91666C4.08307 9.68654 4.26962 9.5 4.49974 9.5H19.4997C19.7299 9.5 19.9164 9.68654 19.9164 9.91666V19.9167Z" />
</svg>