<!--character:462-->
  <svg width="24" height="24" viewBox="0 0 24 24" >
<path d="M9.16157 3.98492C9.16157 3.48787 8.75863 3.08492 8.26157 3.08492C7.76452 3.08492 7.36157 3.48787 7.36157 3.98492V5.22228H5.05554C4.63089 5.22228 4.25256 5.33103 3.93848 5.54041C3.63004 5.74604 3.43564 6.01377 3.31547 6.25412C3.19705 6.49095 3.14233 6.71688 3.11581 6.87601C3.10219 6.95771 3.09504 7.02776 3.09124 7.08091C3.08933 7.10764 3.08824 7.13053 3.08763 7.14897L3.08701 7.17337L3.0869 7.18304L3.08687 7.18722L3.08687 7.18914L3.08687 18.9464C3.08687 19.3711 3.19562 19.7494 3.405 20.0635C3.61063 20.3719 3.87836 20.5663 4.11871 20.6865C4.35554 20.8049 4.58147 20.8596 4.7406 20.8861C4.8223 20.8997 4.89235 20.9069 4.9455 20.9107C4.97223 20.9126 4.99512 20.9137 5.01356 20.9143L5.03796 20.9149L5.04762 20.915L5.0518 20.9151L5.05554 20.9151H18.9483C19.373 20.9151 19.7513 20.8063 20.0654 20.5969C20.3738 20.3913 20.5682 20.1236 20.6884 19.8832C20.8068 19.6464 20.8616 19.4205 20.8881 19.2613C20.9017 19.1796 20.9088 19.1096 20.9126 19.0564C20.9146 19.0297 20.9156 19.0068 20.9163 18.9884L20.9169 18.964L20.917 18.9543L20.917 18.9501L20.917 18.9464V7.19095C20.917 6.7663 20.8083 6.38797 20.5989 6.0739C20.3933 5.76545 20.1255 5.57105 19.8852 5.45088C19.6483 5.33246 19.4224 5.27774 19.2633 5.25122C19.1816 5.2376 19.1115 5.23045 19.0584 5.22665C19.0317 5.22474 19.0088 5.22365 18.9903 5.22304L18.9659 5.22243L18.9563 5.22231L18.9521 5.22229L18.9502 5.22228L18.9483 5.22228H16.6423V3.98492C16.6423 3.48787 16.2394 3.08492 15.7423 3.08492C15.2453 3.08492 14.8423 3.48787 14.8423 3.98492V5.22228H9.16157V3.98492ZM7.36157 7.02228V7.72529C7.36157 8.22235 7.76452 8.62529 8.26157 8.62529C8.75863 8.62529 9.16157 8.22235 9.16157 7.72529V7.02228H14.8423V7.72529C14.8423 8.22235 15.2453 8.62529 15.7423 8.62529C16.2394 8.62529 16.6423 8.22235 16.6423 7.72529V7.02228H18.9327C18.9391 7.02281 18.9514 7.02406 18.9674 7.02673C19.0086 7.0336 19.0498 7.04568 19.0802 7.06085C19.0921 7.06682 19.0987 7.07132 19.1017 7.07378C19.1066 7.08563 19.117 7.12007 19.117 7.19095V9.49698H4.88687V7.20658C4.8874 7.20015 4.88865 7.18793 4.89132 7.17193C4.89819 7.13069 4.91026 7.08945 4.92543 7.05911C4.93141 7.04715 4.93591 7.04064 4.93837 7.03756C4.95022 7.03265 4.98466 7.02228 5.05554 7.02228H7.36157ZM19.117 11.297V18.9308C19.1165 18.9372 19.1152 18.9494 19.1126 18.9654C19.1057 19.0067 19.0936 19.0479 19.0784 19.0782C19.0725 19.0902 19.068 19.0967 19.0655 19.0998C19.0537 19.1047 19.0192 19.1151 18.9483 19.1151H5.07117C5.06473 19.1145 5.05252 19.1133 5.03652 19.1106C4.99528 19.1037 4.95404 19.0917 4.9237 19.0765C4.91174 19.0705 4.90523 19.066 4.90214 19.0636C4.89724 19.0517 4.88687 19.0173 4.88687 18.9464V11.297H19.117Z" />
</svg>