<!--character:8143-->
  <svg width="20" height="20" viewBox="0 0 20 20" >
<path d="M9.99978 8.61111C7.89036 8.61111 6.18034 10.3211 6.18034 12.4306C6.18034 14.54 7.89036 16.25 9.99978 16.25C12.1092 16.25 13.8192 14.54 13.8192 12.4306C13.8169 10.3221 12.1083 8.6134 9.99978 8.61111ZM11.597 13.2896C11.8009 13.4934 11.8009 13.8239 11.597 14.0278C11.3932 14.2316 11.0627 14.2316 10.8588 14.0278L10.1227 13.291C10.0546 13.2237 9.94501 13.2237 9.87687 13.291L9.14076 14.0278C8.9371 14.2316 8.60676 14.2318 8.40291 14.0281C8.19906 13.8245 8.19891 13.4941 8.40256 13.2903L9.13937 12.5542C9.20661 12.486 9.20661 12.3765 9.13937 12.3083L8.40256 11.5722C8.27057 11.4404 8.21896 11.2481 8.26716 11.0679C8.31537 10.8876 8.45606 10.7468 8.63626 10.6984C8.81645 10.65 9.00877 10.7015 9.14076 10.8333L9.87687 11.5701C9.94501 11.6374 10.0546 11.6374 10.1227 11.5701L10.8588 10.8333C11.0628 10.6295 11.3935 10.6296 11.5974 10.8337C11.8012 11.0377 11.801 11.3684 11.597 11.5722L10.8602 12.3083C10.793 12.3765 10.793 12.486 10.8602 12.5542L11.597 13.2896Z" />
<path d="M17.9859 5.13889C17.9859 4.37182 17.3641 3.75 16.597 3.75H14.6873C14.5914 3.75 14.5137 3.67227 14.5137 3.57639V2.36111C14.5137 1.97758 14.2028 1.66666 13.8192 1.66666C13.4357 1.66666 13.1248 1.97758 13.1248 2.36111V5.65972C13.1248 5.94737 12.8916 6.18055 12.6039 6.18055C12.3163 6.18055 12.0831 5.94737 12.0831 5.65972V4.09722C12.0831 3.90545 11.9277 3.75 11.7359 3.75H7.39562C7.3 3.75 7.22239 3.67269 7.222 3.57708V2.36111C7.222 1.97758 6.91109 1.66666 6.52756 1.66666C6.14403 1.66666 5.83312 1.97758 5.83312 2.36111V5.65972C5.83312 5.94737 5.59993 6.18055 5.31228 6.18055C5.02463 6.18055 4.79145 5.94737 4.79145 5.65972V4.09722C4.79145 3.90545 4.63599 3.75 4.44423 3.75H3.40256C2.6355 3.75 2.01367 4.37182 2.01367 5.13889V16.9444C2.01367 17.7115 2.6355 18.3333 3.40256 18.3333H16.597C17.3641 18.3333 17.9859 17.7115 17.9859 16.9444V5.13889ZM16.597 16.5972C16.597 16.789 16.4415 16.9444 16.2498 16.9444H3.74978C3.55802 16.9444 3.40256 16.789 3.40256 16.5972V8.26389C3.40256 8.07212 3.55802 7.91666 3.74978 7.91666H16.2498C16.4415 7.91666 16.597 8.07212 16.597 8.26389V16.5972Z" />
</svg>