<!--character:3319-->
  <svg width="20" height="20" viewBox="0 0 20 20" >
<path d="M16.597 3.75H14.6526C14.5831 3.75 14.5137 3.68055 14.5137 3.61111V2.36111C14.5137 1.94444 14.2359 1.66666 13.8192 1.66666C13.4026 1.66666 13.1248 1.94444 13.1248 2.36111V5.69444C13.1248 5.97222 12.9164 6.25 12.5692 6.25C12.2914 6.25 12.0137 6.04166 12.0137 5.69444V4.09722C12.0831 3.88889 11.9442 3.75 11.7359 3.75H7.36089C7.29145 3.75 7.222 3.68055 7.222 3.61111V2.36111C7.222 1.94444 6.94423 1.66666 6.52756 1.66666C6.11089 1.66666 5.83312 1.94444 5.83312 2.36111V5.69444C5.83312 5.97222 5.62478 6.25 5.27756 6.25C4.99978 6.25 4.72201 6.04166 4.72201 5.69444V4.09722C4.79145 3.88889 4.65256 3.75 4.44423 3.75H3.40256C2.63867 3.75 2.01367 4.375 2.01367 5.13889V16.9444C2.01367 17.7083 2.63867 18.3333 3.40256 18.3333H16.597C17.3609 18.3333 17.9859 17.7083 17.9859 16.9444V5.13889C17.9859 4.375 17.3609 3.75 16.597 3.75ZM11.4585 11.6668V10.3473C11.4585 9.72229 12.2224 9.44381 12.6384 9.86118L14.792 12.014C15.0691 12.2918 15.0691 12.7085 14.792 12.9863L12.6384 15.1391C12.2224 15.5558 11.4585 15.278 11.4585 14.653V13.3335C11.4585 13.2641 11.3891 13.1946 11.3196 13.1946H8.67993C8.61049 13.1946 8.54104 13.2641 8.54104 13.3335V14.653C8.54104 15.278 7.77713 15.5558 7.36114 15.1391L5.2076 12.9863C4.93051 12.7085 4.93051 12.2918 5.2076 12.014L7.36114 9.86118C7.77713 9.44381 8.54104 9.72229 8.54104 10.3473V11.6668C8.54104 11.7362 8.61049 11.8057 8.67993 11.8057H11.3196C11.3891 11.8057 11.4585 11.7362 11.4585 11.6668ZM3.74978 16.9444C3.54145 16.9444 3.40256 16.8056 3.40256 16.5972V8.26389C3.40256 8.05555 3.54145 7.91666 3.74978 7.91666H16.2498C16.4581 7.91666 16.597 8.05555 16.597 8.26389V16.5972C16.597 16.8056 16.4581 16.9444 16.2498 16.9444H3.74978Z" />
</svg>