<!--character:4904-->
  <svg width="24" height="24" viewBox="0 0 24 24" >
<path d="M16.4253 13.8585C16.8561 13.8585 17.2053 14.2077 17.2053 14.6385V16.4754L18.5968 17.8669C18.9014 18.1715 18.9014 18.6654 18.5968 18.97C18.2922 19.2746 17.7984 19.2746 17.4937 18.97L15.8737 17.35C15.7275 17.2037 15.6453 17.0053 15.6453 16.7985V14.6385C15.6453 14.2077 15.9945 13.8585 16.4253 13.8585Z" />
<path d="M18.15 4.65H16.05C15.975 4.65 15.9 4.575 15.9 4.5V3.15C15.9 2.7 15.6 2.4 15.15 2.4C14.7 2.4 14.4 2.7 14.4 3.15V6.75C14.4 7.05 14.175 7.35 13.8 7.35C13.5 7.35 13.2 7.125 13.2 6.75V5.025C13.275 4.8 13.125 4.65 12.9 4.65H8.175C8.1 4.65 8.025 4.575 8.025 4.5V3.15C8.025 2.7 7.725 2.4 7.275 2.4C6.825 2.4 6.525 2.7 6.525 3.15V6.75C6.525 7.05 6.3 7.35 5.925 7.35C5.625 7.35 5.325 7.125 5.325 6.75V5.025C5.4 4.8 5.25 4.65 5.025 4.65H3.9C3.075 4.65 2.4 5.325 2.4 6.15V18.9C2.4 19.725 3.075 20.4 3.9 20.4H10.8931C10.5911 19.937 10.3456 19.4337 10.1665 18.9H4.275C4.05 18.9 3.9 18.75 3.9 18.525V9.525C3.9 9.3 4.05 9.15 4.275 9.15H17.775C18 9.15 18.15 9.3 18.15 9.525V10.4265C18.6793 10.5695 19.1823 10.7766 19.65 11.0391V6.15C19.65 5.325 18.975 4.65 18.15 4.65Z" />
<path d="M16.4253 20.6385C18.5461 20.6385 20.2653 18.9193 20.2653 16.7985C20.2653 14.6778 18.5461 12.9585 16.4253 12.9585C14.3045 12.9585 12.5853 14.6778 12.5853 16.7985C12.5853 18.9193 14.3045 20.6385 16.4253 20.6385ZM16.4253 22.1985C13.443 22.1985 11.0253 19.7809 11.0253 16.7985C11.0253 13.8162 13.443 11.3985 16.4253 11.3985C19.4076 11.3985 21.8253 13.8162 21.8253 16.7985C21.8253 19.7809 19.4076 22.1985 16.4253 22.1985Z" />
</svg>