<!--character:220:550:2328-->
  <svg width="24" height="24" viewBox="0 0 24 24" >
<path   d="M21.5834 6.16667C21.5834 5.24619 20.8372 4.5 19.9167 4.5H17.6251C17.51 4.5 17.4167 4.40673 17.4167 4.29167V2.83333C17.4167 2.3731 17.0437 2 16.5834 2C16.1232 2 15.7501 2.3731 15.7501 2.83333V6.79167C15.7501 7.13684 15.4703 7.41667 15.1251 7.41667C14.7799 7.41667 14.5001 7.13684 14.5001 6.79167V4.91667C14.5001 4.68655 14.3135 4.5 14.0834 4.5H8.87508C8.76035 4.5 8.66721 4.40723 8.66675 4.2925V2.83333C8.66675 2.3731 8.29365 2 7.83342 2C7.37318 2 7.00008 2.3731 7.00008 2.83333V6.79167C7.00008 7.13684 6.72026 7.41667 6.37508 7.41667C6.0299 7.41667 5.75008 7.13684 5.75008 6.79167V4.91667C5.75008 4.68655 5.56353 4.5 5.33342 4.5H4.08341C3.16294 4.5 2.41675 5.24619 2.41675 6.16667V20.3333C2.41675 21.2538 3.16294 22 4.08341 22H19.9167C20.8372 22 21.5834 21.2538 21.5834 20.3333V6.16667ZM19.9168 19.9167C19.9168 20.1468 19.7302 20.3333 19.5001 20.3333H4.5001C4.26998 20.3333 4.08343 20.1468 4.08343 19.9167V9.91667C4.08343 9.68655 4.26998 9.5 4.5001 9.5H19.5001C19.7302 9.5 19.9168 9.68655 19.9168 9.91667V19.9167ZM12.0001 10.3333C9.46878 10.3333 7.41675 12.3854 7.41675 14.9167C7.41675 17.448 9.46878 19.5 12.0001 19.5C14.5314 19.5 16.5834 17.448 16.5834 14.9167C16.5807 12.3865 14.5302 10.3361 12.0001 10.3333ZM13.9168 15.9475C14.1614 16.1921 14.1614 16.5887 13.9168 16.8333C13.6721 17.078 13.2755 17.078 13.0309 16.8333L12.1476 15.9492C12.0658 15.8685 11.9344 15.8685 11.8526 15.9492L10.9693 16.8333C10.7249 17.078 10.3285 17.0781 10.0838 16.8338C9.83922 16.5894 9.83903 16.193 10.0834 15.9483L10.9676 15.065C11.0483 14.9832 11.0483 14.8518 10.9676 14.77L10.0834 13.8867C9.92503 13.7284 9.86309 13.4977 9.92094 13.2814C9.97878 13.0651 10.1476 12.8961 10.3639 12.8381C10.5801 12.78 10.8109 12.8418 10.9693 13L11.8526 13.8842C11.9344 13.9649 12.0658 13.9649 12.1476 13.8842L13.0309 13C13.2758 12.7554 13.6726 12.7556 13.9172 13.0004C14.1618 13.2453 14.1616 13.6421 13.9168 13.8867L13.0326 14.77C12.9519 14.8518 12.9519 14.9832 13.0326 15.065L13.9168 15.9475Z" />
</svg>