<!--character:2022-->
  <svg width="24" height="24" viewBox="0 0 24 24" >
<path d="M6.58576 6.26415L4.08689 6.25083C3.85688 6.25083 3.67041 6.06436 3.67041 5.83435V5.63944C3.67041 4.94939 4.22981 4.39 4.91985 4.39H5.75281C6.44285 4.39 7.00224 4.94939 7.00224 5.63944V5.84767C7.00224 6.07769 6.81578 6.26415 6.58576 6.26415Z" />
<path d="M14.2906 16.0514C16.0157 16.0514 17.4142 14.6529 17.4142 12.9278C17.4142 11.2027 16.0157 9.80422 14.2906 9.80422C12.5655 9.80422 11.167 11.2027 11.167 12.9278C11.167 14.6529 12.5655 16.0514 14.2906 16.0514Z" />
<path d="M19.8664 7.09711H18.7703C18.5908 7.09074 18.4327 6.97705 18.3696 6.80891L18.3687 6.80703C17.8542 5.72144 17.3219 4.59824 16.1648 4.59824H12C11.1079 4.59824 10.6373 5.24628 9.78515 6.42325C9.72887 6.5005 9.67923 6.57143 9.63414 6.63587C9.42299 6.93762 9.31139 7.09711 9.08214 7.09711H4.08439C2.366 7.09711 2.0045 8.10416 2.0045 8.94878V17.6015C1.96536 18.1655 2.18244 18.7171 2.59546 19.1032C3.00849 19.4892 3.57348 19.6686 4.13354 19.5915H19.8664C20.4265 19.6686 20.9915 19.4892 21.4045 19.1032C21.8175 18.7171 22.0346 18.1655 21.9955 17.6015V8.94878C21.9955 8.10416 21.6265 7.09711 19.8664 7.09711ZM19.0801 12.9278C19.0801 15.573 16.9358 17.7173 14.2906 17.7173C11.6455 17.7173 9.50112 15.573 9.50112 12.9278C9.50112 10.2826 11.6455 8.13831 14.2906 8.13831C16.9347 8.14106 19.0774 10.2838 19.0801 12.9278ZM5.12809 11.2619C4.55305 11.2619 4.08689 10.7957 4.08689 10.2207C4.08689 9.64567 4.55305 9.17951 5.12809 9.17951C5.70313 9.17951 6.16929 9.64567 6.16929 10.2207C6.16929 10.7957 5.70313 11.2619 5.12809 11.2619Z" />
</svg>