<!--character:2768-->
  <svg width="24" height="24" viewBox="0 0 24 24" >
<path d="M6.5858 6.26415L4.08693 6.25083C3.85691 6.25083 3.67045 6.06436 3.67045 5.83435V5.63944C3.67045 4.94939 4.22984 4.39 4.91989 4.39H5.75284C6.44289 4.39 7.00228 4.94939 7.00228 5.63944V5.84767C7.00228 6.07769 6.81582 6.26415 6.5858 6.26415Z" />
<path d="M14.2907 16.0514C16.0158 16.0514 17.4142 14.6529 17.4142 12.9278C17.4142 11.2027 16.0158 9.80422 14.2907 9.80422C12.5655 9.80422 11.1671 11.2027 11.1671 12.9278C11.1671 14.6529 12.5655 16.0514 14.2907 16.0514Z" />
<path d="M19.8665 7.09711H18.7703C18.5908 7.09074 18.4328 6.97705 18.3696 6.80891L18.3688 6.80703C17.8543 5.72144 17.322 4.59824 16.1648 4.59824H12C11.1079 4.59824 10.6373 5.24628 9.78519 6.42325C9.7289 6.5005 9.67927 6.57143 9.63418 6.63587C9.42303 6.93762 9.31142 7.09711 9.08218 7.09711H4.08443C2.36604 7.09711 2.00454 8.10416 2.00454 8.94878V17.6015C1.96539 18.1655 2.18247 18.7171 2.5955 19.1032C3.00852 19.4892 3.57351 19.6686 4.13358 19.5915H19.8665C20.4265 19.6686 20.9915 19.4892 21.4046 19.1032C21.8176 18.7171 22.0347 18.1655 21.9955 17.6015V8.94878C21.9955 8.10416 21.6265 7.09711 19.8665 7.09711ZM19.0802 12.9278C19.0802 15.573 16.9358 17.7173 14.2907 17.7173C11.6455 17.7173 9.50115 15.573 9.50115 12.9278C9.50115 10.2826 11.6455 8.13831 14.2907 8.13831C16.9347 8.14106 19.0774 10.2838 19.0802 12.9278ZM5.12813 11.2619C4.55309 11.2619 4.08693 10.7957 4.08693 10.2207C4.08693 9.64567 4.55309 9.17951 5.12813 9.17951C5.70316 9.17951 6.16932 9.64567 6.16932 10.2207C6.16932 10.7957 5.70316 11.2619 5.12813 11.2619Z" />
</svg>