<!--character:$550:2284-->
  <svg width="24" height="24" viewBox="0 0 24 24" >
<path d="M6.58577 6.26417L4.0869 6.25084C3.85689 6.25084 3.67042 6.06438 3.67042 5.83436V5.63945C3.67042 4.94941 4.22981 4.39001 4.91986 4.39001H5.75282C6.44286 4.39001 7.00225 4.94941 7.00225 5.63945V5.84769C7.00225 6.07771 6.81579 6.26417 6.58577 6.26417Z" />
<path d="M14.2906 16.0514C16.0157 16.0514 17.4142 14.6529 17.4142 12.9278C17.4142 11.2027 16.0157 9.80424 14.2906 9.80424C12.5655 9.80424 11.167 11.2027 11.167 12.9278C11.167 14.6529 12.5655 16.0514 14.2906 16.0514Z" />
<path d="M19.8664 7.09713H18.7703C18.5908 7.09076 18.4327 6.97707 18.3696 6.80893L18.3687 6.80705C17.8542 5.72146 17.3219 4.59826 16.1648 4.59826H12C11.1079 4.59826 10.6373 5.2463 9.78517 6.42327C9.72892 6.50045 9.67933 6.57133 9.63426 6.63573C9.42312 6.93748 9.3114 7.09713 9.08215 7.09713H4.08441C2.36602 7.09713 2.00451 8.10417 2.00451 8.94879V17.6016C1.96537 18.1655 2.18245 18.7171 2.59547 19.1032C3.0085 19.4892 3.57349 19.6686 4.13355 19.5915H19.8664C20.4265 19.6686 20.9915 19.4892 21.4045 19.1032C21.8176 18.7171 22.0346 18.1655 21.9955 17.6016V8.94879C21.9955 8.10417 21.6265 7.09713 19.8664 7.09713ZM19.0802 12.9278C19.0802 15.573 16.9358 17.7173 14.2907 17.7173C11.6455 17.7173 9.50115 15.573 9.50115 12.9278C9.50115 10.2827 11.6455 8.13832 14.2907 8.13832C16.9347 8.14107 19.0774 10.2838 19.0802 12.9278ZM5.1281 11.2619C4.55307 11.2619 4.08691 10.7957 4.08691 10.2207C4.08691 9.64568 4.55307 9.17952 5.1281 9.17952C5.70314 9.17952 6.1693 9.64568 6.1693 10.2207C6.1693 10.7957 5.70314 11.2619 5.1281 11.2619Z" />
</svg>