<!--character:5064-->
  <svg width="20" height="20" viewBox="0 0 20 20" >
<path d="M5.48823 5.22013L3.40584 5.20902C3.21416 5.20902 3.05877 5.05364 3.05877 4.86196V4.69953C3.05877 4.12449 3.52493 3.65833 4.09997 3.65833H4.7941C5.36913 3.65833 5.83529 4.12449 5.83529 4.69953V4.87306C5.83529 5.06474 5.67991 5.22013 5.48823 5.22013Z" />
<path d="M11.9089 13.3762C13.3465 13.3762 14.5119 12.2108 14.5119 10.7732C14.5119 9.33558 13.3465 8.17019 11.9089 8.17019C10.4713 8.17019 9.30595 9.33558 9.30595 10.7732C9.30595 12.2108 10.4713 13.3762 11.9089 13.3762Z" />
<path d="M16.5555 5.91426H15.642C15.4924 5.90895 15.3607 5.81421 15.3081 5.67409L15.3074 5.67253C14.8786 4.76787 14.435 3.83187 13.4707 3.83187H10.0001C9.25667 3.83187 8.86448 4.3719 8.15439 5.35271C8.10748 5.41708 8.06612 5.47619 8.02854 5.52989C7.85259 5.78135 7.75958 5.91426 7.56854 5.91426H3.40375C1.97176 5.91426 1.67051 6.75346 1.67051 7.45731V14.6679C1.63789 15.1379 1.81879 15.5976 2.16298 15.9193C2.50716 16.241 2.97799 16.3905 3.44471 16.3262H16.5555C17.0222 16.3905 17.493 16.241 17.8372 15.9193C18.1814 15.5976 18.3623 15.1379 18.3297 14.6679V7.45731C18.3297 6.75346 18.0222 5.91426 16.5555 5.91426ZM15.9002 10.7732C15.9002 12.9775 14.1133 14.7644 11.9089 14.7644C9.70463 14.7644 7.91769 12.9775 7.91769 10.7732C7.91769 8.56887 9.70463 6.78192 11.9089 6.78192C14.1123 6.78422 15.8979 8.56982 15.9002 10.7732ZM4.2735 9.38492C3.7943 9.38492 3.40584 8.99645 3.40584 8.51725C3.40584 8.03805 3.7943 7.64959 4.2735 7.64959C4.7527 7.64959 5.14116 8.03805 5.14116 8.51725C5.14116 8.99645 4.7527 9.38492 4.2735 9.38492Z" />
</svg>