<!--description:Use when you need to open phone's camera-->
<!--category:basic-->
<!--character:E017-->
<!--added:0.11-->
<svg width="24" height="24" viewBox="0 0 24 24" xmlns="http://www.w3.org/2000/svg"><path d="M14.2906 16.0514c-1.725 0-3.1236-1.3985-3.1236-3.1236s1.3985-3.1236 3.1236-3.1236 3.1236 1.3985 3.1236 3.1236-1.3985 3.1236-3.1236 3.1236zm5.5758-8.9543c1.76 0 2.129 1.007 2.129 1.8517v8.6527a1.8775 1.8775 0 0 1-2.129 1.99H4.1336a1.8775 1.8775 0 0 1-2.129-1.99V8.9488c0-.8446.3614-1.8517 2.0798-1.8517h4.9978c.2782 0 .3831-.2349.703-.6739.852-1.177 1.3227-1.825 2.2148-1.825h4.1648c1.1578 0 1.69 1.1245 2.2048 2.2107a.4448.4448 0 0 0 .4007.2882h1.0961zm-.7863 5.8307c-.0027-2.644-2.1454-4.7867-4.7895-4.7895-2.6451 0-4.7895 2.1443-4.7895 4.7895 0 2.6452 2.1444 4.7895 4.7895 4.7895 2.6452 0 4.7895-2.1443 4.7895-4.7895zM6.1693 10.2207c0-.575-.4662-1.0412-1.0412-1.0412s-1.0412.4662-1.0412 1.0412.4662 1.0412 1.0412 1.0412 1.0412-.4662 1.0412-1.0412zM4.0869 6.2508a.4165.4165 0 0 1-.4165-.4165v-.1949c0-.69.5594-1.2494 1.2495-1.2494h.833c.69 0 1.2494.5594 1.2494 1.2494v.2083c0 .23-.1865.4165-.4165.4165l-2.4989-.0134z"/></svg>