<!--character:5776-->
  <svg width="24" height="24" viewBox="0 0 24 24" >
<path d="M6.58587 6.26415L4.087 6.25083C3.85699 6.25083 3.67052 6.06436 3.67052 5.83435V5.63944C3.67052 4.94939 4.22992 4.39 4.91996 4.39H5.75292C6.44296 4.39 7.00235 4.94939 7.00235 5.63944V5.84767C7.00235 6.07769 6.81589 6.26415 6.58587 6.26415Z" />
<path d="M14.2907 16.0514C16.0158 16.0514 17.4143 14.6529 17.4143 12.9278C17.4143 11.2027 16.0158 9.80422 14.2907 9.80422C12.5656 9.80422 11.1671 11.2027 11.1671 12.9278C11.1671 14.6529 12.5656 16.0514 14.2907 16.0514Z" />
<path d="M19.8665 7.09711H18.7704C18.5909 7.09074 18.4328 6.97705 18.3697 6.80891L18.3688 6.80703C17.8543 5.72144 17.322 4.59824 16.1649 4.59824H12.0001C11.108 4.59824 10.6374 5.24628 9.78526 6.42325C9.72898 6.5005 9.67934 6.57143 9.63425 6.63587C9.4231 6.93762 9.3115 7.09711 9.08225 7.09711H4.0845C2.36611 7.09711 2.00461 8.10416 2.00461 8.94878V17.6015C1.96547 18.1655 2.18255 18.7171 2.59557 19.1032C3.0086 19.4892 3.57359 19.6686 4.13365 19.5915H19.8665C20.4266 19.6686 20.9916 19.4892 21.4046 19.1032C21.8176 18.7171 22.0347 18.1655 21.9956 17.6015V8.94878C21.9956 8.10416 21.6266 7.09711 19.8665 7.09711ZM19.0802 12.9278C19.0802 15.573 16.9359 17.7173 14.2907 17.7173C11.6456 17.7173 9.50123 15.573 9.50123 12.9278C9.50123 10.2826 11.6456 8.13831 14.2907 8.13831C16.9348 8.14106 19.0775 10.2838 19.0802 12.9278ZM5.1282 11.2619C4.55316 11.2619 4.087 10.7957 4.087 10.2207C4.087 9.64567 4.55316 9.17951 5.1282 9.17951C5.70324 9.17951 6.1694 9.64567 6.1694 10.2207C6.1694 10.7957 5.70324 11.2619 5.1282 11.2619Z" />
</svg>