<!-- character:0:1973 -->
  <svg width="20" height="20" viewBox="0 0 20 20" >
<path   d="M5.48814 5.22012L3.40574 5.20901C3.21406 5.20901 3.05868 5.05363 3.05868 4.86195V4.69952C3.05868 4.12448 3.52484 3.65833 4.09988 3.65833H4.79401C5.36904 3.65833 5.8352 4.12448 5.8352 4.69952V4.87305C5.8352 5.06473 5.67982 5.22012 5.48814 5.22012ZM16.5554 5.91425H15.6419C15.4923 5.90894 15.3606 5.8142 15.308 5.67408L15.3073 5.67252C14.8785 4.76786 14.4349 3.83186 13.4706 3.83186H9.99999C9.25658 3.83186 8.86439 4.37189 8.1543 5.3527C8.10739 5.41707 8.06603 5.47618 8.02845 5.52988C7.8525 5.78134 7.75949 5.91425 7.56845 5.91425H3.40366C1.97167 5.91425 1.67042 6.75346 1.67042 7.4573V14.6679C1.6378 15.1379 1.8187 15.5976 2.16289 15.9193C2.50707 16.241 2.9779 16.3905 3.44462 16.3262H16.5554C17.0221 16.3905 17.4929 16.241 17.8371 15.9193C18.1813 15.5976 18.3622 15.1379 18.3296 14.6679V7.4573C18.3296 6.75346 18.0221 5.91425 16.5554 5.91425ZM15.9001 10.7732C15.9001 12.9775 14.1132 14.7644 11.9089 14.7644C9.70454 14.7644 7.9176 12.9775 7.9176 10.7732C7.9176 8.56886 9.70454 6.78192 11.9089 6.78192C14.1122 6.78421 15.8978 8.56981 15.9001 10.7732ZM4.27341 9.38491C4.75261 9.38491 5.14107 8.99644 5.14107 8.51724C5.14107 8.03805 4.75261 7.64958 4.27341 7.64958C3.79421 7.64958 3.40574 8.03805 3.40574 8.51724C3.40574 8.99644 3.79421 9.38491 4.27341 9.38491ZM11.9089 13.3762C13.3464 13.3762 14.5118 12.2108 14.5118 10.7732C14.5118 9.33558 13.3464 8.17018 11.9089 8.17018C10.4713 8.17018 9.30586 9.33558 9.30586 10.7732C9.30586 12.2108 10.4713 13.3762 11.9089 13.3762Z" />
</svg>