<!--character:2247-->
  <svg width="20" height="20" viewBox="0 0 20 20" >
<path d="M17.4917 4.93333C17.4917 3.81666 16.6083 2.91666 15.525 2.91666H9.03333C8.36667 2.91666 7.71667 3.19166 7.25 3.65833L2.98333 7.99166C2.675 8.3 2.5 8.71666 2.5 9.15833V15.0667C2.5 16.1833 3.38333 17.0833 4.46667 17.0833H15.5333C16.6167 17.0833 17.5 16.1833 17.5 15.0667L17.4917 4.93333ZM15 12.9167H12.5C12.04 12.9167 11.6667 12.5433 11.6667 12.0833C11.6667 11.6233 12.04 11.25 12.5 11.25H15C15.46 11.25 15.8333 11.6233 15.8333 12.0833C15.8333 12.5433 15.46 12.9167 15 12.9167ZM8.43333 4.83333C8.59167 4.675 8.80833 4.58333 9.03333 4.58333H15.525C15.6917 4.58333 15.825 4.74166 15.825 4.93333L15.8333 8.75H4.575L8.43333 4.83333Z" />
</svg>