<!--character:3024:2862-->
<svg width="24" height="24" viewBox="0 0 24 24">
  <path d="M10.536 7.1748C10.203 8.0908 9.37003 8.8408 8.45403 9.2568C6.45503 10.0068 4.28903 9.0078 3.54003 7.0918C2.79003 5.1758 3.79003 3.0108 5.70503 2.2608C7.62103 1.5118 9.78703 2.4278 10.536 4.3438L10.539 4.34673C10.622 4.42874 10.704 4.5098 10.786 4.5098H19.614C20.281 4.5098 20.697 5.0928 20.697 5.7588C20.697 6.4258 20.114 7.0088 19.448 7.0088H19.281C19.198 7.0088 19.115 7.0918 19.115 7.1748V7.3418C19.115 8.0078 18.532 8.5908 17.865 8.5908C17.199 8.5908 16.616 8.0078 16.616 7.3418V7.1748C16.616 7.0918 16.533 7.0088 16.45 7.0088H15.617C15.533 7.0088 15.45 7.0918 15.367 7.1748V7.3418C15.367 8.0078 14.784 8.5908 14.118 8.5908C13.451 8.5908 12.868 8.0078 12.868 7.3418V7.1748C12.868 7.0918 12.785 7.0088 12.702 7.0088H10.786C10.704 7.0088 10.622 7.08986 10.539 7.17187L10.536 7.1748ZM8.70403 5.7588C8.70403 4.8428 7.95403 4.0938 7.03803 4.0938C6.12203 4.0938 5.37203 4.8428 5.37203 5.7588C5.37203 6.6758 6.12203 7.4248 7.03803 7.4248C7.95403 7.4248 8.70403 6.6758 8.70403 5.7588Z" />
  <path d="M18.282 13.2544L19.031 12.8384C19.531 12.5884 20.197 12.7544 20.447 13.2544C20.697 13.7544 20.531 14.4204 20.031 14.6704L19.448 15.0044C19.4003 15.0521 19.38 15.0724 19.3714 15.0968C19.365 15.1148 19.365 15.1351 19.365 15.1704C19.365 15.2544 19.448 15.3374 19.448 15.3374C20.031 15.9204 20.364 16.6704 20.197 17.5034V18.0864C20.197 18.8354 19.781 19.5014 19.115 19.7514C19.115 19.7514 19.031 19.8354 19.031 19.9184V20.4184C19.031 20.4184 19.0306 20.4234 19.0302 20.4263C19.0296 20.4298 19.029 20.4336 19.029 20.4374V21.1754C19.029 21.6314 18.654 22.0034 18.195 22.0034H16.699C16.239 22.0034 15.864 21.6314 15.864 21.1754V19.9954C15.859 19.9144 15.781 19.8354 15.7 19.8354H8.70403C8.62203 19.8354 8.54303 19.9144 8.53903 19.9964V21.1754C8.53903 21.6314 8.16403 22.0034 7.70503 22.0034H6.20803C5.74803 22.0034 5.37303 21.6314 5.37303 21.1754V20.4214L5.37203 20.4184V19.9184C5.37203 19.8354 5.37203 19.7514 5.28903 19.7514C4.62303 19.4184 4.20603 18.8354 4.20603 18.0864V17.5034C4.20603 16.6704 4.53903 15.9204 5.12203 15.3374C5.17022 15.2898 5.19076 15.2695 5.19952 15.245C5.20603 15.2268 5.20603 15.2062 5.20603 15.1704C5.20603 15.0874 5.20603 15.0044 5.12203 15.0044L4.53903 14.6704C4.04003 14.4204 3.87303 13.7544 4.12303 13.2544C4.37303 12.7544 5.03903 12.5884 5.53903 12.8384L6.28803 13.2544H6.37203C6.45503 13.2544 6.53803 13.1714 6.53803 13.0874L6.78803 12.2554C6.95503 11.2554 7.87103 10.5064 8.87103 10.5064H15.7C16.699 10.5064 17.616 11.2554 17.782 12.2554L18.032 13.0874V13.1714C18.115 13.2544 18.199 13.3374 18.282 13.2544ZM18.387 16.7074C18.387 16.0064 17.82 15.4414 17.121 15.4414C16.422 15.4414 15.855 16.0064 15.855 16.7074C15.855 17.4064 16.422 17.9714 17.121 17.9714C17.82 17.9714 18.387 17.4064 18.387 16.7074ZM7.87103 13.8374C7.87103 13.9204 7.95403 14.0044 8.03803 14.0044H16.45C16.533 14.0044 16.616 13.9204 16.616 13.9204V13.7544L16.283 12.5884C16.283 12.2554 15.95 12.0054 15.617 12.0054H8.87103C8.53703 12.0054 8.28803 12.2554 8.20403 12.6714L7.87103 13.8374ZM6.56703 17.6004C6.80403 17.8374 7.12703 17.9714 7.46203 17.9714C8.16103 17.9714 8.72803 17.4064 8.72803 16.7074C8.72803 16.0064 8.16103 15.4414 7.46203 15.4414C6.76303 15.4414 6.19603 16.0064 6.19603 16.7074C6.19603 17.0434 6.33003 17.3644 6.56703 17.6004Z" />
</svg>
