<!-- character:0:2471 -->
  <svg width="20" height="20" viewBox="0 0 20 20" >
<path   d="M17.4917 4.93341C17.4917 3.81675 16.6083 2.91675 15.525 2.91675H9.03333C8.36667 2.91675 7.71667 3.19175 7.25 3.65841L2.98333 7.99175C2.675 8.30008 2.5 8.71675 2.5 9.15842V15.0667C2.5 16.1834 3.38333 17.0834 4.46667 17.0834H15.5333C16.6167 17.0834 17.5 16.1834 17.5 15.0667L17.4917 4.93341ZM15 12.9167H12.5C12.04 12.9167 11.6667 12.5434 11.6667 12.0834C11.6667 11.6234 12.04 11.2501 12.5 11.2501H15C15.46 11.2501 15.8333 11.6234 15.8333 12.0834C15.8333 12.5434 15.46 12.9167 15 12.9167ZM8.43333 4.83342L4.575 8.75008H15.8333L15.825 4.93341C15.825 4.74175 15.6917 4.58342 15.525 4.58342H9.03333C8.80833 4.58342 8.59167 4.67508 8.43333 4.83342Z" />
</svg>