<!--character:$550:2059-->
  <svg width="24" height="24" viewBox="0 0 24 24" >
<path d="M10.536 7.17483C10.203 8.09083 9.37 8.84083 8.454 9.25683C6.455 10.0068 4.289 9.00783 3.54 7.09183C2.79 5.17583 3.79 3.01083 5.705 2.26083C7.621 1.51183 9.787 2.42783 10.536 4.34383L10.539 4.34676C10.622 4.42877 10.704 4.50983 10.786 4.50983H19.614C20.281 4.50983 20.697 5.09283 20.697 5.75883C20.697 6.42583 20.114 7.00883 19.448 7.00883H19.281C19.198 7.00883 19.115 7.09183 19.115 7.17483V7.34183C19.115 8.00783 18.532 8.59083 17.865 8.59083C17.199 8.59083 16.616 8.00783 16.616 7.34183V7.17483C16.616 7.09183 16.533 7.00883 16.45 7.00883H15.617C15.533 7.00883 15.45 7.09183 15.367 7.17483V7.34183C15.367 8.00783 14.784 8.59083 14.118 8.59083C13.451 8.59083 12.868 8.00783 12.868 7.34183V7.17483C12.868 7.09183 12.785 7.00883 12.702 7.00883H10.786C10.704 7.00883 10.622 7.08989 10.539 7.1719L10.536 7.17483ZM8.70399 5.75883C8.70399 4.84283 7.95399 4.09383 7.03799 4.09383C6.12199 4.09383 5.37199 4.84283 5.37199 5.75883C5.37199 6.67583 6.12199 7.42483 7.03799 7.42483C7.95399 7.42483 8.70399 6.67583 8.70399 5.75883Z" />
<path d="M18.282 13.2544L19.031 12.8384C19.531 12.5884 20.197 12.7544 20.447 13.2544C20.697 13.7544 20.531 14.4204 20.031 14.6704L19.448 15.0044C19.4003 15.0522 19.38 15.0724 19.3714 15.0968C19.365 15.1149 19.365 15.1352 19.365 15.1704C19.365 15.2544 19.448 15.3374 19.448 15.3374C20.031 15.9204 20.364 16.6704 20.197 17.5034V18.0864C20.197 18.8354 19.781 19.5014 19.115 19.7514C19.115 19.7514 19.031 19.8354 19.031 19.9184V20.4184C19.031 20.4234 19.029 20.4304 19.029 20.4374V21.1754C19.029 21.6314 18.654 22.0034 18.195 22.0034H16.699C16.239 22.0034 15.864 21.6314 15.864 21.1754V19.9954C15.859 19.9144 15.781 19.8354 15.7 19.8354H8.70401C8.62201 19.8354 8.54301 19.9144 8.53901 19.9964V21.1754C8.53901 21.6314 8.16401 22.0034 7.70501 22.0034H6.20801C5.74801 22.0034 5.37301 21.6314 5.37301 21.1754V20.4214L5.37201 20.4184V19.9184C5.37201 19.8354 5.37201 19.7514 5.28901 19.7514C4.62301 19.4184 4.20601 18.8354 4.20601 18.0864V17.5034C4.20601 16.6704 4.53901 15.9204 5.12201 15.3374C5.17019 15.2898 5.19074 15.2695 5.1995 15.245C5.20601 15.2268 5.20601 15.2062 5.20601 15.1704C5.20601 15.0874 5.20601 15.0044 5.12201 15.0044L4.53901 14.6704C4.04001 14.4204 3.87301 13.7544 4.12301 13.2544C4.37301 12.7544 5.03901 12.5884 5.53901 12.8384L6.28801 13.2544H6.37201C6.45501 13.2544 6.53801 13.1714 6.53801 13.0874L6.78801 12.2554C6.95501 11.2554 7.87101 10.5064 8.87101 10.5064H15.7C16.699 10.5064 17.616 11.2554 17.782 12.2554L18.032 13.0874V13.1714C18.115 13.2544 18.199 13.3374 18.282 13.2544ZM18.387 16.7074C18.387 16.0064 17.82 15.4414 17.121 15.4414C16.422 15.4414 15.855 16.0064 15.855 16.7074C15.855 17.4064 16.422 17.9714 17.121 17.9714C17.82 17.9714 18.387 17.4064 18.387 16.7074ZM7.871 13.8374C7.871 13.9204 7.954 14.0044 8.038 14.0044H16.45C16.533 14.0044 16.616 13.9204 16.616 13.9204V13.7544L16.283 12.5884C16.283 12.2554 15.95 12.0054 15.617 12.0054H8.871C8.537 12.0054 8.288 12.2554 8.204 12.6714L7.871 13.8374ZM6.567 17.6004C6.804 17.8374 7.127 17.9714 7.462 17.9714C8.161 17.9714 8.728 17.4064 8.728 16.7074C8.728 16.0064 8.161 15.4414 7.462 15.4414C6.763 15.4414 6.196 16.0064 6.196 16.7074C6.196 17.0434 6.33 17.3644 6.567 17.6004Z" />
</svg>