<!-- character:0:2243 -->
  <svg width="20" height="20" viewBox="0 0 20 20" >
<path   d="M7.25333 4.79899C7.25333 4.03565 6.62833 3.41149 5.86499 3.41149C5.10166 3.41149 4.47666 4.03565 4.47666 4.79899C4.47666 5.56315 5.10166 6.18732 5.86499 6.18732C6.62833 6.18732 7.25333 5.56315 7.25333 4.79899ZM8.77999 5.97899C8.50249 6.74232 7.80833 7.36732 7.04499 7.71399C5.37916 8.33899 3.57416 7.50649 2.94999 5.90982C2.32499 4.31315 3.15833 2.50899 4.75416 1.88399C6.35083 1.25982 8.15583 2.02315 8.77999 3.61982L8.78246 3.62226C8.85162 3.6906 8.91997 3.75815 8.98833 3.75815H16.345C16.9008 3.75815 17.2475 4.24399 17.2475 4.79899C17.2475 5.35482 16.7617 5.84065 16.2067 5.84065H16.0675C15.9983 5.84065 15.9292 5.90982 15.9292 5.97899V6.11815C15.9292 6.67315 15.4433 7.15899 14.8875 7.15899C14.3325 7.15899 13.8467 6.67315 13.8467 6.11815V5.97899C13.8467 5.90982 13.7775 5.84065 13.7083 5.84065H13.0142C12.9442 5.84065 12.875 5.90982 12.8058 5.97899V6.11815C12.8058 6.67315 12.32 7.15899 11.765 7.15899C11.2092 7.15899 10.7233 6.67315 10.7233 6.11815V5.97899C10.7233 5.90982 10.6542 5.84065 10.585 5.84065H8.98833C8.91997 5.84065 8.85162 5.9082 8.78246 5.97655L8.77999 5.97899ZM15.3225 13.9228C15.3225 13.3387 14.85 12.8678 14.2675 12.8678C13.685 12.8678 13.2125 13.3387 13.2125 13.9228C13.2125 14.5053 13.685 14.9762 14.2675 14.9762C14.85 14.9762 15.3225 14.5053 15.3225 13.9228ZM6.55916 11.5312C6.55916 11.6003 6.62833 11.6703 6.69833 11.6703H13.7083C13.7775 11.6703 13.8467 11.6003 13.8467 11.6003V11.462L13.5692 10.4903C13.5692 10.2128 13.2917 10.0045 13.0142 10.0045H7.39249C7.11416 10.0045 6.90666 10.2128 6.83666 10.5595L6.55916 11.5312ZM5.47249 14.667C5.66999 14.8645 5.93916 14.9762 6.21833 14.9762C6.80083 14.9762 7.27333 14.5053 7.27333 13.9228C7.27333 13.3387 6.80083 12.8678 6.21833 12.8678C5.63583 12.8678 5.16333 13.3387 5.16333 13.9228C5.16333 14.2028 5.27499 14.4703 5.47249 14.667ZM15.235 11.0453L15.8592 10.6987C16.2758 10.4903 16.8308 10.6287 17.0392 11.0453C17.2475 11.462 17.1092 12.017 16.6925 12.2253L16.2067 12.5037C16.1669 12.5434 16.15 12.5603 16.1428 12.5807C16.1375 12.5957 16.1375 12.6126 16.1375 12.642C16.1375 12.712 16.2067 12.7812 16.2067 12.7812C16.6925 13.267 16.97 13.892 16.8308 14.5862V15.072C16.8308 15.6962 16.4842 16.2512 15.9292 16.4595C15.9292 16.4595 15.8592 16.5295 15.8592 16.5987V17.0153C15.8592 17.0172 15.8588 17.0195 15.8584 17.0219C15.858 17.0248 15.8575 17.028 15.8575 17.0312V17.6462C15.8575 18.0262 15.545 18.3362 15.1625 18.3362H13.9158C13.5325 18.3362 13.22 18.0262 13.22 17.6462V16.6628C13.2158 16.5953 13.1508 16.5295 13.0833 16.5295H7.25333C7.18499 16.5295 7.11916 16.5953 7.11583 16.6637V17.6462C7.11583 18.0262 6.80333 18.3362 6.42083 18.3362H5.17333C4.78999 18.3362 4.47749 18.0262 4.47749 17.6462V17.0178C4.47749 17.0174 4.47729 17.017 4.47708 17.0166C4.47687 17.0162 4.47666 17.0157 4.47666 17.0153V16.5987C4.47666 16.5295 4.47666 16.4595 4.40749 16.4595C3.85249 16.182 3.50499 15.6962 3.50499 15.072V14.5862C3.50499 13.892 3.78249 13.267 4.26833 12.7812C4.30848 12.7415 4.3256 12.7246 4.3329 12.7041C4.33833 12.689 4.33833 12.6718 4.33833 12.642C4.33833 12.5728 4.33833 12.5037 4.26833 12.5037L3.78249 12.2253C3.36666 12.017 3.22749 11.462 3.43583 11.0453C3.64416 10.6287 4.19916 10.4903 4.61583 10.6987L5.23999 11.0453H5.30999C5.37916 11.0453 5.44833 10.9762 5.44833 10.9062L5.65666 10.2128C5.79583 9.37949 6.55916 8.75532 7.39249 8.75532H13.0833C13.9158 8.75532 14.68 9.37949 14.8183 10.2128L15.0267 10.9062V10.9762C15.0958 11.0453 15.1658 11.1145 15.235 11.0453Z" />
</svg>