<!--character:1722-->
  <svg width="20" height="20" viewBox="0 0 20 20" >
<path d="M8.78002 5.979C8.50252 6.74233 7.80836 7.36733 7.04502 7.714C5.37919 8.339 3.57419 7.5065 2.95002 5.90983C2.32502 4.31317 3.15836 2.509 4.75419 1.884C6.35086 1.25983 8.15586 2.02317 8.78002 3.61983L8.78249 3.62228C8.85165 3.69062 8.92 3.75817 8.98836 3.75817H16.345C16.9009 3.75817 17.2475 4.244 17.2475 4.799C17.2475 5.35483 16.7617 5.84067 16.2067 5.84067H16.0675C15.9984 5.84067 15.9292 5.90983 15.9292 5.979V6.11817C15.9292 6.67317 15.4434 7.159 14.8875 7.159C14.3325 7.159 13.8467 6.67317 13.8467 6.11817V5.979C13.8467 5.90983 13.7775 5.84067 13.7084 5.84067H13.0142C12.9442 5.84067 12.875 5.90983 12.8059 5.979V6.11817C12.8059 6.67317 12.32 7.159 11.765 7.159C11.2092 7.159 10.7234 6.67317 10.7234 6.11817V5.979C10.7234 5.90983 10.6542 5.84067 10.585 5.84067H8.98836C8.92 5.84067 8.85165 5.90822 8.78249 5.97656L8.78002 5.979ZM7.25336 4.799C7.25336 4.03567 6.62836 3.4115 5.86502 3.4115C5.10169 3.4115 4.47669 4.03567 4.47669 4.799C4.47669 5.56317 5.10169 6.18734 5.86502 6.18734C6.62836 6.18734 7.25336 5.56317 7.25336 4.799Z" />
<path d="M15.235 11.0453L15.8592 10.6987C16.2759 10.4903 16.8309 10.6287 17.0392 11.0453C17.2475 11.462 17.1092 12.017 16.6925 12.2253L16.2067 12.5037C16.1669 12.5434 16.15 12.5603 16.1428 12.5807C16.1375 12.5957 16.1375 12.6126 16.1375 12.642C16.1375 12.712 16.2067 12.7812 16.2067 12.7812C16.6925 13.267 16.97 13.892 16.8309 14.5862V15.072C16.8309 15.6962 16.4842 16.2512 15.9292 16.4595C15.9292 16.4595 15.8592 16.5295 15.8592 16.5987V17.0153C15.8592 17.0153 15.8588 17.0195 15.8585 17.0219C15.858 17.0248 15.8575 17.028 15.8575 17.0312V17.6462C15.8575 18.0262 15.545 18.3362 15.1625 18.3362H13.9159C13.5325 18.3362 13.22 18.0262 13.22 17.6462V16.6628C13.2159 16.5953 13.1509 16.5295 13.0834 16.5295H7.25336C7.18502 16.5295 7.11919 16.5953 7.11586 16.6637V17.6462C7.11586 18.0262 6.80336 18.3362 6.42086 18.3362H5.17336C4.79002 18.3362 4.47752 18.0262 4.47752 17.6462V17.0178L4.47669 17.0153V16.5987C4.47669 16.5295 4.47669 16.4595 4.40752 16.4595C3.85252 16.182 3.50502 15.6962 3.50502 15.072V14.5862C3.50502 13.892 3.78252 13.267 4.26836 12.7812C4.30851 12.7415 4.32563 12.7246 4.33293 12.7041C4.33836 12.689 4.33836 12.6718 4.33836 12.642C4.33836 12.5728 4.33836 12.5037 4.26836 12.5037L3.78252 12.2253C3.36669 12.017 3.22752 11.462 3.43586 11.0453C3.64419 10.6287 4.19919 10.4903 4.61586 10.6987L5.24002 11.0453H5.31002C5.37919 11.0453 5.44836 10.9762 5.44836 10.9062L5.65669 10.2128C5.79586 9.3795 6.55919 8.75533 7.39252 8.75533H13.0834C13.9159 8.75533 14.68 9.3795 14.8184 10.2128L15.0267 10.9062V10.9762C15.0959 11.0453 15.1659 11.1145 15.235 11.0453ZM15.3225 13.9228C15.3225 13.3387 14.85 12.8678 14.2675 12.8678C13.685 12.8678 13.2125 13.3387 13.2125 13.9228C13.2125 14.5053 13.685 14.9762 14.2675 14.9762C14.85 14.9762 15.3225 14.5053 15.3225 13.9228ZM6.55919 11.5312C6.55919 11.6003 6.62836 11.6703 6.69836 11.6703H13.7084C13.7775 11.6703 13.8467 11.6003 13.8467 11.6003V11.462L13.5692 10.4903C13.5692 10.2128 13.2917 10.0045 13.0142 10.0045H7.39253C7.11419 10.0045 6.90669 10.2128 6.83669 10.5595L6.55919 11.5312ZM5.47253 14.667C5.67003 14.8645 5.93919 14.9762 6.21836 14.9762C6.80086 14.9762 7.27336 14.5053 7.27336 13.9228C7.27336 13.3387 6.80086 12.8678 6.21836 12.8678C5.63586 12.8678 5.16336 13.3387 5.16336 13.9228C5.16336 14.2028 5.27503 14.4703 5.47253 14.667Z" />
</svg>