<!--character:203:550:2127-->
  <svg width="24" height="24" viewBox="0 0 24 24" >
<path   d="M6.17197 14.441C6.87097 14.441 7.43797 15.007 7.43797 15.707C7.43797 16.406 6.87097 16.972 6.17197 16.972C5.83697 16.972 5.51397 16.838 5.27697 16.601C5.03997 16.364 4.90597 16.043 4.90597 15.707C4.90597 15.007 5.47297 14.441 6.17197 14.441ZM7.61296 8.39201C7.68196 7.98601 8.03396 7.68901 8.44496 7.68901H15.557C15.97 7.68901 16.322 7.98801 16.389 8.39401L16.794 10.819C16.803 10.879 16.786 10.941 16.747 10.988C16.706 11.035 16.647 11.062 16.585 11.062H7.41796C7.35596 11.062 7.29696 11.035 7.25596 10.988C7.21596 10.941 7.19896 10.878 7.20896 10.817L7.61296 8.39201ZM17.8309 14.441C18.5299 14.441 19.0969 15.007 19.0969 15.707C19.0969 16.406 18.5299 16.972 17.8309 16.972C17.132 16.972 16.565 16.406 16.565 15.707C16.565 15.007 17.132 14.441 17.8309 14.441ZM20.088 12.494C20.097 12.429 20.135 12.373 20.192 12.34L20.866 11.95C21.258 11.724 21.5 11.306 21.5 10.853C21.5 10.401 21.259 9.98301 20.867 9.75601C20.475 9.53001 19.993 9.53001 19.601 9.75501L18.702 10.275C18.642 10.309 18.569 10.312 18.506 10.283C18.444 10.253 18.4 10.195 18.389 10.127L18.051 8.11501C17.851 6.89301 16.793 5.99701 15.554 6.00001H8.44495C7.20595 5.99701 6.14795 6.89401 5.94795 8.11701L5.61095 10.129C5.59895 10.196 5.55495 10.254 5.49295 10.284C5.42995 10.314 5.35695 10.311 5.29695 10.277L4.39995 9.75701C3.79395 9.40801 3.01895 9.61601 2.66995 10.222C2.31995 10.828 2.52795 11.602 3.13395 11.952L3.80895 12.342C3.86495 12.375 3.90395 12.431 3.91295 12.496C3.92195 12.56 3.90095 12.625 3.85595 12.671C3.17695 13.371 2.79695 14.307 2.79595 15.281V16.969C2.79895 17.818 3.31595 18.576 4.09795 18.9H4.05995C4.09695 18.9 4.12795 18.921 4.15895 18.94C4.18195 18.952 4.20295 18.967 4.21895 18.987C4.24495 19.022 4.26695 19.059 4.26695 19.105V21.167C4.26695 21.623 4.64195 21.994 5.10195 21.994H6.76595C7.22495 21.994 7.59995 21.623 7.59995 21.167V19.121L16.398 19.123V21.167C16.398 21.623 16.772 21.994 17.232 21.994H18.896C19.356 21.994 19.73 21.623 19.73 21.167V19.122C19.731 19.036 19.784 18.959 19.864 18.926C20.671 18.614 21.204 17.837 21.207 16.972V15.285C21.206 14.308 20.825 13.371 20.145 12.67C20.1 12.623 20.079 12.558 20.088 12.494Z" />
</svg>