<!--character:4993-->
  <svg width="24" height="24" viewBox="0 0 24 24" >
<path d="M6.17215 14.441C6.87115 14.441 7.43815 15.007 7.43815 15.707C7.43815 16.406 6.87115 16.972 6.17215 16.972C5.83715 16.972 5.51415 16.838 5.27715 16.601C5.04015 16.364 4.90615 16.043 4.90615 15.707C4.90615 15.007 5.47315 14.441 6.17215 14.441ZM7.61315 8.39201C7.68215 7.98601 8.03415 7.68901 8.44515 7.68901H15.5571C15.9701 7.68901 16.3221 7.98801 16.3891 8.39401L16.7941 10.819C16.8031 10.879 16.7861 10.941 16.7471 10.988C16.7061 11.035 16.6471 11.062 16.5851 11.062H7.41815C7.35615 11.062 7.29715 11.035 7.25615 10.988C7.21615 10.941 7.19915 10.878 7.20915 10.817L7.61315 8.39201ZM17.8311 14.441C18.5301 14.441 19.0971 15.007 19.0971 15.707C19.0971 16.406 18.5301 16.972 17.8311 16.972C17.1321 16.972 16.5651 16.406 16.5651 15.707C16.5651 15.007 17.1321 14.441 17.8311 14.441ZM20.0881 12.494C20.0971 12.429 20.1351 12.373 20.1921 12.34L20.8661 11.95C21.2581 11.724 21.5001 11.306 21.5001 10.853C21.5001 10.401 21.2591 9.98301 20.8671 9.75601C20.4751 9.53001 19.9931 9.53001 19.6011 9.75501L18.7021 10.275C18.6421 10.309 18.5691 10.312 18.5061 10.283C18.4441 10.253 18.4001 10.195 18.3891 10.127L18.0511 8.11501C17.8511 6.89301 16.7931 5.99701 15.5541 6.00001H8.44515C7.20615 5.99701 6.14815 6.89401 5.94815 8.11701L5.61115 10.129C5.59915 10.196 5.55515 10.254 5.49315 10.284C5.43015 10.314 5.35715 10.311 5.29715 10.277L4.40015 9.75701C3.79415 9.40801 3.01915 9.61601 2.67015 10.222C2.32015 10.828 2.52815 11.602 3.13415 11.952L3.80915 12.342C3.86515 12.375 3.90415 12.431 3.91315 12.496C3.92215 12.56 3.90115 12.625 3.85615 12.671C3.17715 13.371 2.79715 14.307 2.79615 15.281V16.969C2.79915 17.818 3.31615 18.576 4.09815 18.9H4.06015C4.09715 18.9 4.12815 18.921 4.15915 18.94C4.18215 18.952 4.20315 18.967 4.21915 18.987C4.24515 19.022 4.26715 19.059 4.26715 19.105V21.167C4.26715 21.623 4.64215 21.994 5.10215 21.994H6.76615C7.22515 21.994 7.60015 21.623 7.60015 21.167V19.121L16.3981 19.123V21.167C16.3981 21.623 16.7721 21.994 17.2321 21.994H18.8961C19.3561 21.994 19.7301 21.623 19.7301 21.167V19.122C19.7311 19.036 19.7841 18.959 19.8641 18.926C20.6711 18.614 21.2041 17.837 21.2071 16.972V15.285C21.2061 14.308 20.8251 13.371 20.1451 12.67C20.1001 12.623 20.0791 12.558 20.0881 12.494Z" />
</svg>