<!--category:transportation-->
<!--character:E03A-->
<!--added:0.11-->
<svg width="24" height="24" viewBox="0 0 24 24" xmlns="http://www.w3.org/2000/svg"><path d="M6.172 14.441c.699 0 1.266.566 1.266 1.266 0 .699-.567 1.265-1.266 1.265-.335 0-.658-.134-.895-.371a1.264 1.264 0 0 1-.371-.894c0-.7.567-1.266 1.266-1.266zm1.441-6.049a.8445.8445 0 0 1 .832-.703h7.112c.413 0 .765.299.832.705l.405 2.425c.009.06-.008.122-.047.169a.215.215 0 0 1-.162.074H7.418a.215.215 0 0 1-.162-.074.2116.2116 0 0 1-.047-.171l.404-2.425zm10.218 6.049c.699 0 1.266.566 1.266 1.266 0 .699-.567 1.265-1.266 1.265-.699 0-1.266-.566-1.266-1.265 0-.7.567-1.266 1.266-1.266zm2.257-1.947a.2103.2103 0 0 1 .104-.154l.674-.39c.392-.226.634-.644.634-1.097 0-.452-.241-.87-.633-1.097a1.2692 1.2692 0 0 0-1.266-.001l-.899.52a.2152.2152 0 0 1-.196.008.2112.2112 0 0 1-.117-.156l-.338-2.012c-.2-1.222-1.258-2.118-2.497-2.115H8.445c-1.239-.003-2.297.894-2.497 2.117l-.337 2.012a.215.215 0 0 1-.118.155.2121.2121 0 0 1-.196-.007l-.897-.52c-.606-.349-1.381-.141-1.73.465-.35.606-.142 1.38.464 1.73l.675.39c.056.033.095.089.104.154a.209.209 0 0 1-.057.175c-.679.7-1.059 1.636-1.06 2.61v1.688c.003.849.52 1.607 1.302 1.931H4.06c.037 0 .068.021.099.04.023.012.044.027.06.047.026.035.048.072.048.118v2.062c0 .456.375.827.835.827h1.664c.459 0 .834-.371.834-.827v-2.046l8.798.002v2.044c0 .456.374.827.834.827h1.664c.46 0 .834-.371.834-.827v-2.045a.2154.2154 0 0 1 .134-.196c.807-.312 1.34-1.089 1.343-1.954v-1.687a3.7603 3.7603 0 0 0-1.062-2.615.2121.2121 0 0 1-.057-.176z"/></svg>