<!-- character:0:1167 -->
  <svg width="20" height="20" viewBox="0 0 20 20" >
<path   d="M5.14327 12.0342C5.72577 12.0342 6.19827 12.5058 6.19827 13.0892C6.19827 13.6717 5.72577 14.1433 5.14327 14.1433C4.86411 14.1433 4.59494 14.0317 4.39744 13.8342C4.19994 13.6367 4.08827 13.3692 4.08827 13.0892C4.08827 12.5058 4.56077 12.0342 5.14327 12.0342ZM6.34411 6.99334C6.40161 6.65501 6.69494 6.40751 7.03744 6.40751H12.9641C13.3083 6.40751 13.6016 6.65667 13.6574 6.99501L13.9949 9.01584C14.0024 9.06584 13.9883 9.11751 13.9558 9.15667C13.9216 9.19584 13.8724 9.21834 13.8208 9.21834H6.18161C6.12994 9.21834 6.08077 9.19584 6.04661 9.15667C6.01327 9.11751 5.99911 9.06501 6.00744 9.01417L6.34411 6.99334ZM14.8591 12.0342C15.4416 12.0342 15.9141 12.5058 15.9141 13.0892C15.9141 13.6717 15.4416 14.1433 14.8591 14.1433C14.2766 14.1433 13.8041 13.6717 13.8041 13.0892C13.8041 12.5058 14.2766 12.0342 14.8591 12.0342ZM16.7399 10.4117C16.7474 10.3575 16.7791 10.3108 16.8266 10.2833L17.3883 9.95834C17.7149 9.77001 17.9166 9.42167 17.9166 9.04417C17.9166 8.66751 17.7158 8.31917 17.3891 8.13001C17.0624 7.94167 16.6608 7.94167 16.3341 8.12917L15.5849 8.56251C15.5349 8.59084 15.4741 8.59334 15.4216 8.56917C15.3699 8.54417 15.3333 8.49584 15.3241 8.43917L15.0424 6.76251C14.8758 5.74417 13.9941 4.99751 12.9616 5.00001H7.03744C6.00494 4.99751 5.12327 5.74501 4.95661 6.76417L4.67577 8.44084C4.66577 8.49667 4.62911 8.54501 4.57744 8.57001C4.52494 8.59501 4.46411 8.59251 4.41411 8.56417L3.66661 8.13084C3.16161 7.84001 2.51577 8.01334 2.22494 8.51834C1.93327 9.02334 2.10661 9.66834 2.61161 9.96001L3.17411 10.285C3.22077 10.3125 3.25327 10.3592 3.26077 10.4133C3.26827 10.4667 3.25077 10.5208 3.21327 10.5592C2.64744 11.1425 2.33077 11.9225 2.32994 12.7342V14.1408C2.33244 14.8483 2.76327 15.48 3.41494 15.75H3.38327C3.41411 15.75 3.43994 15.7675 3.46577 15.7833C3.48494 15.7933 3.50244 15.8058 3.51577 15.8225C3.53744 15.8517 3.55577 15.8825 3.55577 15.9208V17.6392C3.55577 18.0192 3.86827 18.3283 4.25161 18.3283H5.63827C6.02077 18.3283 6.33327 18.0192 6.33327 17.6392V15.9342L13.6649 15.9358V17.6392C13.6649 18.0192 13.9766 18.3283 14.3599 18.3283H15.7466C16.1299 18.3283 16.4416 18.0192 16.4416 17.6392V15.935C16.4424 15.8633 16.4866 15.7992 16.5533 15.7717C17.2258 15.5117 17.6699 14.8642 17.6724 14.1433V12.7375C17.6716 11.9233 17.3541 11.1425 16.7874 10.5583C16.7499 10.5192 16.7324 10.465 16.7399 10.4117Z" />
</svg>