<!--character:9396-->
  <svg width="20" height="20" viewBox="0 0 20 20" >
<path d="M5.14346 12.0342C5.72596 12.0342 6.19846 12.5058 6.19846 13.0892C6.19846 13.6717 5.72596 14.1433 5.14346 14.1433C4.86429 14.1433 4.59512 14.0317 4.39762 13.8342C4.20012 13.6367 4.08846 13.3692 4.08846 13.0892C4.08846 12.5058 4.56096 12.0342 5.14346 12.0342ZM6.34429 6.99334C6.40179 6.65501 6.69512 6.40751 7.03762 6.40751H12.9643C13.3085 6.40751 13.6018 6.65667 13.6576 6.99501L13.9951 9.01584C14.0026 9.06584 13.9885 9.11751 13.956 9.15667C13.9218 9.19584 13.8726 9.21834 13.821 9.21834H6.18179C6.13012 9.21834 6.08096 9.19584 6.04679 9.15667C6.01346 9.11751 5.99929 9.06501 6.00762 9.01417L6.34429 6.99334ZM14.8593 12.0342C15.4418 12.0342 15.9143 12.5058 15.9143 13.0892C15.9143 13.6717 15.4418 14.1433 14.8593 14.1433C14.2768 14.1433 13.8043 13.6717 13.8043 13.0892C13.8043 12.5058 14.2768 12.0342 14.8593 12.0342ZM16.7401 10.4117C16.7476 10.3575 16.7793 10.3108 16.8268 10.2833L17.3885 9.95834C17.7151 9.77001 17.9168 9.42167 17.9168 9.04417C17.9168 8.66751 17.716 8.31917 17.3893 8.13001C17.0626 7.94167 16.661 7.94167 16.3343 8.12917L15.5851 8.56251C15.5351 8.59084 15.4743 8.59334 15.4218 8.56917C15.3701 8.54417 15.3335 8.49584 15.3243 8.43917L15.0426 6.76251C14.876 5.74417 13.9943 4.99751 12.9618 5.00001H7.03762C6.00512 4.99751 5.12346 5.74501 4.95679 6.76417L4.67596 8.44084C4.66596 8.49667 4.62929 8.54501 4.57762 8.57001C4.52512 8.59501 4.46429 8.59251 4.41429 8.56417L3.66679 8.13084C3.16179 7.84001 2.51596 8.01334 2.22512 8.51834C1.93346 9.02334 2.10679 9.66834 2.61179 9.96001L3.17429 10.285C3.22096 10.3125 3.25346 10.3592 3.26096 10.4133C3.26846 10.4667 3.25096 10.5208 3.21346 10.5592C2.64762 11.1425 2.33096 11.9225 2.33012 12.7342V14.1408C2.33262 14.8483 2.76346 15.48 3.41512 15.75H3.38346C3.41429 15.75 3.44012 15.7675 3.46596 15.7833C3.48512 15.7933 3.50262 15.8058 3.51596 15.8225C3.53762 15.8517 3.55596 15.8825 3.55596 15.9208V17.6392C3.55596 18.0192 3.86846 18.3283 4.25179 18.3283H5.63846C6.02096 18.3283 6.33346 18.0192 6.33346 17.6392V15.9342L13.6651 15.9358V17.6392C13.6651 18.0192 13.9768 18.3283 14.3601 18.3283H15.7468C16.1301 18.3283 16.4418 18.0192 16.4418 17.6392V15.935C16.4426 15.8633 16.4868 15.7992 16.5535 15.7717C17.226 15.5117 17.6701 14.8642 17.6726 14.1433V12.7375C17.6718 11.9233 17.3543 11.1425 16.7876 10.5583C16.7501 10.5192 16.7326 10.465 16.7401 10.4117Z" />
</svg>