<!-- character:0:2693 -->
  <svg width="20" height="20" viewBox="0 0 20 20" >
<path   d="M6.75001 10.625C5.60001 10.625 4.66667 9.69171 4.66667 8.54171C4.66667 7.70837 5.15834 7.00004 5.85834 6.66671C5.15834 6.33337 4.66667 5.62504 4.66667 4.79171C4.66667 3.64171 5.60001 2.70837 6.75001 2.70837C7.19167 2.70837 7.60001 2.84171 7.93334 3.07504L7.91667 2.91671C7.91667 1.76671 8.85001 0.833374 10 0.833374C11.15 0.833374 12.0833 1.76671 12.0833 2.91671L12.0667 3.07504C12.4083 2.84171 12.8083 2.70837 13.25 2.70837C14.4 2.70837 15.3333 3.64171 15.3333 4.79171C15.3333 5.62504 14.8417 6.33337 14.1417 6.66671C14.8417 7.00004 15.3333 7.70837 15.3333 8.54171C15.3333 9.69171 14.4 10.625 13.25 10.625C12.8083 10.625 12.4 10.4917 12.0667 10.2584L12.0833 10.4167C12.0833 11.5667 11.15 12.5 10 12.5C8.85001 12.5 7.91667 11.5667 7.91667 10.4167L7.93334 10.2584C7.59167 10.4917 7.19167 10.625 6.75001 10.625ZM17.4333 11.8334C16.9417 15.5 13.8 18.3334 10 18.3334C10 14.5334 12.8333 11.3917 16.5 10.9C17.0333 10.825 17.5083 11.3 17.4333 11.8334ZM10 18.3334C10 14.5334 7.16667 11.3917 3.50001 10.9C2.96667 10.825 2.49167 11.3 2.56667 11.8334C3.05834 15.5 6.20001 18.3334 10 18.3334ZM10 4.58337C11.15 4.58337 12.0833 5.51671 12.0833 6.66671C12.0833 7.81671 11.15 8.75004 10 8.75004C8.85 8.75004 7.91667 7.81671 7.91667 6.66671C7.91667 5.51671 8.85 4.58337 10 4.58337Z" />
</svg>