<!--character:E176-->
<!--added:0.33-->
<svg width="24" height="24" viewBox="0 0 24 24" xmlns="http://www.w3.org/2000/svg"><path d="M3 19.2933c-.0833-.0833-.1667-.1666-.1667-.3333v-6c0-.1667.1667-.3333.3334-.25h2.5c.25 0 .4166.1667.4166.4167v6c0 .0833-.0833.1666-.1666.1666H3zM8.25 8.46v-.0833h2.4167c.25 0 .4166.1666.4166.4166V18.96c0 .0833-.0833.1667-.1666.1667H8c-.0833 0-.1667-.0834-.1667-.1667V8.7933c0-.1666.1667-.3333.4167-.3333zm5 1.6667v-.0834h2.4167c.25 0 .4166.1667.4166.4167v8.5833c0 .0834-.0833.1667-.1666.1667H13c-.0833 0-.1667-.0833-.1667-.1667v-8.5c0-.25.1667-.4166.4167-.4166zm5-5.8334V4.21h2.4167c.25 0 .4166.1667.4166.4167V18.96c0 .0833-.0833.1667-.1666.1667H18c-.0833 0-.1667-.0834-.1667-.1667V4.6267c0-.1667.1667-.3334.4167-.3334zm-15.4167 17.5c-.5 0-.8333-.3333-.8333-.8333s.3333-.8333.8333-.8333h18.3334c.5 0 .8333.3333.8333.8333s-.3333.8333-.8333.8333H2.8333z"/></svg>