<!--character:3262-->
  <svg width="20" height="20" viewBox="0 0 20 20" >
<path d="M15.2084 3.57778C15 3.57778 14.8611 3.71666 14.8611 3.85555V15.8C14.8611 15.8694 14.9306 15.9389 15 15.9389H17.4306C17.5 15.9389 17.5695 15.8694 17.5695 15.8V3.85555C17.5695 3.64722 17.4306 3.50833 17.2222 3.50833H15.2084V3.57778Z" />
<path d="M6.87502 7.05C6.66669 7.05 6.5278 7.18889 6.5278 7.32778V15.8C6.5278 15.8694 6.59724 15.9389 6.66669 15.9389H9.09724C9.16669 15.9389 9.23613 15.8694 9.23613 15.8V7.32778C9.23613 7.11944 9.09724 6.98055 8.88891 6.98055H6.87502V7.05Z" />
<path d="M2.50002 16.0778H4.93058C5.00002 16.0778 5.06946 16.0083 5.06946 15.9389V10.9389C5.06946 10.7306 4.93058 10.5917 4.72224 10.5917H2.63891C2.50002 10.5222 2.36113 10.6611 2.36113 10.8V15.8C2.36113 15.9389 2.43058 16.0083 2.50002 16.0778Z" />
<path d="M10.6945 8.78611C10.6945 8.57778 10.8334 8.43889 11.0417 8.43889V8.36944H13.0556C13.2639 8.36944 13.4028 8.50833 13.4028 8.71667V15.8694C13.4028 15.9389 13.3334 16.0083 13.2639 16.0083H10.8334C10.7639 16.0083 10.6945 15.9389 10.6945 15.8694V8.78611Z" />
<path d="M17.6389 18.1611H2.36113C1.94446 18.1611 1.66669 17.8833 1.66669 17.4667C1.66669 17.05 1.94446 16.7722 2.36113 16.7722H17.6389C18.0556 16.7722 18.3334 17.05 18.3334 17.4667C18.3334 17.8833 18.0556 18.1611 17.6389 18.1611Z" />
</svg>