<!--character:$550:2112-->
  <svg width="24" height="24" viewBox="0 0 24 24" >
<path d="M18.25 4.29329C18 4.29329 17.8333 4.45996 17.8333 4.62663V18.96C17.8333 19.0433 17.9167 19.1266 18 19.1266H20.9167C21 19.1266 21.0833 19.0433 21.0833 18.96V4.62663C21.0833 4.37663 20.9167 4.20996 20.6667 4.20996H18.25V4.29329Z" />
<path d="M8.25001 8.45997C8.00001 8.45997 7.83334 8.62663 7.83334 8.7933V18.96C7.83334 19.0433 7.91668 19.1266 8.00001 19.1266H10.9167C11 19.1266 11.0833 19.0433 11.0833 18.96V8.7933C11.0833 8.5433 10.9167 8.37663 10.6667 8.37663H8.25001V8.45997Z" />
<path d="M3.00001 19.2933H5.91668C6.00001 19.2933 6.08334 19.21 6.08334 19.1266V13.1266C6.08334 12.8766 5.91668 12.71 5.66668 12.71H3.16668C3.00001 12.6266 2.83334 12.7933 2.83334 12.96V18.96C2.83334 19.1266 2.91668 19.21 3.00001 19.2933Z" />
<path d="M12.8333 10.5433C12.8333 10.2933 13 10.1266 13.25 10.1266V10.0433H15.6667C15.9167 10.0433 16.0833 10.21 16.0833 10.46V19.0433C16.0833 19.1266 16 19.21 15.9167 19.21H13C12.9167 19.21 12.8333 19.1266 12.8333 19.0433V10.5433Z" />
<path d="M21.1667 21.7933H2.83333C2.33333 21.7933 2 21.46 2 20.96C2 20.46 2.33333 20.1266 2.83333 20.1266H21.1667C21.6667 20.1266 22 20.46 22 20.96C22 21.46 21.6667 21.7933 21.1667 21.7933Z" />
</svg>