<!--character:6925-->
  <svg width="24" height="24" viewBox="0 0 24 24" >
<path d="M18.25 4.29333C18 4.29333 17.8334 4.46 17.8334 4.62666V18.96C17.8334 19.0433 17.9167 19.1267 18 19.1267H20.9167C21 19.1267 21.0834 19.0433 21.0834 18.96V4.62666C21.0834 4.37666 20.9167 4.21 20.6667 4.21H18.25V4.29333Z" />
<path d="M8.25002 8.46C8.00002 8.46 7.83336 8.62666 7.83336 8.79333V18.96C7.83336 19.0433 7.91669 19.1267 8.00002 19.1267H10.9167C11 19.1267 11.0834 19.0433 11.0834 18.96V8.79333C11.0834 8.54333 10.9167 8.37666 10.6667 8.37666H8.25002V8.46Z" />
<path d="M3.00002 19.2933H5.91669C6.00002 19.2933 6.08336 19.21 6.08336 19.1267V13.1267C6.08336 12.8767 5.91669 12.71 5.66669 12.71H3.16669C3.00002 12.6267 2.83336 12.7933 2.83336 12.96V18.96C2.83336 19.1267 2.91669 19.21 3.00002 19.2933Z" />
<path d="M12.8334 10.5433C12.8334 10.2933 13 10.1267 13.25 10.1267V10.0433H15.6667C15.9167 10.0433 16.0834 10.21 16.0834 10.46V19.0433C16.0834 19.1267 16 19.21 15.9167 19.21H13C12.9167 19.21 12.8334 19.1267 12.8334 19.0433V10.5433Z" />
<path d="M21.1667 21.7933H2.83336C2.33336 21.7933 2.00002 21.46 2.00002 20.96C2.00002 20.46 2.33336 20.1267 2.83336 20.1267H21.1667C21.6667 20.1267 22 20.46 22 20.96C22 21.46 21.6667 21.7933 21.1667 21.7933Z" />
</svg>