<!-- character:0:1751 -->
  <svg width="20" height="20" viewBox="0 0 20 20" >
<path   d="M15.2083 3.57775C15 3.57775 14.8611 3.71663 14.8611 3.85552V15.8C14.8611 15.8694 14.9306 15.9389 15 15.9389H17.4306C17.5 15.9389 17.5694 15.8694 17.5694 15.8V3.85552C17.5694 3.64719 17.4306 3.5083 17.2222 3.5083H15.2083V3.57775ZM6.875 7.04997C6.66666 7.04997 6.52777 7.18886 6.52777 7.32774V15.8C6.52777 15.8694 6.59722 15.9389 6.66666 15.9389H9.09722C9.16666 15.9389 9.23611 15.8694 9.23611 15.8V7.32774C9.23611 7.11941 9.09722 6.98052 8.88889 6.98052H6.875V7.04997ZM2.5 16.0777H4.93055C5 16.0777 5.06944 16.0083 5.06944 15.9389V10.9389C5.06944 10.7305 4.93055 10.5916 4.72222 10.5916H2.63889C2.5 10.5222 2.36111 10.6611 2.36111 10.8V15.8C2.36111 15.9389 2.43055 16.0083 2.5 16.0777ZM10.6944 8.78608C10.6944 8.57775 10.8333 8.43886 11.0417 8.43886V8.36941H13.0556C13.2639 8.36941 13.4028 8.5083 13.4028 8.71664V15.8694C13.4028 15.9389 13.3333 16.0083 13.2639 16.0083H10.8333C10.7639 16.0083 10.6944 15.9389 10.6944 15.8694V8.78608ZM17.6389 18.1611H2.36111C1.94444 18.1611 1.66666 17.8833 1.66666 17.4666C1.66666 17.05 1.94444 16.7722 2.36111 16.7722H17.6389C18.0556 16.7722 18.3333 17.05 18.3333 17.4666C18.3333 17.8833 18.0556 18.1611 17.6389 18.1611Z" />
</svg>