<!--character:4772-->
  <svg width="24" height="24" viewBox="0 0 24 24" >
<path d="M3.30415 4.8H20.6955C21.4158 4.8 21.9998 5.38398 21.9998 6.10435V17.8435C21.9998 18.5639 21.4158 19.1478 20.6955 19.1478H12.1355L6.59546 22.9835C6.4625 23.0757 6.28932 23.0865 6.14596 23.0114C6.0026 22.9364 5.91279 22.7879 5.91285 22.6261V19.1478H3.30415C2.96319 19.1574 2.63273 19.0293 2.38733 18.7924C2.14192 18.5555 2.00224 18.2298 1.9998 17.8887V6.10435C1.9998 5.38398 2.58378 4.8 3.30415 4.8ZM16.7824 13.4457C17.5028 13.4457 18.0868 12.8617 18.0868 12.1413C18.0868 11.4209 17.5028 10.837 16.7824 10.837C16.062 10.837 15.4781 11.4209 15.4781 12.1413C15.4781 12.8617 16.062 13.4457 16.7824 13.4457ZM5.91285 12.1413C5.91285 12.8617 6.49682 13.4457 7.2172 13.4457C7.93757 13.4457 8.52154 12.8617 8.52154 12.1413C8.52154 11.4209 7.93757 10.837 7.2172 10.837C6.49682 10.837 5.91285 11.4209 5.91285 12.1413ZM11.9998 10.837C11.2794 10.837 10.6955 11.4209 10.6955 12.1413C10.6955 12.8617 11.2794 13.4457 11.9998 13.4457C12.7202 13.4457 13.3042 12.8617 13.3042 12.1413C13.3042 11.4209 12.7202 10.837 11.9998 10.837Z" />
</svg>