<!--character:222:550:1970-->
  <svg width="24" height="24" viewBox="0 0 24 24" >
<path d="M3.30435 4.79999H20.6957C21.416 4.79999 22 5.38396 22 6.10434V17.8435C22 18.5638 21.416 19.1478 20.6957 19.1478H12.1357L6.59565 22.9835C6.4627 23.0757 6.28952 23.0865 6.14616 23.0114C6.0028 22.9364 5.91299 22.7879 5.91304 22.6261V19.1478H3.30435C2.96339 19.1574 2.63293 19.0293 2.38752 18.7924C2.14211 18.5555 2.00244 18.2298 2 17.8887V6.10434C2 5.38396 2.58398 4.79999 3.30435 4.79999ZM16.7826 13.4456C17.503 13.4456 18.087 12.8617 18.087 12.1413C18.087 11.4209 17.503 10.8369 16.7826 10.8369C16.0622 10.8369 15.4783 11.4209 15.4783 12.1413C15.4783 12.8617 16.0622 13.4456 16.7826 13.4456ZM5.91304 12.1413C5.91304 12.8617 6.49702 13.4456 7.21739 13.4456C7.93776 13.4456 8.52174 12.8617 8.52174 12.1413C8.52174 11.4209 7.93776 10.8369 7.21739 10.8369C6.49702 10.8369 5.91304 11.4209 5.91304 12.1413ZM12 10.8369C11.2796 10.8369 10.6957 11.4209 10.6957 12.1413C10.6957 12.8617 11.2796 13.4456 12 13.4456C12.7204 13.4456 13.3043 12.8617 13.3043 12.1413C13.3043 11.4209 12.7204 10.8369 12 10.8369Z" />
</svg>