<!--character:8067-->
  <svg width="24" height="24" viewBox="0 0 24 24" >
<path d="M3.30434 4.8H20.6956C21.416 4.8 22 5.38398 22 6.10435V17.8435C22 18.5639 21.416 19.1478 20.6956 19.1478H12.1356L6.59564 22.9835C6.46268 23.0757 6.2895 23.0865 6.14615 23.0114C6.00279 22.9364 5.91297 22.7879 5.91303 22.6261V19.1478H3.30434C2.96338 19.1574 2.63292 19.0293 2.38751 18.7924C2.1421 18.5555 2.00242 18.2298 1.99999 17.8887V6.10435C1.99999 5.38398 2.58396 4.8 3.30434 4.8ZM16.7826 13.4457C17.503 13.4457 18.0869 12.8617 18.0869 12.1413C18.0869 11.4209 17.503 10.837 16.7826 10.837C16.0622 10.837 15.4782 11.4209 15.4782 12.1413C15.4782 12.8617 16.0622 13.4457 16.7826 13.4457ZM5.91303 12.1413C5.91303 12.8617 6.49701 13.4457 7.21738 13.4457C7.93775 13.4457 8.52173 12.8617 8.52173 12.1413C8.52173 11.4209 7.93775 10.837 7.21738 10.837C6.49701 10.837 5.91303 11.4209 5.91303 12.1413ZM12 10.837C11.2796 10.837 10.6956 11.4209 10.6956 12.1413C10.6956 12.8617 11.2796 13.4457 12 13.4457C12.7204 13.4457 13.3043 12.8617 13.3043 12.1413C13.3043 11.4209 12.7204 10.837 12 10.837Z" />
</svg>