<!--character:8594-->
  <svg width="20" height="20" viewBox="0 0 20 20" >
<path d="M2.75346 4H17.2462C17.8465 4 18.3332 4.48665 18.3332 5.08696V14.8696C18.3332 15.4699 17.8465 15.9565 17.2462 15.9565H10.1129L5.49621 19.1529C5.38542 19.2298 5.2411 19.2387 5.12164 19.1762C5.00217 19.1136 4.92733 18.9899 4.92737 18.8551V15.9565H2.75346C2.46933 15.9645 2.19394 15.8578 1.98944 15.6603C1.78493 15.4629 1.66853 15.1915 1.6665 14.9072V5.08696C1.6665 4.48665 2.15315 4 2.75346 4ZM13.9853 11.2047C14.5857 11.2047 15.0723 10.7181 15.0723 10.1178C15.0723 9.51744 14.5857 9.0308 13.9853 9.0308C13.385 9.0308 12.8984 9.51744 12.8984 10.1178C12.8984 10.7181 13.385 11.2047 13.9853 11.2047ZM4.92737 10.1178C4.92737 10.7181 5.41402 11.2047 6.01433 11.2047C6.61464 11.2047 7.10129 10.7181 7.10129 10.1178C7.10129 9.51744 6.61464 9.0308 6.01433 9.0308C5.41402 9.0308 4.92737 9.51744 4.92737 10.1178ZM9.99984 9.0308C9.39953 9.0308 8.91288 9.51744 8.91288 10.1178C8.91288 10.7181 9.39953 11.2047 9.99984 11.2047C10.6001 11.2047 11.0868 10.7181 11.0868 10.1178C11.0868 9.51744 10.6001 9.0308 9.99984 9.0308Z" />
</svg>