<!-- character:0:554 -->
  <svg width="20" height="20" viewBox="0 0 20 20" >
<path   d="M2.75358 4H17.2463C17.8466 4 18.3333 4.48665 18.3333 5.08696V14.8696C18.3333 15.4699 17.8466 15.9565 17.2463 15.9565H10.113L5.49634 19.1529C5.38554 19.2298 5.24122 19.2387 5.12176 19.1762C5.00229 19.1136 4.92745 18.9899 4.9275 18.8551V15.9565H2.75358C2.46945 15.9645 2.19407 15.8578 1.98956 15.6603C1.78505 15.4629 1.66866 15.1915 1.66663 14.9072V5.08696C1.66663 4.48665 2.15327 4 2.75358 4ZM13.9855 11.2047C14.5858 11.2047 15.0724 10.7181 15.0724 10.1178C15.0724 9.51744 14.5858 9.0308 13.9855 9.0308C13.3852 9.0308 12.8985 9.51744 12.8985 10.1178C12.8985 10.7181 13.3852 11.2047 13.9855 11.2047ZM4.9275 10.1178C4.9275 9.51744 5.41414 9.0308 6.01445 9.0308C6.61476 9.0308 7.10141 9.51744 7.10141 10.1178C7.10141 10.7181 6.61476 11.2047 6.01445 11.2047C5.41414 11.2047 4.9275 10.7181 4.9275 10.1178ZM9.99996 9.0308C9.39965 9.0308 8.913 9.51744 8.913 10.1178C8.913 10.7181 9.39965 11.2047 9.99996 11.2047C10.6003 11.2047 11.0869 10.7181 11.0869 10.1178C11.0869 9.51744 10.6003 9.0308 9.99996 9.0308Z" />
</svg>