<!--character:189:550:1970-->
<svg width="24" height="24" viewBox="0 0 24 24" xmlns="http://www.w3.org/2000/svg"><path d="M20.6957 4.8H3.3043C2.584 4.8 2 5.384 2 6.1043v11.7844a1.2687 1.2687 0 0 0 1.3043 1.2591H5.913v3.4783a.4348.4348 0 0 0 .6827.3574l5.54-3.8357h8.56c.7203 0 1.3043-.584 1.3043-1.3043V6.1043C22 5.384 21.416 4.8 20.6957 4.8zm-2.6087 7.3413c0 .7204-.584 1.3044-1.3044 1.3044s-1.3043-.584-1.3043-1.3044.584-1.3043 1.3043-1.3043c.7204 0 1.3044.584 1.3044 1.3043zm-12.174 0c0-.7204.584-1.3043 1.3044-1.3043s1.3043.584 1.3043 1.3043c0 .7204-.584 1.3044-1.3043 1.3044-.7204 0-1.3044-.584-1.3044-1.3044zm4.7827 0c0-.7204.584-1.3043 1.3043-1.3043.7204 0 1.3043.584 1.3043 1.3043 0 .7204-.584 1.3044-1.3043 1.3044-.7204 0-1.3043-.584-1.3043-1.3044z"/></svg>
