<!--character:8647-->
  <svg width="24" height="24" viewBox="0 0 24 24" >
<path d="M3.30437 4.8H20.6957C21.416 4.8 22 5.38398 22 6.10435V17.8435C22 18.5639 21.416 19.1478 20.6957 19.1478H12.1357L6.59568 22.9835C6.46272 23.0757 6.28954 23.0865 6.14618 23.0114C6.00282 22.9364 5.91301 22.7879 5.91307 22.6261V19.1478H3.30437C2.96341 19.1574 2.63295 19.0293 2.38755 18.7924C2.14214 18.5555 2.00246 18.2298 2.00002 17.8887V6.10435C2.00002 5.38398 2.584 4.8 3.30437 4.8ZM16.7826 13.4457C17.503 13.4457 18.087 12.8617 18.087 12.1413C18.087 11.4209 17.503 10.837 16.7826 10.837C16.0623 10.837 15.4783 11.4209 15.4783 12.1413C15.4783 12.8617 16.0623 13.4457 16.7826 13.4457ZM5.91307 12.1413C5.91307 12.8617 6.49704 13.4457 7.21742 13.4457C7.93779 13.4457 8.52176 12.8617 8.52176 12.1413C8.52176 11.4209 7.93779 10.837 7.21742 10.837C6.49704 10.837 5.91307 11.4209 5.91307 12.1413ZM12 10.837C11.2797 10.837 10.6957 11.4209 10.6957 12.1413C10.6957 12.8617 11.2797 13.4457 12 13.4457C12.7204 13.4457 13.3044 12.8617 13.3044 12.1413C13.3044 11.4209 12.7204 10.837 12 10.837Z" />
</svg>