<!-- character:0:52 -->
  <svg width="20" height="20" viewBox="0 0 20 20" >
<path   d="M7.03743 10.5563C6.75152 10.2566 6.27677 10.2454 5.97707 10.5313C5.67736 10.8173 5.66619 11.292 5.95211 11.5917L8.09592 13.8791C8.40247 14.2004 8.91955 14.1865 9.20835 13.8491L13.8676 7.98524C14.137 7.67056 14.1002 7.19711 13.7856 6.92775C13.4709 6.6584 12.9974 6.69514 12.7281 7.00981L8.84911 11.9375C8.73524 12.0822 8.52567 12.1071 8.38101 11.9932C8.36755 11.9826 8.35493 11.971 8.34325 11.9585L7.03743 10.5563ZM1.66632 10.0001C1.66632 5.41675 5.41632 1.66675 9.99965 1.66675C14.583 1.66675 18.333 5.41675 18.333 10.0001C18.333 14.5834 14.583 18.3334 9.99965 18.3334C5.41632 18.3334 1.66632 14.5834 1.66632 10.0001Z" />
</svg>