<!--character:9037-->
  <svg width="24" height="24" viewBox="0 0 24 24" >
<path d="M8.44485 12.6675C8.10175 12.3078 7.53205 12.2944 7.17241 12.6375C6.81276 12.9806 6.79935 13.5503 7.14245 13.91L9.71503 16.6548C10.0829 17.0404 10.7034 17.0237 11.0499 16.6188L16.6411 9.58218C16.9643 9.20457 16.9202 8.63643 16.5426 8.3132C16.165 7.98998 15.5968 8.03407 15.2736 8.41168L10.6189 14.3249C10.4822 14.4985 10.2307 14.5284 10.0571 14.3918C10.041 14.3791 10.0258 14.3651 10.0118 14.3501L8.44485 12.6675ZM1.99951 12C1.99951 6.5 6.49951 2 11.9995 2C17.4995 2 21.9995 6.5 21.9995 12C21.9995 17.5 17.4995 22 11.9995 22C6.49951 22 1.99951 17.5 1.99951 12Z" />
</svg>