<!--character:236:550:2441-->
  <svg width="24" height="24" viewBox="0 0 24 24" >
<path   d="M8.44489 12.6675C8.10178 12.3078 7.53209 12.2944 7.17245 12.6375C6.8128 12.9806 6.79939 13.5503 7.14249 13.91L9.71506 16.6548C10.0829 17.0404 10.7034 17.0237 11.05 16.6188L16.6411 9.58219C16.9643 9.20458 16.9202 8.63644 16.5426 8.31321C16.165 7.98998 15.5969 8.03407 15.2737 8.41168L10.6189 14.3249C10.4823 14.4985 10.2308 14.5284 10.0572 14.3918C10.041 14.3791 10.0259 14.3651 10.0119 14.3501L8.44489 12.6675ZM1.99957 12C1.99957 6.5 6.49957 2 11.9996 2C17.4996 2 21.9996 6.5 21.9996 12C21.9996 17.5 17.4996 22 11.9996 22C6.49957 22 1.99957 17.5 1.99957 12Z" />
</svg>