<!--character:163-->
  <svg width="24" height="24" viewBox="0 0 24 24" >
<path d="M15.5004 4.66662C14.2344 4.66662 14.2344 4.53328 14.2344 4.33328V3.73328C14.2344 3.53328 14.3834 3.39995 14.6068 3.39995C15.1281 3.39995 15.3515 3.06662 15.3515 2.66662C15.3515 2.26662 15.1281 1.99995 14.6068 1.99995H9.39401C8.87273 1.99995 8.64933 2.33328 8.64933 2.66662C8.64933 2.99995 8.87273 3.33328 9.31954 3.33328C9.61741 3.39995 9.76635 3.53328 9.76635 3.73328V4.26662C9.76635 4.46662 9.61741 4.59995 9.39401 4.59995H6.86209C5.81954 4.66662 5.00039 5.39995 5.00039 6.26662V15.6666C5.00039 16.4666 5.59614 17.1333 6.48975 17.2666C6.56422 17.2666 6.63869 17.4 6.63869 17.4666C6.63869 17.8666 6.93656 18 7.38337 18C7.83018 18 8.12805 17.8666 8.12805 17.4666C8.12805 17.4 8.20252 17.3333 8.27699 17.3333H15.5749C15.6493 17.3333 15.7238 17.4 15.7238 17.4666C15.7238 17.8666 16.0217 18 16.4685 18C16.9153 18 17.2132 17.8666 17.2132 17.4666C17.2132 17.4 17.4366 17.2666 17.511 17.2666C18.4046 17.1333 19.0004 16.4 19.0004 15.6666V6.26662C19.0004 5.39995 18.3302 4.66662 17.2876 4.66662H15.5004ZM15.2232 7.39995C15.2232 7.06858 15.5233 6.79995 15.8935 6.79995C16.2636 6.79995 16.5637 7.06858 16.5637 7.39995V14.1999C16.5637 14.5313 16.2636 14.7999 15.8935 14.7999C15.5233 14.7999 15.2232 14.5313 15.2232 14.1999V7.39995ZM11.3807 7.39995C11.3807 7.06858 11.6807 6.79995 12.0509 6.79995C12.421 6.79995 12.7211 7.06858 12.7211 7.39995V14.1999C12.7211 14.5313 12.421 14.7999 12.0509 14.7999C11.6807 14.7999 11.3807 14.5313 11.3807 14.1999V7.39995ZM8.20834 6.79995C8.57848 6.79995 8.87855 7.06858 8.87855 7.39995V14.1999C8.87855 14.5313 8.57848 14.7999 8.20834 14.7999C7.83819 14.7999 7.53812 14.5313 7.53812 14.1999V7.39995C7.53812 7.06858 7.83819 6.79995 8.20834 6.79995ZM11.2557 3.66628C11.2557 3.46648 11.4046 3.33328 11.6281 3.33328H12.3727C12.5961 3.33328 12.7451 3.46648 12.7451 3.66628V4.26428C12.7451 4.46408 12.5961 4.59728 12.3727 4.59728H11.6281C11.4046 4.59728 11.2557 4.46408 11.2557 4.26428V3.66628Z" />
<path d="M5.50078 20.25C5.91482 20.2502 6.25078 20.5859 6.25078 21C6.25078 21.4141 5.91482 21.7498 5.50078 21.75H5.00039C4.58618 21.75 4.25039 21.4142 4.25039 21C4.25039 20.5858 4.58618 20.25 5.00039 20.25H5.50078ZM9 20.25C9.41421 20.25 9.75 20.5858 9.75 21C9.75 21.4142 9.41421 21.75 9 21.75H8.00039C7.58618 21.75 7.25039 21.4142 7.25039 21C7.25039 20.5858 7.58618 20.25 8.00039 20.25H9ZM12.5004 20.25C12.9146 20.25 13.2504 20.5858 13.2504 21C13.2504 21.4142 12.9146 21.75 12.5004 21.75H11.5008C11.0866 21.75 10.7508 21.4142 10.7508 21C10.7508 20.5858 11.0866 20.25 11.5008 20.25H12.5004ZM16.0008 20.25C16.4148 20.2502 16.7508 20.5859 16.7508 21C16.7508 21.4141 16.4148 21.7498 16.0008 21.75L15 21.75C14.586 21.7498 14.25 21.4141 14.25 21C14.25 20.5859 14.586 20.2502 15 20.25H16.0008ZM19.0008 20.25C19.4148 20.2502 19.7508 20.5859 19.7508 21C19.7508 21.4141 19.4148 21.7498 19.0008 21.75H18.5004C18.0862 21.75 17.7504 21.4142 17.7504 21C17.7504 20.5858 18.0862 20.25 18.5004 20.25H19.0008Z" />
</svg>