<!--character:1488-->
  <svg width="20" height="20" viewBox="0 0 20 20" >
<path d="M7.03737 10.5562C6.75145 10.2565 6.27671 10.2453 5.97701 10.5313C5.6773 10.8172 5.66613 11.2919 5.95204 11.5916L8.09585 13.879C8.40241 14.2003 8.91949 14.1864 9.20829 13.849L13.8676 7.98515C14.1369 7.67048 14.1002 7.19703 13.7855 6.92767C13.4708 6.65832 12.9974 6.69505 12.728 7.00973L8.84905 11.9374C8.73518 12.0821 8.52561 12.107 8.38095 11.9932C8.36749 11.9826 8.35487 11.9709 8.34319 11.9584L7.03737 10.5562ZM1.66626 10C1.66626 5.41666 5.41626 1.66666 9.99959 1.66666C14.5829 1.66666 18.3329 5.41666 18.3329 10C18.3329 14.5833 14.5829 18.3333 9.99959 18.3333C5.41626 18.3333 1.66626 14.5833 1.66626 10Z" />
</svg>