<!--character:7058-->
  <svg width="24" height="24" viewBox="0 0 24 24" >
<path d="M9.02657 12.2635L4.79719 16.0886C4.4281 16.4224 4.39879 16.993 4.73172 17.363C5.06465 17.7331 5.63374 17.7625 6.00283 17.4287L11.3049 12.6334C11.702 12.2742 11.7009 11.6491 11.3025 11.2912L6.04677 6.57122C5.67652 6.23871 5.10753 6.27009 4.7759 6.64132C4.44426 7.01254 4.47557 7.58302 4.84581 7.91553L9.02553 11.6692C9.18989 11.8168 9.20348 12.0697 9.05587 12.2341C9.04662 12.2444 9.03684 12.2542 9.02657 12.2635Z" />
<path d="M16.9266 12.2635L12.6972 16.0886C12.3281 16.4224 12.2988 16.993 12.6317 17.363C12.9646 17.7331 13.5337 17.7625 13.9028 17.4287L19.2049 12.6334C19.602 12.2742 19.6009 11.6491 19.2025 11.2912L13.9468 6.57122C13.5765 6.23871 13.0075 6.27009 12.6759 6.64132C12.3443 7.01254 12.3756 7.58302 12.7458 7.91553L16.9255 11.6692C17.0899 11.8168 17.1035 12.0697 16.9559 12.2341C16.9466 12.2444 16.9368 12.2542 16.9266 12.2635Z" />
</svg>