<!--character:E203-->
<svg width="24" height="24" viewBox="0 0 24 24" xmlns="http://www.w3.org/2000/svg">
  <path d="M4.79719 16.0886L9.02657 12.2635C9.03684 12.2542 9.04662 12.2444 9.05587 12.2341C9.20348 12.0697 9.1899 11.8168 9.02553 11.6692L4.84581 7.91554C4.47557 7.58303 4.44426 7.01254 4.7759 6.64132C5.10753 6.2701 5.67652 6.23872 6.04677 6.57122L11.3025 11.2912C11.7009 11.6491 11.702 12.2742 11.3049 12.6334L6.00283 17.4287C5.63374 17.7625 5.06465 17.7331 4.73172 17.363C4.39879 16.993 4.4281 16.4224 4.79719 16.0886Z" />
  <path d="M12.6972 16.0886L16.9266 12.2635C16.9368 12.2542 16.9466 12.2444 16.9559 12.2341C17.1035 12.0697 17.0899 11.8168 16.9255 11.6692L12.7458 7.91554C12.3756 7.58303 12.3443 7.01254 12.6759 6.64132C13.0075 6.2701 13.5765 6.23872 13.9468 6.57122L19.2025 11.2912C19.601 11.6491 19.602 12.2742 19.2049 12.6334L13.9028 17.4287C13.5337 17.7625 12.9647 17.7331 12.6317 17.363C12.2988 16.993 12.3281 16.4224 12.6972 16.0886Z" />
</svg>
