<!--character:E202-->
<svg width="24" height="24" viewBox="0 0 24 24" xmlns="http://www.w3.org/2000/svg">
  <path d="M19.2049 16.0886C19.5739 16.4224 19.6033 16.993 19.2703 17.363C18.9374 17.7331 18.3683 17.7625 17.9992 17.4287L12.6972 12.6334C12.3 12.2742 12.3011 11.6491 12.6995 11.2912L17.9553 6.57122C18.3255 6.23872 18.8945 6.2701 19.2261 6.64132C19.5578 7.01254 19.5265 7.58303 19.1562 7.91554L14.9765 11.6692C14.8122 11.8168 14.7986 12.0697 14.9462 12.2341C14.9554 12.2444 14.9652 12.2542 14.9755 12.2635L19.2049 16.0886Z" />
  <path d="M11.3049 16.0886C11.6739 16.4224 11.7033 16.993 11.3703 17.363C11.0374 17.7331 10.4683 17.7625 10.0992 17.4287L4.79718 12.6334C4.40001 12.2742 4.4011 11.6491 4.79952 11.2912L10.0553 6.57122C10.4255 6.23872 10.9945 6.2701 11.3261 6.64132C11.6578 7.01254 11.6265 7.58303 11.2562 7.91554L7.07651 11.6692C6.91215 11.8168 6.89857 12.0697 7.04618 12.2341C7.05543 12.2444 7.06521 12.2542 7.07547 12.2635L11.3049 16.0886Z" />
</svg>
