<!--character:2264-->
  <svg width="24" height="24" viewBox="0 0 24 24" >
<path d="M11.3703 17.363C11.7033 16.993 11.6739 16.4224 11.3049 16.0886L7.07547 12.2635C7.06521 12.2542 7.05543 12.2444 7.04618 12.2341C6.89857 12.0697 6.91215 11.8168 7.07651 11.6692L11.2562 7.91553C11.6265 7.58302 11.6578 7.01254 11.3261 6.64132C10.9945 6.27009 10.4255 6.23871 10.0553 6.57122L4.79952 11.2912C4.4011 11.6491 4.40001 12.2742 4.79718 12.6334L10.0992 17.4287C10.4683 17.7625 11.0374 17.7331 11.3703 17.363Z" />
<path d="M19.2703 17.363C19.6033 16.993 19.5739 16.4224 19.2049 16.0886L14.9755 12.2635C14.9652 12.2542 14.9554 12.2444 14.9462 12.2341C14.7986 12.0697 14.8122 11.8168 14.9765 11.6692L19.1562 7.91553C19.5265 7.58302 19.5578 7.01254 19.2261 6.64132C18.8945 6.27009 18.3255 6.23871 17.9553 6.57122L12.6995 11.2912C12.3011 11.6491 12.3 12.2742 12.6972 12.6334L17.9992 17.4287C18.3683 17.7625 18.9374 17.7331 19.2703 17.363Z" />
</svg>