<!--character:$550:226-->
  <svg width="24" height="24" viewBox="0 0 24 24" >
<path d="M11.3703 17.3631C11.7033 16.993 11.6739 16.4224 11.3049 16.0886L7.07547 12.2635C7.06521 12.2543 7.05543 12.2444 7.04618 12.2341C6.89857 12.0698 6.91215 11.8169 7.07651 11.6693L11.2562 7.9156C11.6265 7.58309 11.6578 7.0126 11.3261 6.64138C10.9945 6.27016 10.4255 6.23878 10.0553 6.57128L4.79952 11.2913C4.4011 11.6491 4.40001 12.2743 4.79718 12.6335L10.0992 17.4287C10.4683 17.7625 11.0374 17.7332 11.3703 17.3631Z" />
<path d="M19.2703 17.3631C19.6032 16.993 19.5739 16.4224 19.2048 16.0886L14.9754 12.2635C14.9652 12.2543 14.9554 12.2444 14.9462 12.2341C14.7985 12.0698 14.8121 11.8169 14.9765 11.6693L19.1562 7.9156C19.5265 7.58309 19.5578 7.0126 19.2261 6.64138C18.8945 6.27016 18.3255 6.23878 17.9553 6.57128L12.6995 11.2913C12.3011 11.6491 12.3 12.2743 12.6972 12.6335L17.9992 17.4287C18.3683 17.7625 18.9374 17.7332 19.2703 17.3631Z" />
</svg>