<!--character:65:550:235-->
  <svg width="24" height="24" viewBox="0 0 24 24" >
<path   d="M9.02657 12.2635L4.79719 16.0886C4.4281 16.4224 4.39879 16.993 4.73172 17.3631C5.06465 17.7332 5.63374 17.7625 6.00283 17.4287L11.3049 12.6335C11.702 12.2743 11.7009 11.6491 11.3025 11.2913L6.04677 6.57128C5.67652 6.23878 5.10753 6.27016 4.7759 6.64138C4.44426 7.0126 4.47557 7.58309 4.84581 7.9156L9.02553 11.6693C9.1899 11.8169 9.20348 12.0698 9.05587 12.2341C9.04662 12.2444 9.03684 12.2543 9.02657 12.2635ZM16.9265 12.2635L12.6972 16.0886C12.3281 16.4224 12.2988 16.993 12.6317 17.3631C12.9646 17.7332 13.5337 17.7625 13.9028 17.4287L19.2048 12.6335C19.602 12.2743 19.6009 11.6491 19.2025 11.2913L13.9467 6.57128C13.5765 6.23878 13.0075 6.27016 12.6759 6.64138C12.3442 7.0126 12.3755 7.58309 12.7458 7.9156L16.9255 11.6693C17.0899 11.8169 17.1035 12.0698 16.9558 12.2341C16.9466 12.2444 16.9368 12.2543 16.9265 12.2635Z" />
</svg>