<!-- character:375:96 -->
  <svg width="20" height="20" viewBox="0 0 20 20" >
<path   d="M9.47527 14.4692C9.75271 14.1608 9.72829 13.6853 9.42072 13.4072L5.89623 10.2196C5.88767 10.2118 5.87952 10.2037 5.87181 10.1951C5.74881 10.0581 5.76013 9.84736 5.89709 9.72435L9.38019 6.59629C9.68873 6.3192 9.71482 5.8438 9.43846 5.53445C9.16209 5.22509 8.68794 5.19894 8.3794 5.47603L3.9996 9.40938C3.66758 9.70756 3.66667 10.2285 3.99765 10.5279L8.41602 14.5239C8.72359 14.8021 9.19783 14.7776 9.47527 14.4692ZM16.0586 14.4692C16.336 14.1608 16.3116 13.6853 16.004 13.4072L12.4796 10.2196C12.471 10.2118 12.4629 10.2037 12.4551 10.1951C12.3321 10.0581 12.3435 9.84736 12.4804 9.72435L15.9635 6.59629C16.2721 6.3192 16.2982 5.8438 16.0218 5.53445C15.7454 5.22509 15.2713 5.19894 14.9627 5.47603L10.5829 9.40938C10.2509 9.70756 10.25 10.2285 10.581 10.5279L14.9993 14.5239C15.3069 14.8021 15.7812 14.7776 16.0586 14.4692Z" />
</svg>