<!-- character:375:97 -->
  <svg width="20" height="20" viewBox="0 0 20 20" >
<path   d="M7.52214 10.2196L3.99766 13.4072C3.69009 13.6853 3.66566 14.1608 3.9431 14.4692C4.22054 14.7776 4.69479 14.8021 5.00236 14.5239L9.42072 10.5279C9.7517 10.2285 9.75079 9.70756 9.41877 9.40938L5.03897 5.47603C4.73043 5.19894 4.25628 5.22509 3.97992 5.53445C3.70355 5.8438 3.72964 6.3192 4.03818 6.59629L7.52128 9.72435C7.65825 9.84736 7.66956 10.0581 7.54656 10.1951C7.53885 10.2037 7.5307 10.2118 7.52214 10.2196ZM14.1055 10.2196L10.581 13.4072C10.2734 13.6853 10.249 14.1608 10.5264 14.4692C10.8039 14.7776 11.2781 14.8021 11.5857 14.5239L16.0041 10.5279C16.335 10.2285 16.3341 9.70756 16.0021 9.40938L11.6223 5.47603C11.3138 5.19894 10.8396 5.22509 10.5632 5.53445C10.2869 5.8438 10.313 6.3192 10.6215 6.59629L14.1046 9.72435C14.2416 9.84736 14.2529 10.0581 14.1299 10.1951C14.1222 10.2037 14.114 10.2118 14.1055 10.2196Z" />
</svg>