<!--character:221:550:2419-->
  <svg width="24" height="24" viewBox="0 0 24 24" >
<path d="M9.91666 11.9903C9.91666 11.4155 9.44999 10.949 8.87499 10.949C8.29999 10.949 7.83332 11.4155 7.83332 11.9903C7.83332 12.5651 8.29999 13.0316 8.87499 13.0316C9.44999 13.0316 9.91666 12.5651 9.91666 11.9903Z" />
<path d="M16.1667 11.9903C16.1667 11.4155 15.7 10.949 15.125 10.949C14.55 10.949 14.0833 11.4155 14.0833 11.9903C14.0833 12.5651 14.55 13.0316 15.125 13.0316C15.7 13.0316 16.1667 12.5651 16.1667 11.9903Z" />
<path d="M10.4657 15.1916C11.3698 15.8881 12.6298 15.8881 13.534 15.1916C13.5565 15.17 13.5807 15.1483 13.6048 15.13C13.9682 14.8459 14.4907 14.9092 14.7748 15.2724C15.059 15.634 14.9948 16.158 14.6323 16.4412C13.1115 17.7233 10.8882 17.7233 9.36732 16.4412C9.06565 16.1447 9.03482 15.6673 9.29649 15.3341C9.57982 14.9717 10.1032 14.9084 10.4657 15.1916Z" />
<path d="M19.9167 10.7174V10.6032C19.9717 6.37123 16.7592 2.80901 12.5425 2.4283C8.17582 2.13339 4.39581 5.43319 4.10081 9.79848C4.08915 9.97343 4.08331 10.1492 4.08331 10.3242V10.5807C4.07581 10.7299 3.99165 10.8648 3.86165 10.9381C2.35998 11.5213 1.61581 13.2107 2.19831 14.7119C2.58165 15.6983 3.46998 16.4006 4.51915 16.5447C4.58915 16.5539 4.64915 16.5988 4.67582 16.6647C6.33582 20.7084 10.96 22.6411 15.005 20.9825C16.9642 20.1786 18.52 18.624 19.3242 16.6647C19.3508 16.5988 19.4108 16.5539 19.4808 16.5447C21.0767 16.3248 22.1917 14.8536 21.9725 13.2574C21.8233 12.1777 21.0833 11.2705 20.055 10.9073C19.9733 10.8798 19.9175 10.804 19.9167 10.7174ZM19.0833 14.906H18.7708C18.3708 14.906 18.0258 15.191 17.9517 15.5842C17.8125 16.658 17.2725 17.6394 16.4417 18.3333C12.1742 21.5223 7.25999 19.5113 6.02498 15.5009C5.91748 15.151 5.59415 14.9127 5.22832 14.9127H4.91665C4.22581 14.9077 3.67081 14.3446 3.67581 13.6539C3.67998 12.9642 4.24331 12.4085 4.93415 12.4135C5.38832 12.4093 5.75332 12.0386 5.74998 11.5846V10.3242C5.75248 6.92855 8.46749 4.15692 11.8633 4.08278C11.8692 4.08611 11.875 4.08861 11.8808 4.09111C12.3133 4.18275 12.6917 4.44433 12.9292 4.81671C13.4033 5.43235 13.2875 6.31458 12.6717 6.7886C12.665 6.79443 12.6575 6.80026 12.65 6.80526C12.1858 7.096 11.5758 6.98603 11.2433 6.55034C11.0425 6.1363 10.5433 5.96385 10.1292 6.16379C9.71499 6.3654 9.54249 6.86357 9.74332 7.27761C10.2233 8.09152 11.08 8.61052 12.0242 8.65801C13.3475 8.63052 14.485 7.70997 14.7875 6.42121C14.8783 5.99384 14.8825 5.55232 14.7992 5.12412C14.7833 5.00999 14.8625 4.90419 14.9767 4.88753C15.0208 4.88169 15.0667 4.89002 15.1058 4.91085C17.0492 6.02134 18.2475 8.08652 18.25 10.3242V11.5738C18.2442 12.0278 18.6075 12.401 19.0617 12.4068H19.0658C19.7567 12.4018 20.3192 12.9575 20.3242 13.6473C20.3292 14.3379 19.7733 14.901 19.0833 14.906Z" />
</svg>