<!--character:486-->
  <svg width="24" height="24" viewBox="0 0 24 24" >
<path d="M12.4834 5.16531C12.629 5.25376 12.7474 5.38053 12.8258 5.53175C12.9041 5.68298 12.9394 5.85283 12.9277 6.02275C12.9161 6.19267 12.8579 6.35611 12.7596 6.49521C12.6613 6.6343 12.5267 6.74369 12.3704 6.81142C12.2141 6.87915 12.0423 6.90261 11.8736 6.87924C11.7048 6.85586 11.5458 6.78655 11.4138 6.67889C11.2819 6.57122 11.182 6.42934 11.1253 6.26876C10.9596 5.80013 10.4454 5.55455 9.97673 5.72024C9.5081 5.88592 9.26252 6.40013 9.42821 6.86876C9.59499 7.34051 9.88827 7.75732 10.276 8.07362C10.6637 8.38992 11.1309 8.59354 11.6265 8.66221C12.1221 8.73088 12.6271 8.66196 13.0862 8.46298C13.5453 8.26401 13.9409 7.94264 14.2296 7.53401C14.5184 7.12538 14.6893 6.64522 14.7235 6.14603C14.7349 5.98092 14.7311 5.81583 14.7127 5.65273C16.5203 6.51144 17.932 8.19886 18.1013 10.3382C18.1383 10.8063 18.529 11.1672 18.9985 11.1672C19.3246 11.1672 19.6374 11.2968 19.868 11.5274C20.0986 11.758 20.2281 12.0707 20.2281 12.3969C20.2281 12.723 20.0986 13.0357 19.868 13.2663C19.6374 13.4969 19.3246 13.6265 18.9985 13.6265C18.6024 13.6265 18.2528 13.8855 18.1375 14.2644C17.737 15.5802 16.9243 16.7324 15.8192 17.5512C14.7142 18.3699 13.3752 18.8119 11.9999 18.8119C10.6246 18.8119 9.28564 18.3699 8.18057 17.5512C7.07551 16.7324 6.26281 15.5802 5.86233 14.2644C5.74699 13.8855 5.39744 13.6265 5.00133 13.6265C4.83985 13.6265 4.67995 13.5947 4.53076 13.5329C4.38157 13.4711 4.24602 13.3805 4.13184 13.2663C4.01765 13.1522 3.92708 13.0166 3.86528 12.8674C3.80349 12.7182 3.77168 12.5583 3.77168 12.3969C3.77168 12.2354 3.80349 12.0755 3.86528 11.9263C3.92708 11.7771 4.01765 11.6415 4.13184 11.5274C4.24602 11.4132 4.38157 11.3226 4.53076 11.2608C4.67995 11.199 4.83985 11.1672 5.00133 11.1672C5.47086 11.1672 5.86149 10.8063 5.89852 10.3382C6.14705 7.19711 9.07459 5.03024 12.0004 5.03024C12.1708 5.03014 12.3379 5.07688 12.4834 5.16531ZM11.9994 3.23024C8.5369 3.23048 4.88794 5.63719 4.197 9.47592C4.07649 9.50911 3.9579 9.54979 3.84193 9.59782C3.47436 9.75007 3.14037 9.97324 2.85904 10.2546C2.57771 10.5359 2.35455 10.8699 2.2023 11.2375C2.05004 11.605 1.97168 11.999 1.97168 12.3969C1.97168 12.7947 2.05004 13.1887 2.2023 13.5562C2.35455 13.9238 2.57771 14.2578 2.85904 14.5391C3.14037 14.8205 3.47436 15.0436 3.84193 15.1959C4.00175 15.2621 4.16655 15.3143 4.33449 15.3522C4.8935 16.8019 5.85402 18.0676 7.10899 18.9974C8.5241 20.0459 10.2387 20.6119 11.9999 20.6119C13.7611 20.6119 15.4757 20.0459 16.8908 18.9974C18.1458 18.0676 19.1063 16.8019 19.6653 15.3522C20.2197 15.2271 20.7325 14.9474 21.1408 14.5391C21.7089 13.971 22.0281 13.2004 22.0281 12.3969C22.0281 11.5933 21.7089 10.8227 21.1408 10.2546C20.7665 9.88027 20.3043 9.61404 19.8028 9.47592C19.1118 5.63699 15.462 3.23024 11.9994 3.23024ZM7.73254 10.2776C8.2296 10.2776 8.63254 10.6805 8.63254 11.1776C8.63254 11.2623 8.66618 11.3435 8.72605 11.4033C8.78593 11.4632 8.86713 11.4968 8.95181 11.4968C9.03648 11.4968 9.11769 11.4632 9.17756 11.4033C9.23744 11.3435 9.27107 11.2623 9.27107 11.1776C9.27107 10.6805 9.67402 10.2776 10.1711 10.2776C10.6681 10.2776 11.0711 10.6805 11.0711 11.1776C11.0711 11.7396 10.8478 12.2787 10.4504 12.6761C10.0529 13.0736 9.51387 13.2968 8.95181 13.2968C8.38974 13.2968 7.8507 13.0736 7.45326 12.6761C7.05582 12.2787 6.83254 11.7396 6.83254 11.1776C6.83254 10.6805 7.23549 10.2776 7.73254 10.2776ZM13.8289 10.2776C14.3259 10.2776 14.7289 10.6805 14.7289 11.1776C14.7289 11.2623 14.7625 11.3435 14.8224 11.4033C14.8822 11.4632 14.9634 11.4968 15.0481 11.4968C15.1328 11.4968 15.214 11.4632 15.2739 11.4033C15.3338 11.3435 15.3674 11.2623 15.3674 11.1776C15.3674 10.6805 15.7703 10.2776 16.2674 10.2776C16.7644 10.2776 17.1674 10.6805 17.1674 11.1776C17.1674 11.7396 16.9441 12.2787 16.5467 12.6761C16.1492 13.0736 15.6102 13.2968 15.0481 13.2968C14.4861 13.2968 13.947 13.0736 13.5496 12.6761C13.1521 12.2787 12.9289 11.7396 12.9289 11.1776C12.9289 10.6805 13.3318 10.2776 13.8289 10.2776ZM9.70345 15.4546C10.0348 15.0842 10.6038 15.0525 10.9743 15.3838C11.2563 15.6361 11.6215 15.7756 12 15.7756C12.3784 15.7756 12.7436 15.6361 13.0256 15.3838C13.3961 15.0525 13.9651 15.0842 14.2965 15.4546C14.6278 15.8251 14.5961 16.3941 14.2256 16.7255C13.6136 17.2729 12.8212 17.5756 12 17.5756C11.1788 17.5756 10.3864 17.2729 9.77427 16.7255C9.40378 16.3941 9.37208 15.8251 9.70345 15.4546Z" />
</svg>