<!--character:4330-->
  <svg width="20" height="20" viewBox="0 0 20 20" >
<path d="M2.18774 8.43859H8.43769C8.72533 8.43859 8.95852 8.20541 8.95852 7.91776V2.53586C8.95833 2.29733 8.86016 2.06935 8.68699 1.90531C8.51284 1.74137 8.27933 1.65559 8.04047 1.66781C4.61504 1.77932 1.84547 4.49517 1.66691 7.91776C1.66691 8.20541 1.90009 8.43859 2.18774 8.43859Z" />
<path d="M5.48629 18.3343C6.15747 18.3343 6.70156 17.7903 6.70156 17.1191C6.70156 16.4479 6.15747 15.9038 5.48629 15.9038C4.81512 15.9038 4.27103 16.4479 4.27103 17.1191C4.27103 17.7903 4.81512 18.3343 5.48629 18.3343Z" />
<path d="M6.93628 15.4517H11.3272C11.3978 15.4519 11.4612 15.4947 11.4877 15.5601C11.5143 15.6255 11.4986 15.7004 11.4481 15.7496C11.2094 15.981 11.0351 16.2706 10.9425 16.5899C10.8995 16.7383 10.7637 16.8405 10.6092 16.8406H7.65433C7.49982 16.8405 7.36396 16.7383 7.321 16.5899C7.22808 16.2708 7.05388 15.9812 6.81545 15.7496C6.76494 15.7004 6.74925 15.6255 6.77577 15.5601C6.80228 15.4947 6.86573 15.4519 6.93628 15.4517Z" />
<path d="M17.639 3.64627H16.8293C15.8615 3.64373 15.0202 4.30991 14.8008 5.25251L13.9508 8.86359C13.914 9.02065 13.7739 9.1317 13.6126 9.13164H2.18771C2.0038 9.13135 1.8334 9.2282 1.73956 9.38637C1.64572 9.54453 1.64237 9.7405 1.73077 9.90177L3.81409 13.7212C3.90516 13.8886 4.08047 13.9927 4.27103 13.9927H12.3064C12.4123 13.9929 12.5123 14.0414 12.5781 14.1244C12.6438 14.2075 12.668 14.316 12.6439 14.4191L12.5314 14.8976C12.5133 14.973 12.5308 15.0525 12.5789 15.1134C12.627 15.1742 12.7003 15.2096 12.7779 15.2094C13.0701 15.2091 13.3584 15.2764 13.6203 15.4059C13.668 15.4292 13.7239 15.4292 13.7716 15.4059C13.8197 15.3836 13.8546 15.3402 13.8661 15.2885L16.1529 5.56639C16.2267 5.25255 16.5068 5.0308 16.8293 5.03098H17.639C18.0225 5.03098 18.3334 4.72007 18.3334 4.33654C18.3334 3.95301 18.0225 3.6421 17.639 3.6421V3.64627Z" />
<path d="M13.9932 17.1191C13.9932 17.7903 13.4491 18.3343 12.7779 18.3343C12.1067 18.3343 11.5626 17.7903 11.5626 17.1191C11.5626 16.4479 12.1067 15.9038 12.7779 15.9038C13.4491 15.9038 13.9932 16.4479 13.9932 17.1191Z" />
</svg>