<!--character:$550:2363-->
  <svg width="24" height="24" viewBox="0 0 24 24" >
<path d="M2.62515 10.1263H10.1251C10.4703 10.1263 10.7501 9.84649 10.7501 9.50132V3.04304C10.7499 2.7568 10.6321 2.48322 10.4243 2.28638C10.2153 2.08964 9.93507 1.98671 9.64843 2.00138C5.53791 2.13519 2.21444 5.39421 2.00016 9.50132C2.00016 9.84649 2.27998 10.1263 2.62515 10.1263Z" />
<path d="M6.58348 22.0012C7.38889 22.0012 8.04181 21.3483 8.04181 20.5429C8.04181 19.7375 7.38889 19.0846 6.58348 19.0846C5.77807 19.0846 5.12516 19.7375 5.12516 20.5429C5.12516 21.3483 5.77807 22.0012 6.58348 22.0012Z" />
<path d="M8.32343 18.5421H13.5926C13.6772 18.5423 13.7534 18.5936 13.7852 18.6721C13.817 18.7506 13.7982 18.8405 13.7376 18.8996C13.4511 19.1772 13.242 19.5248 13.1309 19.9079C13.0793 20.086 12.9163 20.2086 12.7309 20.2087H9.18509C8.99967 20.2086 8.83663 20.086 8.78509 19.9079C8.67359 19.5249 8.46454 19.1775 8.17843 18.8996C8.11781 18.8405 8.09899 18.7506 8.13081 18.6721C8.16263 18.5936 8.23876 18.5423 8.32343 18.5421Z" />
<path d="M21.1667 4.37553H20.195C19.0337 4.37248 18.0241 5.1719 17.7609 6.30302L16.7409 10.6363C16.6967 10.8248 16.5286 10.958 16.335 10.958H2.62515C2.40446 10.9576 2.19999 11.0738 2.08737 11.2636C1.97476 11.4534 1.97075 11.6886 2.07682 11.8821L4.5768 16.4654C4.6861 16.6663 4.89647 16.7913 5.12513 16.7913H14.7676C14.8946 16.7915 15.0147 16.8497 15.0936 16.9493C15.1724 17.049 15.2015 17.1792 15.1726 17.3029L15.0376 17.8771C15.0158 17.9676 15.0368 18.063 15.0946 18.1361C15.1523 18.2091 15.2403 18.2515 15.3334 18.2513C15.684 18.2509 16.0299 18.3316 16.3442 18.4871C16.4015 18.515 16.4685 18.515 16.5259 18.4871C16.5835 18.4603 16.6254 18.4083 16.6392 18.3463L19.3834 6.67968C19.472 6.30306 19.8081 6.03696 20.195 6.03718H21.1667C21.6269 6.03718 22 5.66409 22 5.20386C22 4.74362 21.6269 4.37053 21.1667 4.37053V4.37553Z" />
<path d="M16.7917 20.5429C16.7917 21.3483 16.1388 22.0012 15.3334 22.0012C14.528 22.0012 13.875 21.3483 13.875 20.5429C13.875 19.7375 14.528 19.0846 15.3334 19.0846C16.1388 19.0846 16.7917 19.7375 16.7917 20.5429Z" />
</svg>