<!--character:9584-->
  <svg width="24" height="24" viewBox="0 0 24 24" >
<path d="M2.62528 10.1263H10.1252C10.4704 10.1263 10.7502 9.84649 10.7502 9.50132V3.04303C10.75 2.7568 10.6322 2.48322 10.4244 2.28637C10.2154 2.08964 9.9352 1.98671 9.64856 2.00137C5.53804 2.13519 2.21457 5.39421 2.00029 9.50132C2.00029 9.84649 2.28011 10.1263 2.62528 10.1263Z" />
<path d="M6.58355 22.0012C7.38896 22.0012 8.04187 21.3483 8.04187 20.5429C8.04187 19.7375 7.38896 19.0846 6.58355 19.0846C5.77814 19.0846 5.12523 19.7375 5.12523 20.5429C5.12523 21.3483 5.77814 22.0012 6.58355 22.0012Z" />
<path d="M8.32354 18.5421H13.5927C13.6773 18.5423 13.7535 18.5936 13.7853 18.6721C13.8171 18.7506 13.7983 18.8405 13.7377 18.8996C13.4512 19.1772 13.2421 19.5248 13.131 19.9079C13.0795 20.086 12.9164 20.2086 12.731 20.2087H9.1852C8.99978 20.2086 8.83675 20.086 8.7852 19.9079C8.6737 19.5249 8.46466 19.1775 8.17854 18.8996C8.11792 18.8405 8.0991 18.7506 8.13092 18.6721C8.16274 18.5936 8.23888 18.5423 8.32354 18.5421Z" />
<path d="M21.1668 4.37552H20.1951C19.0338 4.37247 18.0242 5.17189 17.761 6.30301L16.741 10.6363C16.6968 10.8248 16.5287 10.958 16.3351 10.958H2.62525C2.40456 10.9576 2.20008 11.0738 2.08747 11.2636C1.97486 11.4534 1.97085 11.6886 2.07692 11.8821L4.5769 16.4654C4.6862 16.6663 4.89657 16.7913 5.12523 16.7913H14.7677C14.8947 16.7915 15.0148 16.8497 15.0937 16.9493C15.1725 17.049 15.2016 17.1792 15.1727 17.3029L15.0377 17.8771C15.0159 17.9676 15.0369 18.063 15.0947 18.136C15.1524 18.2091 15.2404 18.2515 15.3335 18.2512C15.6841 18.2509 16.03 18.3316 16.3443 18.4871C16.4016 18.515 16.4686 18.515 16.526 18.4871C16.5836 18.4603 16.6255 18.4083 16.6393 18.3462L19.3835 6.67967C19.4721 6.30305 19.8082 6.03695 20.1951 6.03718H21.1668C21.627 6.03718 22.0001 5.66408 22.0001 5.20385C22.0001 4.74362 21.627 4.37052 21.1668 4.37052V4.37552Z" />
<path d="M16.7918 20.5429C16.7918 21.3483 16.1389 22.0012 15.3335 22.0012C14.5281 22.0012 13.8752 21.3483 13.8752 20.5429C13.8752 19.7375 14.5281 19.0846 15.3335 19.0846C16.1389 19.0846 16.7918 19.7375 16.7918 20.5429Z" />
</svg>