<!--character:5210-->
  <svg width="20" height="20" viewBox="0 0 20 20" >
<path d="M8.26372 9.99193C8.26372 9.51292 7.87483 9.12415 7.39566 9.12415C6.91649 9.12415 6.5276 9.51292 6.5276 9.99193C6.5276 10.4709 6.91649 10.8597 7.39566 10.8597C7.87483 10.8597 8.26372 10.4709 8.26372 9.99193Z" />
<path d="M13.4721 9.99193C13.4721 9.51292 13.0832 9.12415 12.604 9.12415C12.1248 9.12415 11.7359 9.51292 11.7359 9.99193C11.7359 10.4709 12.1248 10.8597 12.604 10.8597C13.0832 10.8597 13.4721 10.4709 13.4721 9.99193Z" />
<path d="M8.72122 12.6597C9.47469 13.2401 10.5247 13.2401 11.2782 12.6597C11.2969 12.6417 11.3171 12.6236 11.3372 12.6083C11.64 12.3716 12.0754 12.4244 12.3122 12.727C12.549 13.0283 12.4955 13.465 12.1934 13.701C10.9261 14.7695 9.0733 14.7695 7.80594 13.701C7.55455 13.4539 7.52885 13.0561 7.74691 12.7784C7.98302 12.4764 8.41913 12.4237 8.72122 12.6597Z" />
<path d="M16.5971 8.93115V8.83605C16.6429 5.30938 13.9658 2.34086 10.4519 2.0236C6.81302 1.77785 3.66302 4.52768 3.41718 8.16542C3.40746 8.31121 3.4026 8.45769 3.4026 8.60348V8.8173C3.39635 8.94157 3.32621 9.05403 3.21788 9.11512C1.96649 9.60108 1.34635 11.009 1.83176 12.26C2.15121 13.0819 2.89149 13.6672 3.76579 13.7873C3.82413 13.7949 3.87413 13.8324 3.89635 13.8872C5.27969 17.257 9.13316 18.8676 12.504 17.4854C14.1366 16.8155 15.4332 15.5201 16.1033 13.8872C16.1255 13.8324 16.1755 13.7949 16.2339 13.7873C17.5637 13.604 18.4929 12.378 18.3103 11.0479C18.186 10.1481 17.5693 9.39212 16.7123 9.08944C16.6443 9.06653 16.5978 9.00335 16.5971 8.93115ZM15.9026 12.4217H15.6422C15.3089 12.4217 15.0214 12.6592 14.9596 12.9868C14.8436 13.8817 14.3936 14.6995 13.7012 15.2778C10.145 17.9353 6.04983 16.2594 5.02066 12.9174C4.93107 12.6258 4.66163 12.4273 4.35677 12.4273H4.09704C3.52135 12.4231 3.05885 11.9538 3.06302 11.3783C3.06649 10.8035 3.53593 10.3404 4.11163 10.3446C4.4901 10.3411 4.79427 10.0322 4.79149 9.65384V8.60348C4.79357 5.77381 7.05608 3.46412 9.88594 3.40234C9.8908 3.40511 9.89566 3.40719 9.90053 3.40928C10.2609 3.48564 10.5762 3.70363 10.7741 4.01395C11.1693 4.52698 11.0727 5.26217 10.5596 5.65718C10.554 5.66204 10.5477 5.6669 10.5415 5.67107C10.1547 5.91335 9.64636 5.82171 9.36927 5.45863C9.20191 5.1136 8.78594 4.9699 8.4408 5.13651C8.09566 5.30452 7.95191 5.71966 8.11927 6.06469C8.51927 6.74295 9.23316 7.17546 10.02 7.21503C11.1227 7.19212 12.0707 6.425 12.3228 5.35103C12.3984 4.99489 12.4019 4.62695 12.3325 4.27012C12.3193 4.17501 12.3853 4.08684 12.4804 4.07296C12.5172 4.0681 12.5554 4.07504 12.588 4.0924C14.2075 5.0178 15.2061 6.73879 15.2082 8.60348V9.64482C15.2033 10.0232 15.5061 10.3342 15.8846 10.339H15.888C16.4637 10.3349 16.9325 10.7979 16.9366 11.3727C16.9408 11.9483 16.4776 12.4176 15.9026 12.4217Z" />
</svg>