<!-- character:0:774 -->
  <svg width="20" height="20" viewBox="0 0 20 20" >
<path   d="M2.18764 8.43855H8.43759C8.72524 8.43855 8.95842 8.20537 8.95842 7.91772V2.53582C8.95824 2.29729 8.86007 2.06931 8.6869 1.90527C8.51275 1.74133 8.27924 1.65555 8.04038 1.66777C4.61494 1.77928 1.84538 4.49513 1.66681 7.91772C1.66681 8.20537 1.9 8.43855 2.18764 8.43855ZM5.4862 18.3343C6.15738 18.3343 6.70147 17.7902 6.70147 17.119C6.70147 16.4479 6.15738 15.9038 5.4862 15.9038C4.81503 15.9038 4.27093 16.4479 4.27093 17.119C4.27093 17.7902 4.81503 18.3343 5.4862 18.3343ZM6.93619 15.4517H11.3271C11.3977 15.4518 11.4611 15.4947 11.4876 15.56C11.5142 15.6254 11.4985 15.7004 11.448 15.7496C11.2093 15.981 11.035 16.2706 10.9424 16.5899C10.8995 16.7383 10.7636 16.8405 10.6091 16.8406H7.65424C7.49973 16.8405 7.36386 16.7383 7.32091 16.5899C7.22799 16.2707 7.05379 15.9812 6.81536 15.7496C6.76484 15.7004 6.74916 15.6254 6.77568 15.56C6.80219 15.4947 6.86564 15.4518 6.93619 15.4517ZM17.6389 3.64623H16.8292C15.8614 3.64369 15.0201 4.30987 14.8007 5.25247L13.9507 8.86355C13.9139 9.02061 13.7738 9.13166 13.6125 9.1316H2.18762C2.00371 9.13131 1.83331 9.22816 1.73947 9.38633C1.64562 9.54449 1.64228 9.74046 1.73068 9.90174L3.81399 13.7212C3.90507 13.8885 4.08038 13.9927 4.27093 13.9927H12.3063C12.4122 13.9929 12.5122 14.0414 12.578 14.1244C12.6437 14.2074 12.6679 14.3159 12.6438 14.4191L12.5313 14.8975C12.5132 14.9729 12.5307 15.0525 12.5788 15.1133C12.6269 15.1742 12.7003 15.2096 12.7778 15.2093C13.07 15.2091 13.3583 15.2763 13.6202 15.4059C13.6679 15.4291 13.7238 15.4291 13.7716 15.4059C13.8196 15.3836 13.8545 15.3402 13.866 15.2885L16.1528 5.56635C16.2266 5.25251 16.5068 5.03076 16.8292 5.03094H17.6389C18.0224 5.03094 18.3333 4.72003 18.3333 4.3365C18.3333 3.95298 18.0224 3.64206 17.6389 3.64206V3.64623ZM13.9931 17.119C13.9931 17.7902 13.449 18.3343 12.7778 18.3343C12.1066 18.3343 11.5625 17.7902 11.5625 17.119C11.5625 16.4479 12.1066 15.9038 12.7778 15.9038C13.449 15.9038 13.9931 16.4479 13.9931 17.119Z" />
</svg>