<!--character:6354-->
  <svg width="24" height="24" viewBox="0 0 24 24" >
<path d="M9.91646 11.9903C9.91646 11.4155 9.44979 10.949 8.87479 10.949C8.29979 10.949 7.83312 11.4155 7.83312 11.9903C7.83312 12.5651 8.29979 13.0317 8.87479 13.0317C9.44979 13.0317 9.91646 12.5651 9.91646 11.9903Z" />
<path d="M16.1665 11.9903C16.1665 11.4155 15.6998 10.949 15.1248 10.949C14.5498 10.949 14.0831 11.4155 14.0831 11.9903C14.0831 12.5651 14.5498 13.0317 15.1248 13.0317C15.6998 13.0317 16.1665 12.5651 16.1665 11.9903Z" />
<path d="M10.4655 15.1916C11.3696 15.8881 12.6296 15.8881 13.5338 15.1916C13.5563 15.17 13.5805 15.1483 13.6046 15.13C13.968 14.8459 14.4905 14.9092 14.7746 15.2725C15.0588 15.634 14.9946 16.158 14.6321 16.4413C13.1113 17.7234 10.888 17.7234 9.36713 16.4413C9.06546 16.1447 9.03463 15.6673 9.29629 15.3341C9.57963 14.9717 10.103 14.9084 10.4655 15.1916Z" />
<path d="M19.9165 10.7174V10.6033C19.9715 6.37125 16.759 2.80904 12.5423 2.42832C8.17563 2.13341 4.39562 5.43321 4.10062 9.79851C4.08895 9.97345 4.08312 10.1492 4.08312 10.3242V10.5808C4.07562 10.7299 3.99145 10.8648 3.86145 10.9381C2.35978 11.5213 1.61562 13.2108 2.19812 14.712C2.58145 15.6983 3.46978 16.4006 4.51895 16.5447C4.58895 16.5539 4.64895 16.5989 4.67562 16.6647C6.33562 20.7084 10.9598 22.6411 15.0048 20.9825C16.964 20.1786 18.5198 18.6241 19.324 16.6647C19.3506 16.5989 19.4106 16.5539 19.4806 16.5447C21.0765 16.3248 22.1915 14.8536 21.9723 13.2574C21.8231 12.1778 21.0831 11.2705 20.0548 10.9073C19.9731 10.8798 19.9173 10.804 19.9165 10.7174ZM19.0831 14.9061H18.7706C18.3706 14.9061 18.0256 15.191 17.9515 15.5842C17.8123 16.658 17.2723 17.6394 16.4415 18.3333C12.174 21.5223 7.25979 19.5113 6.02479 15.5009C5.91729 15.151 5.59396 14.9127 5.22812 14.9127H4.91645C4.22562 14.9077 3.67062 14.3446 3.67562 13.654C3.67979 12.9642 4.24312 12.4085 4.93395 12.4135C5.38812 12.4094 5.75312 12.0386 5.74979 11.5846V10.3242C5.75229 6.92858 8.46729 4.15695 11.8631 4.0828C11.869 4.08613 11.8748 4.08863 11.8806 4.09113C12.3131 4.18277 12.6915 4.44436 12.929 4.81674C13.4031 5.43238 13.2873 6.3146 12.6715 6.78862C12.6648 6.79445 12.6573 6.80028 12.6498 6.80528C12.1856 7.09602 11.5756 6.98606 11.2431 6.55036C11.0423 6.13632 10.5431 5.96388 10.129 6.16382C9.71479 6.36542 9.54229 6.8636 9.74313 7.27763C10.2231 8.09154 11.0798 8.61055 12.024 8.65803C13.3473 8.63054 14.4848 7.71 14.7873 6.42123C14.8781 5.99387 14.8823 5.55234 14.799 5.12414C14.7831 5.01001 14.8623 4.90421 14.9765 4.88755C15.0206 4.88172 15.0665 4.89005 15.1056 4.91088C17.049 6.02136 18.2473 8.08655 18.2498 10.3242V11.5738C18.244 12.0278 18.6073 12.401 19.0615 12.4069H19.0656C19.7565 12.4019 20.319 12.9575 20.324 13.6473C20.329 14.3379 19.7731 14.9011 19.0831 14.9061Z" />
</svg>