<!-- character:0:732 -->
  <svg width="20" height="20" viewBox="0 0 20 20" >
<path d="M8.2639 9.99196C8.2639 9.51295 7.87501 9.12418 7.39584 9.12418C6.91668 9.12418 6.52779 9.51295 6.52779 9.99196C6.52779 10.471 6.91668 10.8597 7.39584 10.8597C7.87501 10.8597 8.2639 10.471 8.2639 9.99196Z" />
<path d="M13.4722 9.99196C13.4722 9.51295 13.0834 9.12418 12.6042 9.12418C12.125 9.12418 11.7361 9.51295 11.7361 9.99196C11.7361 10.471 12.125 10.8597 12.6042 10.8597C13.0834 10.8597 13.4722 10.471 13.4722 9.99196Z" />
<path d="M8.7214 12.6597C9.47487 13.2401 10.5249 13.2401 11.2783 12.6597C11.2971 12.6417 11.3172 12.6236 11.3374 12.6084C11.6402 12.3716 12.0756 12.4244 12.3124 12.7271C12.5492 13.0284 12.4957 13.465 12.1936 13.7011C10.9263 14.7695 9.07348 14.7695 7.80612 13.7011C7.55473 13.4539 7.52904 13.0561 7.74709 12.7784C7.98321 12.4765 8.41932 12.4237 8.7214 12.6597Z" />
<path   d="M16.5972 8.93118V8.83608C16.6431 5.30941 13.966 2.34089 10.4521 2.02363C6.8132 1.77788 3.6632 4.52771 3.41737 8.16545C3.40764 8.31124 3.40278 8.45772 3.40278 8.60351V8.81733C3.39653 8.9416 3.32639 9.05406 3.21806 9.11515C1.96667 9.60111 1.34653 11.009 1.83195 12.26C2.15139 13.082 2.89167 13.6672 3.76598 13.7873C3.82431 13.7949 3.87431 13.8324 3.89653 13.8873C5.27987 17.257 9.13335 18.8676 12.5042 17.4854C14.1368 16.8155 15.4334 15.5201 16.1035 13.8873C16.1257 13.8324 16.1757 13.7949 16.234 13.7873C17.5639 13.604 18.4931 12.378 18.3104 11.0479C18.1861 10.1482 17.5695 9.39215 16.7125 9.08947C16.6445 9.06656 16.5979 9.00338 16.5972 8.93118ZM15.9028 12.4218H15.6424C15.309 12.4218 15.0215 12.6592 14.9597 12.9869C14.8438 13.8817 14.3938 14.6995 13.7014 15.2778C10.1452 17.9353 6.05001 16.2594 5.02084 12.9174C4.93126 12.6259 4.66181 12.4273 4.35695 12.4273H4.09723C3.52153 12.4231 3.05903 11.9538 3.0632 11.3783C3.06667 10.8035 3.53612 10.3405 4.11181 10.3446C4.49028 10.3412 4.79445 10.0322 4.79167 9.65387V8.60351C4.79376 5.77384 7.05626 3.46415 9.88612 3.40237C9.89099 3.40514 9.89585 3.40723 9.90071 3.40931C10.2611 3.48567 10.5764 3.70366 10.7743 4.01398C11.1695 4.52701 11.0729 5.2622 10.5597 5.65721C10.5542 5.66207 10.5479 5.66693 10.5417 5.6711C10.1549 5.91338 9.64654 5.82174 9.36946 5.45866C9.2021 5.11363 8.78612 4.96993 8.44098 5.13654C8.09584 5.30455 7.95209 5.71969 8.11946 6.06472C8.51946 6.74298 9.23335 7.17549 10.0202 7.21506C11.1229 7.19215 12.0709 6.42503 12.3229 5.35106C12.3986 4.99492 12.4021 4.62698 12.3327 4.27015C12.3195 4.17504 12.3854 4.08687 12.4806 4.07299C12.5174 4.06813 12.5556 4.07507 12.5882 4.09243C14.2077 5.01783 15.2063 6.73882 15.2084 8.60351V9.64485C15.2035 10.0232 15.5063 10.3342 15.8847 10.3391H15.8882C16.4639 10.3349 16.9327 10.798 16.9368 11.3728C16.941 11.9483 16.4778 12.4176 15.9028 12.4218Z" />
</svg>