<!--character:2674-->
<svg width="24" height="24" viewBox="0 0 24 24">
  <path d="M7.0001 12C7.0001 9.24 9.2401 7 12.0001 7C14.7601 7 17.0001 9.24 17.0001 12C17.0001 14.76 14.7601 17 12.0001 17C9.2401 17 7.0001 14.76 7.0001 12Z" />
  <path d="M12.0001 22C6.48676 22 2.0001 17.5144 2.0001 12C2.0001 6.48555 6.48676 2 12.0001 2C17.5134 2 22.0001 6.48555 22.0001 12C22.0001 17.5144 17.5134 22 12.0001 22ZM12.0001 4.22222C7.71121 4.22222 4.22232 7.71111 4.22232 12C4.22232 16.2889 7.71121 19.7778 12.0001 19.7778C16.289 19.7778 19.7779 16.2889 19.7779 12C19.7779 7.71111 16.289 4.22222 12.0001 4.22222Z" />
</svg>
