<!--character:9164-->
  <svg width="20" height="20" viewBox="0 0 20 20" >
<path d="M5.83341 10C5.83341 7.7 7.70008 5.83333 10.0001 5.83333C12.3001 5.83333 14.1667 7.7 14.1667 10C14.1667 12.3 12.3001 14.1667 10.0001 14.1667C7.70008 14.1667 5.83341 12.3 5.83341 10Z" />
<path d="M10.0001 18.3333C5.40564 18.3333 1.66675 14.5954 1.66675 10C1.66675 5.40463 5.40564 1.66666 10.0001 1.66666C14.5945 1.66666 18.3334 5.40463 18.3334 10C18.3334 14.5954 14.5945 18.3333 10.0001 18.3333ZM10.0001 3.51852C6.42601 3.51852 3.5186 6.42592 3.5186 10C3.5186 13.5741 6.42601 16.4815 10.0001 16.4815C13.5742 16.4815 16.4816 13.5741 16.4816 10C16.4816 6.42592 13.5742 3.51852 10.0001 3.51852Z" />
</svg>