<!-- character:0:2729 -->
  <svg width="20" height="20" viewBox="0 0 20 20" >
<path   d="M9.99999 18.3334C5.40555 18.3334 1.66666 14.5955 1.66666 10.0001C1.66666 5.40471 5.40555 1.66675 9.99999 1.66675C14.5944 1.66675 18.3333 5.40471 18.3333 10.0001C18.3333 14.5955 14.5944 18.3334 9.99999 18.3334ZM9.99999 3.5186C6.42592 3.5186 3.51851 6.42601 3.51851 10.0001C3.51851 13.5742 6.42592 16.4816 9.99999 16.4816C13.5741 16.4816 16.4815 13.5742 16.4815 10.0001C16.4815 6.42601 13.5741 3.5186 9.99999 3.5186ZM5.83332 10.0001C5.83332 7.70008 7.69999 5.83341 9.99999 5.83341C12.3 5.83341 14.1667 7.70008 14.1667 10.0001C14.1667 12.3001 12.3 14.1667 9.99999 14.1667C7.69999 14.1667 5.83332 12.3001 5.83332 10.0001Z" />
</svg>