<!--character:2914-->
<svg width="24" height="24" viewBox="0 0 24 24">
  <path d="M13.0421 4.38333H10.9587C10.7286 4.38333 10.5421 4.19678 10.5421 3.96666V3.13333C10.5421 2.67309 10.9152 2.3 11.3754 2.3H12.6254C13.0856 2.3 13.4587 2.67309 13.4587 3.13333V3.96666C13.4587 4.19678 13.2722 4.38333 13.0421 4.38333Z" />
  <path d="M20.9587 19.825C20.9587 19.9401 21.052 20.0333 21.1671 20.0333C21.6273 20.0333 22.0004 20.4064 22.0004 20.8667C22.0004 21.3269 21.6273 21.7 21.1671 21.7H2.83372C2.37349 21.7 2.00039 21.3269 2.00039 20.8667C2.00039 20.4064 2.37349 20.0333 2.83372 20.0333C2.94878 20.0333 3.04206 19.9401 3.04206 19.825V11.1583C3.04206 10.6981 3.41515 10.325 3.87539 10.325H5.12539V9.7C5.12539 9.35482 5.40521 9.075 5.75039 9.075C6.09557 9.075 6.37539 9.35482 6.37539 9.7V10.325C6.83563 10.325 7.20872 10.6981 7.20872 11.1583V19.6167C7.20872 19.8468 7.39527 20.0333 7.62539 20.0333H8.04206C8.27218 20.0333 8.45872 19.8468 8.45872 19.6167V5.86666C8.45872 5.40643 8.83182 5.03333 9.29206 5.03333H14.7087C15.169 5.03333 15.5421 5.40643 15.5421 5.86666V19.6167C15.5421 19.8468 15.7286 20.0333 15.9587 20.0333H16.3754C16.6055 20.0333 16.7921 19.8468 16.7921 19.6167V13.1583C16.7921 12.6981 17.1652 12.325 17.6254 12.325V11.7C17.6254 11.3548 17.9052 11.075 18.2504 11.075C18.5956 11.075 18.8754 11.3548 18.8754 11.7V12.325H20.1254C20.5856 12.325 20.9587 12.6981 20.9587 13.1583V19.825ZM13.6671 7.11666H10.3337C9.98854 7.11666 9.70872 7.39649 9.70872 7.74166C9.70872 8.08684 9.98854 8.36666 10.3337 8.36666H13.6671C14.0122 8.36666 14.2921 8.08684 14.2921 7.74166C14.2921 7.39649 14.0122 7.11666 13.6671 7.11666ZM10.3337 10.45C9.98854 10.45 9.70872 10.7298 9.70872 11.075C9.70872 11.4202 9.98854 11.7 10.3337 11.7H13.6671C14.0122 11.7 14.2921 11.4202 14.2921 11.075C14.2921 10.7298 14.0122 10.45 13.6671 10.45H10.3337ZM13.6671 13.7833H10.3337C9.98854 13.7833 9.70872 14.0632 9.70872 14.4083C9.70872 14.7535 9.98854 15.0333 10.3337 15.0333H13.6671C14.0122 15.0333 14.2921 14.7535 14.2921 14.4083C14.2921 14.0632 14.0122 13.7833 13.6671 13.7833ZM13.8754 18.3667C14.2206 18.3667 14.5004 18.0868 14.5004 17.7417C14.5004 17.3965 14.2206 17.1167 13.8754 17.1167H10.1254C9.78021 17.1167 9.50039 17.3965 9.50039 17.7417C9.50039 18.0868 9.78021 18.3667 10.1254 18.3667H13.8754Z" />
</svg>
