<!--character:194:550:2011-->
<svg width="24" height="24" viewBox="0 0 24 24" xmlns="http://www.w3.org/2000/svg"><path d="M10.9583 4.3833a.4167.4167 0 0 1-.4166-.4166v-.8334A.8333.8333 0 0 1 11.375 2.3h1.25a.8333.8333 0 0 1 .8333.8333v.8334a.4167.4167 0 0 1-.4166.4166h-2.0834zm10.2084 15.65a.8333.8333 0 0 1 0 1.6667H2.8333a.8333.8333 0 1 1 0-1.6667.2083.2083 0 0 0 .2084-.2083v-8.6667a.8333.8333 0 0 1 .8333-.8333h1.25V9.7a.625.625 0 1 1 1.25 0v.625a.8333.8333 0 0 1 .8333.8333v8.4584c0 .23.1866.4166.4167.4166h.4167a.4167.4167 0 0 0 .4166-.4166v-13.75a.8333.8333 0 0 1 .8334-.8334h5.4166a.8333.8333 0 0 1 .8334.8334v13.75c0 .23.1865.4166.4166.4166h.4167a.4167.4167 0 0 0 .4167-.4166v-6.4584a.8333.8333 0 0 1 .8333-.8333V11.7a.625.625 0 1 1 1.25 0v.625h1.25a.8333.8333 0 0 1 .8333.8333v6.6667c0 .115.0933.2083.2084.2083zM10.3333 7.1167a.625.625 0 0 0 0 1.25h3.3334a.625.625 0 0 0 0-1.25h-3.3334zm0 3.3333a.625.625 0 0 0 0 1.25h3.3334a.625.625 0 0 0 0-1.25h-3.3334zm0 3.3333a.625.625 0 0 0 0 1.25h3.3334a.625.625 0 0 0 0-1.25h-3.3334zm3.5417 4.5834a.625.625 0 0 0 0-1.25h-3.75a.625.625 0 1 0 0 1.25h3.75z"/></svg>
