<!--character:4981-->
  <svg width="20" height="20" viewBox="0 0 20 20" >
<path d="M10.8684 3.65278H9.13227C8.9405 3.65278 8.78505 3.49732 8.78505 3.30555V2.61111C8.78505 2.22758 9.09596 1.91666 9.47949 1.91666H10.5212C10.9047 1.91666 11.2156 2.22758 11.2156 2.61111V3.30555C11.2156 3.49732 11.0601 3.65278 10.8684 3.65278Z" />
<path d="M17.4656 16.5208C17.4656 16.6167 17.5433 16.6944 17.6392 16.6944C18.0227 16.6944 18.3337 17.0054 18.3337 17.3889C18.3337 17.7724 18.0227 18.0833 17.6392 18.0833H2.36144C1.97791 18.0833 1.66699 17.7724 1.66699 17.3889C1.66699 17.0054 1.97791 16.6944 2.36144 16.6944C2.45732 16.6944 2.53505 16.6167 2.53505 16.5208V9.29861C2.53505 8.91508 2.84596 8.60416 3.22949 8.60416H4.27116V8.08333C4.27116 7.79568 4.50434 7.5625 4.79199 7.5625C5.07964 7.5625 5.31283 7.79568 5.31283 8.08333V8.60416C5.69636 8.60416 6.00727 8.91508 6.00727 9.29861V16.3472C6.00727 16.539 6.16273 16.6944 6.35449 16.6944H6.70171C6.89348 16.6944 7.04894 16.539 7.04894 16.3472V4.88889C7.04894 4.50536 7.35985 4.19444 7.74338 4.19444H12.2573C12.6408 4.19444 12.9517 4.50536 12.9517 4.88889V16.3472C12.9517 16.539 13.1072 16.6944 13.2989 16.6944H13.6462C13.8379 16.6944 13.9934 16.539 13.9934 16.3472V10.9653C13.9934 10.5817 14.3043 10.2708 14.6878 10.2708V9.75C14.6878 9.46235 14.921 9.22916 15.2087 9.22916C15.4963 9.22916 15.7295 9.46235 15.7295 9.75V10.2708H16.7712C17.1547 10.2708 17.4656 10.5817 17.4656 10.9653V16.5208ZM11.3892 5.93055H8.61144C8.32379 5.93055 8.0906 6.16374 8.0906 6.45139C8.0906 6.73903 8.32379 6.97222 8.61144 6.97222H11.3892C11.6769 6.97222 11.91 6.73903 11.91 6.45139C11.91 6.16374 11.6769 5.93055 11.3892 5.93055ZM8.61144 8.70833C8.32379 8.70833 8.0906 8.94152 8.0906 9.22916C8.0906 9.51681 8.32379 9.75 8.61144 9.75H11.3892C11.6769 9.75 11.91 9.51681 11.91 9.22916C11.91 8.94152 11.6769 8.70833 11.3892 8.70833H8.61144ZM11.3892 11.4861H8.61144C8.32379 11.4861 8.0906 11.7193 8.0906 12.0069C8.0906 12.2946 8.32379 12.5278 8.61144 12.5278H11.3892C11.6769 12.5278 11.91 12.2946 11.91 12.0069C11.91 11.7193 11.6769 11.4861 11.3892 11.4861ZM11.5628 15.3056C11.8505 15.3056 12.0837 15.0724 12.0837 14.7847C12.0837 14.4971 11.8505 14.2639 11.5628 14.2639H8.43783C8.15018 14.2639 7.91699 14.4971 7.91699 14.7847C7.91699 15.0724 8.15018 15.3056 8.43783 15.3056H11.5628Z" />
</svg>