<!-- character:0:1933 -->
  <svg width="20" height="20" viewBox="0 0 20 20" >
<path   d="M10.868 3.65286H9.1319C8.94014 3.65286 8.78468 3.4974 8.78468 3.30564V2.61119C8.78468 2.22766 9.09559 1.91675 9.47913 1.91675H10.5208C10.9043 1.91675 11.2152 2.22766 11.2152 2.61119V3.30564C11.2152 3.4974 11.0598 3.65286 10.868 3.65286ZM17.4652 16.5209C17.4652 16.6168 17.543 16.6945 17.6388 16.6945C18.0224 16.6945 18.3333 17.0054 18.3333 17.389C18.3333 17.7725 18.0224 18.0834 17.6388 18.0834H2.36107C1.97754 18.0834 1.66663 17.7725 1.66663 17.389C1.66663 17.0054 1.97754 16.6945 2.36107 16.6945C2.45695 16.6945 2.53468 16.6168 2.53468 16.5209V9.29869C2.53468 8.91516 2.8456 8.60425 3.22913 8.60425H4.27079V8.08341C4.27079 7.79577 4.50398 7.56258 4.79163 7.56258C5.07927 7.56258 5.31246 7.79577 5.31246 8.08341V8.60425C5.69599 8.60425 6.0069 8.91516 6.0069 9.29869V16.3473C6.0069 16.5391 6.16236 16.6945 6.35413 16.6945H6.70135C6.89311 16.6945 7.04857 16.5391 7.04857 16.3473V4.88897C7.04857 4.50544 7.35948 4.19453 7.74301 4.19453H12.2569C12.6404 4.19453 12.9513 4.50544 12.9513 4.88897V16.3473C12.9513 16.5391 13.1068 16.6945 13.2986 16.6945H13.6458C13.8376 16.6945 13.993 16.5391 13.993 16.3473V10.9654C13.993 10.5818 14.3039 10.2709 14.6875 10.2709V9.75008C14.6875 9.46243 14.9206 9.22925 15.2083 9.22925C15.4959 9.22925 15.7291 9.46243 15.7291 9.75008V10.2709H16.7708C17.1543 10.2709 17.4652 10.5818 17.4652 10.9654V16.5209ZM11.3888 5.93064H8.61107C8.32342 5.93064 8.09024 6.16382 8.09024 6.45147C8.09024 6.73912 8.32342 6.9723 8.61107 6.9723H11.3888C11.6765 6.9723 11.9097 6.73912 11.9097 6.45147C11.9097 6.16382 11.6765 5.93064 11.3888 5.93064ZM8.61107 8.70841H11.3888C11.6765 8.70841 11.9097 8.9416 11.9097 9.22925C11.9097 9.5169 11.6765 9.75008 11.3888 9.75008H8.61107C8.32342 9.75008 8.09024 9.5169 8.09024 9.22925C8.09024 8.9416 8.32342 8.70841 8.61107 8.70841ZM11.3888 11.4862H8.61107C8.32342 11.4862 8.09024 11.7194 8.09024 12.007C8.09024 12.2947 8.32342 12.5279 8.61107 12.5279H11.3888C11.6765 12.5279 11.9097 12.2947 11.9097 12.007C11.9097 11.7194 11.6765 11.4862 11.3888 11.4862ZM11.5625 15.3056H8.43746C8.14981 15.3056 7.91663 15.0725 7.91663 14.7848C7.91663 14.4972 8.14981 14.264 8.43746 14.264H11.5625C11.8501 14.264 12.0833 14.4972 12.0833 14.7848C12.0833 15.0725 11.8501 15.3056 11.5625 15.3056Z" />
</svg>