<!--character:6269-->
  <svg width="24" height="24" viewBox="0 0 24 24" >
<path d="M12.4167 11.6342L16.2784 15.175C16.6173 15.4858 16.6404 16.0124 16.33 16.3517C16.0169 16.6865 15.4934 16.7091 15.1525 16.4025L11.02 12.615C10.8477 12.457 10.7498 12.2338 10.75 12V7.41667C10.75 6.95644 11.1231 6.58334 11.5834 6.58334C12.0436 6.58334 12.4167 6.95644 12.4167 7.41667V11.6342Z" />
<path d="M12 2.00001C6.47718 2.00001 2.00002 6.47716 2.00002 12C2.00002 17.5229 6.47718 22 12 22C17.5229 22 22 17.5229 22 12C21.9936 6.47982 17.5202 2.00644 12 2.00001ZM12 20.3333C7.39765 20.3333 3.66669 16.6024 3.66669 12C3.66669 7.39763 7.39765 3.66667 12 3.66667C16.6024 3.66667 20.3334 7.39763 20.3334 12C20.3283 16.6003 16.6003 20.3283 12 20.3333Z" />
</svg>