<!--character:3757-->
  <svg width="24" height="24" viewBox="0 0 24 24" >
<path d="M12.4171 11.6342L16.2787 15.175C16.6176 15.4858 16.6408 16.0124 16.3304 16.3517C16.0172 16.6865 15.4937 16.7091 15.1529 16.4025L11.0204 12.615C10.8481 12.4569 10.7501 12.2338 10.7504 12V7.41666C10.7504 6.95643 11.1235 6.58333 11.5837 6.58333C12.044 6.58333 12.4171 6.95643 12.4171 7.41666V11.6342Z" />
<path d="M12.0004 2C6.47754 2 2.00039 6.47715 2.00039 12C2.00039 17.5228 6.47754 22 12.0004 22C17.5232 22 22.0004 17.5228 22.0004 12C21.994 6.47982 17.5206 2.00643 12.0004 2ZM12.0004 20.3333C7.39802 20.3333 3.66706 16.6024 3.66706 12C3.66706 7.39762 7.39802 3.66666 12.0004 3.66666C16.6028 3.66666 20.3337 7.39762 20.3337 12C20.3287 16.6003 16.6007 20.3283 12.0004 20.3333Z" />
</svg>