<!-- character:0:1327 -->
  <svg width="20" height="20" viewBox="0 0 20 20" >
<path   d="M9.99996 1.66675C5.39759 1.66675 1.66663 5.39771 1.66663 10.0001C1.66663 14.6025 5.39759 18.3334 9.99996 18.3334C14.6023 18.3334 18.3333 14.6025 18.3333 10.0001C18.3279 5.39993 14.6001 1.67211 9.99996 1.66675ZM9.99996 16.9445C6.16465 16.9445 3.05552 13.8354 3.05552 10.0001C3.05552 6.16477 6.16465 3.05564 9.99996 3.05564C13.8353 3.05564 16.9444 6.16477 16.9444 10.0001C16.9402 13.8336 13.8335 16.9403 9.99996 16.9445ZM10.3472 9.69522L13.5652 12.6459C13.8477 12.9049 13.8669 13.3437 13.6083 13.6265C13.3473 13.9055 12.9111 13.9243 12.627 13.6688L9.18329 10.5126C9.03972 10.3809 8.95808 10.1949 8.95829 10.0001V6.18064C8.95829 5.79711 9.26921 5.48619 9.65274 5.48619C10.0363 5.48619 10.3472 5.79711 10.3472 6.18064V9.69522Z" />
</svg>