<!--character:8108-->
  <svg width="24" height="24" viewBox="0 0 24 24" >
<path d="M12.4167 11.6342L16.2783 15.175C16.6173 15.4858 16.6404 16.0124 16.33 16.3517C16.0168 16.6864 15.4933 16.709 15.1525 16.4025L11.02 12.615C10.8477 12.4569 10.7497 12.2338 10.75 12V7.41665C10.75 6.95642 11.1231 6.58332 11.5833 6.58332C12.0436 6.58332 12.4167 6.95642 12.4167 7.41665V11.6342Z" />
<path d="M12 1.99999C6.47715 1.99999 2 6.47714 2 12C2 17.5228 6.47715 22 12 22C17.5229 22 22 17.5228 22 12C21.9936 6.47981 17.5202 2.00642 12 1.99999ZM12 20.3333C7.39763 20.3333 3.66667 16.6024 3.66667 12C3.66667 7.39761 7.39763 3.66665 12 3.66665C16.6024 3.66665 20.3333 7.39761 20.3333 12C20.3283 16.6003 16.6003 20.3283 12 20.3333Z" />
</svg>