<!--character:6053-->
  <svg width="20" height="20" viewBox="0 0 20 20" >
<path d="M10.3475 9.69514L13.5656 12.6458C13.848 12.9048 13.8673 13.3436 13.6087 13.6264C13.3477 13.9054 12.9114 13.9242 12.6274 13.6687L9.18366 10.5125C9.04009 10.3808 8.95844 10.1948 8.95866 10V6.18055C8.95866 5.79702 9.26957 5.48611 9.6531 5.48611C10.0366 5.48611 10.3475 5.79702 10.3475 6.18055V9.69514Z" />
<path d="M10.0003 1.66666C5.39795 1.66666 1.66699 5.39762 1.66699 10C1.66699 14.6024 5.39795 18.3333 10.0003 18.3333C14.6027 18.3333 18.3337 14.6024 18.3337 10C18.3283 5.39985 14.6005 1.67202 10.0003 1.66666ZM10.0003 16.9444C6.16501 16.9444 3.05588 13.8353 3.05588 10C3.05588 6.16469 6.16501 3.05555 10.0003 3.05555C13.8356 3.05555 16.9448 6.16469 16.9448 10C16.9406 13.8336 13.8339 16.9402 10.0003 16.9444Z" />
</svg>