<!--character:6882-->
  <svg width="24" height="24" viewBox="0 0 24 24" >
<path d="M17.6558 6.33314C18.0075 6.68435 18.0079 7.2542 17.6567 7.60593L13.61 11.6578C13.4229 11.8452 13.4229 12.1488 13.61 12.3362L17.6567 16.3885C17.9787 16.7109 18.0051 17.2166 17.7364 17.5692L17.6558 17.6613C17.304 18.0125 16.7342 18.0121 16.383 17.6603L12.339 13.6102C12.1515 13.4224 11.8471 13.4225 11.6596 13.6103L7.61714 17.6603C7.26593 18.0121 6.69608 18.0125 6.34435 17.6613C5.99262 17.3101 5.9922 16.7402 6.34341 16.3885L10.3896 12.3362C10.5767 12.1488 10.5767 11.8452 10.3896 11.6578L6.34341 7.60593C6.02146 7.28351 5.99499 6.77781 6.26373 6.42524L6.34435 6.33314C6.69608 5.98192 7.26593 5.98234 7.61714 6.33408L11.6597 10.3829C11.8471 10.5706 12.1514 10.5707 12.3389 10.3829L16.383 6.33408C16.7342 5.98234 17.304 5.98192 17.6558 6.33314Z" />
</svg>