<!-- character:0:96 -->
  <svg width="20" height="20" viewBox="0 0 20 20" >
<path d="M14.7129 5.27763C15.006 5.57031 15.0064 6.04518 14.7137 6.33829L11.3414 9.71487C11.1855 9.87103 11.1855 10.124 11.3414 10.2802L14.7137 13.6571C14.982 13.9258 15.004 14.3472 14.7801 14.641L14.7129 14.7177C14.4198 15.0104 13.9449 15.0101 13.6522 14.717L10.2823 11.3419C10.126 11.1854 9.87234 11.1854 9.71609 11.3419L6.34737 14.717C6.05469 15.0101 5.57982 15.0104 5.28671 14.7177C4.9936 14.4251 4.99325 13.9502 5.28593 13.6571L8.65777 10.2802C8.8137 10.124 8.81369 9.87105 8.65775 9.71489L5.28593 6.33829C5.01764 6.0696 4.99558 5.64819 5.21953 5.35438L5.28671 5.27763C5.57982 4.98495 6.05469 4.9853 6.34737 5.27841L9.71614 8.6524C9.87238 8.80888 10.1259 8.8089 10.2822 8.65245L13.6522 5.27841C13.9449 4.9853 14.4198 4.98495 14.7129 5.27763Z" />
</svg>