<!--character:4980-->
  <svg width="20" height="20" viewBox="0 0 20 20" >
<path d="M9.99984 1.667C14.5832 1.667 18.3332 5.417 18.3332 10.0003C18.3332 14.5837 14.5832 18.3337 9.99984 18.3337C5.4165 18.3337 1.6665 14.5837 1.6665 10.0003C1.6665 5.417 5.4165 1.667 9.99984 1.667ZM13.8798 6.11095C13.5866 5.81827 13.1118 5.81862 12.8191 6.11173L10.2353 8.69953L10.1825 8.74261C10.0531 8.82791 9.87724 8.81349 9.76345 8.69948L7.18089 6.11173C6.88822 5.81862 6.41334 5.81827 6.12023 6.11095L6.05305 6.1877C5.8291 6.48151 5.85116 6.90292 6.11945 7.17161L8.70513 9.76203C8.83501 9.89215 8.83502 10.1029 8.70514 10.233L6.11945 12.8237C5.82677 13.1168 5.82712 13.5917 6.12023 13.8844C6.41334 14.1771 6.88822 14.1767 7.18089 13.8836L9.7634 11.2948C9.89422 11.1643 10.1053 11.1645 10.2353 11.2948L12.8191 13.8836C13.1118 14.1767 13.5866 14.1771 13.8798 13.8844L13.9469 13.8076C14.1709 13.5138 14.1488 13.0924 13.8805 12.8237L11.2944 10.233C11.1645 10.1029 11.1645 9.89213 11.2944 9.76201L13.8805 7.17161C14.1732 6.8785 14.1729 6.40362 13.8798 6.11095Z" />
</svg>