<!--character:1233-->
  <svg width="20" height="20" viewBox="0 0 20 20" >
<path d="M14.7131 5.27761C15.0063 5.57029 15.0066 6.04516 14.7139 6.33827L11.3417 9.71485C11.1857 9.87102 11.1857 10.124 11.3417 10.2802L14.7139 13.6571C14.9822 13.9258 15.0043 14.3472 14.7803 14.641L14.7131 14.7177C14.42 15.0104 13.9452 15.0101 13.6525 14.7169L10.2825 11.3419C10.1262 11.1854 9.87259 11.1854 9.71634 11.3419L6.34762 14.7169C6.05494 15.0101 5.58007 15.0104 5.28696 14.7177C4.99385 14.4251 4.9935 13.9502 5.28617 13.6571L8.65801 10.2801C8.81394 10.124 8.81394 9.87103 8.658 9.71487L5.28617 6.33827C5.01789 6.06959 4.99582 5.64817 5.21978 5.35437L5.28696 5.27761C5.58007 4.98494 6.05494 4.98529 6.34762 5.2784L9.71638 8.65238C9.87262 8.80887 10.1262 8.80889 10.2825 8.65244L13.6525 5.2784C13.9452 4.98529 14.42 4.98494 14.7131 5.27761Z" />
</svg>