<!--character:212:550:2214-->
  <svg width="24" height="24" viewBox="0 0 24 24" >
<path d="M11.9996 2.00049C17.4996 2.00049 21.9996 6.50049 21.9996 12.0005C21.9996 17.5005 17.4996 22.0005 11.9996 22.0005C6.49963 22.0005 1.99963 17.5005 1.99963 12.0005C1.99963 6.50049 6.49963 2.00049 11.9996 2.00049ZM16.6555 7.33322C16.3038 6.98201 15.734 6.98243 15.3828 7.33416L12.2822 10.4395L12.2189 10.4912C12.0635 10.5936 11.8525 10.5763 11.716 10.4395L8.61691 7.33416C8.2657 6.98243 7.69585 6.98201 7.34412 7.33322L7.26351 7.42532C6.99476 7.77789 7.02123 8.28359 7.34318 8.60601L10.446 11.7145C10.6019 11.8707 10.6019 12.1235 10.446 12.2797L7.34318 15.3886C6.99197 15.7403 6.99239 16.3101 7.34412 16.6614C7.69585 17.0126 8.2657 17.0122 8.61691 16.6604L11.7159 13.5539C11.8729 13.3972 12.1262 13.3975 12.2822 13.5538L15.3828 16.6604C15.734 17.0122 16.3038 17.0126 16.6555 16.6614L16.7362 16.5693C17.0049 16.2167 16.9784 15.711 16.6565 15.3886L13.5531 12.2797C13.3973 12.1235 13.3973 11.8706 13.5532 11.7145L16.6565 8.60601C17.0077 8.25428 17.0073 7.68443 16.6555 7.33322Z" />
</svg>