<!--character:211:550:2223-->
  <svg width="24" height="24" viewBox="0 0 24 24" >
<path d="M17.6555 6.3332C18.0073 6.68442 18.0077 7.25426 17.6565 7.60599L13.5533 11.7144C13.3973 11.8706 13.3973 12.1236 13.5533 12.2797L17.6565 16.3886C17.9784 16.711 18.0049 17.2167 17.7361 17.5692L17.6555 17.6613C17.3038 18.0126 16.7339 18.0121 16.3827 17.6604L12.2821 13.5536C12.1258 13.3971 11.8722 13.3971 11.716 13.5537L7.61688 17.6604C7.26567 18.0121 6.69582 18.0126 6.34409 17.6613C5.99236 17.3101 5.99194 16.7403 6.34315 16.3886L10.4458 12.2797C10.6017 12.1235 10.6017 11.8706 10.4458 11.7144L6.34315 7.60599C6.02121 7.28357 5.99473 6.77788 6.26348 6.42531L6.34409 6.3332C6.69582 5.98199 7.26567 5.98241 7.61688 6.33414L11.716 10.4396C11.8722 10.5961 12.1258 10.5961 12.2821 10.4397L16.3827 6.33414C16.7339 5.98241 17.3038 5.98199 17.6555 6.3332Z" />
</svg>