<!-- character:0:88 -->
  <svg width="20" height="20" viewBox="0 0 20 20" >
<path   d="M9.99965 1.66699C14.583 1.66699 18.333 5.41699 18.333 10.0003C18.333 14.5837 14.583 18.3337 9.99965 18.3337C5.41632 18.3337 1.66632 14.5837 1.66632 10.0003C1.66632 5.41699 5.41632 1.66699 9.99965 1.66699ZM13.8796 6.11094C13.5865 5.81826 13.1116 5.81861 12.8189 6.11172L10.2351 8.69952L10.1823 8.7426C10.0529 8.8279 9.87706 8.81349 9.76327 8.69947L7.18071 6.11172C6.88803 5.81861 6.41316 5.81826 6.12005 6.11094L6.05287 6.18769C5.82892 6.4815 5.85098 6.90291 6.11927 7.1716L8.70495 9.76202C8.83483 9.89214 8.83483 10.1029 8.70496 10.233L6.11927 12.8237C5.82659 13.1168 5.82694 13.5917 6.12005 13.8844C6.41316 14.1771 6.88803 14.1767 7.18071 13.8836L9.76322 11.2948C9.89404 11.1643 10.1051 11.1645 10.2351 11.2948L12.8189 13.8836C13.1116 14.1767 13.5865 14.1771 13.8796 13.8844L13.9468 13.8076C14.1707 13.5138 14.1486 13.0924 13.8804 12.8237L11.2942 10.233C11.1643 10.1029 11.1643 9.89212 11.2943 9.762L13.8804 7.1716C14.173 6.87849 14.1727 6.40361 13.8796 6.11094Z" />
</svg>