<!--character:4779-->
  <svg width="24" height="24" viewBox="0 0 24 24" >
<path d="M11.9998 2.0004C17.4998 2.0004 21.9998 6.5004 21.9998 12.0004C21.9998 17.5004 17.4998 22.0004 11.9998 22.0004C6.4998 22.0004 1.9998 17.5004 1.9998 12.0004C1.9998 6.5004 6.4998 2.0004 11.9998 2.0004ZM16.6557 7.33313C16.304 6.98192 15.7341 6.98234 15.3829 7.33407L12.2823 10.4394L12.219 10.4911C12.0637 10.5935 11.8527 10.5762 11.7161 10.4394L8.61707 7.33407C8.26586 6.98234 7.69601 6.98192 7.34428 7.33313L7.26366 7.42524C6.99492 7.77781 7.02139 8.28351 7.34334 8.60593L10.4462 11.7144C10.602 11.8706 10.602 12.1234 10.4462 12.2796L7.34334 15.3885C6.99213 15.7402 6.99255 16.3101 7.34428 16.6613C7.69601 17.0125 8.26586 17.0121 8.61707 16.6603L11.7161 13.5538C11.8731 13.3971 12.1263 13.3974 12.2824 13.5537L15.3829 16.6603C15.7341 17.0121 16.304 17.0125 16.6557 16.6613L16.7363 16.5692C17.0051 16.2166 16.9786 15.7109 16.6566 15.3885L13.5533 12.2796C13.3974 12.1234 13.3974 11.8706 13.5533 11.7144L16.6566 8.60593C17.0079 8.25419 17.0074 7.68435 16.6557 7.33313Z" />
</svg>