<!--character:5605-->
  <svg width="24" height="24" viewBox="0 0 24 24" >
<path d="M5.38417 4.15C5.46315 4.23991 5.57699 4.29152 5.69667 4.29167H6.79833C6.9617 4.2915 7.10989 4.19589 7.17737 4.04711C7.24485 3.89833 7.21916 3.72385 7.11167 3.60084L6.08333 2.425C5.84541 2.15418 5.50215 1.99926 5.14167 2H2.83333C2.3731 2 2 2.3731 2 2.83334C2 3.29357 2.3731 3.66667 2.83333 3.66667H4.95833L5.38417 4.15Z" />
<path d="M22 5.75C21.9993 4.10503 20.9266 2.6526 19.3546 2.16807C17.7826 1.68354 16.0784 2.28006 15.1517 3.63916C15.0642 3.76666 15.0544 3.93215 15.1265 4.06902C15.1985 4.20588 15.3404 4.2916 15.495 4.29166H16.5942C16.695 4.29178 16.7924 4.25536 16.8684 4.18916C17.4444 3.70051 18.2398 3.56193 18.9471 3.82699C19.6545 4.09205 20.1629 4.71922 20.276 5.46608C20.389 6.21294 20.0889 6.96249 19.4917 7.425C19.3985 7.612 19.2808 7.78575 19.1417 7.94166L18.0834 9.13916C18.0267 9.20379 18.0134 9.29571 18.0495 9.37372C18.0855 9.45174 18.1641 9.50122 18.25 9.5C20.3198 9.49678 21.9968 7.81973 22 5.75Z" />
<path d="M15.7858 21.1667C15.7858 20.7064 15.4127 20.3333 14.9525 20.3333H12.4167C12.1865 20.3333 12 20.1468 12 19.9167V14.3175C12.0001 14.2162 12.0372 14.1185 12.1042 14.0425L18.2158 7.10666C18.4557 6.83205 18.5246 6.44749 18.395 6.10666C18.2834 5.77581 17.9774 5.54961 17.6283 5.54H4.70499C4.35595 5.54961 4.04992 5.77581 3.93832 6.10666C3.80866 6.44749 3.87756 6.83205 4.11749 7.10666L10.2283 14.0425C10.2953 14.1185 10.3323 14.2162 10.3325 14.3175V19.9167C10.3325 20.1468 10.1459 20.3333 9.91582 20.3333H7.45249C6.99225 20.3333 6.61915 20.7064 6.61915 21.1667C6.61915 21.6269 6.99225 22 7.45249 22H14.9525C15.4127 22 15.7858 21.6269 15.7858 21.1667ZM6.3858 7.11917C6.40539 7.05653 6.46269 7.01331 6.5283 7.01167H15.805C15.8706 7.01331 15.9279 7.05653 15.9475 7.11917C15.9709 7.18311 15.956 7.25479 15.9091 7.30417L14.145 9.16167C14.0663 9.24469 13.9569 9.2917 13.8425 9.29167H8.4908C8.37639 9.2917 8.26701 9.24469 8.1883 9.16167L6.42413 7.30417C6.37724 7.25479 6.36238 7.18311 6.3858 7.11917Z" />
</svg>