<!-- character:0:2091 -->
  <svg width="20" height="20" viewBox="0 0 20 20" >
<path   d="M4.48676 3.45829C4.55259 3.53322 4.64745 3.57622 4.74718 3.57635H5.66524C5.80137 3.57621 5.92487 3.49653 5.9811 3.37255C6.03733 3.24857 6.01593 3.10317 5.92635 3.00066L5.0694 2.02079C4.87114 1.79511 4.58509 1.66601 4.28468 1.66663H2.36107C1.97754 1.66663 1.66663 1.97754 1.66663 2.36107C1.66663 2.7446 1.97754 3.05552 2.36107 3.05552H4.1319L4.48676 3.45829ZM18.3333 4.79163C18.3327 3.42083 17.4388 2.21046 16.1288 1.80669C14.8188 1.40292 13.3986 1.90001 12.6263 3.0326C12.5534 3.13885 12.5453 3.27676 12.6053 3.39081C12.6653 3.50487 12.7836 3.5763 12.9125 3.57635H13.8284C13.9124 3.57644 13.9936 3.5461 14.0569 3.49093C14.5369 3.08372 15.1998 2.96824 15.7892 3.18912C16.3787 3.41001 16.8024 3.93265 16.8966 4.55503C16.9908 5.17742 16.7407 5.80204 16.243 6.18746C16.1653 6.3433 16.0673 6.48809 15.9513 6.61802L15.0694 7.61593C15.0222 7.66979 15.0111 7.74639 15.0412 7.8114C15.0712 7.87641 15.1367 7.91765 15.2083 7.91663C16.9331 7.91395 18.3306 6.51641 18.3333 4.79163ZM13.1548 17.6389C13.1548 17.2553 12.8439 16.9444 12.4604 16.9444H10.3472C10.1554 16.9444 9.99996 16.789 9.99996 16.5972V11.9312C10.0001 11.8468 10.0309 11.7653 10.0868 11.702L15.1798 5.92218C15.3798 5.69334 15.4372 5.37288 15.3291 5.08885C15.2361 4.81314 14.9811 4.62464 14.6902 4.61663H3.92079C3.62993 4.62464 3.3749 4.81314 3.2819 5.08885C3.17385 5.37288 3.23127 5.69334 3.43121 5.92218L8.52357 11.702C8.57939 11.7653 8.61025 11.8468 8.61037 11.9312V16.5972C8.61037 16.789 8.45492 16.9444 8.26315 16.9444H6.21038C5.82684 16.9444 5.51593 17.2553 5.51593 17.6389C5.51593 18.0224 5.82684 18.3333 6.21038 18.3333H12.4604C12.8439 18.3333 13.1548 18.0224 13.1548 17.6389ZM5.32149 5.9326C5.33782 5.8804 5.38556 5.84439 5.44024 5.84302H13.1708C13.2255 5.84439 13.2732 5.8804 13.2895 5.9326C13.3091 5.98588 13.2967 6.04562 13.2576 6.08677L11.7875 7.63468C11.7219 7.70387 11.6307 7.74304 11.5354 7.74302H7.07565C6.98032 7.74304 6.88916 7.70387 6.82357 7.63468L5.35343 6.08677C5.31435 6.04562 5.30197 5.98588 5.32149 5.9326Z" />
</svg>