<!--character:4613-->
  <svg width="20" height="20" viewBox="0 0 20 20" >
<path d="M4.48664 3.45833C4.55247 3.53326 4.64733 3.57626 4.74706 3.57639H5.66511C5.80125 3.57625 5.92475 3.49657 5.98098 3.37259C6.03721 3.24861 6.0158 3.10321 5.92623 3.00069L5.06928 2.02083C4.87101 1.79515 4.58497 1.66605 4.28456 1.66667H2.36095C1.97742 1.66667 1.6665 1.97758 1.6665 2.36111C1.6665 2.74464 1.97742 3.05556 2.36095 3.05556H4.13178L4.48664 3.45833Z" />
<path d="M18.3332 4.79167C18.3325 3.42086 17.4386 2.2105 16.1286 1.80673C14.8187 1.40296 13.3985 1.90005 12.6262 3.03264C12.5533 3.13889 12.5452 3.2768 12.6052 3.39085C12.6652 3.5049 12.7835 3.57634 12.9123 3.57639H13.8283C13.9123 3.57648 13.9935 3.54614 14.0568 3.49097C14.5368 3.08376 15.1996 2.96828 15.7891 3.18916C16.3785 3.41004 16.8022 3.93268 16.8964 4.55507C16.9906 5.17746 16.7406 5.80207 16.2429 6.1875C16.1652 6.34333 16.0671 6.48813 15.9512 6.61805L15.0693 7.61597C15.0221 7.66983 15.011 7.74642 15.041 7.81144C15.0711 7.87645 15.1366 7.91769 15.2082 7.91667C16.9329 7.91399 18.3305 6.51645 18.3332 4.79167Z" />
<path d="M13.1547 17.6389C13.1547 17.2554 12.8438 16.9444 12.4603 16.9444H10.3471C10.1553 16.9444 9.99984 16.789 9.99984 16.5972V11.9313C9.99996 11.8469 10.0308 11.7654 10.0866 11.7021L15.1797 5.92222C15.3796 5.69338 15.4371 5.37291 15.329 5.08889C15.236 4.81318 14.981 4.62468 14.6901 4.61667H3.92067C3.62981 4.62468 3.37478 4.81318 3.28178 5.08889C3.17373 5.37291 3.23115 5.69338 3.43109 5.92222L8.52345 11.7021C8.57927 11.7654 8.61013 11.8469 8.61025 11.9313V16.5972C8.61025 16.789 8.4548 16.9444 8.26303 16.9444H6.21025C5.82672 16.9444 5.51581 17.2554 5.51581 17.6389C5.51581 18.0224 5.82672 18.3333 6.21025 18.3333H12.4603C12.8438 18.3333 13.1547 18.0224 13.1547 17.6389ZM5.32136 5.93264C5.3377 5.88044 5.38544 5.84442 5.44011 5.84305H13.1707C13.2253 5.84442 13.2731 5.88044 13.2894 5.93264C13.3089 5.98592 13.2966 6.04566 13.2575 6.08681L11.7873 7.63472C11.7217 7.70391 11.6306 7.74308 11.5353 7.74306H7.07553C6.98019 7.74308 6.88904 7.70391 6.82345 7.63472L5.35331 6.08681C5.31423 6.04566 5.30185 5.98592 5.32136 5.93264Z" />
</svg>