<!--character:2927-->
<svg width="24" height="24" viewBox="0 0 24 24">
  <path d="M5.38397 4.15C5.46296 4.23991 5.57679 4.29151 5.69647 4.29167H6.79814C6.9615 4.2915 7.1097 4.19588 7.17717 4.04711C7.24465 3.89833 7.21896 3.72385 7.11147 3.60083L6.08314 2.425C5.84522 2.15418 5.50196 1.99925 5.14147 2H2.83314C2.3729 2 1.9998 2.3731 1.9998 2.83333C1.9998 3.29357 2.3729 3.66667 2.83314 3.66667H4.95814L5.38397 4.15Z" />
  <path d="M21.9998 5.75C21.9991 4.10504 20.9264 2.6526 19.3544 2.16807C17.7824 1.68355 16.0782 2.28006 15.1515 3.63917C15.0639 3.76666 15.0542 3.93216 15.1262 4.06902C15.1983 4.20589 15.3401 4.2916 15.4948 4.29167H16.594C16.6947 4.29178 16.7922 4.25536 16.8681 4.18917C17.4442 3.70051 18.2396 3.56194 18.9469 3.82699C19.6542 4.09205 20.1627 4.71922 20.2757 5.46608C20.3888 6.21295 20.0887 6.96249 19.4915 7.425C19.3983 7.612 19.2806 7.78575 19.1415 7.94167L18.0831 9.13917C18.0265 9.20379 18.0132 9.29571 18.0493 9.37372C18.0853 9.45174 18.1639 9.50122 18.2498 9.5C20.3195 9.49679 21.9966 7.81973 21.9998 5.75Z" />
  <path d="M15.7856 21.1667C15.7856 20.7064 15.4125 20.3333 14.9523 20.3333H12.4165C12.1864 20.3333 11.9998 20.1468 11.9998 19.9167V14.3175C11.9999 14.2162 12.037 14.1185 12.104 14.0425L18.2156 7.10667C18.4556 6.83205 18.5245 6.4475 18.3948 6.10667C18.2832 5.77581 17.9772 5.54962 17.6281 5.54H4.7048C4.35577 5.54962 4.04974 5.77581 3.93814 6.10667C3.80848 6.4475 3.87738 6.83205 4.1173 7.10667L10.2281 14.0425C10.2951 14.1185 10.3322 14.2162 10.3323 14.3175V19.9167C10.3323 20.1468 10.1458 20.3333 9.91564 20.3333H7.4523C6.99207 20.3333 6.61897 20.7064 6.61897 21.1667C6.61897 21.6269 6.99207 22 7.4523 22H14.9523C15.4125 22 15.7856 21.6269 15.7856 21.1667ZM6.38564 7.11917C6.40524 7.05653 6.46253 7.01331 6.52814 7.01167H15.8048C15.8704 7.01331 15.9277 7.05653 15.9473 7.11917C15.9707 7.18311 15.9559 7.25479 15.909 7.30417L14.1448 9.16167C14.0661 9.24469 13.9567 9.2917 13.8423 9.29167H8.49064C8.37623 9.2917 8.26685 9.24469 8.18814 9.16167L6.42397 7.30417C6.37708 7.25479 6.36222 7.18311 6.38564 7.11917Z" />
</svg>
