<!--character:6548-->
  <svg width="20" height="20" viewBox="0 0 20 20" >
<path d="M10.2223 5.70989C10.3058 5.33478 10.6776 5.09838 11.0527 5.18189C11.4278 5.2654 11.6642 5.63719 11.5807 6.0123L9.73753 14.2915C9.65402 14.6666 9.28223 14.903 8.90712 14.8195C8.532 14.736 8.29561 14.3642 8.37912 13.9891L10.2223 5.70989Z" />
<path d="M14.329 6.07021L17.6979 9.51215C17.9625 9.78253 17.9626 10.2148 17.6981 10.4853L14.3293 13.9309C14.0606 14.2057 13.62 14.2107 13.3453 13.942C13.0705 13.6733 13.0655 13.2328 13.3342 12.958L16.0562 10.174C16.1512 10.0768 16.1512 9.92149 16.0561 9.82435L13.3344 7.04365C13.0656 6.76901 13.0704 6.32846 13.345 6.05965C13.6196 5.79084 14.0602 5.79557 14.329 6.07021Z" />
<path d="M6.72357 6.97173C6.92822 6.69678 6.90326 6.30606 6.65151 6.05965C6.37687 5.79084 5.93632 5.79557 5.66751 6.07021L2.29865 9.51215L2.23304 9.58966C2.03618 9.85979 2.05794 10.2394 2.29839 10.4853L5.66725 13.9309L5.7378 13.994C6.00819 14.2046 6.39936 14.1883 6.65125 13.942C6.92603 13.6733 6.93099 13.2328 6.66233 12.958L3.94032 10.174L3.90541 10.1291C3.84724 10.0336 3.85891 9.90762 3.94041 9.82435L6.66207 7.04365L6.72357 6.97173Z" />
</svg>