<!--character:5056-->
  <svg width="24" height="24" viewBox="0 0 24 24" >
<path d="M12.2666 6.85187C12.3668 6.40174 12.8129 6.11806 13.2631 6.21828C13.7132 6.31849 13.9969 6.76463 13.8967 7.21477L11.6849 17.1498C11.5847 17.5999 11.1385 17.8836 10.6884 17.7834C10.2383 17.6832 9.95459 17.237 10.0548 16.7869L12.2666 6.85187Z" />
<path d="M17.1946 7.28426L21.2373 11.4146C21.5548 11.739 21.555 12.2578 21.2376 12.5824L17.195 16.7171C16.8726 17.0468 16.3439 17.0528 16.0142 16.7304C15.6844 16.408 15.6785 15.8793 16.0009 15.5496L19.2673 12.2088C19.3813 12.0922 19.3813 11.9058 19.2672 11.7892L16.0012 8.45239C15.6786 8.12282 15.6843 7.59416 16.0138 7.27159C16.3434 6.94902 16.8721 6.95469 17.1946 7.28426Z" />
<path d="M8.06814 8.36608C8.31371 8.03614 8.28377 7.56728 7.98167 7.27159C7.6521 6.94902 7.12344 6.95469 6.80087 7.28426L2.75824 11.4146L2.6795 11.5076C2.44327 11.8318 2.46939 12.2873 2.75793 12.5824L6.80056 16.7171L6.88522 16.7928C7.20968 17.0456 7.67909 17.0259 7.98135 16.7304C8.31109 16.408 8.31704 15.8793 7.99465 15.5496L4.72824 12.2088L4.68635 12.155C4.61654 12.0403 4.63055 11.8891 4.72835 11.7892L7.99434 8.45239L8.06814 8.36608Z" />
</svg>