<!--character:8209-->
  <svg width="20" height="20" viewBox="0 0 20 20" >
<path d="M2.37588 5.89069C2.14156 5.76491 1.84964 5.8529 1.72386 6.08723C1.59808 6.32155 1.68607 6.61347 1.92039 6.73925L8.20941 10.115L1.91354 13.6273C1.68129 13.7568 1.59804 14.0501 1.72761 14.2824C1.85717 14.5146 2.15048 14.5979 2.38273 14.4683L9.44702 10.5274C9.60069 10.4417 9.69537 10.279 9.69394 10.103C9.69251 9.92703 9.59521 9.76585 9.44016 9.68262L2.37588 5.89069Z" />
<path d="M10.2286 14.5126H17.9132C18.1441 14.5126 18.3332 14.3236 18.3332 14.0926C18.3332 13.8616 18.1441 13.6726 17.9132 13.6726H10.2286C9.99752 13.6726 9.80856 13.8616 9.80856 14.0926C9.80856 14.3236 9.99752 14.5126 10.2286 14.5126Z" />
</svg>