<!--description:Basically for code.kiwi.com in menu-->
<!--category:basic-->
<!--character:E141-->
<!--added:0.19-->
<svg width="24" height="24" viewBox="0 0 24 24" xmlns="http://www.w3.org/2000/svg"><path d="M13.263091 6.218274c.450138.100212.73381.546358.633599.996496l-2.21177 9.935034c-.100211.450138-.546357.73381-.996495.633599-.450138-.100211-.73381-.546357-.633599-.996495l2.21177-9.935035c.100211-.450138.546357-.73381.996495-.633599zm3.93159 1.065983l4.04263 4.13033c.317567.324455.317704.84319.00031 1.167814l-4.042631 4.134704c-.322396.329738-.851055.33569-1.180794.013295-.329738-.322396-.33569-.851055-.013295-1.180794l3.26641-3.340804c.114034-.116631.113985-.303003-.00011-.419574L16.00121 8.452387c-.32257-.329568-.316897-.85823.01267-1.1808.329568-.322571.85823-.316898 1.1808.01267zm-9.212985-.01267c.302104.295688.332046.764552.086477 1.094494l-.073807.086306-3.26599 3.336841c-.097796.099918-.111803.251118-.041998.365726l.041887.053848 3.26641 3.340804c.322396.329739.316444.858398-.013295 1.180794-.30226.29553-.77167.315155-1.096132.062391l-.084661-.075686L2.757956 12.5824c-.28854-.295112-.314658-.750648-.07843-1.074802l.078739-.093012 4.04263-4.13033c.32257-.329568.851233-.335241 1.1808-.01267z"/></svg>
