<!--character:4288-->
  <svg width="24" height="24" viewBox="0 0 24 24" >
<path d="M2.85125 7.06882C2.57006 6.91789 2.21976 7.02348 2.06882 7.30467C1.91789 7.58586 2.02348 7.93616 2.30467 8.0871L9.85149 12.138L2.29644 16.3527C2.01774 16.5082 1.91785 16.8602 2.07333 17.1389C2.2288 17.4176 2.58077 17.5175 2.85948 17.362L11.3366 12.6329C11.521 12.53 11.6346 12.3348 11.6329 12.1236C11.6312 11.9124 11.5144 11.719 11.3284 11.6191L2.85125 7.06882Z" />
<path d="M12.2745 17.4151H21.4961C21.7732 17.4151 22 17.1883 22 16.9111C22 16.6339 21.7732 16.4071 21.4961 16.4071H12.2745C11.9972 16.4071 11.7705 16.6339 11.7705 16.9111C11.7705 17.1883 11.9972 17.4151 12.2745 17.4151Z" />
</svg>