<!--character:7068-->
  <svg width="24" height="24" viewBox="0 0 24 24" >
<path d="M2.85124 7.06882C2.57005 6.91789 2.21975 7.02348 2.06881 7.30467C1.91788 7.58585 2.02347 7.93616 2.30466 8.08709L9.85148 12.138L2.29643 16.3527C2.01773 16.5082 1.91784 16.8602 2.07331 17.1389C2.22879 17.4176 2.58076 17.5175 2.85946 17.362L11.3366 12.6329C11.521 12.53 11.6346 12.3348 11.6329 12.1236C11.6312 11.9124 11.5144 11.719 11.3284 11.6191L2.85124 7.06882Z" />
<path d="M12.2745 17.4151H21.496C21.7731 17.4151 22 17.1883 22 16.9111C22 16.6339 21.7731 16.4071 21.496 16.4071H12.2745C11.9972 16.4071 11.7704 16.6339 11.7704 16.9111C11.7704 17.1883 11.9972 17.4151 12.2745 17.4151Z" />
</svg>