<!--character:2157-->
  <svg width="24" height="24" viewBox="0 0 24 24" >
<path d="M12.2666 6.85197C12.3668 6.40183 12.813 6.11816 13.2631 6.21837C13.7132 6.31859 13.9969 6.76473 13.8967 7.21487L11.6849 17.1499C11.5847 17.6 11.1386 17.8837 10.6884 17.7835C10.2383 17.6833 9.95462 17.2371 10.0548 16.787L12.2666 6.85197Z" />
<path d="M17.1947 7.28436L21.2373 11.4147C21.5549 11.7391 21.555 12.2579 21.2376 12.5825L17.195 16.7172C16.8726 17.047 16.3439 17.0529 16.0142 16.7305C15.6845 16.4081 15.6785 15.8795 16.0009 15.5497L19.2673 12.2089C19.3814 12.0923 19.3813 11.9059 19.2672 11.7893L16.0012 8.45249C15.6787 8.12293 15.6843 7.59426 16.0139 7.27169C16.3435 6.94912 16.8721 6.9548 17.1947 7.28436Z" />
<path d="M8.06819 8.36619C8.31376 8.03625 8.28382 7.56738 7.98171 7.27169C7.65215 6.94912 7.12348 6.9548 6.80091 7.28436L2.75828 11.4147L2.67955 11.5077C2.44332 11.8319 2.46943 12.2874 2.75798 12.5825L6.80061 16.7172L6.88527 16.7929C7.20973 17.0457 7.67914 17.026 7.9814 16.7305C8.31114 16.4081 8.31709 15.8795 7.99469 15.5497L4.72828 12.2089L4.6864 12.1551C4.61659 12.0405 4.6306 11.8893 4.72839 11.7893L7.99438 8.45249L8.06819 8.36619Z" />
</svg>