<!-- character:0:698 -->
  <svg width="20" height="20" viewBox="0 0 20 20" >
<path   d="M10.2222 5.70981C10.3057 5.3347 10.6775 5.09831 11.0526 5.18182C11.4277 5.26533 11.6641 5.63711 11.5806 6.01223L9.73744 14.2914C9.65393 14.6665 9.28214 14.9029 8.90703 14.8194C8.53191 14.7359 8.29552 14.3641 8.37903 13.989L10.2222 5.70981ZM14.3289 6.07013L17.6978 9.51208C17.9624 9.78245 17.9625 10.2147 17.698 10.4853L14.3292 13.9308C14.0605 14.2056 13.62 14.2106 13.3452 13.9419C13.0704 13.6733 13.0654 13.2327 13.3341 12.9579L16.0561 10.1739C16.1511 10.0767 16.1511 9.92142 16.056 9.82428L13.3343 7.04358C13.0655 6.76894 13.0703 6.32838 13.3449 6.05958C13.6195 5.79077 14.0601 5.79549 14.3289 6.07013ZM6.72348 6.97165C6.92812 6.6967 6.90317 6.30598 6.65142 6.05958C6.37678 5.79077 5.93623 5.79549 5.66742 6.07013L2.29856 9.51208L2.23294 9.58959C2.03609 9.85971 2.05785 10.2393 2.2983 10.4853L5.66716 13.9308L5.73771 13.9939C6.0081 14.2045 6.39927 14.1882 6.65116 13.9419C6.92594 13.6733 6.9309 13.2327 6.66223 12.9579L3.94023 10.1739L3.90532 10.129C3.84715 10.0335 3.85882 9.90754 3.94032 9.82428L6.66198 7.04358L6.72348 6.97165Z" />
</svg>