<!--character:3701-->
  <svg width="24" height="24" viewBox="0 0 24 24" >
<path d="M2.85106 7.06883C2.56987 6.91789 2.21956 7.02348 2.06863 7.30467C1.91769 7.58586 2.02329 7.93616 2.30447 8.0871L9.85129 12.138L2.29625 16.3527C2.01755 16.5082 1.91765 16.8602 2.07313 17.1389C2.22861 17.4176 2.58058 17.5175 2.85928 17.362L11.3364 12.6329C11.5208 12.53 11.6344 12.3348 11.6327 12.1236C11.631 11.9124 11.5143 11.719 11.3282 11.6191L2.85106 7.06883Z" />
<path d="M12.2743 17.4151H21.4959C21.773 17.4151 21.9998 17.1883 21.9998 16.9111C21.9998 16.6339 21.773 16.4072 21.4959 16.4072H12.2743C11.997 16.4072 11.7703 16.6339 11.7703 16.9111C11.7703 17.1883 11.997 17.4151 12.2743 17.4151Z" />
</svg>