<!-- character:438:310 -->
  <svg width="20" height="20" viewBox="0 0 20 20" >
<path d="M2.376 5.89073C2.14168 5.76495 1.84976 5.85294 1.72398 6.08726C1.5982 6.32159 1.68619 6.61351 1.92052 6.73929L8.20953 10.1151L1.91366 13.6273C1.68141 13.7569 1.59817 14.0502 1.72773 14.2824C1.85729 14.5147 2.1506 14.5979 2.38286 14.4684L9.44714 10.5275C9.60082 10.4417 9.69549 10.279 9.69406 10.103C9.69264 9.92707 9.59533 9.76589 9.44028 9.68266L2.376 5.89073Z" />
<path d="M10.2287 14.5127H17.9133C18.1443 14.5127 18.3333 14.3236 18.3333 14.0926C18.3333 13.8616 18.1443 13.6727 17.9133 13.6727H10.2287C9.99764 13.6727 9.80868 13.8616 9.80868 14.0926C9.80868 14.3236 9.99764 14.5127 10.2287 14.5127Z" />
</svg>