<!--character:5988-->
  <svg width="24" height="24" viewBox="0 0 24 24" >
<path d="M2.85128 7.06882C2.57009 6.91789 2.21978 7.02348 2.06885 7.30467C1.91791 7.58585 2.0235 7.93616 2.30469 8.08709L9.85151 12.138L2.29647 16.3527C2.01777 16.5082 1.91787 16.8602 2.07335 17.1389C2.22883 17.4176 2.5808 17.5175 2.8595 17.362L11.3366 12.6329C11.5211 12.53 11.6347 12.3348 11.6329 12.1236C11.6312 11.9124 11.5145 11.719 11.3284 11.6191L2.85128 7.06882Z" />
<path d="M12.2745 17.4151H21.4961C21.7732 17.4151 22 17.1883 22 16.9111C22 16.6339 21.7732 16.4071 21.4961 16.4071H12.2745C11.9972 16.4071 11.7705 16.6339 11.7705 16.9111C11.7705 17.1883 11.9972 17.4151 12.2745 17.4151Z" />
</svg>