<!--character:6024-->
  <svg width="24" height="24" viewBox="0 0 24 24" >
<path d="M12.2667 6.85187C12.3669 6.40173 12.8131 6.11806 13.2632 6.21827C13.7133 6.31848 13.997 6.76463 13.8968 7.21477L11.685 17.1498C11.5848 17.5999 11.1387 17.8836 10.6885 17.7834C10.2384 17.6832 9.95473 17.237 10.0549 16.7869L12.2667 6.85187Z" />
<path d="M17.1948 7.28425L21.2374 11.4146C21.555 11.739 21.5551 12.2578 21.2377 12.5824L17.1951 16.7171C16.8727 17.0468 16.3441 17.0528 16.0143 16.7304C15.6846 16.408 15.6786 15.8793 16.001 15.5496L19.2674 12.2088C19.3815 12.0922 19.3814 11.9058 19.2673 11.7892L16.0013 8.45238C15.6788 8.12281 15.6844 7.59415 16.014 7.27158C16.3436 6.94901 16.8722 6.95468 17.1948 7.28425Z" />
<path d="M8.06829 8.36608C8.31386 8.03614 8.28392 7.56727 7.98181 7.27158C7.65224 6.94901 7.12358 6.95468 6.80101 7.28425L2.75838 11.4146L2.67964 11.5076C2.44342 11.8317 2.46953 12.2873 2.75807 12.5824L6.8007 16.7171L6.88537 16.7928C7.20983 17.0456 7.67924 17.0259 7.9815 16.7304C8.31124 16.408 8.31719 15.8793 7.99479 15.5496L4.72838 12.2088L4.68649 12.155C4.61669 12.0403 4.6307 11.8891 4.72849 11.7892L7.99448 8.45238L8.06829 8.36608Z" />
</svg>