<!--character:2713-->
<svg width="24" height="24" viewBox="0 0 24 24">
  <path d="M10.339 16.5525C11.926 16.4443 13.4171 15.7534 14.5256 14.6125C14.6037 14.5333 14.7102 14.4886 14.8215 14.4883H17.844C20.1392 14.4883 21.9998 12.6277 21.9998 10.3325C21.9998 8.03729 20.1392 6.17666 17.844 6.17666H16.9615C16.7314 6.17666 16.5448 5.99012 16.5448 5.76V5.34333C16.5448 4.88309 16.1717 4.51 15.7115 4.51H4.0773C3.61707 4.51 3.24397 4.88309 3.24397 5.34333V9.91666C3.24401 11.7577 4.00718 13.5163 5.35176 14.7739C6.69635 16.0315 8.50205 16.6754 10.339 16.5525ZM17.844 7.83916C19.221 7.83916 20.3373 8.95547 20.3373 10.3325C20.3373 11.7095 19.221 12.8258 17.844 12.8258H16.4448C16.3076 12.8253 16.1795 12.7572 16.1022 12.6438C16.0249 12.5304 16.0085 12.3862 16.0581 12.2583C16.3802 11.4401 16.5455 10.5685 16.5456 9.68916V8.25416C16.5456 8.02405 16.7322 7.8375 16.9623 7.8375L17.844 7.83916Z" />
  <path d="M2.83314 17.8133H21.1173C21.5775 17.8133 21.9506 18.1864 21.9506 18.6467C21.9506 19.1069 21.5775 19.48 21.1173 19.48H2.83314C2.3729 19.48 1.9998 19.1069 1.9998 18.6467C1.9998 18.1864 2.3729 17.8133 2.83314 17.8133Z" />
</svg>
