<!--description:Use in map for coffee places-->
<!--category:services-->
<!--character:E02F-->
<!--added:0.11-->
<svg width="24" height="24" viewBox="0 0 24 24" xmlns="http://www.w3.org/2000/svg"><path d="M21.1175 17.8133a.8333.8333 0 0 1 0 1.6667H2.8333a.8333.8333 0 1 1 0-1.6667h18.2842zm-10.7783-1.2608a6.6508 6.6508 0 0 1-7.095-6.6358V5.3433a.8333.8333 0 0 1 .8333-.8333h11.6342a.8333.8333 0 0 1 .8333.8333V5.76c0 .2301.1865.4167.4167.4167h.8825C20.1394 6.1767 22 8.0373 22 10.3325c0 2.2952-1.8606 4.1558-4.1558 4.1558h-3.0225a.4167.4167 0 0 0-.2959.1242 6.4492 6.4492 0 0 1-4.1866 1.94zm7.505-8.7133l-.8817-.0017a.4167.4167 0 0 0-.4167.4167v1.435a7.0175 7.0175 0 0 1-.4875 2.5691.4167.4167 0 0 0 .3867.5675h1.3992c1.377 0 2.4933-1.1163 2.4933-2.4933s-1.1163-2.4933-2.4933-2.4933z"/></svg>