<!--character:208:550:2188-->
  <svg width="24" height="24" viewBox="0 0 24 24" >
<path   d="M10.3392 16.5525C11.9262 16.4443 13.4173 15.7534 14.5258 14.6125C14.6039 14.5333 14.7104 14.4886 14.8217 14.4883H17.8442C20.1394 14.4883 22 12.6277 22 10.3325C22 8.03731 20.1394 6.17668 17.8442 6.17668H16.9617C16.7315 6.17668 16.545 5.99013 16.545 5.76001V5.34334C16.545 4.88311 16.1719 4.51001 15.7117 4.51001H4.07749C3.61726 4.51001 3.24416 4.88311 3.24416 5.34334V9.91668C3.2442 11.7577 4.00736 13.5164 5.35195 14.7739C6.69654 16.0315 8.50224 16.6755 10.3392 16.5525ZM17.8442 7.83918C19.2212 7.83918 20.3375 8.95548 20.3375 10.3325C20.3375 11.7095 19.2212 12.8258 17.8442 12.8258H16.445C16.3078 12.8253 16.1797 12.7572 16.1024 12.6438C16.0251 12.5304 16.0087 12.3862 16.0583 12.2583C16.3804 11.4401 16.5457 10.5685 16.5458 9.68918V8.25418C16.5458 8.02406 16.7324 7.83751 16.9625 7.83751L17.8442 7.83918ZM2.83333 17.8133H21.1175C21.5777 17.8133 21.9508 18.1864 21.9508 18.6467C21.9508 19.1069 21.5777 19.48 21.1175 19.48H2.83333C2.3731 19.48 2 19.1069 2 18.6467C2 18.1864 2.3731 17.8133 2.83333 17.8133Z" />
</svg>