<!--character:5836-->
  <svg width="20" height="20" viewBox="0 0 20 20" >
<path d="M8.61581 13.7937C9.93835 13.7036 11.1809 13.1278 12.1047 12.1771C12.1698 12.1111 12.2585 12.0738 12.3512 12.0736H14.87C16.7826 12.0736 18.3332 10.5231 18.3332 8.61042C18.3332 6.69775 16.7826 5.14722 14.87 5.14722H14.1346C13.9428 5.14722 13.7873 4.99176 13.7873 4.8V4.45278C13.7873 4.06924 13.4764 3.75833 13.0929 3.75833H3.39775C3.01422 3.75833 2.70331 4.06924 2.70331 4.45278V8.26389C2.70334 9.79808 3.33931 11.2636 4.4598 12.3116C5.58029 13.3596 7.08504 13.8962 8.61581 13.7937ZM14.87 6.53264C16.0175 6.53264 16.9478 7.46289 16.9478 8.61041C16.9478 9.75794 16.0175 10.6882 14.87 10.6882H13.704C13.5897 10.6877 13.4829 10.631 13.4185 10.5365C13.3541 10.442 13.3404 10.3219 13.3818 10.2153C13.6501 9.53338 13.788 8.80711 13.788 8.0743V6.87847C13.788 6.6867 13.9435 6.53125 14.1353 6.53125L14.87 6.53264Z" />
<path d="M2.36095 14.8444H17.5978C17.9813 14.8444 18.2922 15.1554 18.2922 15.5389C18.2922 15.9224 17.9813 16.2333 17.5978 16.2333H2.36095C1.97742 16.2333 1.6665 15.9224 1.6665 15.5389C1.6665 15.1554 1.97742 14.8444 2.36095 14.8444Z" />
</svg>