<!-- character:0:2079 -->
  <svg width="20" height="20" viewBox="0 0 20 20" >
<path   d="M8.61593 13.7937C9.93848 13.7036 11.181 13.1278 12.1048 12.1771C12.1699 12.111 12.2587 12.0738 12.3513 12.0736H14.8701C16.7828 12.0736 18.3333 10.5231 18.3333 8.61038C18.3333 6.69772 16.7828 5.14719 14.8701 5.14719H14.1347C13.9429 5.14719 13.7875 4.99173 13.7875 4.79997V4.45275C13.7875 4.06921 13.4765 3.7583 13.093 3.7583H3.39788C3.01434 3.7583 2.70343 4.06921 2.70343 4.45275V8.26386C2.70347 9.79805 3.33944 11.2636 4.45992 12.3116C5.58041 13.3595 7.08517 13.8962 8.61593 13.7937ZM14.8701 6.53261C16.0176 6.53261 16.9479 7.46286 16.9479 8.61038C16.9479 9.75791 16.0176 10.6882 14.8701 10.6882H13.7041C13.5898 10.6877 13.483 10.6309 13.4186 10.5365C13.3542 10.442 13.3405 10.3218 13.3819 10.2152C13.6503 9.53335 13.7881 8.80708 13.7882 8.07427V6.87844C13.7882 6.68667 13.9436 6.53122 14.1354 6.53122L14.8701 6.53261ZM2.36107 14.8444H17.5979C17.9814 14.8444 18.2923 15.1553 18.2923 15.5389C18.2923 15.9224 17.9814 16.2333 17.5979 16.2333H2.36107C1.97754 16.2333 1.66663 15.9224 1.66663 15.5389C1.66663 15.1553 1.97754 14.8444 2.36107 14.8444Z" />
</svg>