<!--character:6581-->
<!--customColor:true-->
<svg width="20" height="20" viewBox="0 0 20 20" fill="none" xmlns="http://www.w3.org/2000/svg">
<path d="M19 4.41506C18.3376 4.70943 17.6262 4.90811 16.8782 4.99647C17.6408 4.53945 18.2267 3.81565 18.5031 2.95339C17.7888 3.37607 16.9986 3.68451 16.1572 3.84942C15.4829 3.13181 14.5227 2.68323 13.4595 2.68323C11.4192 2.68323 9.76621 4.33683 9.76621 6.3771C9.76621 6.6664 9.79829 6.94894 9.86133 7.2191C6.79107 7.06488 4.06922 5.5942 2.24676 3.35919C1.92932 3.90514 1.74697 4.53945 1.74697 5.21654C1.74697 6.49867 2.39929 7.62884 3.38988 8.29186C2.78483 8.27216 2.21524 8.10668 1.71714 7.82977C1.71657 7.84497 1.71657 7.86129 1.71657 7.87592C1.71657 9.66629 2.9897 11.1595 4.67989 11.4989C4.37033 11.5827 4.04389 11.6283 3.70675 11.6283C3.46811 11.6283 3.23735 11.6053 3.01221 11.5625C3.48162 13.0292 4.84649 14.0975 6.46238 14.1279C5.19882 15.1185 3.606 15.71 1.87529 15.71C1.57699 15.71 1.28263 15.6925 0.993896 15.6582C2.62836 16.7051 4.57014 17.3169 6.65656 17.3169C13.4511 17.3169 17.1675 11.688 17.1675 6.80598C17.1675 6.64613 17.163 6.48629 17.1562 6.32757C17.8783 5.80695 18.5042 5.15688 19 4.41506Z" fill="#55ACEE"/>
</svg>