<!--character:E262-->
<!--customColor:true-->
<svg width="24" height="24" viewBox="0 0 24 24" xmlns="http://www.w3.org/2000/svg">
  <path d="M3.13761 20.8624L7.07408 19.7799C8.48465 20.6656 10.1905 21.1905 11.9947 21.1905C17.0793 21.1905 21.1798 17.09 21.1798 12.0054C21.1798 6.92075 17.0793 2.82025 11.9947 2.82025C6.91006 2.82025 2.80957 6.92075 2.80957 12.0054C2.80957 13.8096 3.33443 15.5154 4.22014 16.926L3.13761 20.8624Z" fill="#25D366"/>
  <path d="M1.98962 12.0052C1.98962 6.46766 6.45729 2 11.9948 2C17.5324 2 22 6.46766 22 12.0052C22 17.5427 17.5324 22.0104 11.9948 22.0104C10.164 22.0104 8.4259 21.5139 6.95271 20.6637L1.9646 22.0354L3.33633 17.0473C2.48614 15.5741 1.98962 13.836 1.98962 12.0052ZM11.9948 3.6402C7.36315 3.6402 3.62982 7.37352 3.62982 12.0052C3.62982 13.6508 4.10883 15.2061 4.91483 16.4897L5.10672 16.7953L4.31093 19.6891L7.20473 18.8933L7.51034 19.0852C8.79396 19.8912 10.3492 20.3702 11.9948 20.3702C16.6265 20.3702 20.3598 16.6369 20.3598 12.0052C20.3598 7.37352 16.6265 3.6402 11.9948 3.6402Z" fill="white"/>
  <path d="M16.5545 14.4983C15.9313 15.8104 14.7831 15.9744 14.7831 15.9744C13.799 16.1713 12.5525 15.7448 11.5683 15.2856C10.1578 14.6295 8.94402 13.5798 8.12392 12.2348C7.76308 11.6115 7.43504 10.8898 7.40223 10.201C7.40223 10.201 7.27102 9.05282 8.38635 8.13431C8.48476 8.0687 8.58317 8.03589 8.71439 8.03589H9.20645C9.40327 8.03589 9.6001 8.16711 9.6657 8.36393L10.4202 10.201C10.4858 10.3978 10.453 10.5946 10.3218 10.7586L9.82972 11.2835C9.6657 11.4475 9.6657 11.6771 9.76412 11.874C9.79692 11.9396 9.86253 12.038 9.96094 12.1364C10.5514 12.9237 11.3387 13.5142 12.2244 13.9078C12.3556 13.9734 12.454 14.0062 12.5525 14.039C12.7821 14.1046 12.9789 14.0062 13.1101 13.8422L13.5038 13.2517C13.6022 13.0877 13.799 12.9893 13.9958 13.0221L15.9641 13.3173C16.1609 13.3501 16.3249 13.5142 16.3905 13.711L16.5217 14.203C16.5873 14.2686 16.5873 14.3999 16.5545 14.4983Z" fill="white"/>
</svg>
