<!--character:9063-->
<!--customColor:true-->
<svg width="20" height="20" viewBox="0 0 20 20" fill="none" xmlns="http://www.w3.org/2000/svg">
<path d="M7.99996 1.91012L8.18746 2.66788C7.44987 2.84926 6.74397 3.14116 6.09371 3.53369L5.69267 2.86448C6.40925 2.43187 7.18714 2.11011 7.99996 1.91012ZM12 1.91012L11.8125 2.66788C12.55 2.84926 13.256 3.14116 13.9062 3.53369L14.3099 2.86448C13.5925 2.43163 12.8137 2.10986 12 1.91012ZM2.86454 5.69238C2.4319 6.40891 2.11012 7.18674 1.91011 7.99949L2.66792 8.18698C2.84932 7.44945 3.14125 6.7436 3.53381 6.09339L2.86454 5.69238ZM2.44787 9.99934C2.44762 9.62061 2.47591 9.2424 2.53251 8.86792L1.76037 8.75074C1.63538 9.57845 1.63538 10.4202 1.76037 11.2479L2.53251 11.1308C2.47591 10.7563 2.44762 10.3781 2.44787 9.99934ZM14.3073 17.1342L13.9062 16.465C13.2568 16.8573 12.5518 17.1492 11.8151 17.3308L12.0026 18.0886C12.8145 17.8883 13.5915 17.5666 14.3073 17.1342ZM17.552 9.99934C17.5523 10.3781 17.524 10.7563 17.4674 11.1308L18.2395 11.2479C18.3645 10.4202 18.3645 9.57845 18.2395 8.75074L17.4674 8.86792C17.524 9.2424 17.5523 9.62061 17.552 9.99934ZM18.0898 11.9992L17.332 11.8117C17.1506 12.5492 16.8587 13.2551 16.4661 13.9053L17.1354 14.3089C17.5683 13.5916 17.89 12.8128 18.0898 11.9992ZM11.1315 17.4675C10.3814 17.5804 9.61857 17.5804 8.86845 17.4675L8.75126 18.2396C9.57903 18.3646 10.4209 18.3646 11.2487 18.2396L11.1315 17.4675ZM16.0794 14.4795C15.629 15.0894 15.0895 15.6284 14.4791 16.0783L14.9427 16.7072C15.616 16.2121 16.2112 15.6187 16.7083 14.9469L16.0794 14.4795ZM14.4791 3.92038C15.0896 4.37068 15.6291 4.91007 16.0794 5.52052L16.7083 5.05181C16.2128 4.38034 15.6194 3.78698 14.9479 3.29153L14.4791 3.92038ZM3.92053 5.52052C4.37086 4.91007 4.91029 4.37068 5.52079 3.92038L5.05204 3.29153C4.38052 3.78698 3.78712 4.38034 3.29162 5.05181L3.92053 5.52052ZM17.1354 5.69238L16.4661 6.09339C16.8584 6.74279 17.1504 7.44775 17.332 8.18437L18.0898 7.99689C17.8896 7.18504 17.5678 6.4081 17.1354 5.69238ZM8.86845 2.53247C9.61857 2.41962 10.3814 2.41962 11.1315 2.53247L11.2487 1.76039C10.4209 1.63541 9.57903 1.63541 8.75126 1.76039L8.86845 2.53247ZM4.32157 16.9142L2.70829 17.2904L3.08459 15.6773L2.32417 15.4989L1.94787 17.1121C1.88625 17.3752 1.96501 17.6515 2.15612 17.8426C2.34722 18.0337 2.62353 18.1124 2.88667 18.0508L4.49865 17.681L4.32157 16.9142ZM2.48693 14.8024L3.24735 14.9794L3.50777 13.861C3.12819 13.2231 2.84517 12.5325 2.66792 11.8117L1.91011 11.9992C2.07999 12.6896 2.3382 13.3552 2.67834 13.9795L2.48693 14.8024ZM6.13277 16.4949L5.01428 16.7553L5.19136 17.5157L6.01428 17.3243C6.63867 17.6644 7.30432 17.9226 7.99475 18.0925L8.18225 17.3347C7.46289 17.1554 6.77402 16.8706 6.13798 16.4897L6.13277 16.4949ZM9.99996 3.22903C7.53619 3.23031 5.26757 4.56969 4.07646 6.72624C2.88535 8.88279 2.95978 11.5161 4.27079 13.6019L3.61975 16.3791L6.39709 15.7281C8.83316 17.2623 11.9731 17.0883 14.2248 15.2944C16.4764 13.5005 17.3474 10.479 16.396 7.76202C15.4446 5.04499 12.8789 3.22666 9.99996 3.22903Z" fill="#3A76F0"/>
</svg>