<!--character:9350-->
<!--customColor:true-->
<svg width="24" height="24" viewBox="0 0 24 24" fill="none" xmlns="http://www.w3.org/2000/svg">
<path d="M9.59995 2.29215L9.82495 3.20145C8.93984 3.41911 8.09276 3.7694 7.31245 4.24043L6.8312 3.43737C7.6911 2.91824 8.62457 2.53214 9.59995 2.29215ZM14.4 2.29215L14.175 3.20145C15.0601 3.41911 15.9071 3.7694 16.6875 4.24043L17.1718 3.43737C16.311 2.91795 15.3764 2.53184 14.4 2.29215ZM3.43745 6.83086C2.91828 7.69069 2.53214 8.62409 2.29213 9.59939L3.20151 9.82438C3.41918 8.93934 3.7695 8.09232 4.24057 7.31207L3.43745 6.83086ZM2.93745 11.9992C2.93714 11.5447 2.97109 11.0909 3.03901 10.6415L2.11245 10.5009C1.96245 11.4941 1.96245 12.5043 2.11245 13.4975L3.03901 13.3569C2.97109 12.9075 2.93714 12.4537 2.93745 11.9992ZM17.1687 20.561L16.6875 19.758C15.9081 20.2287 15.0621 20.579 14.1781 20.797L14.4031 21.7063C15.3774 21.466 16.3098 21.0799 17.1687 20.561ZM21.0625 11.9992C21.0628 12.4537 21.0288 12.9075 20.9609 13.3569L21.8875 13.4975C22.0374 12.5043 22.0374 11.4941 21.8875 10.5009L20.9609 10.6415C21.0288 11.0909 21.0628 11.5447 21.0625 11.9992ZM21.7078 14.399L20.7984 14.174C20.5807 15.0591 20.2304 15.9061 19.7593 16.6863L20.5625 17.1707C21.0819 16.3099 21.4681 15.3754 21.7078 14.399ZM13.3578 20.961C12.4576 21.0964 11.5423 21.0964 10.6421 20.961L10.5015 21.8875C11.4948 22.0375 12.5051 22.0375 13.4984 21.8875L13.3578 20.961ZM19.2953 17.3754C18.7548 18.1073 18.1074 18.7541 17.375 19.294L17.9312 20.0486C18.7392 19.4545 19.4535 18.7425 20.05 17.9362L19.2953 17.3754ZM17.375 4.70446C18.1076 5.24481 18.7549 5.89208 19.2953 6.62462L20.05 6.06217C19.4554 5.25641 18.7433 4.54438 17.9375 3.94983L17.375 4.70446ZM4.70463 6.62462C5.24503 5.89208 5.89235 5.24481 6.62495 4.70446L6.06245 3.94983C5.25663 4.54438 4.54454 5.25641 3.94995 6.06217L4.70463 6.62462ZM20.5625 6.83086L19.7593 7.31207C20.2301 8.09135 20.5804 8.93729 20.7984 9.82125L21.7078 9.59627C21.4675 8.62205 21.0813 7.68972 20.5625 6.83086ZM10.6421 3.03896C11.5423 2.90355 12.4576 2.90355 13.3578 3.03896L13.4984 2.11247C12.5051 1.96249 11.4948 1.96249 10.5015 2.11247L10.6421 3.03896ZM5.18588 20.297L3.24995 20.7485L3.70151 18.8127L2.78901 18.5987L2.33745 20.5345C2.2635 20.8502 2.35801 21.1818 2.58734 21.4111C2.81667 21.6404 3.14823 21.7349 3.46401 21.661L5.39838 21.2172L5.18588 20.297ZM2.98432 17.7628L3.89682 17.9753L4.20932 16.6332C3.75383 15.8677 3.41421 15.039 3.20151 14.174L2.29213 14.399C2.49599 15.2275 2.80584 16.0262 3.21401 16.7754L2.98432 17.7628ZM7.35932 19.7939L6.01714 20.1064L6.22964 21.0188L7.21714 20.7891C7.9664 21.1973 8.76518 21.5071 9.5937 21.711L9.8187 20.8016C8.95547 20.5864 8.12882 20.2447 7.36557 19.7877L7.35932 19.7939ZM11.9999 3.87483C9.04343 3.87637 6.32108 5.48363 4.89175 8.07149C3.46242 10.6593 3.55173 13.8193 5.12495 16.3223L4.3437 19.6549L7.67651 18.8737C10.5998 20.7147 14.3677 20.506 17.0697 18.3533C19.7717 16.2007 20.8168 12.5749 19.6752 9.31442C18.5335 6.05399 15.4547 3.87199 11.9999 3.87483Z" fill="#3A76F0"/>
</svg>