<!--character:2124:1014-->
<!--customColor:true-->
<svg width="24" height="24" viewBox="0 0 24 24" fill="none" xmlns="http://www.w3.org/2000/svg">
<path d="M12 22C17.5228 22 22 17.5228 22 12C22 6.47715 17.5228 2 12 2C6.47715 2 2 6.47715 2 12C2 17.5228 6.47715 22 12 22Z" fill="url(#paint0_linear_2124_1014)"/>
<path fill-rule="evenodd" clip-rule="evenodd" d="M6.52657 11.8944C9.44177 10.6243 11.3857 9.787 12.3583 9.38244C15.1354 8.22735 15.7125 8.0267 16.0886 8.02007C16.1714 8.01861 16.3563 8.03911 16.4761 8.13633C16.5773 8.21842 16.6051 8.32932 16.6184 8.40715C16.6318 8.48498 16.6484 8.66228 16.6352 8.80081C16.4847 10.382 15.8335 14.2193 15.5022 15.9903C15.362 16.7397 15.086 16.991 14.8188 17.0155C14.2381 17.069 13.7971 16.6318 13.2347 16.2631C12.3545 15.6861 11.8573 15.327 11.003 14.764C10.0157 14.1134 10.6557 13.7558 11.2184 13.1714C11.3656 13.0184 13.9243 10.6911 13.9738 10.48C13.98 10.4536 13.9858 10.3552 13.9273 10.3032C13.8688 10.2512 13.7825 10.269 13.7202 10.2831C13.632 10.3032 12.226 11.2325 9.50219 13.0711C9.1031 13.3452 8.74161 13.4787 8.41773 13.4717C8.06068 13.464 7.37385 13.2698 6.86327 13.1038C6.23702 12.9003 5.73929 12.7926 5.78263 12.4469C5.80521 12.2669 6.05318 12.0827 6.52657 11.8944Z" fill="white"/>
<defs>
<linearGradient id="paint0_linear_2124_1014" x1="12" y1="2" x2="12" y2="21.8517" gradientUnits="userSpaceOnUse">
<stop stop-color="#2AABEE"/>
<stop offset="1" stop-color="#229ED9"/>
</linearGradient>
</defs>
</svg>