<!--character:7993-->
  <svg width="20" height="20" viewBox="0 0 20 20" >
<path d="M15.2085 1.66666C14.4086 1.66666 13.609 1.97213 12.9989 2.58222L10.7121 4.86908L10.491 4.64799C10.4263 4.58147 10.3489 4.52859 10.2634 4.49248C10.1779 4.45637 10.086 4.43776 9.9932 4.43775C9.85505 4.43779 9.72004 4.47903 9.60545 4.55619C9.49086 4.63336 9.40188 4.74294 9.34989 4.87094C9.29791 4.99894 9.28528 5.13953 9.31361 5.27475C9.34195 5.40996 9.40997 5.53366 9.50897 5.63001L9.71243 5.83347L3.95323 11.5927C3.136 12.4099 2.90203 13.3044 2.72842 13.9989C2.5548 14.6934 2.44153 15.1878 1.86983 15.7595C1.73964 15.8897 1.6665 16.0663 1.6665 16.2505C1.6665 16.4346 1.73964 16.6113 1.86983 16.7415L3.25876 18.1304C3.38901 18.2606 3.56562 18.3338 3.74977 18.3338C3.93393 18.3338 4.11054 18.2606 4.24078 18.1304C4.81249 17.5587 5.3069 17.4455 6.00137 17.2718C6.69584 17.0982 7.59036 16.8643 8.40759 16.047L14.1668 10.2878L14.3702 10.4913C14.4342 10.5579 14.5109 10.6111 14.5957 10.6478C14.6805 10.6845 14.7718 10.7038 14.8642 10.7048C14.9566 10.7057 15.0482 10.6882 15.1338 10.6533C15.2193 10.6184 15.297 10.5667 15.3624 10.5014C15.4277 10.436 15.4793 10.3583 15.5143 10.2728C15.5492 10.1872 15.5667 10.0956 15.5658 10.0032C15.5648 9.91081 15.5454 9.81953 15.5088 9.73472C15.4721 9.64991 15.4189 9.57326 15.3523 9.50927L15.1312 9.28818L17.418 7.00132C18.6382 5.78114 18.6382 3.8024 17.418 2.58222C16.8079 1.97213 16.0083 1.66666 15.2085 1.66666ZM10.6944 6.81549L13.1848 9.30581L7.42557 15.065C6.85387 15.6367 6.35945 15.75 5.66498 15.9236C5.13269 16.0567 4.48442 16.3103 3.84201 16.7496L3.25062 16.1583C3.68995 15.5158 3.94359 14.8676 4.07666 14.3353C4.25028 13.6408 4.36355 13.1464 4.93525 12.5747L10.6944 6.81549Z" />
</svg>