<!--character:7152-->
<!--customColor:true-->
<svg width="24" height="24" viewBox="0 0 24 24" fill="none" xmlns="http://www.w3.org/2000/svg">
<path fill-rule="evenodd" clip-rule="evenodd" d="M12 2.39993C6.59205 2.39993 2.4 6.36129 2.4 11.712C2.4 14.5107 3.54701 16.9292 5.41495 18.5996C5.57176 18.74 5.66642 18.9366 5.67285 19.147L5.72513 20.8547C5.74183 21.3994 6.30447 21.7538 6.80291 21.5338L8.70838 20.6926C8.86991 20.6214 9.05091 20.6081 9.22112 20.655C10.0967 20.8958 11.0287 21.024 12 21.024C17.408 21.024 21.6001 17.0627 21.6001 11.712C21.6001 6.36129 17.408 2.39993 12 2.39993Z" fill="url(#paint0_radial_1907_1195)"/>
<path fill-rule="evenodd" clip-rule="evenodd" d="M6.23526 14.4352L9.05527 9.96123C9.50384 9.24948 10.4644 9.07227 11.1375 9.57704L13.3804 11.2592C13.5862 11.4136 13.8693 11.4128 14.0742 11.2572L17.1034 8.95831C17.5077 8.6515 18.0354 9.13534 17.7649 9.56471L14.9449 14.0388C14.4963 14.7505 13.5357 14.9277 12.8626 14.4229L10.6197 12.7407C10.4139 12.5864 10.1308 12.5872 9.92586 12.7427L6.8967 15.0416C6.4924 15.3484 5.96463 14.8646 6.23526 14.4352Z" fill="white"/>
<defs>
<radialGradient id="paint0_radial_1907_1195" cx="0" cy="0" r="1" gradientUnits="userSpaceOnUse" gradientTransform="translate(6.09553 21.4973) scale(20.9203 20.9203)">
<stop stop-color="#0099FF"/>
<stop offset="0.609754" stop-color="#A033FF"/>
<stop offset="0.934823" stop-color="#FF5280"/>
<stop offset="1" stop-color="#FF7061"/>
</radialGradient>
</defs>
</svg>