<!--character:8156-->
<!--customColor:true-->
<svg width="20" height="20" viewBox="0 0 20 20" fill="none" xmlns="http://www.w3.org/2000/svg">
<path d="M9.99996 18.3333C14.6023 18.3333 18.3333 14.6024 18.3333 9.99999C18.3333 5.39762 14.6023 1.66666 9.99996 1.66666C5.39759 1.66666 1.66663 5.39762 1.66663 9.99999C1.66663 14.6024 5.39759 18.3333 9.99996 18.3333Z" fill="url(#paint0_linear_2124_1010)"/>
<path fill-rule="evenodd" clip-rule="evenodd" d="M5.43877 9.91202C7.8681 8.8536 9.48804 8.15582 10.2986 7.81869C12.6128 6.85611 13.0937 6.6889 13.4071 6.68338C13.4761 6.68217 13.6302 6.69925 13.7301 6.78027C13.8144 6.84868 13.8376 6.94109 13.8487 7.00595C13.8598 7.0708 13.8736 7.21855 13.8626 7.334C13.7372 8.6517 13.1945 11.8494 12.9185 13.3252C12.8017 13.9497 12.5716 14.1591 12.349 14.1796C11.865 14.2241 11.4976 13.8598 11.0288 13.5525C10.2954 13.0718 9.88106 12.7725 9.16913 12.3033C8.34637 11.7611 8.87973 11.4631 9.34862 10.9761C9.47133 10.8487 11.6035 8.90926 11.6448 8.73333C11.65 8.71133 11.6548 8.62931 11.606 8.586C11.5573 8.54269 11.4854 8.5575 11.4335 8.56928C11.3599 8.58597 10.1883 9.36041 7.91845 10.8926C7.58587 11.121 7.28463 11.2322 7.01473 11.2264C6.71719 11.22 6.14484 11.0582 5.71935 10.9199C5.19748 10.7502 4.7827 10.6605 4.81882 10.3724C4.83763 10.2224 5.04428 10.0689 5.43877 9.91202Z" fill="white"/>
<defs>
<linearGradient id="paint0_linear_2124_1010" x1="9.99996" y1="1.66666" x2="9.99996" y2="18.2097" gradientUnits="userSpaceOnUse">
<stop stop-color="#2AABEE"/>
<stop offset="1" stop-color="#229ED9"/>
</linearGradient>
</defs>
</svg>