<!--character:7822-->
<!--customColor:true-->
<svg width="24" height="24" viewBox="0 0 24 24" fill="none" xmlns="http://www.w3.org/2000/svg">
<path d="M20.0792 3.14584C19.5325 2.64139 17.3232 1.03758 12.4021 1.01579C12.4021 1.01579 6.59898 0.665845 3.77003 3.26073C2.19527 4.83582 1.6413 7.14051 1.58286 9.99786C1.52443 12.8552 1.44883 18.21 6.61053 19.662H6.61548L6.61218 21.8775C6.61218 21.8775 6.57917 22.7745 7.16979 22.9574C7.8842 23.1793 8.30348 22.4975 8.98554 21.7626C9.35992 21.3592 9.87692 20.7666 10.2665 20.3137C13.7966 20.6108 16.5117 19.9317 16.82 19.8313C17.5328 19.6002 21.5661 19.0836 22.2221 13.7291C22.8992 8.21016 21.8946 4.71928 20.0792 3.14584Z" fill="white"/>
<path d="M18.9313 4.26072C18.4691 3.84078 16.4741 2.58725 12.3114 2.56909C12.3114 2.56909 7.38206 2.24522 4.98923 4.41258C3.65745 5.72752 3.20879 7.68293 3.1596 10.0692C3.11041 12.4554 2.85554 17.0139 7.2203 18.2265C7.2203 18.2265 7.20313 21.6108 7.20115 21.9082C7.20115 22.1162 7.23416 22.2585 7.35301 22.2879C7.43852 22.3087 7.56661 22.2645 7.67556 22.1558C8.37347 21.455 10.6078 18.7594 10.6078 18.7594C13.6058 18.9552 15.9911 18.3632 16.2476 18.2794C16.8524 18.0849 20.1237 17.804 20.6774 13.3319C21.2495 8.7222 20.4671 5.57566 18.9313 4.26072Z" fill="#7360F2"/>
<path fill-rule="evenodd" clip-rule="evenodd" d="M11.5735 5.2142C11.5746 5.0605 11.7 4.93677 11.8537 4.93784C13.4688 4.94909 14.834 5.48677 15.9301 6.5553C17.0354 7.63276 17.582 9.09962 17.5959 10.9214C17.597 11.0751 17.4734 11.2007 17.3197 11.2019C17.166 11.203 17.0404 11.0794 17.0393 10.9257C17.0263 9.21854 16.5184 7.90609 15.5416 6.95386C14.5556 5.9927 13.3315 5.50476 11.8499 5.49444C11.6962 5.49337 11.5724 5.3679 11.5735 5.2142ZM12.0648 6.63952C12.076 6.48622 12.2094 6.37105 12.3627 6.38227C13.5314 6.4678 14.4721 6.86713 15.1573 7.6151C15.8351 8.35571 16.1573 9.27713 16.134 10.3578C16.1306 10.5115 16.0034 10.6333 15.8497 10.63C15.696 10.6267 15.5741 10.4994 15.5775 10.3457C15.5981 9.39274 15.3178 8.61495 14.7468 7.99099C14.1775 7.36961 13.3817 7.01495 12.3221 6.93739C12.1688 6.92618 12.0536 6.79281 12.0648 6.63952ZM12.4867 8.13887C12.4947 7.98538 12.6256 7.86744 12.7791 7.87545C13.3534 7.90541 13.8312 8.07924 14.1715 8.43108C14.5105 8.78158 14.6767 9.27122 14.7058 9.85927C14.7135 10.0128 14.5952 10.1434 14.4417 10.151C14.2881 10.1586 14.1575 10.0404 14.1499 9.88685C14.1249 9.38347 13.9868 9.04078 13.7714 8.81804C13.5573 8.59666 13.2305 8.45636 12.7501 8.4313C12.5966 8.42329 12.4787 8.29237 12.4867 8.13887Z" fill="white"/>
<path d="M12.8198 13.6006C12.8198 13.6006 13.211 13.6337 13.4216 13.3742L13.8323 12.8575C14.0304 12.6013 14.5084 12.4379 14.9766 12.6987C15.3274 12.8988 15.6679 13.1163 15.997 13.3504C16.3077 13.5789 16.9438 14.1097 16.9458 14.1097C17.2489 14.3656 17.3189 14.7413 17.1126 15.1374C17.1126 15.1398 17.1109 15.1437 17.1109 15.1457C16.8836 15.5397 16.5951 15.8949 16.2562 16.1982C16.2522 16.2002 16.2522 16.2021 16.2486 16.2041C15.9541 16.4502 15.6648 16.59 15.3806 16.6237C15.3388 16.631 15.2963 16.6337 15.2539 16.6316C15.1286 16.6329 15.0039 16.6137 14.8848 16.5749L14.8755 16.5613C14.4378 16.4379 13.7068 16.1288 12.4896 15.4573C11.7852 15.0733 11.1146 14.6304 10.485 14.1332C10.1694 13.8841 9.86842 13.6171 9.58342 13.3336L9.49231 13.2425C9.48207 13.2325 9.47217 13.2223 9.46193 13.2121C9.17838 12.9271 8.91141 12.6261 8.66234 12.3105C8.16522 11.6809 7.72224 11.0104 7.33816 10.3062C6.66666 9.08866 6.35765 8.35839 6.23418 7.91997L6.22064 7.91072C6.18194 7.79157 6.16287 7.66691 6.16419 7.54163C6.16188 7.49922 6.16442 7.45669 6.17178 7.41486C6.20721 7.13116 6.3473 6.84163 6.59204 6.54626C6.59403 6.54263 6.59601 6.54263 6.59799 6.53867C6.90115 6.19972 7.25644 5.9113 7.65047 5.68427C7.65245 5.68427 7.65641 5.68229 7.65872 5.68229C8.05489 5.47596 8.43058 5.54594 8.68611 5.84736C8.68809 5.84934 9.21796 6.48552 9.44543 6.79618C9.67957 7.12557 9.89708 7.46648 10.0971 7.81762C10.3579 8.28543 10.1945 8.76446 9.93832 8.96188L9.42166 9.37257C9.16085 9.5832 9.19518 9.97441 9.19518 9.97441C9.19518 9.97441 9.96044 12.8707 12.8198 13.6006Z" fill="white"/>
</svg>