<!--character:6742-->
<!--customColor:true-->
<svg width="24" height="24" viewBox="0 0 24 24" fill="none" xmlns="http://www.w3.org/2000/svg">
<path d="M20.0793 3.14584C19.5326 2.64139 17.3233 1.03758 12.4023 1.01579C12.4023 1.01579 6.5991 0.665845 3.77015 3.26073C2.19539 4.83582 1.64142 7.14051 1.58298 9.99786C1.52455 12.8552 1.44895 18.21 6.61065 19.662H6.61561L6.6123 21.8775C6.6123 21.8775 6.57929 22.7745 7.16991 22.9574C7.88433 23.1793 8.3036 22.4975 8.98567 21.7626C9.36004 21.3592 9.87704 20.7666 10.2666 20.3137C13.7968 20.6108 16.5118 19.9317 16.8202 19.8313C17.5329 19.6002 21.5662 19.0836 22.2222 13.7291C22.8993 8.21016 21.8947 4.71928 20.0793 3.14584Z" fill="white"/>
<path d="M18.9314 4.26072C18.4692 3.84078 16.4742 2.58725 12.3115 2.56909C12.3115 2.56909 7.38219 2.24522 4.98935 4.41258C3.65757 5.72752 3.20891 7.68293 3.15972 10.0692C3.11053 12.4554 2.85567 17.0139 7.22042 18.2265C7.22042 18.2265 7.20325 21.6108 7.20127 21.9082C7.20127 22.1162 7.23429 22.2585 7.35313 22.2879C7.43864 22.3087 7.56673 22.2645 7.67568 22.1558C8.37359 21.455 10.608 18.7594 10.608 18.7594C13.6059 18.9552 15.9912 18.3632 16.2477 18.2794C16.8525 18.0849 20.1239 17.804 20.6775 13.3319C21.2496 8.7222 20.4672 5.57566 18.9314 4.26072Z" fill="#7360F2"/>
<path fill-rule="evenodd" clip-rule="evenodd" d="M11.5736 5.2142C11.5747 5.0605 11.7002 4.93677 11.8539 4.93784C13.469 4.94909 14.8342 5.48677 15.9303 6.5553C17.0355 7.63276 17.5821 9.09962 17.596 10.9214C17.5972 11.0751 17.4735 11.2007 17.3198 11.2019C17.1661 11.203 17.0406 11.0794 17.0394 10.9257C17.0264 9.21854 16.5185 7.90609 15.5417 6.95386C14.5558 5.9927 13.3316 5.50476 11.85 5.49444C11.6963 5.49337 11.5726 5.3679 11.5736 5.2142ZM12.0649 6.63952C12.0762 6.48622 12.2095 6.37105 12.3628 6.38227C13.5315 6.4678 14.4722 6.86713 15.1575 7.6151C15.8352 8.35571 16.1575 9.27713 16.1341 10.3578C16.1308 10.5115 16.0035 10.6333 15.8498 10.63C15.6961 10.6267 15.5743 10.4994 15.5776 10.3457C15.5982 9.39274 15.318 8.61495 14.7469 7.99099C14.1776 7.36961 13.3818 7.01495 12.3222 6.93739C12.1689 6.92618 12.0537 6.79281 12.0649 6.63952ZM12.4868 8.13887C12.4948 7.98538 12.6258 7.86744 12.7793 7.87545C13.3535 7.90541 13.8313 8.07924 14.1716 8.43108C14.5106 8.78158 14.6768 9.27122 14.706 9.85927C14.7136 10.0128 14.5953 10.1434 14.4418 10.151C14.2883 10.1586 14.1576 10.0404 14.15 9.88685C14.1251 9.38347 13.987 9.04078 13.7715 8.81804C13.5574 8.59666 13.2307 8.45636 12.7503 8.4313C12.5968 8.42329 12.4788 8.29237 12.4868 8.13887Z" fill="white"/>
<path d="M12.8199 13.6006C12.8199 13.6006 13.2111 13.6337 13.4217 13.3742L13.8324 12.8575C14.0305 12.6013 14.5085 12.4379 14.9767 12.6987C15.3275 12.8988 15.6681 13.1163 15.9971 13.3504C16.3078 13.5789 16.944 14.1097 16.946 14.1097C17.249 14.3656 17.319 14.7413 17.1127 15.1374C17.1127 15.1398 17.111 15.1437 17.111 15.1457C16.8838 15.5397 16.5952 15.8949 16.2563 16.1982C16.2523 16.2002 16.2523 16.2021 16.2487 16.2041C15.9542 16.4502 15.6649 16.59 15.3808 16.6237C15.3389 16.631 15.2964 16.6337 15.254 16.6316C15.1287 16.6329 15.004 16.6137 14.8849 16.5749L14.8757 16.5613C14.4379 16.4379 13.707 16.1288 12.4898 15.4573C11.7854 15.0733 11.1148 14.6304 10.4852 14.1332C10.1696 13.8841 9.86854 13.6171 9.58355 13.3336L9.49243 13.2425C9.48219 13.2325 9.47229 13.2223 9.46206 13.2121C9.1785 12.9271 8.91153 12.6261 8.66246 12.3105C8.16534 11.6809 7.72237 11.0104 7.33828 10.3062C6.66678 9.08866 6.35777 8.35839 6.2343 7.91997L6.22076 7.91072C6.18206 7.79157 6.16299 7.66691 6.16431 7.54163C6.162 7.49922 6.16454 7.45669 6.1719 7.41486C6.20734 7.13116 6.34742 6.84163 6.59217 6.54626C6.59415 6.54263 6.59613 6.54263 6.59811 6.53867C6.90128 6.19972 7.25656 5.9113 7.65059 5.68427C7.65257 5.68427 7.65653 5.68229 7.65884 5.68229C8.05501 5.47596 8.43071 5.54594 8.68623 5.84736C8.68821 5.84934 9.21808 6.48552 9.44555 6.79618C9.6797 7.12557 9.8972 7.46648 10.0972 7.81762C10.3581 8.28543 10.1946 8.76446 9.93845 8.96188L9.42178 9.37257C9.16097 9.5832 9.1953 9.97441 9.1953 9.97441C9.1953 9.97441 9.96056 12.8707 12.8199 13.6006Z" fill="white"/>
</svg>