<!--character:9052-->
<!--customColor:true-->
<svg width="24" height="24" viewBox="0 0 24 24" fill="none" xmlns="http://www.w3.org/2000/svg">
<path d="M17.2036 2.7H6.79643C4.53403 2.7 2.7 4.53404 2.7 6.79643V17.2036C2.7 19.466 4.53403 21.3 6.79643 21.3H17.2036C19.466 21.3 21.3 19.466 21.3 17.2036V6.79643C21.3 4.53404 19.466 2.7 17.2036 2.7Z" fill="url(#paint0_linear_1907_1218)"/>
<path d="M12 5.91984C10.1894 5.91985 8.45294 6.51895 7.17265 7.58534C5.89235 8.65174 5.17309 10.0981 5.17307 11.6062C5.17472 12.5872 5.48101 13.5511 6.06217 14.4043C6.64333 15.2575 7.47959 15.9709 8.48969 16.4753C8.22066 17.0776 7.81718 17.6424 7.29594 18.1463C8.30674 17.9688 9.25559 17.5961 10.0687 17.057C10.6956 17.2122 11.346 17.2915 12 17.2926C13.8106 17.2926 15.5471 16.6935 16.8274 15.6271C18.1076 14.5607 18.8269 13.1143 18.8269 11.6062C18.8269 10.0981 18.1076 8.65174 16.8274 7.58534C15.5471 6.51895 13.8106 5.91985 12 5.91984Z" fill="white"/>
<defs>
<linearGradient id="paint0_linear_1907_1218" x1="12.1476" y1="20.0653" x2="12.1476" y2="5.00835" gradientUnits="userSpaceOnUse">
<stop stop-color="#0CBD2A"/>
<stop offset="1" stop-color="#5BF675"/>
</linearGradient>
</defs>
</svg>