<!--character:7140-->
<!--customColor:true-->
<svg width="20" height="20" viewBox="0 0 20 20" fill="none" xmlns="http://www.w3.org/2000/svg">
<path d="M2.28571 17.7143L5.71429 16.7714C6.94286 17.5429 8.42857 18 10 18C14.4286 18 18 14.4286 18 10C18 5.57143 14.4286 2 10 2C5.57143 2 2 5.57143 2 10C2 11.5714 2.45714 13.0571 3.22857 14.2857L2.28571 17.7143Z" fill="#25D366"/>
<path fill-rule="evenodd" clip-rule="evenodd" d="M1.02248 9.98876C1.02248 5.01379 5.03627 1 10.0112 1C14.9862 1 19 5.01379 19 9.98876C19 14.9637 14.9862 18.9775 10.0112 18.9775C8.36645 18.9775 6.80489 18.5314 5.48136 17.7676L1 19L2.23237 14.5186C1.46855 13.1951 1.02248 11.6335 1.02248 9.98876ZM10.0112 2.47357C5.8501 2.47357 2.49605 5.82761 2.49605 9.98876C2.49605 11.4672 2.9264 12.8644 3.65051 14.0177L3.82291 14.2922L3.10796 16.892L5.70778 16.1771L5.98234 16.3495C7.13556 17.0736 8.53282 17.504 10.0112 17.504C14.1724 17.504 17.5264 14.1499 17.5264 9.98876C17.5264 5.82761 14.1724 2.47357 10.0112 2.47357Z" fill="white"/>
<path d="M14.1077 12.2286C13.5478 13.4074 12.5163 13.5548 12.5163 13.5548C11.6321 13.7316 10.5122 13.3485 9.62807 12.9359C8.36081 12.3464 7.27037 11.4034 6.53358 10.195C6.2094 9.63507 5.91469 8.9867 5.88521 8.36781C5.88521 8.36781 5.76733 7.33631 6.76935 6.51111C6.85777 6.45217 6.94618 6.4227 7.06407 6.4227H7.50614C7.68297 6.4227 7.85979 6.54058 7.91874 6.71741L8.59658 8.36781C8.65552 8.54463 8.62605 8.72146 8.50816 8.86882L8.06609 9.34036C7.91874 9.48772 7.91874 9.69402 8.00715 9.87084C8.03662 9.92979 8.09556 10.0182 8.18398 10.1066C8.71446 10.8139 9.42177 11.3444 10.2175 11.6981C10.3354 11.757 10.4238 11.7865 10.5122 11.816C10.7185 11.8749 10.8953 11.7865 11.0132 11.6391L11.3669 11.1086C11.4553 10.9613 11.6321 10.8729 11.809 10.9023L13.5772 11.1676C13.7541 11.1971 13.9014 11.3444 13.9604 11.5212L14.0782 11.9633C14.1372 12.0223 14.1372 12.1401 14.1077 12.2286Z" fill="white"/>
</svg>