<!--character:8988-->
<!--customColor:true-->
<svg width="24" height="24" viewBox="0 0 24 24" fill="none" xmlns="http://www.w3.org/2000/svg">
<path fill-rule="evenodd" clip-rule="evenodd" d="M21.6 12C21.6 6.69806 17.3019 2.4 12 2.4C6.69806 2.4 2.4 6.69806 2.4 12C2.4 16.7916 5.91058 20.7632 10.5 21.4834V14.775H8.0625V12H10.5V9.885C10.5 7.479 11.9332 6.15 14.1261 6.15C15.1764 6.15 16.275 6.3375 16.275 6.3375V8.7H15.0645C13.8719 8.7 13.5 9.44001 13.5 10.1992V12H16.1625L15.7369 14.775H13.5V21.4834C18.0894 20.7632 21.6 16.7916 21.6 12Z" fill="#1877F2"/>
<path fill-rule="evenodd" clip-rule="evenodd" d="M15.7369 14.775L16.1625 12H13.5V10.1992C13.5 9.44001 13.8719 8.7 15.0645 8.7H16.275V6.3375C16.275 6.3375 15.1764 6.15 14.1261 6.15C11.9332 6.15 10.5 7.479 10.5 9.885V12H8.0625V14.775H10.5V21.4834C10.9888 21.5601 11.4897 21.6 12 21.6C12.5103 21.6 13.0112 21.5601 13.5 21.4834V14.775H15.7369Z" fill="white"/>
</svg>