<!-- character:279:85 -->
  <svg width="20" height="20" viewBox="0 0 20 20" >
<path d="M15.2087 1.66675C14.4088 1.66675 13.6092 1.97222 12.9991 2.58231L10.7123 4.86917L10.4912 4.64808C10.4265 4.58155 10.3491 4.52867 10.2636 4.49256C10.1781 4.45645 10.0862 4.43784 9.99338 4.43784C9.85523 4.43787 9.72023 4.47911 9.60563 4.55627C9.49104 4.63344 9.40206 4.74303 9.35008 4.87103C9.29809 4.99902 9.28546 5.13962 9.3138 5.27483C9.34213 5.41005 9.41015 5.53374 9.50915 5.6301L9.71261 5.83355L3.95341 11.5928C3.13618 12.41 2.90222 13.3045 2.7286 13.999C2.55498 14.6934 2.44171 15.1879 1.87001 15.7596C1.73982 15.8898 1.66669 16.0664 1.66669 16.2506C1.66669 16.4347 1.73982 16.6113 1.87001 16.7416L3.25895 18.1305C3.38919 18.2607 3.5658 18.3338 3.74996 18.3338C3.93411 18.3338 4.11072 18.2607 4.24097 18.1305C4.81267 17.5588 5.30708 17.4455 6.00155 17.2719C6.69602 17.0983 7.59054 16.8643 8.40777 16.0471L14.167 10.2879L14.3704 10.4914C14.4344 10.558 14.5111 10.6112 14.5959 10.6479C14.6807 10.6846 14.772 10.7039 14.8644 10.7049C14.9568 10.7058 15.0484 10.6883 15.134 10.6534C15.2195 10.6184 15.2972 10.5668 15.3625 10.5015C15.4279 10.4361 15.4795 10.3584 15.5144 10.2729C15.5494 10.1873 15.5669 10.0957 15.5659 10.0033C15.565 9.91089 15.5456 9.81962 15.509 9.7348C15.4723 9.64999 15.4191 9.57334 15.3524 9.50935L15.1314 9.28826L17.4182 7.0014C18.6384 5.78122 18.6384 3.80249 17.4182 2.58231C16.8081 1.97222 16.0085 1.66675 15.2087 1.66675ZM10.6946 6.81557L13.185 9.30589L7.42575 15.0651C6.85405 15.6368 6.35964 15.7501 5.66517 15.9237C5.13288 16.0568 4.4846 16.3104 3.84219 16.7497L3.25081 16.1583C3.69013 15.5159 3.94377 14.8676 4.07684 14.3354C4.25046 13.6409 4.36373 13.1465 4.93543 12.5748L10.6946 6.81557Z" />
</svg>