<!--character:4623-->
<!--customColor:true-->
<svg width="24" height="24" viewBox="0 0 24 24" fill="none" xmlns="http://www.w3.org/2000/svg">
<path d="M9.59995 2.29211L9.82495 3.20141C8.93984 3.41907 8.09276 3.76936 7.31245 4.2404L6.8312 3.43733C7.6911 2.91821 8.62457 2.5321 9.59995 2.29211ZM14.4 2.29211L14.175 3.20141C15.0601 3.41907 15.9071 3.76936 16.6875 4.2404L17.1718 3.43733C16.311 2.91792 15.3764 2.5318 14.4 2.29211ZM3.43745 6.83082C2.91828 7.69065 2.53214 8.62405 2.29213 9.59936L3.20151 9.82434C3.41918 8.9393 3.7695 8.09228 4.24057 7.31203L3.43745 6.83082ZM2.93745 11.9992C2.93714 11.5447 2.97109 11.0908 3.03901 10.6415L2.11245 10.5008C1.96245 11.4941 1.96245 12.5042 2.11245 13.4975L3.03901 13.3569C2.97109 12.9075 2.93714 12.4536 2.93745 11.9992ZM17.1687 20.561L16.6875 19.7579C15.9081 20.2287 15.0621 20.579 14.1781 20.7969L14.4031 21.7062C15.3774 21.4659 16.3098 21.0798 17.1687 20.561ZM21.0625 11.9992C21.0628 12.4536 21.0288 12.9075 20.9609 13.3569L21.8875 13.4975C22.0374 12.5042 22.0374 11.4941 21.8875 10.5008L20.9609 10.6415C21.0288 11.0908 21.0628 11.5447 21.0625 11.9992ZM21.7078 14.399L20.7984 14.174C20.5807 15.059 20.2304 15.9061 19.7593 16.6863L20.5625 17.1706C21.0819 16.3098 21.4681 15.3754 21.7078 14.399ZM13.3578 20.961C12.4576 21.0964 11.5423 21.0964 10.6421 20.961L10.5015 21.8875C11.4948 22.0374 12.5051 22.0374 13.4984 21.8875L13.3578 20.961ZM19.2953 17.3753C18.7548 18.1073 18.1074 18.754 17.375 19.2939L17.9312 20.0485C18.7392 19.4545 19.4535 18.7424 20.05 17.9362L19.2953 17.3753ZM17.375 4.70442C18.1076 5.24478 18.7549 5.89204 19.2953 6.62459L20.05 6.06213C19.4554 5.25637 18.7433 4.54434 17.9375 3.94979L17.375 4.70442ZM4.70463 6.62459C5.24503 5.89204 5.89235 5.24478 6.62495 4.70442L6.06245 3.94979C5.25663 4.54434 4.54454 5.25637 3.94995 6.06213L4.70463 6.62459ZM20.5625 6.83082L19.7593 7.31203C20.2301 8.09131 20.5804 8.93726 20.7984 9.82121L21.7078 9.59623C21.4675 8.62201 21.0813 7.68969 20.5625 6.83082ZM10.6421 3.03893C11.5423 2.90351 12.4576 2.90351 13.3578 3.03893L13.4984 2.11244C12.5051 1.96246 11.4948 1.96246 10.5015 2.11244L10.6421 3.03893ZM5.18588 20.297L3.24995 20.7485L3.70151 18.8127L2.78901 18.5987L2.33745 20.5344C2.2635 20.8502 2.35801 21.1817 2.58734 21.411C2.81667 21.6404 3.14823 21.7349 3.46401 21.6609L5.39838 21.2172L5.18588 20.297ZM2.98432 17.7628L3.89682 17.9753L4.20932 16.6332C3.75383 15.8677 3.41421 15.039 3.20151 14.174L2.29213 14.399C2.49599 15.2274 2.80584 16.0262 3.21401 16.7754L2.98432 17.7628ZM7.35932 19.7939L6.01714 20.1064L6.22964 21.0188L7.21714 20.7891C7.9664 21.1972 8.76518 21.5071 9.5937 21.7109L9.8187 20.8016C8.95547 20.5864 8.12882 20.2447 7.36557 19.7876L7.35932 19.7939ZM11.9999 3.8748C9.04343 3.87633 6.32108 5.48359 4.89175 8.07145C3.46242 10.6593 3.55173 13.8193 5.12495 16.3223L4.3437 19.6548L7.67651 18.8736C10.5998 20.7147 14.3677 20.5059 17.0697 18.3533C19.7717 16.2006 20.8168 12.5748 19.6752 9.31439C18.5335 6.05395 15.4547 3.87196 11.9999 3.8748Z" fill="#3A76F0"/>
</svg>