<!--character:5871-->
<!--customColor:true-->
<svg width="24" height="24" viewBox="0 0 24 24" fill="none" xmlns="http://www.w3.org/2000/svg">
<path d="M9.6 2.29216L9.825 3.20146C8.93989 3.41912 8.09281 3.76941 7.3125 4.24045L6.83125 3.43738C7.69115 2.91826 8.62462 2.53215 9.6 2.29216ZM14.4 2.29216L14.175 3.20146C15.0601 3.41912 15.9072 3.76941 16.6875 4.24045L17.1719 3.43738C16.311 2.91797 15.3765 2.53185 14.4 2.29216ZM3.43749 6.83087C2.91833 7.6907 2.53219 8.6241 2.29218 9.59941L3.20156 9.82439C3.41923 8.93935 3.76955 8.09233 4.24062 7.31208L3.43749 6.83087ZM2.93749 11.9992C2.93719 11.5447 2.97114 11.0909 3.03906 10.6415L2.11249 10.5009C1.9625 11.4941 1.9625 12.5043 2.11249 13.4975L3.03906 13.3569C2.97114 12.9076 2.93719 12.4537 2.93749 11.9992ZM17.1688 20.5611L16.6875 19.758C15.9082 20.2287 15.0622 20.579 14.1781 20.797L14.4031 21.7063C15.3774 21.466 16.3098 21.0799 17.1688 20.5611ZM21.0625 11.9992C21.0628 12.4537 21.0289 12.9076 20.9609 13.3569L21.8875 13.4975C22.0375 12.5043 22.0375 11.4941 21.8875 10.5009L20.9609 10.6415C21.0289 11.0909 21.0628 11.5447 21.0625 11.9992ZM21.7078 14.399L20.7984 14.1741C20.5808 15.0591 20.2305 15.9061 19.7594 16.6864L20.5625 17.1707C21.082 16.3099 21.4681 15.3754 21.7078 14.399ZM13.3578 20.961C12.4577 21.0964 11.5423 21.0964 10.6422 20.961L10.5016 21.8875C11.4949 22.0375 12.5051 22.0375 13.4984 21.8875L13.3578 20.961ZM19.2953 17.3754C18.7548 18.1074 18.1075 18.7541 17.375 19.294L17.9313 20.0486C18.7393 19.4545 19.4535 18.7425 20.05 17.9363L19.2953 17.3754ZM17.375 4.70447C18.1076 5.24483 18.7549 5.89209 19.2953 6.62464L20.05 6.06218C19.4554 5.25642 18.7433 4.54439 17.9375 3.94984L17.375 4.70447ZM4.70468 6.62464C5.24508 5.89209 5.8924 5.24483 6.625 4.70447L6.0625 3.94984C5.25668 4.54439 4.54459 5.25642 3.95 6.06218L4.70468 6.62464ZM20.5625 6.83087L19.7594 7.31208C20.2302 8.09136 20.5805 8.93731 20.7984 9.82126L21.7078 9.59628C21.4675 8.62206 21.0814 7.68973 20.5625 6.83087ZM10.6422 3.03898C11.5423 2.90356 12.4577 2.90356 13.3578 3.03898L13.4984 2.11249C12.5051 1.9625 11.4949 1.9625 10.5016 2.11249L10.6422 3.03898ZM5.18593 20.297L3.24999 20.7485L3.70156 18.8128L2.78906 18.5987L2.33749 20.5345C2.26355 20.8502 2.35806 21.1818 2.58739 21.4111C2.81672 21.6404 3.14828 21.7349 3.46406 21.661L5.39843 21.2173L5.18593 20.297ZM2.98437 17.7628L3.89687 17.9753L4.20937 16.6332C3.75388 15.8677 3.41426 15.039 3.20156 14.1741L2.29218 14.399C2.49604 15.2275 2.80589 16.0262 3.21406 16.7754L2.98437 17.7628ZM7.35937 19.7939L6.01718 20.1064L6.22968 21.0188L7.21718 20.7892C7.96645 21.1973 8.76523 21.5071 9.59375 21.711L9.81875 20.8017C8.95552 20.5864 8.12887 20.2447 7.36562 19.7877L7.35937 19.7939ZM12 3.87485C9.04348 3.87638 6.32113 5.48364 4.8918 8.0715C3.46247 10.6594 3.55178 13.8193 5.125 16.3223L4.34375 19.6549L7.67656 18.8737C10.5998 20.7147 14.3678 20.506 17.0698 18.3533C19.7718 16.2007 20.8169 12.5749 19.6752 9.31444C18.5336 6.054 15.4548 3.87201 12 3.87485Z" fill="#3A76F0"/>
</svg>