<!--character:4407-->
<!--customColor:true-->
<svg width="24" height="24" viewBox="0 0 24 24" fill="none" xmlns="http://www.w3.org/2000/svg">
<path fill-rule="evenodd" clip-rule="evenodd" d="M12 2.4C6.59205 2.4 2.4 6.36136 2.4 11.712C2.4 14.5108 3.54701 16.9292 5.41495 18.5997C5.57176 18.74 5.66642 18.9367 5.67285 19.1471L5.72513 20.8547C5.74183 21.3995 6.30447 21.7539 6.80291 21.5339L8.70838 20.6927C8.86991 20.6215 9.05091 20.6082 9.22112 20.6551C10.0967 20.8958 11.0287 21.0241 12 21.0241C17.408 21.0241 21.6001 17.0627 21.6001 11.712C21.6001 6.36136 17.408 2.4 12 2.4Z" fill="url(#paint0_radial_1907_1195)"/>
<path fill-rule="evenodd" clip-rule="evenodd" d="M6.23526 14.4353L9.05527 9.9613C9.50384 9.24956 10.4644 9.07234 11.1375 9.57711L13.3804 11.2593C13.5862 11.4137 13.8693 11.4128 14.0742 11.2573L17.1034 8.95839C17.5077 8.65157 18.0354 9.13541 17.7649 9.56478L14.9449 14.0388C14.4963 14.7505 13.5357 14.9278 12.8626 14.423L10.6197 12.7408C10.4139 12.5864 10.1308 12.5873 9.92586 12.7428L6.8967 15.0417C6.4924 15.3485 5.96463 14.8647 6.23526 14.4353Z" fill="white"/>
<defs>
<radialGradient id="paint0_radial_1907_1195" cx="0" cy="0" r="1" gradientUnits="userSpaceOnUse" gradientTransform="translate(6.09553 21.4974) scale(20.9203 20.9203)">
<stop stop-color="#0099FF"/>
<stop offset="0.609754" stop-color="#A033FF"/>
<stop offset="0.934823" stop-color="#FF5280"/>
<stop offset="1" stop-color="#FF7061"/>
</radialGradient>
</defs>
</svg>