<!--character:6477-->
<!--customColor:true-->
<svg width="24" height="24" viewBox="0 0 24 24" fill="none" xmlns="http://www.w3.org/2000/svg">
<path d="M2.35714 21.6429L6.64286 20.4643C8.17857 21.4286 10.0357 22 12 22C17.5357 22 22 17.5357 22 12C22 6.46429 17.5357 2 12 2C6.46429 2 2 6.46429 2 12C2 13.9643 2.57143 15.8214 3.53571 17.3571L2.35714 21.6429Z" fill="#25D366"/>
<path fill-rule="evenodd" clip-rule="evenodd" d="M1.02748 11.9863C1.02748 5.90574 5.93322 1 12.0137 1C18.0943 1 23 5.90574 23 11.9863C23 18.0668 18.0943 22.9725 12.0137 22.9725C10.0034 22.9725 8.09486 22.4273 6.47721 21.4938L1 23L2.50623 17.5228C1.57268 15.9051 1.02748 13.9966 1.02748 11.9863ZM12.0137 2.80103C6.9279 2.80103 2.82851 6.90042 2.82851 11.9863C2.82851 13.7932 3.35448 15.501 4.23951 16.9105L4.45022 17.2461L3.5764 20.4236L6.75395 19.5498L7.08953 19.7605C8.49901 20.6455 10.2068 21.1715 12.0137 21.1715C17.0996 21.1715 21.199 17.0721 21.199 11.9863C21.199 6.90042 17.0996 2.80103 12.0137 2.80103Z" fill="white"/>
<path d="M17.0205 14.7238C16.3362 16.1646 15.0754 16.3447 15.0754 16.3447C13.9948 16.5608 12.626 16.0926 11.5454 15.5883C9.99654 14.8679 8.66378 13.7152 7.76327 12.2384C7.36704 11.554 7.00684 10.7615 6.97082 10.0051C6.97082 10.0051 6.82674 8.74438 8.05143 7.7358C8.15949 7.66376 8.26756 7.62774 8.41164 7.62774H8.95195C9.16807 7.62774 9.38419 7.77182 9.45623 7.98795L10.2847 10.0051C10.3567 10.2212 10.3207 10.4373 10.1766 10.6174L9.63634 11.1938C9.45623 11.3739 9.45623 11.626 9.56429 11.8421C9.60032 11.9142 9.67236 12.0222 9.78042 12.1303C10.4288 12.9948 11.2933 13.6432 12.2658 14.0754C12.4099 14.1475 12.518 14.1835 12.626 14.2195C12.8782 14.2915 13.0943 14.1835 13.2384 14.0034L13.6706 13.355C13.7787 13.1749 13.9948 13.0668 14.2109 13.1029L16.3722 13.427C16.5883 13.4631 16.7684 13.6432 16.8404 13.8593L16.9845 14.3996C17.0566 14.4716 17.0566 14.6157 17.0205 14.7238Z" fill="white"/>
</svg>