<!--character:6752-->
<!--customColor:true-->
<svg width="24" height="24" viewBox="0 0 24 24" fill="none" xmlns="http://www.w3.org/2000/svg">
<path d="M22.8001 5.29808C22.0051 5.65131 21.1514 5.88973 20.2538 5.99576C21.169 5.44734 21.8721 4.57878 22.2037 3.54406C21.3466 4.05129 20.3983 4.42141 19.3886 4.6193C18.5795 3.75817 17.4273 3.21987 16.1514 3.21987C13.7031 3.21987 11.7195 5.2042 11.7195 7.65252C11.7195 7.99967 11.7579 8.33872 11.8336 8.66292C8.14929 8.47786 4.88306 6.71304 2.69611 4.03103C2.31519 4.68617 2.09636 5.44734 2.09636 6.25985C2.09636 7.79841 2.87915 9.15461 4.06785 9.95023C3.3418 9.92659 2.65829 9.72802 2.06056 9.39573C2.05989 9.41396 2.05989 9.43355 2.05989 9.45111C2.05989 11.5996 3.58764 13.3914 5.61587 13.7987C5.2444 13.8993 4.85267 13.954 4.4481 13.954C4.16173 13.954 3.88482 13.9263 3.61466 13.875C4.17794 15.6351 5.81578 16.917 7.75486 16.9534C6.23858 18.1421 4.3272 18.852 2.25035 18.852C1.89239 18.852 1.53916 18.8311 1.19268 18.7899C3.15404 20.0461 5.48416 20.7803 7.98787 20.7803C16.1413 20.7803 20.601 14.0256 20.601 8.16717C20.601 7.97536 20.5955 7.78355 20.5874 7.59308C21.454 6.96834 22.205 6.18825 22.8001 5.29808Z" fill="#55ACEE"/>
</svg>