<!--character:3046-->
<!--customColor:true-->
<svg width="24" height="24" viewBox="0 0 24 24" fill="none" xmlns="http://www.w3.org/2000/svg">
<path d="M2.74286 21.2571L6.85714 20.1257C8.33143 21.0514 10.1143 21.6 12 21.6C17.3143 21.6 21.6 17.3143 21.6 12C21.6 6.68571 17.3143 2.4 12 2.4C6.68571 2.4 2.4 6.68571 2.4 12C2.4 13.8857 2.94857 15.6686 3.87429 17.1429L2.74286 21.2571Z" fill="#25D366"/>
<path fill-rule="evenodd" clip-rule="evenodd" d="M1.22698 11.9865C1.22698 6.01654 6.04352 1.2 12.0135 1.2C17.9835 1.2 22.8 6.01654 22.8 11.9865C22.8 17.9565 17.9835 22.773 12.0135 22.773C10.0397 22.773 8.16587 22.2377 6.57763 21.3212L1.2 22.8L2.67885 17.4224C1.76226 15.8341 1.22698 13.9603 1.22698 11.9865ZM12.0135 2.96828C7.02012 2.96828 2.99526 6.99314 2.99526 11.9865C2.99526 13.7606 3.51167 15.4373 4.38061 16.8212L4.58749 17.1507L3.72955 20.2704L6.84933 19.4125L7.17881 19.6194C8.56267 20.4883 10.2394 21.0047 12.0135 21.0047C17.0069 21.0047 21.0317 16.9799 21.0317 11.9865C21.0317 6.99314 17.0069 2.96828 12.0135 2.96828Z" fill="white"/>
<path d="M16.9293 14.6743C16.2573 16.0889 15.0195 16.2657 15.0195 16.2657C13.9586 16.4779 12.6147 16.0182 11.5537 15.523C10.033 14.8157 8.72444 13.684 7.8403 12.234C7.45128 11.5621 7.09762 10.784 7.06226 10.0414C7.06226 10.0414 6.92079 8.80357 8.12323 7.81333C8.22932 7.7426 8.33542 7.70724 8.47688 7.70724H9.00737C9.21956 7.70724 9.43175 7.8487 9.50248 8.06089L10.3159 10.0414C10.3866 10.2536 10.3513 10.4658 10.2098 10.6426L9.67931 11.2084C9.50248 11.3853 9.50248 11.6328 9.60858 11.845C9.64395 11.9157 9.71468 12.0218 9.82077 12.1279C10.4574 12.9767 11.3061 13.6133 12.261 14.0377C12.4025 14.1084 12.5086 14.1438 12.6147 14.1791C12.8622 14.2499 13.0744 14.1438 13.2159 13.9669L13.6403 13.3304C13.7464 13.1535 13.9586 13.0474 14.1707 13.0828L16.2927 13.4011C16.5049 13.4365 16.6817 13.6133 16.7524 13.8255L16.8939 14.356C16.9646 14.4267 16.9646 14.5682 16.9293 14.6743Z" fill="white"/>
</svg>