<!--character:E257-->
<!--customColor:true-->
<svg width="24" height="24" viewBox="0 0 24 24" xmlns="http://www.w3.org/2000/svg">
  <path d="M19.5565 2C20.9051 2 22 3.09492 22 4.44352V19.5565C22 20.9051 20.9051 22 19.5565 22H15.3976V14.4643H17.9991L18.4941 11.2369H15.3976V9.14246C15.3976 8.25953 15.8301 7.39887 17.2171 7.39887H18.625V4.65121C18.625 4.65121 17.3473 4.43316 16.1257 4.43316C13.5754 4.43316 11.9085 5.97883 11.9085 8.77707V11.2369H9.07363V14.4643H11.9085V22H4.44352C3.09492 22 2 20.9051 2 19.5565V4.44352C2 3.09492 3.09488 2 4.44352 2L19.5565 2Z" fill="#1777F2"/>
</svg>
