<!--character:2129-->
<!--customColor:true-->
<svg width="24" height="24" viewBox="0 0 24 24" fill="none" xmlns="http://www.w3.org/2000/svg">
<path fill-rule="evenodd" clip-rule="evenodd" d="M21.6 12C21.6 6.69807 17.3019 2.4 12 2.4C6.69807 2.4 2.4 6.69807 2.4 12C2.4 16.5022 5.49946 20.2799 9.68087 21.3173V14.9336H7.70127V12H9.68087V10.7359C9.68087 7.46838 11.1596 5.95388 14.3675 5.95388C14.9757 5.95388 16.0251 6.07311 16.4544 6.19238V8.85174C16.2278 8.82789 15.8343 8.81595 15.3454 8.81595C13.7712 8.81595 13.163 9.41222 13.163 10.9625V12H16.2987L15.7601 14.9336H13.163V21.5297C17.9164 20.9556 21.6 16.9082 21.6 12Z" fill="#0866FF"/>
<path fill-rule="evenodd" clip-rule="evenodd" d="M15.76 14.9336L16.2987 12H13.163V10.9625C13.163 9.41222 13.7712 8.81595 15.3454 8.81595C15.8343 8.81595 16.2278 8.82785 16.4544 8.8517V6.19238C16.0251 6.07311 14.9757 5.95384 14.3675 5.95384C11.1596 5.95384 9.68083 7.46838 9.68083 10.7359V12H7.70124V14.9336H9.68083V21.3173C10.4236 21.5015 11.2002 21.6 12 21.6C12.3937 21.6 12.7817 21.5757 13.163 21.5297V14.9336H15.76Z" fill="white"/>
</svg>