<!--character:7209-->
<!--customColor:true-->
<svg width="20" height="20" viewBox="0 0 20 20" fill="none" xmlns="http://www.w3.org/2000/svg">
<path fill-rule="evenodd" clip-rule="evenodd" d="M10 1.99994C5.49338 1.99994 2 5.30107 2 9.75998C2 12.0923 2.95584 14.1076 4.51246 15.4997C4.64313 15.6166 4.72201 15.7805 4.72737 15.9558L4.77094 17.3789C4.78486 17.8328 5.25373 18.1282 5.66909 17.9448L7.25698 17.2439C7.39159 17.1845 7.54243 17.1735 7.68427 17.2125C8.41395 17.4131 9.19056 17.52 10 17.52C14.5067 17.52 18.0001 14.2189 18.0001 9.75998C18.0001 5.30107 14.5067 1.99994 10 1.99994Z" fill="url(#paint0_radial_1907_1195)"/>
<path fill-rule="evenodd" clip-rule="evenodd" d="M5.19605 12.0294L7.54606 8.30103C7.91987 7.7079 8.72035 7.56022 9.28124 7.98086L11.1503 9.38268C11.3218 9.51132 11.5578 9.51063 11.7285 9.38103L14.2528 7.46526C14.5897 7.20958 15.0295 7.61278 14.8041 7.97059L12.4541 11.699C12.0802 12.2921 11.2797 12.4398 10.7189 12.0191L8.84975 10.6172C8.67827 10.4886 8.4423 10.4893 8.27155 10.6189L5.74725 12.5347C5.41034 12.7904 4.97053 12.3872 5.19605 12.0294Z" fill="white"/>
<defs>
<radialGradient id="paint0_radial_1907_1195" cx="0" cy="0" r="1" gradientUnits="userSpaceOnUse" gradientTransform="translate(5.0796 17.9144) scale(17.4336 17.4336)">
<stop stop-color="#0099FF"/>
<stop offset="0.609754" stop-color="#A033FF"/>
<stop offset="0.934823" stop-color="#FF5280"/>
<stop offset="1" stop-color="#FF7061"/>
</radialGradient>
</defs>
</svg>