<!--character:6118-->
  <svg width="24" height="24" viewBox="0 0 24 24" >
<path d="M18.2502 2C17.2904 2 16.3308 2.36656 15.5987 3.09867L12.8545 5.8429L12.5892 5.57759C12.5115 5.49776 12.4187 5.4343 12.3161 5.39097C12.2135 5.34764 12.1032 5.32531 11.9918 5.3253C11.8261 5.32535 11.6641 5.37483 11.5265 5.46743C11.389 5.56003 11.2823 5.69153 11.2199 5.84513C11.1575 5.99873 11.1423 6.16744 11.1763 6.3297C11.2103 6.49196 11.292 6.64039 11.4108 6.75602L11.6549 7.00016L4.74388 13.9112C3.7632 14.8919 3.48244 15.9653 3.2741 16.7987C3.06576 17.632 2.92984 18.2253 2.24379 18.9114C2.08757 19.0677 1.9998 19.2796 1.9998 19.5006C1.9998 19.7216 2.08757 19.9335 2.24379 20.0898L3.91052 21.7565C4.06681 21.9127 4.27874 22.0005 4.49973 22.0005C4.72071 22.0005 4.93265 21.9127 5.08894 21.7565C5.77498 21.0705 6.36828 20.9345 7.20164 20.7262C8.035 20.5179 9.10843 20.2371 10.0891 19.2564L17.0001 12.3454L17.2443 12.5895C17.3211 12.6695 17.4131 12.7334 17.5148 12.7774C17.6166 12.8214 17.7261 12.8446 17.837 12.8457C17.9479 12.8469 18.0579 12.8259 18.1605 12.7839C18.2632 12.742 18.3564 12.6801 18.4348 12.6017C18.5132 12.5233 18.5752 12.43 18.6171 12.3273C18.659 12.2247 18.68 12.1147 18.6789 12.0038C18.6778 11.893 18.6545 11.7834 18.6105 11.6817C18.5666 11.5799 18.5027 11.4879 18.4227 11.4111L18.1574 11.1458L20.9016 8.40158C22.3659 6.93736 22.3659 4.56288 20.9016 3.09867C20.1695 2.36656 19.21 2 18.2502 2ZM12.8333 8.17859L15.8217 11.167L8.91068 18.078C8.22464 18.7641 7.63134 18.9 6.79798 19.1083C6.15923 19.268 5.3813 19.5724 4.61041 20.0996L3.90075 19.3899C4.42794 18.619 4.73231 17.8411 4.89199 17.2023C5.10033 16.369 5.23626 15.7757 5.9223 15.0896L12.8333 8.17859Z" />
</svg>