<!--character:E260-->
<!--customColor:true-->
<svg width="24" height="24" viewBox="0 0 24 24" xmlns="http://www.w3.org/2000/svg">
<path d="M17.1756 2.75H6.8244C4.57417 2.75 2.75 4.57418 2.75 6.82441V17.1756C2.75 19.4258 4.57417 21.25 6.8244 21.25H17.1756C19.4258 21.25 21.25 19.4258 21.25 17.1756V6.82441C21.25 4.57418 19.4258 2.75 17.1756 2.75Z" fill="url(#paint0_linear_1907_1221)"/>
<path d="M12 5.95252C10.1991 5.95254 8.47201 6.54841 7.1986 7.60908C5.92519 8.66974 5.20979 10.1083 5.20978 11.6083C5.21142 12.584 5.51606 13.5427 6.09409 14.3913C6.67213 15.24 7.50389 15.9496 8.50856 16.4513C8.24098 17.0503 7.83966 17.6121 7.32123 18.1132C8.32659 17.9368 9.27035 17.566 10.079 17.0298C10.7026 17.1842 11.3495 17.2631 12 17.2641C13.8009 17.2641 15.528 16.6682 16.8014 15.6076C18.0748 14.5469 18.7902 13.1083 18.7902 11.6083C18.7902 10.1083 18.0748 8.66974 16.8014 7.60908C15.528 6.54841 13.8009 5.95254 12 5.95252Z" fill="white"/>
<defs>
<linearGradient id="paint0_linear_1907_1221" x1="12.1468" y1="20.022" x2="12.1468" y2="5.04594" gradientUnits="userSpaceOnUse">
<stop stop-color="#0CBD2A"/>
<stop offset="1" stop-color="#5BF675"/>
</linearGradient>
</defs>
</svg>
