<!--character:E261-->
<!--customColor:true-->
<svg width="24" height="24" viewBox="0 0 24 24" xmlns="http://www.w3.org/2000/svg">
  <path d="M22 5.7945C21.264 6.12155 20.4736 6.3423 19.6425 6.44048C20.4898 5.9327 21.1408 5.1285 21.4479 4.17047C20.6543 4.6401 19.7763 4.9828 18.8414 5.16602C18.0922 4.3687 17.0254 3.8703 15.8441 3.8703C13.5772 3.8703 11.7406 5.70757 11.7406 7.97446C11.7406 8.29589 11.7762 8.60982 11.8463 8.90998C8.43499 8.73864 5.4108 7.1046 3.38592 4.62134C3.03323 5.22793 2.83061 5.9327 2.83061 6.68499C2.83061 8.10954 3.55539 9.36524 4.656 10.1019C3.98376 10.08 3.3509 9.89616 2.79747 9.58849C2.79684 9.60537 2.79684 9.62351 2.79684 9.63976C2.79684 11.629 4.21138 13.288 6.0893 13.6651C5.74536 13.7583 5.38266 13.809 5.00808 13.809C4.74293 13.809 4.48654 13.7833 4.2364 13.7358C4.75794 15.3655 6.27441 16.5524 8.06978 16.5861C6.66587 17.6867 4.89614 18.344 2.97319 18.344C2.64176 18.344 2.3147 18.3246 1.9939 18.2865C3.80991 19.4496 5.96736 20.1294 8.28553 20.1294C15.8347 20.1294 19.9639 13.8752 19.9639 8.45098C19.9639 8.27338 19.9589 8.09578 19.9514 7.91943C20.7537 7.34098 21.4491 6.61871 22 5.7945Z" fill="#55ACEE"/>
</svg>
