<!--character:1907:1197-->
<!--customColor:true-->
<svg width="24" height="24" viewBox="0 0 24 24" fill="none" xmlns="http://www.w3.org/2000/svg">
<path fill-rule="evenodd" clip-rule="evenodd" d="M12 1.99994C6.36672 1.99994 2 6.12636 2 11.7C2 14.6154 3.19481 17.1346 5.14057 18.8746C5.30391 19.0208 5.40251 19.2256 5.40921 19.4448L5.46367 21.2236C5.48107 21.791 6.06716 22.1602 6.58636 21.931L8.57123 21.0548C8.73949 20.9806 8.92803 20.9668 9.10533 21.0156C10.0174 21.2664 10.9882 21.4 12 21.4C17.6334 21.4 22.0001 17.2736 22.0001 11.7C22.0001 6.12636 17.6334 1.99994 12 1.99994Z" fill="url(#paint0_radial_1907_1197)"/>
<path fill-rule="evenodd" clip-rule="evenodd" d="M5.99506 14.5367L8.93257 9.87629C9.39983 9.13489 10.4004 8.95029 11.1015 9.47609L13.4379 11.2284C13.6523 11.3892 13.9472 11.3883 14.1607 11.2263L17.316 8.83159C17.7372 8.51199 18.2869 9.01599 18.0051 9.46325L15.0676 14.1237C14.6003 14.8651 13.5997 15.0497 12.8986 14.5239L10.5622 12.7716C10.3478 12.6108 10.0529 12.6117 9.83943 12.7737L6.68406 15.1684C6.26292 15.488 5.71316 14.984 5.99506 14.5367Z" fill="white"/>
<defs>
<radialGradient id="paint0_radial_1907_1197" cx="0" cy="0" r="1" gradientUnits="userSpaceOnUse" gradientTransform="translate(5.8495 21.893) scale(21.792 21.792)">
<stop stop-color="#0099FF"/>
<stop offset="0.609754" stop-color="#A033FF"/>
<stop offset="0.934823" stop-color="#FF5280"/>
<stop offset="1" stop-color="#FF7061"/>
</radialGradient>
</defs>
</svg>