<!--character:3725-->
<!--customColor:true-->
<svg width="24" height="24" viewBox="0 0 24 24" fill="none" xmlns="http://www.w3.org/2000/svg">
<path d="M19.8973 3.30683C19.3628 2.81155 17.2026 1.2369 12.3911 1.2155C12.3911 1.2155 6.71711 0.87192 3.95112 3.41962C2.4114 4.96608 1.86976 7.22886 1.81263 10.0343C1.75549 12.8396 1.68157 18.0971 6.7284 19.5227H6.73325L6.73002 21.6979C6.73002 21.6979 6.69774 22.5786 7.27521 22.7582C7.97373 22.976 8.38367 22.3067 9.05056 21.5851C9.4166 21.1891 9.9221 20.6072 10.303 20.1625C13.7546 20.4542 16.4092 19.7875 16.7107 19.689C17.4076 19.4621 21.3511 18.9548 21.9925 13.6976C22.6546 8.27906 21.6723 4.85166 19.8973 3.30683Z" fill="white"/>
<path d="M18.7749 4.40143C18.323 3.98913 16.3724 2.75839 12.3024 2.74056C12.3024 2.74056 7.48277 2.42258 5.14318 4.55053C3.84104 5.84157 3.40237 7.76142 3.35428 10.1043C3.30618 12.4471 3.05699 16.9228 7.3246 18.1133C7.3246 18.1133 7.30781 21.436 7.30588 21.7281C7.30588 21.9323 7.33816 22.072 7.45436 22.1008C7.53796 22.1213 7.66321 22.0778 7.76973 21.9712C8.45211 21.2831 10.6368 18.6365 10.6368 18.6365C13.568 18.8287 15.9002 18.2475 16.151 18.1652C16.7423 17.9743 19.9409 17.6984 20.4822 13.3077C21.0416 8.7818 20.2766 5.69246 18.7749 4.40143Z" fill="#7360F2"/>
<path fill-rule="evenodd" clip-rule="evenodd" d="M11.5809 5.33758C11.582 5.18667 11.7046 5.06519 11.8549 5.06624C13.4341 5.07728 14.7689 5.60519 15.8406 6.65429C16.9213 7.71216 17.4557 9.15236 17.4693 10.9411C17.4704 11.092 17.3495 11.2152 17.1992 11.2164C17.0489 11.2175 16.9262 11.0961 16.925 10.9452C16.9123 9.26912 16.4158 7.98052 15.4607 7.04561C14.4967 6.10193 13.2997 5.62285 11.8511 5.61272C11.7009 5.61167 11.5799 5.48848 11.5809 5.33758ZM12.0613 6.73698C12.0723 6.58647 12.2027 6.47339 12.3526 6.48441C13.4953 6.56838 14.415 6.96046 15.085 7.69483C15.7477 8.42197 16.0628 9.32664 16.0399 10.3876C16.0366 10.5385 15.9122 10.6582 15.7619 10.6549C15.6117 10.6516 15.4925 10.5267 15.4958 10.3758C15.516 9.44015 15.2419 8.6765 14.6836 8.06388C14.127 7.4538 13.3489 7.10558 12.3128 7.02944C12.163 7.01843 12.0503 6.88749 12.0613 6.73698ZM12.4738 8.20908C12.4816 8.05837 12.6096 7.94258 12.7597 7.95044C13.3212 7.97985 13.7884 8.15053 14.1211 8.49597C14.4525 8.84009 14.615 9.32083 14.6435 9.8982C14.651 10.0489 14.5353 10.1772 14.3852 10.1846C14.2351 10.1921 14.1074 10.076 14.1 9.92527C14.0756 9.43104 13.9405 9.09458 13.7299 8.8759C13.5206 8.65854 13.2011 8.52079 12.7314 8.49619C12.5813 8.48832 12.466 8.35978 12.4738 8.20908Z" fill="white"/>
<path d="M12.7994 13.5715C12.7994 13.5715 13.182 13.604 13.3879 13.3492L13.7894 12.8419C13.9831 12.5904 14.4505 12.4299 14.9082 12.686C15.2512 12.8824 15.5842 13.096 15.906 13.3259C16.2097 13.5502 16.8317 14.0714 16.8337 14.0714C17.13 14.3226 17.1984 14.6914 16.9967 15.0804C16.9967 15.0827 16.9951 15.0866 16.9951 15.0885C16.7729 15.4753 16.4908 15.8241 16.1594 16.1218C16.1555 16.1238 16.1555 16.1257 16.152 16.1277C15.864 16.3693 15.5812 16.5066 15.3033 16.5397C15.2624 16.5468 15.2209 16.5495 15.1794 16.5474C15.0569 16.5486 14.935 16.5298 14.8185 16.4917L14.8095 16.4784C14.3814 16.3572 13.6668 16.0538 12.4767 15.3945C11.788 15.0175 11.1323 14.5825 10.5167 14.0944C10.2081 13.8498 9.91378 13.5877 9.63513 13.3093L9.54604 13.2199C9.53604 13.2101 9.52635 13.2001 9.51635 13.19C9.2391 12.9102 8.97807 12.6147 8.73455 12.3048C8.24849 11.6867 7.81537 11.0284 7.43984 10.337C6.78328 9.14159 6.48115 8.4246 6.36042 7.99415L6.34719 7.98507C6.30935 7.86808 6.29071 7.74569 6.29199 7.62269C6.28973 7.58105 6.29222 7.53929 6.29942 7.49822C6.33406 7.21968 6.47103 6.93541 6.71033 6.64542C6.71227 6.64186 6.7142 6.64186 6.71614 6.63797C7.01256 6.30518 7.35994 6.022 7.7452 5.7991C7.74713 5.7991 7.75101 5.79716 7.75327 5.79716C8.14061 5.59457 8.50795 5.66329 8.75779 5.95923C8.75973 5.96117 9.27781 6.58578 9.50021 6.89079C9.72914 7.21419 9.94181 7.5489 10.1374 7.89367C10.3924 8.35297 10.2326 8.82329 9.98213 9.01712L9.47697 9.42034C9.22196 9.62714 9.25553 10.0112 9.25553 10.0112C9.25553 10.0112 10.0038 12.8549 12.7994 13.5715Z" fill="white"/>
</svg>