<!--character:6603-->
<!--customColor:true-->
<svg width="24" height="24" viewBox="0 0 24 24" fill="none" xmlns="http://www.w3.org/2000/svg">
<path d="M12 22C17.5228 22 22 17.5228 22 12C22 6.47714 17.5228 1.99999 12 1.99999C6.4771 1.99999 1.99995 6.47714 1.99995 12C1.99995 17.5228 6.4771 22 12 22Z" fill="url(#paint0_linear_2124_1010)"/>
<path fill-rule="evenodd" clip-rule="evenodd" d="M6.52652 11.8944C9.44172 10.6243 11.3856 9.78699 12.3583 9.38243C15.1354 8.22734 15.7125 8.02668 16.0886 8.02006C16.1713 8.0186 16.3563 8.0391 16.4761 8.13632C16.5772 8.21841 16.6051 8.3293 16.6184 8.40713C16.6317 8.48496 16.6483 8.66226 16.6351 8.8008C16.4846 10.382 15.8335 14.2193 15.5022 15.9903C15.362 16.7397 15.086 16.9909 14.8188 17.0155C14.238 17.069 13.7971 16.6317 13.2346 16.2631C12.3545 15.6861 11.8573 15.327 11.003 14.764C10.0156 14.1134 10.6557 13.7558 11.2183 13.1714C11.3656 13.0184 13.9243 10.6911 13.9738 10.48C13.98 10.4536 13.9857 10.3552 13.9272 10.3032C13.8688 10.2512 13.7825 10.269 13.7202 10.2831C13.6319 10.3032 12.2259 11.2325 9.50214 13.0711C9.10305 13.3452 8.74156 13.4787 8.41768 13.4717C8.06063 13.464 7.37381 13.2698 6.86322 13.1038C6.23697 12.9003 5.73924 12.7926 5.78258 12.4469C5.80516 12.2668 6.05314 12.0827 6.52652 11.8944Z" fill="white"/>
<defs>
<linearGradient id="paint0_linear_2124_1010" x1="12" y1="1.99999" x2="12" y2="21.8517" gradientUnits="userSpaceOnUse">
<stop stop-color="#2AABEE"/>
<stop offset="1" stop-color="#229ED9"/>
</linearGradient>
</defs>
</svg>