<!--character:4806-->
<!--customColor:true-->
<svg width="20" height="20" viewBox="0 0 20 20" fill="none" xmlns="http://www.w3.org/2000/svg">
<path d="M14.3363 2.25H5.66369C3.77836 2.25 2.25 3.77836 2.25 5.66369V14.3363C2.25 16.2216 3.77836 17.75 5.66369 17.75H14.3363C16.2216 17.75 17.75 16.2216 17.75 14.3363V5.66369C17.75 3.77836 16.2216 2.25 14.3363 2.25Z" fill="url(#paint0_linear_1907_1218)"/>
<path d="M10 4.9332C8.49116 4.93321 7.04412 5.43245 5.97721 6.32112C4.91029 7.20979 4.3109 8.41507 4.31089 9.67183C4.31227 10.4893 4.56751 11.2926 5.05181 12.0036C5.53611 12.7146 6.23299 13.3091 7.07474 13.7294C6.85055 14.2313 6.51431 14.702 6.07995 15.1219C6.92228 14.974 7.71299 14.6634 8.39054 14.2142C8.91297 14.3435 9.455 14.4096 10 14.4105C11.5088 14.4105 12.9559 13.9112 14.0228 13.0225C15.0897 12.1339 15.6891 10.9286 15.6891 9.67183C15.6891 8.41507 15.0897 7.20979 14.0228 6.32112C12.9559 5.43245 11.5088 4.93321 10 4.9332Z" fill="white"/>
<defs>
<linearGradient id="paint0_linear_1907_1218" x1="10.123" y1="16.7211" x2="10.123" y2="4.17362" gradientUnits="userSpaceOnUse">
<stop stop-color="#0CBD2A"/>
<stop offset="1" stop-color="#5BF675"/>
</linearGradient>
</defs>
</svg>