<!--character:E155-->
<!--added:0.23-->
<svg width="24" height="24" viewBox="0 0 24 24" xmlns="http://www.w3.org/2000/svg"><path d="M13.6667 7.8333h7.5c.5 0 .8333.3334.8333.8334s-.3333.8333-.8333.8333h-7.5v4.9167c0 .9166-.75 1.6666-1.6667 1.6666v4.0834c0 .0833.0833.1666.1667.1666h9c.5 0 .8333.3334.8333.8334S21.6667 22 21.1667 22H12c-.9167 0-1.6667-.75-1.6667-1.6667v-4.25h-7.5c-.5 0-.8333-.3333-.8333-.8333s.3333-.8333.8333-.8333h9c.0834 0 .1667-.0834.1667-.1667V3.8333c0-.0833-.0833-.1666-.1667-.1666h-9c-.5 0-.8333-.3334-.8333-.8334S2.4167 2 2.8333 2H12c.9167 0 1.6667.75 1.6667 1.6667v4.1666zM9.6668 9.6668l-2.9166 2.9167c-.1667.1667-.3334.25-.5834.25-.5 0-.8333-.3333-.8333-.8333v-1.5c0-.0834-.0833-.1667-.25-.1667H3.2502c-.6667 0-1.25-.5833-1.25-1.25s.5833-1.25 1.25-1.25h1.9166c.0834 0 .1667-.0833.1667-.1667v-1.5c0-.25.0833-.4166.25-.5833.3333-.3333.8333-.3333 1.1667 0l2.9166 2.9167c.3334.3333.3334.8333 0 1.1666zm4.6664 4.6664l2.9166-2.9167c.1667-.1667.3334-.25.5834-.25.5 0 .8333.3333.8333.8333v1.5c0 .0842.0833.1667.1667.1667h1.8341c.6659 0 1.25.5833 1.25 1.25s-.5841 1.25-1.25 1.25h-1.8341c-.0834 0-.1667.0833-.1667.1667v1.5c0 .25-.0825.4166-.25.5833-.3333.3333-.8333.3333-1.1667 0l-2.9166-2.9167c-.3325-.3333-.3325-.8333 0-1.1666z"/></svg>