<!--character:235:550:2424-->
  <svg width="24" height="24" viewBox="0 0 24 24" >
<path   d="M2.83333 2H12C12.9167 2 13.6667 2.75 13.6667 3.66667V7.83333H21.1667C21.6667 7.83333 22 8.16666 22 8.66666C22 9.16666 21.6667 9.5 21.1667 9.5H13.6667V14.4167C13.6667 15.3333 12.9167 16.0833 12 16.0833H12V20.1667C12 20.25 12.0833 20.3333 12.1666 20.3333H21.1666C21.6666 20.3333 22 20.6667 22 21.1667C22 21.6667 21.6666 22 21.1666 22H12C11.0833 22 10.3333 21.25 10.3333 20.3333V16.0833H2.83333C2.33333 16.0833 2 15.75 2 15.25C2 14.75 2.33333 14.4167 2.83333 14.4167H11.8333C11.9167 14.4167 12 14.3333 12 14.25V3.83333C12 3.75 11.9167 3.66667 11.8333 3.66667H2.83333C2.33333 3.66667 2 3.33333 2 2.83333C2 2.33333 2.41667 2 2.83333 2ZM6.75019 5.5835L9.66685 8.50017C10.0002 8.8335 10.0002 9.3335 9.66685 9.66683L6.75019 12.5835C6.58352 12.7502 6.41685 12.8335 6.16685 12.8335C5.66685 12.8335 5.33352 12.5002 5.33352 12.0002V10.5002C5.33352 10.4168 5.25019 10.3335 5.08352 10.3335H3.25019C2.58352 10.3335 2.00019 9.75017 2.00019 9.0835C2.00019 8.41683 2.58352 7.8335 3.25019 7.8335H5.16685C5.25019 7.8335 5.33352 7.75017 5.33352 7.66683V6.16683C5.33352 5.91683 5.41685 5.75017 5.58352 5.5835C5.91685 5.25017 6.41685 5.25017 6.75019 5.5835ZM14.3332 14.3332C14.0007 14.6665 14.0007 15.1665 14.3332 15.4998L17.2498 18.4165C17.5832 18.7498 18.0832 18.7498 18.4165 18.4165C18.584 18.2498 18.6665 18.0832 18.6665 17.8332V16.3332C18.6665 16.2498 18.7498 16.1665 18.8332 16.1665H20.6673C21.3332 16.1665 21.9173 15.5832 21.9173 14.9165C21.9173 14.2498 21.3332 13.6665 20.6673 13.6665H18.8332C18.7498 13.6665 18.6665 13.584 18.6665 13.4998V11.9998C18.6665 11.4998 18.3332 11.1665 17.8332 11.1665C17.5832 11.1665 17.4165 11.2498 17.2498 11.4165L14.3332 14.3332Z" />
</svg>