<!--character:209:550:2201-->
  <svg width="24" height="24" viewBox="0 0 24 24" >
<path   d="M12 22C6.48667 22 2 17.5144 2 12C2 6.48556 6.48667 2 12 2C17.5133 2 22 6.48556 22 12C22 17.5144 17.5133 22 12 22ZM14.3499 14.9519C15.1245 14.3946 15.6219 13.527 15.7141 12.5731L16.1822 7.72912C16.3192 6.31082 14.7342 5.38955 13.5828 6.21838L9.65013 9.04801C8.87546 9.60565 8.37808 10.4733 8.28585 11.4272L7.81785 16.2712C7.6808 17.689 9.26574 18.6103 10.4171 17.7819L14.3499 14.9519ZM10.48 12C10.48 11.161 11.161 10.48 12 10.48C12.839 10.48 13.52 11.161 13.52 12C13.52 12.839 12.839 13.52 12 13.52C11.161 13.52 10.48 12.839 10.48 12Z" />
<rect x="-15.5" y="-55.5" width="55" height="131" rx="4.5" stroke="#7B61FF" stroke-dasharray="10 5"/>
</svg>