<!--character:6930-->
  <svg width="20" height="20" viewBox="0 0 20 20" >
<path d="M2.36144 1.66666H10.0003C10.7642 1.66666 11.3892 2.29166 11.3892 3.05555V6.52777H17.6392C18.0559 6.52777 18.3337 6.80555 18.3337 7.22222C18.3337 7.63889 18.0559 7.91666 17.6392 7.91666H11.3892V12.0139C11.3892 12.7778 10.7642 13.4028 10.0003 13.4028L10.0003 16.8056C10.0003 16.875 10.0698 16.9444 10.1392 16.9444H17.6392C18.0559 16.9444 18.3337 17.2222 18.3337 17.6389C18.3337 18.0556 18.0559 18.3333 17.6392 18.3333H10.0003C9.23644 18.3333 8.61144 17.7083 8.61144 16.9444V13.4028H2.36144C1.94477 13.4028 1.66699 13.125 1.66699 12.7083C1.66699 12.2917 1.94477 12.0139 2.36144 12.0139H9.86144C9.93088 12.0139 10.0003 11.9444 10.0003 11.875V3.19444C10.0003 3.125 9.93088 3.05555 9.86144 3.05555H2.36144C1.94477 3.05555 1.66699 2.77778 1.66699 2.36111C1.66699 1.94444 2.01421 1.66666 2.36144 1.66666Z" />
<path d="M5.62546 4.65291L8.05602 7.08347C8.3338 7.36125 8.3338 7.77791 8.05602 8.05569L5.62546 10.4862C5.48657 10.6251 5.34769 10.6946 5.13935 10.6946C4.72269 10.6946 4.44491 10.4168 4.44491 10.0001V8.75014C4.44491 8.68069 4.37546 8.61125 4.23658 8.61125H2.7088C2.15324 8.61125 1.66713 8.12514 1.66713 7.56958C1.66713 7.01403 2.15324 6.52791 2.7088 6.52791H4.30602C4.37546 6.52791 4.44491 6.45847 4.44491 6.38903V5.13903C4.44491 4.93069 4.51435 4.7918 4.65324 4.65291C4.93102 4.37514 5.34769 4.37514 5.62546 4.65291Z" />
<path d="M11.9446 11.9443C11.6675 12.2221 11.6675 12.6387 11.9446 12.9165L14.3752 15.3471C14.653 15.6249 15.0696 15.6249 15.3474 15.3471C15.487 15.2082 15.5557 15.0693 15.5557 14.861V13.611C15.5557 13.5415 15.6252 13.4721 15.6946 13.4721H17.2231C17.778 13.4721 18.2648 12.986 18.2648 12.4304C18.2648 11.8749 17.778 11.3887 17.2231 11.3887H15.6946C15.6252 11.3887 15.5557 11.32 15.5557 11.2499V9.99986C15.5557 9.58319 15.278 9.30541 14.8613 9.30541C14.653 9.30541 14.5141 9.37486 14.3752 9.51375L11.9446 11.9443Z" />
</svg>