<!-- character:0:1497 -->
  <svg width="20" height="20" viewBox="0 0 20 20" >
<path   d="M10 18.3334C5.40558 18.3334 1.66669 14.5955 1.66669 10.0001C1.66669 5.40471 5.40558 1.66675 10 1.66675C14.5945 1.66675 18.3334 5.40471 18.3334 10.0001C18.3334 14.5955 14.5945 18.3334 10 18.3334ZM11.9582 12.46C12.6037 11.9956 13.0183 11.2726 13.0951 10.4776L13.4851 6.44101C13.5993 5.25909 12.2785 4.49138 11.319 5.18207L8.04178 7.54009C7.39622 8.00479 6.98174 8.72782 6.90489 9.52279L6.51488 13.5594C6.40067 14.741 7.72146 15.5087 8.68097 14.8183L11.9582 12.46ZM8.73335 10.0001C8.73335 9.30088 9.30082 8.73341 10 8.73341C10.6992 8.73341 11.2667 9.30088 11.2667 10.0001C11.2667 10.6993 10.6992 11.2667 10 11.2667C9.30082 11.2667 8.73335 10.6993 8.73335 10.0001Z" />
<rect x="-17.5" y="-15.5" width="55" height="131" rx="4.5" stroke="#7B61FF" stroke-dasharray="10 5"/>
</svg>