<!--character:9899-->
  <svg width="24" height="24" viewBox="0 0 24 24" >
<path d="M10.4801 12C10.4801 11.161 11.1611 10.48 12.0001 10.48C12.8391 10.48 13.5201 11.161 13.5201 12C13.5201 12.839 12.8391 13.52 12.0001 13.52C11.1611 13.52 10.4801 12.839 10.4801 12Z" />
<path d="M12.0001 22C6.48676 22 2.0001 17.5144 2.0001 12C2.0001 6.48555 6.48676 2 12.0001 2C17.5134 2 22.0001 6.48555 22.0001 12C22.0001 17.5144 17.5134 22 12.0001 22ZM14.35 14.9519C15.1245 14.3946 15.622 13.527 15.7142 12.573L16.1822 7.72911C16.3193 6.31081 14.7343 5.38955 13.5829 6.21838L9.65021 9.04801C8.87554 9.60565 8.37816 10.4733 8.28594 11.4272L7.81793 16.2712C7.68088 17.689 9.26582 18.6103 10.4172 17.7819L14.35 14.9519Z" />
</svg>