<!-- character:0:470 -->
  <svg width="20" height="20" viewBox="0 0 20 20" >
<path   d="M2.36107 1.66666H9.99996C10.7638 1.66666 11.3888 2.29166 11.3888 3.05555V6.52777H17.6388C18.0555 6.52777 18.3333 6.80554 18.3333 7.22221C18.3333 7.63888 18.0555 7.91666 17.6388 7.91666H11.3888V12.0139C11.3888 12.7778 10.7638 13.4028 9.99996 13.4028L9.99996 16.8055C9.99996 16.875 10.0694 16.9444 10.1388 16.9444H17.6388C18.0555 16.9444 18.3333 17.2222 18.3333 17.6389C18.3333 18.0555 18.0555 18.3333 17.6388 18.3333H9.99996C9.23607 18.3333 8.61107 17.7083 8.61107 16.9444V13.4028H2.36107C1.9444 13.4028 1.66663 13.125 1.66663 12.7083C1.66663 12.2917 1.9444 12.0139 2.36107 12.0139H9.86107C9.93051 12.0139 9.99996 11.9444 9.99996 11.875V3.19443C9.99996 3.12499 9.93051 3.05555 9.86107 3.05555H2.36107C1.9444 3.05555 1.66663 2.77777 1.66663 2.3611C1.66663 1.94443 2.01385 1.66666 2.36107 1.66666ZM5.6251 4.65291L8.05565 7.08346C8.33343 7.36124 8.33343 7.77791 8.05565 8.05568L5.6251 10.4862C5.48621 10.6251 5.34732 10.6946 5.13899 10.6946C4.72232 10.6946 4.44454 10.4168 4.44454 10.0001V8.75013C4.44454 8.68068 4.3751 8.61124 4.23621 8.61124H2.70843C2.15288 8.61124 1.66676 8.12513 1.66676 7.56957C1.66676 7.01402 2.15288 6.52791 2.70843 6.52791H4.30565C4.3751 6.52791 4.44454 6.45846 4.44454 6.38902V5.13902C4.44454 4.93068 4.51399 4.7918 4.65288 4.65291C4.93065 4.37513 5.34732 4.37513 5.6251 4.65291ZM11.9443 11.9443C11.6672 12.2221 11.6672 12.6387 11.9443 12.9165L14.3748 15.3471C14.6526 15.6249 15.0693 15.6249 15.347 15.3471C15.4866 15.2082 15.5554 15.0693 15.5554 14.861V13.611C15.5554 13.5415 15.6248 13.4721 15.6943 13.4721H17.2227C17.7776 13.4721 18.2644 12.986 18.2644 12.4304C18.2644 11.8749 17.7776 11.3887 17.2227 11.3887H15.6943C15.6248 11.3887 15.5554 11.32 15.5554 11.2499V9.99985C15.5554 9.58318 15.2776 9.30541 14.8609 9.30541C14.6526 9.30541 14.5137 9.37485 14.3748 9.51374L11.9443 11.9443Z" />
</svg>