<!--character:5499-->
  <svg width="24" height="24" viewBox="0 0 24 24" >
<path d="M2.83372 2H12.0004C12.9171 2 13.6671 2.75 13.6671 3.66666V7.83333H21.1671C21.6671 7.83333 22.0004 8.16666 22.0004 8.66666C22.0004 9.16666 21.6671 9.5 21.1671 9.5H13.6671V14.4167C13.6671 15.3333 12.9171 16.0833 12.0004 16.0833L12.0004 20.1667C12.0004 20.25 12.0837 20.3333 12.1671 20.3333H21.1671C21.6671 20.3333 22.0004 20.6667 22.0004 21.1667C22.0004 21.6667 21.6671 22 21.1671 22H12.0004C11.0837 22 10.3337 21.25 10.3337 20.3333V16.0833H2.83372C2.33372 16.0833 2.00039 15.75 2.00039 15.25C2.00039 14.75 2.33372 14.4167 2.83372 14.4167H11.8337C11.9171 14.4167 12.0004 14.3333 12.0004 14.25V3.83333C12.0004 3.75 11.9171 3.66666 11.8337 3.66666H2.83372C2.33372 3.66666 2.00039 3.33333 2.00039 2.83333C2.00039 2.33333 2.41706 2 2.83372 2Z" />
<path d="M6.75056 5.5835L9.66722 8.50016C10.0006 8.8335 10.0006 9.3335 9.66722 9.66683L6.75056 12.5835C6.58389 12.7502 6.41722 12.8335 6.16722 12.8335C5.66722 12.8335 5.33389 12.5002 5.33389 12.0002V10.5002C5.33389 10.4168 5.25056 10.3335 5.08389 10.3335H3.25056C2.58389 10.3335 2.00056 9.75016 2.00056 9.0835C2.00056 8.41683 2.58389 7.8335 3.25056 7.8335H5.16722C5.25056 7.8335 5.33389 7.75016 5.33389 7.66683V6.16683C5.33389 5.91683 5.41722 5.75016 5.58389 5.5835C5.91722 5.25016 6.41722 5.25016 6.75056 5.5835Z" />
<path d="M14.3336 14.3332C14.0011 14.6665 14.0011 15.1665 14.3336 15.4998L17.2502 18.4165C17.5836 18.7498 18.0836 18.7498 18.4169 18.4165C18.5844 18.2498 18.6669 18.0832 18.6669 17.8332V16.3332C18.6669 16.2498 18.7502 16.1665 18.8336 16.1665H20.6677C21.3336 16.1665 21.9177 15.5832 21.9177 14.9165C21.9177 14.2498 21.3336 13.6665 20.6677 13.6665H18.8336C18.7502 13.6665 18.6669 13.584 18.6669 13.4998V11.9998C18.6669 11.4998 18.3336 11.1665 17.8336 11.1665C17.5836 11.1665 17.4169 11.2498 17.2502 11.4165L14.3336 14.3332Z" />
</svg>