<!--character:7482-->
  <svg width="20" height="20" viewBox="0 0 20 20" >
<path d="M8.73341 10C8.73341 9.3008 9.30088 8.73333 10.0001 8.73333C10.6993 8.73333 11.2667 9.3008 11.2667 10C11.2667 10.6992 10.6993 11.2667 10.0001 11.2667C9.30088 11.2667 8.73341 10.6992 8.73341 10Z" />
<path d="M10.0001 18.3333C5.40564 18.3333 1.66675 14.5954 1.66675 10C1.66675 5.40463 5.40564 1.66666 10.0001 1.66666C14.5945 1.66666 18.3334 5.40463 18.3334 10C18.3334 14.5954 14.5945 18.3333 10.0001 18.3333ZM11.9583 12.4599C12.6038 11.9955 13.0183 11.2725 13.0952 10.4775L13.4852 6.44093C13.5994 5.25901 12.2786 4.49129 11.3191 5.18198L8.04185 7.54001C7.39628 8.00471 6.9818 8.72774 6.90495 9.5227L6.51494 13.5593C6.40074 14.7409 7.72152 15.5086 8.68103 14.8183L11.9583 12.4599Z" />
</svg>