<!--character:218:550:2306-->
<svg width="24" height="24" viewBox="0 0 24 24" xmlns="http://www.w3.org/2000/svg"><path d="M20.75 5.33H3.25C2.5833 5.33 2 5.9133 2 6.58v10.8333c0 .6667.5833 1.25 1.25 1.25h17.5c.6667 0 1.25-.5833 1.25-1.25V6.58c0-.6667-.5833-1.25-1.25-1.25zm-7.4167 11.6667H4c-.1667 0-.3333-.1667-.3333-.3334 0-.75.1666-1.4166.4166-2.0833.3334-.5833 1.25-1 2.5-1.4167.0834 0 .1667-.0833.25-.0833l.3334-.1667c.0833-.0833.0833-.0833.0833-.1666.0833-.25 0-.5-.0833-.75-.6667-.6667-.9167-1.5834-.8334-2.5.0834-1.5 1.0834-2.5 2.3334-2.5 1.25 0 2.25 1 2.25 2.4166.0833.6667-.0834 1.4167-.4167 2v.0834c-.0833.0833-.0833.1666-.1667.25l-.25.25c0 .0833-.0833.1666-.0833.3333V12.83c0 .0833 0 .1667.0833.1667l.3334.1666c.0833 0 .1666.0834.25.0834.5.1666 1 .3333 1.4166.5833 0 0 .0834 0 .0834.0833.0833 0 .0833.0834.1666.0834.0834 0 .1667.0833.1667.0833s.0833 0 .0833.0833c.0834 0 .0834.0834.1667.1667 0 0 .0833 0 .0833.0833.0834 0 .0834.0834.0834.0834.0833.0833.1666.1666.25.3333.25.6667.4166 1.3333.4166 2.0833.0834-.0833-.0833.0834-.25.0834zm7-5.75c0 .4166-.3333.75-.8333.75h-5c-.5 0-.8333-.3334-.8333-.75v-2.25-.0834c0-.0833.1666-.0833.1666 0l2.5 1.5834c.4167.25.9167.25 1.3334 0l2.5-1.5834h.1666v2.3334zm0-3.4167l-3.0833 2c-.1667.0833-.3333.0833-.4167 0l-3.1666-2c0-.5.3333-.8333.8333-.8333h5c.5 0 .8333.3333.8333.8333z"/></svg>
