<!-- character:0:538 -->
  <svg width="20" height="20" viewBox="0 0 20 20" >
<path   d="M2.70829 4.44168H17.2916C17.8472 4.44168 18.3333 4.92779 18.3333 5.48335V14.5111C18.3333 15.0667 17.8472 15.5528 17.2916 15.5528H2.70829C2.15274 15.5528 1.66663 15.0667 1.66663 14.5111V5.48335C1.66663 4.92779 2.15274 4.44168 2.70829 4.44168ZM3.05552 13.8861C3.05552 14.025 3.1944 14.1639 3.33329 14.1639H11.1111C11.1969 14.1639 11.2827 14.1109 11.3194 14.0867L11.3194 14.0945C11.3326 14.0812 11.3383 14.0756 11.3379 14.0751C11.3375 14.0747 11.3337 14.0772 11.3271 14.0816L11.3194 14.0867C11.3183 13.4649 11.1797 12.9116 10.9722 12.3583C10.9027 12.2195 10.8333 12.15 10.7638 12.0806C10.7638 12.0806 10.7638 12.0111 10.6944 12.0111C10.6944 11.9417 10.625 11.9417 10.625 11.9417C10.5984 11.9152 10.582 11.8886 10.568 11.866C10.5454 11.8293 10.529 11.8028 10.4861 11.8028C10.4861 11.7333 10.4166 11.7333 10.4166 11.7333C10.4166 11.7333 10.3472 11.6639 10.2777 11.6639C10.243 11.6639 10.2257 11.6465 10.2083 11.6292C10.1909 11.6118 10.1736 11.5945 10.1388 11.5945C10.1388 11.525 10.0694 11.525 10.0694 11.525C9.72218 11.3167 9.30552 11.1778 8.88885 11.0389L8.88885 11.0389C8.85413 11.0389 8.8194 11.0215 8.78468 11.0042C8.74996 10.9868 8.71524 10.9695 8.68051 10.9695L8.40274 10.8306C8.33329 10.8306 8.33329 10.7611 8.33329 10.6917V10.6222V10.4139V10.275C8.33329 10.1937 8.35712 10.1361 8.37686 10.0885C8.39082 10.0548 8.40274 10.026 8.40274 9.99724L8.61107 9.7889C8.64579 9.75418 8.66315 9.71946 8.68051 9.68474C8.69788 9.65001 8.71524 9.61529 8.74996 9.58057V9.51113C9.02774 9.02501 9.16663 8.40001 9.09718 7.84446C9.09718 6.6639 8.26385 5.83057 7.22218 5.83057C6.18051 5.83057 5.34718 6.6639 5.27774 7.9139C5.20829 8.67779 5.41663 9.44168 5.97218 9.99724C6.04163 10.2056 6.11107 10.4139 6.04163 10.6222C6.04163 10.6517 6.04163 10.6687 6.0363 10.6838C6.02909 10.7042 6.01212 10.7212 5.97218 10.7611L5.6944 10.9C5.65968 10.9 5.62496 10.9174 5.59024 10.9347C5.55551 10.9521 5.52079 10.9695 5.48607 10.9695C4.4444 11.3167 3.68052 11.6639 3.40274 12.15C3.1944 12.7056 3.05552 13.2611 3.05552 13.8861ZM16.9444 9.37224C16.9444 9.71946 16.6666 9.99724 16.25 9.99724H12.0833C11.6666 9.99724 11.3888 9.71946 11.3888 9.37224V7.49724V7.42779C11.3888 7.35835 11.5277 7.35835 11.5277 7.42779L13.6111 8.74724C13.9583 8.95557 14.375 8.95557 14.7222 8.74724L16.8055 7.42779H16.9444V7.49724V9.37224ZM14.375 8.19168L16.9444 6.52501C16.9444 6.10835 16.6666 5.83057 16.25 5.83057H12.0833C11.6666 5.83057 11.3888 6.10835 11.3888 6.52501L14.0277 8.19168C14.0972 8.26113 14.2361 8.26113 14.375 8.19168Z" />
</svg>