<!--character:218:550:2306-->
  <svg width="24" height="24" viewBox="0 0 24 24" >
<path   d="M3.25 5.33002H20.75C21.4167 5.33002 22 5.91335 22 6.58002V17.4134C22 18.08 21.4167 18.6634 20.75 18.6634H3.25C2.58333 18.6634 2 18.08 2 17.4134V6.58002C2 5.91335 2.58333 5.33002 3.25 5.33002ZM3.66669 16.6634C3.66669 16.83 3.83335 16.9967 4.00002 16.9967H13.3334C13.4364 16.9967 13.5394 16.933 13.5833 16.9041L13.5834 16.9134C13.5992 16.8975 13.606 16.8907 13.6055 16.8901C13.6051 16.8896 13.6006 16.8926 13.5926 16.8979L13.5833 16.9041C13.582 16.1579 13.4157 15.4939 13.1667 14.83C13.0834 14.6634 13 14.58 12.9167 14.4967C12.9167 14.4967 12.9167 14.4134 12.8334 14.4134C12.8334 14.33 12.75 14.33 12.75 14.33C12.7182 14.2982 12.6985 14.2664 12.6817 14.2392C12.6545 14.1952 12.6349 14.1634 12.5834 14.1634C12.5834 14.08 12.5 14.08 12.5 14.08C12.5 14.08 12.4167 13.9967 12.3334 13.9967C12.2917 13.9967 12.2709 13.9759 12.25 13.955C12.2292 13.9342 12.2084 13.9134 12.1667 13.9134C12.1667 13.83 12.0834 13.83 12.0834 13.83C11.6667 13.58 11.1667 13.4134 10.6667 13.2467C10.625 13.2467 10.5834 13.2259 10.5417 13.205C10.5 13.1842 10.4584 13.1634 10.4167 13.1634L10.0834 12.9967C10 12.9967 10 12.9134 10 12.83V12.7467V12.4967V12.33C10 12.2324 10.0286 12.1634 10.0523 12.1062C10.0691 12.0657 10.0834 12.0312 10.0834 11.9967L10.3334 11.7467C10.375 11.705 10.3959 11.6634 10.4167 11.6217C10.4375 11.58 10.4584 11.5384 10.5 11.4967V11.4134C10.8334 10.83 11 10.08 10.9167 9.41336C10.9167 7.99669 9.91669 6.99669 8.66669 6.99669C7.41669 6.99669 6.41669 7.99669 6.33335 9.49669C6.25002 10.4134 6.50002 11.33 7.16669 11.9967C7.25002 12.2467 7.33335 12.4967 7.25002 12.7467C7.25002 12.7821 7.25002 12.8025 7.24363 12.8206C7.23497 12.8451 7.21461 12.8654 7.16669 12.9134L7.16669 12.9134L6.83335 13.08C6.79169 13.08 6.75002 13.1009 6.70835 13.1217C6.66669 13.1425 6.62502 13.1634 6.58335 13.1634C5.33335 13.58 4.41669 13.9967 4.08335 14.58C3.83335 15.2467 3.66669 15.9134 3.66669 16.6634ZM20.3334 11.2467C20.3334 11.6633 20 11.9967 19.5 11.9967H14.5C14 11.9967 13.6667 11.6633 13.6667 11.2467V8.99668V8.91335C13.6667 8.83001 13.8334 8.83001 13.8334 8.91335L16.3334 10.4967C16.75 10.7467 17.25 10.7467 17.6667 10.4967L20.1667 8.91335H20.3334V8.99668V11.2467ZM17.25 9.83002L20.3334 7.83002C20.3334 7.33002 20 6.99669 19.5 6.99669H14.5C14 6.99669 13.6667 7.33002 13.6667 7.83002L16.8334 9.83002C16.9167 9.91336 17.0834 9.91336 17.25 9.83002Z" />
</svg>