<!--character:5884-->
  <svg width="20" height="20" viewBox="0 0 20 20" >
<path d="M2.70866 4.44167H17.292C17.8475 4.44167 18.3337 4.92778 18.3337 5.48333V14.5111C18.3337 15.0667 17.8475 15.5528 17.292 15.5528H2.70866C2.1531 15.5528 1.66699 15.0667 1.66699 14.5111V5.48333C1.66699 4.92778 2.1531 4.44167 2.70866 4.44167ZM3.05588 13.8861C3.05588 14.025 3.19477 14.1639 3.33366 14.1639H11.1114C11.1973 14.1639 11.2831 14.1108 11.3198 14.0867L11.3198 14.0944C11.333 14.0812 11.3387 14.0756 11.3382 14.075C11.3379 14.0746 11.3341 14.0772 11.3274 14.0816L11.3198 14.0867C11.3186 13.4649 11.18 12.9116 10.9725 12.3583C10.9031 12.2194 10.8337 12.15 10.7642 12.0806C10.7642 12.0806 10.7642 12.0111 10.6948 12.0111C10.6948 11.9417 10.6253 11.9417 10.6253 11.9417C10.5988 11.9151 10.5824 11.8886 10.5684 11.866C10.5457 11.8293 10.5294 11.8028 10.4864 11.8028C10.4864 11.7333 10.417 11.7333 10.417 11.7333C10.417 11.7333 10.3475 11.6639 10.2781 11.6639C10.2434 11.6639 10.226 11.6465 10.2087 11.6292C10.1913 11.6118 10.1739 11.5944 10.1392 11.5944C10.1392 11.525 10.0698 11.525 10.0698 11.525C9.72255 11.3167 9.30588 11.1778 8.88922 11.0389C8.8545 11.0389 8.81977 11.0215 8.78505 11.0042C8.75033 10.9868 8.7156 10.9694 8.68088 10.9694L8.4031 10.8306C8.33366 10.8306 8.33366 10.7611 8.33366 10.6917V10.275C8.33366 10.1936 8.35749 10.1361 8.37723 10.0885C8.39119 10.0548 8.4031 10.026 8.4031 9.99722L8.61144 9.78889C8.64616 9.75417 8.66352 9.71944 8.68088 9.68472C8.69824 9.65 8.7156 9.61528 8.75033 9.58055V9.51111C9.0281 9.025 9.16699 8.4 9.09755 7.84444C9.09755 6.66389 8.26421 5.83055 7.22255 5.83055C6.18088 5.83055 5.34755 6.66389 5.2781 7.91389C5.20866 8.67778 5.41699 9.44167 5.97255 9.99722C6.04199 10.2056 6.11144 10.4139 6.04199 10.6222C6.04199 10.6517 6.04199 10.6687 6.03666 10.6838C6.02945 10.7042 6.01248 10.7212 5.97255 10.7611L5.69477 10.9C5.66005 10.9 5.62533 10.9174 5.5906 10.9347C5.55588 10.9521 5.52116 10.9694 5.48644 10.9694C4.44477 11.3167 3.68088 11.6639 3.4031 12.15C3.19477 12.7056 3.05588 13.2611 3.05588 13.8861ZM16.9448 9.37222V7.42778H16.8059L14.7225 8.74722C14.3753 8.95555 13.9587 8.95555 13.6114 8.74722L11.5281 7.42778C11.5281 7.35833 11.3892 7.35833 11.3892 7.42778V9.37222C11.3892 9.71944 11.667 9.99722 12.0837 9.99722H16.2503C16.667 9.99722 16.9448 9.71944 16.9448 9.37222ZM14.3753 8.19167L16.9448 6.525C16.9448 6.10833 16.667 5.83055 16.2503 5.83055H12.0837C11.667 5.83055 11.3892 6.10833 11.3892 6.525L14.0281 8.19167C14.0975 8.26111 14.2364 8.26111 14.3753 8.19167Z" />
</svg>