<!--character:3712-->
  <svg width="24" height="24" viewBox="0 0 24 24" >
<path d="M3.25039 5.33H20.7504C21.4171 5.33 22.0004 5.91333 22.0004 6.58V17.4133C22.0004 18.08 21.4171 18.6633 20.7504 18.6633H3.25039C2.58372 18.6633 2.00039 18.08 2.00039 17.4133V6.58C2.00039 5.91333 2.58372 5.33 3.25039 5.33ZM3.66706 16.6633C3.66706 16.83 3.83372 16.9967 4.00039 16.9967H13.3337C13.4367 16.9967 13.5397 16.933 13.5837 16.904L13.5837 16.9133C13.5996 16.8975 13.6064 16.8907 13.6059 16.89C13.6055 16.8896 13.6009 16.8926 13.5929 16.8979L13.5837 16.904C13.5823 16.1578 13.416 15.4939 13.1671 14.83C13.0837 14.6633 13.0004 14.58 12.9171 14.4967C12.9171 14.4967 12.9171 14.4133 12.8337 14.4133C12.8337 14.33 12.7504 14.33 12.7504 14.33C12.7186 14.2982 12.6989 14.2663 12.6821 14.2392C12.6549 14.1952 12.6352 14.1633 12.5837 14.1633C12.5837 14.08 12.5004 14.08 12.5004 14.08C12.5004 14.08 12.4171 13.9967 12.3337 13.9967C12.2921 13.9967 12.2712 13.9758 12.2504 13.955C12.2296 13.9342 12.2087 13.9133 12.1671 13.9133C12.1671 13.83 12.0837 13.83 12.0837 13.83C11.6671 13.58 11.1671 13.4133 10.6671 13.2467C10.6254 13.2467 10.5837 13.2258 10.5421 13.205C10.5004 13.1842 10.4587 13.1633 10.4171 13.1633L10.0837 12.9967C10.0004 12.9967 10.0004 12.9133 10.0004 12.83V12.33C10.0004 12.2324 10.029 12.1633 10.0527 12.1061C10.0694 12.0657 10.0837 12.0312 10.0837 11.9967L10.3337 11.7467C10.3754 11.705 10.3962 11.6633 10.4171 11.6217C10.4379 11.58 10.4587 11.5383 10.5004 11.4967V11.4133C10.8337 10.83 11.0004 10.08 10.9171 9.41333C10.9171 7.99667 9.91706 6.99666 8.66706 6.99666C7.41706 6.99666 6.41706 7.99667 6.33372 9.49667C6.25039 10.4133 6.50039 11.33 7.16706 11.9967C7.25039 12.2467 7.33372 12.4967 7.25039 12.7467C7.25039 12.7821 7.25039 12.8024 7.244 12.8205C7.23534 12.845 7.21498 12.8654 7.16706 12.9133L6.83372 13.08C6.79206 13.08 6.75039 13.1008 6.70872 13.1217C6.66706 13.1425 6.62539 13.1633 6.58372 13.1633C5.33372 13.58 4.41706 13.9967 4.08372 14.58C3.83372 15.2467 3.66706 15.9133 3.66706 16.6633ZM20.3337 11.2467V8.91333H20.1671L17.6671 10.4967C17.2504 10.7467 16.7504 10.7467 16.3337 10.4967L13.8337 8.91333C13.8337 8.83 13.6671 8.83 13.6671 8.91333V11.2467C13.6671 11.6633 14.0004 11.9967 14.5004 11.9967H19.5004C20.0004 11.9967 20.3337 11.6633 20.3337 11.2467ZM17.2504 9.83L20.3337 7.83C20.3337 7.33 20.0004 6.99666 19.5004 6.99666H14.5004C14.0004 6.99666 13.6671 7.33 13.6671 7.83L16.8337 9.83C16.9171 9.91333 17.0837 9.91333 17.2504 9.83Z" />
</svg>