<!--character:7844-->
  <svg width="24" height="24" viewBox="0 0 24 24" >
<path d="M20.3334 1.99999H6.58361C5.66696 1.99999 4.91698 2.74998 4.91698 3.66663V17.4164C4.91698 18.3322 5.66696 19.083 6.58361 19.083H20.3334C21.2492 19.083 22 18.3322 22 17.4164V3.66663C22 2.74998 21.2492 1.99999 20.3334 1.99999ZM20.2501 17.3331C20.1659 17.4164 20.0834 17.4164 19.9167 17.4164H7.00027C6.75028 17.4164 6.58361 17.2489 6.58361 16.9997V4.08329C6.58361 3.83329 6.75028 3.66663 7.00027 3.66663H19.9167C20.1659 3.66663 20.3334 3.83329 20.3334 4.08329V16.9997C20.3334 17.0408 20.3128 17.1027 20.292 17.1648C20.2711 17.2276 20.2501 17.2908 20.2501 17.3331Z" />
<path d="M18.2498 20.3327H4.08332C3.83333 20.3327 3.66666 20.166 3.66666 19.916V5.74959C3.66666 5.2496 3.33334 4.91627 2.83334 4.91627C2.33335 4.91627 2.00002 5.2496 2.00002 5.74959V20.3327C2.00002 21.2493 2.75001 21.9993 3.66666 21.9993H18.2498C18.7497 21.9993 19.0831 21.666 19.0831 21.166C19.0831 20.666 18.7497 20.3327 18.2498 20.3327Z" />
</svg>