<!--character:6649-->
  <svg width="24" height="24" viewBox="0 0 24 24" >
<path d="M20.3338 2H6.58398C5.66733 2 4.91734 2.74998 4.91734 3.66664V17.4164C4.91734 18.3322 5.66733 19.083 6.58398 19.083H20.3338C21.2496 19.083 22.0004 18.3322 22.0004 17.4164V3.66664C22.0004 2.74998 21.2496 2 20.3338 2ZM20.2504 17.3331C20.1663 17.4164 20.0838 17.4164 19.9171 17.4164H7.00064C6.75064 17.4164 6.58398 17.2489 6.58398 16.9997V4.0833C6.58398 3.8333 6.75064 3.66664 7.00064 3.66664H19.9171C20.1663 3.66664 20.3338 3.8333 20.3338 4.0833V16.9997C20.3338 17.0408 20.3131 17.1027 20.2924 17.1648C20.2715 17.2277 20.2504 17.2908 20.2504 17.3331Z" />
<path d="M18.2501 20.3327H4.08369C3.83369 20.3327 3.66703 20.166 3.66703 19.916V5.7496C3.66703 5.24961 3.3337 4.91628 2.83371 4.91628C2.33372 4.91628 2.00039 5.24961 2.00039 5.7496V20.3327C2.00039 21.2493 2.75038 21.9993 3.66703 21.9993H18.2501C18.7501 21.9993 19.0834 21.666 19.0834 21.166C19.0834 20.666 18.7501 20.3327 18.2501 20.3327Z" />
</svg>