<!--character:6653-->
  <svg width="24" height="24" viewBox="0 0 24 24" >
<path d="M20.3334 2H6.5836C5.66695 2 4.91696 2.74999 4.91696 3.66664V17.4164C4.91696 18.3322 5.66695 19.083 6.5836 19.083H20.3334C21.2492 19.083 22 18.3322 22 17.4164V3.66664C22 2.74999 21.2492 2 20.3334 2ZM20.2501 17.3331C20.1659 17.4164 20.0834 17.4164 19.9167 17.4164H7.00029C6.75029 17.4164 6.58363 17.2489 6.58363 16.9997V4.0833C6.58363 3.8333 6.75029 3.66664 7.00029 3.66664H19.9167C20.1659 3.66664 20.3334 3.8333 20.3334 4.0833V16.9997C20.3334 17.0408 20.3128 17.1026 20.2921 17.1648C20.2711 17.2276 20.2501 17.2908 20.2501 17.3331Z" />
<path d="M18.2497 20.3327H4.0833C3.8333 20.3327 3.66664 20.166 3.66664 19.916V5.7496C3.66664 5.24961 3.33331 4.91628 2.83332 4.91628C2.33333 4.91628 2 5.24961 2 5.7496V20.3327C2 21.2493 2.74999 21.9993 3.66664 21.9993H18.2497C18.7497 21.9993 19.083 21.666 19.083 21.166C19.083 20.666 18.7497 20.3327 18.2497 20.3327Z" />
</svg>