<!--character:213:550:2243-->
<svg width="24" height="24" viewBox="0 0 24 24" xmlns="http://www.w3.org/2000/svg"><path d="M2 17.214V9.8225c0-.12.0973-.2174.2174-.2174h19.5652c.12 0 .2174.0973.2174.2174v7.3913c0 .9605-.7786 1.7391-1.7391 1.7391H3.739C2.7786 18.953 2 18.1744 2 17.214zm14.3478-1.9566a.6522.6522 0 1 0 0 1.3043h2.6087a.6522.6522 0 1 0 0-1.3043h-2.6087zM5.4783 11.779a.6522.6522 0 1 0 0 1.3044h6.9565a.6522.6522 0 0 0 0-1.3044H5.4783zm0 3.4783a.6522.6522 0 1 0 0 1.3043H8.087a.6522.6522 0 1 0 0-1.3043H5.4783zM22 6.779v1.3044c0 .12-.0973.2174-.2174.2174H2.2174A.2174.2174 0 0 1 2 8.0835V6.779C2 5.8186 2.7786 5.04 3.7391 5.04H20.261C21.2214 5.04 22 5.8186 22 6.7791z"/></svg>
