<!--character:213:550:2243-->
  <svg width="24" height="24" viewBox="0 0 24 24" >
<path   d="M20.2609 5.04004C21.2214 5.04004 22 5.81867 22 6.77917V8.08352C22 8.20358 21.9027 8.30091 21.7826 8.30091H2.21739C2.09733 8.30091 2 8.20358 2 8.08352V6.77917C2 5.81867 2.77864 5.04004 3.73913 5.04004H20.2609ZM2 17.214C2 18.1745 2.77864 18.9531 3.73913 18.9531H20.2609C21.2214 18.9531 22 18.1745 22 17.214V9.82266C22 9.70259 21.9027 9.60526 21.7826 9.60526H2.21739C2.09733 9.60526 2 9.70259 2 9.82266V17.214ZM16.3478 15.2574H18.9565C19.3167 15.2574 19.6087 15.5494 19.6087 15.9096C19.6087 16.2698 19.3167 16.5618 18.9565 16.5618H16.3478C15.9876 16.5618 15.6956 16.2698 15.6956 15.9096C15.6956 15.5494 15.9876 15.2574 16.3478 15.2574ZM12.4348 11.7792H5.47828C5.1181 11.7792 4.82611 12.0712 4.82611 12.4313C4.82611 12.7915 5.1181 13.0835 5.47828 13.0835H12.4348C12.795 13.0835 13.087 12.7915 13.087 12.4313C13.087 12.0712 12.795 11.7792 12.4348 11.7792ZM5.47828 15.2574H8.08698C8.44716 15.2574 8.73915 15.5494 8.73915 15.9096C8.73915 16.2698 8.44716 16.5618 8.08698 16.5618H5.47828C5.1181 16.5618 4.82611 16.2698 4.82611 15.9096C4.82611 15.5494 5.1181 15.2574 5.47828 15.2574Z" />
</svg>