<!--character:2686-->
<svg width="24" height="24" viewBox="0 0 24 24">
  <path d="M20.2608 5.04C21.2213 5.04 22 5.81863 22 6.77913V8.08347C22 8.20354 21.9026 8.30087 21.7826 8.30087H2.21734C2.09728 8.30087 1.99995 8.20354 1.99995 8.08347V6.77913C1.99995 5.81863 2.77859 5.04 3.73908 5.04H20.2608Z" />
  <path d="M1.99995 17.2139C1.99995 18.1744 2.77859 18.953 3.73908 18.953H20.2608C21.2213 18.953 22 18.1744 22 17.2139V9.82261C22 9.70254 21.9026 9.60522 21.7826 9.60522H2.21734C2.09728 9.60522 1.99995 9.70254 1.99995 9.82261V17.2139ZM16.3478 15.2574H18.9565C19.3167 15.2574 19.6086 15.5494 19.6086 15.9096C19.6086 16.2697 19.3167 16.5617 18.9565 16.5617H16.3478C15.9876 16.5617 15.6956 16.2697 15.6956 15.9096C15.6956 15.5494 15.9876 15.2574 16.3478 15.2574ZM12.4347 11.7791C12.7949 11.7791 13.0869 12.0711 13.0869 12.4313C13.0869 12.7915 12.7949 13.0835 12.4347 13.0835H5.47821C5.11803 13.0835 4.82604 12.7915 4.82604 12.4313C4.82604 12.0711 5.11803 11.7791 5.47821 11.7791H12.4347ZM5.47821 15.2574H8.08691C8.44709 15.2574 8.73908 15.5494 8.73908 15.9096C8.73908 16.2697 8.44709 16.5617 8.08691 16.5617H5.47821C5.11803 16.5617 4.82604 16.2697 4.82604 15.9096C4.82604 15.5494 5.11803 15.2574 5.47821 15.2574Z" />
</svg>
