<!-- character:0:1831 -->
  <svg width="20" height="20" viewBox="0 0 20 20" >
<path   d="M16.8841 4.19995C17.6845 4.19995 18.3333 4.84881 18.3333 5.64923V6.73618C18.3333 6.83623 18.2522 6.91734 18.1522 6.91734H1.84783C1.74778 6.91734 1.66667 6.83623 1.66667 6.73618V5.64923C1.66667 4.84881 2.31553 4.19995 3.11595 4.19995H16.8841ZM1.66667 14.3449C1.66667 15.1453 2.31553 15.7942 3.11595 15.7942H16.8841C17.6845 15.7942 18.3333 15.1453 18.3333 14.3449V8.18546C18.3333 8.08541 18.2522 8.0043 18.1522 8.0043H1.84783C1.74778 8.0043 1.66667 8.08541 1.66667 8.18546V14.3449ZM13.6232 12.7144H15.7971C16.0973 12.7144 16.3406 12.9578 16.3406 13.2579C16.3406 13.5581 16.0973 13.8014 15.7971 13.8014H13.6232C13.323 13.8014 13.0797 13.5581 13.0797 13.2579C13.0797 12.9578 13.323 12.7144 13.6232 12.7144ZM10.3623 9.81589H4.56522C4.26507 9.81589 4.02174 10.0592 4.02174 10.3594C4.02174 10.6595 4.26507 10.9029 4.56522 10.9029H10.3623C10.6625 10.9029 10.9058 10.6595 10.9058 10.3594C10.9058 10.0592 10.6625 9.81589 10.3623 9.81589ZM4.56522 12.7144H6.73914C7.03929 12.7144 7.28261 12.9578 7.28261 13.2579C7.28261 13.5581 7.03929 13.8014 6.73914 13.8014H4.56522C4.26507 13.8014 4.02174 13.5581 4.02174 13.2579C4.02174 12.9578 4.26507 12.7144 4.56522 12.7144Z" />
</svg>