<!--character:4632-->
  <svg width="20" height="20" viewBox="0 0 20 20" >
<path d="M16.884 4.2C17.6844 4.2 18.3333 4.84886 18.3333 5.64927V6.73623C18.3333 6.83628 18.2522 6.91739 18.1521 6.91739H1.84779C1.74773 6.91739 1.66663 6.83628 1.66663 6.73623V5.64927C1.66663 4.84886 2.31549 4.2 3.1159 4.2H16.884Z" />
<path d="M1.66663 14.3449C1.66663 15.1453 2.31549 15.7942 3.1159 15.7942H16.884C17.6844 15.7942 18.3333 15.1453 18.3333 14.3449V8.18551C18.3333 8.08545 18.2522 8.00435 18.1521 8.00435H1.84779C1.74773 8.00435 1.66663 8.08545 1.66663 8.18551V14.3449ZM13.6231 12.7145H15.7971C16.0972 12.7145 16.3405 12.9578 16.3405 13.258C16.3405 13.5581 16.0972 13.8014 15.7971 13.8014H13.6231C13.323 13.8014 13.0797 13.5581 13.0797 13.258C13.0797 12.9578 13.323 12.7145 13.6231 12.7145ZM10.3623 9.81594C10.6624 9.81594 10.9058 10.0593 10.9058 10.3594C10.9058 10.6596 10.6624 10.9029 10.3623 10.9029H4.56518C4.26502 10.9029 4.0217 10.6596 4.0217 10.3594C4.0217 10.0593 4.26502 9.81594 4.56518 9.81594H10.3623ZM4.56518 12.7145H6.73909C7.03925 12.7145 7.28257 12.9578 7.28257 13.258C7.28257 13.5581 7.03925 13.8014 6.73909 13.8014H4.56518C4.26502 13.8014 4.0217 13.5581 4.0217 13.258C4.0217 12.9578 4.26502 12.7145 4.56518 12.7145Z" />
</svg>