<!--character:2688-->
<svg width="24" height="24" viewBox="0 0 24 24">
  <path d="M21.8142 13.9163C21.8147 12.2937 20.832 10.8474 19.3628 10.3082V9.66049C19.3628 5.42972 16.0703 2 12.0088 2C7.94723 2 4.6547 5.42972 4.6547 9.66049V10.3082C3.18393 10.8483 2.2002 12.2961 2.2002 13.9206C2.2002 15.545 3.18393 16.9928 4.6547 17.5329C5.03063 17.6714 5.44772 17.6107 5.77284 17.3702C6.09796 17.1298 6.29048 16.7396 6.28894 16.3243V9.66049C6.28894 7.53184 7.37913 5.56489 9.14886 4.50057C10.9186 3.43625 13.099 3.43625 14.8687 4.50057C16.6384 5.56489 17.7286 7.53184 17.7286 9.66049V16.3243C17.7322 16.6824 17.8805 17.0223 18.1372 17.2606V17.744C18.1372 18.9986 17.0823 19.4463 16.0944 19.4463H14.6415C14.2717 18.7791 13.5177 18.4538 12.8033 18.6532C12.0888 18.8526 11.592 19.527 11.592 20.2975C11.592 21.068 12.0888 21.7424 12.8033 21.9418C13.5177 22.1413 14.2717 21.8159 14.6415 21.1487H16.0944C18.2589 21.1487 19.7714 19.7485 19.7714 17.744V17.3372C21.0195 16.6921 21.8104 15.3677 21.8142 13.9163Z" />
</svg>
