<!--character:195:550:2030-->
  <svg width="24" height="24" viewBox="0 0 24 24" >
<path d="M21.814 13.9163C21.8145 12.2937 20.8319 10.8474 19.3627 10.3082V9.66049C19.3627 5.42972 16.0701 2 12.0086 2C7.94705 2 4.65452 5.42972 4.65452 9.66049V10.3082C3.18374 10.8483 2.20001 12.2961 2.20001 13.9206C2.20001 15.545 3.18374 16.9928 4.65452 17.5329C5.03045 17.6714 5.44754 17.6107 5.77266 17.3702C6.09778 17.1298 6.29029 16.7396 6.28876 16.3243V9.66049C6.28876 7.53185 7.37895 5.5649 9.14867 4.50057C10.9184 3.43625 13.0988 3.43625 14.8685 4.50057C16.6382 5.5649 17.7284 7.53185 17.7284 9.66049V16.3243C17.732 16.6824 17.8803 17.0223 18.137 17.2606V17.744C18.137 18.9986 17.0821 19.4463 16.0942 19.4463H14.6414C14.2715 18.7791 13.5175 18.4538 12.8031 18.6532C12.0886 18.8526 11.5918 19.527 11.5918 20.2975C11.5918 21.068 12.0886 21.7424 12.8031 21.9418C13.5175 22.1413 14.2715 21.8159 14.6414 21.1487H16.0942C18.2587 21.1487 19.7712 19.7485 19.7712 17.744V17.3372C21.0193 16.6921 21.8103 15.3677 21.814 13.9163Z" />
</svg>