<!-- character:0:2481 -->
  <svg width="20" height="20" viewBox="0 0 20 20" >
<path d="M18.1783 11.5969C18.1787 10.2447 17.3599 9.03948 16.1355 8.59015V8.05037C16.1355 4.52473 13.3917 1.66663 10.0071 1.66663C6.62251 1.66663 3.87873 4.52473 3.87873 8.05037V8.59015C2.65309 9.04023 1.83331 10.2467 1.83331 11.6004C1.83331 12.9542 2.65309 14.1606 3.87873 14.6107C4.19201 14.7261 4.53958 14.6755 4.81052 14.4752C5.08145 14.2748 5.24188 13.9496 5.2406 13.6035V8.05037C5.2406 6.2765 6.14909 4.63737 7.62386 3.75044C9.09863 2.8635 10.9156 2.8635 12.3904 3.75044C13.8652 4.63737 14.7737 6.2765 14.7737 8.05037V13.6035C14.7766 13.9019 14.9002 14.1852 15.1141 14.3838V14.7866C15.1141 15.8322 14.235 16.2052 13.4118 16.2052H12.2011C11.8929 15.6492 11.2646 15.3781 10.6692 15.5443C10.0738 15.7105 9.65982 16.2725 9.65982 16.9146C9.65982 17.5566 10.0738 18.1186 10.6692 18.2848C11.2646 18.451 11.8929 18.1799 12.2011 17.6239H13.4118C15.2156 17.6239 16.476 16.4571 16.476 14.7866V14.4476C17.5161 13.9101 18.1752 12.8063 18.1783 11.5969Z" />
</svg>