<!--character:4092-->
  <svg width="20" height="20" viewBox="0 0 20 20" >
<path d="M18.1785 11.5969C18.1789 10.2447 17.36 9.03951 16.1357 8.59019V8.05041C16.1357 4.52476 13.3919 1.66666 10.0073 1.66666C6.62269 1.66666 3.87892 4.52476 3.87892 8.05041V8.59019C2.65327 9.04027 1.8335 10.2468 1.8335 11.6005C1.8335 12.9542 2.65327 14.1607 3.87892 14.6108C4.19219 14.7261 4.53977 14.6756 4.8107 14.4752C5.08163 14.2748 5.24206 13.9497 5.24078 13.6036V8.05041C5.24078 6.27654 6.14928 4.63741 7.62405 3.75048C9.09881 2.86354 10.9158 2.86354 12.3906 3.75048C13.8653 4.63741 14.7738 6.27654 14.7738 8.05041V13.6036C14.7768 13.902 14.9004 14.1853 15.1143 14.3838V14.7867C15.1143 15.8322 14.2352 16.2053 13.412 16.2053H12.2013C11.8931 15.6492 11.2648 15.3781 10.6694 15.5443C10.074 15.7105 9.66 16.2725 9.66 16.9146C9.66 17.5567 10.074 18.1187 10.6694 18.2849C11.2648 18.451 11.8931 18.1799 12.2013 17.6239H13.412C15.2158 17.6239 16.4762 16.4571 16.4762 14.7867V14.4476C17.5163 13.9101 18.1754 12.8064 18.1785 11.5969Z" />
</svg>