<!--character:1469-->
  <svg width="24" height="24" viewBox="0 0 24 24" >
<path d="M13.9388 19.161C13.9029 19.1184 13.8589 19.0833 13.8094 19.0578C13.7598 19.0323 13.7057 19.0169 13.6501 19.0125H10.3501C10.2905 19.0146 10.2319 19.0288 10.178 19.0544C10.1241 19.0799 10.0759 19.1162 10.0366 19.161L8.30409 21.2483C8.26383 21.3126 8.24248 21.3869 8.24248 21.4628C8.24248 21.5387 8.26383 21.613 8.30409 21.6773C8.33925 21.7506 8.39612 21.8113 8.46696 21.8511C8.53781 21.891 8.6192 21.908 8.70009 21.9H15.3001C15.3749 21.8977 15.4476 21.8754 15.511 21.8356C15.5743 21.7957 15.6258 21.7397 15.6603 21.6733C15.6947 21.6069 15.7108 21.5325 15.707 21.4578C15.7031 21.3831 15.6794 21.3108 15.6383 21.2483L13.9388 19.161Z" />
<path d="M20.6625 2.1H3.3375C3.00929 2.1 2.69453 2.23038 2.46246 2.46246C2.23038 2.69453 2.1 3.00929 2.1 3.3375V16.5375C2.1 16.8657 2.23038 17.1805 2.46246 17.4125C2.69453 17.6446 3.00929 17.775 3.3375 17.775H20.6625C20.9907 17.775 21.3055 17.6446 21.5375 17.4125C21.7696 17.1805 21.9 16.8657 21.9 16.5375V3.3375C21.9 3.00929 21.7696 2.69453 21.5375 2.46246C21.3055 2.23038 20.9907 2.1 20.6625 2.1ZM20.25 14.0625C20.25 14.1719 20.2065 14.2768 20.1292 14.3542C20.0518 14.4315 19.9469 14.475 19.8375 14.475H4.1625C4.0531 14.475 3.94818 14.4315 3.87082 14.3542C3.79346 14.2768 3.75 14.1719 3.75 14.0625V4.1625C3.75 4.0531 3.79346 3.94818 3.87082 3.87082C3.94818 3.79346 4.0531 3.75 4.1625 3.75H19.8375C19.9469 3.75 20.0518 3.79346 20.1292 3.87082C20.2065 3.94818 20.25 4.0531 20.25 4.1625V14.0625Z" />
<path d="M10.35 10.713C10.3819 10.6839 10.4096 10.6506 10.4325 10.614L12.6518 7.53678C12.7159 7.44911 12.7621 7.34963 12.7877 7.24406C12.8133 7.13848 12.8178 7.0289 12.8009 6.92158C12.7841 6.81426 12.7462 6.71134 12.6894 6.6187C12.6327 6.52607 12.5582 6.44556 12.4703 6.38178C12.3821 6.31806 12.2822 6.27241 12.1763 6.24745C12.0704 6.22249 11.9606 6.21872 11.8533 6.23636C11.7459 6.25399 11.6431 6.29269 11.5508 6.35021C11.4585 6.40773 11.3784 6.48295 11.3153 6.57153L9.66527 8.88153C9.63417 8.92195 9.58968 8.94997 9.53978 8.96055C9.48989 8.97114 9.43786 8.9636 9.39302 8.93928L8.14727 8.18853C7.96892 8.0817 7.75681 8.04614 7.55337 8.08897C7.34993 8.1318 7.17016 8.24986 7.05002 8.41953L5.13602 11.109C5.00911 11.2885 4.95868 11.5109 4.99581 11.7275C5.03294 11.9441 5.1546 12.1371 5.33402 12.264C5.51344 12.3909 5.73592 12.4414 5.95253 12.4042C6.16913 12.3671 6.36211 12.2455 6.48902 12.066L7.87502 10.152C7.90368 10.1085 7.94833 10.0781 7.99929 10.0673C8.05025 10.0564 8.10342 10.0662 8.14727 10.0943L9.39302 10.8368C9.54534 10.9192 9.71974 10.9516 9.8915 10.9294C10.0633 10.9072 10.2237 10.8315 10.35 10.713Z" />
<path d="M15.3 5.39992H14.475C14.2472 5.39992 14.0625 5.5846 14.0625 5.81242V11.5874C14.0625 11.8152 14.2472 11.9999 14.475 11.9999H15.3C15.5278 11.9999 15.7125 11.8152 15.7125 11.5874V5.81242C15.7125 5.5846 15.5278 5.39992 15.3 5.39992Z" />
<path d="M18.1875 7.04988H17.3625C17.1347 7.04988 16.95 7.23456 16.95 7.46238V11.5874C16.95 11.8152 17.1347 11.9999 17.3625 11.9999H18.1875C18.4153 11.9999 18.6 11.8152 18.6 11.5874V7.46238C18.6 7.23456 18.4153 7.04988 18.1875 7.04988Z" />
</svg>