<!--character:E252-->
<svg width="24" height="24" viewBox="0 0 24 24" xmlns="http://www.w3.org/2000/svg">
<path d="M13.9095 19.0525C13.8741 19.0105 13.8308 18.976 13.7819 18.9509C13.7331 18.9258 13.6798 18.9106 13.6251 18.9063H10.3751C10.3164 18.9083 10.2587 18.9223 10.2056 18.9475C10.1525 18.9726 10.1051 19.0084 10.0663 19.0525L8.36008 21.1082C8.32044 21.1715 8.29942 21.2447 8.29942 21.3194C8.29942 21.3941 8.32044 21.4673 8.36008 21.5307C8.39472 21.6028 8.45072 21.6626 8.52049 21.7018C8.59026 21.7411 8.67042 21.7579 8.75008 21.75H15.2501C15.3237 21.7477 15.3954 21.7258 15.4578 21.6866C15.5201 21.6473 15.5709 21.5921 15.6048 21.5268C15.6387 21.4614 15.6546 21.3881 15.6508 21.3145C15.647 21.241 15.6237 21.1697 15.5832 21.1082L13.9095 19.0525Z" />
<path d="M20.5312 2.25H3.46875C3.14552 2.25 2.83552 2.3784 2.60696 2.60696C2.3784 2.83552 2.25 3.14552 2.25 3.46875V16.4687C2.25 16.792 2.3784 17.102 2.60696 17.3305C2.83552 17.5591 3.14552 17.6875 3.46875 17.6875H20.5312C20.8545 17.6875 21.1645 17.5591 21.393 17.3305C21.6216 17.102 21.75 16.792 21.75 16.4687V3.46875C21.75 3.14552 21.6216 2.83552 21.393 2.60696C21.1645 2.3784 20.8545 2.25 20.5312 2.25ZM20.125 14.0313C20.125 14.139 20.0822 14.2423 20.006 14.3185C19.9298 14.3947 19.8265 14.4375 19.7188 14.4375H4.28125C4.17351 14.4375 4.07017 14.3947 3.99399 14.3185C3.9178 14.2423 3.875 14.139 3.875 14.0313V4.28125C3.875 4.17351 3.9178 4.07017 3.99399 3.99399C4.07017 3.9178 4.17351 3.875 4.28125 3.875H19.7188C19.8265 3.875 19.9298 3.9178 20.006 3.99399C20.0822 4.07017 20.125 4.17351 20.125 4.28125V14.0313Z" />
<path d="M10.375 10.7325C10.4064 10.7038 10.4337 10.671 10.4563 10.635L12.6419 7.60441C12.7051 7.51806 12.7506 7.42009 12.7758 7.31612C12.801 7.21214 12.8054 7.10421 12.7888 6.99853C12.7722 6.89284 12.7349 6.79147 12.679 6.70024C12.6231 6.60901 12.5498 6.52971 12.4631 6.46691C12.3763 6.40415 12.2779 6.35919 12.1736 6.33461C12.0694 6.31003 11.9612 6.30632 11.8555 6.32368C11.7498 6.34105 11.6485 6.37916 11.5576 6.43581C11.4667 6.49246 11.3878 6.56654 11.3256 6.65378L9.70065 8.92878C9.67001 8.96859 9.6262 8.99618 9.57706 9.00661C9.52792 9.01703 9.47668 9.0096 9.43252 8.98566L8.20565 8.24628C8.03 8.14107 7.8211 8.10605 7.62074 8.14823C7.42038 8.19041 7.24334 8.30668 7.12502 8.47378L5.24002 11.1225C5.11504 11.2992 5.06537 11.5183 5.10194 11.7317C5.13851 11.945 5.25832 12.135 5.43502 12.26C5.61172 12.385 5.83083 12.4347 6.04416 12.3981C6.25748 12.3615 6.44754 12.2417 6.57252 12.065L7.93752 10.18C7.96574 10.1372 8.00971 10.1072 8.0599 10.0965C8.11009 10.0859 8.16246 10.0955 8.20565 10.1232L9.43252 10.8544C9.58253 10.9356 9.75429 10.9675 9.92345 10.9456C10.0926 10.9238 10.2506 10.8492 10.375 10.7325Z" />
<path d="M15.25 5.49992H14.4375C14.2131 5.49992 14.0312 5.68181 14.0312 5.90617V11.5937C14.0312 11.818 14.2131 11.9999 14.4375 11.9999H15.25C15.4743 11.9999 15.6562 11.818 15.6562 11.5937V5.90617C15.6562 5.68181 15.4743 5.49992 15.25 5.49992Z" />
<path d="M18.0938 7.12488H17.2813C17.0569 7.12488 16.875 7.30677 16.875 7.53113V11.5936C16.875 11.818 17.0569 11.9999 17.2813 11.9999H18.0938C18.3181 11.9999 18.5 11.818 18.5 11.5936V7.53113C18.5 7.30677 18.3181 7.12488 18.0938 7.12488Z" />
</svg>
