<!-- character:1903:991 -->
  <svg width="20" height="20" viewBox="0 0 20 20" >
<path d="M11.6157 15.9675C11.5858 15.932 11.5491 15.9028 11.5078 15.8815C11.4665 15.8603 11.4214 15.8474 11.3751 15.8438H8.62507C8.57539 15.8455 8.52658 15.8574 8.48165 15.8786C8.43672 15.8999 8.39662 15.9302 8.36382 15.9675L6.92007 17.7069C6.88653 17.7605 6.86874 17.8224 6.86874 17.8857C6.86874 17.9489 6.88653 18.0108 6.92007 18.0644C6.94938 18.1255 6.99676 18.176 7.0558 18.2093C7.11484 18.2425 7.18266 18.2567 7.25007 18.25H12.7501C12.8124 18.2481 12.873 18.2295 12.9258 18.1963C12.9785 18.1631 13.0215 18.1164 13.0502 18.0611C13.0789 18.0058 13.0924 17.9438 13.0892 17.8815C13.086 17.8193 13.0662 17.759 13.0319 17.7069L11.6157 15.9675Z" />
<path d="M17.2188 1.75H2.78125C2.50775 1.75 2.24544 1.85865 2.05205 2.05205C1.85865 2.24544 1.75 2.50775 1.75 2.78125V13.7812C1.75 14.0548 1.85865 14.3171 2.05205 14.5105C2.24544 14.7038 2.50775 14.8125 2.78125 14.8125H17.2188C17.4923 14.8125 17.7546 14.7038 17.948 14.5105C18.1413 14.3171 18.25 14.0548 18.25 13.7812V2.78125C18.25 2.50775 18.1413 2.24544 17.948 2.05205C17.7546 1.85865 17.4923 1.75 17.2188 1.75ZM16.875 11.7188C16.875 11.8099 16.8388 11.8974 16.7743 11.9618C16.7099 12.0263 16.6224 12.0625 16.5312 12.0625H3.46875C3.37758 12.0625 3.29015 12.0263 3.22568 11.9618C3.16122 11.8974 3.125 11.8099 3.125 11.7188V3.46875C3.125 3.37758 3.16122 3.29015 3.22568 3.22568C3.29015 3.16122 3.37758 3.125 3.46875 3.125H16.5312C16.6224 3.125 16.7099 3.16122 16.7743 3.22568C16.8388 3.29015 16.875 3.37758 16.875 3.46875V11.7188Z" />
<path d="M8.62502 8.92753C8.65155 8.90325 8.67468 8.8755 8.69377 8.84503L10.5431 6.28065C10.5966 6.20759 10.6351 6.12469 10.6564 6.03671C10.6778 5.94874 10.6815 5.85741 10.6674 5.76798C10.6534 5.67855 10.6218 5.59278 10.5745 5.51559C10.5272 5.43839 10.4652 5.3713 10.3919 5.31815C10.3184 5.26505 10.2352 5.22701 10.1469 5.20621C10.0587 5.18541 9.9672 5.18227 9.87774 5.19696C9.78829 5.21166 9.70262 5.2439 9.62567 5.29184C9.54873 5.33978 9.48202 5.40246 9.42939 5.47628L8.05439 7.40128C8.02847 7.43496 7.9914 7.45831 7.94982 7.46713C7.90824 7.47595 7.86488 7.46966 7.82752 7.4494L6.78939 6.82378C6.64077 6.73475 6.46401 6.70512 6.29447 6.74081C6.12494 6.7765 5.97513 6.87488 5.87502 7.01628L4.28002 9.25753C4.17426 9.40704 4.13223 9.59245 4.16318 9.77295C4.19412 9.95345 4.2955 10.1143 4.44502 10.22C4.59453 10.3258 4.77994 10.3678 4.96044 10.3369C5.14094 10.3059 5.30176 10.2045 5.40752 10.055L6.56252 8.46003C6.5864 8.42377 6.6236 8.39839 6.66607 8.38938C6.70854 8.38037 6.75285 8.38846 6.78939 8.4119L7.82752 9.03065C7.95445 9.09935 8.09978 9.12636 8.24292 9.10785C8.38605 9.08934 8.51974 9.02625 8.62502 8.92753Z" />
<path d="M12.75 4.49993H12.0625C11.8726 4.49993 11.7187 4.65384 11.7187 4.84368V9.65618C11.7187 9.84603 11.8726 9.99993 12.0625 9.99993H12.75C12.9398 9.99993 13.0937 9.84603 13.0937 9.65618V4.84368C13.0937 4.65384 12.9398 4.49993 12.75 4.49993Z" />
<path d="M15.1563 5.8749H14.4688C14.2789 5.8749 14.125 6.0288 14.125 6.21865V9.65615C14.125 9.846 14.2789 9.9999 14.4688 9.9999H15.1563C15.3461 9.9999 15.5 9.846 15.5 9.65615V6.21865C15.5 6.0288 15.3461 5.8749 15.1563 5.8749Z" />
</svg>