<!--character:4593-->
  <svg width="20" height="20" viewBox="0 0 20 20" >
<path d="M10.8314 17.8461L2.39673 9.56113C1.95563 9.0876 1.69855 8.47183 1.67201 7.82522L1.66699 3.17394C1.66699 2.38292 2.30824 1.74167 3.09926 1.74167H7.7484C8.38436 1.76562 8.99116 2.01458 9.46067 2.4442C9.47404 2.45615 9.48602 2.4688 9.49866 2.48214L9.49934 2.48287L17.9053 10.7499C18.1778 11.0177 18.332 11.3833 18.3336 11.7654C18.3353 12.1475 18.1841 12.5143 17.9139 12.7844L12.8544 17.8425C12.3009 18.3963 11.4053 18.403 10.8435 17.8575L10.8314 17.8461ZM5.96379 4.96427C5.37053 4.96427 4.88959 5.44521 4.88959 6.03847C4.88959 6.63173 5.37053 7.11267 5.96379 7.11267C6.55706 7.11267 7.03799 6.63173 7.03799 6.03847C7.03799 5.44521 6.55706 4.96427 5.96379 4.96427Z" />
</svg>