<!-- character:1249:991 -->
  <svg width="20" height="20" viewBox="0 0 20 20" >
<path   d="M16.4347 7.73009L17.7666 8.80276L17.7651 8.80494C18.1233 9.09312 18.3317 9.52847 18.3317 9.98866C18.3317 10.4488 18.1233 10.8842 17.7651 11.1724L16.4332 12.2451C16.2221 12.4144 16.1126 12.6806 16.1434 12.9498L16.3282 14.6524C16.3784 15.1102 16.2184 15.5661 15.8932 15.8917C15.568 16.2172 15.1128 16.3773 14.6557 16.3267L12.9564 16.1417C12.6878 16.1119 12.4225 16.2213 12.2528 16.432L11.1818 17.7659C10.8941 18.1247 10.4594 18.3334 9.9999 18.3334C9.54043 18.3334 9.10575 18.1247 8.81802 17.7659L7.74556 16.4298C7.57592 16.219 7.31059 16.1095 7.04193 16.1395L5.34193 16.3246C4.88486 16.3749 4.42968 16.2147 4.1046 15.8889C3.77952 15.5632 3.61972 15.1073 3.67019 14.6495L3.85498 12.9476C3.88544 12.6784 3.77603 12.4124 3.56512 12.2429L2.23324 11.1702C1.87502 10.882 1.66663 10.4467 1.66663 9.98648C1.66663 9.5263 1.87502 9.09095 2.23324 8.80276L3.56657 7.72936C3.77759 7.55988 3.88703 7.29382 3.85642 7.02465L3.67164 5.32273C3.62136 4.86495 3.78137 4.40907 4.10659 4.08348C4.43181 3.7579 4.88705 3.59785 5.34411 3.6484L7.04338 3.83129C7.31215 3.86208 7.57787 3.75245 7.747 3.54099L8.81802 2.20776C9.11491 1.86418 9.54622 1.66675 9.9999 1.66675C10.4536 1.66675 10.8849 1.86418 11.1818 2.20776L12.2528 3.54099C12.4225 3.75166 12.6878 3.8611 12.9564 3.83129L14.6579 3.6484C15.1149 3.59804 15.5701 3.7583 15.8952 4.08402C16.2203 4.40975 16.3801 4.8657 16.3296 5.32346L16.1448 7.02537C16.1149 7.29444 16.2242 7.56019 16.4347 7.73009ZM7.55831 13.2041C7.40727 13.2041 7.25962 13.1593 7.13403 13.0754C7.00845 12.9915 6.91055 12.8722 6.85272 12.7327C6.79489 12.5931 6.77972 12.4396 6.80912 12.2914C6.83853 12.1433 6.91119 12.0072 7.01793 11.9003L11.8905 7.0277C11.961 6.95474 12.0453 6.89654 12.1385 6.8565C12.2317 6.81646 12.332 6.79538 12.4334 6.7945C12.5348 6.79362 12.6354 6.81295 12.7293 6.85136C12.8232 6.88978 12.9085 6.9465 12.9802 7.01823C13.052 7.08996 13.1087 7.17526 13.1471 7.26915C13.1855 7.36304 13.2049 7.46364 13.204 7.56508C13.2031 7.66652 13.182 7.76677 13.142 7.85997C13.1019 7.95318 13.0437 8.03748 12.9708 8.10795L8.09818 12.9805C8.02739 13.0516 7.94324 13.1079 7.85058 13.1463C7.75793 13.1846 7.6586 13.2043 7.55831 13.2041ZM8.99458 7.90335C8.99458 8.51093 8.50204 9.00347 7.89446 9.00347C7.28689 9.00347 6.79435 8.51093 6.79435 7.90335C6.79435 7.29577 7.28689 6.80324 7.89446 6.80324C8.50204 6.80324 8.99458 7.29577 8.99458 7.90335ZM13.1943 12.1039C13.1943 12.7115 12.7018 13.204 12.0942 13.204C11.4867 13.204 10.9941 12.7115 10.9941 12.1039C10.9941 11.4963 11.4867 11.0038 12.0942 11.0038C12.7018 11.0038 13.1943 11.4963 13.1943 12.1039Z" />
</svg>