<!--character:6728-->
  <svg width="24" height="24" viewBox="0 0 24 24" >
<path d="M19.7217 9.27601L21.3199 10.5632L21.3182 10.5658C21.748 10.9117 21.9981 11.4341 21.9981 11.9863C21.9981 12.5385 21.748 13.0609 21.3182 13.4068L19.7199 14.694C19.4666 14.8972 19.3352 15.2166 19.3721 15.5396L19.5938 17.5828C19.6542 18.1321 19.4622 18.6792 19.0719 19.0699C18.6816 19.4606 18.1353 19.6527 17.5869 19.592L15.5477 19.3699C15.2254 19.3341 14.9071 19.4655 14.7034 19.7183L13.4182 21.319C13.0729 21.7495 12.5513 22 11.9999 22C11.4486 22 10.9269 21.7495 10.5817 21.319L9.2947 19.7157C9.09114 19.4627 8.77274 19.3314 8.45036 19.3673L6.41036 19.5894C5.86187 19.6498 5.31565 19.4575 4.92556 19.0666C4.53546 18.6758 4.3437 18.1286 4.40427 17.5793L4.62601 15.537C4.66256 15.214 4.53127 14.8948 4.27818 14.6914L2.67992 13.4041C2.25006 13.0583 1.99999 12.5359 1.99999 11.9837C1.99999 11.4315 2.25006 10.909 2.67992 10.5632L4.27992 9.27514C4.53315 9.07177 4.66447 8.75249 4.62775 8.42948L4.40601 6.38719C4.34567 5.83785 4.53768 5.29079 4.92794 4.90009C5.31821 4.50939 5.8645 4.31732 6.41296 4.37799L8.45209 4.59746C8.77462 4.63441 9.09349 4.50285 9.29644 4.24909L10.5817 2.64922C10.9379 2.23692 11.4555 2.00001 11.9999 2.00001C12.5443 2.00001 13.0619 2.23692 13.4182 2.64922L14.7034 4.24909C14.9071 4.5019 15.2254 4.63323 15.5477 4.59746L17.5895 4.37799C18.138 4.31756 18.6842 4.50986 19.0743 4.90073C19.4644 5.2916 19.6561 5.83875 19.5956 6.38806L19.3738 8.43036C19.3379 8.75324 19.4691 9.07213 19.7217 9.27601ZM9.07001 15.8449C9.19036 15.8451 9.30955 15.8215 9.42074 15.7754C9.53192 15.7294 9.6329 15.6618 9.71786 15.5766L15.565 9.72945C15.6525 9.64489 15.7224 9.54373 15.7704 9.43188C15.8185 9.32003 15.8437 9.19973 15.8448 9.078C15.8459 8.95628 15.8227 8.83556 15.7766 8.72289C15.7305 8.61022 15.6624 8.50787 15.5763 8.42179C15.4902 8.33571 15.3879 8.26764 15.2752 8.22154C15.1626 8.17545 15.0418 8.15225 14.9201 8.15331C14.7984 8.15437 14.6781 8.17966 14.5662 8.22771C14.4544 8.27575 14.3532 8.34559 14.2687 8.43315L8.42156 14.2803C8.29347 14.4085 8.20627 14.5718 8.17099 14.7496C8.1357 14.9274 8.15391 15.1117 8.2233 15.2791C8.2927 15.4465 8.41017 15.5897 8.56088 15.6904C8.71158 15.7911 8.88876 15.8448 9.07001 15.8449ZM10.7935 9.48393C10.7935 8.75484 10.2025 8.16379 9.47339 8.16379C8.7443 8.16379 8.15326 8.75484 8.15326 9.48393C8.15326 10.213 8.7443 10.8041 9.47339 10.8041C10.2025 10.8041 10.7935 10.213 10.7935 9.48393ZM15.8332 14.5246C15.8332 13.7955 15.2422 13.2044 14.5131 13.2044C13.784 13.2044 13.193 13.7955 13.193 14.5246C13.193 15.2537 13.784 15.8447 14.5131 15.8447C15.2422 15.8447 15.8332 15.2537 15.8332 14.5246Z" />
</svg>