<!--character:E206-->
<svg width="24" height="24" viewBox="0 0 24 24" xmlns="http://www.w3.org/2000/svg">
  <path d="M19.7217 9.27601L21.3199 10.5632L21.3182 10.5658C21.7481 10.9117 21.9981 11.4341 21.9981 11.9863C21.9981 12.5385 21.7481 13.0609 21.3182 13.4068L19.7199 14.694C19.4666 14.8972 19.3352 15.2166 19.3721 15.5396L19.5938 17.5828C19.6542 18.1321 19.4622 18.6792 19.0719 19.0699C18.6816 19.4606 18.1354 19.6527 17.5869 19.592L15.5478 19.3699C15.2254 19.3341 14.9071 19.4655 14.7034 19.7183L13.4182 21.319C13.0729 21.7495 12.5513 22 11.9999 22C11.4486 22 10.927 21.7495 10.5817 21.319L9.29472 19.7157C9.09115 19.4627 8.77275 19.3314 8.45037 19.3673L6.41037 19.5894C5.86188 19.6498 5.31567 19.4575 4.92557 19.0666C4.53547 18.6758 4.34371 18.1286 4.40428 17.5793L4.62602 15.537C4.66257 15.214 4.53128 14.8948 4.27819 14.6914L2.67993 13.4041C2.25007 13.0583 2 12.5359 2 11.9837C2 11.4315 2.25007 10.909 2.67993 10.5632L4.27993 9.27514C4.53316 9.07176 4.66448 8.75248 4.62776 8.42948L4.40602 6.38718C4.34568 5.83784 4.53769 5.29078 4.92795 4.90008C5.31822 4.50938 5.86451 4.31732 6.41298 4.37798L8.45211 4.59745C8.77463 4.6344 9.0935 4.50284 9.29645 4.24909L10.5817 2.64922C10.9379 2.23692 11.4555 2 11.9999 2C12.5444 2 13.0619 2.23692 13.4182 2.64922L14.7034 4.24909C14.9071 4.50189 15.2254 4.63323 15.5478 4.59745L17.5895 4.37798C18.138 4.31755 18.6842 4.50986 19.0743 4.90073C19.4644 5.2916 19.6562 5.83874 19.5956 6.38805L19.3738 8.43035C19.338 8.75323 19.4691 9.07213 19.7217 9.27601ZM9.07002 15.8449C9.19037 15.8451 9.30956 15.8215 9.42075 15.7754C9.53193 15.7294 9.63291 15.6618 9.71787 15.5766L15.565 9.72945C15.6525 9.64488 15.7224 9.54372 15.7704 9.43187C15.8185 9.32002 15.8438 9.19973 15.8448 9.078C15.8459 8.95627 15.8227 8.83555 15.7766 8.72289C15.7305 8.61022 15.6624 8.50786 15.5763 8.42178C15.4903 8.33571 15.3879 8.26763 15.2752 8.22154C15.1626 8.17544 15.0419 8.15225 14.9201 8.1533C14.7984 8.15436 14.6781 8.17965 14.5663 8.2277C14.4544 8.27575 14.3532 8.34559 14.2687 8.43315L8.42157 14.2803C8.29348 14.4085 8.20629 14.5718 8.171 14.7496C8.13571 14.9274 8.15392 15.1117 8.22331 15.2791C8.29271 15.4465 8.41018 15.5897 8.56089 15.6904C8.7116 15.7911 8.88877 15.8448 9.07002 15.8449ZM10.7935 9.48392C10.7935 8.75483 10.2025 8.16379 9.47341 8.16379C8.74432 8.16379 8.15327 8.75483 8.15327 9.48392C8.15327 10.213 8.74432 10.8041 9.47341 10.8041C10.2025 10.8041 10.7935 10.213 10.7935 9.48392ZM15.8333 14.5246C15.8333 13.7955 15.2422 13.2044 14.5131 13.2044C13.784 13.2044 13.193 13.7955 13.193 14.5246C13.193 15.2537 13.784 15.8447 14.5131 15.8447C15.2422 15.8447 15.8333 15.2537 15.8333 14.5246Z" />
</svg>
