<!--character:2246-->
  <svg width="24" height="24" viewBox="0 0 24 24" >
<path d="M19.7221 9.276L21.3203 10.5632L21.3186 10.5658C21.7484 10.9116 21.9985 11.4341 21.9985 11.9863C21.9985 12.5385 21.7484 13.0609 21.3186 13.4068L19.7203 14.694C19.467 14.8972 19.3356 15.2166 19.3725 15.5396L19.5942 17.5828C19.6546 18.1321 19.4626 18.6792 19.0723 19.0699C18.682 19.4606 18.1357 19.6527 17.5873 19.592L15.5482 19.3699C15.2258 19.3341 14.9075 19.4655 14.7038 19.7183L13.4186 21.319C13.0733 21.7495 12.5517 22 12.0003 22C11.449 22 10.9273 21.7495 10.5821 21.319L9.29511 19.7157C9.09154 19.4627 8.77314 19.3314 8.45076 19.3673L6.41076 19.5894C5.86227 19.6498 5.31606 19.4575 4.92596 19.0666C4.53586 18.6758 4.3441 18.1286 4.40467 17.5793L4.62641 15.537C4.66296 15.214 4.53167 14.8948 4.27858 14.6913L2.68032 13.4041C2.25046 13.0583 2.00039 12.5359 2.00039 11.9837C2.00039 11.4315 2.25046 10.909 2.68032 10.5632L4.28032 9.27513C4.53355 9.07176 4.66487 8.75248 4.62815 8.42948L4.40641 6.38718C4.34607 5.83784 4.53808 5.29078 4.92834 4.90008C5.31861 4.50938 5.8649 4.31731 6.41337 4.37798L8.4525 4.59745C8.77502 4.6344 9.09389 4.50284 9.29685 4.24909L10.5821 2.64922C10.9383 2.23691 11.4559 2 12.0003 2C12.5447 2 13.0623 2.23691 13.4186 2.64922L14.7038 4.24909C14.9075 4.50189 15.2258 4.63323 15.5482 4.59745L17.5899 4.37798C18.1384 4.31755 18.6846 4.50985 19.0747 4.90072C19.4648 5.29159 19.6565 5.83874 19.596 6.38805L19.3742 8.43035C19.3384 8.75323 19.4695 9.07212 19.7221 9.276ZM9.07041 15.8449C9.19076 15.8451 9.30995 15.8215 9.42114 15.7754C9.53232 15.7294 9.6333 15.6618 9.71826 15.5766L15.5654 9.72944C15.6529 9.64488 15.7228 9.54372 15.7708 9.43187C15.8189 9.32002 15.8442 9.19972 15.8452 9.078C15.8463 8.95627 15.8231 8.83555 15.777 8.72288C15.7309 8.61022 15.6628 8.50786 15.5767 8.42178C15.4907 8.3357 15.3883 8.26763 15.2756 8.22154C15.163 8.17544 15.0422 8.15224 14.9205 8.1533C14.7988 8.15436 14.6785 8.17965 14.5666 8.2277C14.4548 8.27574 14.3536 8.34558 14.2691 8.43314L8.42196 14.2803C8.29387 14.4085 8.20668 14.5718 8.17139 14.7496C8.1361 14.9274 8.15431 15.1117 8.2237 15.2791C8.2931 15.4465 8.41058 15.5897 8.56128 15.6904C8.71199 15.7911 8.88916 15.8448 9.07041 15.8449ZM10.7939 9.48392C10.7939 8.75483 10.2029 8.16378 9.4738 8.16378C8.74471 8.16378 8.15366 8.75483 8.15366 9.48392C8.15366 10.213 8.74471 10.8041 9.4738 10.8041C10.2029 10.8041 10.7939 10.213 10.7939 9.48392ZM15.8336 14.5246C15.8336 13.7955 15.2426 13.2044 14.5135 13.2044C13.7844 13.2044 13.1934 13.7955 13.1934 14.5246C13.1934 15.2536 13.7844 15.8447 14.5135 15.8447C15.2426 15.8447 15.8336 15.2536 15.8336 14.5246Z" />
</svg>