<!--character:7369-->
  <svg width="24" height="24" viewBox="0 0 24 24" >
<path d="M19.5286 9.34411L21.0869 10.5991L21.0852 10.6017C21.5044 10.9389 21.7482 11.4482 21.7482 11.9866C21.7482 12.5251 21.5044 13.0344 21.0852 13.3716L19.5269 14.6266C19.2799 14.8248 19.1518 15.1362 19.1878 15.4511L19.404 17.4432C19.4628 17.9788 19.2756 18.5122 18.8951 18.8931C18.5146 19.2741 17.982 19.4613 17.4472 19.4022L15.4591 19.1857C15.1448 19.1508 14.8344 19.2788 14.6358 19.5253L13.3827 21.086C13.0461 21.5058 12.5375 21.75 11.9999 21.75C11.4624 21.75 10.9538 21.5058 10.6171 21.086L9.36235 19.5228C9.16387 19.2762 8.85343 19.1481 8.53911 19.1831L6.55011 19.3996C6.01533 19.4586 5.48277 19.2711 5.10243 18.89C4.72209 18.5089 4.53511 17.9754 4.59417 17.4398L4.81037 15.4486C4.84601 15.1337 4.718 14.8225 4.47124 14.6241L2.91293 13.369C2.49382 13.0319 2.25 12.5225 2.25 11.9841C2.25 11.4457 2.49382 10.9363 2.91293 10.5991L4.47293 9.34326C4.71983 9.14497 4.84787 8.83367 4.81206 8.51874L4.59587 6.5275C4.53704 5.9919 4.72425 5.45851 5.10475 5.07758C5.48526 4.69665 6.0179 4.50938 6.55265 4.56853L8.5408 4.78252C8.85527 4.81854 9.16616 4.69027 9.36404 4.44286L10.6171 2.88299C10.9645 2.48099 11.4691 2.25 11.9999 2.25C12.5307 2.25 13.0354 2.48099 13.3827 2.88299L14.6358 4.44286C14.8344 4.68935 15.1448 4.8174 15.4591 4.78252L17.4498 4.56853C17.9845 4.50962 18.5171 4.69711 18.8974 5.07821C19.2778 5.45931 19.4648 5.99277 19.4057 6.52835L19.1895 8.51959C19.1545 8.8344 19.2824 9.14532 19.5286 9.34411ZM9.14327 15.7487C9.26061 15.7489 9.37682 15.7259 9.48523 15.681C9.59364 15.6361 9.69209 15.5702 9.77492 15.4871L15.4759 9.78621C15.5612 9.70376 15.6293 9.60513 15.6762 9.49607C15.723 9.38702 15.7477 9.26973 15.7487 9.15105C15.7497 9.03236 15.7271 8.91466 15.6822 8.80481C15.6372 8.69496 15.5709 8.59516 15.4869 8.51124C15.403 8.42731 15.3032 8.36094 15.1934 8.316C15.0835 8.27106 14.9658 8.24844 14.8471 8.24947C14.7284 8.2505 14.6111 8.27516 14.5021 8.32201C14.393 8.36885 14.2944 8.43695 14.212 8.52232L8.51103 14.2232C8.38615 14.3483 8.30113 14.5075 8.26672 14.6809C8.23232 14.8542 8.25007 15.0339 8.31773 15.1971C8.38539 15.3604 8.49993 15.4999 8.64687 15.5981C8.79381 15.6963 8.96655 15.7487 9.14327 15.7487ZM10.8237 9.54683C10.8237 8.83596 10.2474 8.25969 9.53657 8.25969C8.82571 8.25969 8.24944 8.83596 8.24944 9.54683C8.24944 10.2577 8.82571 10.834 9.53657 10.834C10.2474 10.834 10.8237 10.2577 10.8237 9.54683ZM15.7374 14.4614C15.7374 13.7506 15.1612 13.1743 14.4503 13.1743C13.7394 13.1743 13.1632 13.7506 13.1632 14.4614C13.1632 15.1723 13.7394 15.7486 14.4503 15.7486C15.1612 15.7486 15.7374 15.1723 15.7374 14.4614Z" />
</svg>