<!-- character:0:2347 -->
  <svg width="20" height="20" viewBox="0 0 20 20" >
<path   d="M10.831 17.8461L2.39637 9.56116C1.95526 9.08763 1.69818 8.47186 1.67164 7.82525L1.66663 3.17397C1.66663 2.38295 2.30787 1.7417 3.09889 1.7417H7.74803C8.38399 1.76565 8.99079 2.01461 9.46031 2.44423C9.47367 2.45618 9.48565 2.46883 9.49829 2.48217L9.49898 2.4829L17.905 10.7499C18.1775 11.0178 18.3317 11.3833 18.3333 11.7654C18.3349 12.1475 18.1838 12.5144 17.9135 12.7845L12.8541 17.8425C12.3006 18.3964 11.4049 18.4031 10.8432 17.8576L10.831 17.8461ZM5.96343 4.9643C5.37016 4.9643 4.88923 5.44524 4.88923 6.0385C4.88923 6.63176 5.37016 7.1127 5.96343 7.1127C6.55669 7.1127 7.03763 6.63176 7.03763 6.0385C7.03763 5.44524 6.55669 4.9643 5.96343 4.9643Z" />
</svg>