<!--character:7993-->
  <svg width="20" height="20" viewBox="0 0 20 20" >
<path d="M16.4351 7.73L17.7669 8.80268L17.7655 8.80486C18.1237 9.09304 18.3321 9.52839 18.3321 9.98857C18.3321 10.4488 18.1237 10.8841 17.7655 11.1723L16.4336 12.245C16.2225 12.4144 16.113 12.6805 16.1437 12.9497L16.3285 14.6523C16.3788 15.1101 16.2188 15.566 15.8936 15.8916C15.5684 16.2172 15.1131 16.3772 14.6561 16.3267L12.9568 16.1416C12.6882 16.1118 12.4229 16.2212 12.2532 16.4319L11.1822 17.7658C10.8944 18.1246 10.4597 18.3333 10.0003 18.3333C9.5408 18.3333 9.10612 18.1246 8.81839 17.7658L7.74592 16.4297C7.57628 16.2189 7.31095 16.1095 7.0423 16.1394L5.3423 16.3245C4.88522 16.3748 4.43005 16.2146 4.10497 15.8889C3.77989 15.5631 3.62008 15.1072 3.67056 14.6494L3.85534 12.9475C3.8858 12.6784 3.77639 12.4124 3.56549 12.2428L2.2336 11.1701C1.87538 10.8819 1.66699 10.4466 1.66699 9.9864C1.66699 9.52621 1.87538 9.09086 2.2336 8.80268L3.56694 7.72928C3.77796 7.5598 3.88739 7.29373 3.85679 7.02456L3.67201 5.32265C3.62173 4.86487 3.78173 4.40898 4.10695 4.0834C4.43217 3.75782 4.88742 3.59776 5.34447 3.64832L7.04375 3.83121C7.31252 3.862 7.57824 3.75237 7.74737 3.5409L8.81839 2.20768C9.11528 1.8641 9.54658 1.66666 10.0003 1.66666C10.454 1.66666 10.8853 1.8641 11.1822 2.20768L12.2532 3.5409C12.4229 3.75158 12.6882 3.86102 12.9568 3.83121L14.6582 3.64832C15.1153 3.59796 15.5705 3.75821 15.8956 4.08394C16.2207 4.40966 16.3805 4.86561 16.33 5.32338L16.1452 7.02529C16.1153 7.29436 16.2246 7.5601 16.4351 7.73ZM7.55868 13.204C7.65897 13.2042 7.7583 13.1846 7.85095 13.1462C7.9436 13.1078 8.02775 13.0515 8.09855 12.9805L12.9711 8.10787C13.0441 8.0374 13.1023 7.9531 13.1423 7.85989C13.1824 7.76668 13.2035 7.66644 13.2043 7.565C13.2052 7.46356 13.1859 7.36296 13.1475 7.26907C13.1091 7.17518 13.0523 7.08988 12.9806 7.01815C12.9089 6.94642 12.8236 6.88969 12.7297 6.85128C12.6358 6.81287 12.5352 6.79354 12.4338 6.79442C12.3323 6.7953 12.2321 6.81637 12.1389 6.85641C12.0457 6.89645 11.9614 6.95465 11.8909 7.02762L7.0183 11.9002C6.91156 12.0071 6.8389 12.1432 6.80949 12.2913C6.78009 12.4395 6.79526 12.593 6.85309 12.7326C6.91092 12.8721 7.00881 12.9914 7.1344 13.0753C7.25999 13.1592 7.40763 13.204 7.55868 13.204ZM8.99494 7.90327C8.99494 7.29569 8.50241 6.80315 7.89483 6.80315C7.28726 6.80315 6.79472 7.29569 6.79472 7.90327C6.79472 8.51084 7.28726 9.00338 7.89483 9.00338C8.50241 9.00338 8.99494 8.51084 8.99494 7.90327ZM13.1947 12.1038C13.1947 11.4962 12.7022 11.0037 12.0946 11.0037C11.487 11.0037 10.9945 11.4962 10.9945 12.1038C10.9945 12.7114 11.487 13.2039 12.0946 13.2039C12.7022 13.2039 13.1947 12.7114 13.1947 12.1038Z" />
</svg>