<!--character:6765-->
  <svg width="24" height="24" viewBox="0 0 24 24" >
<path d="M12.9972 21.4154L2.87569 11.4734C2.34636 10.9052 2.03787 10.1663 2.00602 9.39035L2 3.80881C2 2.85959 2.7695 2.09009 3.71872 2.09009H9.29769C10.0608 2.11883 10.789 2.41758 11.3524 2.93312C11.3685 2.94747 11.3828 2.96265 11.398 2.97865L11.3988 2.97953L21.486 12.9C21.813 13.2214 21.998 13.6601 22 14.1186C22.0019 14.577 21.8206 15.0173 21.4963 15.3414L15.4249 21.4111C14.7607 22.0757 13.6859 22.0837 13.0118 21.4291L12.9972 21.4154ZM7.15618 5.95721C6.44426 5.95721 5.86714 6.53433 5.86714 7.24625C5.86714 7.95817 6.44426 8.53529 7.15618 8.53529C7.86809 8.53529 8.44522 7.95817 8.44522 7.24625C8.44522 6.53433 7.86809 5.95721 7.15618 5.95721Z" />
</svg>