<!--character:E158-->
<!--added:0.23-->
<svg width="24" height="24" viewBox="0 0 24 24" xmlns="http://www.w3.org/2000/svg"><path d="M14.6316 19.1058h-1.3158a.2632.2632 0 0 1-.2632-.2632v-.5273a.2632.2632 0 0 1 .2632-.2632h6.579c1.1626 0 2.1052-.9426 2.1052-2.1053V4.8953c0-1.1627-.9426-2.1053-2.1053-2.1053H4.1053C2.9426 2.79 2 3.7326 2 4.8953v11.0526c0 1.1627.9426 2.1053 2.1053 2.1053h6.579c.1448 0 .2625.1171.263.262v.5264a.2632.2632 0 0 1-.263.2631H9.3683c-.5813 0-1.0526.4713-1.0526 1.0527 0 .5813.4713 1.0526 1.0526 1.0526h5.2632c.5813 0 1.0526-.4713 1.0526-1.0526 0-.5814-.4713-1.0527-1.0526-1.0527v.001zM4.1053 15.4216v-10a.5263.5263 0 0 1 .5263-.5263h14.7368a.5263.5263 0 0 1 .5263.5263v10a.5263.5263 0 0 1-.5263.5263H4.6316a.5263.5263 0 0 1-.5263-.5263z"/></svg>