<!-- character:0:610 -->
  <svg width="20" height="20" viewBox="0 0 20 20" >
<path   d="M6.52498 1.66675H13.4694C14.62 1.66675 15.5528 2.59949 15.5528 3.75008V16.2501C15.5528 17.4007 14.62 18.3334 13.4694 18.3334H6.52498C5.37439 18.3334 4.44165 17.4007 4.44165 16.2501V3.75008C4.44165 2.59949 5.37439 1.66675 6.52498 1.66675ZM5.83054 4.0973V14.8612C5.83054 15.053 5.986 15.2084 6.17776 15.2084H13.8167C14.0084 15.2084 14.1639 15.053 14.1639 14.8612V4.0973C14.1639 3.90554 14.0084 3.75008 13.8167 3.75008H6.17776C5.986 3.75008 5.83054 3.90554 5.83054 4.0973Z" />
</svg>