<!--character:2738-->
  <svg width="24" height="24" viewBox="0 0 24 24" >
<path d="M7.83008 2H16.1634C17.5441 2 18.6634 3.11929 18.6634 4.5V19.5C18.6634 20.8807 17.5441 22 16.1634 22H7.83008C6.44937 22 5.33008 20.8807 5.33008 19.5V4.5C5.33008 3.11929 6.44937 2 7.83008 2ZM6.99677 4.91667V17.8333C6.99677 18.0635 7.18331 18.25 7.41343 18.25H16.5801C16.8102 18.25 16.9968 18.0635 16.9968 17.8333V4.91667C16.9968 4.68655 16.8102 4.5 16.5801 4.5H7.41343C7.18331 4.5 6.99677 4.68655 6.99677 4.91667Z" />
</svg>