<!--character:3504-->
  <svg width="24" height="24" viewBox="0 0 24 24" >
<path d="M13.3156 19.1058H14.6314C15.2127 19.1058 15.684 19.576 15.684 20.1574C15.684 20.7387 15.2127 21.21 14.6314 21.21H9.36823C8.78687 21.21 8.31559 20.7387 8.31559 20.1574C8.31559 19.576 8.78687 19.1047 9.36823 19.1047H10.684C10.8294 19.1047 10.9472 18.9869 10.9472 18.8416V18.3153C10.9466 18.1703 10.8289 18.0532 10.684 18.0532H4.10507C2.94236 18.0532 1.9998 17.1106 1.9998 15.9479V4.89526C1.9998 3.73255 2.94236 2.79 4.10507 2.79H19.8945C21.0572 2.79 21.9998 3.73255 21.9998 4.89526V15.9468C21.9998 17.1095 21.0572 18.0521 19.8945 18.0521H13.3156C13.1703 18.0521 13.0524 18.1699 13.0524 18.3153V18.8426C13.0524 18.988 13.1703 19.1058 13.3156 19.1058ZM4.10507 5.42157V15.4216C4.10507 15.5612 4.16052 15.695 4.25922 15.7937C4.35793 15.8924 4.4918 15.9479 4.63138 15.9479H19.3682C19.6589 15.9479 19.8945 15.7123 19.8945 15.4216V5.42157C19.8945 5.1309 19.6589 4.89526 19.3682 4.89526H4.63138C4.34071 4.89526 4.10507 5.1309 4.10507 5.42157Z" />
</svg>