<!--character:3069-->
  <svg width="24" height="24" viewBox="0 0 24 24" >
<path d="M7.83002 2.00001H16.1634C17.5441 2.00001 18.6634 3.11929 18.6634 4.50001V19.5C18.6634 20.8807 17.5441 22 16.1634 22H7.83002C6.44931 22 5.33002 20.8807 5.33002 19.5V4.50001C5.33002 3.11929 6.44931 2.00001 7.83002 2.00001ZM6.99668 4.91667V17.8333C6.99668 18.0635 7.18323 18.25 7.41335 18.25H16.58C16.8101 18.25 16.9967 18.0635 16.9967 17.8333V4.91667C16.9967 4.68655 16.8101 4.50001 16.58 4.50001H7.41335C7.18323 4.50001 6.99668 4.68655 6.99668 4.91667Z" />
</svg>