<!--character:1774-->
  <svg width="24" height="24" viewBox="0 0 24 24" >
<path d="M13.3158 19.1058H14.6316C15.213 19.1058 15.6842 19.576 15.6842 20.1574C15.6842 20.7387 15.213 21.21 14.6316 21.21H9.36845C8.78709 21.21 8.31581 20.7387 8.31581 20.1574C8.31581 19.576 8.78709 19.1047 9.36845 19.1047H10.6842C10.8296 19.1047 10.9474 18.9869 10.9474 18.8416V18.3153C10.9468 18.1703 10.8292 18.0532 10.6842 18.0532H4.10529C2.94258 18.0532 2.00002 17.1106 2.00002 15.9479V4.89526C2.00002 3.73255 2.94258 2.79 4.10529 2.79H19.8948C21.0575 2.79 22 3.73255 22 4.89526V15.9468C22 17.1095 21.0575 18.0521 19.8948 18.0521H13.3158C13.1705 18.0521 13.0527 18.1699 13.0527 18.3153V18.8426C13.0527 18.988 13.1705 19.1058 13.3158 19.1058ZM4.10529 5.42157V15.4216C4.10529 15.5612 4.16074 15.695 4.25944 15.7937C4.35815 15.8924 4.49202 15.9479 4.6316 15.9479H19.3684C19.6591 15.9479 19.8948 15.7123 19.8948 15.4216V5.42157C19.8948 5.1309 19.6591 4.89526 19.3684 4.89526H4.6316C4.34093 4.89526 4.10529 5.1309 4.10529 5.42157Z" />
</svg>