<!--character:8932-->
  <svg width="20" height="20" viewBox="0 0 20 20" >
<path d="M11.0963 15.9215H12.1928C12.6773 15.9215 13.07 16.3133 13.07 16.7978C13.07 17.2823 12.6773 17.675 12.1928 17.675H7.80686C7.32239 17.675 6.92966 17.2823 6.92966 16.7978C6.92966 16.3133 7.32239 15.9206 7.80686 15.9206H8.90335C9.02446 15.9206 9.12264 15.8224 9.12264 15.7013V15.2627C9.12216 15.1419 9.02412 15.0443 8.90335 15.0443H3.42089C2.45197 15.0443 1.6665 14.2588 1.6665 13.2899V4.07938C1.6665 3.11046 2.45197 2.325 3.42089 2.325H16.5788C17.5477 2.325 18.3332 3.11046 18.3332 4.07938V13.289C18.3332 14.258 17.5477 15.0434 16.5788 15.0434H11.0963C10.9752 15.0434 10.877 15.1416 10.877 15.2627V15.7022C10.877 15.8233 10.9752 15.9215 11.0963 15.9215ZM3.42089 4.51798V12.8513C3.42089 12.9676 3.4671 13.0792 3.54935 13.1614C3.6316 13.2437 3.74316 13.2899 3.85949 13.2899H16.1402C16.3824 13.2899 16.5788 13.0935 16.5788 12.8513V4.51798C16.5788 4.27575 16.3824 4.07938 16.1402 4.07938H3.85949C3.61726 4.07938 3.42089 4.27575 3.42089 4.51798Z" />
</svg>