<!--character:6677-->
  <svg width="20" height="20" viewBox="0 0 20 20" >
<path d="M6.52523 1.66666H13.4697C14.6203 1.66666 15.553 2.5994 15.553 3.75V16.25C15.553 17.4006 14.6203 18.3333 13.4697 18.3333H6.52523C5.37463 18.3333 4.44189 17.4006 4.44189 16.25V3.75C4.44189 2.5994 5.37463 1.66666 6.52523 1.66666ZM5.83078 4.09722V14.8611C5.83078 15.0529 5.98624 15.2083 6.17801 15.2083H13.8169C14.0087 15.2083 14.1641 15.0529 14.1641 14.8611V4.09722C14.1641 3.90545 14.0087 3.75 13.8169 3.75H6.17801C5.98624 3.75 5.83078 3.90545 5.83078 4.09722Z" />
</svg>