<!--character:9443-->
  <svg width="24" height="24" viewBox="0 0 24 24" >
<path d="M7.83027 2H16.1636C17.5443 2 18.6636 3.11929 18.6636 4.5V19.5C18.6636 20.8807 17.5443 22 16.1636 22H7.83027C6.44956 22 5.33027 20.8807 5.33027 19.5V4.5C5.33027 3.11929 6.44956 2 7.83027 2ZM6.99694 4.91666V17.8333C6.99694 18.0634 7.18349 18.25 7.41361 18.25H16.5803C16.8104 18.25 16.9969 18.0634 16.9969 17.8333V4.91666C16.9969 4.68654 16.8104 4.5 16.5803 4.5H7.41361C7.18349 4.5 6.99694 4.68654 6.99694 4.91666Z" />
</svg>