<!-- character:0:602 -->
  <svg width="20" height="20" viewBox="0 0 20 20" >
<path   d="M11.0965 15.9214H12.1929V15.9206C12.6774 15.9206 13.0701 16.3133 13.0701 16.7978C13.0701 17.2822 12.6774 17.675 12.1929 17.675H7.80698C7.32252 17.675 6.92978 17.2822 6.92978 16.7978C6.92978 16.3133 7.32252 15.9206 7.80698 15.9206H8.90347C9.02458 15.9206 9.12277 15.8224 9.12277 15.7013V15.2627C9.12228 15.1419 9.02424 15.0442 8.90347 15.0442H3.42101C2.45209 15.0442 1.66663 14.2588 1.66663 13.2899V4.07934C1.66663 3.11042 2.45209 2.32495 3.42101 2.32495H16.5789C17.5478 2.32495 18.3333 3.11042 18.3333 4.07934V13.289C18.3333 14.2579 17.5478 15.0434 16.5789 15.0434H11.0965C10.9753 15.0434 10.8772 15.1416 10.8772 15.2627V15.7021C10.8772 15.8233 10.9753 15.9214 11.0965 15.9214ZM3.42101 4.51793V12.8513C3.42101 12.9676 3.46722 13.0791 3.54947 13.1614C3.63173 13.2437 3.74329 13.2899 3.85961 13.2899H16.1403C16.3825 13.2899 16.5789 13.0935 16.5789 12.8513V4.51793C16.5789 4.2757 16.3825 4.07934 16.1403 4.07934H3.85961C3.61738 4.07934 3.42101 4.2757 3.42101 4.51793Z" />
</svg>