<!--character:$550:2465-->
  <svg width="24" height="24" viewBox="0 0 24 24" >
<path d="M13.3158 19.1058H14.6316V19.1048C15.2129 19.1048 15.6842 19.5761 15.6842 20.1574C15.6842 20.7388 15.2129 21.21 14.6316 21.21H9.36842C8.78707 21.21 8.31579 20.7388 8.31579 20.1574C8.31579 19.5761 8.78707 19.1048 9.36842 19.1048H10.6842C10.8295 19.1048 10.9474 18.987 10.9474 18.8416V18.3153C10.9468 18.1704 10.8291 18.0532 10.6842 18.0532H4.10526C2.94256 18.0532 2 17.1106 2 15.9479V4.8953C2 3.7326 2.94256 2.79004 4.10526 2.79004H19.8947C21.0574 2.79004 22 3.7326 22 4.8953V15.9469C22 17.1096 21.0574 18.0521 19.8947 18.0521H13.3158C13.1705 18.0521 13.0526 18.17 13.0526 18.3153V18.8427C13.0526 18.988 13.1705 19.1058 13.3158 19.1058ZM4.10525 5.42162V15.4216C4.10525 15.5612 4.1607 15.6951 4.25941 15.7938C4.35811 15.8925 4.49198 15.9479 4.63157 15.9479H19.3684C19.6591 15.9479 19.8947 15.7123 19.8947 15.4216V5.42162C19.8947 5.13095 19.6591 4.89531 19.3684 4.89531H4.63157C4.34089 4.89531 4.10525 5.13095 4.10525 5.42162Z" />
</svg>