<!--character:192:550:2001-->
<svg width="24" height="24" xmlns="http://www.w3.org/2000/svg" viewBox="0 0 24 24">
  <path d="M18.004 2C18.7122 2 19.3791 2.33344 19.804 2.9L23.1391 7.35118C23.4522 7.7689 23.6011 8.26693 23.5879 8.76066L23.587 8.78996C23.5678 9.27191 23.3942 9.74817 23.0681 10.1399L23.0671 10.1412L13.7311 21.4388C13.3161 21.9344 12.7146 22.2261 12.0757 22.2468C12.0288 22.2513 11.9811 22.2514 11.9333 22.2469C11.2932 22.2271 10.6906 21.9352 10.278 21.4425L10.2748 21.4388L0.938839 10.1412C0.6272 9.76667 0.454971 9.31691 0.422783 8.8586C0.41764 8.82314 0.414978 8.78688 0.414978 8.75C0.414978 8.73018 0.415747 8.71055 0.417256 8.69111C0.419204 8.22035 0.568435 7.7493 0.866839 7.35118L4.20397 2.9C4.4066 2.62983 4.66425 2.41267 4.95516 2.2594C4.96544 2.25377 4.9759 2.24836 4.98653 2.24319C5.29776 2.0854 5.64557 2 6.00397 2H18.004ZM15.5251 9.5H8.4823L12.004 19.2851L15.5251 9.5ZM6.88809 9.5H2.35486L10.3857 19.2182L6.88809 9.5ZM21.6511 9.5H17.1192L13.6236 19.2141L21.6511 9.5ZM18.9866 4.31067L17.659 8.00003H21.7509L18.9866 4.31067ZM12.0039 4L9.00391 8H15.0039L12.0039 4ZM5.02066 4.31124L2.25513 8H6.34824L5.02066 4.31124ZM10.5039 3.5H6.32288L7.67863 7.26705L10.5039 3.5ZM17.6841 3.5H13.5039L16.3288 7.26645L17.6841 3.5Z" />
</svg>
