<!-- character:116:0 -->
  <svg width="20" height="20" viewBox="0 0 20 20" >
<path   d="M5.03085 1.5625C4.73218 1.5625 4.44233 1.63366 4.18298 1.76515C4.17412 1.76947 4.16541 1.77398 4.15684 1.77867C3.91441 1.90639 3.6997 2.08736 3.53085 2.3125L0.749903 6.02181C0.501233 6.35358 0.376874 6.74613 0.37525 7.13843C0.373993 7.15462 0.373352 7.17099 0.373352 7.1875C0.373352 7.21823 0.37557 7.24845 0.379856 7.278C0.40668 7.65993 0.550203 8.03473 0.808963 8.34569L0.809903 8.34681L8.58989 17.7615L8.59251 17.7646C8.93631 18.1751 9.43855 18.4184 9.97194 18.4349C10.0118 18.4387 10.0515 18.4386 10.0906 18.4348C10.623 18.4176 11.1242 18.1745 11.4675 17.7646L11.4701 17.7615L19.2501 8.34681L19.251 8.3458C19.5227 8.01931 19.6674 7.62242 19.6833 7.2208C19.6835 7.21647 19.6837 7.21214 19.6839 7.20779C19.684 7.204 19.6841 7.2002 19.6841 7.19639C19.6951 6.78494 19.571 6.36992 19.3101 6.02181L16.5308 2.3125C16.1767 1.84036 15.621 1.5625 15.0308 1.5625H5.03085ZM14.7643 2.8125H11.2808L13.6348 5.95121L14.7643 2.8125ZM1.90681 6.5625L4.21142 3.48853L5.31774 6.5625H1.90681ZM8.68224 15.911L1.98992 7.8125H5.76761L8.68224 15.911ZM18.0701 7.8125L11.3806 15.9076L14.2935 7.8125H18.0701ZM7.09612 7.8125H12.9651L10.0308 15.9667L7.09612 7.8125ZM5.2966 2.8125L6.4264 5.9517L8.7808 2.8125H5.2966ZM18.1533 6.56252L15.8496 3.48806L14.7433 6.56252H18.1533ZM10.0308 3.22917L12.5308 6.5625H7.53079L10.0308 3.22917Z" />
<rect x="-17.5" y="-15.5" width="55" height="131" rx="4.5" stroke="#7B61FF" stroke-dasharray="10 5"/>
</svg>