<!--character:3975-->
  <svg width="24" height="24" viewBox="0 0 24 24" >
<path d="M6.03724 1.875C5.67884 1.875 5.33102 1.9604 5.01979 2.11819C5.00917 2.12336 4.99871 2.12877 4.98842 2.1344C4.69751 2.28767 4.43987 2.50483 4.23724 2.775L0.900103 7.22618C0.601699 7.6243 0.452468 8.09535 0.45052 8.56611C0.449011 8.58555 0.448242 8.60518 0.448242 8.625C0.448242 8.66188 0.450904 8.69814 0.456047 8.7336C0.488235 9.19191 0.660464 9.64167 0.970976 10.0148L0.972103 10.0162L10.3081 21.3138L10.3112 21.3175C10.7238 21.8102 11.3265 22.1021 11.9665 22.1219C12.0144 22.1264 12.062 22.1263 12.1089 22.1218C12.7479 22.1011 13.3493 21.8094 13.7612 21.3175L13.7644 21.3138L23.1004 10.0162L23.1014 10.015C23.4275 9.62317 23.6011 9.14691 23.6202 8.66496C23.6205 8.65977 23.6207 8.65456 23.6209 8.64934C23.621 8.64479 23.6211 8.64023 23.6212 8.63567C23.6343 8.14193 23.4855 7.6439 23.1724 7.22618L19.8372 2.775C19.4123 2.20844 18.7454 1.875 18.0372 1.875H6.03724ZM17.7174 3.375L16.362 7.14145L13.5372 3.375H17.7174ZM2.28839 7.875L5.05393 4.18624L6.38151 7.875H2.28839ZM10.4189 19.0932L2.38812 9.375H6.92136L10.4189 19.0932ZM21.6843 9.375L13.6569 19.0891L17.1525 9.375H21.6843ZM8.51556 9.375H15.5583L12.0372 19.1601L8.51556 9.375ZM6.35614 3.375H10.5372L7.7119 7.14205L6.35614 3.375ZM21.7841 7.87503H17.6922L19.0198 4.18567L21.7841 7.87503ZM12.0372 3.875L15.0372 7.875H9.03717L12.0372 3.875Z" />
</svg>