<!--character:192:550:2001-->
  <svg width="24" height="24" viewBox="0 0 24 24" >
<path   d="M6.03699 1.875C5.67859 1.875 5.33078 1.9604 5.01955 2.11819C5.00892 2.12336 4.99846 2.12877 4.98818 2.1344C4.69727 2.28767 4.43962 2.50483 4.23699 2.775L0.899859 7.22618C0.601455 7.6243 0.452224 8.09535 0.450276 8.56611C0.448767 8.58555 0.447998 8.60518 0.447998 8.625C0.447998 8.66188 0.45066 8.69814 0.455803 8.7336C0.487991 9.19191 0.66022 9.64167 0.970732 10.0148L0.971859 10.0162L10.3078 21.3138L10.311 21.3175C10.7236 21.8102 11.3262 22.1021 11.9663 22.1219C12.0141 22.1264 12.0618 22.1263 12.1087 22.1218C12.7476 22.1011 13.3491 21.8094 13.761 21.3175L13.7641 21.3138L23.1001 10.0162L23.1011 10.015C23.4272 9.62317 23.6008 9.14691 23.62 8.66496C23.6202 8.65977 23.6204 8.65456 23.6206 8.64934C23.6208 8.64479 23.6209 8.64023 23.6209 8.63566C23.6341 8.14193 23.4852 7.6439 23.1721 7.22618L19.837 2.775C19.4121 2.20844 18.7452 1.875 18.037 1.875H6.03699ZM17.7171 3.375H13.5369L16.3618 7.14145L17.7171 3.375ZM2.28815 7.875L5.05368 4.18624L6.38126 7.875H2.28815ZM10.4187 19.0932L2.38788 9.375H6.92111L10.4187 19.0932ZM21.6841 9.375L13.6566 19.0891L17.1522 9.375H21.6841ZM8.51532 9.375H15.5581L12.037 19.1601L8.51532 9.375ZM6.3559 3.375L7.71165 7.14205L10.5369 3.375H6.3559ZM21.7839 7.87503L19.0196 4.18567L17.692 7.87503H21.7839ZM12.0369 3.875L15.0369 7.875H9.03693L12.0369 3.875Z" />
<rect x="-15.5" y="-55.5" width="55" height="131" rx="4.5" stroke="#7B61FF" stroke-dasharray="10 5"/>
</svg>