<!--character:6999-->
  <svg width="20" height="20" viewBox="0 0 20 20" >
<path d="M5.03103 1.5625C4.73236 1.5625 4.44252 1.63366 4.18316 1.76515C4.17431 1.76947 4.16559 1.77398 4.15702 1.77867C3.91459 1.90639 3.69989 2.08736 3.53103 2.3125L0.750086 6.02181C0.501416 6.35358 0.377057 6.74613 0.375433 7.13843C0.374176 7.15462 0.373535 7.17099 0.373535 7.1875C0.373535 7.21823 0.375754 7.24845 0.380039 7.278C0.406863 7.65993 0.550386 8.03473 0.809146 8.34569L0.810086 8.34681L8.59007 17.7615L8.5927 17.7646C8.9365 18.1751 9.43873 18.4184 9.97212 18.4349C10.012 18.4387 10.0517 18.4386 10.0908 18.4348C10.6232 18.4176 11.1244 18.1745 11.4677 17.7646L11.4703 17.7615L19.2503 8.34681L19.2512 8.34579C19.5229 8.01931 19.6676 7.62242 19.6835 7.2208C19.6837 7.21647 19.6839 7.21214 19.684 7.20779C19.6842 7.204 19.6843 7.2002 19.6843 7.19639C19.6953 6.78494 19.5712 6.36992 19.3103 6.02181L16.531 2.3125C16.1769 1.84036 15.6212 1.5625 15.031 1.5625H5.03103ZM14.7645 2.8125L13.635 5.95121L11.281 2.8125H14.7645ZM1.90699 6.5625L4.2116 3.48853L5.31792 6.5625H1.90699ZM8.68243 15.911L1.9901 7.8125H5.7678L8.68243 15.911ZM18.0703 7.8125L11.3807 15.9076L14.2937 7.8125H18.0703ZM7.0963 7.8125H12.9653L10.031 15.9667L7.0963 7.8125ZM5.29678 2.8125H8.78098L6.42658 5.9517L5.29678 2.8125ZM18.1534 6.56252H14.7435L15.8498 3.48806L18.1534 6.56252ZM10.031 3.22917L12.531 6.5625H7.53098L10.031 3.22917Z" />
</svg>