<!--character:238-->
  <svg width="24" height="24" viewBox="0 0 24 24" >
<path d="M1.93491 12C1.93491 6.44133 6.4414 1.93484 12.0001 1.93484C17.5587 1.93484 22.0652 6.44133 22.0652 12C22.0652 17.5587 17.5587 22.0652 12.0001 22.0652C6.4414 22.0652 1.93491 17.5587 1.93491 12ZM12.0001 3.73484C7.43552 3.73484 3.73491 7.43544 3.73491 12C3.73491 16.5646 7.43552 20.2652 12.0001 20.2652C16.5646 20.2652 20.2652 16.5646 20.2652 12C20.2652 7.43544 16.5646 3.73484 12.0001 3.73484Z" />
<path d="M15.7192 8.27999C15.3677 7.92854 14.7978 7.92858 14.4464 8.28007L8.39818 14.3291C8.04673 14.6806 8.04677 15.2504 8.39827 15.6019C8.74976 15.9533 9.31961 15.9533 9.67106 15.6018L15.7192 9.55278C16.0707 9.20129 16.0707 8.63144 15.7192 8.27999Z" />
<path d="M9.25009 7.92681C8.9305 7.92681 8.624 8.05377 8.39801 8.27976C8.17202 8.50574 8.04507 8.81224 8.04507 9.13184C8.04507 9.45143 8.17202 9.75793 8.39801 9.98392C8.62399 10.2099 8.9305 10.3369 9.25009 10.3369C9.56968 10.3369 9.8767 10.2099 10.1027 9.98392C10.3287 9.75793 10.4556 9.45143 10.4556 9.13184C10.4556 8.81225 10.3287 8.50574 10.1027 8.27976C9.8767 8.05377 9.56968 7.92681 9.25009 7.92681Z" />
<path d="M14.8665 13.544C14.5469 13.544 14.2404 13.671 14.0145 13.897C13.7885 14.123 13.6615 14.4295 13.6615 14.7491C13.6615 15.0687 13.7885 15.3752 14.0145 15.6012C14.2404 15.8271 14.5469 15.9541 14.8665 15.9541C15.1861 15.9541 15.4931 15.8271 15.7191 15.6011C15.9451 15.3752 16.0721 15.0687 16.0721 14.7491C16.0721 14.4295 15.9451 14.123 15.7191 13.897C15.4931 13.671 15.1861 13.544 14.8665 13.544Z" />
</svg>