<!--character:56-->
  <svg width="24" height="24" viewBox="0 0 24 24" >
<path d="M1.24995 11.9844C1.25002 11.2053 1.60291 10.4678 2.20991 9.97952L3.80952 8.69143C3.86193 8.64934 3.89046 8.58234 3.88276 8.51467V8.51077L3.66011 6.46877C3.57556 5.69417 3.84671 4.92146 4.39741 4.37014C4.9486 3.81836 5.72087 3.54709 6.49604 3.63284L8.53315 3.85159L8.53804 3.85256C8.6039 3.86011 8.6699 3.83373 8.71187 3.78127L8.71284 3.77932L9.998 2.17971L10.0058 2.16897L10.0146 2.1592C10.5132 1.58216 11.2383 1.25002 12.0009 1.25002C12.7158 1.25005 13.3973 1.54181 13.8906 2.05374L13.9863 2.1592L13.9951 2.16897L14.0039 2.17971L15.288 3.77834C15.3311 3.83176 15.3985 3.85986 15.4658 3.85256L15.4687 3.85159L17.5087 3.63284L17.6542 3.62112C18.3797 3.58269 19.0899 3.85376 19.6064 4.37112C20.1573 4.92309 20.4282 5.69557 20.3427 6.47073L20.121 8.51174V8.5137C20.1134 8.58207 20.1408 8.64943 20.1933 8.69241L22.3251 10.4092L22.2705 10.4912C22.5789 10.9232 22.75 11.4451 22.75 11.9873C22.7499 12.7176 22.44 13.4112 21.9013 13.8975L21.79 13.9922L20.1923 15.2793L20.1562 15.3155C20.1365 15.3419 20.1237 15.3733 20.1191 15.4063V15.46L20.3408 17.502C20.4259 18.2771 20.1555 19.0499 19.6044 19.6016C19.0533 20.1534 18.281 20.4246 17.5058 20.3389L15.4677 20.1172H15.4658C15.3985 20.1099 15.3321 20.1372 15.289 20.1905L15.288 20.1895L14.0039 21.7901C13.5164 22.3978 12.78 22.7519 12.0009 22.752C11.2217 22.752 10.4845 22.3979 9.99702 21.7901L8.71089 20.1865C8.66793 20.1333 8.6013 20.1068 8.53413 20.1143H8.53218L6.49214 20.336C5.71713 20.4211 4.94527 20.1496 4.39448 19.5977C3.84399 19.0458 3.57383 18.2739 3.65913 17.499L3.88081 15.4571V15.4541C3.88848 15.3863 3.86098 15.3196 3.80854 15.2774L3.80757 15.2764L2.20991 13.9893C1.60291 13.5009 1.24995 12.7635 1.24995 11.9844ZM2.74995 11.9844C2.74995 12.3098 2.8976 12.618 3.15034 12.8213L4.74897 14.1084C5.20149 14.4722 5.4348 15.0416 5.37104 15.6182L5.37202 15.6192L5.15034 17.6621C5.11469 17.9857 5.22762 18.3083 5.45698 18.5381C5.6863 18.7679 6.0072 18.8812 6.32905 18.8457L8.37007 18.6231C8.8746 18.5675 9.37292 18.7412 9.73335 19.0879L9.87983 19.2471L11.1669 20.8516C11.3701 21.1048 11.6774 21.252 12.0009 21.252C12.3245 21.2519 12.6308 21.1048 12.8339 20.8516L14.1201 19.25C14.4843 18.7979 15.0545 18.5619 15.6318 18.626L17.6699 18.8477L17.6708 18.8487C17.9926 18.8842 18.3135 18.7707 18.5429 18.541C18.7722 18.3113 18.8851 17.9895 18.8496 17.666L18.6279 15.6221C18.5637 15.0452 18.7989 14.474 19.2519 14.1104L20.8496 12.8233L20.9394 12.7422C21.1369 12.5427 21.2499 12.272 21.25 11.9873C21.25 11.6619 21.1023 11.3547 20.8496 11.1514L20.3164 10.7217L20.3173 10.7188L19.2529 9.86038C18.801 9.49551 18.5657 8.92465 18.6298 8.34768L18.8515 6.30764C18.8872 5.98407 18.7743 5.66053 18.5449 5.43069C18.3156 5.201 17.9946 5.08859 17.6728 5.12405H17.6708L15.6289 5.34377L15.6279 5.3428C15.0519 5.40544 14.4835 5.17088 14.1201 4.71975L12.8515 3.13967C12.6376 2.89213 12.3272 2.75006 12.0009 2.75002C11.6747 2.75002 11.3643 2.89217 11.1503 3.13967L9.88179 4.71682L9.88276 4.7178C9.51975 5.17165 8.94966 5.40736 8.37202 5.3428L6.33296 5.12405H6.33101C6.00917 5.08845 5.68835 5.20102 5.45894 5.43069C5.22952 5.6604 5.11581 5.98216 5.15132 6.30569L5.15229 6.30667L5.37397 8.34963C5.43011 8.8545 5.25674 9.3541 4.90913 9.71487L4.74995 9.86038L3.15034 11.1485C2.89766 11.3517 2.75002 11.6591 2.74995 11.9844Z" />
<path d="M8.99979 12C8.82824 11.8202 8.5434 11.8135 8.36357 11.985C8.18375 12.1566 8.17705 12.4414 8.3486 12.6212L10.8 15C10.9839 15.1928 11.2942 15.1844 11.4674 14.982L15.6 9.59999C15.7616 9.41118 15.7395 9.12711 15.5507 8.9655C15.3619 8.80389 15.0779 8.82593 14.9163 9.01474L11.3789 13.662C11.2342 13.852 10.9564 13.8738 10.7839 13.7086L8.99979 12Z" />
<path d="M14.5367 8.68939C14.8779 8.29107 15.4771 8.24484 15.8756 8.58587C16.2673 8.92119 16.3179 9.50486 15.9957 9.90325L15.9967 9.90423L11.8638 15.2861L11.856 15.2968L11.8472 15.3076C11.4853 15.73 10.8414 15.7508 10.4517 15.3574L8.00056 12.9804L7.98689 12.9667C7.62473 12.5871 7.63854 11.9851 8.01814 11.623L8.09236 11.5595C8.46642 11.269 9.00377 11.2987 9.34431 11.6386L11.0484 13.2695L14.5181 8.71185L14.5269 8.70013L14.5367 8.68939ZM11.3941 14.2548C11.1942 14.3344 10.9702 14.3415 10.7652 14.2704L11.1197 14.6132L11.3941 14.2548Z" />
</svg>