<!--character:195:550:1988-->
  <svg width="24" height="24" viewBox="0 0 24 24" >
<path d="M15.5709 2.2425L20.0825 6.75417C20.2388 6.91041 20.3267 7.12234 20.3267 7.34334V20.3333C20.3267 21.2538 19.5805 22 18.66 22H5.3267C4.40623 22 3.66003 21.2538 3.66003 20.3333V3.66667C3.66003 2.74619 4.40623 2 5.3267 2H14.9817C15.2025 1.99961 15.4143 2.08682 15.5709 2.2425ZM18.2434 20.3333C18.4735 20.3333 18.66 20.1468 18.66 19.9167V8.04167C18.66 7.92661 18.5668 7.83334 18.4517 7.83334H16.16C15.2396 7.83334 14.4934 7.08715 14.4934 6.16667V3.87501C14.4934 3.75995 14.4001 3.66667 14.285 3.66667H5.74336C5.51325 3.66667 5.3267 3.85322 5.3267 4.08334V19.9167C5.3267 20.1468 5.51325 20.3333 5.74336 20.3333H18.2434ZM15.9528 10.082H8.03659C7.70331 10.082 7.37003 10.3319 7.37003 10.7485C7.37003 11.1651 7.61999 11.4151 8.03659 11.4151H15.9528C16.286 11.4151 16.6193 11.1651 16.6193 10.7485C16.6193 10.3319 16.286 10.082 15.9528 10.082ZM8.03659 14.6645H15.9528C16.286 14.6645 16.6193 14.9145 16.6193 15.3311C16.6193 15.7477 16.286 15.9976 15.9528 15.9976H8.03659C7.61999 15.9976 7.37003 15.6644 7.37003 15.3311C7.37003 14.9145 7.70331 14.6645 8.03659 14.6645Z" />
</svg>