<!--character:5451-->
  <svg width="20" height="20" viewBox="0 0 20 20" >
<path d="M12.9755 1.86875L16.7352 5.62847C16.8655 5.75868 16.9387 5.93528 16.9387 6.11944V16.9444C16.9387 17.7115 16.3169 18.3333 15.5498 18.3333H4.43869C3.67163 18.3333 3.0498 17.7115 3.0498 16.9444V3.05556C3.0498 2.28849 3.67163 1.66667 4.43869 1.66667H12.4845C12.6685 1.66634 12.8451 1.73902 12.9755 1.86875ZM15.2026 16.9444C15.3943 16.9444 15.5498 16.789 15.5498 16.5972V6.70139C15.5498 6.60551 15.4721 6.52778 15.3762 6.52778H13.4665C12.6994 6.52778 12.0776 5.90595 12.0776 5.13889V3.22917C12.0776 3.13328 11.9999 3.05556 11.904 3.05556H4.78592C4.59415 3.05556 4.43869 3.21101 4.43869 3.40278V16.5972C4.43869 16.789 4.59415 16.9444 4.78592 16.9444H15.2026ZM13.2937 8.40164H6.69693C6.4192 8.40164 6.14147 8.60994 6.14147 8.9571C6.14147 9.30426 6.34977 9.51256 6.69693 9.51256H13.2937C13.5715 9.51256 13.8492 9.30426 13.8492 8.9571C13.8492 8.60994 13.5715 8.40164 13.2937 8.40164ZM6.69693 12.2204H13.2937C13.5715 12.2204 13.8492 12.4287 13.8492 12.7759C13.8492 13.1231 13.5715 13.3314 13.2937 13.3314H6.69693C6.34977 13.3314 6.14147 13.0536 6.14147 12.7759C6.14147 12.4287 6.4192 12.2204 6.69693 12.2204Z" />
</svg>