<!-- character:0:2629 -->
  <svg width="20" height="20" viewBox="0 0 20 20" >
<path   d="M12.9757 1.86874L16.7355 5.62846C16.8657 5.75867 16.9389 5.93527 16.9389 6.11944V16.9444C16.9389 17.7115 16.3171 18.3333 15.55 18.3333H4.43894C3.67188 18.3333 3.05005 17.7115 3.05005 16.9444V3.05555C3.05005 2.28849 3.67188 1.66666 4.43894 1.66666H12.4848C12.6687 1.66633 12.8453 1.73901 12.9757 1.86874ZM15.2028 16.9444C15.3946 16.9444 15.55 16.789 15.55 16.5972V6.70138C15.55 6.6055 15.4723 6.52777 15.3764 6.52777H13.4667C12.6997 6.52777 12.0778 5.90594 12.0778 5.13888V3.22916C12.0778 3.13328 12.0001 3.05555 11.9042 3.05555H4.78616C4.59439 3.05555 4.43894 3.211 4.43894 3.40277V16.5972C4.43894 16.789 4.59439 16.9444 4.78616 16.9444H15.2028ZM13.294 8.40163H6.69718C6.41945 8.40163 6.14172 8.60993 6.14172 8.95709C6.14172 9.30426 6.35001 9.51256 6.69718 9.51256H13.294C13.5717 9.51256 13.8495 9.30426 13.8495 8.95709C13.8495 8.60993 13.5717 8.40163 13.294 8.40163ZM6.69718 12.2204H13.294C13.5717 12.2204 13.8495 12.4287 13.8495 12.7759C13.8495 13.1231 13.5717 13.3314 13.294 13.3314H6.69718C6.35001 13.3314 6.14172 13.0536 6.14172 12.7759C6.14172 12.4287 6.41945 12.2204 6.69718 12.2204Z" />
</svg>