<!--character:3024:2696-->
<svg width="24" height="24" viewBox="0 0 24 24">
  <path d="M15.5706 2.2425L20.0823 6.75417C20.2386 6.91041 20.3264 7.12234 20.3264 7.34333V20.3333C20.3264 21.2538 19.5802 22 18.6598 22H5.32643C4.40596 22 3.65977 21.2538 3.65977 20.3333V3.66667C3.65977 2.74619 4.40596 2 5.32643 2H14.9814C15.2022 1.9996 15.4141 2.08682 15.5706 2.2425ZM18.2431 20.3333C18.4732 20.3333 18.6598 20.1468 18.6598 19.9167V8.04167C18.6598 7.92661 18.5665 7.83333 18.4514 7.83333H16.1598C15.2393 7.83333 14.4931 7.08714 14.4931 6.16667V3.875C14.4931 3.75994 14.3998 3.66667 14.2848 3.66667H5.7431C5.51298 3.66667 5.32643 3.85321 5.32643 4.08333V19.9167C5.32643 20.1468 5.51298 20.3333 5.7431 20.3333H18.2431ZM15.9525 10.082H8.03632C7.70304 10.082 7.36977 10.3319 7.36977 10.7485C7.36977 11.1651 7.61972 11.4151 8.03632 11.4151H15.9525C16.2858 11.4151 16.619 11.1651 16.619 10.7485C16.619 10.3319 16.2858 10.082 15.9525 10.082ZM8.03632 14.6645H15.9525C16.2858 14.6645 16.619 14.9145 16.619 15.3311C16.619 15.7477 16.2858 15.9976 15.9525 15.9976H8.03632C7.61972 15.9976 7.36977 15.6644 7.36977 15.3311C7.36977 14.9145 7.70304 14.6645 8.03632 14.6645Z" />
</svg>
