<!--description:Use when we want some text document from user.-->
<!--category:files-->
<!--character:E110-->
<svg width="24" height="24" viewBox="0 0 24 24" xmlns="http://www.w3.org/2000/svg"><path d="M20.0825 6.7542l-4.5117-4.5117A.8333.8333 0 0 0 14.9817 2h-9.655C4.4062 2 3.66 2.7462 3.66 3.6667v16.6666C3.66 21.2538 4.4062 22 5.3267 22H18.66c.9205 0 1.6667-.7462 1.6667-1.6667v-12.99a.8331.8331 0 0 0-.2442-.5891zM18.66 19.9167a.4167.4167 0 0 1-.4167.4166h-12.5a.4167.4167 0 0 1-.4166-.4166V4.0833a.4167.4167 0 0 1 .4166-.4166h8.5417c.115 0 .2083.0932.2083.2083v2.2917c0 .9204.7462 1.6666 1.6667 1.6666h2.2917c.115 0 .2083.0933.2083.2084v11.875zm-2.7073-9.8347H8.0366c-.3333 0-.6666.25-.6666.6665 0 .4166.25.6666.6666.6666h7.9161c.3333 0 .6666-.25.6666-.6666 0-.4166-.3333-.6665-.6666-.6665zm0 4.5825H8.0366c-.3333 0-.6666.25-.6666.6666 0 .3333.25.6665.6666.6665h7.9161c.3333 0 .6666-.25.6666-.6665 0-.4166-.3333-.6666-.6666-.6666z"/></svg>