<!--character:3024:2697-->
<svg width="24" height="24" viewBox="0 0 24 24">
  <path d="M10.3816 3.61549C10.3816 2.72328 11.1049 2 11.9971 2C12.8893 2 13.6126 2.72328 13.6126 3.61549V11.1689C13.6126 11.284 13.7059 11.3772 13.8209 11.3772H16.0363C16.3528 11.3773 16.6401 11.5622 16.7713 11.8502C16.9026 12.1382 16.8537 12.4763 16.6461 12.7153L12.607 17.361C12.4536 17.5377 12.2311 17.6393 11.9971 17.6393C11.7631 17.6393 11.5406 17.5377 11.3872 17.361L7.34807 12.7153C7.14056 12.4763 7.09163 12.1382 7.2229 11.8502C7.35416 11.5622 7.64145 11.3773 7.95795 11.3772H10.1733C10.2884 11.3772 10.3816 11.284 10.3816 11.1689V3.61549Z" />
  <path d="M19.8746 17.1218C19.8746 16.5642 20.3267 16.1121 20.8844 16.1121C21.153 16.1109 21.4109 16.2168 21.6011 16.4063C21.7914 16.5958 21.8984 16.8533 21.8984 17.1218V18.6674C21.8984 20.5079 20.4063 22 18.5657 22H5.42847C3.58953 21.9977 2.1 20.5063 2.1 18.6674V17.1218C2.1 16.5642 2.5521 16.1121 3.10979 16.1121C3.66748 16.1121 4.11958 16.5642 4.11958 17.1218V18.6674C4.1205 19.3897 4.70611 19.975 5.42847 19.9754H18.5657C19.2881 19.975 19.8737 19.3897 19.8746 18.6674V17.1218Z" />
</svg>
