<!--character:3397-->
  <svg width="24" height="24" viewBox="0 0 24 24" >
<path d="M10.3816 3.6155C10.3816 2.72328 11.1049 2 11.9971 2C12.8893 2 13.6126 2.72328 13.6126 3.6155V11.1689C13.6126 11.284 13.7059 11.3772 13.8209 11.3772H16.0363C16.3528 11.3773 16.6401 11.5622 16.7713 11.8502C16.9026 12.1382 16.8537 12.4763 16.6462 12.7153L12.607 17.361C12.4537 17.5378 12.2312 17.6393 11.9971 17.6393C11.7631 17.6393 11.5406 17.5378 11.3873 17.361L7.3481 12.7153C7.14058 12.4763 7.09166 12.1382 7.22292 11.8502C7.35418 11.5622 7.64147 11.3773 7.95797 11.3772H10.1733C10.2884 11.3772 10.3816 11.284 10.3816 11.1689V3.6155Z" />
<path d="M19.8747 17.1219C19.8747 16.5642 20.3268 16.1121 20.8845 16.1121C21.153 16.111 21.4109 16.2169 21.6012 16.4063C21.7915 16.5958 21.8984 16.8533 21.8984 17.1219V18.6674C21.8984 20.5079 20.4063 22 18.5658 22H5.42851C3.58957 21.9977 2.10004 20.5063 2.10004 18.6674V17.1219C2.10004 16.5642 2.55213 16.1121 3.10983 16.1121C3.66752 16.1121 4.11962 16.5642 4.11962 17.1219V18.6674C4.12053 19.3897 4.70614 19.975 5.42851 19.9754H18.5658C19.2881 19.975 19.8737 19.3897 19.8747 18.6674V17.1219Z" />
</svg>