<!-- character:0:2665 -->
  <svg width="20" height="20" viewBox="0 0 20 20" >
<path   d="M8.65134 3.013C8.65134 2.26948 9.25408 1.66675 9.99759 1.66675C10.7411 1.66675 11.3438 2.26948 11.3438 3.013V9.30752C11.3438 9.40338 11.4215 9.48109 11.5174 9.48109H13.3636C13.6273 9.4812 13.8667 9.63525 13.9761 9.87525C14.0855 10.1152 14.0447 10.397 13.8718 10.5961L10.5058 14.4676C10.378 14.6149 10.1926 14.6995 9.99759 14.6995C9.80257 14.6995 9.61715 14.6149 9.48936 14.4676L6.12339 10.5961C5.95046 10.397 5.90969 10.1152 6.01908 9.87525C6.12847 9.63525 6.36788 9.4812 6.63162 9.48109H8.47777C8.57363 9.48109 8.65134 9.40338 8.65134 9.30752V3.013ZM16.5622 14.2683C16.5622 13.8035 16.9389 13.4268 17.4037 13.4268C17.6275 13.4259 17.8424 13.5141 18.001 13.672C18.1595 13.8299 18.2486 14.0445 18.2486 14.2683V15.5562C18.2486 17.09 17.0053 18.3334 15.4714 18.3334H4.52373C2.99128 18.3315 1.75 17.0887 1.75 15.5562V14.2683C1.75 13.8035 2.12675 13.4268 2.59149 13.4268C3.05623 13.4268 3.43298 13.8035 3.43298 14.2683V15.5562C3.43375 16.1582 3.92176 16.6459 4.52373 16.6463H15.4714C16.0734 16.6459 16.5614 16.1582 16.5622 15.5562V14.2683Z" />
</svg>