<!--description:Use every time when user should download something from us.-->
<!--category:files-->
<!--character:E014-->
<svg width="24" height="24" viewBox="0 0 24 24" xmlns="http://www.w3.org/2000/svg"><path d="M20.8844 16.112a1.0098 1.0098 0 0 1 1.014 1.0098v1.5456c0 1.8405-1.4921 3.3326-3.3327 3.3326H5.4285C3.5895 21.9977 2.1 20.5063 2.1 18.6674v-1.5456c0-.5576.4521-1.0097 1.0098-1.0097.5577 0 1.0098.452 1.0098 1.0097v1.5456c.0009.7223.5865 1.3076 1.3089 1.308h13.1372c.7224-.0004 1.308-.5857 1.309-1.308v-1.5456c0-.5576.452-1.0097 1.0097-1.0097zM11.9971 2c.8922 0 1.6155.7233 1.6155 1.6155v7.5534c0 .115.0933.2083.2083.2083h2.2154a.8082.8082 0 0 1 .6098 1.338L12.607 17.361a.8073.8073 0 0 1-1.2198 0l-4.0391-4.6457a.8082.8082 0 0 1 .6098-1.338h2.2154a.2083.2083 0 0 0 .2083-.2084V3.6155c0-.8922.7233-1.6155 1.6155-1.6155z"/></svg>