<!--character:7263-->
  <svg width="20" height="20" viewBox="0 0 20 20" >
<path d="M8.65134 3.01291C8.65134 2.2694 9.25408 1.66666 9.99759 1.66666C10.7411 1.66666 11.3438 2.2694 11.3438 3.01291V9.30743C11.3438 9.4033 11.4215 9.48101 11.5174 9.48101H13.3636C13.6273 9.48112 13.8667 9.63517 13.9761 9.87516C14.0855 10.1152 14.0447 10.3969 13.8718 10.5961L10.5058 14.4675C10.378 14.6148 10.1926 14.6994 9.99759 14.6994C9.80257 14.6994 9.61715 14.6148 9.48936 14.4675L6.12339 10.5961C5.95046 10.3969 5.90969 10.1152 6.01908 9.87516C6.12847 9.63517 6.36788 9.48112 6.63162 9.48101H8.47777C8.57363 9.48101 8.65134 9.4033 8.65134 9.30743V3.01291Z" />
<path d="M16.5622 14.2682C16.5622 13.8035 16.9389 13.4267 17.4037 13.4267C17.6275 13.4258 17.8424 13.514 18.001 13.6719C18.1595 13.8299 18.2486 14.0444 18.2486 14.2682V15.5561C18.2486 17.0899 17.0053 18.3333 15.4714 18.3333H4.52373C2.99128 18.3314 1.75 17.0886 1.75 15.5561V14.2682C1.75 13.8035 2.12675 13.4267 2.59149 13.4267C3.05623 13.4267 3.43298 13.8035 3.43298 14.2682V15.5561C3.43375 16.1581 3.92176 16.6458 4.52373 16.6462H15.4714C16.0734 16.6458 16.5614 16.1581 16.5622 15.5561V14.2682Z" />
</svg>