<!--character:2541-->
  <svg width="24" height="24" viewBox="0 0 24 24" >
<path d="M12.4996 9.66637H9.33303C8.83304 9.66637 8.41638 9.99969 8.49971 10.4997C8.49971 10.9997 8.83304 11.333 9.33303 11.333H12.4996C12.583 11.333 12.6663 11.4163 12.6663 11.4997V14.6663C12.6663 15.1663 12.9996 15.4996 13.4996 15.4996C14.0005 15.4996 14.333 15.1663 14.333 14.6663V11.4997C14.333 11.4163 14.4171 11.333 14.4996 11.333H17.6662C18.1671 11.333 18.4995 10.9997 18.4995 10.4997C18.4995 9.99969 18.1671 9.66637 17.6662 9.66637H14.4996C14.4171 9.66637 14.333 9.58304 14.333 9.4997V6.33309C14.333 5.8331 14.0005 5.49977 13.4996 5.49977C12.9996 5.49977 12.6663 5.8331 12.6663 6.33309V9.4997C12.6663 9.58304 12.583 9.66637 12.4996 9.66637Z" />
<path d="M20.3334 2H6.5836C5.66695 2 4.91696 2.74999 4.91696 3.66664V17.4164C4.91696 18.3322 5.66695 19.083 6.5836 19.083H20.3334C21.2492 19.083 22 18.3322 22 17.4164V3.66664C22 2.74999 21.2492 2 20.3334 2ZM20.2501 17.3331C20.1659 17.4164 20.0834 17.4164 19.9167 17.4164H7.00029C6.75029 17.4164 6.58363 17.2489 6.58363 16.9997V4.0833C6.58363 3.8333 6.75029 3.66664 7.00029 3.66664H19.9167C20.1659 3.66664 20.3334 3.8333 20.3334 4.0833V16.9997C20.3334 17.0408 20.3128 17.1026 20.2921 17.1648C20.2711 17.2276 20.2501 17.2908 20.2501 17.3331Z" />
<path d="M18.2497 20.3327H4.0833C3.8333 20.3327 3.66664 20.166 3.66664 19.916V5.7496C3.66664 5.24961 3.33331 4.91628 2.83332 4.91628C2.33333 4.91628 2 5.24961 2 5.7496V20.3327C2 21.2493 2.74999 21.9993 3.66664 21.9993H18.2497C18.7497 21.9993 19.083 21.666 19.083 21.166C19.083 20.666 18.7497 20.3327 18.2497 20.3327Z" />
</svg>