<!--character:9494-->
  <svg width="24" height="24" viewBox="0 0 24 24" >
<path d="M12.4997 9.66638H9.33307C8.83308 9.66638 8.41642 9.99971 8.49975 10.4997C8.49975 10.9997 8.83308 11.333 9.33307 11.333H12.4997C12.583 11.333 12.6663 11.4163 12.6663 11.4997V14.6663C12.6663 15.1663 12.9997 15.4996 13.4997 15.4996C14.0005 15.4996 14.333 15.1663 14.333 14.6663V11.4997C14.333 11.4163 14.4172 11.333 14.4996 11.333H17.6663C18.1671 11.333 18.4996 10.9997 18.4996 10.4997C18.4996 9.99971 18.1671 9.66638 17.6663 9.66638H14.4996C14.4172 9.66638 14.333 9.58305 14.333 9.49971V6.3331C14.333 5.83311 14.0005 5.49978 13.4997 5.49978C12.9997 5.49978 12.6663 5.83311 12.6663 6.3331V9.49971C12.6663 9.58305 12.583 9.66638 12.4997 9.66638Z" />
<path d="M20.3334 2.00001H6.58361C5.66696 2.00001 4.91698 2.74999 4.91698 3.66664V17.4164C4.91698 18.3322 5.66696 19.0831 6.58361 19.0831H20.3334C21.2492 19.0831 22 18.3322 22 17.4164V3.66664C22 2.74999 21.2492 2.00001 20.3334 2.00001ZM20.2501 17.3331C20.1659 17.4164 20.0834 17.4164 19.9167 17.4164H7.00027C6.75028 17.4164 6.58361 17.2489 6.58361 16.9998V4.0833C6.58361 3.83331 6.75028 3.66664 7.00027 3.66664H19.9167C20.1659 3.66664 20.3334 3.83331 20.3334 4.0833V16.9998C20.3334 17.0408 20.3128 17.1027 20.292 17.1649C20.2711 17.2277 20.2501 17.2908 20.2501 17.3331Z" />
<path d="M18.2498 20.3327H4.08332C3.83333 20.3327 3.66666 20.166 3.66666 19.916V5.74961C3.66666 5.24962 3.33334 4.91629 2.83334 4.91629C2.33335 4.91629 2.00002 5.24962 2.00002 5.74961V20.3327C2.00002 21.2494 2.75001 21.9993 3.66666 21.9993H18.2498C18.7497 21.9993 19.0831 21.666 19.0831 21.166C19.0831 20.666 18.7497 20.3327 18.2498 20.3327Z" />
</svg>