<!-- character:0:486 -->
  <svg width="20" height="20" viewBox="0 0 20 20" >
<path   d="M16.875 14.4442C16.8048 14.5137 16.7361 14.5137 16.5972 14.5137H5.8335C5.62517 14.5137 5.48628 14.3741 5.48628 14.1664V3.40274C5.48628 3.19441 5.62517 3.05552 5.8335 3.05552H16.5972C16.8048 3.05552 16.9444 3.19441 16.9444 3.40274V14.1664C16.9444 14.2006 16.9272 14.2522 16.91 14.304C16.8925 14.3564 16.875 14.409 16.875 14.4442ZM16.9444 1.66666H5.48628C4.72241 1.66666 4.09742 2.29165 4.09742 3.05552V14.5137C4.09742 15.2768 4.72241 15.9025 5.48628 15.9025H16.9444C17.7076 15.9025 18.3333 15.2768 18.3333 14.5137V3.05552C18.3333 2.29165 17.7076 1.66666 16.9444 1.66666ZM15.2081 16.9439H3.40271C3.19438 16.9439 3.05549 16.805 3.05549 16.5967V4.79133C3.05549 4.37467 2.77772 4.09689 2.36106 4.09689C1.9444 4.09689 1.66663 4.37467 1.66663 4.79133V16.9439C1.66663 17.7078 2.29162 18.3328 3.05549 18.3328H15.2081C15.6247 18.3328 15.9025 18.055 15.9025 17.6383C15.9025 17.2217 15.6247 16.9439 15.2081 16.9439ZM10.4163 8.0553H7.7775C7.36084 8.0553 7.01362 8.33307 7.08306 8.74973C7.08306 9.16639 7.36084 9.44417 7.7775 9.44417H10.4163C10.4858 9.44417 10.5552 9.51361 10.5552 9.58305V12.2219C10.5552 12.6386 10.833 12.9163 11.2497 12.9163C11.667 12.9163 11.9441 12.6386 11.9441 12.2219V9.58305C11.9441 9.51361 12.0142 9.44417 12.083 9.44417H14.7218C15.1392 9.44417 15.4163 9.16639 15.4163 8.74973C15.4163 8.33307 15.1392 8.0553 14.7218 8.0553H12.083C12.0142 8.0553 11.9441 7.98586 11.9441 7.91641V5.27757C11.9441 4.86091 11.667 4.58314 11.2497 4.58314C10.833 4.58314 10.5552 4.86091 10.5552 5.27757V7.91641C10.5552 7.98586 10.4858 8.0553 10.4163 8.0553Z" />
</svg>