<!--character:1268-->
  <svg width="20" height="20" viewBox="0 0 20 20" >
<path d="M10.4167 8.05531H7.77786C7.3612 8.05531 7.01399 8.33308 7.08343 8.74974C7.08343 9.1664 7.3612 9.44417 7.77786 9.44417H10.4167C10.4861 9.44417 10.5556 9.51362 10.5556 9.58306V12.2219C10.5556 12.6386 10.8334 12.9163 11.25 12.9163C11.6674 12.9163 11.9445 12.6386 11.9445 12.2219V9.58306C11.9445 9.51362 12.0146 9.44417 12.0833 9.44417H14.7222C15.1395 9.44417 15.4166 9.1664 15.4166 8.74974C15.4166 8.33308 15.1395 8.05531 14.7222 8.05531H12.0833C12.0146 8.05531 11.9445 7.98586 11.9445 7.91642V5.27758C11.9445 4.86092 11.6674 4.58314 11.25 4.58314C10.8334 4.58314 10.5556 4.86092 10.5556 5.27758V7.91642C10.5556 7.98586 10.4861 8.05531 10.4167 8.05531Z" />
<path d="M16.9448 1.66666H5.48665C4.72277 1.66666 4.09779 2.29165 4.09779 3.05553V14.5137C4.09779 15.2769 4.72277 15.9025 5.48665 15.9025H16.9448C17.708 15.9025 18.3337 15.2769 18.3337 14.5137V3.05553C18.3337 2.29165 17.708 1.66666 16.9448 1.66666ZM16.8753 14.4442C16.8052 14.5137 16.7365 14.5137 16.5976 14.5137H5.83387C5.62554 14.5137 5.48665 14.3741 5.48665 14.1665V3.40275C5.48665 3.19442 5.62554 3.05553 5.83387 3.05553H16.5976C16.8052 3.05553 16.9448 3.19442 16.9448 3.40275V14.1665C16.9448 14.2007 16.9276 14.2522 16.9103 14.304C16.8929 14.3564 16.8753 14.409 16.8753 14.4442Z" />
<path d="M15.2084 16.9439H3.40307C3.19474 16.9439 3.05586 16.805 3.05586 16.5967V4.79133C3.05586 4.37467 2.77808 4.0969 2.36142 4.0969C1.94477 4.0969 1.66699 4.37467 1.66699 4.79133V16.9439C1.66699 17.7078 2.29198 18.3328 3.05586 18.3328H15.2084C15.6251 18.3328 15.9029 18.055 15.9029 17.6383C15.9029 17.2217 15.6251 16.9439 15.2084 16.9439Z" />
</svg>