<!--character:183-->
  <svg width="24" height="24" viewBox="0 0 24 24" >
<path d="M20.1015 3.63367C20.3617 3.56412 20.5852 3.6151 20.7255 3.67157C20.8067 3.70434 20.8728 3.74681 20.9248 3.7828C20.992 3.82777 21.0622 3.88356 21.1274 3.95638C21.3462 4.20083 21.4097 4.48604 21.4155 4.70815C21.4158 4.71595 21.4154 4.72422 21.4155 4.7326C22.1041 9.34633 20.7934 13.241 18.6782 15.9872C16.5658 18.7295 13.5877 20.4 10.9354 20.4C9.22134 20.3999 7.5769 19.6683 6.36486 18.3672C6.14389 18.1299 5.94161 17.8763 5.75683 17.6105L4.1946 19.3084C3.78711 19.75 3.12284 19.754 2.71094 19.317C2.29926 18.8797 2.29614 18.1666 2.70297 17.7242L4.75595 15.4933C4.56951 14.8404 4.47129 14.1558 4.47129 13.4605C4.47145 11.0712 5.21891 9.37923 6.54022 8.23598C7.79169 7.15332 9.44426 6.66954 11.0424 6.35472C11.8533 6.19501 12.6993 6.07029 13.5144 5.94644C14.3397 5.82104 15.1411 5.69514 15.909 5.52838C17.1632 5.25596 18.2458 4.89021 19.1086 4.32066C19.3504 4.13421 19.5085 4.01323 19.6085 3.93683C19.726 3.80901 19.8894 3.69058 20.1015 3.63367ZM19.4912 6.65909C18.4904 7.18072 17.3984 7.50425 16.3258 7.73724C15.49 7.91876 14.632 8.05214 13.8082 8.1773C12.9744 8.30398 12.1789 8.42153 11.4205 8.57091C9.87975 8.87446 8.67615 9.28216 7.85763 9.99011C7.10924 10.6376 6.57111 11.6365 6.57096 13.4605C6.57096 13.5311 6.57257 13.6017 6.57551 13.672C8.35331 12.2718 10.3438 11.2251 12.4566 10.5842C13.0142 10.4151 13.5947 10.7632 13.7524 11.3616C13.9098 11.9603 13.5848 12.5836 13.0271 12.7527C10.9916 13.3702 9.08032 14.4127 7.3999 15.8258L7.25643 15.9798C7.42542 16.2646 7.6227 16.5319 7.84852 16.7744C8.66697 17.653 9.77796 18.147 10.9354 18.1471C12.8271 18.1471 15.2528 16.8988 17.0613 14.5509C18.5779 12.5817 19.6143 9.88963 19.4912 6.65909Z" />
</svg>