<!--character:3372-->
  <svg width="24" height="24" viewBox="0 0 24 24" >
<path d="M3.41669 2.25001C3.08336 1.91667 2.58336 1.91667 2.25002 2.25001C1.91669 2.58334 1.91669 3.08334 2.25002 3.41667L9.28416 10.4508L5.53995 14.1961C5.3927 14.3434 5.3927 14.5821 5.53995 14.7294L9.27286 18.4623C9.42016 18.6096 9.65893 18.6096 9.80624 18.4623L13.551 14.7176L20.5834 21.75C20.8334 22.0833 21.4167 22.0833 21.75 21.75C22.0834 21.4167 22.0834 20.9167 21.75 20.5833L3.41669 2.25001Z" />
<path d="M18.848 3.55109L20.4497 5.15349C21.1835 5.88957 21.1835 7.08054 20.4497 7.81662L19.3814 8.88715C19.2341 9.03441 18.9953 9.03441 18.848 8.88715L15.1136 5.15349C14.9664 5.00619 14.9664 4.76741 15.1136 4.62011L16.1834 3.55109C16.9197 2.81631 18.1118 2.81631 18.848 3.55109Z" />
<path d="M14.3139 5.95469C14.2433 5.88344 14.1472 5.84326 14.0469 5.84304C13.9466 5.84306 13.8506 5.88296 13.7798 5.95394L11.2938 8.44061L15.5609 12.7077L18.0423 10.2263C18.1891 10.079 18.1891 9.84085 18.0423 9.69363L14.3139 5.95469Z" />
<path d="M4.78025 15.6219C4.68364 15.5256 4.54258 15.489 4.41133 15.5261C4.27987 15.563 4.17859 15.668 4.14653 15.8007L3.01036 20.5363C2.97987 20.6639 3.01787 20.7981 3.1107 20.8908C3.20408 20.9825 3.33783 21.0201 3.46528 20.9904L8.19704 19.8588C8.32991 19.827 8.43519 19.7258 8.47229 19.5944C8.50938 19.4629 8.47249 19.3216 8.37584 19.2251L4.78025 15.6219Z" />
</svg>