<!--character:3284-->
  <svg width="24" height="24" viewBox="0 0 24 24" >
<path d="M3.41667 2.25C3.08333 1.91667 2.58333 1.91667 2.25 2.25C1.91667 2.58333 1.91667 3.08333 2.25 3.41667L9.28413 10.4508L5.53992 14.196C5.39266 14.3433 5.39266 14.5821 5.53992 14.7294L9.27282 18.4623C9.42012 18.6096 9.6589 18.6096 9.8062 18.4623L13.5509 14.7176L20.5833 21.75C20.8333 22.0833 21.4167 22.0833 21.75 21.75C22.0833 21.4167 22.0833 20.9167 21.75 20.5833L3.41667 2.25Z" />
<path d="M18.848 3.55108L20.4497 5.15349C21.1834 5.88956 21.1834 7.08054 20.4497 7.81661L19.3814 8.88715C19.2341 9.0344 18.9953 9.0344 18.848 8.88715L15.1136 5.15349C14.9664 5.00619 14.9664 4.76741 15.1136 4.62011L16.1834 3.55108C16.9196 2.81631 18.1118 2.81631 18.848 3.55108Z" />
<path d="M14.3139 5.95468C14.2433 5.88343 14.1472 5.84325 14.0468 5.84303C13.9466 5.84305 13.8505 5.88295 13.7798 5.95393L11.2938 8.4406L15.5609 12.7077L18.0423 10.2262C18.189 10.079 18.189 9.84084 18.0423 9.69362L14.3139 5.95468Z" />
<path d="M4.78022 15.6219C4.68362 15.5256 4.54256 15.489 4.41131 15.5261C4.27985 15.563 4.17857 15.668 4.1465 15.8007L3.01034 20.5362C2.97985 20.6638 3.01784 20.7981 3.11067 20.8908C3.20405 20.9825 3.33781 21.02 3.46526 20.9904L8.19702 19.8588C8.32988 19.827 8.43517 19.7258 8.47226 19.5943C8.50936 19.4629 8.47247 19.3216 8.37582 19.225L4.78022 15.6219Z" />
</svg>