<!--character:3574-->
  <svg width="24" height="24" viewBox="0 0 24 24" >
<path d="M3.41706 2.25C3.08372 1.91666 2.58372 1.91666 2.25039 2.25C1.91706 2.58333 1.91706 3.08333 2.25039 3.41666L9.28453 10.4508L5.54032 14.196C5.39306 14.3433 5.39306 14.5821 5.54032 14.7294L9.27322 18.4623C9.42052 18.6096 9.6593 18.6096 9.8066 18.4623L13.5513 14.7176L20.5837 21.75C20.8337 22.0833 21.4171 22.0833 21.7504 21.75C22.0837 21.4167 22.0837 20.9167 21.7504 20.5833L3.41706 2.25Z" />
<path d="M18.8484 3.55108L20.4501 5.15348C21.1838 5.88956 21.1838 7.08054 20.4501 7.81661L19.3818 8.88714C19.2345 9.0344 18.9957 9.0344 18.8484 8.88714L15.114 5.15348C14.9667 5.00618 14.9667 4.76741 15.114 4.6201L16.1838 3.55108C16.92 2.8163 18.1122 2.8163 18.8484 3.55108Z" />
<path d="M14.3143 5.95468C14.2437 5.88343 14.1476 5.84325 14.0472 5.84303C13.947 5.84305 13.8509 5.88295 13.7802 5.95393L11.2942 8.4406L15.5613 12.7077L18.0427 10.2263C18.1894 10.079 18.1894 9.84084 18.0427 9.69362L14.3143 5.95468Z" />
<path d="M4.78061 15.6219C4.68401 15.5256 4.54295 15.489 4.4117 15.5261C4.28024 15.563 4.17896 15.668 4.14689 15.8007L3.01073 20.5362C2.98024 20.6638 3.01823 20.7981 3.11106 20.8908C3.20444 20.9825 3.3382 21.0201 3.46565 20.9904L8.19741 19.8588C8.33027 19.827 8.43556 19.7258 8.47265 19.5943C8.50975 19.4629 8.47286 19.3216 8.37621 19.2251L4.78061 15.6219Z" />
</svg>