<!--character:480-->
  <svg width="24" height="24" viewBox="0 0 24 24" >
<path   d="M19.6561 2.26172L19.41 2.25C18.8336 2.25003 18.2778 2.4504 17.8358 2.8125L17.6532 2.97754L10.2948 10.3359C10.2087 10.4221 10.1452 10.5275 10.1093 10.6426L10.0829 10.7607L9.67468 13.6221C9.64132 13.8558 9.71968 14.0919 9.88659 14.2588C10.0536 14.4257 10.2896 14.5041 10.5233 14.4707L13.3846 14.0615C13.5451 14.0385 13.6938 13.9642 13.8085 13.8496L20.3436 7.31348C20.3453 7.31186 20.3479 7.3112 20.3495 7.30957C20.3511 7.30796 20.3518 7.30533 20.3534 7.30371L21.1669 6.49121L21.3319 6.30859C21.6424 5.92958 21.8344 5.46707 21.8827 4.97949L21.8944 4.73438C21.8944 4.0755 21.6328 3.44345 21.1669 2.97754C20.7593 2.57001 20.2247 2.31827 19.6561 2.26172ZM11.5321 11.2187L17.3651 5.38574L18.7577 6.77832L12.9237 12.6123L11.2997 12.8447L11.5321 11.2187ZM19.41 3.75L19.5077 3.75488C19.7329 3.77731 19.9449 3.87667 20.1063 4.03809C20.2677 4.19952 20.3671 4.41153 20.3895 4.63672L20.3944 4.73438C20.3944 4.96281 20.3153 5.18323 20.1718 5.3584L20.1063 5.43066L19.8182 5.71777L18.4257 4.3252L18.7137 4.03809L18.786 3.97266C18.9611 3.82916 19.1816 3.75003 19.41 3.75Z" />
<path   d="M3.05039 19.1883V7.62579C3.05039 7.12022 3.25149 6.63563 3.60898 6.27814C3.96648 5.92065 4.45107 5.71954 4.95664 5.71954H10.7379C11.1521 5.71954 11.4879 6.05533 11.4879 6.46954C11.4879 6.88376 11.1521 7.21954 10.7379 7.21954H4.95664C4.8489 7.21954 4.74572 7.2625 4.66953 7.33868C4.59334 7.41487 4.55039 7.51805 4.55039 7.62579V19.1883C4.55039 19.296 4.59334 19.3992 4.66953 19.4754C4.74572 19.5516 4.8489 19.5945 4.95664 19.5945H16.5191L16.5992 19.5867C16.6771 19.5711 16.7492 19.5324 16.8062 19.4754C16.8633 19.4184 16.9019 19.3463 16.9176 19.2684L16.9254 19.1883V13.407C16.9254 12.9928 17.2612 12.657 17.6754 12.657C18.0896 12.657 18.4254 12.9928 18.4254 13.407V19.1883L18.4156 19.3768C18.3723 19.8131 18.1796 20.2232 17.8668 20.5359C17.554 20.8487 17.144 21.0414 16.7076 21.0848L16.5191 21.0945H4.95664C4.45107 21.0945 3.96648 20.8934 3.60898 20.5359C3.25149 20.1785 3.05039 19.6939 3.05039 19.1883Z" />
</svg>