<!-- character:0:212 -->
  <svg width="20" height="20" viewBox="0 0 20 20" >
<path   d="M15.7067 2.95924L17.0414 4.29457C17.6529 4.90797 17.6529 5.90045 17.0414 6.51384L16.1512 7.40595C16.0284 7.52867 15.8294 7.52867 15.7067 7.40595L12.5947 4.29457C12.472 4.17182 12.472 3.97284 12.5947 3.85009L13.4862 2.95924C14.0997 2.34692 15.0931 2.34692 15.7067 2.95924ZM11.9283 4.96224C11.8694 4.90286 11.7893 4.86938 11.7057 4.86919C11.6222 4.86921 11.5421 4.90246 11.4831 4.96161L4.61661 11.83C4.49389 11.9528 4.49389 12.1518 4.61661 12.2745L7.72736 15.3853C7.85011 15.508 8.04909 15.508 8.17184 15.3853L15.0352 8.52188C15.1575 8.3992 15.1575 8.2007 15.0352 8.07802L11.9283 4.96224ZM3.98352 13.0183C3.90301 12.938 3.78546 12.9075 3.67609 12.9384C3.56654 12.9691 3.48214 13.0567 3.45542 13.1673L2.50861 17.1135C2.48321 17.2199 2.51487 17.3318 2.59223 17.409C2.67005 17.4854 2.78151 17.5167 2.88771 17.492L6.83085 16.549C6.94157 16.5225 7.02931 16.4382 7.06022 16.3286C7.09113 16.2191 7.06039 16.1013 6.97985 16.0209L3.98352 13.0183Z" />
</svg>