<!--category:basic-->
<!--character:0045-->
<svg width="24" height="24" viewBox="0 0 24 24" xmlns="http://www.w3.org/2000/svg"><path d="M14.314 5.9547l3.7283 3.739a.3772.3772 0 0 1 0 .5326l-8.236 8.236a.3772.3772 0 0 1-.5335 0L5.54 14.7294a.3772.3772 0 0 1 0-.5334l8.2399-8.242a.3771.3771 0 0 1 .267-.111.3772.3772 0 0 1 .2671.1117zm-9.5338 9.6672l3.5956 3.6032a.3772.3772 0 0 1-.1788.6337l-4.7317 1.1316a.3825.3825 0 0 1-.3546-.0996.3772.3772 0 0 1-.1004-.3545l1.1362-4.7356a.3772.3772 0 0 1 .2648-.2746.3772.3772 0 0 1 .369.0958zM20.4497 5.1535c.7337.736.7337 1.927 0 2.6631l-1.0683 1.0705a.3772.3772 0 0 1-.5334 0l-3.7344-3.7336a.3772.3772 0 0 1 0-.5334l1.0698-1.069c.7362-.7348 1.9284-.7348 2.6646 0l1.6017 1.6024z"/></svg>