<!--character:6036-->
  <svg width="24" height="24" viewBox="0 0 24 24" >
<path d="M18.848 3.55108L20.4497 5.15349C21.1834 5.88956 21.1834 7.08054 20.4497 7.81661L19.3814 8.88715C19.2341 9.0344 18.9953 9.0344 18.848 8.88715L15.1136 5.15349C14.9663 5.00619 14.9663 4.76741 15.1136 4.62011L16.1834 3.55108C16.9196 2.81631 18.1118 2.81631 18.848 3.55108Z" />
<path d="M14.3139 5.95469C14.2433 5.88343 14.1472 5.84325 14.0468 5.84303C13.9466 5.84305 13.8505 5.88296 13.7798 5.95393L5.53993 14.196C5.39267 14.3434 5.39267 14.5821 5.53993 14.7294L9.27283 18.4623C9.42013 18.6096 9.65891 18.6096 9.80621 18.4623L18.0423 10.2263C18.189 10.079 18.189 9.84084 18.0423 9.69363L14.3139 5.95469Z" />
<path d="M4.78022 15.6219C4.68362 15.5256 4.54256 15.489 4.41131 15.5261C4.27985 15.563 4.17857 15.668 4.1465 15.8007L3.01034 20.5363C2.97985 20.6639 3.01784 20.7981 3.11067 20.8908C3.20405 20.9825 3.33781 21.0201 3.46526 20.9904L8.19702 19.8588C8.32988 19.827 8.43517 19.7258 8.47226 19.5944C8.50936 19.4629 8.47247 19.3216 8.37582 19.2251L4.78022 15.6219Z" />
</svg>