<!-- character:0:222 -->
  <svg width="20" height="20" viewBox="0 0 20 20" >
<path   d="M2.84718 1.87499C2.5694 1.59721 2.15274 1.59721 1.87496 1.87499C1.59718 2.15277 1.59718 2.56943 1.87496 2.84721L7.73674 8.709L4.61657 11.83C4.49385 11.9528 4.49385 12.1518 4.61657 12.2745L7.72732 15.3853C7.85007 15.508 8.04905 15.508 8.1718 15.3853L11.2924 12.2647L17.1527 18.125C17.3611 18.4028 17.8472 18.4028 18.125 18.125C18.4027 17.8472 18.4027 17.4305 18.125 17.1528L2.84718 1.87499ZM15.7066 2.95923L17.0413 4.29456C17.6528 4.90796 17.6528 5.90044 17.0413 6.51383L16.1511 7.40594C16.0284 7.52866 15.8294 7.52866 15.7066 7.40594L12.5946 4.29456C12.4719 4.17181 12.4719 3.97283 12.5946 3.85008L13.4861 2.95923C14.0997 2.34691 15.0931 2.34691 15.7066 2.95923ZM11.9282 4.96223C11.8694 4.90285 11.7893 4.86937 11.7057 4.86918C11.6221 4.8692 11.5421 4.90245 11.4831 4.9616L9.41146 7.03382L12.9674 10.5897L15.0352 8.52187C15.1575 8.39919 15.1575 8.20069 15.0352 8.07801L11.9282 4.96223ZM3.98348 13.0183C3.90297 12.938 3.78542 12.9075 3.67605 12.9384C3.5665 12.9691 3.4821 13.0567 3.45538 13.1673L2.50857 17.1135C2.48316 17.2199 2.51483 17.3318 2.59219 17.409C2.67 17.4854 2.78147 17.5167 2.88767 17.492L6.83081 16.549C6.94153 16.5225 7.02927 16.4382 7.06018 16.3286C7.09109 16.219 7.06035 16.1013 6.97981 16.0209L3.98348 13.0183Z" />
</svg>