<!--character:3285-->
  <svg width="20" height="20" viewBox="0 0 20 20" >
<path d="M2.84755 1.875C2.56977 1.59722 2.1531 1.59722 1.87533 1.875C1.59755 2.15278 1.59755 2.56944 1.87533 2.84722L7.73711 8.709L4.61693 11.83C4.49422 11.9528 4.49422 12.1518 4.61693 12.2745L7.72769 15.3853C7.85044 15.508 8.04942 15.508 8.17217 15.3853L11.2928 12.2647L17.1531 18.125C17.3614 18.4028 17.8475 18.4028 18.1253 18.125C18.4031 17.8472 18.4031 17.4306 18.1253 17.1528L2.84755 1.875Z" />
<path d="M15.707 2.95923L17.0417 4.29457C17.6532 4.90797 17.6532 5.90045 17.0417 6.51384L16.1515 7.40595C16.0287 7.52867 15.8298 7.52867 15.707 7.40595L12.595 4.29457C12.4723 4.17182 12.4723 3.97284 12.595 3.85009L13.4865 2.95923C14.1 2.34692 15.0935 2.34692 15.707 2.95923Z" />
<path d="M11.9286 4.96224C11.8697 4.90286 11.7896 4.86938 11.706 4.86919C11.6225 4.86921 11.5424 4.90246 11.4835 4.96161L9.41182 7.03383L12.9677 10.5897L15.0356 8.52188C15.1579 8.3992 15.1579 8.2007 15.0356 8.07802L11.9286 4.96224Z" />
<path d="M3.98384 13.0183C3.90334 12.938 3.78579 12.9075 3.67641 12.9384C3.56686 12.9691 3.48246 13.0567 3.45574 13.1673L2.50894 17.1135C2.48353 17.2199 2.51519 17.3318 2.59255 17.409C2.67037 17.4854 2.78183 17.5167 2.88804 17.492L6.83118 16.549C6.94189 16.5225 7.02963 16.4382 7.06054 16.3286C7.09146 16.2191 7.06072 16.1013 6.98017 16.0209L3.98384 13.0183Z" />
</svg>