<!--character:2584-->
  <svg width="24" height="24" viewBox="0 0 24 24" >
<path d="M12.7351 14.1267C12.3284 14.5325 11.6692 14.5325 11.2618 14.1267L3.19175 6.05502C3.12842 5.99168 3.08675 5.90918 3.07342 5.82002C3.04092 5.59252 3.19842 5.38085 3.42592 5.34752C3.50592 5.33585 3.58675 5.33002 3.66675 5.33002H20.3334C20.4134 5.33002 20.4942 5.33585 20.5726 5.34752C20.6617 5.36085 20.7443 5.40252 20.8084 5.46585C20.9709 5.62918 20.9701 5.89335 20.8076 6.05502L12.7351 14.1267Z" />
<path d="M16.5742 12.0561L21.7408 6.88943C21.7842 6.84526 21.85 6.83276 21.9067 6.85693C21.9633 6.88026 22 6.93526 22 6.99693V16.9969C22 17.9169 21.2542 18.6636 20.3333 18.6636H3.66667C2.74667 18.6636 2 17.9169 2 16.9969V6.99693C2.00083 6.9361 2.0375 6.88193 2.09333 6.8586C2.15 6.8336 2.21667 6.84693 2.26 6.8911L7.4275 12.0578C7.50833 12.1394 7.50833 12.2711 7.4275 12.3528L4.225 15.5553C3.99 15.7978 3.99 16.1819 4.22417 16.4236C4.46417 16.6728 4.85917 16.6786 5.1075 16.4394L8.31 13.2369C8.39167 13.1561 8.52333 13.1561 8.605 13.2369L10.3808 15.0094C11.2758 15.9036 12.7258 15.9036 13.6217 15.0094L15.3958 13.2344C15.4767 13.1536 15.6083 13.1544 15.69 13.2353L18.8925 16.4378C18.8975 16.4428 18.9033 16.4478 18.9083 16.4536C19.1558 16.6928 19.5525 16.6853 19.7917 16.4369C20.0317 16.1886 20.0242 15.7936 19.7767 15.5536L16.5742 12.3511C16.4925 12.2694 16.4925 12.1378 16.5742 12.0561Z" />
</svg>