<!--character:182-->
  <svg width="24" height="24" viewBox="0 0 24 24" >
<path d="M20.3246 4.15964V4.6196C20.3247 4.1709 20.3242 4.15989 20.3246 4.15964H20.3333C20.3363 4.15967 20.3395 4.16056 20.3431 4.16062C20.3507 4.16074 20.3601 4.16027 20.3705 4.16062C20.3912 4.16131 20.4175 4.16329 20.4486 4.1655C20.5104 4.16992 20.5932 4.17772 20.6898 4.19382C20.8788 4.22533 21.1446 4.2899 21.4212 4.4282C21.7014 4.56828 22.009 4.79277 22.2445 5.14597C22.4838 5.50488 22.6126 5.94337 22.6126 6.44773V17.5473H21.7123C22.5984 17.5473 22.6124 17.5469 22.6126 17.5473V17.5659C22.6125 17.5735 22.612 17.5828 22.6117 17.5932C22.611 17.614 22.61 17.6403 22.6078 17.6714C22.6033 17.7332 22.5946 17.816 22.5785 17.9126C22.5469 18.1016 22.4824 18.3675 22.3441 18.644C22.204 18.9242 21.9795 19.2318 21.6263 19.4673C21.2674 19.7065 20.8289 19.8354 20.3246 19.8354H3.67515V18.935C3.67515 19.8249 3.67559 19.8353 3.67515 19.8354H3.66636C3.66342 19.8354 3.66017 19.8345 3.65659 19.8344C3.64898 19.8343 3.63965 19.8348 3.62925 19.8344C3.60849 19.8338 3.58214 19.8318 3.55112 19.8296C3.48927 19.8251 3.40649 19.8173 3.30991 19.8012C3.12091 19.7697 2.85502 19.7051 2.57847 19.5669C2.29829 19.4268 1.99072 19.2023 1.75522 18.8491C1.51595 18.4902 1.38706 18.0517 1.38706 17.5473V6.44773H2.26792C1.39749 6.44772 1.38717 6.44817 1.38706 6.44773V6.43894C1.38708 6.436 1.38798 6.43275 1.38804 6.42917C1.38816 6.42156 1.38769 6.41223 1.38804 6.40183C1.38873 6.38107 1.3907 6.35473 1.39292 6.32371C1.39734 6.26185 1.40514 6.17908 1.42124 6.0825C1.45276 5.89349 1.51734 5.62761 1.65562 5.35105C1.79571 5.07088 2.02017 4.7633 2.37339 4.52781C2.7323 4.28853 3.17079 4.15964 3.67515 4.15964H20.3246ZM10.683 10.6499L10.8285 10.7524C11.1765 10.9771 11.5835 11.0971 12.0003 11.0971C12.4765 11.0971 12.9393 10.9401 13.3167 10.6499L19.4125 5.96042H4.58726L10.683 10.6499ZM3.18784 17.5473C3.18784 17.7364 3.23234 17.8186 3.25327 17.8501C3.27791 17.887 3.31746 17.9232 3.38413 17.9565C3.45417 17.9915 3.53484 18.014 3.60581 18.0259C3.63893 18.0314 3.66495 18.0336 3.67905 18.0346L3.68979 18.0356C3.68957 18.0356 3.688 18.0347 3.68589 18.0346H20.3246C20.5139 18.0346 20.5969 17.9901 20.6283 17.9692C20.6651 17.9446 20.7005 17.9048 20.7337 17.8384C20.7687 17.7683 20.7912 17.6877 20.8031 17.6167C20.8086 17.5836 20.8108 17.5575 20.8119 17.5434C20.8123 17.537 20.8128 17.5327 20.8128 17.5327V7.15378L14.4144 12.0766C13.7223 12.609 12.8735 12.8978 12.0003 12.8979C11.127 12.8979 10.2775 12.6091 9.5853 12.0766L3.18784 7.15476V17.5473Z" />
</svg>