<!--character:7555-->
  <svg width="20" height="20" viewBox="0 0 20 20" >
<path d="M10.6124 11.7722C10.2735 12.1104 9.72421 12.1104 9.38463 11.7722L2.65963 5.04583C2.60685 4.99305 2.57213 4.9243 2.56102 4.85C2.53393 4.66042 2.66518 4.48403 2.85477 4.45625C2.92143 4.44653 2.9888 4.44167 3.05546 4.44167H16.9444C17.011 4.44167 17.0784 4.44653 17.1437 4.45625C17.218 4.46736 17.2867 4.50208 17.3402 4.55486C17.4756 4.69097 17.4749 4.91111 17.3395 5.04583L10.6124 11.7722Z" />
<path d="M13.8116 10.0467L18.1172 5.74118C18.1533 5.70437 18.2082 5.69396 18.2554 5.7141C18.3026 5.73354 18.3332 5.77937 18.3332 5.83076V14.1641C18.3332 14.9308 17.7116 15.553 16.9443 15.553H3.05539C2.28873 15.553 1.6665 14.9308 1.6665 14.1641V5.83076C1.6672 5.78007 1.69775 5.73493 1.74428 5.71548C1.7915 5.69465 1.84706 5.70576 1.88317 5.74257L6.18942 10.0481C6.25678 10.1162 6.25678 10.2259 6.18942 10.294L3.52067 12.9627C3.32484 13.1648 3.32484 13.4849 3.51998 13.6863C3.71998 13.894 4.04914 13.8988 4.25609 13.6995L6.92484 11.0308C6.99289 10.9634 7.10262 10.9634 7.17067 11.0308L8.65053 12.5078C9.39637 13.253 10.6047 13.253 11.3512 12.5078L12.8297 11.0287C12.8971 10.9613 13.0068 10.962 13.0748 11.0294L15.7436 13.6981C15.7436 13.6981 15.7464 13.7009 15.7479 13.7022C15.7509 13.7051 15.754 13.708 15.7568 13.7113C15.963 13.9106 16.2936 13.9044 16.4929 13.6974C16.6929 13.4905 16.6866 13.1613 16.4804 12.9613L13.8116 10.2926C13.7436 10.2245 13.7436 10.1148 13.8116 10.0467Z" />
</svg>