<!--character:1984-->
  <svg width="24" height="24" viewBox="0 0 24 24" >
<path d="M12.7349 14.1267C12.3282 14.5325 11.6691 14.5325 11.2616 14.1267L3.19155 6.055C3.12822 5.99167 3.08655 5.90917 3.07322 5.82C3.04072 5.5925 3.19822 5.38083 3.42572 5.3475C3.50572 5.33583 3.58655 5.33 3.66655 5.33H20.3332C20.4132 5.33 20.4941 5.33583 20.5724 5.3475C20.6616 5.36083 20.7441 5.4025 20.8082 5.46583C20.9707 5.62917 20.9699 5.89333 20.8074 6.055L12.7349 14.1267Z" />
<path d="M16.574 12.0561L21.7406 6.88942C21.784 6.84525 21.8498 6.83275 21.9065 6.85692C21.9631 6.88025 21.9998 6.93525 21.9998 6.99692V16.9969C21.9998 17.9169 21.254 18.6636 20.3331 18.6636H3.66647C2.74647 18.6636 1.9998 17.9169 1.9998 16.9969V6.99692C2.00064 6.93608 2.0373 6.88192 2.09314 6.85858C2.1498 6.83358 2.21647 6.84692 2.2598 6.89108L7.4273 12.0577C7.50814 12.1394 7.50814 12.2711 7.4273 12.3527L4.2248 15.5553C3.9898 15.7978 3.9898 16.1819 4.22397 16.4236C4.46397 16.6728 4.85897 16.6786 5.10731 16.4394L8.30981 13.2369C8.39147 13.1561 8.52314 13.1561 8.60481 13.2369L10.3806 15.0094C11.2756 15.9036 12.7256 15.9036 13.6215 15.0094L15.3956 13.2344C15.4765 13.1536 15.6081 13.1544 15.6898 13.2353L18.8923 16.4378C18.8923 16.4378 18.8957 16.441 18.8974 16.4427C18.901 16.4461 18.9048 16.4497 18.9081 16.4536C19.1556 16.6928 19.5523 16.6853 19.7915 16.4369C20.0315 16.1886 20.024 15.7936 19.7765 15.5536L16.574 12.3511C16.4923 12.2694 16.4923 12.1378 16.574 12.0561Z" />
</svg>