<!--character:3953-->
  <svg width="24" height="24" viewBox="0 0 24 24" >
<path d="M12.7351 14.1267C12.3284 14.5325 11.6693 14.5325 11.2618 14.1267L3.19177 6.055C3.12844 5.99167 3.08677 5.90917 3.07344 5.82C3.04094 5.5925 3.19844 5.38083 3.42594 5.3475C3.50594 5.33583 3.58677 5.33 3.66677 5.33H20.3334C20.4134 5.33 20.4943 5.33583 20.5726 5.3475C20.6618 5.36083 20.7443 5.4025 20.8084 5.46583C20.9709 5.62917 20.9701 5.89333 20.8076 6.055L12.7351 14.1267Z" />
<path d="M16.5742 12.0561L21.7409 6.88942C21.7842 6.84525 21.85 6.83275 21.9067 6.85692C21.9634 6.88025 22 6.93525 22 6.99692V16.9969C22 17.9169 21.2542 18.6636 20.3334 18.6636H3.66669C2.74669 18.6636 2.00002 17.9169 2.00002 16.9969V6.99692C2.00086 6.93608 2.03752 6.88192 2.09336 6.85858C2.15002 6.83358 2.21669 6.84692 2.26002 6.89108L7.42752 12.0577C7.50836 12.1394 7.50836 12.2711 7.42752 12.3527L4.22502 15.5553C3.99002 15.7978 3.99002 16.1819 4.22419 16.4236C4.46419 16.6728 4.85919 16.6786 5.10752 16.4394L8.31002 13.2369C8.39169 13.1561 8.52336 13.1561 8.60502 13.2369L10.3809 15.0094C11.2759 15.9036 12.7259 15.9036 13.6217 15.0094L15.3959 13.2344C15.4767 13.1536 15.6084 13.1544 15.69 13.2353L18.8925 16.4378C18.8925 16.4378 18.8959 16.441 18.8976 16.4427C18.9013 16.4461 18.905 16.4497 18.9084 16.4536C19.1559 16.6928 19.5525 16.6853 19.7917 16.4369C20.0317 16.1886 20.0242 15.7936 19.7767 15.5536L16.5742 12.3511C16.4925 12.2694 16.4925 12.1378 16.5742 12.0561Z" />
</svg>