<!-- character:0:530 -->
  <svg width="20" height="20" viewBox="0 0 20 20" >
<path   d="M10.6125 11.7722C10.2736 12.1104 9.72433 12.1104 9.38475 11.7722L2.65975 5.04585C2.60697 4.99307 2.57225 4.92432 2.56114 4.85001C2.53406 4.66043 2.66531 4.48404 2.85489 4.45626C2.92156 4.44654 2.98892 4.44168 3.05558 4.44168H16.9445C17.0111 4.44168 17.0785 4.44654 17.1438 4.45626C17.2181 4.46738 17.2868 4.5021 17.3403 4.55488C17.4757 4.69099 17.475 4.91113 17.3396 5.04585L10.6125 11.7722ZM13.8118 10.0468L18.1173 5.74119C18.1534 5.70439 18.2083 5.69397 18.2555 5.71411C18.3027 5.73356 18.3333 5.77939 18.3333 5.83078V14.1641C18.3333 14.9308 17.7118 15.553 16.9444 15.553H3.05551C2.28885 15.553 1.66663 14.9308 1.66663 14.1641V5.83078C1.66732 5.78008 1.69788 5.73494 1.7444 5.7155C1.79163 5.69467 1.84718 5.70578 1.88329 5.74258L6.18954 10.0481C6.2569 10.1162 6.2569 10.2259 6.18954 10.294L3.52079 12.9627C3.32496 13.1648 3.32496 13.4849 3.5201 13.6863C3.7201 13.894 4.04927 13.8988 4.25621 13.6995L6.92496 11.0308C6.99302 10.9634 7.10274 10.9634 7.17079 11.0308L8.65065 12.5079C9.39649 13.253 10.6048 13.253 11.3513 12.5079L12.8298 11.0287C12.8972 10.9613 13.0069 10.962 13.075 11.0294L15.7437 13.6981C15.7451 13.6995 15.7465 13.7009 15.748 13.7023C15.751 13.7051 15.7541 13.7081 15.7569 13.7113C15.9632 13.9106 16.2937 13.9044 16.493 13.6974C16.693 13.4905 16.6868 13.1613 16.4805 12.9613L13.8118 10.2926C13.7437 10.2245 13.7437 10.1148 13.8118 10.0468Z" />
</svg>