<!--character:5041-->
  <svg width="24" height="24" viewBox="0 0 24 24" >
<path d="M15.2233 11.9933C15.2233 12.1372 15.1464 12.27 15.0217 12.3417L10.6192 14.8575C10.4952 14.9281 10.3431 14.9275 10.2197 14.8559C10.0963 14.7844 10.0203 14.6526 10.02 14.51V9.47666C10.0203 9.33404 10.0963 9.20231 10.2197 9.13075C10.3431 9.0592 10.4952 9.05859 10.6192 9.12916L15.0217 11.645C15.1464 11.7166 15.2233 11.8495 15.2233 11.9933Z" />
<path d="M22 6.74333C22 6.1908 21.7805 5.66089 21.3898 5.27019C20.9991 4.87949 20.4692 4.66 19.9167 4.66H4.08332C2.93273 4.66 1.99999 5.59274 1.99999 6.74333V17.2433C1.99999 18.3939 2.93273 19.3267 4.08332 19.3267H19.9167C20.4692 19.3267 20.9991 19.1072 21.3898 18.7165C21.7805 18.3258 22 17.7959 22 17.2433V6.74333ZM19.0833 6.99333C19.3134 6.99333 19.5 7.17988 19.5 7.41V16.5767C19.5 16.8068 19.3134 16.9933 19.0833 16.9933H4.91665C4.68654 16.9933 4.49999 16.8068 4.49999 16.5767V7.41C4.49999 7.17988 4.68654 6.99333 4.91665 6.99333H19.0833Z" />
</svg>