<!--character:2709-->
<svg width="24" height="24" viewBox="0 0 24 24" >
<path d="M15.2234 11.9933C15.2234 12.1372 15.1464 12.27 15.0217 12.3417L10.6192 14.8575C10.4952 14.9281 10.3431 14.9275 10.2198 14.8559C10.0964 14.7844 10.0203 14.6526 10.02 14.51V9.47666C10.0203 9.33404 10.0964 9.20231 10.2198 9.13075C10.3431 9.0592 10.4952 9.05859 10.6192 9.12916L15.0217 11.645C15.1464 11.7166 15.2234 11.8495 15.2234 11.9933Z" />
<path d="M22 6.74333C22 6.1908 21.7805 5.66089 21.3898 5.27019C20.9991 4.87949 20.4692 4.66 19.9167 4.66H4.08336C2.93276 4.66 2.00002 5.59274 2.00002 6.74333V17.2433C2.00002 18.3939 2.93276 19.3267 4.08336 19.3267H19.9167C20.4692 19.3267 20.9991 19.1072 21.3898 18.7165C21.7805 18.3258 22 17.7959 22 17.2433V6.74333ZM19.0834 6.99333C19.3135 6.99333 19.5 7.17988 19.5 7.41V16.5767C19.5 16.8068 19.3135 16.9933 19.0834 16.9933H4.91669C4.68657 16.9933 4.50002 16.8068 4.50002 16.5767V7.41C4.50002 7.17988 4.68657 6.99333 4.91669 6.99333H19.0834Z" />
</svg>