<!-- character:0:2117 -->
  <svg width="20" height="20" viewBox="0 0 20 20" >
<path   d="M18.3333 5.61941C18.3333 5.15897 18.1504 4.71738 17.8248 4.3918C17.4992 4.06621 17.0576 3.8833 16.5972 3.8833H3.40274C2.44391 3.8833 1.66663 4.66058 1.66663 5.61941V14.3694C1.66663 15.3282 2.44391 16.1055 3.40274 16.1055H16.5972C17.0576 16.1055 17.4992 15.9226 17.8248 15.597C18.1504 15.2714 18.3333 14.8299 18.3333 14.3694V5.61941ZM15.9027 5.82775C16.0945 5.82775 16.25 5.9832 16.25 6.17497V13.8139C16.25 14.0056 16.0945 14.1611 15.9027 14.1611H4.09718C3.90542 14.1611 3.74996 14.0056 3.74996 13.8139V6.17497C3.74996 5.9832 3.90542 5.82775 4.09718 5.82775H15.9027ZM12.6861 9.99441C12.6861 10.1143 12.622 10.225 12.518 10.2847L8.84927 12.3812C8.74598 12.44 8.61922 12.4395 8.5164 12.3799C8.41359 12.3203 8.3502 12.2105 8.34996 12.0916V7.89719C8.3502 7.77833 8.41359 7.66856 8.5164 7.60893C8.61922 7.5493 8.74598 7.5488 8.84927 7.60761L12.518 9.70413C12.622 9.76382 12.6861 9.87454 12.6861 9.99441Z" />
</svg>