<!--character:2584-->
  <svg width="20" height="20" viewBox="0 0 20 20" >
<path d="M12.6864 9.99444C12.6864 10.1143 12.6223 10.225 12.5184 10.2847L8.84963 12.3812C8.74634 12.4401 8.61959 12.4396 8.51677 12.3799C8.41396 12.3203 8.35057 12.2105 8.35033 12.0917V7.89722C8.35057 7.77836 8.41396 7.66859 8.51677 7.60896C8.61959 7.54933 8.74634 7.54883 8.84963 7.60764L12.5184 9.70416C12.6223 9.76385 12.6864 9.87457 12.6864 9.99444Z" />
<path d="M18.3337 5.61944C18.3337 5.159 18.1507 4.71741 17.8252 4.39183C17.4996 4.06624 17.058 3.88333 16.5975 3.88333H3.4031C2.44428 3.88333 1.66699 4.66061 1.66699 5.61944V14.3694C1.66699 15.3283 2.44428 16.1056 3.4031 16.1056H16.5975C17.058 16.1056 17.4996 15.9226 17.8252 15.5971C18.1507 15.2715 18.3337 14.8299 18.3337 14.3694V5.61944ZM15.9031 5.82778C16.0949 5.82778 16.2503 5.98323 16.2503 6.175V13.8139C16.2503 14.0057 16.0949 14.1611 15.9031 14.1611H4.09755C3.90578 14.1611 3.75033 14.0057 3.75033 13.8139V6.175C3.75033 5.98323 3.90578 5.82778 4.09755 5.82778H15.9031Z" />
</svg>