<!--character:4718-->
  <svg width="24" height="24" viewBox="0 0 24 24" >
<path d="M15.2237 11.9933C15.2237 12.1372 15.1468 12.27 15.0221 12.3417L10.6196 14.8575C10.4956 14.9281 10.3435 14.9275 10.2201 14.8559C10.0967 14.7844 10.0207 14.6526 10.0204 14.51V9.47666C10.0207 9.33404 10.0967 9.20231 10.2201 9.13075C10.3435 9.0592 10.4956 9.05859 10.6196 9.12916L15.0221 11.645C15.1468 11.7166 15.2237 11.8495 15.2237 11.9933Z" />
<path d="M22.0004 6.74333C22.0004 6.1908 21.7809 5.66089 21.3902 5.27019C20.9995 4.87949 20.4696 4.66 19.9171 4.66H4.08372C2.93313 4.66 2.00039 5.59274 2.00039 6.74333V17.2433C2.00039 18.3939 2.93313 19.3267 4.08372 19.3267H19.9171C20.4696 19.3267 20.9995 19.1072 21.3902 18.7165C21.7809 18.3258 22.0004 17.7959 22.0004 17.2433V6.74333ZM19.0837 6.99333C19.3138 6.99333 19.5004 7.17988 19.5004 7.41V16.5767C19.5004 16.8068 19.3138 16.9933 19.0837 16.9933H4.91706C4.68694 16.9933 4.50039 16.8068 4.50039 16.5767V7.41C4.50039 7.17988 4.68694 6.99333 4.91706 6.99333H19.0837Z" />
</svg>