<!--description:Use when there is an movie entertainement on board-->
<!--category:services-->
<!--character:E06E-->
<!--added:0.11-->
<svg width="24" height="24" viewBox="0 0 24 24" xmlns="http://www.w3.org/2000/svg"><path d="M22 6.7433v10.5a2.0833 2.0833 0 0 1-2.0833 2.0834H4.0833C2.9327 19.3267 2 18.3939 2 17.2433v-10.5C2 5.5927 2.9327 4.66 4.0833 4.66h15.8334A2.0833 2.0833 0 0 1 22 6.7433zm-2.9167.25H4.9167A.4167.4167 0 0 0 4.5 7.41v9.1667c0 .23.1865.4166.4167.4166h14.1666a.4167.4167 0 0 0 .4167-.4166V7.41a.4167.4167 0 0 0-.4167-.4167zm-4.0616 5.3484l-4.4025 2.5158a.4008.4008 0 0 1-.5992-.3475V9.4767a.4008.4008 0 0 1 .5992-.3475l4.4025 2.5158a.4017.4017 0 0 1 0 .6967z"/></svg>