<!--character:214:550:2260-->
  <svg width="24" height="24" viewBox="0 0 24 24" >
<path   d="M22 6.74337C22 6.19083 21.7805 5.66093 21.3898 5.27023C20.9991 4.87953 20.4692 4.66003 19.9167 4.66003H4.08333C2.93274 4.66003 2 5.59277 2 6.74337V17.2434C2 18.394 2.93274 19.3267 4.08333 19.3267H19.9167C20.4692 19.3267 20.9991 19.1072 21.3898 18.7165C21.7805 18.3258 22 17.7959 22 17.2434V6.74337ZM19.0833 6.99336C19.3135 6.99336 19.5 7.17991 19.5 7.41003V16.5767C19.5 16.8068 19.3135 16.9934 19.0833 16.9934H4.91667C4.68655 16.9934 4.5 16.8068 4.5 16.5767V7.41003C4.5 7.17991 4.68655 6.99336 4.91667 6.99336H19.0833ZM15.2233 11.9934C15.2233 12.1372 15.1464 12.2701 15.0217 12.3417L10.6192 14.8575C10.4952 14.9281 10.3431 14.9275 10.2197 14.856C10.0964 14.7844 10.0203 14.6527 10.02 14.51V9.47671C10.0203 9.33408 10.0964 9.20235 10.2197 9.1308C10.3431 9.05924 10.4952 9.05864 10.6192 9.12921L15.0217 11.645C15.1464 11.7167 15.2233 11.8495 15.2233 11.9934Z" />
</svg>