<!-- character:0:1913 -->
  <svg width="20" height="20" viewBox="0 0 20 20" >
<path   d="M11.5878 5.3464C11.4435 5.3464 11.3714 5.27425 11.2992 5.12995L10.5777 3.25405C10.5777 3.10975 10.5777 2.8933 10.722 2.82115L12.165 1.7389C12.2372 1.66675 12.3815 1.66675 12.4536 1.66675C12.6701 1.7389 12.8144 1.8832 12.7422 2.09965L12.5979 2.6047C12.5979 2.67685 12.6701 2.82115 12.7422 2.82115C15.7725 3.9034 17.7927 6.71725 17.7927 9.96401C17.7927 10.3969 17.5041 10.6855 17.0712 10.6855C16.6383 10.6855 16.3497 10.3969 16.3497 9.96401C16.3497 7.43875 14.7624 5.12995 12.3815 4.26415H12.2372C12.2372 4.30023 12.2191 4.31826 12.2011 4.3363C12.1831 4.35434 12.165 4.37238 12.165 4.40845L11.9486 5.0578C11.8764 5.2021 11.7321 5.3464 11.5878 5.3464ZM7.11452 17.2512C7.11452 17.179 7.04237 17.0347 6.97022 17.0347C4.08422 15.8803 2.28046 13.1386 2.20831 10.0362C2.20831 9.60326 2.49691 9.31466 2.92981 9.31466C3.36271 9.31466 3.65131 9.60326 3.65131 10.0362C3.65131 12.4171 5.02217 14.5816 7.18667 15.5917H7.25882C7.33097 15.5917 7.47527 15.5196 7.47527 15.4474L7.69172 14.5816C7.69172 14.4373 7.83602 14.293 7.98032 14.293C8.12462 14.293 8.26892 14.3652 8.34107 14.5095L9.42332 16.674C9.49547 16.8904 9.42332 17.1069 9.27902 17.179L7.47527 18.2613C7.40312 18.3334 7.25882 18.3334 7.11452 18.2613C6.97022 18.1891 6.97022 18.0448 6.97022 17.9005L7.11452 17.2512ZM13.2473 9.53111C12.8144 9.53111 12.5258 9.81971 12.5258 10.2526V10.4691C12.5258 10.5412 12.4536 10.6134 12.3815 10.6134C11.3714 10.8298 10.722 11.8399 10.9385 12.85C11.0828 13.4272 11.5157 13.9323 12.0929 14.2209L13.8966 14.9424C14.1131 15.0145 14.2574 15.3031 14.1131 15.5196C14.0409 15.6639 13.8966 15.8082 13.6802 15.8082H11.9486C11.5157 15.8082 11.2271 16.0968 11.2271 16.5297C11.2271 16.9626 11.5157 17.2512 11.9486 17.2512H12.3815C12.4536 17.2512 12.5258 17.3233 12.5258 17.3955V17.6119C12.5258 18.0448 12.8144 18.3334 13.2473 18.3334C13.6802 18.3334 13.9688 18.0448 13.9688 17.6119V17.3955C13.9688 17.3233 14.0409 17.2512 14.1131 17.2512C15.1232 17.0347 15.7725 16.0246 15.5561 15.0145C15.4118 14.4373 14.9789 13.9323 14.4017 13.6437L12.5979 12.9222C12.3815 12.85 12.2372 12.5614 12.3815 12.345C12.4536 12.2007 12.5979 12.0564 12.8144 12.0564H14.546C14.9789 12.0564 15.2675 11.7678 15.2675 11.3349C15.2675 10.902 14.9789 10.6134 14.546 10.6134H14.1131C14.0409 10.6134 13.9688 10.5412 13.9688 10.4691V10.3248C13.9688 9.81971 13.6802 9.53111 13.2473 9.53111ZM7.33097 5.3464C7.33097 4.9135 7.04237 4.6249 6.60947 4.6249H5.31077H5.23862C5.16647 4.55275 5.16647 4.40845 5.16647 4.3363C5.67152 3.6148 6.53732 3.1819 7.47527 3.1819C7.83602 3.1819 8.19677 2.8933 8.19677 2.4604C8.19677 2.0275 7.90817 1.7389 7.47527 1.7389C5.67152 1.66675 4.08421 2.82115 3.57916 4.4806L3.43486 4.6249H3.36271C2.92981 4.6249 2.64121 4.9135 2.64121 5.3464C2.64121 5.7793 2.92981 6.0679 3.36271 6.0679C3.43486 6.0679 3.50701 6.14005 3.57916 6.2122L3.57916 6.2122C4.08421 7.87165 5.67152 9.02606 7.47527 8.95391C7.90817 8.95391 8.19677 8.6653 8.19677 8.2324C8.19677 7.7995 7.90817 7.5109 7.47527 7.5109C6.53732 7.5109 5.67152 7.078 5.16647 6.3565V6.28435C5.16647 6.14005 5.23862 6.0679 5.31077 6.0679H6.60947C7.04237 6.0679 7.33097 5.7793 7.33097 5.3464Z" />
</svg>