<!--character:201:550:2099-->
  <svg width="24" height="24" viewBox="0 0 24 24" >
<path   d="M13.9054 6.41558C13.7323 6.41558 13.6457 6.329 13.5591 6.15584L12.6933 3.90476C12.6933 3.7316 12.6933 3.47186 12.8665 3.38528L14.5981 2.08658C14.6847 2 14.8578 2 14.9444 2C15.2041 2.08658 15.3773 2.25974 15.2907 2.51948L15.1176 3.12554C15.1176 3.21212 15.2041 3.38528 15.2907 3.38528C18.9271 4.68398 21.3513 8.06061 21.3513 11.9567C21.3513 12.4762 21.005 12.8225 20.4855 12.8225C19.9661 12.8225 19.6197 12.4762 19.6197 11.9567C19.6197 8.92641 17.715 6.15584 14.8578 5.11688H14.6847C14.6847 5.16017 14.663 5.18182 14.6414 5.20346C14.6197 5.22511 14.5981 5.24675 14.5981 5.29004L14.3383 6.06926C14.2518 6.24242 14.0786 6.41558 13.9054 6.41558ZM8.53747 20.7013C8.53747 20.6147 8.45089 20.4416 8.36431 20.4416C4.90111 19.0563 2.7366 15.7662 2.65002 12.0433C2.65002 11.5238 2.99634 11.1775 3.51583 11.1775C4.03531 11.1775 4.38163 11.5238 4.38163 12.0433C4.38163 14.9004 6.02665 17.4978 8.62405 18.71H8.71063C8.79721 18.71 8.97037 18.6234 8.97037 18.5368L9.23011 17.4978C9.23011 17.3247 9.40327 17.1515 9.57643 17.1515C9.74959 17.1515 9.92275 17.2381 10.0093 17.4113L11.308 20.0087C11.3946 20.2684 11.308 20.5281 11.1349 20.6147L8.97037 21.9134C8.88379 22 8.71063 22 8.53747 21.9134C8.36431 21.8268 8.36431 21.6537 8.36431 21.4805L8.53747 20.7013ZM15.8968 11.4372C15.3773 11.4372 15.031 11.7836 15.031 12.303V12.5628C15.031 12.6494 14.9444 12.7359 14.8578 12.7359C13.6457 12.9957 12.8665 14.2078 13.1262 15.4199C13.2994 16.1126 13.8189 16.7186 14.5115 17.0649L16.676 17.9307C16.9357 18.0173 17.1089 18.3636 16.9357 18.6234C16.8492 18.7965 16.676 18.9697 16.4163 18.9697H14.3383C13.8189 18.9697 13.4725 19.316 13.4725 19.8355C13.4725 20.355 13.8189 20.7013 14.3383 20.7013H14.8578C14.9444 20.7013 15.031 20.7879 15.031 20.8745V21.1342C15.031 21.6537 15.3773 22 15.8968 22C16.4163 22 16.7626 21.6537 16.7626 21.1342V20.8745C16.7626 20.7879 16.8492 20.7013 16.9357 20.7013C18.1479 20.4416 18.9271 19.2294 18.6673 18.0173C18.4942 17.3247 17.9747 16.7186 17.2821 16.3723L15.1176 15.5065C14.8578 15.4199 14.6847 15.0736 14.8578 14.8139C14.9444 14.6407 15.1176 14.4675 15.3773 14.4675H17.4552C17.9747 14.4675 18.321 14.1212 18.321 13.6017C18.321 13.0823 17.9747 12.7359 17.4552 12.7359H16.9357C16.8492 12.7359 16.7626 12.6494 16.7626 12.5628V12.3896C16.7626 11.7836 16.4163 11.4372 15.8968 11.4372ZM8.79722 6.41559C8.79722 5.89611 8.4509 5.54979 7.93142 5.54979H6.37298H6.2864C6.19982 5.46321 6.19982 5.29005 6.19982 5.20347C6.80588 4.33767 7.84484 3.81819 8.97038 3.81819C9.40328 3.81819 9.83618 3.47187 9.83618 2.95239C9.83618 2.43291 9.48986 2.08659 8.97038 2.08659C6.80588 2.00001 4.90112 3.38529 4.29506 5.37663L4.1219 5.54979H4.03532C3.51584 5.54979 3.16952 5.89611 3.16952 6.41559C3.16952 6.93507 3.51584 7.28139 4.03532 7.28139C4.1219 7.28139 4.20848 7.36797 4.29506 7.45455C4.90112 9.44589 6.80588 10.8312 8.97038 10.7446C9.48986 10.7446 9.83618 10.3983 9.83618 9.87879C9.83618 9.35931 9.48986 9.01299 8.97038 9.01299C7.84484 9.01299 6.80588 8.49351 6.19982 7.62771V7.54113C6.19982 7.36797 6.2864 7.28139 6.37298 7.28139H7.93142C8.4509 7.28139 8.79722 6.93507 8.79722 6.41559Z" />
</svg>