<!--character:1082-->
  <svg width="24" height="24" viewBox="0 0 24 24" >
<path d="M13.9054 6.41558C13.7323 6.41558 13.6457 6.329 13.5591 6.15584L12.6933 3.90476C12.6933 3.7316 12.6933 3.47186 12.8665 3.38528L14.5981 2.08658C14.6846 2 14.8578 2 14.9444 2C15.2041 2.08658 15.3773 2.25974 15.2907 2.51948L15.1175 3.12554C15.1175 3.21212 15.2041 3.38528 15.2907 3.38528C18.9271 4.68398 21.3513 8.0606 21.3513 11.9567C21.3513 12.4762 21.005 12.8225 20.4855 12.8225C19.966 12.8225 19.6197 12.4762 19.6197 11.9567C19.6197 8.9264 17.7149 6.15584 14.8578 5.11688H14.6846C14.6846 5.16017 14.663 5.18181 14.6414 5.20346C14.6197 5.2251 14.5981 5.24675 14.5981 5.29004L14.3383 6.06926C14.2517 6.24242 14.0786 6.41558 13.9054 6.41558Z" />
<path d="M8.53746 20.7013C8.53746 20.6147 8.45088 20.4416 8.3643 20.4416C4.90109 19.0563 2.73659 15.7662 2.65001 12.0433C2.65001 11.5238 2.99633 11.1775 3.51581 11.1775C4.03529 11.1775 4.38161 11.5238 4.38161 12.0433C4.38161 14.9004 6.02664 17.4978 8.62404 18.71H8.71062C8.7972 18.71 8.97036 18.6234 8.97036 18.5368L9.2301 17.4978C9.2301 17.3247 9.40326 17.1515 9.57642 17.1515C9.74958 17.1515 9.92274 17.2381 10.0093 17.4113L11.308 20.0087C11.3946 20.2684 11.308 20.5281 11.1349 20.6147L8.97036 21.9134C8.88378 22 8.71062 22 8.53746 21.9134C8.3643 21.8268 8.3643 21.6537 8.3643 21.4805L8.53746 20.7013Z" />
<path d="M15.8968 11.4372C15.3773 11.4372 15.031 11.7835 15.031 12.303V12.5628C15.031 12.6493 14.9444 12.7359 14.8578 12.7359C13.6457 12.9957 12.8665 14.2078 13.1262 15.4199C13.2994 16.1125 13.8188 16.7186 14.5115 17.0649L16.676 17.9307C16.9357 18.0173 17.1089 18.3636 16.9357 18.6234C16.8491 18.7965 16.676 18.9697 16.4162 18.9697H14.3383C13.8188 18.9697 13.4725 19.316 13.4725 19.8355C13.4725 20.355 13.8188 20.7013 14.3383 20.7013H14.8578C14.9444 20.7013 15.031 20.7879 15.031 20.8745V21.1342C15.031 21.6537 15.3773 22 15.8968 22C16.4162 22 16.7626 21.6537 16.7626 21.1342V20.8745C16.7626 20.7879 16.8491 20.7013 16.9357 20.7013C18.1478 20.4416 18.9271 19.2294 18.6673 18.0173C18.4942 17.3247 17.9747 16.7186 17.282 16.3723L15.1175 15.5065C14.8578 15.4199 14.6846 15.0736 14.8578 14.8138C14.9444 14.6407 15.1175 14.4675 15.3773 14.4675H17.4552C17.9747 14.4675 18.321 14.1212 18.321 13.6017C18.321 13.0822 17.9747 12.7359 17.4552 12.7359H16.9357C16.8491 12.7359 16.7626 12.6493 16.7626 12.5628V12.3896C16.7626 11.7835 16.4162 11.4372 15.8968 11.4372Z" />
<path d="M8.7972 6.41558C8.7972 5.8961 8.45088 5.54978 7.9314 5.54978H6.28638C6.1998 5.4632 6.1998 5.29004 6.1998 5.20346C6.80586 4.33766 7.84482 3.81818 8.97036 3.81818C9.40326 3.81818 9.83616 3.47186 9.83616 2.95238C9.83616 2.4329 9.48984 2.08658 8.97036 2.08658C6.80586 2 4.90109 3.38528 4.29503 5.37662L4.12187 5.54978H4.03529C3.51581 5.54978 3.16949 5.8961 3.16949 6.41558C3.16949 6.93506 3.51581 7.28138 4.03529 7.28138C4.12187 7.28138 4.20845 7.36796 4.29503 7.45454C4.90109 9.44588 6.80586 10.8312 8.97036 10.7446C9.48984 10.7446 9.83616 10.3983 9.83616 9.87878C9.83616 9.3593 9.48984 9.01298 8.97036 9.01298C7.84482 9.01298 6.80586 8.4935 6.1998 7.6277V7.54112C6.1998 7.36796 6.28638 7.28138 6.37296 7.28138H7.9314C8.45088 7.28138 8.7972 6.93506 8.7972 6.41558Z" />
</svg>