<!--description:Use in map for exchange places-->
<!--category:money-->
<!--character:E032-->
<!--added:0.11-->
<svg width="24" height="24" viewBox="0 0 24 24" xmlns="http://www.w3.org/2000/svg"><path d="M13.559 6.1558l-.8657-2.251c0-.1732 0-.433.1732-.5195l1.7316-1.2987C14.6846 2 14.8578 2 14.9444 2c.2597.0866.4329.2597.3463.5195l-.1732.606c0 .0866.0866.2598.1732.2598 3.6364 1.2987 6.0606 4.6753 6.0606 8.5714 0 .5195-.3463.8658-.8658.8658-.5195 0-.8658-.3463-.8658-.8658 0-3.0303-1.9048-5.8009-4.762-6.8398h-.173c0 .0866-.0866.0866-.0866.1731l-.2598.7793c-.0866.1731-.2597.3463-.4329.3463-.1731 0-.2597-.0866-.3463-.2598zM8.3644 20.4416C4.901 19.0563 2.7366 15.7662 2.65 12.0433c0-.5195.3463-.8658.8658-.8658.5195 0 .8658.3463.8658.8658 0 2.8571 1.645 5.4545 4.2424 6.6667h.0866c.0866 0 .2597-.0866.2597-.1732l.2598-1.039c0-.1731.1731-.3463.3463-.3463s.3463.0866.433.2598l1.2986 2.5974c.0866.2597 0 .5194-.1732.606l-2.1645 1.2987c-.0865.0866-.2597.0866-.4329 0-.1731-.0866-.1731-.2597-.1731-.4329l.1731-.7792c0-.0866-.0865-.2597-.1731-.2597zm7.5325-9.0044c.5194 0 .8658.3463.8658.9524v.1732c0 .0866.0865.1731.1731.1731h.5195c.5195 0 .8658.3464.8658.8658 0 .5195-.3463.8658-.8658.8658h-2.078c-.2597 0-.4328.1732-.5194.3464-.1732.2597 0 .606.2597.6926l2.1645.8658c.6927.3463 1.2122.9524 1.3853 1.645.2598 1.2121-.5195 2.4243-1.7316 2.684-.0866 0-.1731.0866-.1731.1732v.2597c0 .5195-.3464.8658-.8658.8658-.5195 0-.8658-.3463-.8658-.8658v-.2597c0-.0866-.0866-.1732-.1732-.1732h-.5195c-.5195 0-.8658-.3463-.8658-.8658 0-.5195.3463-.8658.8658-.8658h2.078c.2597 0 .4328-.1732.5194-.3463.1732-.2598 0-.606-.2597-.6927l-2.1645-.8658c-.6927-.3463-1.2121-.9523-1.3853-1.645-.2597-1.2121.5195-2.4242 1.7316-2.684.0866 0 .1732-.0865.1732-.1731v-.2598c0-.5195.3463-.8658.8658-.8658zM7.9314 5.5498c.5195 0 .8658.3463.8658.8658 0 .5195-.3463.8658-.8658.8658H6.3729c-.0865 0-.1731.0866-.1731.2597v.0866c.606.8658 1.645 1.3853 2.7705 1.3853.5195 0 .8658.3463.8658.8658 0 .5195-.3463.8658-.8658.8658-2.1645.0866-4.0692-1.2987-4.6753-3.29-.0866-.0866-.1731-.1732-.2597-.1732-.5195 0-.8658-.3463-.8658-.8658 0-.5195.3463-.8658.8658-.8658h.0866l.1731-.1732C4.901 3.3853 6.8058 2 8.9703 2.0866c.5195 0 .8658.3463.8658.8658 0 .5195-.4329.8658-.8658.8658-1.1255 0-2.1645.5195-2.7705 1.3853 0 .0865 0 .2597.0866.3463h1.645z"/></svg>