<!--character:5467-->
  <svg width="20" height="20" viewBox="0 0 20 20" >
<path d="M11.588 5.34632C11.4437 5.34632 11.3716 5.27417 11.2994 5.12987L10.5779 3.25397C10.5779 3.10967 10.5779 2.89322 10.7222 2.82107L12.1652 1.73881C12.2374 1.66666 12.3817 1.66666 12.4538 1.66666C12.6703 1.73881 12.8146 1.88311 12.7424 2.09956L12.5981 2.60461C12.5981 2.67676 12.6703 2.82107 12.7424 2.82107C15.7727 3.90332 17.7929 6.71717 17.7929 9.96392C17.7929 10.3968 17.5043 10.6854 17.0714 10.6854C16.6385 10.6854 16.3499 10.3968 16.3499 9.96392C16.3499 7.43867 14.7626 5.12987 12.3817 4.26407H12.2374C12.2374 4.30014 12.2193 4.31818 12.2013 4.33622C12.1832 4.35425 12.1652 4.37229 12.1652 4.40837L11.9488 5.05772C11.8766 5.20202 11.7323 5.34632 11.588 5.34632Z" />
<path d="M7.1147 17.2511C7.1147 17.1789 7.04255 17.0346 6.9704 17.0346C4.0844 15.8802 2.28065 13.1385 2.2085 10.0361C2.2085 9.60317 2.4971 9.31457 2.93 9.31457C3.3629 9.31457 3.6515 9.60317 3.6515 10.0361C3.6515 12.417 5.02235 14.5815 7.18685 15.5916H7.259C7.33115 15.5916 7.47545 15.5195 7.47545 15.4473L7.6919 14.5815C7.6919 14.4372 7.8362 14.2929 7.9805 14.2929C8.1248 14.2929 8.2691 14.3651 8.34125 14.5094L9.4235 16.6739C9.49565 16.8903 9.4235 17.1068 9.2792 17.1789L7.47545 18.2612C7.4033 18.3333 7.259 18.3333 7.1147 18.2612C6.9704 18.189 6.9704 18.0447 6.9704 17.9004L7.1147 17.2511Z" />
<path d="M13.2475 9.53102C12.8146 9.53102 12.526 9.81962 12.526 10.2525V10.469C12.526 10.5411 12.4538 10.6133 12.3817 10.6133C11.3716 10.8297 10.7222 11.8398 10.9387 12.8499C11.083 13.4271 11.5159 13.9322 12.0931 14.2208L13.8968 14.9423C14.1133 15.0144 14.2576 15.303 14.1133 15.5195C14.0411 15.6638 13.8968 15.8081 13.6804 15.8081H11.9488C11.5159 15.8081 11.2273 16.0967 11.2273 16.5296C11.2273 16.9625 11.5159 17.2511 11.9488 17.2511H12.3817C12.4538 17.2511 12.526 17.3232 12.526 17.3954V17.6118C12.526 18.0447 12.8146 18.3333 13.2475 18.3333C13.6804 18.3333 13.969 18.0447 13.969 17.6118V17.3954C13.969 17.3232 14.0411 17.2511 14.1133 17.2511C15.1234 17.0346 15.7727 16.0245 15.5563 15.0144C15.412 14.4372 14.9791 13.9322 14.4019 13.6436L12.5981 12.9221C12.3817 12.8499 12.2374 12.5613 12.3817 12.3449C12.4538 12.2006 12.5981 12.0563 12.8146 12.0563H14.5462C14.9791 12.0563 15.2677 11.7677 15.2677 11.3348C15.2677 10.9019 14.9791 10.6133 14.5462 10.6133H14.1133C14.0411 10.6133 13.969 10.5411 13.969 10.469V10.3247C13.969 9.81962 13.6804 9.53102 13.2475 9.53102Z" />
<path d="M7.33115 5.34632C7.33115 4.91342 7.04255 4.62482 6.60965 4.62482H5.2388C5.16665 4.55267 5.16665 4.40837 5.16665 4.33622C5.6717 3.61472 6.5375 3.18182 7.47545 3.18182C7.8362 3.18182 8.19695 2.89322 8.19695 2.46031C8.19695 2.02741 7.90835 1.73881 7.47545 1.73881C5.6717 1.66666 4.0844 2.82107 3.57935 4.48052L3.43505 4.62482H3.3629C2.93 4.62482 2.6414 4.91342 2.6414 5.34632C2.6414 5.77922 2.93 6.06782 3.3629 6.06782C3.43505 6.06782 3.5072 6.13997 3.57934 6.21212C4.08439 7.87157 5.6717 9.02597 7.47545 8.95382C7.90835 8.95382 8.19695 8.66522 8.19695 8.23232C8.19695 7.79942 7.90835 7.51082 7.47545 7.51082C6.5375 7.51082 5.6717 7.07792 5.16665 6.35642V6.28427C5.16665 6.13997 5.2388 6.06782 5.31095 6.06782H6.60965C7.04255 6.06782 7.33115 5.77922 7.33115 5.34632Z" />
</svg>