<!--character:1707-->
  <svg width="24" height="24" viewBox="0 0 24 24" >
<path d="M13.9054 6.41558C13.7322 6.41558 13.6456 6.329 13.5591 6.15584L12.6933 3.90476C12.6933 3.7316 12.6933 3.47186 12.8664 3.38528L14.598 2.08658C14.6846 2 14.8578 2 14.9443 2C15.2041 2.08658 15.3772 2.25974 15.2907 2.51948L15.1175 3.12554C15.1175 3.21212 15.2041 3.38528 15.2907 3.38528C18.927 4.68398 21.3513 8.0606 21.3513 11.9567C21.3513 12.4762 21.005 12.8225 20.4855 12.8225C19.966 12.8225 19.6197 12.4762 19.6197 11.9567C19.6197 8.9264 17.7149 6.15584 14.8578 5.11688H14.6846C14.6846 5.16017 14.663 5.18181 14.6413 5.20346C14.6197 5.2251 14.598 5.24675 14.598 5.29004L14.3383 6.06926C14.2517 6.24242 14.0785 6.41558 13.9054 6.41558Z" />
<path d="M8.53742 20.7013C8.53742 20.6147 8.45084 20.4416 8.36426 20.4416C4.90106 19.0563 2.73656 15.7662 2.64998 12.0433C2.64998 11.5238 2.9963 11.1775 3.51578 11.1775C4.03526 11.1775 4.38158 11.5238 4.38158 12.0433C4.38158 14.9004 6.0266 17.4978 8.624 18.71H8.71058C8.79716 18.71 8.97032 18.6234 8.97032 18.5368L9.23006 17.4978C9.23006 17.3247 9.40322 17.1515 9.57638 17.1515C9.74954 17.1515 9.9227 17.2381 10.0093 17.4113L11.308 20.0087C11.3946 20.2684 11.308 20.5281 11.1348 20.6147L8.97032 21.9134C8.88374 22 8.71058 22 8.53742 21.9134C8.36426 21.8268 8.36426 21.6537 8.36426 21.4805L8.53742 20.7013Z" />
<path d="M15.8967 11.4372C15.3772 11.4372 15.0309 11.7835 15.0309 12.303V12.5628C15.0309 12.6493 14.9443 12.7359 14.8578 12.7359C13.6456 12.9957 12.8664 14.2078 13.1262 15.4199C13.2993 16.1125 13.8188 16.7186 14.5114 17.0649L16.6759 17.9307C16.9357 18.0173 17.1088 18.3636 16.9357 18.6234C16.8491 18.7965 16.6759 18.9697 16.4162 18.9697H14.3383C13.8188 18.9697 13.4725 19.316 13.4725 19.8355C13.4725 20.355 13.8188 20.7013 14.3383 20.7013H14.8578C14.9443 20.7013 15.0309 20.7879 15.0309 20.8745V21.1342C15.0309 21.6537 15.3772 22 15.8967 22C16.4162 22 16.7625 21.6537 16.7625 21.1342V20.8745C16.7625 20.7879 16.8491 20.7013 16.9357 20.7013C18.1478 20.4416 18.927 19.2294 18.6673 18.0173C18.4941 17.3247 17.9746 16.7186 17.282 16.3723L15.1175 15.5065C14.8578 15.4199 14.6846 15.0736 14.8578 14.8138C14.9443 14.6407 15.1175 14.4675 15.3772 14.4675H17.4552C17.9746 14.4675 18.321 14.1212 18.321 13.6017C18.321 13.0822 17.9746 12.7359 17.4552 12.7359H16.9357C16.8491 12.7359 16.7625 12.6493 16.7625 12.5628V12.3896C16.7625 11.7835 16.4162 11.4372 15.8967 11.4372Z" />
<path d="M8.79716 6.41558C8.79716 5.8961 8.45084 5.54978 7.93136 5.54978H6.28634C6.19976 5.4632 6.19976 5.29004 6.19976 5.20346C6.80582 4.33766 7.84478 3.81818 8.97032 3.81818C9.40322 3.81818 9.83612 3.47186 9.83612 2.95238C9.83612 2.4329 9.4898 2.08658 8.97032 2.08658C6.80582 2 4.90106 3.38528 4.295 5.37662L4.12184 5.54978H4.03526C3.51578 5.54978 3.16946 5.8961 3.16946 6.41558C3.16946 6.93506 3.51578 7.28138 4.03526 7.28138C4.12184 7.28138 4.20841 7.36796 4.29499 7.45454C4.90105 9.44588 6.80582 10.8312 8.97032 10.7446C9.4898 10.7446 9.83612 10.3983 9.83612 9.87878C9.83612 9.3593 9.4898 9.01298 8.97032 9.01298C7.84478 9.01298 6.80582 8.4935 6.19976 7.6277V7.54112C6.19976 7.36796 6.28634 7.28138 6.37292 7.28138H7.93136C8.45084 7.28138 8.79716 6.93506 8.79716 6.41558Z" />
</svg>