<!--character:2878-->
  <svg width="24" height="24" viewBox="0 0 24 24" >
<path d="M13.9056 6.41558C13.7324 6.41558 13.6459 6.329 13.5593 6.15584L12.6935 3.90476C12.6935 3.7316 12.6935 3.47186 12.8666 3.38528L14.5982 2.08658C14.6848 2 14.858 2 14.9446 2C15.2043 2.08658 15.3775 2.25974 15.2909 2.51948L15.1177 3.12554C15.1177 3.21212 15.2043 3.38528 15.2909 3.38528C18.9273 4.68398 21.3515 8.0606 21.3515 11.9567C21.3515 12.4762 21.0052 12.8225 20.4857 12.8225C19.9662 12.8225 19.6199 12.4762 19.6199 11.9567C19.6199 8.9264 17.7151 6.15584 14.858 5.11688H14.6848C14.6848 5.16017 14.6632 5.18181 14.6415 5.20346C14.6199 5.2251 14.5982 5.24675 14.5982 5.29004L14.3385 6.06926C14.2519 6.24242 14.0788 6.41558 13.9056 6.41558Z" />
<path d="M8.53764 20.7013C8.53764 20.6147 8.45106 20.4416 8.36448 20.4416C4.90128 19.0563 2.73678 15.7662 2.6502 12.0433C2.6502 11.5238 2.99652 11.1775 3.516 11.1775C4.03548 11.1775 4.3818 11.5238 4.3818 12.0433C4.3818 14.9004 6.02682 17.4978 8.62422 18.71H8.7108C8.79738 18.71 8.97054 18.6234 8.97054 18.5368L9.23028 17.4978C9.23028 17.3247 9.40344 17.1515 9.5766 17.1515C9.74976 17.1515 9.92292 17.2381 10.0095 17.4113L11.3082 20.0087C11.3948 20.2684 11.3082 20.5281 11.135 20.6147L8.97054 21.9134C8.88396 22 8.7108 22 8.53764 21.9134C8.36448 21.8268 8.36448 21.6537 8.36448 21.4805L8.53764 20.7013Z" />
<path d="M15.8969 11.4372C15.3775 11.4372 15.0311 11.7835 15.0311 12.303V12.5628C15.0311 12.6493 14.9446 12.7359 14.858 12.7359C13.6459 12.9957 12.8666 14.2078 13.1264 15.4199C13.2995 16.1125 13.819 16.7186 14.5117 17.0649L16.6762 17.9307C16.9359 18.0173 17.1091 18.3636 16.9359 18.6234C16.8493 18.7965 16.6762 18.9697 16.4164 18.9697H14.3385C13.819 18.9697 13.4727 19.316 13.4727 19.8355C13.4727 20.355 13.819 20.7013 14.3385 20.7013H14.858C14.9446 20.7013 15.0311 20.7879 15.0311 20.8745V21.1342C15.0311 21.6537 15.3775 22 15.8969 22C16.4164 22 16.7627 21.6537 16.7627 21.1342V20.8745C16.7627 20.7879 16.8493 20.7013 16.9359 20.7013C18.148 20.4416 18.9272 19.2294 18.6675 18.0173C18.4943 17.3247 17.9749 16.7186 17.2822 16.3723L15.1177 15.5065C14.858 15.4199 14.6848 15.0736 14.858 14.8138C14.9446 14.6407 15.1177 14.4675 15.3775 14.4675H17.4554C17.9749 14.4675 18.3212 14.1212 18.3212 13.6017C18.3212 13.0822 17.9749 12.7359 17.4554 12.7359H16.9359C16.8493 12.7359 16.7627 12.6493 16.7627 12.5628V12.3896C16.7627 11.7835 16.4164 11.4372 15.8969 11.4372Z" />
<path d="M8.79738 6.41558C8.79738 5.8961 8.45106 5.54978 7.93158 5.54978H6.28656C6.19998 5.4632 6.19998 5.29004 6.19998 5.20346C6.80604 4.33766 7.845 3.81818 8.97054 3.81818C9.40344 3.81818 9.83634 3.47186 9.83634 2.95238C9.83634 2.4329 9.49002 2.08658 8.97054 2.08658C6.80604 2 4.90128 3.38528 4.29522 5.37662L4.12206 5.54978H4.03548C3.516 5.54978 3.16968 5.8961 3.16968 6.41558C3.16968 6.93506 3.516 7.28138 4.03548 7.28138C4.12206 7.28138 4.20863 7.36796 4.29521 7.45454C4.90127 9.44588 6.80604 10.8312 8.97054 10.7446C9.49002 10.7446 9.83634 10.3983 9.83634 9.87878C9.83634 9.3593 9.49002 9.01298 8.97054 9.01298C7.845 9.01298 6.80604 8.4935 6.19998 7.6277V7.54112C6.19998 7.36796 6.28656 7.28138 6.37314 7.28138H7.93158C8.45106 7.28138 8.79738 6.93506 8.79738 6.41558Z" />
</svg>