<!--character:4121-->
  <svg width="24" height="24" viewBox="0 0 24 24" >
<path   d="M21.6 12.0353C21.6 6.71387 17.3019 2.4 12 2.4C6.69807 2.4 2.4 6.71387 2.4 12.0353C2.4 16.554 5.49946 20.3456 9.68087 21.3868V14.9797H7.70127V12.0353H9.68087V10.7665C9.68087 7.48701 11.1596 5.96694 14.3675 5.96694C14.9757 5.96694 16.0251 6.08661 16.4544 6.20632V8.87545C16.2278 8.85152 15.8343 8.83953 15.3454 8.83953C13.7712 8.83953 13.163 9.438 13.163 10.994V12.0353H16.2987L15.7601 14.9797H13.163V21.6C17.9164 21.0238 21.6 16.9615 21.6 12.0353Z" />
</svg>