<!-- character:1565:991 -->
  <svg width="20" height="20" viewBox="0 0 20 20" >
<path d="M5.94683 10.3218C6.7463 10.3217 7.52772 10.0789 8.1918 9.62418C8.85588 9.16945 9.37265 8.52333 9.67645 7.76791C9.98026 7.01248 10.0574 6.18186 9.89806 5.38155C9.73872 4.58125 9.35009 3.84739 8.78156 3.27321C8.21303 2.69904 7.49025 2.31046 6.70505 2.15684C5.91985 2.00322 5.10766 2.09151 4.37169 2.41047C3.63571 2.72944 3.00916 3.26469 2.57164 3.94822C2.13411 4.63175 1.90536 5.43272 1.91444 6.24936C1.92651 7.33371 2.35667 8.36947 3.11158 9.13188C3.8665 9.89429 4.88527 10.3218 5.94683 10.3218Z" />
<path d="M14.6073 12.4049C16.0625 12.4049 17.2421 11.1999 17.2421 9.71336C17.2421 8.22686 16.0625 7.02182 14.6073 7.02182C13.1521 7.02182 11.9725 8.22686 11.9725 9.71336C11.9725 11.1999 13.1521 12.4049 14.6073 12.4049Z" />
<path d="M13.0379 13.8325C12.3253 14.126 11.6854 14.5773 11.1644 15.1541C10.6434 15.7309 10.2542 16.4186 10.025 17.1677C10.0001 17.2549 9.99546 17.3468 10.0114 17.4362C10.0273 17.5256 10.0633 17.6099 10.1167 17.6826C10.1706 17.7546 10.2399 17.8131 10.3193 17.8537C10.3987 17.8942 10.4861 17.9158 10.5749 17.9166H18.5939C18.6826 17.9158 18.77 17.8942 18.8494 17.8537C18.9288 17.8131 18.9981 17.7546 19.0521 17.6826C19.1054 17.6099 19.1415 17.5256 19.1574 17.4362C19.1733 17.3468 19.1686 17.2549 19.1437 17.1677C18.9445 16.4108 18.5714 15.7133 18.0554 15.1332C17.5394 14.5532 16.8953 14.1073 16.1767 13.8325C15.1694 13.4198 14.0452 13.4198 13.0379 13.8325Z" />
<path d="M10.025 13.9261C10.0693 13.8765 10.0939 13.8118 10.0939 13.7447C10.0939 13.6776 10.0693 13.6129 10.025 13.5633C9.42293 12.6364 8.54256 11.9342 7.51626 11.5622C6.41408 11.1068 5.18175 11.1068 4.07957 11.5622C3.31861 11.8844 2.63603 12.373 2.07987 12.9937C1.52372 13.6144 1.1075 14.3521 0.860533 15.1549C0.831382 15.25 0.825539 15.3509 0.843516 15.4488C0.861493 15.5468 0.90274 15.6387 0.963634 15.7166C1.0199 15.7963 1.09391 15.8612 1.17955 15.906C1.26519 15.9507 1.36002 15.974 1.45623 15.974H8.45563C8.51152 15.9742 8.56625 15.9577 8.61307 15.9265C8.65989 15.8953 8.69675 15.8508 8.71911 15.7985C9.04741 15.1033 9.48902 14.4701 10.025 13.9261Z" />
</svg>