<!--character:6613-->
  <svg width="24" height="24" viewBox="0 0 24 24" >
<path d="M7.13642 12.3862C8.09578 12.3861 9.03348 12.0947 9.83037 11.549C10.6273 11.0034 11.2474 10.228 11.612 9.32151C11.9765 8.41501 12.0691 7.41825 11.8779 6.45789C11.6867 5.49753 11.2203 4.6169 10.5381 3.92788C9.85585 3.23887 8.98852 2.77257 8.04628 2.58824C7.10403 2.4039 6.12942 2.50984 5.24625 2.89259C4.36308 3.27535 3.61121 3.91765 3.08618 4.73789C2.56115 5.55813 2.28665 6.51929 2.29755 7.49925C2.31203 8.80048 2.82822 10.0434 3.73412 10.9583C4.64002 11.8732 5.86254 12.3862 7.13642 12.3862Z" />
<path d="M17.529 14.8859C19.2752 14.8859 20.6907 13.4399 20.6907 11.6561C20.6907 9.87226 19.2752 8.42621 17.529 8.42621C15.7828 8.42621 14.3672 9.87226 14.3672 11.6561C14.3672 13.4399 15.7828 14.8859 17.529 14.8859Z" />
<path d="M15.6457 16.5991C14.7906 16.9512 14.0228 17.4928 13.3975 18.185C12.7723 18.8771 12.3053 19.7024 12.0303 20.6013C12.0004 20.7059 11.9948 20.8162 12.0139 20.9235C12.0329 21.0307 12.0762 21.1319 12.1402 21.2191C12.205 21.3056 12.2882 21.3758 12.3834 21.4244C12.4787 21.4731 12.5836 21.4989 12.6901 21.5H22.3129C22.4194 21.4989 22.5243 21.4731 22.6195 21.4244C22.7148 21.3758 22.798 21.3056 22.8627 21.2191C22.9268 21.1319 22.97 21.0307 22.9891 20.9235C23.0082 20.8162 23.0026 20.7059 22.9727 20.6013C22.7337 19.6929 22.286 18.856 21.6667 18.1599C21.0475 17.4638 20.2746 16.9287 19.4123 16.5991C18.2036 16.1038 16.8544 16.1038 15.6457 16.5991Z" />
<path d="M12.0303 16.7114C12.0834 16.6519 12.1129 16.5742 12.1129 16.4937C12.1129 16.4132 12.0834 16.3355 12.0303 16.276C11.3077 15.1637 10.2513 14.3211 9.01974 13.8747C7.69712 13.3282 6.21832 13.3282 4.8957 13.8747C3.98256 14.2613 3.16346 14.8476 2.49607 15.5925C1.82868 16.3373 1.32922 17.2226 1.03286 18.1859C0.997879 18.3 0.990867 18.4211 1.01244 18.5386C1.03401 18.6562 1.08351 18.7665 1.15658 18.8599C1.2241 18.9556 1.31291 19.0335 1.41568 19.0872C1.51845 19.1409 1.63225 19.1689 1.74769 19.1689H10.147C10.214 19.1691 10.2797 19.1493 10.3359 19.1118C10.3921 19.0744 10.4363 19.021 10.4631 18.9582C10.8571 18.124 11.387 17.3642 12.0303 16.7114Z" />
</svg>