<!--character:8237-->
  <svg width="20" height="20" viewBox="0 0 20 20" >
<path d="M3.88905 6.90971C4.25985 6.91122 4.62274 6.80254 4.93168 6.59748C5.24062 6.39242 5.48168 6.1002 5.62428 5.75792C5.76688 5.41563 5.80458 5.0387 5.73261 4.67495C5.66064 4.31119 5.48224 3.97702 5.22004 3.71482C4.95785 3.45263 4.62367 3.27422 4.25992 3.20225C3.89617 3.13029 3.51924 3.16799 3.17695 3.31059C2.83467 3.45319 2.54245 3.69425 2.33739 4.00319C2.13232 4.31213 2.02365 4.67502 2.02516 5.04582C2.02516 5.54015 2.22154 6.01424 2.57108 6.36378C2.92063 6.71333 3.39472 6.90971 3.88905 6.90971Z" />
<path d="M3.88905 7.29165C3.07867 7.29165 2.30148 7.61357 1.72845 8.1866C1.15542 8.75963 0.833496 9.53682 0.833496 10.3472V12.0048C0.834957 12.0524 0.845838 12.0991 0.865507 12.1424C0.885177 12.1857 0.913244 12.2246 0.948079 12.2569C0.982184 12.2936 1.02359 12.3228 1.06964 12.3425C1.11568 12.3622 1.16535 12.3721 1.21544 12.3715H1.85711C1.95261 12.3692 2.04537 12.4036 2.11638 12.4675C2.18739 12.5314 2.23128 12.62 2.23905 12.7153L2.621 16.4812C2.62868 16.5751 2.67149 16.6627 2.74087 16.7264C2.81025 16.7901 2.9011 16.8253 2.9953 16.825H4.7828C4.877 16.8253 4.96785 16.7901 5.03723 16.7264C5.10661 16.6627 5.14942 16.5751 5.15711 16.4812L5.53905 12.7153C5.54682 12.62 5.59071 12.5314 5.66172 12.4675C5.73273 12.4036 5.82549 12.3692 5.921 12.3715H6.56266C6.66335 12.3696 6.75936 12.3287 6.83057 12.2575C6.90178 12.1863 6.94265 12.0903 6.94461 11.9896V10.3472C6.94461 9.53682 6.62268 8.75963 6.04966 8.1866C5.47663 7.61357 4.69944 7.29165 3.88905 7.29165Z" />
<path d="M16.1113 6.90971C16.4821 6.91122 16.845 6.80254 17.1539 6.59748C17.4628 6.39242 17.7039 6.1002 17.8465 5.75792C17.9891 5.41563 18.0268 5.0387 17.9548 4.67495C17.8829 4.31119 17.7045 3.97702 17.4423 3.71482C17.1801 3.45263 16.8459 3.27422 16.4821 3.20225C16.1184 3.13029 15.7415 3.16799 15.3992 3.31059C15.0569 3.45319 14.7647 3.69425 14.5596 4.00319C14.3545 4.31213 14.2459 4.67502 14.2474 5.04582C14.2474 5.29059 14.2956 5.53296 14.3893 5.7591C14.4829 5.98523 14.6202 6.19071 14.7933 6.36378C14.9664 6.53686 15.1719 6.67416 15.398 6.76783C15.6241 6.86149 15.8665 6.90971 16.1113 6.90971Z" />
<path d="M16.1113 7.29165C15.3009 7.29165 14.5237 7.61357 13.9507 8.1866C13.3776 8.75963 13.0557 9.53682 13.0557 10.3472V12.0048C13.0577 12.1055 13.0985 12.2015 13.1698 12.2728C13.241 12.344 13.337 12.3848 13.4377 12.3868H14.0793C14.1748 12.3845 14.2676 12.4189 14.3386 12.4828C14.4096 12.5467 14.4535 12.6353 14.4613 12.7305L14.8432 16.4965C14.8509 16.5904 14.8937 16.6779 14.9631 16.7416C15.0325 16.8054 15.1233 16.8406 15.2175 16.8403H17.005C17.0992 16.8406 17.1901 16.8054 17.2595 16.7416C17.3288 16.6779 17.3716 16.5904 17.3793 16.4965L17.7613 12.7305C17.769 12.6353 17.8129 12.5467 17.8839 12.4828C17.955 12.4189 18.0477 12.3845 18.1432 12.3868H18.7849C18.8856 12.3848 18.9816 12.344 19.0528 12.2728C19.124 12.2015 19.1649 12.1055 19.1668 12.0048V10.3472C19.1668 9.53682 18.8449 8.75963 18.2719 8.1866C17.6988 7.61357 16.9217 7.29165 16.1113 7.29165Z" />
<path d="M8.38836 7.26873C8.38836 7.5709 8.47796 7.86628 8.64583 8.11752C8.81371 8.36876 9.05231 8.56458 9.33148 8.68022C9.61064 8.79585 9.91783 8.82611 10.2142 8.76716C10.5105 8.70821 10.7828 8.5627 10.9964 8.34904C11.2101 8.13537 11.3556 7.86315 11.4146 7.56679C11.4735 7.27043 11.4433 6.96324 11.3276 6.68408C11.212 6.40491 11.0162 6.16631 10.7649 5.99843C10.5137 5.83056 10.2183 5.74096 9.91613 5.74096C9.51094 5.74096 9.12235 5.90192 8.83583 6.18843C8.54932 6.47495 8.38836 6.86354 8.38836 7.26873Z" />
<path d="M9.93905 9.20137C9.64685 9.19936 9.35714 9.25517 9.08661 9.3656C8.81607 9.47602 8.57006 9.63888 8.36273 9.84479C8.1554 10.0507 7.99086 10.2956 7.87857 10.5654C7.76629 10.8351 7.70849 11.1244 7.7085 11.4167V12.7611C7.70902 12.8628 7.74711 12.9607 7.81544 13.0361C7.88998 13.1057 7.98844 13.144 8.09044 13.143H8.47238C8.5674 13.1426 8.65918 13.1775 8.72981 13.2411C8.80043 13.3046 8.84483 13.3923 8.85433 13.4868L9.15988 16.4965C9.16757 16.5904 9.21038 16.6779 9.27976 16.7416C9.34914 16.8054 9.43999 16.8406 9.53419 16.8403H10.2981C10.3936 16.8425 10.4863 16.8082 10.5574 16.7443C10.6284 16.6804 10.6723 16.5917 10.68 16.4965L10.9856 13.4868C10.9949 13.3936 11.0382 13.307 11.1073 13.2436C11.1763 13.1802 11.2662 13.1444 11.3599 13.143H11.7418C11.7926 13.1452 11.8432 13.1368 11.8905 13.1184C11.9378 13.0999 11.9808 13.0719 12.0167 13.036C12.0526 13.0001 12.0807 12.9571 12.0991 12.9098C12.1175 12.8625 12.1259 12.8118 12.1238 12.7611V11.4167C12.1238 10.8344 11.8946 10.2755 11.4858 9.86092C11.0769 9.44634 10.5213 9.2094 9.93905 9.20137Z" />
</svg>