<!-- character:1565:1016 -->
  <svg width="20" height="20" viewBox="0 0 20 20" >
<path d="M3.88893 6.90973C4.25973 6.91124 4.62262 6.80257 4.93156 6.5975C5.2405 6.39244 5.48156 6.10023 5.62416 5.75794C5.76675 5.41565 5.80446 5.03872 5.73249 4.67497C5.66052 4.31122 5.48212 3.97704 5.21992 3.71485C4.95773 3.45265 4.62355 3.27425 4.2598 3.20228C3.89605 3.13031 3.51912 3.16801 3.17683 3.31061C2.83454 3.45321 2.54233 3.69427 2.33727 4.00321C2.1322 4.31215 2.02353 4.67504 2.02504 5.04584C2.02504 5.54017 2.22141 6.01426 2.57096 6.36381C2.92051 6.71335 3.3946 6.90973 3.88893 6.90973Z" />
<path d="M3.88893 7.29167C3.07855 7.29167 2.30135 7.6136 1.72833 8.18662C1.1553 8.75965 0.833374 9.53685 0.833374 10.3472V12.0049C0.834835 12.0524 0.845716 12.0991 0.865385 12.1424C0.885055 12.1857 0.913122 12.2246 0.947957 12.257C0.982062 12.2936 1.02347 12.3228 1.06951 12.3425C1.11556 12.3623 1.16523 12.3721 1.21532 12.3715H1.85699C1.95249 12.3693 2.04525 12.4036 2.11626 12.4675C2.18727 12.5314 2.23116 12.6201 2.23893 12.7153L2.62087 16.4813C2.62856 16.5751 2.67137 16.6627 2.74075 16.7264C2.81013 16.7901 2.90098 16.8253 2.99518 16.825H4.78268C4.87688 16.8253 4.96773 16.7901 5.03711 16.7264C5.10649 16.6627 5.1493 16.5751 5.15698 16.4813L5.53893 12.7153C5.5467 12.6201 5.59059 12.5314 5.6616 12.4675C5.73261 12.4036 5.82537 12.3693 5.92087 12.3715H6.56254C6.66323 12.3696 6.75924 12.3287 6.83045 12.2575C6.90166 12.1863 6.94253 12.0903 6.94448 11.9896V10.3472C6.94448 9.53685 6.62256 8.75965 6.04953 8.18662C5.47651 7.6136 4.69931 7.29167 3.88893 7.29167Z" />
<path d="M16.1112 6.90973C16.4819 6.91124 16.8448 6.80257 17.1538 6.5975C17.4627 6.39244 17.7038 6.10023 17.8464 5.75794C17.989 5.41565 18.0267 5.03872 17.9547 4.67497C17.8827 4.31122 17.7043 3.97704 17.4421 3.71485C17.1799 3.45265 16.8458 3.27425 16.482 3.20228C16.1183 3.13031 15.7413 3.16801 15.3991 3.31061C15.0568 3.45321 14.7646 3.69427 14.5595 4.00321C14.3544 4.31215 14.2458 4.67504 14.2473 5.04584C14.2473 5.29061 14.2955 5.53298 14.3891 5.75912C14.4828 5.98526 14.6201 6.19073 14.7932 6.36381C14.9663 6.53689 15.1717 6.67418 15.3979 6.76785C15.624 6.86152 15.8664 6.90973 16.1112 6.90973Z" />
<path d="M16.1112 7.29167C15.3008 7.29167 14.5236 7.6136 13.9505 8.18662C13.3775 8.75965 13.0556 9.53685 13.0556 10.3472V12.0049C13.0576 12.1056 13.0984 12.2016 13.1696 12.2728C13.2408 12.344 13.3369 12.3849 13.4375 12.3868H14.0792C14.1747 12.3845 14.2675 12.4189 14.3385 12.4828C14.4095 12.5467 14.4534 12.6353 14.4612 12.7306L14.8431 16.4965C14.8508 16.5904 14.8936 16.678 14.963 16.7417C15.0324 16.8054 15.1232 16.8406 15.2174 16.8403H17.0049C17.0991 16.8406 17.19 16.8054 17.2593 16.7417C17.3287 16.678 17.3715 16.5904 17.3792 16.4965L17.7612 12.7306C17.7689 12.6353 17.8128 12.5467 17.8838 12.4828C17.9548 12.4189 18.0476 12.3845 18.1431 12.3868H18.7848C18.8854 12.3849 18.9815 12.344 19.0527 12.2728C19.1239 12.2016 19.1648 12.1056 19.1667 12.0049V10.3472C19.1667 9.53685 18.8448 8.75965 18.2718 8.18662C17.6987 7.6136 16.9215 7.29167 16.1112 7.29167Z" />
<path d="M8.38824 7.26876C8.38824 7.57092 8.47784 7.8663 8.64571 8.11754C8.81359 8.36879 9.05219 8.56461 9.33136 8.68024C9.61052 8.79587 9.91771 8.82613 10.2141 8.76718C10.5104 8.70823 10.7827 8.56272 10.9963 8.34906C11.21 8.1354 11.3555 7.86317 11.4144 7.56681C11.4734 7.27045 11.4431 6.96327 11.3275 6.6841C11.2119 6.40494 11.016 6.16633 10.7648 5.99846C10.5136 5.83058 10.2182 5.74098 9.91601 5.74098C9.51082 5.74098 9.12222 5.90194 8.83571 6.18845C8.5492 6.47497 8.38824 6.86356 8.38824 7.26876Z" />
<path d="M9.93893 9.2014C9.64673 9.19938 9.35702 9.25519 9.08649 9.36562C8.81595 9.47604 8.56993 9.6389 8.36261 9.84481C8.15528 10.0507 7.99073 10.2956 7.87845 10.5654C7.76617 10.8352 7.70837 11.1245 7.70837 11.4167V12.7611C7.7089 12.8628 7.74698 12.9608 7.81532 13.0361C7.88985 13.1058 7.98832 13.144 8.09032 13.1431H8.47226C8.56728 13.1426 8.65906 13.1775 8.72968 13.2411C8.80031 13.3047 8.84471 13.3923 8.85421 13.4868L9.15976 16.4965C9.16745 16.5904 9.21026 16.678 9.27964 16.7417C9.34902 16.8054 9.43987 16.8406 9.53407 16.8403H10.298C10.3935 16.8426 10.4862 16.8082 10.5572 16.7443C10.6282 16.6804 10.6721 16.5918 10.6799 16.4965L10.9855 13.4868C10.9948 13.3936 11.0381 13.307 11.1071 13.2437C11.1762 13.1803 11.2661 13.1445 11.3598 13.1431H11.7417C11.7924 13.1452 11.8431 13.1368 11.8904 13.1184C11.9377 13.1 11.9807 13.0719 12.0166 13.036C12.0525 13.0001 12.0806 12.9571 12.099 12.9098C12.1174 12.8625 12.1258 12.8119 12.1237 12.7611V11.4167C12.1237 10.8344 11.8945 10.2755 11.4857 9.86094C11.0768 9.44636 10.5211 9.20943 9.93893 9.2014Z" />
</svg>