<!--character:2745-->
<svg width="24" height="24" viewBox="0 0 24 24">
  <path d="M4.66686 8.29165C5.11182 8.29346 5.54729 8.16305 5.91802 7.91698C6.28874 7.6709 6.57802 7.32024 6.74913 6.9095C6.92025 6.49875 6.9655 6.04644 6.87914 5.60993C6.79277 5.17343 6.57869 4.77242 6.26405 4.45779C5.94942 4.14315 5.54841 3.92907 5.11191 3.84271C4.67541 3.75634 4.22309 3.80159 3.81234 3.97271C3.4016 4.14382 3.05094 4.4331 2.80486 4.80382C2.55879 5.17455 2.42838 5.61002 2.4302 6.05498C2.4302 6.64818 2.66584 7.21709 3.0853 7.63654C3.50476 8.056 4.07366 8.29165 4.66686 8.29165Z" />
  <path d="M4.66686 8.74998C3.6944 8.74998 2.76177 9.13629 2.07414 9.82392C1.3865 10.5116 1.0002 11.4442 1.0002 12.4166V14.4058C1.00195 14.4628 1.01501 14.5189 1.03861 14.5709C1.06221 14.6228 1.09589 14.6695 1.1377 14.7083C1.17862 14.7523 1.22831 14.7873 1.28356 14.811C1.33882 14.8347 1.39842 14.8465 1.45853 14.8458H2.22853C2.34314 14.8431 2.45445 14.8843 2.53966 14.961C2.62487 15.0377 2.67754 15.1441 2.68686 15.2583L3.1452 19.7775C3.15442 19.8901 3.20579 19.9952 3.28904 20.0716C3.3723 20.1481 3.48132 20.1904 3.59436 20.19H5.73936C5.8524 20.1904 5.96142 20.1481 6.04468 20.0716C6.12794 19.9952 6.1793 19.8901 6.18853 19.7775L6.64686 15.2583C6.65619 15.1441 6.70885 15.0377 6.79406 14.961C6.87927 14.8843 6.99059 14.8431 7.10519 14.8458H7.87519C7.99602 14.8435 8.11124 14.7944 8.19669 14.709C8.28214 14.6235 8.33118 14.5083 8.33353 14.3875V12.4166C8.33353 11.4442 7.94722 10.5116 7.25959 9.82392C6.57195 9.13629 5.63932 8.74998 4.66686 8.74998Z" />
  <path d="M19.3335 8.29165C19.7785 8.29346 20.214 8.16305 20.5847 7.91698C20.9554 7.6709 21.2447 7.32024 21.4158 6.9095C21.5869 6.49875 21.6322 6.04644 21.5458 5.60993C21.4594 5.17343 21.2454 4.77242 20.9307 4.45779C20.6161 4.14315 20.2151 3.92907 19.7786 3.84271C19.3421 3.75634 18.8898 3.80159 18.479 3.97271C18.0683 4.14382 17.7176 4.4331 17.4715 4.80382C17.2255 5.17455 17.095 5.61002 17.0969 6.05498C17.0969 6.3487 17.1547 6.63955 17.2671 6.91092C17.3795 7.18228 17.5443 7.42885 17.752 7.63654C17.9597 7.84424 18.2062 8.00899 18.4776 8.12139C18.749 8.23379 19.0398 8.29165 19.3335 8.29165Z" />
  <path d="M19.3335 8.74998C18.3611 8.74998 17.4284 9.13629 16.7408 9.82392C16.0532 10.5116 15.6669 11.4442 15.6669 12.4166V14.4058C15.6692 14.5266 15.7182 14.6419 15.8037 14.7273C15.8892 14.8128 16.0044 14.8618 16.1252 14.8641H16.8952C17.0098 14.8614 17.1211 14.9026 17.2063 14.9793C17.2915 15.056 17.3442 15.1624 17.3535 15.2766L17.8119 19.7958C17.8211 19.9085 17.8725 20.0135 17.9557 20.09C18.039 20.1664 18.148 20.2087 18.261 20.2083H20.406C20.5191 20.2087 20.6281 20.1664 20.7113 20.09C20.7946 20.0135 20.846 19.9085 20.8552 19.7958L21.3135 15.2766C21.3229 15.1624 21.3755 15.056 21.4607 14.9793C21.5459 14.9026 21.6573 14.8614 21.7719 14.8641H22.5419C22.6627 14.8618 22.7779 14.8128 22.8634 14.7273C22.9488 14.6419 22.9978 14.5266 23.0002 14.4058V12.4166C23.0002 11.4442 22.6139 10.5116 21.9263 9.82392C21.2386 9.13629 20.306 8.74998 19.3335 8.74998Z" />
  <path d="M10.066 8.72248C10.066 9.08508 10.1736 9.43954 10.375 9.74103C10.5764 10.0425 10.8628 10.2775 11.1978 10.4163C11.5328 10.555 11.9014 10.5913 12.257 10.5206C12.6127 10.4498 12.9393 10.2752 13.1957 10.0188C13.4521 9.76245 13.6267 9.43578 13.6975 9.08015C13.7682 8.72451 13.7319 8.35589 13.5931 8.02089C13.4544 7.6859 13.2194 7.39957 12.9179 7.19812C12.6164 6.99667 12.262 6.88915 11.8994 6.88915C11.4131 6.88915 10.9468 7.0823 10.603 7.42612C10.2592 7.76993 10.066 8.23625 10.066 8.72248Z" />
  <path d="M11.9269 11.0416C11.5762 11.0392 11.2286 11.1062 10.9039 11.2387C10.5793 11.3712 10.2841 11.5667 10.0353 11.8137C9.78648 12.0608 9.58903 12.3547 9.45429 12.6784C9.31955 13.0022 9.25019 13.3493 9.25019 13.7V15.3133C9.25082 15.4354 9.29653 15.5529 9.37853 15.6433C9.46797 15.7269 9.58613 15.7728 9.70853 15.7716H10.1669C10.2809 15.7711 10.391 15.813 10.4758 15.8893C10.5605 15.9656 10.6138 16.0707 10.6252 16.1841L10.9919 19.7958C11.0011 19.9085 11.0525 20.0135 11.1357 20.09C11.219 20.1664 11.328 20.2087 11.441 20.2083H12.3577C12.4723 20.211 12.5836 20.1698 12.6688 20.0931C12.754 20.0164 12.8067 19.9101 12.816 19.7958L13.1827 16.1841C13.1939 16.0723 13.2459 15.9684 13.3287 15.8924C13.4115 15.8163 13.5194 15.7733 13.6319 15.7716H14.0902C14.1511 15.7742 14.2118 15.7642 14.2686 15.742C14.3254 15.7199 14.377 15.6863 14.4201 15.6432C14.4631 15.6001 14.4968 15.5485 14.5189 15.4917C14.541 15.435 14.5511 15.3742 14.5485 15.3133V13.7C14.5486 13.0013 14.2736 12.3306 13.7829 11.8331C13.2923 11.3356 12.6255 11.0513 11.9269 11.0416Z" />
</svg>
