<!--character:170:1565:1018-->
  <svg width="24" height="24" viewBox="0 0 24 24" >
<path d="M5.29901 8.61066C5.7056 8.61232 6.10353 8.49315 6.44229 8.26829C6.78105 8.04344 7.04538 7.72301 7.20174 7.34768C7.35811 6.97235 7.39945 6.55903 7.32054 6.16017C7.24162 5.7613 7.046 5.39487 6.75849 5.10736C6.47098 4.81985 6.10455 4.62423 5.70568 4.54531C5.30682 4.4664 4.8935 4.50774 4.51817 4.66411C4.14284 4.82047 3.82241 5.0848 3.59755 5.42356C3.37269 5.76232 3.25353 6.16025 3.25519 6.56684C3.25519 7.1089 3.47052 7.62875 3.85381 8.01204C4.2371 8.39533 4.75695 8.61066 5.29901 8.61066Z" />
<path d="M5.29901 9.02948C4.41039 9.02948 3.55818 9.38248 2.92983 10.0108C2.30149 10.6392 1.94849 11.4914 1.94849 12.38V14.1977C1.95009 14.2498 1.96202 14.301 1.98359 14.3485C2.00516 14.3959 2.03593 14.4386 2.07413 14.4741C2.11153 14.5143 2.15693 14.5463 2.20742 14.5679C2.25791 14.5896 2.31237 14.6004 2.3673 14.5997H3.07091C3.17564 14.5972 3.27735 14.6349 3.35522 14.705C3.43308 14.775 3.4812 14.8722 3.48973 14.9767L3.90854 19.1062C3.91697 19.2091 3.96391 19.3051 4.03999 19.375C4.11607 19.4448 4.21569 19.4834 4.31898 19.4831H6.27904C6.38233 19.4834 6.48195 19.4448 6.55803 19.375C6.63411 19.3051 6.68104 19.2091 6.68947 19.1062L7.10829 14.9767C7.11681 14.8722 7.16493 14.775 7.2428 14.705C7.32066 14.6349 7.42238 14.5972 7.5271 14.5997H8.23071C8.34112 14.5976 8.44641 14.5528 8.52449 14.4747C8.60257 14.3966 8.64739 14.2913 8.64953 14.1809V12.38C8.64953 11.4914 8.29653 10.6392 7.66818 10.0108C7.03984 9.38248 6.18762 9.02948 5.29901 9.02948Z" />
<path d="M18.7011 8.61066C19.1077 8.61232 19.5056 8.49315 19.8444 8.26829C20.1831 8.04344 20.4475 7.72301 20.6038 7.34768C20.7602 6.97235 20.8015 6.55903 20.7226 6.16017C20.6437 5.7613 20.4481 5.39487 20.1606 5.10736C19.8731 4.81985 19.5066 4.62423 19.1078 4.54531C18.7089 4.4664 18.2956 4.50774 17.9203 4.66411C17.5449 4.82047 17.2245 5.0848 16.9996 5.42356C16.7748 5.76232 16.6556 6.16025 16.6573 6.56684C16.6573 6.83524 16.7101 7.10101 16.8129 7.34898C16.9156 7.59694 17.0661 7.82225 17.2559 8.01204C17.4457 8.20183 17.671 8.35237 17.919 8.45508C18.1669 8.5578 18.4327 8.61066 18.7011 8.61066Z" />
<path d="M18.7011 9.02948C17.8125 9.02948 16.9603 9.38248 16.3319 10.0108C15.7036 10.6392 15.3506 11.4914 15.3506 12.38V14.1977C15.3527 14.3081 15.3975 14.4133 15.4756 14.4914C15.5537 14.5695 15.659 14.6143 15.7694 14.6165H16.473C16.5777 14.614 16.6794 14.6516 16.7573 14.7217C16.8352 14.7918 16.8833 14.889 16.8918 14.9934L17.3106 19.1229C17.3191 19.2259 17.366 19.3219 17.4421 19.3917C17.5182 19.4616 17.6178 19.5002 17.7211 19.4999H19.6811C19.7844 19.5002 19.884 19.4616 19.9601 19.3917C20.0362 19.3219 20.0831 19.2259 20.0916 19.1229L20.5104 14.9934C20.5189 14.889 20.567 14.7918 20.6449 14.7217C20.7228 14.6516 20.8245 14.614 20.9292 14.6165H21.6328C21.7432 14.6143 21.8485 14.5695 21.9266 14.4914C22.0047 14.4133 22.0495 14.3081 22.0516 14.1977V12.38C22.0516 11.4914 21.6986 10.6392 21.0703 10.0108C20.4419 9.38248 19.5897 9.02948 18.7011 9.02948Z" />
<path d="M10.2327 9.00435C10.2327 9.33568 10.3309 9.65958 10.515 9.93507C10.6991 10.2106 10.9607 10.4253 11.2668 10.5521C11.5729 10.6789 11.9098 10.7121 12.2347 10.6474C12.5597 10.5828 12.8582 10.4232 13.0925 10.1889C13.3268 9.95465 13.4863 9.65614 13.551 9.33117C13.6156 9.00621 13.5824 8.66937 13.4557 8.36325C13.3289 8.05714 13.1141 7.7955 12.8386 7.61142C12.5631 7.42734 12.2392 7.32909 11.9079 7.32909C11.4636 7.32909 11.0375 7.50559 10.7233 7.81976C10.4092 8.13393 10.2327 8.56004 10.2327 9.00435Z" />
<path d="M11.933 11.1236C11.6126 11.1213 11.295 11.1825 10.9983 11.3036C10.7017 11.4247 10.4319 11.6033 10.2045 11.8291C9.97721 12.0549 9.79678 12.3234 9.67366 12.6192C9.55053 12.915 9.48715 13.2323 9.48716 13.5527V15.0269C9.48773 15.1384 9.5295 15.2458 9.60443 15.3285C9.68616 15.4048 9.79413 15.4468 9.90598 15.4457H10.3248C10.429 15.4452 10.5296 15.4835 10.6071 15.5532C10.6845 15.6229 10.7332 15.719 10.7436 15.8227L11.0787 19.1229C11.0871 19.2259 11.134 19.3219 11.2101 19.3917C11.2862 19.4616 11.3858 19.5002 11.4891 19.4999H12.3267C12.4315 19.5023 12.5332 19.4647 12.611 19.3946C12.6889 19.3245 12.737 19.2273 12.7455 19.1229L13.0806 15.8227C13.0909 15.7204 13.1383 15.6255 13.214 15.556C13.2897 15.4865 13.3883 15.4473 13.491 15.4457H13.9098C13.9655 15.4481 14.021 15.4389 14.0729 15.4187C14.1248 15.3985 14.1719 15.3677 14.2113 15.3283C14.2506 15.289 14.2814 15.2418 14.3016 15.1899C14.3218 15.1381 14.331 15.0825 14.3287 15.0269V13.5527C14.3287 12.9142 14.0774 12.3014 13.6291 11.8468C13.1807 11.3922 12.5715 11.1324 11.933 11.1236Z" />
</svg>