<!--character:6749-->
  <svg width="20" height="20" viewBox="0 0 20 20" >
<path d="M5.94702 10.3218C6.74649 10.3217 7.5279 10.0789 8.19198 9.6242C8.85606 9.16947 9.37283 8.52335 9.67664 7.76793C9.98045 7.01251 10.0576 6.18188 9.89824 5.38157C9.7389 4.58127 9.35028 3.84741 8.78174 3.27324C8.21321 2.69906 7.49043 2.31048 6.70523 2.15686C5.92003 2.00325 5.10785 2.09153 4.37187 2.4105C3.6359 2.72946 3.00935 3.26471 2.57182 3.94824C2.13429 4.63178 1.90554 5.43274 1.91463 6.24938C1.92669 7.33373 2.35685 8.36949 3.11177 9.1319C3.86668 9.89431 4.88545 10.3219 5.94702 10.3218Z" />
<path d="M14.6075 12.4049C16.0626 12.4049 17.2423 11.1999 17.2423 9.71338C17.2423 8.22689 16.0626 7.02184 14.6075 7.02184C13.1523 7.02184 11.9727 8.22689 11.9727 9.71338C11.9727 11.1999 13.1523 12.4049 14.6075 12.4049Z" />
<path d="M13.0381 13.8325C12.3255 14.126 11.6856 14.5774 11.1646 15.1541C10.6436 15.7309 10.2544 16.4186 10.0252 17.1677C10.0003 17.2549 9.99565 17.3468 10.0116 17.4362C10.0275 17.5256 10.0635 17.61 10.1169 17.6826C10.1708 17.7546 10.2401 17.8131 10.3195 17.8537C10.3989 17.8942 10.4863 17.9158 10.5751 17.9167H18.594C18.6828 17.9158 18.7702 17.8942 18.8496 17.8537C18.929 17.8131 18.9983 17.7546 19.0523 17.6826C19.1056 17.61 19.1417 17.5256 19.1576 17.4362C19.1735 17.3468 19.1688 17.2549 19.1439 17.1677C18.9447 16.4108 18.5716 15.7133 18.0556 15.1333C17.5396 14.5532 16.8955 14.1073 16.1769 13.8325C15.1696 13.4198 14.0453 13.4198 13.0381 13.8325Z" />
<path d="M10.0252 13.9261C10.0695 13.8765 10.0941 13.8119 10.0941 13.7447C10.0941 13.6776 10.0695 13.6129 10.0252 13.5634C9.42312 12.6364 8.54274 11.9342 7.51645 11.5623C6.41426 11.1068 5.18193 11.1068 4.07975 11.5623C3.3188 11.8844 2.63621 12.373 2.08006 12.9937C1.5239 13.6144 1.10769 14.3521 0.860716 15.1549C0.831566 15.25 0.825722 15.3509 0.843699 15.4489C0.861676 15.5468 0.902923 15.6387 0.963817 15.7166C1.02009 15.7963 1.09409 15.8612 1.17973 15.906C1.26538 15.9507 1.36021 15.9741 1.45641 15.974H8.45581C8.5117 15.9742 8.56643 15.9577 8.61325 15.9265C8.66007 15.8953 8.69693 15.8508 8.71929 15.7985C9.0476 15.1033 9.4892 14.4702 10.0252 13.9261Z" />
</svg>