<!--character:$1565:993-->
  <svg width="24" height="24" viewBox="0 0 24 24" >
<path d="M7.3573 12.3658C8.27306 12.3658 9.16814 12.0897 9.92881 11.5728C10.6895 11.0558 11.2814 10.3213 11.6294 9.46248C11.9774 8.60369 12.0658 7.6594 11.8833 6.74958C11.7007 5.83976 11.2556 5.00548 10.6044 4.35273C9.95313 3.69998 9.12522 3.25823 8.2258 3.08359C7.32639 2.90895 6.39608 3.00932 5.55305 3.37193C4.71002 3.73454 3.99234 4.34304 3.49117 5.12011C2.99001 5.89718 2.72798 6.80775 2.73839 7.73613C2.75221 8.96887 3.24493 10.1464 4.10965 11.0131C4.97438 11.8798 6.14133 12.3659 7.3573 12.3658Z" />
<path d="M17.2775 14.734C18.9443 14.734 20.2955 13.3641 20.2955 11.6742C20.2955 9.98425 18.9443 8.6143 17.2775 8.6143C15.6107 8.6143 14.2594 9.98425 14.2594 11.6742C14.2594 13.3641 15.6107 14.734 17.2775 14.734Z" />
<path d="M15.4798 16.357C14.6636 16.6906 13.9306 17.2037 13.3338 17.8594C12.737 18.5151 12.2912 19.297 12.0287 20.1486C12.0002 20.2477 11.9948 20.3522 12.013 20.4538C12.0313 20.5554 12.0726 20.6513 12.1337 20.7339C12.1955 20.8158 12.2749 20.8823 12.3658 20.9284C12.4568 20.9745 12.5569 20.999 12.6586 21H21.8439C21.9456 20.999 22.0457 20.9745 22.1366 20.9284C22.2276 20.8823 22.307 20.8158 22.3688 20.7339C22.4299 20.6513 22.4712 20.5554 22.4894 20.4538C22.5076 20.3522 22.5023 20.2477 22.4738 20.1486C22.2456 19.288 21.8182 18.4951 21.2271 17.8357C20.6361 17.1763 19.8983 16.6693 19.0752 16.357C17.9214 15.8878 16.6336 15.8878 15.4798 16.357Z" />
<path d="M12.0287 16.4634C12.0794 16.407 12.1075 16.3335 12.1075 16.2572C12.1075 16.1809 12.0794 16.1073 12.0287 16.051C11.339 14.9972 10.3306 14.1989 9.15502 13.776C7.89252 13.2583 6.48094 13.2583 5.21844 13.776C4.3468 14.1423 3.56493 14.6978 2.92788 15.4034C2.29083 16.1091 1.81407 16.9477 1.53118 17.8603C1.49779 17.9684 1.4911 18.0832 1.51169 18.1945C1.53228 18.3058 1.57953 18.4104 1.64928 18.4989C1.71373 18.5895 1.7985 18.6633 1.8966 18.7142C1.9947 18.765 2.10332 18.7916 2.21352 18.7915H10.231C10.295 18.7918 10.3577 18.773 10.4114 18.7375C10.465 18.7021 10.5072 18.6515 10.5328 18.592C10.9089 17.8016 11.4147 17.0819 12.0287 16.4634Z" />
</svg>