<!--character:3664-->
  <svg width="20" height="20" viewBox="0 0 20 20" >
<path d="M2.75346 4H17.2462C17.8465 4 18.3332 4.48665 18.3332 5.08696V14.8696C18.3332 15.4699 17.8465 15.9565 17.2462 15.9565H10.1129L5.49621 19.1529C5.38542 19.2298 5.2411 19.2387 5.12164 19.1762C5.00217 19.1136 4.92733 18.9899 4.92737 18.8551V15.9565H2.75346C2.46933 15.9645 2.19394 15.8578 1.98944 15.6603C1.78493 15.4629 1.66853 15.1915 1.6665 14.9072V5.08696C1.6665 4.48665 2.15315 4 2.75346 4ZM10 5.83333C9.66667 5.83333 9.33334 6.08333 9.33334 6.5V9.83333C9.33334 10.25 9.58334 10.5 10 10.5C10.3333 10.5 10.6667 10.25 10.6667 9.83333V6.5C10.6667 6.16667 10.4167 5.83333 10 5.83333ZM11.0832 12.6251C11.0832 12.0268 10.5981 11.5417 9.99984 11.5417C9.40153 11.5417 8.9165 12.0268 8.9165 12.6251C8.9165 13.2234 9.40153 13.7084 9.99984 13.7084C10.5981 13.7084 11.0832 13.2234 11.0832 12.6251Z" />
</svg>