<!--character:176:550:1850-->
  <svg width="24" height="24" viewBox="0 0 24 24" >
<path d="M3.30435 4.80005H20.6957C21.416 4.80005 22 5.38403 22 6.1044V17.8435C22 18.5639 21.416 19.1479 20.6957 19.1479H12.1357L6.59565 22.9835C6.4627 23.0758 6.28952 23.0865 6.14616 23.0115C6.0028 22.9364 5.91299 22.788 5.91304 22.6261V19.1479H3.30435C2.96339 19.1575 2.63293 19.0294 2.38752 18.7925C2.14211 18.5556 2.00244 18.2298 2 17.8887V6.1044C2 5.38403 2.58398 4.80005 3.30435 4.80005ZM12.0002 7.00004C11.6002 7.00004 11.2002 7.30004 11.2002 7.80004V11.8C11.2002 12.3 11.5002 12.6 12.0002 12.6C12.4002 12.6 12.8002 12.3 12.8002 11.8V7.80004C12.8002 7.40004 12.5002 7.00004 12.0002 7.00004ZM13.3 15.1501C13.3 14.4322 12.718 13.8501 12 13.8501C11.282 13.8501 10.7 14.4322 10.7 15.1501C10.7 15.8681 11.282 16.4501 12 16.4501C12.718 16.4501 13.3 15.8681 13.3 15.1501Z" />
</svg>