<!-- character:0:566 -->
  <svg width="20" height="20" viewBox="0 0 20 20" >
<path   d="M2.75364 4H17.2464C17.8467 4 18.3334 4.48665 18.3334 5.08696V14.8696C18.3334 15.4699 17.8467 15.9565 17.2464 15.9565H10.1131L5.4964 19.1529C5.3856 19.2298 5.24128 19.2387 5.12182 19.1762C5.00235 19.1136 4.92751 18.9899 4.92756 18.8551V15.9565H2.75364C2.46951 15.9645 2.19413 15.8578 1.98962 15.6603C1.78512 15.4629 1.66872 15.1915 1.66669 14.9072V5.08696C1.66669 4.48665 2.15333 4 2.75364 4ZM10.0002 5.83333C9.66685 5.83333 9.33352 6.08333 9.33352 6.5V9.83333C9.33352 10.25 9.58352 10.5 10.0002 10.5C10.3335 10.5 10.6669 10.25 10.6669 9.83333V6.5C10.6669 6.16667 10.4169 5.83333 10.0002 5.83333ZM11.0834 12.6251C11.0834 13.2234 10.5983 13.7084 10 13.7084C9.40171 13.7084 8.91669 13.2234 8.91669 12.6251C8.91669 12.0268 9.40171 11.5417 10 11.5417C10.5983 11.5417 11.0834 12.0268 11.0834 12.6251Z" />
</svg>