<!--character:2751-->
<svg width="24" height="24" viewBox="0 0 24 24">
  <path d="M3.30415 4.8H20.6955C21.4158 4.8 21.9998 5.38398 21.9998 6.10435V17.8435C21.9998 18.5639 21.4158 19.1478 20.6955 19.1478H12.1355L6.59546 22.9835C6.4625 23.0757 6.28932 23.0865 6.14596 23.0114C6.0026 22.9364 5.91279 22.7879 5.91285 22.6261V19.1478H3.30415C2.96319 19.1574 2.63273 19.0293 2.38733 18.7924C2.14192 18.5555 2.00224 18.2298 1.9998 17.8887V6.10435C1.9998 5.38398 2.58378 4.8 3.30415 4.8ZM12 7C11.6 7 11.2 7.3 11.2 7.8V11.8C11.2 12.3 11.5 12.6 12 12.6C12.4 12.6 12.8 12.3 12.8 11.8V7.8C12.8 7.4 12.5 7 12 7ZM13.2998 15.1501C13.2998 14.4321 12.7178 13.8501 11.9998 13.8501C11.2818 13.8501 10.6998 14.4321 10.6998 15.1501C10.6998 15.8681 11.2818 16.4501 11.9998 16.4501C12.7178 16.4501 13.2998 15.8681 13.2998 15.1501Z" />
</svg>
