<!-- character:0:314 -->
  <svg width="20" height="20" viewBox="0 0 20 20" >
<path   d="M14.1667 3.89705C14.1667 3.35489 13.7934 2.91666 13.3334 2.91666C12.8734 2.91666 12.5 3.35489 12.5 3.89705V4.99999V6.10293C12.5 6.64411 12.8734 7.08332 13.3334 7.08332C13.7934 7.08332 14.1667 6.64411 14.1667 6.10293V5.83332H17.353C17.8951 5.83332 18.3334 5.45999 18.3334 4.99999C18.3334 4.53999 17.8951 4.16666 17.353 4.16666H14.1667V3.89705ZM9.85296 5.83332C10.3951 5.83332 10.8334 5.45999 10.8334 4.99999C10.8334 4.53999 10.3951 4.16666 9.85296 4.16666H2.64708C2.1059 4.16666 1.66669 4.53999 1.66669 4.99999C1.66669 5.45999 2.1059 5.83332 2.64708 5.83332H9.85296ZM5.83335 8.89705C5.83335 8.35489 6.20669 7.91666 6.66669 7.91666C7.12669 7.91666 7.50002 8.35489 7.50002 8.89705V9.99999V11.1029C7.50002 11.6441 7.12669 12.0833 6.66669 12.0833C6.20669 12.0833 5.83335 11.6441 5.83335 11.1029V10.8333H2.64708C2.10492 10.8333 1.66669 10.46 1.66669 9.99999C1.66669 9.53999 2.10492 9.16666 2.64708 9.16666H5.83335V8.89705ZM10.1471 10.8333C9.60492 10.8333 9.16669 10.46 9.16669 9.99999C9.16669 9.53999 9.60492 9.16666 10.1471 9.16666H17.353C17.8941 9.16666 18.3334 9.53999 18.3334 9.99999C18.3334 10.46 17.8941 10.8333 17.353 10.8333H10.1471ZM10.8334 13.897C10.8334 13.3549 10.46 12.9167 10 12.9167C9.54002 12.9167 9.16669 13.3549 9.16669 13.897V15V16.1029C9.16669 16.6441 9.54002 17.0833 10 17.0833C10.46 17.0833 10.8334 16.6441 10.8334 16.1029V15.8333H17.353C17.8951 15.8333 18.3334 15.46 18.3334 15C18.3334 14.54 17.8951 14.1667 17.353 14.1667H10.8334V13.897ZM7.50002 15C7.50002 15.46 7.06178 15.8333 6.51963 15.8333H2.64708C2.1059 15.8333 1.66669 15.46 1.66669 15C1.66669 14.54 2.1059 14.1667 2.64708 14.1667H6.51963C7.06178 14.1667 7.50002 14.54 7.50002 15Z" />
</svg>