<!--character:183:550:1797-->
  <svg width="24" height="24" viewBox="0 0 24 24" >
<path d="M17 4.67647C17 4.02588 16.552 3.5 16 3.5C15.448 3.5 15 4.02588 15 4.67647V7.32353C15 7.97294 15.448 8.5 16 8.5C16.552 8.5 17 7.97294 17 7.32353V7H20.8235C21.4741 7 22 6.552 22 6C22 5.448 21.4741 5 20.8235 5H17V4.67647Z" />
<path d="M11.8235 7C12.4741 7 13 6.552 13 6C13 5.448 12.4741 5 11.8235 5H3.17647C2.52706 5 2 5.448 2 6C2 6.552 2.52706 7 3.17647 7H11.8235Z" />
<path d="M7 10.6765C7 10.0259 7.448 9.5 8 9.5C8.552 9.5 9 10.0259 9 10.6765V13.3235C9 13.9729 8.552 14.5 8 14.5C7.448 14.5 7 13.9729 7 13.3235V13H3.17647C2.52588 13 2 12.552 2 12C2 11.448 2.52588 11 3.17647 11H7V10.6765Z" />
<path d="M12.1765 13C11.5259 13 11 12.552 11 12C11 11.448 11.5259 11 12.1765 11H20.8235C21.4729 11 22 11.448 22 12C22 12.552 21.4729 13 20.8235 13H12.1765Z" />
<path d="M13 16.6765C13 16.0259 12.552 15.5 12 15.5C11.448 15.5 11 16.0259 11 16.6765V19.3235C11 19.9729 11.448 20.5 12 20.5C12.552 20.5 13 19.9729 13 19.3235V19H20.8235C21.4741 19 22 18.552 22 18C22 17.448 21.4741 17 20.8235 17H13V16.6765Z" />
<path d="M9 18C9 18.552 8.47412 19 7.82353 19H3.17647C2.52706 19 2 18.552 2 18C2 17.448 2.52706 17 3.17647 17H7.82353C8.47412 17 9 17.448 9 18Z" />
</svg>