<!--character:5774-->
  <svg width="20" height="20" viewBox="0 0 20 20" >
<path d="M14.1665 3.89706C14.1665 3.3549 13.7932 2.91666 13.3332 2.91666C12.8732 2.91666 12.4998 3.3549 12.4998 3.89706V6.10294C12.4998 6.64411 12.8732 7.08333 13.3332 7.08333C13.7932 7.08333 14.1665 6.64411 14.1665 6.10294V5.83333H17.3528C17.8949 5.83333 18.3332 5.46 18.3332 5C18.3332 4.54 17.8949 4.16666 17.3528 4.16666H14.1665V3.89706Z" />
<path d="M9.85278 5.83333C10.3949 5.83333 10.8332 5.46 10.8332 5C10.8332 4.54 10.3949 4.16666 9.85278 4.16666H2.6469C2.10572 4.16666 1.6665 4.54 1.6665 5C1.6665 5.46 2.10572 5.83333 2.6469 5.83333H9.85278Z" />
<path d="M5.83317 8.89706C5.83317 8.3549 6.2065 7.91666 6.6665 7.91666C7.1265 7.91666 7.49984 8.3549 7.49984 8.89706V11.1029C7.49984 11.6441 7.1265 12.0833 6.6665 12.0833C6.2065 12.0833 5.83317 11.6441 5.83317 11.1029V10.8333H2.6469C2.10474 10.8333 1.6665 10.46 1.6665 10C1.6665 9.54 2.10474 9.16666 2.6469 9.16666H5.83317V8.89706Z" />
<path d="M10.1469 10.8333C9.60474 10.8333 9.1665 10.46 9.1665 10C9.1665 9.54 9.60474 9.16666 10.1469 9.16666H17.3528C17.894 9.16666 18.3332 9.54 18.3332 10C18.3332 10.46 17.894 10.8333 17.3528 10.8333H10.1469Z" />
<path d="M10.8332 13.8971C10.8332 13.3549 10.4598 12.9167 9.99984 12.9167C9.53984 12.9167 9.1665 13.3549 9.1665 13.8971V16.1029C9.1665 16.6441 9.53984 17.0833 9.99984 17.0833C10.4598 17.0833 10.8332 16.6441 10.8332 16.1029V15.8333H17.3528C17.8949 15.8333 18.3332 15.46 18.3332 15C18.3332 14.54 17.8949 14.1667 17.3528 14.1667H10.8332V13.8971Z" />
<path d="M7.49984 15C7.49984 15.46 7.0616 15.8333 6.51944 15.8333H2.6469C2.10572 15.8333 1.6665 15.46 1.6665 15C1.6665 14.54 2.10572 14.1667 2.6469 14.1667H6.51944C7.0616 14.1667 7.49984 14.54 7.49984 15Z" />
</svg>