<!--character:2715-->
<svg width="24" height="24" viewBox="0 0 24 24">
  <path d="M16.9998 4.67647C16.9998 4.02588 16.5518 3.5 15.9998 3.5C15.4478 3.5 14.9998 4.02588 14.9998 4.67647V7.32353C14.9998 7.97294 15.4478 8.5 15.9998 8.5C16.5518 8.5 16.9998 7.97294 16.9998 7.32353V7H20.8233C21.4739 7 21.9998 6.552 21.9998 6C21.9998 5.448 21.4739 5 20.8233 5H16.9998V4.67647Z" />
  <path d="M11.8233 7C12.4739 7 12.9998 6.552 12.9998 6C12.9998 5.448 12.4739 5 11.8233 5H3.17628C2.52686 5 1.9998 5.448 1.9998 6C1.9998 6.552 2.52686 7 3.17628 7H11.8233Z" />
  <path d="M6.9998 10.6765C6.9998 10.0259 7.4478 9.5 7.9998 9.5C8.5518 9.5 8.9998 10.0259 8.9998 10.6765V13.3235C8.9998 13.9729 8.5518 14.5 7.9998 14.5C7.4478 14.5 6.9998 13.9729 6.9998 13.3235V13H3.17628C2.52569 13 1.9998 12.552 1.9998 12C1.9998 11.448 2.52569 11 3.17628 11H6.9998V10.6765Z" />
  <path d="M12.1763 13C11.5257 13 10.9998 12.552 10.9998 12C10.9998 11.448 11.5257 11 12.1763 11H20.8233C21.4727 11 21.9998 11.448 21.9998 12C21.9998 12.552 21.4727 13 20.8233 13H12.1763Z" />
  <path d="M12.9998 16.6765C12.9998 16.0259 12.5518 15.5 11.9998 15.5C11.4478 15.5 10.9998 16.0259 10.9998 16.6765V19.3235C10.9998 19.9729 11.4478 20.5 11.9998 20.5C12.5518 20.5 12.9998 19.9729 12.9998 19.3235V19H20.8233C21.4739 19 21.9998 18.552 21.9998 18C21.9998 17.448 21.4739 17 20.8233 17H12.9998V16.6765Z" />
  <path d="M8.9998 18C8.9998 18.552 8.47392 19 7.82333 19H3.17628C2.52686 19 1.9998 18.552 1.9998 18C1.9998 17.448 2.52686 17 3.17628 17H7.82333C8.47392 17 8.9998 17.448 8.9998 18Z" />
</svg>
