<!--character:7677-->
  <svg width="24" height="24" viewBox="0 0 24 24" >
<path d="M12.0219 2.58559C12.1788 2.35001 12.4431 2.2085 12.7261 2.2085H13.0687C13.3069 2.2085 13.5341 2.30891 13.6944 2.48508C13.8548 2.66126 13.9335 2.89686 13.9112 3.13404L13.3647 8.93916H17.6583C17.9683 8.93916 18.2535 9.10871 18.4017 9.38107C18.5498 9.65343 18.5371 9.98499 18.3687 10.2453L11.1931 21.33C11.019 21.5989 10.7079 21.7465 10.3895 21.7112C10.0711 21.6759 9.7999 21.4639 9.6889 21.1634L9.38064 20.3288C9.33612 20.2083 9.31963 20.0793 9.33241 19.9514L9.97579 13.5162H6.32121C6.00918 13.5162 5.72247 13.3445 5.57518 13.0694C5.4279 12.7943 5.44394 12.4605 5.61692 12.2008L12.0219 2.58559ZM11.9678 5.7196L7.90169 11.8237H10.9108C11.1499 11.8237 11.3778 11.9249 11.5383 12.1021C11.6987 12.2794 11.7767 12.5163 11.7529 12.7542L11.2094 18.1903L16.1024 10.6316H12.435C12.1968 10.6316 11.9696 10.5312 11.8092 10.355C11.6489 10.1789 11.5702 9.94326 11.5925 9.70608L11.9678 5.7196Z" />
</svg>