<!-- character:1752:991 -->
  <svg width="20" height="20" viewBox="0 0 20 20" >
<path   d="M10.03 1.22778C10.1768 1.00739 10.4241 0.875 10.6889 0.875H11.0093C11.2322 0.875 11.4447 0.968941 11.5948 1.13375C11.7448 1.29857 11.8184 1.51898 11.7975 1.74087L11.2862 7.17167H15.303C15.5931 7.17167 15.8599 7.33029 15.9985 7.58508C16.137 7.83988 16.1252 8.15006 15.9676 8.39354L9.25468 18.7635C9.09181 19.0151 8.80082 19.1532 8.50293 19.1202C8.20504 19.0872 7.95133 18.8888 7.84748 18.6076L7.5591 17.8269C7.51745 17.7142 7.50202 17.5934 7.51398 17.4739L8.11587 11.4536H4.69694C4.40503 11.4536 4.13681 11.2929 3.99902 11.0356C3.86123 10.7783 3.87624 10.466 4.03807 10.223L10.03 1.22778ZM9.97944 4.1597L6.17552 9.87025H8.99063C9.2143 9.87025 9.42753 9.96486 9.57761 10.1307C9.72769 10.2965 9.80062 10.5181 9.77837 10.7407L9.26992 15.8263L13.8475 8.75501H10.4165C10.1937 8.75501 9.98111 8.66106 9.83108 8.49625C9.68106 8.33144 9.60745 8.11103 9.62834 7.88914L9.97944 4.1597Z" />
</svg>