<!--category:basic-->
<!--character:E220-->
<svg width="24" height="24" viewBox="0 0 24 24"  xmlns="http://www.w3.org/2000/svg">
  <path d="M12.0361 1.47338C12.2123 1.20892 12.509 1.05005 12.8267 1.05005H13.2112C13.4787 1.05005 13.7337 1.16278 13.9138 1.36055C14.0938 1.55833 14.1821 1.82283 14.1571 2.08909L13.5435 8.60606H18.3637C18.7117 8.60606 19.0319 8.79639 19.1982 9.10215C19.3645 9.4079 19.3503 9.78012 19.1612 10.0723L11.1057 22.5163C10.9102 22.8182 10.5611 22.9839 10.2036 22.9443C9.84612 22.9047 9.54167 22.6666 9.41705 22.3292L9.07099 21.3924C9.02102 21.2571 9.0025 21.1122 9.01685 20.9687L9.73912 13.7443H5.6364C5.28611 13.7443 4.96424 13.5516 4.7989 13.2428C4.63355 12.934 4.65156 12.5592 4.84576 12.2677L12.0361 1.47338ZM11.9754 4.99169L7.41069 11.8443H10.7888C11.0572 11.8443 11.3131 11.9579 11.4932 12.1569C11.6733 12.3559 11.7608 12.6218 11.7341 12.8889L11.124 18.9916L16.617 10.5061H12.4999C12.2325 10.5061 11.9774 10.3933 11.7974 10.1956C11.6173 9.99778 11.529 9.73328 11.5541 9.46702L11.9754 4.99169Z" />
</svg>
