<!--character:9010-->
  <svg width="24" height="24" viewBox="0 0 24 24" >
<path d="M12.036 1.47333C12.2122 1.20887 12.5089 1.05 12.8267 1.05H13.2112C13.4786 1.05 13.7337 1.16273 13.9137 1.3605C14.0937 1.55828 14.1821 1.82278 14.157 2.08904L13.5435 8.60601H18.3636C18.7117 8.60601 19.0318 8.79634 19.1982 9.1021C19.3645 9.40785 19.3502 9.78007 19.1611 10.0723L11.1056 22.5162C10.9102 22.8182 10.561 22.9838 10.2035 22.9442C9.84605 22.9046 9.54159 22.6665 9.41697 22.3292L9.07092 21.3923C9.02094 21.257 9.00243 21.1121 9.01678 20.9686L9.73905 13.7443H5.63633C5.28604 13.7443 4.96417 13.5515 4.79882 13.2427C4.63348 12.9339 4.65149 12.5592 4.84568 12.2676L12.036 1.47333ZM11.9753 4.99164L7.41062 11.8443H10.7888C11.0572 11.8443 11.313 11.9578 11.4931 12.1568C11.6732 12.3558 11.7607 12.6217 11.734 12.8888L11.1239 18.9916L16.617 10.506H12.4998C12.2324 10.506 11.9773 10.3933 11.7973 10.1955C11.6173 9.99773 11.5289 9.73323 11.554 9.46697L11.9753 4.99164Z" />
</svg>