<!-- character:0:142 -->
  <svg width="20" height="20" viewBox="0 0 20 20" >
<path   d="M5.06127 10.092L4.98961 10.1521L2.65336 12.5869C2.46933 12.7695 2.45092 13.0343 2.59815 13.1964L2.65336 13.2463L4.98961 15.6816C5.09185 15.7826 5.19409 15.8333 5.34746 15.8333C5.62351 15.8333 5.81675 15.6689 5.85264 15.4142L5.85867 15.326V13.6658L12.5775 13.6666C12.9628 13.6666 13.2808 13.3805 13.3274 13.0107L13.3333 12.9166C13.3333 12.5343 13.045 12.2187 12.6723 12.1725L12.5775 12.1666L5.85867 12.1658V10.5072C5.85867 10.4058 5.80755 10.2536 5.70531 10.1521C5.52354 9.97178 5.26099 9.95174 5.06127 10.092ZM14.2947 4.3188C14.1925 4.42025 14.1413 4.57242 14.1413 4.67387V6.33246L7.42253 6.33329L7.32772 6.33914C6.95502 6.38542 6.66667 6.70094 6.66667 7.08329L6.67256 7.17737C6.7192 7.54718 7.03719 7.83329 7.42253 7.83329L14.1413 7.83246V9.49271L14.1474 9.58087C14.1833 9.83561 14.3765 9.99996 14.6525 9.99996C14.8059 9.99996 14.9082 9.94923 15.0104 9.84829L17.3466 7.413L17.4018 7.36304C17.5491 7.20097 17.5307 6.93619 17.3466 6.75358L15.0104 4.3188L14.9387 4.25868C14.739 4.11841 14.4765 4.13845 14.2947 4.3188Z" />
</svg>