<!--character:$550:202-->
  <svg width="24" height="24" viewBox="0 0 24 24" >
<path d="M17.9494 8.61047L18.0348 8.68261L20.8165 11.6043C21.0356 11.8235 21.0576 12.1412 20.8823 12.3357L20.8165 12.3957L18.0348 15.318C17.913 15.4391 17.7913 15.5 17.6087 15.5C17.28 15.5 17.0499 15.3028 17.0072 14.9971L17 14.8913V12.9H14C13.5412 12.9 13.1625 12.5567 13.107 12.1129L13.1 12C13.1 11.5029 13.5029 11.1 14 11.1L17 11.099V9.1087C17 8.98696 17.0609 8.80435 17.1826 8.68261C17.399 8.46618 17.7116 8.44214 17.9494 8.61047ZM7.84945 8.61047L7.93478 8.68261L10.7165 11.6043C10.9357 11.8235 10.9576 12.1412 10.7823 12.3357L10.7165 12.3957L7.93478 15.318C7.81304 15.4391 7.6913 15.5 7.5087 15.5C7.18 15.5 6.94991 15.3028 6.90718 14.9971L6.9 14.8913V12.899L3.9 12.9C3.44118 12.9 3.06255 12.5567 3.00701 12.1129L3 12C3 11.5412 3.34334 11.1625 3.78711 11.107L3.9 11.1L6.9 11.099V9.1087C6.9 8.98696 6.96087 8.80435 7.08261 8.68261C7.29903 8.46618 7.61165 8.44214 7.84945 8.61047Z" />
</svg>