<!-- character:0:120 -->
  <svg width="20" height="20" viewBox="0 0 20 20" >
<path   d="M15.4547 2.98555L17.8895 5.42033C18.0919 5.62323 18.0919 5.92758 17.8895 6.07975L15.4547 8.51504C15.3533 8.61598 15.2518 8.66671 15.0997 8.66671C14.7948 8.66671 14.5924 8.46381 14.5924 8.15946L14.5913 6.50945C12.9343 6.4416 11.7421 7.33458 10.3494 9.56687C7.92442 13.4538 5.35229 15.3167 2.61238 14.9941C2.20101 14.9457 1.90679 14.5729 1.95523 14.1615C2.00367 13.7502 2.37642 13.456 2.78779 13.5044C4.82255 13.744 6.92574 12.2207 9.07674 8.7729C10.7184 6.14153 12.3524 4.93099 14.5924 5.00737L14.5924 3.34062C14.5924 3.21888 14.6249 3.12961 14.6898 3.04682L14.7446 2.98555C14.9475 2.78265 15.2518 2.78265 15.4547 2.98555ZM15.0997 11.3334C15.2518 11.3334 15.3533 11.3841 15.4547 11.485L17.8895 13.9203C18.0919 14.0725 18.0919 14.3769 17.8895 14.5798L15.4547 17.0145C15.2518 17.2174 14.9475 17.2174 14.7446 17.0145L14.6898 16.9533C14.6249 16.8705 14.5924 16.7812 14.5924 16.6595L14.5918 15.0274C12.7853 15.0841 11.349 14.2921 10.0315 12.6331C9.77395 12.3088 9.82809 11.837 10.1525 11.5794C10.4768 11.3218 10.9486 11.3759 11.2062 11.7003C12.253 13.0185 13.2632 13.5809 14.5915 13.5262L14.5924 11.8406C14.5924 11.5363 14.7948 11.3334 15.0997 11.3334ZM8.11465 8.55281C8.41609 8.26872 8.43015 7.79406 8.14607 7.49261C6.3867 5.62577 4.53234 4.76715 2.61238 4.99322C2.20101 5.04166 1.90679 5.41441 1.95523 5.82578C2.00367 6.23715 2.37642 6.53136 2.78779 6.48293C4.1825 6.3187 5.59492 6.9727 7.05445 8.52139C7.33854 8.82283 7.8132 8.8369 8.11465 8.55281Z" />
</svg>