<!-- character:0:134 -->
  <svg width="20" height="20" viewBox="0 0 20 20" >
<path   d="M14.9579 7.17543L15.029 7.23555L17.3471 9.67033C17.5297 9.85294 17.548 10.1177 17.4019 10.2798L17.3471 10.3298L15.029 12.765C14.9275 12.866 14.8261 12.9167 14.6739 12.9167C14.4 12.9167 14.2083 12.7524 14.1727 12.4976L14.1667 12.4095V10.75H11.6667C11.2843 10.75 10.9688 10.4639 10.9225 10.0941L10.9167 10C10.9167 9.58583 11.2525 9.25004 11.6667 9.25004L14.1667 9.24921V7.59062C14.1667 7.48917 14.2174 7.337 14.3188 7.23555C14.4992 7.05519 14.7597 7.03515 14.9579 7.17543ZM6.54121 7.17543L6.61232 7.23555L8.93044 9.67033C9.11304 9.85294 9.1313 10.1177 8.98522 10.2798L8.93044 10.3298L6.61232 12.765C6.51087 12.866 6.40942 12.9167 6.25725 12.9167C5.98333 12.9167 5.79159 12.7524 5.75599 12.4976L5.75 12.4095V10.7492L3.25 10.75C2.86765 10.75 2.55212 10.4639 2.50584 10.0941L2.5 10C2.5 9.61769 2.78611 9.30216 3.15592 9.25588L3.25 9.25004L5.75 9.24921V7.59062C5.75 7.48917 5.80073 7.337 5.90217 7.23555C6.08253 7.05519 6.34304 7.03515 6.54121 7.17543Z" />
</svg>