<!--character:$550:211-->
  <svg width="24" height="24" viewBox="0 0 24 24" >
<path d="M17.0426 8.68261C17.2861 8.43913 17.6513 8.43913 17.8948 8.68261L20.8165 11.6043C21.0594 11.8478 21.0594 12.213 20.8165 12.3957L17.8948 15.318C17.773 15.4391 17.6513 15.5 17.4687 15.5C17.1029 15.5 16.86 15.2565 16.86 14.8913V12.899L3.9 12.9C3.44118 12.9 3.06255 12.5567 3.00701 12.1129L3 12C3 11.5029 3.40294 11.1 3.9 11.1L16.86 11.099V9.1087C16.86 8.96261 16.899 8.85548 16.9769 8.75614L17.0426 8.68261Z" />
</svg>