<!--character:$550:1682-->
  <svg width="24" height="24" viewBox="0 0 24 24" >
<path d="M19.2975 11.1667C19.4245 11.1668 19.5447 11.1091 19.6238 11.0098C19.703 10.9105 19.7326 10.7805 19.7041 10.6567C19.0353 7.74029 16.781 5.44922 13.8758 4.73333C13.762 4.70585 13.665 4.63175 13.6086 4.52918C13.5521 4.4266 13.5415 4.30501 13.5791 4.19417C13.6372 4.02437 13.6668 3.84613 13.6666 3.66667C13.6666 2.74619 12.9205 2 12 2C11.0795 2 10.3333 2.74619 10.3333 3.66667C10.3332 3.84613 10.3627 4.02437 10.4208 4.19417C10.4585 4.30501 10.4478 4.4266 10.3914 4.52918C10.3349 4.63175 10.238 4.70585 10.1241 4.73333C7.21896 5.44922 4.96464 7.74029 4.29581 10.6567C4.26736 10.7805 4.29693 10.9105 4.37611 11.0098C4.4553 11.1091 4.57546 11.1668 4.70248 11.1667H19.2975ZM7.85332 7.74999C8.69607 7.05934 9.69044 6.57815 10.755 6.34582C11.0926 6.27287 11.4254 6.4874 11.4983 6.82499C11.5713 7.16257 11.3567 7.49537 11.0192 7.56832C10.1484 7.75829 9.33521 8.15244 8.64665 8.71832C8.37926 8.93739 7.98489 8.89822 7.76582 8.63082C7.54675 8.36342 7.58592 7.96906 7.85332 7.74999Z" />
<path d="M9.50002 19.0833H17C17.9205 19.0833 18.6667 19.8295 18.6667 20.75C18.6667 20.9801 18.4801 21.1667 18.25 21.1667H6.58335C6.35324 21.1667 6.16669 20.9801 6.16669 20.75V17.4167C6.16669 17.1865 6.35324 17 6.58335 17H11.1667C11.6269 17 12 17.3731 12 17.8333C12 18.0634 11.8135 18.25 11.5834 18.25H9.50002C9.2699 18.25 9.08335 18.4365 9.08335 18.6667C9.08335 18.8968 9.2699 19.0833 9.50002 19.0833Z" />
<path d="M21.375 12H2.625C2.27982 12 2 12.2798 2 12.625C2 12.9702 2.27982 13.25 2.625 13.25H3.32167C3.43196 13.25 3.53775 13.2938 3.61583 13.3717L4.5 14.2558C4.65624 14.4121 4.86817 14.5 5.08917 14.5H18.9108C19.1318 14.5 19.3438 14.4121 19.5 14.2558L20.3842 13.3717C20.4625 13.2936 20.5686 13.2498 20.6792 13.25H21.375C21.7202 13.25 22 12.9702 22 12.625C22 12.2798 21.7202 12 21.375 12Z" />
<path d="M4.5 16.1667H2.83333C2.3731 16.1667 2 16.5398 2 17V21.1667C2 21.6269 2.3731 22 2.83333 22H4.5C4.96024 22 5.33333 21.6269 5.33333 21.1667V17C5.33333 16.5398 4.96024 16.1667 4.5 16.1667ZM3.45831 20.75C3.11313 20.75 2.83331 20.4702 2.83331 20.125C2.83331 19.7798 3.11313 19.5 3.45831 19.5C3.80349 19.5 4.08331 19.7798 4.08331 20.125C4.08331 20.4702 3.80349 20.75 3.45831 20.75Z" />
</svg>