<!--character:7421-->
  <svg width="20" height="20" viewBox="0 0 20 20" >
<path d="M5.06127 10.0921L4.98961 10.1522L2.65336 12.587C2.46933 12.7696 2.45092 13.0343 2.59815 13.1964L2.65336 13.2464L4.98961 15.6817C5.09185 15.7826 5.19409 15.8333 5.34746 15.8333C5.62351 15.8333 5.81675 15.669 5.85264 15.4142L5.85867 15.3261V13.6658L12.5775 13.6667C12.9628 13.6667 13.2808 13.3806 13.3274 13.0107L13.3333 12.9167C13.3333 12.5343 13.045 12.2188 12.6723 12.1725L12.5775 12.1667L5.85867 12.1658V10.5072C5.85867 10.4058 5.80755 10.2536 5.70531 10.1522C5.52354 9.97182 5.26099 9.95178 5.06127 10.0921ZM14.2947 4.31884C14.1925 4.42029 14.1413 4.57246 14.1413 4.67391V6.3325L7.42253 6.33333L7.32772 6.33917C6.95502 6.38545 6.66667 6.70098 6.66667 7.08333L6.67256 7.17741C6.7192 7.54722 7.03719 7.83333 7.42253 7.83333L14.1413 7.8325V9.49275L14.1474 9.58091C14.1833 9.83565 14.3765 10 14.6525 10C14.8059 10 14.9082 9.94927 15.0104 9.84833L17.3466 7.41304L17.4018 7.36308C17.5491 7.20101 17.5307 6.93623 17.3466 6.75362L15.0104 4.31884L14.9387 4.25872C14.739 4.11844 14.4765 4.13848 14.2947 4.31884Z" />
</svg>