<!-- character:0:130 -->
  <svg width="20" height="20" viewBox="0 0 20 20" >
<path   d="M14.2022 7.23555C14.4051 7.03265 14.7094 7.03265 14.9123 7.23555L17.3471 9.67033C17.5495 9.87323 17.5495 10.1776 17.3471 10.3298L14.9123 12.765C14.8109 12.866 14.7094 12.9167 14.5572 12.9167C14.2524 12.9167 14.05 12.7138 14.05 12.4095V10.7492L3.25 10.75C2.86765 10.75 2.55212 10.4639 2.50584 10.0941L2.5 10C2.5 9.58583 2.83579 9.25004 3.25 9.25004L14.05 9.24921V7.59062C14.05 7.46888 14.0825 7.37961 14.1474 7.29682L14.2022 7.23555Z" />
</svg>