<!--description:Use as general icon for in-flight services-->
<!--category:services-->
<!--character:E049-->
<!--added:0.11-->
<svg width="24" height="24" viewBox="0 0 24 24" xmlns="http://www.w3.org/2000/svg"><path d="M17 19.0833c.9205 0 1.6667.7462 1.6667 1.6667a.4167.4167 0 0 1-.4167.4167H6.5833a.4167.4167 0 0 1-.4166-.4167v-3.3333A.4167.4167 0 0 1 6.5833 17h4.5834a.8333.8333 0 0 1 .8333.8333.4167.4167 0 0 1-.4167.4167H9.5a.4167.4167 0 1 0 0 .8333H17zM4.7025 11.1667a.4167.4167 0 0 1-.4067-.51 7.925 7.925 0 0 1 5.8284-5.9234.4167.4167 0 0 0 .2966-.5391 1.625 1.625 0 0 1-.0875-.5275C10.3333 2.7462 11.0795 2 12 2c.9205 0 1.6667.7462 1.6667 1.6667a1.625 1.625 0 0 1-.0875.5275.4167.4167 0 0 0 .2966.5391 7.925 7.925 0 0 1 5.8284 5.9234.4167.4167 0 0 1-.4067.51H4.7025zM7.8533 7.75a.626.626 0 0 0 .7934.9683 5.625 5.625 0 0 1 2.3725-1.15.6254.6254 0 0 0-.2642-1.2225A6.8983 6.8983 0 0 0 7.8533 7.75zM21.375 12a.625.625 0 1 1 0 1.25h-.6958a.4167.4167 0 0 0-.295.1217l-.8842.8841a.8333.8333 0 0 1-.5892.2442H5.0892a.8333.8333 0 0 1-.5892-.2442l-.8842-.8841a.4167.4167 0 0 0-.2941-.1217H2.625a.625.625 0 1 1 0-1.25h18.75zM4.5 16.1667A.8333.8333 0 0 1 5.3333 17v4.1667A.8333.8333 0 0 1 4.5 22H2.8333A.8333.8333 0 0 1 2 21.1667V17a.8333.8333 0 0 1 .8333-.8333H4.5zM3.4583 20.75a.625.625 0 1 0 0-1.25.625.625 0 0 0 0 1.25z"/></svg>