<!--character:7737-->
  <svg width="20" height="20" viewBox="0 0 20 20" >
<path d="M16.0816 9.30555C16.1874 9.3057 16.2876 9.25756 16.3535 9.17481C16.4195 9.09205 16.4442 8.98371 16.4205 8.88055C15.8631 6.45024 13.9845 4.54101 11.5635 3.94444C11.4687 3.92154 11.3879 3.85979 11.3408 3.77431C11.2938 3.68883 11.2849 3.58751 11.3163 3.49514C11.3647 3.35364 11.3893 3.2051 11.3892 3.05555C11.3892 2.28849 10.7674 1.66666 10.0003 1.66666C9.23326 1.66666 8.61144 2.28849 8.61144 3.05555C8.6113 3.2051 8.63594 3.35364 8.68435 3.49514C8.71576 3.58751 8.70686 3.68883 8.65983 3.77431C8.6128 3.85979 8.53197 3.92154 8.43713 3.94444C6.01615 4.54101 4.13754 6.45024 3.58019 8.88055C3.55648 8.98371 3.58111 9.09205 3.6471 9.17481C3.71309 9.25756 3.81323 9.3057 3.91908 9.30555H16.0816ZM6.54477 6.45833C7.24706 5.88279 8.07571 5.4818 8.96283 5.28819C9.24415 5.2274 9.52148 5.40618 9.58227 5.6875C9.64306 5.96882 9.46428 6.24615 9.18296 6.30694C8.45732 6.46525 7.77968 6.79371 7.20588 7.26528C6.98305 7.44784 6.65441 7.41519 6.47185 7.19236C6.28929 6.96953 6.32194 6.64089 6.54477 6.45833Z" />
<path d="M7.91699 15.9028H14.167C14.9341 15.9028 15.5559 16.5246 15.5559 17.2917C15.5559 17.4834 15.4004 17.6389 15.2087 17.6389H5.48644C5.29467 17.6389 5.13921 17.4834 5.13921 17.2917V14.5139C5.13921 14.3221 5.29467 14.1667 5.48644 14.1667H9.30588C9.68941 14.1667 10.0003 14.4776 10.0003 14.8611C10.0003 15.0529 9.84487 15.2083 9.6531 15.2083H7.91699C7.72523 15.2083 7.56977 15.3638 7.56977 15.5556C7.56977 15.7473 7.72523 15.9028 7.91699 15.9028Z" />
<path d="M17.8128 10H2.18783C1.90018 10 1.66699 10.2332 1.66699 10.5208C1.66699 10.8085 1.90018 11.0417 2.18783 11.0417H2.76838C2.86029 11.0417 2.94845 11.0781 3.01352 11.1431L3.75033 11.8799C3.88053 12.0101 4.05713 12.0833 4.2413 12.0833H15.7594C15.9435 12.0833 16.1201 12.0101 16.2503 11.8799L16.9871 11.1431C17.0524 11.078 17.1408 11.0415 17.233 11.0417H17.8128C18.1005 11.0417 18.3337 10.8085 18.3337 10.5208C18.3337 10.2332 18.1005 10 17.8128 10Z" />
<path d="M3.75033 13.4722H2.36144C1.97791 13.4722 1.66699 13.7831 1.66699 14.1667V17.6389C1.66699 18.0224 1.97791 18.3333 2.36144 18.3333H3.75033C4.13386 18.3333 4.44477 18.0224 4.44477 17.6389V14.1667C4.44477 13.7831 4.13386 13.4722 3.75033 13.4722ZM2.88227 17.2917C2.59462 17.2917 2.36144 17.0585 2.36144 16.7708C2.36144 16.4832 2.59462 16.25 2.88227 16.25C3.16992 16.25 3.4031 16.4832 3.4031 16.7708C3.4031 17.0585 3.16992 17.2917 2.88227 17.2917Z" />
</svg>