<!--character:5458-->
  <svg width="20" height="20" viewBox="0 0 20 20" >
<path d="M14.2022 7.23551C14.4051 7.03261 14.7094 7.03261 14.9123 7.23551L17.3471 9.67029C17.5495 9.87319 17.5495 10.1775 17.3471 10.3297L14.9123 12.765C14.8109 12.8659 14.7094 12.9167 14.5572 12.9167C14.2524 12.9167 14.05 12.7138 14.05 12.4094V10.7492L3.25 10.75C2.86765 10.75 2.55212 10.4639 2.50584 10.0941L2.5 10C2.5 9.58579 2.83579 9.25 3.25 9.25L14.05 9.24917V7.59058C14.05 7.46884 14.0825 7.37957 14.1474 7.29679L14.2022 7.23551Z" />
</svg>