<!--character:59:550:193-->
  <svg width="24" height="24" viewBox="0 0 24 24" >
<path   d="M6.07353 12.1105L5.98753 12.1826L3.18404 15.1043C2.96319 15.3235 2.94111 15.6412 3.11778 15.8357L3.18404 15.8957L5.98753 18.818C6.11022 18.9391 6.23291 19 6.41695 19C6.74821 19 6.9801 18.8028 7.02316 18.4971L7.0304 18.3913V16.399L15.093 16.4C15.5554 16.4 15.937 16.0567 15.9929 15.6129L16 15.5C16 15.0412 15.654 14.6625 15.2067 14.607L15.093 14.6L7.0304 14.599V12.6087C7.0304 12.487 6.96906 12.3043 6.84637 12.1826C6.62825 11.9662 6.31319 11.9421 6.07353 12.1105ZM17.1536 5.18261C17.0309 5.30435 16.9696 5.48696 16.9696 5.6087V7.599L8.90704 7.6L8.79326 7.60701C8.34602 7.66255 8 8.04118 8 8.5L8.00707 8.61289C8.06304 9.05666 8.44463 9.4 8.90704 9.4L16.9696 9.399V11.3913L16.9768 11.4971C17.0199 11.8028 17.2518 12 17.5831 12C17.7671 12 17.8898 11.9391 18.0125 11.818L20.816 8.89565L20.8822 8.8357C21.0589 8.64122 21.0368 8.32348 20.816 8.10435L18.0125 5.18261L17.9265 5.11047C17.6868 4.94214 17.3718 4.96618 17.1536 5.18261Z" />
</svg>