<!--character:6327-->
  <svg width="24" height="24" viewBox="0 0 24 24" >
<path d="M19.2979 11.1667C19.4249 11.1668 19.5451 11.1091 19.6243 11.0098C19.7034 10.9105 19.733 10.7805 19.7046 10.6567C19.0357 7.74029 16.7814 5.44922 13.8762 4.73333C13.7624 4.70584 13.6654 4.63175 13.609 4.52917C13.5525 4.4266 13.5419 4.30501 13.5796 4.19416C13.6377 4.02437 13.6672 3.84612 13.6671 3.66666C13.6671 2.74619 12.9209 2 12.0004 2C11.0799 2 10.3337 2.74619 10.3337 3.66666C10.3336 3.84612 10.3631 4.02437 10.4212 4.19416C10.4589 4.30501 10.4482 4.4266 10.3918 4.52917C10.3354 4.63175 10.2384 4.70584 10.1246 4.73333C7.21938 5.44922 4.96505 7.74029 4.29622 10.6567C4.26777 10.7805 4.29734 10.9105 4.37653 11.0098C4.45571 11.1091 4.57587 11.1668 4.70289 11.1667H19.2979ZM7.85372 7.75C8.69648 7.05935 9.69085 6.57816 10.7554 6.34583C11.093 6.27288 11.4258 6.48741 11.4987 6.825C11.5717 7.16258 11.3571 7.49538 11.0196 7.56833C10.1488 7.7583 9.33562 8.15245 8.64706 8.71833C8.37966 8.9374 7.9853 8.89823 7.76622 8.63083C7.54715 8.36343 7.58633 7.96907 7.85372 7.75Z" />
<path d="M9.50039 19.0833H17.0004C17.9209 19.0833 18.6671 19.8295 18.6671 20.75C18.6671 20.9801 18.4805 21.1667 18.2504 21.1667H6.58372C6.3536 21.1667 6.16706 20.9801 6.16706 20.75V17.4167C6.16706 17.1865 6.3536 17 6.58372 17H11.1671C11.6273 17 12.0004 17.3731 12.0004 17.8333C12.0004 18.0634 11.8138 18.25 11.5837 18.25H9.50039C9.27027 18.25 9.08372 18.4365 9.08372 18.6667C9.08372 18.8968 9.27027 19.0833 9.50039 19.0833Z" />
<path d="M21.3754 12H2.62539C2.28021 12 2.00039 12.2798 2.00039 12.625C2.00039 12.9702 2.28021 13.25 2.62539 13.25H3.32206C3.43235 13.25 3.53814 13.2938 3.61622 13.3717L4.50039 14.2558C4.65663 14.4121 4.86856 14.5 5.08956 14.5H18.9112C19.1322 14.5 19.3441 14.4121 19.5004 14.2558L20.3846 13.3717C20.4629 13.2936 20.569 13.2498 20.6796 13.25H21.3754C21.7206 13.25 22.0004 12.9702 22.0004 12.625C22.0004 12.2798 21.7206 12 21.3754 12Z" />
<path d="M4.50039 16.1667H2.83372C2.37349 16.1667 2.00039 16.5398 2.00039 17V21.1667C2.00039 21.6269 2.37349 22 2.83372 22H4.50039C4.96063 22 5.33372 21.6269 5.33372 21.1667V17C5.33372 16.5398 4.96063 16.1667 4.50039 16.1667ZM3.45872 20.75C3.11355 20.75 2.83372 20.4702 2.83372 20.125C2.83372 19.7798 3.11355 19.5 3.45872 19.5C3.8039 19.5 4.08372 19.7798 4.08372 20.125C4.08372 20.4702 3.8039 20.75 3.45872 20.75Z" />
</svg>