<!--category:travel-->
<!--character:E150-->
<!--added:0.21-->
<svg width="24" height="24" viewBox="0 0 24 24" xmlns="http://www.w3.org/2000/svg"><path d="M18.1196 13.6c.1826 0 .3043.0609.426.182l2.9218 2.9223c.2429.1827.2429.5479 0 .7914l-2.9217 2.9217c-.2435.2435-.6087.2435-.8522 0l-.0657-.0735c-.078-.0994-.1169-.2065-.1169-.3526l-.0007-1.9585c-2.1678.068-3.8915-.8823-5.4724-2.873a.9.9 0 1 1 1.4096-1.1195c1.2562 1.5819 2.4684 2.2567 4.0624 2.1911l.0011-2.0227c0-.3652.2429-.6087.6087-.6087zm.426-10.0174l2.9218 2.9217c.2429.2435.2429.6087 0 .7914l-2.9217 2.9223c-.1218.1211-.2435.182-.4261.182-.3658 0-.6087-.2435-.6087-.6087l-.0013-1.98c-1.9884-.0814-3.4191.9901-5.0904 3.6689-2.91 4.6643-5.9965 6.8998-9.2844 6.5127a.9.9 0 1 1 .2105-1.7877c2.4417.2875 4.9656-1.5404 7.5468-5.6778 1.97-3.1576 3.9307-4.6103 6.6188-4.5186V4.0087c0-.146.039-.2532.1169-.3526l.0657-.0735c.2435-.2435.6087-.2435.8522 0zM9.7754 8.9911a.9.9 0 0 1-1.31 1.2345C6.714 8.3672 5.019 7.5824 3.3453 7.7795a.9.9 0 1 1-.2105-1.7877c2.304-.2713 4.5292.759 6.6405 2.9993z"/></svg>
