<!-- character:0:2045 -->
  <svg width="20" height="20" viewBox="0 0 20 20" >
<path   d="M16.0812 9.30551C16.1871 9.30566 16.2872 9.25752 16.3532 9.17477C16.4192 9.09201 16.4438 8.98367 16.4201 8.88051C15.8627 6.4502 13.9841 4.54098 11.5632 3.9444C11.4683 3.9215 11.3875 3.85975 11.3405 3.77427C11.2934 3.68879 11.2845 3.58747 11.3159 3.4951C11.3643 3.3536 11.389 3.20506 11.3888 3.05551C11.3888 2.28845 10.767 1.66663 9.99996 1.66663C9.2329 1.66663 8.61107 2.28845 8.61107 3.05551C8.61094 3.20506 8.63557 3.3536 8.68399 3.4951C8.7154 3.58747 8.7065 3.68879 8.65946 3.77427C8.61243 3.85975 8.5316 3.9215 8.43676 3.9444C6.01578 4.54098 4.13718 6.4502 3.57982 8.88051C3.55611 8.98367 3.58075 9.09201 3.64674 9.17477C3.71273 9.25752 3.81286 9.30566 3.91871 9.30551H16.0812ZM6.5444 6.45829C7.2467 5.88275 8.07534 5.48176 8.96246 5.28815C9.24378 5.22736 9.52111 5.40614 9.5819 5.68746C9.64269 5.96878 9.46392 6.24611 9.1826 6.3069C8.45696 6.46521 7.77931 6.79367 7.20551 7.26524C6.98268 7.4478 6.65405 7.41515 6.47149 7.19232C6.28893 6.96949 6.32157 6.64085 6.5444 6.45829ZM7.91663 15.9027H14.1666C14.9337 15.9027 15.5555 16.5246 15.5555 17.2916C15.5555 17.4834 15.4001 17.6388 15.2083 17.6388H5.48607C5.2943 17.6388 5.13885 17.4834 5.13885 17.2916V14.5138C5.13885 14.3221 5.2943 14.1666 5.48607 14.1666H9.30551C9.68904 14.1666 9.99996 14.4775 9.99996 14.8611C9.99996 15.0528 9.8445 15.2083 9.65274 15.2083H7.91663C7.72486 15.2083 7.5694 15.3637 7.5694 15.5555C7.5694 15.7473 7.72486 15.9027 7.91663 15.9027ZM17.8125 9.99996H2.18746C1.89981 9.99996 1.66663 10.2331 1.66663 10.5208C1.66663 10.8084 1.89981 11.0416 2.18746 11.0416H2.76801C2.85993 11.0416 2.94808 11.0781 3.01315 11.143L3.74996 11.8798C3.88016 12.0101 4.05677 12.0833 4.24093 12.0833H15.759C15.9432 12.0833 16.1198 12.0101 16.25 11.8798L16.9868 11.143C17.052 11.0779 17.1404 11.0415 17.2326 11.0416H17.8125C18.1001 11.0416 18.3333 10.8084 18.3333 10.5208C18.3333 10.2331 18.1001 9.99996 17.8125 9.99996ZM3.74996 13.4722H2.36107C1.97754 13.4722 1.66663 13.7831 1.66663 14.1666V17.6388C1.66663 18.0224 1.97754 18.3333 2.36107 18.3333H3.74996C4.13349 18.3333 4.4444 18.0224 4.4444 17.6388V14.1666C4.4444 13.7831 4.13349 13.4722 3.74996 13.4722ZM2.8819 17.2916C2.59426 17.2916 2.36107 17.0584 2.36107 16.7708C2.36107 16.4831 2.59426 16.25 2.8819 16.25C3.16955 16.25 3.40274 16.4831 3.40274 16.7708C3.40274 17.0584 3.16955 17.2916 2.8819 17.2916Z" />
</svg>