<!--character:2059-->
  <svg width="20" height="20" viewBox="0 0 20 20" >
<path d="M15.4549 2.98551L17.8897 5.42029C18.0921 5.62319 18.0921 5.92754 17.8897 6.07971L15.4549 8.515C15.3535 8.61594 15.252 8.66667 15.0999 8.66667C14.795 8.66667 14.5926 8.46377 14.5926 8.15942L14.5915 6.50941C12.9345 6.44156 11.7422 7.33454 10.3496 9.56683C7.9246 13.4537 5.35247 15.3167 2.61256 14.9941C2.20119 14.9456 1.90698 14.5729 1.95541 14.1615C2.00385 13.7501 2.3766 13.4559 2.78797 13.5044C4.82273 13.7439 6.92592 12.2206 9.07692 8.77286C10.7186 6.14149 12.3526 4.93095 14.5926 5.00733L14.5926 3.34058C14.5926 3.21884 14.6251 3.12957 14.69 3.04679L14.7448 2.98551C14.9477 2.78261 15.252 2.78261 15.4549 2.98551ZM15.0999 11.3333C15.252 11.3333 15.3535 11.3841 15.4549 11.485L17.8897 13.9203C18.0921 14.0725 18.0921 14.3768 17.8897 14.5797L15.4549 17.0145C15.252 17.2174 14.9477 17.2174 14.7448 17.0145L14.69 16.9532C14.6251 16.8704 14.5926 16.7812 14.5926 16.6594L14.592 15.0274C12.7855 15.0841 11.3492 14.2921 10.0317 12.6331C9.77413 12.3087 9.82827 11.837 10.1526 11.5794C10.477 11.3218 10.9488 11.3759 11.2064 11.7003C12.2532 13.0185 13.2634 13.5808 14.5917 13.5262L14.5926 11.8406C14.5926 11.5362 14.795 11.3333 15.0999 11.3333ZM8.11483 8.55277C8.41627 8.26868 8.43034 7.79402 8.14625 7.49258C6.38688 5.62574 4.53252 4.76711 2.61256 4.99318C2.20119 5.04162 1.90698 5.41437 1.95541 5.82574C2.00385 6.23711 2.3766 6.53133 2.78797 6.48289C4.18268 6.31867 5.5951 6.97266 7.05463 8.52135C7.33872 8.82279 7.81339 8.83686 8.11483 8.55277Z" />
</svg>