<!--category:travel-->
<!--character:0073-->
<svg width="24" height="24" viewBox="0 0 24 24" xmlns="http://www.w3.org/2000/svg"><path d="M17.9265 12.1105l.086.0721 2.8035 2.9217c.2208.2192.2429.537.0662.7314l-.0662.06-2.8035 2.9223c-.1227.1211-.2454.182-.4294.182-.3313 0-.5632-.1972-.6063-.5029l-.0072-.1058V16.399L8.907 16.4c-.4624 0-.844-.3433-.9-.7871L8 15.5c0-.4588.346-.8375.7933-.893l.1137-.007 8.0626-.001v-1.9903c0-.1217.0613-.3044.184-.426.2182-.2165.5332-.2406.7729-.0722zM6.8464 5.1826c.1227.1217.184.3044.184.4261V7.599l8.0626.001.1137.007c.4473.0555.7933.4342.7933.893l-.007.1129c-.056.4438-.4376.7871-.9.7871l-8.0626-.001v1.9923l-.0072.1058c-.0431.3057-.275.5029-.6063.5029-.184 0-.3067-.0609-.4294-.182L3.184 8.8957l-.0662-.06c-.1767-.1945-.1546-.5122.0662-.7314l2.8035-2.9217.086-.0721c.2397-.1684.5547-.1443.7729.0721z"/></svg>
