<!--character:8447-->
  <svg width="24" height="24" viewBox="0 0 24 24" >
<path d="M19.2975 11.1667C19.4245 11.1669 19.5447 11.1091 19.6239 11.0098C19.7031 10.9105 19.7326 10.7805 19.7042 10.6567C19.0353 7.7403 16.781 5.44923 13.8758 4.73334C13.762 4.70585 13.665 4.63176 13.6086 4.52918C13.5522 4.42661 13.5415 4.30502 13.5792 4.19417C13.6373 4.02438 13.6668 3.84613 13.6667 3.66667C13.6667 2.7462 12.9205 2.00001 12 2.00001C11.0795 2.00001 10.3333 2.7462 10.3333 3.66667C10.3332 3.84613 10.3627 4.02438 10.4208 4.19417C10.4585 4.30502 10.4478 4.42661 10.3914 4.52918C10.335 4.63176 10.238 4.70585 10.1242 4.73334C7.21898 5.44923 4.96466 7.7403 4.29583 10.6567C4.26738 10.7805 4.29695 10.9105 4.37614 11.0098C4.45532 11.1091 4.57548 11.1669 4.7025 11.1667H19.2975ZM7.85333 7.75001C8.69609 7.05936 9.69046 6.57817 10.755 6.34584C11.0926 6.27289 11.4254 6.48742 11.4983 6.82501C11.5713 7.16259 11.3568 7.49539 11.0192 7.56834C10.1484 7.7583 9.33523 8.15246 8.64667 8.71834C8.37927 8.93741 7.98491 8.89824 7.76583 8.63084C7.54676 8.36344 7.58594 7.96908 7.85333 7.75001Z" />
<path d="M9.5 19.0833H17C17.9205 19.0833 18.6667 19.8295 18.6667 20.75C18.6667 20.9801 18.4801 21.1667 18.25 21.1667H6.58333C6.35321 21.1667 6.16667 20.9801 6.16667 20.75V17.4167C6.16667 17.1866 6.35321 17 6.58333 17H11.1667C11.6269 17 12 17.3731 12 17.8333C12 18.0635 11.8135 18.25 11.5833 18.25H9.5C9.26988 18.25 9.08333 18.4366 9.08333 18.6667C9.08333 18.8968 9.26988 19.0833 9.5 19.0833Z" />
<path d="M21.375 12H2.625C2.27982 12 2 12.2798 2 12.625C2 12.9702 2.27982 13.25 2.625 13.25H3.32167C3.43196 13.25 3.53775 13.2938 3.61583 13.3717L4.5 14.2558C4.65624 14.4121 4.86817 14.5 5.08917 14.5H18.9108C19.1318 14.5 19.3438 14.4121 19.5 14.2558L20.3842 13.3717C20.4625 13.2936 20.5686 13.2498 20.6792 13.25H21.375C21.7202 13.25 22 12.9702 22 12.625C22 12.2798 21.7202 12 21.375 12Z" />
<path d="M4.5 16.1667H2.83333C2.3731 16.1667 2 16.5398 2 17V21.1667C2 21.6269 2.3731 22 2.83333 22H4.5C4.96024 22 5.33333 21.6269 5.33333 21.1667V17C5.33333 16.5398 4.96024 16.1667 4.5 16.1667ZM3.45833 20.75C3.11316 20.75 2.83333 20.4702 2.83333 20.125C2.83333 19.7798 3.11316 19.5 3.45833 19.5C3.80351 19.5 4.08333 19.7798 4.08333 20.125C4.08333 20.4702 3.80351 20.75 3.45833 20.75Z" />
</svg>