<!--character:7576-->
  <svg width="24" height="24" viewBox="0 0 24 24" >
<path d="M18.5456 3.58263L21.4674 6.50437C21.7103 6.74785 21.7103 7.11307 21.4674 7.29568L18.5456 10.218C18.4239 10.3392 18.3022 10.4 18.1196 10.4C17.7537 10.4 17.5109 10.1565 17.5109 9.79133L17.5095 7.81132C15.5212 7.72989 14.0904 8.80147 12.4192 11.4802C9.50925 16.1445 6.4227 18.38 3.13481 17.9929C2.64116 17.9348 2.2881 17.4875 2.34623 16.9938C2.40435 16.5002 2.85165 16.1471 3.3453 16.2052C5.78701 16.4928 8.31084 14.6648 10.892 10.5275C12.862 7.36981 14.8228 5.91716 17.5108 6.00881L17.5109 4.00872C17.5109 3.86263 17.5498 3.7555 17.6277 3.65616L17.6935 3.58263C17.9369 3.33915 18.3022 3.33915 18.5456 3.58263ZM18.1195 13.6C18.3022 13.6 18.4239 13.6609 18.5456 13.782L21.4674 16.7044C21.7102 16.887 21.7102 17.2522 21.4674 17.4957L18.5456 20.4174C18.3022 20.6609 17.9369 20.6609 17.6935 20.4174L17.6277 20.3439C17.5498 20.2445 17.5109 20.1374 17.5109 19.9913L17.5101 18.0328C15.3423 18.1009 13.6187 17.1505 12.0378 15.1597C11.7287 14.7705 11.7936 14.2044 12.1829 13.8952C12.5721 13.5861 13.1383 13.6511 13.4474 14.0404C14.7036 15.6222 15.9157 16.297 17.5097 16.2315L17.5109 14.2087C17.5109 13.8435 17.7537 13.6 18.1195 13.6ZM9.73752 10.2633C10.0993 9.92244 10.1161 9.35285 9.77523 8.99112C7.66399 6.75091 5.43875 5.72056 3.13481 5.99184C2.64116 6.04997 2.2881 6.49727 2.34623 6.99091C2.40435 7.48456 2.85165 7.83762 3.3453 7.77949C5.01895 7.58242 6.71385 8.36721 8.46529 10.2256C8.8062 10.5874 9.37579 10.6043 9.73752 10.2633Z" />
</svg>