<!--character:3024:2723-->
<svg width="24" height="24" viewBox="0 0 24 24">
  <path d="M18.5459 3.58261L21.4677 6.50435C21.7105 6.74783 21.7105 7.11305 21.4677 7.29565L18.5459 10.218C18.4242 10.3391 18.3024 10.4 18.1198 10.4C17.754 10.4 17.5111 10.1565 17.5111 9.79131L17.5098 7.81129C15.5214 7.72987 14.0907 8.80145 12.4195 11.4802C9.50952 16.1445 6.42297 18.38 3.13508 17.9929C2.64143 17.9347 2.28837 17.4874 2.3465 16.9938C2.40462 16.5002 2.85192 16.1471 3.34557 16.2052C5.78728 16.4927 8.3111 14.6648 10.8923 10.5274C12.8623 7.36978 14.8231 5.91714 17.5111 6.00879L17.5111 4.0087C17.5111 3.86261 17.5501 3.75548 17.628 3.65614L17.6937 3.58261C17.9372 3.33913 18.3024 3.33913 18.5459 3.58261ZM18.1198 13.6C18.3024 13.6 18.4242 13.6609 18.5459 13.782L21.4677 16.7044C21.7105 16.887 21.7105 17.2522 21.4677 17.4957L18.5459 20.4174C18.3024 20.6609 17.9372 20.6609 17.6937 20.4174L17.628 20.3439C17.5501 20.2445 17.5111 20.1374 17.5111 19.9913L17.5104 18.0328C15.3426 18.1009 13.619 17.1505 12.0381 15.1597C11.729 14.7705 11.7939 14.2043 12.1832 13.8952C12.5724 13.5861 13.1386 13.6511 13.4477 14.0403C14.7038 15.6222 15.916 16.297 17.51 16.2315L17.5111 14.2087C17.5111 13.8435 17.754 13.6 18.1198 13.6ZM9.73779 10.2633C10.0995 9.92242 10.1164 9.35282 9.7755 8.99109C7.66426 6.75088 5.43902 5.72053 3.13508 5.99182C2.64143 6.04994 2.28837 6.49724 2.3465 6.99089C2.40462 7.48453 2.85192 7.83759 3.34557 7.77947C5.01922 7.5824 6.71412 8.36719 8.46556 10.2256C8.80646 10.5873 9.37606 10.6042 9.73779 10.2633Z" />
</svg>
