<!--character:6429-->
  <svg width="20" height="20" viewBox="0 0 20 20" >
<path d="M14.9579 7.17539L15.029 7.23551L17.3471 9.67029C17.5297 9.8529 17.548 10.1177 17.4019 10.2797L17.3471 10.3297L15.029 12.765C14.9275 12.8659 14.8261 12.9167 14.6739 12.9167C14.4 12.9167 14.2083 12.7523 14.1727 12.4976L14.1667 12.4094V10.75H11.6667C11.2843 10.75 10.9688 10.4639 10.9225 10.0941L10.9167 10C10.9167 9.58579 11.2525 9.25 11.6667 9.25L14.1667 9.24917V7.59058C14.1667 7.48913 14.2174 7.33696 14.3188 7.23551C14.4992 7.05516 14.7597 7.03512 14.9579 7.17539ZM6.54121 7.17539L6.61232 7.23551L8.93044 9.67029C9.11304 9.8529 9.1313 10.1177 8.98522 10.2797L8.93044 10.3297L6.61232 12.765C6.51087 12.8659 6.40942 12.9167 6.25725 12.9167C5.98333 12.9167 5.79159 12.7523 5.75599 12.4976L5.75 12.4094V10.7492L3.25 10.75C2.86765 10.75 2.55212 10.4639 2.50584 10.0941L2.5 10C2.5 9.61765 2.78611 9.30213 3.15592 9.25585L3.25 9.25L5.75 9.24917V7.59058C5.75 7.48913 5.80073 7.33696 5.90217 7.23551C6.08253 7.05516 6.34304 7.03512 6.54121 7.17539Z" />
</svg>