<!--character:175:550:1786-->
<svg width="24" height="24" viewBox="0 0 24 24" xmlns="http://www.w3.org/2000/svg"><path d="M21.7357 9.2036a.8334.8334 0 0 0-1.1783.0392c-1.5318 1.6375-2.3068 2.81-2.3068 3.486v6.2501a.8334.8334 0 0 1-1.6667 0V7.7285c0-1.1506-.9328-2.0834-2.0834-2.0834h-.2067a.2083.2083 0 0 1-.2083-.2083V3.9784c-.001-.805-.6534-1.4575-1.4584-1.4584H3.46C2.6545 2.5205 2.0014 3.1729 2 3.9784v15.834c.0014.8048.6535 1.457 1.4584 1.4583h9.167c.805-.001 1.4575-.6533 1.4584-1.4584V7.5202c0-.115.0933-.2084.2083-.2084h.2084a.4167.4167 0 0 1 .4166.4167V18.979c0 1.3808 1.1194 2.5001 2.5001 2.5001 1.3808 0 2.5001-1.1193 2.5001-2.5v-1.856a.2075.2075 0 0 1 .115-.1866l.8609-.4309a1.2442 1.2442 0 0 0 .6909-1.1175v-.9926c0-.6903-.5597-1.25-1.25-1.25h-.2168a.2083.2083 0 0 1-.2083-.2067v-.13a11.5838 11.5838 0 0 1 1.8667-2.4276.8334.8334 0 0 0-.04-1.1775zm-10.7779 5.8169a.4167.4167 0 0 1-.4166.4166h-.8334a.4167.4167 0 0 1-.4167-.4166v-2.5001a.4167.4167 0 0 1 .4167-.4167h.8334a.4167.4167 0 0 1 .4166.4167v2.5zm.8334-7.292a.4167.4167 0 0 1-.4167.4167H4.7076a.4167.4167 0 0 1-.4167-.4167v-2.5a.4167.4167 0 0 1 .4167-.4167h6.667a.4167.4167 0 0 1 .4166.4166v2.5001z"/></svg>
