<!-- character:0:2485 -->
  <svg width="20" height="20" viewBox="0 0 20 20" >
<path   d="M18.1131 7.66963C17.9786 7.54367 17.7996 7.47634 17.6154 7.48246C17.4312 7.48858 17.257 7.56765 17.1312 7.70227C15.8547 9.0669 15.2089 10.044 15.2089 10.6072V15.8158C15.2089 16.1993 14.8979 16.5102 14.5144 16.5102C14.1308 16.5102 13.8199 16.1993 13.8199 15.8158V6.44042C13.8199 5.48155 13.0426 4.70424 12.0837 4.70424H11.9115C11.8156 4.70424 11.7379 4.62651 11.7379 4.53062V3.3153C11.7371 2.64441 11.1935 2.10074 10.5226 2.09998H2.8834C2.21213 2.10036 1.66784 2.64403 1.66669 3.3153V16.5102C1.66783 17.181 2.21128 17.7244 2.88201 17.7256H10.5212C11.1921 17.7248 11.7357 17.1811 11.7365 16.5102V6.2668C11.7365 6.17091 11.8142 6.09318 11.9101 6.09318H12.0837C12.2755 6.09318 12.431 6.24864 12.431 6.44042V15.8158C12.431 16.9664 13.3638 17.8992 14.5144 17.8992C15.665 17.8992 16.5978 16.9664 16.5978 15.8158V14.2692C16.5975 14.2033 16.6347 14.143 16.6936 14.1136L17.411 13.7546C17.7645 13.579 17.9877 13.218 17.9867 12.8233V11.9962C17.9867 11.4209 17.5204 10.9545 16.945 10.9545H16.7645C16.6691 10.9545 16.5916 10.8776 16.5909 10.7822V10.6739C17.0176 9.9337 17.5407 9.25343 18.1465 8.65091C18.4081 8.37069 18.3932 7.93145 18.1131 7.66963ZM9.13155 12.517C9.13155 12.7088 8.97609 12.8643 8.78431 12.8643H8.08984C7.89807 12.8643 7.74261 12.7088 7.74261 12.517V10.4336C7.74261 10.2418 7.89807 10.0864 8.08984 10.0864H8.78431C8.97609 10.0864 9.13155 10.2418 9.13155 10.4336V12.517ZM9.47878 6.78765C9.67056 6.78765 9.82602 6.63219 9.82602 6.44041V4.357C9.82602 4.16523 9.67056 4.00977 9.47878 4.00977H3.92302C3.73125 4.00977 3.57579 4.16523 3.57579 4.357V6.44041C3.57579 6.63219 3.73125 6.78765 3.92302 6.78765H9.47878Z" />
</svg>