<!--character:4898-->
  <svg width="20" height="20" viewBox="0 0 20 20" >
<path d="M18.113 7.66965C17.9784 7.54369 17.7994 7.47636 17.6152 7.48248C17.431 7.4886 17.2568 7.56768 17.131 7.70229C15.8545 9.06693 15.2087 10.044 15.2087 10.6073V15.8158C15.2087 16.1993 14.8978 16.5103 14.5142 16.5103C14.1307 16.5103 13.8197 16.1993 13.8197 15.8158V6.44044C13.8197 5.48157 13.0424 4.70426 12.0836 4.70426H11.9113C11.8154 4.70426 11.7377 4.62653 11.7377 4.53064V3.31532C11.7369 2.64443 11.1933 2.10076 10.5224 2.1H2.88322C2.21194 2.10038 1.66765 2.64405 1.6665 3.31532V16.5103C1.66765 17.181 2.2111 17.7244 2.88183 17.7256H10.521C11.1919 17.7248 11.7356 17.1811 11.7363 16.5103V6.26682C11.7363 6.17093 11.8141 6.0932 11.9099 6.0932H12.0836C12.2753 6.0932 12.4308 6.24867 12.4308 6.44044V15.8158C12.4308 16.9664 13.3636 17.8992 14.5142 17.8992C15.6648 17.8992 16.5976 16.9664 16.5976 15.8158V14.2692C16.5973 14.2033 16.6345 14.143 16.6935 14.1136L17.4108 13.7546C17.7644 13.5791 17.9876 13.218 17.9866 12.8233V11.9962C17.9866 11.4209 17.5202 10.9545 16.9449 10.9545H16.7643C16.6689 10.9545 16.5914 10.8776 16.5907 10.7823V10.6739C17.0174 9.93373 17.5405 9.25345 18.1463 8.65094C18.4079 8.37072 18.393 7.93147 18.113 7.66965ZM9.13136 12.5171C9.13136 12.7088 8.9759 12.8643 8.78413 12.8643H8.08966C7.89789 12.8643 7.74242 12.7088 7.74242 12.5171V10.4336C7.74242 10.2419 7.89789 10.0864 8.08966 10.0864H8.78413C8.9759 10.0864 9.13136 10.2419 9.13136 10.4336V12.5171ZM9.4786 6.78767H3.92284C3.73107 6.78767 3.5756 6.63221 3.5756 6.44044V4.35703C3.5756 4.16525 3.73107 4.00979 3.92284 4.00979H9.4786C9.67037 4.00979 9.82584 4.16525 9.82584 4.35703V6.44044C9.82584 6.63221 9.67037 6.78767 9.4786 6.78767Z" />
</svg>