<!--character:2085-->
  <svg width="24" height="24" viewBox="0 0 24 24" >
<path d="M21.7355 9.20358C21.5741 9.05243 21.3593 8.97163 21.1382 8.97898C20.9172 8.98632 20.7082 9.08121 20.5572 9.24275C19.0254 10.8803 18.2504 12.0529 18.2504 12.7287V18.9789C18.2504 19.4392 17.8773 19.8123 17.417 19.8123C16.9568 19.8123 16.5837 19.4392 16.5837 18.9789V7.72853C16.5837 6.57789 15.6509 5.64511 14.5003 5.64511H14.2936C14.1785 5.64511 14.0853 5.55184 14.0853 5.43677V3.97839C14.0843 3.17332 13.4319 2.52092 12.6269 2.52H3.45986C2.65433 2.52046 2.00118 3.17286 1.9998 3.97839V19.8123C2.00118 20.6172 2.65332 21.2693 3.45819 21.2707H12.6252C13.4303 21.2698 14.0827 20.6174 14.0836 19.8123V7.52019C14.0836 7.40512 14.1769 7.31184 14.2919 7.31184H14.5003C14.7304 7.31184 14.917 7.4984 14.917 7.72853V18.9789C14.917 20.3597 16.0363 21.479 17.417 21.479C18.7978 21.479 19.9171 20.3597 19.9171 18.9789V17.123C19.9168 17.044 19.9614 16.9716 20.0321 16.9364L20.893 16.5055C21.3172 16.2949 21.5851 15.8616 21.5839 15.388V14.3954C21.5839 13.7051 21.0242 13.1454 20.3338 13.1454H20.1171C20.0027 13.1454 19.9097 13.0531 19.9088 12.9387V12.8087C20.4209 11.9205 21.0486 11.1041 21.7755 10.3811C22.0895 10.0449 22.0716 9.51776 21.7355 9.20358ZM10.9576 15.0205C10.9576 15.2506 10.7711 15.4371 10.541 15.4371H9.70759C9.47746 15.4371 9.29091 15.2506 9.29091 15.0205V12.5204C9.29091 12.2902 9.47746 12.1037 9.70759 12.1037H10.541C10.7711 12.1037 10.9576 12.2902 10.9576 12.5204V15.0205ZM11.3743 8.14521H4.70741C4.47728 8.14521 4.29072 7.95865 4.29072 7.72853V5.22843C4.29072 4.99831 4.47728 4.81175 4.70741 4.81175H11.3743C11.6044 4.81175 11.791 4.99831 11.791 5.22843V7.72853C11.791 7.95865 11.6044 8.14521 11.3743 8.14521Z" />
</svg>