<!-- character:0:424 -->
  <svg width="20" height="20" viewBox="0 0 20 20" >
<path   d="M17.6389 1.66663C18.0229 1.66663 18.3334 1.97774 18.3334 2.36107V5.83329C18.3334 6.11385 18.1646 6.36732 17.9049 6.47496C17.8209 6.51038 17.7306 6.52774 17.6389 6.52774C17.4542 6.52774 17.2778 6.45412 17.1479 6.32357L16.1486 5.32426C16.0806 5.25621 15.9709 5.25621 15.9028 5.32426L13.3917 7.83538C13.0528 8.17426 12.5028 8.17426 12.1639 7.83538C11.825 7.49649 11.825 6.94649 12.1639 6.6076L14.675 4.09718C14.7431 4.02913 14.7431 3.9194 14.675 3.85135L13.6757 2.85204C13.5452 2.72218 13.4722 2.5451 13.4722 2.36107C13.4722 1.97774 13.7827 1.66663 14.1667 1.66663H17.6389ZM5.83335 18.3333H2.36113C1.9778 18.3333 1.66669 18.0229 1.66669 17.6388V14.1666C1.66669 13.9819 1.7396 13.8048 1.87016 13.675C2.14099 13.4034 2.58058 13.4034 2.8521 13.675L3.85141 14.6743C3.91946 14.7423 4.02919 14.7423 4.09724 14.6743L6.60835 12.1638C6.94724 11.825 7.49724 11.825 7.83613 12.1638C8.17502 12.5027 8.17502 13.0527 7.83613 13.3916L5.32502 15.9027C5.32502 15.9027 5.32502 15.9034 5.32433 15.9034C5.25696 15.9715 5.25696 16.0805 5.32502 16.1479L6.32432 17.1479C6.45488 17.2777 6.5278 17.4541 6.5278 17.6388C6.5278 18.0222 6.21669 18.3333 5.83335 18.3333ZM1.66669 5.83329C1.66669 6.11385 1.83613 6.36732 2.09516 6.47496C2.17919 6.51038 2.27016 6.52774 2.36113 6.52774C2.54516 6.52774 2.72224 6.45482 2.8521 6.32426L3.97433 5.20135L6.60835 7.83538C6.94724 8.17426 7.49724 8.17426 7.83613 7.83538C8.17502 7.49649 8.17502 6.94649 7.83613 6.6076L5.32502 4.09718C5.25696 4.02913 5.25696 3.9194 5.32502 3.85135L6.32432 2.85135C6.59516 2.57982 6.59446 2.14024 6.32294 1.8694C6.19307 1.73954 6.01669 1.66663 5.83335 1.66663H2.36113C1.9778 1.66663 1.66669 1.97774 1.66669 2.36107V5.83329ZM17.6389 13.4722C18.0222 13.4722 18.3334 13.7826 18.3334 14.1666V17.6388C18.3334 18.0229 18.0229 18.3333 17.6389 18.3333H14.1667C13.9827 18.3333 13.8056 18.2604 13.6757 18.1298C13.4042 17.8583 13.4042 17.4194 13.6757 17.1479L14.675 16.1479C14.7431 16.0798 14.7424 15.9701 14.675 15.9027L12.1639 13.3916C11.825 13.0527 11.825 12.5027 12.1639 12.1638C12.5028 11.825 13.0528 11.825 13.3917 12.1638L15.9028 14.675C15.9715 14.743 16.0813 14.743 16.1486 14.675L17.1479 13.6757C17.2778 13.5451 17.4542 13.4722 17.6389 13.4722Z" />
</svg>