<!--character:2183-->
  <svg width="20" height="20" viewBox="0 0 20 20" >
<path d="M17.6387 1.66666C18.0228 1.66666 18.3332 1.97778 18.3332 2.36111V5.83333C18.3332 6.11389 18.1644 6.36736 17.9047 6.475C17.8207 6.51041 17.7304 6.52777 17.6387 6.52777C17.454 6.52777 17.2776 6.45416 17.1478 6.32361L16.1484 5.3243C16.0804 5.25625 15.9707 5.25625 15.9026 5.3243L13.3915 7.83541C13.0526 8.1743 12.5026 8.1743 12.1637 7.83541C11.8248 7.49652 11.8248 6.94652 12.1637 6.60764L14.6748 4.09722C14.7429 4.02916 14.7429 3.91944 14.6748 3.85139L13.6755 2.85208C13.545 2.72222 13.4721 2.54514 13.4721 2.36111C13.4721 1.97778 13.7825 1.66666 14.1665 1.66666H17.6387Z" />
<path d="M5.83317 18.3333H2.36095C1.97761 18.3333 1.6665 18.0229 1.6665 17.6389V14.1667C1.6665 13.9819 1.73942 13.8049 1.86998 13.675C2.14081 13.4035 2.58039 13.4035 2.85192 13.675L3.85123 14.6743C3.91928 14.7424 4.029 14.7424 4.09706 14.6743L6.60817 12.1639C6.94706 11.825 7.49706 11.825 7.83595 12.1639C8.17484 12.5028 8.17484 13.0528 7.83595 13.3917L5.32484 15.9028C5.25748 15.9708 5.25678 16.0806 5.32484 16.1479L6.32414 17.1479C6.4547 17.2778 6.52761 17.4542 6.52761 17.6389C6.52761 18.0222 6.2165 18.3333 5.83317 18.3333Z" />
<path d="M1.6665 5.83333C1.6665 6.11389 1.83595 6.36736 2.09498 6.475C2.179 6.51041 2.26998 6.52777 2.36095 6.52777C2.54498 6.52777 2.72206 6.45486 2.85192 6.3243L3.97414 5.20139L6.60817 7.83541C6.94706 8.1743 7.49706 8.1743 7.83595 7.83541C8.17484 7.49652 8.17484 6.94652 7.83595 6.60764L5.32484 4.09722C5.25678 4.02916 5.25678 3.91944 5.32484 3.85139L6.32414 2.85139C6.59497 2.57986 6.59428 2.14028 6.32275 1.86944C6.19289 1.73958 6.0165 1.66666 5.83317 1.66666H2.36095C1.97761 1.66666 1.6665 1.97778 1.6665 2.36111V5.83333Z" />
<path d="M17.6387 13.4722C18.0221 13.4722 18.3332 13.7826 18.3332 14.1667V17.6389C18.3332 18.0229 18.0228 18.3333 17.6387 18.3333H14.1665C13.9825 18.3333 13.8054 18.2604 13.6755 18.1299C13.404 17.8583 13.404 17.4194 13.6755 17.1479L14.6748 16.1479C14.7429 16.0799 14.7422 15.9701 14.6748 15.9028L12.1637 13.3917C11.8248 13.0528 11.8248 12.5028 12.1637 12.1639C12.5026 11.825 13.0526 11.825 13.3915 12.1639L15.9026 14.675C15.9714 14.7431 16.0811 14.7431 16.1484 14.675L17.1478 13.6757C17.2776 13.5451 17.454 13.4722 17.6387 13.4722Z" />
</svg>