<!--character:2993-->
  <svg width="24" height="24" viewBox="0 0 24 24" >
<path d="M21.1665 2C21.6273 2 21.9998 2.37333 21.9998 2.83333V7C21.9998 7.33666 21.7973 7.64083 21.4856 7.77C21.3848 7.8125 21.2765 7.83333 21.1665 7.83333C20.9448 7.83333 20.7331 7.745 20.5773 7.58833L19.3781 6.38916C19.2965 6.3075 19.1648 6.3075 19.0831 6.38916L16.0698 9.4025C15.6631 9.80916 15.0031 9.80916 14.5965 9.4025C14.1898 8.99583 14.1898 8.33583 14.5965 7.92916L17.6098 4.91666C17.6915 4.835 17.6915 4.70333 17.6098 4.62166L16.4106 3.4225C16.254 3.26666 16.1665 3.05416 16.1665 2.83333C16.1665 2.37333 16.539 2 16.9998 2H21.1665Z" />
<path d="M6.9998 22H2.83314C2.37314 22 1.9998 21.6275 1.9998 21.1667V17C1.9998 16.7783 2.0873 16.5658 2.24397 16.41C2.56897 16.0842 3.09647 16.0842 3.4223 16.41L4.62147 17.6092C4.70314 17.6908 4.8348 17.6908 4.91647 17.6092L7.9298 14.5967C8.33647 14.19 8.99647 14.19 9.40314 14.5967C9.8098 15.0033 9.8098 15.6633 9.40314 16.07L6.3898 19.0833C6.30897 19.165 6.30814 19.2967 6.3898 19.3775L7.58897 20.5775C7.74564 20.7333 7.83314 20.945 7.83314 21.1667C7.83314 21.6267 7.4598 22 6.9998 22Z" />
<path d="M1.9998 7C1.9998 7.33666 2.20314 7.64083 2.51397 7.77C2.6148 7.8125 2.72397 7.83333 2.83314 7.83333C3.05397 7.83333 3.26647 7.74583 3.4223 7.58916L4.76897 6.24166L7.9298 9.4025C8.33647 9.80916 8.99647 9.80916 9.40314 9.4025C9.8098 8.99583 9.8098 8.33583 9.40314 7.92916L6.3898 4.91666C6.30814 4.835 6.30814 4.70333 6.3898 4.62166L7.58897 3.42166C7.91397 3.09583 7.91314 2.56833 7.5873 2.24333C7.43147 2.0875 7.2198 2 6.9998 2H2.83314C2.37314 2 1.9998 2.37333 1.9998 2.83333V7Z" />
<path d="M21.1665 16.1667C21.6265 16.1667 21.9998 16.5392 21.9998 17V21.1667C21.9998 21.6275 21.6273 22 21.1665 22H16.9998C16.779 22 16.5665 21.9125 16.4106 21.7558C16.0848 21.43 16.0848 20.9033 16.4106 20.5775L17.6098 19.3775C17.6915 19.2958 17.6906 19.1642 17.6098 19.0833L14.5965 16.07C14.1898 15.6633 14.1898 15.0033 14.5965 14.5967C15.0031 14.19 15.6631 14.19 16.0698 14.5967L19.0831 17.61C19.1656 17.6917 19.2973 17.6917 19.3781 17.61L20.5773 16.4108C20.7331 16.2542 20.9448 16.1667 21.1665 16.1667Z" />
</svg>