<!--character:$550:156-->
  <svg width="24" height="24" viewBox="0 0 24 24" >
<path d="M9.07576 3.90213C9.39406 4.0332 9.60172 4.34383 9.60172 4.68852V8.75065C9.60172 9.22044 9.22044 9.60172 8.75065 9.60172H4.68681C4.46128 9.60172 4.24511 9.5115 4.08511 9.35236C3.75234 9.01959 3.75234 8.48172 4.08511 8.14895L5.21533 7.02469C5.29788 6.94129 5.29788 6.80682 5.21533 6.72427L2.31149 3.81617C1.89617 3.40085 1.89617 2.72681 2.31149 2.31149C2.72681 1.89617 3.40085 1.89617 3.81617 2.31149L6.71916 5.21533C6.80256 5.29788 6.93703 5.29788 7.02044 5.21533L8.14895 4.08596C8.3915 3.84085 8.75831 3.76766 9.07576 3.90213Z" />
<path d="M20.1836 2.31155C20.5998 1.89623 21.273 1.89623 21.6883 2.31155C22.1036 2.72687 22.1036 3.40007 21.6883 3.81624L18.7845 6.72007C18.7019 6.80263 18.7019 6.9371 18.7845 7.0205L19.9147 8.14901C20.0747 8.30901 20.164 8.52604 20.164 8.75157C20.1632 9.22221 19.7819 9.60263 19.3113 9.60178H15.25C14.7793 9.60178 14.3989 9.2205 14.3989 8.75072V4.68773C14.3989 4.4622 14.4883 4.24517 14.6474 4.08603C14.9793 3.75326 15.5189 3.75326 15.8517 4.08603L16.9751 5.21539C17.0594 5.29794 17.1938 5.29794 17.2764 5.21539L20.1836 2.31155Z" />
<path d="M3.81627 21.6883C3.4001 22.1036 2.7269 22.1036 2.31158 21.6883C1.89626 21.273 1.89626 20.5998 2.31158 20.1836L5.21542 17.2798C5.29797 17.1972 5.29797 17.0619 5.21542 16.9794L4.08521 15.8517C3.9252 15.6908 3.83584 15.4738 3.83584 15.2483C3.83669 14.7776 4.21882 14.3981 4.68861 14.3989H8.75075C9.22053 14.3989 9.60181 14.7793 9.60181 15.25V19.3138C9.60181 19.5402 9.5116 19.7555 9.35245 19.9155C9.01968 20.2483 8.48181 20.2483 8.14904 19.9155L7.02479 18.7845C6.94138 18.7019 6.80691 18.7019 6.72351 18.7845L3.81627 21.6883Z" />
<path d="M14.3985 19.3113C14.3985 19.7819 14.7789 20.1623 15.2495 20.1623C15.4751 20.1623 15.6921 20.073 15.8512 19.913L16.9789 18.7845C17.0632 18.7019 17.1976 18.7019 17.281 18.7845L20.184 21.6883C20.5993 22.1036 21.2725 22.1036 21.6879 21.6883C22.104 21.273 22.104 20.5998 21.6879 20.1836L18.784 17.2772C18.7023 17.1947 18.7023 17.0594 18.784 16.9768L19.9142 15.8517C20.247 15.5189 20.247 14.9793 19.9142 14.6474C19.7551 14.4883 19.5389 14.3989 19.3125 14.3989H15.2495C14.7789 14.3989 14.3985 14.7793 14.3985 15.25V19.3113Z" />
</svg>