<!--character:6748-->
  <svg width="24" height="24" viewBox="0 0 24 24" >
<path d="M9.07586 3.90213C9.39416 4.03319 9.60182 4.34383 9.60182 4.68851V8.75065C9.60182 9.22044 9.22054 9.60171 8.75075 9.60171H4.68691C4.46138 9.60171 4.24521 9.5115 4.08521 9.35235C3.75244 9.01958 3.75244 8.48171 4.08521 8.14895L5.21542 7.02469C5.29798 6.94128 5.29798 6.80682 5.21542 6.72426L2.31159 3.81617C1.89627 3.40085 1.89627 2.72681 2.31159 2.31149C2.72691 1.89617 3.40095 1.89617 3.81627 2.31149L6.71926 5.21532C6.80266 5.29788 6.93713 5.29788 7.02053 5.21532L8.14905 4.08596C8.3916 3.84085 8.75841 3.76766 9.07586 3.90213Z" />
<path d="M20.1837 2.31157C20.5999 1.89625 21.2731 1.89625 21.6884 2.31157C22.1037 2.72689 22.1037 3.40009 21.6884 3.81626L18.7846 6.72009C18.702 6.80265 18.702 6.93711 18.7846 7.02052L19.9148 8.14903C20.0748 8.30903 20.1641 8.52605 20.1641 8.75159C20.1633 9.22223 19.782 9.60265 19.3114 9.6018H15.2501C14.7794 9.6018 14.399 9.22052 14.399 8.75073V4.68775C14.399 4.46221 14.4884 4.24519 14.6475 4.08604C14.9794 3.75328 15.519 3.75328 15.8518 4.08604L16.9752 5.21541C17.0594 5.29796 17.1939 5.29796 17.2765 5.21541L20.1837 2.31157Z" />
<path d="M3.81636 21.6883C3.40019 22.1036 2.72699 22.1036 2.31167 21.6883C1.89635 21.273 1.89635 20.5998 2.31167 20.1836L5.21551 17.2798C5.29806 17.1972 5.29806 17.0619 5.21551 16.9793L4.08529 15.8517C3.92529 15.6908 3.83593 15.4738 3.83593 15.2483C3.83678 14.7776 4.21891 14.3981 4.6887 14.3989H8.75084C9.22062 14.3989 9.6019 14.7793 9.6019 15.25V19.3138C9.6019 19.5402 9.51169 19.7555 9.35254 19.9155C9.01977 20.2483 8.4819 20.2483 8.14913 19.9155L7.02488 18.7845C6.94147 18.7019 6.807 18.7019 6.7236 18.7845L3.81636 21.6883Z" />
<path d="M14.3986 19.3113C14.3986 19.7819 14.779 20.1623 15.2497 20.1623C15.4752 20.1623 15.6922 20.073 15.8514 19.913L16.979 18.7845C17.0633 18.7019 17.1977 18.7019 17.2812 18.7845L20.1841 21.6883C20.5995 22.1036 21.2726 22.1036 21.688 21.6883C22.1041 21.273 22.1041 20.5998 21.688 20.1836L18.7841 17.2772C18.7024 17.1947 18.7024 17.0593 18.7841 16.9768L19.9143 15.8517C20.2471 15.5189 20.2471 14.9793 19.9143 14.6474C19.7552 14.4883 19.539 14.3989 19.3126 14.3989H15.2497C14.779 14.3989 14.3986 14.7793 14.3986 15.25V19.3113Z" />
</svg>