<!--category:navigation-->
<!--character:E0A6-->
<!--added:0.11-->
<svg width="24" height="24" viewBox="0 0 24 24" xmlns="http://www.w3.org/2000/svg"><path d="M2 21.1667V17a.8316.8316 0 0 1 .2442-.59c.325-.3258.8525-.3258 1.1783 0l1.1992 1.1992a.2082.2082 0 0 0 .295 0L7.93 14.5967c.4067-.4067 1.0667-.4067 1.4733 0 .4067.4066.4067 1.0666 0 1.4733L6.39 19.0833s0 .0009-.0008.0009a.207.207 0 0 0 .0008.2933l1.1992 1.2a.8297.8297 0 0 1 .2441.5892c0 .46-.3733.8333-.8333.8333H2.8333A.8331.8331 0 0 1 2 21.1667zM22 2.8333V7a.8334.8334 0 0 1-.8333.8333.8305.8305 0 0 1-.5892-.245l-1.1992-1.1991a.2082.2082 0 0 0-.295 0L16.07 9.4025c-.4067.4067-1.0667.4067-1.4733 0-.4067-.4067-.4067-1.0667 0-1.4733L17.61 4.9167a.2082.2082 0 0 0 0-.295l-1.1992-1.1992a.8311.8311 0 0 1-.2441-.5892c0-.46.3725-.8333.8333-.8333h4.1667A.8331.8331 0 0 1 22 2.8333zM2 7V2.8333C2 2.3733 2.3733 2 2.8333 2H7a.8332.8332 0 0 1 .5892 1.4217l-1.1992 1.2a.2082.2082 0 0 0 0 .295l3.0133 3.0125c.4067.4066.4067 1.0666 0 1.4733-.4066.4067-1.0666.4067-1.4733 0L4.7692 6.2417 3.4225 7.5892a.8311.8311 0 0 1-.5892.2441.823.823 0 0 1-.3191-.0633A.8347.8347 0 0 1 2 7zm20 10v4.1667a.8326.8326 0 0 1-.8333.8333H17a.8311.8311 0 0 1-.5892-.2442.8324.8324 0 0 1 0-1.1783l1.1992-1.2a.208.208 0 0 0 0-.2942L14.5967 16.07c-.4067-.4067-.4067-1.0667 0-1.4733.4066-.4067 1.0666-.4067 1.4733 0l3.0133 3.0133a.2082.2082 0 0 0 .295 0l1.1992-1.1992a.8297.8297 0 0 1 .5892-.2441c.46 0 .8333.3725.8333.8333z"/></svg>