<!--character:6821-->
  <svg width="24" height="24" viewBox="0 0 24 24" >
<path d="M9.07578 3.90213C9.39408 4.0332 9.60174 4.34383 9.60174 4.68852V8.75065C9.60174 9.22044 9.22047 9.60172 8.75068 9.60172H4.68684C4.46131 9.60172 4.24514 9.5115 4.08514 9.35236C3.75237 9.01959 3.75237 8.48171 4.08514 8.14895L5.21535 7.02469C5.2979 6.94129 5.2979 6.80682 5.21535 6.72427L2.31151 3.81617C1.89619 3.40085 1.89619 2.72681 2.31151 2.31149C2.72683 1.89617 3.40088 1.89617 3.8162 2.31149L6.71918 5.21533C6.80259 5.29788 6.93706 5.29788 7.02046 5.21533L8.14897 4.08596C8.39153 3.84085 8.75834 3.76766 9.07578 3.90213Z" />
<path d="M20.1836 2.31158C20.5998 1.89626 21.273 1.89626 21.6883 2.31158C22.1036 2.7269 22.1036 3.40009 21.6883 3.81626L18.7845 6.7201C18.7019 6.80265 18.7019 6.93712 18.7845 7.02052L19.9147 8.14903C20.0747 8.30903 20.1641 8.52606 20.1641 8.75159C20.1632 9.22223 19.7819 9.60266 19.3113 9.6018H15.25C14.7794 9.6018 14.3989 9.22053 14.3989 8.75074V4.68775C14.3989 4.46222 14.4883 4.2452 14.6475 4.08605C14.9794 3.75328 15.5189 3.75328 15.8517 4.08605L16.9751 5.21541C17.0594 5.29796 17.1938 5.29796 17.2764 5.21541L20.1836 2.31158Z" />
<path d="M3.81628 21.6883C3.40011 22.1036 2.72692 22.1036 2.3116 21.6883C1.89628 21.273 1.89628 20.5998 2.3116 20.1836L5.21544 17.2798C5.29799 17.1972 5.29799 17.0619 5.21544 16.9794L4.08522 15.8517C3.92522 15.6908 3.83586 15.4738 3.83586 15.2483C3.83671 14.7776 4.21884 14.3981 4.68863 14.3989H8.75076C9.22055 14.3989 9.60183 14.7793 9.60183 15.25V19.3138C9.60183 19.5402 9.51162 19.7555 9.35247 19.9155C9.0197 20.2483 8.48183 20.2483 8.14906 19.9155L7.0248 18.7845C6.9414 18.7019 6.80693 18.7019 6.72352 18.7845L3.81628 21.6883Z" />
<path d="M14.3985 19.3113C14.3985 19.7819 14.7789 20.1623 15.2496 20.1623C15.4751 20.1623 15.6921 20.073 15.8513 19.913L16.9789 18.7845C17.0632 18.7019 17.1977 18.7019 17.2811 18.7845L20.1841 21.6883C20.5994 22.1036 21.2726 22.1036 21.6879 21.6883C22.1041 21.273 22.1041 20.5998 21.6879 20.1836L18.7841 17.2772C18.7024 17.1947 18.7024 17.0594 18.7841 16.9768L19.9143 15.8517C20.247 15.5189 20.247 14.9793 19.9143 14.6474C19.7551 14.4883 19.539 14.3989 19.3126 14.3989H15.2496C14.7789 14.3989 14.3985 14.7793 14.3985 15.25V19.3113Z" />
</svg>