<!--character:7552-->
  <svg width="24" height="24" viewBox="0 0 24 24" >
<path d="M21.1667 2C21.6275 2 22 2.37333 22 2.83333V7C22 7.33667 21.7975 7.64083 21.4858 7.77C21.385 7.8125 21.2767 7.83333 21.1667 7.83333C20.945 7.83333 20.7333 7.745 20.5775 7.58833L19.3783 6.38917C19.2967 6.3075 19.165 6.3075 19.0833 6.38917L16.07 9.4025C15.6633 9.80917 15.0033 9.80917 14.5967 9.4025C14.19 8.99583 14.19 8.33583 14.5967 7.92917L17.61 4.91667C17.6917 4.835 17.6917 4.70333 17.61 4.62167L16.4108 3.4225C16.2542 3.26667 16.1667 3.05417 16.1667 2.83333C16.1667 2.37333 16.5392 2 17 2H21.1667Z" />
<path d="M7.58917 20.5775C7.74583 20.7334 7.83333 20.945 7.83333 21.1667C7.83333 21.6267 7.46 22 7 22H2.83333C2.37333 22 2 21.6275 2 21.1667V17C2 16.7784 2.0875 16.5659 2.24417 16.41C2.56917 16.0842 3.09667 16.0842 3.4225 16.41L4.62167 17.6092C4.70333 17.6909 4.835 17.6909 4.91667 17.6092L7.93 14.5967C8.33667 14.19 8.99667 14.19 9.40333 14.5967C9.81 15.0034 9.81 15.6634 9.40333 16.07L6.39 19.0834C6.3899 19.0836 6.38958 19.0842 6.38917 19.0842C6.30833 19.1659 6.30833 19.2967 6.39 19.3775L7.58917 20.5775Z" />
<path d="M2 7C2 7.33667 2.20333 7.64083 2.51417 7.77C2.615 7.8125 2.72417 7.83333 2.83333 7.83333C3.05417 7.83333 3.26667 7.74583 3.4225 7.58917L4.76917 6.24167L7.93 9.4025C8.33667 9.80917 8.99667 9.80917 9.40333 9.4025C9.81 8.99583 9.81 8.33583 9.40333 7.92917L6.39 4.91667C6.30833 4.835 6.30833 4.70333 6.39 4.62167L7.58917 3.42167C7.91417 3.09583 7.91333 2.56833 7.5875 2.24333C7.43167 2.0875 7.22 2 7 2H2.83333C2.37333 2 2 2.37333 2 2.83333V7Z" />
<path d="M21.1667 16.1667C21.6267 16.1667 22 16.5392 22 17V21.1667C22 21.6275 21.6275 22 21.1667 22H17C16.7792 22 16.5667 21.9125 16.4108 21.7559C16.085 21.43 16.085 20.9034 16.4108 20.5775L17.61 19.3775C17.6917 19.2959 17.6908 19.1642 17.61 19.0834L14.5967 16.07C14.19 15.6634 14.19 15.0034 14.5967 14.5967C15.0033 14.19 15.6633 14.19 16.07 14.5967L19.0833 17.61C19.1658 17.6917 19.2975 17.6917 19.3783 17.61L20.5775 16.4109C20.7333 16.2542 20.945 16.1667 21.1667 16.1667Z" />
</svg>