<!-- character:0:412 -->
  <svg width="20" height="20" viewBox="0 0 20 20" >
<path   d="M7.56315 3.25174C7.8284 3.36096 8.00145 3.61982 8.00145 3.90706V7.29217C8.00145 7.68366 7.68372 8.00139 7.29223 8.00139H3.9057C3.71776 8.00139 3.53761 7.92621 3.40428 7.79359C3.12697 7.51628 3.12697 7.06805 3.40428 6.79075L4.34613 5.85387C4.41492 5.78436 4.41492 5.67231 4.34613 5.60351L1.92626 3.1801C1.58016 2.834 1.58016 2.2723 1.92626 1.9262C2.27236 1.5801 2.83407 1.5801 3.18017 1.9262L5.59932 4.34606C5.66882 4.41486 5.78088 4.41486 5.85038 4.34606L6.79081 3.40493C6.99294 3.20067 7.29861 3.13968 7.56315 3.25174ZM16.8197 1.92627C17.1665 1.58017 17.7275 1.58017 18.0736 1.92627C18.4197 2.27237 18.4197 2.83337 18.0736 3.18018L15.6537 5.60004C15.5849 5.66883 15.5849 5.78089 15.6537 5.85039L16.5956 6.79082C16.7289 6.92415 16.8034 7.10501 16.8034 7.29295C16.8027 7.68515 16.4849 8.00217 16.0927 8.00146H12.7083C12.3161 8.00146 11.9991 7.68373 11.9991 7.29224V3.90642C11.9991 3.71847 12.0736 3.53762 12.2062 3.405C12.4828 3.12769 12.9325 3.12769 13.2098 3.405L14.1459 4.34614C14.2161 4.41493 14.3282 4.41493 14.397 4.34614L16.8197 1.92627ZM3.18024 18.0735C2.83343 18.4196 2.27243 18.4196 1.92633 18.0735C1.58023 17.7274 1.58023 17.1664 1.92633 16.8196L4.3462 14.3998C4.41499 14.331 4.41499 14.2182 4.3462 14.1494L3.40435 13.2097C3.27102 13.0757 3.19655 12.8948 3.19655 12.7069C3.19726 12.3147 3.5157 11.9983 3.90719 11.9991H7.2923C7.68379 11.9991 8.00152 12.3161 8.00152 12.7083V16.0948C8.00152 16.2835 7.92635 16.4629 7.79372 16.5962C7.51642 16.8735 7.06819 16.8735 6.79088 16.5962L5.854 15.6537C5.7845 15.5849 5.67244 15.5849 5.60294 15.6537L3.18024 18.0735ZM11.9988 16.0927C11.9988 16.4849 12.3158 16.8019 12.708 16.8019C12.8959 16.8019 13.0768 16.7274 13.2094 16.5941L14.1491 15.6537C14.2193 15.5849 14.3314 15.5849 14.4009 15.6537L16.8201 18.0735C17.1662 18.4196 17.7271 18.4196 18.0732 18.0735C18.4201 17.7274 18.4201 17.1664 18.0732 16.8196L15.6534 14.3976C15.5853 14.3289 15.5853 14.2161 15.6534 14.1473L16.5952 13.2097C16.8725 12.9324 16.8725 12.4827 16.5952 12.2062C16.4626 12.0735 16.2825 11.9991 16.0938 11.9991H12.708C12.3158 11.9991 11.9988 12.3161 11.9988 12.7083V16.0927Z" />
</svg>