<!--character:3016-->
  <svg width="20" height="20" viewBox="0 0 20 20" >
<path d="M7.56321 3.25177C7.82846 3.36099 8.00151 3.61986 8.00151 3.90709V7.29221C8.00151 7.6837 7.68378 8.00143 7.29229 8.00143H3.90576C3.71782 8.00143 3.53767 7.92625 3.40434 7.79363C3.12704 7.51632 3.12704 7.06809 3.40434 6.79079L4.34619 5.85391C4.41498 5.7844 4.41498 5.67235 4.34619 5.60355L1.92632 3.18014C1.58022 2.83404 1.58022 2.27234 1.92632 1.92624C2.27242 1.58014 2.83413 1.58014 3.18023 1.92624L5.59938 4.3461C5.66888 4.4149 5.78094 4.4149 5.85045 4.3461L6.79087 3.40497C6.993 3.20071 7.29868 3.13972 7.56321 3.25177Z" />
<path d="M16.8198 1.92631C17.1666 1.58021 17.7276 1.58021 18.0737 1.92631C18.4198 2.27241 18.4198 2.8334 18.0737 3.18021L15.6538 5.60008C15.585 5.66887 15.585 5.78093 15.6538 5.85043L16.5956 6.79086C16.729 6.92419 16.8034 7.10504 16.8034 7.29299C16.8027 7.68519 16.485 8.00221 16.0928 8.0015H12.7084C12.3162 8.0015 11.9992 7.68377 11.9992 7.29228V3.90646C11.9992 3.71851 12.0737 3.53766 12.2063 3.40504C12.4829 3.12773 12.9325 3.12773 13.2098 3.40504L14.146 4.34617C14.2162 4.41497 14.3283 4.41497 14.3971 4.34617L16.8198 1.92631Z" />
<path d="M3.1803 18.0736C2.83349 18.4197 2.27249 18.4197 1.92639 18.0736C1.58029 17.7275 1.58029 17.1665 1.92639 16.8197L4.34626 14.3998C4.41505 14.331 4.41505 14.2183 4.34626 14.1495L3.40441 13.2097C3.27108 13.0757 3.19661 12.8948 3.19661 12.7069C3.19732 12.3147 3.51576 11.9984 3.90725 11.9991H7.29236C7.68385 11.9991 8.00159 12.3161 8.00159 12.7083V16.0949C8.00159 16.2835 7.92641 16.4629 7.79378 16.5963C7.51648 16.8736 7.06825 16.8736 6.79094 16.5963L5.85406 15.6537C5.78456 15.5849 5.6725 15.5849 5.603 15.6537L3.1803 18.0736Z" />
<path d="M11.9988 16.0927C11.9988 16.4849 12.3158 16.8019 12.708 16.8019C12.896 16.8019 13.0768 16.7275 13.2095 16.5941L14.1492 15.6537C14.2194 15.5849 14.3315 15.5849 14.401 15.6537L16.8201 18.0736C17.1662 18.4197 17.7272 18.4197 18.0733 18.0736C18.4201 17.7275 18.4201 17.1665 18.0733 16.8197L15.6534 14.3977C15.5854 14.3289 15.5854 14.2161 15.6534 14.1473L16.5953 13.2097C16.8726 12.9324 16.8726 12.4828 16.5953 12.2062C16.4627 12.0736 16.2825 11.9991 16.0939 11.9991H12.708C12.3158 11.9991 11.9988 12.3161 11.9988 12.7083V16.0927Z" />
</svg>