<!--character:1598-->
  <svg width="20" height="20" viewBox="0 0 20 20" >
<path d="M7.19703 5.48609C7.19703 6.25315 6.57521 6.87497 5.80815 6.87497C5.04109 6.87497 4.41927 6.25315 4.41927 5.48609C4.41927 4.71903 5.04109 4.09721 5.80815 4.09721C6.57521 4.09721 7.19703 4.71903 7.19703 5.48609Z" />
<path d="M9.97554 6.87937C10.2573 6.88566 10.4975 7.08527 10.5553 7.36108L12.3803 11.9242C12.4232 12.0312 12.4102 12.1525 12.3456 12.2479C12.2811 12.3434 12.1734 12.4006 12.0581 12.4006H4.41927C4.2942 12.4007 4.17877 12.3334 4.11711 12.2246C4.05544 12.1158 4.05706 11.9822 4.12135 11.8749L5.84773 9.00065C5.97651 8.75363 6.22351 8.59041 6.50126 8.56881C6.779 8.5472 7.04826 8.67026 7.2137 8.8944L7.97202 9.8069C8.01019 9.85293 8.06935 9.87608 8.12862 9.86818C8.18789 9.86028 8.23892 9.82243 8.26369 9.76801L9.3748 7.33469C9.44488 7.06174 9.69381 6.87307 9.97554 6.87937Z" />
<path d="M14.8609 13.4722C14.8609 14.2392 14.2391 14.861 13.472 14.861H3.05539C2.28833 14.861 1.6665 14.2392 1.6665 13.4722V3.05555C1.6665 2.28849 2.28833 1.66666 3.05539 1.66666H13.472C14.2391 1.66666 14.8609 2.28849 14.8609 3.05555V13.4722ZM3.40261 3.05555C3.21084 3.05555 3.05539 3.211 3.05539 3.40277V13.1249C3.05539 13.3167 3.21084 13.4722 3.40261 13.4722H13.1248C13.3165 13.4722 13.472 13.3167 13.472 13.1249V3.40277C13.472 3.211 13.3165 3.05555 13.1248 3.05555H3.40261Z" />
<path d="M18.0108 7.06503C18.2468 7.3479 18.3607 7.71294 18.3275 8.07982L17.5102 17.0707C17.4769 17.4378 17.2991 17.7765 17.0159 18.0124C16.7328 18.2483 16.3675 18.3619 16.0005 18.3284L6.31926 17.4437C6.06592 17.4298 5.84033 17.2788 5.73084 17.05C5.62135 16.8211 5.64538 16.5507 5.79353 16.3448C5.94168 16.1388 6.19036 16.03 6.44217 16.061L15.7775 16.911C15.9683 16.9283 16.137 16.7879 16.1546 16.5971L16.9116 8.29996C16.92 8.20813 16.8917 8.11669 16.8326 8.04582C16.7736 7.97494 16.6888 7.93046 16.597 7.92218L16.2498 7.89163C15.8678 7.85711 15.5861 7.51946 15.6206 7.13747C15.6551 6.75547 15.9928 6.47379 16.3748 6.5083L17.0692 6.5715C17.4361 6.60463 17.7748 6.78216 18.0108 7.06503Z" />
</svg>