<!--character:172:550:1759-->
  <svg width="24" height="24" viewBox="0 0 24 24" >
<path   d="M17.8332 16.1666C17.8332 17.0871 17.0871 17.8332 16.1666 17.8332H3.66666C2.74619 17.8332 2 17.0871 2 16.1666V3.66666C2 2.74619 2.74619 2 3.66666 2H16.1666C17.0871 2 17.8332 2.74619 17.8332 3.66666V16.1666ZM4.08334 3.66665C3.85323 3.66665 3.66668 3.8532 3.66668 4.08331V15.7499C3.66668 15.98 3.85323 16.1666 4.08334 16.1666H15.7499C15.9801 16.1666 16.1666 15.98 16.1666 15.7499V4.08331C16.1666 3.8532 15.9801 3.66665 15.7499 3.66665H4.08334ZM8.63661 6.5833C8.63661 7.50377 7.89042 8.24996 6.96995 8.24996C6.04948 8.24996 5.30329 7.50377 5.30329 6.5833C5.30329 5.66283 6.04948 4.91664 6.96995 4.91664C7.89042 4.91664 8.63661 5.66283 8.63661 6.5833ZM11.9708 8.25523C12.3089 8.26278 12.5972 8.50231 12.6666 8.83328L14.8566 14.3091C14.908 14.4375 14.8924 14.583 14.8149 14.6975C14.7375 14.8121 14.6082 14.8807 14.4699 14.8807H5.30329C5.15321 14.8808 5.0147 14.8001 4.9407 14.6695C4.86671 14.5389 4.86865 14.3787 4.94579 14.2499L7.01745 10.8008C7.17199 10.5043 7.46839 10.3085 7.80168 10.2826C8.13497 10.2566 8.45809 10.4043 8.65661 10.6733L9.5666 11.7683C9.6124 11.8235 9.68339 11.8513 9.75452 11.8418C9.82564 11.8323 9.88688 11.7869 9.9166 11.7216L11.2499 8.80162C11.334 8.47407 11.6327 8.24767 11.9708 8.25523ZM21.6131 8.47804C21.8963 8.81748 22.033 9.25552 21.9932 9.69579L21.0124 20.4849C20.9725 20.9253 20.7591 21.3318 20.4193 21.6149C20.0795 21.8979 19.6412 22.0343 19.2008 21.9941L7.58332 20.9324C7.27932 20.9157 7.00861 20.7346 6.87722 20.4599C6.74582 20.1853 6.77467 19.8609 6.95245 19.6137C7.13023 19.3666 7.42864 19.236 7.73082 19.2732L18.9333 20.2932C19.1622 20.314 19.3646 20.1454 19.3858 19.9166L20.2941 9.95995C20.3043 9.84975 20.2702 9.74002 20.1994 9.65498C20.1286 9.56993 20.0268 9.51655 19.9166 9.50662L19.4999 9.46995C19.0415 9.42853 18.7035 9.02335 18.7449 8.56496C18.7863 8.10657 19.1915 7.76854 19.6499 7.80996L20.4832 7.8858C20.9235 7.92555 21.33 8.13859 21.6131 8.47804Z" />
</svg>