<!--description:Use when you need to display number of photos in gallery-->
<!--category:navigation-->
<!--character:E064-->
<!--added:0.11-->
<svg width="24" height="24" viewBox="0 0 24 24" xmlns="http://www.w3.org/2000/svg"><path d="M12.6666 8.8333l2.19 5.4758a.4167.4167 0 0 1-.3867.5717H5.3033a.4167.4167 0 0 1-.3575-.6309l2.0717-3.4491a.9692.9692 0 0 1 1.6391-.1275l.91 1.095a.2083.2083 0 0 0 .35-.0467l1.3333-2.92a.7275.7275 0 0 1 1.4167.0317zM6.97 8.25c-.9205 0-1.6667-.7462-1.6667-1.6667 0-.9205.7462-1.6666 1.6667-1.6666.9204 0 1.6666.7461 1.6666 1.6666 0 .9205-.7462 1.6667-1.6666 1.6667zm9.1966 9.5832h-12.5C2.7463 17.8332 2 17.0871 2 16.1666v-12.5C2 2.7463 2.7462 2 3.6667 2h12.4999c.9205 0 1.6666.7462 1.6666 1.6667v12.4999c0 .9205-.7461 1.6666-1.6666 1.6666zm-12.5-13.7499V15.75c0 .2301.1866.4167.4167.4167H15.75a.4167.4167 0 0 0 .4167-.4167V4.0833a.4167.4167 0 0 0-.4167-.4166H4.0833a.4167.4167 0 0 0-.4166.4166zm18.3266 5.6125l-.9808 10.7891a1.6667 1.6667 0 0 1-1.8117 1.5092L7.5833 20.9324a.8333.8333 0 1 1 .1475-1.6592l11.2024 1.02a.4167.4167 0 0 0 .4525-.3766l.9084-9.9566a.4167.4167 0 0 0-.3775-.4534l-.4167-.0366a.8334.8334 0 0 1 .15-1.66l.8333.0758a1.6667 1.6667 0 0 1 1.51 1.81z"/></svg>