<!-- character:0:652 -->
  <svg width="20" height="20" viewBox="0 0 20 20" >
<path   d="M14.8611 13.4721C14.8611 14.2392 14.2392 14.861 13.4722 14.861H3.05557C2.28851 14.861 1.66669 14.2392 1.66669 13.4721V3.05551C1.66669 2.28845 2.28851 1.66663 3.05557 1.66663H13.4722C14.2392 1.66663 14.8611 2.28845 14.8611 3.05551V13.4721ZM3.40279 3.05551C3.21102 3.05551 3.05557 3.21096 3.05557 3.40273V13.1249C3.05557 13.3167 3.21102 13.4721 3.40279 13.4721H13.125C13.3167 13.4721 13.4722 13.3167 13.4722 13.1249V3.40273C13.4722 3.21096 13.3167 3.05551 13.125 3.05551H3.40279ZM7.19721 5.48605C7.19721 6.25311 6.57539 6.87493 5.80833 6.87493C5.04127 6.87493 4.41945 6.25311 4.41945 5.48605C4.41945 4.71899 5.04127 4.09717 5.80833 4.09717C6.57539 4.09717 7.19721 4.71899 7.19721 5.48605ZM9.97573 6.87933C10.2575 6.88562 10.4977 7.08523 10.5555 7.36104L12.3805 11.9242C12.4234 12.0312 12.4104 12.1525 12.3458 12.2479C12.2813 12.3434 12.1735 12.4006 12.0583 12.4006H4.41945C4.29438 12.4006 4.17896 12.3334 4.11729 12.2246C4.05563 12.1158 4.05725 11.9822 4.12153 11.8749L5.84791 9.00061C5.9767 8.75359 6.2237 8.59037 6.50144 8.56877C6.77918 8.54716 7.04845 8.67022 7.21388 8.89436L7.97221 9.80686C8.01037 9.85289 8.06954 9.87604 8.1288 9.86814C8.18807 9.86024 8.2391 9.82239 8.26387 9.76797L9.37498 7.33465C9.44506 7.0617 9.69399 6.87303 9.97573 6.87933ZM18.011 7.06499C18.2469 7.34786 18.3609 7.7129 18.3277 8.07978L17.5103 17.0707C17.4771 17.4377 17.2993 17.7765 17.0161 18.0124C16.7329 18.2482 16.3676 18.3619 16.0006 18.3283L6.31944 17.4436C6.06611 17.4297 5.84052 17.2788 5.73102 17.0499C5.62153 16.8211 5.64557 16.5507 5.79372 16.3447C5.94186 16.1388 6.19055 16.03 6.44236 16.061L15.7777 16.911C15.9685 16.9283 16.1372 16.7878 16.1548 16.5971L16.9117 8.29992C16.9202 8.20809 16.8918 8.11665 16.8328 8.04578C16.7738 7.97491 16.689 7.93042 16.5972 7.92215L16.2499 7.89159C15.8679 7.85707 15.5863 7.51942 15.6208 7.13743C15.6553 6.75543 15.9929 6.47375 16.3749 6.50827L17.0694 6.57146C17.4363 6.60459 17.775 6.78212 18.011 7.06499Z" />
</svg>