<!--character:3024:2731-->
<svg width="24" height="24" viewBox="0 0 24 24">
  <path d="M8.63644 6.58331C8.63644 7.50377 7.89025 8.24996 6.96978 8.24996C6.04931 8.24996 5.30312 7.50377 5.30312 6.58331C5.30312 5.66284 6.04931 4.91665 6.96978 4.91665C7.89025 4.91665 8.63644 5.66284 8.63644 6.58331Z" />
  <path d="M11.9707 8.25524C12.3087 8.2628 12.597 8.50232 12.6664 8.83329L14.8564 14.3091C14.9078 14.4375 14.8922 14.583 14.8148 14.6975C14.7373 14.8121 14.608 14.8807 14.4697 14.8808H5.30312C5.15303 14.8808 5.01453 14.8001 4.94053 14.6695C4.86653 14.539 4.86848 14.3787 4.94562 14.2499L7.01728 10.8008C7.17182 10.5044 7.46822 10.3085 7.80151 10.2826C8.1348 10.2566 8.45792 10.4043 8.65643 10.6733L9.56643 11.7683C9.61223 11.8235 9.68322 11.8513 9.75435 11.8418C9.82547 11.8323 9.88671 11.7869 9.91643 11.7216L11.2498 8.80163C11.3339 8.47408 11.6326 8.24768 11.9707 8.25524Z" />
  <path d="M17.8331 16.1666C17.8331 17.0871 17.0869 17.8332 16.1664 17.8332H3.66646C2.74599 17.8332 1.9998 17.0871 1.9998 16.1666V3.66665C1.9998 2.74618 2.74599 2 3.66646 2H16.1664C17.0869 2 17.8331 2.74618 17.8331 3.66665V16.1666ZM4.08313 3.66665C3.85301 3.66665 3.66646 3.8532 3.66646 4.08332V15.7499C3.66646 15.98 3.85301 16.1666 4.08313 16.1666H15.7497C15.9798 16.1666 16.1664 15.98 16.1664 15.7499V4.08332C16.1664 3.8532 15.9798 3.66665 15.7497 3.66665H4.08313Z" />
  <path d="M21.6129 8.47804C21.8961 8.81748 22.0328 9.25553 21.993 9.69579L21.0122 20.4849C20.9722 20.9253 20.7589 21.3318 20.4191 21.6149C20.0793 21.8979 19.6409 22.0343 19.2005 21.9941L7.58311 20.9324C7.27911 20.9157 7.0084 20.7346 6.87701 20.4599C6.74562 20.1853 6.77446 19.8609 6.95224 19.6137C7.13002 19.3666 7.42844 19.236 7.73061 19.2732L18.933 20.2932C19.1619 20.314 19.3644 20.1454 19.3855 19.9166L20.2939 9.95995C20.3041 9.84975 20.27 9.74002 20.1992 9.65498C20.1283 9.56993 20.0266 9.51656 19.9164 9.50662L19.4997 9.46996C19.0413 9.42853 18.7033 9.02335 18.7447 8.56496C18.7861 8.10657 19.1913 7.76854 19.6497 7.80996L20.483 7.8858C20.9233 7.92555 21.3297 8.13859 21.6129 8.47804Z" />
</svg>
