<!--character:2686-->
  <svg width="20" height="20" viewBox="0 0 20 20" >
<path d="M3.69817 5.29833C3.37317 6.71333 3.269 7.80083 3.38484 8.55916C3.36567 8.59833 3.33067 8.62999 3.28734 8.64416C2.43067 8.94749 1.814 9.70333 1.689 10.6033C1.679 10.6758 1.6715 10.7483 1.6665 10.8192V11.23C1.74234 12.2442 2.39317 12.9942 3.54817 13.3058C3.60567 13.3217 3.66817 13.3483 3.67984 13.4058C4.01734 15.2692 5.36234 16.9225 7.49567 17.8742C10.8173 19.3525 14.7198 17.645 16.1032 14.2758C16.1257 14.2208 16.3548 13.35 16.4123 13.3425C17.2873 13.2225 17.849 12.6367 18.1682 11.815C18.2773 11.5333 18.3307 11.245 18.3332 10.96V10.9142C18.324 9.94916 17.7365 9.04166 16.7815 8.67083C16.7148 8.63249 16.6623 8.57499 16.6298 8.50666C16.8173 7.78583 16.9932 6.66749 16.7357 5.60416C16.584 4.40416 15.7148 3.21083 14.4098 3.29999C14.1815 3.31499 13.9365 3.37166 13.6757 3.47666C13.104 2.20499 11.4732 1.58333 9.68567 1.58333C7.13317 1.58333 4.26234 2.85 3.69817 5.29833ZM8.85067 7.87334C9.304 7.83167 9.729 7.76167 10.1265 7.66084C10.6982 7.55167 11.2415 7.32917 11.754 6.99501C12.2782 6.67584 12.7257 6.27251 13.0957 5.78751C14.4148 6.01667 14.4882 8.39417 14.9182 9.51251C15.0748 9.92334 15.4757 9.94084 15.769 9.88751C15.8073 9.89501 15.8482 9.89917 15.8882 9.89917C16.4632 9.89501 16.9332 10.3583 16.9365 10.9333C16.9407 11.5083 16.4782 11.9792 15.9023 11.9825C15.6148 11.9742 15.414 12.0617 15.3023 12.2475C15.1748 12.4567 15.0723 12.9742 14.979 13.3058C14.0398 16.6525 9.54817 18.36 6.46484 15.5925C5.21234 14.3975 4.94484 13.2092 4.94484 12.52C4.88317 12.1925 4.69067 11.9767 4.35734 11.9767H4.0965C3.52234 11.9725 3.059 11.5033 3.06317 10.9283C3.06734 10.3525 3.53567 9.88917 4.11567 9.89501C4.13984 9.89417 4.16317 9.89167 4.18734 9.88917C4.309 9.91251 4.48567 9.90084 4.75484 9.81167C5.3115 9.62417 5.28484 8.25501 5.409 7.72501C5.43984 7.59751 5.474 7.47834 5.5115 7.36917C6.12234 7.73501 6.93484 7.91667 7.94817 7.91667C8.23317 7.91667 8.534 7.90167 8.85067 7.87334ZM11.7365 10.3808C11.7365 10.86 12.1248 11.2475 12.604 11.2475C13.0832 11.2475 13.4715 10.86 13.4715 10.3808C13.4715 9.90083 13.0832 9.51249 12.604 9.51249C12.1248 9.51249 11.7365 9.90083 11.7365 10.3808ZM6.52734 10.3808C6.52734 10.86 6.91567 11.2475 7.39567 11.2475C7.87567 11.2475 8.264 10.86 8.264 10.3808C8.264 9.90083 7.87567 9.51249 7.39567 9.51249C6.91567 9.51249 6.52734 9.90083 6.52734 10.3808ZM11.4065 13.2667C11.0115 13.3942 10.5432 13.4567 9.99984 13.4567C9.4565 13.4567 8.98734 13.3942 8.59401 13.2667C8.25984 13.1583 7.899 13.325 7.76484 13.6492C7.75817 13.665 7.75317 13.6792 7.74817 13.695C7.62817 14.0525 7.8215 14.4392 8.179 14.5592C8.77567 14.7575 9.37484 14.8583 9.97567 14.8583H10.0232C10.6257 14.8583 11.2248 14.7575 11.8198 14.5592C12.179 14.4392 12.3715 14.0525 12.2523 13.695C12.2473 13.6792 12.2407 13.665 12.2348 13.6492C12.1282 13.3917 11.879 13.2333 11.6132 13.2333C11.5448 13.2333 11.4757 13.2442 11.4065 13.2667Z" />
</svg>