<!--character:4414-->
  <svg width="24" height="24" viewBox="0 0 24 24" >
<path d="M4.438 6.35802C4.048 8.05602 3.923 9.36102 4.062 10.271C4.039 10.318 3.997 10.356 3.945 10.373C2.917 10.737 2.177 11.644 2.027 12.724C2.015 12.811 2.006 12.898 2 12.983V13.476C2.091 14.693 2.872 15.593 4.258 15.967C4.327 15.986 4.402 16.018 4.416 16.087C4.821 18.323 6.435 20.307 8.995 21.449C12.981 23.223 17.664 21.174 19.324 17.131C19.351 17.065 19.626 16.02 19.695 16.011C20.745 15.867 21.419 15.164 21.802 14.178C21.933 13.84 21.997 13.494 22 13.152V13.097C21.989 11.939 21.284 10.85 20.138 10.405C20.058 10.359 19.995 10.29 19.956 10.208C20.181 9.34302 20.392 8.00102 20.083 6.72502C19.901 5.28502 18.858 3.85302 17.292 3.96002C17.018 3.97802 16.724 4.04602 16.411 4.17202C15.725 2.64602 13.768 1.90002 11.623 1.90002C8.56 1.90002 5.115 3.42002 4.438 6.35802ZM10.621 9.44804C11.165 9.39804 11.675 9.31404 12.152 9.19304C12.838 9.06204 13.49 8.79504 14.105 8.39404C14.734 8.01104 15.271 7.52704 15.715 6.94504C17.298 7.22004 17.386 10.073 17.902 11.415C18.09 11.908 18.571 11.929 18.923 11.865C18.969 11.874 19.018 11.879 19.066 11.879C19.756 11.874 20.32 12.43 20.324 13.12C20.329 13.81 19.774 14.375 19.083 14.379C18.738 14.369 18.497 14.474 18.363 14.697C18.21 14.948 18.087 15.569 17.975 15.967C16.848 19.983 11.458 22.032 7.758 18.711C6.255 17.277 5.934 15.851 5.934 15.024C5.86 14.631 5.629 14.372 5.229 14.372H4.916C4.227 14.367 3.671 13.804 3.676 13.114C3.681 12.423 4.243 11.867 4.939 11.874C4.968 11.873 4.996 11.87 5.025 11.867C5.171 11.895 5.383 11.881 5.706 11.774C6.374 11.549 6.342 9.90604 6.491 9.27004C6.528 9.11704 6.569 8.97404 6.614 8.84304C7.347 9.28204 8.322 9.50004 9.538 9.50004C9.88 9.50004 10.241 9.48204 10.621 9.44804ZM14.084 12.457C14.084 13.032 14.55 13.497 15.125 13.497C15.7 13.497 16.166 13.032 16.166 12.457C16.166 11.881 15.7 11.415 15.125 11.415C14.55 11.415 14.084 11.881 14.084 12.457ZM7.833 12.457C7.833 13.032 8.299 13.497 8.875 13.497C9.451 13.497 9.917 13.032 9.917 12.457C9.917 11.881 9.451 11.415 8.875 11.415C8.299 11.415 7.833 11.881 7.833 12.457ZM13.688 15.92C13.214 16.073 12.652 16.148 12 16.148C11.348 16.148 10.785 16.073 10.313 15.92C9.912 15.79 9.479 15.99 9.318 16.379C9.31 16.398 9.304 16.415 9.298 16.434C9.154 16.863 9.386 17.327 9.815 17.471C10.531 17.709 11.25 17.83 11.971 17.83H12.028C12.751 17.83 13.47 17.709 14.184 17.471C14.615 17.327 14.846 16.863 14.703 16.434C14.697 16.415 14.689 16.398 14.682 16.379C14.554 16.07 14.255 15.88 13.936 15.88C13.854 15.88 13.771 15.893 13.688 15.92Z" />
</svg>