<!--character:$550:1776-->
  <svg width="24" height="24" viewBox="0 0 24 24" >
<path d="M8.05634 12.4578C8.05634 11.9005 8.50723 11.4496 9.06455 11.4496C9.62188 11.4496 10.0728 11.9005 10.0728 12.4578C10.0728 13.0142 9.62188 13.4641 9.06455 13.4641C8.50723 13.4641 8.05634 13.0142 8.05634 12.4578Z" />
<path d="M15.1119 11.4496C15.6683 11.4496 16.1192 11.9005 16.1192 12.4578C16.1192 13.0142 15.6683 13.4641 15.1119 13.4641C14.5556 13.4641 14.1047 13.0142 14.1047 12.4578C14.1047 11.9005 14.5556 11.4496 15.1119 11.4496Z" />
<path d="M13.9616 15.7702C13.8822 15.7702 13.8019 15.7828 13.7216 15.8089C13.263 15.957 12.7192 16.0295 12.0883 16.0295C11.4575 16.0295 10.9127 15.957 10.456 15.8089C10.068 15.6831 9.64907 15.8767 9.49329 16.253C9.48555 16.2714 9.47974 16.2879 9.47394 16.3063C9.33461 16.7213 9.55908 17.1703 9.97418 17.3096C10.667 17.5399 11.3627 17.657 12.0603 17.657H12.1154C12.815 17.657 13.5107 17.5399 14.2015 17.3096C14.6186 17.1703 14.8421 16.7213 14.7037 16.3063C14.7002 16.2951 14.6959 16.2846 14.6916 16.274C14.6888 16.2671 14.686 16.2602 14.6834 16.253C14.5595 15.9541 14.2702 15.7702 13.9616 15.7702Z" />
<path d="M16.5943 4.38287C18.5381 3.8449 20.0166 4.74765 21.0209 7.12499C21.2764 7.8456 21.5298 9.03499 21.4281 10.5184C21.3817 11.1946 21.3028 11.9596 21.2262 12.7024C21.1348 13.5893 21.0466 14.4446 21.0209 15.0792C20.957 16.6601 21.2536 17.331 21.5369 17.9719C21.7044 18.3509 21.8673 18.7194 21.9483 19.2593C22.1665 20.7124 21.7302 21.6967 19.9428 21.6967C18.7157 21.6967 17.9569 21.1084 17.381 20.662C17.118 20.4581 16.8932 20.2838 16.6794 20.2086C14.5798 21.8022 11.7341 22.2957 9.18066 21.1588C8.52464 20.8656 7.93829 20.5134 7.4158 20.1176C7.10292 20.2613 6.89946 20.4151 6.66847 20.5898C6.34729 20.8326 5.97289 21.1156 5.17711 21.4676C3.80905 22.0727 2.3399 21.5581 2.03279 19.9993C1.91094 19.3809 2.14589 18.7864 2.45371 18.0075C2.92173 16.8232 3.55824 15.2127 3.36533 12.4434C3.04555 7.85279 4.38727 5.92519 6.11731 4.23483C6.15924 4.19344 6.20863 4.15802 6.25802 4.12261C6.29754 4.09427 6.33705 4.06594 6.37275 4.03454C6.48305 3.94166 6.59819 3.85264 6.71624 3.76652C6.95717 3.58849 7.21551 3.424 7.49417 3.27596C7.65673 3.18791 7.82315 3.10567 7.99441 3.02923C8.0213 3.01748 8.04809 3.00566 8.07488 2.99384C8.19365 2.94145 8.31239 2.88907 8.4395 2.84249C9.30548 2.51254 10.2431 2.31709 11.1642 2.26C11.1843 2.25809 11.2029 2.25476 11.2217 2.25142C11.2409 2.24799 11.2602 2.24455 11.2813 2.24259C13.4999 2.09938 15.0674 2.63639 15.9847 3.84974C16.1298 4.03261 16.2595 4.22612 16.3562 4.44189C16.4375 4.409 16.5169 4.39255 16.5943 4.38287ZM7.76413 18.2783C7.77284 18.2872 7.78154 18.2962 7.79025 18.3054C7.90733 18.4225 8.03602 18.5415 8.17728 18.6672C10.4405 20.6208 13.4158 20.4486 15.5135 19.0301C15.6547 18.9324 15.7931 18.8346 15.9199 18.733C15.9421 18.7151 15.9639 18.6961 15.9855 18.6772C15.9929 18.6706 16.0004 18.6641 16.0079 18.6576C16.1482 18.5424 16.2817 18.4254 16.4046 18.3044C16.5585 18.1535 16.7055 17.9957 16.841 17.8284C16.8468 17.8206 16.8526 17.8138 16.8584 17.8061C17.3161 17.2352 17.6663 16.5773 17.8695 15.8545C17.8908 15.78 17.9121 15.6939 17.9334 15.6079C18.1917 14.5087 18.1259 13.4065 17.9943 12.4573C17.7147 10.4351 16.8903 8.13708 16.7723 7.9426C16.5565 7.58266 16.305 7.34463 16.0224 7.21982C16.0057 7.2144 15.9891 7.20891 15.9725 7.20342C15.8825 7.17362 15.7923 7.14378 15.6828 7.12499C15.4544 7.78198 14.8129 8.34317 13.7573 8.80665C13.6548 8.8516 13.546 8.88839 13.4369 8.92529C13.3698 8.94795 13.3027 8.97066 13.2368 8.99532C13.2184 9.00258 13.2 9.00887 13.1816 9.01516C13.1632 9.02145 13.1448 9.02774 13.1265 9.03499C11.798 9.50621 10.276 9.72585 8.67849 9.56426C5.40614 9.23335 6.01861 14.5773 6.43951 15.9435C6.64754 16.6179 6.84686 17.1085 7.1681 17.5739C7.25905 17.7006 7.35484 17.8284 7.46418 17.957C7.54739 18.0538 7.64028 18.1515 7.738 18.2512C7.74671 18.2604 7.75542 18.2693 7.76413 18.2783Z" />
</svg>