<!--character:3623-->
  <svg width="24" height="24" viewBox="0 0 24 24" >
<path d="M8.05614 12.4578C8.05614 11.9005 8.50703 11.4496 9.06436 11.4496C9.62169 11.4496 10.0726 11.9005 10.0726 12.4578C10.0726 13.0142 9.62169 13.4641 9.06436 13.4641C8.50703 13.4641 8.05614 13.0142 8.05614 12.4578Z" />
<path d="M15.1117 11.4496C15.6681 11.4496 16.119 11.9005 16.119 12.4578C16.119 13.0142 15.6681 13.4641 15.1117 13.4641C14.5554 13.4641 14.1045 13.0142 14.1045 12.4578C14.1045 11.9005 14.5554 11.4496 15.1117 11.4496Z" />
<path d="M13.9614 15.7702C13.882 15.7702 13.8017 15.7828 13.7214 15.8089C13.2628 15.957 12.719 16.0296 12.0881 16.0296C11.4573 16.0296 10.9125 15.957 10.4558 15.8089C10.0678 15.6832 9.64887 15.8767 9.49309 16.2531C9.48535 16.2715 9.47955 16.2879 9.47374 16.3063C9.33441 16.7214 9.55889 17.1703 9.97398 17.3097C10.6668 17.5399 11.3625 17.657 12.0601 17.657H12.1152C12.8148 17.657 13.5105 17.5399 14.2013 17.3097C14.6184 17.1703 14.8419 16.7214 14.7035 16.3063C14.7 16.2951 14.6957 16.2846 14.6914 16.274C14.6886 16.2672 14.6858 16.2603 14.6832 16.2531C14.5593 15.9541 14.27 15.7702 13.9614 15.7702Z" />
<path d="M16.5941 4.3829C18.5379 3.84493 20.0164 4.74768 21.0207 7.12502C21.2762 7.84562 21.5296 9.03502 21.4279 10.5185C21.3815 11.1946 21.3026 11.9596 21.226 12.7024C21.1346 13.5893 21.0464 14.4446 21.0207 15.0792C20.9568 16.6601 21.2534 17.331 21.5367 17.972C21.7042 18.3509 21.8671 18.7194 21.9481 19.2593C22.1663 20.7125 21.73 21.6968 19.9426 21.6968C18.7155 21.6968 17.9567 21.1085 17.3808 20.662C17.1179 20.4581 16.893 20.2839 16.6792 20.2086C14.5796 21.8022 11.7339 22.2957 9.18047 21.1588C8.52445 20.8656 7.9381 20.5134 7.4156 20.1177C7.10273 20.2614 6.89926 20.4152 6.66828 20.5898C6.34709 20.8326 5.9727 21.1156 5.17692 21.4676C3.80885 22.0727 2.3397 21.5581 2.03259 19.9994C1.91075 19.3809 2.14569 18.7864 2.45351 18.0075C2.92154 16.8233 3.55804 15.2127 3.36514 12.4434C3.04535 7.85281 4.38708 5.92522 6.11711 4.23486C6.15904 4.19347 6.20844 4.15805 6.25783 4.12263C6.29734 4.0943 6.33686 4.06596 6.37255 4.03457C6.48286 3.94168 6.598 3.85267 6.71604 3.76655C6.95697 3.58852 7.21532 3.42403 7.49398 3.27599C7.65653 3.18794 7.82295 3.10569 7.99422 3.02926C8.02111 3.0175 8.0479 3.00568 8.07468 2.99387C8.19346 2.94147 8.31219 2.88909 8.4393 2.84251C9.30529 2.51257 10.2429 2.31712 11.164 2.26003C11.1841 2.25812 11.2027 2.25479 11.2215 2.25145C11.2407 2.24802 11.26 2.24457 11.2811 2.24261C13.4997 2.09941 15.0672 2.63642 15.9845 3.84976C16.1296 4.03264 16.2593 4.22615 16.356 4.44192C16.4373 4.40902 16.5167 4.39258 16.5941 4.3829ZM7.76393 18.2783C7.77264 18.2873 7.78135 18.2962 7.79006 18.3054C7.90713 18.4225 8.03582 18.5415 8.17709 18.6673C10.4403 20.6208 13.4156 20.4486 15.5133 19.0301C15.6545 18.9324 15.7929 18.8347 15.9197 18.7331C15.9419 18.7151 15.9637 18.6961 15.9853 18.6772C15.9928 18.6706 16.0002 18.6641 16.0077 18.6576C16.148 18.5425 16.2815 18.4254 16.4044 18.3044C16.5583 18.1535 16.7053 17.9958 16.8408 17.8284C16.8466 17.8206 16.8524 17.8139 16.8582 17.8061C17.3159 17.2353 17.6661 16.5773 17.8693 15.8545C17.8906 15.7801 17.9119 15.694 17.9332 15.6079C18.1915 14.5087 18.1257 13.4065 17.9942 12.4574C17.7145 10.4351 16.8901 8.13711 16.7721 7.94262C16.5563 7.58269 16.3048 7.34466 16.0222 7.21984C16.0055 7.21442 15.9889 7.20894 15.9723 7.20345C15.8823 7.17364 15.7921 7.14381 15.6826 7.12502C15.4543 7.78201 14.8128 8.3432 13.7571 8.80667C13.6546 8.85163 13.5458 8.88842 13.4367 8.92531C13.3696 8.94798 13.3025 8.97068 13.2366 8.99535C13.2182 9.00261 13.1998 9.0089 13.1814 9.01519C13.163 9.02148 13.1446 9.02777 13.1263 9.03502C11.7978 9.50623 10.2758 9.72587 8.6783 9.56429C5.40594 9.23338 6.01842 14.5773 6.43932 15.9435C6.64735 16.6179 6.84667 17.1085 7.1679 17.5739C7.25886 17.7007 7.35465 17.8284 7.46398 17.9571C7.54719 18.0538 7.64008 18.1516 7.73781 18.2512C7.74652 18.2604 7.75522 18.2694 7.76393 18.2783Z" />
</svg>