<!-- character:0:708 -->
  <svg width="20" height="20" viewBox="0 0 20 20" >
<path d="M6.71363 10.3815C6.71363 9.91707 7.08938 9.54132 7.55382 9.54132C8.01825 9.54132 8.394 9.91707 8.394 10.3815C8.394 10.8451 8.01825 11.2201 7.55382 11.2201C7.08938 11.2201 6.71363 10.8451 6.71363 10.3815Z" />
<path d="M12.5933 9.54132C13.0569 9.54132 13.4327 9.91707 13.4327 10.3815C13.4327 10.8451 13.0569 11.2201 12.5933 11.2201C12.1297 11.2201 11.7539 10.8451 11.7539 10.3815C11.7539 9.91707 12.1297 9.54132 12.5933 9.54132Z" />
<path d="M11.6347 13.1418C11.5685 13.1418 11.5016 13.1523 11.4347 13.1741C11.0525 13.2975 10.5994 13.3579 10.0736 13.3579C9.54792 13.3579 9.09396 13.2975 8.71338 13.1741C8.39005 13.0693 8.04091 13.2305 7.91109 13.5442C7.90464 13.5595 7.89981 13.5732 7.89497 13.5885C7.77886 13.9345 7.96592 14.3086 8.31183 14.4247C8.88916 14.6166 9.4689 14.7142 10.0503 14.7142H10.0962C10.6792 14.7142 11.2589 14.6166 11.8346 14.4247C12.1822 14.3086 12.3684 13.9345 12.2531 13.5885C12.2502 13.5792 12.2466 13.5705 12.243 13.5617C12.2407 13.556 12.2384 13.5502 12.2362 13.5442C12.133 13.295 11.8919 13.1418 11.6347 13.1418Z" />
<path   d="M13.8286 3.65239C15.4485 3.20408 16.6805 3.95637 17.5175 5.93749C17.7304 6.538 17.9415 7.52916 17.8567 8.76537C17.8181 9.32883 17.7524 9.96633 17.6886 10.5853C17.6123 11.3244 17.5388 12.0372 17.5175 12.566C17.4642 13.8834 17.7113 14.4425 17.9474 14.9766C18.087 15.2924 18.2227 15.5995 18.2903 16.0494C18.4721 17.2604 18.1085 18.0806 16.619 18.0806C15.5965 18.0806 14.9641 17.5904 14.4842 17.2183C14.2651 17.0484 14.0777 16.9032 13.8995 16.8405C12.1498 18.1685 9.77844 18.5797 7.65057 17.6323C7.10389 17.388 6.61526 17.0945 6.17985 16.7647C5.91912 16.8845 5.74957 17.0126 5.55708 17.1581C5.28943 17.3605 4.97743 17.5963 4.31428 17.8896C3.17423 18.3939 1.94994 17.9651 1.69401 16.6661C1.59247 16.1507 1.78826 15.6553 2.04478 15.0063C2.4348 14.0194 2.96522 12.6772 2.80446 10.3695C2.53798 6.54399 3.65608 4.93766 5.09778 3.52903C5.13272 3.49453 5.17388 3.46502 5.21504 3.4355C5.24797 3.41189 5.2809 3.38828 5.31064 3.36212C5.40256 3.28471 5.49852 3.21053 5.59689 3.13877C5.79766 2.99041 6.01295 2.85333 6.24516 2.72997C6.38063 2.65659 6.51931 2.58806 6.66203 2.52436C6.68444 2.51456 6.70676 2.50471 6.72909 2.49487C6.82806 2.4512 6.92701 2.40756 7.03294 2.36874C7.75459 2.09378 8.53591 1.93091 9.30352 1.88334C9.32024 1.88174 9.33579 1.87897 9.35141 1.87618C9.36743 1.87333 9.38354 1.87045 9.40109 1.86882C11.25 1.74949 12.5562 2.19699 13.3206 3.20811C13.4415 3.36051 13.5496 3.52177 13.6302 3.70158C13.6979 3.67416 13.7641 3.66046 13.8286 3.65239ZM6.47013 15.2319C6.47738 15.2394 6.48464 15.2468 6.4919 15.2545C6.58946 15.352 6.6967 15.4512 6.81442 15.556C8.7004 17.184 11.1798 17.0405 12.9279 15.8584C13.0456 15.777 13.1609 15.6955 13.2666 15.6109C13.2851 15.5959 13.3032 15.5801 13.3212 15.5643C13.3275 15.5588 13.3337 15.5534 13.3399 15.548C13.4569 15.452 13.5681 15.3545 13.6705 15.2537C13.7987 15.1279 13.9213 14.9965 14.0342 14.857C14.039 14.8505 14.0439 14.8449 14.0487 14.8384C14.4301 14.3627 14.722 13.8144 14.8913 13.2121C14.909 13.15 14.9268 13.0783 14.9445 13.0066C15.1598 12.0906 15.105 11.1721 14.9953 10.3811C14.7623 8.6959 14.0753 6.7809 13.9769 6.61883C13.7971 6.31888 13.5875 6.12053 13.352 6.01651C13.3381 6.012 13.3243 6.00742 13.3105 6.00285C13.2354 5.97801 13.1603 5.95315 13.069 5.93749C12.8787 6.48498 12.3441 6.95265 11.4645 7.33887C11.379 7.37634 11.2884 7.40699 11.1974 7.43774C11.1415 7.45663 11.0856 7.47555 11.0307 7.4961C11.0153 7.50215 11 7.50739 10.9847 7.51263C10.9694 7.51787 10.9541 7.52312 10.9387 7.52916C9.83166 7.92184 8.56332 8.10487 7.2321 7.97022C4.50513 7.69446 5.01553 12.1477 5.36628 13.2863C5.53964 13.8483 5.70574 14.2571 5.97344 14.6449C6.04923 14.7505 6.12906 14.857 6.22017 14.9642C6.28951 15.0448 6.36692 15.1263 6.44836 15.2093C6.45561 15.217 6.46287 15.2244 6.47013 15.2319Z" />
</svg>