<!--category:basic-->
<!--character:E152-->
<!--added:0.21-->
<svg width="24" height="24" viewBox="0 0 24 24" xmlns="http://www.w3.org/2000/svg"><path d="M4.438 6.358c-.39 1.698-.515 3.003-.376 3.913a.2005.2005 0 0 1-.117.102 2.921 2.921 0 0 0-1.918 2.351c-.012.087-.021.174-.027.259v.493c.091 1.217.872 2.117 2.258 2.491.069.019.144.051.158.12.405 2.236 2.019 4.22 4.579 5.362 3.986 1.774 8.669-.275 10.329-4.318.027-.066.302-1.111.371-1.12 1.05-.144 1.724-.847 2.107-1.833.131-.338.195-.684.198-1.026v-.055c-.011-1.158-.716-2.247-1.862-2.692a.4498.4498 0 0 1-.182-.197c.225-.865.436-2.207.127-3.483-.182-1.44-1.225-2.872-2.791-2.765-.274.018-.568.086-.881.212-.686-1.526-2.643-2.272-4.788-2.272-3.063 0-6.508 1.52-7.185 4.458zm6.183 3.09c.544-.05 1.054-.134 1.531-.255.686-.131 1.338-.398 1.953-.799a5.8075 5.8075 0 0 0 1.61-1.449c1.583.275 1.671 3.128 2.187 4.47.188.493.669.514 1.021.45.046.009.095.014.143.014.69-.005 1.254.551 1.258 1.241.005.69-.55 1.255-1.241 1.259-.345-.01-.586.095-.72.318-.153.251-.276.872-.388 1.27-1.127 4.016-6.517 6.065-10.217 2.744-1.503-1.434-1.824-2.86-1.824-3.687-.074-.393-.305-.652-.705-.652h-.313c-.689-.005-1.245-.568-1.24-1.258.005-.691.567-1.247 1.263-1.24.029-.001.057-.004.086-.007.146.028.358.014.681-.093.668-.225.636-1.868.785-2.504.037-.153.078-.296.123-.427.733.439 1.708.657 2.924.657.342 0 .703-.018 1.083-.052zm3.463 3.009c0 .575.466 1.04 1.041 1.04s1.041-.465 1.041-1.04c0-.576-.466-1.042-1.041-1.042s-1.041.466-1.041 1.042zm-6.251 0c0 .575.466 1.04 1.042 1.04.576 0 1.042-.465 1.042-1.04 0-.576-.466-1.042-1.042-1.042-.576 0-1.042.466-1.042 1.042zm5.855 3.463c-.474.153-1.036.228-1.688.228-.652 0-1.215-.075-1.687-.228a.8072.8072 0 0 0-.995.459.6077.6077 0 0 0-.02.055c-.144.429.088.893.517 1.037.716.238 1.435.359 2.156.359h.057c.723 0 1.442-.121 2.156-.359a.8196.8196 0 0 0 .519-1.037c-.006-.019-.014-.036-.021-.055a.8076.8076 0 0 0-.746-.499c-.082 0-.165.013-.248.04z"/></svg>