<!--character:7062-->
  <svg width="24" height="24" viewBox="0 0 24 24" >
<path d="M4.43799 6.35799C4.04799 8.05599 3.92299 9.36099 4.06199 10.271C4.03899 10.318 3.99699 10.356 3.94499 10.373C2.91699 10.737 2.17699 11.644 2.02699 12.724C2.01499 12.811 2.00599 12.898 1.99999 12.983V13.476C2.09099 14.693 2.87199 15.593 4.25799 15.967C4.32699 15.986 4.40199 16.018 4.41599 16.087C4.82099 18.323 6.43499 20.307 8.99499 21.449C12.981 23.223 17.664 21.174 19.324 17.131C19.351 17.065 19.626 16.02 19.695 16.011C20.745 15.867 21.419 15.164 21.802 14.178C21.933 13.84 21.997 13.494 22 13.152V13.097C21.989 11.939 21.284 10.85 20.138 10.405C20.058 10.359 19.995 10.29 19.956 10.208C20.181 9.34299 20.392 8.00099 20.083 6.72499C19.901 5.28499 18.858 3.85299 17.292 3.95999C17.018 3.97799 16.724 4.04599 16.411 4.17199C15.725 2.64599 13.768 1.89999 11.623 1.89999C8.55999 1.89999 5.11499 3.41999 4.43799 6.35799ZM10.621 9.44801C11.165 9.39801 11.675 9.31401 12.152 9.19301C12.838 9.06201 13.49 8.79501 14.105 8.39401C14.734 8.01101 15.271 7.52701 15.715 6.94501C17.298 7.22001 17.386 10.073 17.902 11.415C18.09 11.908 18.571 11.929 18.923 11.865C18.969 11.874 19.018 11.879 19.066 11.879C19.756 11.874 20.32 12.43 20.324 13.12C20.329 13.81 19.774 14.375 19.083 14.379C18.738 14.369 18.497 14.474 18.363 14.697C18.21 14.948 18.087 15.569 17.975 15.967C16.848 19.983 11.458 22.032 7.75799 18.711C6.25499 17.277 5.93399 15.851 5.93399 15.024C5.85999 14.631 5.62899 14.372 5.22899 14.372H4.91599C4.22699 14.367 3.67099 13.804 3.67599 13.114C3.68099 12.423 4.24299 11.867 4.93899 11.874C4.96799 11.873 4.99599 11.87 5.02499 11.867C5.17099 11.895 5.38299 11.881 5.70599 11.774C6.37399 11.549 6.34199 9.90601 6.49099 9.27001C6.52799 9.11701 6.56899 8.97401 6.61399 8.84301C7.34699 9.28201 8.32199 9.50001 9.53799 9.50001C9.87999 9.50001 10.241 9.48201 10.621 9.44801ZM14.084 12.457C14.084 13.032 14.55 13.497 15.125 13.497C15.7 13.497 16.166 13.032 16.166 12.457C16.166 11.881 15.7 11.415 15.125 11.415C14.55 11.415 14.084 11.881 14.084 12.457ZM7.83299 12.457C7.83299 13.032 8.29899 13.497 8.87499 13.497C9.45099 13.497 9.91699 13.032 9.91699 12.457C9.91699 11.881 9.45099 11.415 8.87499 11.415C8.29899 11.415 7.83299 11.881 7.83299 12.457ZM13.688 15.92C13.214 16.073 12.652 16.148 12 16.148C11.348 16.148 10.785 16.073 10.313 15.92C9.91199 15.79 9.47899 15.99 9.31799 16.379C9.30999 16.398 9.30399 16.415 9.29799 16.434C9.15399 16.863 9.38599 17.327 9.81499 17.471C10.531 17.709 11.25 17.83 11.971 17.83H12.028C12.751 17.83 13.47 17.709 14.184 17.471C14.615 17.327 14.846 16.863 14.703 16.434C14.697 16.415 14.689 16.398 14.682 16.379C14.554 16.07 14.255 15.88 13.936 15.88C13.854 15.88 13.771 15.893 13.688 15.92Z" />
</svg>