<!--character:2346-->
  <svg width="20" height="20" viewBox="0 0 20 20" >
<path d="M6.71345 10.3815C6.71345 9.91709 7.08919 9.54135 7.55363 9.54135C8.01807 9.54135 8.39381 9.91709 8.39381 10.3815C8.39381 10.8452 8.01807 11.2201 7.55363 11.2201C7.08919 11.2201 6.71345 10.8452 6.71345 10.3815Z" />
<path d="M12.5931 9.54135C13.0567 9.54135 13.4325 9.91709 13.4325 10.3815C13.4325 10.8452 13.0567 11.2201 12.5931 11.2201C12.1295 11.2201 11.7537 10.8452 11.7537 10.3815C11.7537 9.91709 12.1295 9.54135 12.5931 9.54135Z" />
<path d="M11.6345 13.1419C11.5684 13.1419 11.5014 13.1524 11.4345 13.1741C11.0523 13.2975 10.5992 13.358 10.0735 13.358C9.54773 13.358 9.09378 13.2975 8.7132 13.1741C8.38986 13.0693 8.04073 13.2306 7.91091 13.5442C7.90446 13.5595 7.89962 13.5733 7.89479 13.5886C7.77868 13.9345 7.96574 14.3086 8.31165 14.4247C8.88897 14.6166 9.46872 14.7142 10.0501 14.7142H10.096C10.679 14.7142 11.2587 14.6166 11.8344 14.4247C12.182 14.3086 12.3682 13.9345 12.2529 13.5886C12.25 13.5793 12.2464 13.5705 12.2429 13.5617C12.2405 13.556 12.2382 13.5502 12.236 13.5442C12.1328 13.2951 11.8917 13.1419 11.6345 13.1419Z" />
<path d="M13.8284 3.65242C15.4483 3.2041 16.6803 3.9564 17.5173 5.93752C17.7302 6.53802 17.9413 7.52919 17.8566 8.7654C17.8179 9.32885 17.7522 9.96635 17.6884 10.5854C17.6122 11.3245 17.5387 12.0372 17.5173 12.566C17.464 13.8834 17.7111 14.4425 17.9472 14.9766C18.0868 15.2924 18.2226 15.5995 18.2901 16.0494C18.4719 17.2604 18.1083 18.0806 16.6188 18.0806C15.5963 18.0806 14.9639 17.5904 14.484 17.2183C14.2649 17.0484 14.0775 16.9032 13.8993 16.8405C12.1496 18.1685 9.77826 18.5798 7.65039 17.6323C7.10371 17.388 6.61508 17.0945 6.17967 16.7647C5.91894 16.8845 5.74939 17.0126 5.5569 17.1582C5.28925 17.3605 4.97725 17.5963 4.3141 17.8897C3.17404 18.3939 1.94975 17.9651 1.69383 16.6661C1.59229 16.1508 1.78808 15.6554 2.04459 15.0063C2.43462 14.0194 2.96504 12.6773 2.80428 10.3695C2.53779 6.54401 3.6559 4.93768 5.09759 3.52905C5.13253 3.49456 5.1737 3.46504 5.21486 3.43553C5.24779 3.41192 5.28072 3.3883 5.31046 3.36214C5.40238 3.28474 5.49833 3.21055 5.5967 3.13879C5.79748 2.99043 6.01276 2.85336 6.24498 2.72999C6.38044 2.65662 6.51913 2.58808 6.66185 2.52438C6.68425 2.51459 6.70658 2.50474 6.7289 2.49489C6.82788 2.45123 6.92683 2.40758 7.03275 2.36876C7.75441 2.09381 8.53573 1.93093 9.30334 1.88336C9.32006 1.88177 9.3356 1.87899 9.35123 1.87621C9.36725 1.87335 9.38335 1.87048 9.4009 1.86884C11.2498 1.74951 12.556 2.19702 13.3204 3.20814C13.4414 3.36053 13.5494 3.52179 13.63 3.7016C13.6978 3.67419 13.7639 3.66048 13.8284 3.65242ZM6.46994 15.2319C6.4772 15.2394 6.48446 15.2468 6.49171 15.2545C6.58928 15.3521 6.69652 15.4512 6.81424 15.5561C8.70021 17.184 11.1796 17.0405 12.9277 15.8584C13.0455 15.777 13.1608 15.6956 13.2664 15.6109C13.2849 15.5959 13.3031 15.5801 13.321 15.5643C13.3273 15.5589 13.3335 15.5534 13.3398 15.548C13.4567 15.452 13.5679 15.3545 13.6703 15.2537C13.7986 15.1279 13.9211 14.9965 14.034 14.857C14.0388 14.8505 14.0437 14.8449 14.0485 14.8384C14.4299 14.3627 14.7218 13.8144 14.8911 13.2121C14.9088 13.15 14.9266 13.0783 14.9443 13.0066C15.1596 12.0906 15.1048 11.1721 14.9951 10.3811C14.7621 8.69593 14.0751 6.78092 13.9767 6.61885C13.7969 6.3189 13.5873 6.12055 13.3519 6.01654C13.3379 6.01202 13.3241 6.00745 13.3103 6.00287C13.2352 5.97804 13.1601 5.95318 13.0688 5.93752C12.8785 6.48501 12.344 6.95267 11.4643 7.33889C11.3789 7.37636 11.2882 7.40701 11.1972 7.43776C11.1414 7.45665 11.0854 7.47557 11.0305 7.49613C11.0151 7.50217 10.9998 7.50741 10.9845 7.51266C10.9692 7.5179 10.9539 7.52314 10.9385 7.52919C9.83148 7.92186 8.56314 8.1049 7.23191 7.97024C4.50495 7.69448 5.01535 12.1478 5.3661 13.2863C5.53945 13.8483 5.70556 14.2571 5.97325 14.6449C6.04905 14.7506 6.12887 14.857 6.21999 14.9642C6.28933 15.0449 6.36673 15.1263 6.44817 15.2093C6.45543 15.217 6.46269 15.2245 6.46994 15.2319Z" />
</svg>