<!--character:6236-->
  <svg width="24" height="24" viewBox="0 0 24 24" >
<path d="M4.4378 6.35799C4.0478 8.05599 3.9228 9.36099 4.0618 10.271C4.0388 10.318 3.9968 10.356 3.9448 10.373C2.9168 10.737 2.1768 11.644 2.0268 12.724C2.0148 12.811 2.0058 12.898 1.9998 12.983V13.476C2.0908 14.693 2.8718 15.593 4.2578 15.967C4.3268 15.986 4.4018 16.018 4.4158 16.087C4.8208 18.323 6.4348 20.307 8.9948 21.449C12.9808 23.223 17.6638 21.174 19.3238 17.131C19.3508 17.065 19.6258 16.02 19.6948 16.011C20.7448 15.867 21.4188 15.164 21.8018 14.178C21.9328 13.84 21.9968 13.494 21.9998 13.152V13.097C21.9888 11.939 21.2838 10.85 20.1378 10.405C20.0578 10.359 19.9948 10.29 19.9558 10.208C20.1808 9.34299 20.3918 8.00099 20.0828 6.72499C19.9008 5.28499 18.8578 3.85299 17.2918 3.95999C17.0178 3.97799 16.7238 4.04599 16.4108 4.17199C15.7248 2.64599 13.7678 1.89999 11.6228 1.89999C8.5598 1.89999 5.1148 3.41999 4.4378 6.35799ZM10.6208 9.44801C11.1648 9.39801 11.6748 9.31401 12.1518 9.19301C12.8378 9.06201 13.4898 8.79501 14.1048 8.39401C14.7338 8.01101 15.2708 7.52701 15.7148 6.94501C17.2978 7.22001 17.3858 10.073 17.9018 11.415C18.0898 11.908 18.5708 11.929 18.9228 11.865C18.9688 11.874 19.0178 11.879 19.0658 11.879C19.7558 11.874 20.3198 12.43 20.3238 13.12C20.3288 13.81 19.7738 14.375 19.0828 14.379C18.7378 14.369 18.4968 14.474 18.3628 14.697C18.2098 14.948 18.0868 15.569 17.9748 15.967C16.8478 19.983 11.4578 22.032 7.75781 18.711C6.2548 17.277 5.9338 15.851 5.9338 15.024C5.8598 14.631 5.6288 14.372 5.2288 14.372H4.9158C4.2268 14.367 3.6708 13.804 3.6758 13.114C3.6808 12.423 4.2428 11.867 4.9388 11.874C4.9678 11.873 4.9958 11.87 5.0248 11.867C5.1708 11.895 5.3828 11.881 5.7058 11.774C6.3738 11.549 6.3418 9.90601 6.4908 9.27001C6.5278 9.11701 6.5688 8.97401 6.6138 8.84301C7.3468 9.28201 8.3218 9.50001 9.5378 9.50001C9.8798 9.50001 10.2408 9.48201 10.6208 9.44801ZM14.0838 12.457C14.0838 13.032 14.5498 13.497 15.1248 13.497C15.6998 13.497 16.1658 13.032 16.1658 12.457C16.1658 11.881 15.6998 11.415 15.1248 11.415C14.5498 11.415 14.0838 11.881 14.0838 12.457ZM7.83281 12.457C7.83281 13.032 8.29881 13.497 8.87481 13.497C9.45081 13.497 9.91681 13.032 9.91681 12.457C9.91681 11.881 9.45081 11.415 8.87481 11.415C8.29881 11.415 7.83281 11.881 7.83281 12.457ZM13.6878 15.92C13.2138 16.073 12.6518 16.148 11.9998 16.148C11.3478 16.148 10.7848 16.073 10.3128 15.92C9.91181 15.79 9.47881 15.99 9.31781 16.379C9.30981 16.398 9.30381 16.415 9.29781 16.434C9.15381 16.863 9.38581 17.327 9.81481 17.471C10.5308 17.709 11.2498 17.83 11.9708 17.83H12.0278C12.7508 17.83 13.4698 17.709 14.1838 17.471C14.6148 17.327 14.8458 16.863 14.7028 16.434C14.6968 16.415 14.6888 16.398 14.6818 16.379C14.5538 16.07 14.2548 15.88 13.9358 15.88C13.8538 15.88 13.7708 15.893 13.6878 15.92Z" />
</svg>