<!-- character:0:724 -->
  <svg width="20" height="20" viewBox="0 0 20 20" >
<path   d="M3.69835 5.29831C3.37335 6.71331 3.26919 7.80081 3.38502 8.55915C3.36585 8.59831 3.33085 8.62998 3.28752 8.64415C2.43085 8.94748 1.81419 9.70331 1.68919 10.6033C1.67919 10.6758 1.67169 10.7483 1.66669 10.8191V11.23C1.74252 12.2441 2.39335 12.9941 3.54835 13.3058C3.60585 13.3216 3.66835 13.3483 3.68002 13.4058C4.01752 15.2691 5.36252 16.9225 7.49585 17.8741C10.8175 19.3525 14.72 17.645 16.1034 14.2758C16.1259 14.2208 16.355 13.35 16.4125 13.3425C17.2875 13.2225 17.8492 12.6366 18.1684 11.815C18.2775 11.5333 18.3309 11.245 18.3334 10.96V10.9141C18.3242 9.94915 17.7367 9.04165 16.7817 8.67081C16.715 8.63248 16.6625 8.57498 16.63 8.50665C16.8175 7.78581 16.9934 6.66748 16.7359 5.60415C16.5842 4.40415 15.715 3.21081 14.41 3.29998C14.1817 3.31498 13.9367 3.37165 13.6759 3.47665C13.1042 2.20498 11.4734 1.58331 9.68585 1.58331C7.13335 1.58331 4.26252 2.84998 3.69835 5.29831ZM8.85085 7.87332C9.30419 7.83166 9.72919 7.76166 10.1267 7.66082C10.6984 7.55166 11.2417 7.32916 11.7542 6.99499C12.2784 6.67582 12.7259 6.27249 13.0959 5.78749C14.415 6.01666 14.4884 8.39416 14.9184 9.51249C15.075 9.92332 15.4759 9.94082 15.7692 9.88749C15.8075 9.89499 15.8484 9.89916 15.8884 9.89916C16.4634 9.89499 16.9334 10.3583 16.9367 10.9333C16.9409 11.5083 16.4784 11.9792 15.9025 11.9825C15.615 11.9742 15.4142 12.0617 15.3025 12.2475C15.175 12.4567 15.0725 12.9742 14.9792 13.3058C14.04 16.6525 9.54835 18.36 6.46502 15.5925C5.21252 14.3975 4.94502 13.2092 4.94502 12.52C4.88335 12.1925 4.69085 11.9767 4.35752 11.9767H4.09669C3.52252 11.9725 3.05919 11.5033 3.06335 10.9283C3.06752 10.3525 3.53585 9.88916 4.11585 9.89499C4.14002 9.89416 4.16335 9.89166 4.18752 9.88916C4.30919 9.91249 4.48585 9.90082 4.75502 9.81166C5.31169 9.62416 5.28502 8.25499 5.40919 7.72499C5.44002 7.59749 5.47419 7.47832 5.51169 7.36916C6.12252 7.73499 6.93502 7.91666 7.94835 7.91666C8.23335 7.91666 8.53419 7.90166 8.85085 7.87332ZM11.7367 10.3808C11.7367 10.86 12.125 11.2475 12.6042 11.2475C13.0834 11.2475 13.4717 10.86 13.4717 10.3808C13.4717 9.90081 13.0834 9.51248 12.6042 9.51248C12.125 9.51248 11.7367 9.90081 11.7367 10.3808ZM6.52752 10.3808C6.52752 10.86 6.91585 11.2475 7.39585 11.2475C7.87585 11.2475 8.26419 10.86 8.26419 10.3808C8.26419 9.90081 7.87585 9.51248 7.39585 9.51248C6.91585 9.51248 6.52752 9.90081 6.52752 10.3808ZM11.4067 13.2667C11.0117 13.3942 10.5434 13.4567 10 13.4567C9.45669 13.4567 8.98752 13.3942 8.59419 13.2667C8.26002 13.1583 7.89919 13.325 7.76502 13.6492C7.75835 13.665 7.75335 13.6792 7.74835 13.695C7.62835 14.0525 7.82169 14.4392 8.17919 14.5592C8.77585 14.7575 9.37502 14.8583 9.97585 14.8583H10.0234C10.6259 14.8583 11.225 14.7575 11.82 14.5592C12.1792 14.4392 12.3717 14.0525 12.2525 13.695C12.2475 13.6792 12.2409 13.665 12.235 13.6492C12.1284 13.3917 11.8792 13.2333 11.6134 13.2333C11.545 13.2333 11.4759 13.2442 11.4067 13.2667Z" />
</svg>