<!-- character:438:297 -->
  <svg width="20" height="20" viewBox="0 0 20 20" >
<path   d="M10.1989 1.70345C5.59726 1.70345 1.86633 5.5288 1.86633 10.2479C1.86633 14.0229 4.25386 17.2252 7.5653 18.3555C7.98224 18.4337 8.13417 18.1698 8.13417 17.9432C8.13417 17.7408 8.12701 17.2031 8.12292 16.4903C5.80496 17.0064 5.3159 15.3447 5.3159 15.3447C4.93682 14.3581 4.39045 14.0953 4.39045 14.0953C3.63383 13.565 4.44775 13.5755 4.44775 13.5755C5.28418 13.6364 5.72414 14.4562 5.72414 14.4562C6.46746 15.7617 7.67478 15.3846 8.14952 15.1664C8.22523 14.6141 8.4401 14.2375 8.67849 14.024C6.82812 13.8084 4.88259 13.0751 4.88259 9.80104C4.88259 8.86844 5.20744 8.10578 5.74051 7.50835C5.65456 7.29225 5.36859 6.42364 5.82185 5.24713C5.82185 5.24713 6.52168 5.01739 8.11371 6.12309C8.77825 5.93373 9.49139 5.83879 10.1999 5.83565C10.9074 5.83879 11.6206 5.93373 12.2861 6.12309C13.8771 5.01739 14.5754 5.24713 14.5754 5.24713C15.0302 6.42364 14.7443 7.29225 14.6583 7.50835C15.1924 8.10578 15.5152 8.86844 15.5152 9.80104C15.5152 13.0835 13.5666 13.8058 11.7101 14.0172C12.0094 14.281 12.2759 14.8024 12.2759 15.5997C12.2759 16.7415 12.2657 17.6631 12.2657 17.9432C12.2657 18.1719 12.4156 18.4379 12.8386 18.3545C16.1475 17.222 18.533 14.0219 18.533 10.2479C18.533 5.5288 14.8016 1.70345 10.1989 1.70345Z" />
</svg>