<!--character:38:550:12-->
  <svg width="24" height="24" viewBox="0 0 24 24" >
<path   d="M12.2387 2.04419C6.71674 2.04419 2.23962 6.63461 2.23962 12.2976C2.23962 16.8276 5.10466 20.6702 9.07838 22.0266C9.57871 22.1204 9.76103 21.8038 9.76103 21.5319C9.76103 21.289 9.75244 20.6438 9.74753 19.7884C6.96598 20.4078 6.3791 18.4137 6.3791 18.4137C5.92421 17.2298 5.26857 16.9144 5.26857 16.9144C4.36062 16.2781 5.33732 16.2907 5.33732 16.2907C6.34104 16.3637 6.86899 17.3475 6.86899 17.3475C7.76097 18.9141 9.20976 18.4616 9.77945 18.1997C9.87031 17.5369 10.1281 17.085 10.4142 16.8288C8.19377 16.5701 5.85913 15.6902 5.85913 11.7613C5.85913 10.6422 6.24895 9.72699 6.88863 9.01007C6.7855 8.75075 6.44233 7.70842 6.98624 6.29661C6.98624 6.29661 7.82604 6.02092 9.73648 7.34775C10.5339 7.12053 11.3897 7.0066 12.2399 7.00283C13.0889 7.0066 13.9447 7.12053 14.7434 7.34775C16.6526 6.02092 17.4906 6.29661 17.4906 6.29661C18.0363 7.70842 17.6931 8.75075 17.59 9.01007C18.2309 9.72699 18.6183 10.6422 18.6183 11.7613C18.6183 15.7003 16.28 16.567 14.0521 16.8206C14.4113 17.1372 14.7311 17.7629 14.7311 18.7196C14.7311 20.0899 14.7188 21.1958 14.7188 21.5319C14.7188 21.8063 14.8987 22.1255 15.4064 22.0254C19.377 20.6665 22.2396 16.8263 22.2396 12.2976C22.2396 6.63461 17.7619 2.04419 12.2387 2.04419Z" />
</svg>