<!--character:6405-->
  <svg width="24" height="24" viewBox="0 0 24 24" >
<path d="M12.2387 2.04419C6.71671 2.04419 2.23959 6.63461 2.23959 12.2976C2.23959 16.8276 5.10463 20.6702 9.07835 22.0266C9.57868 22.1204 9.761 21.8038 9.761 21.5319C9.761 21.289 9.75241 20.6438 9.7475 19.7884C6.96595 20.4078 6.37907 18.4137 6.37907 18.4137C5.92418 17.2298 5.26854 16.9144 5.26854 16.9144C4.36059 16.2781 5.33729 16.2907 5.33729 16.2907C6.34101 16.3637 6.86896 17.3475 6.86896 17.3475C7.76094 18.9141 9.20973 18.4616 9.77942 18.1997C9.87028 17.5369 10.1281 17.085 10.4142 16.8288C8.19374 16.5701 5.8591 15.6902 5.8591 11.7613C5.8591 10.6422 6.24892 9.72699 6.8886 9.01007C6.78547 8.75075 6.4423 7.70842 6.98621 6.29661C6.98621 6.29661 7.82601 6.02092 9.73645 7.34775C10.5339 7.12053 11.3897 7.0066 12.2399 7.00283C13.0889 7.0066 13.9447 7.12053 14.7434 7.34775C16.6526 6.02092 17.4905 6.29661 17.4905 6.29661C18.0363 7.70842 17.6931 8.75075 17.59 9.01007C18.2309 9.72699 18.6182 10.6422 18.6182 11.7613C18.6182 15.7003 16.2799 16.567 14.0521 16.8206C14.4112 17.1372 14.7311 17.7629 14.7311 18.7196C14.7311 20.0899 14.7188 21.1958 14.7188 21.5319C14.7188 21.8063 14.8987 22.1255 15.4064 22.0254C19.377 20.6665 22.2396 16.8263 22.2396 12.2976C22.2396 6.63461 17.7619 2.04419 12.2387 2.04419Z" />
</svg>