<!--character:8955-->
  <svg width="24" height="24" viewBox="0 0 24 24" >
<path d="M12.2387 2.0441C6.71672 2.0441 2.2396 6.63452 2.2396 12.2975C2.2396 16.8275 5.10464 20.6701 9.07836 22.0266C9.57868 22.1203 9.76101 21.8037 9.76101 21.5318C9.76101 21.2889 9.75241 20.6437 9.7475 19.7883C6.96596 20.4077 6.37908 18.4136 6.37908 18.4136C5.92418 17.2297 5.26854 16.9143 5.26854 16.9143C4.3606 16.278 5.3373 16.2906 5.3373 16.2906C6.34102 16.3636 6.86896 17.3474 6.86896 17.3474C7.76095 18.914 9.20973 18.4615 9.77943 18.1996C9.87028 17.5368 10.1281 17.0849 10.4142 16.8287C8.19374 16.57 5.85911 15.6901 5.85911 11.7612C5.85911 10.6421 6.24893 9.7269 6.88861 9.00998C6.78547 8.75066 6.44231 7.70832 6.98622 6.29652C6.98622 6.29652 7.82602 6.02083 9.73645 7.34766C10.5339 7.12044 11.3897 7.00651 12.2399 7.00273C13.0889 7.00651 13.9447 7.12044 14.7434 7.34766C16.6526 6.02083 17.4905 6.29652 17.4905 6.29652C18.0363 7.70832 17.6931 8.75066 17.59 9.00998C18.2309 9.7269 18.6182 10.6421 18.6182 11.7612C18.6182 15.7002 16.2799 16.5669 14.0521 16.8206C14.4112 17.1372 14.7311 17.7628 14.7311 18.7195C14.7311 20.0898 14.7188 21.1957 14.7188 21.5318C14.7188 21.8063 14.8987 22.1254 15.4064 22.0253C19.377 20.6664 22.2396 16.8262 22.2396 12.2975C22.2396 6.63452 17.7619 2.0441 12.2387 2.0441Z" />
</svg>