<!--character:6170-->
<!--customColor:true-->
<svg width="24" height="24" viewBox="0 0 24 24" fill="none" xmlns="http://www.w3.org/2000/svg">
<path d="M21.4632 10.3915H20.7058V10.3529H12.2353V14.1176H17.5551C16.7775 16.3088 14.693 17.8823 12.2353 17.8823C9.11577 17.8823 6.58819 15.3548 6.58819 12.2353C6.58819 9.1158 9.11577 6.58823 12.2353 6.58823C13.6746 6.58823 14.9853 7.13051 15.9816 8.01838L18.6433 5.35661C16.9632 3.79044 14.715 2.82352 12.2353 2.82352C7.03672 2.82352 2.82349 7.03676 2.82349 12.2353C2.82349 17.4338 7.03672 21.6471 12.2353 21.6471C17.4338 21.6471 21.647 17.4338 21.647 12.2353C21.647 11.6048 21.5827 10.989 21.4632 10.3915Z" fill="#FFC107"/>
<path d="M3.90806 7.85477L7.00181 10.1232C7.8382 8.05147 9.86394 6.58823 12.2353 6.58823C13.6746 6.58823 14.9853 7.13051 15.9816 8.01838L18.6434 5.35661C16.9632 3.79044 14.715 2.82352 12.2353 2.82352C8.61945 2.82352 5.48526 4.86396 3.90806 7.85477Z" fill="#FF3D00"/>
<path d="M12.2353 21.647C14.6655 21.647 16.875 20.7169 18.546 19.204L15.6324 16.7389C14.6875 17.454 13.5129 17.8823 12.2353 17.8823C9.78679 17.8823 7.70958 16.3217 6.92649 14.1434L3.85664 16.5073C5.41363 19.5551 8.57723 21.647 12.2353 21.647Z" fill="#4CAF50"/>
<path d="M21.4632 10.3915H20.7058V10.3529H12.2353V14.1176H17.5551C17.1819 15.1709 16.5036 16.0772 15.6305 16.739C15.6323 16.739 15.6323 16.739 15.6323 16.739L18.5459 19.204C18.34 19.3897 21.647 16.9412 21.647 12.2353C21.647 11.6048 21.5827 10.989 21.4632 10.3915Z" fill="#1976D2"/>
</svg>