<!--character:1038-->
  <svg width="24" height="24" viewBox="0 0 24 24" >
<path   d="M6.23153 20.1647L13.2682 12.8141L15.7484 15.4048L7.38348 20.2634C7.06542 20.4482 6.67587 20.4454 6.35982 20.2557L6.23153 20.1647ZM12.5585 12.0728L5.85 19.0804V5.0652L12.5585 12.0728ZM16.7507 9.17694L20.0282 11.0802C20.3502 11.2678 20.55 11.6192 20.55 12C20.55 12.3808 20.3502 12.7322 20.0282 12.9198L16.6612 14.8749L13.9784 12.0728L16.7507 9.17694ZM6.15736 3.90321C6.2175 3.84231 6.28499 3.78911 6.35982 3.74431C6.67587 3.55462 7.06542 3.55182 7.38348 3.73661L15.838 8.64705L13.2682 11.3315L6.15736 3.90321Z" />
</svg>