<!--character:9:550:26-->
<!--customColor:true-->
<svg width="24" height="24" viewBox="0 0 24 24" fill="none" xmlns="http://www.w3.org/2000/svg">
<path d="M21.4632 10.3916H20.7058V10.353H12.2353V14.1177H17.5551C16.7775 16.3088 14.693 17.8824 12.2353 17.8824C9.11577 17.8824 6.58819 15.3548 6.58819 12.2353C6.58819 9.11583 9.11577 6.58825 12.2353 6.58825C13.6746 6.58825 14.9853 7.13053 15.9816 8.0184L18.6433 5.35664C16.9632 3.79046 14.715 2.82355 12.2353 2.82355C7.03672 2.82355 2.82349 7.03678 2.82349 12.2353C2.82349 17.4338 7.03672 21.6471 12.2353 21.6471C17.4338 21.6471 21.647 17.4338 21.647 12.2353C21.647 11.6048 21.5827 10.989 21.4632 10.3916Z" fill="#FFC107"/>
<path d="M3.90796 7.8548L7.00171 10.1232C7.83811 8.05149 9.86384 6.58825 12.2352 6.58825C13.6745 6.58825 14.9852 7.13053 15.9815 8.0184L18.6433 5.35664C16.9631 3.79046 14.7149 2.82355 12.2352 2.82355C8.61936 2.82355 5.48516 4.86399 3.90796 7.8548Z" fill="#FF3D00"/>
<path d="M12.2354 21.647C14.6655 21.647 16.8751 20.7169 18.546 19.204L15.6324 16.739C14.6876 17.454 13.5129 17.8823 12.2354 17.8823C9.78684 17.8823 7.70963 16.3217 6.92654 14.1434L3.85669 16.5073C5.41367 19.5551 8.57728 21.647 12.2354 21.647Z" fill="#4CAF50"/>
<path d="M21.4633 10.3915H20.7059V10.3529H12.2354V14.1176H17.5552C17.182 15.1709 16.5037 16.0772 15.6306 16.7389C15.6324 16.7389 15.6324 16.7389 15.6324 16.7389L18.546 19.204C18.3401 19.3897 21.6471 16.9411 21.6471 12.2353C21.6471 11.6047 21.5828 10.9889 21.4633 10.3915Z" fill="#1976D2"/>
</svg>