<!-- character:0:2521 -->
  <svg width="20" height="20" viewBox="0 0 20 20" >
<path d="M17.886 8.65958H17.2549V8.62742H10.1961V11.7647H14.6293C13.9813 13.5907 12.2442 14.9019 10.1961 14.9019C7.5965 14.9019 5.49019 12.7956 5.49019 10.196C5.49019 7.59647 7.5965 5.49016 10.1961 5.49016C11.3955 5.49016 12.4877 5.94206 13.318 6.68195L15.5361 4.46381C14.136 3.15867 12.2626 2.35291 10.1961 2.35291C5.86397 2.35291 2.35294 5.86394 2.35294 10.196C2.35294 14.5282 5.86397 18.0392 10.1961 18.0392C14.5282 18.0392 18.0392 14.5282 18.0392 10.196C18.0392 9.67061 17.9856 9.15744 17.886 8.65958Z" />
<path d="M3.25673 6.54561L5.83485 8.43593C6.53185 6.70952 8.21996 5.49016 10.1961 5.49016C11.3955 5.49016 12.4877 5.94206 13.318 6.68195L15.5361 4.46381C14.136 3.15867 12.2625 2.35291 10.1961 2.35291C7.18289 2.35291 4.57107 4.05327 3.25673 6.54561Z" />
<path d="M10.1961 18.0392C12.2212 18.0392 14.0625 17.2641 15.455 16.0034L13.0269 13.9491C12.2396 14.545 11.2607 14.9019 10.1961 14.9019C8.15563 14.9019 6.42462 13.6014 5.77205 11.7861L3.21384 13.7561C4.51132 16.2959 7.14766 18.0392 10.1961 18.0392Z" />
<path d="M17.886 8.65961H17.2549V8.62744H10.1961V11.7647H14.6293C14.3183 12.6425 13.7531 13.3977 13.0254 13.9491C13.027 13.9491 13.027 13.9491 13.027 13.9491L15.455 16.0034C15.2834 16.1581 18.0392 14.1176 18.0392 10.1961C18.0392 9.67064 17.9856 9.15747 17.886 8.65961Z" />
</svg>