<!--character:9744-->
  <svg width="20" height="20" viewBox="0 0 20 20" >
<path   d="M5.19294 16.8039L11.0568 10.6784L13.1237 12.8373L6.1529 16.8862C5.88785 17.0402 5.56323 17.0378 5.29985 16.8797L5.19294 16.8039ZM10.4655 10.0607L4.875 15.9003V4.221L10.4655 10.0607ZM13.9589 7.64745L16.6901 9.23351C16.9585 9.38984 17.125 9.68267 17.125 10C17.125 10.3173 16.9585 10.6102 16.6901 10.7665L13.8843 12.3957L11.6487 10.0607L13.9589 7.64745ZM5.13114 3.25268C5.18125 3.20193 5.23749 3.15759 5.29985 3.12026C5.56323 2.96218 5.88785 2.95985 6.1529 3.11384L13.1983 7.20587L11.0568 9.44292L5.13114 3.25268Z" />
</svg>