<!--character:41:550:26-->
  <svg width="24" height="24" viewBox="0 0 24 24" >
<path d="M21.4632 10.3915H20.7059V10.3529H12.2353V14.1176H17.5551C16.7776 16.3088 14.693 17.8823 12.2353 17.8823C9.1158 17.8823 6.58822 15.3547 6.58822 12.2353C6.58822 9.11577 9.1158 6.58819 12.2353 6.58819C13.6746 6.58819 14.9853 7.13047 15.9816 8.01834L18.6434 5.35657C16.9632 3.7904 14.7151 2.82349 12.2353 2.82349C7.03675 2.82349 2.82352 7.03672 2.82352 12.2353C2.82352 17.4338 7.03675 21.647 12.2353 21.647C17.4338 21.647 21.647 17.4338 21.647 12.2353C21.647 11.6047 21.5827 10.9889 21.4632 10.3915Z" />
<path d="M3.90808 7.85474L7.00183 10.1231C7.83823 8.05143 9.86396 6.58819 12.2353 6.58819C13.6746 6.58819 14.9853 7.13047 15.9816 8.01834L18.6434 5.35657C16.9632 3.7904 14.7151 2.82349 12.2353 2.82349C8.61948 2.82349 5.48529 4.86393 3.90808 7.85474Z" />
<path d="M12.2353 21.647C14.6654 21.647 16.875 20.7168 18.5459 19.204L15.6323 16.7389C14.6875 17.454 13.5129 17.8823 12.2353 17.8823C9.78675 17.8823 7.70954 16.3216 6.92645 14.1433L3.8566 16.5073C5.41358 19.5551 8.57719 21.647 12.2353 21.647Z" />
<path d="M21.4632 10.3914H20.7059V10.3528H12.2353V14.1175H17.5551C17.182 15.1708 16.5037 16.077 15.6305 16.7388C15.6323 16.7388 15.6323 16.7388 15.6323 16.7388L18.5459 19.2039C18.3401 19.3895 21.647 16.941 21.647 12.2351C21.647 11.6046 21.5827 10.9888 21.4632 10.3914Z" />
</svg>