<!--character:1760-->
  <svg width="24" height="24" viewBox="0 0 24 24" >
<path   d="M5.32049 20.7479L13.0751 12.8722L15.8085 15.648L6.58998 20.8536C6.23947 21.0516 5.81017 21.0486 5.46187 20.8454L5.32049 20.7479ZM12.2931 12.078L4.90002 19.5861V4.56985L12.2931 12.078ZM16.9131 8.97529L20.5249 11.0145C20.8799 11.2155 21.1 11.592 21.1 12C21.1 12.408 20.8799 12.7845 20.5249 12.9855L16.8144 15.0802L13.8579 12.078L16.9131 8.97529ZM5.23875 3.32487C5.30502 3.25962 5.3794 3.20262 5.46187 3.15462C5.81017 2.95137 6.23947 2.94837 6.58998 3.14637L15.9072 8.40755L13.0751 11.2838L5.23875 3.32487Z" />
</svg>