<!-- character:0:1467 -->
  <svg width="20" height="20" viewBox="0 0 20 20" >
<path   d="M17.6389 9.30564H16.5118C16.3414 9.30539 16.1964 9.18153 16.1695 9.01328C15.739 6.34953 13.6506 4.26111 10.9868 3.83064C10.8186 3.80371 10.6947 3.65867 10.6945 3.48828V2.36119C10.6945 1.97766 10.3836 1.66675 10 1.66675C9.61649 1.66675 9.30558 1.97766 9.30558 2.36119V3.48828C9.30533 3.65867 9.18147 3.80371 9.01322 3.83064C6.34947 4.26111 4.26105 6.34953 3.83058 9.01328C3.80365 9.18153 3.65861 9.30539 3.48821 9.30564H2.36113C1.9776 9.30564 1.66669 9.61655 1.66669 10.0001C1.66669 10.3836 1.9776 10.6945 2.36113 10.6945H3.48821C3.65861 10.6948 3.80365 10.8186 3.83058 10.9869C4.26105 13.6506 6.34947 15.7391 9.01322 16.1695C9.18147 16.1964 9.30533 16.3415 9.30558 16.5119V17.639C9.30558 18.0225 9.61649 18.3334 10 18.3334C10.3836 18.3334 10.6945 18.0225 10.6945 17.639V16.5119C10.6947 16.3415 10.8186 16.1964 10.9868 16.1695C13.6506 15.7391 15.739 13.6506 16.1695 10.9869C16.1964 10.8186 16.3414 10.6948 16.5118 10.6945H17.6389C18.0224 10.6945 18.3334 10.3836 18.3334 10.0001C18.3334 9.61655 18.0224 9.30564 17.6389 9.30564ZM10 14.8612C7.3153 14.8612 5.13891 12.6848 5.13891 10.0001C5.13891 7.31536 7.3153 5.13897 10 5.13897C12.6847 5.13897 14.8611 7.31536 14.8611 10.0001C14.8581 12.6835 12.6835 14.8581 10 14.8612ZM12.7778 10.0001C12.7778 11.5342 11.5341 12.7779 10 12.7779C8.4659 12.7779 7.22224 11.5342 7.22224 10.0001C7.22224 8.46596 8.4659 7.2223 10 7.2223C11.5341 7.2223 12.7778 8.46596 12.7778 10.0001Z" />
</svg>