<!--character:7536-->
  <svg width="20" height="20" viewBox="0 0 20 20" >
<path d="M9.99775 18.3308C9.61105 18.3308 9.29701 18.0159 9.29701 17.6292V16.6444C9.29617 16.3989 9.11994 16.1867 8.87856 16.1408C6.34119 15.673 4.32331 13.6551 3.8556 11.1176C3.81133 10.8753 3.59919 10.6991 3.35196 10.6991H2.36808C1.98138 10.6991 1.6665 10.3842 1.6665 9.99749C1.6665 9.6116 1.98138 9.29671 2.36808 9.29671H3.35029C3.59752 9.29671 3.80966 9.12047 3.85476 8.87825C3.90821 8.57422 3.98505 8.2752 4.08277 7.98787C4.183 7.71725 4.44693 7.53266 4.74009 7.53266C4.81693 7.53266 4.89377 7.54602 4.96726 7.57108C5.32473 7.69386 5.52268 8.08559 5.40909 8.44642C4.81024 10.2046 5.25458 12.1165 6.57087 13.4321C7.48543 14.3458 8.70233 14.8503 9.99608 14.8503C10.5281 14.8503 11.0543 14.7626 11.5596 14.5897C11.6306 14.5655 11.7049 14.5538 11.7801 14.5538C11.9505 14.5538 12.115 14.6148 12.2428 14.7275C12.4316 14.8921 12.5176 15.146 12.4691 15.3899C12.4207 15.6355 12.2436 15.8384 12.0073 15.9186C11.7183 16.0163 11.4193 16.0923 11.1186 16.1466C10.8747 16.1909 10.6985 16.4031 10.6993 16.6503V17.6292C10.6993 18.0159 10.3845 18.3308 9.99775 18.3308ZM9.99524 5.15135C9.18342 5.15135 8.37911 5.35849 7.66834 5.75022C7.52886 5.82707 7.43198 5.96739 7.40859 6.12692C7.38687 6.28813 7.43949 6.44599 7.55392 6.56125L13.4372 12.4448C13.5332 12.5408 13.6627 12.5951 13.8005 12.5951C14.0302 12.5676 14.1713 12.469 14.2481 12.3279C15.0725 10.8353 15.0441 8.99435 14.1755 7.52597C13.3077 6.06094 11.7116 5.15135 10.0094 5.15135H9.99524ZM17.6324 18.3333C17.447 18.3333 17.2666 18.2582 17.1355 18.1279L1.87197 2.86275C1.74 2.73078 1.66734 2.55454 1.66734 2.36828C1.66734 2.18035 1.74 2.00411 1.87197 1.87214C2.00476 1.73933 2.18099 1.66666 2.36808 1.66666C2.55517 1.66666 2.7314 1.73933 2.8642 1.87214L5.79412 4.80555C5.89101 4.90077 6.0188 4.95256 6.15494 4.95256C6.26017 4.95256 6.36207 4.92082 6.44893 4.85984C7.18308 4.35201 8.00159 4.01289 8.88107 3.85503C9.12495 3.80993 9.30118 3.59861 9.30118 3.35137V2.36744C9.30118 1.98072 9.61522 1.66666 10.0019 1.66666C10.3886 1.66666 10.7035 1.98072 10.7035 2.36744V3.35471C10.7035 3.60111 10.8797 3.81327 11.1219 3.85921C13.6593 4.32611 15.6772 6.34409 16.1441 8.88159C16.1892 9.12465 16.4005 9.30006 16.6477 9.30006H17.6324C18.0191 9.30006 18.3332 9.61495 18.3332 10.0017C18.3332 10.3884 18.0191 10.7033 17.6324 10.7033H16.6485C16.4013 10.7033 16.1892 10.8795 16.1441 11.1217C15.9862 12.0021 15.6488 12.8198 15.141 13.554C14.9998 13.7586 15.0249 14.0334 15.2011 14.208L18.1277 17.1364C18.3039 17.3126 18.3733 17.5724 18.309 17.8138C18.2446 18.0552 18.0542 18.2448 17.8128 18.3099C17.7544 18.325 17.6934 18.3333 17.6324 18.3333Z" />
</svg>