<!--character:$550:1900-->
  <svg width="24" height="24" viewBox="0 0 24 24" >
<path d="M19.8142 11.1667H21.1667C21.6269 11.1667 22 11.5398 22 12C22 12.4602 21.6269 12.8333 21.1667 12.8333H19.8142C19.6097 12.8336 19.4356 12.9823 19.4033 13.1842C18.8868 16.3807 16.3807 18.8868 13.1842 19.4033C12.9823 19.4356 12.8336 19.6097 12.8333 19.8142V21.1667C12.8333 21.6269 12.4602 22 12 22C11.5398 22 11.1667 21.6269 11.1667 21.1667V19.8142C11.1664 19.6097 11.0177 19.4356 10.8158 19.4033C7.61934 18.8868 5.11323 16.3807 4.59667 13.1842C4.56436 12.9823 4.39031 12.8336 4.18583 12.8333H2.83333C2.3731 12.8333 2 12.4602 2 12C2 11.5398 2.3731 11.1667 2.83333 11.1667H4.18583C4.39031 11.1664 4.56436 11.0177 4.59667 10.8158C5.11323 7.61934 7.61934 5.11323 10.8158 4.59667C11.0177 4.56436 11.1664 4.39031 11.1667 4.18583V2.83333C11.1667 2.3731 11.5398 2 12 2C12.4602 2 12.8333 2.3731 12.8333 2.83333V4.18583C12.8336 4.39031 12.9823 4.56436 13.1842 4.59667C16.3807 5.11323 18.8868 7.61934 19.4033 10.8158C19.4356 11.0177 19.6097 11.1664 19.8142 11.1667ZM6.16669 12C6.16669 15.2217 8.77836 17.8333 12 17.8333C15.2202 17.8297 17.8297 15.2201 17.8334 12C17.8334 8.77833 15.2217 6.16666 12 6.16666C8.77836 6.16666 6.16669 8.77833 6.16669 12Z" />
</svg>