<!--character:4387-->
  <svg width="24" height="24" viewBox="0 0 24 24" >
<path d="M15.3334 12C15.3334 13.8409 13.841 15.3333 12 15.3333C10.1591 15.3333 8.66669 13.8409 8.66669 12C8.66669 10.159 10.1591 8.66666 12 8.66666C13.841 8.66666 15.3334 10.159 15.3334 12Z" />
<path d="M21.1667 11.1667H19.8142C19.6097 11.1664 19.4356 11.0177 19.4033 10.8158C18.8868 7.61934 16.3807 5.11323 13.1842 4.59667C12.9823 4.56436 12.8336 4.39031 12.8333 4.18583V2.83333C12.8333 2.3731 12.4602 2 12 2C11.5398 2 11.1667 2.3731 11.1667 2.83333V4.18583C11.1664 4.39031 11.0177 4.56436 10.8158 4.59667C7.61934 5.11323 5.11323 7.61934 4.59667 10.8158C4.56436 11.0177 4.39031 11.1664 4.18583 11.1667H2.83333C2.3731 11.1667 2 11.5398 2 12C2 12.4602 2.3731 12.8333 2.83333 12.8333H4.18583C4.39031 12.8336 4.56436 12.9823 4.59667 13.1842C5.11323 16.3807 7.61934 18.8868 10.8158 19.4033C11.0177 19.4356 11.1664 19.6097 11.1667 19.8142V21.1667C11.1667 21.6269 11.5398 22 12 22C12.4602 22 12.8333 21.6269 12.8333 21.1667V19.8142C12.8336 19.6097 12.9823 19.4356 13.1842 19.4033C16.3807 18.8868 18.8868 16.3807 19.4033 13.1842C19.4356 12.9823 19.6097 12.8336 19.8142 12.8333H21.1667C21.6269 12.8333 22 12.4602 22 12C22 11.5398 21.6269 11.1667 21.1667 11.1667ZM12 17.8333C8.77836 17.8333 6.16669 15.2217 6.16669 12C6.16669 8.77833 8.77836 6.16666 12 6.16666C15.2217 6.16666 17.8334 8.77833 17.8334 12C17.8297 15.2201 15.2202 17.8297 12 17.8333Z" />
</svg>