<!--character:6683-->
  <svg width="24" height="24" viewBox="0 0 24 24" >
<path d="M15.3333 12C15.3333 13.8409 13.8409 15.3333 12 15.3333C10.159 15.3333 8.66666 13.8409 8.66666 12C8.66666 10.159 10.159 8.66666 12 8.66666C13.8409 8.66666 15.3333 10.159 15.3333 12Z" />
<path d="M21.1667 11.1667H19.8142C19.6097 11.1664 19.4356 11.0177 19.4033 10.8158C18.8868 7.61934 16.3806 5.11323 13.1842 4.59666C12.9822 4.56436 12.8336 4.39031 12.8333 4.18583V2.83333C12.8333 2.37309 12.4602 2 12 2C11.5398 2 11.1667 2.37309 11.1667 2.83333V4.18583C11.1664 4.39031 11.0177 4.56436 10.8158 4.59666C7.61933 5.11323 5.11322 7.61934 4.59665 10.8158C4.56435 11.0177 4.3903 11.1664 4.18582 11.1667H2.83332C2.37308 11.1667 1.99999 11.5398 1.99999 12C1.99999 12.4602 2.37308 12.8333 2.83332 12.8333H4.18582C4.3903 12.8336 4.56435 12.9823 4.59665 13.1842C5.11322 16.3807 7.61933 18.8868 10.8158 19.4033C11.0177 19.4356 11.1664 19.6097 11.1667 19.8142V21.1667C11.1667 21.6269 11.5398 22 12 22C12.4602 22 12.8333 21.6269 12.8333 21.1667V19.8142C12.8336 19.6097 12.9822 19.4356 13.1842 19.4033C16.3806 18.8868 18.8868 16.3807 19.4033 13.1842C19.4356 12.9823 19.6097 12.8336 19.8142 12.8333H21.1667C21.6269 12.8333 22 12.4602 22 12C22 11.5398 21.6269 11.1667 21.1667 11.1667ZM12 17.8333C8.77833 17.8333 6.16665 15.2217 6.16665 12C6.16665 8.77834 8.77833 6.16666 12 6.16666C15.2216 6.16666 17.8333 8.77834 17.8333 12C17.8296 15.2201 15.2201 17.8297 12 17.8333Z" />
</svg>