<!-- character:0:1479 -->
  <svg width="20" height="20" viewBox="0 0 20 20" >
<path   d="M16.5118 9.30564H17.6389C18.0224 9.30564 18.3334 9.61655 18.3334 10.0001C18.3334 10.3836 18.0224 10.6945 17.6389 10.6945H16.5118C16.3414 10.6948 16.1964 10.8186 16.1695 10.9869C15.739 13.6506 13.6506 15.7391 10.9868 16.1695C10.8186 16.1964 10.6947 16.3415 10.6945 16.5119V17.639C10.6945 18.0225 10.3836 18.3334 10 18.3334C9.61649 18.3334 9.30558 18.0225 9.30558 17.639V16.5119C9.30533 16.3415 9.18147 16.1964 9.01322 16.1695C6.34947 15.7391 4.26105 13.6506 3.83058 10.9869C3.80365 10.8186 3.65861 10.6948 3.48821 10.6945H2.36113C1.9776 10.6945 1.66669 10.3836 1.66669 10.0001C1.66669 9.61655 1.9776 9.30564 2.36113 9.30564H3.48821C3.65861 9.30539 3.80365 9.18153 3.83058 9.01328C4.26105 6.34953 6.34947 4.26111 9.01322 3.83064C9.18147 3.80371 9.30533 3.65867 9.30558 3.48828V2.36119C9.30558 1.97766 9.61649 1.66675 10 1.66675C10.3836 1.66675 10.6945 1.97766 10.6945 2.36119V3.48828C10.6947 3.65867 10.8186 3.80371 10.9868 3.83064C13.6506 4.26111 15.739 6.34953 16.1695 9.01328C16.1964 9.18153 16.3414 9.30539 16.5118 9.30564ZM5.13891 10.0001C5.13891 12.6848 7.3153 14.8612 10 14.8612C12.6835 14.8581 14.8581 12.6835 14.8611 10.0001C14.8611 7.31536 12.6847 5.13897 10 5.13897C7.3153 5.13897 5.13891 7.31536 5.13891 10.0001Z" />
</svg>