<!--character:3024:2737-->
<svg width="24" height="24" viewBox="0 0 24 24">
  <path d="M11.9973 21.997C11.5333 21.997 11.1564 21.6191 11.1564 21.1551V19.9733C11.1554 19.6787 10.9439 19.4241 10.6543 19.3689C7.60943 18.8077 5.18798 16.3861 4.62671 13.3411C4.5736 13.0504 4.31902 12.8389 4.02236 12.8389H2.8417C2.37765 12.8389 1.9998 12.4611 1.9998 11.997C1.9998 11.5339 2.37765 11.1561 2.8417 11.1561H4.02035C4.31702 11.1561 4.57159 10.9446 4.62571 10.6539C4.68986 10.2891 4.78206 9.93024 4.89933 9.58544C5.0196 9.2607 5.33631 9.03919 5.6881 9.03919C5.78031 9.03919 5.87252 9.05522 5.96072 9.08529C6.38968 9.23263 6.62722 9.70271 6.49091 10.1357C5.77229 12.2456 6.30549 14.5398 7.88505 16.1185C8.98252 17.215 10.4428 17.8204 11.9953 17.8204C12.6337 17.8204 13.2652 17.7151 13.8715 17.5077C13.9567 17.4786 14.0459 17.4646 14.1361 17.4646C14.3406 17.4646 14.538 17.5377 14.6914 17.673C14.9179 17.8705 15.0211 18.1752 14.963 18.4679C14.9048 18.7625 14.6924 19.0061 14.4087 19.1023C14.0619 19.2196 13.7031 19.3108 13.3423 19.376C13.0497 19.4291 12.8382 19.6837 12.8392 19.9803V21.1551C12.8392 21.6191 12.4613 21.997 11.9973 21.997ZM11.9943 6.18161C11.0201 6.18161 10.0549 6.43019 9.20201 6.90027C9.03463 6.99248 8.91837 7.16087 8.89031 7.35231C8.86425 7.54575 8.92739 7.73519 9.0647 7.87351L16.1246 14.9337C16.2398 15.049 16.3952 15.1142 16.5606 15.1142C16.8362 15.0811 17.0056 14.9628 17.0978 14.7934C18.087 13.0023 18.0529 10.7932 17.0106 9.03117C15.9692 7.27312 14.0539 6.18161 12.0113 6.18161H11.9943ZM21.1589 22C20.9364 22 20.7199 21.9098 20.5626 21.7534L2.24636 3.4353C2.088 3.27693 2.00081 3.06545 2.00081 2.84193C2.00081 2.61641 2.088 2.40493 2.24636 2.24656C2.40572 2.0872 2.61719 2 2.8417 2C3.0662 2 3.27768 2.0872 3.43704 2.24656L6.95295 5.76666C7.06921 5.88092 7.22256 5.94307 7.38592 5.94307C7.51221 5.94307 7.63448 5.90498 7.73872 5.83181C8.6197 5.22241 9.60191 4.81547 10.6573 4.62604C10.9499 4.57191 11.1614 4.31833 11.1614 4.02165V2.84093C11.1614 2.37686 11.5383 2 12.0023 2C12.4664 2 12.8442 2.37686 12.8442 2.84093V4.02566C12.8442 4.32134 13.0557 4.57592 13.3463 4.63105C16.3912 5.19134 18.8126 7.61291 19.3729 10.6579C19.427 10.9496 19.6806 11.1601 19.9773 11.1601H21.1589C21.623 11.1601 21.9998 11.5379 21.9998 12.002C21.9998 12.4661 21.623 12.8439 21.1589 12.8439H19.9783C19.6816 12.8439 19.427 13.0554 19.3729 13.3461C19.1835 14.4025 18.7786 15.3838 18.1692 16.2648C17.9998 16.5104 18.0299 16.8401 18.2413 17.0496L21.7533 20.5637C21.9647 20.7752 22.0479 21.0869 21.9707 21.3766C21.8936 21.6662 21.6651 21.8938 21.3754 21.9719C21.3052 21.99 21.2321 22 21.1589 22Z" />
</svg>
