<!--character:9176-->
  <svg width="20" height="20" viewBox="0 0 20 20" >
<path d="M16.5116 9.30555H17.6387C18.0223 9.30555 18.3332 9.61647 18.3332 10C18.3332 10.3835 18.0223 10.6944 17.6387 10.6944H16.5116C16.3412 10.6947 16.1962 10.8185 16.1693 10.9868C15.7388 13.6505 13.6504 15.739 10.9866 16.1694C10.8184 16.1964 10.6945 16.3414 10.6943 16.5118V17.6389C10.6943 18.0224 10.3834 18.3333 9.99984 18.3333C9.61631 18.3333 9.30539 18.0224 9.30539 17.6389V16.5118C9.30515 16.3414 9.18129 16.1964 9.01303 16.1694C6.34929 15.739 4.26086 13.6505 3.83039 10.9868C3.80347 10.8185 3.65843 10.6947 3.48803 10.6944H2.36095C1.97742 10.6944 1.6665 10.3835 1.6665 10C1.6665 9.61647 1.97742 9.30555 2.36095 9.30555H3.48803C3.65843 9.30531 3.80347 9.18145 3.83039 9.01319C4.26086 6.34945 6.34929 4.26102 9.01303 3.83055C9.18129 3.80363 9.30515 3.65859 9.30539 3.48819V2.36111C9.30539 1.97758 9.61631 1.66666 9.99984 1.66666C10.3834 1.66666 10.6943 1.97758 10.6943 2.36111V3.48819C10.6945 3.65859 10.8184 3.80363 10.9866 3.83055C13.6504 4.26102 15.7388 6.34945 16.1693 9.01319C16.1962 9.18145 16.3412 9.30531 16.5116 9.30555ZM5.13873 10C5.13873 12.6847 7.31512 14.8611 9.99984 14.8611C12.6833 14.858 14.8579 12.6834 14.8609 10C14.8609 7.31528 12.6846 5.13889 9.99984 5.13889C7.31512 5.13889 5.13873 7.31528 5.13873 10Z" />
</svg>