<!--character:$550:1909-->
  <svg width="24" height="24" viewBox="0 0 24 24" >
<path d="M11.9975 21.997C11.5335 21.997 11.1566 21.6191 11.1566 21.1551V19.9733C11.1556 19.6787 10.9441 19.4241 10.6545 19.3689C7.60962 18.8077 5.18817 16.3861 4.62691 13.3411C4.57379 13.0504 4.31922 12.8389 4.02255 12.8389H2.84189C2.37785 12.8389 2 12.4611 2 11.997C2 11.5339 2.37785 11.1561 2.84189 11.1561H4.02055C4.31721 11.1561 4.57179 10.9446 4.62591 10.6539C4.69005 10.2891 4.78226 9.93024 4.89952 9.58544C5.01979 9.2607 5.33651 9.03919 5.6883 9.03919C5.78051 9.03919 5.87271 9.05523 5.96091 9.08529C6.38988 9.23263 6.62741 9.70271 6.49111 10.1357C5.77249 12.2456 6.30569 14.5398 7.88524 16.1185C8.98271 17.215 10.443 17.8204 11.9955 17.8204C12.6339 17.8204 13.2653 17.7151 13.8717 17.5077C13.9569 17.4786 14.0461 17.4646 14.1363 17.4646C14.3408 17.4646 14.5382 17.5377 14.6916 17.673C14.9181 17.8705 15.0213 18.1752 14.9632 18.4679C14.905 18.7626 14.6926 19.0061 14.4089 19.1023C14.0621 19.2196 13.7033 19.3108 13.3425 19.376C13.0499 19.4291 12.8384 19.6837 12.8394 19.9804V21.1551C12.8394 21.6191 12.4615 21.997 11.9975 21.997ZM11.9945 6.18162C11.0203 6.18162 10.0551 6.4302 9.20221 6.90028C9.03483 6.99249 8.91857 7.16088 8.89051 7.35232C8.86445 7.54576 8.92759 7.7352 9.0649 7.87351L16.1248 14.9338C16.24 15.049 16.3954 15.1142 16.5608 15.1142C16.8364 15.0811 17.0058 14.9628 17.098 14.7934C18.0872 13.0023 18.0531 10.7932 17.0108 9.03118C15.9694 7.27313 14.0541 6.18162 12.0115 6.18162H11.9945ZM21.1589 22C20.9364 22 20.7199 21.9098 20.5625 21.7534L2.2463 3.4353C2.08795 3.27694 2.00075 3.06545 2.00075 2.84194C2.00075 2.61642 2.08795 2.40493 2.2463 2.24657C2.40566 2.0872 2.61714 2 2.84164 2C3.06615 2 3.27762 2.0872 3.43698 2.24657L6.95289 5.76666C7.06916 5.88093 7.2225 5.94307 7.38587 5.94307C7.51215 5.94307 7.63443 5.90498 7.73866 5.83181C8.61965 5.22241 9.60185 4.81548 10.6572 4.62604C10.9499 4.57192 11.1614 4.31833 11.1614 4.02165V2.84093C11.1614 2.37687 11.5382 2 12.0023 2C12.4663 2 12.8442 2.37687 12.8442 2.84093V4.02566C12.8442 4.32134 13.0556 4.57592 13.3463 4.63105C16.3911 5.19134 18.8126 7.61291 19.3728 10.6579C19.427 10.9496 19.6805 11.1601 19.9772 11.1601H21.1589C21.6229 11.1601 21.9998 11.5379 21.9998 12.002C21.9998 12.4661 21.6229 12.8439 21.1589 12.8439H19.9782C19.6815 12.8439 19.427 13.0554 19.3728 13.3461C19.1834 14.4025 18.7785 15.3838 18.1691 16.2648C17.9998 16.5104 18.0298 16.8401 18.2413 17.0496L21.7532 20.5637C21.9647 20.7752 22.0479 21.0869 21.9707 21.3766C21.8935 21.6662 21.665 21.8938 21.3753 21.9719C21.3052 21.99 21.232 22 21.1589 22Z" />
</svg>