<!-- character:0:1487 -->
  <svg width="20" height="20" viewBox="0 0 20 20" >
<path   d="M9.99793 18.3309C9.61123 18.3309 9.29719 18.016 9.29719 17.6293V16.6445C9.29635 16.399 9.12012 16.1868 8.87875 16.1409C6.34137 15.6731 4.3235 13.6552 3.85578 11.1177C3.81151 10.8754 3.59937 10.6992 3.35215 10.6992H2.36827C1.98156 10.6992 1.66669 10.3843 1.66669 9.99757C1.66669 9.61169 1.98156 9.2968 2.36827 9.2968H3.35048C3.5977 9.2968 3.80984 9.12056 3.85494 8.87833C3.9084 8.5743 3.98524 8.27528 4.08296 7.98795C4.18318 7.71733 4.44711 7.53274 4.74027 7.53274C4.81711 7.53274 4.89395 7.5461 4.96745 7.57116C5.32492 7.69394 5.52286 8.08568 5.40927 8.44651C4.81043 10.2047 5.25476 12.1166 6.57106 13.4321C7.48561 14.3459 8.70252 14.8504 9.99626 14.8504C10.5283 14.8504 11.0545 14.7627 11.5598 14.5898C11.6308 14.5656 11.7051 14.5539 11.7803 14.5539C11.9507 14.5539 12.1152 14.6149 12.243 14.7276C12.4317 14.8922 12.5178 15.1461 12.4693 15.39C12.4209 15.6355 12.2438 15.8385 12.0075 15.9187C11.7185 16.0164 11.4195 16.0924 11.1188 16.1467C10.8749 16.191 10.6987 16.4031 10.6995 16.6504V17.6293C10.6995 18.016 10.3846 18.3309 9.99793 18.3309ZM9.99543 5.15143C9.1836 5.15143 8.37929 5.35857 7.66852 5.75031C7.52904 5.82715 7.43216 5.96747 7.40877 6.12701C7.38706 6.28821 7.43968 6.44607 7.5541 6.56134L13.4373 12.4449C13.5334 12.5409 13.6628 12.5952 13.8007 12.5952C14.0303 12.5677 14.1715 12.4691 14.2483 12.3279C15.0727 10.8353 15.0443 8.99443 14.1757 7.52606C13.3079 6.06102 11.7118 5.15143 10.0096 5.15143H9.99543ZM17.6326 18.3334C17.4472 18.3334 17.2668 18.2582 17.1357 18.1279L1.87215 2.86283C1.74019 2.73086 1.66752 2.55462 1.66752 2.36836C1.66752 2.18043 1.74019 2.00419 1.87215 1.87222C2.00495 1.73942 2.18118 1.66675 2.36827 1.66675C2.55535 1.66675 2.73158 1.73942 2.86438 1.87222L5.79431 4.80563C5.89119 4.90085 6.01898 4.95264 6.15512 4.95264C6.26036 4.95264 6.36225 4.9209 6.44911 4.85993C7.18327 4.35209 8.00177 4.01298 8.88125 3.85511C9.12514 3.81001 9.30137 3.59869 9.30137 3.35146V2.36753C9.30137 1.9808 9.61541 1.66675 10.0021 1.66675C10.3888 1.66675 10.7037 1.9808 10.7037 2.36753V3.3548C10.7037 3.6012 10.8799 3.81335 11.1221 3.85929C13.6595 4.3262 15.6774 6.34417 16.1443 8.88168C16.1894 9.12473 16.4007 9.30014 16.6479 9.30014H17.6326C18.0193 9.30014 18.3334 9.61503 18.3334 10.0018C18.3334 10.3885 18.0193 10.7034 17.6326 10.7034H16.6487C16.4015 10.7034 16.1894 10.8796 16.1443 11.1218C15.9864 12.0022 15.649 12.8199 15.1412 13.5541C15 13.7587 15.0251 14.0335 15.2013 14.2081L18.1279 17.1365C18.3041 17.3127 18.3734 17.5725 18.3091 17.8139C18.2448 18.0553 18.0544 18.2449 17.813 18.31C17.7546 18.3251 17.6936 18.3334 17.6326 18.3334Z" />
</svg>