<!--character:3259-->
  <svg width="24" height="24" viewBox="0 0 24 24" >
<path d="M19.814 11.1667H21.1665C21.6267 11.1667 21.9998 11.5398 21.9998 12C21.9998 12.4602 21.6267 12.8333 21.1665 12.8333H19.814C19.6095 12.8336 19.4354 12.9823 19.4031 13.1842C18.8866 16.3807 16.3805 18.8868 13.184 19.4033C12.9821 19.4356 12.8334 19.6097 12.8331 19.8142V21.1667C12.8331 21.6269 12.46 22 11.9998 22C11.5396 22 11.1665 21.6269 11.1665 21.1667V19.8142C11.1662 19.6097 11.0175 19.4356 10.8156 19.4033C7.61915 18.8868 5.11304 16.3807 4.59647 13.1842C4.56416 12.9823 4.39012 12.8336 4.18564 12.8333H2.83314C2.3729 12.8333 1.9998 12.4602 1.9998 12C1.9998 11.5398 2.3729 11.1667 2.83314 11.1667H4.18564C4.39012 11.1664 4.56416 11.0177 4.59647 10.8158C5.11304 7.61934 7.61915 5.11323 10.8156 4.59666C11.0175 4.56436 11.1662 4.39031 11.1665 4.18583V2.83333C11.1665 2.37309 11.5396 2 11.9998 2C12.46 2 12.8331 2.37309 12.8331 2.83333V4.18583C12.8334 4.39031 12.9821 4.56436 13.184 4.59666C16.3805 5.11323 18.8866 7.61934 19.4031 10.8158C19.4354 11.0177 19.6095 11.1664 19.814 11.1667ZM6.16647 12C6.16647 15.2217 8.77814 17.8333 11.9998 17.8333C15.2199 17.8297 17.8295 15.2201 17.8331 12C17.8331 8.77834 15.2215 6.16666 11.9998 6.16666C8.77814 6.16666 6.16647 8.77834 6.16647 12Z" />
</svg>