<!--character:7229-->
  <svg width="24" height="24" viewBox="0 0 24 24" >
<path d="M15.3331 12C15.3331 13.8409 13.8408 15.3333 11.9998 15.3333C10.1589 15.3333 8.66647 13.8409 8.66647 12C8.66647 10.159 10.1589 8.66666 11.9998 8.66666C13.8408 8.66666 15.3331 10.159 15.3331 12Z" />
<path d="M21.1665 11.1667H19.814C19.6095 11.1664 19.4354 11.0177 19.4031 10.8158C18.8866 7.61934 16.3805 5.11323 13.184 4.59666C12.9821 4.56436 12.8334 4.39031 12.8331 4.18583V2.83333C12.8331 2.37309 12.46 2 11.9998 2C11.5396 2 11.1665 2.37309 11.1665 2.83333V4.18583C11.1662 4.39031 11.0175 4.56436 10.8156 4.59666C7.61915 5.11323 5.11304 7.61934 4.59647 10.8158C4.56416 11.0177 4.39012 11.1664 4.18564 11.1667H2.83314C2.3729 11.1667 1.9998 11.5398 1.9998 12C1.9998 12.4602 2.3729 12.8333 2.83314 12.8333H4.18564C4.39012 12.8336 4.56416 12.9823 4.59647 13.1842C5.11304 16.3807 7.61915 18.8868 10.8156 19.4033C11.0175 19.4356 11.1662 19.6097 11.1665 19.8142V21.1667C11.1665 21.6269 11.5396 22 11.9998 22C12.46 22 12.8331 21.6269 12.8331 21.1667V19.8142C12.8334 19.6097 12.9821 19.4356 13.184 19.4033C16.3805 18.8868 18.8866 16.3807 19.4031 13.1842C19.4354 12.9823 19.6095 12.8336 19.814 12.8333H21.1665C21.6267 12.8333 21.9998 12.4602 21.9998 12C21.9998 11.5398 21.6267 11.1667 21.1665 11.1667ZM11.9998 17.8333C8.77814 17.8333 6.16647 15.2217 6.16647 12C6.16647 8.77834 8.77814 6.16666 11.9998 6.16666C15.2215 6.16666 17.8331 8.77834 17.8331 12C17.8295 15.2201 15.2199 17.8297 11.9998 17.8333Z" />
</svg>