<!--character:E191-->
<svg width="24" height="24" viewBox="0 0 24 24" xmlns="http://www.w3.org/2000/svg"><path d="M21.1667 11.1667h-1.3525a.4167.4167 0 0 1-.4109-.3509c-.5165-3.1965-3.0226-5.7026-6.2191-6.2191a.4167.4167 0 0 1-.3509-.4109V2.8333a.8333.8333 0 1 0-1.6666 0v1.3525a.4167.4167 0 0 1-.3509.4109c-3.1965.5165-5.7026 3.0226-6.2191 6.2191a.4167.4167 0 0 1-.4109.3509H2.8333a.8333.8333 0 1 0 0 1.6666h1.3525a.4167.4167 0 0 1 .4109.3509c.5165 3.1965 3.0226 5.7026 6.2191 6.2191a.4167.4167 0 0 1 .3509.4109v1.3525a.8333.8333 0 1 0 1.6666 0v-1.3525a.4167.4167 0 0 1 .3509-.4109c3.1965-.5165 5.7026-3.0226 6.2191-6.2191a.4167.4167 0 0 1 .4109-.3509h1.3525a.8333.8333 0 1 0 0-1.6666zM12 17.8333c-3.2217 0-5.8333-2.6116-5.8333-5.8333 0-3.2217 2.6116-5.8333 5.8333-5.8333 3.2217 0 5.8333 2.6116 5.8333 5.8333-.0036 3.2201-2.6132 5.8297-5.8333 5.8333z"/></svg>
