<!--character:9946-->
  <svg width="20" height="20" viewBox="0 0 20 20" >
<path d="M12.7776 10C12.7776 11.5341 11.534 12.7778 9.99984 12.7778C8.46571 12.7778 7.22206 11.5341 7.22206 10C7.22206 8.46587 8.46571 7.22222 9.99984 7.22222C11.534 7.22222 12.7776 8.46587 12.7776 10Z" />
<path d="M17.6387 9.30555H16.5116C16.3412 9.30531 16.1962 9.18145 16.1693 9.01319C15.7388 6.34945 13.6504 4.26102 10.9866 3.83055C10.8184 3.80363 10.6945 3.65859 10.6943 3.48819V2.36111C10.6943 1.97758 10.3834 1.66666 9.99984 1.66666C9.61631 1.66666 9.30539 1.97758 9.30539 2.36111V3.48819C9.30515 3.65859 9.18129 3.80363 9.01303 3.83055C6.34929 4.26102 4.26086 6.34945 3.83039 9.01319C3.80347 9.18145 3.65843 9.30531 3.48803 9.30555H2.36095C1.97742 9.30555 1.6665 9.61647 1.6665 10C1.6665 10.3835 1.97742 10.6944 2.36095 10.6944H3.48803C3.65843 10.6947 3.80347 10.8185 3.83039 10.9868C4.26086 13.6505 6.34929 15.739 9.01303 16.1694C9.18129 16.1964 9.30515 16.3414 9.30539 16.5118V17.6389C9.30539 18.0224 9.61631 18.3333 9.99984 18.3333C10.3834 18.3333 10.6943 18.0224 10.6943 17.6389V16.5118C10.6945 16.3414 10.8184 16.1964 10.9866 16.1694C13.6504 15.739 15.7388 13.6505 16.1693 10.9868C16.1962 10.8185 16.3412 10.6947 16.5116 10.6944H17.6387C18.0223 10.6944 18.3332 10.3835 18.3332 10C18.3332 9.61647 18.0223 9.30555 17.6387 9.30555ZM9.99984 14.8611C7.31512 14.8611 5.13873 12.6847 5.13873 10C5.13873 7.31528 7.31512 5.13889 9.99984 5.13889C12.6846 5.13889 14.8609 7.31528 14.8609 10C14.8579 12.6834 12.6833 14.858 9.99984 14.8611Z" />
</svg>