<!-- character:0:390 -->
  <svg width="20" height="20" viewBox="0 0 20 20" >
<path   d="M5.45454 6.21211H2.42424C1.9697 6.21211 1.66667 5.90908 1.66667 5.45453V2.42423C1.66667 1.96969 1.9697 1.66666 2.42424 1.66666H5.45454C5.90909 1.66666 6.21212 1.96969 6.21212 2.42423V5.45453C6.21212 5.90908 5.90909 6.21211 5.45454 6.21211ZM11.5152 6.21211H8.48485C8.0303 6.21211 7.72727 5.90908 7.72727 5.45453V2.42423C7.72727 1.96969 8.0303 1.66666 8.48485 1.66666H11.5152C11.9697 1.66666 12.2727 1.96969 12.2727 2.42423V5.45453C12.2727 5.90908 11.9697 6.21211 11.5152 6.21211ZM14.5455 6.21211H17.5758C18.0303 6.21211 18.3333 5.90908 18.3333 5.45453V2.42423C18.3333 1.96969 18.0303 1.66666 17.5758 1.66666H14.5455C14.0909 1.66666 13.7879 1.96969 13.7879 2.42423V5.45453C13.7879 5.90908 14.0909 6.21211 14.5455 6.21211ZM5.45454 12.2727H2.42424C1.9697 12.2727 1.66667 11.9697 1.66667 11.5151V8.48484C1.66667 8.03029 1.9697 7.72726 2.42424 7.72726H5.45454C5.90909 7.72726 6.21212 8.03029 6.21212 8.48484V11.5151C6.21212 11.9697 5.90909 12.2727 5.45454 12.2727ZM8.48485 12.2727H11.5152C11.9697 12.2727 12.2727 11.9697 12.2727 11.5151V8.48484C12.2727 8.03029 11.9697 7.72726 11.5152 7.72726H8.48485C8.0303 7.72726 7.72727 8.03029 7.72727 8.48484V11.5151C7.72727 11.9697 8.0303 12.2727 8.48485 12.2727ZM17.5758 12.2727H14.5455C14.0909 12.2727 13.7879 11.9697 13.7879 11.5151V8.48484C13.7879 8.03029 14.0909 7.72726 14.5455 7.72726H17.5758C18.0303 7.72726 18.3333 8.03029 18.3333 8.48484V11.5151C18.3333 11.9697 18.0303 12.2727 17.5758 12.2727ZM2.42424 18.3333H5.45454C5.90909 18.3333 6.21212 18.0303 6.21212 17.5757V14.5454C6.21212 14.0909 5.90909 13.7879 5.45454 13.7879H2.42424C1.9697 13.7879 1.66667 14.0909 1.66667 14.5454V17.5757C1.66667 18.0303 1.9697 18.3333 2.42424 18.3333ZM11.5152 18.3333H8.48485C8.0303 18.3333 7.72727 18.0303 7.72727 17.5757V14.5454C7.72727 14.0909 8.0303 13.7879 8.48485 13.7879H11.5152C11.9697 13.7879 12.2727 14.0909 12.2727 14.5454V17.5757C12.2727 18.0303 11.9697 18.3333 11.5152 18.3333ZM14.5455 18.3333H17.5758C18.0303 18.3333 18.3333 18.0303 18.3333 17.5757V14.5454C18.3333 14.0909 18.0303 13.7879 17.5758 13.7879H14.5455C14.0909 13.7879 13.7879 14.0909 13.7879 14.5454V17.5757C13.7879 18.0303 14.0909 18.3333 14.5455 18.3333Z" />
</svg>