<!--character:1234-->
  <svg width="20" height="20" viewBox="0 0 20 20" >
<path d="M5.45453 6.21212H2.42423C1.96969 6.21212 1.66666 5.90909 1.66666 5.45454V2.42424C1.66666 1.96969 1.96969 1.66666 2.42423 1.66666H5.45453C5.90908 1.66666 6.21211 1.96969 6.21211 2.42424V5.45454C6.21211 5.90909 5.90908 6.21212 5.45453 6.21212Z" />
<path d="M11.5151 6.21212H8.48484C8.03029 6.21212 7.72726 5.90909 7.72726 5.45454V2.42424C7.72726 1.96969 8.03029 1.66666 8.48484 1.66666H11.5151C11.9697 1.66666 12.2727 1.96969 12.2727 2.42424V5.45454C12.2727 5.90909 11.9697 6.21212 11.5151 6.21212Z" />
<path d="M14.5454 6.21212H17.5757C18.0303 6.21212 18.3333 5.90909 18.3333 5.45454V2.42424C18.3333 1.96969 18.0303 1.66666 17.5757 1.66666H14.5454C14.0909 1.66666 13.7879 1.96969 13.7879 2.42424V5.45454C13.7879 5.90909 14.0909 6.21212 14.5454 6.21212Z" />
<path d="M5.45453 12.2727H2.42423C1.96969 12.2727 1.66666 11.9697 1.66666 11.5152V8.48485C1.66666 8.0303 1.96969 7.72727 2.42423 7.72727H5.45453C5.90908 7.72727 6.21211 8.0303 6.21211 8.48485V11.5152C6.21211 11.9697 5.90908 12.2727 5.45453 12.2727Z" />
<path d="M8.48484 12.2727H11.5151C11.9697 12.2727 12.2727 11.9697 12.2727 11.5152V8.48485C12.2727 8.0303 11.9697 7.72727 11.5151 7.72727H8.48484C8.03029 7.72727 7.72726 8.0303 7.72726 8.48485V11.5152C7.72726 11.9697 8.03029 12.2727 8.48484 12.2727Z" />
<path d="M17.5757 12.2727H14.5454C14.0909 12.2727 13.7879 11.9697 13.7879 11.5152V8.48485C13.7879 8.0303 14.0909 7.72727 14.5454 7.72727H17.5757C18.0303 7.72727 18.3333 8.0303 18.3333 8.48485V11.5152C18.3333 11.9697 18.0303 12.2727 17.5757 12.2727Z" />
<path d="M2.42423 18.3333H5.45453C5.90908 18.3333 6.21211 18.0303 6.21211 17.5758V14.5455C6.21211 14.0909 5.90908 13.7879 5.45453 13.7879H2.42423C1.96969 13.7879 1.66666 14.0909 1.66666 14.5455V17.5758C1.66666 18.0303 1.96969 18.3333 2.42423 18.3333Z" />
<path d="M11.5151 18.3333H8.48484C8.03029 18.3333 7.72726 18.0303 7.72726 17.5758V14.5455C7.72726 14.0909 8.03029 13.7879 8.48484 13.7879H11.5151C11.9697 13.7879 12.2727 14.0909 12.2727 14.5455V17.5758C12.2727 18.0303 11.9697 18.3333 11.5151 18.3333Z" />
<path d="M14.5454 18.3333H17.5757C18.0303 18.3333 18.3333 18.0303 18.3333 17.5758V14.5455C18.3333 14.0909 18.0303 13.7879 17.5757 13.7879H14.5454C14.0909 13.7879 13.7879 14.0909 13.7879 14.5455V17.5758C13.7879 18.0303 14.0909 18.3333 14.5454 18.3333Z" />
</svg>