<!--character:7408-->
  <svg width="24" height="24" viewBox="0 0 24 24" >
<path d="M6.54544 7.45454H2.90908C2.36362 7.45454 1.99999 7.09091 1.99999 6.54545V2.90909C1.99999 2.36363 2.36362 2 2.90908 2H6.54544C7.0909 2 7.45453 2.36363 7.45453 2.90909V6.54545C7.45453 7.09091 7.0909 7.45454 6.54544 7.45454Z" />
<path d="M13.8182 7.45454H10.1818C9.63635 7.45454 9.27271 7.09091 9.27271 6.54545V2.90909C9.27271 2.36363 9.63635 2 10.1818 2H13.8182C14.3636 2 14.7273 2.36363 14.7273 2.90909V6.54545C14.7273 7.09091 14.3636 7.45454 13.8182 7.45454Z" />
<path d="M17.4545 7.45454H21.0909C21.6364 7.45454 22 7.09091 22 6.54545V2.90909C22 2.36363 21.6364 2 21.0909 2H17.4545C16.9091 2 16.5454 2.36363 16.5454 2.90909V6.54545C16.5454 7.09091 16.9091 7.45454 17.4545 7.45454Z" />
<path d="M6.54544 14.7273H2.90908C2.36362 14.7273 1.99999 14.3636 1.99999 13.8182V10.1818C1.99999 9.63636 2.36362 9.27272 2.90908 9.27272H6.54544C7.0909 9.27272 7.45453 9.63636 7.45453 10.1818V13.8182C7.45453 14.3636 7.0909 14.7273 6.54544 14.7273Z" />
<path d="M10.1818 14.7273H13.8182C14.3636 14.7273 14.7273 14.3636 14.7273 13.8182V10.1818C14.7273 9.63636 14.3636 9.27272 13.8182 9.27272H10.1818C9.63635 9.27272 9.27271 9.63636 9.27271 10.1818V13.8182C9.27271 14.3636 9.63635 14.7273 10.1818 14.7273Z" />
<path d="M21.0909 14.7273H17.4545C16.9091 14.7273 16.5454 14.3636 16.5454 13.8182V10.1818C16.5454 9.63636 16.9091 9.27272 17.4545 9.27272H21.0909C21.6364 9.27272 22 9.63636 22 10.1818V13.8182C22 14.3636 21.6364 14.7273 21.0909 14.7273Z" />
<path d="M2.90908 22H6.54544C7.0909 22 7.45453 21.6364 7.45453 21.0909V17.4545C7.45453 16.9091 7.0909 16.5455 6.54544 16.5455H2.90908C2.36362 16.5455 1.99999 16.9091 1.99999 17.4545V21.0909C1.99999 21.6364 2.36362 22 2.90908 22Z" />
<path d="M13.8182 22H10.1818C9.63635 22 9.27271 21.6364 9.27271 21.0909V17.4545C9.27271 16.9091 9.63635 16.5455 10.1818 16.5455H13.8182C14.3636 16.5455 14.7273 16.9091 14.7273 17.4545V21.0909C14.7273 21.6364 14.3636 22 13.8182 22Z" />
<path d="M17.4545 22H21.0909C21.6364 22 22 21.6364 22 21.0909V17.4545C22 16.9091 21.6364 16.5455 21.0909 16.5455H17.4545C16.9091 16.5455 16.5454 16.9091 16.5454 17.4545V21.0909C16.5454 21.6364 16.9091 22 17.4545 22Z" />
</svg>