<!--character:5681-->
  <svg width="24" height="24" viewBox="0 0 24 24" >
<path d="M6.54548 7.45454H2.90912C2.36366 7.45454 2.00002 7.09091 2.00002 6.54545V2.90909C2.00002 2.36363 2.36366 2 2.90912 2H6.54548C7.09093 2 7.45457 2.36363 7.45457 2.90909V6.54545C7.45457 7.09091 7.09093 7.45454 6.54548 7.45454Z" />
<path d="M13.8182 7.45454H10.1818C9.63639 7.45454 9.27275 7.09091 9.27275 6.54545V2.90909C9.27275 2.36363 9.63639 2 10.1818 2H13.8182C14.3637 2 14.7273 2.36363 14.7273 2.90909V6.54545C14.7273 7.09091 14.3637 7.45454 13.8182 7.45454Z" />
<path d="M17.4546 7.45454H21.0909C21.6364 7.45454 22 7.09091 22 6.54545V2.90909C22 2.36363 21.6364 2 21.0909 2H17.4546C16.9091 2 16.5455 2.36363 16.5455 2.90909V6.54545C16.5455 7.09091 16.9091 7.45454 17.4546 7.45454Z" />
<path d="M6.54548 14.7273H2.90912C2.36366 14.7273 2.00002 14.3636 2.00002 13.8182V10.1818C2.00002 9.63636 2.36366 9.27272 2.90912 9.27272H6.54548C7.09093 9.27272 7.45457 9.63636 7.45457 10.1818V13.8182C7.45457 14.3636 7.09093 14.7273 6.54548 14.7273Z" />
<path d="M10.1818 14.7273H13.8182C14.3637 14.7273 14.7273 14.3636 14.7273 13.8182V10.1818C14.7273 9.63636 14.3637 9.27272 13.8182 9.27272H10.1818C9.63639 9.27272 9.27275 9.63636 9.27275 10.1818V13.8182C9.27275 14.3636 9.63639 14.7273 10.1818 14.7273Z" />
<path d="M21.0909 14.7273H17.4546C16.9091 14.7273 16.5455 14.3636 16.5455 13.8182V10.1818C16.5455 9.63636 16.9091 9.27272 17.4546 9.27272H21.0909C21.6364 9.27272 22 9.63636 22 10.1818V13.8182C22 14.3636 21.6364 14.7273 21.0909 14.7273Z" />
<path d="M2.90912 22H6.54548C7.09093 22 7.45457 21.6364 7.45457 21.0909V17.4545C7.45457 16.9091 7.09093 16.5455 6.54548 16.5455H2.90912C2.36366 16.5455 2.00002 16.9091 2.00002 17.4545V21.0909C2.00002 21.6364 2.36366 22 2.90912 22Z" />
<path d="M13.8182 22H10.1818C9.63639 22 9.27275 21.6364 9.27275 21.0909V17.4545C9.27275 16.9091 9.63639 16.5455 10.1818 16.5455H13.8182C14.3637 16.5455 14.7273 16.9091 14.7273 17.4545V21.0909C14.7273 21.6364 14.3637 22 13.8182 22Z" />
<path d="M17.4546 22H21.0909C21.6364 22 22 21.6364 22 21.0909V17.4545C22 16.9091 21.6364 16.5455 21.0909 16.5455H17.4546C16.9091 16.5455 16.5455 16.9091 16.5455 17.4545V21.0909C16.5455 21.6364 16.9091 22 17.4546 22Z" />
</svg>