<!--character:$550:1920-->
  <svg width="24" height="24" viewBox="0 0 24 24" >
<path d="M6.54545 7.45455H2.90909C2.36364 7.45455 2 7.09091 2 6.54545V2.90909C2 2.36364 2.36364 2 2.90909 2H6.54545C7.09091 2 7.45455 2.36364 7.45455 2.90909V6.54545C7.45455 7.09091 7.09091 7.45455 6.54545 7.45455Z" />
<path d="M13.8182 7.45455H10.1819C9.63642 7.45455 9.27278 7.09091 9.27278 6.54545V2.90909C9.27278 2.36364 9.63642 2 10.1819 2H13.8182C14.3637 2 14.7273 2.36364 14.7273 2.90909V6.54545C14.7273 7.09091 14.3637 7.45455 13.8182 7.45455Z" />
<path d="M17.4545 7.45455H21.0909C21.6364 7.45455 22 7.09091 22 6.54545V2.90909C22 2.36364 21.6364 2 21.0909 2H17.4545C16.9091 2 16.5454 2.36364 16.5454 2.90909V6.54545C16.5454 7.09091 16.9091 7.45455 17.4545 7.45455Z" />
<path d="M6.54545 14.7273H2.90909C2.36364 14.7273 2 14.3636 2 13.8182V10.1818C2 9.63636 2.36364 9.27272 2.90909 9.27272H6.54545C7.09091 9.27272 7.45455 9.63636 7.45455 10.1818V13.8182C7.45455 14.3636 7.09091 14.7273 6.54545 14.7273Z" />
<path d="M10.1819 14.7273H13.8182C14.3637 14.7273 14.7273 14.3636 14.7273 13.8182V10.1818C14.7273 9.63636 14.3637 9.27272 13.8182 9.27272H10.1819C9.63642 9.27272 9.27278 9.63636 9.27278 10.1818V13.8182C9.27278 14.3636 9.63642 14.7273 10.1819 14.7273Z" />
<path d="M21.0909 14.7273H17.4545C16.9091 14.7273 16.5454 14.3636 16.5454 13.8182V10.1818C16.5454 9.63636 16.9091 9.27272 17.4545 9.27272H21.0909C21.6364 9.27272 22 9.63636 22 10.1818V13.8182C22 14.3636 21.6364 14.7273 21.0909 14.7273Z" />
<path d="M2.90909 22H6.54545C7.09091 22 7.45455 21.6364 7.45455 21.0909V17.4545C7.45455 16.9091 7.09091 16.5454 6.54545 16.5454H2.90909C2.36364 16.5454 2 16.9091 2 17.4545V21.0909C2 21.6364 2.36364 22 2.90909 22Z" />
<path d="M13.8182 22H10.1819C9.63642 22 9.27278 21.6364 9.27278 21.0909V17.4545C9.27278 16.9091 9.63642 16.5454 10.1819 16.5454H13.8182C14.3637 16.5454 14.7273 16.9091 14.7273 17.4545V21.0909C14.7273 21.6364 14.3637 22 13.8182 22Z" />
<path d="M17.4545 22H21.0909C21.6364 22 22 21.6364 22 21.0909V17.4545C22 16.9091 21.6364 16.5454 21.0909 16.5454H17.4545C16.9091 16.5454 16.5454 16.9091 16.5454 17.4545V21.0909C16.5454 21.6364 16.9091 22 17.4545 22Z" />
</svg>