<!--character:2739-->
  <svg width="24" height="24" viewBox="0 0 24 24" >
<path d="M19.7234 9.27669L21.3218 10.564L21.32 10.5666C21.7499 10.9125 22 11.435 22 11.9872C22 12.5395 21.7499 13.062 21.32 13.4078L19.7216 14.6952C19.4682 14.8984 19.3369 15.2178 19.3738 15.5409L19.5955 17.5842C19.6559 18.1336 19.4638 18.6808 19.0735 19.0715C18.6832 19.4622 18.1369 19.6543 17.5884 19.5936L15.5491 19.3715C15.2267 19.3358 14.9083 19.4671 14.7046 19.7199L13.4193 21.3208C13.074 21.7514 12.5523 22.0019 12.0009 22.0019C11.4495 22.0019 10.9278 21.7514 10.5825 21.3208L9.29542 19.7173C9.09184 19.4644 8.77341 19.333 8.451 19.3689L6.41081 19.591C5.86226 19.6515 5.316 19.4591 4.92587 19.0682C4.53574 18.6773 4.34395 18.1301 4.40453 17.5808L4.62629 15.5383C4.66285 15.2153 4.53154 14.896 4.27843 14.6925L2.68002 13.4052C2.25012 13.0594 2.00002 12.5369 2.00002 11.9846C2.00002 11.4323 2.25012 10.9099 2.68002 10.564L4.28017 9.27582C4.53342 9.07242 4.66476 8.75311 4.62803 8.43008L4.40627 6.38759C4.34593 5.8382 4.53795 5.29109 4.92825 4.90035C5.31855 4.50961 5.8649 4.31753 6.41341 4.3782L8.45274 4.59769C8.77529 4.63465 9.09419 4.50307 9.29716 4.2493L10.5825 2.64928C10.9388 2.23694 11.4564 2 12.0009 2C12.5454 2 13.063 2.23694 13.4193 2.64928L14.7046 4.2493C14.9083 4.50213 15.2267 4.63347 15.5491 4.59769L17.591 4.3782C18.1395 4.31777 18.6858 4.51009 19.0759 4.901C19.4661 5.2919 19.6578 5.8391 19.5973 6.38846L19.3755 8.43095C19.3396 8.75386 19.4708 9.07279 19.7234 9.27669ZM11.2279 15.2599C11.6706 15.2283 12.0785 15.0085 12.3488 14.656L15.8856 9.93342C16.072 9.68448 16.1117 9.35484 15.9896 9.06867C15.8676 8.78251 15.6024 8.5833 15.2939 8.54608C14.9854 8.50886 14.6806 8.63928 14.4942 8.88822L11.0947 13.427L9.13715 11.4664C8.9188 11.2399 8.59546 11.1491 8.29141 11.2289C7.98736 11.3086 7.7499 11.5464 7.67032 11.8509C7.59073 12.1554 7.6814 12.4793 7.90747 12.698L10.0329 14.8214C10.3504 15.132 10.7853 15.2916 11.2279 15.2599Z" />
</svg>