<!--character:1373-->
  <svg width="24" height="24" viewBox="0 0 24 24" >
<path d="M7.83335 6.57996H5.75002C5.28978 6.57996 4.91669 6.95305 4.91669 7.41329V16.58C4.91669 17.0402 5.28978 17.4133 5.75002 17.4133H7.83335C8.06347 17.4133 8.25002 17.2267 8.25002 16.9966V6.99662C8.25002 6.7665 8.06347 6.57996 7.83335 6.57996Z" />
<path d="M3.66667 8.24661H2.83333C2.3731 8.24661 2 8.61971 2 9.07995V14.9133C2 15.3735 2.3731 15.7466 2.83333 15.7466H3.66667C3.89679 15.7466 4.08333 15.5601 4.08333 15.3299V8.66328C4.08333 8.43316 3.89679 8.24661 3.66667 8.24661Z" />
<path d="M20.3334 8.24661H21.1667C21.6269 8.24661 22 8.61971 22 9.07995V14.9133C22 15.3735 21.6269 15.7466 21.1667 15.7466H20.3334C20.1032 15.7466 19.9167 15.5601 19.9167 15.3299V8.66328C19.9167 8.43316 20.1032 8.24661 20.3334 8.24661Z" />
<path d="M18.25 6.57996H16.1667C15.9365 6.57996 15.75 6.7665 15.75 6.99662V16.9966C15.75 17.2267 15.9365 17.4133 16.1667 17.4133H18.25C18.7102 17.4133 19.0833 17.0402 19.0833 16.58V7.41329C19.0833 6.95305 18.7102 6.57996 18.25 6.57996Z" />
<path d="M9.58331 10.7466C9.30717 10.7466 9.08331 10.9705 9.08331 11.2466V12.7466C9.08331 13.0228 9.30717 13.2466 9.58331 13.2466H14.4166C14.6928 13.2466 14.9166 13.0228 14.9166 12.7466V11.2466C14.9166 10.9705 14.6928 10.7466 14.4166 10.7466H9.58331Z" />
</svg>