<!--character:9649-->
  <svg width="20" height="20" viewBox="0 0 20 20" >
<path d="M6.52762 5.48334H4.7915C4.40797 5.48334 4.09706 5.79425 4.09706 6.17778V13.8167C4.09706 14.2002 4.40797 14.5111 4.7915 14.5111H6.52762C6.71938 14.5111 6.87484 14.3557 6.87484 14.1639V5.83056C6.87484 5.63879 6.71938 5.48334 6.52762 5.48334Z" />
<path d="M3.05539 6.87223H2.36095C1.97742 6.87223 1.6665 7.18314 1.6665 7.56667V12.4278C1.6665 12.8113 1.97742 13.1222 2.36095 13.1222H3.05539C3.24716 13.1222 3.40262 12.9668 3.40262 12.775V7.21945C3.40262 7.02768 3.24716 6.87223 3.05539 6.87223Z" />
<path d="M16.9443 6.87223H17.6387C18.0223 6.87223 18.3332 7.18314 18.3332 7.56667V12.4278C18.3332 12.8113 18.0223 13.1222 17.6387 13.1222H16.9443C16.7525 13.1222 16.5971 12.9668 16.5971 12.775V7.21945C16.5971 7.02768 16.7525 6.87223 16.9443 6.87223Z" />
<path d="M15.2082 5.48334H13.4721C13.2803 5.48334 13.1248 5.63879 13.1248 5.83056V14.1639C13.1248 14.3557 13.2803 14.5111 13.4721 14.5111H15.2082C15.5917 14.5111 15.9026 14.2002 15.9026 13.8167V6.17778C15.9026 5.79425 15.5917 5.48334 15.2082 5.48334Z" />
<path d="M8.06928 8.95556C7.79314 8.95556 7.56928 9.17942 7.56928 9.45556V10.5389C7.56928 10.815 7.79314 11.0389 8.06928 11.0389H11.9304C12.2065 11.0389 12.4304 10.815 12.4304 10.5389V9.45556C12.4304 9.17942 12.2065 8.95556 11.9304 8.95556H8.06928Z" />
</svg>