<!--character:6954-->
  <svg width="24" height="24" viewBox="0 0 24 24" >
<path d="M7.83336 6.58H5.75002C5.28979 6.58 4.91669 6.9531 4.91669 7.41334V16.58C4.91669 17.0402 5.28979 17.4133 5.75002 17.4133H7.83336C8.06348 17.4133 8.25002 17.2268 8.25002 16.9967V6.99667C8.25002 6.76655 8.06348 6.58 7.83336 6.58Z" />
<path d="M3.66669 8.24667H2.83336C2.37312 8.24667 2.00002 8.61977 2.00002 9.08V14.9133C2.00002 15.3736 2.37312 15.7467 2.83336 15.7467H3.66669C3.89681 15.7467 4.08336 15.5601 4.08336 15.33V8.66334C4.08336 8.43322 3.89681 8.24667 3.66669 8.24667Z" />
<path d="M20.3334 8.24667H21.1667C21.6269 8.24667 22 8.61977 22 9.08V14.9133C22 15.3736 21.6269 15.7467 21.1667 15.7467H20.3334C20.1032 15.7467 19.9167 15.5601 19.9167 15.33V8.66334C19.9167 8.43322 20.1032 8.24667 20.3334 8.24667Z" />
<path d="M18.25 6.58H16.1667C15.9366 6.58 15.75 6.76655 15.75 6.99667V16.9967C15.75 17.2268 15.9366 17.4133 16.1667 17.4133H18.25C18.7103 17.4133 19.0834 17.0402 19.0834 16.58V7.41334C19.0834 6.9531 18.7103 6.58 18.25 6.58Z" />
<path d="M9.68336 10.7467C9.35199 10.7467 9.08336 11.0153 9.08336 11.3467V12.6467C9.08336 12.978 9.35199 13.2467 9.68336 13.2467H14.3167C14.6481 13.2467 14.9167 12.978 14.9167 12.6467V11.3467C14.9167 11.0153 14.6481 10.7467 14.3167 10.7467H9.68336Z" />
</svg>