<!-- character:0:2129 -->
  <svg width="20" height="20" viewBox="0 0 20 20" >
<path   d="M6.5278 5.48328H4.79169C4.40816 5.48328 4.09724 5.79419 4.09724 6.17772V13.8166C4.09724 14.2001 4.40816 14.5111 4.79169 14.5111H6.5278C6.71956 14.5111 6.87502 14.3556 6.87502 14.1638V5.8305C6.87502 5.63873 6.71956 5.48328 6.5278 5.48328ZM3.05558 6.87216H2.36113C1.9776 6.87216 1.66669 7.18308 1.66669 7.56661V12.4277C1.66669 12.8113 1.9776 13.1222 2.36113 13.1222H3.05558C3.24734 13.1222 3.4028 12.9667 3.4028 12.7749V7.21939C3.4028 7.02762 3.24734 6.87216 3.05558 6.87216ZM16.9445 6.87216H17.6389C18.0224 6.87216 18.3334 7.18308 18.3334 7.56661V12.4277C18.3334 12.8113 18.0224 13.1222 17.6389 13.1222H16.9445C16.7527 13.1222 16.5972 12.9667 16.5972 12.7749V7.21939C16.5972 7.02762 16.7527 6.87216 16.9445 6.87216ZM15.2084 5.48328H13.4722C13.2805 5.48328 13.125 5.63873 13.125 5.8305V14.1638C13.125 14.3556 13.2805 14.5111 13.4722 14.5111H15.2084C15.5919 14.5111 15.9028 14.2001 15.9028 13.8166V6.17772C15.9028 5.79419 15.5919 5.48328 15.2084 5.48328ZM8.06946 8.9555C7.79332 8.9555 7.56946 9.17935 7.56946 9.4555V10.5388C7.56946 10.815 7.79332 11.0388 8.06946 11.0388H11.9306C12.2067 11.0388 12.4306 10.815 12.4306 10.5388V9.4555C12.4306 9.17936 12.2067 8.9555 11.9306 8.9555H8.06946Z" />
</svg>