<!--character:5801-->
  <svg width="24" height="24" viewBox="0 0 24 24" >
<path d="M7.83314 6.58H5.7498C5.28957 6.58 4.91647 6.9531 4.91647 7.41334V16.58C4.91647 17.0402 5.28957 17.4133 5.7498 17.4133H7.83314C8.06326 17.4133 8.2498 17.2268 8.2498 16.9967V6.99667C8.2498 6.76655 8.06326 6.58 7.83314 6.58Z" />
<path d="M3.66647 8.24667H2.83314C2.3729 8.24667 1.9998 8.61977 1.9998 9.08V14.9133C1.9998 15.3736 2.3729 15.7467 2.83314 15.7467H3.66647C3.89659 15.7467 4.08314 15.5601 4.08314 15.33V8.66334C4.08314 8.43322 3.89659 8.24667 3.66647 8.24667Z" />
<path d="M20.3331 8.24667H21.1665C21.6267 8.24667 21.9998 8.61977 21.9998 9.08V14.9133C21.9998 15.3736 21.6267 15.7467 21.1665 15.7467H20.3331C20.103 15.7467 19.9165 15.5601 19.9165 15.33V8.66334C19.9165 8.43322 20.103 8.24667 20.3331 8.24667Z" />
<path d="M18.2498 6.58H16.1665C15.9364 6.58 15.7498 6.76655 15.7498 6.99667V16.9967C15.7498 17.2268 15.9364 17.4133 16.1665 17.4133H18.2498C18.71 17.4133 19.0831 17.0402 19.0831 16.58V7.41334C19.0831 6.9531 18.71 6.58 18.2498 6.58Z" />
<path d="M9.68314 10.7467C9.35177 10.7467 9.08314 11.0153 9.08314 11.3467V12.6467C9.08314 12.978 9.35177 13.2467 9.68314 13.2467H14.3165C14.6478 13.2467 14.9165 12.978 14.9165 12.6467V11.3467C14.9165 11.0153 14.6478 10.7467 14.3165 10.7467H9.68314Z" />
</svg>