<!--character:7005-->
  <svg width="24" height="24" viewBox="0 0 24 24" >
<path d="M7.83333 6.58H5.75C5.28976 6.58 4.91667 6.9531 4.91667 7.41334V16.58C4.91667 17.0402 5.28976 17.4133 5.75 17.4133H7.83333C8.06345 17.4133 8.25 17.2268 8.25 16.9967V6.99667C8.25 6.76655 8.06345 6.58 7.83333 6.58Z" />
<path d="M3.66667 8.24667H2.83333C2.3731 8.24667 2 8.61977 2 9.08V14.9133C2 15.3736 2.3731 15.7467 2.83333 15.7467H3.66667C3.89679 15.7467 4.08333 15.5601 4.08333 15.33V8.66334C4.08333 8.43322 3.89679 8.24667 3.66667 8.24667Z" />
<path d="M20.3333 8.24667H21.1667C21.6269 8.24667 22 8.61977 22 9.08V14.9133C22 15.3736 21.6269 15.7467 21.1667 15.7467H20.3333C20.1032 15.7467 19.9167 15.5601 19.9167 15.33V8.66334C19.9167 8.43322 20.1032 8.24667 20.3333 8.24667Z" />
<path d="M18.25 6.58H16.1667C15.9365 6.58 15.75 6.76655 15.75 6.99667V16.9967C15.75 17.2268 15.9365 17.4133 16.1667 17.4133H18.25C18.7102 17.4133 19.0833 17.0402 19.0833 16.58V7.41334C19.0833 6.9531 18.7102 6.58 18.25 6.58Z" />
<path d="M9.68333 10.7467C9.35196 10.7467 9.08333 11.0153 9.08333 11.3467V12.6467C9.08333 12.978 9.35196 13.2467 9.68333 13.2467H14.3167C14.648 13.2467 14.9167 12.978 14.9167 12.6467V11.3467C14.9167 11.0153 14.648 10.7467 14.3167 10.7467H9.68333Z" />
</svg>