<!--character:1009-->
<svg width="24" height="24" viewBox="0 0 24 24">
  <path d="M7.90601 3.01473C9.28761 3.12136 10.6858 3.80094 12.0058 5.10534C13.3254 3.80145 14.7226 3.12305 16.1033 3.01875C17.7599 2.89362 19.2057 3.60998 20.2324 4.7002C22.2324 6.82399 22.8688 10.6569 20.3735 13.3147C20.3622 13.3267 20.3507 13.3385 20.3388 13.3499L12.7001 20.7197C12.3127 21.0934 11.6989 21.0934 11.3115 20.7197L3.67282 13.3499C3.66096 13.3385 3.64938 13.3267 3.6381 13.3147C1.13081 10.6441 1.76299 6.81061 3.77025 4.68768C4.7997 3.5989 6.24849 2.88681 7.90601 3.01473Z" />
</svg>
