<!--character:8157-->
  <svg width="24" height="24" viewBox="0 0 24 24" >
<path   d="M5.08021 11.9287L12.0058 18.6105L18.9314 11.9287C20.5417 10.194 20.2001 7.58322 18.7764 6.07133C18.0888 5.34122 17.2073 4.94106 16.254 5.01307C15.297 5.08536 14.0811 5.64871 12.776 7.22481C12.5861 7.45424 12.3037 7.58704 12.0058 7.58704C11.7079 7.58704 11.4256 7.45424 11.2356 7.22481C9.93065 5.64888 8.7125 5.08292 7.75212 5.0088C6.79552 4.93497 5.91172 5.33387 5.2235 6.06174C3.80008 7.56719 3.45427 10.1775 5.08021 11.9287ZM12.0058 5.10534C10.6858 3.80094 9.28761 3.12136 7.90601 3.01473C6.24849 2.88681 4.7997 3.5989 3.77025 4.68768C1.76299 6.81061 1.13081 10.6441 3.6381 13.3147C3.64938 13.3267 3.66096 13.3385 3.67282 13.3499L11.3115 20.7197C11.6989 21.0934 12.3127 21.0934 12.7001 20.7197L20.3388 13.3499C20.3507 13.3385 20.3622 13.3267 20.3735 13.3147C22.8688 10.6569 22.2324 6.82399 20.2324 4.7002C19.2057 3.60998 17.7599 2.89362 16.1033 3.01875C14.7226 3.12305 13.3254 3.80145 12.0058 5.10534Z" />
</svg>