<!--category:basic-->
<!--character:E153-->
<!--added:0.21-->
<svg width="24" height="24" viewBox="0 0 24 24" xmlns="http://www.w3.org/2000/svg"><path d="M12.5416 3.04c4.9476 0 8.9584 4.0108 8.9584 8.9584 0 4.9475-4.0108 8.9583-8.9584 8.9583a.8333.8333 0 0 1 0-1.6666c3.7751 0 6.926-2.8815 7.2626-6.6415.3366-3.7601-2.2523-7.1554-5.9674-7.826-3.715-.6706-7.3276 1.6053-8.3269 5.2458a.2075.2075 0 0 0 .2009.2633h1.4558a.4167.4167 0 0 1 .2992.7117L4.839 13.6692a.4167.4167 0 0 1-.5892 0l-2.6275-2.6258a.4167.4167 0 0 1 .2942-.7117H3.569a.2075.2075 0 0 0 .2033-.1667C4.646 6.017 8.3027 3.046 12.5416 3.04zm3.9755 11.5686a.7186.7186 0 0 1 .0445 1.0146.7258.7258 0 0 1-1.0153.0438l-3.5635-3.266a.7186.7186 0 0 1-.2328-.5302V7.9186a.7186.7186 0 0 1 1.4372 0v3.6367l3.3299 3.0533z"/></svg>