<!--character:2013-->
  <svg width="20" height="20" viewBox="0 0 20 20" >
<path d="M3.14369 8.47086C3.87157 5.01418 6.91888 2.53822 10.4514 2.53333C14.5743 2.53333 17.9167 5.87566 17.9167 9.99864C17.9167 14.1216 14.5743 17.4639 10.4514 17.4639C10.0678 17.4639 9.75691 17.153 9.75691 16.7695C9.75691 16.386 10.0678 16.0751 10.4514 16.0751C13.5973 16.075 16.223 13.6739 16.5035 10.5405C16.784 7.40708 14.6266 4.57769 11.5307 4.01886C8.43481 3.46004 5.4243 5.35658 4.59162 8.3903C4.57702 8.44253 4.58778 8.49857 4.62066 8.54169C4.65355 8.58481 4.70475 8.61 4.75898 8.60975H5.97218C6.11344 8.60807 6.24164 8.69215 6.29638 8.82239C6.35113 8.95262 6.32152 9.10304 6.22148 9.2028L4.03259 11.391C3.897 11.5266 3.6772 11.5266 3.54161 11.391L1.35202 9.2028C1.25254 9.10358 1.22267 8.95418 1.27634 8.82433C1.33002 8.69448 1.45665 8.60978 1.59716 8.60975H2.97425C3.0566 8.6097 3.12749 8.55159 3.14369 8.47086Z" />
<path d="M10.9893 9.62943L13.7642 12.1738C14.0078 12.3971 14.0244 12.7755 13.8014 13.0193C13.5763 13.2599 13.2001 13.2762 12.9552 13.0559L9.98568 10.3342C9.86188 10.2207 9.79148 10.0603 9.79167 9.89231V6.59882C9.79167 6.2681 10.0598 6 10.3905 6C10.7212 6 10.9893 6.2681 10.9893 6.59882V9.62943Z" />
</svg>