<!--character:7152-->
  <svg width="24" height="24" viewBox="0 0 24 24" >
<path d="M3.77243 10.1651C4.64589 6.01706 8.30266 3.04591 12.5416 3.04004C17.4892 3.04004 21.5 7.05084 21.5 11.9984C21.5 16.946 17.4892 20.9568 12.5416 20.9568C12.0814 20.9568 11.7083 20.5837 11.7083 20.1234C11.7083 19.6632 12.0814 19.2901 12.5416 19.2901C16.3167 19.2901 19.4676 16.4087 19.8042 12.6486C20.1408 8.88853 17.5519 5.49327 13.8368 4.82268C10.1218 4.15209 6.50916 6.42794 5.50994 10.0684C5.49243 10.1311 5.50533 10.1983 5.54479 10.2501C5.58425 10.3018 5.6457 10.332 5.71077 10.3317H7.16661C7.33613 10.3297 7.48996 10.4306 7.55566 10.5869C7.62136 10.7432 7.58582 10.9237 7.46578 11.0434L4.8391 13.6692C4.67639 13.8319 4.41264 13.8319 4.24993 13.6692L1.62242 11.0434C1.50305 10.9243 1.4672 10.7451 1.53161 10.5892C1.59602 10.4334 1.74799 10.3318 1.91659 10.3317H3.5691C3.66792 10.3317 3.75299 10.262 3.77243 10.1651Z" />
<path d="M13.1872 11.5554L16.5171 14.6086C16.8093 14.8766 16.8293 15.3307 16.5616 15.6233C16.2916 15.9119 15.8402 15.9314 15.5463 15.6671L11.9828 12.4011C11.8343 12.2649 11.7498 12.0724 11.75 11.8708V7.91863C11.75 7.52177 12.0717 7.20005 12.4686 7.20005C12.8654 7.20005 13.1872 7.52177 13.1872 7.91863V11.5554Z" />
</svg>