<!-- character:0:1351 -->
  <svg width="20" height="20" viewBox="0 0 20 20" >
<path   d="M3.14369 8.47097C3.87157 5.01429 6.91888 2.53834 10.4514 2.53345C14.5743 2.53345 17.9167 5.87578 17.9167 9.99875C17.9167 14.1217 14.5743 17.4641 10.4514 17.4641C10.0678 17.4641 9.75691 17.1531 9.75691 16.7696C9.75691 16.3861 10.0678 16.0752 10.4514 16.0752C13.5973 16.0751 16.223 13.674 16.5035 10.5406C16.784 7.40719 14.6266 4.5778 11.5307 4.01898C8.43481 3.46015 5.4243 5.35669 4.59162 8.39041C4.57702 8.44264 4.58778 8.49869 4.62066 8.54181C4.65355 8.58492 4.70475 8.61012 4.75898 8.60986H5.97218C6.11344 8.60818 6.24164 8.69227 6.29638 8.8225C6.35113 8.95274 6.32152 9.10316 6.22148 9.20292L4.03259 11.3911C3.897 11.5267 3.6772 11.5267 3.54161 11.3911L1.35202 9.20292C1.25254 9.10369 1.22267 8.95429 1.27634 8.82444C1.33002 8.69459 1.45665 8.60989 1.59716 8.60986H2.97425C3.0566 8.60982 3.12749 8.55171 3.14369 8.47097ZM10.9893 9.62955L13.7642 12.1739C14.0078 12.3973 14.0244 12.7756 13.8014 13.0195C13.5763 13.26 13.2001 13.2763 12.9552 13.056L9.98568 10.3344C9.86188 10.2208 9.79148 10.0604 9.79167 9.89243V6.59893C9.79167 6.26821 10.0598 6.00011 10.3905 6.00011C10.7212 6.00011 10.9893 6.26821 10.9893 6.59893V9.62955Z" />
</svg>