<!--character:581-->
  <svg width="24" height="24" viewBox="0 0 24 24" >
<path d="M4.89348 4.89346C6.77825 3.00869 9.33455 1.94984 12 1.94984C14.6655 1.94984 17.2218 3.00869 19.1066 4.89346C20.9913 6.77823 22.0502 9.33453 22.0502 12C22.0502 14.6655 20.9913 17.2218 19.1066 19.1065C17.2218 20.9913 14.6655 22.0502 12 22.0502C9.33455 22.0502 6.77825 20.9913 4.89348 19.1065C3.00871 17.2218 1.94985 14.6655 1.94985 12C1.94985 9.33453 3.00871 6.77823 4.89348 4.89346ZM12 3.74984C9.81194 3.74984 7.71348 4.61905 6.16627 6.16625C4.61906 7.71346 3.74985 9.81192 3.74985 12C3.74985 14.1881 4.61906 16.2865 6.16627 17.8337C7.71348 19.3809 9.81194 20.2502 12 20.2502C14.1881 20.2502 16.2866 19.3809 17.8338 17.8337C19.381 16.2865 20.2502 14.1881 20.2502 12C20.2502 9.81192 19.381 7.71346 17.8338 6.16625C16.2866 4.61905 14.1881 3.74984 12 3.74984ZM10.1699 7.43993C10.667 7.43993 11.0699 7.84288 11.0699 8.33993V11.1H12.9301V8.33993C12.9301 7.84288 13.333 7.43993 13.8301 7.43993C14.3271 7.43993 14.7301 7.84288 14.7301 8.33993V15.6601C14.7301 16.1571 14.3271 16.5601 13.8301 16.5601C13.333 16.5601 12.9301 16.1571 12.9301 15.6601V12.9H11.0699V15.6601C11.0699 16.1571 10.667 16.5601 10.1699 16.5601C9.67284 16.5601 9.2699 16.1571 9.2699 15.6601V8.33993C9.2699 7.84288 9.67284 7.43993 10.1699 7.43993Z" />
</svg>