<!--character:4029-->
  <svg width="20" height="20" viewBox="0 0 20 20" >
<path d="M11.3104 3.93707C11.0766 4.4364 10.9459 4.99355 10.9459 5.58104C10.9459 7.72499 12.6859 9.465 14.8299 9.465C15.1119 9.465 15.3869 9.43489 15.6519 9.37772V15.445C15.6519 16.353 14.9159 17.089 14.0079 17.089H4.14399C3.23604 17.089 2.5 16.353 2.5 15.445V5.58106C2.5 4.67311 3.23604 3.93707 4.14399 3.93707H11.3104Z" />
<path d="M14.8299 2.911C13.3561 2.911 12.1599 4.10718 12.1599 5.58106C12.1599 7.05493 13.3561 8.25112 14.8299 8.25112C16.3038 8.25112 17.5 7.05493 17.5 5.58106C17.5 4.10718 16.3038 2.911 14.8299 2.911Z" />
</svg>