<!--character:6431-->
  <svg width="24" height="24" viewBox="0 0 24 24" >
<path d="M13.5725 4.7245C13.2919 5.3237 13.1351 5.99228 13.1351 6.69726C13.1351 9.27 15.2231 11.358 17.7959 11.358C18.1343 11.358 18.4643 11.3219 18.7823 11.2533V18.534C18.7823 19.6236 17.8991 20.5068 16.8095 20.5068H4.97279C3.88325 20.5068 3 19.6236 3 18.534V6.69729C3 5.60775 3.88325 4.7245 4.97279 4.7245H13.5725Z" />
<path d="M17.7959 3.49321C16.0273 3.49321 14.5919 4.92864 14.5919 6.69729C14.5919 8.46593 16.0273 9.90136 17.7959 9.90136C19.5646 9.90136 21 8.46593 21 6.69729C21 4.92864 19.5646 3.49321 17.7959 3.49321Z" />
</svg>