<!--character:2187-->
  <svg width="24" height="24" viewBox="0 0 24 24" >
<path d="M13.5725 4.72448C13.2919 5.32368 13.1351 5.99227 13.1351 6.69725C13.1351 9.26998 15.2231 11.358 17.7959 11.358C18.1343 11.358 18.4643 11.3219 18.7823 11.2533V18.534C18.7823 19.6236 17.8991 20.5068 16.8095 20.5068H4.97279C3.88325 20.5068 3 19.6236 3 18.534V6.69727C3 5.60773 3.88325 4.72448 4.97279 4.72448H13.5725Z" />
<path d="M17.7959 3.49319C16.0273 3.49319 14.5919 4.92862 14.5919 6.69727C14.5919 8.46592 16.0273 9.90134 17.7959 9.90134C19.5646 9.90134 21 8.46592 21 6.69727C21 4.92862 19.5646 3.49319 17.7959 3.49319Z" />
</svg>