<!-- character:1047:998 -->
  <svg width="20" height="20" viewBox="0 0 20 20" >
<path d="M11.3104 3.93708C11.0766 4.43642 10.9459 4.99357 10.9459 5.58105C10.9459 7.725 12.6859 9.46502 14.8299 9.46502C15.1119 9.46502 15.3869 9.43491 15.6519 9.37774V15.445C15.6519 16.353 14.9159 17.089 14.0079 17.089H4.14399C3.23604 17.089 2.5 16.353 2.5 15.445V5.58108C2.5 4.67312 3.23604 3.93708 4.14399 3.93708H11.3104Z" />
<path   d="M14.8299 2.91101C13.3561 2.91101 12.1599 4.1072 12.1599 5.58107C12.1599 7.05494 13.3561 8.25113 14.8299 8.25113C16.3038 8.25113 17.5 7.05494 17.5 5.58107C17.5 4.1072 16.3038 2.91101 14.8299 2.91101Z" />
</svg>