<!--character:4955-->
  <svg width="20" height="20" viewBox="0 0 20 20" >
<path d="M7.66019 10.0346C7.15207 10.0346 6.73999 9.62247 6.73999 9.11434C6.73999 8.60622 7.15207 8.19413 7.66019 8.19413C8.16832 8.19413 8.5804 8.60622 8.5804 9.11434C8.5804 9.62247 8.16832 10.0346 7.66019 10.0346Z" />
<path d="M11.2201 9.11434C11.2201 8.60622 11.6322 8.19413 12.1403 8.19413C12.6484 8.19413 13.0605 8.60622 13.0605 9.11434C13.0605 9.62247 12.6484 10.0346 12.1403 10.0346C11.6322 10.0346 11.2201 9.62247 11.2201 9.11434Z" />
<path d="M9.8959 12.7257C10.8164 12.7257 11.5415 12.3195 11.5415 11.399C11.5415 10.4785 10.7953 10.4645 9.87484 10.4645C8.95436 10.4645 8.20817 10.4785 8.20817 11.399C8.20817 12.3195 8.97543 12.7257 9.8959 12.7257Z" />
<path d="M16.5077 6.11612C16.8444 6.1703 17.2549 6.30458 17.6109 6.61848C17.9404 6.90877 18.3332 7.45984 18.3332 8.43611C18.3332 9.2256 17.9969 9.71025 17.7146 9.97756C17.3351 10.3375 16.8646 10.4944 16.4923 10.5617C16.3976 10.586 16.3166 10.6569 16.2595 10.7674C14.8746 13.4465 12.756 15.1852 9.88214 16.0021C9.86504 16.007 9.84727 16.0119 9.82908 16.0169C9.81119 16.0219 9.79289 16.027 9.7744 16.0322C7.06791 15.1373 5.06556 13.4302 3.74907 10.909C3.67698 10.771 3.57252 10.6851 3.44929 10.6771C2.71117 10.5415 1.9383 10.0755 1.72876 9.04388C1.52764 8.05348 1.85187 7.39722 2.15924 7.02092C2.53722 6.5584 3.05266 6.30796 3.5253 6.20234C3.87398 5.32958 4.79544 3.45715 6.55552 2.53969C7.81301 1.88406 9.0743 1.56637 10.3029 1.59209H10.3086C10.3157 1.59219 10.3228 1.59201 10.3298 1.59184C10.338 1.59164 10.3462 1.59144 10.3544 1.59167C10.6857 1.60115 11.018 1.63636 11.3422 1.69644C13.8949 2.16887 15.8633 4.21354 16.5077 6.11612ZM15.9472 9.13453C16.0739 9.1398 16.4919 9.10691 16.7025 8.90369C16.7692 8.8396 16.8575 8.72134 16.8575 8.43611C16.8575 8.09796 16.7843 7.86038 16.6399 7.72968C16.4207 7.53119 16.0378 7.56002 16.0221 7.5612C15.6435 7.60041 15.2886 7.34515 15.2142 6.97286C15.0051 5.92681 13.9704 4.33455 12.2966 3.54421C12.3206 3.78981 12.312 4.0685 12.247 4.38556C11.9806 5.68712 10.9634 6.11296 10.1617 6.11296C10.0278 6.11296 9.90026 6.10115 9.78305 6.07965C9.3823 6.00565 9.11731 5.62092 9.19109 5.22017C9.26445 4.82236 9.64434 4.55864 10.0419 4.62673C10.4602 4.68976 10.7153 4.50973 10.8013 4.08979C10.8635 3.78559 10.8399 3.54843 10.7311 3.38484C10.608 3.19995 10.3748 3.10256 10.2508 3.06735C9.27879 3.05302 8.2652 3.31274 7.23749 3.8482C5.50462 4.75153 4.77837 7.0692 4.7712 7.0926C4.67613 7.40271 4.38942 7.61605 4.06519 7.61605C3.83098 7.61605 3.4922 7.72209 3.30184 7.95482C3.14626 8.14519 3.10473 8.40533 3.17493 8.75022C3.28434 9.28926 3.88495 9.25827 4.06667 9.23593C4.09723 9.23234 4.1278 9.23045 4.15795 9.23045C4.52518 9.23045 4.84878 9.50176 4.89621 9.87427C5.16563 11.9929 7.1909 12.9932 7.21135 13.0031C7.24213 13.0181 7.27186 13.035 7.30032 13.0539C8.52682 13.8725 10.1271 13.8101 10.1442 13.8089C10.1617 13.8082 10.1813 13.8076 10.1988 13.8082L10.2023 13.8082C10.2832 13.8071 11.7125 13.7886 13.1358 12.7093C14.8756 11.3896 15.1763 9.77139 15.1788 9.75537C15.2382 9.38202 15.569 9.1126 15.9472 9.13453Z" />
<path d="M3.38256 11.959C3.26479 15.8986 5.31759 18.4125 9.9997 18.4125C11.615 18.4125 12.9182 18.1133 13.9312 17.5846C9.03748 17.3699 5.50529 15.4931 3.38256 11.959Z" />
<path d="M15.0889 16.7713C16.382 15.5626 16.8728 13.7846 16.6665 11.774L16.6649 11.758C15.3756 13.9555 13.564 15.5138 11.2411 16.4235C12.3856 16.6617 13.6365 16.7778 14.9948 16.7718C15.0048 16.7717 15.0155 16.7717 15.0271 16.7716C15.0458 16.7715 15.0666 16.7713 15.0889 16.7713Z" />
</svg>