<!-- character:0:748 -->
  <svg width="20" height="20" viewBox="0 0 20 20" >
<path d="M7.66038 10.0345C7.15225 10.0345 6.74017 9.62246 6.74017 9.11434C6.74017 8.60621 7.15225 8.19413 7.66038 8.19413C8.1685 8.19413 8.58059 8.60621 8.58059 9.11434C8.58059 9.62246 8.1685 10.0345 7.66038 10.0345Z" />
<path d="M11.2203 9.11434C11.2203 8.60621 11.6323 8.19413 12.1405 8.19413C12.6486 8.19413 13.0607 8.60621 13.0607 9.11434C13.0607 9.62246 12.6486 10.0345 12.1405 10.0345C11.6323 10.0345 11.2203 9.62246 11.2203 9.11434Z" />
<path d="M9.89609 12.7257C10.8166 12.7257 11.5417 12.3194 11.5417 11.399C11.5417 10.4785 10.7955 10.4645 9.87502 10.4645C8.95455 10.4645 8.20835 10.4785 8.20835 11.399C8.20835 12.3194 8.97561 12.7257 9.89609 12.7257Z" />
<path   d="M16.5079 6.11611C16.8446 6.17029 17.255 6.30458 17.6111 6.61848C17.9406 6.90876 18.3334 7.45983 18.3334 8.4361C18.3334 9.22559 17.9971 9.71025 17.7148 9.97756C17.3353 10.3374 16.8648 10.4944 16.4925 10.5617L16.4927 10.5626C16.3979 10.5869 16.3168 10.6569 16.2597 10.7674C14.8748 13.4465 12.7562 15.1852 9.88232 16.0021C9.86522 16.007 9.84746 16.0119 9.82926 16.0169C9.81138 16.0219 9.79307 16.027 9.77458 16.0322C7.06809 15.1373 5.06574 13.4302 3.74925 10.909C3.67716 10.771 3.5727 10.6851 3.44947 10.6771C2.71135 10.5414 1.93848 10.0755 1.72894 9.04387C1.52783 8.05348 1.85206 7.39722 2.15942 7.02092C2.53741 6.5584 3.05284 6.30795 3.52548 6.20233C3.87417 5.32957 4.79563 3.45714 6.5557 2.53968C7.81319 1.88406 9.07448 1.56636 10.3031 1.59208H10.3088C10.3159 1.59218 10.323 1.59201 10.33 1.59183C10.3382 1.59163 10.3464 1.59143 10.3545 1.59166C10.6859 1.60115 11.0182 1.63635 11.3424 1.69643C13.8951 2.16886 15.8635 4.21353 16.5079 6.11611ZM15.9474 9.13452C16.0741 9.13979 16.4921 9.1069 16.7027 8.90368C16.7693 8.83959 16.8577 8.72133 16.8577 8.4361C16.8577 8.09796 16.7845 7.86037 16.6401 7.72967C16.4209 7.53118 16.038 7.56001 16.0223 7.56119C15.6437 7.6004 15.2888 7.34515 15.2144 6.97285C15.0053 5.9268 13.9706 4.33454 12.2967 3.5442C12.3208 3.7898 12.3121 4.06849 12.2472 4.38555C11.9807 5.68711 10.9636 6.11295 10.1619 6.11295C10.028 6.11295 9.90044 6.10114 9.78323 6.07964C9.38248 6.00565 9.11749 5.62091 9.19127 5.22016C9.26464 4.82236 9.64452 4.55863 10.0421 4.62672C10.4604 4.68976 10.7154 4.50972 10.8015 4.08978C10.8636 3.78558 10.84 3.54842 10.7313 3.38483C10.6081 3.19995 10.375 3.10255 10.251 3.06735C9.27897 3.05301 8.26539 3.31273 7.23768 3.84819C5.5048 4.75152 4.77855 7.06919 4.77138 7.09259C4.67631 7.4027 4.3896 7.61604 4.06537 7.61604C3.83116 7.61604 3.49239 7.72208 3.30202 7.95481C3.14644 8.14518 3.10491 8.40532 3.17511 8.75021C3.28453 9.28926 3.88513 9.25827 4.06685 9.23592C4.09742 9.23234 4.12799 9.23044 4.15813 9.23044C4.52537 9.23044 4.84896 9.50175 4.8964 9.87426C5.16581 11.9929 7.19109 12.9932 7.21154 13.0031C7.24231 13.0181 7.27204 13.035 7.3005 13.0539C8.527 13.8725 10.1273 13.8101 10.1444 13.8089C10.1619 13.8082 10.1815 13.8076 10.199 13.8082L10.2025 13.8082C10.2833 13.8071 11.7127 13.7886 13.136 12.7093C14.8758 11.3896 15.1764 9.77138 15.179 9.75536C15.2384 9.38201 15.5692 9.11259 15.9474 9.13452Z" />
<path d="M3.38274 11.959C3.26497 15.8986 5.31778 18.4125 9.99989 18.4125C11.6152 18.4125 12.9184 18.1133 13.9314 17.5846C9.03766 17.3699 5.50547 15.4931 3.38274 11.959Z" />
<path d="M15.0891 16.7713C16.3822 15.5626 16.873 13.7846 16.6667 11.774L16.665 11.758C15.3758 13.9555 13.5641 15.5138 11.2413 16.4235C12.3858 16.6617 13.6366 16.7778 14.995 16.7718C15.0049 16.7717 15.0157 16.7717 15.0272 16.7716C15.046 16.7715 15.0667 16.7713 15.0891 16.7713Z" />
</svg>