<!--character:1304-->
  <svg width="24" height="24" viewBox="0 0 24 24" >
<path d="M9.19223 12.0415C8.58248 12.0415 8.08798 11.547 8.08798 10.9372C8.08798 10.3275 8.58248 9.83296 9.19223 9.83296C9.80198 9.83296 10.2965 10.3275 10.2965 10.9372C10.2965 11.547 9.80198 12.0415 9.19223 12.0415Z" />
<path d="M13.4641 10.9372C13.4641 10.3275 13.9586 9.83296 14.5683 9.83296C15.1781 9.83296 15.6726 10.3275 15.6726 10.9372C15.6726 11.547 15.1781 12.0415 14.5683 12.0415C13.9586 12.0415 13.4641 11.547 13.4641 10.9372Z" />
<path d="M11.8751 15.2709C12.9797 15.2709 13.8498 14.7833 13.8498 13.6788C13.8498 12.5742 12.9544 12.5574 11.8498 12.5574C10.7452 12.5574 9.84981 12.5742 9.84981 13.6788C9.84981 14.7833 10.7705 15.2709 11.8751 15.2709Z" />
<path d="M19.8093 7.33934C20.2133 7.40436 20.7058 7.5655 21.1331 7.94218C21.5285 8.29053 21.9998 8.9518 21.9998 10.1233C21.9998 11.0707 21.5963 11.6523 21.2576 11.9731C20.8021 12.4049 20.2375 12.5933 19.7908 12.674C19.6771 12.7032 19.5799 12.7883 19.5114 12.9209C17.8495 16.1358 15.3072 18.2222 11.8586 19.2026C11.838 19.2084 11.8167 19.2143 11.7949 19.2203C11.7734 19.2263 11.7515 19.2324 11.7293 19.2386C8.48149 18.1648 6.07867 16.1163 4.49888 13.0909C4.41237 12.9252 4.28702 12.8222 4.13915 12.8125C3.2534 12.6497 2.32596 12.0906 2.07451 10.8527C1.83317 9.66418 2.22225 8.87667 2.59109 8.42511C3.04467 7.87008 3.66319 7.56955 4.23036 7.44281C4.64878 6.39549 5.75453 4.14857 7.86662 3.04763C9.37561 2.26088 10.8892 1.87964 12.3635 1.91051H12.3703C12.3789 1.91062 12.3874 1.91042 12.3958 1.91021C12.4056 1.90997 12.4154 1.90973 12.4252 1.91C12.8229 1.92139 13.2216 1.96363 13.6107 2.03573C16.6739 2.60265 19.036 5.05625 19.8093 7.33934ZM19.1366 10.9614C19.2887 10.9678 19.7903 10.9283 20.043 10.6844C20.123 10.6075 20.229 10.4656 20.229 10.1233C20.229 9.71756 20.1412 9.43245 19.9679 9.27561C19.7048 9.03742 19.2454 9.07202 19.2265 9.07344C18.7722 9.12049 18.3463 8.81418 18.257 8.36743C18.0061 7.11217 16.7645 5.20145 14.7559 4.25305C14.7847 4.54777 14.7743 4.8822 14.6964 5.26267C14.3767 6.82454 13.1561 7.33555 12.194 7.33555C12.0334 7.33555 11.8803 7.32138 11.7397 7.29558C11.2588 7.20678 10.9408 6.74511 11.0293 6.2642C11.1173 5.78684 11.5732 5.47037 12.0503 5.55208C12.5522 5.62772 12.8583 5.41168 12.9615 4.90775C13.0362 4.54271 13.0078 4.25811 12.8773 4.0618C12.7296 3.83994 12.4498 3.72307 12.301 3.68082C11.1345 3.66362 9.91824 3.97529 8.68499 4.61784C6.60554 5.70184 5.73404 8.48304 5.72544 8.51112C5.61135 8.88325 5.2673 9.13926 4.87823 9.13926C4.59717 9.13926 4.19064 9.2665 3.96221 9.54579C3.77551 9.77422 3.72568 10.0864 3.80992 10.5003C3.94121 11.1471 4.66194 11.1099 4.88 11.0831C4.91668 11.0788 4.95336 11.0765 4.98954 11.0765C5.43022 11.0765 5.81854 11.4021 5.87546 11.8491C6.19876 14.3915 8.62908 15.5919 8.65362 15.6038C8.69056 15.6217 8.72623 15.642 8.76038 15.6647C10.2322 16.647 12.1525 16.5722 12.173 16.5706C12.194 16.5699 12.2175 16.5691 12.2385 16.5699L12.2427 16.5698C12.3398 16.5686 14.055 16.5464 15.763 15.2511C17.8508 13.6675 18.2115 11.7257 18.2145 11.7064C18.2859 11.2584 18.6828 10.9351 19.1366 10.9614Z" />
<path d="M4.05907 14.3508C3.91774 19.0783 6.38111 22.095 11.9996 22.095C13.938 22.095 15.5019 21.7359 16.7175 21.1015C10.845 20.8439 6.60635 18.5918 4.05907 14.3508Z" />
<path d="M18.1067 20.1255C19.6584 18.6752 20.2473 16.5415 19.9998 14.1288L19.9978 14.1096C18.4507 16.7466 16.2768 18.6166 13.4894 19.7082C14.8627 19.994 16.3637 20.1333 17.9938 20.1261C18.0057 20.1261 18.0186 20.126 18.0325 20.1259C18.055 20.1258 18.0799 20.1256 18.1067 20.1255Z" />
</svg>