<!--character:9347-->
  <svg width="24" height="24" viewBox="0 0 24 24" >
<path d="M9.19244 12.0415C8.58269 12.0415 8.08819 11.547 8.08819 10.9372C8.08819 10.3275 8.58269 9.83296 9.19244 9.83296C9.80219 9.83296 10.2967 10.3275 10.2967 10.9372C10.2967 11.547 9.80219 12.0415 9.19244 12.0415Z" />
<path d="M13.4643 10.9372C13.4643 10.3275 13.9588 9.83296 14.5685 9.83296C15.1783 9.83296 15.6728 10.3275 15.6728 10.9372C15.6728 11.547 15.1783 12.0415 14.5685 12.0415C13.9588 12.0415 13.4643 11.547 13.4643 10.9372Z" />
<path d="M11.8753 15.2709C12.9799 15.2709 13.85 14.7833 13.85 13.6788C13.85 12.5742 12.9546 12.5574 11.85 12.5574C10.7454 12.5574 9.85001 12.5742 9.85001 13.6788C9.85001 14.7833 10.7707 15.2709 11.8753 15.2709Z" />
<path d="M19.8095 7.33934C20.2135 7.40436 20.706 7.5655 21.1333 7.94218C21.5287 8.29053 22 8.9518 22 10.1233C22 11.0707 21.5965 11.6523 21.2578 11.9731C20.8023 12.4049 20.2377 12.5933 19.791 12.674C19.6773 12.7032 19.5801 12.7883 19.5116 12.9209C17.8497 16.1358 15.3074 18.2222 11.8588 19.2026C11.8383 19.2084 11.8169 19.2143 11.7951 19.2203C11.7736 19.2263 11.7517 19.2324 11.7295 19.2386C8.48169 18.1648 6.07888 16.1163 4.49908 13.0909C4.41258 12.9252 4.28722 12.8222 4.13935 12.8125C3.2536 12.6497 2.32616 12.0906 2.07471 10.8527C1.83338 9.66418 2.22245 8.87667 2.59129 8.42511C3.04487 7.87008 3.66339 7.56955 4.23056 7.44281C4.64898 6.39549 5.75474 4.14857 7.86682 3.04763C9.37581 2.26088 10.8894 1.87964 12.3637 1.91051H12.3705C12.3791 1.91062 12.3876 1.91042 12.396 1.91021C12.4058 1.90997 12.4156 1.90973 12.4254 1.91C12.8231 1.92139 13.2218 1.96363 13.6109 2.03573C16.6741 2.60265 19.0362 5.05625 19.8095 7.33934ZM19.1368 10.9614C19.2889 10.9678 19.7905 10.9283 20.0432 10.6844C20.1232 10.6075 20.2292 10.4656 20.2292 10.1233C20.2292 9.71756 20.1414 9.43245 19.9681 9.27561C19.705 9.03742 19.2456 9.07202 19.2267 9.07344C18.7724 9.12049 18.3465 8.81418 18.2572 8.36743C18.0063 7.11217 16.7647 5.20145 14.7561 4.25305C14.7849 4.54777 14.7745 4.8822 14.6966 5.26267C14.3769 6.82454 13.1563 7.33555 12.1942 7.33555C12.0336 7.33555 11.8805 7.32138 11.7399 7.29558C11.259 7.20678 10.941 6.74511 11.0295 6.2642C11.1175 5.78684 11.5734 5.47037 12.0505 5.55208C12.5524 5.62772 12.8585 5.41168 12.9617 4.90775C13.0364 4.54271 13.008 4.25811 12.8775 4.0618C12.7298 3.83994 12.45 3.72307 12.3012 3.68082C11.1347 3.66362 9.91844 3.97529 8.68519 4.61784C6.60574 5.70184 5.73424 8.48304 5.72564 8.51112C5.61155 8.88325 5.26751 9.13926 4.87843 9.13926C4.59738 9.13926 4.19085 9.2665 3.96241 9.54579C3.77571 9.77422 3.72588 10.0864 3.81012 10.5003C3.94141 11.1471 4.66214 11.1099 4.8802 11.0831C4.91688 11.0788 4.95356 11.0765 4.98974 11.0765C5.43042 11.0765 5.81874 11.4021 5.87566 11.8491C6.19896 14.3915 8.62929 15.5919 8.65382 15.6038C8.69076 15.6217 8.72643 15.642 8.76058 15.6647C10.2324 16.647 12.1527 16.5722 12.1732 16.5706C12.1942 16.5699 12.2177 16.5691 12.2387 16.5699L12.2429 16.5698C12.34 16.5686 14.0552 16.5464 15.7632 15.2511C17.851 13.6675 18.2117 11.7257 18.2147 11.7064C18.2861 11.2584 18.683 10.9351 19.1368 10.9614Z" />
<path d="M4.05927 14.3508C3.91795 19.0783 6.38131 22.095 11.9998 22.095C13.9382 22.095 15.5021 21.7359 16.7177 21.1015C10.8452 20.8439 6.60655 18.5918 4.05927 14.3508Z" />
<path d="M18.1069 20.1255C19.6586 18.6752 20.2475 16.5415 20 14.1288L19.998 14.1096C18.4509 16.7466 16.277 18.6166 13.4896 19.7082C14.8629 19.994 16.3639 20.1333 17.994 20.1261C18.0059 20.1261 18.0188 20.126 18.0327 20.1259C18.0552 20.1258 18.0801 20.1256 18.1069 20.1255Z" />
</svg>