<!--character:$550:1739-->
  <svg width="24" height="24" viewBox="0 0 24 24" >
<path d="M9.19243 12.0414C8.58268 12.0414 8.08818 11.5469 8.08818 10.9372C8.08818 10.3274 8.58268 9.83294 9.19243 9.83294C9.80218 9.83294 10.2967 10.3274 10.2967 10.9372C10.2967 11.5469 9.80218 12.0414 9.19243 12.0414Z" />
<path d="M13.4643 10.9372C13.4643 10.3274 13.9588 9.83294 14.5685 9.83294C15.1783 9.83294 15.6728 10.3274 15.6728 10.9372C15.6728 11.5469 15.1783 12.0414 14.5685 12.0414C13.9588 12.0414 13.4643 11.5469 13.4643 10.9372Z" />
<path d="M11.8753 15.2708C12.9798 15.2708 13.85 14.7833 13.85 13.6788C13.85 12.5742 12.9546 12.5574 11.85 12.5574C10.7454 12.5574 9.85 12.5742 9.85 13.6788C9.85 14.7833 10.7707 15.2708 11.8753 15.2708Z" />
<path d="M19.8095 7.33932C20.2135 7.40434 20.706 7.56548 21.1333 7.94216C21.5287 8.29051 22 8.95178 22 10.1233C22 11.0707 21.5965 11.6523 21.2578 11.9731C20.8023 12.4049 20.2377 12.5933 19.791 12.674L19.7912 12.6751C19.6775 12.7043 19.5801 12.7883 19.5116 12.9209C17.8497 16.1357 15.3074 18.2222 11.8588 19.2025C11.8382 19.2084 11.8169 19.2143 11.7951 19.2203C11.7736 19.2263 11.7517 19.2323 11.7295 19.2386C8.48169 18.1648 6.07887 16.1162 4.49908 13.0908C4.41257 12.9252 4.28722 12.8221 4.13934 12.8125C3.25359 12.6497 2.32616 12.0906 2.07471 10.8526C1.83337 9.66416 2.22244 8.87665 2.59128 8.42509C3.04486 7.87006 3.66339 7.56953 4.23056 7.44279C4.64898 6.39547 5.75473 4.14855 7.86681 3.04761C9.37581 2.26086 10.8894 1.87962 12.3637 1.91049H12.3705C12.3791 1.9106 12.3876 1.9104 12.396 1.91019C12.4058 1.90995 12.4156 1.90971 12.4254 1.90998C12.8231 1.92136 13.2218 1.96361 13.6109 2.03571C16.6741 2.60262 19.0361 5.05623 19.8095 7.33932ZM19.1368 10.9614C19.2889 10.9677 19.7905 10.9283 20.0432 10.6844C20.1232 10.6075 20.2292 10.4656 20.2292 10.1233C20.2292 9.71754 20.1414 9.43243 19.9681 9.27559C19.705 9.0374 19.2456 9.072 19.2267 9.07342C18.7724 9.12047 18.3465 8.81416 18.2572 8.36741C18.0063 7.11215 16.7647 5.20143 14.7561 4.25303C14.7849 4.54775 14.7745 4.88218 14.6966 5.26265C14.3769 6.82452 13.1563 7.33553 12.1942 7.33553C12.0336 7.33553 11.8805 7.32136 11.7399 7.29556C11.259 7.20676 10.941 6.74508 11.0295 6.26418C11.1175 5.78682 11.5734 5.47035 12.0505 5.55206C12.5524 5.6277 12.8585 5.41166 12.9617 4.90773C13.0364 4.54269 13.008 4.25809 12.8775 4.06178C12.7297 3.83992 12.45 3.72305 12.3012 3.6808C11.1347 3.6636 9.91844 3.97527 8.68519 4.61782C6.60574 5.70182 5.73424 8.48302 5.72564 8.5111C5.61155 8.88323 5.2675 9.13924 4.87842 9.13924C4.59737 9.13924 4.19084 9.26648 3.9624 9.54577C3.77571 9.7742 3.72587 10.0864 3.81011 10.5002C3.94141 11.1471 4.66213 11.1099 4.8802 11.0831C4.91688 11.0788 4.95356 11.0765 4.98973 11.0765C5.43042 11.0765 5.81873 11.4021 5.87565 11.8491C6.19895 14.3915 8.62928 15.5919 8.65382 15.6038C8.69075 15.6217 8.72642 15.6419 8.76057 15.6647C10.2324 16.647 12.1527 16.5721 12.1732 16.5706C12.1942 16.5699 12.2177 16.5691 12.2387 16.5699L12.2429 16.5698C12.34 16.5685 14.0552 16.5463 15.7632 15.2511C17.851 13.6675 18.2117 11.7256 18.2147 11.7064C18.2861 11.2584 18.683 10.9351 19.1368 10.9614Z" />
<path d="M4.05927 14.3508C3.91794 19.0783 6.38131 22.0949 11.9998 22.0949C13.9382 22.0949 15.5021 21.7359 16.7177 21.1015C10.8452 20.8439 6.60654 18.5917 4.05927 14.3508Z" />
<path d="M18.1069 20.1255C19.6586 18.6751 20.2475 16.5415 20 14.1288L19.998 14.1096C18.4509 16.7466 16.2769 18.6166 13.4896 19.7081C14.8629 19.994 16.3639 20.1333 17.994 20.1261C18.0059 20.1261 18.0188 20.126 18.0327 20.1259C18.0552 20.1258 18.0801 20.1256 18.1069 20.1255Z" />
</svg>