<!--character:488-->
  <svg width="24" height="24" viewBox="0 0 24 24" >
<path d="M5.58931 8.1564C5.67468 4.6881 8.51299 1.90276 12.0019 1.90276C15.5445 1.90276 18.4164 4.77464 18.4164 8.31728V15.6827C18.4164 19.2254 15.5445 22.0972 12.0019 22.0972C8.45921 22.0972 5.58733 19.2254 5.58733 15.6827V8.65313C5.58481 8.57931 5.58354 8.50517 5.58354 8.43073C5.58354 8.33883 5.58548 8.24737 5.58931 8.1564ZM7.38733 8.6193C7.48624 11.0793 9.51177 13.0432 11.996 13.0432C14.5434 13.0432 16.6085 10.9781 16.6085 8.43073C16.6085 5.88334 14.5434 3.81828 11.996 3.81828C9.52008 3.81828 7.4998 5.76909 7.38839 8.21749C7.38768 8.25067 7.38733 8.28394 7.38733 8.31728V8.6193ZM7.38733 12.8894V14.8406L16.2026 17.5954C16.4683 17.0127 16.6164 16.365 16.6164 15.6827V12.8773C15.4498 14.0892 13.811 14.8432 11.996 14.8432C10.1871 14.8432 8.55314 14.0942 7.38733 12.8894ZM7.5153 16.7665C8.00284 18.7921 9.82658 20.2972 12.0019 20.2972C13.1807 20.2972 14.2562 19.8552 15.0719 19.1279L7.5153 16.7665ZM8.82622 8.18758C8.82622 7.69052 9.22916 7.28758 9.72622 7.28758H10.5024C10.9995 7.28758 11.4024 7.69052 11.4024 8.18758C11.4024 8.68463 10.9995 9.08758 10.5024 9.08758H9.72622C9.22916 9.08758 8.82622 8.68463 8.82622 8.18758ZM12.6362 8.18758C12.6362 7.69052 13.0391 7.28758 13.5362 7.28758H14.3123C14.8094 7.28758 15.2123 7.69052 15.2123 8.18758C15.2123 8.68463 14.8094 9.08758 14.3123 9.08758H13.5362C13.0391 9.08758 12.6362 8.68463 12.6362 8.18758Z" />
</svg>