<!-- character:0:3 -->
  <svg width="20" height="20" viewBox="0 0 20 20" >
<path   d="M11.3334 6.08342C11.3334 5.50564 10.8278 5.00008 10.25 5.00008C9.67224 5.00008 9.16669 5.50564 9.16669 6.08342C9.16669 6.66119 9.60002 7.16675 10.25 7.16675C10.9 7.16675 11.3334 6.66119 11.3334 6.08342ZM9.0278 14.1667H11.8056C12.2222 14.1667 12.5 13.9701 12.5 13.5769C12.5 13.1836 12.2222 12.9214 11.8056 12.9214H11.25C11.1806 12.9214 11.1111 12.8559 11.1111 12.7903V9.64428C11.1111 8.9233 10.4861 8.33341 9.72224 8.33341H9.0278C8.61113 8.33341 8.33335 8.59559 8.33335 8.98884C8.33335 9.3821 8.61113 9.64428 9.0278 9.64428H9.58335C9.6528 9.64428 9.72224 9.70982 9.72224 9.77536V12.7248C9.72224 12.7903 9.6528 12.8559 9.58335 12.8559H9.0278C8.61113 12.8559 8.33335 13.1181 8.33335 13.5113C8.33335 13.9046 8.61113 14.1667 9.0278 14.1667ZM10 1.66675C5.41669 1.66675 1.66669 5.41675 1.66669 10.0001C1.66669 14.5834 5.41669 18.3334 10 18.3334C14.5834 18.3334 18.3334 14.5834 18.3334 10.0001C18.3334 5.41675 14.5834 1.66675 10 1.66675Z" />
</svg>