<!--character:1671-->
  <svg width="20" height="20" viewBox="0 0 20 20" >
<path d="M11.3332 6.08333C11.3332 6.66111 10.8998 7.16666 10.2498 7.16666C9.59984 7.16666 9.1665 6.66111 9.1665 6.08333C9.1665 5.50555 9.67206 5 10.2498 5C10.8276 5 11.3332 5.50555 11.3332 6.08333ZM9.02761 14.1667C8.61095 14.1667 8.33317 13.9045 8.33317 13.5112C8.33317 13.118 8.61095 12.8558 9.02761 12.8558H9.58317C9.65261 12.8558 9.72206 12.7903 9.72206 12.7247V9.77528C9.72206 9.70973 9.65261 9.64419 9.58317 9.64419H9.02761C8.61095 9.64419 8.33317 9.38202 8.33317 8.98876C8.33317 8.5955 8.61095 8.33333 9.02761 8.33333H9.72206C10.4859 8.33333 11.1109 8.92322 11.1109 9.64419V12.7903C11.1109 12.8558 11.1804 12.9213 11.2498 12.9213H11.8054C12.2221 12.9213 12.4998 13.1835 12.4998 13.5768C12.4998 13.97 12.2221 14.1667 11.8054 14.1667H9.02761ZM9.99984 1.66666C5.4165 1.66666 1.6665 5.41666 1.6665 10C1.6665 14.5833 5.4165 18.3333 9.99984 18.3333C14.5832 18.3333 18.3332 14.5833 18.3332 10C18.3332 5.41666 14.5832 1.66666 9.99984 1.66666Z" />
</svg>