<!--character:4154:257-->
  <svg width="24" height="24" viewBox="0 0 24 24" >
<path   d="M4.86884 4.86878C6.76016 2.97746 9.32533 1.91493 12.0001 1.91493C13.3244 1.91493 14.6359 2.17579 15.8594 2.68261C17.083 3.18943 18.1948 3.93229 19.1313 4.86878C20.0678 5.80526 20.8106 6.91703 21.3174 8.14061C21.8243 9.36419 22.0851 10.6756 22.0851 12C22.0851 13.3244 21.8243 14.6358 21.3174 15.8594C20.8106 17.083 20.0678 18.1947 19.1313 19.1312C18.1948 20.0677 17.083 20.8106 15.8594 21.3174C14.6359 21.8242 13.3244 22.0851 12.0001 22.0851C9.32533 22.0851 6.76016 21.0225 4.86884 19.1312C2.97752 17.2399 1.91499 14.6747 1.91499 12C1.91499 9.32527 2.97752 6.7601 4.86884 4.86878ZM12.0001 3.71493C9.80272 3.71493 7.69538 4.58782 6.14163 6.14157C4.58788 7.69532 3.71499 9.80266 3.71499 12C3.71499 14.1973 4.58788 16.3047 6.14163 17.8584C7.69538 19.4122 9.80272 20.2851 12.0001 20.2851C13.0881 20.2851 14.1654 20.0708 15.1706 19.6544C16.1758 19.238 17.0891 18.6278 17.8585 17.8584C18.6278 17.0891 19.2381 16.1757 19.6545 15.1706C20.0708 14.1654 20.2851 13.088 20.2851 12C20.2851 10.912 20.0708 9.83463 19.6545 8.82944C19.2381 7.82425 18.6278 6.91091 17.8585 6.14157C17.0891 5.37223 16.1758 4.76196 15.1706 4.34559C14.1654 3.92923 13.0881 3.71493 12.0001 3.71493Z" />
<path d="M12.0001 6.0375C11.6655 6.0375 11.3446 6.17042 11.108 6.40702C10.8714 6.64361 10.7384 6.9645 10.7384 7.29911C10.7384 7.63371 10.8714 7.9546 11.108 8.1912C11.3446 8.42779 11.6655 8.56071 12.0001 8.56071C12.3347 8.56071 12.6555 8.42779 12.8921 8.1912C13.1287 7.9546 13.2617 7.63371 13.2617 7.29911C13.2617 6.9645 13.1287 6.64361 12.8921 6.40702C12.6555 6.17042 12.3347 6.0375 12.0001 6.0375Z" />
<path d="M10.5536 9.65068C10.0566 9.65068 9.65363 10.0536 9.65363 10.5507C9.65363 11.0477 10.0566 11.4507 10.5536 11.4507C10.8554 11.4507 11.1001 11.6953 11.1001 11.9971V15.4364H10.5536C10.0566 15.4364 9.65363 15.8393 9.65363 16.3364C9.65363 16.8335 10.0566 17.2364 10.5536 17.2364H13.4465C13.9435 17.2364 14.3465 16.8335 14.3465 16.3364C14.3465 15.8393 13.9435 15.4364 13.4465 15.4364H12.9001V11.9971C12.9001 10.7012 11.8495 9.65068 10.5536 9.65068Z" />
</svg>