<!--character:3024:2814-->
<svg width="24" height="24" viewBox="0 0 24 24">
  <path d="M13.5998 7.3C13.5998 7.99333 13.0798 8.6 12.2998 8.6C11.5198 8.6 10.9998 7.99333 10.9998 7.3C10.9998 6.60666 11.6065 6 12.2998 6C12.9931 6 13.5998 6.60666 13.5998 7.3ZM10.8331 17C10.3331 17 9.9998 16.6854 9.9998 16.2135C9.9998 15.7416 10.3331 15.427 10.8331 15.427H11.4998C11.5831 15.427 11.6665 15.3483 11.6665 15.2697V11.7303C11.6665 11.6517 11.5831 11.573 11.4998 11.573H10.8331C10.3331 11.573 9.9998 11.2584 9.9998 10.7865C9.9998 10.3146 10.3331 10 10.8331 10H11.6665C12.5831 10 13.3331 10.7079 13.3331 11.573V15.3483C13.3331 15.427 13.4165 15.5056 13.4998 15.5056H14.1665C14.6665 15.5056 14.9998 15.8202 14.9998 16.2921C14.9998 16.764 14.6665 17 14.1665 17H10.8331ZM11.9998 2C6.4998 2 1.9998 6.5 1.9998 12C1.9998 17.5 6.4998 22 11.9998 22C17.4998 22 21.9998 17.5 21.9998 12C21.9998 6.5 17.4998 2 11.9998 2Z" />
</svg>
