<!--character:180:550:1863-->
<svg width="24" height="24" viewBox="0 0 24 24" xmlns="http://www.w3.org/2000/svg"><path d="M14.1667 17h-3.3334c-.5 0-.8333-.3146-.8333-.7865 0-.472.3333-.7865.8333-.7865H11.5c.0833 0 .1667-.0787.1667-.1573v-3.5394c0-.0786-.0834-.1573-.1667-.1573h-.6667c-.5 0-.8333-.3146-.8333-.7865S10.3333 10 10.8333 10h.8334c.9166 0 1.6666.7079 1.6666 1.573v3.7753c0 .0787.0834.1573.1667.1573h.6667c.5 0 .8333.3146.8333.7865 0 .472-.3333.7079-.8333.7079zM12.3 6c.6933 0 1.3.6067 1.3 1.3s-.52 1.3-1.3 1.3S11 7.9933 11 7.3 11.6067 6 12.3 6zM12 2C6.5 2 2 6.5 2 12s4.5 10 10 10 10-4.5 10-10S17.5 2 12 2"/></svg>
