<!--category:social-->
<!--character:E112-->
<svg width="24" height="24" viewBox="0 0 24 24" xmlns="http://www.w3.org/2000/svg"><path d="M7.8 2h8.4C19.4 2 22 4.6 22 7.8v8.4c0 3.2033-2.5967 5.8-5.8 5.8H7.8C4.6 22 2 19.4 2 16.2V7.8C2 4.5967 4.5967 2 7.8 2zm-.2 2C5.6118 4 4 5.6118 4 7.6v8.8C4 18.39 5.61 20 7.6 20h8.8c1.9882 0 3.6-1.6118 3.6-3.6V7.6C20 5.61 18.39 4 16.4 4H7.6zm9.65 1.5c.6904 0 1.25.5596 1.25 1.25S17.9404 8 17.25 8 16 7.4404 16 6.75s.5596-1.25 1.25-1.25zM12 7c2.7614 0 5 2.2386 5 5s-2.2386 5-5 5-5-2.2386-5-5 2.2386-5 5-5zm0 2c-1.6569 0-3 1.3431-3 3s1.3431 3 3 3 3-1.3431 3-3-1.3431-3-3-3z"/></svg>