<!--character:$550:15-->
  <svg width="24" height="24" viewBox="0 0 24 24" >
<path d="M7.8 2H16.2C19.4 2 22 4.6 22 7.8V16.2C22 19.4033 19.4033 22 16.2 22H7.8C4.6 22 2 19.4 2 16.2V7.8C2 4.59675 4.59675 2 7.8 2ZM7.6 4C5.61177 4 4 5.61177 4 7.6V16.4C4 18.39 5.61 20 7.6 20H16.4C18.3882 20 20 18.3882 20 16.4V7.6C20 5.61 18.39 4 16.4 4H7.6ZM18.5 6.75C18.5 6.05964 17.9404 5.5 17.25 5.5C16.5596 5.5 16 6.05964 16 6.75C16 7.44036 16.5596 8 17.25 8C17.9404 8 18.5 7.44036 18.5 6.75ZM12 7C14.7614 7 17 9.23858 17 12C17 14.7614 14.7614 17 12 17C9.23858 17 7 14.7614 7 12C7 9.23858 9.23858 7 12 7ZM9 12C9 13.6569 10.3431 15 12 15C13.6569 15 15 13.6569 15 12C15 10.3431 13.6569 9 12 9C10.3431 9 9 10.3431 9 12Z" />
</svg>