<!-- character:0:2543 -->
  <svg width="20" height="20" viewBox="0 0 20 20" >
<path   d="M6.49999 1.66663H13.5C16.1667 1.66663 18.3333 3.83329 18.3333 6.49996V13.5C18.3333 16.1693 16.1694 18.3333 13.5 18.3333H6.49999C3.83332 18.3333 1.66666 16.1666 1.66666 13.5V6.49996C1.66666 3.83058 3.83061 1.66663 6.49999 1.66663ZM6.33332 3.33329C4.67647 3.33329 3.33332 4.67644 3.33332 6.33329V13.6666C3.33332 15.325 4.67499 16.6666 6.33332 16.6666H13.6667C15.3235 16.6666 16.6667 15.3235 16.6667 13.6666V6.33329C16.6667 4.67496 15.325 3.33329 13.6667 3.33329H6.33332ZM15.4167 5.62496C15.4167 5.04966 14.9503 4.58329 14.375 4.58329C13.7997 4.58329 13.3333 5.04966 13.3333 5.62496C13.3333 6.20026 13.7997 6.66663 14.375 6.66663C14.9503 6.66663 15.4167 6.20026 15.4167 5.62496ZM9.99999 5.83329C12.3012 5.83329 14.1667 7.69877 14.1667 9.99996C14.1667 12.3011 12.3012 14.1666 9.99999 14.1666C7.6988 14.1666 5.83332 12.3011 5.83332 9.99996C5.83332 7.69877 7.6988 5.83329 9.99999 5.83329ZM7.49999 9.99996C7.49999 8.61925 8.61928 7.49996 9.99999 7.49996C11.3807 7.49996 12.5 8.61925 12.5 9.99996C12.5 11.3807 11.3807 12.5 9.99999 12.5C8.61928 12.5 7.49999 11.3807 7.49999 9.99996Z" />
</svg>