<!--character:6900-->
  <svg width="24" height="24" viewBox="0 0 24 24" >
<path d="M7.85842 2.07C6.79442 2.1202 6.06782 2.29 5.43262 2.5396C4.77522 2.7958 4.21802 3.1396 3.66362 3.696C3.10922 4.2524 2.76782 4.81 2.51342 5.4684C2.26722 6.105 2.10042 6.8322 2.05342 7.8968C2.00642 8.9614 1.99602 9.3036 2.00122 12.0192C2.00642 14.7348 2.01842 15.0752 2.07002 16.142C2.12082 17.2058 2.29002 17.9322 2.53962 18.5676C2.79622 19.225 3.13962 19.782 3.69622 20.3366C4.25282 20.8912 4.81002 21.2318 5.47002 21.4866C6.10602 21.7324 6.83342 21.9 7.89782 21.9466C8.96222 21.9932 9.30482 22.004 12.0196 21.9988C14.7344 21.9936 15.0762 21.9816 16.1428 21.931C17.2094 21.8804 17.932 21.71 18.5676 21.4616C19.225 21.2044 19.7824 20.8616 20.3366 20.3048C20.8908 19.748 21.232 19.19 21.4862 18.5312C21.7326 17.8952 21.9 17.1678 21.9462 16.1042C21.9928 15.0368 22.0038 14.696 21.9986 11.9808C21.9934 9.2656 21.9812 8.9252 21.9306 7.8588C21.88 6.7924 21.7106 6.0682 21.4612 5.4324C21.2042 4.775 20.8612 4.2184 20.3048 3.6634C19.7484 3.1084 19.19 2.7674 18.5314 2.5138C17.895 2.2676 17.168 2.0998 16.1036 2.0538C15.0392 2.0078 14.6966 1.996 11.9808 2.0012C9.26502 2.0064 8.92502 2.018 7.85842 2.07ZM7.97522 20.1476C7.00022 20.1052 6.47082 19.9432 6.11802 19.8076C5.65082 19.6276 5.31802 19.41 4.96642 19.0618C4.61482 18.7136 4.39882 18.3796 4.21642 17.9134C4.07942 17.5606 3.91442 17.0318 3.86882 16.0568C3.81922 15.003 3.80882 14.6866 3.80302 12.0168C3.79722 9.347 3.80742 9.031 3.85362 7.9768C3.89522 7.0026 4.05822 6.4726 4.19362 6.12C4.37362 5.6522 4.59042 5.32 4.93942 4.9686C5.28842 4.6172 5.62142 4.4008 6.08802 4.2184C6.44042 4.0808 6.96922 3.9172 7.94382 3.8708C8.99842 3.8208 9.31442 3.8108 11.9838 3.805C14.6532 3.7992 14.97 3.8092 16.025 3.8556C16.9992 3.898 17.5294 4.0594 17.8816 4.1956C18.349 4.3756 18.6816 4.5918 19.033 4.9414C19.3844 5.291 19.601 5.6228 19.7834 6.0904C19.9212 6.4418 20.0848 6.9704 20.1308 7.9456C20.181 9.0002 20.1924 9.3164 20.1972 11.9856C20.202 14.6548 20.1926 14.9718 20.1464 16.0256C20.1038 17.0006 19.9422 17.5302 19.8064 17.8834C19.6264 18.3504 19.4094 18.6834 19.0602 19.0346C18.711 19.3858 18.3784 19.6022 17.9116 19.7846C17.5596 19.922 17.0302 20.086 16.0564 20.1324C15.0018 20.182 14.6858 20.1924 12.0154 20.1982C9.34502 20.204 9.03002 20.1932 7.97542 20.1476M16.1274 6.6554C16.1278 6.89275 16.1986 7.12466 16.3308 7.32179C16.463 7.51891 16.6507 7.67241 16.8701 7.76285C17.0896 7.8533 17.3309 7.87664 17.5636 7.82992C17.7963 7.78319 18.01 7.66851 18.1775 7.50037C18.345 7.33223 18.4589 7.11818 18.5048 6.8853C18.5507 6.65242 18.5264 6.41117 18.4352 6.19205C18.3439 5.97294 18.1898 5.78581 17.9921 5.65433C17.7945 5.52285 17.5624 5.45292 17.325 5.4534C17.0068 5.45404 16.7019 5.58102 16.4773 5.80643C16.2527 6.03183 16.1269 6.33721 16.1274 6.6554ZM6.86542 12.01C6.87102 14.846 9.17422 17.1398 12.0096 17.1344C14.845 17.129 17.1404 14.826 17.135 11.99C17.1296 9.154 14.8258 6.8596 11.99 6.8652C9.15422 6.8708 6.86002 9.1744 6.86542 12.01ZM8.66662 12.0064C8.66531 11.3471 8.85954 10.7023 9.22473 10.1534C9.58992 9.60446 10.1097 9.17618 10.7183 8.92268C11.3269 8.66917 11.997 8.60184 12.6439 8.72918C13.2907 8.85651 13.8853 9.17281 14.3524 9.63807C14.8195 10.1033 15.1382 10.6967 15.2681 11.343C15.398 11.9894 15.3333 12.6597 15.0822 13.2693C14.8311 13.8789 14.4049 14.4004 13.8574 14.7678C13.31 15.1351 12.6659 15.3319 12.0066 15.3332C11.5689 15.3341 11.1352 15.2488 10.7304 15.0821C10.3256 14.9154 9.95765 14.6706 9.64749 14.3617C9.33734 14.0527 9.09107 13.6857 8.92277 13.2816C8.75447 12.8775 8.66743 12.4442 8.66662 12.0064Z" />
</svg>