<!--character:7300-->
  <svg width="24" height="24" viewBox="0 0 24 24" >
<path d="M8.02391 2.467C7.00245 2.51519 6.3049 2.6782 5.69509 2.91782C5.06397 3.16378 4.52905 3.49383 3.99681 4.02799C3.46458 4.56215 3.13683 5.09745 2.8926 5.72953C2.65624 6.34068 2.49611 7.03881 2.45099 8.06085C2.40587 9.08288 2.39588 9.4114 2.40087 12.0184C2.40587 14.6255 2.41739 14.9523 2.46692 15.9764C2.51569 16.9977 2.67813 17.695 2.91775 18.305C3.16409 18.9362 3.49376 19.4709 4.02811 20.0033C4.56246 20.5357 5.09738 20.8627 5.731 21.1073C6.34157 21.3433 7.03989 21.5042 8.06174 21.549C9.08358 21.5937 9.41248 21.6041 12.0187 21.5991C14.625 21.5941 14.9532 21.5826 15.9771 21.534C17.0011 21.4854 17.6948 21.3218 18.305 21.0833C18.9361 20.8364 19.4712 20.5073 20.0032 19.9728C20.5353 19.4382 20.8628 18.9026 21.1069 18.2701C21.3434 17.6595 21.5041 16.9612 21.5485 15.9401C21.5932 14.9154 21.6038 14.5882 21.5988 11.9816C21.5938 9.37492 21.5821 9.04813 21.5335 8.02437C21.4849 7.0006 21.3223 6.30535 21.0829 5.69497C20.8362 5.06385 20.5069 4.5295 19.9727 3.99669C19.4386 3.46388 18.9025 3.13651 18.2702 2.89305C17.6593 2.6567 16.9613 2.4956 15.9395 2.45144C14.9176 2.40728 14.5887 2.39595 11.9815 2.40095C9.37428 2.40594 9.04787 2.41707 8.02391 2.467ZM8.13604 19.8219C7.20002 19.7812 6.69178 19.6256 6.35309 19.4955C5.90457 19.3227 5.58507 19.1138 5.24753 18.7795C4.90999 18.4452 4.70262 18.1246 4.52751 17.677C4.39599 17.3383 4.23759 16.8306 4.19381 15.8946C4.14619 14.8829 4.13621 14.5792 4.13064 12.0161C4.12507 9.45307 4.13486 9.1497 4.17922 8.13765C4.21915 7.2024 4.37564 6.69358 4.50562 6.35508C4.67843 5.90598 4.88656 5.58706 5.22161 5.24971C5.55666 4.91236 5.87634 4.70461 6.32429 4.5295C6.6626 4.39741 7.17026 4.24035 8.1059 4.1958C9.11833 4.1478 9.4217 4.1382 11.9844 4.13263C14.5471 4.12706 14.8512 4.13666 15.864 4.18121C16.7993 4.22191 17.3083 4.37686 17.6464 4.50762C18.0951 4.68042 18.4144 4.88798 18.7518 5.2236C19.0891 5.55922 19.2971 5.87776 19.4722 6.32666C19.6045 6.66402 19.7615 7.17148 19.8057 8.1077C19.8539 9.12013 19.8648 9.42369 19.8694 11.9862C19.874 14.5487 19.865 14.853 19.8206 15.8647C19.7798 16.8007 19.6246 17.3091 19.4942 17.6482C19.3214 18.0965 19.1131 18.4162 18.7779 18.7534C18.4426 19.0905 18.1233 19.2983 17.6752 19.4734C17.3373 19.6053 16.829 19.7627 15.8942 19.8073C14.8817 19.8549 14.5784 19.8649 12.0147 19.8704C9.45108 19.876 9.14867 19.8656 8.13623 19.8219M15.9623 6.86908C15.9627 7.09694 16.0307 7.31958 16.1576 7.50882C16.2845 7.69807 16.4647 7.84542 16.6754 7.93226C16.886 8.01909 17.1177 8.04149 17.3411 7.99664C17.5645 7.95178 17.7696 7.84168 17.9304 7.68026C18.0913 7.51884 18.2006 7.31335 18.2447 7.08978C18.2887 6.86621 18.2654 6.63461 18.1778 6.42425C18.0902 6.2139 17.9422 6.03425 17.7525 5.90803C17.5628 5.7818 17.3399 5.71468 17.112 5.71513C16.8066 5.71574 16.5139 5.83765 16.2982 6.05404C16.0826 6.27044 15.9618 6.56361 15.9623 6.86908ZM7.07061 12.0096C7.07599 14.7322 9.28711 16.9343 12.0091 16.9291C14.7312 16.924 16.9348 14.713 16.9296 11.9904C16.9245 9.26778 14.7128 7.06511 11.9903 7.07049C9.26791 7.07586 7.06542 9.28737 7.07061 12.0096ZM8.7998 12.0061C8.79855 11.3732 8.98501 10.7541 9.3356 10.2272C9.68619 9.70023 10.1852 9.28908 10.7694 9.04571C11.3537 8.80234 11.997 8.7377 12.618 8.85994C13.239 8.98219 13.8098 9.28585 14.2583 9.73251C14.7067 10.1792 15.0126 10.7488 15.1373 11.3693C15.262 11.9898 15.1999 12.6334 14.9589 13.2186C14.7178 13.8038 14.3087 14.3044 13.7831 14.6571C13.2575 15.0098 12.6392 15.1987 12.0063 15.1999C11.586 15.2008 11.1697 15.1189 10.7811 14.9589C10.3925 14.7988 10.0392 14.5638 9.74146 14.2672C9.4437 13.9707 9.20729 13.6183 9.04572 13.2304C8.88414 12.8424 8.80058 12.4264 8.7998 12.0061Z" />
</svg>