<!--character:3958-->
  <svg width="20" height="20" viewBox="0 0 20 20" >
<path d="M6.68659 2.05583C5.83537 2.09599 5.25408 2.23183 4.74591 2.43152C4.21998 2.63648 3.77421 2.91153 3.33068 3.35666C2.88715 3.80179 2.61402 4.24788 2.4105 4.77461C2.21353 5.2839 2.08009 5.86567 2.04249 6.71737C2.00489 7.56907 1.99657 7.84284 2.00073 10.0154C2.00489 12.1879 2.01449 12.4602 2.05577 13.3137C2.09641 14.1647 2.23177 14.7459 2.43146 15.2542C2.63674 15.7801 2.91147 16.2257 3.35676 16.6694C3.80205 17.1131 4.24782 17.3856 4.77583 17.5894C5.28464 17.7861 5.86657 17.9202 6.71811 17.9575C7.56965 17.9947 7.84374 18.0034 10.0156 17.9992C12.1875 17.9951 12.461 17.9855 13.3143 17.945C14.1676 17.9045 14.7456 17.7682 15.2541 17.5694C15.7801 17.3637 16.226 17.0894 16.6694 16.644C17.1127 16.1985 17.3857 15.7521 17.5891 15.2251C17.7862 14.7163 17.9201 14.1343 17.9571 13.2834C17.9944 12.4295 18.0032 12.1569 17.999 9.98464C17.9948 7.81244 17.9851 7.54011 17.9446 6.68697C17.9041 5.83383 17.7686 5.25446 17.5691 4.74581C17.3635 4.21988 17.0891 3.77459 16.6439 3.33058C16.1988 2.88657 15.7521 2.61376 15.2252 2.41088C14.716 2.21391 14.1344 2.07967 13.2829 2.04287C12.4314 2.00607 12.1573 1.99663 9.98458 2.00079C7.8119 2.00495 7.53989 2.01423 6.68659 2.05583ZM6.78003 16.5182C6.00002 16.4843 5.57649 16.3547 5.29424 16.2462C4.92047 16.1022 4.65423 15.9281 4.37294 15.6496C4.09165 15.371 3.91885 15.1038 3.77293 14.7308C3.66333 14.4486 3.53132 14.0255 3.49484 13.2455C3.45516 12.4025 3.44684 12.1493 3.4422 10.0134C3.43756 7.87756 3.44572 7.62475 3.48268 6.78137C3.51596 6.002 3.64636 5.57799 3.75469 5.2959C3.89869 4.92165 4.07213 4.65589 4.35134 4.37476C4.63055 4.09363 4.89695 3.92051 5.27024 3.77459C5.55217 3.6645 5.97522 3.53362 6.75491 3.4965C7.59861 3.4565 7.85142 3.4485 9.98698 3.44386C12.1226 3.43922 12.376 3.44722 13.22 3.48434C13.9994 3.51826 14.4236 3.64738 14.7053 3.75635C15.0793 3.90035 15.3453 4.07331 15.6265 4.353C15.9076 4.63269 16.0809 4.89813 16.2268 5.27222C16.337 5.55335 16.4679 5.97624 16.5047 6.75641C16.5449 7.60011 16.554 7.85308 16.5578 9.98848C16.5617 12.1239 16.5542 12.3775 16.5172 13.2206C16.4831 14.0006 16.3538 14.4243 16.2452 14.7068C16.1012 15.0804 15.9276 15.3468 15.6482 15.6278C15.3689 15.9088 15.1028 16.0819 14.7293 16.2278C14.4477 16.3377 14.0242 16.4689 13.2451 16.5061C12.4014 16.5457 12.1486 16.5541 10.0123 16.5587C7.8759 16.5633 7.62389 16.5547 6.78019 16.5182M13.3019 5.72423C13.3023 5.91412 13.3589 6.09965 13.4646 6.25735C13.5704 6.41506 13.7206 6.53785 13.8961 6.61021C14.0717 6.68257 14.2648 6.70124 14.4509 6.66387C14.6371 6.62649 14.808 6.53474 14.942 6.40022C15.0761 6.2657 15.1672 6.09446 15.2039 5.90815C15.2406 5.72184 15.2212 5.52884 15.1482 5.35354C15.0752 5.17825 14.9518 5.02854 14.7938 4.92336C14.6357 4.81817 14.4499 4.76223 14.26 4.76261C14.0055 4.76312 13.7615 4.86471 13.5819 5.04504C13.4022 5.22537 13.3015 5.46967 13.3019 5.72423ZM5.89217 10.008C5.89665 12.2769 7.73925 14.1119 10.0076 14.1076C12.276 14.1033 14.1124 12.2609 14.108 9.992C14.1037 7.72315 12.2606 5.88759 9.99194 5.89207C7.72325 5.89655 5.88785 7.73947 5.89217 10.008ZM7.33317 10.0051C7.33212 9.47769 7.48751 8.96178 7.77967 8.52266C8.07183 8.08353 8.48764 7.7409 8.97453 7.53809C9.46142 7.33529 9.99752 7.28141 10.515 7.38329C11.0325 7.48516 11.5082 7.73821 11.8819 8.11042C12.2556 8.48264 12.5105 8.95731 12.6144 9.47441C12.7184 9.99151 12.6666 10.5278 12.4657 11.0155C12.2649 11.5032 11.9239 11.9204 11.4859 12.2143C11.0479 12.5082 10.5327 12.6656 10.0052 12.6666C9.65501 12.6674 9.30807 12.5991 8.98424 12.4657C8.66041 12.3324 8.36602 12.1365 8.11789 11.8894C7.86975 11.6422 7.67274 11.3486 7.5381 11.0253C7.40345 10.702 7.33382 10.3553 7.33317 10.0051Z" />
</svg>