<!--character:6896-->
  <svg width="24" height="24" viewBox="0 0 24 24" >
<path d="M11.9561 3C14.4389 3 16.8464 3.45141 19.1035 4.42947C19.7806 4.73041 20.232 5.40752 20.3072 6.08464V11.5768C20.232 15.6395 17.674 19.1755 13.9122 20.5298L13.0847 20.8307C12.4075 21.0564 11.58 21.0564 10.9028 20.8307L10.0753 20.5298C6.23827 19.1755 3.68027 15.6395 3.68027 11.5768V6.08464C3.68027 5.40752 4.13168 4.73041 4.8088 4.42947C7.06585 3.45141 9.47338 3 11.9561 3ZM9.75642 15.6907C9.95642 15.8907 10.2064 15.9907 10.5064 15.9907H10.5564C10.8564 15.9407 11.1564 15.7907 11.3064 15.5407L16.8064 8.54074C17.1564 8.09074 17.0064 7.49075 16.5564 7.19075C16.1064 6.84075 15.5064 6.99075 15.1564 7.49075L10.3564 13.4407L8.70643 11.6407C8.35643 11.2407 7.70643 11.2407 7.30643 11.5907C6.90644 11.9407 6.90644 12.5907 7.25643 12.9907L9.75642 15.6907Z" />
</svg>