<!-- character:0:1625 -->
  <svg width="20" height="20" viewBox="0 0 20 20" >
<path   d="M9.9632 2.5C12.0322 2.5 14.0384 2.87618 15.9193 3.69122C16.4836 3.94201 16.8598 4.50627 16.9225 5.07053V9.64734C16.8598 13.0329 14.7281 15.9796 11.5933 17.1082L10.9036 17.3589C10.3394 17.547 9.64972 17.547 9.08546 17.3589L8.3958 17.1082C5.19831 15.9796 3.06665 13.0329 3.06665 9.64734V5.07053C3.06665 4.50627 3.44283 3.94201 4.00709 3.69122C5.88797 2.87618 7.89424 2.5 9.9632 2.5ZM8.13011 13.0756C8.29677 13.2422 8.5051 13.3256 8.7551 13.3256H8.79677C9.04677 13.2839 9.29677 13.1589 9.42176 12.9506L14.0051 7.11728C14.2967 6.74228 14.1717 6.24229 13.7967 5.99229C13.4217 5.70062 12.9217 5.82562 12.6301 6.24229L8.6301 11.2006L7.25511 9.70059C6.96345 9.36726 6.42178 9.36726 6.08845 9.65893C5.75512 9.95059 5.75512 10.4923 6.04678 10.8256L8.13011 13.0756Z" />
</svg>