<!--character:5946-->
  <svg width="20" height="20" viewBox="0 0 20 20" >
<path d="M9.96345 2.5C12.0324 2.5 14.0387 2.87618 15.9196 3.69122C16.4838 3.94201 16.86 4.50627 16.9227 5.07053V9.64734C16.86 13.0329 14.7283 15.9796 11.5935 17.1082L10.9039 17.3589C10.3396 17.547 9.64997 17.547 9.0857 17.3589L8.39605 17.1082C5.19856 15.9796 3.06689 13.0329 3.06689 9.64734V5.07053C3.06689 4.50627 3.44307 3.94201 4.00733 3.69122C5.88821 2.87618 7.89448 2.5 9.96345 2.5ZM8.13035 13.0756C8.29702 13.2422 8.50535 13.3256 8.75535 13.3256H8.79701C9.04701 13.2839 9.29701 13.1589 9.42201 12.9506L14.0053 7.11728C14.297 6.74228 14.172 6.24229 13.797 5.99229C13.422 5.70062 12.922 5.82562 12.6303 6.24229L8.63035 11.2006L7.25535 9.70059C6.96369 9.36726 6.42203 9.36726 6.0887 9.65893C5.75536 9.95059 5.75536 10.4923 6.04703 10.8256L8.13035 13.0756Z" />
</svg>