<!-- character:0:1613 -->
  <svg width="20" height="20" viewBox="0 0 20 20" >
<path   d="M16.4375 2.6875C16.6875 2.4375 17.0625 2.4375 17.3125 2.6875C17.5625 2.9375 17.5625 3.3125 17.3125 3.5625L3.5625 17.3125C3.375 17.5625 2.9375 17.5625 2.6875 17.3125C2.4375 17.0625 2.4375 16.6875 2.6875 16.4375L4.74819 14.3768C3.7552 13.0357 3.125 11.3754 3.125 9.625V5.0625C3.125 4.5 3.5 3.9375 4.0625 3.6875C5.9375 2.875 7.9375 2.5 10 2.5C11.9337 2.5 13.8124 2.82961 15.5847 3.54034L16.4375 2.6875ZM6.25 15.875C6.875 16.375 7.625 16.8125 8.4375 17.0625L9.125 17.3125C9.6875 17.5 10.375 17.5 10.9375 17.3125L11.625 17.0625C14.75 15.9375 16.875 13 16.9375 9.625V5.25L6.25 15.875Z" />
</svg>