<!--character:166:550:1721-->
  <svg width="24" height="24" viewBox="0 0 24 24" >
<path   d="M11.9558 3C14.4385 3 16.8461 3.45141 19.1031 4.42947C19.7802 4.73041 20.2317 5.40752 20.3069 6.08464V11.5768C20.2317 15.6395 17.6737 19.1755 13.9119 20.5298L13.0843 20.8307C12.4072 21.0564 11.5796 21.0564 10.9025 20.8307L10.0749 20.5298C6.23792 19.1755 3.67993 15.6395 3.67993 11.5768V6.08464C3.67993 5.40752 4.13134 4.73041 4.80846 4.42947C7.06551 3.45141 9.47303 3 11.9558 3ZM9.75607 15.6907C9.95607 15.8907 10.2061 15.9907 10.5061 15.9907H10.5561C10.8561 15.9407 11.1561 15.7907 11.3061 15.5407L16.806 8.54074C17.156 8.09074 17.006 7.49075 16.556 7.19075C16.106 6.84075 15.506 6.99075 15.156 7.49075L10.3561 13.4407L8.70608 11.6407C8.35608 11.2407 7.70609 11.2407 7.30609 11.5907C6.90609 11.9407 6.90609 12.5907 7.25609 12.9907L9.75607 15.6907Z" />
</svg>