<!--character:155:550:1708-->
  <svg width="24" height="24" viewBox="0 0 24 24" >
<path d="M19.725 3.225C20.025 2.925 20.475 2.925 20.775 3.225C21.075 3.525 21.075 3.975 20.775 4.275L4.275 20.775C4.05 21.075 3.525 21.075 3.225 20.775C2.925 20.475 2.925 20.025 3.225 19.725L5.69783 17.2522C4.50624 15.6429 3.75 13.6504 3.75 11.55V6.075C3.75 5.4 4.2 4.725 4.875 4.425C7.125 3.45 9.525 3 12 3C14.3204 3 16.5749 3.39553 18.7016 4.24841L19.725 3.225Z" />
<path d="M7.5 19.05C8.25 19.65 9.15 20.175 10.125 20.475L10.95 20.775C11.625 21 12.45 21 13.125 20.775L13.95 20.475C17.7 19.125 20.25 15.6 20.325 11.55V6.30001L7.5 19.05Z" />
</svg>