<!--character:2702-->
<svg width="24" height="24" viewBox="0 0 24 24">
  <path d="M19.9609 6.87833L15.4484 2.36583C15.2135 2.13249 14.8961 2.00106 14.5651 2H4.91006C4.2197 2 3.66006 2.55964 3.66006 3.25V20.75C3.66006 21.4404 4.2197 22 4.91006 22H19.9101C20.1402 22 20.3267 21.8135 20.3267 21.5833V7.76166C20.3276 7.43019 20.1959 7.11214 19.9609 6.87833ZM10.1742 11.3192L7.36589 10.2692C6.58101 9.89489 6.10335 9.08019 6.16006 8.2125C6.15254 7.12048 6.98044 6.20361 8.06756 6.1C8.16902 6.08433 8.24377 5.99682 8.24339 5.89416V5.33333C8.24339 4.87309 8.61649 4.5 9.07673 4.5C9.53696 4.5 9.91006 4.87309 9.91006 5.33333V5.85416C9.91006 5.96922 10.0033 6.0625 10.1184 6.0625H11.1601C11.6203 6.0625 11.9934 6.43559 11.9934 6.89583C11.9934 7.35607 11.6203 7.72916 11.1601 7.72916H8.55589C7.82672 7.72916 7.82673 8.0925 7.82673 8.2125C7.81349 8.39542 7.86774 8.57686 7.97923 8.7225L10.7876 9.7725C11.5739 10.1473 12.0519 10.9642 11.9934 11.8333C11.9987 12.9238 11.1714 13.8382 10.0859 13.9417C9.98443 13.9573 9.90968 14.0448 9.91006 14.1475V14.7083C9.91006 15.1686 9.53696 15.5417 9.07673 15.5417C8.61649 15.5417 8.24339 15.1686 8.24339 14.7083V14.1875C8.24339 14.0724 8.15012 13.9792 8.03506 13.9792H6.99339C6.53315 13.9792 6.16006 13.6061 6.16006 13.1458C6.16006 12.6856 6.53315 12.3125 6.99339 12.3125H9.59756C10.3267 12.3125 10.3267 11.9492 10.3267 11.8292C10.34 11.6462 10.2857 11.4648 10.1742 11.3192ZM18.0351 14.9167C18.0351 15.2618 17.7552 15.5417 17.4101 15.5417H13.2434C12.8982 15.5417 12.6184 15.2618 12.6184 14.9167C12.6184 14.5715 12.8982 14.2917 13.2434 14.2917H17.4101C17.7552 14.2917 18.0351 14.5715 18.0351 14.9167ZM14.2851 11.1667C14.2851 10.8215 14.5649 10.5417 14.9101 10.5417H17.4101C17.7552 10.5417 18.0351 10.8215 18.0351 11.1667C18.0351 11.5118 17.7552 11.7917 17.4101 11.7917H14.9101C14.5649 11.7917 14.2851 11.5118 14.2851 11.1667ZM18.0351 18.6667C18.0351 19.0118 17.7552 19.2917 17.4101 19.2917H9.07673C8.73155 19.2917 8.45173 19.0118 8.45173 18.6667C8.45173 18.3215 8.73155 18.0417 9.07673 18.0417H17.4101C17.7552 18.0417 18.0351 18.3215 18.0351 18.6667Z" />
</svg>
