<!-- character:0:1887 -->
  <svg width="20" height="20" viewBox="0 0 20 20" >
<path   d="M16.634 5.73203L12.8736 1.97161C12.6779 1.77716 12.4134 1.66764 12.1375 1.66675H4.09165C3.51636 1.66675 3.04999 2.13312 3.04999 2.70841V17.2917C3.04999 17.867 3.51636 18.3334 4.09165 18.3334H16.5917C16.7834 18.3334 16.9389 18.178 16.9389 17.9862V6.46814C16.9396 6.19191 16.8298 5.92687 16.634 5.73203ZM8.47846 9.43272L6.13818 8.55772C5.48412 8.24583 5.08606 7.56691 5.13332 6.84383C5.12706 5.93381 5.81697 5.16975 6.7229 5.08341C6.80745 5.07036 6.86975 4.99744 6.86943 4.91189V4.44453C6.86943 4.06099 7.18035 3.75008 7.56388 3.75008C7.94741 3.75008 8.25832 4.06099 8.25832 4.44453V4.87855C8.25832 4.97444 8.33605 5.05216 8.43193 5.05216H9.29999C9.68352 5.05216 9.99443 5.36308 9.99443 5.74661C9.99443 6.13014 9.68352 6.44105 9.29999 6.44105H7.12985C6.52221 6.44105 6.52221 6.74383 6.52221 6.84383C6.51118 6.99627 6.55639 7.14747 6.64929 7.26883L8.98957 8.14383C9.64487 8.4562 10.0432 9.13688 9.99443 9.86119C9.99889 10.7699 9.30945 11.5319 8.40485 11.6181C8.3203 11.6312 8.25801 11.7041 8.25832 11.7897V12.257C8.25832 12.6406 7.94741 12.9515 7.56388 12.9515C7.18035 12.9515 6.86943 12.6406 6.86943 12.257V11.823C6.86943 11.7271 6.7917 11.6494 6.69582 11.6494H5.82777C5.44423 11.6494 5.13332 11.3385 5.13332 10.9549C5.13332 10.5714 5.44423 10.2605 5.82777 10.2605H7.9979C8.60554 10.2605 8.60554 9.95772 8.60554 9.85772C8.61657 9.70528 8.57136 9.55408 8.47846 9.43272ZM15.0292 12.4306C15.0292 12.143 14.796 11.9098 14.5083 11.9098H11.0361C10.7485 11.9098 10.5153 12.143 10.5153 12.4306C10.5153 12.7183 10.7485 12.9515 11.0361 12.9515H14.5083C14.796 12.9515 15.0292 12.7183 15.0292 12.4306ZM11.9042 9.30564C11.9042 9.01799 12.1373 8.7848 12.425 8.7848H14.5083C14.796 8.7848 15.0292 9.01799 15.0292 9.30564C15.0292 9.59329 14.796 9.82647 14.5083 9.82647H12.425C12.1373 9.82647 11.9042 9.59329 11.9042 9.30564ZM15.0292 15.5556C15.0292 15.268 14.796 15.0348 14.5083 15.0348H7.56388C7.27623 15.0348 7.04304 15.268 7.04304 15.5556C7.04304 15.8433 7.27623 16.0765 7.56388 16.0765H14.5083C14.796 16.0765 15.0292 15.8433 15.0292 15.5556Z" />
</svg>