<!--character:2582-->
  <svg width="20" height="20" viewBox="0 0 20 20" >
<path d="M16.6341 5.73194L12.8737 1.97153C12.6779 1.77708 12.4135 1.66755 12.1375 1.66666H4.09172C3.51642 1.66666 3.05005 2.13303 3.05005 2.70833V17.2917C3.05005 17.867 3.51642 18.3333 4.09172 18.3333H16.5917C16.7835 18.3333 16.9389 18.1779 16.9389 17.9861V6.46805C16.9396 6.19183 16.8299 5.92678 16.6341 5.73194ZM8.47852 9.43264L6.13824 8.55764C5.48418 8.24574 5.08613 7.56683 5.13338 6.84375C5.12712 5.93373 5.81703 5.16967 6.72297 5.08333C6.80752 5.07028 6.86981 4.99735 6.86949 4.9118V4.44444C6.86949 4.06091 7.18041 3.75 7.56394 3.75C7.94747 3.75 8.25838 4.06091 8.25838 4.44444V4.87847C8.25838 4.97435 8.33611 5.05208 8.43199 5.05208H9.30005C9.68358 5.05208 9.99449 5.36299 9.99449 5.74652C9.99449 6.13006 9.68358 6.44097 9.30005 6.44097H7.12991C6.52227 6.44097 6.52227 6.74375 6.52227 6.84375C6.51124 6.99619 6.55645 7.14738 6.64935 7.26875L8.98963 8.14375C9.64493 8.45612 10.0432 9.1368 9.99449 9.86111C9.99895 10.7698 9.30951 11.5318 8.40491 11.6181C8.32036 11.6311 8.25807 11.704 8.25838 11.7896V12.2569C8.25838 12.6405 7.94747 12.9514 7.56394 12.9514C7.18041 12.9514 6.86949 12.6405 6.86949 12.2569V11.8229C6.86949 11.727 6.79176 11.6493 6.69588 11.6493H5.82783C5.4443 11.6493 5.13338 11.3384 5.13338 10.9549C5.13338 10.5713 5.4443 10.2604 5.82783 10.2604H7.99797C8.6056 10.2604 8.6056 9.95764 8.6056 9.85764C8.61663 9.7052 8.57142 9.554 8.47852 9.43264ZM15.0292 12.4306C15.0292 12.7182 14.796 12.9514 14.5084 12.9514H11.0362C10.7485 12.9514 10.5153 12.7182 10.5153 12.4306C10.5153 12.1429 10.7485 11.9097 11.0362 11.9097H14.5084C14.796 11.9097 15.0292 12.1429 15.0292 12.4306ZM11.9042 9.30555C11.9042 9.0179 12.1374 8.78472 12.425 8.78472H14.5084C14.796 8.78472 15.0292 9.0179 15.0292 9.30555C15.0292 9.5932 14.796 9.82639 14.5084 9.82639H12.425C12.1374 9.82639 11.9042 9.5932 11.9042 9.30555ZM15.0292 15.5556C15.0292 15.8432 14.796 16.0764 14.5084 16.0764H7.56394C7.27629 16.0764 7.04311 15.8432 7.04311 15.5556C7.04311 15.2679 7.27629 15.0347 7.56394 15.0347H14.5084C14.796 15.0347 15.0292 15.2679 15.0292 15.5556Z" />
</svg>