<!--character:171:550:1744-->
<svg width="24" height="24" viewBox="0 0 24 24" xmlns="http://www.w3.org/2000/svg"><path d="M19.9608 6.8783l-4.5125-4.5125A1.2592 1.2592 0 0 0 14.565 2H4.91c-.6904 0-1.25.5596-1.25 1.25v17.5c0 .6904.5596 1.25 1.25 1.25h15a.4167.4167 0 0 0 .4167-.4167V7.7617a1.2417 1.2417 0 0 0-.3659-.8834zm-9.7866 4.4409l-2.8084-1.05A2.125 2.125 0 0 1 6.16 8.2125c-.0075-1.092.8204-2.0089 1.9075-2.1125a.2075.2075 0 0 0 .1758-.2058v-.5609a.8333.8333 0 0 1 1.6667 0v.5209c0 .115.0933.2083.2083.2083H11.16a.8333.8333 0 1 1 0 1.6667H8.5558c-.7291 0-.7291.3633-.7291.4833a.75.75 0 0 0 .1525.51l2.8083 1.05a2.125 2.125 0 0 1 1.2058 2.0608c.0054 1.0905-.822 2.0049-1.9075 2.1084a.2075.2075 0 0 0-.1758.2058v.5608a.8333.8333 0 1 1-1.6667 0v-.5208a.2083.2083 0 0 0-.2083-.2083H6.9933a.8333.8333 0 0 1 0-1.6667h2.6042c.7292 0 .7292-.3633.7292-.4833a.75.75 0 0 0-.1525-.51zm7.2358 2.9725a.625.625 0 1 1 0 1.25h-4.1667a.625.625 0 0 1 0-1.25H17.41zm-3.125-3.125a.625.625 0 0 1 .625-.625h2.5a.625.625 0 1 1 0 1.25h-2.5a.625.625 0 0 1-.625-.625zm3.125 6.875a.625.625 0 1 1 0 1.25H9.0767a.625.625 0 0 1 0-1.25H17.41z"/></svg>
