<!-- character:0:368 -->
  <svg width="20" height="20" viewBox="0 0 20 20" >
<path   d="M3.95833 6.66667C4.41857 6.66667 4.79167 6.29357 4.79167 5.83333C4.79167 5.3731 4.41857 5 3.95833 5C3.4981 5 3.125 5.3731 3.125 5.83333C3.125 6.29357 3.4981 6.66667 3.95833 6.66667ZM6.45833 6.66833H16.0417C16.5019 6.66833 16.875 6.29524 16.875 5.835C16.875 5.37476 16.5019 5.00167 16.0417 5.00167H6.45833C5.9981 5.00167 5.625 5.37476 5.625 5.835C5.625 6.29524 5.9981 6.66833 6.45833 6.66833ZM4.79167 10C4.79167 10.4602 4.41857 10.8333 3.95833 10.8333C3.4981 10.8333 3.125 10.4602 3.125 10C3.125 9.53976 3.4981 9.16667 3.95833 9.16667C4.41857 9.16667 4.79167 9.53976 4.79167 10ZM8.29167 9.16833H6.45833C5.9981 9.16833 5.625 9.54143 5.625 10.0017C5.625 10.4619 5.9981 10.835 6.45833 10.835H8.29167C8.7519 10.835 9.125 10.4619 9.125 10.0017C9.125 9.54143 8.7519 9.16833 8.29167 9.16833ZM4.79167 14.1667C4.79167 14.6269 4.41857 15 3.95833 15C3.4981 15 3.125 14.6269 3.125 14.1667C3.125 13.7064 3.4981 13.3333 3.95833 13.3333C4.41857 13.3333 4.79167 13.7064 4.79167 14.1667ZM8.29167 13.335H6.45833C5.9981 13.335 5.625 13.7081 5.625 14.1683C5.625 14.6286 5.9981 15.0017 6.45833 15.0017H8.29167C8.7519 15.0017 9.125 14.6286 9.125 14.1683C9.125 13.7081 8.7519 13.335 8.29167 13.335ZM14.4846 13.5889L16.4984 10.8986L16.5012 10.9C16.6738 10.6699 16.6272 10.3435 16.3971 10.1709C16.1669 9.99827 15.8405 10.0449 15.6679 10.275L13.7707 12.8049C13.7406 12.8454 13.6944 12.8708 13.6441 12.8744C13.5937 12.878 13.5444 12.8595 13.5089 12.8236L12.6061 11.9209C12.4745 11.7892 12.2826 11.7378 12.1028 11.786C11.923 11.8342 11.7826 11.9746 11.7344 12.1544C11.6863 12.3342 11.7377 12.5261 11.8693 12.6577L12.9109 13.6993C13.1051 13.8951 13.3693 14.0053 13.645 14.0056H13.7207C14.024 13.9853 14.3033 13.833 14.4846 13.5889ZM14.1667 16.4167C11.7604 16.4167 9.79167 14.4479 9.79167 12.0417C9.79167 9.63542 11.7604 7.66667 14.1667 7.66667C16.5729 7.66667 18.5417 9.63542 18.5417 12.0417C18.5417 14.4479 16.5729 16.4167 14.1667 16.4167Z" />
</svg>