<!--character:1610-->
  <svg width="24" height="24" viewBox="0 0 24 24" >
<path d="M4.75 8C5.30228 8 5.75 7.55228 5.75 7C5.75 6.44772 5.30228 6 4.75 6C4.19772 6 3.75 6.44772 3.75 7C3.75 7.55228 4.19772 8 4.75 8Z" />
<path d="M7.75 8.00199H19.25C19.8023 8.00199 20.25 7.55427 20.25 7.00199C20.25 6.4497 19.8023 6.00199 19.25 6.00199H7.75C7.19772 6.00199 6.75 6.4497 6.75 7.00199C6.75 7.55427 7.19772 8.00199 7.75 8.00199Z" />
<path d="M5.75 12C5.75 12.5523 5.30228 13 4.75 13C4.19772 13 3.75 12.5523 3.75 12C3.75 11.4477 4.19772 11 4.75 11C5.30228 11 5.75 11.4477 5.75 12Z" />
<path d="M9.95 11.002H7.75C7.19772 11.002 6.75 11.4497 6.75 12.002C6.75 12.5543 7.19772 13.002 7.75 13.002H9.95C10.5023 13.002 10.95 12.5543 10.95 12.002C10.95 11.4497 10.5023 11.002 9.95 11.002Z" />
<path d="M5.75 17C5.75 17.5523 5.30228 18 4.75 18C4.19772 18 3.75 17.5523 3.75 17C3.75 16.4477 4.19772 16 4.75 16C5.30228 16 5.75 16.4477 5.75 17Z" />
<path d="M9.95 16.002H7.75C7.19772 16.002 6.75 16.4497 6.75 17.002C6.75 17.5543 7.19772 18.002 7.75 18.002H9.95C10.5023 18.002 10.95 17.5543 10.95 17.002C10.95 16.4497 10.5023 16.002 9.95 16.002Z" />
<path d="M17 19.7C14.1125 19.7 11.75 17.3375 11.75 14.45C11.75 11.5625 14.1125 9.19999 17 9.19999C19.8875 9.19999 22.25 11.5625 22.25 14.45C22.25 17.3375 19.8875 19.7 17 19.7ZM17.3815 16.3067L19.7981 13.0784L19.8015 13.08C20.0086 12.8039 19.9526 12.4121 19.6765 12.205C19.4003 11.9979 19.0086 12.0539 18.8015 12.33L16.5248 15.3659C16.4888 15.4145 16.4333 15.445 16.3729 15.4493C16.3125 15.4536 16.2532 15.4314 16.2106 15.3884L15.1273 14.305C14.9694 14.1471 14.7392 14.0854 14.5234 14.1432C14.3077 14.201 14.1391 14.3695 14.0813 14.5853C14.0235 14.801 14.0852 15.0313 14.2431 15.1892L15.4931 16.4392C15.7261 16.6741 16.0431 16.8063 16.374 16.8067H16.4648C16.8289 16.7824 17.164 16.5996 17.3815 16.3067Z" />
</svg>