<!-- character:0:2705 -->
  <svg width="20" height="20" viewBox="0 0 20 20" >
<path   d="M16.4361 7.73053L17.7681 8.80331L17.7666 8.80549C18.1249 9.0937 18.3333 9.52909 18.3333 9.98932C18.3333 10.4495 18.1249 10.8849 17.7666 11.1731L16.4346 12.2459C16.2235 12.4153 16.114 12.6815 16.1447 12.9507L16.3295 14.6535C16.3798 15.1113 16.2198 15.5673 15.8946 15.8929C15.5693 16.2185 15.114 16.3786 14.6569 16.328L12.9575 16.1429C12.6888 16.1131 12.4235 16.2225 12.2538 16.4332L11.1827 17.7673C10.8949 18.1261 10.4602 18.3349 10.0007 18.3349C9.54117 18.3349 9.10645 18.1261 8.81869 17.7673L7.74613 16.4311C7.57647 16.2203 7.31111 16.1108 7.04244 16.1407L5.34228 16.3258C4.88516 16.3762 4.42994 16.2159 4.10483 15.8902C3.77972 15.5644 3.6199 15.1084 3.67038 14.6506L3.85518 12.9485C3.88565 12.6794 3.77623 12.4133 3.5653 12.2437L2.23329 11.171C1.87504 10.8828 1.66663 10.4474 1.66663 9.98714C1.66663 9.52691 1.87504 9.09152 2.23329 8.80331L3.56675 7.72981C3.77779 7.56031 3.88723 7.29422 3.85663 7.02503L3.67183 5.32296C3.62155 4.86513 3.78156 4.4092 4.10682 4.08359C4.43207 3.75797 4.88736 3.5979 5.34445 3.64847L7.04389 3.83137C7.31268 3.86217 7.57843 3.75252 7.74757 3.54104L8.81869 2.20769C9.11561 1.86408 9.54696 1.66663 10.0007 1.66663C10.4544 1.66663 10.8858 1.86408 11.1827 2.20769L12.2538 3.54104C12.4235 3.75173 12.6888 3.86119 12.9575 3.83137L14.6591 3.64847C15.1162 3.5981 15.5714 3.75837 15.8965 4.08412C16.2216 4.40988 16.3815 4.86588 16.331 5.32368L16.1462 7.02575C16.1163 7.29485 16.2256 7.56062 16.4361 7.73053ZM9.35656 12.7166C9.72542 12.6902 10.0654 12.507 10.2906 12.2133L13.2379 8.27781C13.3933 8.07036 13.4263 7.79566 13.3246 7.55719C13.2229 7.31872 13.0019 7.15271 12.7449 7.12169C12.4878 7.09067 12.2338 7.19936 12.0784 7.40681L9.24554 11.1891L7.61423 9.55527C7.43227 9.36659 7.16283 9.29091 6.90945 9.35734C6.65607 9.42376 6.45819 9.62195 6.39187 9.87572C6.32555 10.1295 6.4011 10.3994 6.58949 10.5816L8.36067 12.3512C8.62523 12.6099 8.98771 12.7429 9.35656 12.7166Z" />
</svg>