<!--character:2150-->
  <svg width="20" height="20" viewBox="0 0 20 20" >
<path d="M16.4359 7.73055L17.7679 8.80332L17.7664 8.8055C18.1247 9.0937 18.3331 9.52909 18.3331 9.98932C18.3331 10.4495 18.1247 10.8849 17.7664 11.1731L16.4344 12.2459C16.2233 12.4153 16.1138 12.6815 16.1446 12.9507L16.3294 14.6535C16.3796 15.1113 16.2196 15.5672 15.8944 15.8928C15.5691 16.2185 15.1138 16.3785 14.6567 16.328L12.9573 16.1429C12.6887 16.1131 12.4234 16.2225 12.2536 16.4332L11.1825 17.7673C10.8948 18.1261 10.46 18.3348 10.0005 18.3348C9.54102 18.3348 9.1063 18.1261 8.81854 17.7673L7.74598 16.431C7.57632 16.2202 7.31097 16.1108 7.04229 16.1407L5.34214 16.3258C4.88502 16.3762 4.42981 16.2159 4.1047 15.8901C3.77959 15.5644 3.61977 15.1084 3.67025 14.6506L3.85505 12.9485C3.88551 12.6793 3.7761 12.4133 3.56517 12.2437L2.23317 11.171C1.87491 10.8828 1.6665 10.4474 1.6665 9.98714C1.6665 9.52692 1.87491 9.09153 2.23317 8.80332L3.56662 7.72982C3.77766 7.56033 3.8871 7.29423 3.8565 7.02504L3.6717 5.32298C3.62142 4.86515 3.78143 4.40923 4.10668 4.08362C4.43193 3.758 4.88722 3.59793 5.34431 3.64849L7.04374 3.8314C7.31254 3.8622 7.57828 3.75255 7.74743 3.54107L8.81854 2.20773C9.11546 1.86411 9.5468 1.66666 10.0005 1.66666C10.4543 1.66666 10.8856 1.86411 11.1825 2.20773L12.2536 3.54107C12.4234 3.75176 12.6887 3.86122 12.9573 3.8314L14.6589 3.64849C15.116 3.59813 15.5712 3.7584 15.8964 4.08415C16.2215 4.40991 16.3813 4.8659 16.3308 5.3237L16.146 7.02577C16.1161 7.29486 16.2254 7.56063 16.4359 7.73055ZM11.4631 7.37883L9.93441 8.95666L8.40575 7.37882C8.22628 7.19185 7.96088 7.11493 7.70952 7.17705C7.45817 7.23916 7.25904 7.43087 7.18715 7.67995C7.11527 7.92904 7.18154 8.19766 7.36101 8.38463L8.92926 10.0037L7.36101 11.6228C7.18154 11.8098 7.11527 12.0784 7.18715 12.3275C7.25904 12.5765 7.45817 12.7682 7.70952 12.8304C7.96088 12.8925 8.22628 12.8156 8.40575 12.6286L9.93441 11.0508L11.4631 12.6286C11.6425 12.8156 11.9079 12.8925 12.1593 12.8304C12.4107 12.7682 12.6098 12.5765 12.6817 12.3275C12.7536 12.0784 12.6873 11.8097 12.5078 11.6228L10.9396 10.0037L12.5078 8.38464C12.6873 8.19767 12.7536 7.92905 12.6817 7.67996C12.6098 7.43087 12.4107 7.23917 12.1593 7.17705C11.9079 7.11494 11.6425 7.19186 11.4631 7.37883Z" />
</svg>