<!-- character:1553:991 -->
  <svg width="20" height="20" viewBox="0 0 20 20" >
<path   d="M16.436 7.73051L17.768 8.80328L17.7666 8.80546C18.1248 9.09367 18.3332 9.52906 18.3332 9.98928C18.3332 10.4495 18.1248 10.8849 17.7666 11.1731L16.4346 12.2459C16.2234 12.4153 16.1139 12.6814 16.1447 12.9507L16.3295 14.6534C16.3798 15.1113 16.2197 15.5672 15.8945 15.8928C15.5692 16.2184 15.114 16.3785 14.6569 16.3279L12.9574 16.1428C12.6888 16.113 12.4235 16.2225 12.2538 16.4332L11.1826 17.7672C10.8949 18.1261 10.4602 18.3348 10.0007 18.3348C9.54114 18.3348 9.10642 18.1261 8.81866 17.7672L7.7461 16.431C7.57645 16.2202 7.31109 16.1107 7.04241 16.1407L5.34226 16.3258C4.88515 16.3761 4.42993 16.2158 4.10482 15.8901C3.77971 15.5643 3.61989 15.1083 3.67037 14.6505L3.85517 12.9485C3.88564 12.6793 3.77622 12.4133 3.56529 12.2437L2.23329 11.1709C1.87503 10.8827 1.66663 10.4473 1.66663 9.9871C1.66663 9.52688 1.87503 9.09149 2.23329 8.80328L3.56674 7.72978C3.77778 7.56029 3.88723 7.2942 3.85662 7.025L3.67182 5.32294C3.62154 4.86511 3.78156 4.40919 4.10681 4.08358C4.43205 3.75796 4.88734 3.5979 5.34444 3.64846L7.04386 3.83137C7.31266 3.86216 7.5784 3.75252 7.74755 3.54103L8.81866 2.20769C9.11558 1.86407 9.54692 1.66663 10.0007 1.66663C10.4544 1.66663 10.8857 1.86407 11.1826 2.20769L12.2538 3.54103C12.4235 3.75172 12.6888 3.86118 12.9574 3.83137L14.659 3.64846C15.1162 3.59809 15.5714 3.75836 15.8965 4.08411C16.2216 4.40987 16.3814 4.86586 16.3309 5.32367L16.1461 7.02573C16.1162 7.29482 16.2255 7.56059 16.436 7.73051ZM11.4632 7.37879L9.93453 8.95663L8.40587 7.37878C8.2264 7.19181 7.961 7.1149 7.70965 7.17701C7.45829 7.23912 7.25916 7.43083 7.18728 7.67991C7.11539 7.929 7.18166 8.19762 7.36113 8.3846L8.92938 10.0037L7.36113 11.6227C7.18166 11.8097 7.11539 12.0783 7.18728 12.3274C7.25916 12.5765 7.45829 12.7682 7.70964 12.8303C7.961 12.8924 8.2264 12.8155 8.40588 12.6285L9.93453 11.0507L11.4632 12.6285C11.6427 12.8155 11.9081 12.8924 12.1594 12.8303C12.4108 12.7682 12.6099 12.5765 12.6818 12.3274C12.7537 12.0783 12.6874 11.8097 12.5079 11.6227L10.9397 10.0037L12.5079 8.3846C12.6874 8.19763 12.7537 7.92901 12.6818 7.67992C12.6099 7.43084 12.4108 7.23913 12.1594 7.17702C11.9081 7.1149 11.6427 7.19182 11.4632 7.37879Z" />
</svg>