<!--character:3942-->
  <svg width="24" height="24" viewBox="0 0 24 24" >
<path d="M8.09971 12.75C6.71971 12.75 5.59971 11.63 5.59971 10.25C5.59971 9.25 6.18971 8.4 7.02971 8C6.18971 7.6 5.59971 6.75 5.59971 5.75C5.59971 4.37 6.71971 3.25 8.09971 3.25C8.62971 3.25 9.11971 3.41 9.51971 3.69L9.49971 3.5C9.49971 2.12 10.6197 1 11.9997 1C13.3797 1 14.4997 2.12 14.4997 3.5L14.4797 3.69C14.8897 3.41 15.3697 3.25 15.8997 3.25C17.2797 3.25 18.3997 4.37 18.3997 5.75C18.3997 6.75 17.8097 7.6 16.9697 8C17.8097 8.4 18.3997 9.25 18.3997 10.25C18.3997 11.63 17.2797 12.75 15.8997 12.75C15.3697 12.75 14.8797 12.59 14.4797 12.31L14.4997 12.5C14.4997 13.88 13.3797 15 11.9997 15C10.6197 15 9.49971 13.88 9.49971 12.5L9.51971 12.31C9.10971 12.59 8.62971 12.75 8.09971 12.75ZM20.9197 14.2C20.3297 18.6 16.5597 22 11.9997 22C11.9997 17.44 15.3997 13.67 19.7997 13.08C20.4397 12.99 21.0097 13.56 20.9197 14.2ZM11.9997 22C11.9997 17.44 8.59971 13.67 4.19971 13.08C3.55971 12.99 2.98971 13.56 3.07971 14.2C3.66971 18.6 7.43971 22 11.9997 22ZM11.9997 5.5C10.6197 5.5 9.49971 6.62 9.49971 8C9.49971 9.38 10.6197 10.5 11.9997 10.5C13.3797 10.5 14.4997 9.38 14.4997 8C14.4997 6.62 13.3797 5.5 11.9997 5.5Z" />
</svg>