<!--character:$550:36-->
  <svg width="24" height="24" viewBox="0 0 24 24" >
<path d="M20.1068 15.7381C20.2393 15.7381 20.3661 15.7798 20.4726 15.859C20.7462 16.062 20.8053 16.4493 20.6008 16.7228C19.7065 17.9336 18.4536 18.9457 16.9775 19.6468C15.4668 20.3653 13.7459 20.7439 12.0005 20.7439C9.99151 20.7439 8.05024 20.2501 6.38835 19.3186C4.74951 18.4001 3.47357 17.1115 2.69879 15.5926C2.15875 14.533 1.88513 13.4072 1.88513 12.2439C1.88513 11.0806 2.15875 9.95477 2.69879 8.89515C3.21579 7.88016 3.95313 6.97171 4.89064 6.19427C6.7959 4.61492 9.32042 3.7439 12.0005 3.7439C13.7516 3.7439 15.4754 4.12398 16.989 4.84527C18.468 5.55072 19.7223 6.56571 20.6152 7.78226C20.8168 8.0558 20.7578 8.44308 20.4827 8.64464C20.3761 8.72239 20.2508 8.76414 20.1184 8.76414C19.9225 8.76414 19.7353 8.67056 19.6201 8.51219C18.8482 7.45977 17.7537 6.57723 16.4576 5.9596C15.1097 5.31749 13.5687 4.97772 12.0005 4.97772C10.2018 4.97772 8.47075 5.41539 6.99176 6.24466C5.56605 7.04513 4.46149 8.15514 3.79904 9.45519C3.34828 10.3406 3.11931 11.2779 3.11931 12.2439C3.12075 13.2085 3.34828 14.1472 3.79904 15.0312C4.23827 15.895 4.87048 16.6724 5.67838 17.3419C7.36043 18.7398 9.60556 19.5086 11.9976 19.5086C13.5659 19.5086 15.1039 19.1703 16.449 18.5311C17.7436 17.9163 18.8367 17.0367 19.61 15.9886C19.7252 15.8316 19.911 15.7381 20.1068 15.7381Z" />
<path d="M10.3423 8.97421C10.4556 9.08955 10.5173 9.2467 10.5173 9.41395V15.1032C10.5173 15.2733 10.457 15.429 10.3481 15.5429C10.2333 15.6612 10.0799 15.7232 9.90068 15.7232C9.54363 15.7232 9.2841 15.4622 9.2841 15.1032V9.41395C9.2841 9.06071 9.54937 8.79398 9.90068 8.79398C10.0713 8.79398 10.2276 8.85742 10.3423 8.97421Z" />
<path d="M14.3525 8.79398C14.5141 8.79398 14.6656 8.86018 14.7896 8.98394C15.0435 9.23866 15.0435 9.60563 14.7896 9.86034L12.3849 12.2593L14.7896 14.6582C14.9093 14.7777 14.9771 14.9302 14.98 15.0885C14.9829 15.2526 14.9166 15.4066 14.7896 15.5332C14.6641 15.657 14.5141 15.7232 14.3525 15.7232C14.1924 15.7232 14.0352 15.6555 13.9125 15.5332L11.0822 12.7097C10.9611 12.5888 10.8962 12.4291 10.899 12.2564C10.8962 12.088 10.9611 11.9297 11.0822 11.8089L13.9125 8.98394C14.0352 8.86162 14.191 8.79398 14.3525 8.79398Z" />
<path d="M21.4395 11.7594C21.0675 11.7594 20.7642 12.0628 20.7642 12.4347C20.7642 12.8067 21.0675 13.11 21.4395 13.11C21.8115 13.11 22.1148 12.8067 22.1148 12.4347C22.1148 12.0628 21.813 11.7594 21.4395 11.7594Z" />
</svg>