<!--character:2798-->
  <svg width="24" height="24" viewBox="0 0 24 24" >
<path d="M19.7231 9.27669L21.3215 10.564L21.3198 10.5666C21.7497 10.9125 21.9998 11.435 21.9998 11.9872C21.9998 12.5395 21.7497 13.062 21.3198 13.4078L19.7214 14.6952C19.468 14.8984 19.3366 15.2178 19.3735 15.5409L19.5953 17.5842C19.6556 18.1336 19.4636 18.6808 19.0733 19.0715C18.683 19.4622 18.1367 19.6543 17.5882 19.5936L15.5488 19.3715C15.2264 19.3358 14.9081 19.4671 14.7044 19.7199L13.4191 21.3208C13.0738 21.7514 12.5521 22.0019 12.0007 22.0019C11.4493 22.0019 10.9276 21.7514 10.5823 21.3208L9.2952 19.7173C9.09162 19.4644 8.77319 19.333 8.45078 19.3689L6.41059 19.591C5.86204 19.6515 5.31578 19.4591 4.92565 19.0682C4.53552 18.6773 4.34373 18.1301 4.40431 17.5808L4.62607 15.5383C4.66263 15.2153 4.53132 14.896 4.27821 14.6925L2.6798 13.4052C2.2499 13.0594 1.9998 12.5369 1.9998 11.9846C1.9998 11.4323 2.2499 10.9099 2.6798 10.564L4.27995 9.27582C4.5332 9.07242 4.66454 8.75311 4.62781 8.43008L4.40605 6.38759C4.34571 5.8382 4.53773 5.29109 4.92803 4.90035C5.31833 4.50961 5.86468 4.31753 6.41319 4.3782L8.45252 4.59769C8.77507 4.63465 9.09397 4.50307 9.29694 4.2493L10.5823 2.64928C10.9386 2.23694 11.4562 2 12.0007 2C12.5451 2 13.0628 2.23694 13.4191 2.64928L14.7044 4.2493C14.9081 4.50213 15.2264 4.63347 15.5488 4.59769L17.5908 4.3782C18.1393 4.31777 18.6856 4.51009 19.0757 4.901C19.4658 5.2919 19.6576 5.8391 19.597 6.38846L19.3753 8.43095C19.3394 8.75386 19.4706 9.07279 19.7231 9.27669ZM11.2277 15.2599C11.6704 15.2283 12.0783 15.0085 12.3485 14.656L15.8854 9.93342C16.0718 9.68448 16.1115 9.35484 15.9894 9.06867C15.8674 8.78251 15.6022 8.5833 15.2937 8.54608C14.9852 8.50886 14.6804 8.63928 14.494 8.88822L11.0945 13.427L9.13693 11.4664C8.91858 11.2399 8.59524 11.1491 8.29119 11.2289C7.98714 11.3086 7.74968 11.5464 7.6701 11.8509C7.59051 12.1554 7.68118 12.4793 7.90725 12.698L10.0327 14.8214C10.3501 15.132 10.7851 15.2916 11.2277 15.2599Z" />
</svg>