<!--character:164:550:39-->
  <svg width="24" height="24" viewBox="0 0 24 24" >
<path d="M19.5303 9.34479L21.0888 10.5999L21.0871 10.6025C21.5062 10.9397 21.7501 11.4491 21.7501 11.9876C21.7501 12.526 21.5062 13.0355 21.0871 13.3727L19.5286 14.6278C19.2816 14.826 19.1535 15.1374 19.1894 15.4524L19.4057 17.4447C19.4645 17.9803 19.2773 18.5138 18.8967 18.8948C18.5162 19.2757 17.9835 19.463 17.4487 19.4038L15.4603 19.1873C15.146 19.1524 14.8356 19.2805 14.637 19.527L13.3838 21.0879C13.0471 21.5077 12.5385 21.7519 12.0009 21.7519C11.4632 21.7519 10.9546 21.5077 10.6179 21.0879L9.36304 19.5244C9.16454 19.2778 8.85407 19.1497 8.53972 19.1847L6.55052 19.4013C6.0157 19.4602 5.48309 19.2727 5.10271 18.8916C4.72233 18.5104 4.53534 17.9769 4.5944 17.4413L4.81062 15.4499C4.84626 15.1349 4.71824 14.8237 4.47145 14.6253L2.913 13.3701C2.49384 13.0329 2.25 12.5235 2.25 11.985C2.25 11.4466 2.49384 10.9372 2.913 10.5999L4.47315 9.34394C4.72007 9.14564 4.84812 8.8343 4.81231 8.51935L4.5961 6.52792C4.53726 5.99226 4.72448 5.45882 5.10503 5.07785C5.48557 4.69688 6.01826 4.5096 6.55307 4.56876L8.54141 4.78276C8.85591 4.81879 9.16683 4.69051 9.36473 4.44307L10.6179 2.88305C10.9653 2.48102 11.47 2.25 12.0009 2.25C12.5317 2.25 13.0364 2.48102 13.3838 2.88305L14.637 4.44307C14.8356 4.68958 15.146 4.81765 15.4603 4.78276L17.4512 4.56876C17.9861 4.50983 18.5187 4.69735 18.899 5.07848C19.2794 5.45962 19.4664 5.99313 19.4074 6.52877L19.1911 8.5202C19.1561 8.83504 19.284 9.14599 19.5303 9.34479ZM11.2472 15.1785C11.6788 15.1477 12.0765 14.9333 12.34 14.5896L15.7884 9.98515C15.9702 9.74243 16.0089 9.42103 15.8899 9.14202C15.7709 8.86301 15.5123 8.66878 15.2115 8.63248C14.9108 8.59619 14.6135 8.72336 14.4318 8.96608L11.1173 13.3914L9.20867 11.4798C8.99578 11.259 8.68052 11.1705 8.38407 11.2482C8.08762 11.3259 7.8561 11.5578 7.7785 11.8547C7.70091 12.1516 7.7893 12.4674 8.00972 12.6806L10.082 14.751C10.3915 15.0538 10.8156 15.2094 11.2472 15.1785Z" />
</svg>