<!-- character:0:2681 -->
  <svg width="20" height="20" viewBox="0 0 20 20" >
<path d="M16.7557 13.115C16.8661 13.115 16.9717 13.1498 17.0605 13.2158C17.2885 13.3849 17.3377 13.7077 17.1673 13.9356C16.4221 14.9446 15.378 15.788 14.1479 16.3723C12.889 16.971 11.4549 17.2865 10.0004 17.2865C8.32624 17.2865 6.70851 16.875 5.32361 16.0988C3.9579 15.3333 2.89462 14.2596 2.24897 12.9938C1.79894 12.1108 1.57092 11.1726 1.57092 10.2032C1.57092 9.23381 1.79894 8.2956 2.24897 7.41258C2.67981 6.56676 3.29425 5.80972 4.07551 5.16185C5.66323 3.84572 7.76699 3.11987 10.0004 3.11987C11.4597 3.11987 12.8962 3.43661 14.1575 4.03768C15.39 4.62556 16.4353 5.47139 17.1793 6.48518C17.3473 6.71313 17.2981 7.03586 17.0689 7.20383C16.9801 7.26861 16.8757 7.30341 16.7653 7.30341C16.6021 7.30341 16.4461 7.22542 16.35 7.09345C15.7068 6.21643 14.7947 5.48098 13.7146 4.96629C12.5914 4.4312 11.3073 4.14806 10.0004 4.14806C8.50145 4.14806 7.05894 4.51278 5.82645 5.20384C4.63836 5.8709 3.71789 6.79591 3.16584 7.87929C2.79022 8.61713 2.5994 9.39817 2.5994 10.2032C2.6006 11.007 2.79022 11.7893 3.16584 12.5259C3.53187 13.2458 4.05871 13.8936 4.73196 14.4515C6.13367 15.6165 8.00461 16.2572 9.99796 16.2572C11.3049 16.2572 12.5866 15.9752 13.7074 15.4425C14.7863 14.9302 15.6972 14.1972 16.3416 13.3238C16.4377 13.193 16.5925 13.115 16.7557 13.115Z" />
<path d="M8.61858 7.47846C8.71298 7.57458 8.76436 7.70554 8.76436 7.84492V12.586C8.76436 12.7277 8.71417 12.8575 8.62336 12.9524C8.52777 13.0509 8.39991 13.1026 8.25054 13.1026C7.95301 13.1026 7.73673 12.8851 7.73673 12.586V7.84492C7.73673 7.55055 7.95779 7.32828 8.25054 7.32828C8.39274 7.32828 8.52299 7.38114 8.61858 7.47846Z" />
<path d="M11.9604 7.32828C12.0951 7.32828 12.2213 7.38344 12.3247 7.48658C12.5362 7.69884 12.5362 8.00465 12.3247 8.21691L10.3207 10.216L12.3247 12.2152C12.4244 12.3147 12.4809 12.4418 12.4833 12.5737C12.4857 12.7105 12.4304 12.8388 12.3247 12.9443C12.2201 13.0474 12.0951 13.1026 11.9604 13.1026C11.827 13.1026 11.6959 13.0462 11.5938 12.9443L9.23519 10.5914C9.13421 10.4907 9.08011 10.3575 9.08251 10.2136C9.08011 10.0733 9.13421 9.94141 9.23519 9.84068L11.5938 7.48658C11.6959 7.38464 11.8258 7.32828 11.9604 7.32828Z" />
<path d="M17.8663 9.79949C17.5563 9.79949 17.3035 10.0523 17.3035 10.3622C17.3035 10.6722 17.5563 10.925 17.8663 10.925C18.1763 10.925 18.429 10.6722 18.429 10.3622C18.429 10.0523 18.1774 9.79949 17.8663 9.79949Z" />
</svg>