<!--character:1130-->
  <svg width="20" height="20" viewBox="0 0 20 20" >
<path d="M16.7558 13.115C16.8662 13.115 16.9718 13.1498 17.0606 13.2158C17.2886 13.3849 17.3378 13.7077 17.1674 13.9356C16.4222 14.9446 15.3781 15.788 14.148 16.3723C12.8891 16.971 11.455 17.2865 10.0005 17.2865C8.32636 17.2865 6.70864 16.875 5.32373 16.0988C3.95803 15.3333 2.89475 14.2596 2.2491 12.9938C1.79906 12.1108 1.57104 11.1726 1.57104 10.2032C1.57104 9.23379 1.79906 8.29559 2.2491 7.41257C2.67993 6.56674 3.29438 5.8097 4.07564 5.16183C5.66336 3.84571 7.76712 3.11986 10.0005 3.11986C11.4598 3.11986 12.8963 3.43659 14.1576 4.03767C15.3901 4.62555 16.4354 5.47137 17.1794 6.48516C17.3474 6.71311 17.2982 7.03585 17.069 7.20381C16.9802 7.2686 16.8758 7.30339 16.7654 7.30339C16.6022 7.30339 16.4462 7.22541 16.3502 7.09344C15.7069 6.21642 14.7949 5.48097 13.7148 4.96628C12.5915 4.43119 11.3074 4.14804 10.0005 4.14804C8.50157 4.14804 7.05906 4.51277 5.82657 5.20383C4.63848 5.87089 3.71801 6.7959 3.16597 7.87927C2.79034 8.61712 2.59952 9.39816 2.59952 10.2032C2.60072 11.007 2.79034 11.7893 3.16597 12.5259C3.53199 13.2458 4.05883 13.8936 4.73209 14.4515C6.13379 15.6165 8.00473 16.2571 9.99809 16.2571C11.305 16.2571 12.5867 15.9752 13.7076 15.4425C14.7865 14.9302 15.6973 14.1972 16.3418 13.3237C16.4378 13.193 16.5926 13.115 16.7558 13.115Z" />
<path d="M8.6187 7.47845C8.7131 7.57457 8.76448 7.70553 8.76448 7.8449V12.5859C8.76448 12.7277 8.7143 12.8575 8.62348 12.9524C8.52789 13.0509 8.40003 13.1026 8.25067 13.1026C7.95313 13.1026 7.73685 12.8851 7.73685 12.5859V7.8449C7.73685 7.55054 7.95791 7.32826 8.25067 7.32826C8.39286 7.32826 8.52311 7.38113 8.6187 7.47845Z" />
<path d="M11.9605 7.32826C12.0952 7.32826 12.2214 7.38343 12.3248 7.48656C12.5364 7.69883 12.5364 8.00463 12.3248 8.2169L10.3208 10.216L12.3248 12.2152C12.4246 12.3147 12.4811 12.4418 12.4835 12.5737C12.4859 12.7104 12.4306 12.8388 12.3248 12.9443C12.2202 13.0474 12.0952 13.1026 11.9605 13.1026C11.8271 13.1026 11.6961 13.0462 11.5939 12.9443L9.23531 10.5914C9.13433 10.4906 9.08023 10.3575 9.08264 10.2136C9.08023 10.0733 9.13433 9.9414 9.23531 9.84066L11.5939 7.48656C11.6961 7.38463 11.8259 7.32826 11.9605 7.32826Z" />
<path d="M17.8664 9.79948C17.5564 9.79948 17.3036 10.0522 17.3036 10.3622C17.3036 10.6722 17.5564 10.925 17.8664 10.925C18.1764 10.925 18.4291 10.6722 18.4291 10.3622C18.4291 10.0522 18.1776 9.79948 17.8664 9.79948Z" />
</svg>