<!--character:9503-->
  <svg width="24" height="24" viewBox="0 0 24 24" >
<path d="M19.7231 9.27666L21.3215 10.564L21.3197 10.5666C21.7496 10.9124 21.9997 11.4349 21.9997 11.9872C21.9997 12.5395 21.7496 13.0619 21.3197 13.4078L19.7213 14.6951C19.4679 14.8984 19.3366 15.2178 19.3735 15.5408L19.5952 17.5842C19.6556 18.1336 19.4635 18.6807 19.0732 19.0714C18.6829 19.4622 18.1366 19.6542 17.5881 19.5936L15.5488 19.3715C15.2264 19.3357 14.908 19.467 14.7044 19.7199L13.419 21.3207C13.0737 21.7513 12.552 22.0018 12.0006 22.0018C11.4492 22.0018 10.9276 21.7513 10.5822 21.3207L9.29517 19.7172C9.09159 19.4643 8.77316 19.3329 8.45075 19.3688L6.41057 19.5909C5.86203 19.6514 5.31577 19.4591 4.92564 19.0682C4.53551 18.6773 4.34372 18.1301 4.4043 17.5807L4.62606 15.5382C4.66262 15.2152 4.53131 14.896 4.2782 14.6925L2.6798 13.4052C2.24989 13.0593 1.9998 12.5368 1.9998 11.9846C1.9998 11.4323 2.24989 10.9098 2.6798 10.564L4.27994 9.27578C4.53319 9.07239 4.66452 8.75308 4.6278 8.43005L4.40604 6.38757C4.3457 5.83818 4.53772 5.29107 4.92802 4.90034C5.31832 4.5096 5.86466 4.31752 6.41318 4.37819L8.45249 4.59768C8.77504 4.63464 9.09394 4.50306 9.29691 4.24929L10.5822 2.64927C10.9386 2.23694 11.4562 2 12.0006 2C12.5451 2 13.0627 2.23694 13.419 2.64927L14.7044 4.24929C14.908 4.50211 15.2264 4.63346 15.5488 4.59768L17.5907 4.37819C18.1392 4.31776 18.6855 4.51008 19.0756 4.90098C19.4658 5.29189 19.6575 5.83908 19.597 6.38844L19.3752 8.43092C19.3393 8.75384 19.4705 9.07276 19.7231 9.27666ZM13.7557 8.8546L11.9213 10.748L10.0869 8.85459C9.87153 8.63022 9.55306 8.53792 9.25143 8.61246C8.9498 8.68699 8.71085 8.91704 8.62458 9.21594C8.53832 9.51485 8.61785 9.83719 8.83321 10.0616L10.7151 12.0044L8.83321 13.9473C8.61785 14.1717 8.53832 14.494 8.62458 14.793C8.71085 15.0919 8.9498 15.3219 9.25143 15.3964C9.55306 15.471 9.87154 15.3787 10.0869 15.1543L11.9213 13.2609L13.7557 15.1543C13.971 15.3787 14.2895 15.471 14.5912 15.3964C14.8928 15.3219 15.1317 15.0918 15.218 14.7929C15.3043 14.494 15.2247 14.1717 15.0094 13.9473L13.1275 12.0044L15.0094 10.0616C15.2247 9.8372 15.3043 9.51486 15.218 9.21595C15.1317 8.91705 14.8928 8.687 14.5912 8.61247C14.2895 8.53793 13.9711 8.63023 13.7557 8.8546Z" />
</svg>