<!--character:5241-->
  <svg width="24" height="24" viewBox="0 0 24 24" >
<path d="M8.10002 12.75C6.72002 12.75 5.60002 11.63 5.60002 10.25C5.60002 9.25 6.19002 8.4 7.03002 8C6.19002 7.6 5.60002 6.75 5.60002 5.75C5.60002 4.37 6.72002 3.25 8.10002 3.25C8.63002 3.25 9.12002 3.41 9.52002 3.69L9.50002 3.5C9.50002 2.12 10.62 1 12 1C13.38 1 14.5 2.12 14.5 3.5L14.48 3.69C14.89 3.41 15.37 3.25 15.9 3.25C17.28 3.25 18.4 4.37 18.4 5.75C18.4 6.75 17.81 7.6 16.97 8C17.81 8.4 18.4 9.25 18.4 10.25C18.4 11.63 17.28 12.75 15.9 12.75C15.37 12.75 14.88 12.59 14.48 12.31L14.5 12.5C14.5 13.88 13.38 15 12 15C10.62 15 9.50002 13.88 9.50002 12.5L9.52002 12.31C9.11002 12.59 8.63002 12.75 8.10002 12.75ZM20.92 14.2C20.33 18.6 16.56 22 12 22C12 17.44 15.4 13.67 19.8 13.08C20.44 12.99 21.01 13.56 20.92 14.2ZM12 22C12 17.44 8.60002 13.67 4.20002 13.08C3.56002 12.99 2.99002 13.56 3.08002 14.2C3.67002 18.6 7.44002 22 12 22ZM12 5.5C10.62 5.5 9.50002 6.62 9.50002 8C9.50002 9.38 10.62 10.5 12 10.5C13.38 10.5 14.5 9.38 14.5 8C14.5 6.62 13.38 5.5 12 5.5Z" />
</svg>