<!--character:1084-->
  <svg width="20" height="20" viewBox="0 0 20 20" >
<path d="M6.74976 10.625C5.59976 10.625 4.66643 9.69167 4.66643 8.54167C4.66643 7.70834 5.15809 7 5.85809 6.66667C5.15809 6.33334 4.66643 5.625 4.66643 4.79167C4.66643 3.64167 5.59976 2.70834 6.74976 2.70834C7.19143 2.70834 7.59976 2.84167 7.93309 3.075L7.91643 2.91667C7.91643 1.76667 8.84976 0.833336 9.99976 0.833336C11.1498 0.833336 12.0831 1.76667 12.0831 2.91667L12.0664 3.075C12.4081 2.84167 12.8081 2.70834 13.2498 2.70834C14.3998 2.70834 15.3331 3.64167 15.3331 4.79167C15.3331 5.625 14.8414 6.33334 14.1414 6.66667C14.8414 7 15.3331 7.70834 15.3331 8.54167C15.3331 9.69167 14.3998 10.625 13.2498 10.625C12.8081 10.625 12.3998 10.4917 12.0664 10.2583L12.0831 10.4167C12.0831 11.5667 11.1498 12.5 9.99976 12.5C8.84976 12.5 7.91643 11.5667 7.91643 10.4167L7.93309 10.2583C7.59143 10.4917 7.19143 10.625 6.74976 10.625ZM17.4331 11.8333C16.9414 15.5 13.7998 18.3333 9.99976 18.3333C9.99976 14.5333 12.8331 11.3917 16.4998 10.9C17.0331 10.825 17.5081 11.3 17.4331 11.8333ZM9.99976 18.3333C9.99976 14.5333 7.16643 11.3917 3.49976 10.9C2.96643 10.825 2.49143 11.3 2.56643 11.8333C3.05809 15.5 6.19976 18.3333 9.99976 18.3333ZM9.99976 4.58334C8.84976 4.58334 7.91643 5.51667 7.91643 6.66667C7.91643 7.81667 8.84976 8.75 9.99976 8.75C11.1498 8.75 12.0831 7.81667 12.0831 6.66667C12.0831 5.51667 11.1498 4.58334 9.99976 4.58334Z" />
</svg>