<!--character:3024:2844-->
<svg width="24" height="24" viewBox="0 0 24 24">
  <path d="M20.107 15.738C20.2394 15.738 20.3662 15.7797 20.4727 15.8589C20.7464 16.0619 20.8054 16.4492 20.6009 16.7227C19.7066 17.9335 18.4537 18.9456 16.9776 19.6468C15.4669 20.3652 13.746 20.7438 12.0006 20.7438C9.99163 20.7438 8.05036 20.25 6.38848 19.3185C4.74963 18.4 3.47369 17.1115 2.69892 15.5926C2.15887 14.533 1.88525 13.4071 1.88525 12.2438C1.88525 11.0806 2.15887 9.9547 2.69892 8.89508C3.21592 7.88009 3.95325 6.97164 4.89076 6.1942C6.79603 4.61485 9.32054 3.74383 12.0006 3.74383C13.7518 3.74383 15.4756 4.12391 16.9891 4.8452C18.4681 5.55066 19.7225 6.56565 20.6153 7.78219C20.8169 8.05574 20.7579 8.44302 20.4828 8.64457C20.3763 8.72232 20.251 8.76407 20.1185 8.76407C19.9226 8.76407 19.7354 8.67049 19.6202 8.51212C18.8483 7.4597 17.7538 6.57716 16.4577 5.95953C15.1098 5.31742 13.5689 4.97765 12.0006 4.97765C10.2019 4.97765 8.47087 5.41532 6.99188 6.24459C5.56617 7.04507 4.46161 8.15508 3.79916 9.45513C3.34841 10.3405 3.11943 11.2778 3.11943 12.2438C3.12087 13.2084 3.34841 14.1471 3.79916 15.0311C4.23839 15.8949 4.8706 16.6724 5.6785 17.3418C7.36055 18.7398 9.60568 19.5086 11.9977 19.5086C13.566 19.5086 15.104 19.1702 16.4491 18.531C17.7437 17.9163 18.8368 17.0366 19.6101 15.9885C19.7253 15.8316 19.9111 15.738 20.107 15.738Z" />
  <path d="M10.3424 8.97414C10.4557 9.08948 10.5174 9.24663 10.5174 9.41388V15.1031C10.5174 15.2733 10.4572 15.429 10.3482 15.5429C10.2335 15.6611 10.08 15.7231 9.9008 15.7231C9.54376 15.7231 9.28422 15.4621 9.28422 15.1031V9.41388C9.28422 9.06064 9.54949 8.79392 9.9008 8.79392C10.0714 8.79392 10.2277 8.85735 10.3424 8.97414Z" />
  <path d="M14.3526 8.79392C14.5142 8.79392 14.6657 8.86011 14.7897 8.98387C15.0436 9.23859 15.0436 9.60556 14.7897 9.86028L12.385 12.2592L14.7897 14.6582C14.9095 14.7776 14.9773 14.9302 14.9802 15.0885C14.983 15.2525 14.9167 15.4065 14.7897 15.5331C14.6642 15.6569 14.5142 15.7231 14.3526 15.7231C14.1925 15.7231 14.0353 15.6555 13.9127 15.5331L11.0824 12.7097C10.9612 12.5888 10.8963 12.429 10.8992 12.2564C10.8963 12.088 10.9612 11.9297 11.0824 11.8088L13.9127 8.98387C14.0353 8.86155 14.1911 8.79392 14.3526 8.79392Z" />
  <path d="M21.4397 11.7594C21.0677 11.7594 20.7644 12.0627 20.7644 12.4347C20.7644 12.8067 21.0677 13.11 21.4397 13.11C21.8116 13.11 22.115 12.8067 22.115 12.4347C22.115 12.0627 21.8131 11.7594 21.4397 11.7594Z" />
</svg>
