<!--character:2319-->
  <svg width="24" height="24" viewBox="0 0 24 24" >
<path d="M19.7233 9.27669L21.3217 10.564L21.32 10.5666C21.7499 10.9125 22 11.435 22 11.9872C22 12.5395 21.7499 13.062 21.32 13.4078L19.7216 14.6952C19.4682 14.8984 19.3368 15.2178 19.3737 15.5409L19.5955 17.5842C19.6558 18.1336 19.4638 18.6808 19.0735 19.0715C18.6832 19.4622 18.1369 19.6543 17.5883 19.5936L15.549 19.3715C15.2266 19.3358 14.9083 19.4671 14.7046 19.7199L13.4193 21.3208C13.0739 21.7514 12.5523 22.0019 12.0009 22.0019C11.4494 22.0019 10.9278 21.7514 10.5825 21.3208L9.29539 19.7173C9.0918 19.4644 8.77337 19.333 8.45096 19.3689L6.41077 19.591C5.86223 19.6515 5.31596 19.4591 4.92583 19.0682C4.5357 18.6773 4.34391 18.1301 4.40449 17.5808L4.62625 15.5383C4.66281 15.2153 4.53151 14.896 4.27839 14.6925L2.67998 13.4052C2.25008 13.0594 1.99999 12.5369 1.99999 11.9846C1.99999 11.4323 2.25008 10.9099 2.67998 10.564L4.28013 9.27582C4.53338 9.07242 4.66472 8.75311 4.62799 8.43008L4.40623 6.38759C4.34589 5.8382 4.53791 5.29109 4.92821 4.90035C5.31852 4.50961 5.86486 4.31753 6.41338 4.3782L8.4527 4.59769C8.77525 4.63465 9.09415 4.50307 9.29713 4.2493L10.5825 2.64928C10.9388 2.23694 11.4564 2 12.0009 2C12.5453 2 13.0629 2.23694 13.4193 2.64928L14.7046 4.2493C14.9083 4.50213 15.2266 4.63347 15.549 4.59769L17.5909 4.3782C18.1395 4.31777 18.6858 4.51009 19.0759 4.901C19.466 5.2919 19.6578 5.8391 19.5972 6.38846L19.3755 8.43095C19.3396 8.75386 19.4707 9.07279 19.7233 9.27669ZM11.2279 15.2599C11.6705 15.2283 12.0785 15.0085 12.3487 14.656L15.8856 9.93342C16.072 9.68448 16.1116 9.35484 15.9896 9.06867C15.8675 8.78251 15.6023 8.5833 15.2939 8.54608C14.9854 8.50886 14.6806 8.63928 14.4941 8.88822L11.0947 13.427L9.13711 11.4664C8.91876 11.2399 8.59543 11.1491 8.29137 11.2289C7.98732 11.3086 7.74987 11.5464 7.67028 11.8509C7.59069 12.1554 7.68136 12.4793 7.90743 12.698L10.0328 14.8214C10.3503 15.132 10.7853 15.2916 11.2279 15.2599Z" />
</svg>