<!--character:186-->
  <svg width="24" height="24" viewBox="0 0 24 24" >
<path d="M9.20325 9.44924C9.20325 11.1454 10.2509 12.203 11.8121 12.203C13.3321 12.203 14.3797 11.1056 14.3797 9.44924C14.3797 7.79287 13.3321 6.71518 11.8121 6.71518C10.292 6.71518 9.20325 7.75304 9.20325 9.44924Z" />
<path   d="M12 1.60016L4.20011 3.79786V14.8367C4.20011 14.8367 4.33321 22.3999 12 22.3999C19.6668 22.3999 19.7999 14.8198 19.7999 14.8198V3.75862L12 1.60016ZM16.6799 4.8995L16.6799 16.9028H14.3087L14.3088 12.9409C13.834 13.6321 12.7798 14.179 11.4215 14.179C8.7515 14.179 6.80007 12.1833 6.80007 9.44957C6.80007 6.85541 8.66925 4.72011 11.4215 4.72011C12.9827 4.72011 13.9481 5.33861 14.3794 6.13684V4.8995H16.6799ZM14.3087 16.9028L14.3088 19.2799H11.9377V16.9028L14.3087 16.9028ZM9.56634 16.9028H11.9377V19.2799H9.56634V16.9028ZM9.56634 16.9028L7.19515 16.9028V14.5257H9.56631L9.56634 16.9028Z" />
</svg>