<!--character:6258-->
  <svg width="20" height="20" viewBox="0 0 20 20" >
<path d="M16.4359 7.73057L17.768 8.80335L17.7665 8.80553C18.1248 9.09374 18.3332 9.52913 18.3332 9.98936C18.3332 10.4496 18.1248 10.885 17.7665 11.1732L16.4345 12.246C16.2233 12.4154 16.1139 12.6815 16.1446 12.9507L16.3294 14.6535C16.3797 15.1114 16.2197 15.5673 15.8944 15.8929C15.5692 16.2185 15.1139 16.3786 14.6568 16.328L12.9574 16.1429C12.6887 16.1131 12.4234 16.2226 12.2537 16.4333L11.1826 17.7673C10.8948 18.1262 10.4601 18.3349 10.0006 18.3349C9.54105 18.3349 9.10633 18.1262 8.81857 17.7673L7.746 16.4311C7.57635 16.2203 7.31099 16.1108 7.04231 16.1408L5.34215 16.3259C4.88504 16.3762 4.42982 16.2159 4.10471 15.8902C3.7796 15.5644 3.61978 15.1084 3.67026 14.6506L3.85506 12.9486C3.88552 12.6794 3.7761 12.4134 3.56518 12.2438L2.23317 11.171C1.87491 10.8828 1.6665 10.4474 1.6665 9.98718C1.6665 9.52695 1.87491 9.09156 2.23317 8.80335L3.56663 7.72985C3.77767 7.56035 3.88711 7.29426 3.85651 7.02506L3.67171 5.32299C3.62142 4.86517 3.78144 4.40924 4.10669 4.08363C4.43194 3.75801 4.88723 3.59794 5.34433 3.6485L7.04376 3.83141C7.31256 3.86221 7.57831 3.75256 7.74745 3.54108L8.81857 2.20773C9.11549 1.86411 9.54683 1.66666 10.0006 1.66666C10.4543 1.66666 10.8856 1.86411 11.1826 2.20773L12.2537 3.54108C12.4234 3.75177 12.6887 3.86123 12.9574 3.83141L14.659 3.6485C15.1161 3.59814 15.5713 3.75841 15.8964 4.08416C16.2215 4.40992 16.3813 4.86591 16.3309 5.32372L16.1461 7.02579C16.1162 7.29489 16.2255 7.56065 16.4359 7.73057ZM9.35644 12.7166C9.72529 12.6903 10.0652 12.5071 10.2904 12.2133L13.2378 8.27785C13.3932 8.0704 13.4262 7.7957 13.3245 7.55723C13.2228 7.31876 13.0018 7.15275 12.7447 7.12173C12.4877 7.09071 12.2336 7.1994 12.0783 7.40685L9.24542 11.1892L7.61411 9.55531C7.43215 9.36662 7.1627 9.29095 6.90932 9.35738C6.65595 9.4238 6.45807 9.62199 6.39175 9.87576C6.32543 10.1295 6.40098 10.3994 6.58937 10.5816L8.36055 12.3512C8.62511 12.61 8.98759 12.743 9.35644 12.7166Z" />
</svg>