<!--character:7890-->
  <svg width="24" height="24" viewBox="0 0 24 24" >
<path d="M19.5302 9.34475L21.0886 10.5999L21.0869 10.6024C21.5061 10.9396 21.7499 11.4491 21.7499 11.9875C21.7499 12.526 21.5061 13.0354 21.0869 13.3726L19.5285 14.6277C19.2815 14.8259 19.1534 15.1374 19.1893 15.4523L19.4056 17.4446C19.4644 17.9803 19.2772 18.5137 18.8966 18.8947C18.5161 19.2756 17.9834 19.4629 17.4486 19.4037L15.4603 19.1872C15.1459 19.1523 14.8355 19.2804 14.6369 19.5269L13.3837 21.0877C13.0471 21.5075 12.5384 21.7518 12.0008 21.7518C11.4632 21.7518 10.9546 21.5075 10.6179 21.0877L9.36299 19.5243C9.1645 19.2777 8.85403 19.1496 8.53968 19.1846L6.5505 19.4012C6.01567 19.4601 5.48307 19.2726 5.10269 18.8915C4.72231 18.5103 4.53532 17.9768 4.59439 17.4412L4.8106 15.4498C4.84624 15.1348 4.71822 14.8236 4.47144 14.6252L2.91299 13.37C2.49384 13.0328 2.25 12.5234 2.25 11.985C2.25 11.4465 2.49384 10.9371 2.91299 10.5999L4.47314 9.3439C4.72005 9.14559 4.8481 8.83426 4.8123 8.51931L4.59608 6.52789C4.53725 5.99224 4.72447 5.4588 5.10501 5.07784C5.48555 4.69687 6.01824 4.50959 6.55304 4.56874L8.54137 4.78275C8.85586 4.81877 9.16679 4.69049 9.36469 4.44306L10.6179 2.88305C10.9653 2.48102 11.47 2.25 12.0008 2.25C12.5317 2.25 13.0363 2.48102 13.3837 2.88305L14.6369 4.44306C14.8355 4.68957 15.1459 4.81763 15.4603 4.78275L17.4511 4.56874C17.986 4.50982 18.5186 4.69733 18.8989 5.07846C19.2793 5.4596 19.4663 5.99311 19.4072 6.52874L19.191 8.52016C19.156 8.835 19.2839 9.14595 19.5302 9.34475ZM13.712 8.93323L11.9234 10.7793L10.1349 8.93322C9.92492 8.71447 9.61441 8.62448 9.32032 8.69715C9.02623 8.76982 8.79325 8.99412 8.70915 9.28555C8.62504 9.57698 8.70258 9.89127 8.91256 10.11L10.7474 12.0043L8.91256 13.8987C8.70258 14.1174 8.62504 14.4317 8.70915 14.7231C8.79325 15.0146 9.02623 15.2389 9.32032 15.3115C9.61441 15.3842 9.92493 15.2942 10.1349 15.0755L11.9234 13.2294L13.712 15.0755C13.9219 15.2942 14.2325 15.3842 14.5266 15.3115C14.8206 15.2389 15.0536 15.0146 15.1377 14.7231C15.2218 14.4317 15.1443 14.1174 14.9343 13.8987L13.0995 12.0043L14.9343 10.11C15.1443 9.89128 15.2218 9.57699 15.1377 9.28556C15.0536 8.99413 14.8206 8.76983 14.5266 8.69716C14.2325 8.62448 13.922 8.71448 13.712 8.93323Z" />
</svg>