<!--character:935-->
  <svg width="24" height="24" viewBox="0 0 24 24" >
<path   d="M11.3232 2.01617C11.5267 1.89085 11.761 1.82449 12 1.82449C12.239 1.82449 12.4733 1.89085 12.6768 2.01617C12.8803 2.14149 13.045 2.32086 13.1526 2.53429L13.1551 2.53938L13.8462 3.93255L15.3968 4.15651C15.3975 4.15661 15.3983 4.15672 15.399 4.15682C15.6347 4.19035 15.8565 4.28864 16.0397 4.44075C16.2235 4.59335 16.3612 4.7941 16.4373 5.02051L16.4387 5.02462C16.5146 5.25384 16.5239 5.49987 16.4657 5.7342C16.4078 5.9671 16.2856 6.17896 16.1129 6.34556L14.9932 7.43524L15.2582 8.97L15.2591 8.97522C15.2987 9.21279 15.2705 9.45671 15.1777 9.67899C15.0853 9.90061 14.9324 10.0918 14.7366 10.2306C14.5425 10.3687 14.3141 10.4504 14.0765 10.4667C13.8385 10.4831 13.6006 10.4332 13.3893 10.3226C13.389 10.3225 13.3887 10.3224 13.3885 10.3222L12.0003 9.59827L10.6156 10.3222C10.6155 10.3223 10.6154 10.3223 10.6154 10.3223C10.4039 10.4331 10.1658 10.4831 9.92757 10.4667C9.69004 10.4504 9.46167 10.3687 9.26767 10.2307C9.07176 10.0918 8.91884 9.90066 8.82636 9.67899C8.73362 9.45671 8.70543 9.21279 8.74501 8.97522L8.7459 8.97L9.01082 7.43574L7.88775 6.34616C7.71478 6.17947 7.59229 5.96737 7.53436 5.7342C7.47614 5.49988 7.4855 5.25385 7.56136 5.02462L7.56273 5.02051C7.63888 4.79409 7.77655 4.59335 7.96032 4.44075C8.14352 4.28864 8.36533 4.19035 8.60104 4.15682C8.60179 4.15672 8.60253 4.15661 8.60328 4.15651L10.1538 3.93255L10.8449 2.53938L10.8475 2.53429C10.955 2.32086 11.1197 2.1415 11.3232 2.01617ZM10.4197 3.89415C10.4196 3.89415 10.4197 3.89414 10.4197 3.89415V3.89415ZM13.5803 3.89413C13.5802 3.89413 13.5803 3.89414 13.5803 3.89413V3.89413ZM12 4.26132L12.3537 4.97426L12.355 4.97688C12.448 5.16284 12.5846 5.32353 12.7532 5.44522C12.9218 5.56689 13.1173 5.64595 13.3231 5.67566C13.323 5.67566 13.3231 5.67567 13.3231 5.67566L14.1044 5.78851L13.5454 6.33246C13.5449 6.33302 13.5443 6.33358 13.5437 6.33414C13.3949 6.4783 13.2832 6.65644 13.2184 6.85328C13.1533 7.05086 13.1374 7.26135 13.1719 7.46652L13.1725 7.47009L13.3072 8.24974L12.6 7.88093C12.415 7.78351 12.2091 7.73259 12 7.73259C11.7908 7.73259 11.5846 7.78361 11.3996 7.8812L10.6971 8.24844L10.8315 7.47009L10.8321 7.46652C10.8667 7.26137 10.8508 7.05089 10.7857 6.85328C10.7208 6.65617 10.6089 6.47781 10.4598 6.33354C10.4594 6.33318 10.459 6.33282 10.4586 6.33246L9.89767 5.78822L10.6769 5.67568C10.6768 5.67568 10.6769 5.67567 10.6769 5.67568C10.8826 5.64597 11.0782 5.56689 11.2468 5.44522C11.4154 5.32354 11.5521 5.16285 11.6451 4.97688L11.6464 4.97426L12 4.26132ZM6.48642 3.86232C6.93161 4.08339 7.11331 4.62349 6.89224 5.06868L6.1283 6.60716L6.12701 6.60975C6.03541 6.79274 5.90079 6.95078 5.73471 7.07033C5.569 7.1896 5.37689 7.267 5.1748 7.29593C5.17434 7.29599 5.17388 7.29606 5.17342 7.29612L4.55093 7.38608L5.00031 7.82097C5.00048 7.82114 5.00066 7.82131 5.00083 7.82147C5.00092 7.82156 5.00101 7.82165 5.0011 7.82174C5.14815 7.96395 5.25825 8.13992 5.32183 8.33436C5.38549 8.52906 5.40057 8.73636 5.36577 8.93822C5.36575 8.93832 5.36574 8.93843 5.36572 8.93853L5.25754 9.56633L5.82595 9.27014C5.82598 9.27012 5.82602 9.2701 5.82606 9.27008C6.00738 9.17559 6.20882 9.12625 6.41329 9.12625C6.61779 9.12625 6.81928 9.17561 7.00063 9.27014L7.65348 9.61056C8.09422 9.84038 8.2652 10.384 8.03539 10.8247C7.80557 11.2654 7.26198 11.4364 6.82124 11.2066L6.4132 10.9938L5.13415 11.6604C5.13414 11.6604 5.13416 11.6604 5.13415 11.6604C5.13403 11.6604 5.13388 11.6605 5.13376 11.6606C4.92688 11.7684 4.6943 11.8172 4.4615 11.8017C4.22856 11.7862 4.00439 11.7068 3.81357 11.5723L3.81128 11.5707C3.61807 11.4336 3.46748 11.2448 3.37683 11.0259C3.28618 10.807 3.25915 10.567 3.29885 10.3334L3.29919 10.3314L3.54313 8.91566L2.50584 7.91181C2.33608 7.7475 2.21603 7.53867 2.1595 7.30927C2.10298 7.07988 2.11225 6.8392 2.18624 6.61483L2.18791 6.60983C2.2627 6.38743 2.39793 6.19025 2.57845 6.04036C2.75838 5.89096 2.97623 5.79442 3.20775 5.76147L4.6414 5.55431L5.28006 4.26814C5.50112 3.82295 6.04123 3.64126 6.48642 3.86232ZM6.65737 10.8666C6.65757 10.8665 6.65778 10.8664 6.65799 10.8663L6.65787 10.8664L6.65737 10.8666ZM4.30195 10.0643C4.30194 10.0643 4.30197 10.0643 4.30195 10.0643V10.0643ZM17.5131 3.86264C17.9581 3.64122 18.4983 3.82249 18.7197 4.26751L19.3584 5.55124L20.7901 5.75813C20.7909 5.75824 20.7917 5.75835 20.7925 5.75846C21.024 5.79143 21.2418 5.88796 21.4217 6.03733C21.6022 6.18722 21.7374 6.3844 21.8122 6.6068L21.8139 6.6118C21.8879 6.83617 21.8971 7.07685 21.8406 7.30625C21.7842 7.53528 21.6644 7.74381 21.4951 7.908C21.4951 7.90802 21.4951 7.90797 21.4951 7.908C21.4948 7.90823 21.4945 7.90853 21.4943 7.90876L20.4569 8.91523L20.7013 10.3334C20.741 10.567 20.7139 10.807 20.6233 11.0259C20.5326 11.2447 20.382 11.4336 20.1888 11.5707L20.1865 11.5723C19.9957 11.7068 19.7715 11.7862 19.5386 11.8017C19.3057 11.8172 19.073 11.7684 18.866 11.6604C18.866 11.6604 18.8661 11.6604 18.866 11.6604L17.5871 10.9933L17.1796 11.2062C16.7391 11.4365 16.1953 11.266 15.9651 10.8254C15.7349 10.3849 15.9054 9.84116 16.3459 9.61094L16.9995 9.26939C17.1808 9.17485 17.3823 9.12549 17.5868 9.12549C17.7913 9.12549 17.9928 9.17485 18.1742 9.26939L18.7425 9.56581L18.6344 8.93853C18.5995 8.73657 18.6146 8.52915 18.6783 8.33436C18.7418 8.14004 18.8518 7.96416 18.9987 7.822C18.9991 7.82166 18.9994 7.82131 18.9998 7.82097L19.4509 7.3833L18.8267 7.2931C18.8263 7.29304 18.8258 7.29298 18.8254 7.29292C18.6233 7.264 18.4311 7.1866 18.2654 7.0673C18.0993 6.94776 17.9647 6.78972 17.8731 6.60673L17.8721 6.60477L17.1082 5.06932C16.8868 4.6243 17.068 4.08405 17.5131 3.86264ZM20.6186 7.00454L20.6182 7.00503L20.6186 7.00454ZM20.4081 8.63226C20.4082 8.63249 20.4082 8.63273 20.4083 8.63296L20.4081 8.63226ZM9.22756 12.3987C9.96286 11.6634 10.9601 11.2503 12 11.2503C13.0399 11.2503 14.0372 11.6634 14.7724 12.3987C15.5077 13.1339 15.9208 14.1312 15.9208 15.1711C15.9208 15.686 15.8194 16.1958 15.6224 16.6715C15.4253 17.1472 15.1365 17.5795 14.7724 17.9435C14.4414 18.2746 14.0541 18.5433 13.629 18.7375C13.9651 18.8271 14.2942 18.9446 14.6127 19.0891C15.4331 19.4614 16.1644 20.0048 16.7576 20.6829C17.0849 21.057 17.047 21.6256 16.6729 21.9529C16.2988 22.2802 15.7302 22.2422 15.4029 21.8681C14.9786 21.3832 14.4556 20.9945 13.8688 20.7282C13.2821 20.462 12.6452 20.3242 12.0008 20.3242C11.3564 20.3242 10.7195 20.462 10.1328 20.7282C9.54601 20.9945 9.02295 21.3832 8.59867 21.8681C8.27138 22.2422 7.7028 22.2802 7.3287 21.9529C6.95461 21.6256 6.91667 21.057 7.24396 20.6829C7.83718 20.0048 8.56851 19.4614 9.38892 19.0891C9.70711 18.9447 10.0358 18.8274 10.3716 18.7378C9.94628 18.5436 9.55873 18.2747 9.22756 17.9435C8.86348 17.5795 8.57467 17.1472 8.37763 16.6715C8.18059 16.1958 8.07918 15.686 8.07918 15.1711C8.07918 14.1312 8.49226 13.1339 9.22756 12.3987ZM12 13.0503C11.4375 13.0503 10.8981 13.2737 10.5004 13.6714C10.1026 14.0692 9.87918 14.6086 9.87918 15.1711C9.87918 15.4496 9.93403 15.7254 10.0406 15.9827C10.1472 16.24 10.3034 16.4738 10.5004 16.6707C10.6973 16.8677 10.9311 17.0239 11.1884 17.1305C11.4457 17.2371 11.7215 17.2919 12 17.2919C12.2785 17.2919 12.5543 17.2371 12.8116 17.1305C13.0689 17.0239 13.3027 16.8677 13.4997 16.6707C13.6966 16.4738 13.8528 16.24 13.9594 15.9827C14.066 15.7254 14.1208 15.4496 14.1208 15.1711C14.1208 14.6086 13.8974 14.0692 13.4997 13.6714C13.1019 13.2737 12.5625 13.0503 12 13.0503Z" />
</svg>