<!--character:2843-->
  <svg width="24" height="24" viewBox="0 0 24 24" >
<path d="M7.60268 13.6991C7.11294 13.8757 6.57119 13.7959 6.14807 13.4849C5.72842 13.1691 5.4772 12.6661 5.47053 12.128C5.48314 8.54882 7.51404 5.30915 10.6612 3.84793L10.4019 3.12535C10.3016 2.84635 10.3522 2.53295 10.5347 2.3032C10.7172 2.07345 11.004 1.96225 11.2869 2.0115C11.5698 2.06075 11.8059 2.26295 11.9063 2.54195L12.1761 3.29203C15.5296 2.42941 19.0599 3.67317 21.2152 6.47656C21.5396 6.89876 21.6451 7.45877 21.4978 7.97674C21.3506 8.48687 20.9801 8.89497 20.4983 9.07769L15.0082 11.0488C14.9578 11.067 14.9163 11.105 14.8926 11.1546C14.8693 11.2046 14.8661 11.2622 14.8838 11.3146L16.1473 15.0884C16.1756 15.172 16.2515 15.2281 16.3368 15.2284H20.8243C21.2676 15.2284 21.627 15.6015 21.627 16.0618C21.627 16.5221 21.2676 16.8953 20.8243 16.8953H15.2049C13.9356 16.9192 12.7021 17.3359 11.6623 18.0921C11.3023 18.3591 10.8027 18.278 10.5384 17.9095C10.4123 17.7308 10.3599 17.5072 10.3929 17.2882C10.4259 17.0693 10.5415 16.873 10.7142 16.7427C11.7565 15.9525 12.9764 15.4527 14.2576 15.2909C14.3178 15.2833 14.3715 15.2478 14.4036 15.1944C14.4357 15.141 14.4429 15.0754 14.423 15.0159L13.3641 11.8572C13.347 11.8049 13.3105 11.762 13.2628 11.7377C13.215 11.7135 13.1599 11.71 13.1097 11.728L7.60268 13.6991ZM19.81 7.46458C19.8273 7.39791 19.8118 7.32666 19.7686 7.27416C18.4508 5.69445 16.5584 4.75663 14.5466 4.68636C14.4617 4.68372 14.3844 4.73684 14.3536 4.819C14.3228 4.90116 14.3451 4.99457 14.4093 5.05223C15.4712 6.01363 16.4033 7.11927 17.1805 8.33928C17.2305 8.41928 17.3265 8.45366 17.4133 8.42262L19.6819 7.60753C19.7447 7.58474 19.7926 7.53125 19.81 7.46458ZM9.39526 6.67159C8.00023 8.00443 7.16945 9.8559 7.0841 11.8222C7.08081 11.8913 7.11092 11.9575 7.16437 11.9989C7.21737 12.0405 7.28675 12.0524 7.34981 12.0305L9.34308 11.3146C9.42915 11.2836 9.48445 11.1964 9.47795 11.1021C9.37737 9.68503 9.46135 8.26036 9.72761 6.86661C9.74492 6.77814 9.70539 6.68815 9.62969 6.64373C9.55399 6.59931 9.45934 6.61056 9.39526 6.67159Z" />
<path d="M18.6199 18.9872C19.0937 19.7548 19.8923 20.241 20.7689 20.2956V20.289C21.2122 20.2572 21.5964 20.6046 21.627 21.0649C21.6576 21.5252 21.323 21.9241 20.8797 21.9558C19.7747 22.001 18.7043 21.5511 17.9407 20.7207C17.1681 21.519 16.1231 21.9683 15.0331 21.9708C13.9894 21.9777 12.9923 21.5231 12.2908 20.7207C11.4495 21.506 10.3635 21.9499 9.2323 21.9708C8.12499 21.9527 7.06925 21.4819 6.29417 20.6607C5.48255 21.4652 4.41972 21.9404 3.29905 22C2.39433 22 2.35339 21.2758 2.36061 21.1191C2.36898 20.8957 2.46425 20.6855 2.62464 20.5364C2.78504 20.3873 2.99682 20.3122 3.21155 20.3281C4.53772 20.3957 5.69691 18.9263 5.70815 18.9113C5.87736 18.71 6.12653 18.601 6.38346 18.6158C6.6404 18.6307 6.87639 18.7677 7.02309 18.9872C7.52107 19.7634 8.34181 20.2512 9.23872 20.304C10.2174 20.2366 11.1223 19.7403 11.7273 18.9388C11.9035 18.7168 12.174 18.5995 12.45 18.6255C12.7259 18.6515 12.9717 18.8175 13.1065 19.0688C13.4874 19.8108 14.2234 20.2827 15.0331 20.304C15.9318 20.279 16.7598 19.7925 17.2431 19.0055C17.3975 18.7703 17.6527 18.628 17.9269 18.6244C18.2011 18.6207 18.4597 18.7561 18.6199 18.9872Z" />
</svg>