<!--character:157:550:1582-->
<svg width="24" height="24" viewBox="0 0 24 24" xmlns="http://www.w3.org/2000/svg"><path d="M20.7689 20.2956v-.0066c.4433-.0318.8275.3156.8581.7759.0306.4603-.304.8592-.7473.891-1.105.0451-2.1754-.4048-2.939-1.2352-.7726.7983-1.8176 1.2476-2.9076 1.2501-1.0437.0069-2.0408-.4477-2.7422-1.2501-.8414.7853-1.9274 1.2292-3.0586 1.2501-1.1073-.0181-2.163-.4889-2.9381-1.3101-.8116.8045-1.8745 1.2797-2.9951 1.3393-.9048 0-.9457-.7242-.9385-.881.0084-.2233.1037-.4335.264-.5826.1604-.149.3722-.2242.587-.2083 1.3261.0675 2.4853-1.4018 2.4966-1.4168.1692-.2013.4183-.3103.6753-.2955.2569.0149.4929.1519.6396.3714.498.7762 1.3187 1.264 2.2156 1.3168.9787-.0674 1.8836-.5637 2.4886-1.3652.1762-.222.4467-.3393.7227-.3133.276.026.5217.192.6565.4433.381.742 1.117 1.2139 1.9266 1.2352.8987-.025 1.7267-.5115 2.21-1.2985.1544-.2352.4096-.3775.6838-.3811.2742-.0037.5328.1317.693.3628.4738.7676 1.2724 1.2538 2.149 1.3084zM6.148 13.485c-.4197-.3158-.6709-.8189-.6776-1.3569.0126-3.5792 2.0436-6.8189 5.1907-8.28l-.2593-.7227c-.1003-.279-.0497-.5924.1328-.8221.1826-.2298.4693-.341.7522-.2917.283.0492.519.2514.6194.5304l.2698.7501c3.3535-.8626 6.8838.3812 9.0391 3.1846.3244.4222.43.9822.2826 1.5001-.1472.5102-.5177.9183-.9995 1.101l-5.49 1.971a.2066.2066 0 0 0-.1157.1059.2165.2165 0 0 0-.0088.16l1.2635 3.7738c.0283.0836.1042.1397.1895.14h4.4875c.4433 0 .8027.3731.8027.8334 0 .4603-.3594.8334-.8027.8334h-5.6194c-1.2693.024-2.5028.4407-3.5426 1.1969-.36.267-.8596.1858-1.1239-.1826a.8579.8579 0 0 1-.1455-.6213c.033-.219.1486-.4152.3213-.5455 1.0423-.7902 2.2622-1.29 3.5434-1.4518a.2001.2001 0 0 0 .146-.0965.2153.2153 0 0 0 .0194-.1785l-1.0588-3.1587a.2052.2052 0 0 0-.1014-.1195.1932.1932 0 0 0-.1531-.0097l-5.507 1.971c-.4897.1767-1.0315.0969-1.4546-.2141zM19.7686 7.274c-1.3177-1.5797-3.2102-2.5175-5.222-2.5877-.0849-.0027-.1622.0504-.193.1326a.2137.2137 0 0 0 .0558.2332c1.0618.9614 1.9939 2.067 2.7711 3.287.05.08.146.1144.2328.0834l2.2686-.815a.2063.2063 0 0 0 .128-.143.2152.2152 0 0 0-.0413-.1905zM9.3953 6.6716c-1.395 1.3328-2.2258 3.1843-2.3112 5.1506a.2106.2106 0 0 0 .0803.1767.1955.1955 0 0 0 .1854.0316l1.9933-.7159c.086-.031.1414-.1182.1349-.2125a16.3934 16.3934 0 0 1 .2496-4.2355c.0173-.0885-.0222-.1785-.0979-.2229a.195.195 0 0 0-.2344.0279z"/></svg>
