<!--character:8605-->
  <svg width="24" height="24" viewBox="0 0 24 24" >
<path d="M7.60285 13.699C7.11311 13.8757 6.57136 13.7959 6.14823 13.4849C5.72858 13.1691 5.47737 12.666 5.4707 12.128C5.4833 8.54881 7.51421 5.30914 10.6614 3.84792L10.4021 3.12534C10.3017 2.84634 10.3523 2.53294 10.5349 2.30319C10.7174 2.07344 11.0041 1.96224 11.2871 2.01149C11.57 2.06074 11.8061 2.26294 11.9065 2.54194L12.1762 3.29202C15.5298 2.4294 19.0601 3.67316 21.2154 6.47655C21.5398 6.89875 21.6453 7.45876 21.498 7.97673C21.3508 8.48686 20.9803 8.89496 20.4985 9.07769L15.0084 11.0487C14.958 11.067 14.9165 11.105 14.8928 11.1546C14.8695 11.2046 14.8663 11.2622 14.884 11.3146L16.1475 15.0884C16.1757 15.172 16.2516 15.2281 16.337 15.2284H20.8244C21.2678 15.2284 21.6272 15.6015 21.6272 16.0618C21.6272 16.5221 21.2678 16.8952 20.8244 16.8952H15.2051C13.9358 16.9192 12.7023 17.3359 11.6624 18.092C11.3024 18.3591 10.8028 18.2779 10.5386 17.9095C10.4124 17.7307 10.3601 17.5072 10.3931 17.2882C10.426 17.0693 10.5417 16.873 10.7144 16.7427C11.7567 15.9525 12.9766 15.4527 14.2578 15.2909C14.318 15.2833 14.3717 15.2478 14.4038 15.1944C14.4359 15.141 14.443 15.0754 14.4232 15.0159L13.3643 11.8572C13.3472 11.8049 13.3107 11.7619 13.2629 11.7377C13.2152 11.7135 13.1601 11.71 13.1098 11.728L7.60285 13.699ZM19.8101 7.46457C19.8275 7.3979 19.812 7.32665 19.7688 7.27415C18.451 5.69444 16.5585 4.75662 14.5468 4.68635C14.4619 4.68371 14.3846 4.73683 14.3538 4.81899C14.3229 4.90115 14.3453 4.99456 14.4095 5.05223C15.4713 6.01362 16.4034 7.11926 17.1807 8.33927C17.2306 8.41927 17.3266 8.45365 17.4135 8.42261L19.6821 7.60752C19.7449 7.58473 19.7928 7.53124 19.8101 7.46457ZM9.39543 6.67158C8.0004 8.00442 7.16961 9.85589 7.08426 11.8222C7.08098 11.8913 7.11108 11.9575 7.16454 11.9989C7.21753 12.0405 7.28692 12.0524 7.34998 12.0305L9.34325 11.3146C9.42931 11.2836 9.48461 11.1964 9.47811 11.1021C9.37753 9.68502 9.46151 8.26035 9.72777 6.8666C9.74509 6.77813 9.70555 6.68815 9.62985 6.64372C9.55415 6.5993 9.45951 6.61055 9.39543 6.67158Z" />
<path d="M18.62 18.9872C19.0938 19.7548 19.8925 20.241 20.769 20.2956V20.289C21.2124 20.2572 21.5966 20.6046 21.6272 21.0649C21.6578 21.5252 21.3232 21.9241 20.8798 21.9558C19.7748 22.001 18.7044 21.5511 17.9409 20.7207C17.1683 21.519 16.1233 21.9683 15.0333 21.9708C13.9896 21.9777 12.9924 21.5231 12.291 20.7207C11.4497 21.506 10.3637 21.9499 9.23247 21.9708C8.12516 21.9527 7.06941 21.4819 6.29434 20.6607C5.48271 21.4652 4.41988 21.9404 3.29921 22C2.39449 22 2.35355 21.2757 2.36078 21.1191C2.36914 20.8957 2.46442 20.6855 2.62481 20.5364C2.7852 20.3873 2.99698 20.3122 3.21171 20.3281C4.53788 20.3956 5.69708 18.9263 5.70832 18.9113C5.87753 18.71 6.12669 18.601 6.38363 18.6158C6.64056 18.6307 6.87656 18.7677 7.02325 18.9872C7.52123 19.7634 8.34197 20.2512 9.23889 20.304C10.2176 20.2366 11.1224 19.7403 11.7275 18.9388C11.9037 18.7168 12.1742 18.5995 12.4501 18.6255C12.7261 18.6515 12.9718 18.8175 13.1066 19.0688C13.4876 19.8108 14.2236 20.2827 15.0333 20.304C15.9319 20.279 16.76 19.7925 17.2433 19.0055C17.3977 18.7703 17.6529 18.628 17.9271 18.6243C18.2012 18.6207 18.4599 18.7561 18.62 18.9872Z" />
</svg>