<!-- character:0:2507 -->
  <svg width="20" height="20" viewBox="0 0 20 20" >
<path   d="M6.33559 11.4158C5.92747 11.563 5.47601 11.4965 5.12341 11.2373C4.7737 10.9742 4.56435 10.555 4.55879 10.1067C4.5693 7.12397 6.26172 4.42425 8.88437 3.20656L8.66829 2.60441C8.58464 2.37191 8.62682 2.11075 8.77894 1.91929C8.93105 1.72783 9.17 1.63516 9.40576 1.6762C9.64153 1.71724 9.8383 1.88575 9.92195 2.11824L10.1467 2.74332C12.9413 2.02447 15.8833 3.06093 17.6794 5.39709C17.9497 5.74892 18.0376 6.2156 17.9148 6.64723C17.7922 7.07235 17.4835 7.41243 17.082 7.5647L12.5069 9.20725C12.4649 9.22243 12.4303 9.2541 12.4105 9.29545C12.3911 9.33713 12.3885 9.3851 12.4032 9.4288L13.4561 12.5736C13.4796 12.6433 13.5429 12.69 13.614 12.6903H17.3536C17.723 12.6903 18.0225 13.0012 18.0225 13.3848C18.0225 13.7684 17.723 14.0793 17.3536 14.0793H12.6708C11.613 14.0993 10.5851 14.4466 9.71858 15.0767C9.41858 15.2992 9.00223 15.2316 8.78202 14.9246C8.6769 14.7756 8.63327 14.5893 8.66076 14.4068C8.68825 14.2244 8.78461 14.0608 8.92852 13.9522C9.79711 13.2937 10.8137 12.8772 11.8814 12.7424C11.9315 12.736 11.9763 12.7065 12.003 12.662C12.0298 12.6175 12.0357 12.5628 12.0192 12.5132L11.1368 9.88094C11.1225 9.83741 11.0921 9.80158 11.0523 9.78138C11.0125 9.76118 10.9666 9.75827 10.9247 9.77328L6.33559 11.4158ZM16.5083 6.22044C16.5228 6.16488 16.5099 6.1055 16.4739 6.06175C15.3757 4.74533 13.7987 3.96381 12.1222 3.90525C12.0515 3.90305 11.987 3.94732 11.9614 4.01579C11.9357 4.08425 11.9543 4.16209 12.0078 4.21015C12.8927 5.01132 13.6694 5.93268 14.3171 6.94935C14.3587 7.01602 14.4387 7.04467 14.5111 7.0188L16.4016 6.33956C16.4539 6.32057 16.4939 6.276 16.5083 6.22044ZM7.8294 5.55961C7.8828 5.50875 7.96167 5.49938 8.02476 5.5364C8.08784 5.57342 8.12079 5.6484 8.10636 5.72213C7.88447 6.88359 7.81449 8.07082 7.89831 9.2517C7.90372 9.33032 7.85764 9.40294 7.78592 9.4288L6.12486 10.0254C6.07231 10.0436 6.01449 10.0337 5.97033 9.99901C5.92578 9.96457 5.90069 9.90936 5.90343 9.85177C5.97455 8.21321 6.66688 6.67031 7.8294 5.55961ZM15.5166 15.8226C15.9114 16.4623 16.5769 16.8675 17.3074 16.913V16.9074C17.6769 16.881 17.997 17.1705 18.0225 17.554C18.048 17.9376 17.7692 18.27 17.3997 18.2965C16.4789 18.3341 15.5869 17.9592 14.9506 17.2672C14.3068 17.9324 13.436 18.3069 12.5276 18.309C11.6579 18.3147 10.8269 17.9359 10.2424 17.2672C9.54125 17.9216 8.63628 18.2915 7.6936 18.309C6.77084 18.2939 5.89106 17.9015 5.24516 17.2172C4.56881 17.8876 3.68311 18.2836 2.74922 18.3333C1.99529 18.3333 1.96117 17.7297 1.96719 17.5992C1.97416 17.4131 2.05356 17.2379 2.18722 17.1136C2.32088 16.9894 2.49736 16.9268 2.6763 16.9401C3.78145 16.9963 4.74744 15.7719 4.75681 15.7594C4.89782 15.5917 5.10545 15.5008 5.31957 15.5132C5.53368 15.5255 5.73034 15.6397 5.85259 15.8226C6.26757 16.4695 6.95152 16.876 7.69895 16.9199C8.51451 16.8638 9.26856 16.4502 9.77277 15.7823C9.91959 15.5973 10.145 15.4995 10.375 15.5212C10.605 15.5429 10.8097 15.6812 10.9221 15.8907C11.2395 16.509 11.8529 16.9022 12.5276 16.9199C13.2765 16.8991 13.9665 16.4937 14.3693 15.8379C14.4979 15.6418 14.7106 15.5233 14.9391 15.5203C15.1676 15.5172 15.3831 15.6301 15.5166 15.8226Z" />
</svg>