<!--character:8309-->
  <svg width="24" height="24" viewBox="0 0 24 24" >
<path d="M7.6027 13.6991C7.11296 13.8757 6.57121 13.7959 6.14809 13.4849C5.72844 13.1691 5.47722 12.6661 5.47055 12.128C5.48315 8.54882 7.51406 5.30915 10.6612 3.84793L10.402 3.12535C10.3016 2.84635 10.3522 2.53295 10.5347 2.3032C10.7173 2.07345 11.004 1.96225 11.2869 2.0115C11.5698 2.06075 11.806 2.26295 11.9063 2.54195L12.1761 3.29203C15.5296 2.42941 19.06 3.67317 21.2152 6.47656C21.5396 6.89876 21.6451 7.45877 21.4978 7.97674C21.3506 8.48687 20.9802 8.89497 20.4984 9.07769L15.0082 11.0488C14.9578 11.067 14.9163 11.105 14.8926 11.1546C14.8693 11.2046 14.8662 11.2622 14.8838 11.3146L16.1474 15.0884C16.1756 15.172 16.2515 15.2281 16.3368 15.2284H20.8243C21.2676 15.2284 21.627 15.6015 21.627 16.0618C21.627 16.5221 21.2676 16.8953 20.8243 16.8953H15.2049C13.9356 16.9192 12.7021 17.3359 11.6623 18.0921C11.3023 18.3591 10.8027 18.278 10.5384 17.9095C10.4123 17.7308 10.3599 17.5072 10.3929 17.2882C10.4259 17.0693 10.5415 16.873 10.7142 16.7427C11.7565 15.9525 12.9764 15.4527 14.2576 15.2909C14.3178 15.2833 14.3715 15.2478 14.4036 15.1944C14.4357 15.141 14.4429 15.0754 14.423 15.0159L13.3642 11.8572C13.347 11.8049 13.3105 11.762 13.2628 11.7377C13.215 11.7135 13.1599 11.71 13.1097 11.728L7.6027 13.6991ZM19.81 7.46458C19.8273 7.39791 19.8119 7.32666 19.7686 7.27416C18.4509 5.69445 16.5584 4.75663 14.5466 4.68636C14.4618 4.68372 14.3844 4.73684 14.3536 4.819C14.3228 4.90116 14.3451 4.99457 14.4094 5.05223C15.4712 6.01363 16.4033 7.11927 17.1805 8.33928C17.2305 8.41928 17.3265 8.45366 17.4133 8.42262L19.6819 7.60753C19.7447 7.58474 19.7926 7.53125 19.81 7.46458ZM9.39528 6.67159C8.00025 8.00443 7.16946 9.8559 7.08411 11.8222C7.08083 11.8913 7.11093 11.9575 7.16439 11.9989C7.21739 12.0405 7.28677 12.0524 7.34983 12.0305L9.3431 11.3146C9.42917 11.2836 9.48446 11.1964 9.47797 11.1021C9.37739 9.68503 9.46136 8.26036 9.72763 6.86661C9.74494 6.77814 9.70541 6.68815 9.62971 6.64373C9.554 6.59931 9.45936 6.61056 9.39528 6.67159Z" />
<path d="M18.6199 18.9872C19.0937 19.7548 19.8923 20.241 20.7689 20.2956V20.289C21.2122 20.2572 21.5965 20.6046 21.627 21.0649C21.6576 21.5252 21.323 21.9241 20.8797 21.9558C19.7747 22.001 18.7043 21.5511 17.9407 20.7207C17.1681 21.519 16.1232 21.9683 15.0331 21.9708C13.9894 21.9777 12.9923 21.5231 12.2909 20.7207C11.4495 21.506 10.3635 21.9499 9.23232 21.9708C8.12501 21.9527 7.06927 21.4819 6.29419 20.6607C5.48257 21.4652 4.41973 21.9404 3.29907 22C2.39435 22 2.35341 21.2758 2.36063 21.1191C2.369 20.8957 2.46427 20.6855 2.62466 20.5364C2.78505 20.3873 2.99684 20.3122 3.21156 20.3281C4.53774 20.3957 5.69693 18.9263 5.70817 18.9113C5.87738 18.71 6.12654 18.601 6.38348 18.6158C6.64041 18.6307 6.87641 18.7677 7.0231 18.9872C7.52109 19.7634 8.34183 20.2512 9.23874 20.304C10.2174 20.2366 11.1223 19.7403 11.7273 18.9388C11.9035 18.7168 12.174 18.5995 12.45 18.6255C12.726 18.6515 12.9717 18.8175 13.1065 19.0688C13.4875 19.8108 14.2235 20.2827 15.0331 20.304C15.9318 20.279 16.7598 19.7925 17.2431 19.0055C17.3975 18.7703 17.6528 18.628 17.9269 18.6244C18.2011 18.6207 18.4597 18.7561 18.6199 18.9872Z" />
</svg>