<!--character:7255-->
  <svg width="20" height="20" viewBox="0 0 20 20" >
<path d="M6.33571 11.4159C5.92759 11.5631 5.47613 11.4966 5.12353 11.2374C4.77382 10.9743 4.56447 10.555 4.55892 10.1067C4.56942 7.12401 6.26184 4.42428 8.88449 3.2066L8.66842 2.60445C8.58477 2.37195 8.62694 2.11078 8.77906 1.91932C8.93117 1.72787 9.17012 1.6352 9.40589 1.67624C9.64165 1.71728 9.83842 1.88578 9.92207 2.11828L10.1468 2.74335C12.9415 2.0245 15.8834 3.06097 17.6795 5.39713C17.9498 5.74896 18.0377 6.21563 17.915 6.64727C17.7923 7.07239 17.4836 7.41246 17.0821 7.56474L12.507 9.20729C12.465 9.22247 12.4304 9.25414 12.4107 9.29549C12.3912 9.33716 12.3886 9.38514 12.4033 9.42884L13.4563 12.5736C13.4798 12.6433 13.543 12.6901 13.6141 12.6903H17.3537C17.7232 12.6903 18.0227 13.0013 18.0227 13.3848C18.0227 13.7684 17.7232 14.0794 17.3537 14.0794H12.6709C11.6131 14.0993 10.5852 14.4466 9.7187 15.0767C9.41871 15.2992 9.00235 15.2316 8.78214 14.9246C8.67702 14.7756 8.63339 14.5893 8.66088 14.4068C8.68837 14.2244 8.78473 14.0608 8.92865 13.9523C9.79723 13.2937 10.8138 12.8772 11.8815 12.7424C11.9317 12.7361 11.9764 12.7065 12.0031 12.662C12.0299 12.6175 12.0358 12.5628 12.0193 12.5132L11.1369 9.88097C11.1226 9.83745 11.0922 9.80162 11.0524 9.78142C11.0126 9.76122 10.9667 9.7583 10.9249 9.77332L6.33571 11.4159ZM16.5084 6.22048C16.5229 6.16492 16.51 6.10554 16.474 6.06179C15.3758 4.74537 13.7988 3.96385 12.1223 3.90529C12.0516 3.90309 11.9872 3.94736 11.9615 4.01582C11.9358 4.08429 11.9544 4.16213 12.0079 4.21019C12.8928 5.01135 13.6695 5.93272 14.3172 6.94939C14.3588 7.01606 14.4389 7.0447 14.5112 7.01884L16.4017 6.3396C16.4541 6.32061 16.494 6.27603 16.5084 6.22048ZM7.82952 5.55965C6.667 6.67035 5.97468 8.21324 5.90355 9.85181C5.90081 9.90939 5.9259 9.96461 5.97045 9.99904C6.01461 10.0338 6.07243 10.0436 6.12498 10.0254L7.78604 9.42884C7.85776 9.40298 7.90384 9.33036 7.89843 9.25174C7.81461 8.07085 7.88459 6.88363 8.10648 5.72217C8.12091 5.64844 8.08796 5.57345 8.02488 5.53644C7.96179 5.49942 7.88292 5.50879 7.82952 5.55965Z" />
<path d="M15.5167 15.8226C15.9115 16.4623 16.5771 16.8675 17.3075 16.913V16.9075C17.677 16.881 17.9972 17.1705 18.0227 17.5541C18.0482 17.9376 17.7693 18.2701 17.3998 18.2965C16.479 18.3342 15.587 17.9593 14.9507 17.2672C14.3069 17.9325 13.4361 18.3069 12.5277 18.309C11.658 18.3147 10.827 17.9359 10.2425 17.2672C9.54138 17.9217 8.6364 18.2916 7.69372 18.309C6.77096 18.2939 5.89118 17.9016 5.24528 17.2172C4.56893 17.8876 3.68323 18.2837 2.74934 18.3333C1.99541 18.3333 1.96129 17.7298 1.96731 17.5992C1.97429 17.4131 2.05368 17.2379 2.18734 17.1137C2.321 16.9894 2.49749 16.9268 2.67643 16.9401C3.78157 16.9964 4.74757 15.7719 4.75693 15.7594C4.89794 15.5917 5.10558 15.5008 5.31969 15.5132C5.5338 15.5255 5.73046 15.6397 5.85271 15.8226C6.2677 16.4695 6.95164 16.876 7.69907 16.92C8.51463 16.8639 9.26869 16.4502 9.77289 15.7823C9.91971 15.5973 10.1451 15.4996 10.3751 15.5212C10.6051 15.5429 10.8099 15.6812 10.9222 15.8907C11.2397 16.509 11.853 16.9022 12.5277 16.92C13.2766 16.8992 13.9667 16.4937 14.3694 15.8379C14.4981 15.6419 14.7107 15.5233 14.9392 15.5203C15.1677 15.5172 15.3832 15.6301 15.5167 15.8226Z" />
</svg>