<!--character:9652-->
  <svg width="24" height="24" viewBox="0 0 24 24" >
<path d="M18.7599 18.7597H15.9149V14.3044C15.9149 13.242 15.896 11.8744 14.4353 11.8744C12.9535 11.8744 12.7268 13.0319 12.7268 14.2271V18.7594H9.88187V9.59751H12.613V10.8496H12.6513C12.9246 10.3823 13.3195 9.99781 13.7941 9.73719C14.2686 9.47657 14.8049 9.34954 15.3459 9.36962C18.2294 9.36962 18.761 11.2662 18.761 13.7336L18.7599 18.7597ZM6.67184 8.34515C6.34532 8.34521 6.0261 8.24844 5.75457 8.06708C5.48304 7.88572 5.2714 7.62791 5.14639 7.32626C5.02138 7.02461 4.98862 6.69267 5.05226 6.3724C5.1159 6.05214 5.2731 5.75794 5.50394 5.52701C5.73479 5.29608 6.02894 5.13879 6.34918 5.07503C6.66942 5.01127 7.00137 5.0439 7.30307 5.1688C7.60476 5.29371 7.86264 5.50527 8.0441 5.77673C8.22556 6.0482 8.32244 6.36738 8.3225 6.6939C8.32254 6.91071 8.27987 7.1254 8.19694 7.32572C8.11401 7.52603 7.99244 7.70806 7.83916 7.86139C7.68589 8.01472 7.5039 8.13636 7.30361 8.21936C7.10332 8.30237 6.88865 8.34511 6.67184 8.34515ZM8.09431 18.7597H5.24641V9.59751H8.09431V18.7597ZM20.1782 2.40131H3.81684C3.44548 2.39712 3.08764 2.54053 2.82197 2.80003C2.55629 3.05954 2.40453 3.4139 2.4 3.78525V20.2145C2.40438 20.586 2.55605 20.9406 2.82171 21.2004C3.08737 21.4601 3.4453 21.6038 3.81684 21.5999H20.1782C20.5505 21.6046 20.9094 21.4613 21.1761 21.2015C21.4428 20.9417 21.5955 20.5867 21.6006 20.2145V3.78407C21.5953 3.41198 21.4425 3.05721 21.1758 2.79772C20.9091 2.53822 20.5503 2.39521 20.1782 2.40012" />
</svg>