<!--character:8984-->
  <svg width="24" height="24" viewBox="0 0 24 24" >
<path d="M18.9308 3.09127L20.9103 5.07082C22.3644 6.53146 22.3635 8.89273 20.9066 10.3515L18.2672 12.99C17.4636 13.7861 16.2634 14.025 15.2153 13.5985C14.7393 13.4016 14.5125 12.8546 14.7094 12.3787C14.9063 11.9017 15.4523 11.6759 15.9293 11.8728C16.2783 12.0137 16.6787 11.9344 16.9475 11.6703L19.5906 9.03553C19.5906 9.03553 19.5916 9.03553 19.5916 9.0346C20.3196 8.30568 20.3196 7.12411 19.5906 6.39519L17.6111 4.41564C16.8822 3.68672 15.6997 3.68672 14.9707 4.41564L12.3313 7.05504C12.0653 7.32104 11.986 7.7205 12.1288 8.06862C12.3257 8.54461 12.0989 9.0906 11.623 9.28752C11.146 9.48445 10.6 9.25766 10.4031 8.78167C9.97193 7.7345 10.2118 6.53146 11.0107 5.73068L13.651 3.09127C15.1098 1.63624 17.4711 1.63624 18.9308 3.09127Z" />
<path d="M8.04082 15.9598C8.40761 16.3182 8.99373 16.3182 9.36052 15.9598L16.6207 8.70047C16.9791 8.32995 16.9679 7.73823 16.5983 7.38077C16.2362 7.03171 15.6632 7.03171 15.301 7.38077L8.04082 14.6401C7.67682 15.005 7.67682 15.5948 8.04082 15.9598Z" />
<path d="M12.3797 14.7129C11.9037 14.9089 11.676 15.4548 11.8729 15.9318C12.0176 16.2808 11.9373 16.6822 11.6704 16.9491L9.03097 19.5903C8.30205 20.3193 7.12048 20.3193 6.39156 19.5903L4.41107 17.6099C3.68216 16.8819 3.68216 15.7003 4.41014 14.9705C4.41107 14.9705 4.41107 14.9705 4.41107 14.9695L7.05421 12.3311C7.32301 12.0669 7.7234 11.9867 8.07245 12.1285C8.54938 12.3245 9.09443 12.0977 9.29136 11.6208C9.48829 11.1448 9.26149 10.5988 8.78457 10.4028C7.7374 9.97911 6.53902 10.218 5.73451 11.0114L3.09137 13.6498C1.63634 15.1095 1.63634 17.4708 3.09137 18.9305L5.07186 20.9101C6.52969 22.367 8.89283 22.367 10.3507 20.9101L12.991 18.2706C13.7909 17.4689 14.0298 16.265 13.5986 15.2187C13.4017 14.7418 12.8566 14.5159 12.3797 14.7129Z" />
</svg>