<!--character:2867-->
  <svg width="20" height="20" viewBox="0 0 20 20" >
<path d="M15.6332 15.6331H13.2624V11.9203C13.2624 11.035 13.2466 9.89529 12.0294 9.89529C10.7946 9.89529 10.6057 10.8599 10.6057 11.8559V15.6328H8.23489V7.99793H10.5108V9.04132H10.5427C10.7705 8.65188 11.0996 8.33151 11.4951 8.11433C11.8905 7.89714 12.3374 7.79129 12.7883 7.80802C15.1912 7.80802 15.6342 9.38854 15.6342 11.4447L15.6332 15.6331ZM5.55987 6.95429C5.28776 6.95434 5.02175 6.8737 4.79547 6.72257C4.5692 6.57143 4.39283 6.35659 4.28866 6.10522C4.18448 5.85385 4.15718 5.57722 4.21022 5.31034C4.26325 5.04345 4.39425 4.79828 4.58662 4.60584C4.77899 4.4134 5.02411 4.28232 5.29098 4.22919C5.55785 4.17606 5.83448 4.20325 6.08589 4.30734C6.3373 4.41142 6.5522 4.58772 6.70341 4.81394C6.85463 5.04016 6.93537 5.30615 6.93542 5.57825C6.93545 5.75892 6.89989 5.93783 6.83078 6.10476C6.76167 6.2717 6.66037 6.42338 6.53264 6.55116C6.40491 6.67893 6.25325 6.7803 6.08634 6.84947C5.91943 6.91864 5.74054 6.95426 5.55987 6.95429ZM6.74526 15.6331H4.37201V7.99793H6.74526V15.6331ZM16.8151 2.00109H3.1807C2.87124 1.9976 2.57303 2.11711 2.35164 2.33336C2.13025 2.54961 2.00378 2.84492 2 3.15438V16.8454C2.00365 17.155 2.13004 17.4505 2.35143 17.667C2.57281 17.8835 2.87108 18.0032 3.1807 17.9999H16.8151C17.1254 18.0038 17.4245 17.8844 17.6467 17.6679C17.869 17.4515 17.9962 17.1556 18.0005 16.8454V3.15339C17.9961 2.84331 17.8688 2.54768 17.6465 2.33143C17.4242 2.11518 17.1252 1.99601 16.8151 2.0001" />
</svg>