<!--character:7930-->
  <svg width="24" height="24" viewBox="0 0 24 24" >
<path d="M18.9307 3.09127L20.9103 5.07083C22.3644 6.53146 22.3634 8.89274 20.9065 10.3515L18.2671 12.99C17.4635 13.7861 16.2633 14.025 15.2152 13.5985C14.7392 13.4016 14.5124 12.8546 14.7093 12.3787C14.9063 11.9017 15.4523 11.6759 15.9292 11.8728C16.2782 12.0137 16.6786 11.9344 16.9474 11.6703L19.5906 9.03554C19.5907 9.0354 19.5915 9.03496 19.5915 9.0346C20.3195 8.30569 20.3195 7.12411 19.5906 6.3952L17.611 4.41564C16.8821 3.68673 15.6996 3.68673 14.9707 4.41564L12.3313 7.05505C12.0653 7.32104 11.9859 7.7205 12.1287 8.06862C12.3257 8.54461 12.0989 9.0906 11.6229 9.28753C11.146 9.48446 10.6 9.25766 10.403 8.78167C9.97185 7.7345 10.2117 6.53146 11.0106 5.73068L13.651 3.09127C15.1097 1.63624 17.471 1.63624 18.9307 3.09127Z" />
<path d="M8.04071 15.9598C8.4075 16.3182 8.99362 16.3182 9.36041 15.9598L16.6206 8.70048C16.979 8.32996 16.9678 7.73824 16.5982 7.38078C16.2361 7.03172 15.6631 7.03172 15.3009 7.38078L8.04071 14.6401C7.67672 15.005 7.67672 15.5949 8.04071 15.9598Z" />
<path d="M12.3796 14.7129C11.9036 14.9089 11.6759 15.4548 11.8728 15.9318C12.0175 16.2808 11.9372 16.6821 11.6703 16.9491L9.03087 19.5903C8.30195 20.3193 7.12038 20.3193 6.39146 19.5903L4.41098 17.6099C3.68206 16.8819 3.68206 15.7003 4.41004 14.9705L7.05411 12.3311C7.32291 12.0669 7.7233 11.9867 8.07236 12.1285C8.54928 12.3245 9.09433 12.0977 9.29126 11.6208C9.48819 11.1448 9.2614 10.5988 8.78447 10.4028C7.7373 9.97911 6.53893 10.218 5.73441 11.0113L3.09127 13.6498C1.63624 15.1095 1.63624 17.4708 3.09127 18.9305L5.07176 20.9101C6.52959 22.367 8.89274 22.367 10.3506 20.9101L12.9909 18.2706C13.7908 17.4689 14.0297 16.265 13.5985 15.2187C13.4016 14.7418 12.8565 14.5159 12.3796 14.7129Z" />
</svg>