<!-- character:0:436 -->
  <svg width="20" height="20" viewBox="0 0 20 20" >
<path   d="M15.7756 2.57614L17.4252 4.22577C18.6369 5.44296 18.6362 7.4107 17.4221 8.62633L15.2226 10.8251C14.5529 11.4885 13.5527 11.6876 12.6793 11.3322C12.2826 11.1681 12.0936 10.7123 12.2578 10.3156C12.4219 9.91819 12.8769 9.72997 13.2743 9.89408C13.5652 10.0115 13.8988 9.94541 14.1228 9.72531L16.3254 7.52969C16.3254 7.52969 16.3262 7.52969 16.3262 7.52891C16.9329 6.92148 16.9329 5.93684 16.3254 5.32941L14.6758 3.67978V3.67901C14.0684 3.07158 13.083 3.07235 12.4755 3.67978L10.276 5.87929C10.0544 6.10095 9.98826 6.43383 10.1073 6.72393C10.2714 7.12059 10.0824 7.57558 9.68571 7.73969C9.28827 7.9038 8.83328 7.7148 8.66918 7.31814C8.30985 6.4455 8.50973 5.44296 9.1755 4.77565L11.3758 2.57614C12.5914 1.36362 14.5591 1.36362 15.7756 2.57614ZM6.70059 13.2999C7.00625 13.5985 7.49468 13.5985 7.80034 13.2999L13.8505 7.25048C14.1492 6.94171 14.1399 6.44861 13.8319 6.15073C13.5301 5.85984 13.0525 5.85984 12.7508 6.15073L6.70059 12.2001C6.39726 12.5042 6.39726 12.9958 6.70059 13.2999ZM10.3163 12.2608C9.91966 12.4241 9.72988 12.8791 9.89399 13.2766V13.2773C10.0145 13.5682 9.94766 13.9019 9.72522 14.1243L7.52571 16.3254C6.91828 16.9328 5.93364 16.9328 5.32621 16.3254L3.6758 14.675C3.06837 14.0683 3.06837 13.0837 3.67503 12.4755C3.6758 12.4755 3.6758 12.4755 3.6758 12.4747L5.87842 10.276C6.10241 10.0559 6.43607 9.98897 6.72695 10.1072C7.12439 10.2705 7.5786 10.0815 7.74271 9.68409C7.90682 9.28743 7.71782 8.83244 7.32038 8.66911C6.44774 8.31601 5.4491 8.51511 4.77867 9.17621L2.57605 11.3749C1.36352 12.5914 1.36352 14.5591 2.57605 15.7755L4.22646 17.4251C5.44132 18.6392 7.4106 18.6392 8.62546 17.4251L10.8257 15.2256C11.4923 14.5575 11.6914 13.5542 11.3321 12.6824C11.168 12.2849 10.7137 12.0967 10.3163 12.2608Z" />
</svg>