<!--character:9685-->
  <svg width="20" height="20" viewBox="0 0 20 20" >
<path d="M15.7757 2.57606L17.4253 4.22569C18.637 5.44288 18.6363 7.41061 17.4222 8.62625L15.2227 10.825C14.553 11.4884 13.5528 11.6875 12.6794 11.3321C12.2827 11.168 12.0937 10.7122 12.2578 10.3155C12.422 9.91811 12.8769 9.72989 13.2744 9.894C13.5653 10.0114 13.8989 9.94533 14.1229 9.72522L16.3255 7.52961C16.3255 7.52961 16.3263 7.52961 16.3263 7.52883C16.933 6.9214 16.933 5.93676 16.3255 5.32933L14.6759 3.6797C14.0685 3.07227 13.0831 3.07227 12.4756 3.6797L10.2761 5.8792C10.0545 6.10086 9.98835 6.43375 10.1073 6.72385C10.2715 7.12051 10.0825 7.5755 9.6858 7.7396C9.28836 7.90371 8.83337 7.71472 8.66927 7.31806C8.30994 6.44541 8.50983 5.44288 9.17559 4.77556L11.3759 2.57606C12.5915 1.36353 14.5592 1.36353 15.7757 2.57606Z" />
<path d="M6.70068 13.2998C7.00634 13.5985 7.49477 13.5985 7.80043 13.2998L13.8506 7.25039C14.1493 6.94162 14.1399 6.44852 13.832 6.15064C13.5302 5.85976 13.0526 5.85976 12.7509 6.15064L6.70068 12.2001C6.39735 12.5042 6.39735 12.9957 6.70068 13.2998Z" />
<path d="M10.3164 12.2607C9.91975 12.424 9.72997 12.879 9.89408 13.2765C10.0146 13.5674 9.94775 13.9018 9.72531 14.1242L7.5258 16.3253C6.91837 16.9327 5.93373 16.9327 5.3263 16.3253L3.6759 14.6749C3.06847 14.0682 3.06846 13.0836 3.67512 12.4754C3.6759 12.4754 3.6759 12.4754 3.6759 12.4746L5.87851 10.2759C6.1025 10.0558 6.43616 9.98888 6.72705 10.1071C7.12448 10.2704 7.57869 10.0814 7.7428 9.684C7.90691 9.28735 7.71791 8.83236 7.32048 8.66903C6.44783 8.31592 5.44919 8.51503 4.77876 9.17613L2.57614 11.3749C1.36362 12.5913 1.36362 14.559 2.57614 15.7754L4.22655 17.425C5.44141 18.6391 7.4107 18.6391 8.62556 17.425L10.8258 15.2255C11.4924 14.5574 11.6915 13.5541 11.3322 12.6823C11.1681 12.2848 10.7138 12.0966 10.3164 12.2607Z" />
</svg>