<!--character:$550:44-->
  <svg width="24" height="24" viewBox="0 0 24 24" >
<path d="M5.97759 4C7.21102 4 7.97873 4.81146 7.97873 5.82555C7.95574 6.86247 7.21102 7.65142 6.00098 7.65142C4.79107 7.65142 4 6.86247 4 5.82555C4 4.81146 4.76755 4 5.95454 4H5.97759Z" />
<path d="M7.74612 9.18458V19.752H4.20909V9.18458H7.74612Z" />
<path d="M13.2403 20H9.70335C9.70335 20 9.74977 10.4241 9.70335 9.43255H13.2403V10.9287C13.2324 10.9409 13.2245 10.9531 13.2167 10.9651H13.2403V10.9287C13.7104 10.2086 14.5517 9.18458 16.4279 9.18458C18.755 9.18458 20.5 10.6949 20.5 13.9408V20H16.9633V14.3467C16.9633 12.9261 16.4513 11.957 15.1714 11.957C14.1943 11.957 13.6123 12.6105 13.3566 13.2416C13.2632 13.4673 13.2403 13.7829 13.2403 14.0987V20Z" />
</svg>