<!--category:social-->
<!--character:E114-->
<svg width="24" height="24" viewBox="0 0 24 24" xmlns="http://www.w3.org/2000/svg"><path d="M7.7461 9.1846V19.752h-3.537V9.1846h3.537zM5.9776 4c1.2334 0 2.0011.8115 2.0011 1.8256-.023 1.0369-.7677 1.8258-1.9777 1.8258S4 6.8624 4 5.8256C4 4.8115 4.7675 4 5.9545 4h.023zm3.7257 16s.0465-9.5759 0-10.5674h3.537v1.5325h-.0236c.4654-.7214 1.3031-1.7805 3.2112-1.7805 2.3271 0 4.0721 1.5103 4.0721 4.7562V20h-3.5367v-5.6533c0-1.4206-.512-2.3897-1.7919-2.3897-.977 0-1.559.6535-1.8148 1.2846-.0934.2257-.1163.5413-.1163.857V20h-3.537z"/></svg>
