<!-- character:0:2561 -->
  <svg width="20" height="20" viewBox="0 0 20 20" >
<path   d="M4.9813 3.33337C6.00916 3.33337 6.64892 4.00959 6.64892 4.85467C6.62976 5.71877 6.00916 6.37622 5.0008 6.37622C3.99254 6.37622 3.33331 5.71877 3.33331 4.85467C3.33331 4.00959 3.97294 3.33337 4.96209 3.33337H4.98125H4.9813ZM6.45507 7.65386V16.4601H3.50755V7.65386H6.45507ZM11.0335 16.6667H8.08611C8.08611 16.6667 8.12479 8.68682 8.08611 7.8605H11.0336V9.1073C11.027 9.11748 11.0204 9.1276 11.0139 9.13763H11.0336V9.1073C11.4253 8.50725 12.1264 7.65386 13.6899 7.65386C15.6292 7.65386 17.0833 8.91248 17.0833 11.6174V16.6667H14.1361V11.9556C14.1361 10.7718 13.7094 9.9642 12.6428 9.9642C11.8286 9.9642 11.3436 10.5088 11.1305 11.0347C11.0527 11.2228 11.0335 11.4858 11.0335 11.749V16.6667Z" />
</svg>