<!--character:7354-->
  <svg width="24" height="24" viewBox="0 0 24 24" >
<path d="M5.75 7C5.75 7.55228 5.30228 8 4.75 8C4.19772 8 3.75 7.55228 3.75 7C3.75 6.44772 4.19772 6 4.75 6C5.30228 6 5.75 6.44772 5.75 7Z" />
<path d="M19.25 8.00199H7.75C7.19772 8.00199 6.75 7.55427 6.75 7.00199C6.75 6.4497 7.19772 6.00199 7.75 6.00199H19.25C19.8023 6.00199 20.25 6.4497 20.25 7.00199C20.25 7.55427 19.8023 8.00199 19.25 8.00199Z" />
<path d="M4.75 13C5.30228 13 5.75 12.5523 5.75 12C5.75 11.4477 5.30228 11 4.75 11C4.19772 11 3.75 11.4477 3.75 12C3.75 12.5523 4.19772 13 4.75 13Z" />
<path d="M7.75 11.002H19.25C19.8023 11.002 20.25 11.4497 20.25 12.002C20.25 12.5543 19.8023 13.002 19.25 13.002H7.75C7.19772 13.002 6.75 12.5543 6.75 12.002C6.75 11.4497 7.19772 11.002 7.75 11.002Z" />
<path d="M4.75 18C5.30228 18 5.75 17.5523 5.75 17C5.75 16.4477 5.30228 16 4.75 16C4.19772 16 3.75 16.4477 3.75 17C3.75 17.5523 4.19772 18 4.75 18Z" />
<path d="M7.75 16.002H19.25C19.8023 16.002 20.25 16.4497 20.25 17.002C20.25 17.5543 19.8023 18.002 19.25 18.002H7.75C7.19772 18.002 6.75 17.5543 6.75 17.002C6.75 16.4497 7.19772 16.002 7.75 16.002Z" />
</svg>