<!-- character:0:352 -->
  <svg width="20" height="20" viewBox="0 0 20 20" >
<path   d="M4.79167 5.83333C4.79167 6.29357 4.41857 6.66667 3.95833 6.66667C3.4981 6.66667 3.125 6.29357 3.125 5.83333C3.125 5.3731 3.4981 5 3.95833 5C4.41857 5 4.79167 5.3731 4.79167 5.83333ZM16.0417 6.66833H6.45833C5.9981 6.66833 5.625 6.29524 5.625 5.835C5.625 5.37476 5.9981 5.00167 6.45833 5.00167H16.0417C16.5019 5.00167 16.875 5.37476 16.875 5.835C16.875 6.29524 16.5019 6.66833 16.0417 6.66833ZM3.95833 10.8333C4.41857 10.8333 4.79167 10.4602 4.79167 10C4.79167 9.53976 4.41857 9.16667 3.95833 9.16667C3.4981 9.16667 3.125 9.53976 3.125 10C3.125 10.4602 3.4981 10.8333 3.95833 10.8333ZM6.45833 9.16833H16.0417C16.5019 9.16833 16.875 9.54143 16.875 10.0017C16.875 10.4619 16.5019 10.835 16.0417 10.835H6.45833C5.9981 10.835 5.625 10.4619 5.625 10.0017C5.625 9.54143 5.9981 9.16833 6.45833 9.16833ZM3.95833 15C4.41857 15 4.79167 14.6269 4.79167 14.1667C4.79167 13.7064 4.41857 13.3333 3.95833 13.3333C3.4981 13.3333 3.125 13.7064 3.125 14.1667C3.125 14.6269 3.4981 15 3.95833 15ZM6.45833 13.335H16.0417C16.5019 13.335 16.875 13.7081 16.875 14.1683C16.875 14.6286 16.5019 15.0017 16.0417 15.0017H6.45833C5.9981 15.0017 5.625 14.6286 5.625 14.1683C5.625 13.7081 5.9981 13.335 6.45833 13.335Z" />
</svg>