<!-- character:0:1423 -->
  <svg width="20" height="20" viewBox="0 0 20 20" >
<path   d="M3.45831 8.24336C3.45831 4.6435 6.43512 1.66669 10.035 1.66669C13.6348 1.66669 16.6117 4.6435 16.5424 8.24336C16.5424 12.8124 12.0426 16.8969 10.658 18.0737C10.3119 18.4199 9.75807 18.4199 9.3427 18.0737C7.95814 16.8969 3.45831 12.7432 3.45831 8.24336ZM12.458 12.0509C12.9426 12.0509 13.3579 11.6355 13.3579 11.1509V5.05886C13.3579 4.57427 12.9426 4.1589 12.458 4.1589C11.9734 4.1589 11.558 4.57427 11.558 5.05886V7.13571C11.558 7.20494 11.4888 7.27416 11.4195 7.27416H8.58119C8.51196 7.27416 8.44274 7.20494 8.44274 7.13571V5.05886C8.44274 4.57427 8.02737 4.1589 7.54277 4.1589C7.05817 4.1589 6.64281 4.57427 6.64281 5.05886V11.1509C6.64281 11.6355 7.05817 12.0509 7.54277 12.0509C8.02737 12.0509 8.44274 11.6355 8.44274 11.1509V9.00487C8.44274 8.93564 8.51196 8.86641 8.58119 8.86641H11.4195C11.4888 8.86641 11.558 8.93564 11.558 9.00487V11.1509C11.558 11.6355 11.9734 12.0509 12.458 12.0509Z" />
</svg>