<!--category:travel-->
<!--character:007b-->
<svg width="24" height="24" viewBox="0 0 24 24" xmlns="http://www.w3.org/2000/svg"><path d="M12.042 2C7.7222 2 4.15 5.5722 4.15 9.892c0 5.3998 5.3998 10.3842 7.0613 11.7965.4984.4153 1.163.4153 1.5784 0 1.6614-1.4123 7.0612-6.3136 7.0612-11.7965C19.934 5.5722 16.362 2 12.042 2zm3.323 4.0706c0 .4985-.4154.9969-.997.9969h-2.8244c-.0831 0-.1662.083-.1662.1661v1.6615c0 .083.083.1662.1662.1662h2.4091c.4984 0 .9969.4153.9969.9969 0 .4984-.4154.9968-.9969.9968h-2.326c-.0831 0-.1662.0831-.1662.1662v2.4091c0 .4985-.4154.997-.9969.997h-.2492c-.4985 0-.9969-.4155-.9969-.997V6.1537c0-.4985.4154-.9969.9969-.9969h4.1537c.4984 0 .9969.4154.9969.9969v-.083z"/></svg>