<!-- character:0:1415 -->
  <svg width="20" height="20" viewBox="0 0 20 20" >
<path   d="M3.45831 8.24336C3.45831 4.6435 6.43512 1.66669 10.035 1.66669C13.6348 1.66669 16.6117 4.6435 16.5424 8.24336C16.5424 12.8124 12.0426 16.8969 10.658 18.0737C10.3119 18.4199 9.75807 18.4199 9.3427 18.0737C7.95814 16.8969 3.45831 12.7432 3.45831 8.24336ZM13.0118 12.0509C13.4272 12.0509 13.7733 11.7048 13.7733 11.2894H13.8425V8.65873C13.8425 8.24336 13.4964 7.89722 13.081 7.89722H10.5888C10.1734 7.89722 9.8273 8.24336 9.8273 8.65873C9.8273 9.07409 10.1734 9.42023 10.5888 9.42023H11.9734C12.1811 9.42023 12.1811 9.55869 12.1118 9.62792C11.9041 10.0433 11.3503 10.6663 10.2427 10.6663C8.99656 10.6663 7.88891 9.8356 7.88891 8.17413C7.88891 6.3742 9.13502 5.68192 10.1734 5.68192C11.0734 5.68192 11.6272 6.09729 11.9041 6.51265C12.1118 6.78957 12.458 6.92802 12.8041 6.78957L13.0118 6.72034C13.4964 6.51265 13.7041 6.02806 13.4272 5.61269C12.8733 4.78195 11.9041 4.02044 10.1734 4.02044C7.95814 4.02044 6.08898 5.61269 6.08898 8.1049C6.08898 10.5971 7.81968 12.1894 10.035 12.1894C11.1426 12.1894 11.9041 11.7048 12.2503 11.2202C12.2503 11.2202 12.1811 12.0509 13.0118 12.0509Z" />
</svg>