<!-- character:0:1381 -->
  <svg width="20" height="20" viewBox="0 0 20 20" >
<path   d="M3.45834 8.24336C3.45834 4.6435 6.43515 1.66669 10.035 1.66669C13.6349 1.66669 16.6117 4.6435 16.5425 8.24336C16.5425 12.8124 12.0426 16.8969 10.6581 18.0737C10.3119 18.4199 9.7581 18.4199 9.34273 18.0737C7.95817 16.8969 3.45834 12.7432 3.45834 8.24336ZM10.2427 12.2586C11.9734 12.2586 13.0118 11.3586 13.5656 10.4587C13.8426 9.97406 13.6349 9.35101 13.0811 9.35101L12.9426 9.28178C12.5965 9.14332 12.2503 9.28178 12.0426 9.62792C11.7657 10.1125 11.2119 10.5279 10.2427 10.5279C9.06582 10.5279 7.95817 9.62792 7.95817 8.17413C7.95817 6.51265 9.13505 5.75115 10.2427 5.75115C11.2119 5.75115 11.7657 6.16651 12.0426 6.65111C12.2503 6.99725 12.6657 7.13571 13.0118 6.99725H13.0811C13.5656 6.8588 13.8426 6.30497 13.5656 5.8896C13.0811 4.92041 12.0426 4.08967 10.2427 4.08967C8.0274 4.08967 6.15824 5.75115 6.15824 8.17413C6.15824 10.5971 7.95817 12.2586 10.2427 12.2586Z" />
</svg>