<!--character:4586-->
  <svg width="24" height="24" viewBox="0 0 24 24" >
<path d="M4.07695 9.91666C4.082 5.5465 7.62346 2.00505 11.9936 2C16.3635 2.00505 19.9048 5.546 19.9103 9.91583C19.9103 15.3708 14.4586 20.3233 12.792 21.7108C12.3289 22.0955 11.6575 22.0955 11.1945 21.7108C9.52529 20.3233 4.07695 15.3725 4.07695 9.91666ZM13.2436 11.2358H15.952C16.4122 11.2358 16.7853 10.8627 16.7853 10.4025C16.7853 9.94226 16.4122 9.56916 15.952 9.56916H13.2436C13.0135 9.56916 12.827 9.38262 12.827 9.1525V6.44416C12.827 5.98393 12.4539 5.61083 11.9936 5.61083C11.5334 5.61083 11.1603 5.98393 11.1603 6.44416V9.1525C11.1603 9.38262 10.9737 9.56916 10.7436 9.56916H8.03529C7.57505 9.56916 7.20195 9.94226 7.20195 10.4025C7.20195 10.8627 7.57505 11.2358 8.03529 11.2358H10.7436C10.9737 11.2358 11.1603 11.4224 11.1603 11.6525V14.3608C11.1603 14.8211 11.5334 15.1942 11.9936 15.1942C12.4539 15.1942 12.827 14.8211 12.827 14.3608V11.6525C12.827 11.4224 13.0135 11.2358 13.2436 11.2358Z" />
</svg>