<!--character:$550:278-->
  <svg width="24" height="24" viewBox="0 0 24 24" >
<path d="M4.14999 9.892C4.14999 5.57217 7.72216 2 12.042 2C16.3618 2 19.934 5.57217 19.8509 9.892C19.8509 15.3749 14.4511 20.2762 12.7897 21.6885C12.3743 22.1038 11.7097 22.1038 11.2113 21.6885C9.54979 20.2762 4.14999 15.2918 4.14999 9.892ZM12.2912 14.7103C14.3681 14.7103 15.6142 13.6303 16.2788 12.5504C16.6111 11.9689 16.3618 11.2212 15.6972 11.2212L15.5311 11.1381C15.1157 10.972 14.7004 11.1381 14.4511 11.5535C14.1188 12.135 13.4542 12.6334 12.2912 12.6334C10.879 12.6334 9.54978 11.5535 9.54978 9.80893C9.54978 7.81516 10.962 6.90135 12.2912 6.90135C13.4542 6.90135 14.1188 7.3998 14.4511 7.98131C14.7004 8.39668 15.1988 8.56283 15.6142 8.39668H15.6972C16.2788 8.23053 16.6111 7.56594 16.2788 7.0675C15.6972 5.90447 14.4511 4.90758 12.2912 4.90758C9.63286 4.90758 7.38987 6.90135 7.38987 9.80893C7.38987 12.7165 9.54978 14.7103 12.2912 14.7103Z" />
</svg>