<!--character:68:550:265-->
<svg width="24" height="24" viewBox="0 0 24 24" xmlns="http://www.w3.org/2000/svg"><path d="M11.2113 8.812h.9138c.8307 0 1.246-.3322 1.246-.9968 0-.6646-.4153-.997-1.246-.997h-.9138c-.0831 0-.1662.0831-.1662.1662V8.646c0 .083.083.1661.1662.1661zm1.08 1.7446h-1.08c-.0831 0-.1662.083-.1662.1661v1.9107c0 .0831.083.1662.1662.1662h1.163c.8307 0 1.3292-.4154 1.3292-1.08-.0831-.7476-.5815-1.163-1.4123-1.163zM12.042 2C7.7222 2 4.15 5.5722 4.15 9.892c0 5.3998 5.3998 10.3842 7.0613 11.7965.4984.4153 1.163.4153 1.5784 0 1.6614-1.4123 7.0612-6.3136 7.0612-11.7965C19.934 5.5722 16.362 2 12.042 2zm.7477 12.461H9.9652c-.5816 0-.997-.4153-.997-.9968V6.0706c0-.5815.4154-.9969.997-.9969h2.4922c1.8276 0 2.9076 1.08 2.9076 2.4922 0 .997-.5816 1.7446-1.4123 1.9938.8307.1662 1.6615.9969 1.6615 2.243.083 1.4953-1.08 2.6584-2.8245 2.6584z"/></svg>
