<!-- character:0:1431 -->
  <svg width="20" height="20" viewBox="0 0 20 20" >
<path   d="M3.45831 8.24336C3.45831 4.6435 6.43512 1.66669 10.035 1.66669C13.6348 1.66669 16.6117 4.6435 16.5424 8.24336C16.5424 12.8124 12.0426 16.8969 10.658 18.0737C10.3119 18.4199 9.75807 18.4199 9.3427 18.0737C7.95814 16.8969 3.45831 12.7432 3.45831 8.24336ZM10.035 12.0509C10.5196 12.0509 10.9349 11.6355 10.9349 11.1509V5.05886C10.9349 4.57427 10.5196 4.1589 10.035 4.1589C9.55039 4.1589 9.13502 4.57427 9.13502 5.05886V11.1509C9.13502 11.6355 9.55039 12.0509 10.035 12.0509Z" />
</svg>