<!-- character:0:1369 -->
  <svg width="20" height="20" viewBox="0 0 20 20" >
<path   d="M10.035 1.66669C6.43514 1.66669 3.45833 4.6435 3.45833 8.24336C3.45833 12.7432 7.95815 16.8969 9.34272 18.0737C9.75809 18.4199 10.3119 18.4199 10.6581 18.0737C12.0426 16.8969 16.5424 12.8124 16.5424 8.24336C16.6117 4.6435 13.6349 1.66669 10.035 1.66669ZM10.1042 7.34339H9.34272C9.27349 7.34339 9.20426 7.27416 9.20426 7.20494V5.82037C9.20426 5.75115 9.27349 5.68192 9.34272 5.68192H10.1042C10.7965 5.68192 11.1426 5.95883 11.1426 6.51265C11.1426 7.06648 10.7965 7.34339 10.1042 7.34339ZM9.34272 8.79718H10.2427C10.935 8.79718 11.3503 9.14332 11.4196 9.76637C11.4196 10.3202 11.0042 10.6663 10.3119 10.6663H9.34272C9.27349 10.6663 9.20426 10.5971 9.20426 10.5279V8.93564C9.20426 8.86641 9.27349 8.79718 9.34272 8.79718ZM8.3043 12.0509H10.6581C12.1118 12.0509 13.081 11.0817 13.0118 9.8356C13.0118 8.79718 12.3195 8.1049 11.6272 7.96644C12.3195 7.75876 12.8041 7.13571 12.8041 6.30497C12.8041 5.12809 11.9042 4.22813 10.3811 4.22813H8.3043C7.8197 4.22813 7.47356 4.57427 7.47356 5.05886V11.2202C7.47356 11.7048 7.8197 12.0509 8.3043 12.0509Z" />
</svg>