<!--character:2610-->
  <svg width="20" height="20" viewBox="0 0 20 20" >
<path d="M3.45837 8.24333C3.45837 4.64347 6.43518 1.66666 10.035 1.66666C13.6349 1.66666 16.6117 4.64347 16.5425 8.24333C16.5425 12.8124 12.0427 16.8968 10.6581 18.0737C10.312 18.4199 9.75813 18.4199 9.34276 18.0737C7.9582 16.8968 3.45837 12.7432 3.45837 8.24333ZM10.2427 12.2586C11.9734 12.2586 13.0119 11.3586 13.5657 10.4586C13.8426 9.97404 13.6349 9.35098 13.0811 9.35098L12.9426 9.28176C12.5965 9.1433 12.2503 9.28176 12.0427 9.6279C11.7657 10.1125 11.2119 10.5279 10.2427 10.5279C9.06585 10.5279 7.9582 9.6279 7.9582 8.17411C7.9582 6.51263 9.13508 5.75112 10.2427 5.75112C11.2119 5.75112 11.7657 6.16649 12.0427 6.65109C12.2503 6.99723 12.6657 7.13568 13.0119 6.99723H13.0811C13.5657 6.85877 13.8426 6.30495 13.5657 5.88958C13.0811 4.92038 12.0427 4.08965 10.2427 4.08965C8.02743 4.08965 6.15827 5.75112 6.15827 8.17411C6.15827 10.5971 7.9582 12.2586 10.2427 12.2586Z" />
</svg>