<!--character:3024:2850-->
<svg width="24" height="24" viewBox="0 0 24 24">
  <path d="M12.0421 2C7.72222 2 4.15005 5.57217 4.15005 9.892C4.15005 15.2918 9.54984 20.2762 11.2113 21.6885C11.7098 22.1038 12.3743 22.1038 12.7897 21.6885C14.4512 20.2762 19.851 15.3749 19.851 9.892C19.9341 5.57217 16.3619 2 12.0421 2ZM12.1251 8.81204H11.2113C11.1282 8.81204 11.0452 8.72897 11.0452 8.6459V6.98442C11.0452 6.90135 11.1282 6.81827 11.2113 6.81827H12.1251C12.9559 6.81827 13.3712 7.15057 13.3712 7.81516C13.3712 8.47975 12.9559 8.81204 12.1251 8.81204ZM11.2113 10.5566H12.2913C13.122 10.5566 13.6205 10.972 13.7035 11.7196C13.7035 12.3842 13.2051 12.7996 12.3743 12.7996H11.2113C11.1282 12.7996 11.0452 12.7165 11.0452 12.6334V10.7227C11.0452 10.6397 11.1282 10.5566 11.2113 10.5566ZM9.96521 14.4611C9.38369 14.4611 8.96833 14.0457 8.96833 13.4642V6.07061C8.96833 5.48909 9.38369 5.07372 9.96521 5.07372H12.4574C14.285 5.07372 15.365 6.15368 15.365 7.56594C15.365 8.56282 14.7835 9.31048 13.9528 9.55971C14.7835 9.72585 15.6142 10.5566 15.6142 11.8027C15.6973 13.298 14.5343 14.4611 12.7897 14.4611H9.96521Z" />
</svg>
