<!--character:9233-->
  <svg width="24" height="24" viewBox="0 0 24 24" >
<path d="M12.042 2C7.72216 2 4.14999 5.57217 4.14999 9.892C4.14999 15.2918 9.54979 20.2762 11.2113 21.6885C11.7097 22.1038 12.3743 22.1038 12.7897 21.6885C14.4511 20.2762 19.8509 15.3749 19.8509 9.892C19.934 5.57217 16.3618 2 12.042 2ZM11.8759 7.81516L10.962 10.3904C10.962 10.4735 11.0451 10.6397 11.1282 10.6397H12.9558C13.0389 10.6397 13.122 10.5566 13.122 10.3904L12.2081 7.81516C12.1251 7.64901 11.9589 7.64901 11.8759 7.81516ZM15.1988 14.4611C14.7834 14.4611 14.3681 14.2118 14.2019 13.7965L13.7865 12.6334C13.7865 12.5504 13.7035 12.5504 13.6204 12.5504H10.2974C10.2144 12.5504 10.1313 12.6334 10.1313 12.6334L9.71593 13.7965C9.63286 14.2118 9.21749 14.4611 8.80212 14.4611C8.05446 14.4611 7.55602 13.7134 7.80524 13.0488L10.5467 5.65524C10.7128 5.23987 11.0451 4.99065 11.5436 4.99065H12.5404C12.9558 4.99065 13.3712 5.23987 13.5373 5.65524L16.2788 13.0488C16.528 13.7134 16.0295 14.4611 15.2819 14.4611H15.1988Z" />
</svg>