<!--character:133:550:287-->
  <svg width="24" height="24" viewBox="0 0 24 24" >
<path d="M12.042 2C7.72216 2 4.14999 5.57217 4.14999 9.892C4.14999 15.2918 9.54979 20.2762 11.2113 21.6885C11.7097 22.1038 12.3743 22.1038 12.7897 21.6885C14.4511 20.2762 19.8509 15.3749 19.8509 9.892C19.934 5.57217 16.3618 2 12.042 2ZM11.5436 6.98441H10.4636C10.3805 6.98441 10.3805 7.06748 10.3805 7.15056V12.3011C10.3805 12.3842 10.4636 12.4673 10.5467 12.4673H11.6266C13.0389 12.4673 14.285 11.6365 14.285 9.72584C14.285 7.81515 13.0389 6.98441 11.5436 6.98441ZM9.21748 14.4611C8.63596 14.4611 8.22059 14.0457 8.22059 13.4642V6.07061C8.22059 5.4891 8.63596 5.07373 9.21748 5.07373H11.6266C14.4511 5.07373 16.3618 6.90135 16.3618 9.80893C16.3618 12.6334 14.4511 14.4611 11.6266 14.4611H9.21748Z" />
</svg>