<!--character:$550:352-->
  <svg width="24" height="24" viewBox="0 0 24 24" >
<path d="M4.07666 9.91667C4.08171 5.54651 7.62317 2.00505 11.9933 2C16.3632 2.00505 19.9045 5.546 19.91 9.91583C19.91 15.3708 14.4583 20.3233 12.7917 21.7108C12.3286 22.0955 11.6572 22.0955 11.1942 21.7108C9.52499 20.3233 4.07666 15.3725 4.07666 9.91667ZM13.2433 11.2358H15.9517C16.4119 11.2358 16.785 10.8627 16.785 10.4025C16.785 9.94226 16.4119 9.56917 15.9517 9.56917H13.2433C13.0132 9.56917 12.8267 9.38262 12.8267 9.1525V6.44417C12.8267 5.98393 12.4536 5.61084 11.9933 5.61084C11.5331 5.61084 11.16 5.98393 11.16 6.44417V9.1525C11.16 9.38262 10.9734 9.56917 10.7433 9.56917H8.03499C7.57476 9.56917 7.20166 9.94226 7.20166 10.4025C7.20166 10.8627 7.57476 11.2358 8.03499 11.2358H10.7433C10.9734 11.2358 11.16 11.4224 11.16 11.6525V14.3608C11.16 14.8211 11.5331 15.1942 11.9933 15.1942C12.4536 15.1942 12.8267 14.8211 12.8267 14.3608V11.6525C12.8267 11.4224 13.0132 11.2358 13.2433 11.2358Z" />
</svg>