<!--character:70:550:287-->
<svg width="24" height="24" viewBox="0 0 24 24" xmlns="http://www.w3.org/2000/svg"><path d="M11.5436 6.9844h-1.08c-.083 0-.083.0831-.083.1662v5.1505c0 .0831.083.1662.166.1662h1.08c1.4123 0 2.6584-.8307 2.6584-2.7414s-1.2461-2.7415-2.7414-2.7415zM12.042 2C7.7222 2 4.15 5.5722 4.15 9.892c0 5.3998 5.3998 10.3842 7.0613 11.7965.4984.4153 1.163.4153 1.5784 0 1.6614-1.4123 7.0612-6.3136 7.0612-11.7965C19.934 5.5722 16.362 2 12.042 2zm-.4154 12.461H9.2175c-.5815 0-.9969-.4153-.9969-.9968V6.0706c0-.5815.4154-.9969.9969-.9969h2.4091c2.8245 0 4.7352 1.8276 4.7352 4.7352 0 2.8245-1.9107 4.6522-4.7352 4.6522z"/></svg>
