<!-- character:0:1455 -->
  <svg width="20" height="20" viewBox="0 0 20 20" >
<path   d="M3.39722 8.26391C3.40143 4.62211 6.35264 1.6709 9.99444 1.66669C13.636 1.6709 16.5871 4.62169 16.5917 8.26322C16.5917 12.809 12.0486 16.9361 10.6597 18.0924C10.2739 18.4129 9.71433 18.4129 9.32847 18.0924C7.93749 16.9361 3.39722 12.8104 3.39722 8.26391ZM11.0361 9.36321H13.293C13.6766 9.36321 13.9875 9.0523 13.9875 8.66877C13.9875 8.28524 13.6766 7.97433 13.293 7.97433H11.0361C10.8443 7.97433 10.6889 7.81887 10.6889 7.6271V5.37016C10.6889 4.98663 10.378 4.67571 9.99444 4.67571C9.61091 4.67571 9.29999 4.98663 9.29999 5.37016V7.6271C9.29999 7.81887 9.14454 7.97433 8.95277 7.97433H6.69583C6.3123 7.97433 6.00138 8.28524 6.00138 8.66877C6.00138 9.0523 6.3123 9.36321 6.69583 9.36321H8.95277C9.14454 9.36321 9.29999 9.51867 9.29999 9.71044V11.9674C9.29999 12.3509 9.61091 12.6618 9.99444 12.6618C10.378 12.6618 10.6889 12.3509 10.6889 11.9674V9.71044C10.6889 9.51867 10.8443 9.36321 11.0361 9.36321Z" />
</svg>