<!--character:68:550:265-->
  <svg width="24" height="24" viewBox="0 0 24 24" >
<path   d="M12.042 2C7.72218 2 4.15001 5.57217 4.15001 9.892C4.15001 15.2918 9.5498 20.2762 11.2113 21.6885C11.7097 22.1038 12.3743 22.1038 12.7897 21.6885C14.4512 20.2762 19.8509 15.3749 19.8509 9.892C19.934 5.57217 16.3618 2 12.042 2ZM12.1251 8.81204H11.2113C11.1282 8.81204 11.0451 8.72896 11.0451 8.64589V6.98441C11.0451 6.90134 11.1282 6.81827 11.2113 6.81827H12.1251C12.9558 6.81827 13.3712 7.15056 13.3712 7.81515C13.3712 8.47974 12.9558 8.81204 12.1251 8.81204ZM11.2113 10.5566H12.2912C13.122 10.5566 13.6204 10.972 13.7035 11.7196C13.7035 12.3842 13.2051 12.7996 12.3743 12.7996H11.2113C11.1282 12.7996 11.0451 12.7165 11.0451 12.6334V10.7228C11.0451 10.6397 11.1282 10.5566 11.2113 10.5566ZM9.96516 14.4611H12.7897C14.5342 14.4611 15.6972 13.298 15.6142 11.8027C15.6142 10.5566 14.7834 9.72586 13.9527 9.55971C14.7834 9.31049 15.365 8.56283 15.365 7.56594C15.365 6.15369 14.285 5.07373 12.4574 5.07373H9.96516C9.38364 5.07373 8.96828 5.4891 8.96828 6.07061V13.4642C8.96828 14.0457 9.38364 14.4611 9.96516 14.4611Z" />
</svg>