<!--character:2672-->
  <svg width="20" height="20" viewBox="0 0 20 20" >
<path d="M3.45825 8.24333C3.45825 4.64347 6.43506 1.66666 10.0349 1.66666C13.6348 1.66666 16.6116 4.64347 16.5424 8.24333C16.5424 12.8124 12.0425 16.8968 10.658 18.0737C10.3118 18.4199 9.75801 18.4199 9.34264 18.0737C7.95808 16.8968 3.45825 12.7432 3.45825 8.24333ZM11.9041 12.0509C12.3194 12.0509 12.6656 11.7047 12.6656 11.2894H12.7348V11.1509C12.7348 10.7355 12.3887 10.3894 11.9733 10.3894H9.61955C9.55033 10.3894 9.4811 10.3202 9.4811 10.2509V9.00484C9.4811 8.93561 9.55033 8.86639 9.61955 8.86639H11.6272C12.0425 8.86639 12.3887 8.52025 12.3887 8.10488C12.3887 7.68951 12.0425 7.34337 11.6272 7.34337H9.61955C9.55033 7.34337 9.4811 7.27414 9.4811 7.20491V6.02803C9.4811 5.95881 9.55033 5.88958 9.61955 5.88958H11.9041C12.3194 5.88958 12.6656 5.54344 12.6656 5.12807V4.98961C12.6656 4.57424 12.3194 4.2281 11.9041 4.2281H8.44268C8.02731 4.2281 7.68117 4.57424 7.68117 4.98961V11.2894C7.68117 11.7047 8.02731 12.0509 8.44268 12.0509H11.9041Z" />
</svg>