<!--character:$550:307-->
  <svg width="24" height="24" viewBox="0 0 24 24" >
<path d="M4.15002 9.892C4.15002 5.57217 7.72219 2 12.042 2C16.3619 2 19.934 5.57217 19.851 9.892C19.851 15.3749 14.4512 20.2762 12.7897 21.6885C12.3743 22.1038 11.7097 22.1038 11.2113 21.6885C9.54982 20.2762 4.15002 15.2918 4.15002 9.892ZM15.3641 6.11097C15.3647 6.09753 15.365 6.08408 15.365 6.07063V6.1537C15.365 6.13936 15.3647 6.12511 15.3641 6.11097ZM14.3681 7.06751C14.9339 7.06751 15.3424 6.59561 15.3641 6.11097C15.3404 5.55194 14.8542 5.15682 14.3681 5.15682H10.2144C9.63289 5.15682 9.21752 5.65526 9.21752 6.1537V13.6303C9.21752 14.2119 9.71597 14.6272 10.2144 14.6272H10.4636C11.0451 14.6272 11.4605 14.1288 11.4605 13.6303V11.2212C11.4605 11.1381 11.5436 11.0551 11.6267 11.0551H13.9527C14.5342 11.0551 14.9496 10.5566 14.9496 10.0582C14.9496 9.47665 14.4512 9.06128 13.9527 9.06128H11.5436C11.4605 9.06128 11.3774 8.97821 11.3774 8.89513V7.23366C11.3774 7.15059 11.4605 7.06751 11.5436 7.06751H14.3681Z" />
</svg>