<!-- character:0:1359 -->
  <svg width="20" height="20" viewBox="0 0 20 20" >
<path   d="M10.035 1.66669C6.43514 1.66669 3.45834 4.6435 3.45834 8.24336C3.45834 12.7432 7.95816 16.8969 9.34272 18.0737C9.75809 18.4199 10.3119 18.4199 10.6581 18.0737C12.0426 16.8969 16.5424 12.8124 16.5424 8.24336C16.6117 4.6435 13.6349 1.66669 10.035 1.66669ZM9.89655 6.51265L9.13504 8.65873C9.13504 8.72795 9.20427 8.86641 9.2735 8.86641H10.7965C10.8657 8.86641 10.935 8.79718 10.935 8.65873L10.1735 6.51265C10.1042 6.3742 9.96578 6.3742 9.89655 6.51265ZM12.6657 12.0509H12.7349C13.358 12.0509 13.7733 11.4278 13.5656 10.874L11.2811 4.71272C11.1427 4.36658 10.7965 4.1589 10.4504 4.1589H9.61964C9.20427 4.1589 8.92736 4.36658 8.7889 4.71272L6.50437 10.874C6.29669 11.4278 6.71206 12.0509 7.33511 12.0509C7.68125 12.0509 8.02739 11.8432 8.09662 11.4971L8.44276 10.5279C8.44276 10.5279 8.51199 10.4587 8.58122 10.4587H11.3503C11.4196 10.4587 11.4888 10.4587 11.4888 10.5279L11.8349 11.4971C11.9734 11.8432 12.3195 12.0509 12.6657 12.0509Z" />
</svg>