<!--character:67:550:254-->
  <svg width="24" height="24" viewBox="0 0 24 24" >
<path   d="M12.042 2C7.72218 2 4.15001 5.57217 4.15001 9.892C4.15001 15.2918 9.5498 20.2762 11.2113 21.6885C11.7097 22.1038 12.3743 22.1038 12.7897 21.6885C14.4512 20.2762 19.8509 15.3749 19.8509 9.892C19.934 5.57217 16.3618 2 12.042 2ZM11.8759 7.81516L10.962 10.3904C10.962 10.4735 11.0451 10.6397 11.1282 10.6397H12.9558C13.0389 10.6397 13.122 10.5566 13.122 10.3904L12.2082 7.81516C12.1251 7.64901 11.9589 7.64901 11.8759 7.81516ZM15.1988 14.461H15.2819C16.0296 14.461 16.528 13.7134 16.2788 13.0488L13.5373 5.65523C13.3712 5.23986 12.9558 4.99064 12.5405 4.99064H11.5436C11.0451 4.99064 10.7128 5.23986 10.5467 5.65523L7.80526 13.0488C7.55604 13.7134 8.05448 14.461 8.80215 14.461C9.21752 14.461 9.63288 14.2118 9.71596 13.7965L10.1313 12.6334C10.1313 12.6334 10.2144 12.5503 10.2975 12.5503H13.6204C13.7035 12.5503 13.7866 12.5503 13.7866 12.6334L14.2019 13.7965C14.3681 14.2118 14.7835 14.461 15.1988 14.461Z" />
</svg>