<!--character:9671-->
  <svg width="20" height="20" viewBox="0 0 20 20" >
<path d="M10.0349 1.66666C6.43506 1.66666 3.45825 4.64347 3.45825 8.24333C3.45825 12.7432 7.95808 16.8968 9.34264 18.0737C9.75801 18.4199 10.3118 18.4199 10.658 18.0737C12.0425 16.8968 16.5424 12.8124 16.5424 8.24333C16.6116 4.64347 13.6348 1.66666 10.0349 1.66666ZM9.61955 5.82035H8.71959C8.65036 5.82035 8.65036 5.88958 8.65036 5.95881V10.2509C8.65036 10.3202 8.71959 10.3894 8.78882 10.3894H9.68878C10.8657 10.3894 11.9041 9.69712 11.9041 8.10488C11.9041 6.51263 10.8657 5.82035 9.61955 5.82035ZM7.68117 12.0509C7.19657 12.0509 6.85043 11.7047 6.85043 11.2201V5.05884C6.85043 4.57424 7.19657 4.2281 7.68117 4.2281H9.68878C12.0425 4.2281 13.6348 5.75112 13.6348 8.17411C13.6348 10.5279 12.0425 12.0509 9.68878 12.0509H7.68117Z" />
</svg>