<!--character:74:550:325-->
  <svg width="24" height="24" viewBox="0 0 24 24" >
<path   d="M4.15002 9.892C4.15002 5.57217 7.72219 2 12.042 2C16.3619 2 19.934 5.57217 19.851 9.892C19.851 15.3749 14.4512 20.2762 12.7897 21.6885C12.3743 22.1038 11.7097 22.1038 11.2113 21.6885C9.54982 20.2762 4.15002 15.2918 4.15002 9.892ZM14.9496 14.461C15.5311 14.461 16.0296 13.9626 16.0296 13.3811V6.0706C16.0296 5.48908 15.5311 4.99064 14.9496 4.99064C14.3681 4.99064 13.8697 5.48908 13.8697 6.0706V8.56281C13.8697 8.64588 13.7866 8.72896 13.7035 8.72896H10.2975C10.2144 8.72896 10.1313 8.64588 10.1313 8.56281V6.0706C10.1313 5.48908 9.6329 4.99064 9.05138 4.99064C8.46986 4.99064 7.97142 5.48908 7.97142 6.0706V13.3811C7.97142 13.9626 8.46986 14.461 9.05138 14.461C9.6329 14.461 10.1313 13.9626 10.1313 13.3811V10.8058C10.1313 10.7227 10.2144 10.6397 10.2975 10.6397H13.7035C13.7866 10.6397 13.8697 10.7227 13.8697 10.8058V13.3811C13.8697 13.9626 14.3681 14.461 14.9496 14.461Z" />
</svg>