<!-- character:0:1439 -->
  <svg width="20" height="20" viewBox="0 0 20 20" >
<path   d="M3.45831 8.24336C3.45831 4.6435 6.43512 1.66669 10.035 1.66669C13.6348 1.66669 16.6117 4.6435 16.5424 8.24336C16.5424 12.8124 12.0426 16.8969 10.658 18.0737C10.3119 18.4199 9.75807 18.4199 9.3427 18.0737C7.95814 16.8969 3.45831 12.7432 3.45831 8.24336ZM9.75807 12.1894C11.2811 12.1894 12.3887 11.0125 12.3887 9.55869H12.458V5.05886C12.458 4.57427 12.0426 4.1589 11.558 4.1589C11.0734 4.1589 10.658 4.57427 10.658 5.05886V9.48946C10.658 10.1125 10.3119 10.5279 9.75807 10.5279C9.20425 10.5279 8.78888 10.1817 8.78888 9.48946V9.42024C8.78888 8.93564 8.44274 8.5895 7.95814 8.5895C7.47354 8.5895 7.1274 9.00487 7.1274 9.42024V9.62792C7.1274 11.1509 8.23505 12.1894 9.75807 12.1894Z" />
</svg>