<!--character:2671-->
  <svg width="24" height="24" viewBox="0 0 24 24" >
<path d="M4.1502 9.892C4.1502 5.57217 7.72237 2 12.0422 2C16.362 2 19.9342 5.57217 19.8511 9.892C19.8511 15.3749 14.4513 20.2762 12.7899 21.6885C12.3745 22.1038 11.7099 22.1038 11.2115 21.6885C9.54999 20.2762 4.1502 15.2918 4.1502 9.892ZM12.0422 14.4611C12.6237 14.4611 13.1222 13.9626 13.1222 13.3811V6.07061C13.1222 5.48909 12.6237 4.99065 12.0422 4.99065C11.4607 4.99065 10.9622 5.48909 10.9622 6.07061V13.3811C10.9622 13.9626 11.4607 14.4611 12.0422 14.4611Z" />
</svg>