<!-- character:0:1447 -->
  <svg width="20" height="20" viewBox="0 0 20 20" >
<path   d="M3.4 8.26413C3.40421 4.62221 6.35552 1.6709 9.99745 1.66669C13.6391 1.6709 16.5903 4.62179 16.5949 8.26344C16.5949 12.8094 12.0517 16.9366 10.6627 18.0929C10.2769 18.4135 9.71733 18.4135 9.33145 18.0929C7.94043 16.9366 3.4 12.8108 3.4 8.26413ZM6.5251 8.26413C6.5251 10.1819 8.07972 11.7365 9.99744 11.7365C10.9184 11.7365 11.8016 11.3706 12.4528 10.7194C13.1039 10.0683 13.4698 9.18505 13.4698 8.26413C13.4698 6.34641 11.9152 4.79179 9.99744 4.79179C8.07972 4.79179 6.5251 6.34641 6.5251 8.26413Z" />
</svg>