<!--character:3315-->
  <svg width="24" height="24" viewBox="0 0 24 24" >
<path d="M12.0421 2C7.72222 2 4.15005 5.57217 4.15005 9.892C4.15005 15.2918 9.54984 20.2762 11.2113 21.6885C11.7098 22.1038 12.3743 22.1038 12.7897 21.6885C14.4512 20.2762 19.851 15.3749 19.851 9.892C19.9341 5.57217 16.3619 2 12.0421 2ZM11.8759 7.81516L10.9621 10.3904C10.9621 10.4735 11.0452 10.6397 11.1282 10.6397H12.9559C13.0389 10.6397 13.122 10.5566 13.122 10.3904L12.2082 7.81516C12.1251 7.64901 11.959 7.64901 11.8759 7.81516ZM15.1989 14.4611C14.7835 14.4611 14.3681 14.2118 14.202 13.7965L13.7866 12.6334C13.7866 12.5504 13.7035 12.5504 13.6205 12.5504H10.2975C10.2144 12.5504 10.1314 12.6334 10.1314 12.6334L9.71599 13.7965C9.63291 14.2118 9.21755 14.4611 8.80218 14.4611C8.05451 14.4611 7.55607 13.7134 7.80529 13.0488L10.5467 5.65524C10.7129 5.23987 11.0452 4.99065 11.5436 4.99065H12.5405C12.9559 4.99065 13.3712 5.23987 13.5374 5.65524L16.2788 13.0488C16.528 13.7134 16.0296 14.4611 15.2819 14.4611H15.1989Z" />
</svg>