<!--character:3467-->
  <svg width="20" height="20" viewBox="0 0 20 20" >
<path d="M3.4585 8.24333C3.4585 4.64347 6.4353 1.66666 10.0352 1.66666C13.635 1.66666 16.6118 4.64347 16.5426 8.24333C16.5426 12.8124 12.0428 16.8968 10.6582 18.0737C10.3121 18.4199 9.75825 18.4199 9.34288 18.0737C7.95832 16.8968 3.4585 12.7432 3.4585 8.24333ZM13.012 12.0509C13.4273 12.0509 13.7735 11.7047 13.7735 11.2894H13.8427V8.6587C13.8427 8.24333 13.4966 7.89719 13.0812 7.89719H10.589C10.1736 7.89719 9.82748 8.24333 9.82748 8.6587C9.82748 9.07407 10.1736 9.42021 10.589 9.42021H11.9736C12.1812 9.42021 12.1812 9.55867 12.112 9.6279C11.9043 10.0433 11.3505 10.6663 10.2429 10.6663C8.99674 10.6663 7.88909 9.83558 7.88909 8.17411C7.88909 6.37418 9.1352 5.68189 10.1736 5.68189C11.0736 5.68189 11.6274 6.09726 11.9043 6.51263C12.112 6.78954 12.4581 6.928 12.8043 6.78954L13.012 6.72032C13.4966 6.51263 13.7043 6.02804 13.4273 5.61267C12.8735 4.78193 11.9043 4.02042 10.1736 4.02042C7.95832 4.02042 6.08916 5.61267 6.08916 8.10488C6.08916 10.5971 7.81987 12.1893 10.0352 12.1893C11.1428 12.1893 11.9043 11.7047 12.2505 11.2201C12.2505 11.2201 12.1812 12.0509 13.012 12.0509Z" />
</svg>