<!--character:$550:298-->
  <svg width="24" height="24" viewBox="0 0 24 24" >
<path d="M4.14999 9.892C4.14999 5.57217 7.72216 2 12.042 2C16.3618 2 19.934 5.57217 19.8509 9.892C19.8509 15.3749 14.4511 20.2762 12.7897 21.6885C12.3743 22.1038 11.7097 22.1038 11.2113 21.6885C9.54979 20.2762 4.14999 15.2918 4.14999 9.892ZM14.285 14.4611C14.7834 14.4611 15.1988 14.0457 15.1988 13.5472H15.2819V13.3811C15.2819 12.8827 14.8665 12.4673 14.3681 12.4673H11.5436C11.4605 12.4673 11.3774 12.3842 11.3774 12.3011V10.8058C11.3774 10.7227 11.4605 10.6397 11.5436 10.6397H13.9527C14.4511 10.6397 14.8665 10.2243 14.8665 9.72586C14.8665 9.22742 14.4511 8.81205 13.9527 8.81205H11.5436C11.4605 8.81205 11.3774 8.72897 11.3774 8.6459V7.23365C11.3774 7.15057 11.4605 7.0675 11.5436 7.0675H14.285C14.7834 7.0675 15.1988 6.65213 15.1988 6.15369V5.98754C15.1988 5.4891 14.7834 5.07373 14.285 5.07373H10.1313C9.63286 5.07373 9.21749 5.4891 9.21749 5.98754V13.5472C9.21749 14.0457 9.63286 14.4611 10.1313 14.4611H14.285Z" />
</svg>