<!--character:4239-->
  <svg width="24" height="24" viewBox="0 0 24 24" >
<path d="M4.1502 9.892C4.1502 5.57217 7.72237 2 12.0422 2C16.362 2 19.9342 5.57217 19.8511 9.892C19.8511 15.3749 14.4513 20.2762 12.7899 21.6885C12.3745 22.1038 11.7099 22.1038 11.2115 21.6885C9.54999 20.2762 4.1502 15.2918 4.1502 9.892ZM14.9498 14.4611C15.5313 14.4611 16.0297 13.9626 16.0297 13.3811V6.07061C16.0297 5.48909 15.5313 4.99065 14.9498 4.99065C14.3683 4.99065 13.8698 5.48909 13.8698 6.07061V8.56282C13.8698 8.64589 13.7867 8.72897 13.7037 8.72897H10.2977C10.2146 8.72897 10.1315 8.64589 10.1315 8.56282V6.07061C10.1315 5.48909 9.63306 4.99065 9.05155 4.99065C8.47003 4.99065 7.97159 5.48909 7.97159 6.07061V13.3811C7.97159 13.9626 8.47003 14.4611 9.05155 14.4611C9.63306 14.4611 10.1315 13.9626 10.1315 13.3811V10.8058C10.1315 10.7227 10.2146 10.6397 10.2977 10.6397H13.7037C13.7867 10.6397 13.8698 10.7227 13.8698 10.8058V13.3811C13.8698 13.9626 14.3683 14.4611 14.9498 14.4611Z" />
</svg>