<!--character:136:550:334-->
  <svg width="24" height="24" viewBox="0 0 24 24" >
<path d="M4.15002 9.892C4.15002 5.57217 7.72219 2 12.042 2C16.3619 2 19.934 5.57217 19.851 9.892C19.851 15.3749 14.4512 20.2762 12.7897 21.6885C12.3743 22.1038 11.7097 22.1038 11.2113 21.6885C9.54982 20.2762 4.15002 15.2918 4.15002 9.892ZM11.7097 14.6272C13.5374 14.6272 14.8665 13.2149 14.8665 11.4704H14.9496V6.0706C14.9496 5.48908 14.4512 4.99064 13.8697 4.99064C13.2881 4.99064 12.7897 5.48908 12.7897 6.0706V11.3873C12.7897 12.135 12.3743 12.6334 11.7097 12.6334C11.0452 12.6334 10.5467 12.2181 10.5467 11.3873V11.3042C10.5467 10.7227 10.1313 10.3074 9.54983 10.3074C8.96831 10.3074 8.55294 10.8058 8.55294 11.3042V11.5535C8.55294 13.3811 9.88212 14.6272 11.7097 14.6272Z" />
</svg>