<!--category:travel-->
<!--character:005c-->
<svg width="24" height="24" viewBox="0 0 24 24" xmlns="http://www.w3.org/2000/svg"><path d="M12.042 2C7.7222 2 4.15 5.5722 4.15 9.892c0 5.3998 5.3998 10.3842 7.0613 11.7965.4984.4153 1.163.4153 1.5784 0 1.6614-1.4123 7.0612-6.3136 7.0612-11.7965C19.934 5.5722 16.362 2 12.042 2zm2.8245 9.4704c0 1.7446-1.3292 3.1568-3.1568 3.1568-1.8276 0-3.1568-1.2461-3.1568-3.0737v-.2492c0-.4985.4154-.997.9969-.997s.9969.4154.9969.997v.083c0 .8308.4984 1.2461 1.163 1.2461.6646 0 1.08-.4984 1.08-1.246V6.0705c0-.5815.4984-1.08 1.08-1.08.5814 0 1.0799.4985 1.0799 1.08v5.3998h-.083z"/></svg>