<!--character:2869-->
<svg width="24" height="24" viewBox="0 0 24 24">
  <path d="M4.1499 9.892C4.1499 5.57217 7.72207 2 12.0419 2C16.3617 2 19.9339 5.57217 19.8508 9.892C19.8508 15.3749 14.451 20.2762 12.7896 21.6885C12.3742 22.1038 11.7096 22.1038 11.2112 21.6885C9.54969 20.2762 4.1499 15.2918 4.1499 9.892ZM15.364 6.11095C15.3646 6.09751 15.3649 6.08406 15.3649 6.07061V6.15368C15.3649 6.13934 15.3646 6.12509 15.364 6.11095ZM14.368 7.06749C14.9338 7.06749 15.3423 6.59559 15.364 6.11095C15.3403 5.55193 14.8541 5.1568 14.368 5.1568H10.2143C9.63277 5.1568 9.2174 5.65524 9.2174 6.15368V13.6303C9.2174 14.2118 9.71584 14.6272 10.2143 14.6272H10.4635C11.045 14.6272 11.4604 14.1288 11.4604 13.6303V11.2212C11.4604 11.1381 11.5435 11.055 11.6265 11.055H13.9526C14.5341 11.055 14.9495 10.5566 14.9495 10.0581C14.9495 9.47663 14.451 9.06126 13.9526 9.06126H11.5435C11.4604 9.06126 11.3773 8.97819 11.3773 8.89512V7.23364C11.3773 7.15057 11.4604 7.06749 11.5435 7.06749H14.368Z" />
</svg>
