<!--category:travel-->
<!--character:005e-->
<svg width="24" height="24" viewBox="0 0 24 24" xmlns="http://www.w3.org/2000/svg"><path d="M12.042 2C7.7222 2 4.15 5.5722 4.15 9.892c0 5.3998 5.3998 10.3842 7.0613 11.7965.4984.4153 1.163.4153 1.5784 0 1.6614-1.4123 7.0612-6.3136 7.0612-11.7965C19.934 5.5722 16.362 2 12.042 2zm4.2368 10.5504c-.6646 1.08-1.9107 2.1599-3.9876 2.1599-2.7414 0-4.9013-1.9938-4.9013-4.9014 0-2.9076 2.243-4.9013 4.9013-4.9013 2.16 0 3.406.9969 3.9876 2.1599.3323.4984 0 1.163-.5816 1.3292h-.083c-.4154.1661-.9138 0-1.163-.4154-.3324-.5815-.997-1.08-2.16-1.08-1.3292 0-2.7414.9139-2.7414 2.9076 0 1.7446 1.3292 2.8245 2.7414 2.8245 1.163 0 1.8276-.4984 2.16-1.08.2492-.4153.6645-.5814 1.0799-.4153l.1661.083c.6646 0 .9139.7477.5816 1.3293z"/></svg>