<!--character:2577-->
  <svg width="20" height="20" viewBox="0 0 20 20" >
<path d="M3.4585 8.24333C3.4585 4.64347 6.4353 1.66666 10.0352 1.66666C13.635 1.66666 16.6118 4.64347 16.5426 8.24333C16.5426 12.8124 12.0428 16.8968 10.6582 18.0737C10.3121 18.4199 9.75825 18.4199 9.34288 18.0737C7.95832 16.8968 3.4585 12.7432 3.4585 8.24333ZM9.75825 12.1893C11.2813 12.1893 12.3889 11.0125 12.3889 9.55867H12.4581V5.05884C12.4581 4.57424 12.0428 4.15888 11.5582 4.15888C11.0736 4.15888 10.6582 4.57424 10.6582 5.05884V9.48944C10.6582 10.1125 10.3121 10.5279 9.75825 10.5279C9.20443 10.5279 8.78906 10.1817 8.78906 9.48944V9.42021C8.78906 8.93562 8.44292 8.58947 7.95832 8.58947C7.47373 8.58947 7.12759 9.00484 7.12759 9.42021V9.6279C7.12759 11.1509 8.23524 12.1893 9.75825 12.1893Z" />
</svg>