<!--character:1381-->
  <svg width="20" height="20" viewBox="0 0 20 20" >
<path d="M3.45825 8.24333C3.45825 4.64347 6.43506 1.66666 10.0349 1.66666C13.6348 1.66666 16.6116 4.64347 16.5424 8.24333C16.5424 12.8124 12.0425 16.8968 10.658 18.0737C10.3118 18.4199 9.75801 18.4199 9.34264 18.0737C7.95808 16.8968 3.45825 12.7432 3.45825 8.24333ZM12.8033 5.09246C12.8038 5.08126 12.804 5.07005 12.804 5.05884V5.12807C12.804 5.11611 12.8038 5.10424 12.8033 5.09246ZM11.9733 5.88958C12.4448 5.88958 12.7853 5.49633 12.8033 5.09246C12.7836 4.62661 12.3784 4.29733 11.9733 4.29733H8.5119C8.02731 4.29733 7.68117 4.7127 7.68117 5.12807V11.3586C7.68117 11.8432 8.09654 12.1893 8.5119 12.1893H8.71959C9.20418 12.1893 9.55032 11.774 9.55032 11.3586V9.35098C9.55032 9.28176 9.61955 9.21253 9.68878 9.21253H11.6272C12.1118 9.21253 12.4579 8.79716 12.4579 8.38179C12.4579 7.89719 12.0425 7.55105 11.6272 7.55105H9.61955C9.55032 7.55105 9.4811 7.48182 9.4811 7.4126V6.02803C9.4811 5.95881 9.55032 5.88958 9.61955 5.88958H11.9733Z" />
</svg>