<!--character:2064-->
  <svg width="20" height="20" viewBox="0 0 20 20" >
<path d="M10.035 1.66666C6.43518 1.66666 3.45837 4.64347 3.45837 8.24333C3.45837 12.7432 7.9582 16.8968 9.34276 18.0737C9.75813 18.4199 10.312 18.4199 10.6581 18.0737C12.0427 16.8968 16.5425 12.8124 16.5425 8.24333C16.6117 4.64347 13.6349 1.66666 10.035 1.66666ZM9.89659 6.51263L9.13508 8.6587C9.13508 8.72793 9.20431 8.86639 9.27354 8.86639H10.7966C10.8658 8.86639 10.935 8.79716 10.935 8.6587L10.1735 6.51263C10.1043 6.37417 9.96582 6.37417 9.89659 6.51263ZM12.6657 12.0509C12.3196 12.0509 11.9734 11.8432 11.835 11.4971L11.4888 10.5279C11.4888 10.4586 11.4196 10.4586 11.3504 10.4586H8.58125C8.51203 10.4586 8.4428 10.5279 8.4428 10.5279L8.09666 11.4971C8.02743 11.8432 7.68129 12.0509 7.33515 12.0509C6.7121 12.0509 6.29673 11.4278 6.50441 10.874L8.78894 4.7127C8.92739 4.36656 9.20431 4.15888 9.61968 4.15888H10.4504C10.7966 4.15888 11.1427 4.36656 11.2812 4.7127L13.5657 10.874C13.7734 11.4278 13.358 12.0509 12.7349 12.0509H12.6657Z" />
</svg>