<!--character:137:550:343-->
  <svg width="24" height="24" viewBox="0 0 24 24" >
<path d="M4.15002 9.892C4.15002 5.57217 7.72219 2 12.042 2C16.3619 2 19.934 5.57217 19.851 9.892C19.851 15.3749 14.4512 20.2762 12.7897 21.6885C12.3743 22.1038 11.7097 22.1038 11.2113 21.6885C9.54982 20.2762 4.15002 15.2918 4.15002 9.892ZM12.042 14.461C12.6235 14.461 13.122 13.9626 13.122 13.3811V6.0706C13.122 5.48908 12.6235 4.99064 12.042 4.99064C11.4605 4.99064 10.9621 5.48908 10.9621 6.0706V13.3811C10.9621 13.9626 11.4605 14.461 12.042 14.461Z" />
</svg>