<!--character:9805-->
  <svg width="20" height="20" viewBox="0 0 20 20" >
<path d="M3.4585 8.24333C3.4585 4.64347 6.4353 1.66666 10.0352 1.66666C13.635 1.66666 16.6118 4.64347 16.5426 8.24333C16.5426 12.8124 12.0428 16.8968 10.6582 18.0737C10.3121 18.4199 9.75825 18.4199 9.34288 18.0737C7.95832 16.8968 3.4585 12.7432 3.4585 8.24333ZM10.0352 12.0509C10.5198 12.0509 10.9351 11.6355 10.9351 11.1509V5.05884C10.9351 4.57424 10.5198 4.15888 10.0352 4.15888C9.55057 4.15888 9.1352 4.57424 9.1352 5.05884V11.1509C9.1352 11.6355 9.55057 12.0509 10.0352 12.0509Z" />
</svg>