<!--character:2772-->
  <svg width="20" height="20" viewBox="0 0 20 20" >
<path d="M3.39746 8.26389C3.40167 4.62209 6.35288 1.67087 9.99468 1.66666C13.6362 1.67087 16.5873 4.62166 16.5919 8.26319C16.5919 12.809 12.0489 16.9361 10.66 18.0924C10.2741 18.4129 9.71457 18.4129 9.32871 18.0924C7.93774 16.9361 3.39746 12.8104 3.39746 8.26389ZM11.0363 9.36319H13.2933C13.6768 9.36319 13.9877 9.05228 13.9877 8.66875C13.9877 8.28522 13.6768 7.9743 13.2933 7.9743H11.0363C10.8446 7.9743 10.6891 7.81885 10.6891 7.62708V5.37014C10.6891 4.98661 10.3782 4.67569 9.99468 4.67569C9.61115 4.67569 9.30024 4.98661 9.30024 5.37014V7.62708C9.30024 7.81885 9.14478 7.9743 8.95302 7.9743H6.69607C6.31254 7.9743 6.00163 8.28522 6.00163 8.66875C6.00163 9.05228 6.31254 9.36319 6.69607 9.36319H8.95302C9.14478 9.36319 9.30024 9.51865 9.30024 9.71041V11.9674C9.30024 12.3509 9.61115 12.6618 9.99468 12.6618C10.3782 12.6618 10.6891 12.3509 10.6891 11.9674V9.71041C10.6891 9.51865 10.8446 9.36319 11.0363 9.36319Z" />
</svg>