<!--character:$550:245-->
  <svg width="24" height="24" viewBox="0 0 24 24" >
<path d="M4.07999 9.91693C4.08504 5.54663 7.62661 2.00505 11.9969 2C16.3669 2.00505 19.9083 5.54612 19.9139 9.9161C19.9139 15.3713 14.462 20.324 12.7953 21.7115C12.3322 22.0962 11.6608 22.0962 11.1977 21.7115C9.52851 20.324 4.07999 15.373 4.07999 9.91693ZM7.83011 9.91693C7.83011 12.2182 9.69566 14.0837 11.9969 14.0837C13.102 14.0837 14.1619 13.6447 14.9433 12.8633C15.7247 12.0819 16.1637 11.022 16.1637 9.91693C16.1637 7.61567 14.2982 5.75013 11.9969 5.75013C9.69566 5.75013 7.83011 7.61567 7.83011 9.91693Z" />
</svg>