<!--character:1248-->
  <svg width="20" height="20" viewBox="0 0 20 20" >
<path d="M3.4585 8.24333C3.4585 4.64347 6.4353 1.66666 10.0352 1.66666C13.635 1.66666 16.6118 4.64347 16.5426 8.24333C16.5426 12.8124 12.0428 16.8968 10.6582 18.0737C10.3121 18.4199 9.75825 18.4199 9.34288 18.0737C7.95832 16.8968 3.4585 12.7432 3.4585 8.24333ZM12.4582 12.0509C12.9427 12.0509 13.3581 11.6355 13.3581 11.1509V5.05884C13.3581 4.57424 12.9427 4.15888 12.4582 4.15888C11.9736 4.15888 11.5582 4.57424 11.5582 5.05884V7.13568C11.5582 7.20491 11.489 7.27414 11.4197 7.27414H8.58138C8.51215 7.27414 8.44292 7.20491 8.44292 7.13568V5.05884C8.44292 4.57424 8.02755 4.15888 7.54295 4.15888C7.05836 4.15888 6.64299 4.57424 6.64299 5.05884V11.1509C6.64299 11.6355 7.05836 12.0509 7.54295 12.0509C8.02755 12.0509 8.44292 11.6355 8.44292 11.1509V9.00484C8.44292 8.93561 8.51215 8.86639 8.58138 8.86639H11.4197C11.489 8.86639 11.5582 8.93561 11.5582 9.00484V11.1509C11.5582 11.6355 11.9736 12.0509 12.4582 12.0509Z" />
</svg>