<!-- character:0:1399 -->
  <svg width="20" height="20" viewBox="0 0 20 20" >
<path   d="M3.45834 8.24336C3.45834 4.6435 6.43515 1.66669 10.035 1.66669C13.6349 1.66669 16.6117 4.6435 16.5425 8.24336C16.5425 12.8124 12.0426 16.8969 10.6581 18.0737C10.3119 18.4199 9.7581 18.4199 9.34273 18.0737C7.95817 16.8969 3.45834 12.7432 3.45834 8.24336ZM11.9042 12.0509C12.3195 12.0509 12.6657 11.7048 12.6657 11.2894H12.7349V11.1509C12.7349 10.7356 12.3888 10.3894 11.9734 10.3894H9.61965C9.55042 10.3894 9.48119 10.3202 9.48119 10.251V9.00487C9.48119 8.93564 9.55042 8.86641 9.61965 8.86641H11.6273C12.0426 8.86641 12.3888 8.52027 12.3888 8.1049C12.3888 7.68953 12.0426 7.34339 11.6273 7.34339H9.61965C9.55042 7.34339 9.48119 7.27416 9.48119 7.20494V6.02806C9.48119 5.95883 9.55042 5.8896 9.61965 5.8896H11.9042C12.3195 5.8896 12.6657 5.54346 12.6657 5.12809V4.98964C12.6657 4.57427 12.3195 4.22813 11.9042 4.22813H8.44277C8.0274 4.22813 7.68126 4.57427 7.68126 4.98964V11.2894C7.68126 11.7048 8.0274 12.0509 8.44277 12.0509H11.9042Z" />
</svg>