<!--category:travel-->
<!--character:0060-->
<svg width="24" height="24" viewBox="0 0 24 24" xmlns="http://www.w3.org/2000/svg"><path d="M12.042 2C7.7222 2 4.15 5.5722 4.15 9.892c0 5.3998 5.3998 10.3842 7.0613 11.7965.4984.4153 1.163.4153 1.5784 0 1.6614-1.4123 7.0612-6.3136 7.0612-11.7965C19.934 5.5722 16.362 2 12.042 2zm3.1568 11.5472c0 .4985-.4154.9139-.9138.9139h-4.1537c-.4984 0-.9138-.4154-.9138-.9139V5.9875c0-.4984.4154-.9138.9138-.9138h4.1537c.4984 0 .9138.4154.9138.9138v.1662c0 .4984-.4154.9138-.9138.9138h-2.7414c-.0831 0-.1662.083-.1662.1661V8.646c0 .083.083.1661.1662.1661h2.4091c.4984 0 .9138.4154.9138.9139 0 .4984-.4154.9138-.9138.9138h-2.4091c-.0831 0-.1662.083-.1662.1661v1.4953c0 .0831.083.1662.1662.1662h2.8245c.4984 0 .9138.4154.9138.9138v.1661h-.083z"/></svg>