<!--character:2750-->
<svg width="24" height="24" viewBox="0 0 24 24">
  <path d="M4.1502 9.892C4.1502 5.57217 7.72237 2 12.0422 2C16.362 2 19.9342 5.57217 19.8511 9.892C19.8511 15.3749 14.4513 20.2762 12.7899 21.6885C12.3745 22.1038 11.7099 22.1038 11.2115 21.6885C9.54999 20.2762 4.1502 15.2918 4.1502 9.892ZM15.6144 14.4611C16.1128 14.4611 16.5282 14.0457 16.5282 13.5472H16.6113V10.3904C16.6113 9.892 16.1959 9.47663 15.6974 9.47663H12.7068C12.2083 9.47663 11.793 9.892 11.793 10.3904C11.793 10.8889 12.2083 11.3043 12.7068 11.3043H14.3683C14.6175 11.3043 14.6175 11.4704 14.5344 11.5535C14.2852 12.0519 13.6206 12.7996 12.2914 12.7996C10.7961 12.7996 9.46691 11.8027 9.46691 9.80893C9.46691 7.64901 10.9622 6.81827 12.2083 6.81827C13.2883 6.81827 13.9529 7.31672 14.2852 7.81516C14.5344 8.14745 14.9498 8.3136 15.3651 8.14745L15.6144 8.06438C16.1959 7.81516 16.4451 7.23364 16.1128 6.7352C15.4482 5.73831 14.2852 4.8245 12.2083 4.8245C9.54999 4.8245 7.307 6.7352 7.307 9.72585C7.307 12.7165 9.38384 14.6272 12.0422 14.6272C13.3714 14.6272 14.2852 14.0457 14.7006 13.4642C14.7006 13.4642 14.6175 14.4611 15.6144 14.4611Z" />
</svg>
