<!--character:67:550:254-->
<svg width="24" height="24" viewBox="0 0 24 24" xmlns="http://www.w3.org/2000/svg"><path d="M11.8759 7.8152l-.9139 2.5752c0 .0831.0831.2493.1662.2493h1.8276c.083 0 .1662-.0831.1662-.2493l-.9138-2.5752c-.0831-.1662-.2493-.1662-.3323 0zM12.042 2C7.7222 2 4.15 5.5722 4.15 9.892c0 5.3998 5.3998 10.3842 7.0613 11.7965.4984.4153 1.163.4153 1.5784 0 1.6614-1.4123 7.0612-6.3136 7.0612-11.7965C19.934 5.5722 16.362 2 12.042 2zm3.2399 12.461h-.083c-.4155 0-.8308-.2492-.997-.6645l-.4153-1.163c0-.0831-.0831-.0831-.1662-.0831h-3.323c-.083 0-.166.083-.166.083l-.4155 1.163c-.083.4154-.4984.6647-.9138.6647-.7476 0-1.246-.7477-.9969-1.4123l2.7415-7.3936c.1661-.4153.4984-.6645.9969-.6645h.9968c.4154 0 .8308.2492.997.6645l2.7414 7.3936c.2492.6646-.2493 1.4123-.997 1.4123z"/></svg>
