<!--character:5005-->
  <svg width="24" height="24" viewBox="0 0 24 24" >
<path d="M4.1499 9.892C4.1499 5.57217 7.72207 2 12.0419 2C16.3617 2 19.9339 5.57217 19.8508 9.892C19.8508 15.3749 14.451 20.2762 12.7896 21.6885C12.3742 22.1038 11.7096 22.1038 11.2112 21.6885C9.54969 20.2762 4.1499 15.2918 4.1499 9.892ZM14.2849 14.4611C14.7833 14.4611 15.1987 14.0457 15.1987 13.5472H15.2818V13.3811C15.2818 12.8827 14.8664 12.4673 14.368 12.4673H11.5435C11.4604 12.4673 11.3773 12.3842 11.3773 12.3011V10.8058C11.3773 10.7227 11.4604 10.6397 11.5435 10.6397H13.9526C14.451 10.6397 14.8664 10.2243 14.8664 9.72585C14.8664 9.22741 14.451 8.81204 13.9526 8.81204H11.5435C11.4604 8.81204 11.3773 8.72897 11.3773 8.64589V7.23364C11.3773 7.15057 11.4604 7.06749 11.5435 7.06749H14.2849C14.7833 7.06749 15.1987 6.65213 15.1987 6.15368V5.98754C15.1987 5.48909 14.7833 5.07372 14.2849 5.07372H10.1312C9.63277 5.07372 9.2174 5.48909 9.2174 5.98754V13.5472C9.2174 14.0457 9.63277 14.4611 10.1312 14.4611H14.2849Z" />
</svg>