<!--character:2875-->
<svg width="24" height="24" viewBox="0 0 24 24">
  <path d="M4.15005 9.892C4.15005 5.57217 7.72222 2 12.0421 2C16.3619 2 19.9341 5.57217 19.851 9.892C19.851 15.3749 14.4512 20.2762 12.7897 21.6885C12.3743 22.1038 11.7098 22.1038 11.2113 21.6885C9.54984 20.2762 4.15005 15.2918 4.15005 9.892ZM12.2913 14.7103C14.3681 14.7103 15.6142 13.6303 16.2788 12.5504C16.6111 11.9688 16.3619 11.2212 15.6973 11.2212L15.5311 11.1381C15.1158 10.972 14.7004 11.1381 14.4512 11.5535C14.1189 12.135 13.4543 12.6334 12.2913 12.6334C10.879 12.6334 9.54984 11.5535 9.54984 9.80893C9.54984 7.81516 10.9621 6.90135 12.2913 6.90135C13.4543 6.90135 14.1189 7.39979 14.4512 7.98131C14.7004 8.39667 15.1989 8.56282 15.6142 8.39667H15.6973C16.2788 8.23053 16.6111 7.56594 16.2788 7.06749C15.6973 5.90446 14.4512 4.90758 12.2913 4.90758C9.63292 4.90758 7.38992 6.90135 7.38992 9.80893C7.38992 12.7165 9.54984 14.7103 12.2913 14.7103Z" />
</svg>
