<!--character:2719-->
  <svg width="20" height="20" viewBox="0 0 20 20" >
<path d="M10.035 1.66666C6.43518 1.66666 3.45837 4.64347 3.45837 8.24333C3.45837 12.7432 7.9582 16.8968 9.34276 18.0737C9.75813 18.4199 10.312 18.4199 10.6581 18.0737C12.0427 16.8968 16.5425 12.8124 16.5425 8.24333C16.6117 4.64347 13.6349 1.66666 10.035 1.66666ZM10.1043 7.34337H9.34276C9.27353 7.34337 9.20431 7.27414 9.20431 7.20491V5.82035C9.20431 5.75112 9.27353 5.68189 9.34276 5.68189H10.1043C10.7966 5.68189 11.1427 5.95881 11.1427 6.51263C11.1427 7.06646 10.7966 7.34337 10.1043 7.34337ZM9.34276 8.79716H10.2427C10.935 8.79716 11.3504 9.1433 11.4196 9.76635C11.4196 10.3202 11.0042 10.6663 10.312 10.6663H9.34276C9.27353 10.6663 9.20431 10.5971 9.20431 10.5279V8.93561C9.20431 8.86639 9.27353 8.79716 9.34276 8.79716ZM8.30434 12.0509C7.81975 12.0509 7.47361 11.7047 7.47361 11.2201V5.05884C7.47361 4.57424 7.81975 4.2281 8.30434 4.2281H10.3812C11.9042 4.2281 12.8042 5.12807 12.8042 6.30495C12.8042 7.13568 12.3196 7.75874 11.6273 7.96642C12.3196 8.10488 13.0119 8.79716 13.0119 9.83558C13.0811 11.0817 12.1119 12.0509 10.6581 12.0509H8.30434Z" />
</svg>