<!--character:5810-->
  <svg width="24" height="24" viewBox="0 0 24 24" >
<path d="M4.14998 9.89201C4.14998 5.57217 7.72215 2 12.042 2C16.3618 2 19.934 5.57217 19.8509 9.89201C19.8509 15.3749 14.4511 20.2762 12.7896 21.6885C12.3743 22.1038 11.7097 22.1038 11.2112 21.6885C9.54977 20.2762 4.14998 15.2918 4.14998 9.89201ZM14.9496 14.4611C15.5311 14.4611 16.0295 13.9626 16.0295 13.3811V6.07061C16.0295 5.4891 15.5311 4.99066 14.9496 4.99066C14.368 4.99066 13.8696 5.4891 13.8696 6.07061V8.56283C13.8696 8.6459 13.7865 8.72897 13.7035 8.72897H10.2974C10.2144 8.72897 10.1313 8.6459 10.1313 8.56283V6.07061C10.1313 5.4891 9.63284 4.99066 9.05133 4.99066C8.46981 4.99066 7.97137 5.4891 7.97137 6.07061V13.3811C7.97137 13.9626 8.46981 14.4611 9.05133 14.4611C9.63284 14.4611 10.1313 13.9626 10.1313 13.3811V10.8058C10.1313 10.7227 10.2144 10.6397 10.2974 10.6397H13.7035C13.7865 10.6397 13.8696 10.7227 13.8696 10.8058V13.3811C13.8696 13.9626 14.368 14.4611 14.9496 14.4611Z" />
</svg>