<!--character:4240-->
  <svg width="20" height="20" viewBox="0 0 20 20" >
<path d="M3.39999 8.26411C3.4042 4.62219 6.35552 1.67087 9.99744 1.66666C13.6391 1.67087 16.5903 4.62176 16.5949 8.26341C16.5949 12.8094 12.0517 16.9366 10.6627 18.0929C10.2769 18.4135 9.71732 18.4135 9.33144 18.0929C7.94042 16.9366 3.39999 12.8108 3.39999 8.26411ZM6.5251 8.26411C6.5251 10.1818 8.07972 11.7364 9.99744 11.7364C10.9184 11.7364 11.8016 11.3706 12.4528 10.7194C13.1039 10.0682 13.4698 9.18503 13.4698 8.26411C13.4698 6.34639 11.9152 4.79177 9.99744 4.79177C8.07972 4.79177 6.5251 6.34639 6.5251 8.26411Z" />
</svg>