<!--character:3445-->
  <svg width="24" height="24" viewBox="0 0 24 24" >
<path d="M4.15 9.892C4.15 5.57217 7.72217 2 12.042 2C16.3618 2 19.934 5.57217 19.8509 9.892C19.8509 15.3749 14.4511 20.2762 12.7897 21.6885C12.3743 22.1038 11.7097 22.1038 11.2113 21.6885C9.54979 20.2762 4.15 15.2918 4.15 9.892ZM14.9496 14.4611C15.5311 14.4611 16.0295 13.9626 16.0295 13.3811V6.07061C16.0295 5.48909 15.5311 4.99065 14.9496 4.99065C14.3681 4.99065 13.8696 5.48909 13.8696 6.07061V8.56282C13.8696 8.64589 13.7866 8.72897 13.7035 8.72897H10.2975C10.2144 8.72897 10.1313 8.64589 10.1313 8.56282V6.07061C10.1313 5.48909 9.63287 4.99065 9.05135 4.99065C8.46983 4.99065 7.97139 5.48909 7.97139 6.07061V13.3811C7.97139 13.9626 8.46983 14.4611 9.05135 14.4611C9.63287 14.4611 10.1313 13.9626 10.1313 13.3811V10.8058C10.1313 10.7227 10.2144 10.6397 10.2975 10.6397H13.7035C13.7866 10.6397 13.8696 10.7227 13.8696 10.8058V13.3811C13.8696 13.9626 14.3681 14.4611 14.9496 14.4611Z" />
</svg>