<!--character:7150-->
  <svg width="24" height="24" viewBox="0 0 24 24" >
<path d="M4.15002 9.892C4.15002 5.57217 7.72219 2 12.042 2C16.3619 2 19.934 5.57217 19.851 9.892C19.851 15.3749 14.4512 20.2762 12.7897 21.6885C12.3743 22.1038 11.7097 22.1038 11.2113 21.6885C9.54982 20.2762 4.15002 15.2918 4.15002 9.892ZM15.6142 14.461C16.1127 14.461 16.528 14.0457 16.528 13.5472H16.6111V10.3904C16.6111 9.89199 16.1957 9.47662 15.6973 9.47662H12.7066C12.2082 9.47662 11.7928 9.89199 11.7928 10.3904C11.7928 10.8889 12.2082 11.3042 12.7066 11.3042H14.3681C14.6173 11.3042 14.6173 11.4704 14.5343 11.5535C14.285 12.0519 13.6204 12.7996 12.2913 12.7996C10.7959 12.7996 9.46676 11.8027 9.46676 9.80892C9.46676 7.649 10.9621 6.81826 12.2082 6.81826C13.2881 6.81826 13.9527 7.31671 14.285 7.81515C14.5343 8.14744 14.9496 8.31359 15.365 8.14744L15.6142 8.06437C16.1957 7.81515 16.445 7.23363 16.1127 6.73519C15.4481 5.73831 14.285 4.8245 12.2082 4.8245C9.54983 4.8245 7.30684 6.73519 7.30684 9.72585C7.30684 12.7165 9.38368 14.6272 12.042 14.6272C13.3712 14.6272 14.285 14.0457 14.7004 13.4642C14.7004 13.4642 14.6173 14.461 15.6142 14.461Z" />
</svg>