<!-- character:0:1389 -->
  <svg width="20" height="20" viewBox="0 0 20 20" >
<path   d="M10.035 1.66669C6.43515 1.66669 3.45834 4.6435 3.45834 8.24336C3.45834 12.7432 7.95817 16.8969 9.34273 18.0737C9.7581 18.4199 10.3119 18.4199 10.6581 18.0737C12.0426 16.8969 16.5425 12.8124 16.5425 8.24336C16.6117 4.6435 13.6349 1.66669 10.035 1.66669ZM9.61965 5.82037H8.71968C8.65045 5.82037 8.65045 5.8896 8.65045 5.95883V10.251C8.65045 10.3202 8.71968 10.3894 8.78891 10.3894H9.68887C10.8658 10.3894 11.9042 9.69715 11.9042 8.1049C11.9042 6.51265 10.8658 5.82037 9.61965 5.82037ZM7.68126 12.0509H9.68887C12.0426 12.0509 13.6349 10.5279 13.6349 8.17413C13.6349 5.75114 12.0426 4.22813 9.68887 4.22813H7.68126C7.19666 4.22813 6.85052 4.57427 6.85052 5.05886V11.2202C6.85052 11.7048 7.19666 12.0509 7.68126 12.0509Z" />
</svg>