<!-- character:0:1407 -->
  <svg width="20" height="20" viewBox="0 0 20 20" >
<path   d="M3.45831 8.24336C3.45831 4.6435 6.43512 1.66669 10.035 1.66669C13.6348 1.66669 16.6117 4.6435 16.5424 8.24336C16.5424 12.8124 12.0426 16.8969 10.658 18.0737C10.3119 18.4199 9.75807 18.4199 9.3427 18.0737C7.95814 16.8969 3.45831 12.7432 3.45831 8.24336ZM12.8034 5.09248C12.8039 5.08128 12.8041 5.07007 12.8041 5.05886V5.12809C12.8041 5.11614 12.8039 5.10427 12.8034 5.09248ZM11.9734 5.8896C12.4449 5.8896 12.7853 5.49635 12.8034 5.09248C12.7836 4.62663 12.3785 4.29735 11.9734 4.29735H8.51196C8.02737 4.29735 7.68123 4.71272 7.68123 5.12809V11.3586C7.68123 11.8432 8.0966 12.1894 8.51196 12.1894H8.71965C9.20425 12.1894 9.55039 11.774 9.55039 11.3586V9.35101C9.55039 9.28178 9.61961 9.21255 9.68884 9.21255H11.6272C12.1118 9.21255 12.458 8.79718 12.458 8.38181C12.458 7.89722 12.0426 7.55108 11.6272 7.55108H9.61961C9.55039 7.55108 9.48116 7.48185 9.48116 7.41262V6.02806C9.48116 5.95883 9.55039 5.8896 9.61961 5.8896H11.9734Z" />
</svg>