<!--character:2710-->
<svg width="24" height="24" viewBox="0 0 24 24">
  <path d="M12.0419 2C7.72207 2 4.1499 5.57217 4.1499 9.892C4.1499 15.2918 9.54969 20.2762 11.2112 21.6885C11.7096 22.1038 12.3742 22.1038 12.7896 21.6885C14.451 20.2762 19.8508 15.3749 19.8508 9.892C19.9339 5.57217 16.3617 2 12.0419 2ZM11.5435 6.98442H10.4635C10.3804 6.98442 10.3804 7.06749 10.3804 7.15057V12.3011C10.3804 12.3842 10.4635 12.4673 10.5466 12.4673H11.6265C13.0388 12.4673 14.2849 11.6365 14.2849 9.72585C14.2849 7.81516 13.0388 6.98442 11.5435 6.98442ZM9.2174 14.4611C8.63588 14.4611 8.22051 14.0457 8.22051 13.4642V6.07061C8.22051 5.48909 8.63588 5.07372 9.2174 5.07372H11.6265C14.451 5.07372 16.3617 6.90135 16.3617 9.80893C16.3617 12.6334 14.451 14.4611 11.6265 14.4611H9.2174Z" />
</svg>
