<!--character:2985-->
  <svg width="24" height="24" viewBox="0 0 24 24" >
<path d="M4.15001 9.892C4.15001 5.57217 7.72218 2 12.042 2C16.3618 2 19.934 5.57217 19.8509 9.892C19.8509 15.3749 14.4512 20.2762 12.7897 21.6885C12.3743 22.1038 11.7097 22.1038 11.2113 21.6885C9.5498 20.2762 4.15001 15.2918 4.15001 9.892ZM12.042 14.4611C12.6235 14.4611 13.122 13.9626 13.122 13.3811V6.07061C13.122 5.48909 12.6235 4.99065 12.042 4.99065C11.4605 4.99065 10.9621 5.48909 10.9621 6.07061V13.3811C10.9621 13.9626 11.4605 14.4611 12.042 14.4611Z" />
</svg>