<!--character:2924-->
<svg width="24" height="24" viewBox="0 0 24 24">
  <path d="M4.1502 9.892C4.1502 5.57217 7.72237 2 12.0422 2C16.362 2 19.9342 5.57217 19.8511 9.892C19.8511 15.3749 14.4513 20.2762 12.7899 21.6885C12.3745 22.1038 11.7099 22.1038 11.2115 21.6885C9.54999 20.2762 4.1502 15.2918 4.1502 9.892ZM11.7099 14.6272C13.5375 14.6272 14.8667 13.215 14.8667 11.4704H14.9498V6.07061C14.9498 5.48909 14.4513 4.99065 13.8698 4.99065C13.2883 4.99065 12.7899 5.48909 12.7899 6.07061V11.3873C12.7899 12.135 12.3745 12.6334 11.7099 12.6334C11.0453 12.6334 10.5469 12.2181 10.5469 11.3873V11.3043C10.5469 10.7227 10.1315 10.3074 9.54999 10.3074C8.96847 10.3074 8.5531 10.8058 8.5531 11.3043V11.5535C8.5531 13.3811 9.88228 14.6272 11.7099 14.6272Z" />
</svg>
