<!--character:E170-->
<!--added:0.28-->
<svg width="24" height="24" viewBox="0 0 24 24" xmlns="http://www.w3.org/2000/svg"><path d="M17.6842 10.3658L17.7 7.29c0-2.9823-2.7177-5.4-5.7-5.4-2.9823 0-5.5435 2.3501-5.6718 5.4006-.013.3526.2068 1.0393 1.0429 1.0393.836 0 1.0368-.6856 1.0548-1.0399C8.583 5.4562 10.1222 3.997 12 3.997c1.8778 0 3.3909 1.4245 3.579 3.293v2.1806c0 .2545-.221.4194-.3959.4194H8.1c-2.1852.1013-3.9748 1.8152-4.1 4v4.2c.101 2.198 1.9527 4 4.1 4l7.802.0122c2.1999-.0551 3.9746-1.8102 4.098-4.0122v-4.2c-.0926-1.5-.9717-2.8494-2.3158-3.5242zm-4 5.3793c0 .9144-.754 1.6851-1.6842 1.6851-.9303 0-1.6842-.7305-1.6842-1.685 0-.9547.754-1.687 1.6842-1.6852.9303.0018 1.6842.7707 1.6842 1.6851z"/></svg>
