<!-- character:0:500 -->
  <svg width="20" height="20" viewBox="0 0 20 20" >
<path   d="M14.7368 8.63817V6.31185C14.7368 3.69577 12.6161 1.57501 9.99998 1.57501C7.38389 1.57501 5.26314 3.69577 5.26314 6.31185V8.63817C4.08454 9.2295 3.33848 10.4332 3.33331 11.7519V14.9097C3.33525 16.8468 4.90505 18.4166 6.84208 18.4185H13.1579C15.0949 18.4166 16.6647 16.8468 16.6666 14.9097V11.7519C16.6615 10.4332 15.9154 9.2295 14.7368 8.63817ZM11.4035 13.1217C11.4035 13.8968 10.7751 14.5252 9.99998 14.5252C9.22484 14.5252 8.59647 13.8968 8.59647 13.1217C8.59647 12.3465 9.22484 11.7182 9.99998 11.7182C10.7751 11.7182 11.4035 12.3465 11.4035 13.1217ZM12.9824 6.31256C12.9801 4.66647 11.6461 3.33273 9.99998 3.3308C8.35416 3.33273 7.02023 4.66604 7.01752 6.31185V7.89221C7.01752 8.08599 7.17462 8.24308 7.3684 8.24308H12.6316C12.8253 8.24308 12.9824 8.08599 12.9824 7.89221V6.31256Z" />
</svg>