<!--character:137:550:1336-->
<svg width="24" height="24" viewBox="0 0 24 24" xmlns="http://www.w3.org/2000/svg"><path d="M17.6842 10.4758V7.6842C17.6842 4.545 15.1393 2 12 2 8.8607 2 6.3158 4.545 6.3158 7.6842v2.7916A4.1987 4.1987 0 0 0 4 14.2122v3.7895c.0023 2.3244 1.886 4.2082 4.2105 4.2105h7.579c2.3244-.0023 4.2082-1.886 4.2105-4.2105v-3.7895a4.1987 4.1987 0 0 0-2.3158-3.7364zm-4 5.3802c0 .9302-.754 1.6842-1.6842 1.6842-.9302 0-1.6842-.754-1.6842-1.6842 0-.9302.754-1.6842 1.6842-1.6842.9302 0 1.6842.754 1.6842 1.6842zM12 4.107c1.9753.0023 3.5762 1.6027 3.579 3.578v1.8956a.421.421 0 0 1-.4211.421H8.842a.421.421 0 0 1-.421-.421V7.6842C8.4243 5.7092 10.025 4.1092 12 4.107z"/></svg>
