<!--character:2818-->
  <svg width="20" height="20" viewBox="0 0 20 20" >
<path d="M14.7502 6.075L14.737 8.63815C15.8571 9.20048 16.5897 10.325 16.6668 11.575V15.075C16.564 16.91 15.085 18.3726 13.2518 18.4185L6.75016 18.4083C4.96077 18.4083 3.41768 16.9067 3.3335 15.075V11.575C3.43781 9.75432 4.92918 8.32608 6.75016 8.24166H12.6528C12.7986 8.24166 12.9826 8.10424 12.9826 7.89219V6.075C12.8259 4.51792 11.565 3.33079 10.0002 3.33079C8.43536 3.33079 7.15261 4.54684 7.02178 6.075C7.00676 6.37025 6.83947 6.9416 6.14273 6.9416C5.44599 6.9416 5.26288 6.36933 5.27369 6.0755C5.3806 3.53344 7.51488 1.575 10.0002 1.575C12.4854 1.575 14.7502 3.58972 14.7502 6.075ZM10.0002 14.5252C10.7754 14.5252 11.4037 13.8829 11.4037 13.1209C11.4037 12.3589 10.7754 11.7182 10.0002 11.7167C9.22495 11.7152 8.59665 12.3254 8.59665 13.1209C8.59665 13.9164 9.22495 14.5252 10.0002 14.5252Z" />
</svg>