<!-- character:0:510 -->
  <svg width="20" height="20" viewBox="0 0 20 20" >
<path   d="M14.75 6.07501L14.7368 8.63817C15.8569 9.2005 16.5895 10.325 16.6666 11.575V15.075C16.5638 16.91 15.0849 18.3726 13.2516 18.4185L6.74998 18.4083C4.96059 18.4083 3.4175 16.9067 3.33331 15.075V11.575C3.43763 9.75433 4.929 8.3261 6.74998 8.24168H12.6526C12.7984 8.24168 12.9824 8.10426 12.9824 7.8922V6.07501C12.8257 4.51794 11.5648 3.3308 9.99998 3.3308C8.43517 3.3308 7.15243 4.54686 7.0216 6.07501C7.00658 6.37026 6.83929 6.94161 6.14255 6.94161C5.44581 6.94161 5.2627 6.36935 5.27351 6.07551C5.38042 3.53346 7.5147 1.57501 9.99998 1.57501C12.4853 1.57501 14.75 3.58973 14.75 6.07501ZM9.99998 14.5252C10.7752 14.5252 11.4035 13.8829 11.4035 13.1209C11.4035 12.3589 10.7752 11.7182 9.99998 11.7167C9.22477 11.7152 8.59647 12.3254 8.59647 13.1209C8.59647 13.9164 9.22477 14.5252 9.99998 14.5252Z" />
</svg>