<!--character:4252-->
  <svg width="24" height="24" viewBox="0 0 24 24" >
<path d="M17.6844 10.3658V7.57421C17.6844 4.4349 15.1395 1.89 12.0002 1.89C8.86089 1.89 6.31598 4.4349 6.31598 7.57421V10.3658C4.90166 11.0754 4.00639 12.5199 4.0002 14.1022V17.8917C4.00252 20.2161 5.88627 22.0999 8.21072 22.1022H15.7897C18.1141 22.0999 19.9979 20.2161 20.0002 17.8917V14.1022C19.994 12.5199 19.0987 11.0754 17.6844 10.3658ZM13.6844 15.746C13.6844 16.6762 12.9304 17.4302 12.0002 17.4302C11.07 17.4302 10.316 16.6762 10.316 15.746C10.316 14.8158 11.07 14.0618 12.0002 14.0618C12.9304 14.0618 13.6844 14.8158 13.6844 15.746ZM15.5791 7.57505V9.47063C15.5791 9.70317 15.3906 9.89168 15.1581 9.89168H8.8423C8.60976 9.89168 8.42125 9.70317 8.42125 9.47063V7.57421C8.42449 5.59923 10.0252 3.99926 12.0002 3.99694C13.9755 3.99926 15.5764 5.59974 15.5791 7.57505Z" />
</svg>