<!--character:8530-->
  <svg width="24" height="24" viewBox="0 0 24 24" >
<path d="M17.7002 7.29L17.6844 10.3658C19.0285 11.0406 19.9076 12.39 20.0002 13.89V18.09C19.8768 20.292 18.1021 22.0471 15.9022 22.1022L8.10019 22.09C5.95292 22.09 4.10122 20.288 4.0002 18.09V13.89C4.12537 11.7052 5.91502 9.9913 8.10019 9.89H15.1833C15.3583 9.89 15.5791 9.72509 15.5791 9.47063V7.29C15.391 5.42151 13.878 3.99694 12.0002 3.99694C10.1224 3.99694 8.58314 5.45621 8.42613 7.29C8.40812 7.6443 8.20736 8.32992 7.37128 8.32992C6.53519 8.32992 6.31546 7.6432 6.32843 7.2906C6.45672 4.24013 9.01786 1.89 12.0002 1.89C14.9825 1.89 17.7002 4.30766 17.7002 7.29ZM12.0002 17.4302C12.9304 17.4302 13.6844 16.6595 13.6844 15.7451C13.6844 14.8307 12.9304 14.0618 12.0002 14.06C11.0699 14.0582 10.316 14.7905 10.316 15.7451C10.316 16.6997 11.0699 17.4302 12.0002 17.4302Z" />
</svg>