<!--character:126:550:1336-->
  <svg width="24" height="24" viewBox="0 0 24 24" >
<path d="M17.6842 10.3658V7.57422C17.6842 4.43492 15.1393 1.89001 12 1.89001C8.8607 1.89001 6.31579 4.43492 6.31579 7.57422V10.3658C4.90147 11.0754 4.0062 12.5199 4 14.1022V17.8917C4.00232 20.2161 5.88608 22.0999 8.21053 22.1022H15.7895C18.1139 22.0999 19.9977 20.2161 20 17.8917V14.1022C19.9938 12.5199 19.0985 11.0754 17.6842 10.3658ZM13.6842 15.746C13.6842 16.6762 12.9302 17.4302 12 17.4302C11.0698 17.4302 10.3158 16.6762 10.3158 15.746C10.3158 14.8158 11.0698 14.0618 12 14.0618C12.9302 14.0618 13.6842 14.8158 13.6842 15.746ZM15.5789 7.57506V9.47064C15.5789 9.70318 15.3904 9.8917 15.1579 9.8917H8.8421C8.60956 9.8917 8.42105 9.70318 8.42105 9.47064V7.57422C8.4243 5.59924 10.025 3.99928 12 3.99696C13.9753 3.99928 15.5762 5.59976 15.5789 7.57506Z" />
</svg>