<!--character:6934-->
  <svg width="20" height="20" viewBox="0 0 20 20" >
<path d="M14.737 8.63815V6.31184C14.737 3.69575 12.6162 1.575 10.0002 1.575C7.38408 1.575 5.26332 3.69575 5.26332 6.31184V8.63815C4.08472 9.22949 3.33866 10.4332 3.3335 11.7518V14.9097C3.33543 16.8468 4.90523 18.4166 6.84227 18.4185H13.1581C15.0951 18.4166 16.6649 16.8468 16.6668 14.9097V11.7518C16.6617 10.4332 15.9156 9.22949 14.737 8.63815ZM11.4037 13.1217C11.4037 13.8968 10.7753 14.5252 10.0002 14.5252C9.22503 14.5252 8.59665 13.8968 8.59665 13.1217C8.59665 12.3465 9.22503 11.7182 10.0002 11.7182C10.7753 11.7182 11.4037 12.3465 11.4037 13.1217ZM12.9826 6.31254V7.89219C12.9826 8.08597 12.8255 8.24307 12.6317 8.24307H7.36858C7.1748 8.24307 7.01771 8.08597 7.01771 7.89219V6.31184C7.02041 4.66602 8.35435 3.33272 10.0002 3.33079C11.6463 3.33272 12.9803 4.66645 12.9826 6.31254Z" />
</svg>