<!--character:5935-->
  <svg width="24" height="24" viewBox="0 0 24 24" >
<path d="M17.7 7.29001L17.6842 10.3658C19.0283 11.0406 19.9074 12.39 20 13.89V18.09C19.8766 20.292 18.1019 22.0471 15.902 22.1022L8.1 22.09C5.95273 22.09 4.10102 20.288 4 18.09V13.89C4.12518 11.7052 5.91482 9.99132 8.1 9.89001H15.1831C15.3581 9.89001 15.5789 9.72511 15.5789 9.47065V7.29001C15.3909 5.42152 13.8778 3.99696 12 3.99696C10.1222 3.99696 8.58294 5.45623 8.42594 7.29001C8.40792 7.64432 8.20717 8.32994 7.37108 8.32994C6.535 8.32994 6.31527 7.64322 6.32823 7.29061C6.45653 4.24015 9.01766 1.89001 12 1.89001C14.9823 1.89001 17.7 4.30768 17.7 7.29001ZM12 17.4302C12.9303 17.4302 13.6842 16.6595 13.6842 15.7451C13.6842 14.8307 12.9303 14.0618 12 14.06C11.0697 14.0582 10.3158 14.7905 10.3158 15.7451C10.3158 16.6997 11.0697 17.4302 12 17.4302Z" />
</svg>