<!--category:basic-->
<!--character:E0A7-->
<!--added:0.11-->
<svg width="24" height="24" viewBox="0 0 24 24" xmlns="http://www.w3.org/2000/svg"><path d="M14.333636 2.45c1.003637 0 1.818182.814545 1.818182 1.818182v3.727273c0 .501818-.406363.90909-.90909.90909-.501819 0-.909092-.407272-.909092-.90909V4.722727c0-.250909-.203636-.454545-.454545-.454545H5.242727c-.250909 0-.454545.203636-.454545.454545v14.545455c0 .250909.203636.454545.454545.454545h8.636364c.250909 0 .454545-.203636.454545-.454545v-3.272728c0-.502727.407273-.90909.909091-.90909.502727 0 .909091.406363.909091.90909v3.727273c0 1.003637-.814545 1.818182-1.818182 1.818182H4.788182c-1.003637 0-1.818182-.814545-1.818182-1.818182V4.268182C2.97 3.264545 3.784545 2.45 4.788182 2.45zm3.23576 6.88043c.320574-.320574.748006-.320574 1.06858 0l2.137162 2.137163c.32004.32004.320575.748006 0 1.06858l-2.137161 2.137162c-.213717.213717-.534825.32004-.801436.160287-.064436-.00032-.128679-.038917-.181189-.081169l-.085956-.079118c-.160288-.160287-.213717-.320574-.21425-.534824l.000533-.961189c-.000534-.107392-.107392-.21425-.213716-.213716H9.55504c-.53429 0-.961723-.427433-.961723-.961723 0-.53429.427432-.961723.961723-.961723h7.586924c.106324-.000534.213182-.107392.213716-.213716l-.000534-.962257c0-.213716.053963-.37347.21425-.533756z"/></svg>
