<!--character:3794-->
  <svg width="24" height="24" viewBox="0 0 24 24" >
<path d="M14.3336 19.2682V15.9955C14.3336 15.4927 14.7409 15.0864 15.2427 15.0864C15.7455 15.0864 16.1518 15.4927 16.1518 15.9955V19.7227C16.1518 20.7264 15.3373 21.5409 14.3336 21.5409H4.78819C3.78455 21.5409 2.97001 20.7264 2.97001 19.7227V4.26818C2.97001 3.26454 3.78455 2.45 4.78819 2.45H14.3336C15.3373 2.45 16.1518 3.26454 16.1518 4.26818V7.99545C16.1518 8.49727 15.7455 8.90454 15.2427 8.90454C14.7409 8.90454 14.3336 8.49727 14.3336 7.99545V4.72272C14.3336 4.47182 14.13 4.26818 13.8791 4.26818H5.24273C4.99183 4.26818 4.78819 4.47182 4.78819 4.72272V19.2682C4.78819 19.5191 4.99183 19.7227 5.24273 19.7227H13.8791C14.13 19.7227 14.3336 19.5191 14.3336 19.2682Z" />
<path d="M18.638 14.6733C18.4243 14.887 18.1032 14.9934 17.8365 14.8336C17.7721 14.8333 17.7079 14.7947 17.6554 14.7524L17.5694 14.6733C17.4091 14.513 17.3557 14.3528 17.3552 14.1385L17.3557 13.1773C17.3552 13.0699 17.2483 12.9631 17.142 12.9636H9.55505C9.02076 12.9636 8.59332 12.5362 8.59332 12.0019C8.59332 11.4676 9.02076 11.0402 9.55505 11.0402H17.142C17.2483 11.0396 17.3552 10.9328 17.3557 10.8264L17.3552 9.86418C17.3552 9.65047 17.4091 9.49071 17.5694 9.33043C17.89 9.00985 18.3174 9.00985 18.638 9.33043L20.7751 11.4676C21.0952 11.7876 21.0957 12.2156 20.7751 12.5362L18.638 14.6733Z" />
</svg>