<!--character:145:550:1428-->
  <svg width="24" height="24" viewBox="0 0 24 24" >
<path   d="M14.3336 19.2682V15.9955C14.3336 15.4927 14.7409 15.0864 15.2427 15.0864C15.7454 15.0864 16.1518 15.4927 16.1518 15.9955V19.7227C16.1518 20.7264 15.3372 21.5409 14.3336 21.5409H4.78815C3.78452 21.5409 2.96997 20.7264 2.96997 19.7227V4.26819C2.96997 3.26456 3.78452 2.45001 4.78815 2.45001H14.3336C15.3372 2.45001 16.1518 3.26456 16.1518 4.26819V7.99547C16.1518 8.49728 15.7454 8.90456 15.2427 8.90456C14.7409 8.90456 14.3336 8.49728 14.3336 7.99547V4.72274C14.3336 4.47183 14.13 4.26819 13.8791 4.26819H5.2427C4.99179 4.26819 4.78815 4.47183 4.78815 4.72274V19.2682C4.78815 19.5191 4.99179 19.7227 5.2427 19.7227H13.8791C14.13 19.7227 14.3336 19.5191 14.3336 19.2682ZM18.6379 14.6734C18.4242 14.8871 18.1031 14.9934 17.8365 14.8336C17.7721 14.8333 17.7078 14.7947 17.6553 14.7525L17.5694 14.6734C17.4091 14.5131 17.3556 14.3528 17.3551 14.1385L17.3556 13.1773C17.3551 13.0699 17.2483 12.9631 17.1419 12.9636H9.555C9.02071 12.9636 8.59328 12.5362 8.59328 12.0019C8.59328 11.4676 9.02071 11.0402 9.555 11.0402H17.1419C17.2483 11.0396 17.3551 10.9328 17.3556 10.8265L17.3551 9.8642C17.3551 9.65049 17.4091 9.49073 17.5694 9.33045C17.8899 9.00987 18.3174 9.00987 18.6379 9.33045L20.7751 11.4676C21.0951 11.7876 21.0957 12.2156 20.7751 12.5362L18.6379 14.6734Z" />
</svg>