<!--character:2079-->
  <svg width="20" height="20" viewBox="0 0 20 20" >
<path d="M11.9448 16.0568V13.3295C11.9448 12.9106 12.2842 12.572 12.7024 12.572C13.1213 12.572 13.4599 12.9106 13.4599 13.3295V16.4356C13.4599 17.272 12.7812 17.9508 11.9448 17.9508H3.99025C3.15389 17.9508 2.4751 17.272 2.4751 16.4356V3.55682C2.4751 2.72045 3.15389 2.04166 3.99025 2.04166H11.9448C12.7812 2.04166 13.4599 2.72045 13.4599 3.55682V6.66288C13.4599 7.08106 13.1213 7.42045 12.7024 7.42045C12.2842 7.42045 11.9448 7.08106 11.9448 6.66288V3.9356C11.9448 3.72651 11.7751 3.55682 11.566 3.55682H4.36904C4.15995 3.55682 3.99025 3.72651 3.99025 3.9356V16.0568C3.99025 16.2659 4.15995 16.4356 4.36904 16.4356H11.566C11.7751 16.4356 11.9448 16.2659 11.9448 16.0568Z" />
<path d="M15.5317 12.2278C15.3536 12.4059 15.0861 12.4945 14.8639 12.3613C14.8102 12.3611 14.7566 12.3289 14.7129 12.2937L14.6413 12.2278C14.5077 12.0942 14.4632 11.9606 14.4627 11.7821L14.4632 10.9811C14.4627 10.8916 14.3737 10.8026 14.2851 10.803H7.96263C7.51739 10.803 7.1612 10.4468 7.1612 10.0016C7.1612 9.55632 7.51739 9.20013 7.96263 9.20013H14.2851C14.3737 9.19969 14.4627 9.11064 14.4632 9.02203L14.4627 8.22015C14.4627 8.04206 14.5077 7.90893 14.6413 7.77536C14.9084 7.50821 15.2646 7.50821 15.5317 7.77536L17.3127 9.55632C17.5794 9.82302 17.5799 10.1797 17.3127 10.4468L15.5317 12.2278Z" />
</svg>