<!--character:7655-->
  <svg width="24" height="24" viewBox="0 0 24 24" >
<path d="M14.3338 19.2682V15.9955C14.3338 15.4927 14.741 15.0864 15.2428 15.0864C15.7456 15.0864 16.1519 15.4927 16.1519 15.9955V19.7227C16.1519 20.7264 15.3374 21.5409 14.3338 21.5409H4.7883C3.78466 21.5409 2.97012 20.7264 2.97012 19.7227V4.26818C2.97012 3.26454 3.78466 2.45 4.7883 2.45H14.3338C15.3374 2.45 16.1519 3.26454 16.1519 4.26818V7.99545C16.1519 8.49727 15.7456 8.90454 15.2428 8.90454C14.741 8.90454 14.3338 8.49727 14.3338 7.99545V4.72272C14.3338 4.47182 14.1301 4.26818 13.8792 4.26818H5.24284C4.99194 4.26818 4.7883 4.47182 4.7883 4.72272V19.2682C4.7883 19.5191 4.99194 19.7227 5.24284 19.7227H13.8792C14.1301 19.7227 14.3338 19.5191 14.3338 19.2682Z" />
<path d="M18.6381 14.6733C18.4244 14.887 18.1033 14.9934 17.8367 14.8336C17.7722 14.8333 17.708 14.7947 17.6555 14.7524L17.5695 14.6733C17.4092 14.513 17.3558 14.3528 17.3553 14.1385L17.3558 13.1773C17.3553 13.0699 17.2484 12.9631 17.1421 12.9636H9.55516C9.02087 12.9636 8.59343 12.5362 8.59343 12.0019C8.59343 11.4676 9.02087 11.0402 9.55516 11.0402H17.1421C17.2484 11.0396 17.3553 10.9328 17.3558 10.8264L17.3553 9.86418C17.3553 9.65047 17.4092 9.49071 17.5695 9.33043C17.8901 9.00985 18.3175 9.00985 18.6381 9.33043L20.7753 11.4676C21.0953 11.7876 21.0958 12.2156 20.7753 12.5362L18.6381 14.6733Z" />
</svg>