<!-- character:0:454 -->
  <svg width="20" height="20" viewBox="0 0 20 20" >
<path   d="M11.9447 16.0568V13.3295C11.9447 12.9106 12.2841 12.572 12.7022 12.572C13.1212 12.572 13.4598 12.9106 13.4598 13.3295V16.4356C13.4598 17.272 12.781 17.9507 11.9447 17.9507H3.99013C3.15376 17.9507 2.47498 17.272 2.47498 16.4356V3.55681C2.47498 2.72044 3.15376 2.04166 3.99013 2.04166H11.9447C12.781 2.04166 13.4598 2.72044 13.4598 3.55681V6.66287C13.4598 7.08105 13.1212 7.42044 12.7022 7.42044C12.2841 7.42044 11.9447 7.08105 11.9447 6.66287V3.9356C11.9447 3.72651 11.775 3.55681 11.5659 3.55681H4.36892C4.15982 3.55681 3.99013 3.72651 3.99013 3.9356V16.0568C3.99013 16.2659 4.15982 16.4356 4.36892 16.4356H11.5659C11.775 16.4356 11.9447 16.2659 11.9447 16.0568ZM15.5316 12.2278C15.3535 12.4059 15.0859 12.4945 14.8638 12.3613C14.8101 12.3611 14.7565 12.3289 14.7128 12.2937L14.6411 12.2278C14.5076 12.0942 14.463 11.9606 14.4626 11.7821L14.463 10.9811C14.4626 10.8916 14.3735 10.8025 14.2849 10.803H7.96251C7.51727 10.803 7.16107 10.4468 7.16107 10.0016C7.16107 9.55632 7.51727 9.20012 7.96251 9.20012H14.2849C14.3735 9.19968 14.4626 9.11063 14.463 9.02203L14.4626 8.22014C14.4626 8.04205 14.5076 7.90892 14.6411 7.77535C14.9083 7.5082 15.2645 7.5082 15.5316 7.77535L17.3126 9.55632C17.5793 9.82302 17.5797 10.1797 17.3126 10.4468L15.5316 12.2278Z" />
</svg>