<!--character:$550:1556-->
  <svg width="24" height="24" viewBox="0 0 24 24" >
<path d="M6.56082 11.3183C6.38418 9.93385 5.25326 8.86751 3.86082 8.77248C3.75146 8.76543 3.66643 8.67456 3.66666 8.56498V8.34998C3.66941 6.28005 5.34673 4.60273 7.41666 4.59998H16.5833C18.6533 4.60273 20.3306 6.28005 20.3333 8.34998V8.44581C20.3355 8.6183 20.2058 8.76398 20.0342 8.78164C18.687 8.92451 17.6146 9.97447 17.4433 11.3183C17.4171 11.528 17.238 11.6849 17.0267 11.6833H13.0417C12.8115 11.6833 12.625 11.4968 12.625 11.2666V7.09998C12.625 6.7548 12.3452 6.47498 12 6.47498C11.6548 6.47498 11.375 6.7548 11.375 7.09998V11.2666C11.375 11.4968 11.1884 11.6833 10.9583 11.6833H6.97749C6.76613 11.6849 6.58703 11.528 6.56082 11.3183Z" />
<path d="M18.6667 11.6833C18.6667 10.7628 19.4129 10.0166 20.3333 10.0166C20.7754 10.0166 21.1993 10.1922 21.5118 10.5048C21.8244 10.8173 22 11.2413 22 11.6833V15.0166C21.9981 15.8282 21.523 16.5641 20.7842 16.9C20.6364 16.9679 20.5417 17.1157 20.5417 17.2783V18.35C20.5417 18.9253 20.0753 19.3916 19.5 19.3916C18.9247 19.3916 18.4583 18.9253 18.4583 18.35V17.5166C18.4583 17.2865 18.2718 17.1 18.0417 17.1H5.95833C5.72821 17.1 5.54167 17.2865 5.54167 17.5166V18.35C5.54167 18.9253 5.0753 19.3916 4.5 19.3916C3.9247 19.3916 3.45833 18.9253 3.45833 18.35V17.2783C3.45811 17.1155 3.36307 16.9677 3.215 16.9C2.47664 16.5637 2.00198 15.828 2 15.0166V11.6833C2 10.7628 2.74619 10.0166 3.66667 10.0166C4.58714 10.0166 5.33333 10.7628 5.33333 11.6833V12.5166C5.33333 12.7468 5.51988 12.9333 5.75 12.9333H18.25C18.4801 12.9333 18.6667 12.7468 18.6667 12.5166V11.6833Z" />
</svg>