<!--character:9856-->
  <svg width="24" height="24" viewBox="0 0 24 24" >
<path d="M6.56064 11.3183C6.38399 9.93388 5.25308 8.86754 3.86064 8.7725C3.75128 8.76546 3.66624 8.67459 3.66647 8.565V8.35C3.66923 6.28008 5.34655 4.60276 7.41647 4.6H16.5831C18.6531 4.60276 20.3304 6.28008 20.3331 8.35V8.44584C20.3353 8.61833 20.2056 8.764 20.034 8.78167C18.6868 8.92454 17.6144 9.97449 17.4431 11.3183C17.4169 11.5281 17.2378 11.685 17.0265 11.6833H13.0415C12.8114 11.6833 12.6248 11.4968 12.6248 11.2667V7.1C12.6248 6.75482 12.345 6.475 11.9998 6.475C11.6546 6.475 11.3748 6.75482 11.3748 7.1V11.2667C11.3748 11.4968 11.1883 11.6833 10.9581 11.6833H6.9773C6.76594 11.685 6.58684 11.5281 6.56064 11.3183Z" />
<path d="M18.6665 11.6833C18.6665 10.7629 19.4127 10.0167 20.3331 10.0167C20.7752 10.0167 21.1991 10.1923 21.5116 10.5048C21.8242 10.8174 21.9998 11.2413 21.9998 11.6833V15.0167C21.9979 15.8283 21.5228 16.5642 20.784 16.9C20.6362 16.968 20.5415 17.1157 20.5415 17.2783V18.35C20.5415 18.9253 20.0751 19.3917 19.4998 19.3917C18.9245 19.3917 18.4581 18.9253 18.4581 18.35V17.5167C18.4581 17.2866 18.2716 17.1 18.0415 17.1H5.95814C5.72802 17.1 5.54147 17.2866 5.54147 17.5167V18.35C5.54147 18.9253 5.0751 19.3917 4.4998 19.3917C3.92451 19.3917 3.45814 18.9253 3.45814 18.35V17.2783C3.45792 17.1155 3.36287 16.9677 3.2148 16.9C2.47644 16.5637 2.00178 15.828 1.9998 15.0167V11.6833C1.9998 10.7629 2.746 10.0167 3.66647 10.0167C4.58695 10.0167 5.33314 10.7629 5.33314 11.6833V12.5167C5.33314 12.7468 5.51969 12.9333 5.7498 12.9333H18.2498C18.4799 12.9333 18.6665 12.7468 18.6665 12.5167V11.6833Z" />
</svg>