<!--category:services-->
<!--character:E04E-->
<!--added:0.11-->
<svg width="24" height="24" viewBox="0 0 24 24" xmlns="http://www.w3.org/2000/svg"><path d="M3.8608 8.7725a.2075.2075 0 0 1-.1941-.2075V8.35c.0027-2.07 1.68-3.7472 3.75-3.75h9.1666c2.07.0028 3.7473 1.68 3.75 3.75v.0958a.3334.3334 0 0 1-.2991.3359c-1.3472.1428-2.4196 1.1928-2.5909 2.5366a.4167.4167 0 0 1-.4166.365h-3.985a.4167.4167 0 0 1-.4167-.4166V7.1a.625.625 0 1 0-1.25 0v4.1667a.4167.4167 0 0 1-.4167.4166H6.9775a.4167.4167 0 0 1-.4167-.365c-.1766-1.3844-1.3075-2.4508-2.7-2.5458zm16.4725 1.2442A1.6667 1.6667 0 0 1 22 11.6833v3.3334A2.0742 2.0742 0 0 1 20.7842 16.9a.4167.4167 0 0 0-.2425.3783V18.35c0 .5753-.4664 1.0417-1.0417 1.0417-.5753 0-1.0417-.4664-1.0417-1.0417v-.8333a.4167.4167 0 0 0-.4166-.4167H5.9583a.4167.4167 0 0 0-.4166.4167v.8333c0 .5753-.4664 1.0417-1.0417 1.0417-.5753 0-1.0417-.4664-1.0417-1.0417v-1.0717A.4167.4167 0 0 0 3.215 16.9 2.075 2.075 0 0 1 2 15.0167v-3.3334c0-.9204.7462-1.6666 1.6667-1.6666.9204 0 1.6666.7462 1.6666 1.6666v.8334c0 .23.1866.4166.4167.4166h12.5a.4167.4167 0 0 0 .4167-.4166v-.8334c0-.9204.7462-1.6666 1.6666-1.6666z"/></svg>