<!--character:7531-->
  <svg width="20" height="20" viewBox="0 0 20 20" >
<path d="M5.4672 9.43195C5.32 8.27823 4.37756 7.38961 3.2172 7.31042C3.12606 7.30455 3.0552 7.22883 3.05539 7.1375V6.95834C3.05769 5.2334 4.45545 3.83563 6.18039 3.83334H13.8193C15.5442 3.83563 16.942 5.2334 16.9443 6.95834V7.0382C16.9461 7.18194 16.838 7.30333 16.695 7.31806C15.5723 7.43712 14.6787 8.31208 14.5359 9.43195C14.5141 9.60673 14.3649 9.73747 14.1887 9.73611H10.8679C10.6761 9.73611 10.5207 9.58066 10.5207 9.38889V5.91667C10.5207 5.62902 10.2875 5.39584 9.99984 5.39584C9.71219 5.39584 9.479 5.62902 9.479 5.91667V9.38889C9.479 9.58066 9.32355 9.73611 9.13178 9.73611H5.81442C5.63828 9.73747 5.48903 9.60673 5.4672 9.43195Z" />
<path d="M15.5554 9.73611C15.5554 8.96905 16.1772 8.34723 16.9443 8.34723C17.3126 8.34723 17.6659 8.49355 17.9264 8.75402C18.1868 9.01449 18.3332 9.36776 18.3332 9.73611V12.5139C18.3316 13.1902 17.9357 13.8035 17.32 14.0833C17.1969 14.14 17.118 14.2631 17.1179 14.3986V15.2917C17.1179 15.7711 16.7293 16.1597 16.2498 16.1597C15.7704 16.1597 15.3818 15.7711 15.3818 15.2917V14.5972C15.3818 14.4055 15.2263 14.25 15.0346 14.25H4.96512C4.77335 14.25 4.61789 14.4055 4.61789 14.5972V15.2917C4.61789 15.7711 4.22925 16.1597 3.74984 16.1597C3.27042 16.1597 2.88178 15.7711 2.88178 15.2917V14.3986C2.8816 14.2629 2.80239 14.1398 2.679 14.0833C2.0637 13.8031 1.66815 13.19 1.6665 12.5139V9.73611C1.6665 8.96905 2.28833 8.34723 3.05539 8.34723C3.82245 8.34723 4.44428 8.96905 4.44428 9.73611V10.4306C4.44428 10.6223 4.59974 10.7778 4.7915 10.7778H15.2082C15.3999 10.7778 15.5554 10.6223 15.5554 10.4306V9.73611Z" />
</svg>