<!-- character:0:2417 -->
  <svg width="20" height="20" viewBox="0 0 20 20" >
<path   d="M5.46738 9.43198C5.32018 8.27827 4.37775 7.38965 3.21738 7.31046C3.12625 7.30459 3.05539 7.22886 3.05558 7.13754V6.95837C3.05787 5.23344 4.45564 3.83567 6.18058 3.83337H13.8195C15.5444 3.83567 16.9422 5.23344 16.9445 6.95837V7.03823C16.9463 7.18198 16.8382 7.30337 16.6952 7.3181C15.5725 7.43715 14.6789 8.31212 14.5361 9.43198C14.5143 9.60677 14.365 9.73751 14.1889 9.73615H10.8681C10.6763 9.73615 10.5209 9.58069 10.5209 9.38893V5.91671C10.5209 5.62906 10.2877 5.39587 10 5.39587C9.71237 5.39587 9.47919 5.62906 9.47919 5.91671V9.38893C9.47919 9.58069 9.32373 9.73615 9.13196 9.73615H5.8146C5.63847 9.73751 5.48922 9.60677 5.46738 9.43198ZM15.5556 9.73615C15.5556 8.96909 16.1774 8.34726 16.9445 8.34726C17.3128 8.34726 17.6661 8.49359 17.9266 8.75406C18.187 9.01453 18.3334 9.3678 18.3334 9.73615V12.5139C18.3318 13.1902 17.9359 13.8035 17.3202 14.0834C17.197 14.14 17.1181 14.2631 17.1181 14.3987V15.2917C17.1181 15.7711 16.7294 16.1598 16.25 16.1598C15.7706 16.1598 15.382 15.7711 15.382 15.2917V14.5973C15.382 14.4055 15.2265 14.25 15.0347 14.25H4.9653C4.77353 14.25 4.61808 14.4055 4.61808 14.5973V15.2917C4.61808 15.7711 4.22943 16.1598 3.75002 16.1598C3.27061 16.1598 2.88196 15.7711 2.88196 15.2917V14.3987C2.88178 14.263 2.80258 14.1398 2.67919 14.0834C2.06388 13.8032 1.66834 13.19 1.66669 12.5139V9.73615C1.66669 8.96909 2.28851 8.34726 3.05558 8.34726C3.82264 8.34726 4.44446 8.96909 4.44446 9.73615V10.4306C4.44446 10.6224 4.59992 10.7778 4.79169 10.7778H15.2084C15.4001 10.7778 15.5556 10.6224 15.5556 10.4306V9.73615Z" />
</svg>