<!--character:4005-->
  <svg width="20" height="20" viewBox="0 0 20 20" >
<path d="M17.8781 5.67317C18.1633 5.86728 18.3339 6.19 18.3337 6.53498V16.7676C18.3342 17.1606 18.1136 17.5204 17.7631 17.6981C17.4127 17.8758 16.992 17.8412 16.6753 17.6086L12.6219 14.6433C12.4995 14.5535 12.3331 14.5535 12.2107 14.6433L8.14755 17.6315C7.79478 17.867 7.33445 17.8651 6.98366 17.6266L2.12255 14.3204C1.83736 14.1263 1.66677 13.8036 1.66699 13.4586V3.22595C1.66664 2.83325 1.88716 2.47372 2.23737 2.29605C2.58758 2.11838 3.00795 2.15276 3.32463 2.38498L7.3781 5.35026C7.50042 5.4401 7.6669 5.4401 7.78922 5.35026L11.8392 2.37109L11.8524 2.36206C12.2049 2.12492 12.6665 2.12684 13.017 2.36692L17.8781 5.67317ZM8.4031 6.61484C8.31567 6.68041 8.26422 6.78333 8.26422 6.89262V15.5259C8.26422 15.5917 8.30137 15.6518 8.36019 15.6812C8.419 15.7106 8.48939 15.7043 8.54199 15.6648L11.5975 13.3787C11.685 13.3132 11.7364 13.2102 11.7364 13.1009V4.46831C11.7364 4.40255 11.6993 4.34244 11.6405 4.31303C11.5817 4.28362 11.5113 4.28997 11.4587 4.32942L8.4031 6.61484ZM3.05588 4.25164V13.0912C3.05679 13.2068 3.1151 13.3143 3.21144 13.378L6.60727 15.6885C6.66066 15.7244 6.72947 15.7281 6.78644 15.6982C6.84339 15.6682 6.87897 15.6091 6.8788 15.5447V6.87664C6.87798 6.76674 6.82518 6.66371 6.73644 6.59887L3.33366 4.11276C3.28105 4.0733 3.21067 4.06695 3.15185 4.09636C3.09303 4.12577 3.05588 4.18588 3.05588 4.25164ZM16.8488 15.8965C16.9076 15.8671 16.9448 15.807 16.9448 15.7412V6.90234C16.9449 6.78722 16.8879 6.67954 16.7927 6.61484L13.3969 4.30512C13.3435 4.26918 13.2747 4.26544 13.2177 4.29539C13.1607 4.32538 13.1252 4.38451 13.1253 4.44887V13.1148C13.1253 13.2241 13.1768 13.327 13.2642 13.3926L16.667 15.8801C16.7196 15.9196 16.79 15.9259 16.8488 15.8965Z" />
</svg>