<!-- character:0:1509 -->
  <svg width="20" height="20" viewBox="0 0 20 20" >
<path   d="M17.8777 5.67316C18.1629 5.86727 18.3335 6.18998 18.3333 6.53496V16.7676C18.3338 17.1605 18.1132 17.5204 17.7628 17.6981C17.4123 17.8758 16.9916 17.8412 16.675 17.6086L12.6215 14.6433C12.4992 14.5535 12.3327 14.5535 12.2104 14.6433L8.16038 17.6218L8.14718 17.6315C7.79441 17.867 7.33408 17.8651 6.98329 17.6266L2.12218 14.3204C1.83699 14.1263 1.6664 13.8036 1.66663 13.4586V3.22593C1.66627 2.83323 1.8868 2.47371 2.23701 2.29604C2.58721 2.11836 3.00758 2.15275 3.32427 2.38496L7.37774 5.35024C7.50005 5.44008 7.66654 5.44008 7.78885 5.35024L11.8388 2.37107L11.852 2.36205C12.2046 2.1249 12.6661 2.12683 13.0166 2.36691L17.8777 5.67316ZM8.40274 6.61482C8.31531 6.6804 8.26385 6.78331 8.26385 6.8926V15.5259C8.26385 15.5917 8.301 15.6518 8.35982 15.6812C8.41864 15.7106 8.48902 15.7043 8.54163 15.6648L11.5972 13.3787C11.6846 13.3131 11.7361 13.2102 11.7361 13.1009V4.4683C11.7361 4.40254 11.6989 4.34242 11.6401 4.31301C11.5813 4.2836 11.5109 4.28995 11.4583 4.32941L8.40274 6.61482ZM3.05552 4.25163C3.05552 4.18587 3.09267 4.12575 3.15149 4.09635C3.2103 4.06694 3.28069 4.07328 3.33329 4.11274L6.73607 6.59885C6.82481 6.66369 6.87762 6.76672 6.87843 6.87663V15.5447C6.87861 15.609 6.84302 15.6682 6.78607 15.6982C6.7291 15.7281 6.6603 15.7244 6.6069 15.6884L3.21107 13.378C3.11473 13.3142 3.05642 13.2067 3.05552 13.0912V4.25163ZM16.8484 15.8965C16.9072 15.8671 16.9444 15.807 16.9444 15.7412V6.90232C16.9445 6.7872 16.8875 6.67952 16.7923 6.61482L13.3965 4.3051C13.3431 4.26916 13.2743 4.26543 13.2173 4.29538C13.1604 4.32536 13.1248 4.38449 13.125 4.44885V13.1148C13.125 13.2241 13.1764 13.327 13.2638 13.3926L16.6666 15.8801C16.7192 15.9196 16.7896 15.9259 16.8484 15.8965Z" />
</svg>