<!--character:3688-->
  <svg width="24" height="24" viewBox="0 0 24 24" >
<path d="M21.4537 6.80781C21.796 7.04074 22.0007 7.428 22.0004 7.84197V20.1211C22.001 20.5927 21.7363 21.0245 21.3157 21.2377C20.8952 21.451 20.3904 21.4095 20.0104 21.1303L15.1462 17.572C14.9995 17.4642 14.7997 17.4642 14.6529 17.572L9.77706 21.1578C9.35373 21.4404 8.80134 21.4381 8.38039 21.152L2.54706 17.1845C2.20483 16.9515 2.00012 16.5643 2.00039 16.1503V3.87114C1.99996 3.3999 2.26459 2.96847 2.68485 2.75526C3.1051 2.54205 3.60954 2.58331 3.98956 2.86197L8.85373 6.42031C9.0005 6.52812 9.20028 6.52812 9.34706 6.42031L14.2071 2.84531L14.2229 2.83447C14.6459 2.5499 15.1998 2.55221 15.6204 2.84031L21.4537 6.80781ZM10.0837 7.93781C9.97881 8.0165 9.91706 8.13999 9.91706 8.27114V18.6311C9.91706 18.71 9.96164 18.7822 10.0322 18.8175C10.1028 18.8528 10.1873 18.8451 10.2504 18.7978L13.9171 16.0545C14.022 15.9758 14.0837 15.8523 14.0837 15.7211V5.36197C14.0837 5.28306 14.0391 5.21092 13.9686 5.17563C13.898 5.14034 13.8135 5.14796 13.7504 5.19531L10.0837 7.93781ZM3.66706 5.10197V15.7095C3.66815 15.8481 3.73812 15.9771 3.85372 16.0536L7.92872 18.8261C7.99279 18.8693 8.07537 18.8737 8.14373 18.8378C8.21206 18.8018 8.25477 18.7309 8.25456 18.6536V8.25197C8.25358 8.12009 8.19022 7.99645 8.08372 7.91864L4.00039 4.93531C3.93726 4.88796 3.8528 4.88034 3.78222 4.91563C3.71164 4.95092 3.66706 5.02306 3.66706 5.10197ZM20.2186 19.0758C20.2891 19.0405 20.3337 18.9684 20.3337 18.8895V8.28281C20.3338 8.14466 20.2655 8.01544 20.1512 7.93781L16.0762 5.16614C16.0122 5.12301 15.9296 5.11853 15.8612 5.15447C15.7929 5.19045 15.7502 5.26141 15.7504 5.33864V15.7378C15.7504 15.869 15.8121 15.9924 15.9171 16.0711L20.0004 19.0561C20.0635 19.1035 20.148 19.1111 20.2186 19.0758Z" />
</svg>