<!--character:$550:1485-->
  <svg width="24" height="24" viewBox="0 0 24 24" >
<path d="M21.4533 6.8078C21.7956 7.04073 22.0003 7.42799 22 7.84197V20.1211C22.0007 20.5927 21.7359 21.0244 21.3154 21.2377C20.8948 21.451 20.39 21.4094 20.01 21.1303L15.1458 17.572C14.9991 17.4642 14.7993 17.4642 14.6525 17.572L9.77667 21.1578C9.35334 21.4404 8.80095 21.4381 8.38 21.152L2.54667 17.1845C2.20444 16.9515 1.99973 16.5643 2 16.1503V3.87113C1.99957 3.39989 2.2642 2.96846 2.68445 2.75526C3.10471 2.54205 3.60915 2.58331 3.98917 2.86197L8.85333 6.4203C9.00011 6.52811 9.19989 6.52811 9.34667 6.4203L14.2067 2.8453L14.2225 2.83447C14.6455 2.54989 15.1994 2.5522 15.62 2.8403L21.4533 6.8078ZM10.0833 7.93781C9.9784 8.0165 9.91666 8.14 9.91666 8.27115V18.6311C9.91666 18.7101 9.96124 18.7822 10.0318 18.8175C10.1024 18.8528 10.1869 18.8452 10.25 18.7978L13.9167 16.0545C14.0216 15.9758 14.0833 15.8523 14.0833 15.7211V5.36198C14.0833 5.28307 14.0387 5.21093 13.9682 5.17564C13.8976 5.14035 13.8131 5.14797 13.75 5.19531L10.0833 7.93781ZM3.66666 5.10198V15.7095C3.66775 15.8481 3.73772 15.9771 3.85332 16.0536L7.92832 18.8261C7.99239 18.8693 8.07497 18.8738 8.14332 18.8378C8.21166 18.8018 8.25437 18.7309 8.25416 18.6536V8.25198C8.25318 8.12009 8.18982 7.99646 8.08332 7.91864L3.99999 4.93531C3.93686 4.88796 3.8524 4.88035 3.78182 4.91564C3.71124 4.95093 3.66666 5.02307 3.66666 5.10198ZM20.2182 19.0758C20.2887 19.0405 20.3333 18.9684 20.3333 18.8895V8.28281C20.3335 8.14467 20.2651 8.01544 20.1508 7.93781L16.0758 5.16614C16.0118 5.12301 15.9292 5.11853 15.8608 5.15447C15.7925 5.19045 15.7498 5.26141 15.75 5.33864V15.7378C15.75 15.869 15.8117 15.9925 15.9167 16.0711L20 19.0561C20.0631 19.1035 20.1476 19.1111 20.2182 19.0758Z" />
</svg>