<!--character:150:550:1485-->
<svg width="24" height="24" viewBox="0 0 24 24" xmlns="http://www.w3.org/2000/svg"><path d="M22 7.842a1.25 1.25 0 0 0-.5467-1.0342L15.62 2.8403a1.2442 1.2442 0 0 0-1.3975-.0058l-.0158.0108-4.86 3.575a.4167.4167 0 0 1-.4934 0L3.9892 2.862A1.25 1.25 0 0 0 2 3.871v12.2792a1.25 1.25 0 0 0 .5467 1.0342L8.38 21.152a1.25 1.25 0 0 0 1.3967.0058l.0158-.0117 4.86-3.5741a.4167.4167 0 0 1 .4933 0l4.8642 3.5583A1.25 1.25 0 0 0 22 20.1211V7.842zM9.9167 8.271a.4167.4167 0 0 1 .1666-.3333L13.75 5.1953a.2083.2083 0 0 1 .3333.1667V15.721a.4167.4167 0 0 1-.1666.3334L10.25 18.7978a.2083.2083 0 0 1-.3333-.1667v-10.36zm-6.25-3.1691A.2083.2083 0 0 1 4 4.9353l4.0833 2.9833a.4167.4167 0 0 1 .1709.3334v10.4016a.2075.2075 0 0 1-.1109.1842.21.21 0 0 1-.215-.0117l-4.075-2.7725a.4167.4167 0 0 1-.1866-.3441V5.102zm16.6666 13.7875A.2083.2083 0 0 1 20 19.056l-4.0833-2.985a.4167.4167 0 0 1-.1667-.3333V5.3386a.2075.2075 0 0 1 .1108-.1841.21.21 0 0 1 .215.0116l4.075 2.7717a.4167.4167 0 0 1 .1825.345v10.6067z"/></svg>
