<!--character:6846-->
  <svg width="24" height="24" viewBox="0 0 24 24" >
<path d="M3.61439 18H20.3852C21.2756 18 21.9998 17.318 21.9998 16.48V7.52C21.9998 6.682 21.2756 6 20.3852 6H3.61439C2.72397 6 1.9998 6.682 1.9998 7.52V16.48C1.9998 17.318 2.72397 18 3.61439 18ZM10.9353 9.40497C11.1232 9.1503 11.4208 9 11.7373 9C12.2878 9 12.7341 9.44625 12.7341 9.99673V14.2579C12.7341 14.6677 12.4018 15 11.9919 15C11.5821 15 11.2498 14.6677 11.2498 14.2579V10.9999L9.85281 12.8626C9.61341 13.1818 9.13492 13.1828 8.89424 12.8646L7.48405 10.9999V14.2579C7.48405 14.6677 7.15179 15 6.74193 15C6.33207 15 5.9998 14.6677 5.9998 14.2579V9.98958C5.9998 9.44305 6.44285 9 6.98938 9C7.30079 9 7.59404 9.14659 7.78093 9.39568L9.37481 11.52L10.9353 9.40497ZM17.6091 9.74213V12H18.167C18.6817 12 18.9575 12.6054 18.6197 12.9938L17.3248 14.4826C17.0866 14.7565 16.6616 14.7578 16.4217 14.4853L15.1112 12.9964C14.77 12.6089 15.0452 12 15.5615 12H16.1248V9.74213C16.1248 9.33226 16.4571 9 16.8669 9C17.2768 9 17.6091 9.33226 17.6091 9.74213Z" />
</svg>