<!--character:130:550:919-->
  <svg width="24" height="24" viewBox="0 0 24 24" >
<path d="M3.61458 18H20.3854C21.2758 18 22 17.318 22 16.48V7.52C22 6.682 21.2758 6 20.3854 6H3.61458C2.72417 6 2 6.682 2 7.52V16.48C2 17.318 2.72417 18 3.61458 18ZM10.9355 9.40497C11.1234 9.1503 11.421 9 11.7375 9C12.288 9 12.7343 9.44625 12.7343 9.99673V14.2579C12.7343 14.6677 12.402 15 11.9921 15C11.5823 15 11.25 14.6677 11.25 14.2579V10.9999L9.77334 12.9689C9.57384 13.2349 9.1751 13.2357 8.97453 12.9705L7.48425 10.9999V14.2579C7.48425 14.6677 7.15199 15 6.74212 15C6.33226 15 6 14.6677 6 14.2579V9.98958C6 9.44305 6.44305 9 6.98958 9C7.30099 9 7.59423 9.14659 7.78113 9.39568L9.375 11.52L10.9355 9.40497ZM17.6093 9.74213V12H18.3867C18.8156 12 19.0454 12.5045 18.764 12.8281L17.25 14.5688C17.0515 14.7971 16.6973 14.7981 16.4974 14.5711L14.9652 12.8304C14.6809 12.5074 14.9102 12 15.3405 12H16.125V9.74213C16.125 9.33226 16.4573 9 16.8671 9C17.277 9 17.6093 9.33226 17.6093 9.74213Z" />
</svg>