<!-- character:352:90 -->
  <svg width="20" height="20" viewBox="0 0 20 20" >
<path   d="M3.01211 15H16.9878C17.7298 15 18.3333 14.4317 18.3333 13.7333V6.26667C18.3333 5.56833 17.7298 5 16.9878 5H3.01211C2.2701 5 1.66663 5.56833 1.66663 6.26667V13.7333C1.66663 14.4317 2.2701 15 3.01211 15ZM9.11284 7.83748C9.26942 7.62525 9.51749 7.5 9.78123 7.5C10.24 7.5 10.6118 7.87188 10.6118 8.33061V11.8816C10.6118 12.2231 10.335 12.5 9.9934 12.5C9.65184 12.5 9.37496 12.2231 9.37496 11.8816V9.16656L8.2108 10.7189C8.0113 10.9849 7.61256 10.9857 7.41199 10.7205L6.23683 9.16656V11.8816C6.23683 12.2231 5.95995 12.5 5.6184 12.5C5.27684 12.5 4.99996 12.2231 4.99996 11.8816V8.32465C4.99996 7.86921 5.36917 7.5 5.82461 7.5C6.08412 7.5 6.32849 7.62216 6.48423 7.82973L7.81246 9.6L9.11284 7.83748ZM14.6743 8.11844V10H15.1393C15.5682 10 15.798 10.5045 15.5166 10.8281L14.4375 12.0688C14.2389 12.2971 13.8848 12.2981 13.6849 12.0711L12.5928 10.8304C12.3085 10.5074 12.5378 10 12.9681 10H13.4375V8.11844C13.4375 7.77688 13.7143 7.5 14.0559 7.5C14.3975 7.5 14.6743 7.77688 14.6743 8.11844Z" />
</svg>