<!--character:8187-->
  <svg width="24" height="24" viewBox="0 0 24 24" >
<path d="M3.61461 18H20.3854C21.2759 18 22 17.318 22 16.48V7.52C22 6.682 21.2759 6 20.3854 6H3.61461C2.72419 6 2.00002 6.682 2.00002 7.52V16.48C2.00002 17.318 2.72419 18 3.61461 18ZM10.9355 9.40497C11.1234 9.1503 11.4211 9 11.7375 9C12.288 9 12.7343 9.44625 12.7343 9.99673V14.2579C12.7343 14.6677 12.402 15 11.9922 15C11.5823 15 11.25 14.6677 11.25 14.2579V10.9999L9.85303 12.8626C9.61363 13.1818 9.13514 13.1828 8.89446 12.8646L7.48427 10.9999V14.2579C7.48427 14.6677 7.15201 15 6.74215 15C6.33229 15 6.00002 14.6677 6.00002 14.2579V9.98958C6.00002 9.44305 6.44307 9 6.9896 9C7.30101 9 7.59426 9.14659 7.78115 9.39568L9.37503 11.52L10.9355 9.40497ZM17.6093 9.74213V12H18.1672C18.6819 12 18.9577 12.6054 18.62 12.9938L17.325 14.4826C17.0868 14.7565 16.6618 14.7578 16.4219 14.4853L15.1114 12.9964C14.7702 12.6089 15.0454 12 15.5618 12H16.125V9.74213C16.125 9.33226 16.4573 9 16.8672 9C17.277 9 17.6093 9.33226 17.6093 9.74213Z" />
</svg>