<!--character:6268-->
  <svg width="20" height="20" viewBox="0 0 20 20" >
<path d="M3.01199 15H16.9877C17.7297 15 18.3332 14.4317 18.3332 13.7333V6.26667C18.3332 5.56833 17.7297 5 16.9877 5H3.01199C2.26998 5 1.6665 5.56833 1.6665 6.26667V13.7333C1.6665 14.4317 2.26998 15 3.01199 15ZM9.11272 7.83748C9.2693 7.62525 9.51737 7.5 9.7811 7.5C10.2398 7.5 10.6117 7.87188 10.6117 8.33061V11.8816C10.6117 12.2231 10.3348 12.5 9.99328 12.5C9.65172 12.5 9.37484 12.2231 9.37484 11.8816V9.16656L8.21067 10.7189C8.01118 10.9849 7.61243 10.9857 7.41187 10.7205L6.23671 9.16656V11.8816C6.23671 12.2231 5.95983 12.5 5.61827 12.5C5.27672 12.5 4.99984 12.2231 4.99984 11.8816V8.32465C4.99984 7.86921 5.36905 7.5 5.82449 7.5C6.08399 7.5 6.32837 7.62216 6.48411 7.82973L7.81234 9.6L9.11272 7.83748ZM14.6742 8.11844V10H15.1392C15.5681 10 15.7979 10.5045 15.5164 10.8281L14.4373 12.0688C14.2388 12.2971 13.8847 12.2981 13.6848 12.0711L12.5926 10.8304C12.3083 10.5074 12.5377 10 12.968 10H13.4373V8.11844C13.4373 7.77688 13.7142 7.5 14.0558 7.5C14.3973 7.5 14.6742 7.77688 14.6742 8.11844Z" />
</svg>