<!--character:2760-->
<svg width="24" height="24" viewBox="0 0 24 24">
  <path d="M11.4106 9.88059C11.0848 9.5552 11.0844 9.02727 11.4098 8.70143C12.1473 7.96393 11.9606 7.71059 11.3315 6.87059C10.7023 6.03059 9.6498 4.62476 11.4106 2.86393C11.7376 2.54812 12.2574 2.55263 12.5788 2.87408C12.9003 3.19552 12.9048 3.71528 12.589 4.04226C11.849 4.78643 12.0373 5.03809 12.6656 5.87559C13.294 6.71309 14.3465 8.11976 12.5898 9.87976C12.2644 10.2056 11.7365 10.206 11.4106 9.88059Z" />
  <path d="M16.2856 7.61226C15.6184 8.40182 15.6729 9.57229 16.4106 10.2964C16.7376 10.6122 17.2574 10.6077 17.5788 10.2863C17.9003 9.96483 17.9048 9.44507 17.589 9.11809C17.501 9.03021 17.4794 8.89571 17.5356 8.78476C17.5877 8.68057 17.6605 8.55809 17.7105 8.47402L17.714 8.46809C18.3812 7.67853 18.3267 6.50806 17.589 5.78393C17.262 5.46811 16.7422 5.47263 16.4208 5.79408C16.0993 6.11552 16.0948 6.63528 16.4106 6.96226C16.4986 7.05014 16.5202 7.18464 16.464 7.29559C16.4274 7.36985 16.3784 7.45339 16.3359 7.52571C16.3174 7.55724 16.3001 7.5867 16.2856 7.61226Z" />
  <path d="M6.46397 8.78559C6.52016 8.89654 6.49864 9.03105 6.41064 9.11893C6.18901 9.32705 6.09831 9.63936 6.17399 9.93383C6.24967 10.2283 6.47972 10.4582 6.77423 10.5336C7.06875 10.6091 7.381 10.5182 7.58897 10.2964C8.32666 9.57229 8.38117 8.40182 7.71397 7.61226C7.66397 7.52893 7.58897 7.40226 7.53564 7.29559C7.47945 7.18464 7.50097 7.05014 7.58897 6.96226C7.89674 6.63405 7.88841 6.1208 7.57014 5.80277C7.25188 5.48473 6.73862 5.47676 6.41064 5.78476C5.67295 6.5089 5.61844 7.67936 6.28564 8.46893C6.30004 8.49444 6.3172 8.52379 6.3356 8.55527C6.37791 8.62763 6.42681 8.71126 6.46397 8.78559Z" />
  <path d="M4.21969 16.3739H19.7815C19.917 16.3739 20.044 16.3081 20.1221 16.1974C20.2001 16.0866 20.2195 15.9449 20.174 15.8173C20.0385 15.4355 19.8093 15.0939 19.5073 14.8239C18.6376 14.1698 17.5727 13.8284 16.4848 13.8548C16.2038 13.8477 15.9453 13.6995 15.7973 13.4606C14.9997 12.1319 13.5491 11.3348 11.9998 11.3739C10.4518 11.3347 9.00216 12.1303 8.20397 13.4573C8.05594 13.6962 7.79744 13.8444 7.51647 13.8514C6.42814 13.8255 5.363 14.1682 4.49397 14.8239C4.19201 15.0939 3.96277 15.4355 3.8273 15.8173C3.78178 15.9449 3.80114 16.0866 3.87922 16.1974C3.95727 16.3081 4.08425 16.3739 4.21969 16.3739Z" />
  <path d="M2.6248 17.4156H21.3748C21.72 17.4156 21.9998 17.6954 21.9998 18.0406C21.9998 18.3858 21.72 18.6656 21.3748 18.6656H20.5306C20.173 18.6654 19.8551 18.8934 19.7406 19.2323L19.2698 20.6298C19.0683 21.08 18.6222 21.3709 18.129 21.3739H5.87064C5.3966 21.3758 4.96278 21.1079 4.7523 20.6831L4.26064 19.2314C4.146 18.8932 3.8286 18.6656 3.47147 18.6656H2.6248C2.27963 18.6656 1.9998 18.3858 1.9998 18.0406C1.9998 17.6954 2.27963 17.4156 2.6248 17.4156Z" />
</svg>
