<!--character:9953-->
  <svg width="20" height="20" viewBox="0 0 20 20" >
<path d="M9.50886 8.23383C9.23732 7.96267 9.23701 7.52273 9.50817 7.25119C10.1228 6.63661 9.9672 6.42549 9.44289 5.72549C8.91859 5.02549 8.0415 3.85397 9.50886 2.3866C9.78135 2.12343 10.2145 2.12719 10.4824 2.39506C10.7502 2.66293 10.754 3.09606 10.4908 3.36855C9.87414 3.98869 10.0311 4.19841 10.5547 4.89633C11.0783 5.59424 11.9554 6.76647 10.4915 8.23313C10.2203 8.50467 9.78041 8.50498 9.50886 8.23383Z" />
<path d="M13.5714 6.34355C13.0154 7.00152 13.0608 7.97691 13.6755 8.58035C13.948 8.84353 14.3811 8.83977 14.649 8.5719C14.9169 8.30402 14.9207 7.8709 14.6575 7.59841C14.5841 7.52518 14.5662 7.41309 14.613 7.32063C14.6564 7.23381 14.7171 7.13174 14.7587 7.06168L14.7616 7.05674C15.3176 6.39877 15.2722 5.42339 14.6575 4.81994C14.385 4.55676 13.9519 4.56053 13.684 4.8284C13.4161 5.09627 13.4124 5.5294 13.6755 5.80188C13.7489 5.87512 13.7668 5.9872 13.72 6.07966C13.6895 6.14154 13.6486 6.21116 13.6132 6.27142C13.5978 6.2977 13.5834 6.32225 13.5714 6.34355Z" />
<path d="M5.38664 7.32133C5.43347 7.41379 5.41554 7.52587 5.3422 7.5991C5.15751 7.77254 5.08193 8.0328 5.14499 8.27819C5.20806 8.52358 5.39976 8.71515 5.6452 8.77804C5.89063 8.84093 6.15083 8.76517 6.32414 8.58035C6.93889 7.97691 6.98431 7.00152 6.42831 6.34355C6.38664 6.2741 6.32414 6.16855 6.2797 6.07966C6.23287 5.9872 6.25081 5.87512 6.32414 5.80188C6.58062 5.52838 6.57367 5.10067 6.30845 4.83564C6.04323 4.57061 5.61552 4.56396 5.3422 4.82063C4.72746 5.42408 4.68203 6.39947 5.23803 7.05744C5.25003 7.0787 5.26433 7.10316 5.27967 7.12939C5.31492 7.18969 5.35567 7.25939 5.38664 7.32133Z" />
<path d="M3.51641 13.6449H16.4846C16.5975 13.645 16.7033 13.5901 16.7684 13.4978C16.8334 13.4055 16.8496 13.2874 16.8116 13.181C16.6988 12.8629 16.5077 12.5783 16.2561 12.3533C15.5314 11.8082 14.6439 11.5236 13.7373 11.5456C13.5032 11.5398 13.2878 11.4163 13.1644 11.2172C12.4997 10.1099 11.2909 9.44566 9.99984 9.47827C8.70985 9.44559 7.5018 10.1086 6.83664 11.2144C6.71328 11.4135 6.49787 11.537 6.26373 11.5429C5.35678 11.5213 4.46916 11.8069 3.74498 12.3533C3.49334 12.5783 3.3023 12.8629 3.18942 13.181C3.15149 13.2874 3.16762 13.4055 3.23268 13.4978C3.29772 13.59 3.40354 13.6449 3.51641 13.6449Z" />
<path d="M2.18734 14.513H17.8123C18.1 14.513 18.3332 14.7462 18.3332 15.0338C18.3332 15.3215 18.1 15.5547 17.8123 15.5547H17.1089C16.8108 15.5545 16.5459 15.7445 16.4505 16.0269L16.0582 17.1915C15.8902 17.5667 15.5185 17.8091 15.1075 17.8116H4.8922C4.49716 17.8132 4.13565 17.5899 3.96025 17.2359L3.55053 16.0262C3.455 15.7443 3.1905 15.5547 2.89289 15.5547H2.18734C1.89969 15.5547 1.6665 15.3215 1.6665 15.0338C1.6665 14.7462 1.89969 14.513 2.18734 14.513Z" />
</svg>