<!--character:262-->
  <svg width="24" height="24" viewBox="0 0 24 24" >
<path d="M8.29233 2.75883C8.78939 2.75883 9.19233 3.16178 9.19233 3.65883V9.77951C9.32044 9.71555 9.43716 9.6386 9.53923 9.55111C9.84575 9.28837 9.9858 8.96458 9.98726 8.66173V3.65883C9.98726 3.16178 10.3902 2.75883 10.8873 2.75883C11.3843 2.75883 11.7873 3.16178 11.7873 3.65883V8.66667C11.7842 9.54221 11.3761 10.3473 10.7107 10.9177C10.2764 11.29 9.75186 11.5477 9.19233 11.6813V20.3412C9.19233 20.8382 8.78939 21.2412 8.29233 21.2412C7.79528 21.2412 7.39233 20.8382 7.39233 20.3412V11.6813C6.83284 11.5477 6.30836 11.29 5.87407 10.9177C5.20865 10.3473 4.80057 9.54221 4.79752 8.66667L4.79751 8.66354V3.65883C4.79751 3.16178 5.20045 2.75883 5.69751 2.75883C6.19457 2.75883 6.59751 3.16178 6.59751 3.65883V8.66171C6.59896 8.96457 6.73902 9.28836 7.04553 9.55111C7.14758 9.63858 7.26427 9.71551 7.39233 9.77946V3.65883C7.39233 3.16178 7.79528 2.75883 8.29233 2.75883ZM15.1113 2.81966C15.4121 2.73083 15.7334 2.74114 16.0278 2.84906C16.3222 2.95698 16.574 3.15679 16.7461 3.41892L16.7516 3.42734C18.948 6.85642 19.0811 10.4203 19.1992 13.5808L19.2011 13.6336C19.2115 13.905 19.1656 14.1757 19.0665 14.4286C18.9673 14.6814 18.817 14.9111 18.6249 15.1032C18.4329 15.2953 18.2032 15.4456 17.9503 15.5447C17.7036 15.6415 17.4399 15.6875 17.1751 15.68H15.8646V20.3408C15.8646 20.8379 15.4616 21.2408 14.9646 21.2408C14.4675 21.2408 14.0646 20.8379 14.0646 20.3408V4.21677L14.0646 4.211C14.0666 3.89745 14.1695 3.59287 14.358 3.3423C14.5465 3.09173 14.8106 2.90849 15.1113 2.81966ZM15.8646 13.88H17.1896C17.2011 13.88 17.2125 13.8802 17.2239 13.8807C17.2476 13.8816 17.2712 13.8776 17.2933 13.8689C17.3153 13.8603 17.3354 13.8472 17.3522 13.8304C17.3689 13.8136 17.382 13.7936 17.3907 13.7715C17.3993 13.7494 17.4033 13.7258 17.4024 13.7021C17.2971 10.8838 17.1797 8.14815 15.8646 5.50647V13.88Z" />
</svg>