<!-- character:0:2031 -->
  <svg width="20" height="20" viewBox="0 0 20 20" >
<path   d="M9.50905 8.23381C9.23751 7.96266 9.2372 7.52271 9.50835 7.25117C10.1229 6.63659 9.96738 6.42548 9.44308 5.72548C8.91877 5.02548 8.04169 3.85395 9.50905 2.38659C9.78153 2.12341 10.2147 2.12718 10.4825 2.39505C10.7504 2.66292 10.7542 3.09605 10.491 3.36853C9.87433 3.98867 10.0313 4.1984 10.5549 4.89631C11.0785 5.59423 11.9556 6.76645 10.4917 8.23312C10.2205 8.50466 9.78059 8.50497 9.50905 8.23381ZM13.5715 6.34353C13.0155 7.0015 13.061 7.97689 13.6757 8.58034C13.9482 8.84351 14.3813 8.83975 14.6492 8.57188C14.9171 8.30401 14.9208 7.87088 14.6577 7.59839C14.5843 7.52516 14.5664 7.41308 14.6132 7.32062C14.6566 7.23379 14.7173 7.13172 14.7589 7.06166L14.7618 7.05673C15.3178 6.39876 15.2724 5.42337 14.6577 4.81992C14.3852 4.55675 13.952 4.56051 13.6842 4.82838C13.4163 5.09625 13.4125 5.52938 13.6757 5.80187C13.7491 5.8751 13.767 5.98719 13.7202 6.07964C13.6897 6.14153 13.6488 6.21115 13.6134 6.27141L13.6134 6.27145C13.598 6.29773 13.5836 6.32223 13.5715 6.34353ZM5.38683 7.32131C5.43365 7.41377 5.41572 7.52586 5.34238 7.59909C5.15769 7.77253 5.08211 8.03279 5.14518 8.27818C5.20824 8.52356 5.39995 8.71513 5.64538 8.77802C5.89081 8.84092 6.15102 8.76516 6.32433 8.58034C6.93907 7.97689 6.98449 7.0015 6.42849 6.34353C6.38683 6.27409 6.32433 6.16853 6.27988 6.07964C6.23306 5.98719 6.25099 5.8751 6.32433 5.80187C6.5808 5.52836 6.57385 5.10066 6.30864 4.83562C6.04342 4.57059 5.6157 4.56395 5.34238 4.82062C4.72764 5.42406 4.68222 6.39945 5.23821 7.05742C5.25022 7.07869 5.26451 7.10314 5.27985 7.12938C5.31511 7.18967 5.35586 7.25937 5.38683 7.32131ZM3.51659 13.6449H3.51669H16.4847C16.5976 13.6449 16.7035 13.5901 16.7686 13.4978C16.8336 13.4055 16.8498 13.2874 16.8118 13.181C16.6989 12.8629 16.5079 12.5783 16.2563 12.3533C15.5315 11.8082 14.6441 11.5236 13.7375 11.5456C13.5034 11.5397 13.288 11.4162 13.1646 11.2171C12.4999 10.1099 11.2911 9.44565 10 9.47826C8.71003 9.44557 7.50198 10.1086 6.83683 11.2144C6.71347 11.4135 6.49805 11.537 6.26391 11.5428C5.35696 11.5213 4.46935 11.8068 3.74516 12.3533C3.49353 12.5783 3.30249 12.8629 3.1896 13.181C3.15167 13.2874 3.1678 13.4055 3.23286 13.4978C3.29791 13.59 3.40373 13.6449 3.51659 13.6449ZM2.18752 14.513H17.8125C18.1002 14.513 18.3334 14.7462 18.3334 15.0338C18.3334 15.3215 18.1002 15.5546 17.8125 15.5546H17.109C16.811 15.5545 16.5461 15.7445 16.4507 16.0269L16.0584 17.1915C15.8904 17.5666 15.5187 17.8091 15.1077 17.8116H4.89238C4.49735 17.8132 4.13583 17.5899 3.96044 17.2359L3.55071 16.0262C3.45518 15.7443 3.19068 15.5547 2.89308 15.5546H2.18752C1.89987 15.5546 1.66669 15.3215 1.66669 15.0338C1.66669 14.7462 1.89987 14.513 2.18752 14.513Z" />
</svg>