<!--character:129:550:1498-->
  <svg width="24" height="24" viewBox="0 0 24 24" >
<path d="M11.4108 9.8806C11.085 9.55521 11.0846 9.02728 11.41 8.70143C12.1475 7.96393 11.9608 7.7106 11.3317 6.8706C10.7025 6.0306 9.65 4.62476 11.4108 2.86393C11.7378 2.54812 12.2576 2.55264 12.579 2.87408C12.9005 3.19553 12.905 3.71528 12.5892 4.04226C11.8492 4.78643 12.0375 5.0381 12.6658 5.8756C13.2942 6.7131 14.3467 8.11977 12.59 9.87977C12.2646 10.2056 11.7367 10.206 11.4108 9.8806Z" />
<path d="M16.2858 7.61228C15.6186 8.40184 15.6731 9.5723 16.4108 10.2964C16.7378 10.6123 17.2576 10.6077 17.579 10.2863C17.9005 9.96485 17.905 9.44509 17.5892 9.11811C17.5012 9.03023 17.4796 8.89573 17.5358 8.78478C17.5879 8.68059 17.6607 8.55812 17.7106 8.47405L17.7142 8.46811C18.3814 7.67855 18.3269 6.50808 17.5892 5.78394C17.2622 5.46813 16.7424 5.47265 16.421 5.79409C16.0995 6.11554 16.095 6.63529 16.4108 6.96228C16.4988 7.05016 16.5204 7.18466 16.4642 7.29561C16.4276 7.36987 16.3785 7.45342 16.3361 7.52573C16.3176 7.55721 16.3002 7.58676 16.2858 7.61228Z" />
<path d="M6.46416 8.78561C6.52035 8.89656 6.49883 9.03107 6.41083 9.11895C6.1892 9.32707 6.0985 9.63938 6.17418 9.93385C6.24986 10.2283 6.47991 10.4582 6.77443 10.5337C7.06894 10.6091 7.38119 10.5182 7.58916 10.2964C8.32685 9.57231 8.38136 8.40184 7.71416 7.61228C7.66416 7.52895 7.58916 7.40228 7.53583 7.29561C7.47964 7.18466 7.50116 7.05016 7.58916 6.96228C7.89693 6.63408 7.8886 6.12083 7.57033 5.80279C7.25207 5.48475 6.73882 5.47678 6.41083 5.78478C5.67314 6.50892 5.61863 7.67938 6.28583 8.46895C6.30023 8.49446 6.31739 8.52381 6.33579 8.55529C6.3781 8.62765 6.427 8.71128 6.46416 8.78561Z" />
<path d="M4.21987 16.3739H19.7817C19.9171 16.374 20.0442 16.3081 20.1222 16.1974C20.2003 16.0866 20.2197 15.9449 20.1742 15.8173C20.0387 15.4355 19.8094 15.0939 19.5075 14.8239C18.6378 14.1698 17.5729 13.8284 16.485 13.8548C16.204 13.8477 15.9455 13.6995 15.7975 13.4606C14.9998 12.1319 13.5492 11.3348 12 11.3739C10.452 11.3347 9.00234 12.1304 8.20415 13.4573C8.05612 13.6962 7.79763 13.8444 7.51665 13.8514C6.42832 13.8255 5.36318 14.1682 4.49415 14.8239C4.19219 15.0939 3.96295 15.4355 3.82749 15.8173C3.78197 15.9449 3.80133 16.0866 3.8794 16.1974C3.95745 16.3081 4.08443 16.3739 4.21987 16.3739Z" />
<path d="M2.625 17.4156H21.375C21.7202 17.4156 22 17.6954 22 18.0406C22 18.3858 21.7202 18.6656 21.375 18.6656H20.5308C20.1732 18.6654 19.8553 18.8934 19.7408 19.2323L19.27 20.6298C19.0685 21.08 18.6224 21.3709 18.1292 21.3739H5.87083C5.39679 21.3759 4.96297 21.1079 4.7525 20.6831L4.26083 19.2314C4.1462 18.8932 3.82879 18.6656 3.47167 18.6656H2.625C2.27982 18.6656 2 18.3858 2 18.0406C2 17.6954 2.27982 17.4156 2.625 17.4156Z" />
</svg>