<!--character:578-->
  <svg width="24" height="24" viewBox="0 0 24 24" >
<path d="M12 2.06004C14.5788 2.03729 17.1335 2.55876 19.4971 3.59044C19.5019 3.59252 19.5066 3.59464 19.5114 3.5968C19.8786 3.76473 20.1895 4.03525 20.4065 4.37579C20.6229 4.71534 20.7368 5.11005 20.7346 5.51264V11.6279C20.7346 13.7437 20.0934 15.8097 18.8956 17.5538C17.6979 19.2979 15.9997 20.6381 14.0251 21.3977L13.1885 21.7191C13.1884 21.7192 13.1886 21.7191 13.1885 21.7191C12.4237 22.0132 11.5766 22.0133 10.8118 21.7192C10.8117 21.7192 10.8119 21.7193 10.8118 21.7192L9.97498 21.3977C8.0003 20.6381 6.30215 19.2979 5.10439 17.5538C3.90663 15.8097 3.26548 13.7437 3.26546 11.6279V5.51248C3.26329 5.10995 3.37719 4.71529 3.59356 4.37579C3.81058 4.03525 4.12143 3.76473 4.48867 3.5968C4.49339 3.59464 4.49814 3.59252 4.50291 3.59044C6.86655 2.55876 9.4212 2.03729 12 2.06004ZM5.23244 5.23601C5.18294 5.25972 5.14104 5.29683 5.11151 5.34317C5.08103 5.39099 5.06503 5.4466 5.06544 5.50331L5.06546 5.50972V11.6279C5.06547 13.3798 5.59637 15.0906 6.58817 16.5348C7.57991 17.9789 8.98593 19.0886 10.6209 19.7176L11.4574 20.039C11.8065 20.1733 12.1933 20.1734 12.5423 20.0391L13.3788 19.7177C13.3787 19.7177 13.3789 19.7177 13.3788 19.7177C15.0138 19.0887 16.4201 17.9789 17.4119 16.5348C18.4037 15.0906 18.9346 13.3798 18.9346 11.6279V5.50972L18.9346 5.50331C18.935 5.4466 18.919 5.39099 18.8885 5.34317C18.859 5.29683 18.8171 5.25972 18.7676 5.23601C16.6363 4.30734 14.3332 3.83847 12.0084 3.86003C12.0028 3.86009 11.9972 3.86009 11.9917 3.86003C9.66688 3.83847 7.36371 4.30734 5.23244 5.23601ZM9.73217 6.11614C10.014 5.83434 10.3962 5.67602 10.7947 5.67602H13.2053C13.6039 5.67602 13.9861 5.83434 14.2679 6.11614C14.5497 6.39794 14.708 6.78015 14.708 7.17868V8.08665H15.616C16.0145 8.08665 16.3967 8.24497 16.6785 8.52677C16.9603 8.80858 17.1186 9.19079 17.1186 9.58931V11.9999C17.1186 12.3985 16.9603 12.7807 16.6785 13.0625C16.3967 13.3443 16.0145 13.5026 15.616 13.5026H14.708V14.4106C14.708 14.8091 14.5497 15.1913 14.2679 15.4731C13.9861 15.7549 13.6039 15.9132 13.2053 15.9132H10.7947C10.3962 15.9132 10.014 15.7549 9.73217 15.4731C9.45037 15.1913 9.29205 14.8091 9.29205 14.4106V13.5026H8.38408C7.98555 13.5026 7.60334 13.3443 7.32154 13.0625C7.03974 12.7807 6.88142 12.3985 6.88142 11.9999V9.58931C6.88142 9.19078 7.03974 8.80858 7.32154 8.52677C7.60334 8.24497 7.98555 8.08665 8.38408 8.08665H9.29205V7.17868C9.29205 6.78015 9.45037 6.39794 9.73217 6.11614ZM11.0921 7.47602V8.98665C11.0921 9.48371 10.6891 9.88665 10.1921 9.88665H8.68142V11.7026H10.1921C10.6891 11.7026 11.0921 12.1055 11.0921 12.6026V14.1132H12.908V12.6026C12.908 12.1055 13.3109 11.7026 13.808 11.7026H15.3186V9.88665H13.808C13.3109 9.88665 12.908 9.48371 12.908 8.98665V7.47602H11.0921Z" />
</svg>