<!--character:586-->
  <svg width="24" height="24" viewBox="0 0 24 24" >
<path d="M10.7785 2.02741C10.7824 2.02736 10.7863 2.02733 10.7903 2.02733H13.2096C13.2136 2.02733 13.2175 2.02736 13.2214 2.02741C13.6158 2.03257 13.9925 2.19152 14.2714 2.4704C14.5503 2.74928 14.7092 3.12604 14.7144 3.52041C14.7145 3.52434 14.7145 3.52826 14.7145 3.53218V5.6564H16.8387C16.8426 5.6564 16.8465 5.65643 16.8505 5.65648C17.2448 5.66163 17.6216 5.82058 17.9005 6.09947C18.1794 6.37835 18.3383 6.75512 18.3435 7.14948C18.3435 7.1534 18.3435 7.15732 18.3435 7.16124V9.58062C18.3435 9.58454 18.3435 9.58846 18.3435 9.59239C18.3383 9.98675 18.1794 10.3635 17.9005 10.6424C17.6216 10.9213 17.2448 11.0802 16.8505 11.0854C16.8465 11.0854 16.8426 11.0855 16.8387 11.0855H14.7145V13.2097C14.7145 13.2136 14.7145 13.2175 14.7144 13.2215C14.7092 13.6158 14.5503 13.9926 14.2714 14.2715C13.9925 14.5503 13.6158 14.7093 13.2214 14.7145C13.2175 14.7145 13.2136 14.7145 13.2096 14.7145H10.7903C10.7863 14.7145 10.7824 14.7145 10.7785 14.7145C10.3841 14.7093 10.0074 14.5503 9.72848 14.2715C9.4496 13.9926 9.29065 13.6158 9.28549 13.2215C9.28544 13.2175 9.28541 13.2136 9.28541 13.2097V11.0855H7.16119C7.15727 11.0855 7.15335 11.0854 7.14943 11.0854C6.75506 11.0802 6.3783 10.9213 6.09942 10.6424C5.82053 10.3635 5.66158 9.98675 5.65642 9.59239C5.65637 9.58846 5.65635 9.58454 5.65635 9.58062V7.16124C5.65635 7.15732 5.65637 7.1534 5.65642 7.14948C5.66158 6.75511 5.82053 6.37835 6.09942 6.09947C6.3783 5.82059 6.75506 5.66163 7.14943 5.65648C7.15335 5.65643 7.15727 5.6564 7.16119 5.6564H9.28541V3.53218C9.28541 3.52826 9.28544 3.52434 9.28549 3.52041C9.29065 3.12605 9.4496 2.74928 9.72848 2.4704C10.0074 2.19152 10.3841 2.03257 10.7785 2.02741ZM11.0854 3.82733V6.5564C11.0854 7.05346 10.6825 7.4564 10.1854 7.4564H7.45635V9.28546H10.1854C10.6825 9.28546 11.0854 9.68841 11.0854 10.1855V12.9145H12.9145V10.1855C12.9145 9.68841 13.3174 9.28546 13.8145 9.28546H16.5435V7.4564H13.8145C13.3174 7.4564 12.9145 7.05346 12.9145 6.5564V3.82733H11.0854ZM4.13703 12.4081C4.0549 12.4081 3.97613 12.4407 3.91805 12.4988C3.85997 12.5569 3.82734 12.6356 3.82734 12.7178V16.8852C3.83027 17.5024 4.04232 18.1003 4.42877 18.5814L6.03574 20.4937C6.35552 20.8742 6.30627 21.4419 5.92573 21.7617C5.54519 22.0815 4.97748 22.0322 4.6577 21.6517L3.04478 19.7323C3.04108 19.7279 3.03742 19.7235 3.03381 19.719C2.38657 18.9181 2.03158 17.9206 2.02735 16.8908L2.02734 16.8871V12.7178C2.02734 12.1582 2.24961 11.6216 2.64526 11.226C3.0409 10.8303 3.57751 10.6081 4.13703 10.6081C4.69656 10.6081 5.23316 10.8303 5.62881 11.226C6.02445 11.6216 6.24672 12.1582 6.24672 12.7178V13.7807C6.4673 13.7557 6.6909 13.7672 6.90847 13.815C7.18185 13.8752 7.43976 13.9915 7.66584 14.1565C7.88481 14.3164 8.06931 14.5186 8.20843 14.7511L9.11359 16.1406C9.61214 16.8838 9.87758 17.759 9.87586 18.6541V21.0727C9.87586 21.5697 9.47292 21.9727 8.97586 21.9727C8.4788 21.9727 8.07586 21.5697 8.07586 21.0727V18.6533L8.07586 18.6513C8.07703 18.1129 7.91698 17.5864 7.61632 17.1397C7.6138 17.1359 7.61131 17.1322 7.60884 17.1284L6.68948 15.7171C6.6811 15.7042 6.67304 15.6911 6.66533 15.6778C6.64996 15.6514 6.62925 15.6284 6.60453 15.6103C6.57981 15.5923 6.55161 15.5796 6.52172 15.573C6.49183 15.5664 6.46089 15.5661 6.43088 15.5721C6.40087 15.5781 6.37243 15.5903 6.34737 15.6079C6.34256 15.6113 6.33772 15.6146 6.33284 15.6179C6.2935 15.6443 6.26352 15.6822 6.24672 15.7261V15.8307C6.24672 15.8491 6.24617 15.8673 6.24508 15.8854L6.24738 15.8915L7.3121 17.666C7.56783 18.0923 7.42962 18.6451 7.0034 18.9008C6.57718 19.1566 6.02434 19.0184 5.76861 18.5921L4.67989 16.7776C4.6683 16.7583 4.65743 16.7385 4.64732 16.7184C4.46683 16.3589 4.39817 15.9559 4.44672 15.5606V12.7178C4.44672 12.6356 4.41409 12.5569 4.35602 12.4988C4.29794 12.4407 4.21917 12.4081 4.13703 12.4081ZM18.3712 11.226C18.7669 10.8303 19.3035 10.6081 19.863 10.6081C20.4225 10.6081 20.9591 10.8303 21.3548 11.226C21.7504 11.6216 21.9727 12.1582 21.9727 12.7178V16.8871L21.9727 16.8908C21.9685 17.9206 21.6135 18.9181 20.9662 19.719C20.9639 19.7219 20.9616 19.7247 20.9592 19.7275L20.9553 19.7323L19.3423 21.6517C19.0226 22.0322 18.4548 22.0815 18.0743 21.7617C17.6938 21.4419 17.6445 20.8742 17.9643 20.4937L19.5713 18.5814C19.9577 18.1003 20.1698 17.5023 20.1727 16.8851V12.7178C20.1727 12.6356 20.1401 12.5569 20.082 12.4988C20.0239 12.4407 19.9451 12.4081 19.863 12.4081C19.7809 12.4081 19.7021 12.4407 19.644 12.4988C19.5859 12.5569 19.5533 12.6356 19.5533 12.7178V15.5594C19.6021 15.9551 19.5335 16.3586 19.3529 16.7184C19.3428 16.7385 19.3319 16.7583 19.3203 16.7776L18.2316 18.5921C17.9758 19.0184 17.423 19.1566 16.9968 18.9008C16.5706 18.6451 16.4324 18.0923 16.6881 17.666L17.7528 15.8915L17.7542 15.8878C17.7536 15.8742 17.7533 15.8605 17.7533 15.8468V15.7257C17.7365 15.682 17.7066 15.6442 17.6673 15.6179C17.6653 15.6165 17.6633 15.6151 17.6613 15.6138C17.6584 15.6118 17.6556 15.6099 17.6528 15.6079C17.6278 15.5903 17.5993 15.5781 17.5693 15.5721C17.5393 15.5661 17.5084 15.5664 17.4785 15.573C17.4486 15.5796 17.4204 15.5923 17.3957 15.6103C17.3709 15.6284 17.3502 15.6514 17.3349 15.6778C17.3271 15.6911 17.3191 15.7042 17.3107 15.7171L16.3913 17.1284C16.3889 17.1322 16.3864 17.1359 16.3839 17.1397C16.0832 17.5864 15.9232 18.1129 15.9243 18.6513L15.9243 18.6533L15.9243 21.0727C15.9243 21.5697 15.5214 21.9727 15.0243 21.9727C14.5273 21.9727 14.1243 21.5697 14.1243 21.0727V18.6544C14.1226 17.7592 14.388 16.8839 14.8866 16.1406L15.7918 14.7511C15.9309 14.5186 16.1154 14.3164 16.3343 14.1565C16.5604 13.9915 16.8183 13.8752 17.0917 13.815C17.3092 13.7672 17.5328 13.7557 17.7533 13.7807V12.7178C17.7533 12.1582 17.9756 11.6216 18.3712 11.226Z" />
</svg>