<!-- character:0:294 -->
  <svg width="20" height="20" viewBox="0 0 20 20" >
<path   d="M3.75 8.125C4.78558 8.125 5.625 8.96442 5.625 10C5.625 11.0356 4.78558 11.875 3.75 11.875C2.71442 11.875 1.875 11.0356 1.875 10C1.875 8.96442 2.71442 8.125 3.75 8.125ZM10 8.125C11.0356 8.125 11.875 8.96442 11.875 10C11.875 11.0356 11.0356 11.875 10 11.875C8.96442 11.875 8.125 11.0356 8.125 10C8.125 8.96442 8.96442 8.125 10 8.125ZM18.125 10C18.125 8.96442 17.2856 8.125 16.25 8.125C15.2144 8.125 14.375 8.96442 14.375 10C14.375 11.0356 15.2144 11.875 16.25 11.875C17.2856 11.875 18.125 11.0356 18.125 10Z" />
</svg>