<!-- character:0:342 -->
  <svg width="20" height="20" viewBox="0 0 20 20" >
<path   d="M18.3333 4.99999C18.3333 5.45999 17.8951 5.83332 17.3529 5.83332H2.64706C2.10588 5.83332 1.66666 5.45999 1.66666 4.99999C1.66666 4.53999 2.10588 4.16666 2.64706 4.16666H17.3529C17.8951 4.16666 18.3333 4.53999 18.3333 4.99999ZM2.64706 10.8333C2.1049 10.8333 1.66666 10.46 1.66666 9.99999C1.66666 9.53999 2.1049 9.16666 2.64706 9.16666H17.3529C17.8941 9.16666 18.3333 9.53999 18.3333 9.99999C18.3333 10.46 17.8941 10.8333 17.3529 10.8333H2.64706ZM17.3529 15.8333C17.8951 15.8333 18.3333 15.46 18.3333 15C18.3333 14.54 17.8951 14.1667 17.3529 14.1667H2.64706C2.10588 14.1667 1.66666 14.54 1.66666 15C1.66666 15.46 2.10588 15.8333 2.64706 15.8333H17.3529Z" />
</svg>