<!--character:127:550:1325-->
  <svg width="24" height="24" viewBox="0 0 24 24" >
<path d="M14.25 4.5C14.25 5.74269 13.2427 6.75 12 6.75C10.7573 6.75 9.75 5.74269 9.75 4.5C9.75 3.25731 10.7573 2.25 12 2.25C13.2427 2.25 14.25 3.25731 14.25 4.5Z" />
<path d="M14.25 12C14.25 13.2427 13.2427 14.25 12 14.25C10.7573 14.25 9.75 13.2427 9.75 12C9.75 10.7573 10.7573 9.75 12 9.75C13.2427 9.75 14.25 10.7573 14.25 12Z" />
<path d="M12 21.75C13.2427 21.75 14.25 20.7427 14.25 19.5C14.25 18.2573 13.2427 17.25 12 17.25C10.7573 17.25 9.75 18.2573 9.75 19.5C9.75 20.7427 10.7573 21.75 12 21.75Z" />
</svg>