<!-- character:0:304 -->
  <svg width="20" height="20" viewBox="0 0 20 20" >
<path   d="M11.875 3.75C11.875 4.78558 11.0356 5.625 10 5.625C8.96442 5.625 8.125 4.78558 8.125 3.75C8.125 2.71442 8.96442 1.875 10 1.875C11.0356 1.875 11.875 2.71442 11.875 3.75ZM11.875 10C11.875 11.0356 11.0356 11.875 10 11.875C8.96442 11.875 8.125 11.0356 8.125 10C8.125 8.96442 8.96442 8.125 10 8.125C11.0356 8.125 11.875 8.96442 11.875 10ZM10 18.125C11.0356 18.125 11.875 17.2856 11.875 16.25C11.875 15.2144 11.0356 14.375 10 14.375C8.96442 14.375 8.125 15.2144 8.125 16.25C8.125 17.2856 8.96442 18.125 10 18.125Z" />
</svg>