<!--character:4259:114-->
  <svg width="24" height="24" viewBox="0 0 24 24" >
<path d="M12 20.64C7.22826 20.64 3.36 16.7717 3.36 12C3.36 7.22826 7.22826 3.36 12 3.36C16.7717 3.36 20.64 7.22826 20.64 12C20.64 16.7717 16.7717 20.64 12 20.64ZM12 22.8C17.9647 22.8 22.8 17.9647 22.8 12C22.8 6.03532 17.9647 1.2 12 1.2C6.03532 1.2 1.2 6.03532 1.2 12C1.2 17.9647 6.03532 22.8 12 22.8Z" />
<path d="M6.92308 10.4769C7.76428 10.4769 8.44615 11.1588 8.44615 12C8.44615 12.8412 7.76428 13.5231 6.92308 13.5231C6.08187 13.5231 5.4 12.8412 5.4 12C5.4 11.1588 6.08187 10.4769 6.92308 10.4769Z" />
<path d="M12 10.4769C12.8412 10.4769 13.5231 11.1588 13.5231 12C13.5231 12.8412 12.8412 13.5231 12 13.5231C11.1588 13.5231 10.4769 12.8412 10.4769 12C10.4769 11.1588 11.1588 10.4769 12 10.4769Z" />
<path d="M18.6 12C18.6 11.1588 17.9181 10.4769 17.0769 10.4769C16.2357 10.4769 15.5538 11.1588 15.5538 12C15.5538 12.8412 16.2357 13.5231 17.0769 13.5231C17.9181 13.5231 18.6 12.8412 18.6 12Z" />
</svg>