<!--character:7145-->
  <svg width="20" height="20" viewBox="0 0 20 20" >
<path d="M18.3333 5C18.3333 5.46 17.8951 5.83333 17.3529 5.83333H2.64702C2.10584 5.83333 1.66663 5.46 1.66663 5C1.66663 4.54 2.10584 4.16666 2.64702 4.16666H17.3529C17.8951 4.16666 18.3333 4.54 18.3333 5Z" />
<path d="M2.64702 10.8333C2.10486 10.8333 1.66663 10.46 1.66663 10C1.66663 9.54 2.10486 9.16666 2.64702 9.16666H17.3529C17.8941 9.16666 18.3333 9.54 18.3333 10C18.3333 10.46 17.8941 10.8333 17.3529 10.8333H2.64702Z" />
<path d="M17.3529 15.8333C17.8951 15.8333 18.3333 15.46 18.3333 15C18.3333 14.54 17.8951 14.1667 17.3529 14.1667H2.64702C2.10584 14.1667 1.66663 14.54 1.66663 15C1.66663 15.46 2.10584 15.8333 2.64702 15.8333H17.3529Z" />
</svg>