<!--character:2761-->
<svg width="24" height="24" viewBox="0 0 24 24">
  <path d="M22 6C22 6.552 21.4741 7 20.8235 7H3.17642C2.52701 7 1.99995 6.552 1.99995 6C1.99995 5.448 2.52701 5 3.17642 5H20.8235C21.4741 5 22 5.448 22 6Z" />
  <path d="M3.17642 13C2.52583 13 1.99995 12.552 1.99995 12C1.99995 11.448 2.52583 11 3.17642 11H20.8235C21.4729 11 22 11.448 22 12C22 12.552 21.4729 13 20.8235 13H3.17642Z" />
  <path d="M20.8235 19C21.4741 19 22 18.552 22 18C22 17.448 21.4741 17 20.8235 17H3.17642C2.52701 17 1.99995 17.448 1.99995 18C1.99995 18.552 2.52701 19 3.17642 19H20.8235Z" />
</svg>
