<!--character:153:550:1530-->
  <svg width="24" height="24" viewBox="0 0 24 24" >
<path   d="M22 6C22 6.552 21.4741 7 20.8235 7H3.17647C2.52706 7 2 6.552 2 6C2 5.448 2.52706 5 3.17647 5H20.8235C21.4741 5 22 5.448 22 6ZM3.17647 13C2.52588 13 2 12.552 2 12C2 11.448 2.52588 11 3.17647 11H20.8235C21.4729 11 22 11.448 22 12C22 12.552 21.4729 13 20.8235 13H3.17647ZM20.8235 19C21.4741 19 22 18.552 22 18C22 17.448 21.4741 17 20.8235 17H3.17647C2.52706 17 2 17.448 2 18C2 18.552 2.52706 19 3.17647 19H20.8235Z" />
</svg>