<!--character:7162-->
  <svg width="24" height="24" viewBox="0 0 24 24" >
<path d="M4.5 9.75C5.74269 9.75 6.75 10.7573 6.75 12C6.75 13.2427 5.74269 14.25 4.5 14.25C3.25731 14.25 2.25 13.2427 2.25 12C2.25 10.7573 3.25731 9.75 4.5 9.75Z" />
<path d="M12 9.75C13.2427 9.75 14.25 10.7573 14.25 12C14.25 13.2427 13.2427 14.25 12 14.25C10.7573 14.25 9.75 13.2427 9.75 12C9.75 10.7573 10.7573 9.75 12 9.75Z" />
<path d="M21.75 12C21.75 10.7573 20.7427 9.75 19.5 9.75C18.2573 9.75 17.25 10.7573 17.25 12C17.25 13.2427 18.2573 14.25 19.5 14.25C20.7427 14.25 21.75 13.2427 21.75 12Z" />
</svg>