<!--character:5603-->
  <svg width="24" height="24" viewBox="0 0 24 24" >
<path d="M9.49981 14.1H9.91647C10.3767 14.1 10.7498 14.4731 10.7498 14.9333C10.7498 15.3936 10.3767 15.7667 9.91647 15.7667H9.87731L7.21064 18.8158C6.98203 19.0774 6.6151 19.1698 6.2899 19.0475C5.9647 18.9253 5.74946 18.6141 5.7498 18.2667V15.7467C3.62185 15.5297 2.00244 13.739 1.9998 11.6V8.26666C2.00256 5.96662 3.86643 4.10275 6.16647 4.1H14.0831C16.3832 4.10275 18.2471 5.96662 18.2498 8.26666V11.1833C18.2498 11.6436 17.8767 12.0167 17.4165 12.0167C16.9562 12.0167 16.5831 11.6436 16.5831 11.1833V8.26666C16.5831 6.88595 15.4639 5.76666 14.0831 5.76666H6.16647C4.78576 5.76666 3.66647 6.88595 3.66647 8.26666V11.6C3.66647 12.9807 4.78576 14.1 6.16647 14.1H6.58314C7.04338 14.1 7.41647 14.4731 7.41647 14.9333V16.0517L8.87231 14.385C9.03055 14.2039 9.25931 14.1 9.49981 14.1Z" />
<path d="M19.4998 13.2667H14.0831C12.7024 13.2667 11.5831 14.386 11.5831 15.7667V17.4667C11.5831 18.8474 12.7024 19.9667 14.0831 19.9667H15.4048L17.6606 22.2233C17.8991 22.4617 18.2576 22.5329 18.5691 22.4037C18.8805 22.2746 19.0834 21.9705 19.0831 21.6333V19.9667H19.4998C20.8805 19.9667 21.9998 18.8474 21.9998 17.4667V15.7667C21.9998 14.386 20.8805 13.2667 19.4998 13.2667ZM20.3331 17.4667C20.3331 17.9269 19.96 18.3 19.4998 18.3H18.2498C17.7896 18.3 17.4165 18.6731 17.4165 19.1333V19.6217L16.339 18.5442C16.1827 18.3879 15.9708 18.3 15.7498 18.3H14.0831C13.6229 18.3 13.2498 17.9269 13.2498 17.4667V15.7667C13.2498 15.3064 13.6229 14.9333 14.0831 14.9333H19.4998C19.96 14.9333 20.3331 15.3064 20.3331 15.7667V17.4667Z" />
</svg>