<!--character:9970-->
  <svg width="24" height="24" viewBox="0 0 24 24" >
<path d="M9.5 14.1H9.91667C10.3769 14.1 10.75 14.4731 10.75 14.9333C10.75 15.3936 10.3769 15.7667 9.91667 15.7667H9.8775L7.21084 18.8158C6.98223 19.0774 6.6153 19.1698 6.2901 19.0475C5.9649 18.9253 5.74966 18.6141 5.75 18.2667V15.7467C3.62205 15.5297 2.00264 13.739 2 11.6V8.26667C2.00276 5.96663 3.86662 4.10276 6.16667 4.10001H14.0833C16.3834 4.10276 18.2472 5.96663 18.25 8.26667V11.1833C18.25 11.6436 17.8769 12.0167 17.4167 12.0167C16.9564 12.0167 16.5833 11.6436 16.5833 11.1833V8.26667C16.5833 6.88596 15.464 5.76667 14.0833 5.76667H6.16667C4.78596 5.76667 3.66667 6.88596 3.66667 8.26667V11.6C3.66667 12.9807 4.78596 14.1 6.16667 14.1H6.58334C7.04357 14.1 7.41667 14.4731 7.41667 14.9333V16.0517L8.8725 14.385C9.03075 14.2039 9.25951 14.1 9.5 14.1Z" />
<path d="M19.5 13.2667H14.0833C12.7026 13.2667 11.5833 14.386 11.5833 15.7667V17.4667C11.5833 18.8474 12.7026 19.9667 14.0833 19.9667H15.405L17.6608 22.2233C17.8993 22.4617 18.2578 22.5329 18.5693 22.4037C18.8807 22.2746 19.0836 21.9705 19.0833 21.6333V19.9667H19.5C20.8807 19.9667 22 18.8474 22 17.4667V15.7667C22 14.386 20.8807 13.2667 19.5 13.2667ZM20.3333 17.4667C20.3333 17.9269 19.9602 18.3 19.5 18.3H18.25C17.7898 18.3 17.4167 18.6731 17.4167 19.1333V19.6217L16.3392 18.5442C16.1829 18.3879 15.971 18.3001 15.75 18.3H14.0833C13.6231 18.3 13.25 17.9269 13.25 17.4667V15.7667C13.25 15.3064 13.6231 14.9333 14.0833 14.9333H19.5C19.9602 14.9333 20.3333 15.3064 20.3333 15.7667V17.4667Z" />
</svg>