<!--character:2764-->
<svg width="24" height="24" viewBox="0 0 24 24">
  <path d="M17.6248 12.0167H14.0831C12.4753 12.023 11.1023 13.1786 10.8215 14.7617C10.804 14.8612 10.7175 14.9336 10.6165 14.9333H9.78314C9.72295 14.9332 9.6657 14.9594 9.62647 15.005L6.89647 18.1242C6.78215 18.2546 6.599 18.3006 6.43664 18.2396C6.27428 18.1786 6.16667 18.0234 6.16647 17.85V14.9333H5.7498C3.67874 14.9333 1.9998 13.2544 1.9998 11.1833V7.85C2.0021 5.77988 3.67969 4.10229 5.7498 4.1H14.0831C16.1533 4.10229 17.8308 5.77988 17.8331 7.85V11.8083C17.8331 11.9234 17.7399 12.0167 17.6248 12.0167Z" />
  <path d="M21.3896 13.8769C21.7803 14.2676 21.9998 14.7975 21.9998 15.35V17.85C21.9998 18.4025 21.7803 18.9324 21.3896 19.3231C20.9989 19.7138 20.469 19.9333 19.9165 19.9333H18.6665V22.0167C18.6668 22.1854 18.5653 22.3377 18.4094 22.4023C18.2535 22.4669 18.074 22.4311 17.9548 22.3117L15.5773 19.9333H14.0831C12.9325 19.9333 11.9998 19.0006 11.9998 17.85V15.35C11.9998 14.1994 12.9325 13.2667 14.0831 13.2667H19.9165C20.469 13.2667 20.9989 13.4862 21.3896 13.8769Z" />
</svg>
