<!--description:Non-selected version for mobile menu.-->
<!--category:basic-->
<!--character:E136-->
<!--added:0.11-->
<svg width="24" height="24" viewBox="0 0 24 24" xmlns="http://www.w3.org/2000/svg"><path d="M9.9167 14.1a.8333.8333 0 1 1 0 1.6667h-.0392l-2.6667 3.0491a.8333.8333 0 0 1-1.4608-.5491v-2.52C3.622 15.5297 2.0026 13.739 2 11.6V8.2667c.0028-2.3 1.8666-4.164 4.1667-4.1667h7.9166c2.3.0028 4.164 1.8666 4.1667 4.1667v2.9166a.8333.8333 0 1 1-1.6667 0V8.2667c0-1.3807-1.1193-2.5-2.5-2.5H6.1667c-1.3807 0-2.5 1.1193-2.5 2.5V11.6c0 1.3807 1.1193 2.5 2.5 2.5h.4166a.8333.8333 0 0 1 .8334.8333v1.1184l1.4558-1.6667A.8333.8333 0 0 1 9.5 14.1h.4167zm9.5833-.8333c1.3807 0 2.5 1.1193 2.5 2.5v1.7c0 1.3807-1.1193 2.5-2.5 2.5h-.4167v1.6666a.8333.8333 0 0 1-1.4225.59l-2.2558-2.2566h-1.3217c-1.3807 0-2.5-1.1193-2.5-2.5v-1.7c0-1.3807 1.1193-2.5 2.5-2.5H19.5zm.8333 4.2v-1.7a.8333.8333 0 0 0-.8333-.8334h-5.4167a.8333.8333 0 0 0-.8333.8334v1.7c0 .4602.3731.8333.8333.8333H15.75c.221 0 .433.0879.5892.2442l1.0775 1.0775v-.4884A.8333.8333 0 0 1 18.25 18.3h1.25a.8333.8333 0 0 0 .8333-.8333z"/></svg>