<!--character:7004-->
  <svg width="20" height="20" viewBox="0 0 20 20" >
<path d="M7.9165 11.75H8.26373C8.64726 11.75 8.95817 12.0609 8.95817 12.4444C8.95817 12.828 8.64726 13.1389 8.26373 13.1389H8.23109L6.00887 15.6799C5.81836 15.8979 5.51259 15.9748 5.24158 15.8729C4.97058 15.7711 4.79122 15.5117 4.7915 15.2222V13.1222C3.01821 12.9414 1.6687 11.4492 1.6665 9.66666V6.88889C1.6688 4.97218 3.22202 3.41896 5.13873 3.41666H11.7359C13.6527 3.41896 15.2059 4.97218 15.2082 6.88889V9.31944C15.2082 9.70297 14.8973 10.0139 14.5137 10.0139C14.1302 10.0139 13.8193 9.70297 13.8193 9.31944V6.88889C13.8193 5.73829 12.8865 4.80555 11.7359 4.80555H5.13873C3.98813 4.80555 3.05539 5.73829 3.05539 6.88889V9.66666C3.05539 10.8173 3.98813 11.75 5.13873 11.75H5.48595C5.86948 11.75 6.18039 12.0609 6.18039 12.4444V13.3764L7.39359 11.9875C7.52546 11.8366 7.71609 11.75 7.9165 11.75Z" />
<path d="M16.2498 11.0556H11.7359C10.5854 11.0556 9.65262 11.9883 9.65262 13.1389V14.5556C9.65262 15.7061 10.5854 16.6389 11.7359 16.6389H12.8373L14.7172 18.5194C14.9159 18.7181 15.2147 18.7774 15.4742 18.6698C15.7337 18.5621 15.9028 18.3087 15.9026 18.0278V16.6389H16.2498C17.4004 16.6389 18.3332 15.7061 18.3332 14.5556V13.1389C18.3332 11.9883 17.4004 11.0556 16.2498 11.0556ZM16.9443 14.5556C16.9443 14.9391 16.6334 15.25 16.2498 15.25H15.2082C14.8246 15.25 14.5137 15.5609 14.5137 15.9444V16.3514L13.6158 15.4535C13.4856 15.3232 13.309 15.25 13.1248 15.25H11.7359C11.3524 15.25 11.0415 14.9391 11.0415 14.5556V13.1389C11.0415 12.7554 11.3524 12.4444 11.7359 12.4444H16.2498C16.6334 12.4444 16.9443 12.7554 16.9443 13.1389V14.5556Z" />
</svg>