<!-- character:0:578 -->
  <svg width="20" height="20" viewBox="0 0 20 20" >
<path   d="M14.6875 10.0139H11.7361C10.3963 10.0191 9.25206 10.9821 9.01808 12.3014C9.00354 12.3843 8.93142 12.4447 8.84724 12.4444H8.1528C8.10264 12.4443 8.05494 12.4661 8.02224 12.5042L5.74724 15.1035C5.65198 15.2121 5.49935 15.2505 5.36405 15.1996C5.22875 15.1488 5.13908 15.0195 5.13891 14.875V12.4444H4.79169C3.0658 12.4444 1.66669 11.0453 1.66669 9.31943V6.54166C1.6686 4.81656 3.06659 3.41857 4.79169 3.41666H11.7361C13.4612 3.41857 14.8592 4.81656 14.8611 6.54166V9.84027C14.8611 9.93615 14.7834 10.0139 14.6875 10.0139ZM17.8249 11.564C18.1504 11.8896 18.3334 12.3312 18.3334 12.7917V14.875C18.3334 15.3354 18.1504 15.777 17.8249 16.1026C17.4993 16.4282 17.0577 16.6111 16.5972 16.6111H15.5556V18.3472C15.5558 18.4878 15.4712 18.6147 15.3413 18.6686C15.2114 18.7224 15.0618 18.6926 14.9625 18.593L12.9813 16.6111H11.7361C10.7773 16.6111 10 15.8338 10 14.875V12.7917C10 11.8328 10.7773 11.0555 11.7361 11.0555H16.5972C17.0577 11.0555 17.4993 11.2385 17.8249 11.564Z" />
</svg>