<!--character:$550:1437-->
  <svg width="24" height="24" viewBox="0 0 24 24" >
<path d="M17.625 12.0166H14.0833C12.4755 12.023 11.1024 13.1785 10.8217 14.7616C10.8042 14.8611 10.7177 14.9336 10.6167 14.9333H9.78333C9.72315 14.9331 9.6659 14.9593 9.62667 15.005L6.89667 18.1241C6.78235 18.2546 6.5992 18.3005 6.43684 18.2396C6.27448 18.1786 6.16687 18.0234 6.16667 17.85V14.9333H5.75C3.67893 14.9333 2 13.2544 2 11.1833V7.84998C2.0023 5.77986 3.67988 4.10227 5.75 4.09998H14.0833C16.1535 4.10227 17.831 5.77986 17.8333 7.84998V11.8083C17.8333 11.9234 17.7401 12.0166 17.625 12.0166Z" />
<path d="M21.3898 13.8768C21.7805 14.2675 22 14.7974 22 15.35V17.85C22 18.4025 21.7805 18.9324 21.3898 19.3231C20.9991 19.7138 20.4692 19.9333 19.9167 19.9333H18.6667V22.0166C18.667 22.1854 18.5654 22.3377 18.4096 22.4023C18.2537 22.4669 18.0742 22.4311 17.955 22.3116L15.5775 19.9333H14.0833C12.9327 19.9333 12 19.0006 12 17.85V15.35C12 14.1994 12.9327 13.2666 14.0833 13.2666H19.9167C20.4692 13.2666 20.9991 13.4861 21.3898 13.8768Z" />
</svg>