<!-- character:0:586 -->
  <svg width="20" height="20" viewBox="0 0 20 20" >
<path   d="M7.91669 11.75H8.26391C8.64744 11.75 8.95835 12.0609 8.95835 12.4444C8.95835 12.828 8.64744 13.1389 8.26391 13.1389H8.23127L6.00905 15.6798C5.81854 15.8979 5.51277 15.9748 5.24177 15.8729C4.97077 15.771 4.7914 15.5117 4.79169 15.2222V13.1222C3.01839 12.9414 1.66888 11.4491 1.66669 9.66666V6.88888C1.66898 4.97217 3.22221 3.41895 5.13891 3.41666H11.7361C13.6528 3.41895 15.2061 4.97217 15.2084 6.88888V9.31943C15.2084 9.70296 14.8974 10.0139 14.5139 10.0139C14.1304 10.0139 13.8195 9.70296 13.8195 9.31943V6.88888C13.8195 5.73829 12.8867 4.80555 11.7361 4.80555H5.13891C3.98832 4.80555 3.05558 5.73829 3.05558 6.88888V9.66666C3.05558 10.8172 3.98832 11.75 5.13891 11.75H5.48613C5.86966 11.75 6.18058 12.0609 6.18058 12.4444V13.3764L7.39377 11.9875C7.52564 11.8366 7.71628 11.75 7.91669 11.75ZM16.25 11.0555H11.7361C10.5855 11.0555 9.6528 11.9883 9.6528 13.1389V14.5555C9.6528 15.7061 10.5855 16.6389 11.7361 16.6389H12.8375L14.7174 18.5194C14.9161 18.7181 15.2149 18.7774 15.4744 18.6698C15.7339 18.5621 15.903 18.3087 15.9028 18.0278V16.6389H16.25C17.4006 16.6389 18.3334 15.7061 18.3334 14.5555V13.1389C18.3334 11.9883 17.4006 11.0555 16.25 11.0555ZM16.9445 14.5555C16.9445 14.9391 16.6336 15.25 16.25 15.25H15.2084C14.8248 15.25 14.5139 15.5609 14.5139 15.9444V16.3514L13.616 15.4535C13.4858 15.3232 13.3092 15.25 13.125 15.25H11.7361C11.3526 15.25 11.0417 14.9391 11.0417 14.5555V13.1389C11.0417 12.7553 11.3526 12.4444 11.7361 12.4444H16.25C16.6336 12.4444 16.9445 12.7553 16.9445 13.1389V14.5555Z" />
</svg>