<!--character:147:550:1446-->
  <svg width="24" height="24" viewBox="0 0 24 24" >
<path   d="M9.5 14.1H9.91667C10.3769 14.1 10.75 14.4731 10.75 14.9333C10.75 15.3935 10.3769 15.7666 9.91667 15.7666H9.8775L7.21083 18.8158C6.98222 19.0774 6.6153 19.1697 6.2901 19.0475C5.96489 18.9252 5.74966 18.6141 5.75 18.2666V15.7466C3.62205 15.5297 2.00263 13.739 2 11.6V8.26664C2.00276 5.9666 3.86662 4.10273 6.16667 4.09998H14.0833C16.3834 4.10273 18.2472 5.9666 18.25 8.26664V11.1833C18.25 11.6435 17.8769 12.0166 17.4167 12.0166C16.9564 12.0166 16.5833 11.6435 16.5833 11.1833V8.26664C16.5833 6.88593 15.464 5.76664 14.0833 5.76664H6.16667C4.78595 5.76664 3.66667 6.88593 3.66667 8.26664V11.6C3.66667 12.9807 4.78595 14.1 6.16667 14.1H6.58333C7.04357 14.1 7.41667 14.4731 7.41667 14.9333V16.0516L8.8725 14.385C9.03074 14.2039 9.25951 14.1 9.5 14.1ZM19.5 13.2666H14.0833C12.7026 13.2666 11.5833 14.3859 11.5833 15.7666V17.4666C11.5833 18.8473 12.7026 19.9666 14.0833 19.9666H15.405L17.6608 22.2233C17.8993 22.4617 18.2578 22.5329 18.5693 22.4037C18.8807 22.2745 19.0836 21.9704 19.0833 21.6333V19.9666H19.5C20.8807 19.9666 22 18.8473 22 17.4666V15.7666C22 14.3859 20.8807 13.2666 19.5 13.2666ZM20.3333 17.4666C20.3333 17.9269 19.9602 18.3 19.5 18.3H18.25C17.7898 18.3 17.4167 18.6731 17.4167 19.1333V19.6216L16.3392 18.5441C16.1829 18.3878 15.971 18.3 15.75 18.3H14.0833C13.6231 18.3 13.25 17.9269 13.25 17.4666V15.7666C13.25 15.3064 13.6231 14.9333 14.0833 14.9333H19.5C19.9602 14.9333 20.3333 15.3064 20.3333 15.7666V17.4666Z" />
</svg>