<!--character:3439-->
  <svg width="20" height="20" viewBox="0 0 20 20" >
<path d="M14.6873 10.0139H11.7359C10.3961 10.0191 9.25188 10.9821 9.01789 12.3014C9.00336 12.3843 8.93123 12.4447 8.84706 12.4444H8.15262C8.10246 12.4443 8.05475 12.4661 8.02206 12.5042L5.74706 15.1035C5.65179 15.2122 5.49917 15.2505 5.36387 15.1996C5.22857 15.1488 5.13889 15.0195 5.13873 14.875V12.4444H4.7915C3.06561 12.4444 1.6665 11.0453 1.6665 9.31944V6.54166C1.66842 4.81657 3.06641 3.41858 4.7915 3.41666H11.7359C13.461 3.41858 14.859 4.81657 14.8609 6.54166V9.84028C14.8609 9.93616 14.7832 10.0139 14.6873 10.0139Z" />
<path d="M17.8247 11.564C18.1503 11.8896 18.3332 12.3312 18.3332 12.7917V14.875C18.3332 15.3354 18.1503 15.777 17.8247 16.1026C17.4991 16.4282 17.0575 16.6111 16.5971 16.6111H15.5554V18.3472C15.5556 18.4879 15.471 18.6147 15.3411 18.6686C15.2112 18.7225 15.0617 18.6926 14.9623 18.5931L12.9811 16.6111H11.7359C10.7771 16.6111 9.99984 15.8338 9.99984 14.875V12.7917C9.99984 11.8328 10.7771 11.0556 11.7359 11.0556H16.5971C17.0575 11.0556 17.4991 11.2385 17.8247 11.564Z" />
</svg>