<!--character:5608-->
  <svg width="24" height="24" viewBox="0 0 24 24" >
<path d="M18.309 5H2.85837C2.34335 5 2 5.34335 2 5.85837V15.3004C2 15.8155 2.34335 16.1588 2.85837 16.1588H18.309C18.824 16.1588 19.1674 15.8155 19.1674 15.3004V5.85837C19.1674 5.34335 18.824 5 18.309 5ZM4.57512 8.43349C4.0601 8.43349 3.71675 8.09014 3.71675 7.57512C3.71675 7.0601 4.0601 6.71675 4.57512 6.71675C5.09014 6.71675 5.43349 7.0601 5.43349 7.57512C5.43349 8.09014 5.09014 8.43349 4.57512 8.43349ZM8.00857 10.5794C8.00857 9.12017 9.12445 8.00429 10.5837 8.00429C12.0429 8.00429 13.1588 9.12017 13.1588 10.5794C13.1588 12.0386 12.0429 13.1545 10.5837 13.1545C9.12445 13.1545 8.00857 12.0386 8.00857 10.5794ZM16.5923 14.4421C16.0772 14.4421 15.7339 14.0987 15.7339 13.5837C15.7339 13.0687 16.0772 12.7253 16.5923 12.7253C17.1073 12.7253 17.4506 13.0687 17.4506 13.5837C17.4506 14.0987 17.1073 14.4421 16.5923 14.4421Z" />
<path d="M20.6266 8.0043C20.6266 7.57511 20.97 7.3176 21.3133 7.3176C21.6567 7.3176 21.9142 7.66095 22 8.0043V17.4464C21.9142 18.3047 21.3133 18.9914 20.4549 18.9914H5.0043C4.57511 18.9914 4.3176 18.7339 4.3176 18.3047C4.3176 17.8755 4.66095 17.618 5.0043 17.618H20.4549C20.5408 17.618 20.6266 17.5322 20.6266 17.4464V8.0043Z" />
</svg>