<!--character:5410-->
  <svg width="24" height="24" viewBox="0 0 24 24" >
<path d="M18.3088 5H2.85817C2.34315 5 1.9998 5.34334 1.9998 5.85837V15.3004C1.9998 15.8154 2.34315 16.1588 2.85817 16.1588H18.3088C18.8238 16.1588 19.1672 15.8154 19.1672 15.3004V5.85837C19.1672 5.34334 18.8238 5 18.3088 5ZM4.57491 8.43347C4.05989 8.43347 3.71654 8.09013 3.71654 7.5751C3.71654 7.06008 4.05989 6.71673 4.57491 6.71673C5.08993 6.71673 5.43328 7.06008 5.43328 7.5751C5.43328 8.09013 5.08993 8.43347 4.57491 8.43347ZM8.00839 10.5794C8.00839 9.12017 9.12427 8.00429 10.5835 8.00429C12.0427 8.00429 13.1586 9.12017 13.1586 10.5794C13.1586 12.0386 12.0427 13.1545 10.5835 13.1545C9.12427 13.1545 8.00839 12.0386 8.00839 10.5794ZM16.5921 14.4421C16.0771 14.4421 15.7337 14.0987 15.7337 13.5837C15.7337 13.0687 16.0771 12.7253 16.5921 12.7253C17.1071 12.7253 17.4504 13.0687 17.4504 13.5837C17.4504 14.0987 17.1071 14.4421 16.5921 14.4421Z" />
<path d="M20.6264 8.00429C20.6264 7.5751 20.9698 7.31759 21.3131 7.31759C21.6565 7.31759 21.914 7.66094 21.9998 8.00429V17.4463C21.914 18.3047 21.3131 18.9914 20.4547 18.9914H5.0041C4.57491 18.9914 4.3174 18.7339 4.3174 18.3047C4.3174 17.8755 4.66075 17.618 5.0041 17.618H20.4547C20.5406 17.618 20.6264 17.5322 20.6264 17.4463V8.00429Z" />
</svg>