<!-- character:0:1783 -->
  <svg width="20" height="20" viewBox="0 0 20 20" >
<path   d="M15.2575 4.16675H2.38199C1.95281 4.16675 1.66669 4.45287 1.66669 4.88206V12.7504C1.66669 13.1796 1.95281 13.4657 2.38199 13.4657H15.2575C15.6867 13.4657 15.9728 13.1796 15.9728 12.7504V4.88206C15.9728 4.45287 15.6867 4.16675 15.2575 4.16675ZM3.81261 7.02798C3.38342 7.02798 3.0973 6.74186 3.0973 6.31267C3.0973 5.88349 3.38342 5.59736 3.81261 5.59736C4.24179 5.59736 4.52792 5.88349 4.52792 6.31267C4.52792 6.74186 4.24179 7.02798 3.81261 7.02798ZM6.67384 8.81625C6.67384 10.0323 7.60374 10.9622 8.81976 10.9622C10.0358 10.9622 10.9657 10.0323 10.9657 8.81625C10.9657 7.60022 10.0358 6.67032 8.81976 6.67032C7.60374 6.67032 6.67384 7.60022 6.67384 8.81625ZM13.8269 12.0351C13.3977 12.0351 13.1116 11.749 13.1116 11.3198C13.1116 10.8906 13.3977 10.6045 13.8269 10.6045C14.2561 10.6045 14.5422 10.8906 14.5422 11.3198C14.5422 11.749 14.2561 12.0351 13.8269 12.0351ZM17.1889 6.67033C17.1889 6.31267 17.475 6.09808 17.7611 6.09808C18.0472 6.09808 18.2618 6.3842 18.3334 6.67033V14.5387C18.2618 15.254 17.7611 15.8263 17.0458 15.8263H4.17026C3.81261 15.8263 3.59802 15.6117 3.59802 15.254C3.59802 14.8964 3.88414 14.6818 4.17026 14.6818H17.0458C17.1173 14.6818 17.1889 14.6102 17.1889 14.5387V6.67033Z" />
</svg>