<!--character:9169-->
  <svg width="24" height="24" viewBox="0 0 24 24" >
<path d="M10.9565 3.25348C10.9565 2.73174 11.3913 2.21 12 2.21C12.6087 2.21 13.1304 2.64478 13.1304 3.25348V5.25348C13.1304 5.34044 13.2174 5.42739 13.3043 5.42739H14.6087C14.8696 5.42739 15.0435 5.51435 15.2174 5.68826C15.5652 6.03609 15.5652 6.55783 15.2174 6.90565L12.6087 9.51435C12.2609 9.86218 11.7391 9.86218 11.3913 9.51435L8.78261 6.90565C8.6087 6.73174 8.52174 6.55783 8.52174 6.29696C8.52174 5.77522 8.86957 5.42739 9.39131 5.42739H10.7826C10.8696 5.42739 10.9565 5.34044 10.9565 5.25348V3.25348Z" />
<path d="M22 11.3404C22 10.8187 21.6522 10.4709 21.1304 10.4709H2.86957C2.34783 10.4709 2 10.8187 2 11.3404V20.9057C2 21.4274 2.34783 21.7752 2.86957 21.7752H21.1304C21.6522 21.7752 22 21.4274 22 20.9057V11.3404ZM4.6087 13.9491C4.08696 13.9491 3.73913 13.6013 3.73913 13.0796C3.73913 12.5578 4.08696 12.21 4.6087 12.21C5.13044 12.21 5.47826 12.5578 5.47826 13.0796C5.47826 13.6013 5.13044 13.9491 4.6087 13.9491ZM9.39131 16.123C9.39131 14.6448 10.5217 13.5143 12 13.5143C13.4783 13.5143 14.6087 14.6448 14.6087 16.123C14.6087 17.6013 13.4783 18.7317 12 18.7317C10.5217 18.7317 9.39131 17.6013 9.39131 16.123ZM19.3913 20.0361C18.8696 20.0361 18.5217 19.6883 18.5217 19.1665C18.5217 18.6448 18.8696 18.297 19.3913 18.297C19.913 18.297 20.2609 18.6448 20.2609 19.1665C20.2609 19.6883 19.913 20.0361 19.3913 20.0361Z" />
</svg>