<!--character:5209-->
  <svg width="20" height="20" viewBox="0 0 20 20" >
<path d="M9.13052 2.71123C9.13052 2.27645 9.49284 1.84167 10.0001 1.84167C10.5073 1.84167 10.9421 2.20399 10.9421 2.71123V4.3779C10.9421 4.45036 11.0146 4.52283 11.087 4.52283H12.174C12.3914 4.52283 12.5363 4.59529 12.6812 4.74022C12.9711 5.03007 12.9711 5.46486 12.6812 5.75471L10.5073 7.92862C10.2175 8.21848 9.78269 8.21848 9.49284 7.92862L7.31892 5.75471C7.174 5.60978 7.10153 5.46486 7.10153 5.24746C7.10153 4.81268 7.39139 4.52283 7.82617 4.52283H8.98559C9.05805 4.52283 9.13052 4.45036 9.13052 4.3779V2.71123Z" />
<path d="M18.3334 9.45036C18.3334 9.01558 18.0436 8.72573 17.6088 8.72573H2.39139C1.9566 8.72573 1.66675 9.01558 1.66675 9.45036V17.4214C1.66675 17.8562 1.9566 18.146 2.39139 18.146H17.6088C18.0436 18.146 18.3334 17.8562 18.3334 17.4214V9.45036ZM3.84066 11.6243C3.40588 11.6243 3.11602 11.3344 3.11602 10.8996C3.11602 10.4649 3.40588 10.175 3.84066 10.175C4.27544 10.175 4.5653 10.4649 4.5653 10.8996C4.5653 11.3344 4.27544 11.6243 3.84066 11.6243ZM7.82617 13.4359C7.82617 12.204 8.7682 11.262 10.0001 11.262C11.232 11.262 12.174 12.204 12.174 13.4359C12.174 14.6678 11.232 15.6098 10.0001 15.6098C8.7682 15.6098 7.82617 14.6678 7.82617 13.4359ZM16.1595 16.6967C15.7247 16.6967 15.4349 16.4069 15.4349 15.9721C15.4349 15.5373 15.7247 15.2475 16.1595 15.2475C16.5943 15.2475 16.8841 15.5373 16.8841 15.9721C16.8841 16.4069 16.5943 16.6967 16.1595 16.6967Z" />
</svg>