<!--character:3922-->
  <svg width="20" height="20" viewBox="0 0 20 20" >
<path d="M15.2573 4.16666H2.38181C1.95263 4.16666 1.6665 4.45279 1.6665 4.88197V12.7504C1.6665 13.1795 1.95263 13.4657 2.38181 13.4657H15.2573C15.6865 13.4657 15.9727 13.1795 15.9727 12.7504V4.88197C15.9727 4.45279 15.6865 4.16666 15.2573 4.16666ZM3.81243 7.02789C3.38324 7.02789 3.09712 6.74177 3.09712 6.31259C3.09712 5.8834 3.38324 5.59728 3.81243 5.59728C4.24161 5.59728 4.52773 5.8834 4.52773 6.31259C4.52773 6.74177 4.24161 7.02789 3.81243 7.02789ZM6.67366 8.81616C6.67366 7.60014 7.60356 6.67024 8.81958 6.67024C10.0356 6.67024 10.9655 7.60014 10.9655 8.81616C10.9655 10.0322 10.0356 10.9621 8.81958 10.9621C7.60356 10.9621 6.67366 10.0322 6.67366 8.81616ZM13.8267 12.035C13.3975 12.035 13.1114 11.7489 13.1114 11.3197C13.1114 10.8906 13.3975 10.6044 13.8267 10.6044C14.2559 10.6044 14.542 10.8906 14.542 11.3197C14.542 11.7489 14.2559 12.035 13.8267 12.035Z" />
<path d="M17.1887 6.67024C17.1887 6.31259 17.4748 6.098 17.7609 6.098C18.047 6.098 18.2616 6.38412 18.3332 6.67024V14.5386C18.2616 15.2539 17.7609 15.8262 17.0456 15.8262H4.17008C3.81243 15.8262 3.59783 15.6116 3.59783 15.2539C3.59783 14.8963 3.88396 14.6817 4.17008 14.6817H17.0456C17.1171 14.6817 17.1887 14.6102 17.1887 14.5386V6.67024Z" />
</svg>