<!--character:6266-->
  <svg width="24" height="24" viewBox="0 0 24 24" >
<path d="M10.9566 3.25348C10.9566 2.73174 11.3914 2.21 12.0001 2.21C12.6088 2.21 13.1305 2.64478 13.1305 3.25348V5.25348C13.1305 5.34044 13.2175 5.42739 13.3044 5.42739H14.6088C14.8697 5.42739 15.0436 5.51435 15.2175 5.68826C15.5653 6.03609 15.5653 6.55783 15.2175 6.90565L12.6088 9.51435C12.261 9.86218 11.7392 9.86218 11.3914 9.51435L8.78271 6.90565C8.60879 6.73174 8.52184 6.55783 8.52184 6.29696C8.52184 5.77522 8.86966 5.42739 9.3914 5.42739H10.7827C10.8697 5.42739 10.9566 5.34044 10.9566 5.25348V3.25348Z" />
<path d="M22.0001 11.3404C22.0001 10.8187 21.6523 10.4709 21.1305 10.4709H2.86966C2.34792 10.4709 2.0001 10.8187 2.0001 11.3404V20.9057C2.0001 21.4274 2.34792 21.7752 2.86966 21.7752H21.1305C21.6523 21.7752 22.0001 21.4274 22.0001 20.9057V11.3404ZM4.60879 13.9491C4.08705 13.9491 3.73923 13.6013 3.73923 13.0796C3.73923 12.5578 4.08705 12.21 4.60879 12.21C5.13053 12.21 5.47836 12.5578 5.47836 13.0796C5.47836 13.6013 5.13053 13.9491 4.60879 13.9491ZM9.3914 16.123C9.3914 14.6448 10.5218 13.5143 12.0001 13.5143C13.4784 13.5143 14.6088 14.6448 14.6088 16.123C14.6088 17.6013 13.4784 18.7317 12.0001 18.7317C10.5218 18.7317 9.3914 17.6013 9.3914 16.123ZM19.3914 20.0361C18.8697 20.0361 18.5218 19.6883 18.5218 19.1665C18.5218 18.6448 18.8697 18.297 19.3914 18.297C19.9131 18.297 20.261 18.6448 20.261 19.1665C20.261 19.6883 19.9131 20.0361 19.3914 20.0361Z" />
</svg>