<!--character:1050-->
  <svg width="24" height="24" viewBox="0 0 24 24" >
<path d="M13.0435 8.73174C13.0435 9.25348 12.6087 9.77522 12 9.77522C11.3913 9.77522 10.8696 9.34044 10.8696 8.73174V6.73174C10.8696 6.64478 10.7826 6.55783 10.6957 6.55783H9.39133C9.13046 6.55783 8.95655 6.47087 8.78263 6.29696C8.43481 5.94913 8.43481 5.42739 8.78263 5.07957L11.3913 2.47087C11.7392 2.12304 12.2609 2.12304 12.6087 2.47087L15.2174 5.07957C15.3913 5.25348 15.4783 5.42739 15.4783 5.68826C15.4783 6.21 15.1305 6.55783 14.6087 6.55783H13.2174C13.1305 6.55783 13.0435 6.64478 13.0435 6.73174V8.73174Z" />
<path d="M22 11.3404C22 10.8187 21.6522 10.4709 21.1305 10.4709H2.86959C2.34785 10.4709 2.00002 10.8187 2.00002 11.3404V20.9057C2.00002 21.4274 2.34785 21.7752 2.86959 21.7752H21.1305C21.6522 21.7752 22 21.4274 22 20.9057V11.3404ZM4.60872 13.9491C4.08698 13.9491 3.73915 13.6013 3.73915 13.0796C3.73915 12.5578 4.08698 12.21 4.60872 12.21C5.13046 12.21 5.47828 12.5578 5.47828 13.0796C5.47828 13.6013 5.13046 13.9491 4.60872 13.9491ZM9.39133 16.123C9.39133 14.6448 10.5218 13.5143 12 13.5143C13.4783 13.5143 14.6087 14.6448 14.6087 16.123C14.6087 17.6013 13.4783 18.7317 12 18.7317C10.5218 18.7317 9.39133 17.6013 9.39133 16.123ZM19.3913 20.0361C18.8696 20.0361 18.5218 19.6883 18.5218 19.1665C18.5218 18.6448 18.8696 18.297 19.3913 18.297C19.9131 18.297 20.2609 18.6448 20.2609 19.1665C20.2609 19.6883 19.9131 20.0361 19.3913 20.0361Z" />
</svg>