<!--character:2013-->
  <svg width="20" height="20" viewBox="0 0 20 20" >
<path d="M10.8694 7.27645C10.8694 7.71123 10.5071 8.14602 9.99984 8.14602C9.49259 8.14602 9.05781 7.7837 9.05781 7.27645V5.60978C9.05781 5.53732 8.98534 5.46486 8.91288 5.46486H7.82592C7.60853 5.46486 7.46361 5.39239 7.31868 5.24746C7.02882 4.95761 7.02882 4.52283 7.31868 4.23297L9.49259 2.05906C9.78245 1.7692 10.2172 1.7692 10.5071 2.05906L12.681 4.23297C12.8259 4.3779 12.8984 4.52283 12.8984 4.74022C12.8984 5.175 12.6085 5.46486 12.1737 5.46486H11.0143C10.9419 5.46486 10.8694 5.53732 10.8694 5.60978V7.27645Z" />
<path d="M18.3332 9.45036C18.3332 9.01558 18.0433 8.72573 17.6085 8.72573H2.39114C1.95636 8.72573 1.6665 9.01558 1.6665 9.45036V17.4214C1.6665 17.8562 1.95636 18.146 2.39114 18.146H17.6085C18.0433 18.146 18.3332 17.8562 18.3332 17.4214V9.45036ZM3.84042 11.6243C3.40563 11.6243 3.11578 11.3344 3.11578 10.8996C3.11578 10.4649 3.40563 10.175 3.84042 10.175C4.2752 10.175 4.56505 10.4649 4.56505 10.8996C4.56505 11.3344 4.2752 11.6243 3.84042 11.6243ZM7.82592 13.4359C7.82592 12.204 8.76795 11.262 9.99984 11.262C11.2317 11.262 12.1738 12.204 12.1738 13.4359C12.1738 14.6678 11.2317 15.6098 9.99984 15.6098C8.76795 15.6098 7.82592 14.6678 7.82592 13.4359ZM16.1593 16.6967C15.7245 16.6967 15.4346 16.4069 15.4346 15.9721C15.4346 15.5373 15.7245 15.2475 16.1593 15.2475C16.594 15.2475 16.8839 15.5373 16.8839 15.9721C16.8839 16.4069 16.594 16.6967 16.1593 16.6967Z" />
</svg>