<!--character:152:550:1513-->
<svg width="24" height="24" viewBox="0 0 24 24" xmlns="http://www.w3.org/2000/svg"><path d="M21.3133 7.3176c.3434 0 .6009.3433.6867.6867v9.442c-.0858.8584-.6867 1.5451-1.545 1.5451H5.0042c-.4292 0-.6867-.2575-.6867-.6867 0-.4292.3433-.6867.6867-.6867h15.4506c.0859 0 .1717-.0858.1717-.1716V8.0043c0-.4292.3434-.6867.6867-.6867zM18.309 5c.515 0 .8584.3433.8584.8584v9.442c0 .515-.3434.8584-.8584.8584H2.8584c-.515 0-.8584-.3433-.8584-.8584v-9.442C2 5.3434 2.3433 5 2.8584 5H18.309zM4.5751 8.4335c.515 0 .8584-.3434.8584-.8584 0-.515-.3434-.8584-.8584-.8584-.515 0-.8584.3434-.8584.8584 0 .515.3434.8584.8584.8584zm6.0086 4.721c1.4592 0 2.5751-1.1159 2.5751-2.5751s-1.1159-2.5751-2.5751-2.5751-2.5751 1.1159-2.5751 2.5751 1.1159 2.5751 2.575 2.5751zm6.0086 1.2876c.515 0 .8583-.3434.8583-.8584 0-.515-.3433-.8584-.8583-.8584-.515 0-.8584.3434-.8584.8584 0 .515.3434.8584.8584.8584z"/></svg>
