<!--character:8910-->
  <svg width="24" height="24" viewBox="0 0 24 24" >
<path d="M18.309 5H2.85837C2.34335 5 2 5.34334 2 5.85837V15.3004C2 15.8154 2.34335 16.1588 2.85837 16.1588H18.309C18.824 16.1588 19.1674 15.8154 19.1674 15.3004V5.85837C19.1674 5.34334 18.824 5 18.309 5ZM4.57511 8.43347C4.06009 8.43347 3.71674 8.09013 3.71674 7.5751C3.71674 7.06008 4.06009 6.71673 4.57511 6.71673C5.09013 6.71673 5.43348 7.06008 5.43348 7.5751C5.43348 8.09013 5.09013 8.43347 4.57511 8.43347ZM8.00859 10.5794C8.00859 9.12017 9.12447 8.00429 10.5837 8.00429C12.0429 8.00429 13.1588 9.12017 13.1588 10.5794C13.1588 12.0386 12.0429 13.1545 10.5837 13.1545C9.12447 13.1545 8.00859 12.0386 8.00859 10.5794ZM16.5923 14.4421C16.0773 14.4421 15.7339 14.0987 15.7339 13.5837C15.7339 13.0687 16.0773 12.7253 16.5923 12.7253C17.1073 12.7253 17.4506 13.0687 17.4506 13.5837C17.4506 14.0987 17.1073 14.4421 16.5923 14.4421Z" />
<path d="M20.6266 8.00429C20.6266 7.5751 20.97 7.31759 21.3133 7.31759C21.6567 7.31759 21.9142 7.66094 22 8.00429V17.4463C21.9142 18.3047 21.3133 18.9914 20.4549 18.9914H5.00429C4.57511 18.9914 4.3176 18.7339 4.3176 18.3047C4.3176 17.8755 4.66095 17.618 5.00429 17.618H20.4549C20.5408 17.618 20.6266 17.5322 20.6266 17.4463V8.00429Z" />
</svg>