<!--character:6849-->
  <svg width="24" height="24" viewBox="0 0 24 24" >
<path d="M13.0435 8.7317C13.0435 9.25344 12.6087 9.77518 12 9.77518C11.3913 9.77518 10.8696 9.34039 10.8696 8.7317V6.7317C10.8696 6.64474 10.7826 6.55779 10.6956 6.55779H9.3913C9.13043 6.55779 8.95652 6.47083 8.78261 6.29692C8.43478 5.94909 8.43478 5.42735 8.78261 5.07953L11.3913 2.47083C11.7391 2.123 12.2609 2.123 12.6087 2.47083L15.2174 5.07953C15.3913 5.25344 15.4783 5.42735 15.4783 5.68822C15.4783 6.20996 15.1304 6.55779 14.6087 6.55779H13.2174C13.1304 6.55779 13.0435 6.64474 13.0435 6.7317V8.7317Z" />
<path d="M21.1304 10.4708H2.86957C2.34783 10.4708 2 10.8187 2 11.3404V20.9056C2 21.4273 2.34783 21.7752 2.86957 21.7752H21.1304C21.6522 21.7752 22 21.4273 22 20.9056V11.3404C22 10.8187 21.6522 10.4708 21.1304 10.4708ZM4.60867 13.9491C4.08693 13.9491 3.7391 13.6013 3.7391 13.0795C3.7391 12.5578 4.08693 12.21 4.60867 12.21C5.13041 12.21 5.47823 12.5578 5.47823 13.0795C5.47823 13.6013 5.13041 13.9491 4.60867 13.9491ZM9.39132 16.123C9.39132 14.6447 10.5218 13.5143 12 13.5143C13.4783 13.5143 14.6087 14.6447 14.6087 16.123C14.6087 17.6013 13.4783 18.7317 12 18.7317C10.5218 18.7317 9.39132 17.6013 9.39132 16.123ZM19.3913 20.036C18.8696 20.036 18.5217 19.6882 18.5217 19.1665C18.5217 18.6447 18.8696 18.2969 19.3913 18.2969C19.913 18.2969 20.2609 18.6447 20.2609 19.1665C20.2609 19.6882 19.913 20.036 19.3913 20.036Z" />
</svg>