<!-- character:0:1815 -->
  <svg width="20" height="20" viewBox="0 0 20 20" >
<path   d="M10.8696 7.27634C10.8696 7.71112 10.5073 8.1459 10 8.1459C9.49277 8.1459 9.05799 7.78358 9.05799 7.27634V5.60967C9.05799 5.53721 8.98553 5.46474 8.91306 5.46474H7.82611C7.60872 5.46474 7.46379 5.39228 7.31886 5.24735C7.02901 4.9575 7.02901 4.52271 7.31886 4.23286L9.49277 2.05894C9.78263 1.76909 10.2174 1.76909 10.5073 2.05894L12.6812 4.23286C12.8261 4.37778 12.8986 4.52271 12.8986 4.7401C12.8986 5.17489 12.6087 5.46474 12.1739 5.46474H11.0145C10.942 5.46474 10.8696 5.53721 10.8696 5.60967V7.27634ZM18.3334 9.45025C18.3334 9.01547 18.0435 8.72561 17.6087 8.72561H2.39132C1.95654 8.72561 1.66669 9.01547 1.66669 9.45025V17.4213C1.66669 17.856 1.95654 18.1459 2.39132 18.1459H17.6087C18.0435 18.1459 18.3334 17.856 18.3334 17.4213V9.45025ZM3.8406 11.6242C3.40582 11.6242 3.11596 11.3343 3.11596 10.8995C3.11596 10.4647 3.40582 10.1749 3.8406 10.1749C4.27538 10.1749 4.56524 10.4647 4.56524 10.8995C4.56524 11.3343 4.27538 11.6242 3.8406 11.6242ZM7.82611 13.4358C7.82611 14.6676 8.76814 15.6097 10 15.6097C11.2319 15.6097 12.1739 14.6676 12.1739 13.4358C12.1739 12.2039 11.2319 11.2618 10 11.2618C8.76814 11.2618 7.82611 12.2039 7.82611 13.4358ZM16.1594 16.6966C15.7247 16.6966 15.4348 16.4068 15.4348 15.972C15.4348 15.5372 15.7247 15.2474 16.1594 15.2474C16.5942 15.2474 16.8841 15.5372 16.8841 15.972C16.8841 16.4068 16.5942 16.6966 16.1594 16.6966Z" />
</svg>