<!--character:160:550:1621-->
<svg width="24" height="24" viewBox="0 0 24 24" xmlns="http://www.w3.org/2000/svg"><path d="M21.1304 10.4709c.5218 0 .8696.3478.8696.8695v9.5653c0 .5217-.3478.8695-.8696.8695H2.8696c-.5218 0-.8696-.3478-.8696-.8695v-9.5653c0-.5217.3478-.8695.8696-.8695h18.2608zM4.6087 13.949c.5217 0 .8696-.3478.8696-.8695 0-.5218-.3479-.8696-.8696-.8696s-.8696.3478-.8696.8696c0 .5217.3479.8695.8696.8695zM12 18.7317c1.4783 0 2.6087-1.1304 2.6087-2.6087 0-1.4782-1.1304-2.6087-2.6087-2.6087-1.4783 0-2.6087 1.1305-2.6087 2.6087 0 1.4783 1.1304 2.6087 2.6087 2.6087zm7.3913 1.3044c.5217 0 .8696-.3478.8696-.8696 0-.5217-.3479-.8695-.8696-.8695s-.8696.3478-.8696.8695c0 .5218.3479.8696.8696.8696zM12 2.21c.6087 0 1.1304.4348 1.1304 1.0435v2c0 .087.087.1739.174.1739h1.3043c.2609 0 .4348.087.6087.2609.3478.3478.3478.8695 0 1.2174l-2.6087 2.6086c-.3478.3479-.8696.3479-1.2174 0L8.7826 6.9057c-.1739-.174-.2609-.3479-.2609-.6087 0-.5218.3479-.8696.8696-.8696h1.3913c.087 0 .174-.087.174-.174v-2c0-.5217.4347-1.0434 1.0434-1.0434z"/></svg>
