<!--character:2770-->
<svg width="24" height="24" viewBox="0 0 24 24">
  <path d="M13.0433 8.73174C13.0433 9.25348 12.6085 9.77522 11.9998 9.77522C11.3911 9.77522 10.8694 9.34044 10.8694 8.73174V6.73174C10.8694 6.64478 10.7824 6.55783 10.6955 6.55783H9.39111C9.13024 6.55783 8.95633 6.47087 8.78241 6.29696C8.43459 5.94913 8.43459 5.42739 8.78241 5.07957L11.3911 2.47087C11.7389 2.12304 12.2607 2.12304 12.6085 2.47087L15.2172 5.07957C15.3911 5.25348 15.4781 5.42739 15.4781 5.68826C15.4781 6.21 15.1302 6.55783 14.6085 6.55783H13.2172C13.1302 6.55783 13.0433 6.64478 13.0433 6.73174V8.73174Z" />
  <path d="M21.9998 11.3404C21.9998 10.8187 21.652 10.4709 21.1302 10.4709H2.86937C2.34763 10.4709 1.9998 10.8187 1.9998 11.3404V20.9057C1.9998 21.4274 2.34763 21.7752 2.86937 21.7752H21.1302C21.652 21.7752 21.9998 21.4274 21.9998 20.9057V11.3404ZM4.6085 13.9491C4.08676 13.9491 3.73893 13.6013 3.73893 13.0796C3.73893 12.5578 4.08676 12.21 4.6085 12.21C5.13024 12.21 5.47807 12.5578 5.47807 13.0796C5.47807 13.6013 5.13024 13.9491 4.6085 13.9491ZM9.39111 16.123C9.39111 14.6448 10.5215 13.5143 11.9998 13.5143C13.4781 13.5143 14.6085 14.6448 14.6085 16.123C14.6085 17.6013 13.4781 18.7317 11.9998 18.7317C10.5215 18.7317 9.39111 17.6013 9.39111 16.123ZM19.3911 20.0361C18.8694 20.0361 18.5215 19.6883 18.5215 19.1665C18.5215 18.6448 18.8694 18.297 19.3911 18.297C19.9128 18.297 20.2607 18.6448 20.2607 19.1665C20.2607 19.6883 19.9128 20.0361 19.3911 20.0361Z" />
</svg>
