<!--character:4333-->
  <svg width="20" height="20" viewBox="0 0 20 20" >
<path d="M18.1301 6.78124C18.4012 7.05243 18.4012 7.49202 18.1301 7.76321C17.8998 7.99426 17.5751 8.10512 17.2516 8.06322C16.2051 7.93131 15.1424 8.03596 14.1418 8.36948C14.0839 8.38889 14.0201 8.3765 13.9737 8.33684C13.2106 7.6864 12.2381 7.33371 11.2355 7.34375C11.1735 7.3438 11.1162 7.31098 11.0849 7.25752C11.0536 7.20407 11.053 7.13802 11.0834 7.08403C11.8287 5.76924 12.1279 4.24833 11.9362 2.74918C11.8951 2.42526 12.0064 2.10056 12.2376 1.86999C12.5088 1.59889 12.9483 1.59889 13.2195 1.86999L18.1301 6.78124Z" />
<path d="M5.97697 10.8605L4.93528 11.9022C4.66279 12.1654 4.22965 12.1616 3.96177 11.8938C3.69389 11.6259 3.69013 11.1927 3.95331 10.9202L4.995 9.87855C5.16937 9.69802 5.42757 9.62561 5.67037 9.68917C5.91318 9.75272 6.1028 9.94234 6.16635 10.1851C6.22991 10.428 6.15751 10.6862 5.97697 10.8605Z" />
<path d="M13.4827 13.7189C13.4367 13.7666 13.4367 13.8421 13.4827 13.8898L13.9723 14.3794C14.2393 14.6523 14.2393 15.0884 13.9723 15.3613C13.7011 15.6324 13.2615 15.6324 12.9904 15.3613L12.5737 14.9447C12.541 14.9111 12.4962 14.8922 12.4494 14.8922C12.4026 14.8922 12.3577 14.9111 12.3251 14.9447L11.4917 15.8218C11.4264 15.8893 11.4264 15.9966 11.4917 16.0641L11.8848 16.4572C12.0653 16.6316 12.1377 16.8898 12.0742 17.1326C12.0106 17.3754 11.821 17.565 11.5782 17.6285C11.3354 17.6921 11.0772 17.6197 10.9028 17.4392L10.541 17.078C10.5085 17.0444 10.4638 17.0254 10.417 17.0254C10.3703 17.0254 10.3255 17.0444 10.2931 17.078L10.2854 17.0857H10.282C9.06109 18.3074 7.08138 18.3092 5.85822 17.0899C5.65768 16.8887 5.48422 16.6622 5.34223 16.4162C5.31518 16.368 5.26681 16.3356 5.21196 16.3289C5.15711 16.3222 5.10233 16.342 5.06445 16.3822L4.68597 16.7704C4.61963 16.8384 4.61963 16.9469 4.68597 17.0149L4.82069 17.1482C5.09019 17.4177 5.09205 17.8541 4.82486 18.126L4.8068 18.1441C4.533 18.4049 4.10079 18.3987 3.83455 18.1302L1.87061 16.1655C1.59906 15.8944 1.59875 15.4544 1.86992 15.1829C2.14108 14.9113 2.58104 14.911 2.85258 15.1822L2.96786 15.2968C3.00028 15.33 3.04472 15.3487 3.09113 15.3487C3.13754 15.3487 3.18199 15.33 3.2144 15.2968L9.0597 9.29936H9.06317C10.2836 8.07894 12.2623 8.07894 13.4827 9.29936C14.7032 10.5198 14.7032 12.4985 13.4827 13.7189ZM7.42563 14.0363C7.37907 14.0369 7.33464 14.0559 7.30201 14.0891L7.2652 14.1301C6.88789 14.5657 6.91592 15.22 7.3291 15.6218C7.73572 16.0275 8.39404 16.0275 8.80066 15.6218V15.6183L8.82011 15.5975C8.8862 15.5302 8.8862 15.4224 8.82011 15.3551L7.54924 14.087C7.5164 14.0543 7.47193 14.0361 7.42563 14.0363ZM12.0014 12.2522L12.0021 12.2501C12.2665 11.988 12.3709 11.6048 12.2761 11.2448C12.1813 10.8848 11.9016 10.6027 11.5424 10.5048C11.1832 10.4069 10.7991 10.5081 10.5347 10.7702C10.4885 10.8173 10.4885 10.8927 10.5347 10.9397L11.8473 12.2522C11.8676 12.2728 11.8954 12.2844 11.9244 12.2844C11.9533 12.2844 11.9811 12.2728 12.0014 12.2522ZM10.8521 13.462C10.9169 13.3936 10.9153 13.2861 10.8486 13.2196L9.60763 11.9779C9.5751 11.9447 9.53054 11.9259 9.48401 11.9259C9.43749 11.9259 9.39293 11.9447 9.3604 11.9779L8.51524 12.8446C8.44898 12.9123 8.44898 13.0206 8.51524 13.0884L9.77013 14.3398C9.80281 14.3733 9.84764 14.3922 9.89444 14.3922C9.94125 14.3922 9.98608 14.3733 10.0188 14.3398L10.8521 13.462Z" />
<path d="M8.4076 8.42989L7.3659 9.47159C7.09341 9.73477 6.66027 9.73101 6.39239 9.46313C6.12451 9.19525 6.12075 8.76211 6.38393 8.48962L7.42562 7.44792C7.69812 7.18474 8.13126 7.18851 8.39914 7.45638C8.66701 7.72426 8.67078 8.1574 8.4076 8.42989Z" />
</svg>