<!--category:services-->
<!--character:E086-->
<svg width="24" height="24" viewBox="0 0 24 24" xmlns="http://www.w3.org/2000/svg"><path d="M21.756 9.3159a1.26 1.26 0 0 1-1.0542.36 8.4569 8.4569 0 0 0-3.7318.3675.2083.2083 0 0 1-.2016-.0392 4.9885 4.9885 0 0 0-3.286-1.1917.2092.2092 0 0 1-.1825-.3117 8.3894 8.3894 0 0 0 1.0234-5.2018 1.265 1.265 0 0 1 .3617-1.055.8334.8334 0 0 1 1.1783 0l5.8927 5.8935a.8334.8334 0 0 1 0 1.1784zM5.9222 14.2827a.8334.8334 0 0 1-1.1783-1.1784l1.25-1.25a.8334.8334 0 1 1 1.1784 1.1783l-1.25 1.25zm10.257 2.385l.5875.5875a.8425.8425 0 0 1 0 1.1784.8334.8334 0 0 1-1.1784 0l-.5-.5a.2083.2083 0 0 0-.2983 0l-1 1.0525a.2092.2092 0 0 0 0 .2909l.4716.4716a.8334.8334 0 1 1-1.1783 1.1784l-.4342-.4333a.2067.2067 0 0 0-.2975 0l-.0092.0091h-.0042c-1.465 1.466-3.8406 1.4683-5.3084.005a3.921 3.921 0 0 1-.6192-.8083.2083.2083 0 0 0-.3334-.0409l-.4541.4659a.21.21 0 0 0 0 .2933l.1616.16a.8334.8334 0 0 1 .005 1.1734l-.005.005-.0166.0167a.8334.8334 0 0 1-1.1667-.0167l-2.3568-2.3576a.8338.8338 0 1 1 1.1784-1.18l.1383.1375a.2067.2067 0 0 0 .2959 0l7.0143-7.1969h.0042c1.4645-1.4645 3.839-1.4645 5.3035 0 1.4645 1.4646 1.4645 3.839 0 5.3035a.1475.1475 0 0 0 0 .205zm-7.4169.2392l-.0442.0492c-.4527.5227-.4191 1.3079.0767 1.79.488.4869 1.278.4869 1.7659 0v-.0042l.0233-.025a.2075.2075 0 0 0 0-.2908l-1.525-1.5217a.2092.2092 0 0 0-.1483-.0608.2117.2117 0 0 0-.1484.0633zm5.6393-2.2042l.0009-.0025a1.2504 1.2504 0 1 0-1.761-1.776.145.145 0 0 0 0 .2034l1.5751 1.575a.13.13 0 0 0 .185 0zm-1.3833 1.1608l-1.4892-1.49a.2075.2075 0 0 0-.2967 0l-1.0142 1.04a.2092.2092 0 0 0 0 .2925l1.5059 1.5017a.2083.2083 0 0 0 .2983 0l1-1.0533a.2083.2083 0 0 0-.0041-.2909zM8.839 11.366a.8334.8334 0 0 1-1.1784-1.1784l1.25-1.25a.8334.8334 0 0 1 1.1784 1.1784l-1.25 1.25z"/></svg>