<!--character:117:550:1638-->
  <svg width="24" height="24" viewBox="0 0 24 24" >
<path d="M21.756 8.13749C22.0814 8.46292 22.0814 8.99043 21.756 9.31586C21.4796 9.59311 21.0901 9.72615 20.7018 9.67587C19.4461 9.51757 18.1708 9.64316 16.9701 10.0434C16.9006 10.0667 16.8241 10.0518 16.7684 10.0042C15.8527 9.22368 14.6857 8.80045 13.4825 8.81251C13.4081 8.81257 13.3394 8.77318 13.3018 8.70903C13.2642 8.64489 13.2635 8.56563 13.3 8.50083C14.1944 6.92309 14.5534 5.09799 14.3233 3.29902C14.274 2.91031 14.4076 2.52068 14.685 2.244C15.0104 1.91867 15.5379 1.91867 15.8634 2.244L21.756 8.13749Z" />
<path d="M7.17229 13.0326L5.92226 14.2827C5.59526 14.5985 5.07549 14.594 4.75404 14.2725C4.43259 13.9511 4.42807 13.4313 4.74389 13.1043L5.99392 11.8543C6.20316 11.6376 6.513 11.5507 6.80437 11.627C7.09574 11.7033 7.32328 11.9308 7.39954 12.2222C7.47581 12.5136 7.38893 12.8234 7.17229 13.0326Z" />
<path d="M16.1792 16.4627C16.1239 16.5199 16.1239 16.6106 16.1792 16.6677L16.7667 17.2553C17.0871 17.5827 17.0871 18.1062 16.7667 18.4336C16.4413 18.7589 15.9138 18.7589 15.5883 18.4336L15.0883 17.9336C15.0491 17.8934 14.9953 17.8707 14.9392 17.8707C14.883 17.8707 14.8292 17.8934 14.79 17.9336L13.79 18.9861C13.7115 19.0672 13.7115 19.1959 13.79 19.277L14.2616 19.7487C14.4783 19.9579 14.5652 20.2677 14.4889 20.5591C14.4126 20.8505 14.1851 21.078 13.8937 21.1543C13.6023 21.2305 13.2925 21.1437 13.0833 20.927L12.6491 20.4937C12.6101 20.4533 12.5564 20.4305 12.5003 20.4305C12.4442 20.4305 12.3905 20.4533 12.3516 20.4937L12.3424 20.5028H12.3382C10.8732 21.9689 8.49756 21.9711 7.02977 20.5078C6.78911 20.2665 6.58097 19.9947 6.41058 19.6995C6.37812 19.6417 6.32007 19.6028 6.25425 19.5947C6.18843 19.5866 6.1227 19.6104 6.07724 19.6587L5.62306 20.1245C5.54346 20.2061 5.54346 20.3363 5.62306 20.4178L5.78473 20.5778C6.10813 20.9013 6.11036 21.425 5.78973 21.7512L5.76807 21.7729C5.4395 22.0859 4.92086 22.0785 4.60137 21.7562L2.24464 19.3986C1.91878 19.0733 1.91841 18.5453 2.2438 18.2194C2.5692 17.8936 3.09715 17.8932 3.423 18.2186L3.56134 18.3561C3.60023 18.396 3.65357 18.4185 3.70926 18.4185C3.76495 18.4185 3.81829 18.396 3.85718 18.3561L10.8715 11.1593H10.8757C12.3402 9.69474 14.7147 9.69474 16.1792 11.1593C17.6437 12.6238 17.6437 14.9982 16.1792 16.4627ZM8.91068 16.8436C8.85481 16.8443 8.80149 16.8671 8.76234 16.9069L8.71817 16.9561C8.2654 17.4788 8.29903 18.264 8.79484 18.7461C9.28279 19.233 10.0728 19.233 10.5607 18.7461V18.742L10.5841 18.717C10.6634 18.6362 10.6634 18.5069 10.5841 18.4261L9.05901 16.9044C9.01961 16.8652 8.96624 16.8434 8.91068 16.8436ZM14.4016 14.7027L14.4024 14.7002C14.7197 14.3856 14.845 13.9257 14.7312 13.4937C14.6174 13.0617 14.2818 12.7232 13.8508 12.6058C13.4197 12.4883 12.9588 12.6097 12.6416 12.9243C12.5861 12.9807 12.5861 13.0712 12.6416 13.1276L14.2166 14.7027C14.241 14.7274 14.2743 14.7413 14.3091 14.7413C14.3439 14.7413 14.3772 14.7274 14.4016 14.7027ZM13.0224 16.1544C13.1001 16.0724 13.0983 15.9433 13.0182 15.8636L11.529 14.3735C11.49 14.3336 11.4365 14.3111 11.3807 14.3111C11.3249 14.3111 11.2714 14.3336 11.2324 14.3735L10.2182 15.4135C10.1387 15.4948 10.1387 15.6248 10.2182 15.706L11.724 17.2078C11.7632 17.248 11.817 17.2707 11.8732 17.2707C11.9294 17.2707 11.9832 17.248 12.0224 17.2078L13.0224 16.1544Z" />
<path d="M10.089 10.1159L8.839 11.3659C8.51201 11.6817 7.99224 11.6772 7.67079 11.3558C7.34934 11.0343 7.34482 10.5145 7.66064 10.1876L8.91067 8.93752C9.23766 8.6217 9.75743 8.62622 10.0789 8.94767C10.4003 9.26913 10.4049 9.78889 10.089 10.1159Z" />
</svg>