<!--character:3024:2802-->
<svg width="24" height="24" viewBox="0 0 24 24">
  <path d="M21.7561 8.13749C22.0814 8.46291 22.0814 8.99043 21.7561 9.31585C21.4797 9.59311 21.0902 9.72614 20.7019 9.67586C19.4462 9.51757 18.1709 9.64316 16.9701 10.0434C16.9007 10.0667 16.8241 10.0518 16.7685 10.0042C15.8527 9.22368 14.6857 8.80045 13.4825 8.81251C13.4082 8.81257 13.3394 8.77317 13.3019 8.70903C13.2643 8.64488 13.2636 8.56563 13.3 8.50083C14.1945 6.92309 14.5535 5.09799 14.3234 3.29902C14.2741 2.91031 14.4076 2.52068 14.6851 2.24399C15.0105 1.91867 15.538 1.91867 15.8634 2.24399L21.7561 8.13749Z" />
  <path d="M7.17237 13.0326L5.92234 14.2827C5.59534 14.5985 5.07557 14.594 4.75412 14.2725C4.43267 13.951 4.42815 13.4313 4.74397 13.1043L5.994 11.8543C6.20324 11.6376 6.51308 11.5507 6.80445 11.627C7.09581 11.7033 7.32336 11.9308 7.39962 12.2222C7.47589 12.5135 7.38901 12.8234 7.17237 13.0326Z" />
  <path d="M16.1793 16.4627C16.124 16.5199 16.124 16.6106 16.1793 16.6677L16.7668 17.2552C17.0872 17.5827 17.0872 18.1061 16.7668 18.4336C16.4414 18.7589 15.9139 18.7589 15.5884 18.4336L15.0884 17.9336C15.0492 17.8934 14.9954 17.8707 14.9392 17.8707C14.8831 17.8707 14.8293 17.8934 14.7901 17.9336L13.79 18.9861C13.7116 19.0672 13.7116 19.1959 13.79 19.277L14.2617 19.7486C14.4784 19.9579 14.5652 20.2677 14.489 20.5591C14.4127 20.8504 14.1852 21.078 13.8938 21.1543C13.6024 21.2305 13.2926 21.1436 13.0834 20.927L12.6492 20.4937C12.6102 20.4533 12.5565 20.4305 12.5004 20.4305C12.4443 20.4305 12.3906 20.4533 12.3517 20.4937L12.3425 20.5028H12.3383C10.8733 21.9688 8.49766 21.9711 7.02986 20.5078C6.78921 20.2664 6.58106 19.9947 6.41068 19.6995C6.37822 19.6416 6.32017 19.6027 6.25435 19.5947C6.18853 19.5866 6.1228 19.6104 6.07734 19.6586L5.62316 20.1245C5.54355 20.2061 5.54355 20.3362 5.62316 20.4178L5.78483 20.5778C6.10823 20.9013 6.11046 21.425 5.78983 21.7512L5.76816 21.7729C5.4396 22.0859 4.92095 22.0785 4.60147 21.7562L2.24473 19.3986C1.91888 19.0732 1.9185 18.5453 2.2439 18.2194C2.5693 17.8936 3.09724 17.8932 3.4231 18.2186L3.56144 18.3561C3.60033 18.396 3.65367 18.4184 3.70936 18.4184C3.76505 18.4184 3.81838 18.396 3.85728 18.3561L10.8716 11.1592H10.8758C12.3403 9.69472 14.7148 9.69472 16.1793 11.1592C17.6438 12.6238 17.6438 14.9982 16.1793 16.4627ZM8.91075 16.8436C8.85488 16.8443 8.80156 16.867 8.76241 16.9069L8.71825 16.9561C8.26547 17.4788 8.2991 18.264 8.79491 18.7461C9.28286 19.233 10.0728 19.233 10.5608 18.7461V18.7419L10.5841 18.7169C10.6634 18.6362 10.6634 18.5068 10.5841 18.4261L9.05909 16.9044C9.01968 16.8652 8.96631 16.8433 8.91075 16.8436ZM14.4017 14.7027L14.4026 14.7002C14.7198 14.3856 14.8451 13.9257 14.7313 13.4937C14.6175 13.0617 14.2819 12.7232 13.8509 12.6058C13.4199 12.4883 12.9589 12.6097 12.6417 12.9243C12.5862 12.9807 12.5862 13.0712 12.6417 13.1276L14.2167 14.7027C14.2412 14.7274 14.2745 14.7413 14.3092 14.7413C14.344 14.7413 14.3773 14.7274 14.4017 14.7027ZM13.0225 16.1544C13.1002 16.0723 13.0984 15.9433 13.0184 15.8635L11.5292 14.3735C11.4901 14.3336 11.4366 14.3111 11.3808 14.3111C11.325 14.3111 11.2715 14.3336 11.2325 14.3735L10.2183 15.4135C10.1388 15.4948 10.1388 15.6247 10.2183 15.706L11.7242 17.2077C11.7634 17.248 11.8172 17.2706 11.8733 17.2706C11.9295 17.2706 11.9833 17.248 12.0225 17.2077L13.0225 16.1544Z" />
  <path d="M10.0891 10.1159L8.83908 11.3659C8.51209 11.6817 7.99232 11.6772 7.67087 11.3558C7.34941 11.0343 7.3449 10.5145 7.66072 10.1875L8.91075 8.93751C9.23774 8.62169 9.75751 8.62621 10.079 8.94766C10.4004 9.26911 10.4049 9.78888 10.0891 10.1159Z" />
</svg>
