<!-- character:0:2189 -->
  <svg width="20" height="20" viewBox="0 0 20 20" >
<path   d="M18.13 6.7812C18.4011 7.05239 18.4011 7.49198 18.13 7.76317C17.8997 7.99422 17.5751 8.10508 17.2515 8.06318C16.2051 7.93127 15.1423 8.03593 14.1417 8.36944C14.0839 8.38886 14.02 8.37646 13.9737 8.3368C13.2105 7.68636 12.238 7.33367 11.2354 7.34372C11.1734 7.34377 11.1161 7.31094 11.0848 7.25749C11.0535 7.20403 11.0529 7.13798 11.0833 7.08399C11.8287 5.7692 12.1279 4.24829 11.9361 2.74915C11.895 2.42522 12.0063 2.10053 12.2375 1.86996C12.5087 1.59885 12.9483 1.59885 13.2195 1.86996L18.13 6.7812ZM5.97691 10.8605L4.93522 11.9022C4.66273 12.1654 4.22958 12.1616 3.96171 11.8937C3.69383 11.6258 3.69006 11.1927 3.95325 10.9202L4.99494 9.87851C5.1693 9.69798 5.42751 9.62558 5.67031 9.68913C5.91312 9.75268 6.10274 9.9423 6.16629 10.1851C6.22985 10.4279 6.15744 10.6861 5.97691 10.8605ZM13.4827 13.7189C13.4366 13.7665 13.4366 13.8421 13.4827 13.8897L13.9723 14.3793C14.2392 14.6522 14.2392 15.0884 13.9723 15.3613C13.7011 15.6324 13.2615 15.6324 12.9903 15.3613L12.5736 14.9446C12.5409 14.9111 12.4961 14.8922 12.4493 14.8922C12.4025 14.8922 12.3577 14.9111 12.325 14.9446L11.4916 15.8217C11.4263 15.8893 11.4263 15.9965 11.4916 16.0641L11.8847 16.4572C12.0652 16.6315 12.1376 16.8897 12.0741 17.1325C12.0105 17.3753 11.8209 17.565 11.5781 17.6285C11.3353 17.6921 11.0771 17.6197 10.9027 17.4391L10.5409 17.078C10.5085 17.0444 10.4637 17.0253 10.417 17.0253C10.3702 17.0253 10.3255 17.0444 10.293 17.078L10.2854 17.0856H10.2819C9.06103 18.3073 7.08132 18.3092 5.85816 17.0898C5.65762 16.8887 5.48416 16.6622 5.34217 16.4162C5.31512 16.368 5.26675 16.3356 5.21189 16.3289C5.15704 16.3221 5.10227 16.3419 5.06439 16.3822L4.68591 16.7704C4.61957 16.8383 4.61957 16.9468 4.68591 17.0148L4.82063 17.1482C5.09013 17.4177 5.09199 17.8541 4.8248 18.126L4.82063 18.1301L4.80674 18.144C4.53294 18.4049 4.10073 18.3987 3.83449 18.1301L1.87055 16.1655C1.599 15.8943 1.59869 15.4544 1.86986 15.1828C2.14102 14.9113 2.58097 14.911 2.85252 15.1821L2.9678 15.2967C3.00022 15.3299 3.04466 15.3487 3.09107 15.3487C3.13748 15.3487 3.18193 15.3299 3.21434 15.2967L9.05964 9.29933H9.06311C10.2835 8.0789 12.2622 8.0789 13.4827 9.29933C14.7031 10.5198 14.7031 12.4985 13.4827 13.7189ZM7.42556 14.0363C7.37901 14.0369 7.33457 14.0558 7.30195 14.089L7.26514 14.13C6.88783 14.5656 6.91586 15.22 7.32903 15.6217C7.73566 16.0275 8.39398 16.0275 8.8006 15.6217V15.6182L8.82005 15.5974C8.88614 15.5301 8.88614 15.4223 8.82005 15.355L7.54918 14.087C7.51634 14.0543 7.47187 14.0361 7.42556 14.0363ZM12.0014 12.2522C11.981 12.2728 11.9533 12.2844 11.9243 12.2844C11.8953 12.2844 11.8676 12.2728 11.8472 12.2522L10.5347 10.9396C10.4884 10.8926 10.4884 10.8172 10.5347 10.7702C10.799 10.5081 11.1832 10.4069 11.5423 10.5048C11.9015 10.6026 12.1812 10.8847 12.276 11.2447C12.3709 11.6047 12.2664 11.988 12.0021 12.2501L12.0014 12.2522ZM10.852 13.4619C10.9168 13.3936 10.9153 13.286 10.8486 13.2196L9.60757 11.9779C9.57504 11.9446 9.53048 11.9259 9.48395 11.9259C9.43743 11.9259 9.39287 11.9446 9.36034 11.9779L8.51518 12.8446C8.44892 12.9123 8.44892 13.0206 8.51518 13.0883L9.77007 14.3397C9.80275 14.3733 9.84757 14.3922 9.89438 14.3922C9.94119 14.3922 9.98601 14.3733 10.0187 14.3397L10.852 13.4619ZM8.40754 8.42986L7.36584 9.47155C7.09335 9.73473 6.66021 9.73097 6.39233 9.46309C6.12445 9.19521 6.12069 8.76207 6.38387 8.48958L7.42556 7.44789C7.69806 7.1847 8.1312 7.18847 8.39908 7.45635C8.66695 7.72422 8.67072 8.15736 8.40754 8.42986Z" />
</svg>