<!--character:526-->
  <svg width="24" height="24" viewBox="0 0 24 24" >
<path   d="M9.00194 19.0059C9.00194 16.7959 10.7935 15.0042 13.0036 15.0042C10.7935 15.0042 9.00194 13.2126 9.00194 11.0026C9.00194 13.2126 7.21033 15.0042 5.00027 15.0042C7.21033 15.0042 9.00194 16.7959 9.00194 19.0059Z" />
<path   d="M16.0044 11.0024C16.0044 9.34486 17.3482 8.00115 19.0057 8.00115C17.3482 8.00115 16.0044 6.65745 16.0044 4.9999C16.0044 6.65745 14.6607 8.00115 13.0032 8.00115C14.6607 8.00115 16.0044 9.34486 16.0044 11.0024Z" />
<path d="M8.00222 19.0058C8.00214 17.3481 6.65799 16.0038 5.00027 16.0038C4.44798 16.0038 4.00027 15.5561 4.00027 15.0038C4.0005 14.4517 4.44813 14.0038 5.00027 14.0038C6.65796 14.0038 8.00208 12.6605 8.00222 11.0028C8.00222 10.4505 8.44994 10.0028 9.00222 10.0028C9.55437 10.003 10.0022 10.4506 10.0022 11.0028C10.0024 12.6604 11.3457 14.0036 13.0032 14.0038C13.5553 14.0038 14.003 14.4517 14.0032 15.0038C14.0032 15.5561 13.5555 16.0038 13.0032 16.0038C11.3974 16.004 10.0865 17.2656 10.0061 18.8515L10.0022 19.0058L9.99636 19.1083C9.94508 19.6124 9.5198 20.0056 9.00222 20.0058C8.44994 20.0058 8.00222 19.558 8.00222 19.0058ZM9.00125 14.0028C8.71651 14.3819 8.37939 14.7191 8.00027 15.0038C8.37938 15.2884 8.71649 15.6258 9.00125 16.0048C9.28588 15.6258 9.62325 15.2885 10.0022 15.0038C9.62324 14.7191 9.28586 14.3819 9.00125 14.0028ZM15.0042 11.0028C15.0042 9.89757 14.1085 9.00088 13.0032 9.00088C12.4509 9.00088 12.0032 8.55316 12.0032 8.00088C12.0033 7.44872 12.451 7.00088 13.0032 7.00088C14.1085 7.00088 15.0042 6.10516 15.0042 4.9999C15.0042 4.44771 15.452 4.00005 16.0042 3.9999C16.5565 3.9999 17.0042 4.44762 17.0042 4.9999C17.0042 6.10516 17.9009 7.00088 19.0061 7.00088C19.5581 7.00111 20.006 7.44886 20.0061 8.00088C20.0061 8.55302 19.5582 9.00065 19.0061 9.00088C17.97 9.00088 17.1174 9.78863 17.0149 10.7978L17.0042 11.0028L16.9993 11.1044C16.9482 11.6088 16.522 12.0028 16.0042 12.0028C15.4522 12.0027 15.0044 11.5548 15.0042 11.0028ZM16.0042 7.64443C15.8929 7.77061 15.7739 7.8896 15.6477 8.00088C15.7739 8.11214 15.8929 8.23117 16.0042 8.35732C16.1154 8.23117 16.2345 8.11214 16.3606 8.00088C16.2345 7.8896 16.1154 7.77061 16.0042 7.64443Z" />
</svg>