<!--character:2101-->
  <svg width="24" height="24" viewBox="0 0 24 24" >
<path d="M20.4185 7.358C20.4185 7.66025 20.2666 7.96249 19.9652 8.03805C19.8888 8.11361 19.7377 8.11361 19.6629 8.11361C19.4362 8.11361 19.2851 8.03805 19.1332 7.88693L18.454 7.20688C18.3776 7.13132 18.2265 7.13132 18.1517 7.20688L12.7869 12.5717C12.4091 12.9495 11.8047 12.9495 11.4269 12.5717C11.0491 12.1938 11.0491 11.5894 11.4269 11.2116L16.7916 5.8468C16.8664 5.77124 16.8664 5.62012 16.7916 5.54456L16.1108 4.86452C15.9597 4.7134 15.8849 4.56228 15.8849 4.3356C15.8849 3.88224 16.1872 3.58 16.6405 3.58H19.6629C20.1155 3.58 20.4185 3.88224 20.4185 4.3356V7.358Z" />
<path d="M5.49 5.69207H12.9273C13.4298 5.69207 13.8373 6.09949 13.8373 6.60207C13.8373 7.10465 13.4298 7.51207 12.9273 7.51207H5.49C5.4403 7.51207 5.40001 7.55237 5.40001 7.60207V18.51C5.40001 18.5597 5.4403 18.6 5.49 18.6H16.3966C16.4463 18.6 16.4866 18.5597 16.4866 18.51V11.0791C16.4866 10.5765 16.894 10.1691 17.3966 10.1691C17.8992 10.1691 18.3066 10.5765 18.3066 11.0791V18.51C18.3066 19.5649 17.4514 20.42 16.3966 20.42H5.49C4.43514 20.42 3.58 19.5649 3.58 18.51V7.60207C3.58 6.54721 4.43514 5.69207 5.49 5.69207Z" />
</svg>