<!-- character:0:446 -->
  <svg width="20" height="20" viewBox="0 0 20 20" >
<path   d="M17.0154 6.13167C17.0154 6.38354 16.8889 6.63541 16.6376 6.69837C16.574 6.76134 16.4481 6.76134 16.3858 6.76134C16.1969 6.76134 16.0709 6.69837 15.9444 6.57244L15.3783 6.00574C15.3147 5.94277 15.1888 5.94277 15.1264 6.00574L10.6558 10.4764C10.341 10.7912 9.83722 10.7912 9.52239 10.4764C9.20756 10.1615 9.20756 9.65781 9.52239 9.34298L13.993 4.87234C14.0554 4.80937 14.0554 4.68344 13.993 4.62047L13.4257 4.05377C13.2998 3.92784 13.2374 3.8019 13.2374 3.613C13.2374 3.2352 13.4893 2.98334 13.8671 2.98334H16.3858C16.7629 2.98334 17.0154 3.2352 17.0154 3.613V6.13167ZM4.575 4.7434H10.7727C11.1915 4.7434 11.5311 5.08291 11.5311 5.50173C11.5311 5.92055 11.1915 6.26006 10.7727 6.26006H4.575C4.53358 6.26006 4.5 6.29364 4.5 6.33506V15.425C4.5 15.4664 4.53358 15.5 4.575 15.5H9.98662H13.6638C13.7052 15.5 13.7388 15.4664 13.7388 15.425V9.23257C13.7388 8.81376 14.0783 8.47424 14.4972 8.47424C14.916 8.47424 15.2555 8.81376 15.2555 9.23257V15.425C15.2555 16.3041 14.5429 17.0167 13.6638 17.0167H4.575C3.69595 17.0167 2.98334 16.3041 2.98334 15.425V6.33506C2.98334 5.45601 3.69595 4.7434 4.575 4.7434Z" />
</svg>