<!--character:5522-->
  <svg width="20" height="20" viewBox="0 0 20 20" >
<path d="M17.0155 6.13167C17.0155 6.38353 16.8889 6.6354 16.6377 6.69837C16.5741 6.76133 16.4482 6.76133 16.3858 6.76133C16.1969 6.76133 16.071 6.69837 15.9444 6.57243L15.3784 6.00573C15.3148 5.94277 15.1888 5.94277 15.1265 6.00573L10.6559 10.4764C10.341 10.7912 9.83729 10.7912 9.52245 10.4764C9.20762 10.1615 9.20762 9.6578 9.52245 9.34297L13.9931 4.87233C14.0554 4.80937 14.0554 4.68343 13.9931 4.62047L13.4258 4.05376C13.2998 3.92783 13.2375 3.8019 13.2375 3.613C13.2375 3.2352 13.4894 2.98333 13.8672 2.98333H16.3858C16.763 2.98333 17.0155 3.2352 17.0155 3.613V6.13167Z" />
<path d="M4.57507 4.74339H10.7728C11.1916 4.74339 11.5311 5.08291 11.5311 5.50172C11.5311 5.92054 11.1916 6.26006 10.7728 6.26006H4.57507C4.53364 6.26006 4.50007 6.29363 4.50007 6.33506V15.425C4.50007 15.4664 4.53364 15.5 4.57507 15.5H13.6639C13.7053 15.5 13.7389 15.4664 13.7389 15.425V9.23257C13.7389 8.81375 14.0784 8.47423 14.4972 8.47423C14.916 8.47423 15.2555 8.81375 15.2555 9.23257V15.425C15.2555 16.304 14.5429 17.0167 13.6639 17.0167H4.57507C3.69601 17.0167 2.9834 16.304 2.9834 15.425V6.33506C2.9834 5.456 3.69601 4.74339 4.57507 4.74339Z" />
</svg>