<!--character:$550:1419-->
  <svg width="24" height="24" viewBox="0 0 24 24" >
<path d="M20.4185 7.35802C20.4185 7.66026 20.2667 7.9625 19.9652 8.03806C19.8889 8.11362 19.7377 8.11362 19.6629 8.11362C19.4363 8.11362 19.2851 8.03806 19.1333 7.88694L18.454 7.2069C18.3777 7.13134 18.2265 7.13134 18.1517 7.2069L12.787 12.5717C12.4092 12.9495 11.8047 12.9495 11.4269 12.5717C11.0491 12.1939 11.0491 11.5894 11.4269 11.2116L16.7917 5.84682C16.8665 5.77126 16.8665 5.62014 16.7917 5.54458L16.1109 4.86454C15.9597 4.71342 15.8849 4.5623 15.8849 4.33562C15.8849 3.88226 16.1872 3.58002 16.6405 3.58002H19.6629C20.1155 3.58002 20.4185 3.88226 20.4185 4.33562V7.35802Z" />
<path d="M5.49002 5.69209H12.9273C13.4299 5.69209 13.8373 6.09951 13.8373 6.60209C13.8373 7.10466 13.4299 7.51209 12.9273 7.51209H5.49002C5.44031 7.51209 5.40002 7.55238 5.40002 7.60209V18.51C5.40002 18.5597 5.44031 18.6 5.49002 18.6H16.3966C16.4463 18.6 16.4866 18.5597 16.4866 18.51V11.0791C16.4866 10.5765 16.894 10.1691 17.3966 10.1691C17.8992 10.1691 18.3066 10.5765 18.3066 11.0791V18.51C18.3066 19.5649 17.4515 20.42 16.3966 20.42H5.49002C4.43515 20.42 3.58002 19.5649 3.58002 18.51V7.60209C3.58002 6.54722 4.43515 5.69209 5.49002 5.69209Z" />
</svg>