<!--character:2345-->
  <svg width="24" height="24" viewBox="0 0 24 24" >
<path d="M20.4186 7.358C20.4186 7.66024 20.2667 7.96248 19.9652 8.03804C19.8889 8.1136 19.7378 8.1136 19.663 8.1136C19.4363 8.1136 19.2852 8.03804 19.1333 7.88692L18.454 7.20688C18.3777 7.13132 18.2266 7.13132 18.1518 7.20688L12.787 12.5716C12.4092 12.9494 11.8047 12.9494 11.4269 12.5716C11.0491 12.1938 11.0491 11.5894 11.4269 11.2116L16.7917 5.8468C16.8665 5.77124 16.8665 5.62012 16.7917 5.54456L16.1109 4.86452C15.9598 4.7134 15.885 4.56228 15.885 4.3356C15.885 3.88224 16.1872 3.58 16.6406 3.58H19.663C20.1156 3.58 20.4186 3.88224 20.4186 4.3356V7.358Z" />
<path d="M5.49008 5.69207H12.9273C13.4299 5.69207 13.8373 6.09949 13.8373 6.60207C13.8373 7.10465 13.4299 7.51207 12.9273 7.51207H5.49008C5.44037 7.51207 5.40008 7.55236 5.40008 7.60207V18.51C5.40008 18.5597 5.44037 18.6 5.49008 18.6H16.3967C16.4464 18.6 16.4867 18.5597 16.4867 18.51V11.0791C16.4867 10.5765 16.8941 10.1691 17.3967 10.1691C17.8992 10.1691 18.3067 10.5765 18.3067 11.0791V18.51C18.3067 19.5649 17.4515 20.42 16.3967 20.42H5.49008C4.43521 20.42 3.58008 19.5649 3.58008 18.51V7.60207C3.58008 6.5472 4.43521 5.69207 5.49008 5.69207Z" />
</svg>