<!--character:115:1757:1001-->
  <svg width="24" height="24" viewBox="0 0 24 24" >
<path d="M12.0033 2.62708C12.1602 2.39152 12.4245 2.25 12.7076 2.25H13.0501C13.2883 2.25 13.5155 2.35041 13.6758 2.52658C13.8362 2.70275 13.9149 2.93835 13.8926 3.17553L13.3936 8.47592L18.5729 3.29659C18.8401 3.02937 19.241 3.02937 19.5082 3.29659C19.7754 3.56382 19.7754 3.96466 19.5082 4.23188L4.81076 18.9293C4.61034 19.1965 4.14269 19.1965 3.87547 18.9293C3.60824 18.6621 3.60824 18.2612 3.87547 17.994L8.312 13.5575H6.30275C5.99073 13.5575 5.70402 13.3858 5.55674 13.1107C5.40946 12.8356 5.4255 12.5018 5.59848 12.2421L12.0033 2.62708ZM10.0044 11.865L11.6611 10.2083C11.5899 10.0673 11.5589 9.90775 11.5739 9.74744L11.9492 5.76103L7.88321 11.865H10.0044Z" />
<path d="M14.8486 10.673L16.541 8.98053H17.6396C17.9496 8.98053 18.2348 9.15007 18.383 9.42243C18.5311 9.69478 18.5184 10.0263 18.35 10.2866L11.1745 21.3711C11.0004 21.64 10.6894 21.7876 10.371 21.7523C10.0526 21.7171 9.78138 21.505 9.67037 21.2045L9.36212 20.37C9.31761 20.2495 9.30112 20.1204 9.3139 19.9926L9.73434 15.7872L11.6241 13.8974L11.1908 18.2315L16.0838 10.673H14.8486Z" />
</svg>