<!-- character:1757:999 -->
  <svg width="20" height="20" viewBox="0 0 20 20" >
<path   d="M10.0414 1.22778C10.1882 1.00739 10.4355 0.875 10.7003 0.875H11.0207C11.2436 0.875 11.4561 0.968941 11.6061 1.13375C11.7562 1.29857 11.8298 1.51898 11.8089 1.74087L11.342 6.69959L16.1875 1.85413C16.4375 1.60413 16.8125 1.60413 17.0625 1.85413C17.3125 2.10413 17.3125 2.47913 17.0625 2.72913L3.3125 16.4791C3.125 16.7291 2.6875 16.7291 2.4375 16.4791C2.1875 16.2291 2.1875 15.8541 2.4375 15.6041L6.58805 11.4536H4.70832C4.41641 11.4536 4.14819 11.2929 4.0104 11.0356C3.87261 10.7783 3.88762 10.466 4.04945 10.223L10.0414 1.22778ZM8.17138 9.87025L9.72129 8.32033C9.65465 8.18842 9.6256 8.03912 9.63972 7.88914L9.99082 4.1597L6.18689 9.87025H8.17138Z" />
<path d="M12.7033 8.75501L14.2866 7.17167H15.3144C15.6044 7.17167 15.8713 7.33029 16.0098 7.58508C16.1484 7.83988 16.1366 8.15006 15.979 8.39355L9.26605 18.7635C9.10319 19.0151 8.8122 19.1532 8.51431 19.1202C8.21642 19.0872 7.96271 18.8888 7.85886 18.6076L7.57047 17.8269C7.52883 17.7142 7.5134 17.5934 7.52536 17.4739L7.9187 13.5396L9.68668 11.7716L9.2813 15.8263L13.8588 8.75501H12.7033Z" />
</svg>