<!--character:6933-->
  <svg width="24" height="24" viewBox="0 0 24 24" >
<path d="M12.0497 1.47339C12.2258 1.20893 12.5226 1.05005 12.8403 1.05005H13.2248C13.4923 1.05005 13.7473 1.16278 13.9274 1.36056C14.1074 1.55833 14.1957 1.82283 14.1706 2.0891L13.6105 8.03956L19.425 2.22501C19.725 1.92501 20.175 1.92501 20.475 2.22501C20.775 2.52501 20.775 2.97501 20.475 3.27501L3.975 19.775C3.75 20.075 3.225 20.075 2.925 19.775C2.625 19.475 2.625 19.025 2.925 18.725L7.90565 13.7444H5.64998C5.29969 13.7444 4.97782 13.5516 4.81248 13.2428C4.64713 12.934 4.66514 12.5592 4.85934 12.2677L12.0497 1.47339ZM9.80565 11.8444L11.6656 9.98446C11.5856 9.82616 11.5507 9.64699 11.5677 9.46702L11.989 4.9917L7.42427 11.8444H9.80565Z" />
<path d="M15.2439 10.5061L17.1439 8.60606H18.3773C18.7253 8.60606 19.0455 8.7964 19.2118 9.10216C19.3781 9.40791 19.3639 9.78013 19.1747 10.0723L11.1193 22.5163C10.9238 22.8182 10.5746 22.9839 10.2172 22.9443C9.8597 22.9047 9.55525 22.6666 9.43063 22.3292L9.08457 21.3924C9.0346 21.2571 9.01608 21.1122 9.03043 20.9687L9.50244 16.2476L11.624 14.126L11.1376 18.9916L16.6306 10.5061H15.2439Z" />
</svg>