<!--character:6146-->
  <svg width="20" height="20" viewBox="0 0 20 20" >
<path d="M10.0414 1.22782C10.1882 1.00743 10.4355 0.875038 10.7003 0.875038H11.0207C11.2436 0.875038 11.4561 0.968979 11.6061 1.13379C11.7562 1.2986 11.8298 1.51902 11.8089 1.74091L11.342 6.69962L16.1875 1.85416C16.4375 1.60416 16.8125 1.60416 17.0625 1.85416C17.3125 2.10416 17.3125 2.47916 17.0625 2.72916L3.3125 16.4792C3.125 16.7292 2.6875 16.7292 2.4375 16.4792C2.1875 16.2292 2.1875 15.8542 2.4375 15.6042L6.58805 11.4536H4.70832C4.41641 11.4536 4.14819 11.293 4.0104 11.0356C3.87261 10.7783 3.88762 10.466 4.04945 10.2231L10.0414 1.22782ZM8.17138 9.87029L9.72129 8.32037C9.65465 8.18846 9.6256 8.03915 9.63972 7.88918L9.99082 4.15974L6.18689 9.87029H8.17138Z" />
<path d="M12.7033 8.75505L14.2866 7.17171H15.3144C15.6044 7.17171 15.8713 7.33032 16.0098 7.58512C16.1484 7.83992 16.1366 8.1501 15.979 8.39358L9.26605 18.7636C9.10319 19.0152 8.8122 19.1532 8.51431 19.1202C8.21642 19.0872 7.96271 18.8888 7.85886 18.6077L7.57047 17.827C7.52883 17.7142 7.5134 17.5935 7.52536 17.4739L7.9187 13.5396L9.68668 11.7716L9.2813 15.8264L13.8588 8.75505H12.7033Z" />
</svg>