<!--character:2775-->
  <svg width="24" height="24" viewBox="0 0 24 24" >
<path d="M19.7232 9.27666L21.3217 10.564L21.3199 10.5666C21.7498 10.9124 21.9999 11.4349 21.9999 11.9872C21.9999 12.5395 21.7498 13.0619 21.3199 13.4078L19.7215 14.6951C19.4681 14.8984 19.3368 15.2178 19.3737 15.5408L19.5954 17.5842C19.6558 18.1336 19.4637 18.6807 19.0734 19.0714C18.6831 19.4622 18.1368 19.6542 17.5883 19.5936L15.549 19.3715C15.2266 19.3357 14.9082 19.467 14.7045 19.7199L13.4192 21.3207C13.0739 21.7513 12.5522 22.0018 12.0008 22.0018C11.4494 22.0018 10.9277 21.7513 10.5824 21.3207L9.29536 19.7172C9.09177 19.4643 8.77335 19.3329 8.45093 19.3688L6.41075 19.5909C5.86221 19.6514 5.31595 19.4591 4.92582 19.0682C4.53569 18.6773 4.34391 18.1301 4.40448 17.5807L4.62624 15.5382C4.6628 15.2152 4.5315 14.896 4.27839 14.6925L2.67998 13.4052C2.25008 13.0593 1.99999 12.5368 1.99999 11.9846C1.99999 11.4323 2.25008 10.9098 2.67998 10.564L4.28012 9.27578C4.53337 9.07239 4.66471 8.75308 4.62798 8.43005L4.40622 6.38757C4.34588 5.83818 4.5379 5.29107 4.9282 4.90034C5.3185 4.5096 5.86485 4.31752 6.41336 4.37819L8.45267 4.59768C8.77523 4.63464 9.09412 4.50306 9.2971 4.24929L10.5824 2.64927C10.9387 2.23694 11.4563 2 12.0008 2C12.5453 2 13.0629 2.23694 13.4192 2.64927L14.7045 4.24929C14.9082 4.50211 15.2266 4.63346 15.549 4.59768L17.5909 4.37819C18.1394 4.31776 18.6857 4.51008 19.0758 4.90098C19.4659 5.29189 19.6577 5.83908 19.5972 6.38844L19.3754 8.43092C19.3395 8.75384 19.4707 9.07276 19.7232 9.27666ZM13.7559 8.8546L11.9215 10.748L10.0871 8.85459C9.87171 8.63022 9.55324 8.53792 9.25161 8.61246C8.94998 8.68699 8.71103 8.91704 8.62477 9.21594C8.5385 9.51485 8.61803 9.83719 8.8334 10.0616L10.7153 12.0044L8.8334 13.9473C8.61803 14.1717 8.5385 14.494 8.62477 14.793C8.71103 15.0919 8.94998 15.3219 9.25161 15.3964C9.55324 15.471 9.87172 15.3787 10.0871 15.1543L11.9215 13.2609L13.7559 15.1543C13.9712 15.3787 14.2897 15.471 14.5913 15.3964C14.893 15.3219 15.1319 15.0918 15.2182 14.7929C15.3044 14.494 15.2249 14.1717 15.0096 13.9473L13.1277 12.0044L15.0096 10.0616C15.2249 9.8372 15.3044 9.51486 15.2182 9.21595C15.1319 8.91705 14.893 8.687 14.5913 8.61247C14.2897 8.53793 13.9712 8.63023 13.7559 8.8546Z" />
</svg>