<!--character:E208-->
<svg width="24" height="24" viewBox="0 0 24 24"  xmlns="http://www.w3.org/2000/svg">
<path d="M19.7232 9.27665L21.3216 10.564L21.3199 10.5666C21.7499 10.9124 21.9999 11.4349 21.9999 11.9872C21.9999 12.5394 21.7499 13.0619 21.3199 13.4078L19.7215 14.6951C19.4682 14.8984 19.3367 15.2178 19.3736 15.5408L19.5954 17.5842C19.6557 18.1335 19.4638 18.6807 19.0735 19.0714C18.6832 19.4621 18.1368 19.6542 17.5883 19.5935L15.549 19.3715C15.2266 19.3357 14.9082 19.4671 14.7045 19.7199L13.4192 21.3207C13.0739 21.7513 12.5522 22.0018 12.0008 22.0018C11.4494 22.0018 10.9277 21.7513 10.5824 21.3207L9.29535 19.7173C9.0918 19.4643 8.77335 19.3329 8.45095 19.3689L6.41075 19.591C5.8622 19.6514 5.31595 19.459 4.92583 19.0681C4.5357 18.6772 4.34391 18.13 4.40449 17.5807L4.62626 15.5382C4.66281 15.2152 4.53151 14.896 4.2784 14.6925L2.68 13.4052C2.25009 13.0593 2 12.5369 2 11.9846C2 11.4323 2.25009 10.9099 2.68 10.564L4.28014 9.2758C4.53339 9.0724 4.66472 8.7531 4.628 8.43005L4.40624 6.3876C4.3459 5.8382 4.53792 5.2911 4.92822 4.90034C5.3185 4.50961 5.86485 4.31752 6.41335 4.37819L8.4527 4.59768C8.77525 4.63464 9.09415 4.50306 9.2971 4.24929L10.5824 2.64928C10.9387 2.23694 11.4563 2 12.0008 2C12.5453 2 13.0629 2.23694 13.4192 2.64928L14.7045 4.24929C14.9082 4.50212 15.2266 4.63346 15.549 4.59768L17.5909 4.37819C18.1395 4.31776 18.6857 4.51008 19.0758 4.90098C19.4659 5.2919 19.6578 5.8391 19.5972 6.38845L19.3754 8.4309C19.3395 8.75385 19.4707 9.07275 19.7232 9.27665ZM13.7559 8.8546L11.9215 10.748L10.0871 8.8546C9.87175 8.6302 9.55325 8.5379 9.2516 8.61245C8.95 8.687 8.71105 8.91705 8.6248 9.21595C8.5385 9.51485 8.61805 9.8372 8.8334 10.0616L10.7153 12.0044L8.8334 13.9473C8.61805 14.1717 8.5385 14.494 8.6248 14.7929C8.71105 15.0918 8.95 15.3219 9.2516 15.3965C9.55325 15.471 9.87175 15.3786 10.0871 15.1543L11.9215 13.2609L13.7558 15.1543C13.9712 15.3786 14.2897 15.471 14.5913 15.3965C14.893 15.3219 15.1319 15.0918 15.2182 14.7929C15.3044 14.494 15.225 14.1717 15.0096 13.9473L13.1277 12.0044L15.0096 10.0616C15.225 9.8372 15.3044 9.51485 15.2182 9.21595C15.1319 8.91705 14.893 8.687 14.5913 8.61245C14.2897 8.53795 13.9713 8.63025 13.7559 8.8546Z" />
</svg>
