<!--character:$1356:997-->
  <svg width="24" height="24" viewBox="0 0 24 24" >
<path d="M16.1685 15.0932L12.4041 11.6416V7.53037C12.4041 7.08173 12.0404 6.71804 11.5917 6.71804C11.1431 6.71804 10.7794 7.08173 10.7794 7.53037V11.9982C10.7791 12.2261 10.8746 12.4436 11.0426 12.5977L15.0711 16.2898C15.4033 16.5886 15.9136 16.5666 16.2189 16.2402C16.5215 15.9095 16.4989 15.3962 16.1685 15.0932Z" />
<path d="M11.9983 2.25C6.61446 2.25 2.25 6.61433 2.25 11.998C2.25 14.8965 3.51507 17.4995 5.52319 19.2851L6.67443 18.1338C4.95926 16.6445 3.87472 14.4479 3.87472 11.998C3.87472 7.51159 7.51177 3.87465 11.9983 3.87465C14.4483 3.87465 16.6449 4.95916 18.1343 6.67428L19.2822 5.5264C17.4969 3.51895 14.8955 2.25337 11.9983 2.25Z" />
<path d="M20.2576 6.82565L19.0757 8.00743C19.7418 9.18606 20.1219 10.5476 20.1219 11.998C20.1169 16.4823 16.4828 20.1164 11.9983 20.1213C10.5479 20.1213 9.18629 19.7412 8.00763 19.0752L6.82266 20.2602C8.32246 21.2016 10.0968 21.746 11.9983 21.746C17.3821 21.746 21.7466 17.3817 21.7466 11.998C21.7444 10.0977 21.1991 8.32461 20.2576 6.82565Z" />
<path d="M21.5063 2.4977C21.1814 2.17276 20.6939 2.17276 20.369 2.4977L2.49713 20.369C2.17219 20.694 2.17219 21.1814 2.49713 21.5063C2.82208 21.8312 3.39073 21.8312 3.63443 21.5063L21.5063 3.63496C21.8312 3.31003 21.8312 2.82263 21.5063 2.4977Z" />
</svg>