<!--character:3767-->
  <svg width="20" height="20" viewBox="0 0 20 20" >
<path d="M10.674 2.52995C7.05604 2.53483 3.935 5.01079 3.18951 8.46747C3.17291 8.54821 3.10031 8.60631 3.01597 8.60636H1.60556C1.46165 8.60639 1.33195 8.69109 1.27698 8.82094C1.22201 8.95079 1.2526 9.10019 1.35449 9.19942L3.59706 11.3876C3.73593 11.5232 3.96104 11.5232 4.09991 11.3876L6.34177 9.19942C6.44422 9.09966 6.47455 8.94923 6.41848 8.819C6.36241 8.68876 6.23111 8.60468 6.08643 8.60636H4.84388C4.78834 8.60662 4.73589 8.58142 4.70221 8.5383C4.66853 8.49519 4.65752 8.43914 4.67247 8.38691C5.52529 5.35319 8.60864 3.45665 11.7794 4.01548C13.1345 4.2543 14.3141 4.90781 15.1982 5.82252L16.2043 4.84018C14.812 3.41672 12.8491 2.52995 10.674 2.52995Z" />
<path d="M17.0846 5.92508L16.0506 6.93471C16.6812 7.98957 16.9918 9.23716 16.8726 10.5371C16.5853 13.6705 13.896 16.0716 10.674 16.0717C10.2812 16.0717 9.96274 16.3826 9.96274 16.7661C9.96274 17.1496 10.2812 17.4606 10.674 17.4606C14.8967 17.4606 18.3199 14.1182 18.3199 9.99525C18.3199 8.49375 17.8659 7.09578 17.0846 5.92508Z" />
<path d="M11.4521 9.48011L10.1273 8.97397C9.97029 8.89731 9.89178 8.744 9.89178 8.59069C9.89178 8.36073 10.0488 8.20742 10.2843 8.20742H12.0901C12.5611 8.20742 12.8751 7.9008 12.8751 7.44087C12.8751 6.98094 12.5611 6.67432 12.0901 6.67432H11.776C11.6975 6.67432 11.619 6.59766 11.619 6.52101V6.44435C11.619 5.98442 11.305 5.6778 10.8339 5.6778C10.3628 5.6778 10.0488 5.98442 10.0488 6.44435V6.75097C10.0488 6.82763 9.97029 6.90428 9.89178 6.90428C9.26371 7.05759 8.79265 7.44087 8.55712 8.05411C8.16457 8.97397 8.63563 10.1238 9.65625 10.5071L10.191 10.7114L11.4521 9.48011Z" />
<path d="M11.5884 11.2914L12.7053 10.201C13.1608 10.7279 13.3049 11.4778 13.0322 12.1168C12.7966 12.7301 12.3256 13.1133 11.6975 13.2666C11.619 13.2666 11.5405 13.3433 11.5405 13.42V13.5733C11.5405 14.0332 11.2264 14.3398 10.7554 14.3398C10.2843 14.3398 9.97029 14.0332 9.97029 13.5733V13.4966C9.97029 13.42 9.89178 13.3433 9.81327 13.3433L9.49923 13.4966C9.44473 13.4966 9.39232 13.4925 9.34227 13.4845L10.9001 11.9635H11.305C11.5405 11.9635 11.6975 11.8102 11.6975 11.5802C11.6975 11.4759 11.6611 11.3716 11.5884 11.2914Z" />
<path d="M18.5366 1.875C18.2521 1.59722 17.8254 1.59722 17.5409 1.875L1.89346 17.1528C1.60896 17.4306 1.60896 17.8472 1.89346 18.125C2.17795 18.4028 2.67583 18.4028 2.8892 18.125L18.5366 2.84722C18.8211 2.56944 18.8211 2.15278 18.5366 1.875Z" />
</svg>