<!--character:6214-->
  <svg width="24" height="24" viewBox="0 0 24 24" >
<path d="M12.8088 3.03593C8.46725 3.0418 4.722 6.01295 3.82741 10.161C3.8075 10.2578 3.72037 10.3276 3.61916 10.3276H1.92667C1.75399 10.3277 1.59834 10.4293 1.53238 10.5851C1.46641 10.7409 1.50312 10.9202 1.62539 11.0393L4.31647 13.6651C4.48311 13.8278 4.75325 13.8278 4.91989 13.6651L7.61012 11.0393C7.73306 10.9196 7.76947 10.7391 7.70218 10.5828C7.63489 10.4265 7.47733 10.3256 7.30372 10.3276H5.81265C5.74601 10.3279 5.68307 10.2977 5.64266 10.246C5.60224 10.1942 5.58903 10.127 5.60696 10.0643C6.63035 6.42383 10.3304 4.14798 14.1353 4.81857C15.7614 5.10516 17.1769 5.88937 18.2378 6.98703L19.4451 5.80821C17.7744 4.10006 15.4189 3.03593 12.8088 3.03593Z" />
<path d="M20.5015 7.1101L19.2607 8.32165C20.0175 9.58748 20.3901 11.0846 20.2471 12.6445C19.9023 16.4046 16.6752 19.286 12.8088 19.286C12.3374 19.286 11.9553 19.6591 11.9553 20.1193C11.9553 20.5796 12.3374 20.9527 12.8088 20.9527C17.8761 20.9527 21.9839 16.9419 21.9839 11.9943C21.9839 10.1925 21.4391 8.51494 20.5015 7.1101Z" />
<path d="M13.7425 11.3761L12.1528 10.7688C11.9644 10.6768 11.8701 10.4928 11.8701 10.3088C11.8701 10.0329 12.0586 9.8489 12.3412 9.8489H14.5081C15.0733 9.8489 15.4502 9.48096 15.4502 8.92904C15.4502 8.37713 15.0733 8.00918 14.5081 8.00918H14.1312C14.037 8.00918 13.9428 7.9172 13.9428 7.82521V7.73322C13.9428 7.18131 13.5659 6.81337 13.0007 6.81337C12.4354 6.81337 12.0586 7.18131 12.0586 7.73322V8.10117C12.0586 8.19315 11.9644 8.28514 11.8701 8.28514C11.1164 8.46911 10.5512 8.92904 10.2685 9.66493C9.79749 10.7688 10.3628 12.1486 11.5875 12.6085L12.2292 12.8537L13.7425 11.3761Z" />
<path d="M13.9061 13.5497L15.2463 12.2412C15.793 12.8734 15.9658 13.7734 15.6386 14.5402C15.356 15.2761 14.7907 15.736 14.037 15.92C13.9428 15.92 13.8486 16.012 13.8486 16.1039V16.2879C13.8486 16.8398 13.4717 17.2078 12.9065 17.2078C12.3412 17.2078 11.9644 16.8398 11.9644 16.2879V16.1959C11.9644 16.1039 11.8701 16.012 11.7759 16.012L11.3991 16.1959C11.3337 16.1959 11.2708 16.191 11.2107 16.1814L13.0801 14.3562H13.5659C13.8486 14.3562 14.037 14.1722 14.037 13.8963C14.037 13.7711 13.9934 13.6459 13.9061 13.5497Z" />
<path d="M22.2439 2.25C21.9026 1.91666 21.3905 1.91666 21.0491 2.25L2.27215 20.5833C1.93075 20.9167 1.93075 21.4167 2.27215 21.75C2.61355 22.0833 3.21099 22.0833 3.46704 21.75L22.2439 3.41666C22.5853 3.08333 22.5853 2.58333 22.2439 2.25Z" />
</svg>