<!--character:8471-->
  <svg width="20" height="20" viewBox="0 0 20 20" >
<path d="M13.5632 12.6438L10.3457 9.69367V6.1798C10.3457 5.79635 10.0348 5.4855 9.65137 5.4855C9.26791 5.4855 8.95705 5.79635 8.95705 6.1798V9.99846C8.95684 10.1933 9.03846 10.3792 9.18201 10.5109L12.6252 13.6665C12.9091 13.9219 13.3453 13.903 13.6062 13.6241C13.8648 13.3414 13.8456 12.9027 13.5632 12.6438Z" />
<path d="M9.99886 1.66666C5.3973 1.66666 1.66699 5.39686 1.66699 9.99829C1.66699 12.4756 2.74825 14.7004 4.46459 16.2265L5.44856 15.2426C3.9826 13.9696 3.05564 12.0922 3.05564 9.99827C3.05564 6.16375 6.16423 3.05525 9.99887 3.05525C12.0928 3.05525 13.9703 3.98219 15.2433 5.4481L16.2245 4.46701C14.6986 2.75123 12.4751 1.66955 9.99886 1.66666Z" />
<path d="M17.0581 5.57747L16.048 6.58755C16.6172 7.59492 16.9421 8.75866 16.9421 9.99827C16.9379 13.8311 13.8318 16.9371 9.99887 16.9413C8.75921 16.9413 7.59544 16.6164 6.58804 16.0472L5.57525 17.06C6.85713 17.8646 8.37366 18.3299 9.99886 18.3299C14.6004 18.3299 18.3307 14.5997 18.3307 9.99829C18.3288 8.37408 17.8628 6.85864 17.0581 5.57747Z" />
<path d="M18.1254 1.87837C17.8476 1.60065 17.431 1.60065 17.1533 1.87837L1.87822 17.153C1.60049 17.4307 1.60049 17.8473 1.87822 18.125C2.15595 18.4028 2.64197 18.4028 2.85027 18.125L18.1254 2.85039C18.4031 2.57267 18.4031 2.15609 18.1254 1.87837Z" />
</svg>