<!--character:2777-->
<svg width="24" height="24" viewBox="0 0 24 24">
  <path d="M16.2758 15.1725L12.4148 11.6324V7.41576C12.4148 6.95562 12.0418 6.5826 11.5816 6.5826C11.1215 6.5826 10.7485 6.95562 10.7485 7.41576V11.9982C10.7482 12.2319 10.8462 12.455 11.0184 12.613L15.1502 16.3998C15.491 16.7062 16.0144 16.6837 16.3275 16.3489C16.6378 16.0097 16.6147 15.4832 16.2758 15.1725Z" />
  <path d="M11.9986 2C6.47676 2 2.00039 6.47623 2.00039 11.9979C2.00039 14.9707 3.2979 17.6405 5.35751 19.4718L6.53827 18.2911C4.77912 16.7635 3.66677 14.5106 3.66677 11.9979C3.66677 7.3965 7.39708 3.66631 11.9986 3.66631C14.5114 3.66631 16.7644 4.77862 18.292 6.53772L19.4694 5.36041C17.6383 3.30148 14.9701 2.00346 11.9986 2Z" />
  <path d="M20.4697 6.69297L19.2576 7.90506C19.9407 9.1139 20.3305 10.5104 20.3305 11.9979C20.3255 16.5973 16.5981 20.3245 11.9986 20.3296C10.5111 20.3296 9.11453 19.9397 7.90565 19.2566L6.6903 20.472C8.22856 21.4375 10.0484 21.9959 11.9986 21.9959C17.5205 21.9959 21.9969 17.5197 21.9969 11.9979C21.9946 10.0489 21.4353 8.23037 20.4697 6.69297Z" />
  <path d="M21.7504 2.25405C21.4172 1.92078 20.9172 1.92078 20.584 2.25405L2.25386 20.5836C1.92059 20.9169 1.92059 21.4168 2.25386 21.75C2.58714 22.0833 3.17037 22.0833 3.42032 21.75L21.7504 3.42047C22.0837 3.08721 22.0837 2.58731 21.7504 2.25405Z" />
</svg>
