<!-- character:1357:1014 -->
  <svg width="20" height="20" viewBox="0 0 20 20" >
<path d="M10.674 2.53003C7.05604 2.53492 3.935 5.01088 3.18951 8.46755C3.17291 8.54829 3.10031 8.6064 3.01597 8.60644H1.60556C1.46165 8.60647 1.33195 8.69118 1.27698 8.82103C1.22201 8.95087 1.2526 9.10027 1.35449 9.1995L3.59706 11.3877C3.73593 11.5233 3.96104 11.5233 4.09991 11.3877L6.34177 9.1995C6.44422 9.09974 6.47455 8.94932 6.41848 8.81908C6.36241 8.68885 6.23111 8.60477 6.08643 8.60644H4.84388C4.78834 8.6067 4.73589 8.5815 4.70221 8.53839C4.66853 8.49527 4.65752 8.43922 4.67247 8.387C5.52529 5.35328 8.60864 3.45673 11.7794 4.01556C13.1345 4.25438 14.3141 4.90789 15.1982 5.82261L16.2043 4.84026C14.812 3.4168 12.8491 2.53003 10.674 2.53003Z" />
<path d="M17.0846 5.92516L16.0506 6.93479C16.6812 7.98965 16.9918 9.23724 16.8726 10.5372C16.5853 13.6705 13.896 16.0717 10.674 16.0717C10.2812 16.0717 9.96274 16.3827 9.96274 16.7662C9.96274 17.1497 10.2812 17.4606 10.674 17.4606C14.8967 17.4606 18.3199 14.1183 18.3199 9.99534C18.3199 8.49383 17.8659 7.09587 17.0846 5.92516Z" />
<path d="M11.4521 9.48019L10.1273 8.97405C9.97029 8.8974 9.89178 8.74409 9.89178 8.59078C9.89178 8.36081 10.0488 8.2075 10.2843 8.2075H12.0901C12.5611 8.2075 12.8751 7.90088 12.8751 7.44095C12.8751 6.98102 12.5611 6.6744 12.0901 6.6744H11.776C11.6975 6.6744 11.619 6.59775 11.619 6.52109V6.44444C11.619 5.98451 11.305 5.67789 10.8339 5.67789C10.3628 5.67789 10.0488 5.98451 10.0488 6.44444V6.75106C10.0488 6.82771 9.97029 6.90437 9.89178 6.90437C9.26371 7.05768 8.79265 7.44095 8.55712 8.05419C8.16457 8.97405 8.63563 10.1239 9.65625 10.5072L10.191 10.7115L11.4521 9.48019Z" />
<path d="M11.5884 11.2915L12.7053 10.201C13.1608 10.7279 13.3049 11.4779 13.0322 12.1169C12.7966 12.7301 12.3256 13.1134 11.6975 13.2667C11.619 13.2667 11.5405 13.3434 11.5405 13.42V13.5733C11.5405 14.0333 11.2264 14.3399 10.7554 14.3399C10.2843 14.3399 9.97029 14.0333 9.97029 13.5733V13.4967C9.97029 13.42 9.89178 13.3434 9.81327 13.3434L9.49923 13.4967C9.44473 13.4967 9.39232 13.4926 9.34227 13.4846L10.9001 11.9636H11.305C11.5405 11.9636 11.6975 11.8103 11.6975 11.5803C11.6975 11.476 11.6611 11.3717 11.5884 11.2915Z" />
<path d="M18.5366 1.87508C18.2521 1.5973 17.8254 1.5973 17.5409 1.87508L1.89346 17.1529C1.60896 17.4306 1.60896 17.8473 1.89346 18.1251C2.17795 18.4029 2.67583 18.4029 2.8892 18.1251L18.5366 2.8473C18.8211 2.56953 18.8211 2.15286 18.5366 1.87508Z" />
</svg>