<!-- character:1356:991 -->
  <svg width="20" height="20" viewBox="0 0 20 20" >
<path d="M13.5629 12.6438L10.3455 9.69375V6.17989C10.3455 5.79644 10.0346 5.48559 9.65113 5.48559C9.26767 5.48559 8.95681 5.79644 8.95681 6.17989V9.99855C8.95659 10.1933 9.03822 10.3793 9.18177 10.5109L12.6249 13.6665C12.9089 13.922 13.3451 13.9031 13.606 13.6242C13.8646 13.3415 13.8453 12.9028 13.5629 12.6438Z" />
<path d="M9.99862 1.66675C5.39705 1.66675 1.66675 5.39694 1.66675 9.99837C1.66675 12.4757 2.748 14.7005 4.46435 16.2266L5.44832 15.2427C3.98236 13.9697 3.0554 12.0923 3.0554 9.99836C3.0554 6.16383 6.16399 3.05534 9.99862 3.05534C12.0926 3.05534 13.9701 3.98227 15.2431 5.44818L16.2242 4.46709C14.6983 2.75132 12.4749 1.66963 9.99862 1.66675Z" />
<path d="M17.0578 5.57756L16.0477 6.58763C16.617 7.595 16.9418 8.75874 16.9418 9.99836C16.9376 13.8311 13.8315 16.9372 9.99862 16.9414C8.75897 16.9414 7.5952 16.6165 6.5878 16.0473L5.575 17.06C6.85689 17.8647 8.37341 18.33 9.99862 18.33C14.6002 18.33 18.3305 14.5998 18.3305 9.99837C18.3286 8.37416 17.8625 6.85872 17.0578 5.57756Z" />
<path d="M18.1251 1.87846C17.8474 1.60074 17.4308 1.60074 17.1531 1.87846L1.87797 17.1531C1.60024 17.4308 1.60024 17.8474 1.87797 18.1251C2.1557 18.4028 2.64173 18.4028 2.85003 18.1251L18.1251 2.85048C18.4028 2.57276 18.4028 2.15618 18.1251 1.87846Z" />
</svg>