<!--character:134:1357:1018-->
  <svg width="24" height="24" viewBox="0 0 24 24" >
<path d="M12.7799 3.26004C8.59342 3.26576 4.98193 6.16263 4.11929 10.2069C4.10009 10.3014 4.01607 10.3694 3.91848 10.3694H2.28643C2.11991 10.3695 1.96983 10.4686 1.90622 10.6205C1.84261 10.7724 1.87801 10.9472 1.99591 11.0633L4.59088 13.6235C4.75157 13.7821 5.01206 13.7821 5.17275 13.6235L7.7669 11.0633C7.88546 10.9466 7.92056 10.7706 7.85567 10.6182C7.79079 10.4659 7.63886 10.3675 7.47144 10.3694H6.03363C5.96936 10.3697 5.90868 10.3403 5.86971 10.2898C5.83073 10.2394 5.81799 10.1738 5.83528 10.1127C6.82212 6.56324 10.39 4.34428 14.0591 4.99811C15.6271 5.27753 16.992 6.04214 18.015 7.11235L19.1792 5.96301C17.5682 4.29756 15.2968 3.26004 12.7799 3.26004Z" />
<path d="M20.1979 7.23235L19.0014 8.41361C19.7311 9.64779 20.0905 11.1075 19.9526 12.6284C19.6201 16.2944 16.5083 19.1038 12.7799 19.1038C12.3254 19.1038 11.9569 19.4676 11.9569 19.9164C11.9569 20.3651 12.3254 20.7289 12.7799 20.7289C17.6662 20.7289 21.6273 16.8183 21.6273 11.9944C21.6273 10.2377 21.102 8.60207 20.1979 7.23235Z" />
<path d="M13.6803 11.3917L12.1473 10.7995C11.9656 10.7099 11.8748 10.5305 11.8748 10.3511C11.8748 10.0821 12.0565 9.90268 12.329 9.90268H14.4185C14.9636 9.90268 15.327 9.54394 15.327 9.00582C15.327 8.4677 14.9636 8.10896 14.4185 8.10896H14.0551C13.9643 8.10896 13.8734 8.01927 13.8734 7.92958V7.8399C13.8734 7.30178 13.51 6.94303 12.9649 6.94303C12.4199 6.94303 12.0565 7.30178 12.0565 7.8399V8.19864C12.0565 8.28833 11.9656 8.37801 11.8748 8.37801C11.148 8.55739 10.6029 9.00582 10.3304 9.72331C9.87615 10.7995 10.4212 12.1448 11.6022 12.5933L12.221 12.8323L13.6803 11.3917Z" />
<path d="M13.8381 13.511L15.1304 12.2351C15.6575 12.8516 15.8242 13.7291 15.5087 14.4767C15.2361 15.1942 14.691 15.6426 13.9643 15.822C13.8734 15.822 13.7826 15.9117 13.7826 16.0014V16.1807C13.7826 16.7188 13.4192 17.0776 12.8741 17.0776C12.329 17.0776 11.9656 16.7188 11.9656 16.1807V16.091C11.9656 16.0014 11.8748 15.9117 11.7839 15.9117L11.4205 16.091C11.3575 16.091 11.2968 16.0862 11.2389 16.0769L13.0415 14.2973H13.51C13.7826 14.2973 13.9643 14.1179 13.9643 13.8489C13.9643 13.7268 13.9222 13.6048 13.8381 13.511Z" />
<path d="M21.8781 2.49375C21.5489 2.16875 21.0551 2.16875 20.7259 2.49375L2.61957 20.3688C2.29036 20.6938 2.29036 21.1812 2.61957 21.5063C2.94878 21.8312 3.52489 21.8312 3.77179 21.5063L21.8781 3.63125C22.2073 3.30625 22.2073 2.81875 21.8781 2.49375Z" />
</svg>