<!--character:566-->
  <svg width="24" height="24" viewBox="0 0 24 24" >
<path d="M2.25418 20.473C1.90271 20.8244 1.90271 21.3943 2.25418 21.7458C2.60566 22.0972 3.1755 22.0972 3.52698 21.7458L4.94911 20.3236C4.98258 20.2724 5.02181 20.2238 5.06679 20.1789L20.4159 4.82978C20.4609 4.78479 20.5094 4.74556 20.5606 4.71209L21.7457 3.52703C22.0972 3.17555 22.0972 2.60571 21.7457 2.25424C21.3942 1.90276 20.8244 1.90276 20.4729 2.25424L17.356 5.37115C15.6679 4.69274 13.8515 4.33518 12 4.33518C8.36517 4.33518 4.86555 5.71322 2.20663 8.19148C1.84302 8.53038 1.823 9.09988 2.1619 9.46348C2.5008 9.82709 3.0703 9.84712 3.4339 9.50822C5.75962 7.34052 8.82067 6.13518 12 6.13518C13.3553 6.13518 14.6891 6.35423 15.9537 6.7735L14.4387 8.28843C13.6456 8.1026 12.8277 8.00661 11.9999 8.00661C9.16446 8.00661 6.4451 9.13295 4.44005 11.1379C4.08856 11.4893 4.08855 12.0592 4.44001 12.4107C4.79147 12.7621 5.36131 12.7622 5.7128 12.4107C7.38029 10.7433 9.64183 9.80661 11.9999 9.80661C12.2942 9.80661 12.5869 9.82119 12.8772 9.84996L10.9736 11.7536C9.4907 11.9722 8.1067 12.6617 7.03405 13.7343C6.68255 14.0857 6.68252 14.6556 7.03397 15.0071C7.16029 15.1334 7.31482 15.2143 7.47729 15.2499L2.25418 20.473Z" />
<path d="M20.5982 7.19299L19.3103 8.48096C19.7483 8.79437 20.1679 9.1372 20.566 9.50822C20.9296 9.84712 21.4991 9.82709 21.838 9.46348C22.1769 9.09988 22.1569 8.53038 21.7933 8.19148C21.4116 7.8357 21.0125 7.5026 20.5982 7.19299Z" />
<path d="M17.9656 9.82564L16.6635 11.1277C17.2481 11.4878 17.7936 11.9173 18.2871 12.4107C18.6386 12.7622 19.2084 12.7621 19.5599 12.4107C19.9113 12.0592 19.9113 11.4893 19.5598 11.1379C19.0684 10.6465 18.5341 10.2078 17.9656 9.82564Z" />
<path d="M15.2918 12.4995L13.9384 13.8528C14.5876 14.1128 15.1842 14.5031 15.6882 15.0071C16.0397 15.3586 16.6096 15.3586 16.961 15.0071C17.3125 14.6556 17.3125 14.0857 16.961 13.7343C16.4643 13.2377 15.9009 12.8231 15.2918 12.4995Z" />
<path d="M10.163 17.6282L11.7925 15.9988C11.861 15.991 11.9303 15.9871 12 15.9871C12.4903 15.9871 12.9605 16.1819 13.3071 16.5286C13.6538 16.8752 13.8486 17.3455 13.8486 17.8357C13.8486 18.326 13.6538 18.7962 13.3071 19.1429C12.9605 19.4896 12.4903 19.6844 12 19.6844C11.5097 19.6844 11.0395 19.4896 10.6928 19.1429C10.3461 18.7962 10.1513 18.326 10.1513 17.8357C10.1513 17.7661 10.1553 17.6968 10.163 17.6282Z" />
</svg>