<!--character:5238-->
  <svg width="20" height="20" viewBox="0 0 20 20" >
<path d="M9.66655 6.49038C9.66655 6.87414 9.35563 7.18524 8.9721 7.18524C8.58911 7.18525 8.27842 6.87499 8.27766 6.49177C8.27696 5.29828 9.18001 4.29834 10.3668 4.17853C11.5535 4.05873 12.638 4.85802 12.8756 6.02761C13.1388 7.32422 12.4124 7.96488 11.7707 8.5291L10.8089 9.37892H12.5527C12.9362 9.37892 13.2471 9.69002 13.2471 10.0738C13.2471 10.4575 12.9362 10.7686 12.5527 10.7686H8.9721C8.68321 10.7688 8.4244 10.59 8.32219 10.3196C8.21997 10.0493 8.29571 9.74383 8.51238 9.55263L10.8534 7.48473C11.4922 6.92328 11.6089 6.7718 11.5145 6.30347C11.4189 5.83345 10.9829 5.51232 10.506 5.56056C10.0291 5.6088 9.6662 6.01073 9.66655 6.49038Z" />
<path d="M16.5786 4.42282C17.0036 3.91586 17.8298 4.21634 17.8298 4.87784V8.05833H18.1511C18.5423 8.05833 18.8594 8.37546 18.8594 8.76666C18.8594 9.15787 18.5423 9.475 18.1511 9.475H17.8298V10.0588C17.8298 10.45 17.5127 10.7672 17.1215 10.7672C16.7303 10.7672 16.4132 10.45 16.4132 10.0588V9.475H13.8619C13.2604 9.475 12.9327 8.77263 13.3191 8.31165L16.5786 4.42282ZM16.4132 6.82558L15.3799 8.05833H16.4132V6.82558Z" />
<path d="M13.0624 12.8936C12.7368 12.5677 12.2951 12.3847 11.8346 12.3847C11.3741 12.3847 10.9324 12.5677 10.6068 12.8936L9.50543 13.9945C8.05077 12.7734 6.7056 11.4275 5.4853 9.97194L6.58668 8.87039C7.26443 8.19203 7.26443 7.09241 6.58668 6.41406L5.11238 4.94026C4.42599 4.2828 3.3439 4.2828 2.65752 4.94026L1.84918 5.74907C1.03693 6.5673 0.909122 7.84321 1.54293 8.80646C3.94604 12.4292 7.04874 15.5348 10.6686 17.9404C11.6344 18.5629 12.9018 18.4352 13.7242 17.6326L14.5325 16.8238C15.2103 16.1454 15.2103 15.0458 14.5325 14.3674L13.0624 12.8936Z" />
</svg>