<!--character:154:550:1541-->
  <svg width="24" height="24" viewBox="0 0 24 24" >
<path   d="M11.5999 7.78846C11.5999 8.24898 11.2268 8.6223 10.7666 8.6223C10.307 8.6223 9.93418 8.24999 9.93326 7.79013C9.93242 6.35794 11.0161 5.15801 12.4402 5.01424C13.8643 4.87048 15.1657 5.82963 15.4508 7.23313C15.7666 8.78906 14.8949 9.55786 14.1249 10.2349L12.9708 11.2547H15.0633C15.5235 11.2547 15.8966 11.628 15.8966 12.0885C15.8966 12.549 15.5235 12.9224 15.0633 12.9224H10.7666C10.4199 12.9226 10.1093 12.708 9.98669 12.3836C9.86404 12.0591 9.95492 11.6926 10.2149 11.4632L13.0241 8.98168C13.7908 8.30794 13.9308 8.12617 13.8174 7.56416C13.7027 7.00014 13.1796 6.61479 12.6073 6.67268C12.0349 6.73057 11.5995 7.21287 11.5999 7.78846ZM19.8944 5.30738C20.4044 4.69903 21.3959 5.05961 21.3959 5.85341V9.67H21.7814C22.2508 9.67 22.6314 10.0506 22.6314 10.52C22.6314 10.9894 22.2508 11.37 21.7814 11.37H21.3959V12.0706C21.3959 12.54 21.0153 12.9206 20.5459 12.9206C20.0764 12.9206 19.6959 12.54 19.6959 12.0706V11.37H16.6344C15.9126 11.37 15.5193 10.5272 15.9829 9.97398L19.8944 5.30738ZM19.6959 8.19069L18.4559 9.66999H19.6959V8.19069ZM15.6749 15.4723C15.2842 15.0813 14.7542 14.8616 14.2016 14.8616C13.649 14.8616 13.119 15.0813 12.7283 15.4723L11.4066 16.7934C9.66099 15.3281 8.04679 13.713 6.58243 11.9663L7.90409 10.6445C8.71739 9.83042 8.71739 8.51089 7.90409 7.69686L6.13493 5.9283C5.31127 5.13935 4.01276 5.13935 3.18909 5.9283L2.21909 6.89888C1.24439 7.88075 1.09102 9.41185 1.85159 10.5677C4.73532 14.9151 8.45856 18.6417 12.8024 21.5285C13.9613 22.2754 15.4823 22.1222 16.4691 21.1591L17.4391 20.1885C18.2524 19.3745 18.2524 18.0549 17.4391 17.2409L15.6749 15.4723Z" />
</svg>