<!-- character:0:1647 -->
  <svg width="20" height="20" viewBox="0 0 20 20" >
<path   d="M9.66661 6.49035C9.66661 6.87411 9.35569 7.18521 8.97216 7.18521C8.58917 7.18521 8.27848 6.87495 8.27772 6.49174C8.27702 5.29824 9.18007 4.2983 10.3668 4.1785C11.5536 4.05869 12.6381 4.85798 12.8756 6.02757C13.1388 7.32418 12.4124 7.96484 11.7708 8.52907L10.809 9.37888H12.5527C12.9362 9.37888 13.2472 9.68998 13.2472 10.0737C13.2472 10.4575 12.9362 10.7686 12.5527 10.7686H8.97216C8.68328 10.7688 8.42446 10.59 8.32225 10.3196C8.22004 10.0492 8.29577 9.74379 8.51244 9.55259L10.8534 7.48469C11.4923 6.92324 11.609 6.77176 11.5145 6.30343C11.4189 5.83341 10.983 5.51228 10.5061 5.56052C10.0291 5.60877 9.66626 6.01069 9.66661 6.49035ZM16.5787 4.42278C17.0036 3.91582 17.8299 4.2163 17.8299 4.8778V8.05829H18.1511C18.5423 8.05829 18.8595 8.37542 18.8595 8.76663C18.8595 9.15783 18.5423 9.47496 18.1511 9.47496H17.8299V10.0588C17.8299 10.45 17.5128 10.7671 17.1216 10.7671C16.7304 10.7671 16.4132 10.45 16.4132 10.0588V9.47496H13.862C13.2605 9.47496 12.9327 8.77259 13.3191 8.31161L16.5787 4.42278ZM16.4132 6.82554L15.3799 8.05829H16.4132V6.82554ZM13.0624 12.8936C12.7368 12.5677 12.2952 12.3846 11.8347 12.3846C11.3741 12.3846 10.9325 12.5677 10.6069 12.8936L9.5055 13.9944C8.05083 12.7734 6.70566 11.4274 5.48536 9.9719L6.58675 8.87035C7.26449 8.19199 7.26449 7.09237 6.58675 6.41402L5.11244 4.94022C4.42606 4.28276 3.34396 4.28276 2.65758 4.94022L1.84925 5.74904C1.03699 6.56726 0.909183 7.84318 1.543 8.80642C3.9461 12.4292 7.0488 15.5347 10.6687 17.9404C11.6344 18.5628 12.9019 18.4351 13.7242 17.6325L14.5326 16.8237C15.2103 16.1454 15.2103 15.0457 14.5326 14.3674L13.0624 12.8936Z" />
</svg>