<!--character:3024:2778-->
<svg width="24" height="24" viewBox="0 0 24 24">
  <path d="M11.5999 7.78846C11.5999 8.24897 11.2268 8.62229 10.7665 8.62229C10.3069 8.62229 9.93411 8.24999 9.93319 7.79013C9.93235 6.35793 11.016 5.15801 12.4401 5.01424C13.8642 4.87047 15.1656 5.82963 15.4507 7.23313C15.7665 8.78906 14.8949 9.55785 14.1249 10.2349L12.9707 11.2547H15.0632C15.5234 11.2547 15.8965 11.628 15.8965 12.0885C15.8965 12.549 15.5234 12.9224 15.0632 12.9224H10.7665C10.4199 12.9226 10.1093 12.708 9.98662 12.3836C9.86397 12.0591 9.95486 11.6926 10.2149 11.4632L13.024 8.98167C13.7907 8.30794 13.9307 8.12616 13.8174 7.56416C13.7026 7.00013 13.1795 6.61478 12.6072 6.67267C12.0349 6.73057 11.5994 7.21287 11.5999 7.78846Z" />
  <path d="M19.8944 5.30738C20.4043 4.69903 21.3958 5.05961 21.3958 5.8534V9.67H21.7813C22.2507 9.67 22.6313 10.0506 22.6313 10.52C22.6313 10.9894 22.2507 11.37 21.7813 11.37H21.3958V12.0706C21.3958 12.54 21.0152 12.9206 20.5458 12.9206C20.0764 12.9206 19.6958 12.54 19.6958 12.0706V11.37H16.6343C15.9125 11.37 15.5192 10.5272 15.9829 9.97397L19.8944 5.30738ZM19.6958 8.19069L18.4559 9.67H19.6958V8.19069Z" />
  <path d="M15.6749 15.4724C15.2841 15.0813 14.7542 14.8616 14.2015 14.8616C13.6489 14.8616 13.1189 15.0813 12.7282 15.4724L11.4065 16.7934C9.66092 15.3281 8.04672 13.713 6.58235 11.9663L7.90402 10.6445C8.71732 9.83043 8.71732 8.5109 7.90402 7.69687L6.13486 5.92831C5.31119 5.13936 4.01268 5.13936 3.18902 5.92831L2.21902 6.89889C1.24431 7.88076 1.09095 9.41186 1.85152 10.5678C4.73524 14.9151 8.45849 18.6417 12.8024 21.5285C13.9612 22.2754 15.4822 22.1222 16.469 21.1591L17.439 20.1885C18.2523 19.3745 18.2523 18.0549 17.439 17.2409L15.6749 15.4724Z" />
</svg>
