<!--character:9921-->
  <svg width="24" height="24" viewBox="0 0 24 24" >
<path d="M17.7433 15.3333C17.7433 16 18.3266 16.5833 18.9933 16.5833C19.41 16.5833 19.8266 16.9167 19.8266 17.4167C19.8266 17.9167 19.4933 18.25 18.9933 18.25H3.99329C3.49329 18.25 3.15996 17.9167 3.15996 17.4167C3.15996 16.9167 3.49329 16.5833 3.99329 16.5833C4.65996 16.5833 5.24329 16 5.24329 15.3333V11.25C5.07663 8 7.40996 5.16666 10.66 4.58333V2.83333C10.66 2.33333 10.9933 2 11.4933 2C11.9933 2 12.3266 2.33333 12.3266 2.83333V3.25011C10.71 4.43255 9.65996 6.34365 9.65996 8.5C9.65996 12.0898 12.5701 15 16.16 15C16.7061 15 17.2365 14.9326 17.7433 14.8058V15.3333Z" />
<path d="M13.3266 19.5H9.57663C9.4933 19.5 9.40996 19.5833 9.40996 19.6667V19.9167C9.40996 21.0833 10.3266 22 11.4933 22C12.66 22 13.5766 21.0833 13.5766 19.9167V19.6667C13.4933 19.5833 13.41 19.5 13.3266 19.5Z" />
<path d="M16.25 3.25C13.3505 3.25 11 5.6005 11 8.5C11 11.3995 13.3505 13.75 16.25 13.75C19.1495 13.75 21.5 11.3995 21.5 8.5C21.4964 5.60198 19.148 3.25356 16.25 3.25ZM19.8846 8.5C19.8846 8.94607 19.523 9.30769 19.0769 9.30769H17.4615C17.2385 9.30769 17.0577 9.4885 17.0577 9.71154V11.3269C17.0577 11.773 16.696 12.1346 16.25 12.1346C15.8039 12.1346 15.4423 11.773 15.4423 11.3269V9.71154C15.4423 9.4885 15.2615 9.30769 15.0384 9.30769H13.423C12.977 9.30769 12.6153 8.94607 12.6153 8.5C12.6153 8.05392 12.977 7.69231 13.423 7.69231H15.0384C15.2615 7.69231 15.4423 7.5115 15.4423 7.28846V5.67307C15.4423 5.227 15.8039 4.86538 16.25 4.86538C16.696 4.86538 17.0577 5.227 17.0577 5.67307V7.28846C17.0577 7.5115 17.2385 7.69231 17.4615 7.69231H19.0769C19.523 7.69231 19.8846 8.05392 19.8846 8.5Z" />
</svg>