<!--category:time-->
<!--character:E023-->
<svg width="24" height="24" viewBox="0 0 24 24" xmlns="http://www.w3.org/2000/svg"><path d="M19.5036 18.25H8.7657l9.1538-9.15a7.2674 7.2674 0 0 1 .3335 2.1808v4.0525c0 .6904.56 1.25 1.2506 1.25.4605 0 .8338.3731.8338.8334 0 .4602-.3733.8333-.8338.8333zm-5.6395 1.25a.2076.2076 0 0 1 .2068.185c.0087.077.0131.1543.0133.2317 0 1.1506-.9332 2.0833-2.0844 2.0833-1.1511 0-2.0844-.9327-2.0844-2.0833 0-.0774.0042-.1548.0126-.2317a.2092.2092 0 0 1 .2076-.185h3.7285zM2.8285 21.9942a.834.834 0 0 1-.5894-.2384.8455.8455 0 0 1 0-1.1783L4.5677 18.25H4.496c-.4604 0-.8337-.3731-.8337-.8333 0-.4603.3733-.8334.8337-.8334.6907 0 1.2507-.5596 1.2507-1.25v-4.0525C5.6472 8.0111 7.9483 5.1575 11.166 4.56V2.8333c0-.4602.3733-.8333.8337-.8333.4605 0 .8338.3731.8338.8333V4.56a6.0749 6.0749 0 0 1 3.5451 1.885l4.203-4.2008a.834.834 0 0 1 1.179 0 .8447.8447 0 0 1 0 1.1783L3.418 21.7558a.834.834 0 0 1-.5895.2384z"/></svg>