<!--character:141:550:1386-->
  <svg width="24" height="24" viewBox="0 0 24 24" >
<path   d="M17.7433 15.3333C17.7433 16 18.3266 16.5833 18.9933 16.5833C19.41 16.5833 19.8266 16.9167 19.8266 17.4167C19.8266 17.9167 19.4933 18.25 18.9933 18.25H3.99331C3.49331 18.25 3.15997 17.9167 3.15997 17.4167C3.15997 16.9167 3.49331 16.5833 3.99331 16.5833C4.65997 16.5833 5.24331 16 5.24331 15.3333V11.25C5.07664 8 7.40997 5.16667 10.66 4.58333V2.83333C10.66 2.33333 10.9933 2 11.4933 2C11.9933 2 12.3266 2.33333 12.3266 2.83333V3.25011C10.71 4.43255 9.65997 6.34365 9.65997 8.5C9.65997 12.0899 12.5701 15 16.16 15C16.7061 15 17.2365 14.9326 17.7433 14.8058V15.3333ZM13.3266 19.5H9.57664C9.49331 19.5 9.40997 19.5833 9.40997 19.6667V19.9167C9.40997 21.0833 10.3266 22 11.4933 22C12.66 22 13.5766 21.0833 13.5766 19.9167V19.6667C13.4933 19.5833 13.41 19.5 13.3266 19.5ZM16.25 3.25C13.3505 3.25 11 5.60051 11 8.5C11 11.3995 13.3505 13.75 16.25 13.75C19.1495 13.75 21.5 11.3995 21.5 8.5C21.4964 5.60198 19.148 3.25356 16.25 3.25ZM19.8846 8.49999C19.8846 8.94607 19.523 9.30769 19.0769 9.30769H17.4615C17.2385 9.30769 17.0577 9.48849 17.0577 9.71153V11.3269C17.0577 11.773 16.696 12.1346 16.25 12.1346C15.8039 12.1346 15.4423 11.773 15.4423 11.3269V9.71153C15.4423 9.48849 15.2615 9.30769 15.0384 9.30769H13.423C12.977 9.30769 12.6154 8.94607 12.6154 8.49999C12.6154 8.05392 12.977 7.6923 13.423 7.6923H15.0384C15.2615 7.6923 15.4423 7.51149 15.4423 7.28845V5.67307C15.4423 5.22699 15.8039 4.86538 16.25 4.86538C16.696 4.86538 17.0577 5.22699 17.0577 5.67307V7.28845C17.0577 7.51149 17.2385 7.6923 17.4615 7.6923H19.0769C19.523 7.6923 19.8846 8.05392 19.8846 8.49999Z" />
</svg>