<!-- character:0:1279 -->
  <svg width="20" height="20" viewBox="0 0 20 20" >
<path   d="M14.7861 12.7778C14.7861 13.3334 15.2722 13.8195 15.8278 13.8195C16.175 13.8195 16.5222 14.0972 16.5222 14.5139C16.5222 14.9306 16.2445 15.2084 15.8278 15.2084H3.32781C2.91114 15.2084 2.63336 14.9306 2.63336 14.5139C2.63336 14.0972 2.91114 13.8195 3.32781 13.8195C3.88336 13.8195 4.36947 13.3334 4.36947 12.7778V9.37502C4.23058 6.66669 6.17503 4.30558 8.88336 3.81946V2.36113C8.88336 1.94446 9.16114 1.66669 9.57781 1.66669C9.99447 1.66669 10.2723 1.94446 10.2723 2.36113V2.70844C8.92505 3.69381 8.05003 5.2864 8.05003 7.08335C8.05003 10.0749 10.4752 12.5 13.4667 12.5C13.9218 12.5 14.3638 12.4439 14.7861 12.3382V12.7778ZM11.1056 16.25H7.98058C7.91114 16.25 7.8417 16.3195 7.8417 16.3889V16.5972C7.8417 17.5695 8.60558 18.3334 9.57781 18.3334C10.55 18.3334 11.3139 17.5695 11.3139 16.5972V16.3889C11.2445 16.3195 11.175 16.25 11.1056 16.25ZM13.5417 11.4584C11.1354 11.4584 9.1667 9.4896 9.1667 7.08335C9.1667 4.6771 11.1354 2.70835 13.5417 2.70835C15.9479 2.70835 17.9167 4.6771 17.9167 7.08335C17.9167 9.4896 15.9479 11.4584 13.5417 11.4584ZM13.9105 8.85979L16.2164 5.77932L16.2196 5.78091C16.4172 5.51741 16.3638 5.14361 16.1003 4.94598C15.8369 4.74836 15.463 4.80176 15.2654 5.06526L13.093 7.96205C13.0586 8.00847 13.0057 8.03755 12.9481 8.04168C12.8905 8.04581 12.8339 8.02456 12.7933 7.98352L11.7595 6.9498C11.6088 6.79909 11.3892 6.74024 11.1833 6.7954C10.9774 6.85056 10.8166 7.01136 10.7615 7.21723C10.7063 7.4231 10.7652 7.64276 10.9159 7.79347L12.1086 8.98622C12.3309 9.21034 12.6334 9.33655 12.9491 9.33689H13.0358C13.3832 9.31371 13.7029 9.13931 13.9105 8.85979Z" />
</svg>