<!--character:139:550:1356-->
  <svg width="24" height="24" viewBox="0 0 24 24" >
<path   d="M3.41799 21.7558C3.26072 21.91 3.0488 21.9957 2.82853 21.9942C2.60825 21.9957 2.39634 21.91 2.23906 21.7558C1.92031 21.4277 1.92031 20.9057 2.23906 20.5775L4.56774 18.25H4.49604C4.03557 18.25 3.66228 17.8769 3.66228 17.4167C3.66228 16.9564 4.03557 16.5833 4.49604 16.5833C5.18674 16.5833 5.74667 16.0237 5.74667 15.3333V11.2808C5.64719 8.01114 7.94827 5.15748 11.1661 4.56V2.83333C11.1661 2.3731 11.5394 2 11.9998 2C12.4603 2 12.8336 2.3731 12.8336 2.83333V4.56C14.1949 4.76844 15.445 5.43312 16.3787 6.445L20.5817 2.24417C20.9073 1.91885 21.435 1.91885 21.7606 2.24417C22.0798 2.57216 22.0798 3.0945 21.7606 3.4225L3.41799 21.7558ZM19.5036 18.25C19.9641 18.25 20.3374 17.8769 20.3374 17.4167C20.3374 16.9564 19.9641 16.5833 19.5036 16.5833C18.8129 16.5833 18.253 16.0237 18.253 15.3333V11.2808C18.2535 10.5412 18.141 9.80575 17.9195 9.09999L8.7657 18.25H19.5036ZM13.8641 19.5H10.1356C10.0294 19.5001 9.94021 19.5796 9.92795 19.685C9.91956 19.7619 9.91539 19.8393 9.91544 19.9167C9.91544 21.0673 10.8487 22 11.9998 22C13.151 22 14.0842 21.0673 14.0842 19.9167C14.084 19.8393 14.0796 19.7619 14.0709 19.685C14.0594 19.5796 13.9702 19.4998 13.8641 19.5Z" />
</svg>