<!--character:1936-->
  <svg width="24" height="24" viewBox="0 0 24 24" >
<path d="M3.4178 21.7558C3.26052 21.91 3.04861 21.9957 2.82833 21.9942C2.60806 21.9957 2.39614 21.91 2.23887 21.7558C1.92012 21.4277 1.92012 20.9057 2.23887 20.5775L4.56755 18.25H4.49584C4.03537 18.25 3.66209 17.8769 3.66209 17.4167C3.66209 16.9564 4.03537 16.5833 4.49584 16.5833C5.18655 16.5833 5.74648 16.0237 5.74648 15.3333V11.2808C5.647 8.01114 7.94808 5.15747 11.1659 4.56V2.83333C11.1659 2.37309 11.5392 2 11.9996 2C12.4601 2 12.8334 2.37309 12.8334 2.83333V4.56C14.1947 4.76844 15.4448 5.43312 16.3785 6.445L20.5815 2.24416C20.9071 1.91885 21.4348 1.91885 21.7604 2.24416C22.0796 2.57216 22.0796 3.0945 21.7604 3.4225L3.4178 21.7558Z" />
<path d="M19.5034 18.25C19.9639 18.25 20.3372 17.8769 20.3372 17.4167C20.3372 16.9564 19.9639 16.5833 19.5034 16.5833C18.8127 16.5833 18.2528 16.0237 18.2528 15.3333V11.2808C18.2533 10.5412 18.1408 9.80575 17.9193 9.1L8.7655 18.25H19.5034Z" />
<path d="M14.0707 19.685C14.0592 19.5796 13.97 19.4998 13.8639 19.5H10.1354C10.0292 19.5001 9.94002 19.5796 9.92776 19.685C9.91937 19.7619 9.91519 19.8393 9.91525 19.9167C9.91525 21.0673 10.8485 22 11.9996 22C13.1508 22 14.084 21.0673 14.084 19.9167C14.0838 19.8393 14.0794 19.7619 14.0707 19.685Z" />
</svg>