<!--character:149:550:1476-->
  <svg width="24" height="24" viewBox="0 0 24 24" >
<path   d="M18.2434 15.3333C18.2434 16.0237 18.803 16.5833 19.4934 16.5833C19.9536 16.5833 20.3267 16.9564 20.3267 17.4167C20.3267 17.8769 19.9536 18.25 19.4934 18.25H4.49337C4.03313 18.25 3.66003 17.8769 3.66003 17.4167C3.66003 16.9564 4.03313 16.5833 4.49337 16.5833C5.18372 16.5833 5.74337 16.0237 5.74337 15.3333V11.2817C5.64394 8.01197 7.94386 5.15831 11.16 4.56083V2.83333C11.16 2.3731 11.5331 2 11.9934 2C12.4536 2 12.8267 2.3731 12.8267 2.83333V4.56083C16.0429 5.15831 18.3428 8.01197 18.2434 11.2817V15.3333ZM10.13 19.5H13.8567C13.9629 19.4994 14.0522 19.5794 14.0634 19.685C14.0725 19.7619 14.0769 19.8392 14.0767 19.9167C14.0767 21.0673 13.144 22 11.9934 22C10.8428 22 9.91004 21.0673 9.91004 19.9167C9.90984 19.8392 9.91429 19.7619 9.92337 19.685C9.93523 19.5798 10.0241 19.5002 10.13 19.5Z" />
</svg>