<!--character:2779-->
<svg width="24" height="24" viewBox="0 0 24 24">
  <path d="M18.2431 15.3333C18.2431 16.0237 18.8027 16.5833 19.4931 16.5833C19.9533 16.5833 20.3264 16.9564 20.3264 17.4167C20.3264 17.8769 19.9533 18.25 19.4931 18.25H4.4931C4.03286 18.25 3.65977 17.8769 3.65977 17.4167C3.65977 16.9564 4.03286 16.5833 4.4931 16.5833C5.18345 16.5833 5.7431 16.0237 5.7431 15.3333V11.2817C5.64367 8.01197 7.94359 5.15831 11.1598 4.56083V2.83333C11.1598 2.37309 11.5329 2 11.9931 2C12.4533 2 12.8264 2.37309 12.8264 2.83333V4.56083C16.0426 5.15831 18.3425 8.01197 18.2431 11.2817V15.3333Z" />
  <path d="M10.1298 19.5H13.8564C13.9626 19.4994 14.052 19.5794 14.0631 19.685C14.0722 19.7619 14.0766 19.8392 14.0764 19.9167C14.0764 21.0673 13.1437 22 11.9931 22C10.8425 22 9.90976 21.0673 9.90976 19.9167C9.90956 19.8392 9.91402 19.7619 9.9231 19.685C9.93496 19.5798 10.0239 19.5002 10.1298 19.5Z" />
</svg>
