<!--character:9742-->
  <svg width="24" height="24" viewBox="0 0 24 24" >
<path d="M17.7433 15.3333C17.7433 16 18.3267 16.5833 18.9933 16.5833C19.41 16.5833 19.8267 16.9167 19.8267 17.4167C19.8267 17.9167 19.4933 18.25 18.9933 18.25H3.99333C3.49333 18.25 3.16 17.9167 3.16 17.4167C3.16 16.9167 3.49333 16.5833 3.99333 16.5833C4.66 16.5833 5.24333 16 5.24333 15.3333V11.25C5.07666 8 7.41 5.16666 10.66 4.58333V2.83333C10.66 2.33333 10.9933 2 11.4933 2C11.9933 2 12.3267 2.33333 12.3267 2.83333V3.25011C10.71 4.43255 9.66 6.34365 9.66 8.5C9.66 12.0898 12.5701 15 16.16 15C16.7061 15 17.2365 14.9326 17.7433 14.8058V15.3333Z" />
<path d="M13.3267 19.5H9.57666C9.49333 19.5 9.41 19.5833 9.41 19.6667V19.9167C9.41 21.0833 10.3267 22 11.4933 22C12.66 22 13.5767 21.0833 13.5767 19.9167V19.6667C13.4933 19.5833 13.41 19.5 13.3267 19.5Z" />
<path d="M16.25 13.75C13.3625 13.75 11 11.3875 11 8.5C11 5.6125 13.3625 3.25 16.25 3.25C19.1375 3.25 21.5 5.6125 21.5 8.5C21.5 11.3875 19.1375 13.75 16.25 13.75ZM16.6925 10.6317L19.4597 6.93515L19.4635 6.93706C19.7007 6.62087 19.6366 6.1723 19.3204 5.93515C19.0042 5.69801 18.5556 5.76209 18.3185 6.07828L15.7116 9.55443C15.6703 9.61013 15.6068 9.64504 15.5377 9.64999C15.4685 9.65494 15.4006 9.62945 15.3519 9.58019L14.1114 8.33973C13.9306 8.15889 13.667 8.08826 13.4199 8.15445C13.1729 8.22065 12.9799 8.41361 12.9137 8.66065C12.8475 8.9077 12.9182 9.17129 13.099 9.35214L14.5303 10.7834C14.7971 11.0524 15.1601 11.2038 15.5389 11.2042H15.6429C16.0598 11.1764 16.4434 10.9671 16.6925 10.6317Z" />
</svg>