<!--character:7252-->
  <svg width="24" height="24" viewBox="0 0 24 24" >
<path d="M3.41802 21.7558C3.26074 21.91 3.04883 21.9957 2.82855 21.9942C2.60828 21.9957 2.39636 21.91 2.23909 21.7558C1.92034 21.4277 1.92034 20.9057 2.23909 20.5775L4.56777 18.25H4.49606C4.03559 18.25 3.66231 17.8769 3.66231 17.4167C3.66231 16.9564 4.03559 16.5833 4.49606 16.5833C5.18677 16.5833 5.7467 16.0237 5.7467 15.3333V11.2808C5.64722 8.01114 7.9483 5.15747 11.1661 4.56V2.83333C11.1661 2.37309 11.5394 2 11.9999 2C12.4603 2 12.8336 2.37309 12.8336 2.83333V4.56C14.195 4.76844 15.445 5.43312 16.3787 6.445L20.5817 2.24416C20.9073 1.91885 21.4351 1.91885 21.7606 2.24416C22.0798 2.57216 22.0798 3.0945 21.7606 3.4225L3.41802 21.7558Z" />
<path d="M19.5037 18.25C19.9641 18.25 20.3374 17.8769 20.3374 17.4167C20.3374 16.9564 19.9641 16.5833 19.5037 16.5833C18.813 16.5833 18.253 16.0237 18.253 15.3333V11.2808C18.2535 10.5412 18.141 9.80575 17.9195 9.1L8.76572 18.25H19.5037Z" />
<path d="M14.0709 19.685C14.0594 19.5796 13.9702 19.4998 13.8641 19.5H10.1356C10.0295 19.5001 9.94024 19.5796 9.92798 19.685C9.91959 19.7619 9.91541 19.8393 9.91547 19.9167C9.91547 21.0673 10.8487 22 11.9999 22C13.151 22 14.0842 21.0673 14.0842 19.9167C14.084 19.8393 14.0796 19.7619 14.0709 19.685Z" />
</svg>