<!-- character:0:1261 -->
  <svg width="20" height="20" viewBox="0 0 20 20" >
<path   d="M15.2028 12.7778C15.2028 13.3531 15.6691 13.8195 16.2444 13.8195C16.628 13.8195 16.9389 14.1304 16.9389 14.5139C16.9389 14.8974 16.628 15.2084 16.2444 15.2084H3.74443C3.3609 15.2084 3.04999 14.8974 3.04999 14.5139C3.04999 14.1304 3.3609 13.8195 3.74443 13.8195C4.31973 13.8195 4.7861 13.3531 4.7861 12.7778V9.40141C4.70324 6.67667 6.61984 4.29861 9.29999 3.80071V2.36113C9.29999 1.9776 9.6109 1.66669 9.99443 1.66669C10.378 1.66669 10.6889 1.9776 10.6889 2.36113V3.80071C13.369 4.29861 15.2856 6.67667 15.2028 9.40141V12.7778ZM8.44165 16.25H11.5472C11.6357 16.2495 11.7102 16.3162 11.7194 16.4042C11.727 16.4683 11.7307 16.5327 11.7305 16.5972C11.7305 17.5561 10.9533 18.3334 9.99443 18.3334C9.0356 18.3334 8.25832 17.5561 8.25832 16.5972C8.25815 16.5327 8.26186 16.4683 8.26943 16.4042C8.27931 16.3165 8.35341 16.2502 8.44165 16.25Z" />
</svg>