<!--character:3833-->
  <svg width="20" height="20" viewBox="0 0 20 20" >
<path d="M14.7861 12.7778C14.7861 13.3333 15.2722 13.8194 15.8277 13.8194C16.175 13.8194 16.5222 14.0972 16.5222 14.5139C16.5222 14.9306 16.2444 15.2083 15.8277 15.2083H3.32775C2.91108 15.2083 2.6333 14.9306 2.6333 14.5139C2.6333 14.0972 2.91108 13.8194 3.32775 13.8194C3.8833 13.8194 4.36941 13.3333 4.36941 12.7778V9.375C4.23052 6.66666 6.17497 4.30555 8.8833 3.81944V2.36111C8.8833 1.94444 9.16108 1.66666 9.57774 1.66666C9.99441 1.66666 10.2722 1.94444 10.2722 2.36111V2.70842C8.92499 3.69379 8.04997 5.28637 8.04997 7.08333C8.04997 10.0749 10.4751 12.5 13.4666 12.5C13.9217 12.5 14.3637 12.4439 14.7861 12.3382V12.7778Z" />
<path d="M11.1055 16.25H7.98052C7.91108 16.25 7.84163 16.3194 7.84163 16.3889V16.5972C7.84163 17.5694 8.60552 18.3333 9.57775 18.3333C10.55 18.3333 11.3139 17.5694 11.3139 16.5972V16.3889C11.2444 16.3194 11.175 16.25 11.1055 16.25Z" />
<path d="M13.5416 11.4583C11.1354 11.4583 9.16663 9.48958 9.16663 7.08333C9.16663 4.67708 11.1354 2.70833 13.5416 2.70833C15.9479 2.70833 17.9166 4.67708 17.9166 7.08333C17.9166 9.48958 15.9479 11.4583 13.5416 11.4583ZM13.9104 8.85977L16.2164 5.77929L16.2196 5.78089C16.4172 5.51739 16.3638 5.14358 16.1003 4.94596C15.8368 4.74834 15.463 4.80174 15.2654 5.06524L13.093 7.96202C13.0586 8.00844 13.0056 8.03753 12.948 8.04166C12.8904 8.04578 12.8338 8.02454 12.7932 7.98349L11.7595 6.94978C11.6088 6.79907 11.3891 6.74021 11.1832 6.79538C10.9774 6.85054 10.8166 7.01134 10.7614 7.21721C10.7062 7.42308 10.7651 7.64274 10.9158 7.79345L12.1086 8.9862C12.3309 9.21032 12.6334 9.33653 12.949 9.33686H13.0357C13.3831 9.31369 13.7028 9.13929 13.9104 8.85977Z" />
</svg>