<!--character:$550:1367-->
  <svg width="24" height="24" viewBox="0 0 24 24" >
<path d="M17.7433 15.3333C17.7433 16 18.3266 16.5833 18.9933 16.5833C19.41 16.5833 19.8266 16.9167 19.8266 17.4167C19.8266 17.9167 19.4933 18.25 18.9933 18.25H3.99331C3.49331 18.25 3.15997 17.9167 3.15997 17.4167C3.15997 16.9167 3.49331 16.5833 3.99331 16.5833C4.65997 16.5833 5.24331 16 5.24331 15.3333V11.25C5.07664 8 7.40997 5.16667 10.66 4.58333V2.83333C10.66 2.33333 10.9933 2 11.4933 2C11.9933 2 12.3266 2.33333 12.3266 2.83333V3.25011C10.71 4.43255 9.65997 6.34365 9.65997 8.5C9.65997 12.0899 12.5701 15 16.16 15C16.7061 15 17.2365 14.9326 17.7433 14.8058V15.3333Z" />
<path d="M13.3266 19.5H9.57664C9.49331 19.5 9.40997 19.5833 9.40997 19.6667V19.9167C9.40997 21.0833 10.3266 22 11.4933 22C12.66 22 13.5766 21.0833 13.5766 19.9167V19.6667C13.4933 19.5833 13.41 19.5 13.3266 19.5Z" />
<path d="M16.25 13.75C13.3625 13.75 11 11.3875 11 8.5C11 5.6125 13.3625 3.25 16.25 3.25C19.1375 3.25 21.5 5.6125 21.5 8.5C21.5 11.3875 19.1375 13.75 16.25 13.75ZM16.6925 10.6317L19.4597 6.93516L19.4635 6.93707C19.7006 6.62087 19.6365 6.1723 19.3204 5.93516C19.0042 5.69801 18.5556 5.76209 18.3184 6.07829L15.7116 9.55443C15.6703 9.61014 15.6068 9.64504 15.5376 9.64999C15.4685 9.65495 15.4006 9.62945 15.3518 9.5802L14.1114 8.33974C13.9305 8.15889 13.6669 8.08826 13.4199 8.15446C13.1729 8.22065 12.9799 8.41361 12.9137 8.66066C12.8475 8.9077 12.9181 9.17129 13.099 9.35214L14.5303 10.7834C14.797 11.0524 15.1601 11.2038 15.5389 11.2042H15.6429C16.0597 11.1764 16.4434 10.9671 16.6925 10.6317Z" />
</svg>