<!--character:9613-->
  <svg width="20" height="20" viewBox="0 0 20 20" >
<path d="M2.84816 18.1299C2.7171 18.2583 2.54051 18.3297 2.35694 18.3285C2.17338 18.3297 1.99678 18.2583 1.86572 18.1299C1.6001 17.8564 1.6001 17.4214 1.86572 17.1479L3.80629 15.2083H3.74654C3.36281 15.2083 3.05174 14.8974 3.05174 14.5139C3.05174 14.1304 3.36281 13.8194 3.74654 13.8194C4.32212 13.8194 4.78873 13.3531 4.78873 12.7778V9.40069C4.70583 6.67595 6.6234 4.29789 9.3049 3.8V2.36111C9.3049 1.97758 9.61598 1.66666 9.9997 1.66666C10.3834 1.66666 10.6945 1.97758 10.6945 2.36111V3.8C11.829 3.9737 12.8707 4.5276 13.6488 5.37083L17.1512 1.87014C17.4226 1.59904 17.8624 1.59904 18.1337 1.87014C18.3997 2.14347 18.3997 2.57875 18.1337 2.85208L2.84816 18.1299Z" />
<path d="M16.2529 15.2083C16.6366 15.2083 16.9477 14.8974 16.9477 14.5139C16.9477 14.1304 16.6366 13.8194 16.2529 13.8194C15.6773 13.8194 15.2107 13.3531 15.2107 12.7778V9.40069C15.2111 8.7843 15.1173 8.17146 14.9328 7.58333L7.30459 15.2083H16.2529Z" />
<path d="M11.7256 16.4042C11.716 16.3163 11.6417 16.2498 11.5533 16.25H8.44614C8.3577 16.2501 8.28335 16.3164 8.27313 16.4042C8.26614 16.4683 8.26266 16.5327 8.26271 16.5972C8.26271 17.556 9.04039 18.3333 9.9997 18.3333C10.959 18.3333 11.7367 17.556 11.7367 16.5972C11.7365 16.5327 11.7328 16.4683 11.7256 16.4042Z" />
</svg>