<!-- character:0:1269 -->
  <svg width="20" height="20" viewBox="0 0 20 20" >
<path   d="M2.84835 18.1299C2.71729 18.2583 2.54069 18.3297 2.35713 18.3285C2.17357 18.3297 1.99697 18.2583 1.86591 18.1299C1.60028 17.8564 1.60028 17.4214 1.86591 17.1479L3.80647 15.2084H3.74672C3.36299 15.2084 3.05192 14.8974 3.05192 14.5139C3.05192 14.1304 3.36299 13.8195 3.74672 13.8195C4.32231 13.8195 4.78891 13.3531 4.78891 12.7778V9.40071C4.70602 6.67597 6.62358 4.29792 9.30509 3.80002V2.36113C9.30509 1.9776 9.61616 1.66669 9.99988 1.66669C10.3836 1.66669 10.6947 1.9776 10.6947 2.36113V3.80002C11.8291 3.97372 12.8709 4.52762 13.649 5.37085L17.1514 1.87016C17.4227 1.59906 17.8625 1.59906 18.1339 1.87016C18.3999 2.14349 18.3999 2.57877 18.1339 2.8521L2.84835 18.1299ZM16.253 15.2084C16.6368 15.2084 16.9478 14.8974 16.9478 14.5139C16.9478 14.1304 16.6368 13.8195 16.253 13.8195C15.6775 13.8195 15.2109 13.3531 15.2109 12.7778V9.40071C15.2112 8.78432 15.1175 8.17148 14.9329 7.58335L7.30477 15.2084H16.253ZM11.7258 16.4042C11.7162 16.3163 11.6419 16.2499 11.5534 16.25H8.44632C8.35788 16.2501 8.28353 16.3164 8.27331 16.4042C8.26632 16.4683 8.26284 16.5327 8.26289 16.5972C8.26289 17.5561 9.04057 18.3334 9.99988 18.3334C10.9592 18.3334 11.7369 17.5561 11.7369 16.5972C11.7367 16.5327 11.733 16.4683 11.7258 16.4042Z" />
</svg>