<!--character:8536-->
  <svg width="20" height="20" viewBox="0 0 20 20" >
<path d="M14.7861 12.7778C14.7861 13.3333 15.2722 13.8194 15.8277 13.8194C16.175 13.8194 16.5222 14.0972 16.5222 14.5139C16.5222 14.9306 16.2444 15.2083 15.8277 15.2083H3.32775C2.91108 15.2083 2.6333 14.9306 2.6333 14.5139C2.6333 14.0972 2.91108 13.8194 3.32775 13.8194C3.8833 13.8194 4.36941 13.3333 4.36941 12.7778V9.375C4.23052 6.66666 6.17497 4.30555 8.8833 3.81944V2.36111C8.8833 1.94444 9.16108 1.66666 9.57774 1.66666C9.99441 1.66666 10.2722 1.94444 10.2722 2.36111V2.70842C8.92499 3.69379 8.04997 5.28637 8.04997 7.08333C8.04997 10.0749 10.4751 12.5 13.4666 12.5C13.9217 12.5 14.3637 12.4439 14.7861 12.3382V12.7778Z" />
<path d="M11.1055 16.25H7.98052C7.91108 16.25 7.84163 16.3194 7.84163 16.3889V16.5972C7.84163 17.5694 8.60552 18.3333 9.57775 18.3333C10.55 18.3333 11.3139 17.5694 11.3139 16.5972V16.3889C11.2444 16.3194 11.175 16.25 11.1055 16.25Z" />
<path d="M13.5416 2.70833C11.1254 2.70833 9.16663 4.66709 9.16663 7.08333C9.16663 9.49958 11.1254 11.4583 13.5416 11.4583C15.9579 11.4583 17.9166 9.49958 17.9166 7.08333C17.9137 4.66831 15.9567 2.7113 13.5416 2.70833ZM16.5705 7.08333C16.5705 7.45506 16.2691 7.75641 15.8974 7.75641H14.5512C14.3654 7.75641 14.2147 7.90708 14.2147 8.09295V9.4391C14.2147 9.81083 13.9134 10.1122 13.5416 10.1122C13.1699 10.1122 12.8686 9.81083 12.8686 9.4391V8.09295C12.8686 7.90708 12.7179 7.75641 12.532 7.75641H11.1859C10.8141 7.75641 10.5128 7.45506 10.5128 7.08333C10.5128 6.7116 10.8141 6.41025 11.1859 6.41025H12.532C12.7179 6.41025 12.8686 6.25958 12.8686 6.07372V4.72756C12.8686 4.35583 13.1699 4.05448 13.5416 4.05448C13.9134 4.05448 14.2147 4.35583 14.2147 4.72756V6.07372C14.2147 6.25958 14.3654 6.41025 14.5512 6.41025H15.8974C16.2691 6.41025 16.5705 6.7116 16.5705 7.08333Z" />
</svg>