<!--character:6639-->
  <svg width="20" height="20" viewBox="0 0 20 20" >
<path d="M15.2026 12.7778C15.2026 13.3531 15.669 13.8194 16.2442 13.8194C16.6278 13.8194 16.9387 14.1304 16.9387 14.5139C16.9387 14.8974 16.6278 15.2083 16.2442 15.2083H3.74425C3.36072 15.2083 3.0498 14.8974 3.0498 14.5139C3.0498 14.1304 3.36072 13.8194 3.74425 13.8194C4.31955 13.8194 4.78592 13.3531 4.78592 12.7778V9.40139C4.70306 6.67664 6.61966 4.29859 9.2998 3.80069V2.36111C9.2998 1.97758 9.61072 1.66666 9.99425 1.66666C10.3778 1.66666 10.6887 1.97758 10.6887 2.36111V3.80069C13.3688 4.29859 15.2854 6.67664 15.2026 9.40139V12.7778Z" />
<path d="M8.44147 16.25H11.547C11.6355 16.2495 11.71 16.3162 11.7192 16.4042C11.7268 16.4682 11.7305 16.5327 11.7304 16.5972C11.7304 17.556 10.9531 18.3333 9.99425 18.3333C9.03542 18.3333 8.25814 17.556 8.25814 16.5972C8.25797 16.5327 8.26168 16.4682 8.26925 16.4042C8.27913 16.3165 8.35323 16.2501 8.44147 16.25Z" />
</svg>