<!-- character:0:1297 -->
  <svg width="20" height="20" viewBox="0 0 20 20" >
<path   d="M14.7861 12.7778C14.7861 13.3334 15.2722 13.8195 15.8278 13.8195C16.175 13.8195 16.5222 14.0972 16.5222 14.5139C16.5222 14.9306 16.2445 15.2084 15.8278 15.2084H3.32781C2.91114 15.2084 2.63336 14.9306 2.63336 14.5139C2.63336 14.0972 2.91114 13.8195 3.32781 13.8195C3.88336 13.8195 4.36947 13.3334 4.36947 12.7778V9.37502C4.23058 6.66669 6.17503 4.30558 8.88336 3.81946V2.36113C8.88336 1.94446 9.16114 1.66669 9.57781 1.66669C9.99447 1.66669 10.2723 1.94446 10.2723 2.36113V2.70844C8.92505 3.69381 8.05003 5.2864 8.05003 7.08335C8.05003 10.0749 10.4752 12.5 13.4667 12.5C13.9218 12.5 14.3638 12.4439 14.7861 12.3382V12.7778ZM11.1056 16.25H7.98058C7.91114 16.25 7.8417 16.3195 7.8417 16.3889V16.5972C7.8417 17.5695 8.60558 18.3334 9.57781 18.3334C10.55 18.3334 11.3139 17.5695 11.3139 16.5972V16.3889C11.2445 16.3195 11.175 16.25 11.1056 16.25ZM13.5417 2.70835C11.1255 2.70835 9.1667 4.66711 9.1667 7.08335C9.1667 9.4996 11.1255 11.4584 13.5417 11.4584C15.9579 11.4584 17.9167 9.4996 17.9167 7.08335C17.9137 4.66834 15.9567 2.71132 13.5417 2.70835ZM16.5705 7.08335C16.5705 7.45508 16.2692 7.75643 15.8975 7.75643H14.5513C14.3654 7.75643 14.2148 7.9071 14.2148 8.09297V9.43912C14.2148 9.81085 13.9134 10.1122 13.5417 10.1122C13.17 10.1122 12.8686 9.81085 12.8686 9.43912V8.09297C12.8686 7.9071 12.7179 7.75643 12.5321 7.75643H11.1859C10.8142 7.75643 10.5128 7.45508 10.5128 7.08335C10.5128 6.71162 10.8142 6.41028 11.1859 6.41028H12.5321C12.7179 6.41028 12.8686 6.2596 12.8686 6.07374V4.72758C12.8686 4.35585 13.17 4.05451 13.5417 4.05451C13.9134 4.05451 14.2148 4.35585 14.2148 4.72758V6.07374C14.2148 6.2596 14.3654 6.41028 14.5513 6.41028H15.8975C16.2692 6.41028 16.5705 6.71162 16.5705 7.08335Z" />
</svg>