<!--character:9363-->
  <svg width="24" height="24" viewBox="0 0 24 24" >
<path d="M17.7433 15.3333C17.7433 16 18.3266 16.5833 18.9933 16.5833C19.41 16.5833 19.8266 16.9167 19.8266 17.4167C19.8266 17.9167 19.4933 18.25 18.9933 18.25H3.99329C3.49329 18.25 3.15996 17.9167 3.15996 17.4167C3.15996 16.9167 3.49329 16.5833 3.99329 16.5833C4.65996 16.5833 5.24329 16 5.24329 15.3333V11.25C5.07663 8 7.40996 5.16666 10.66 4.58333V2.83333C10.66 2.33333 10.9933 2 11.4933 2C11.9933 2 12.3266 2.33333 12.3266 2.83333V3.25011C10.71 4.43255 9.65996 6.34365 9.65996 8.5C9.65996 12.0898 12.5701 15 16.16 15C16.7061 15 17.2365 14.9326 17.7433 14.8058V15.3333Z" />
<path d="M13.3266 19.5H9.57663C9.4933 19.5 9.40996 19.5833 9.40996 19.6667V19.9167C9.40996 21.0833 10.3266 22 11.4933 22C12.66 22 13.5766 21.0833 13.5766 19.9167V19.6667C13.4933 19.5833 13.41 19.5 13.3266 19.5Z" />
<path d="M16.25 13.75C13.3625 13.75 11 11.3875 11 8.5C11 5.6125 13.3625 3.25 16.25 3.25C19.1375 3.25 21.5 5.6125 21.5 8.5C21.5 11.3875 19.1375 13.75 16.25 13.75ZM16.6925 10.6317L19.4597 6.93515L19.4635 6.93706C19.7006 6.62087 19.6365 6.1723 19.3203 5.93515C19.0041 5.69801 18.5556 5.76209 18.3184 6.07828L15.7116 9.55443C15.6703 9.61013 15.6068 9.64504 15.5376 9.64999C15.4685 9.65494 15.4006 9.62945 15.3518 9.58019L14.1114 8.33973C13.9305 8.15889 13.6669 8.08826 13.4199 8.15445C13.1728 8.22065 12.9799 8.41361 12.9137 8.66065C12.8475 8.9077 12.9181 9.17129 13.099 9.35214L14.5303 10.7834C14.797 11.0524 15.16 11.2038 15.5389 11.2042H15.6429C16.0597 11.1764 16.4434 10.9671 16.6925 10.6317Z" />
</svg>