<!--character:9535-->
  <svg width="24" height="24" viewBox="0 0 24 24" >
<path d="M17.7434 15.3333C17.7434 16 18.3267 16.5833 18.9934 16.5833C19.41 16.5833 19.8267 16.9167 19.8267 17.4167C19.8267 17.9167 19.4934 18.25 18.9934 18.25H3.99337C3.49337 18.25 3.16003 17.9167 3.16003 17.4167C3.16003 16.9167 3.49337 16.5833 3.99337 16.5833C4.66003 16.5833 5.24337 16 5.24337 15.3333V11.25C5.0767 8 7.41003 5.16666 10.66 4.58333V2.83333C10.66 2.33333 10.9934 2 11.4934 2C11.9934 2 12.3267 2.33333 12.3267 2.83333V3.25011C10.7101 4.43255 9.66003 6.34365 9.66003 8.5C9.66003 12.0898 12.5702 15 16.16 15C16.7062 15 17.2366 14.9326 17.7434 14.8058V15.3333Z" />
<path d="M13.3267 19.5H9.5767C9.49337 19.5 9.41003 19.5833 9.41003 19.6667V19.9167C9.41003 21.0833 10.3267 22 11.4934 22C12.66 22 13.5767 21.0833 13.5767 19.9167V19.6667C13.4934 19.5833 13.41 19.5 13.3267 19.5Z" />
<path d="M16.25 3.25C13.3505 3.25 11 5.6005 11 8.5C11 11.3995 13.3505 13.75 16.25 13.75C19.1495 13.75 21.5 11.3995 21.5 8.5C21.4965 5.60198 19.1481 3.25356 16.25 3.25ZM19.8846 8.5C19.8846 8.94607 19.523 9.30769 19.077 9.30769H17.4616C17.2385 9.30769 17.0577 9.4885 17.0577 9.71154V11.3269C17.0577 11.773 16.6961 12.1346 16.25 12.1346C15.804 12.1346 15.4423 11.773 15.4423 11.3269V9.71154C15.4423 9.4885 15.2615 9.30769 15.0385 9.30769H13.4231C12.977 9.30769 12.6154 8.94607 12.6154 8.5C12.6154 8.05392 12.977 7.69231 13.4231 7.69231H15.0385C15.2615 7.69231 15.4423 7.5115 15.4423 7.28846V5.67307C15.4423 5.227 15.804 4.86538 16.25 4.86538C16.6961 4.86538 17.0577 5.227 17.0577 5.67307V7.28846C17.0577 7.5115 17.2385 7.69231 17.4616 7.69231H19.077C19.523 7.69231 19.8846 8.05392 19.8846 8.5Z" />
</svg>