<!--character:2737-->
  <svg width="20" height="20" viewBox="0 0 20 20" >
<path d="M9.99745 6.18055C8.27156 6.18055 6.87245 7.57966 6.87245 9.30555C6.87245 11.0314 8.27156 12.4306 9.99745 12.4306C11.7233 12.4306 13.1225 11.0314 13.1225 9.30555C13.1205 7.58046 11.7225 6.18247 9.99745 6.18055ZM11.6516 8.81041L10.3065 10.6035C10.1529 10.8012 9.92239 10.9241 9.67265 10.9415C9.42291 10.9588 9.1776 10.869 8.99814 10.6944L8.3037 10C8.10622 9.79573 8.10889 9.47088 8.3097 9.26988C8.51051 9.06888 8.83535 9.0659 9.03981 9.26319L9.59537 9.81875L10.8204 8.18611C10.932 8.03725 11.1146 7.95926 11.2993 7.98151C11.4841 8.00377 11.6429 8.1229 11.716 8.29401C11.7891 8.46513 11.7653 8.66225 11.6537 8.81111L11.6516 8.81041Z" />
<path d="M13.4697 1.66666H6.52523C5.37463 1.66666 4.44189 2.5994 4.44189 3.75V16.25C4.44189 17.4006 5.37463 18.3333 6.52523 18.3333H13.4697C14.6203 18.3333 15.553 17.4006 15.553 16.25V3.75C15.553 2.5994 14.6203 1.66666 13.4697 1.66666ZM14.1641 14.8611C14.1641 15.0529 14.0087 15.2083 13.8169 15.2083H6.17801C5.98624 15.2083 5.83078 15.0529 5.83078 14.8611V4.09722C5.83078 3.90545 5.98624 3.75 6.17801 3.75H13.8169C14.0087 3.75 14.1641 3.90545 14.1641 4.09722V14.8611Z" />
</svg>