<!-- character:0:634 -->
  <svg width="20" height="20" viewBox="0 0 20 20" >
<path   d="M13.4694 1.66675H6.52498C5.37439 1.66675 4.44165 2.59949 4.44165 3.75008V16.2501C4.44165 17.4007 5.37439 18.3334 6.52498 18.3334H13.4694C14.62 18.3334 15.5528 17.4007 15.5528 16.2501V3.75008C15.5528 2.59949 14.62 1.66675 13.4694 1.66675ZM14.1639 14.8612C14.1639 15.053 14.0084 15.2084 13.8167 15.2084H6.17776C5.986 15.2084 5.83054 15.053 5.83054 14.8612V4.0973C5.83054 3.90554 5.986 3.75008 6.17776 3.75008H13.8167C14.0084 3.75008 14.1639 3.90554 14.1639 4.0973V14.8612ZM6.52498 9.30564C6.52498 7.38798 8.07955 5.83341 9.99721 5.83341C11.9139 5.83571 13.4671 7.38893 13.4694 9.30564C13.4694 11.2233 11.9149 12.7779 9.99721 12.7779C8.07955 12.7779 6.52498 11.2233 6.52498 9.30564ZM10.6305 7.32092C10.2029 7.18629 9.74367 7.18969 9.31804 7.33064C8.69979 7.53339 8.21614 8.02013 8.01734 8.63966C7.88098 9.06201 7.87928 9.51631 8.01248 9.93966C8.02957 9.9991 8.07665 10.0452 8.13644 10.061C8.19623 10.0768 8.25993 10.06 8.30415 10.0167L10.7076 7.61258C10.7509 7.56836 10.7676 7.50466 10.7518 7.44487C10.736 7.38509 10.69 7.33801 10.6305 7.32092ZM10.6757 11.2806C10.2503 11.4216 9.79131 11.425 9.36387 11.2904C9.30444 11.2733 9.25837 11.2262 9.24257 11.1664C9.22676 11.1066 9.24356 11.0429 9.28679 10.9987L11.6903 8.59453C11.7345 8.5513 11.7982 8.5345 11.858 8.5503C11.9178 8.5661 11.9648 8.61217 11.9819 8.67161C12.1152 9.09499 12.1133 9.54939 11.9764 9.97161C11.7782 10.5915 11.2943 11.0785 10.6757 11.2806Z" />
</svg>