<!--category:travel-->
<!--character:E00F-->
<!--added:0.11-->
<svg width="24" height="24" viewBox="0 0 24 24" xmlns="http://www.w3.org/2000/svg"><path d="M16.1633 2c1.3807 0 2.5 1.1193 2.5 2.5v15c0 1.3807-1.1193 2.5-2.5 2.5H7.83c-1.3807 0-2.5-1.1193-2.5-2.5v-15c0-1.3807 1.1193-2.5 2.5-2.5h8.3333zm.8334 15.8333V4.9167A.4167.4167 0 0 0 16.58 4.5H7.4133a.4167.4167 0 0 0-.4166.4167v12.9166c0 .2302.1865.4167.4166.4167H16.58a.4167.4167 0 0 0 .4167-.4167zm-5-10.4166c2.07.0023 3.7477 1.6799 3.75 3.75 0 2.071-1.679 3.75-3.75 3.75-2.0711 0-3.75-1.679-3.75-3.75 0-2.0711 1.6789-3.75 3.75-3.75zm1.985 3.1558l.0025.0008a.625.625 0 1 0-1-.75l-1.47 1.9592-.6667-.6667A.625.625 0 0 0 9.9642 12l.8333.8333a1.0558 1.0558 0 0 0 1.57-.1091l1.6142-2.1517z"/></svg>