<!--character:7068-->
  <svg width="24" height="24" viewBox="0 0 24 24" >
<path d="M7.82969 11.1667C7.82969 8.86548 9.69517 7 11.9964 7C14.2964 7.00275 16.1603 8.86662 16.163 11.1667C16.163 13.4678 14.2975 15.3333 11.9964 15.3333C9.69517 15.3333 7.82969 13.4678 7.82969 11.1667ZM12.7564 8.785C12.2431 8.62344 11.6921 8.62752 11.1814 8.79666C10.4395 9.03997 9.85908 9.62406 9.62052 10.3675C9.45688 10.8743 9.45484 11.4195 9.61469 11.9275C9.6352 11.9988 9.69169 12.0541 9.76344 12.0731C9.83519 12.092 9.91162 12.0719 9.96469 12.02L12.8489 9.135C12.9007 9.08193 12.9209 9.0055 12.9019 8.93375C12.883 8.862 12.8277 8.80551 12.7564 8.785ZM12.8105 13.5367C13.5529 13.2941 14.1335 12.7097 14.3714 11.9658C14.5357 11.4592 14.538 10.9139 14.378 10.4058C14.3575 10.3345 14.301 10.2792 14.2293 10.2603C14.1575 10.2413 14.0811 10.2615 14.028 10.3133L11.1439 13.1983C11.092 13.2514 11.0718 13.3278 11.0908 13.3996C11.1097 13.4713 11.165 13.5278 11.2364 13.5483C11.7493 13.7099 12.3 13.7058 12.8105 13.5367Z" />
<path d="M16.163 2H7.82969C6.44898 2 5.32969 3.11929 5.32969 4.5V19.5C5.32969 20.8807 6.44898 22 7.82969 22H16.163C17.5437 22 18.663 20.8807 18.663 19.5V4.5C18.663 3.11929 17.5437 2 16.163 2ZM16.9964 17.8333C16.9964 18.0634 16.8098 18.25 16.5797 18.25H7.41302C7.1829 18.25 6.99635 18.0634 6.99635 17.8333V4.91666C6.99635 4.68654 7.1829 4.5 7.41302 4.5H16.5797C16.8098 4.5 16.9964 4.68654 16.9964 4.91666V17.8333Z" />
</svg>