<!--character:8410-->
  <svg width="24" height="24" viewBox="0 0 24 24" >
<path d="M11.9967 7.41667C9.9256 7.41667 8.24667 9.09561 8.24667 11.1667C8.24667 13.2377 9.9256 14.9167 11.9967 14.9167C14.0677 14.9167 15.7467 13.2377 15.7467 11.1667C15.7444 9.09656 14.0668 7.41897 11.9967 7.41667ZM13.9817 10.5725L12.3675 12.7242C12.1832 12.9614 11.9066 13.1089 11.6069 13.1298C11.3072 13.1506 11.0128 13.0428 10.7975 12.8333L9.96417 12C9.72719 11.7549 9.73039 11.3651 9.97136 11.1239C10.2123 10.8827 10.6022 10.8791 10.8475 11.1158L11.5142 11.7825L12.9842 9.82334C13.1181 9.64471 13.3372 9.55112 13.5589 9.57783C13.7806 9.60454 13.9712 9.74749 14.0589 9.95283C14.1466 10.1582 14.1181 10.3947 13.9842 10.5733L13.9817 10.5725Z" />
<path d="M16.1633 2.00001H7.83C6.44929 2.00001 5.33 3.11929 5.33 4.50001V19.5C5.33 20.8807 6.44929 22 7.83 22H16.1633C17.544 22 18.6633 20.8807 18.6633 19.5V4.50001C18.6633 3.11929 17.544 2.00001 16.1633 2.00001ZM16.9967 17.8333C16.9967 18.0635 16.8101 18.25 16.58 18.25H7.41333C7.18321 18.25 6.99666 18.0635 6.99666 17.8333V4.91667C6.99666 4.68655 7.18321 4.50001 7.41333 4.50001H16.58C16.8101 4.50001 16.9967 4.68655 16.9967 4.91667V17.8333Z" />
</svg>