<!--character:5220-->
  <svg width="24" height="24" viewBox="0 0 24 24" >
<path d="M11.9966 7.41669C9.92554 7.41669 8.24661 9.09562 8.24661 11.1667C8.24661 13.2378 9.92554 14.9167 11.9966 14.9167C14.0677 14.9167 15.7466 13.2378 15.7466 11.1667C15.7443 9.09657 14.0667 7.41898 11.9966 7.41669ZM13.9816 10.5725L12.3675 12.7242C12.1832 12.9615 11.9065 13.109 11.6069 13.1298C11.3072 13.1506 11.0128 13.0428 10.7975 12.8334L9.96412 12C9.72714 11.7549 9.73034 11.3651 9.97132 11.1239C10.2123 10.8827 10.6021 10.8791 10.8475 11.1159L11.5141 11.7825L12.9841 9.82337C13.1181 9.64474 13.3372 9.55115 13.5589 9.57786C13.7806 9.60457 13.9712 9.74752 14.0589 9.95286C14.1466 10.1582 14.1181 10.3947 13.9841 10.5734L13.9816 10.5725Z" />
<path d="M16.1633 2H7.82996C6.44924 2 5.32996 3.11929 5.32996 4.5V19.5C5.32996 20.8807 6.44924 22 7.82996 22H16.1633C17.544 22 18.6633 20.8807 18.6633 19.5V4.5C18.6633 3.11929 17.544 2 16.1633 2ZM16.9966 17.8333C16.9966 18.0635 16.8101 18.25 16.5799 18.25H7.41328C7.18316 18.25 6.99661 18.0635 6.99661 17.8333V4.91667C6.99661 4.68655 7.18316 4.5 7.41328 4.5H16.5799C16.8101 4.5 16.9966 4.68655 16.9966 4.91667V17.8333Z" />
</svg>