<!--character:97-->
  <svg width="24" height="24" viewBox="0 0 24 24" >
<path d="M16.4569 5.64314C16.4569 5.19626 16.3466 4.91062 16.2208 4.72192C16.0919 4.5286 15.9147 4.39062 15.7147 4.2906C15.5116 4.18909 15.2997 4.13382 15.132 4.10587C15.05 4.09221 14.9832 4.08618 14.9399 4.08309C14.9186 4.08156 14.9033 4.08092 14.8952 4.08064H9.1131C8.66622 4.08064 8.38058 4.19003 8.19188 4.31583C7.99857 4.44473 7.86059 4.62201 7.76056 4.82202C7.65906 5.02503 7.60378 5.23703 7.57583 5.4047C7.56217 5.48667 7.55614 5.55346 7.55304 5.59676C7.55153 5.61799 7.55088 5.63334 7.5506 5.64152V18.3612C7.5506 18.8081 7.65999 19.0938 7.78579 19.2825C7.91469 19.4758 8.09197 19.6138 8.29198 19.7138C8.49499 19.8153 8.70698 19.8706 8.87466 19.8985C8.95663 19.9122 9.02342 19.9182 9.06672 19.9213C9.08795 19.9228 9.1033 19.9235 9.11147 19.9237H14.8944C15.341 19.9237 15.6261 19.8143 15.8148 19.6886C16.0082 19.5596 16.1468 19.3825 16.2469 19.1824C16.3484 18.9794 16.4029 18.7673 16.4308 18.5997C16.4445 18.5177 16.4505 18.4509 16.4536 18.4076C16.4551 18.3864 16.4558 18.371 16.456 18.3629L16.4569 18.3588V5.64314ZM17.9567 18.3612H17.2064C17.9365 18.3612 17.9562 18.3609 17.9567 18.3612V18.38C17.9566 18.3885 17.9563 18.3996 17.9559 18.4125C17.955 18.4383 17.9532 18.4726 17.9502 18.5142C17.9442 18.5974 17.9328 18.7115 17.9103 18.8463C17.866 19.1121 17.7755 19.4779 17.588 19.8529C17.399 20.2309 17.1042 20.6323 16.6473 20.9369C16.1857 21.2447 15.6036 21.4243 14.8944 21.4244H9.1131V20.6741C9.1131 21.4094 9.11348 21.4241 9.1131 21.4244H9.10496C9.10196 21.4244 9.09843 21.4236 9.09438 21.4236C9.08585 21.4234 9.07473 21.4232 9.06183 21.4228C9.03608 21.4219 9.00175 21.4209 8.96011 21.4179C8.87694 21.4119 8.76281 21.4005 8.62808 21.378C8.36221 21.3337 7.99642 21.2432 7.6214 21.0557C7.24337 20.8667 6.84208 20.5712 6.53742 20.1142C6.22975 19.6525 6.04995 19.0705 6.04995 18.3612V5.64314H6.80028C6.065 5.64314 6.05023 5.64352 6.04995 5.64314V5.63501C6.04998 5.632 6.0507 5.62847 6.05076 5.62443C6.0509 5.61589 6.05115 5.60478 6.05158 5.59187C6.05244 5.56612 6.05349 5.5318 6.05646 5.49015C6.0624 5.40698 6.07388 5.29285 6.09634 5.15812C6.14065 4.89225 6.23113 4.52646 6.4186 4.15144C6.60762 3.77341 6.90318 3.37212 7.36017 3.06746C7.82182 2.75979 8.40389 2.57999 9.1131 2.57999H14.8944V2.95841C14.8945 2.58032 14.894 2.57999 14.8944 2.57999H14.9017C14.9048 2.58002 14.9088 2.58074 14.9131 2.58081C14.9215 2.58094 14.9321 2.5812 14.9448 2.58162C14.9705 2.58248 15.005 2.58354 15.0465 2.5865C15.1297 2.59244 15.2439 2.60394 15.3786 2.62638C15.6445 2.6707 16.011 2.7611 16.3861 2.94864C16.764 3.13767 17.1646 3.43335 17.4692 3.89021C17.7769 4.35187 17.9567 4.9339 17.9567 5.64314V18.3612Z" />
<path d="M17.2064 15.6842C17.6206 15.6842 17.9567 16.0203 17.9567 16.4345C17.9567 16.8487 17.6206 17.1848 17.2064 17.1848H6.80028C6.38606 17.1848 6.04995 16.8487 6.04995 16.4345C6.04995 16.0203 6.38606 15.6842 6.80028 15.6842H17.2064Z" />
<path d="M13.9818 8.96264C14.2796 8.67477 14.7551 8.68277 15.043 8.98055C15.3308 9.27835 15.3228 9.75385 15.025 10.0417L11.7096 13.2457C11.5967 13.3549 11.4641 13.4401 11.3198 13.498C11.1756 13.5558 11.022 13.5858 10.8673 13.5859C10.7126 13.5859 10.5583 13.5558 10.414 13.498C10.2702 13.4403 10.1377 13.3554 10.025 13.2465L8.98257 12.239C8.6847 11.9512 8.67614 11.4765 8.96385 11.1786C9.25154 10.8808 9.72631 10.8724 10.0242 11.1599L10.8665 11.9737L13.9818 8.96264Z" />
</svg>