<!--character:7055-->
  <svg width="20" height="20" viewBox="0 0 20 20" >
<path d="M6.52474 9.30555C6.52474 7.3879 8.07931 5.83333 9.99696 5.83333C11.9137 5.83563 13.4669 7.38885 13.4692 9.30555C13.4692 11.2232 11.9146 12.7778 9.99696 12.7778C8.07931 12.7778 6.52474 11.2232 6.52474 9.30555ZM10.6303 7.32083C10.2026 7.1862 9.74343 7.1896 9.31779 7.33055C8.69955 7.53331 8.2159 8.02005 8.0171 8.63958C7.88073 9.06193 7.87903 9.51622 8.01224 9.93958C8.02933 9.99901 8.07641 10.0451 8.1362 10.0609C8.19599 10.0767 8.25968 10.0599 8.30391 10.0167L10.7074 7.6125C10.7506 7.56827 10.7674 7.50458 10.7516 7.44479C10.7358 7.385 10.6897 7.33792 10.6303 7.32083ZM10.6754 11.2806C11.2941 11.0784 11.7779 10.5914 11.9761 9.97153C12.113 9.5493 12.115 9.0949 11.9817 8.67153C11.9646 8.61209 11.9175 8.56602 11.8577 8.55022C11.7979 8.53442 11.7342 8.55121 11.69 8.59444L9.28654 10.9986C9.24332 11.0428 9.22652 11.1065 9.24232 11.1663C9.25812 11.2261 9.30419 11.2732 9.36363 11.2903C9.79106 11.4249 10.25 11.4215 10.6754 11.2806Z" />
<path d="M13.4692 1.66666H6.52474C5.37415 1.66666 4.44141 2.5994 4.44141 3.75V16.25C4.44141 17.4006 5.37415 18.3333 6.52474 18.3333H13.4692C14.6198 18.3333 15.5525 17.4006 15.5525 16.25V3.75C15.5525 2.5994 14.6198 1.66666 13.4692 1.66666ZM14.1636 14.8611C14.1636 15.0529 14.0082 15.2083 13.8164 15.2083H6.17752C5.98575 15.2083 5.83029 15.0529 5.83029 14.8611V4.09722C5.83029 3.90545 5.98575 3.75 6.17752 3.75H13.8164C14.0082 3.75 14.1636 3.90545 14.1636 4.09722V14.8611Z" />
</svg>