<!--character:8537-->
  <svg width="24" height="24" viewBox="0 0 24 24" >
<path d="M11.9969 7.41666C9.92587 7.41666 8.24694 9.0956 8.24694 11.1667C8.24694 13.2377 9.92587 14.9167 11.9969 14.9167C14.068 14.9167 15.7469 13.2377 15.7469 11.1667C15.7446 9.09655 14.0671 7.41896 11.9969 7.41666ZM13.9819 10.5725L12.3678 12.7242C12.1835 12.9614 11.9069 13.1089 11.6072 13.1298C11.3075 13.1506 11.0131 13.0428 10.7978 12.8333L9.96444 12C9.72746 11.7549 9.73067 11.3651 9.97164 11.1239C10.2126 10.8827 10.6024 10.8791 10.8478 11.1158L11.5144 11.7825L12.9844 9.82333C13.1184 9.6447 13.3375 9.55111 13.5592 9.57782C13.7809 9.60453 13.9715 9.74748 14.0592 9.95282C14.1469 10.1582 14.1184 10.3947 13.9844 10.5733L13.9819 10.5725Z" />
<path d="M16.1636 2H7.83027C6.44956 2 5.33027 3.11929 5.33027 4.5V19.5C5.33027 20.8807 6.44956 22 7.83027 22H16.1636C17.5443 22 18.6636 20.8807 18.6636 19.5V4.5C18.6636 3.11929 17.5443 2 16.1636 2ZM16.9969 17.8333C16.9969 18.0634 16.8104 18.25 16.5803 18.25H7.41361C7.18349 18.25 6.99694 18.0634 6.99694 17.8333V4.91666C6.99694 4.68654 7.18349 4.5 7.41361 4.5H16.5803C16.8104 4.5 16.9969 4.68654 16.9969 4.91666V17.8333Z" />
</svg>