<!--character:131:550:1269-->
<svg width="24" height="24" viewBox="0 0 24 24" xmlns="http://www.w3.org/2000/svg"><path d="M16.1633 2c1.3807 0 2.5 1.1193 2.5 2.5v15c0 1.3807-1.1193 2.5-2.5 2.5H7.83c-1.3807 0-2.5-1.1193-2.5-2.5v-15c0-1.3807 1.1193-2.5 2.5-2.5h8.3333zm.8334 15.8333V4.9167A.4167.4167 0 0 0 16.58 4.5H7.4133a.4167.4167 0 0 0-.4166.4167v12.9166c0 .2302.1865.4167.4166.4167H16.58a.4167.4167 0 0 0 .4167-.4167zM11.9967 7c2.3.0028 4.1639 1.8666 4.1666 4.1667 0 2.3012-1.8654 4.1666-4.1666 4.1666-2.3012 0-4.1667-1.8654-4.1667-4.1666C7.83 8.8655 9.6955 7 11.9967 7zm-.815 1.7967a2.4367 2.4367 0 0 0-1.5609 1.5708 2.5683 2.5683 0 0 0-.0058 1.56.2108.2108 0 0 0 .35.0925l2.8842-2.885a.2108.2108 0 0 0-.0925-.35 2.5625 2.5625 0 0 0-1.575.0117zm1.6291 4.74a2.4317 2.4317 0 0 0 1.5609-1.5709 2.5625 2.5625 0 0 0 .0066-1.56.2108.2108 0 0 0-.35-.0925l-2.8841 2.885a.2108.2108 0 0 0 .0925.35 2.56 2.56 0 0 0 1.5741-.0116z"/></svg>
