<!--character:8777-->
  <svg width="24" height="24" viewBox="0 0 24 24" >
<path d="M7.82998 11.1667C7.82998 8.86549 9.69546 7.00001 11.9966 7.00001C14.2967 7.00276 16.1606 8.86663 16.1633 11.1667C16.1633 13.4679 14.2978 15.3333 11.9966 15.3333C9.69546 15.3333 7.82998 13.4679 7.82998 11.1667ZM12.7566 8.78501C12.2434 8.62345 11.6924 8.62753 11.1816 8.79667C10.4397 9.03998 9.85937 9.62407 9.62081 10.3675C9.45717 10.8743 9.45513 11.4195 9.61498 11.9275C9.63549 11.9988 9.69198 12.0541 9.76373 12.0731C9.83548 12.092 9.91191 12.0719 9.96498 12.02L12.8491 9.13501C12.901 9.08194 12.9212 9.00551 12.9022 8.93376C12.8833 8.86201 12.828 8.80552 12.7566 8.78501ZM12.8108 13.5367C13.5532 13.2941 14.1338 12.7097 14.3716 11.9658C14.5359 11.4592 14.5383 10.9139 14.3783 10.4058C14.3578 10.3345 14.3013 10.2792 14.2296 10.2603C14.1578 10.2413 14.0814 10.2615 14.0283 10.3133L11.1441 13.1983C11.0923 13.2514 11.0721 13.3278 11.0911 13.3996C11.11 13.4713 11.1653 13.5278 11.2366 13.5483C11.7496 13.7099 12.3003 13.7058 12.8108 13.5367Z" />
<path d="M16.1633 2.00001H7.82998C6.44927 2.00001 5.32998 3.11929 5.32998 4.50001V19.5C5.32998 20.8807 6.44927 22 7.82998 22H16.1633C17.544 22 18.6633 20.8807 18.6633 19.5V4.50001C18.6633 3.11929 17.544 2.00001 16.1633 2.00001ZM16.9966 17.8333C16.9966 18.0635 16.8101 18.25 16.58 18.25H7.41331C7.18319 18.25 6.99665 18.0635 6.99665 17.8333V4.91667C6.99665 4.68655 7.18319 4.50001 7.41331 4.50001H16.58C16.8101 4.50001 16.9966 4.68655 16.9966 4.91667V17.8333Z" />
</svg>