<!--character:131:550:1269-->
  <svg width="24" height="24" viewBox="0 0 24 24" >
<path   d="M16.1633 2H7.82996C6.44924 2 5.32996 3.11929 5.32996 4.5V19.5C5.32996 20.8807 6.44924 22 7.82996 22H16.1633C17.544 22 18.6633 20.8807 18.6633 19.5V4.5C18.6633 3.11929 17.544 2 16.1633 2ZM16.9966 17.8333C16.9966 18.0635 16.8101 18.25 16.5799 18.25H7.41328C7.18316 18.25 6.99661 18.0635 6.99661 17.8333V4.91667C6.99661 4.68655 7.18316 4.5 7.41328 4.5H16.5799C16.8101 4.5 16.9966 4.68655 16.9966 4.91667V17.8333ZM7.82996 11.1667C7.82996 8.86548 9.69544 7 11.9966 7C14.2967 7.00276 16.1605 8.86662 16.1633 11.1667C16.1633 13.4679 14.2978 15.3333 11.9966 15.3333C9.69544 15.3333 7.82996 13.4679 7.82996 11.1667ZM12.7566 8.785C12.2434 8.62344 11.6924 8.62753 11.1816 8.79667C10.4397 9.03997 9.85936 9.62406 9.6208 10.3675C9.45716 10.8743 9.45512 11.4195 9.61497 11.9275C9.63547 11.9988 9.69197 12.0541 9.76372 12.0731C9.83546 12.092 9.9119 12.0719 9.96497 12.02L12.8491 9.135C12.901 9.08193 12.9212 9.0055 12.9022 8.93375C12.8832 8.862 12.828 8.80551 12.7566 8.785ZM12.8108 13.5366C12.3003 13.7058 11.7496 13.7099 11.2366 13.5483C11.1653 13.5278 11.11 13.4713 11.0911 13.3996C11.0721 13.3278 11.0923 13.2514 11.1441 13.1983L14.0283 10.3133C14.0814 10.2614 14.1578 10.2413 14.2296 10.2602C14.3013 10.2792 14.3578 10.3345 14.3783 10.4058C14.5383 10.9139 14.5359 11.4591 14.3716 11.9658C14.1338 12.7097 13.5531 13.2941 12.8108 13.5366Z" />
</svg>