<!-- character:0:618 -->
  <svg width="20" height="20" viewBox="0 0 20 20" >
<path   d="M13.4694 1.66675H6.52498C5.37439 1.66675 4.44165 2.59949 4.44165 3.75008V16.2501C4.44165 17.4007 5.37439 18.3334 6.52498 18.3334H13.4694C14.62 18.3334 15.5528 17.4007 15.5528 16.2501V3.75008C15.5528 2.59949 14.62 1.66675 13.4694 1.66675ZM14.1639 14.8612C14.1639 15.053 14.0084 15.2084 13.8167 15.2084H6.17776C5.986 15.2084 5.83054 15.053 5.83054 14.8612V4.0973C5.83054 3.90554 5.986 3.75008 6.17776 3.75008H13.8167C14.0084 3.75008 14.1639 3.90554 14.1639 4.0973V14.8612ZM9.99721 6.18064C8.27132 6.18064 6.87221 7.57975 6.87221 9.30564C6.87221 11.0315 8.27132 12.4306 9.99721 12.4306C11.7231 12.4306 13.1222 11.0315 13.1222 9.30564C13.1203 7.58054 11.7223 6.18255 9.99721 6.18064ZM11.6514 8.8105L10.3062 10.6036C10.1527 10.8013 9.92214 10.9242 9.67241 10.9415C9.42267 10.9589 9.17736 10.8691 8.9979 10.6945L8.30346 10.0001C8.10598 9.79581 8.10864 9.47096 8.30945 9.26996C8.51026 9.06896 8.83511 9.06599 9.03957 9.26328L9.59512 9.81883L10.8201 8.18619C10.9318 8.03733 11.1143 7.95934 11.2991 7.9816C11.4838 8.00386 11.6427 8.12298 11.7158 8.2941C11.7888 8.46522 11.7651 8.66233 11.6535 8.81119L11.6514 8.8105Z" />
</svg>