<!--character:5080-->
  <svg width="24" height="24" viewBox="0 0 24 24" >
<path d="M14.4166 6.25315V10.1771L15.7879 11.0405C15.8241 11.051 15.9024 11.0518 15.9386 11.0405L21.8403 7.06159C21.8403 6.59069 21.401 6.25315 21.1531 6.25315H14.4166Z" />
<path d="M14.4166 11.641L15.6681 12.5007C15.8444 12.6302 16.0569 12.5007 16.0569 12.5007C15.8452 12.6302 21.841 8.64757 21.841 8.64757V15.8595C21.841 16.6446 21.3385 16.9738 20.7734 16.9738H14.4159L14.4166 11.641Z" />
<path d="M7.93709 9.83198C7.51064 9.83198 7.17084 10.0324 6.91995 10.4325C6.66905 10.8325 6.54323 11.3622 6.54323 12.0215C6.54323 12.6905 6.66905 13.2194 6.91995 13.6082C7.17084 13.9977 7.50009 14.1914 7.90695 14.1914C8.32661 14.1914 8.65963 14.0022 8.90525 13.624C9.15087 13.2458 9.27444 12.7207 9.27444 12.0493C9.27444 11.3494 9.15539 10.8047 8.91656 10.4151C8.67772 10.0264 8.35148 9.83198 7.93709 9.83198Z" />
<path d="M2.00001 19.6116V4.26031L13.6783 2V22.0603L2.00001 19.6116ZM7.88359 15.5061C8.67772 15.5061 9.32115 15.1806 9.81465 14.5312C10.3082 13.8817 10.5553 13.0258 10.5545 11.9642C10.5545 10.9312 10.3164 10.0994 9.84027 9.46807C9.36485 8.83669 8.741 8.52175 7.97024 8.52175C7.15427 8.52175 6.49878 8.85176 6.00377 9.51101C5.50876 10.1703 5.26163 11.0337 5.26163 12.1013C5.26163 13.1124 5.50575 13.9322 5.99247 14.5621C6.47994 15.1912 7.10981 15.5061 7.88359 15.5061Z" />
</svg>