<!--character:7892-->
  <svg width="24" height="24" viewBox="0 0 24 24" >
<path d="M14.4167 6.25315V10.177L15.788 11.0405C15.8242 11.051 15.9025 11.0518 15.9387 11.0405L21.8403 7.06158C21.8403 6.59069 21.4011 6.25315 21.1532 6.25315H14.4167Z" />
<path d="M14.4167 11.641L15.6682 12.5006C15.8445 12.6302 16.057 12.5006 16.057 12.5006C15.8453 12.6302 21.8411 8.64757 21.8411 8.64757V15.8595C21.8411 16.6445 21.3386 16.9738 20.7735 16.9738H14.416L14.4167 11.641Z" />
<path d="M7.93718 9.83197C7.51073 9.83197 7.17093 10.0324 6.92004 10.4325C6.66915 10.8325 6.54332 11.3622 6.54332 12.0215C6.54332 12.6905 6.66915 13.2194 6.92004 13.6082C7.17093 13.9977 7.50019 14.1914 7.90704 14.1914C8.32671 14.1914 8.65973 14.0022 8.90535 13.624C9.15097 13.2458 9.27453 12.7206 9.27453 12.0493C9.27453 11.3494 9.15549 10.8047 8.91665 10.4151C8.67781 10.0264 8.35157 9.83197 7.93718 9.83197Z" />
<path d="M2.0001 19.6116V4.26031L13.6784 2V22.0603L2.0001 19.6116ZM7.88368 15.5061C8.67781 15.5061 9.32124 15.1806 9.81474 14.5312C10.3082 13.8817 10.5554 13.0258 10.5546 11.9642C10.5546 10.9312 10.3165 10.0994 9.84036 9.46806C9.36494 8.83668 8.7411 8.52175 7.97033 8.52175C7.15436 8.52175 6.49887 8.85175 6.00386 9.51101C5.50885 10.1703 5.26173 11.0337 5.26173 12.1013C5.26173 13.1124 5.50584 13.9322 5.99256 14.562C6.48003 15.1912 7.10991 15.5061 7.88368 15.5061Z" />
</svg>