<!--character:3607-->
  <svg width="20" height="20" viewBox="0 0 20 20" >
<path d="M12.0139 5.21096V8.48087L13.1567 9.2004C13.1868 9.20919 13.2521 9.20982 13.2822 9.2004L18.2003 5.88465C18.2003 5.49224 17.8342 5.21096 17.6277 5.21096H12.0139Z" />
<path d="M12.0139 9.70081L13.0568 10.4172C13.2037 10.5252 13.3808 10.4172 13.3808 10.4172C13.2044 10.5252 18.2009 7.20631 18.2009 7.20631V13.2162C18.2009 13.8705 17.7821 14.1448 17.3112 14.1448H12.0133L12.0139 9.70081Z" />
<path d="M6.61432 8.19331C6.25894 8.19331 5.97578 8.36032 5.7667 8.69372C5.55762 9.02711 5.45277 9.4685 5.45277 10.0179C5.45277 10.5754 5.55762 11.0162 5.7667 11.3402C5.97578 11.6648 6.25015 11.8261 6.5892 11.8261C6.93892 11.8261 7.21644 11.6685 7.42112 11.3533C7.62581 11.0382 7.72878 10.6005 7.72878 10.0411C7.72878 9.45783 7.62957 9.00388 7.43054 8.67928C7.23151 8.3553 6.95964 8.19331 6.61432 8.19331Z" />
<path d="M1.66675 16.343V3.55026L11.3986 1.66666V18.3835L1.66675 16.343ZM6.56974 12.9218C7.23151 12.9218 7.7677 12.6505 8.17895 12.1093C8.5902 11.5681 8.79614 10.8548 8.79552 9.97017C8.79552 9.10936 8.59711 8.4162 8.2003 7.89005C7.80412 7.3639 7.28425 7.10145 6.64194 7.10145C5.96197 7.10145 5.41572 7.37646 5.00322 7.92584C4.59071 8.47522 4.38477 9.19475 4.38477 10.0844C4.38477 10.927 4.5882 11.6101 4.9938 12.135C5.40003 12.6593 5.92492 12.9218 6.56974 12.9218Z" />
</svg>