<!--character:E181-->
<!--added:0.33.2-->
<!--customColor:true-->
<svg width="24" height="24" viewBox="0 0 24 24" xmlns="http://www.w3.org/2000/svg"><path d="M14.4166 6.2532v3.9238l1.3713.8635c.0362.0105.1145.0113.1507 0l5.9017-3.979c0-.4708-.4393-.8083-.6872-.8083h-6.7365z" fill="#0072C6"/><path d="M14.4166 11.641l1.2515.8596c.1763.1296.3888 0 .3888 0-.2117.1296 5.7841-3.853 5.7841-3.853v7.2119c0 .785-.5025 1.1143-1.0676 1.1143h-6.3575V11.641h.0007zM7.937 9.832c-.4264 0-.7662.2004-1.017.6005-.251.4-.3768.9297-.3768 1.589 0 .669.1258 1.198.3767 1.5867.251.3895.5802.5832.987.5832.4197 0 .7527-.1892.9983-.5674.2457-.3782.3692-.9033.3692-1.5747 0-.6999-.119-1.2446-.3579-1.6342-.2388-.3887-.565-.5831-.9794-.5831z" fill="#0072C6"/><path d="M2 4.2603v15.3513l11.6783 2.4487V2L2 4.2603zm7.8146 10.2709c-.4935.6494-1.1369.975-1.931.975-.7738 0-1.4037-.315-1.8911-.9441-.4868-.63-.7309-1.4497-.7309-2.4608 0-1.0676.2472-1.931.7422-2.5903.495-.6592 1.1505-.9893 1.9664-.9893.7708 0 1.3946.315 1.87.9464.4762.6313.7143 1.4631.7143 2.4961.0008 1.0616-.2464 1.9175-.7399 2.567z" fill="#0072C6"/></svg>
