<!--character:48:550:50-->
  <svg width="24" height="24" viewBox="0 0 24 24" >
<path d="M14.4166 6.25317V10.1771L15.7879 11.0405C15.824 11.0511 15.9024 11.0518 15.9386 11.0405L21.8402 7.06161C21.8402 6.59071 21.401 6.25317 21.1531 6.25317H14.4166Z" />
<path d="M14.4166 11.6409L15.6681 12.5005C15.8444 12.6301 16.0569 12.5005 16.0569 12.5005C15.8452 12.6301 21.841 8.64746 21.841 8.64746V15.8594C21.841 16.6444 21.3385 16.9737 20.7734 16.9737H14.4159V11.6409H14.4166Z" />
<path d="M7.93707 9.83203C7.51063 9.83203 7.17083 10.0324 6.91993 10.4325C6.66904 10.8326 6.54321 11.3623 6.54321 12.0215C6.54321 12.6906 6.66904 13.2195 6.91993 13.6083C7.17083 13.9978 7.50008 14.1914 7.90693 14.1914C8.3266 14.1914 8.65962 14.0023 8.90524 13.6241C9.15086 13.2459 9.27442 12.7207 9.27442 12.0494C9.27442 11.3495 9.15538 10.8047 8.91654 10.4152C8.6777 10.0264 8.35146 9.83203 7.93707 9.83203Z" />
<path   d="M2 19.6116V4.26031L13.6783 2V22.0603L2 19.6116ZM7.88358 15.5061C8.6777 15.5061 9.32114 15.1806 9.81464 14.5312C10.3081 13.8817 10.5553 13.0258 10.5545 11.9642C10.5545 10.9312 10.3164 10.0994 9.84026 9.46806C9.36484 8.83668 8.74099 8.52174 7.97023 8.52174C7.15425 8.52174 6.49876 8.85175 6.00376 9.51101C5.50875 10.1703 5.26162 11.0337 5.26162 12.1013C5.26162 13.1124 5.50573 13.9322 5.99245 14.562C6.47993 15.1912 7.1098 15.5061 7.88358 15.5061Z" />
</svg>