<!--character:5299-->
  <svg width="24" height="24" viewBox="0 0 24 24" >
<path d="M14.4166 6.25316V10.1771L15.7879 11.0405C15.8241 11.051 15.9024 11.0518 15.9386 11.0405L21.8402 7.06159C21.8402 6.59069 21.401 6.25316 21.1531 6.25316H14.4166Z" />
<path d="M14.4166 11.6409L15.6681 12.5006C15.8444 12.6302 16.0569 12.5006 16.0569 12.5006C15.8452 12.6302 21.841 8.64754 21.841 8.64754V15.8594C21.841 16.6445 21.3385 16.9738 20.7734 16.9738H14.4159L14.4166 11.6409Z" />
<path d="M7.93708 9.83199C7.51063 9.83199 7.17083 10.0324 6.91994 10.4325C6.66904 10.8326 6.54322 11.3622 6.54322 12.0215C6.54322 12.6905 6.66904 13.2194 6.91994 13.6082C7.17083 13.9977 7.50009 14.1914 7.90694 14.1914C8.32661 14.1914 8.65962 14.0023 8.90524 13.624C9.15087 13.2458 9.27443 12.7207 9.27443 12.0494C9.27443 11.3494 9.15539 10.8047 8.91655 10.4151C8.67771 10.0264 8.35147 9.83199 7.93708 9.83199Z" />
<path d="M2 19.6116V4.26031L13.6783 2V22.0603L2 19.6116ZM7.88358 15.5061C8.6777 15.5061 9.32114 15.1806 9.81464 14.5312C10.3081 13.8817 10.5553 13.0258 10.5545 11.9642C10.5545 10.9312 10.3164 10.0994 9.84026 9.46806C9.36484 8.83668 8.74099 8.52174 7.97023 8.52174C7.15425 8.52174 6.49876 8.85175 6.00376 9.51101C5.50875 10.1703 5.26162 11.0337 5.26162 12.1013C5.26162 13.1124 5.50573 13.9322 5.99245 14.562C6.47993 15.1912 7.1098 15.5061 7.88358 15.5061Z" />
</svg>