<!-- character:0:2527 -->
  <svg width="20" height="20" viewBox="0 0 20 20" >
<path d="M12.0139 5.21094V8.48085L13.1566 9.20039C13.1867 9.20918 13.252 9.2098 13.2821 9.20039L18.2002 5.88464C18.2002 5.49222 17.8342 5.21094 17.6276 5.21094H12.0139Z" />
<path d="M12.0139 9.7008L13.0568 10.4172C13.2037 10.5252 13.3807 10.4172 13.3807 10.4172C13.2043 10.5252 18.2008 7.2063 18.2008 7.2063V13.2162C18.2008 13.8704 17.7821 14.1448 17.3112 14.1448H12.0132V9.7008H12.0139Z" />
<path d="M6.61425 8.19324C6.25888 8.19324 5.97571 8.36025 5.76663 8.69364C5.55755 9.02704 5.4527 9.46843 5.4527 10.0178C5.4527 10.5754 5.55755 11.0161 5.76663 11.3401C5.97571 11.6647 6.25009 11.8261 6.58913 11.8261C6.93885 11.8261 7.21637 11.6685 7.42105 11.3533C7.62574 11.0381 7.7287 10.6005 7.7287 10.041C7.7287 9.45776 7.6295 9.00381 7.43047 8.6792C7.23144 8.35523 6.95957 8.19324 6.61425 8.19324Z" />
<path   d="M1.66669 16.3429V3.55022L11.3986 1.66663V18.3835L1.66669 16.3429ZM6.56968 12.9217C7.23144 12.9217 7.76764 12.6505 8.17889 12.1093C8.59014 11.568 8.79608 10.8548 8.79545 9.97013C8.79545 9.10933 8.59705 8.41616 8.20024 7.89001C7.80406 7.36386 7.28419 7.10142 6.64188 7.10142C5.9619 7.10142 5.41566 7.37642 5.00316 7.9258C4.59065 8.47518 4.38471 9.19472 4.38471 10.0844C4.38471 10.927 4.58814 11.6101 4.99374 12.135C5.39997 12.6593 5.92486 12.9217 6.56968 12.9217Z" />
</svg>