<!-- character:0:1765 -->
  <svg width="20" height="20" viewBox="0 0 20 20" >
<path   d="M14.1666 4.26956C14.1666 3.31073 13.3893 2.53345 12.4305 2.53345H3.40274C2.44391 2.53345 1.66663 3.31073 1.66663 4.26956C1.66663 4.3156 1.68492 4.35976 1.71748 4.39232C1.75003 4.42488 1.79419 4.44317 1.84024 4.44317H13.993C14.0889 4.44317 14.1666 4.36544 14.1666 4.26956ZM13.9875 7.04734H13.8194C11.145 7.05067 8.80582 8.84858 8.11454 11.4321C8.09464 11.5082 8.02586 11.5613 7.94718 11.5612H3.40274C2.44391 11.5612 1.66663 10.7839 1.66663 9.82511V5.65845C1.66663 5.56256 1.74435 5.48484 1.84024 5.48484H13.993C14.0889 5.48484 14.1666 5.56256 14.1666 5.65845V6.87372C14.1667 6.92062 14.1476 6.96551 14.1138 6.99803C14.0801 7.03079 14.0345 7.04856 13.9875 7.04734ZM6.18051 8.60984H4.09718C3.80953 8.60984 3.57635 8.84302 3.57635 9.13067C3.57635 9.41832 3.80953 9.6515 4.09718 9.6515H6.18051C6.46816 9.6515 6.70135 9.41832 6.70135 9.13067C6.70135 8.84302 6.46816 8.60984 6.18051 8.60984ZM13.8194 8.43623C11.3265 8.43623 9.30551 10.4572 9.30551 12.9501C9.30551 15.4431 11.3265 17.464 13.8194 17.464C16.3124 17.464 18.3333 15.4431 18.3333 12.9501C18.3333 11.753 17.8577 10.6048 17.0112 9.75831C16.1647 8.91179 15.0166 8.43623 13.8194 8.43623ZM16.1583 11.8133L14.1444 14.5036C13.9631 14.7477 13.6839 14.9 13.3805 14.9203H13.3048C13.0291 14.92 12.7649 14.8097 12.5708 14.614L11.5291 13.5723C11.3975 13.4407 11.3461 13.2489 11.3943 13.0691C11.4425 12.8893 11.5829 12.7489 11.7627 12.7007C11.9425 12.6525 12.1343 12.7039 12.2659 12.8355L13.1687 13.7383C13.2042 13.7742 13.2536 13.7927 13.3039 13.7891C13.3542 13.7855 13.4005 13.7601 13.4305 13.7196L15.3277 11.1897C15.5003 10.9596 15.8268 10.9129 16.0569 11.0855C16.287 11.2581 16.3337 11.5846 16.1611 11.8147L16.1583 11.8133Z" />
</svg>