<!--character:4751-->
  <svg width="24" height="24" viewBox="0 0 24 24" >
<path d="M17.0004 5.12333C17.0004 3.97274 16.0676 3.04 14.9171 3.04H4.08372C2.93313 3.04 2.00039 3.97274 2.00039 5.12333C2.00039 5.17859 2.02234 5.23158 2.06141 5.27065C2.10048 5.30972 2.15347 5.33167 2.20872 5.33167H16.7921C16.9071 5.33167 17.0004 5.23839 17.0004 5.12333Z" />
<path d="M16.7854 8.45667H16.5837C13.3745 8.46067 10.5674 10.6182 9.73789 13.7183C9.714 13.8097 9.63147 13.8734 9.53706 13.8733H4.08372C2.93313 13.8733 2.00039 12.9406 2.00039 11.79V6.79C2.00039 6.67494 2.09366 6.58167 2.20872 6.58167H16.7921C16.9071 6.58167 17.0004 6.67494 17.0004 6.79V8.24833C17.0005 8.3046 16.9776 8.35847 16.9371 8.3975C16.8965 8.43681 16.8418 8.45814 16.7854 8.45667ZM7.41706 10.3317H4.91706C4.57188 10.3317 4.29206 10.6115 4.29206 10.9567C4.29206 11.3018 4.57188 11.5817 4.91706 11.5817H7.41706C7.76223 11.5817 8.04206 11.3018 8.04206 10.9567C8.04206 10.6115 7.76223 10.3317 7.41706 10.3317Z" />
<path d="M16.5837 10.1233C13.5922 10.1233 11.1671 12.5485 11.1671 15.54C11.1671 18.5315 13.5922 20.9567 16.5837 20.9567C19.5753 20.9567 22.0004 18.5315 22.0004 15.54C22.0004 14.1034 21.4297 12.7257 20.4139 11.7098C19.3981 10.694 18.0203 10.1233 16.5837 10.1233ZM19.3904 14.1758L16.9737 17.4042C16.7562 17.6971 16.4211 17.8799 16.0571 17.9042H15.9662C15.6354 17.9038 15.3184 17.7715 15.0854 17.5367L13.8354 16.2867C13.6774 16.1287 13.6158 15.8985 13.6736 15.6828C13.7314 15.467 13.8999 15.2985 14.1157 15.2407C14.3314 15.1829 14.5616 15.2446 14.7196 15.4025L15.8029 16.4858C15.8455 16.5288 15.9048 16.5511 15.9651 16.5468C16.0255 16.5425 16.081 16.512 16.1171 16.4633L18.3937 13.4275C18.6008 13.1514 18.9926 13.0954 19.2687 13.3025C19.5449 13.5096 19.6008 13.9014 19.3937 14.1775L19.3904 14.1758Z" />
</svg>