<!--category:money-->
<!--character:E121-->
<svg width="24" height="24" viewBox="0 0 24 24" xmlns="http://www.w3.org/2000/svg"><path d="M16.7917 5.3317H2.2083A.2083.2083 0 0 1 2 5.1233C2 3.9727 2.9327 3.04 4.0833 3.04h10.8334C16.0673 3.04 17 3.9727 17 5.1233a.2083.2083 0 0 1-.2083.2084zm-.2084 3.125c-3.2092.004-6.0163 2.1615-6.8458 5.2616a.2075.2075 0 0 1-.2008.155H4.0833C2.9327 13.8733 2 12.9406 2 11.79v-5c0-.115.0933-.2083.2083-.2083h14.5834c.115 0 .2083.0932.2083.2083v1.4583a.207.207 0 0 1-.0633.1492.21.21 0 0 1-.1517.0592h-.2017zm-11.6666 1.875a.625.625 0 1 0 0 1.25h2.5a.625.625 0 0 0 0-1.25h-2.5zm11.6666-.2084A5.4167 5.4167 0 0 1 22 15.54c0 2.9915-2.4251 5.4167-5.4167 5.4167-2.9915 0-5.4166-2.4252-5.4166-5.4167s2.425-5.4167 5.4166-5.4167zm2.8067 4.0525l.0033.0017a.625.625 0 1 0-1-.75l-2.2766 3.0358a.2075.2075 0 0 1-.3142.0225l-1.0833-1.0833a.6252.6252 0 0 0-.8842.8842l1.25 1.25c.233.2348.55.3671.8808.3675h.0909a1.245 1.245 0 0 0 .9166-.5l2.4167-3.2284z"/></svg>