<!--character:126:550:1200-->
  <svg width="24" height="24" viewBox="0 0 24 24" >
<path   d="M17 5.12337C17 3.97278 16.0673 3.04004 14.9167 3.04004H4.08333C2.93274 3.04004 2 3.97278 2 5.12337C2 5.17863 2.02195 5.23162 2.06102 5.27069C2.10009 5.30976 2.15308 5.33171 2.20833 5.33171H16.7917C16.9067 5.33171 17 5.23843 17 5.12337ZM16.785 8.45673H16.5833C13.3741 8.46073 10.567 10.6182 9.7375 13.7184C9.71361 13.8097 9.63108 13.8734 9.53667 13.8734H4.08333C2.93274 13.8734 2 12.9407 2 11.7901V6.79006C2 6.675 2.09327 6.58173 2.20833 6.58173H16.7917C16.9067 6.58173 17 6.675 17 6.79006V8.24839C17.0001 8.30466 16.9772 8.35853 16.9367 8.39756C16.8961 8.43687 16.8415 8.4582 16.785 8.45673ZM7.41666 10.3317H4.91666C4.57148 10.3317 4.29166 10.6115 4.29166 10.9567C4.29166 11.3019 4.57148 11.5817 4.91666 11.5817H7.41666C7.76183 11.5817 8.04166 11.3019 8.04166 10.9567C8.04166 10.6115 7.76183 10.3317 7.41666 10.3317ZM16.5833 10.1234C13.5918 10.1234 11.1667 12.5485 11.1667 15.54C11.1667 18.5316 13.5918 20.9567 16.5833 20.9567C19.5749 20.9567 22 18.5316 22 15.54C22 14.1034 21.4293 12.7257 20.4135 11.7099C19.3977 10.694 18.0199 10.1234 16.5833 10.1234ZM19.39 14.1759L16.9733 17.4042C16.7558 17.6971 16.4207 17.8799 16.0567 17.9042H15.9658C15.635 17.9039 15.318 17.7716 15.085 17.5367L13.835 16.2867C13.6771 16.1288 13.6154 15.8986 13.6732 15.6828C13.731 15.4671 13.8995 15.2985 14.1153 15.2407C14.331 15.1829 14.5612 15.2446 14.7192 15.4025L15.8025 16.4859C15.8451 16.5289 15.9044 16.5512 15.9648 16.5468C16.0251 16.5425 16.0806 16.512 16.1167 16.4634L18.3933 13.4275C18.6004 13.1514 18.9922 13.0954 19.2683 13.3025C19.5445 13.5096 19.6004 13.9014 19.3933 14.1775L19.39 14.1759Z" />
</svg>