<!--character:1967-->
  <svg width="20" height="20" viewBox="0 0 20 20" >
<path d="M14.167 4.26944C14.167 3.31062 13.3897 2.53333 12.4309 2.53333H3.4031C2.44428 2.53333 1.66699 3.31062 1.66699 4.26944C1.66699 4.31549 1.68528 4.35965 1.71784 4.39221C1.7504 4.42476 1.79456 4.44305 1.8406 4.44305H13.9934C14.0893 4.44305 14.167 4.36533 14.167 4.26944Z" />
<path d="M13.9878 7.04722H13.8198C11.1454 7.05056 8.80619 8.84847 8.11491 11.4319C8.095 11.5081 8.02622 11.5611 7.94755 11.5611H3.4031C2.44428 11.5611 1.66699 10.7838 1.66699 9.825V5.65833C1.66699 5.56245 1.74472 5.48472 1.8406 5.48472H13.9934C14.0893 5.48472 14.167 5.56245 14.167 5.65833V6.87361C14.1671 6.9205 14.148 6.96539 14.1142 6.99792C14.0804 7.03068 14.0349 7.04845 13.9878 7.04722ZM6.18088 8.60972H4.09755C3.8099 8.60972 3.57671 8.84291 3.57671 9.13056C3.57671 9.4182 3.8099 9.65139 4.09755 9.65139H6.18088C6.46853 9.65139 6.70171 9.4182 6.70171 9.13056C6.70171 8.84291 6.46853 8.60972 6.18088 8.60972Z" />
<path d="M13.8198 8.43611C11.3268 8.43611 9.30588 10.457 9.30588 12.95C9.30588 15.443 11.3268 17.4639 13.8198 17.4639C16.3127 17.4639 18.3337 15.443 18.3337 12.95C18.3337 11.7528 17.8581 10.6047 17.0116 9.7582C16.1651 8.91168 15.0169 8.43611 13.8198 8.43611ZM16.1587 11.8132L14.1448 14.5035C13.9635 14.7476 13.6843 14.8999 13.3809 14.9201H13.3052C13.0295 14.9198 12.7653 14.8096 12.5712 14.6139L11.5295 13.5722C11.3979 13.4406 11.3465 13.2488 11.3946 13.069C11.4428 12.8892 11.5833 12.7487 11.7631 12.7006C11.9428 12.6524 12.1347 12.7038 12.2663 12.8354L13.1691 13.7382C13.2046 13.774 13.254 13.7926 13.3043 13.789C13.3546 13.7854 13.4008 13.76 13.4309 13.7194L15.3281 11.1896C15.5007 10.9595 15.8271 10.9128 16.0573 11.0854C16.2874 11.258 16.334 11.5845 16.1614 11.8146L16.1587 11.8132Z" />
</svg>