<!-- character:0:2263 -->
  <svg width="20" height="20" viewBox="0 0 20 20" >
<path   d="M7.59988 1.66663H9.95976C12.9096 1.66663 15.3432 4.02651 15.3432 6.97636C15.3432 9.92621 12.9096 12.3598 9.95976 12.3598H8.48483C8.33734 12.3598 8.18985 12.5073 8.18985 12.6548V16.5634C8.18985 17.5221 7.37864 18.3333 6.41994 18.3333C5.46123 18.3333 4.65002 17.5221 4.65002 16.5634V4.61648C4.65002 2.99406 5.97746 1.66663 7.59988 1.66663ZM8.48483 8.82002H9.95976C10.9185 8.82002 11.7297 8.00881 11.7297 7.05011C11.7297 6.0914 10.9185 5.2802 9.95976 5.2802H8.48483C8.33734 5.2802 8.18985 5.42769 8.18985 5.57518V8.52503C8.18985 8.67253 8.33734 8.82002 8.48483 8.82002Z" />
</svg>