<!--character:4044-->
  <svg width="20" height="20" viewBox="0 0 20 20" >
<path d="M7.60024 1.66666H9.96013C12.91 1.66666 15.3436 4.02655 15.3436 6.9764C15.3436 9.92625 12.91 12.3599 9.96013 12.3599H8.4852C8.33771 12.3599 8.19021 12.5074 8.19021 12.6549V16.5634C8.19021 17.5221 7.379 18.3333 6.4203 18.3333C5.4616 18.3333 4.65039 17.5221 4.65039 16.5634V4.61652C4.65039 2.9941 5.97782 1.66666 7.60024 1.66666ZM8.4852 8.82006H9.96012C10.9188 8.82006 11.73 8.00885 11.73 7.05014C11.73 6.09144 10.9188 5.28023 9.96012 5.28023H8.4852C8.33771 5.28023 8.19021 5.42773 8.19021 5.57522V8.52507C8.19021 8.67256 8.33771 8.82006 8.4852 8.82006Z" />
</svg>