<!--character:3024:2865-->
<svg width="24" height="24" viewBox="0 0 24 24">
  <path d="M9.12029 2H11.9522C15.492 2 18.4123 4.83186 18.4123 8.37168C18.4123 11.9115 15.492 14.8319 11.9522 14.8319H10.1822C10.0052 14.8319 9.82826 15.0088 9.82826 15.1858V19.8761C9.82826 21.0265 8.85481 22 7.70436 22C6.55392 22 5.58047 21.0265 5.58047 19.8761V5.53982C5.58047 3.59292 7.17339 2 9.12029 2ZM10.1822 10.5841H11.9521C13.1026 10.5841 14.076 9.61062 14.076 8.46017C14.076 7.30973 13.1026 6.33628 11.9521 6.33628H10.1822C10.0052 6.33628 9.82826 6.51327 9.82826 6.69026V10.2301C9.82826 10.4071 10.0052 10.5841 10.1822 10.5841Z" />
</svg>
