<!--character:$550:549-->
  <svg width="24" height="24" viewBox="0 0 24 24" >
<path d="M9.11978 2H11.9516C15.4915 2 18.4118 4.83186 18.4118 8.37168C18.4118 11.9115 15.4915 14.8319 11.9516 14.8319H10.1817C10.0047 14.8319 9.82774 15.0088 9.82774 15.1858V19.8761C9.82774 21.0265 8.85429 22 7.70385 22C6.55341 22 5.57996 21.0265 5.57996 19.8761V5.53982C5.57996 3.59292 7.17288 2 9.11978 2ZM10.1817 10.584H11.9516C13.1021 10.584 14.0755 9.61059 14.0755 8.46015C14.0755 7.30971 13.1021 6.33626 11.9516 6.33626H10.1817C10.0047 6.33626 9.82775 6.51325 9.82775 6.69024V10.2301C9.82775 10.4071 10.0047 10.584 10.1817 10.584Z" />
</svg>