<!--character:2168-->
  <svg width="24" height="24" viewBox="0 0 24 24" >
<path d="M16.9467 16.4898C17.6137 16.4538 18.4502 16.2775 18.7567 16.1309V9.71118L16.9172 8.54354C15.8672 7.87482 14.7674 7.18153 14.5635 7.05982C14.1694 6.8199 13.7516 6.64937 13.3861 6.57911C13.2318 6.55008 13.0961 6.53592 12.9719 6.53592C12.7697 6.53592 12.5842 6.57284 12.3704 6.65562L12.367 6.65692C12.1173 6.75018 11.9483 6.87668 11.3093 7.535C11.1303 7.71815 10.8596 7.99621 10.5738 8.28986C10.3219 8.54861 10.0582 8.81948 9.83558 9.04764C9.46839 9.42371 9.3349 9.50146 9.21241 9.64314C9.08993 9.78481 9.07133 10.0213 9.16003 10.1404C9.24872 10.2596 9.39114 10.3152 9.78924 10.352C10.1873 10.3888 10.2319 10.3662 10.3327 10.352C11.4161 10.1997 11.7872 9.73919 13.0415 8.67457C13.2955 8.46027 13.4353 8.34232 13.6212 8.34232C13.7139 8.34232 13.7995 8.37292 13.8756 8.43327C14.2642 8.73685 17.8381 11.9131 18.0316 12.1269C18.1457 12.2516 18.2723 12.4553 18.3383 12.5919L18.3406 12.5969C18.4496 12.8344 18.473 12.9644 18.473 13.3301C18.473 13.7289 18.4525 13.8204 18.2902 14.1452C18.0923 14.5536 17.7182 14.9307 17.3144 15.1279C17.3512 15.5851 17.214 16.0871 16.9467 16.4898ZM8.35832 16.6209C8.72362 16.8867 9.09997 17.122 9.20896 17.1738C9.58022 17.352 9.9938 17.4501 10.374 17.4501C10.6766 17.4501 10.9389 17.3866 11.1124 17.2713L11.3765 17.0953L11.8875 17.2257C12.2018 17.3037 12.4685 17.3417 12.7022 17.3417C12.8001 17.3417 12.8931 17.3348 12.9787 17.3209C13.3941 17.259 13.7792 17.0027 13.9407 16.6826L14.146 16.2721L14.6277 16.325C14.6637 16.3288 14.7021 16.3307 14.7414 16.3307C15.2409 16.3307 15.8189 16.0065 15.9783 15.637C16.0609 15.447 16.0588 15.1073 15.9736 14.8634C15.8983 14.6441 15.8515 14.4777 15.9348 14.3319C15.9803 14.2457 16.0765 14.1432 16.41 14.1078C16.6014 14.0813 16.82 13.9686 16.981 13.8136C17.2654 13.5401 17.3041 13.2741 17.0994 13.0003C16.9798 12.8582 15.4506 11.4734 13.6427 9.90525L13.5964 9.86458L13.4696 9.96722C13.2801 10.121 12.9051 10.3932 12.6339 10.574C11.6553 11.2255 10.8065 11.5422 10.0388 11.5422C9.63329 11.5422 9.24105 11.4524 8.87305 11.2752C8.19438 10.9498 7.84805 10.4598 7.8145 9.7774C7.8145 9.7774 7.81743 9.38886 8.26737 8.8656C8.71731 8.34235 9.07135 8.01405 9.07135 8.01405C9.29892 7.78378 9.51517 7.56199 9.70102 7.36836C9.28931 7.47755 8.80031 7.71697 8.39688 8.00975C8.21562 8.13766 7.41541 8.67327 6.6499 9.17605C5.98261 9.61091 5.46059 9.95903 5.26467 10.0948C5.24345 10.3657 5.24245 11.2787 5.24245 13.038C5.24245 14.4965 5.25024 15.4287 5.25765 15.8389C5.48311 15.8559 5.80047 15.8762 6.13368 15.8947C7.17112 15.9561 7.38461 15.9826 7.55403 16.0714C7.70208 16.1461 8.20686 16.5107 8.35832 16.6209ZM8.63955 18.305C8.44687 18.213 7.98693 17.9197 7.61455 17.6513C7.29483 17.4244 7.0649 17.2735 6.97488 17.2189C6.85583 17.2087 6.56477 17.1881 6.21371 17.1685C5.83371 17.1473 5.33242 17.1182 5.17033 17.1057L5.142 17.103C5.05487 17.2745 4.90927 17.4194 4.72467 17.5165C4.65659 17.5519 4.57803 17.5783 4.18066 17.5982C3.9652 17.6089 3.69993 17.6151 3.4529 17.6151C3.25244 17.6151 2.98067 17.611 2.82405 17.5915C2.59648 17.563 2.43388 17.4964 2.3123 17.3821C2.30619 17.3764 2.29907 17.3702 2.29226 17.3641C2.09863 17.1932 2.04587 17.0367 2.02236 16.5659C1.99972 16.1128 1.99984 15.2579 2.00009 13.5548L2.00015 12.9486C2.00015 12.6725 2.00008 12.415 2 12.1749C1.9995 10.5147 1.99925 9.68174 2.02763 9.24047C2.0551 8.81351 2.11063 8.60841 2.38354 8.44348L2.38622 8.44184C2.39658 8.43561 2.40758 8.42898 2.41922 8.42127C2.63754 8.27594 2.74823 8.27594 3.60976 8.27594C4.52888 8.27594 4.74726 8.27594 5.01311 8.57462C5.04208 8.60669 5.06834 8.64486 5.0911 8.68312L6.00923 8.08117C6.69441 7.63349 7.41116 7.15085 7.59436 7.01833C8.03455 6.70088 8.82061 6.30759 9.27664 6.1766C9.51841 6.10911 9.83435 6.07053 10.1442 6.07053C10.3599 6.07053 10.657 6.08907 10.8676 6.17566L10.9653 6.08532C11.3785 5.69807 12.0338 5.37721 12.5583 5.30551C12.6852 5.28861 12.8175 5.28003 12.9518 5.28003C13.6374 5.28003 14.3967 5.49902 15.0898 5.89661C15.2907 6.01187 16.4138 6.72102 17.3979 7.34623C18.3018 7.92055 18.8767 8.28591 19.1357 8.43229C19.3561 8.27596 19.6859 8.27594 20.39 8.27594C21.252 8.27594 21.3627 8.27594 21.5815 8.4219C21.5925 8.4292 21.6037 8.43592 21.6143 8.44231L21.6164 8.44358C21.8891 8.60835 21.9447 8.81268 21.9721 9.23792C22.0005 9.67693 22.0003 10.5053 21.9998 12.1557C21.9997 12.3944 21.9996 12.6505 21.9996 12.9252C21.9996 16.8443 21.9746 16.9242 21.933 17.0243C21.8217 17.3143 21.5821 17.5162 21.2581 17.5928L21.2535 17.5938C21.1327 17.6202 20.9102 17.6335 20.5912 17.6335C20.4852 17.6335 20.3716 17.632 20.2537 17.6289C19.5384 17.6179 19.3432 17.6065 19.0733 17.3762L19.0564 17.3831C18.5079 17.5991 17.5675 17.744 16.7152 17.744C16.5204 17.744 16.3358 17.7363 16.1666 17.7211C15.8822 17.6937 15.5291 17.6456 15.379 17.6138L15.371 17.6121L15.3629 17.61C15.2878 17.5902 15.1951 17.5793 15.1019 17.5793C15.0649 17.5793 15.0285 17.581 14.9939 17.5844C14.9572 17.5878 14.8991 17.5933 14.8754 17.5979C14.8497 17.6193 14.788 17.6864 14.733 17.7462C14.4059 18.0956 14.0818 18.3092 13.6469 18.463L13.643 18.4644C13.3267 18.5715 13.2036 18.5876 12.7011 18.5876C12.3042 18.5876 12.0226 18.5648 11.7879 18.5136C11.7039 18.4955 11.6089 18.4751 11.576 18.4731C11.5604 18.4781 11.5174 18.4968 11.4982 18.5051C11.1722 18.65 10.7979 18.7237 10.3867 18.7237C9.81377 18.7237 9.2096 18.5789 8.63955 18.305Z" />
</svg>