<!--character:3024:2883-->
<svg width="24" height="24" viewBox="0 0 24 24">
  <path d="M16.9472 16.4898C17.6142 16.4538 18.4507 16.2774 18.7572 16.1309V9.71116L16.9177 8.54353C15.8677 7.8748 14.7679 7.18151 14.564 7.0598C14.1699 6.81988 13.7521 6.64935 13.3866 6.5791C13.2323 6.55006 13.0966 6.5359 12.9724 6.5359C12.7702 6.5359 12.5847 6.57282 12.3709 6.6556L12.3675 6.65691C12.1178 6.75016 11.9488 6.87667 11.3099 7.53498C11.1308 7.71813 10.8601 7.9962 10.5743 8.28984C10.3224 8.5486 10.0587 8.81946 9.83608 9.04762C9.46889 9.42369 9.3354 9.50145 9.21292 9.64312C9.09043 9.7848 9.07183 10.0212 9.16053 10.1404C9.24923 10.2596 9.39164 10.3152 9.78974 10.352C10.1878 10.3888 10.2324 10.3662 10.3332 10.352C11.4166 10.1997 11.7877 9.73917 13.042 8.67455C13.296 8.46025 13.4358 8.34231 13.6217 8.34231C13.7144 8.34231 13.8 8.3729 13.8761 8.43325C14.2647 8.73684 17.8386 11.913 18.0321 12.1269C18.1462 12.2516 18.2728 12.4553 18.3388 12.5919L18.3411 12.5969C18.4501 12.8344 18.4735 12.9644 18.4735 13.3301C18.4735 13.7289 18.453 13.8203 18.2907 14.1452C18.0928 14.5536 17.7187 14.9307 17.3149 15.1279C17.3517 15.5851 17.2145 16.0871 16.9472 16.4898ZM8.35881 16.6209C8.72411 16.8866 9.10045 17.1219 9.20945 17.1737C9.5807 17.352 9.99429 17.45 10.3745 17.45C10.6771 17.45 10.9393 17.3866 11.1129 17.2713L11.377 17.0952L11.888 17.2257C12.2023 17.3037 12.469 17.3417 12.7027 17.3417C12.8006 17.3417 12.8936 17.3347 12.9792 17.3209C13.3946 17.2589 13.7797 17.0026 13.9412 16.6826L14.1465 16.272L14.6282 16.325C14.6641 16.3287 14.7026 16.3307 14.7419 16.3307C15.2414 16.3306 15.8194 16.0065 15.9788 15.637C16.0614 15.4469 16.0593 15.1072 15.9741 14.8634C15.8988 14.6441 15.852 14.4777 15.9353 14.3318C15.9808 14.2456 16.0769 14.1432 16.4105 14.1078C16.6019 14.0812 16.8205 13.9686 16.9815 13.8135C17.2658 13.5401 17.3046 13.2741 17.0999 13.0002C16.9803 12.8582 15.4511 11.4733 13.6432 9.9052L13.5969 9.86453L13.4701 9.96718C13.2806 10.121 12.9056 10.3932 12.6344 10.574C11.6558 11.2255 10.807 11.5422 10.0393 11.5422C9.63378 11.5422 9.24154 11.4523 8.87353 11.2751C8.19486 10.9497 7.84854 10.4598 7.81499 9.77736C7.81499 9.77736 7.81791 9.38881 8.26786 8.86556C8.7178 8.34231 9.07183 8.01401 9.07183 8.01401C9.29941 7.78373 9.51566 7.56194 9.70151 7.36832C9.2898 7.47751 8.80079 7.71693 8.39737 8.00971C8.21611 8.13761 7.4159 8.67323 6.65039 9.176C5.9831 9.61087 5.46108 9.95899 5.26516 10.0948C5.24394 10.3657 5.24293 11.2786 5.24293 13.0379C5.24293 14.4965 5.25072 15.4286 5.25814 15.8389C5.4836 15.8559 5.80095 15.8761 6.13416 15.8947C7.1716 15.9561 7.38509 15.9826 7.55452 16.0713C7.70256 16.146 8.20735 16.5107 8.35881 16.6209ZM8.64006 18.3049C8.44738 18.2129 7.98745 17.9197 7.61507 17.6513C7.29535 17.4243 7.06541 17.2735 6.97539 17.2188C6.85634 17.2087 6.56528 17.1881 6.21422 17.1685C5.83422 17.1473 5.33293 17.1181 5.17084 17.1057L5.14252 17.103C5.05538 17.2745 4.90978 17.4194 4.72519 17.5164C4.6571 17.5518 4.57854 17.5783 4.18117 17.5981C3.96571 17.6089 3.70045 17.6151 3.45341 17.6151C3.25296 17.6151 2.98119 17.611 2.82456 17.5915C2.59699 17.5629 2.43439 17.4964 2.31281 17.3821C2.3067 17.3764 2.29958 17.3701 2.29277 17.3641C2.09915 17.1931 2.04639 17.0366 2.02288 16.5658C2.00023 16.1127 2.00035 15.2579 2.00061 13.5547L2.00067 12.9486C2.00067 12.6724 2.00059 12.415 2.00051 12.1749C2.00002 10.5147 1.99976 9.68172 2.02814 9.24044C2.05562 8.81348 2.11114 8.60838 2.38405 8.44345L2.38674 8.44181C2.39709 8.43558 2.4081 8.42895 2.41973 8.42124C2.63805 8.27592 2.74874 8.27592 3.61027 8.27592C4.52939 8.27592 4.74777 8.27592 5.01362 8.57459C5.0426 8.60666 5.06885 8.64483 5.09161 8.68309L6.00974 8.08115C6.69492 7.63346 7.41168 7.15082 7.59487 7.0183C8.03506 6.70085 8.82112 6.30756 9.27715 6.17658C9.51893 6.10908 9.83486 6.0705 10.1447 6.0705C10.3604 6.0705 10.6575 6.08904 10.8682 6.17563L10.9658 6.0853C11.379 5.69804 12.0343 5.37718 12.5588 5.30548C12.6857 5.28858 12.818 5.28 12.9523 5.28C13.6379 5.28 14.3972 5.49899 15.0903 5.89658C15.2912 6.01185 16.4143 6.72099 17.3984 7.34621C18.3023 7.92052 18.8772 8.28588 19.1362 8.43227C19.3566 8.27594 19.6864 8.27592 20.3905 8.27592C21.2525 8.27592 21.3632 8.27592 21.582 8.42187C21.593 8.42917 21.6042 8.4359 21.6148 8.44229L21.6169 8.44355C21.8896 8.60832 21.9452 8.81266 21.9727 9.2379C22.001 9.6769 22.0008 10.5053 22.0003 12.1556C22.0002 12.3944 22.0001 12.6504 22.0001 12.9251C22.0001 16.8443 21.9751 16.9242 21.9335 17.0243C21.8222 17.3143 21.5826 17.5162 21.2586 17.5928L21.254 17.5938C21.1332 17.6202 20.9107 17.6335 20.5918 17.6335C20.4857 17.6335 20.3721 17.6319 20.2542 17.6289C19.5389 17.6179 19.3437 17.6065 19.0738 17.3761L19.0569 17.3831C18.5084 17.5991 17.568 17.744 16.7157 17.744C16.5209 17.744 16.3363 17.7363 16.1671 17.7211C15.8827 17.6937 15.5297 17.6456 15.3795 17.6138L15.3715 17.6121L15.3634 17.61C15.2883 17.5902 15.1957 17.5793 15.1024 17.5793C15.0654 17.5793 15.029 17.581 14.9944 17.5844C14.9577 17.5878 14.8996 17.5932 14.8759 17.5979C14.8502 17.6193 14.7885 17.6864 14.7335 17.7462C14.4064 18.0955 14.0823 18.3092 13.6474 18.463L13.6435 18.4644C13.3273 18.5714 13.2041 18.5875 12.7017 18.5875C12.3047 18.5875 12.0231 18.5647 11.7884 18.5135C11.7044 18.4955 11.6094 18.475 11.5765 18.4731C11.5609 18.4781 11.5179 18.4968 11.4987 18.5051C11.1727 18.65 10.7985 18.7236 10.3873 18.7236C9.81429 18.7236 9.21011 18.5788 8.64006 18.3049Z" />
</svg>
