<!--character:E164-->
<!--added:0.27-->
<svg width="24" height="24" viewBox="0 0 24 24" xmlns="http://www.w3.org/2000/svg"><path d="M16.9468 16.4898c.667-.036 1.5035-.2124 1.81-.359V9.7113l-1.8395-1.1677c-1.05-.6687-2.1498-1.362-2.3537-1.4837-.394-.24-.812-.4105-1.1773-.4807-.1544-.029-.29-.0432-.4143-.0432-.2022 0-.3877.037-.6015.1197l-.0034.0013c-.2497.0933-.4187.2198-1.0576.878-.179.1832-.4498.4613-.7356.755-.2519.2587-.5156.5296-.7382.7577-.3672.376-.5007.4538-.6232.5955-.1224.1417-.141.3781-.0523.4973.0887.1192.231.1748.6292.2116.398.0368.4426.0142.5435 0 1.0833-.1523 1.4545-.6128 2.7087-1.6775.254-.2142.3938-.3322.5797-.3322.0927 0 .1783.0306.2544.091.3886.3035 3.9625 3.4797 4.156 3.6935.1141.1248.2407.3285.3067.465l.0023.005c.109.2376.1324.3676.1324.7333 0 .3988-.0204.4902-.1828.815-.1979.4085-.572.7856-.9758.9828.0368.4572-.1004.9591-.3677 1.3619zm-8.5884.131c.3653.2658.7417.5011.8507.553.3712.1782.7848.2762 1.165.2762.3026 0 .5649-.0634.7384-.1787l.264-.176.5111.1304c.3143.078.581.116.8147.116.098 0 .191-.007.2766-.0208.4154-.062.8004-.3183.962-.6383l.2052-.4106.4817.053a1.099 1.099 0 0 0 .1137.0057c.4995 0 1.0775-.3242 1.237-.6937.0825-.19.0804-.5298-.0048-.7736-.0753-.2193-.122-.3857-.0387-.5316.0454-.0862.1416-.1886.4751-.224.1914-.0266.41-.1392.571-.2943.2844-.2734.323-.5394.1184-.8133-.1196-.142-1.6487-1.5269-3.4567-3.095l-.0463-.0407-.1268.1027c-.1895.1538-.5644.426-.8357.6068-.9786.6515-1.8274.9682-2.595.9682a2.6667 2.6667 0 0 1-1.1658-.267c-.6787-.3255-1.025-.8154-1.0586-1.4978.002-.259.153-.563.4529-.9118.3-.3489.568-.6327.804-.8516.2275-.2303.4438-.452.6296-.6457-.4117.1092-.9007.3486-1.3041.6414-.1813.128-.9815.6635-1.747 1.1663-.6673.4349-1.1893.783-1.3852.9188-.0212.2709-.0222 1.1838-.0222 2.9431 0 1.4586.0077 2.3907.0152 2.801.2254.017.5428.0372.876.0558 1.0374.0614 1.251.0879 1.4203.1766.148.0747.6529.4394.8043.5495zm.2813 1.6841c-.1927-.092-.6526-.3853-1.025-.6537-.3197-.2269-.5497-.3777-.6397-.4324a31.2623 31.2623 0 0 0-.7612-.0503c-.38-.0212-.8813-.0504-1.0434-.0628l-.0283-.0027c-.0871.1715-.2327.3164-.4173.4134-.068.0354-.1467.0619-.544.0817a15.37 15.37 0 0 1-.7278.017c-.2004 0-.4722-.0041-.6288-.0236-.2276-.0286-.3902-.095-.5118-.2094-.006-.0057-.0132-.012-.02-.018-.1936-.171-.2464-.3275-.27-.7983-.0224-.453-.0224-1.308-.0222-3.011v-.6062L2 12.1749c-.0004-1.6602-.0006-2.4932.0278-2.9345.0274-.427.083-.632.3559-.797l.0026-.0016a.8724.8724 0 0 0 .033-.0206c.2184-.1453.329-.1453 1.1906-.1453.9191 0 1.1375 0 1.4033.2987a.6888.6888 0 0 1 .078.1085l.9182-.602c.6851-.4476 1.4019-.9303 1.585-1.0628.4403-.3175 1.2263-.7107 1.6824-.8417.2417-.0675.5577-.1061.8675-.1061.2157 0 .5128.0185.7235.1051l.0976-.0903c.4132-.3873 1.0685-.7081 1.593-.7798a2.9915 2.9915 0 0 1 .3935-.0255c.6857 0 1.445.219 2.138.6166.2009.1152 1.324.8244 2.3082 1.4496.9038.5743 1.4787.9397 1.7378 1.086.2203-.1563.55-.1563 1.2542-.1563.862 0 .9727 0 1.1915.146.011.0073.0223.014.0328.0204l.002.0012c.2729.1648.3284.3692.3559.7944.0283.439.028 1.2674.0276 2.9177l-.0002.7695c0 3.9192-.025 3.9991-.0666 4.0992-.1113.29-.351.4919-.675.5684l-.0045.001c-.1208.0265-.3433.0398-.6622.0398-.106 0-.2197-.0016-.3376-.0046-.7153-.011-.9105-.0224-1.1804-.2528l-.017.007c-.5484.216-1.4888.3609-2.341.3609a6.1829 6.1829 0 0 1-.5487-.023c-.2844-.0273-.6374-.0754-.7876-.1072l-.008-.0017-.008-.0021c-.0752-.0198-.1678-.0307-.261-.0307-.0371 0-.0735.0017-.1081.005-.0367.0035-.0948.009-.1185.0136-.0257.0214-.0874.0885-.1423.1483-.3272.3493-.6513.563-1.0861.7168l-.004.0014c-.3162.107-.4394.1231-.9418.1231-.397 0-.6786-.0228-.9133-.074-.084-.018-.179-.0385-.212-.0404-.0155.005-.0585.0237-.0777.032-.326.1449-.7002.2185-1.1114.2185-.573 0-1.1772-.1448-1.7472-.4187z"/></svg>