<!--character:3824-->
  <svg width="20" height="20" viewBox="0 0 20 20" >
<path d="M14.1227 13.7415C14.6785 13.7115 15.3756 13.5645 15.631 13.4424V8.09264L14.0981 7.11961C13.2231 6.56233 12.3066 5.9846 12.1367 5.88317C11.8083 5.68323 11.4601 5.54113 11.1555 5.48258C11.0269 5.45839 10.9138 5.44658 10.8103 5.44658C10.6418 5.44658 10.4873 5.47735 10.3091 5.54634L10.3062 5.54742C10.0981 5.62513 9.9573 5.73056 9.42488 6.27915C9.27568 6.43178 9.05009 6.6635 8.8119 6.9082C8.60197 7.12383 8.38225 7.34955 8.19674 7.53969C7.89074 7.85308 7.7795 7.91787 7.67743 8.03593C7.57536 8.154 7.55986 8.35104 7.63378 8.45033C7.70769 8.54963 7.82637 8.59602 8.15812 8.62666C8.48987 8.65731 8.52698 8.63848 8.61104 8.62666C9.51382 8.49972 9.82311 8.11598 10.8683 7.22879C11.08 7.05021 11.1965 6.95192 11.3514 6.95192C11.4287 6.95192 11.5 6.97742 11.5634 7.02771C11.8872 7.2807 14.8655 9.92754 15.0268 10.1057C15.1218 10.2097 15.2273 10.3794 15.2823 10.4932L15.2843 10.4974C15.3751 10.6953 15.3946 10.8037 15.3946 11.1084C15.3946 11.4408 15.3775 11.5169 15.2422 11.7877C15.0773 12.128 14.7655 12.4422 14.4291 12.6066C14.4598 12.9876 14.3454 13.4059 14.1227 13.7415ZM6.96567 13.8507C7.27009 14.0722 7.58371 14.2683 7.67454 14.3114C7.98392 14.46 8.32857 14.5417 8.64543 14.5417C8.8976 14.5417 9.11612 14.4888 9.26076 14.3927L9.48079 14.246L9.90666 14.3547C10.1686 14.4197 10.3909 14.4514 10.5855 14.4514C10.6672 14.4514 10.7447 14.4456 10.816 14.4341C11.1622 14.3824 11.4831 14.1689 11.6177 13.9022L11.7888 13.56L12.1902 13.6041C12.2201 13.6073 12.2522 13.6089 12.2849 13.6089C12.7011 13.6088 13.1828 13.3387 13.3157 13.0308C13.3845 12.8725 13.3827 12.5894 13.3117 12.3861C13.249 12.2034 13.21 12.0648 13.2794 11.9432C13.3173 11.8713 13.3975 11.786 13.6754 11.7565C13.8349 11.7344 14.0171 11.6405 14.1512 11.5113C14.3882 11.2834 14.4205 11.0617 14.2499 10.8335C14.1502 10.7152 12.8759 9.56112 11.3693 8.25434L11.3307 8.22044L11.2251 8.30598C11.0671 8.43413 10.7547 8.661 10.5287 8.81163C9.71319 9.35457 9.00582 9.61849 8.36611 9.61849C8.02815 9.61849 7.70128 9.5436 7.39461 9.39594C6.82905 9.12479 6.54045 8.71649 6.51249 8.1478C6.51249 8.1478 6.51493 7.82401 6.88988 7.38797C7.26483 6.95192 7.55986 6.67834 7.55986 6.67834C7.7495 6.48644 7.92971 6.30162 8.08459 6.14026C7.7415 6.23125 7.33399 6.43078 6.99781 6.67476C6.84676 6.78135 6.17992 7.22769 5.54199 7.64667C4.98592 8.00906 4.5509 8.29916 4.38763 8.41231C4.36995 8.63806 4.36911 9.39886 4.36911 10.865C4.36911 12.0804 4.3756 12.8572 4.38178 13.1991C4.56967 13.2132 4.83413 13.2301 5.1118 13.2456C5.97634 13.2967 6.15424 13.3188 6.29543 13.3928C6.4188 13.455 6.83946 13.7589 6.96567 13.8507ZM7.20005 15.2541C7.03948 15.1775 6.65621 14.933 6.34589 14.7094C6.07946 14.5203 5.88784 14.3946 5.81283 14.349C5.71362 14.3406 5.47106 14.3234 5.17851 14.3071C4.86185 14.2894 4.44411 14.2651 4.30903 14.2547L4.28543 14.2525C4.21281 14.3954 4.09148 14.5162 3.93765 14.597C3.88092 14.6265 3.81545 14.6485 3.48431 14.6651C3.30476 14.6741 3.0837 14.6792 2.87784 14.6792C2.7108 14.6792 2.48432 14.6758 2.3538 14.6596C2.16416 14.6358 2.02866 14.5804 1.92734 14.4851C1.92225 14.4803 1.91631 14.4751 1.91064 14.4701C1.74929 14.3276 1.70532 14.1972 1.68573 13.8049C1.66686 13.4273 1.66696 12.7149 1.66717 11.2956L1.66722 10.7905C1.66722 10.5604 1.66716 10.3458 1.66709 10.1458C1.66668 8.76224 1.66647 8.0681 1.69012 7.70037C1.71301 7.34457 1.75928 7.17365 1.98671 7.03621L1.98895 7.03484C1.99758 7.02965 2.00675 7.02413 2.01644 7.0177C2.19838 6.8966 2.29062 6.8966 3.00856 6.8966C3.77449 6.8966 3.95647 6.8966 4.17802 7.14549C4.20216 7.17222 4.22404 7.20402 4.24301 7.23591L5.00812 6.73429C5.5791 6.36122 6.1764 5.95902 6.32906 5.84858C6.69588 5.58404 7.35094 5.2563 7.73096 5.14715C7.93244 5.0909 8.19571 5.05875 8.45393 5.05875C8.63366 5.05875 8.88124 5.0742 9.0568 5.14636L9.13816 5.07108C9.4825 4.74837 10.0286 4.48098 10.4657 4.42124C10.5715 4.40715 10.6817 4.4 10.7936 4.4C11.365 4.4 11.9977 4.58249 12.5752 4.91382C12.7426 5.00987 13.6786 5.60082 14.4987 6.12184C15.2519 6.60043 15.731 6.9049 15.9469 7.02689C16.1305 6.89661 16.4053 6.8966 16.9921 6.8966C17.7104 6.8966 17.8027 6.8966 17.985 7.01823C17.9942 7.02431 18.0035 7.02991 18.0123 7.03524L18.0141 7.03629C18.2414 7.1736 18.2876 7.34388 18.3105 7.69825C18.3342 8.06409 18.334 8.7544 18.3336 10.1297C18.3335 10.3286 18.3334 10.542 18.3334 10.7709C18.3334 14.0369 18.3126 14.1035 18.2779 14.1869C18.1852 14.4286 17.9855 14.5968 17.7155 14.6606L17.7117 14.6615C17.611 14.6835 17.4256 14.6946 17.1598 14.6946C17.0714 14.6946 16.9768 14.6933 16.8785 14.6908C16.2824 14.6816 16.1198 14.6721 15.8948 14.4801L15.8807 14.4859C15.4236 14.6659 14.64 14.7866 13.9298 14.7866C13.7674 14.7866 13.6136 14.7802 13.4726 14.7676C13.2356 14.7447 12.9414 14.7047 12.8162 14.6782L12.8096 14.6768L12.8028 14.675C12.7403 14.6585 12.663 14.6494 12.5854 14.6494C12.5545 14.6494 12.5242 14.6508 12.4953 14.6537C12.4648 14.6565 12.4163 14.661 12.3966 14.6649C12.3752 14.6827 12.3238 14.7387 12.278 14.7885C12.0053 15.0796 11.7352 15.2577 11.3729 15.3858L11.3696 15.387C11.106 15.4762 11.0034 15.4896 10.5847 15.4896C10.254 15.4896 10.0192 15.4706 9.82367 15.428C9.75365 15.4129 9.67449 15.3959 9.64706 15.3942C9.63407 15.3984 9.59824 15.414 9.58223 15.4209C9.31056 15.5416 8.99871 15.603 8.65605 15.603C8.17857 15.603 7.67509 15.4824 7.20005 15.2541Z" />
</svg>