<!-- character:0:1725 -->
  <svg width="20" height="20" viewBox="0 0 20 20" >
<path   d="M14.1223 13.7414C14.6781 13.7114 15.3752 13.5644 15.6307 13.4423V8.09254L14.0977 7.11951C13.2227 6.56223 12.3062 5.9845 12.1363 5.88307C11.8079 5.68314 11.4597 5.54103 11.1552 5.48248C11.0265 5.45829 10.9135 5.44649 10.8099 5.44649C10.6415 5.44649 10.4869 5.47725 10.3087 5.54624L10.3059 5.54732C10.0978 5.62503 9.95693 5.73046 9.42451 6.27905C9.27532 6.43168 9.04973 6.6634 8.81153 6.9081C8.60161 7.12373 8.38189 7.34945 8.19637 7.53959C7.89038 7.85298 7.77913 7.91777 7.67706 8.03584C7.575 8.1539 7.5595 8.35094 7.63341 8.45023C7.70732 8.54953 7.826 8.59592 8.15775 8.62656C8.4895 8.65721 8.52661 8.63838 8.61067 8.62656C9.51346 8.49962 9.82275 8.11588 10.8679 7.22869C11.0796 7.05011 11.1961 6.95182 11.351 6.95182C11.4283 6.95182 11.4996 6.97732 11.5631 7.02761C11.8869 7.2806 14.8651 9.92744 15.0264 10.1056C15.1215 10.2096 15.227 10.3793 15.2819 10.4931L15.2839 10.4973C15.3747 10.6952 15.3942 10.8036 15.3942 11.1083C15.3942 11.4407 15.3772 11.5168 15.2419 11.7876C15.0769 12.1279 14.7652 12.4421 14.4287 12.6065C14.4594 12.9875 14.3451 13.4058 14.1223 13.7414ZM6.96531 13.8506C7.26972 14.0721 7.58335 14.2682 7.67417 14.3113C7.98355 14.4599 8.32821 14.5416 8.64507 14.5416C8.89723 14.5416 9.11575 14.4887 9.26039 14.3926L9.48043 14.2459L9.90629 14.3546C10.1682 14.4196 10.3905 14.4513 10.5852 14.4513C10.6668 14.4513 10.7443 14.4455 10.8157 14.434C11.1618 14.3823 11.4827 14.1688 11.6173 13.9021L11.7884 13.5599L12.1898 13.604C12.2198 13.6072 12.2518 13.6088 12.2846 13.6088C12.7008 13.6087 13.1824 13.3386 13.3153 13.0307C13.3841 12.8724 13.3824 12.5893 13.3114 12.3861C13.2486 12.2033 13.2096 12.0647 13.2791 11.9431C13.317 11.8712 13.3971 11.7859 13.6751 11.7564C13.8346 11.7343 14.0167 11.6404 14.1508 11.5112C14.3878 11.2833 14.4201 11.0616 14.2495 10.8334C14.1499 10.7151 12.8756 9.56102 11.3689 8.25424L11.3304 8.22035L11.2247 8.30588C11.0668 8.43403 10.7543 8.6609 10.5283 8.81153C9.71282 9.35447 9.00545 9.61839 8.36575 9.61839C8.02778 9.61839 7.70091 9.5435 7.39425 9.39584C6.82869 9.12469 6.54008 8.71639 6.51212 8.1477C6.51212 8.1477 6.51456 7.82391 6.88951 7.38787C7.26446 6.95182 7.5595 6.67824 7.5595 6.67824C7.74914 6.48635 7.92935 6.30152 8.08423 6.14016C7.74113 6.23116 7.33363 6.43068 6.99744 6.67466C6.84639 6.78125 6.17955 7.22759 5.54162 7.64657C4.98555 8.00896 4.55053 8.29906 4.38727 8.41221C4.36958 8.63796 4.36874 9.39876 4.36874 10.8649C4.36874 12.0803 4.37524 12.8571 4.38142 13.199C4.5693 13.2131 4.83376 13.23 5.11144 13.2455C5.97597 13.2966 6.15388 13.3187 6.29507 13.3927C6.41844 13.4549 6.83909 13.7588 6.96531 13.8506ZM7.19969 15.254C7.03912 15.1774 6.65584 14.9329 6.34552 14.7093C6.07909 14.5202 5.88748 14.3945 5.81246 14.3489C5.71325 14.3405 5.4707 14.3233 5.17815 14.307C4.86149 14.2893 4.44374 14.265 4.30867 14.2546L4.28506 14.2524C4.21245 14.3953 4.09112 14.5161 3.93729 14.5969C3.88055 14.6264 3.81508 14.6484 3.48394 14.665C3.30439 14.674 3.08334 14.6791 2.87747 14.6791C2.71043 14.6791 2.48396 14.6757 2.35343 14.6595C2.16379 14.6357 2.02829 14.5803 1.92698 14.485C1.92188 14.4802 1.91595 14.475 1.91028 14.47C1.74892 14.3275 1.70496 14.1971 1.68536 13.8048C1.66649 13.4272 1.66659 12.7148 1.66681 11.2955L1.66686 10.7904C1.66686 10.5603 1.66679 10.3457 1.66672 10.1457C1.66631 8.76214 1.6661 8.068 1.68975 7.70027C1.71265 7.34447 1.75892 7.17355 1.98635 7.03611L1.98858 7.03474C1.99721 7.02955 2.00638 7.02403 2.01608 7.0176C2.19801 6.8965 2.29025 6.8965 3.00819 6.8965C3.77412 6.8965 3.95611 6.8965 4.17765 7.14539C4.2018 7.17212 4.22367 7.20392 4.24264 7.23581L5.00775 6.73419C5.57873 6.36112 6.17603 5.95892 6.32869 5.84849C6.69552 5.58394 7.35057 5.2562 7.7306 5.14705C7.93207 5.0908 8.19535 5.05865 8.45356 5.05865C8.63329 5.05865 8.88087 5.0741 9.05643 5.14626L9.13779 5.07098C9.48213 4.74827 10.0282 4.48088 10.4653 4.42114C10.5711 4.40705 10.6813 4.3999 10.7932 4.3999C11.3646 4.3999 11.9973 4.58239 12.5749 4.91372C12.7423 5.00977 13.6782 5.60072 14.4983 6.12174C15.2515 6.60033 15.7307 6.9048 15.9465 7.02679C16.1302 6.89652 16.4049 6.8965 16.9917 6.8965C17.71 6.8965 17.8023 6.8965 17.9846 7.01813C17.9938 7.02421 18.0032 7.02981 18.012 7.03514L18.0137 7.03619C18.241 7.1735 18.2873 7.34378 18.3102 7.69815C18.3338 8.06399 18.3336 8.7543 18.3332 10.1296C18.3331 10.3285 18.3331 10.5419 18.3331 10.7708C18.3331 14.0368 18.3122 14.1034 18.2775 14.1868C18.1848 14.4285 17.9851 14.5967 17.7151 14.6605L17.7113 14.6614C17.6107 14.6834 17.4253 14.6945 17.1594 14.6945C17.071 14.6945 16.9764 14.6932 16.8782 14.6907C16.282 14.6815 16.1194 14.672 15.8945 14.48L15.8804 14.4858C15.4233 14.6658 14.6397 14.7865 13.9294 14.7865C13.767 14.7865 13.6132 14.7801 13.4722 14.7675C13.2352 14.7446 12.941 14.7046 12.8159 14.6781L12.8092 14.6767L12.8025 14.6749C12.7399 14.6584 12.6627 14.6493 12.585 14.6493C12.5541 14.6493 12.5238 14.6507 12.4949 14.6536C12.4644 14.6564 12.416 14.6609 12.3962 14.6648C12.3748 14.6826 12.3234 14.7386 12.2776 14.7884C12.005 15.0795 11.7349 15.2576 11.3725 15.3857L11.3692 15.3869C11.1057 15.4761 11.003 15.4895 10.5844 15.4895C10.2536 15.4895 10.0189 15.4705 9.8233 15.4279C9.75328 15.4128 9.67412 15.3958 9.64669 15.3941C9.63371 15.3983 9.59788 15.4139 9.58187 15.4208C9.31019 15.5415 8.99835 15.6029 8.65568 15.6029C8.17821 15.6029 7.67473 15.4823 7.19969 15.254Z" />
</svg>