<!-- character:0:788 -->
  <svg width="20" height="20" viewBox="0 0 20 20" >
<path   d="M10.5041 9.25225C10.5133 9.31452 10.4881 9.37691 10.4382 9.4153C9.2113 10.3595 8.43403 11.7728 8.29375 13.3146C8.28518 13.4038 8.21042 13.4719 8.12083 13.4722H2.01389C1.82212 13.4722 1.66666 13.3168 1.66666 13.125C1.67543 12.2776 1.8532 11.4404 2.18958 10.6625C2.56377 9.91552 3.79092 9.46418 5.48943 8.83948L5.49097 8.83891L5.92916 8.6778C5.9798 8.6164 6.01227 8.54208 6.02291 8.46321C6.08971 8.15967 6.07217 7.84363 5.97222 7.54933C5.22968 6.74161 4.86252 5.65802 4.96111 4.5653C4.96111 2.88613 6.05764 1.66669 7.56944 1.66669C9.08125 1.66669 10.1778 2.88613 10.1778 4.56322C10.2768 5.66079 9.90696 6.74904 9.15972 7.55905C9.06916 7.85155 9.05529 8.16242 9.11944 8.46183C9.12988 8.54156 9.16316 8.61656 9.21528 8.6778L9.65139 8.83752C9.70737 8.85842 9.76271 8.87906 9.81744 8.89948C10.0173 8.97403 10.2089 9.04552 10.3937 9.1153C10.4526 9.13757 10.4949 9.18997 10.5041 9.25225ZM13.8194 9.30558C11.3265 9.30558 9.30555 11.3265 9.30555 13.8195C9.30555 16.3124 11.3265 18.3334 13.8194 18.3334C16.3124 18.3334 18.3333 16.3124 18.3333 13.8195C18.3303 11.3278 16.3111 9.30864 13.8194 9.30558ZM16.9444 13.8195C16.9444 14.203 16.6335 14.5139 16.25 14.5139H14.8611C14.6693 14.5139 14.5139 14.6694 14.5139 14.8611V16.25C14.5139 16.6336 14.203 16.9445 13.8194 16.9445C13.4359 16.9445 13.125 16.6336 13.125 16.25V14.8611C13.125 14.6694 12.9695 14.5139 12.7778 14.5139H11.3889C11.0054 14.5139 10.6944 14.203 10.6944 13.8195C10.6944 13.4359 11.0054 13.125 11.3889 13.125H12.7778C12.9695 13.125 13.125 12.9696 13.125 12.7778V11.3889C13.125 11.0054 13.4359 10.6945 13.8194 10.6945C14.203 10.6945 14.5139 11.0054 14.5139 11.3889V12.7778C14.5139 12.9696 14.6693 13.125 14.8611 13.125H16.25C16.6335 13.125 16.9444 13.4359 16.9444 13.8195Z" />
</svg>