<!-- character:0:824 -->
  <svg width="20" height="20" viewBox="0 0 20 20" >
<path   d="M3.06722 16.9321H17.0028C16.9328 16.0224 16.7927 15.1121 16.3725 14.2717C16.0224 13.5714 14.4818 13.0112 12.521 12.2402L11.7507 12.0301L11.6106 11.8901C11.4706 11.68 11.3305 11.4706 11.3305 11.2605C11.2605 10.8397 11.2605 10.2794 11.4005 9.78924L11.4706 9.64918L11.6106 9.50912C12.451 8.59876 12.8711 7.40828 12.7311 6.14778C12.7311 4.25702 11.6106 2.99652 10.07 2.99652C8.5294 2.99652 7.33893 4.25702 7.33893 6.07775C7.19887 7.33826 7.61904 8.59876 8.45937 9.50912L8.5294 9.64918L8.59943 9.78924C8.73949 10.2794 8.80951 10.8397 8.66946 11.3299C8.66946 11.4706 8.5294 11.75 8.38935 11.8901L8.31932 12.0301L7.54901 12.3109C5.58823 13.0112 4.04761 13.6408 3.62744 14.3411C3.2773 15.1121 3.06722 16.0224 3.06722 16.9321ZM17.2129 18.3327H2.7871C2.15685 18.3327 1.66666 17.8425 1.66666 17.2129C1.66666 16.0224 1.94677 14.8313 2.36694 13.7115C2.99719 12.4503 4.67786 11.8207 7.05881 10.9797L7.33893 10.9104V10.3495C6.28851 9.15898 5.79831 7.61907 5.93837 6.07775C5.93837 3.55674 7.61904 1.66669 9.99999 1.66669C12.3809 1.66669 14.0616 3.55674 14.0616 6.14778C14.2017 7.61907 13.7115 9.22901 12.6611 10.3495C12.591 10.5595 12.591 10.6996 12.6611 10.9104L12.9412 10.9797C15.3221 11.8207 17.0028 12.4503 17.633 13.7115V13.7808C18.1232 14.9013 18.3333 16.0224 18.3333 17.2129C18.3333 17.8425 17.8431 18.3327 17.2129 18.3327Z" />
</svg>