<!--character:86:550:509-->
<svg width="24" height="24" viewBox="0 0 24 24" xmlns="http://www.w3.org/2000/svg"><path d="M13.9167 9.0833c0 .1667.1666.3334.3333.3334h.9167c.1666 0 .3333-.1667.3333-.3334V9c-.1667-.75-.6667-1.5-1.25-1.9167-.1667-.0833-.3333-.0833-.5.0834-.0833 0-.0833.1666-.0833.25.1666.5833.25 1.0833.25 1.6666zM16.5833 2H7.4167C5.8333 2 4.5 3.3333 4.5 4.9167v14.1666C4.5 20.6667 5.8333 22 7.4167 22h9.1666c1.5834 0 2.9167-1.3333 2.9167-2.9167V4.9167C19.5 3.3333 18.1667 2 16.5833 2zM12 5.3333c2.5 0 4.5833 2.0834 4.5833 4.5834S14.5 14.5 12 14.5c-2.5 0-4.5833-2.0833-4.5833-4.5833 0-2.5 2.0833-4.5834 4.5833-4.5834zm4.1667 13.3334H7.8333c-.5 0-.8333-.3334-.8333-.8334S7.3333 17 7.8333 17h8.3334c.5 0 .8333.3333.8333.8333s-.3333.8334-.8333.8334zm-2.25-5.8334c.0833 0 .1666 0 .25-.0833.6666-.5 1.0833-1.1667 1.3333-2 .0833-.1667-.0833-.3333-.25-.4167h-1c-.1667 0-.3333.1667-.3333.3334 0 .5833-.1667 1.1666-.25 1.75-.0834.1666.0833.4166.25.4166zm-1.25-2.4166h-1.25c-.1667 0-.3334.1666-.3334.3333.0834.9167.3334 1.9167.75 2.75h.3334c.4166-.8333.6666-1.75.75-2.75.0833-.1667-.0834-.3333-.25-.3333zM9.8333 12.75c.1667.0833.3334.0833.5-.0833.0834-.0834.0834-.1667.0834-.25-.1667-.5834-.25-1.1667-.25-1.75 0-.1667-.1667-.3334-.3334-.3334h-1c-.1666 0-.3333.1667-.3333.3334v.0833c.25.8333.6667 1.5 1.3333 2zM8.75 9.4167s.0833 0 0 0h1c.1667 0 .3333-.1667.3333-.3334 0-.5833.0834-1.1666.25-1.75 0-.0833-.0833-.25-.25-.3333-.0833 0-.1666 0-.25.0833C9.1667 7.5833 8.75 8.25 8.5 9c0 .1667.0833.3333.25.4167zm2.5833 0h1.25c.1667 0 .3334-.1667.3334-.3334 0-.9166-.25-1.9166-.75-2.75H11.75h-.0833c-.4167.8334-.6667 1.75-.75 2.75.0833.1667.25.3334.4166.3334z"/></svg></svg>
