<!--character:$472:105-->
  <svg width="24" height="24" viewBox="0 0 24 24" >
<path d="M21.0833 17.5767C20.5 16.3267 18.4167 15.5767 15.5 14.4934C14.9167 14.3267 14.5825 14.2434 14.4167 13.7425C14.25 13.3259 14.25 12.8267 14.5825 12.41C15.75 11.16 16.3333 9.3267 16.3333 6.91003C16.3333 3.8267 14.1658 2.41003 12 2.41003C9.83333 2.41003 7.66583 3.8267 7.66583 6.99337C7.66583 9.41003 8.25 11.2434 9.3325 12.4925C9.58333 12.9092 9.66667 13.41 9.5 13.8267C9.3325 14.2434 9 14.3267 8.41667 14.5759C5.5 15.66 3.41667 16.41 2.83333 17.66C2.33333 18.7425 2 19.91 2 21.16C2 21.41 2.16667 21.5767 2.41667 21.5767H21.5833C21.8325 21.5767 22 21.41 22 21.16C22 19.91 21.6658 18.7425 21.0833 17.5767Z" />
</svg>