<!--character:2788-->
  <svg width="20" height="20" viewBox="0 0 20 20" >
<path d="M10.5041 9.25222C10.5133 9.3145 10.4881 9.37689 10.4382 9.41528C9.21132 10.3595 8.43406 11.7728 8.29377 13.3146C8.28521 13.4038 8.21044 13.4719 8.12085 13.4722H2.01391C1.82214 13.4722 1.66669 13.3168 1.66669 13.125C1.67545 12.2776 1.85323 11.4404 2.1896 10.6625C2.5638 9.9155 3.79094 9.46416 5.48945 8.83945L5.92919 8.67778C5.97982 8.61638 6.01229 8.54206 6.02294 8.46319C6.08973 8.15964 6.0722 7.8436 5.97224 7.5493C5.22971 6.74159 4.86254 5.658 4.96113 4.56528C4.96113 2.88611 6.05766 1.66666 7.56947 1.66666C9.08127 1.66666 10.1778 2.88611 10.1778 4.56319C10.2768 5.66077 9.90698 6.74902 9.15974 7.55903C9.06919 7.85153 9.05532 8.1624 9.11947 8.4618C9.1299 8.54153 9.16318 8.61654 9.2153 8.67778L9.65141 8.8375C9.70739 8.8584 9.76273 8.87904 9.81746 8.89946C10.0173 8.974 10.209 9.0455 10.3938 9.11528C10.4527 9.13754 10.4949 9.18995 10.5041 9.25222Z" />
<path d="M13.8195 9.30555C11.3265 9.30555 9.30558 11.3265 9.30558 13.8194C9.30558 16.3124 11.3265 18.3333 13.8195 18.3333C16.3124 18.3333 18.3334 16.3124 18.3334 13.8194C18.3303 11.3278 16.3111 9.30861 13.8195 9.30555ZM16.9445 13.8194C16.9445 14.203 16.6336 14.5139 16.25 14.5139H14.8611C14.6694 14.5139 14.5139 14.6693 14.5139 14.8611V16.25C14.5139 16.6335 14.203 16.9444 13.8195 16.9444C13.4359 16.9444 13.125 16.6335 13.125 16.25V14.8611C13.125 14.6693 12.9696 14.5139 12.7778 14.5139H11.3889C11.0054 14.5139 10.6945 14.203 10.6945 13.8194C10.6945 13.4359 11.0054 13.125 11.3889 13.125H12.7778C12.9696 13.125 13.125 12.9695 13.125 12.7778V11.3889C13.125 11.0054 13.4359 10.6944 13.8195 10.6944C14.203 10.6944 14.5139 11.0054 14.5139 11.3889V12.7778C14.5139 12.9695 14.6694 13.125 14.8611 13.125H16.25C16.6336 13.125 16.9445 13.4359 16.9445 13.8194Z" />
</svg>