<!--character:5491-->
  <svg width="24" height="24" viewBox="0 0 24 24" >
<path d="M16.5833 2H7.41667C5.83333 2 4.5 3.33333 4.5 4.91666V19.0833C4.5 20.6667 5.83333 22 7.41667 22H16.5833C18.1667 22 19.5 20.6667 19.5 19.0833V4.91666C19.5 3.33333 18.1667 2 16.5833 2ZM13.9167 9.08333C13.9167 9.25 14.0833 9.41666 14.25 9.41666H15.1667C15.3333 9.41666 15.5 9.25 15.5 9.08333V9C15.3333 8.25 14.8333 7.5 14.25 7.08333C14.0833 7 13.9167 7 13.75 7.16666C13.6667 7.16666 13.6667 7.33333 13.6667 7.41666C13.8333 8 13.9167 8.5 13.9167 9.08333ZM16.5833 9.91666C16.5833 12.4167 14.5 14.5 12 14.5C9.5 14.5 7.41667 12.4167 7.41667 9.91666C7.41667 7.41666 9.5 5.33333 12 5.33333C14.5 5.33333 16.5833 7.41666 16.5833 9.91666ZM7.83333 18.6667C7.33333 18.6667 7 18.3333 7 17.8333C7 17.3333 7.33333 17 7.83333 17H16.1667C16.6667 17 17 17.3333 17 17.8333C17 18.3333 16.6667 18.6667 16.1667 18.6667H7.83333ZM14.1667 12.75C14.0833 12.8333 14 12.8333 13.9167 12.8333C13.75 12.8333 13.5833 12.5833 13.6667 12.4167C13.6944 12.2222 13.7315 12.0278 13.7685 11.8333C13.8426 11.4444 13.9167 11.0556 13.9167 10.6667C13.9167 10.5 14.0833 10.3333 14.25 10.3333H15.25C15.4167 10.4167 15.5833 10.5833 15.5 10.75C15.25 11.5833 14.8333 12.25 14.1667 12.75ZM12.6667 10.4167H11.4167C11.25 10.4167 11.0833 10.5833 11.0833 10.75C11.1667 11.6667 11.4167 12.6667 11.8333 13.5H12.1667C12.5833 12.6667 12.8333 11.75 12.9167 10.75C13 10.5833 12.8333 10.4167 12.6667 10.4167ZM10.3333 12.6667C10.1667 12.8333 10 12.8333 9.83333 12.75C9.16667 12.25 8.75 11.5833 8.5 10.75V10.6667C8.5 10.5 8.66667 10.3333 8.83333 10.3333H9.83333C10 10.3333 10.1667 10.5 10.1667 10.6667C10.1667 11.25 10.25 11.8333 10.4167 12.4167C10.4167 12.5 10.4167 12.5833 10.3333 12.6667ZM8.75 9.41667H9.75C9.91667 9.41667 10.0833 9.25 10.0833 9.08333C10.0833 8.5 10.1667 7.91666 10.3333 7.33333C10.3333 7.25 10.25 7.08333 10.0833 7C10 7 9.91667 7 9.83333 7.08333C9.16667 7.58333 8.75 8.25 8.5 9C8.5 9.16666 8.58333 9.33333 8.75 9.41667ZM12.5833 9.41666H11.3333C11.1667 9.41666 11 9.25 10.9167 9.08333C11 8.08333 11.25 7.16666 11.6667 6.33333H12.1667C12.6667 7.16666 12.9167 8.16666 12.9167 9.08333C12.9167 9.25 12.75 9.41666 12.5833 9.41666Z" />
</svg>