<!--character:8760-->
  <svg width="20" height="20" viewBox="0 0 20 20" >
<path d="M17.5695 14.6472C17.0834 13.6056 15.3473 12.9806 12.9167 12.0778C12.4306 11.9389 12.1522 11.8694 12.014 11.4521C11.8751 11.1049 11.8751 10.6889 12.1522 10.3417C13.1251 9.3 13.6112 7.77222 13.6112 5.75833C13.6112 3.18889 11.8049 2.00833 10.0001 2.00833C8.19453 2.00833 6.38828 3.18889 6.38828 5.82778C6.38828 7.84166 6.87508 9.36944 7.77716 10.4104C7.98619 10.7576 8.05564 11.175 7.91675 11.5222C7.77717 11.8694 7.50008 11.9389 7.01397 12.1465C4.58341 13.05 2.8473 13.675 2.36119 14.7167C1.94453 15.6187 1.66675 16.5917 1.66675 17.6333C1.66675 17.8417 1.80564 17.9806 2.01397 17.9806H17.9862C18.1938 17.9806 18.3334 17.8417 18.3334 17.6333C18.3334 16.5917 18.0549 15.6187 17.5695 14.6472Z" />
</svg>