<!--character:6092-->
  <svg width="24" height="24" viewBox="0 0 24 24" >
<path d="M3.6807 20.3185H20.4034C20.3194 19.2269 20.1513 18.1345 19.6471 17.1261C19.2269 16.2857 17.3782 15.6134 15.0252 14.6882L14.1009 14.4361L13.9328 14.2681C13.7647 14.016 13.5967 13.7647 13.5967 13.5126C13.5126 13.0076 13.5126 12.3353 13.6807 11.7471L13.7647 11.579L13.9328 11.4109C14.9412 10.3185 15.4454 8.88992 15.2773 7.37731C15.2773 5.1084 13.9328 3.5958 12.0841 3.5958C10.2353 3.5958 8.80675 5.1084 8.80675 7.29328C8.63868 8.80588 9.14288 10.3185 10.1513 11.4109L10.3194 11.7471C10.4874 12.3353 10.5715 13.0076 10.4034 13.5958C10.4034 13.7647 10.2353 14.1 10.0673 14.2681L9.98322 14.4361L9.05885 14.7731C6.70591 15.6134 4.85717 16.3689 4.35297 17.2092C3.9328 18.1345 3.6807 19.2269 3.6807 20.3185ZM20.6555 21.9992H3.34456C2.58826 21.9992 2.00002 21.4109 2.00002 20.6555C2.00002 19.2269 2.33616 17.7975 2.84036 16.4538C3.59666 14.9403 5.61347 14.1849 8.47061 13.1756L8.80675 13.0924V12.4193C7.54624 10.9908 6.95801 9.14286 7.12608 7.29328C7.12608 4.26807 9.14288 2 12 2C14.8572 2 16.874 4.26807 16.874 7.37731C17.042 9.14286 16.4538 11.0748 15.1933 12.4193C15.1093 12.6714 15.1093 12.8395 15.1933 13.0924L15.5294 13.1756C18.3866 14.1849 20.4034 14.9403 21.1597 16.4538V16.537C21.7479 17.8815 22 19.2269 22 20.6555C22 21.4109 21.4118 21.9992 20.6555 21.9992Z" />
</svg>