<!-- character:0:812 -->
  <svg width="20" height="20" viewBox="0 0 20 20" >
<path   d="M10.8527 11.796C12.4847 12.3767 14.3333 13.0347 14.3333 15.6667V16.6667C14.3333 16.7556 14.2978 16.8408 14.2348 16.9033C14.1717 16.9659 14.0862 17.0007 13.9973 17H2.66399C2.4799 17 2.33066 16.8508 2.33066 16.6667V15.67C2.33066 13.0301 4.17326 12.378 5.79724 11.8034L5.79732 11.8034C5.96732 11.7434 6.13732 11.6827 6.30532 11.6207C6.34999 11.602 6.41599 11.524 6.46666 11.354C6.57897 10.9233 6.55946 10.4688 6.41066 10.0494C5.78132 9.35736 5.16332 8.4967 5.16332 6.36336C5.08611 5.48382 5.38834 4.61318 5.99393 3.97066C6.59951 3.32814 7.45075 2.97496 8.33332 3.00003C9.21552 2.97502 10.0664 3.32794 10.6719 3.97C11.2774 4.61206 11.5799 5.48215 11.5033 6.36136C11.5033 8.4967 10.8853 9.35536 10.2527 10.052C10.1064 10.4705 10.0876 10.9229 10.1987 11.352C10.2493 11.524 10.3153 11.602 10.36 11.6187L10.8527 11.796ZM15.2453 12.9334L15.6213 13.0667C16.8927 13.5174 18.3333 14.0307 18.3333 16.098V16.6667C18.3333 16.8508 18.1841 17 18 17H15.492C15.444 17 15.3984 16.9794 15.3666 16.9435C15.3349 16.9075 15.3201 16.8596 15.326 16.812C15.3327 16.7639 15.336 16.7153 15.336 16.6667V15.6667C15.336 12.5987 13.2253 11.604 11.6027 11.004C11.5603 10.9884 11.5261 10.9561 11.508 10.9147C11.4382 10.7556 11.3807 10.5913 11.336 10.4234C11.3227 10.3733 11.3333 10.3199 11.3647 10.2787C12.1241 9.24726 12.5203 7.99323 12.4913 6.7127C12.4934 6.64876 12.5316 6.59158 12.59 6.56536C12.9286 6.41329 13.2955 6.33424 13.6667 6.33336C14.3633 6.31298 15.0353 6.59136 15.5135 7.09832C15.9917 7.60528 16.2303 8.29248 16.1693 8.9867C16.2642 10.0398 15.9094 11.084 15.1927 11.8614C15.1055 12.1421 15.0922 12.4406 15.154 12.728C15.1638 12.8039 15.1955 12.8753 15.2453 12.9334Z" />
</svg>