<!--character:5495-->
  <svg width="20" height="20" viewBox="0 0 20 20" >
<path d="M10.8526 11.796C12.4846 12.3767 14.3332 13.0347 14.3332 15.6667V16.6667C14.3332 16.7555 14.2978 16.8407 14.2347 16.9033C14.1716 16.9659 14.0861 17.0007 13.9972 17H2.6639C2.4798 17 2.33057 16.8508 2.33057 16.6667V15.67C2.33057 13.03 4.17317 12.378 5.79715 11.8034C5.96715 11.7434 6.13723 11.6827 6.30523 11.6207C6.3499 11.602 6.4159 11.524 6.46657 11.354C6.57887 10.9233 6.55937 10.4688 6.41057 10.0493C5.78123 9.35733 5.16323 8.49666 5.16323 6.36333C5.08602 5.48379 5.38825 4.61315 5.99384 3.97063C6.59942 3.32811 7.45066 2.97493 8.33323 3C9.21543 2.97499 10.0663 3.32791 10.6718 3.96997C11.2773 4.61203 11.5798 5.48212 11.5032 6.36133C11.5032 8.49666 10.8852 9.35533 10.2526 10.052C10.1063 10.4704 10.0875 10.9229 10.1986 11.352C10.2492 11.524 10.3152 11.602 10.3599 11.6187L10.8526 11.796Z" />
<path d="M15.2452 12.9333L15.6212 13.0667C16.8926 13.5173 18.3332 14.0307 18.3332 16.098V16.6667C18.3332 16.8508 18.184 17 17.9999 17H15.4919C15.4439 17 15.3983 16.9794 15.3665 16.9434C15.3348 16.9075 15.32 16.8596 15.3259 16.812C15.3326 16.7638 15.3359 16.7153 15.3359 16.6667V15.6667C15.3359 12.5987 13.2252 11.604 11.6026 11.004C11.5602 10.9884 11.526 10.9561 11.5079 10.9147C11.4381 10.7555 11.3806 10.5913 11.3359 10.4233C11.3226 10.3733 11.3332 10.3199 11.3646 10.2787C12.124 9.24723 12.5202 7.9932 12.4912 6.71267C12.4933 6.64873 12.5316 6.59155 12.5899 6.56533C12.9285 6.41326 13.2954 6.33421 13.6666 6.33333C14.3632 6.31295 15.0352 6.59133 15.5134 7.09829C15.9916 7.60525 16.2303 8.29245 16.1692 8.98667C16.2641 10.0398 15.9093 11.0839 15.1926 11.8613C15.1054 12.1421 15.0921 12.4406 15.1539 12.728C15.1637 12.8039 15.1954 12.8752 15.2452 12.9333Z" />
</svg>