<!--character:7904-->
  <svg width="24" height="24" viewBox="0 0 24 24" >
<path d="M21.0834 17.5767C20.5001 16.3267 18.4168 15.5767 15.5001 14.4933C14.9168 14.3267 14.5826 14.2433 14.4168 13.7425C14.2501 13.3258 14.2501 12.8267 14.5826 12.41C15.7501 11.16 16.3334 9.32666 16.3334 6.91C16.3334 3.82666 14.1659 2.41 12.0001 2.41C9.83343 2.41 7.66593 3.82666 7.66593 6.99333C7.66593 9.41 8.2501 11.2433 9.3326 12.4925C9.58343 12.9092 9.66676 13.41 9.5001 13.8267C9.3326 14.2433 9.0001 14.3267 8.41676 14.5758C5.5001 15.66 3.41676 16.41 2.83343 17.66C2.33343 18.7425 2.0001 19.91 2.0001 21.16C2.0001 21.41 2.16676 21.5767 2.41676 21.5767H21.5834C21.8326 21.5767 22.0001 21.41 22.0001 21.16C22.0001 19.91 21.6659 18.7425 21.0834 17.5767Z" />
</svg>