<!--category:travel-->
<!--character:0028-->
<svg width="24" height="24" viewBox="0 0 24 24" xmlns="http://www.w3.org/2000/svg"><path d="M18.7456 15.68C20.2712 16.2208 22 16.8368 22 19.3176V20a.4.4 0 0 1-.4.4h-3.0096a.2007.2007 0 0 1-.1992-.2256c.008-.0578.012-.116.012-.1744v-1.2c0-3.6816-2.5328-4.8752-4.48-5.5952a.1992.1992 0 0 1-.1136-.1072 4.08 4.08 0 0 1-.2064-.5896.2016.2016 0 0 1 .0344-.1736 6.952 6.952 0 0 0 1.352-4.2792.2008.2008 0 0 1 .1184-.1768A3.172 3.172 0 0 1 16.4 7.6a2.9288 2.9288 0 0 1 3.0032 3.184 4.4944 4.4944 0 0 1-1.172 3.4496 2.052 2.052 0 0 0-.0464 1.04.4712.4712 0 0 0 .1096.2464l.4512.16zM17.2 18.8V20a.4.4 0 0 1-.4032.4h-13.6a.4.4 0 0 1-.4-.4v-1.196c0-3.168 2.2112-3.9504 4.16-4.64.204-.072.408-.1448.6096-.2192.0536-.0224.1328-.116.1936-.32a2.6688 2.6688 0 0 0-.0672-1.5656C6.9376 11.2288 6.196 10.196 6.196 7.636A3.7128 3.7128 0 0 1 10 3.6a3.7128 3.7128 0 0 1 3.804 4.0336c0 2.5624-.7416 3.5928-1.5008 4.4288a2.6864 2.6864 0 0 0-.0648 1.56c.0608.2064.14.3.1936.32l.5912.2128C14.9816 14.852 17.2 15.6416 17.2 18.8z"/></svg>