<!--character:2111-->
  <svg width="24" height="24" viewBox="0 0 24 24" >
<path d="M13.0232 14.1552C14.9816 14.852 17.2 15.6416 17.2 18.8V20C17.2 20.1066 17.1574 20.2089 17.0817 20.284C17.006 20.3591 16.9034 20.4009 16.7968 20.4H3.19681C2.97589 20.4 2.79681 20.2209 2.79681 20V18.804C2.79681 15.6361 5.00793 14.8536 6.95671 14.164C7.16071 14.092 7.36481 14.0192 7.56641 13.9448C7.62001 13.9224 7.69921 13.8288 7.76001 13.6248C7.89478 13.108 7.87137 12.5626 7.69281 12.0592C6.93761 11.2288 6.19601 10.196 6.19601 7.636C6.10335 6.58054 6.46603 5.53578 7.19273 4.76476C7.91943 3.99374 8.94092 3.56991 10 3.6C11.0586 3.56999 12.0797 3.99349 12.8063 4.76396C13.5329 5.53444 13.8959 6.57854 13.804 7.6336C13.804 10.196 13.0624 11.2264 12.3032 12.0624C12.1276 12.5645 12.1051 13.1074 12.2384 13.6224C12.2992 13.8288 12.3784 13.9224 12.432 13.9424L13.0232 14.1552Z" />
<path d="M18.2944 15.52L18.7456 15.68C20.2712 16.2208 22 16.8368 22 19.3176V20C22 20.2209 21.8209 20.4 21.6 20.4H18.5904C18.5328 20.4 18.4781 20.3753 18.4399 20.3321C18.4018 20.289 18.3841 20.2315 18.3912 20.1744C18.3992 20.1166 18.4032 20.0583 18.4032 20V18.8C18.4032 15.1184 15.8704 13.9248 13.9232 13.2048C13.8723 13.186 13.8313 13.1473 13.8096 13.0976C13.7258 12.9066 13.6568 12.7095 13.6032 12.508C13.5873 12.4479 13.6 12.3839 13.6376 12.3344C14.5489 11.0967 15.0244 9.59184 14.9896 8.0552C14.992 7.97848 15.038 7.90986 15.108 7.8784C15.5144 7.69591 15.9546 7.60105 16.4 7.6C17.2359 7.57554 18.0424 7.90959 18.6162 8.51795C19.1901 9.1263 19.4764 9.95093 19.4032 10.784C19.517 12.0478 19.0913 13.3007 18.2312 14.2336C18.1266 14.5705 18.1106 14.9287 18.1848 15.2736C18.1966 15.3647 18.2346 15.4503 18.2944 15.52Z" />
</svg>