<!--character:5:472:107-->
  <svg width="24" height="24" viewBox="0 0 24 24" >
<path   d="M13.0232 14.1552C14.9816 14.852 17.2 15.6416 17.2 18.8V20C17.2 20.1067 17.1574 20.2089 17.0817 20.284C17.006 20.3591 16.9034 20.4009 16.7968 20.4H3.19678C2.97587 20.4 2.79678 20.2209 2.79678 20V18.804C2.79678 15.6361 5.00791 14.8536 6.95669 14.164L6.95678 14.164C7.16078 14.092 7.36478 14.0192 7.56638 13.9448C7.61998 13.9224 7.69918 13.8288 7.75998 13.6248C7.89475 13.108 7.87134 12.5626 7.69278 12.0592C6.93758 11.2288 6.19598 10.196 6.19598 7.63601C6.10333 6.58056 6.466 5.53579 7.19271 4.76477C7.91941 3.99375 8.9409 3.56993 9.99998 3.60001C11.0586 3.57 12.0797 3.9935 12.8063 4.76397C13.5329 5.53445 13.8959 6.57855 13.804 7.63361C13.804 10.196 13.0624 11.2264 12.3032 12.0624C12.1276 12.5645 12.1051 13.1075 12.2384 13.6224C12.2992 13.8288 12.3784 13.9224 12.432 13.9424L13.0232 14.1552ZM18.2944 15.52L18.7456 15.68C20.2712 16.2208 22 16.8368 22 19.3176V20C22 20.2209 21.8209 20.4 21.6 20.4H18.5904C18.5328 20.4 18.478 20.3753 18.4399 20.3321C18.4018 20.289 18.3841 20.2315 18.3912 20.1744C18.3992 20.1166 18.4032 20.0583 18.4032 20V18.8C18.4032 15.1184 15.8704 13.9248 13.9232 13.2048C13.8723 13.186 13.8313 13.1473 13.8096 13.0976C13.7258 12.9066 13.6568 12.7095 13.6032 12.508C13.5873 12.4479 13.6 12.3839 13.6376 12.3344C14.5489 11.0967 15.0244 9.59185 14.9896 8.05521C14.992 7.97849 15.038 7.90987 15.108 7.87841C15.5143 7.69592 15.9545 7.60106 16.4 7.60001C17.2359 7.57555 18.0424 7.9096 18.6162 8.51796C19.19 9.12631 19.4764 9.95095 19.4032 10.784C19.517 12.0478 19.0913 13.3007 18.2312 14.2336C18.1266 14.5705 18.1106 14.9287 18.1848 15.2736C18.1965 15.3647 18.2346 15.4503 18.2944 15.52Z" />
</svg>