<!--character:4935-->
  <svg width="24" height="24" viewBox="0 0 24 24" >
<path d="M12.6049 11.1027C12.616 11.1774 12.5857 11.2523 12.5259 11.2983C11.0536 12.4314 10.1209 14.1274 9.95252 15.9775C9.94225 16.0845 9.85253 16.1663 9.74502 16.1667H2.41669C2.18657 16.1667 2.00002 15.9801 2.00002 15.75C2.01054 14.7331 2.22387 13.7284 2.62752 12.795C3.07656 11.8986 4.54913 11.357 6.58734 10.6073L7.11502 10.4133C7.17578 10.3397 7.21475 10.2505 7.22752 10.1558C7.30767 9.79157 7.28664 9.41232 7.16669 9.05916C6.27565 8.0899 5.83505 6.7896 5.95336 5.47833C5.95336 3.46333 7.26919 2 9.08336 2C10.8975 2 12.2134 3.46333 12.2134 5.47583C12.3322 6.79292 11.8884 8.09882 10.9917 9.07083C10.883 9.42183 10.8664 9.79488 10.9434 10.1542C10.9559 10.2498 10.9958 10.3398 11.0584 10.4133L11.5817 10.605C11.6489 10.6301 11.7153 10.6548 11.781 10.6793C12.0208 10.7688 12.2508 10.8546 12.4725 10.9383C12.5432 10.9651 12.5939 11.0279 12.6049 11.1027Z" />
<path d="M16.5834 11.1667C13.5918 11.1667 11.1667 13.5918 11.1667 16.5833C11.1667 19.5749 13.5918 22 16.5834 22C19.5749 22 22 19.5749 22 16.5833C21.9964 13.5933 19.5734 11.1703 16.5834 11.1667ZM20.3334 16.5833C20.3334 17.0436 19.9603 17.4167 19.5 17.4167H17.8334C17.6032 17.4167 17.4167 17.6032 17.4167 17.8333V19.5C17.4167 19.9602 17.0436 20.3333 16.5834 20.3333C16.1231 20.3333 15.75 19.9602 15.75 19.5V17.8333C15.75 17.6032 15.5635 17.4167 15.3334 17.4167H13.6667C13.2065 17.4167 12.8334 17.0436 12.8334 16.5833C12.8334 16.1231 13.2065 15.75 13.6667 15.75H15.3334C15.5635 15.75 15.75 15.5634 15.75 15.3333V13.6667C15.75 13.2064 16.1231 12.8333 16.5834 12.8333C17.0436 12.8333 17.4167 13.2064 17.4167 13.6667V15.3333C17.4167 15.5634 17.6032 15.75 17.8334 15.75H19.5C19.9603 15.75 20.3334 16.1231 20.3334 16.5833Z" />
</svg>