<!-- character:0:1695 -->
  <svg width="20" height="20" viewBox="0 0 20 20" >
<path   d="M13.8194 1.66663H6.18056C4.86111 1.66663 3.75 2.77774 3.75 4.09718V15.9027C3.75 17.2222 4.86111 18.3333 6.18056 18.3333H13.8194C15.1389 18.3333 16.25 17.2222 16.25 15.9027V4.09718C16.25 2.77774 15.1389 1.66663 13.8194 1.66663ZM11.5972 7.5694C11.5972 7.70829 11.7361 7.84718 11.875 7.84718H12.6389C12.7778 7.84718 12.9167 7.70829 12.9167 7.5694V7.49996C12.7778 6.87496 12.3611 6.24996 11.875 5.90274C11.7361 5.83329 11.5972 5.83329 11.4583 5.97218C11.3889 5.97218 11.3889 6.11107 11.3889 6.18051C11.5278 6.66663 11.5972 7.08329 11.5972 7.5694ZM13.8194 8.26385C13.8194 6.18052 12.0833 4.4444 10 4.4444C7.91667 4.4444 6.18056 6.18052 6.18056 8.26385C6.18056 10.3472 7.91667 12.0833 10 12.0833C12.0833 12.0833 13.8194 10.3472 13.8194 8.26385ZM6.52778 15.5555C6.11111 15.5555 5.83333 15.2777 5.83333 14.8611C5.83333 14.4444 6.11111 14.1666 6.52778 14.1666H13.4722C13.8889 14.1666 14.1667 14.4444 14.1667 14.8611C14.1667 15.2777 13.8889 15.5555 13.4722 15.5555H6.52778ZM11.8056 10.625C11.7361 10.6944 11.6667 10.6944 11.5972 10.6944C11.4583 10.6944 11.3194 10.4861 11.3889 10.3472C11.412 10.1851 11.4429 10.0231 11.4738 9.86107C11.5355 9.537 11.5972 9.21292 11.5972 8.88885C11.5972 8.74996 11.7361 8.61107 11.875 8.61107H12.6389H12.7083C12.8472 8.68051 12.9861 8.8194 12.9167 8.95829C12.7083 9.65274 12.3611 10.2083 11.8056 10.625ZM10.5556 8.68051H9.51389C9.375 8.68051 9.23611 8.8194 9.23611 8.95829C9.30556 9.72218 9.51389 10.5555 9.86111 11.25H10H10.1389C10.4861 10.5555 10.6944 9.79163 10.7639 8.95829C10.8333 8.8194 10.6944 8.68051 10.5556 8.68051ZM8.61111 10.5555C8.47222 10.6944 8.33333 10.6944 8.19444 10.625C7.63889 10.2083 7.29167 9.65274 7.08333 8.95829V8.88885C7.08333 8.74996 7.22222 8.61107 7.36111 8.61107H8.19444C8.33333 8.61107 8.47222 8.74996 8.47222 8.88885C8.47222 9.37496 8.54167 9.86107 8.68056 10.3472C8.68056 10.4166 8.68056 10.4861 8.61111 10.5555ZM7.29167 7.84718H8.125C8.26389 7.84718 8.40278 7.70829 8.40278 7.5694C8.40278 7.08329 8.47222 6.59718 8.61111 6.11107C8.61111 6.04163 8.54167 5.90274 8.40278 5.83329C8.33333 5.83329 8.26389 5.83329 8.19444 5.90274C7.63889 6.3194 7.29167 6.87496 7.08333 7.49996C7.08333 7.63885 7.15278 7.77774 7.29167 7.84718ZM10.4861 7.84718H9.44445C9.30556 7.84718 9.16667 7.70829 9.09722 7.5694C9.16667 6.73607 9.375 5.97218 9.72222 5.27774H9.79167H9.93056H10.0694H10.1389C10.5556 5.97218 10.7639 6.80552 10.7639 7.5694C10.7639 7.70829 10.625 7.84718 10.4861 7.84718Z" />
</svg>