<!--character:9606-->
  <svg width="20" height="20" viewBox="0 0 20 20" >
<path d="M13.8194 1.66666H6.18056C4.86111 1.66666 3.75 2.77778 3.75 4.09722V15.9028C3.75 17.2222 4.86111 18.3333 6.18056 18.3333H13.8194C15.1389 18.3333 16.25 17.2222 16.25 15.9028V4.09722C16.25 2.77778 15.1389 1.66666 13.8194 1.66666ZM11.5972 7.56944C11.5972 7.70833 11.7361 7.84722 11.875 7.84722H12.6389C12.7778 7.84722 12.9167 7.70833 12.9167 7.56944V7.5C12.7778 6.875 12.3611 6.25 11.875 5.90277C11.7361 5.83333 11.5972 5.83333 11.4583 5.97222C11.3889 5.97222 11.3889 6.11111 11.3889 6.18055C11.5278 6.66666 11.5972 7.08333 11.5972 7.56944ZM13.8194 8.26389C13.8194 10.3472 12.0833 12.0833 10 12.0833C7.91667 12.0833 6.18056 10.3472 6.18056 8.26389C6.18056 6.18055 7.91667 4.44444 10 4.44444C12.0833 4.44444 13.8194 6.18055 13.8194 8.26389ZM6.52778 15.5556C6.11111 15.5556 5.83333 15.2778 5.83333 14.8611C5.83333 14.4444 6.11111 14.1667 6.52778 14.1667H13.4722C13.8889 14.1667 14.1667 14.4444 14.1667 14.8611C14.1667 15.2778 13.8889 15.5556 13.4722 15.5556H6.52778ZM11.8056 10.625C11.7361 10.6944 11.6667 10.6944 11.5972 10.6944C11.4583 10.6944 11.3194 10.4861 11.3889 10.3472C11.412 10.1852 11.4429 10.0231 11.4738 9.86111C11.5355 9.53703 11.5972 9.21296 11.5972 8.88889C11.5972 8.75 11.7361 8.61111 11.875 8.61111H12.7083C12.8472 8.68055 12.9861 8.81944 12.9167 8.95833C12.7083 9.65277 12.3611 10.2083 11.8056 10.625ZM10.5556 8.68055H9.51389C9.375 8.68055 9.23611 8.81944 9.23611 8.95833C9.30556 9.72222 9.51389 10.5556 9.86111 11.25H10.1389C10.4861 10.5556 10.6944 9.79166 10.7639 8.95833C10.8333 8.81944 10.6944 8.68055 10.5556 8.68055ZM8.61111 10.5556C8.47222 10.6944 8.33333 10.6944 8.19444 10.625C7.63889 10.2083 7.29167 9.65277 7.08333 8.95833V8.88889C7.08333 8.75 7.22222 8.61111 7.36111 8.61111H8.19444C8.33333 8.61111 8.47222 8.75 8.47222 8.88889C8.47222 9.375 8.54167 9.86111 8.68056 10.3472C8.68056 10.4167 8.68056 10.4861 8.61111 10.5556ZM7.29167 7.84722H8.125C8.26389 7.84722 8.40278 7.70833 8.40278 7.56944C8.40278 7.08333 8.47222 6.59722 8.61111 6.11111C8.61111 6.04166 8.54167 5.90278 8.40278 5.83333C8.33333 5.83333 8.26389 5.83333 8.19444 5.90278C7.63889 6.31944 7.29167 6.875 7.08333 7.5C7.08333 7.63889 7.15278 7.77778 7.29167 7.84722ZM10.4861 7.84722H9.44445C9.30556 7.84722 9.16667 7.70833 9.09722 7.56944C9.16667 6.73611 9.375 5.97222 9.72222 5.27778H10.1389C10.5556 5.97222 10.7639 6.80555 10.7639 7.56944C10.7639 7.70833 10.625 7.84722 10.4861 7.84722Z" />
</svg>