<!--character:98:472:101-->
  <svg width="24" height="24" viewBox="0 0 24 24" >
<path d="M3.68067 20.3185H20.4034C20.3193 19.2269 20.1513 18.1345 19.6471 17.1261C19.2269 16.2857 17.3781 15.6135 15.0252 14.6882L14.1008 14.4361L13.9328 14.2681C13.7647 14.016 13.5966 13.7647 13.5966 13.5126C13.5126 13.0076 13.5126 12.3353 13.6807 11.7471L13.7647 11.579L13.9328 11.4109C14.9412 10.3185 15.4454 8.88992 15.2773 7.37732C15.2773 5.10841 13.9328 3.59581 12.084 3.59581C10.2353 3.59581 8.80672 5.10841 8.80672 7.29328C8.63865 8.80589 9.14285 10.3185 10.1513 11.4109L10.3193 11.7471C10.4874 12.3353 10.5714 13.0076 10.4034 13.5958C10.4034 13.7647 10.2353 14.1 10.0672 14.2681L9.98319 14.4361L9.05882 14.7731C6.70588 15.6135 4.85714 16.3689 4.35294 17.2093C3.93277 18.1345 3.68067 19.2269 3.68067 20.3185ZM20.6555 21.9992H3.34454C2.58824 21.9992 2 21.4109 2 20.6555C2 19.2269 2.33613 17.7975 2.84034 16.4538C3.59664 14.9403 5.61345 14.1849 8.47059 13.1756L8.80672 13.0924V12.4193C7.54622 10.9908 6.95798 9.14286 7.12605 7.29328C7.12605 4.26807 9.14286 2 12 2C14.8571 2 16.874 4.26807 16.874 7.37731C17.042 9.14286 16.4538 11.0748 15.1933 12.4193C15.1092 12.6714 15.1092 12.8395 15.1933 13.0924L15.5294 13.1756C18.3866 14.1849 20.4034 14.9403 21.1597 16.4538V16.537C21.7479 17.8815 22 19.2269 22 20.6555C22 21.4109 21.4118 21.9992 20.6555 21.9992Z" />
</svg>