<!--character:6115-->
  <svg width="24" height="24" viewBox="0 0 24 24" >
<path d="M12.6049 11.1027C12.616 11.1774 12.5857 11.2523 12.5258 11.2983C11.0536 12.4314 10.1208 14.1274 9.9525 15.9775C9.94222 16.0845 9.8525 16.1663 9.745 16.1667H2.41667C2.18655 16.1667 2 15.9801 2 15.75C2.01052 14.7331 2.22385 13.7285 2.6275 12.795C3.07653 11.8986 4.54911 11.357 6.58732 10.6073L7.115 10.4133C7.17576 10.3397 7.21472 10.2505 7.2275 10.1558C7.30765 9.79157 7.28661 9.41233 7.16667 9.05917C6.27562 8.08991 5.83503 6.7896 5.95333 5.47833C5.95333 3.46333 7.26917 2 9.08333 2C10.8975 2 12.2133 3.46333 12.2133 5.47583C12.3321 6.79293 11.8884 8.09883 10.9917 9.07083C10.883 9.42184 10.8664 9.79488 10.9433 10.1542C10.9559 10.2498 10.9958 10.3399 11.0583 10.4133L11.5817 10.605C11.6488 10.6301 11.7152 10.6548 11.7809 10.6793C12.0207 10.7688 12.2507 10.8546 12.4725 10.9383C12.5432 10.9651 12.5938 11.0279 12.6049 11.1027Z" />
<path d="M16.5833 11.1667C13.5918 11.1667 11.1667 13.5918 11.1667 16.5833C11.1667 19.5749 13.5918 22 16.5833 22C19.5749 22 22 19.5749 22 16.5833C21.9963 13.5933 19.5733 11.1703 16.5833 11.1667ZM20.3333 16.5833C20.3333 17.0436 19.9602 17.4167 19.5 17.4167H13.6666C13.2064 17.4167 12.8333 17.0436 12.8333 16.5833C12.8333 16.1231 13.2064 15.75 13.6666 15.75H19.5C19.9602 15.75 20.3333 16.1231 20.3333 16.5833Z" />
</svg>