<!-- character:0:800 -->
  <svg width="20" height="20" viewBox="0 0 20 20" >
<path   d="M10.5041 9.25225C10.5133 9.31452 10.4881 9.37691 10.4382 9.4153C9.2113 10.3595 8.43404 11.7728 8.29376 13.3146C8.28519 13.4038 8.21042 13.4719 8.12084 13.4722H2.01389C1.82213 13.4722 1.66667 13.3168 1.66667 13.125C1.67543 12.2776 1.85321 11.4404 2.18959 10.6625C2.56378 9.91552 3.79093 9.46418 5.48944 8.83948L5.49098 8.83891L5.92917 8.6778C5.9798 8.6164 6.01227 8.54208 6.02292 8.46321C6.08971 8.15967 6.07218 7.84363 5.97223 7.54933C5.22969 6.74161 4.86253 5.65802 4.96112 4.5653C4.96112 2.88613 6.05764 1.66669 7.56945 1.66669C9.08126 1.66669 10.1778 2.88613 10.1778 4.56322C10.2768 5.66079 9.90697 6.74904 9.15973 7.55905C9.06917 7.85155 9.0553 8.16242 9.11945 8.46183C9.12989 8.54156 9.16317 8.61656 9.21528 8.6778L9.65139 8.83752C9.70738 8.85842 9.76272 8.87906 9.81744 8.89948C10.0173 8.97403 10.2089 9.04552 10.3938 9.1153C10.4526 9.13757 10.4949 9.18997 10.5041 9.25225ZM13.8194 9.30558C11.3265 9.30558 9.30556 11.3265 9.30556 13.8195C9.30556 16.3124 11.3265 18.3334 13.8194 18.3334C16.3124 18.3334 18.3333 16.3124 18.3333 13.8195C18.3303 11.3278 16.3111 9.30864 13.8194 9.30558ZM16.9445 13.8195C16.9445 14.203 16.6335 14.5139 16.25 14.5139H11.3889C11.0054 14.5139 10.6945 14.203 10.6945 13.8195C10.6945 13.4359 11.0054 13.125 11.3889 13.125H16.25C16.6335 13.125 16.9445 13.4359 16.9445 13.8195Z" />
</svg>