<!-- character:0:820 -->
  <svg width="20" height="20" viewBox="0 0 20 20" >
<path   d="M17.5694 14.6473C17.0833 13.6056 15.3472 12.9806 12.9167 12.0778C12.4305 11.9389 12.1521 11.8695 12.0139 11.4521C11.875 11.1049 11.875 10.6889 12.1521 10.3417C13.125 9.30003 13.6111 7.77225 13.6111 5.75836C13.6111 3.18892 11.8049 2.00836 9.99999 2.00836C8.19443 2.00836 6.38818 3.18892 6.38818 5.82781C6.38818 7.8417 6.87499 9.36947 7.77707 10.4104C7.9861 10.7577 8.05555 11.175 7.91666 11.5223C7.77707 11.8695 7.49999 11.9389 7.01388 12.1466C4.58332 13.05 2.84721 13.675 2.3611 14.7167C1.94443 15.6188 1.66666 16.5917 1.66666 17.6334C1.66666 17.8417 1.80555 17.9806 2.01388 17.9806H17.9861C18.1937 17.9806 18.3333 17.8417 18.3333 17.6334C18.3333 16.5917 18.0549 15.6188 17.5694 14.6473Z" />
</svg>