<!--character:8889-->
  <svg width="20" height="20" viewBox="0 0 20 20" >
<path d="M10.504 9.25222C10.5133 9.3145 10.4881 9.37689 10.4382 9.41528C9.21126 10.3595 8.43399 11.7728 8.29371 13.3146C8.28514 13.4038 8.21038 13.4719 8.12079 13.4722H2.01385C1.82208 13.4722 1.66663 13.3168 1.66663 13.125C1.67539 12.2776 1.85317 11.4404 2.18954 10.6625C2.56374 9.9155 3.79088 9.46416 5.48939 8.83945L5.92913 8.67778C5.97976 8.61638 6.01223 8.54206 6.02288 8.46319C6.08967 8.15964 6.07214 7.8436 5.97218 7.5493C5.22964 6.74159 4.86248 5.658 4.96107 4.56528C4.96107 2.88611 6.0576 1.66666 7.5694 1.66666C9.08121 1.66666 10.1777 2.88611 10.1777 4.56319C10.2767 5.66077 9.90692 6.74902 9.15968 7.55903C9.06912 7.85153 9.05525 8.1624 9.1194 8.4618C9.12984 8.54153 9.16312 8.61654 9.21524 8.67778L9.65135 8.8375C9.70733 8.8584 9.76267 8.87904 9.8174 8.89946C10.0172 8.974 10.2089 9.0455 10.3937 9.11528C10.4526 9.13754 10.4948 9.18995 10.504 9.25222Z" />
<path d="M13.8194 9.30555C11.3265 9.30555 9.30551 11.3265 9.30551 13.8194C9.30551 16.3124 11.3265 18.3333 13.8194 18.3333C16.3124 18.3333 18.3333 16.3124 18.3333 13.8194C18.3302 11.3278 16.3111 9.30861 13.8194 9.30555ZM16.9444 13.8194C16.9444 14.203 16.6335 14.5139 16.25 14.5139H11.3888C11.0053 14.5139 10.6944 14.203 10.6944 13.8194C10.6944 13.4359 11.0053 13.125 11.3888 13.125H16.25C16.6335 13.125 16.9444 13.4359 16.9444 13.8194Z" />
</svg>