<!--character:9685-->
  <svg width="24" height="24" viewBox="0 0 24 24" >
<path d="M13.0231 14.1552C14.9815 14.852 17.1999 15.6416 17.1999 18.8V20C17.1999 20.1066 17.1573 20.2089 17.0816 20.284C17.0059 20.3591 16.9033 20.4009 16.7967 20.4H3.19668C2.97577 20.4 2.79668 20.2209 2.79668 20V18.804C2.79668 15.6361 5.00781 14.8536 6.95658 14.164C7.16058 14.092 7.36468 14.0192 7.56628 13.9448C7.61988 13.9224 7.69908 13.8288 7.75988 13.6248C7.89465 13.108 7.87124 12.5626 7.69268 12.0592C6.93748 11.2288 6.19588 10.196 6.19588 7.636C6.10322 6.58054 6.4659 5.53578 7.1926 4.76476C7.9193 3.99374 8.94079 3.56991 9.99988 3.6C11.0585 3.56999 12.0796 3.99349 12.8062 4.76396C13.5328 5.53444 13.8958 6.57854 13.8039 7.6336C13.8039 10.196 13.0623 11.2264 12.3031 12.0624C12.1275 12.5645 12.105 13.1074 12.2383 13.6224C12.2991 13.8288 12.3783 13.9224 12.4319 13.9424L13.0231 14.1552Z" />
<path d="M18.2943 15.52L18.7455 15.68C20.2711 16.2208 21.9999 16.8368 21.9999 19.3176V20C21.9999 20.2209 21.8208 20.4 21.5999 20.4H18.5903C18.5327 20.4 18.4779 20.3753 18.4398 20.3321C18.4017 20.289 18.384 20.2315 18.3911 20.1744C18.3991 20.1166 18.4031 20.0583 18.4031 20V18.8C18.4031 15.1184 15.8703 13.9248 13.9231 13.2048C13.8722 13.186 13.8312 13.1473 13.8095 13.0976C13.7257 12.9066 13.6567 12.7095 13.6031 12.508C13.5872 12.4479 13.5999 12.3839 13.6375 12.3344C14.5488 11.0967 15.0243 9.59184 14.9895 8.0552C14.9919 7.97848 15.0379 7.90986 15.1079 7.8784C15.5142 7.69591 15.9544 7.60105 16.3999 7.6C17.2358 7.57554 18.0423 7.90959 18.6161 8.51795C19.1899 9.1263 19.4763 9.95093 19.4031 10.784C19.5169 12.0478 19.0912 13.3007 18.2311 14.2336C18.1265 14.5705 18.1105 14.9287 18.1847 15.2736C18.1964 15.3647 18.2345 15.4503 18.2943 15.52Z" />
</svg>