<!--character:8084-->
  <svg width="24" height="24" viewBox="0 0 24 24" >
<path d="M3.68077 20.3185H20.4035C20.3194 19.2269 20.1514 18.1345 19.6472 17.126C19.227 16.2857 17.3782 15.6134 15.0253 14.6882L14.1009 14.4361L13.9329 14.2681C13.7648 14.016 13.5967 13.7647 13.5967 13.5126C13.5127 13.0076 13.5127 12.3353 13.6808 11.7471L13.7648 11.579L13.9329 11.4109C14.9413 10.3185 15.4455 8.88991 15.2774 7.37731C15.2774 5.1084 13.9329 3.5958 12.0841 3.5958C10.2354 3.5958 8.80682 5.1084 8.80682 7.29327C8.63875 8.80588 9.14295 10.3185 10.1514 11.4109L10.3194 11.7471C10.4875 12.3353 10.5715 13.0076 10.4035 13.5958C10.4035 13.7647 10.2354 14.1 10.0673 14.2681L9.98329 14.4361L9.05892 14.7731C6.70598 15.6134 4.85724 16.3689 4.35304 17.2092C3.93287 18.1344 3.68077 19.2269 3.68077 20.3185ZM20.6556 21.9992H3.34464C2.58833 21.9992 2.0001 21.4109 2.0001 20.6555C2.0001 19.2269 2.33623 17.7975 2.84043 16.4538C3.59674 14.9403 5.61354 14.1849 8.47069 13.1756L8.80682 13.0924V12.4193C7.54632 10.9908 6.95808 9.14285 7.12615 7.29327C7.12615 4.26806 9.14296 2 12.0001 2C14.8572 2 16.874 4.26806 16.874 7.37731C17.0421 9.14285 16.4539 11.0748 15.1934 12.4193C15.1093 12.6714 15.1093 12.8395 15.1934 13.0924L15.5295 13.1756C18.3867 14.1849 20.4035 14.9403 21.1598 16.4538V16.537C21.748 17.8815 22.0001 19.2269 22.0001 20.6555C22.0001 21.4109 21.4119 21.9992 20.6556 21.9992Z" />
</svg>