<!--character:2052-->
  <svg width="20" height="20" viewBox="0 0 20 20" >
<path d="M3.06731 16.9321H17.0029C16.9329 16.0224 16.7928 15.112 16.3726 14.2717C16.0225 13.5714 14.4819 13.0112 12.5211 12.2402L11.7508 12.0301L11.6107 11.8901C11.4707 11.68 11.3306 11.4706 11.3306 11.2605C11.2606 10.8396 11.2606 10.2794 11.4006 9.78921L11.4707 9.64916L11.6107 9.5091C12.4511 8.59874 12.8712 7.40826 12.7312 6.14776C12.7312 4.257 11.6107 2.9965 10.0701 2.9965C8.52949 2.9965 7.33902 4.257 7.33902 6.07773C7.19896 7.33823 7.61913 8.59874 8.45947 9.5091L8.59952 9.78921C8.73958 10.2794 8.80961 10.8396 8.66955 11.3298C8.66955 11.4706 8.52949 11.75 8.38944 11.8901L8.31941 12.0301L7.5491 12.3109C5.58832 13.0112 4.0477 13.6408 3.62753 14.341C3.27739 15.112 3.06731 16.0224 3.06731 16.9321ZM17.213 18.3326H2.7872C2.15694 18.3326 1.66675 17.8424 1.66675 17.2129C1.66675 16.0224 1.94686 14.8312 2.36703 13.7115C2.99728 12.4503 4.67795 11.8207 7.05891 10.9797L7.33902 10.9104V10.3494C6.2886 9.15896 5.7984 7.61905 5.93846 6.07773C5.93846 3.55672 7.61913 1.66666 10.0001 1.66666C12.381 1.66666 14.0617 3.55672 14.0617 6.14776C14.2018 7.61905 13.7116 9.22899 12.6611 10.3494C12.5911 10.5595 12.5911 10.6996 12.6611 10.9104L12.9413 10.9797C15.3222 11.8207 17.0029 12.4503 17.6331 13.7115V13.7808C18.1233 14.9013 18.3334 16.0224 18.3334 17.2129C18.3334 17.8424 17.8432 18.3326 17.213 18.3326Z" />
</svg>