<!--category:travel-->
<!--character:0077-->
<svg width="24" height="24" viewBox="0 0 24 24" xmlns="http://www.w3.org/2000/svg"><path d="M21.0833 17.5767c-.5833-1.25-2.6666-2-5.5833-3.0834-.5833-.1666-.9175-.25-1.0833-.7508-.1667-.4167-.1667-.9158.1658-1.3325 1.1675-1.25 1.7508-3.0833 1.7508-5.5 0-3.0833-2.1675-4.5-4.3333-4.5-2.1667 0-4.3342 1.4167-4.3342 4.5833 0 2.4167.5842 4.25 1.6667 5.4992.2508.4167.3342.9175.1675 1.3342-.1675.4166-.5.5-1.0833.7491C5.5 15.66 3.4167 16.41 2.8333 17.66 2.3333 18.7425 2 19.91 2 21.16c0 .25.1667.4167.4167.4167h19.1666c.2492 0 .4167-.1667.4167-.4167 0-1.25-.3342-2.4175-.9167-3.5833"/></svg>