<!--category:travel-->
<!--character:0029-->
<svg width="24" height="24" viewBox="0 0 24 24" xmlns="http://www.w3.org/2000/svg"><path d="M12.5258 11.2983a6.6667 6.6667 0 0 0-2.5733 4.6792.2092.2092 0 0 1-.2075.1892H2.4167A.4167.4167 0 0 1 2 15.75a7.6442 7.6442 0 0 1 .6275-2.955c.4492-.8967 1.9225-1.4383 3.9617-2.1883l.5258-.1934a.5125.5125 0 0 0 .1125-.2575 2.0442 2.0442 0 0 0-.0608-1.0966 4.6708 4.6708 0 0 1-1.2134-3.5809C5.9533 3.4633 7.2692 2 9.0833 2c1.8142 0 3.13 1.4633 3.13 3.4758a4.6817 4.6817 0 0 1-1.2216 3.595 2.1442 2.1442 0 0 0-.0484 1.0834.5.5 0 0 0 .115.2591l.5234.1917c.3125.1167.6083.2267.8908.3333a.2083.2083 0 0 1 .0533.36zm4.0575-.1316c2.99.0036 5.413 2.4266 5.4167 5.4166C22 19.575 19.5749 22 16.5833 22c-2.9915 0-5.4166-2.4251-5.4166-5.4167 0-2.9915 2.425-5.4166 5.4166-5.4166zm3.75 5.4166A.8333.8333 0 0 0 19.5 15.75h-1.6667a.4167.4167 0 0 1-.4166-.4167v-1.6666a.8333.8333 0 0 0-1.6667 0v1.6666a.4167.4167 0 0 1-.4167.4167h-1.6666a.8333.8333 0 1 0 0 1.6667h1.6666a.4167.4167 0 0 1 .4167.4166V19.5a.8333.8333 0 1 0 1.6667 0v-1.6667a.4167.4167 0 0 1 .4166-.4166H19.5a.8333.8333 0 0 0 .8333-.8334z"/></svg>