<!--character:3024:2867-->
<svg width="24" height="24" viewBox="0 0 24 24">
  <path d="M12.6049 11.1027C12.6159 11.1774 12.5857 11.2523 12.5258 11.2983C11.0535 12.4314 10.1208 14.1274 9.95245 15.9775C9.94217 16.0845 9.85245 16.1663 9.74495 16.1667H2.41662C2.1865 16.1667 1.99995 15.9801 1.99995 15.75C2.01047 14.7331 2.2238 13.7284 2.62745 12.795C3.07648 11.8986 4.54906 11.357 6.58727 10.6073L7.11495 10.4133C7.17571 10.3397 7.21467 10.2505 7.22745 10.1558C7.3076 9.79157 7.28656 9.41232 7.16662 9.05916C6.27557 8.0899 5.83498 6.7896 5.95328 5.47833C5.95328 3.46333 7.26912 2 9.08328 2C10.8975 2 12.2133 3.46333 12.2133 5.47583C12.3321 6.79292 11.8883 8.09882 10.9916 9.07083C10.8829 9.42183 10.8663 9.79488 10.9433 10.1542C10.9558 10.2498 10.9957 10.3398 11.0583 10.4133L11.5816 10.605C11.6488 10.6301 11.7152 10.6548 11.7809 10.6793C12.0207 10.7688 12.2507 10.8546 12.4725 10.9383C12.5431 10.9651 12.5938 11.0279 12.6049 11.1027Z" />
  <path d="M16.5833 11.1667C13.5917 11.1667 11.1666 13.5918 11.1666 16.5833C11.1666 19.5749 13.5917 22 16.5833 22C19.5748 22 22 19.5749 22 16.5833C21.9963 13.5933 19.5733 11.1703 16.5833 11.1667ZM20.3333 16.5833C20.3333 17.0436 19.9602 17.4167 19.5 17.4167H13.6666C13.2064 17.4167 12.8333 17.0436 12.8333 16.5833C12.8333 16.1231 13.2064 15.75 13.6666 15.75H19.5C19.9602 15.75 20.3333 16.1231 20.3333 16.5833Z" />
</svg>
