<!--character:3024:2893-->
<svg width="24" height="24" viewBox="0 0 24 24">
  <path d="M8.58343 7.62667C9.8721 7.62667 10.9168 6.582 10.9168 5.29333C10.9168 4.00467 9.8721 2.96 8.58343 2.96C7.29477 2.96 6.2501 4.00467 6.2501 5.29333C6.2501 6.582 7.29477 7.62667 8.58343 7.62667Z" />
  <path d="M15.4168 7.62667C16.7054 7.62667 17.7501 6.582 17.7501 5.29333C17.7501 4.00467 16.7054 2.96 15.4168 2.96C14.1281 2.96 13.0834 4.00467 13.0834 5.29333C13.0834 6.582 14.1281 7.62667 15.4168 7.62667Z" />
  <path d="M6.66676 10.71C6.66676 11.9987 5.6221 13.0433 4.33343 13.0433C3.04477 13.0433 2.0001 11.9987 2.0001 10.71C2.0001 9.42134 3.04477 8.37667 4.33343 8.37667C5.6221 8.37667 6.66676 9.42134 6.66676 10.71Z" />
  <path d="M12.0001 21.0433C8.58343 21.0433 5.83343 19.2933 5.83343 17.21C5.91676 16.21 6.41676 15.2933 7.33343 14.71C8.16676 14.0433 8.91676 13.21 9.33343 12.2933C9.7501 11.1267 10.8334 10.3767 12.0001 10.2933C13.1668 10.3767 14.2501 11.1267 14.6668 12.2933C15.0834 13.2933 15.7501 14.1267 16.6668 14.71C17.5001 15.2933 18.0834 16.21 18.1668 17.21C18.1668 19.3767 15.4168 21.0433 12.0001 21.0433Z" />
  <path d="M22.0001 10.71C22.0001 11.9987 20.9554 13.0433 19.6668 13.0433C18.3781 13.0433 17.3334 11.9987 17.3334 10.71C17.3334 9.42134 18.3781 8.37667 19.6668 8.37667C20.9554 8.37667 22.0001 9.42134 22.0001 10.71Z" />
</svg>
