<!-- character:0:2217 -->
  <svg width="20" height="20" viewBox="0 0 20 20" >
<path   d="M7.15277 6.35556C8.22666 6.35556 9.09721 5.48501 9.09721 4.41112C9.09721 3.33723 8.22666 2.46667 7.15277 2.46667C6.07888 2.46667 5.20832 3.33723 5.20832 4.41112C5.20832 5.48501 6.07888 6.35556 7.15277 6.35556ZM12.8472 6.35556C13.9211 6.35556 14.7917 5.48501 14.7917 4.41112C14.7917 3.33723 13.9211 2.46667 12.8472 2.46667C11.7733 2.46667 10.9028 3.33723 10.9028 4.41112C10.9028 5.48501 11.7733 6.35556 12.8472 6.35556ZM5.55555 8.92501C5.55555 9.9989 4.68499 10.8695 3.6111 10.8695C2.53721 10.8695 1.66666 9.9989 1.66666 8.92501C1.66666 7.85112 2.53721 6.98056 3.6111 6.98056C4.68499 6.98056 5.55555 7.85112 5.55555 8.92501ZM9.99999 17.5361C7.15277 17.5361 4.8611 16.0778 4.8611 14.3417C4.93055 13.5083 5.34721 12.7445 6.1111 12.2583C6.80555 11.7028 7.43055 11.0083 7.77777 10.2445C8.12499 9.27223 9.02777 8.64723 9.99999 8.57779C10.9722 8.64723 11.875 9.27223 12.2222 10.2445C12.5694 11.0778 13.125 11.7722 13.8889 12.2583C14.5833 12.7445 15.0694 13.5083 15.1389 14.3417C15.1389 16.1472 12.8472 17.5361 9.99999 17.5361ZM18.3333 8.92501C18.3333 9.9989 17.4628 10.8695 16.3889 10.8695C15.315 10.8695 14.4444 9.9989 14.4444 8.92501C14.4444 7.85112 15.315 6.98056 16.3889 6.98056C17.4628 6.98056 18.3333 7.85112 18.3333 8.92501Z" />
</svg>