<!--character:8323-->
  <svg width="20" height="20" viewBox="0 0 20 20" >
<path d="M7.15286 6.35556C8.22675 6.35556 9.0973 5.485 9.0973 4.41111C9.0973 3.33722 8.22675 2.46667 7.15286 2.46667C6.07897 2.46667 5.20841 3.33722 5.20841 4.41111C5.20841 5.485 6.07897 6.35556 7.15286 6.35556Z" />
<path d="M12.8473 6.35556C13.9212 6.35556 14.7917 5.485 14.7917 4.41111C14.7917 3.33722 13.9212 2.46667 12.8473 2.46667C11.7734 2.46667 10.9029 3.33722 10.9029 4.41111C10.9029 5.485 11.7734 6.35556 12.8473 6.35556Z" />
<path d="M5.55564 8.925C5.55564 9.99889 4.68508 10.8694 3.61119 10.8694C2.53731 10.8694 1.66675 9.99889 1.66675 8.925C1.66675 7.85111 2.53731 6.98056 3.61119 6.98056C4.68508 6.98056 5.55564 7.85111 5.55564 8.925Z" />
<path d="M10.0001 17.5361C7.15286 17.5361 4.86119 16.0778 4.86119 14.3417C4.93064 13.5083 5.3473 12.7444 6.11119 12.2583C6.80564 11.7028 7.43064 11.0083 7.77786 10.2444C8.12508 9.27222 9.02786 8.64722 10.0001 8.57778C10.9723 8.64722 11.8751 9.27222 12.2223 10.2444C12.5695 11.0778 13.1251 11.7722 13.889 12.2583C14.5834 12.7444 15.0695 13.5083 15.139 14.3417C15.139 16.1472 12.8473 17.5361 10.0001 17.5361Z" />
<path d="M18.3334 8.925C18.3334 9.99889 17.4629 10.8694 16.389 10.8694C15.3151 10.8694 14.4445 9.99889 14.4445 8.925C14.4445 7.85111 15.3151 6.98056 16.389 6.98056C17.4629 6.98056 18.3334 7.85111 18.3334 8.925Z" />
</svg>