<!--category:services-->
<!--character:E043-->
<svg width="24" height="24" viewBox="0 0 24 24" xmlns="http://www.w3.org/2000/svg"><path d="M15.4167 7.6267c-1.2887 0-2.3334-1.0447-2.3334-2.3334 0-1.2886 1.0447-2.3333 2.3334-2.3333 1.2886 0 2.3333 1.0447 2.3333 2.3333 0 1.2887-1.0447 2.3334-2.3333 2.3334zm-6.8334 0C7.2947 7.6267 6.25 6.582 6.25 5.2933 6.25 4.0047 7.2947 2.96 8.5833 2.96c1.2887 0 2.3334 1.0447 2.3334 2.3333 0 1.2887-1.0447 2.3334-2.3334 2.3334zm-4.25 5.4166C3.0447 13.0433 2 11.9987 2 10.71s1.0447-2.3333 2.3333-2.3333c1.2887 0 2.3334 1.0446 2.3334 2.3333s-1.0447 2.3333-2.3334 2.3333zm7.6667 8c-3.4167 0-6.1667-1.75-6.1667-3.8333.0834-1 .5834-1.9167 1.5-2.5.8334-.6667 1.5834-1.5 2-2.4167.4167-1.1666 1.5-1.9166 2.6667-2 1.1667.0834 2.25.8334 2.6667 2 .4166 1 1.0833 1.8334 2 2.4167.8333.5833 1.4166 1.5 1.5 2.5 0 2.1667-2.75 3.8333-6.1667 3.8333zm7.6667-8c-1.2887 0-2.3334-1.0446-2.3334-2.3333s1.0447-2.3333 2.3334-2.3333C20.9553 8.3767 22 9.4213 22 10.71s-1.0447 2.3333-2.3333 2.3333z"/></svg>