<!--character:6797-->
  <svg width="24" height="24" viewBox="0 0 24 24" >
<path d="M13.4471 5.63475C14.0891 4.98974 14.9623 4.62815 15.8724 4.63047C16.7827 4.62783 17.6563 4.98945 18.2985 5.63475C18.5427 5.87894 18.5427 6.27484 18.2985 6.51902C18.0543 6.76321 17.6584 6.76321 17.4142 6.51902C16.5515 5.6948 15.1932 5.6948 14.3305 6.51902C14.0852 6.75579 13.6953 6.75222 13.4543 6.511C13.2133 6.26977 13.2101 5.87991 13.4471 5.63475Z" />
<path d="M20.2529 3.75871C17.9043 1.41376 14.1004 1.41376 11.7519 3.75871L3.77599 11.738C2.04686 13.4523 1.52508 16.0415 2.45528 18.2917C3.38549 20.542 5.58325 22.007 8.01814 22C9.61107 22.0057 11.1401 21.374 12.2645 20.2456L20.2495 12.2605C22.5885 9.90953 22.5885 6.11053 20.2495 3.75954L20.2529 3.75871ZM19.0744 11.082L15.9691 14.1841C15.8063 14.3467 15.5425 14.3467 15.3798 14.1841L9.82835 8.6326C9.66567 8.46987 9.66567 8.20609 9.82835 8.04336L12.9337 4.93717C14.1741 3.69126 16.0444 3.31819 17.6679 3.99282C19.2915 4.66745 20.3465 6.25609 20.3387 8.01419C20.3447 9.16478 19.8894 10.2698 19.0744 11.082Z" />
</svg>