<!--character:93:550:402-->
  <svg width="24" height="24" viewBox="0 0 24 24" >
<path d="M13.4471 5.63473C14.0891 4.98972 14.9624 4.62813 15.8724 4.63045C16.7828 4.62781 17.6564 4.98943 18.2985 5.63473C18.5427 5.87892 18.5427 6.27482 18.2985 6.519C18.0544 6.76319 17.6585 6.76319 17.4143 6.519C16.5516 5.69478 15.1932 5.69478 14.3306 6.519C14.0852 6.75577 13.6953 6.7522 13.4543 6.51098C13.2133 6.26975 13.2101 5.87989 13.4471 5.63473Z" />
<path d="M20.2529 3.75871C17.9044 1.41376 14.1005 1.41376 11.752 3.75871L3.77604 11.738C2.04691 13.4523 1.52513 16.0415 2.45533 18.2917C3.38554 20.542 5.5833 22.007 8.01819 22C9.61112 22.0057 11.1402 21.374 12.2645 20.2456L20.2496 12.2605C22.5886 9.90953 22.5886 6.11053 20.2496 3.75954L20.2529 3.75871ZM19.0745 11.082L15.9691 14.1841C15.8064 14.3467 15.5426 14.3467 15.3799 14.1841L9.82841 8.63259C9.66573 8.46986 9.66573 8.20608 9.82841 8.04335L12.9338 4.93717C14.1742 3.69125 16.0444 3.31818 17.668 3.99281C19.2915 4.66745 20.3466 6.25608 20.3388 8.01418C20.3448 9.16478 19.8894 10.2698 19.0745 11.082Z" />
</svg>