<!--character:6632-->
  <svg width="20" height="20" viewBox="0 0 20 20" >
<path d="M11.2059 4.69563C11.7409 4.15811 12.4686 3.85679 13.227 3.85873C13.9856 3.85653 14.7136 4.15788 15.2487 4.69563C15.4522 4.89911 15.4522 5.22903 15.2487 5.43252C15.0452 5.636 14.7153 5.636 14.5118 5.43252C13.793 4.74566 12.661 4.74566 11.9421 5.43252C11.7376 5.62983 11.4127 5.62685 11.2119 5.42583C11.0111 5.22481 11.0084 4.89992 11.2059 4.69563Z" />
<path d="M16.8774 3.13225C14.9203 1.17813 11.7504 1.17813 9.79325 3.13225L3.14666 9.78163C1.70572 11.2102 1.2709 13.3679 2.04607 15.2431C2.82124 17.1183 4.65271 18.3392 6.68179 18.3333C8.00923 18.3381 9.28342 17.8117 10.2204 16.8713L16.8746 10.2171C18.8238 8.25794 18.8238 5.0921 16.8746 3.13295L16.8774 3.13225ZM15.8953 9.23504L13.3075 11.8201C13.1719 11.9556 12.9521 11.9556 12.8165 11.8201L8.19029 7.19383C8.05473 7.05822 8.05473 6.83841 8.19029 6.7028L10.7781 4.11431C11.8118 3.07605 13.3703 2.76516 14.7233 3.32735C16.0762 3.88954 16.9555 5.21341 16.9489 6.67849C16.954 7.63732 16.5745 8.55816 15.8953 9.23504Z" />
</svg>