<!--category:services-->
<!--character:E034-->
<!--added:0.11-->
<svg width="24" height="24" viewBox="0 0 24 24" xmlns="http://www.w3.org/2000/svg"><path d="M20.253 3.7587l-.0034.0008c2.339 2.351 2.339 6.15 0 8.501l-7.985 7.985A5.9642 5.9642 0 0 1 8.0181 22c-2.4349.007-4.6327-1.458-5.5629-3.7083-.9302-2.2502-.4084-4.8394 1.3207-6.5537l7.976-7.9793c2.3485-2.345 6.1524-2.345 8.501 0zm-1.1785 7.3233a4.3 4.3 0 0 0 1.2643-3.0678 4.334 4.334 0 0 0-7.405-3.077L9.8284 8.0434a.4167.4167 0 0 0 0 .5892l5.5515 5.5515a.4167.4167 0 0 0 .5892 0l3.1054-3.102zm-3.202-6.4515a3.4088 3.4088 0 0 1 2.426 1.0043.6253.6253 0 0 1-.8842.8842c-.8627-.8242-2.221-.8242-3.0837 0a.625.625 0 0 1-.8835-.8842 3.4096 3.4096 0 0 1 2.4253-1.0043z"/></svg>