<!-- character:0:2405 -->
  <svg width="20" height="20" viewBox="0 0 20 20" >
<path   d="M16.8774 3.13222C14.9203 1.1781 11.7504 1.1781 9.7933 3.13222L3.1467 9.78159C1.70576 11.2102 1.27094 13.3679 2.04611 15.2431C2.82129 17.1183 4.65275 18.3391 6.68183 18.3333C8.00927 18.3381 9.28347 17.8116 10.2204 16.8713L16.8747 10.2171C18.8238 8.2579 18.8238 5.09207 16.8747 3.13291L16.8774 3.13222ZM15.8954 9.235L13.3076 11.82C13.172 11.9556 12.9522 11.9556 12.8166 11.82L8.19034 7.19379C8.05477 7.05819 8.05477 6.83837 8.19034 6.70276L10.7781 4.11427C11.8118 3.07601 13.3704 2.76512 14.7233 3.32731C16.0763 3.88951 16.9555 5.21337 16.949 6.67846C16.954 7.63728 16.5745 8.55812 15.8954 9.235ZM11.206 4.69559C11.741 4.15808 12.4686 3.85675 13.227 3.85869C13.9857 3.85649 14.7137 4.15784 15.2488 4.69559C15.4523 4.89908 15.4523 5.22899 15.2488 5.43248C15.0453 5.63597 14.7154 5.63597 14.5119 5.43248C13.793 4.74562 12.661 4.74562 11.9422 5.43248C11.7377 5.62979 11.4128 5.62681 11.212 5.42579C11.0111 5.22477 11.0085 4.89988 11.206 4.69559Z" />
</svg>