<!--character:3585-->
  <svg width="20" height="20" viewBox="0 0 20 20" >
<path d="M14.9706 11.5048C14.645 11.1789 14.2033 10.9958 13.7428 10.9958C13.2823 10.9958 12.8406 11.1789 12.515 11.5048L11.4136 12.6056C9.95897 11.3846 8.6138 10.0386 7.3935 8.58311L8.49489 7.48156C9.17263 6.8032 9.17263 5.70358 8.49489 5.02523L7.02058 3.55143C6.3342 2.89397 5.25211 2.89397 4.56572 3.55143L3.75739 4.36025C2.94513 5.17847 2.81733 6.45439 3.45114 7.41763C5.85424 11.0404 8.95694 14.1459 12.5768 16.5516C13.5426 17.174 14.81 17.0463 15.6324 16.2437L16.4407 15.4349C17.1185 14.7566 17.1185 13.657 16.4407 12.9786L14.9706 11.5048Z" />
</svg>