<!--character:562-->
  <svg width="24" height="24" viewBox="0 0 24 24" >
<path   d="M5.10041 5.77349C4.33826 5.77349 3.72041 6.39133 3.72041 7.15348V18.9561C3.72041 19.7183 4.33826 20.3361 5.10041 20.3361H10.7699C11.5321 20.3361 12.1499 19.7183 12.1499 18.9561V9.76027C12.1499 9.26321 12.5529 8.86027 13.0499 8.86027C13.547 8.86027 13.9499 9.26321 13.9499 9.76027V18.9561C13.9499 20.7124 12.5262 22.1361 10.7699 22.1361H5.10041C3.34414 22.1361 1.92041 20.7124 1.92041 18.9561V7.15348C1.92041 5.39722 3.34414 3.97349 5.10041 3.97349H10.8834C11.3804 3.97349 11.7834 4.37643 11.7834 4.87349C11.7834 5.37054 11.3804 5.77349 10.8834 5.77349H5.10041Z" />
<path   d="M10.3173 4.36076C10.3173 3.00214 11.4187 1.90077 12.7773 1.90077H19.6031C20.9617 1.90077 22.0631 3.00214 22.0631 4.36077V8.0552C22.0631 9.41382 20.9617 10.5152 19.6031 10.5152H19.5157L16.6656 13.1174C16.4023 13.3579 16.0218 13.4201 15.6956 13.2762C15.3693 13.1323 15.1588 12.8094 15.1588 12.4528V10.5152H12.7773C11.4187 10.5152 10.3173 9.41382 10.3173 8.0552V4.36076ZM12.7773 3.70077C12.4128 3.70077 12.1173 3.99626 12.1173 4.36076V8.0552C12.1173 8.41971 12.4128 8.7152 12.7773 8.7152H15.5588C16.332 8.7152 16.9588 9.342 16.9588 10.1152V10.4124L18.4166 9.08131C18.6746 8.84578 19.0113 8.7152 19.3606 8.7152H19.6031C19.9676 8.7152 20.2631 8.41971 20.2631 8.0552V4.36077C20.2631 3.99626 19.9676 3.70077 19.6031 3.70077H12.7773Z" />
<path   d="M5.72919 18.0434C5.72919 17.5464 6.13213 17.1434 6.62919 17.1434H9.21246C9.70951 17.1434 10.1125 17.5464 10.1125 18.0434C10.1125 18.5405 9.70951 18.9434 9.21246 18.9434H6.62919C6.13213 18.9434 5.72919 18.5405 5.72919 18.0434Z" />
</svg>