<!-- character:0:598 -->
  <svg width="20" height="20" viewBox="0 0 20 20" >
<path d="M14.9708 11.5048C14.6452 11.1789 14.2036 10.9959 13.743 10.9959C13.2825 10.9959 12.8409 11.1789 12.5153 11.5048L11.4139 12.6057C9.95921 11.3846 8.61404 10.0387 7.39374 8.58312L8.49513 7.48157C9.17288 6.80321 9.17288 5.7036 8.49513 5.02524L7.02083 3.55144C6.33444 2.89398 5.25235 2.89398 4.56596 3.55144L3.75763 4.36026C2.94537 5.17848 2.81757 6.4544 3.45138 7.41764C5.85448 11.0404 8.95718 14.1459 12.5771 16.5516C13.5428 17.1741 14.8103 17.0464 15.6326 16.2438L16.441 15.4349C17.1187 14.7566 17.1187 13.657 16.441 12.9786L14.9708 11.5048Z" />
</svg>