<!--character:129:550:1247-->
  <svg width="24" height="24" viewBox="0 0 24 24" >
<path d="M17.965 13.8057C17.5743 13.4146 17.0443 13.1949 16.4916 13.1949C15.939 13.1949 15.409 13.4146 15.0183 13.8057L13.6966 15.1267C11.951 13.6615 10.3368 12.0463 8.87247 10.2996L10.1941 8.97779C11.0074 8.16376 11.0074 6.84422 10.1941 6.03019L8.42497 4.26163C7.60131 3.47268 6.3028 3.47268 5.47913 4.26163L4.50913 5.23222C3.53443 6.21408 3.38106 7.74518 4.14163 8.90108C7.02535 13.2484 10.7486 16.975 15.0925 19.8618C16.2514 20.6088 17.7723 20.4555 18.7591 19.4924L19.7291 18.5218C20.5424 17.7078 20.5424 16.3883 19.7291 15.5742L17.965 13.8057Z" />
</svg>