<!--character:3895-->
  <svg width="24" height="24" viewBox="0 0 24 24" >
<path d="M17.9647 13.8058C17.574 13.4147 17.044 13.195 16.4914 13.195C15.9387 13.195 15.4087 13.4147 15.018 13.8058L13.6964 15.1268C11.9508 13.6615 10.3366 12.0464 8.8722 10.2997L10.1939 8.97787C11.0072 8.16384 11.0072 6.8443 10.1939 6.03027L8.4247 4.26171C7.60104 3.47276 6.30253 3.47276 5.47886 4.26171L4.50887 5.23229C3.53416 6.21416 3.38079 7.74526 4.14137 8.90116C7.02509 13.2485 10.7483 16.9751 15.0922 19.8619C16.2511 20.6088 17.772 20.4556 18.7589 19.4925L19.7289 18.5219C20.5422 17.7079 20.5422 16.3883 19.7289 15.5743L17.9647 13.8058Z" />
</svg>