<!--character:195-->
  <svg width="24" height="24" viewBox="0 0 24 24" >
<path d="M9.03518 6.8125C9.03513 6.72644 9.01832 6.64104 8.98537 6.56152C8.95238 6.48195 8.90374 6.40954 8.84279 6.34863L6.08986 3.59277L5.98928 3.51074C5.88189 3.43917 5.75502 3.40043 5.62404 3.40039C5.44941 3.40039 5.28175 3.46941 5.15822 3.59277L5.15725 3.5918L4.5049 4.24609C3.8981 4.85308 3.51657 5.64889 3.42287 6.50195C3.32949 7.35259 3.52753 8.20975 3.98537 8.93262C6.9357 13.2983 10.6955 17.058 15.0606 20.0098C15.7847 20.4707 16.6447 20.6707 17.4981 20.5771C18.3513 20.4835 19.147 20.102 19.7539 19.4951L20.4072 18.8418C20.5305 18.7184 20.5995 18.5513 20.5996 18.377C20.5996 18.2029 20.531 18.0355 20.4082 17.9121L17.6543 15.1602C17.5308 15.0369 17.3631 14.9678 17.1885 14.9678C17.0139 14.9678 16.8461 15.0369 16.7227 15.1602C16.4948 15.388 16.2245 15.5689 15.9268 15.6924C15.6287 15.8159 15.309 15.8798 14.9863 15.8799C14.6635 15.8799 14.3431 15.816 14.0449 15.6924C13.7469 15.5688 13.4761 15.3875 13.2481 15.1592L8.84182 10.7529C8.38142 10.292 8.12217 9.66709 8.12209 9.01562C8.12209 8.36404 8.38134 7.73834 8.84182 7.27734C8.90279 7.21644 8.95235 7.14403 8.98537 7.06445C9.0184 6.9848 9.03518 6.89872 9.03518 6.8125ZM10.835 6.8125C10.835 7.13532 10.7711 7.45571 10.6475 7.75391C10.524 8.05155 10.3431 8.32199 10.1153 8.5498C9.99188 8.67331 9.92287 8.84112 9.92287 9.01562C9.92296 9.18998 9.99201 9.35704 10.1153 9.48047L14.5215 13.8867C14.5824 13.9477 14.6548 13.9973 14.7344 14.0303C14.8141 14.0633 14.9001 14.0801 14.9863 14.0801C15.0724 14.08 15.1578 14.0632 15.2373 14.0303C15.3169 13.9973 15.3893 13.9486 15.4502 13.8877L15.4512 13.8867C15.9122 13.4264 16.537 13.168 17.1885 13.168C17.8401 13.168 18.4657 13.4263 18.9268 13.8867L21.6807 16.6387C22.1412 17.0997 22.4004 17.7254 22.4004 18.377C22.4003 18.947 22.2017 19.4963 21.8438 19.9336L21.6807 20.1143L21.0274 20.7676C20.1308 21.6641 18.9548 22.2289 17.6944 22.3672C16.4415 22.5046 15.1789 22.2131 14.1133 21.541C14.0962 21.531 14.0799 21.5199 14.0635 21.5088C9.5018 18.4262 5.57325 14.4974 2.49123 9.93555L2.4883 9.93164L2.48147 9.9209C2.47796 9.91564 2.47412 9.9106 2.47072 9.90527C1.79029 8.83565 1.4955 7.56577 1.63381 6.30566C1.77223 5.04542 2.33597 3.86922 3.23244 2.97266L3.88576 2.31934C4.34681 1.85895 4.9725 1.59961 5.62404 1.59961C6.27554 1.59966 6.90034 1.85897 7.36135 2.31934L10.1143 5.0752L10.2764 5.25391C10.4295 5.44029 10.5547 5.64844 10.6475 5.87207C10.7711 6.17017 10.8349 6.48979 10.835 6.8125Z" />
</svg>