<!--character:2608-->
  <svg width="24" height="24" viewBox="0 0 24 24" >
<path d="M8.69281 14.2492C9.04324 13.8987 9.56406 13.8514 9.85609 14.1434C10.1481 14.4355 10.1008 14.9563 9.75034 15.3067L6.15474 18.9024C5.80431 19.2529 5.28349 19.3002 4.99146 19.0082C4.69943 18.7162 4.74678 18.1953 5.09721 17.8449L8.69281 14.2492Z" />
<path   d="M15.9307 5.16271C15.6518 4.8838 15.2582 4.75621 14.8705 4.81397L14.4134 4.88207C14.1078 4.92762 13.8301 5.08476 13.6332 5.3218L13.6253 5.33115L11.7529 7.80807L11.7495 7.80764C10.3142 7.58739 8.80101 7.95122 7.59149 8.89611C6.98501 9.3699 7.02903 10.2121 7.50172 10.6848L13.3156 16.499C13.7883 16.9717 14.6305 17.0157 15.1043 16.4092C16.0491 15.1997 16.4129 13.6865 16.1927 12.2512L16.1923 12.2477L18.6649 10.3786L18.6786 10.3673C18.9156 10.1704 19.0727 9.89276 19.1183 9.58707L19.1864 9.12998C19.2441 8.74234 19.1165 8.34869 18.8376 8.06978L15.9307 5.16271ZM15.03 6.11484L14.6302 6.17441L12.7596 8.64903L12.7517 8.65838C12.4436 9.02935 11.9744 9.16767 11.5507 9.10266C10.5082 8.94266 9.41004 9.18962 8.51222 9.8425L14.1579 15.4884C14.8108 14.5906 15.0577 13.4925 14.8978 12.4499C14.8328 12.0263 14.9711 11.5571 15.342 11.249L15.3557 11.2377L17.826 9.3703L17.8855 8.97051L15.03 6.11484Z" />
</svg>