<!--character:3914-->
  <svg width="24" height="24" viewBox="0 0 24 24" >
<path d="M14.2606 5.11927C14.3664 4.9919 14.5153 4.90788 14.6784 4.88358L15.1906 4.80726C15.3971 4.77649 15.6049 4.84458 15.7514 4.99106L19.0089 8.24867C19.1554 8.39515 19.2235 8.60292 19.1927 8.80947L19.1164 9.32168C19.0921 9.48474 19.0081 9.63367 18.8807 9.73946L16.0798 11.8569C15.8842 12.0193 15.8002 12.2773 15.8385 12.5266C16.0553 13.9399 15.697 15.4307 14.7659 16.6227C14.5393 16.9127 14.116 16.9132 13.859 16.6561L7.34384 10.1409C7.08683 9.88389 7.08729 9.46061 7.37728 9.23406C8.56928 8.30288 10.0602 7.94456 11.4735 8.16144C11.7228 8.1997 11.9808 8.11578 12.1432 7.92017L14.2606 5.11927Z" />
<path d="M9.98519 15.2473C10.3255 14.9069 10.3255 14.3551 9.98519 14.0148C9.64485 13.6744 9.09305 13.6744 8.75271 14.0148L5.05526 17.7122C4.71491 18.0526 4.71491 18.6044 5.05526 18.9447C5.3956 19.2851 5.9474 19.2851 6.28774 18.9447L9.98519 15.2473Z" />
</svg>