<!--character:5330-->
  <svg width="24" height="24" viewBox="0 0 24 24" >
<path d="M14.6373 3.97246C14.7607 3.82385 14.9345 3.72583 15.1247 3.69749L15.7223 3.60845C15.9633 3.57255 16.2057 3.65199 16.3766 3.82288L20.1771 7.62343C20.348 7.79432 20.4274 8.03672 20.3915 8.27769L20.3025 8.87527C20.2741 9.0655 20.1761 9.23925 20.0275 9.36268L16.7597 11.833C16.5315 12.0225 16.4336 12.3235 16.4782 12.6143C16.7312 14.2632 16.3131 16.0025 15.2268 17.3931C14.9625 17.7315 14.4687 17.732 14.1688 17.4321L6.56779 9.83104C6.26794 9.53119 6.26848 9.03735 6.60681 8.77305C7.99747 7.68667 9.73684 7.26863 11.3857 7.52166C11.6766 7.56629 11.9776 7.46838 12.1671 7.24018L14.6373 3.97246Z" />
<path d="M9.64936 15.7884C10.0464 15.3914 10.0464 14.7476 9.64936 14.3505C9.2523 13.9535 8.60853 13.9535 8.21146 14.3505L3.89777 18.6643C3.50071 19.0613 3.50071 19.7051 3.89777 20.1022C4.29484 20.4992 4.93861 20.4992 5.33567 20.1022L9.64936 15.7884Z" />
</svg>