<!--character:2891-->
  <svg width="20" height="20" viewBox="0 0 20 20" >
<path d="M11.8838 4.26606C11.972 4.15991 12.0961 4.0899 12.232 4.06965L12.6588 4.00605C12.8309 3.98041 13.0041 4.03715 13.1261 4.15922L15.8408 6.8739C15.9628 6.99596 16.0196 7.1691 15.9939 7.34123L15.9304 7.76807C15.9101 7.90395 15.8401 8.02806 15.7339 8.11621L13.3998 9.88073C13.2368 10.0161 13.1669 10.2311 13.1987 10.4388C13.3794 11.6166 13.0808 12.8589 12.3049 13.8522C12.1161 14.0939 11.7634 14.0943 11.5492 13.8801L6.11987 8.45076C5.90569 8.23658 5.90607 7.88384 6.14774 7.69505C7.14107 6.91907 8.38347 6.62046 9.56127 6.8012C9.76902 6.83308 9.98399 6.76315 10.1194 6.60014L11.8838 4.26606Z" />
<path d="M8.32099 12.7061C8.60461 12.4224 8.60461 11.9626 8.32099 11.679C8.03737 11.3954 7.57754 11.3954 7.29392 11.679L4.21271 14.7602C3.9291 15.0438 3.9291 15.5037 4.21271 15.7873C4.49633 16.0709 4.95617 16.0709 5.23978 15.7873L8.32099 12.7061Z" />
</svg>