<!--character:4705-->
  <svg width="20" height="20" viewBox="0 0 20 20" >
<path d="M18.3333 7.91428C18.3333 7.53075 18.0224 7.21984 17.6389 7.21984H8.67301C8.54299 7.21984 8.43759 7.11444 8.43759 6.98442C8.43762 6.87093 8.49311 6.76462 8.5862 6.6997C8.78264 6.56298 8.91368 6.35099 8.94815 6.11415C8.98262 5.87731 8.91746 5.63677 8.76814 5.44971L5.99039 1.97752C5.82022 1.78015 5.57253 1.66666 5.31192 1.66666C5.05132 1.66666 4.80363 1.78015 4.63346 1.97752L1.8557 5.44971C1.70639 5.63677 1.64123 5.87731 1.6757 6.11415C1.71017 6.35099 1.84121 6.56298 2.03765 6.6997C2.1312 6.76461 2.18699 6.87125 2.18695 6.98512V17.6364C2.18695 18.0199 2.49786 18.3309 2.88139 18.3309C3.26492 18.3309 3.57583 18.0199 3.57583 17.6364V17.2892C3.57583 17.0974 3.73128 16.942 3.92305 16.942H6.7008C6.89257 16.942 7.04802 17.0974 7.04802 17.2892V17.6364C7.04802 18.0199 7.35893 18.3309 7.74246 18.3309C8.12599 18.3309 8.4369 18.0199 8.4369 17.6364V8.95593C8.4369 8.76417 8.59235 8.60872 8.78412 8.60872H10.0001C10.1918 8.60872 10.3473 8.76417 10.3473 8.95593V12.5045C10.3473 12.888 10.6582 13.199 11.0417 13.199C11.4253 13.199 11.7362 12.888 11.7362 12.5045V8.95593C11.7362 8.76417 11.8916 8.60872 12.0834 8.60872H13.1251C13.3168 8.60872 13.4723 8.76417 13.4723 8.95593V12.5045C13.4723 12.888 13.7832 13.199 14.1667 13.199C14.5502 13.199 14.8611 12.888 14.8611 12.5045V8.95593C14.8611 8.76417 15.0166 8.60872 15.2084 8.60872H16.5972C16.789 8.60872 16.9445 8.76417 16.9445 8.95593V17.6364C16.9445 18.0199 17.2554 18.3309 17.6389 18.3309C18.0224 18.3309 18.3333 18.0199 18.3333 17.6364V7.91428ZM6.7015 6.85734C6.89326 6.85734 7.04871 7.0128 7.04871 7.20456V9.30315C7.04871 9.49492 6.89326 9.65037 6.7015 9.65037H3.92374C3.73198 9.65037 3.57652 9.49492 3.57652 9.30315V7.20456C3.57652 7.0128 3.73198 6.85734 3.92374 6.85734H6.7015ZM3.92374 11.0392H6.7015C6.89326 11.0392 7.04871 11.1947 7.04871 11.3865V12.2545C7.04871 12.4463 6.89326 12.6017 6.7015 12.6017H3.92374C3.73198 12.6017 3.57652 12.4463 3.57652 12.2545V11.3865C3.57652 11.1947 3.73198 11.0392 3.92374 11.0392ZM3.92374 15.5531C3.73198 15.5531 3.57652 15.3976 3.57652 15.2059V14.3378C3.57652 14.1461 3.73198 13.9906 3.92374 13.9906H6.7015C6.89326 13.9906 7.04871 14.1461 7.04871 14.3378V15.2059C7.04871 15.3976 6.89326 15.5531 6.7015 15.5531H3.92374Z" />
<path d="M10.4466 13.7983C11.8248 14.3857 13.383 14.3857 14.7611 13.7983C15.1138 13.6473 15.522 13.8109 15.6729 14.1635C15.8239 14.5162 15.6603 14.9244 15.3077 15.0753C13.5801 15.8105 11.6276 15.8105 9.90008 15.0753C9.54742 14.9244 9.38389 14.5162 9.5348 14.1635C9.68572 13.8109 10.0939 13.6473 10.4466 13.7983Z" />
</svg>