<!-- character:0:2173 -->
  <svg width="20" height="20" viewBox="0 0 20 20" >
<path   d="M18.3333 7.91424C18.3333 7.53071 18.0224 7.2198 17.6389 7.2198H8.673C8.54298 7.2198 8.43759 7.1144 8.43759 6.98439C8.43761 6.87089 8.4931 6.76458 8.5862 6.69967C8.78264 6.56294 8.91367 6.35096 8.94814 6.11411C8.98262 5.87727 8.91745 5.63673 8.76814 5.44968L5.99039 1.97748C5.82021 1.78011 5.57252 1.66663 5.31192 1.66663C5.05131 1.66663 4.80363 1.78011 4.63345 1.97748L1.8557 5.44968C1.70639 5.63673 1.64122 5.87727 1.67569 6.11411C1.71017 6.35096 1.8412 6.56294 2.03764 6.69967C2.1312 6.76457 2.18699 6.87122 2.18695 6.98508V17.6364C2.18695 18.0199 2.49786 18.3308 2.88138 18.3308C3.26491 18.3308 3.57582 18.0199 3.57582 17.6364V17.2892C3.57582 17.0974 3.73128 16.9419 3.92304 16.9419H6.7008C6.89256 16.9419 7.04801 17.0974 7.04801 17.2892V17.6364C7.04801 18.0199 7.35893 18.3308 7.74245 18.3308C8.12598 18.3308 8.43689 18.0199 8.43689 17.6364V8.9559C8.43689 8.76413 8.59235 8.60868 8.78411 8.60868H10.0001C10.1918 8.60868 10.3473 8.76413 10.3473 8.9559V12.5045C10.3473 12.888 10.6582 13.1989 11.0417 13.1989C11.4253 13.1989 11.7362 12.888 11.7362 12.5045V8.9559C11.7362 8.76413 11.8916 8.60868 12.0834 8.60868H13.125C13.3168 8.60868 13.4723 8.76413 13.4723 8.9559V12.5045C13.4723 12.888 13.7832 13.1989 14.1667 13.1989C14.5502 13.1989 14.8611 12.888 14.8611 12.5045V8.9559C14.8611 8.76413 15.0166 8.60868 15.2084 8.60868H16.5972C16.789 8.60868 16.9445 8.76413 16.9445 8.9559V17.6364C16.9445 18.0199 17.2554 18.3308 17.6389 18.3308C18.0224 18.3308 18.3333 18.0199 18.3333 17.6364V7.91424ZM6.70149 6.8573C6.89325 6.8573 7.04871 7.01276 7.04871 7.20452V9.30311C7.04871 9.49488 6.89325 9.65033 6.70149 9.65033H3.92374C3.73197 9.65033 3.57652 9.49488 3.57652 9.30311V7.20452C3.57652 7.01276 3.73197 6.8573 3.92374 6.8573H6.70149ZM3.92374 11.0392C3.73197 11.0392 3.57652 11.1947 3.57652 11.3864V12.2545C3.57652 12.4462 3.73197 12.6017 3.92374 12.6017H6.70149C6.89325 12.6017 7.04871 12.4462 7.04871 12.2545V11.3864C7.04871 11.1947 6.89325 11.0392 6.70149 11.0392H3.92374ZM3.92374 15.5531C3.73197 15.5531 3.57652 15.3976 3.57652 15.2058V14.3378C3.57652 14.146 3.73197 13.9906 3.92374 13.9906H6.70149C6.89325 13.9906 7.04871 14.146 7.04871 14.3378V15.2058C7.04871 15.3976 6.89325 15.5531 6.70149 15.5531H3.92374ZM10.4466 13.7982C11.8248 14.3857 13.383 14.3857 14.7611 13.7982C15.1138 13.6473 15.522 13.8108 15.6729 14.1635C15.8239 14.5161 15.6603 14.9244 15.3077 15.0753C13.5801 15.8105 11.6276 15.8105 9.90007 15.0753C9.54742 14.9244 9.38388 14.5161 9.5348 14.1635C9.68572 13.8108 10.0939 13.6473 10.4466 13.7982Z" />
</svg>