<!--character:6111-->
  <svg width="24" height="24" viewBox="0 0 24 24" >
<path d="M22 9.49713C22 9.0369 21.6269 8.66381 21.1667 8.66381H10.4076C10.2516 8.66381 10.1251 8.53733 10.1251 8.38131C10.1251 8.24512 10.1917 8.11754 10.3034 8.03964C10.5392 7.87557 10.6964 7.62119 10.7378 7.33698C10.7791 7.05277 10.7009 6.76412 10.5218 6.53966L7.18847 2.37303C6.98426 2.13618 6.68704 2 6.37431 2C6.06158 2 5.76436 2.13618 5.56015 2.37303L2.22685 6.53966C2.04767 6.76412 1.96947 7.05277 2.01084 7.33698C2.05221 7.62119 2.20945 7.87557 2.44518 8.03964C2.55744 8.11753 2.62439 8.2455 2.62434 8.38214V21.1637C2.62434 21.6239 2.99743 21.997 3.45767 21.997C3.9179 21.997 4.29099 21.6239 4.29099 21.1637V20.747C4.29099 20.5169 4.47754 20.3304 4.70766 20.3304H8.04096C8.27108 20.3304 8.45762 20.5169 8.45762 20.747V21.1637C8.45762 21.6239 8.83072 21.997 9.29095 21.997C9.75118 21.997 10.1243 21.6239 10.1243 21.1637V10.7471C10.1243 10.517 10.3108 10.3305 10.5409 10.3305H12.0001C12.2302 10.3305 12.4168 10.517 12.4168 10.7471V15.0054C12.4168 15.4657 12.7898 15.8387 13.2501 15.8387C13.7103 15.8387 14.0834 15.4657 14.0834 15.0054V10.7471C14.0834 10.517 14.27 10.3305 14.5001 10.3305H15.7501C15.9802 10.3305 16.1667 10.517 16.1667 10.7471V15.0054C16.1667 15.4657 16.5398 15.8387 17.0001 15.8387C17.4603 15.8387 17.8334 15.4657 17.8334 15.0054V10.7471C17.8334 10.517 18.0199 10.3305 18.25 10.3305H19.9167C20.1468 10.3305 20.3334 10.517 20.3334 10.7471V21.1637C20.3334 21.6239 20.7064 21.997 21.1667 21.997C21.6269 21.997 22 21.6239 22 21.1637V9.49713ZM8.04179 8.22881C8.27191 8.22881 8.45846 8.41535 8.45846 8.64547V11.1638C8.45846 11.3939 8.27191 11.5804 8.04179 11.5804H4.70849C4.47837 11.5804 4.29183 11.3939 4.29183 11.1638V8.64547C4.29183 8.41535 4.47837 8.22881 4.70849 8.22881H8.04179ZM4.70849 13.2471H8.04179C8.27191 13.2471 8.45846 13.4336 8.45846 13.6638V14.7054C8.45846 14.9355 8.27191 15.1221 8.04179 15.1221H4.70849C4.47837 15.1221 4.29183 14.9355 4.29183 14.7054V13.6638C4.29183 13.4336 4.47837 13.2471 4.70849 13.2471ZM4.70849 18.6637C4.47837 18.6637 4.29183 18.4772 4.29183 18.2471V17.2054C4.29183 16.9753 4.47837 16.7887 4.70849 16.7887H8.04179C8.27191 16.7887 8.45846 16.9753 8.45846 17.2054V18.2471C8.45846 18.4772 8.27191 18.6637 8.04179 18.6637H4.70849Z" />
<path d="M12.5359 16.5579C14.1897 17.2629 16.0596 17.2629 17.7134 16.5579C18.1366 16.3768 18.6264 16.573 18.8075 16.9962C18.9886 17.4194 18.7924 17.9093 18.3692 18.0904C16.2961 18.9726 13.9532 18.9726 11.8801 18.0904C11.4569 17.9093 11.2607 17.4194 11.4418 16.9962C11.6229 16.573 12.1127 16.3768 12.5359 16.5579Z" />
</svg>