<!--character:90:550:372-->
  <svg width="24" height="24" viewBox="0 0 24 24" >
<path d="M22 9.49713C22 9.0369 21.6269 8.66381 21.1667 8.66381H10.4076C10.2516 8.66381 10.1251 8.53733 10.1251 8.38131C10.1251 8.24512 10.1917 8.11755 10.3034 8.03965C10.5392 7.87558 10.6964 7.62119 10.7378 7.33698C10.7791 7.05277 10.7009 6.76412 10.5218 6.53966L7.18846 2.37303C6.98425 2.13618 6.68703 2 6.3743 2C6.06158 2 5.76435 2.13618 5.56014 2.37303L2.22684 6.53966C2.04766 6.76412 1.96946 7.05277 2.01083 7.33698C2.0522 7.62119 2.20944 7.87558 2.44517 8.03965C2.55744 8.11753 2.62438 8.24551 2.62434 8.38214V21.1637C2.62434 21.6239 2.99743 21.997 3.45766 21.997C3.9179 21.997 4.29099 21.6239 4.29099 21.1637V20.747C4.29099 20.5169 4.47753 20.3304 4.70765 20.3304H8.04096C8.27107 20.3304 8.45762 20.5169 8.45762 20.747V21.1637C8.45762 21.6239 8.83071 21.997 9.29094 21.997C9.75118 21.997 10.1243 21.6239 10.1243 21.1637V10.7471C10.1243 10.517 10.3108 10.3305 10.5409 10.3305H12.0001C12.2302 10.3305 12.4168 10.517 12.4168 10.7471V15.0054C12.4168 15.4657 12.7898 15.8387 13.2501 15.8387C13.7103 15.8387 14.0834 15.4657 14.0834 15.0054V10.7471C14.0834 10.517 14.2699 10.3305 14.5001 10.3305H15.7501C15.9802 10.3305 16.1667 10.517 16.1667 10.7471V15.0054C16.1667 15.4657 16.5398 15.8387 17 15.8387C17.4603 15.8387 17.8334 15.4657 17.8334 15.0054V10.7471C17.8334 10.517 18.0199 10.3305 18.25 10.3305H19.9167C20.1468 10.3305 20.3333 10.517 20.3333 10.7471V21.1637C20.3333 21.6239 20.7064 21.997 21.1667 21.997C21.6269 21.997 22 21.6239 22 21.1637V9.49713ZM8.0418 8.2288C8.27192 8.2288 8.45846 8.41534 8.45846 8.64546V11.1638C8.45846 11.3939 8.27192 11.5804 8.0418 11.5804H4.7085C4.47838 11.5804 4.29183 11.3939 4.29183 11.1638V8.64546C4.29183 8.41534 4.47838 8.2288 4.7085 8.2288H8.0418ZM4.7085 13.2471H8.0418C8.27192 13.2471 8.45846 13.4336 8.45846 13.6638V14.7054C8.45846 14.9355 8.27192 15.1221 8.0418 15.1221H4.7085C4.47838 15.1221 4.29183 14.9355 4.29183 14.7054V13.6638C4.29183 13.4336 4.47838 13.2471 4.7085 13.2471ZM4.7085 18.6637C4.47838 18.6637 4.29183 18.4772 4.29183 18.2471V17.2054C4.29183 16.9753 4.47838 16.7888 4.7085 16.7888H8.0418C8.27192 16.7888 8.45846 16.9753 8.45846 17.2054V18.2471C8.45846 18.4772 8.27192 18.6637 8.0418 18.6637H4.7085Z" />
<path d="M12.5359 16.5579C14.1897 17.2629 16.0595 17.2629 17.7134 16.5579C18.1365 16.3768 18.6264 16.5731 18.8075 16.9962C18.9886 17.4194 18.7924 17.9093 18.3692 18.0904C16.2961 18.9726 13.9532 18.9726 11.8801 18.0904C11.4569 17.9093 11.2606 17.4194 11.4417 16.9962C11.6228 16.5731 12.1127 16.3768 12.5359 16.5579Z" />
</svg>