<!--character:4647-->
  <svg width="20" height="20" viewBox="0 0 20 20" >
<path d="M10 1.66666C14.5833 1.66666 18.3333 5.41666 18.3333 10C18.3333 14.5833 14.5833 18.3333 10 18.3333C5.41666 18.3333 1.66666 14.5833 1.66666 10C1.66666 5.41666 5.41666 1.66666 10 1.66666ZM10 5.09166L9.90592 5.09751C9.53611 5.14379 9.25 5.45931 9.25 5.84166L9.24998 8.915C9.24997 9.09909 9.10073 9.24833 8.91664 9.24833L5.84331 9.24836C5.42909 9.24836 5.09331 9.58414 5.09331 9.99835L5.09915 10.0924C5.14543 10.4622 5.46096 10.7484 5.84331 10.7484L8.91664 10.7483C9.10074 10.7483 9.24998 10.8976 9.24998 11.0817L9.25 14.155C9.25 14.5693 9.58578 14.905 10 14.905L10.0941 14.8992C10.4639 14.8529 10.75 14.5374 10.75 14.155L10.75 11.0817C10.75 10.8976 10.8992 10.7483 11.0833 10.7483L14.1567 10.7484C14.5709 10.7484 14.9067 10.4126 14.9067 9.99835L14.9008 9.90428C14.8546 9.53447 14.539 9.24836 14.1567 9.24836L11.0833 9.24833C10.8992 9.24833 10.75 9.09909 10.75 8.915L10.75 5.84166C10.75 5.42745 10.4142 5.09166 10 5.09166Z" />
</svg>