<!--character:2147-->
  <svg width="24" height="24" viewBox="0 0 24 24" >
<path d="M12 5.11011C12.497 5.11011 12.9 5.51305 12.9 6.01011L12.9 10.6981C12.9 10.919 13.079 11.0981 13.3 11.0981L17.988 11.0981C18.4468 11.0981 18.8255 11.4415 18.881 11.8852L18.888 11.9981C18.888 12.4952 18.4851 12.8981 17.988 12.8981L13.3 12.8981C13.079 12.8981 12.9 13.0772 12.9 13.2981L12.9 17.9862C12.9 18.445 12.5567 18.8236 12.1129 18.8792L12 18.8862C11.5029 18.8862 11.1 18.4832 11.1 17.9862L11.1 13.2981C11.1 13.0772 10.9209 12.8981 10.7 12.8981L6.01196 12.8981C5.55314 12.8981 5.17451 12.5548 5.11897 12.111L5.11196 11.9981C5.11196 11.5011 5.51491 11.0981 6.01196 11.0981L10.7 11.0981C10.9209 11.0981 11.1 10.919 11.1 10.6981L11.1 6.01011C11.1 5.55129 11.4433 5.17266 11.8871 5.11712L12 5.11011Z" />
</svg>