<!--character:7728-->
  <svg width="20" height="20" viewBox="0 0 20 20" >
<path d="M9.99997 4.25833C10.4142 4.25833 10.75 4.59412 10.75 5.00833L10.75 8.84833C10.7499 9.06925 10.929 9.24833 11.1499 9.24833L14.99 9.24836C15.3723 9.24836 15.6879 9.53447 15.7342 9.90428L15.74 9.99836C15.74 10.4126 15.4042 10.7484 14.99 10.7484L11.15 10.7483C10.929 10.7483 10.7499 10.9274 10.75 11.1483L10.75 14.9884C10.75 15.3707 10.4639 15.6863 10.0941 15.7325L9.99997 15.7384C9.58576 15.7384 9.24997 15.4026 9.24997 14.9884L9.24995 11.1483C9.24995 10.9274 9.07086 10.7483 8.84995 10.7483L5.00995 10.7484C4.6276 10.7484 4.31207 10.4622 4.26579 10.0924L4.25995 9.99836C4.25995 9.58414 4.59574 9.24836 5.00995 9.24836L8.84995 9.24833C9.07087 9.24833 9.24995 9.06925 9.24995 8.84834L9.24997 5.00833C9.24997 4.62598 9.53609 4.31045 9.90589 4.26417L9.99997 4.25833Z" />
</svg>