<!-- character:0:64 -->
  <svg width="20" height="20" viewBox="0 0 20 20" >
<path   d="M10 1.66675C14.5833 1.66675 18.3333 5.41675 18.3333 10.0001C18.3333 14.5834 14.5833 18.3334 10 18.3334C5.41667 18.3334 1.66667 14.5834 1.66667 10.0001C1.66667 5.41675 5.41667 1.66675 10 1.66675ZM10 5.09175L9.90592 5.09759C9.53611 5.14387 9.25 5.4594 9.25 5.84175L9.24998 8.91508C9.24997 9.09917 9.10074 9.24841 8.91664 9.24842L5.84331 9.24844C5.4291 9.24844 5.09331 9.58423 5.09331 9.99844L5.09915 10.0925C5.14543 10.4623 5.46096 10.7484 5.84331 10.7484L8.91664 10.7484C9.10074 10.7484 9.24998 10.8977 9.24998 11.0817L9.25 14.1551C9.25 14.5693 9.58579 14.9051 10 14.9051L10.0941 14.8993C10.4639 14.853 10.75 14.5375 10.75 14.1551L10.75 11.0817C10.75 10.8976 10.8992 10.7484 11.0833 10.7484L14.1567 10.7484C14.5709 10.7484 14.9067 10.4127 14.9067 9.99844L14.9008 9.90436C14.8546 9.53455 14.539 9.24844 14.1567 9.24844L11.0833 9.24842C10.8992 9.24842 10.75 9.09918 10.75 8.91508L10.75 5.84175C10.75 5.42753 10.4142 5.09175 10 5.09175Z" />
</svg>