<!--character:3586-->
  <svg width="24" height="24" viewBox="0 0 24 24" >
<path d="M12 5.11C12.497 5.11 12.9 5.51294 12.9 6.01L12.8999 10.618C12.8999 10.8831 13.1148 11.098 13.3799 11.098L17.988 11.098C18.4468 11.098 18.8254 11.4414 18.881 11.8851L18.888 11.998C18.888 12.4951 18.485 12.898 17.988 12.898L13.3799 12.898C13.1148 12.898 12.8999 13.1129 12.8999 13.378L12.9 17.9861C12.9 18.4449 12.5566 18.8235 12.1129 18.879L12 18.8861C11.5029 18.8861 11.1 18.4831 11.1 17.9861L11.0999 13.378C11.0999 13.1129 10.885 12.898 10.6199 12.898L6.01194 12.898C5.55312 12.898 5.17449 12.5547 5.11895 12.1109L5.11194 11.998C5.11194 11.501 5.51488 11.098 6.01194 11.098L10.6199 11.098C10.885 11.098 11.0999 10.8831 11.0999 10.618L11.1 6.01C11.1 5.55118 11.4433 5.17255 11.8871 5.11701L12 5.11Z" />
</svg>