<!--character:2789-->
<svg width="24" height="24" viewBox="0 0 24 24">
  <path d="M12 2C17.5 2 22 6.5 22 12C22 17.5 17.5 22 12 22C6.5 22 2 17.5 2 12C2 6.5 6.5 2 12 2ZM12 6.11L11.8871 6.11701C11.4433 6.17255 11.1 6.55118 11.1 7.01L11.1 10.698C11.1 10.9189 10.9209 11.098 10.7 11.098L7.01197 11.098C6.51491 11.098 6.11197 11.501 6.11197 11.998L6.11898 12.1109C6.17452 12.5547 6.55315 12.898 7.01197 12.898L10.7 12.898C10.9209 12.898 11.1 13.0771 11.1 13.298L11.1 16.9861C11.1 17.4831 11.5029 17.8861 12 17.8861L12.1129 17.879C12.5567 17.8235 12.9 17.4449 12.9 16.9861L12.9 13.298C12.9 13.0771 13.0791 12.898 13.3 12.898L16.988 12.898C17.4851 12.898 17.888 12.4951 17.888 11.998L17.881 11.8851C17.8255 11.4414 17.4468 11.098 16.988 11.098L13.3 11.098C13.0791 11.098 12.9 10.9189 12.9 10.698L12.9 7.01C12.9 6.51294 12.4971 6.11 12 6.11Z" />
</svg>
