<!--character:3112-->
  <svg width="20" height="20" viewBox="0 0 20 20" >
<path d="M13.75 7.91666C13.75 8.3769 13.3769 8.75 12.9167 8.75H11.25C11.0199 8.75 10.8333 8.93655 10.8333 9.16666V10.8333C10.8333 11.2936 10.4602 11.6667 10 11.6667C9.53976 11.6667 9.16667 11.2936 9.16667 10.8333V9.16666C9.16667 8.93655 8.98012 8.75 8.75 8.75H7.08333C6.6231 8.75 6.25 8.3769 6.25 7.91666C6.25 7.45643 6.6231 7.08333 7.08333 7.08333H8.75C8.98012 7.08333 9.16667 6.89678 9.16667 6.66666V5C9.16667 4.53976 9.53976 4.16666 10 4.16666C10.4602 4.16666 10.8333 4.53976 10.8333 5V6.66666C10.8333 6.89678 11.0199 7.08333 11.25 7.08333H12.9167C13.3769 7.08333 13.75 7.45643 13.75 7.91666Z" />
<path d="M13.75 15C13.75 15.4602 13.3769 15.8333 12.9167 15.8333H7.08333C6.6231 15.8333 6.25 15.4602 6.25 15C6.25 14.5398 6.6231 14.1667 7.08333 14.1667H12.9167C13.3769 14.1667 13.75 14.5398 13.75 15Z" />
</svg>