<!-- character:0:72 -->
  <svg width="20" height="20" viewBox="0 0 20 20" >
<path d="M10 4.2583C10.4142 4.2583 10.75 4.59409 10.75 5.0083L10.75 8.8483C10.75 9.06922 10.9291 9.2483 11.15 9.2483L14.99 9.24833C15.3724 9.24833 15.6879 9.53444 15.7342 9.90425L15.74 9.99833C15.74 10.4125 15.4042 10.7483 14.99 10.7483L11.15 10.7483C10.9291 10.7483 10.75 10.9274 10.75 11.1483L10.75 14.9883C10.75 15.3707 10.4639 15.6862 10.0941 15.7325L10 15.7383C9.58579 15.7383 9.25 15.4026 9.25 14.9883L9.24998 11.1483C9.24998 10.9274 9.07089 10.7483 8.84998 10.7483L5.00998 10.7483C4.62763 10.7483 4.3121 10.4622 4.26582 10.0924L4.25998 9.99833C4.25998 9.58411 4.59577 9.24833 5.00998 9.24833L8.84998 9.2483C9.0709 9.2483 9.24998 9.06922 9.24998 8.84831L9.25 5.0083C9.25 4.62595 9.53612 4.31042 9.90592 4.26414L10 4.2583Z" />
</svg>