<!--character:122:550:1167-->
  <svg width="24" height="24" viewBox="0 0 24 24" >
<path   d="M12 2C17.5 2 22 6.5 22 12C22 17.5 17.5 22 12 22C6.5 22 2 17.5 2 12C2 6.5 6.5 2 12 2ZM12 6.11003L11.8871 6.11704C11.4433 6.17257 11.1 6.55121 11.1 7.01003L11.1 10.698C11.1 10.9189 10.9209 11.098 10.7 11.098L7.01196 11.0981C6.51491 11.0981 6.11196 11.501 6.11196 11.9981L6.11898 12.1109C6.17451 12.5547 6.55314 12.8981 7.01196 12.8981L10.7 12.898C10.9209 12.898 11.1 13.0771 11.1 13.298L11.1 16.9861C11.1 17.4831 11.5029 17.8861 12 17.8861L12.1129 17.8791C12.5567 17.8235 12.9 17.4449 12.9 16.9861L12.9 13.298C12.9 13.0771 13.0791 12.898 13.3 12.898L16.988 12.8981C17.4851 12.8981 17.888 12.4951 17.888 11.9981L17.881 11.8852C17.8255 11.4414 17.4468 11.0981 16.988 11.0981L13.3 11.098C13.0791 11.098 12.9 10.9189 12.9 10.698L12.9 7.01003C12.9 6.51297 12.497 6.11003 12 6.11003Z" />
</svg>