<!-- character:1257:1055 -->
  <svg width="20" height="20" viewBox="0 0 20 20" >
<path d="M13.75 7.91675C13.75 8.37699 13.3769 8.75008 12.9167 8.75008H11.25C11.0199 8.75008 10.8333 8.93663 10.8333 9.16675V10.8334C10.8333 11.2937 10.4602 11.6667 10 11.6667C9.53976 11.6667 9.16667 11.2937 9.16667 10.8334V9.16675C9.16667 8.93663 8.98012 8.75008 8.75 8.75008H7.08333C6.6231 8.75008 6.25 8.37699 6.25 7.91675C6.25 7.45651 6.6231 7.08341 7.08333 7.08341H8.75C8.98012 7.08341 9.16667 6.89687 9.16667 6.66675V5.00008C9.16667 4.53984 9.53976 4.16675 10 4.16675C10.4602 4.16675 10.8333 4.53984 10.8333 5.00008V6.66675C10.8333 6.89687 11.0199 7.08341 11.25 7.08341H12.9167C13.3769 7.08341 13.75 7.45651 13.75 7.91675Z" />
<path d="M13.75 15.0001C13.75 15.4603 13.3769 15.8334 12.9167 15.8334H7.08333C6.6231 15.8334 6.25 15.4603 6.25 15.0001C6.25 14.5398 6.6231 14.1667 7.08333 14.1667H12.9167C13.3769 14.1667 13.75 14.5398 13.75 15.0001Z" />
</svg>