<!--character:275:1257:1053-->
  <svg width="24" height="24" viewBox="0 0 24 24" >
<path d="M16.5 9.5C16.5 10.0523 16.0523 10.5 15.5 10.5H13.5C13.2239 10.5 13 10.7239 13 11V13C13 13.5523 12.5523 14 12 14C11.4477 14 11 13.5523 11 13V11C11 10.7239 10.7761 10.5 10.5 10.5H8.5C7.94772 10.5 7.5 10.0523 7.5 9.5C7.5 8.94772 7.94772 8.5 8.5 8.5H10.5C10.7761 8.5 11 8.27614 11 8V6C11 5.44772 11.4477 5 12 5C12.5523 5 13 5.44772 13 6V8C13 8.27614 13.2239 8.5 13.5 8.5H15.5C16.0523 8.5 16.5 8.94772 16.5 9.5Z" />
<path d="M16.5 18C16.5 18.5523 16.0523 19 15.5 19H8.5C7.94772 19 7.5 18.5523 7.5 18C7.5 17.4477 7.94772 17 8.5 17H15.5C16.0523 17 16.5 17.4477 16.5 18Z" />
</svg>