<!--category:services-->
<!--character:E123-->
<!--added:0.11-->
<svg width="24" height="24" viewBox="0 0 24 24" xmlns="http://www.w3.org/2000/svg"><path d="M8.667 18.25a.8332.8332 0 0 1-.8332-.8333v-12.5C7.8338 3.3058 9.1393 2 10.7498 2c1.6103 0 2.9158 1.3058 2.9158 2.9167a.8332.8332 0 1 1-1.6662 0c0-.6904-.5595-1.25-1.2497-1.25S9.5 4.2263 9.5 4.9167v1.6666c0 .2302.1865.4167.4166.4167h4.5821a.4165.4165 0 0 0 .4166-.4167V4.9167C14.9153 3.3058 16.2208 2 17.8313 2c1.6103 0 2.9158 1.3058 2.9158 2.9167a.8332.8332 0 1 1-1.6662 0c0-.6904-.5595-1.25-1.2497-1.25s-1.2497.5596-1.2497 1.25v12.5a.8332.8332 0 1 1-1.6662 0v-.8334a.4166.4166 0 0 0-.4166-.4166H9.9166a.4166.4166 0 0 0-.4166.4166v.8334a.8332.8332 0 0 1-.833.8333zM9.5 9.0833v1.25c0 .2302.1865.4167.4166.4167h4.5821c.2301 0 .4166-.1865.4166-.4167v-1.25a.4166.4166 0 0 0-.4166-.4166H9.9166a.4166.4166 0 0 0-.4166.4166zm0 3.75v1.25c0 .2302.1865.4167.4166.4167h4.5821c.2301 0 .4166-.1865.4166-.4167v-1.25a.4166.4166 0 0 0-.4166-.4166H9.9166a.4166.4166 0 0 0-.4166.4166zm11.5537 7.4509a.8415.8415 0 0 1 .939.7083.8333.8333 0 0 1-.7157.9358 3.7143 3.7143 0 0 1-2.9467-.9391.4165.4165 0 0 0-.5332 0 4.165 4.165 0 0 1-2.6877.9775 3.711 3.711 0 0 1-2.536-.975.4165.4165 0 0 0-.5299-.0225 4.6847 4.6847 0 0 1-2.8326 1 4.2 4.2 0 0 1-2.7318-1.0434.4165.4165 0 0 0-.5273-.0091A4.5632 4.5632 0 0 1 3.1825 22a3.5707 3.5707 0 0 1-.459-.03.8335.8335 0 0 1-.7161-.9362.8334.8334 0 0 1 .936-.7163c1.398.175 2.6535-1.355 2.666-1.37a.8672.8672 0 0 1 1.3646.0758 2.8866 2.8866 0 0 0 2.237 1.2817 3.4988 3.4988 0 0 0 2.5218-1.3333.8713.8713 0 0 1 1.4271.1333 2.2702 2.2702 0 0 0 1.9462 1.2 2.72 2.72 0 0 0 2.2277-1.2583.8697.8697 0 0 1 1.4322-.0234c.0058.0109.9306 1.4392 2.2877 1.2609z"/></svg>