<!--character:1741-->
  <svg width="20" height="20" viewBox="0 0 20 20" >
<path d="M7.91677 14.5139C7.91677 14.8974 7.60594 15.2083 7.22251 15.2083C6.83908 15.2083 6.52824 14.8974 6.52824 14.5139V4.09722C6.52824 2.75486 7.61616 1.66666 8.95817 1.66666C10.3002 1.66666 11.3881 2.75486 11.3881 4.09722C11.3881 4.48075 11.0773 4.79166 10.6938 4.79166C10.3104 4.79166 9.99957 4.48075 9.99957 4.09722C9.99957 3.52192 9.53332 3.05555 8.95817 3.05555C8.38302 3.05555 7.91677 3.52192 7.91677 4.09722V5.48611C7.91677 5.67787 8.07219 5.83333 8.26391 5.83333H12.0824C12.1744 5.83333 12.2627 5.79675 12.3278 5.73163C12.3929 5.66652 12.4295 5.5782 12.4295 5.48611V4.09722C12.4295 2.75486 13.5174 1.66666 14.8594 1.66666C16.2014 1.66666 17.2894 2.75486 17.2894 4.09722C17.2894 4.48075 16.9785 4.79166 16.5951 4.79166C16.2117 4.79166 15.9008 4.48075 15.9008 4.09722C15.9008 3.52192 15.4346 3.05555 14.8594 3.05555C14.2843 3.05555 13.818 3.52192 13.818 4.09722V14.5139C13.818 14.8974 13.5072 15.2083 13.1238 15.2083C12.7403 15.2083 12.4295 14.8974 12.4295 14.5139V13.8194C12.4295 13.6277 12.2741 13.4722 12.0824 13.4722H8.26391C8.07219 13.4722 7.91677 13.6277 7.91677 13.8194V14.5139ZM8.26391 7.22222C8.07219 7.22222 7.91677 7.37768 7.91677 7.56944V8.61111C7.91677 8.80287 8.07219 8.95833 8.26391 8.95833H12.0824C12.2741 8.95833 12.4295 8.80287 12.4295 8.61111V7.56944C12.4295 7.37768 12.2741 7.22222 12.0824 7.22222H8.26391ZM7.91677 10.6944V11.7361C7.91677 11.9279 8.07219 12.0833 8.26391 12.0833H12.0824C12.2741 12.0833 12.4295 11.9279 12.4295 11.7361V10.6944C12.4295 10.5027 12.2741 10.3472 12.0824 10.3472H8.26391C8.07219 10.3472 7.91677 10.5027 7.91677 10.6944Z" />
<path d="M15.6384 15.8528C15.6433 15.8618 16.4139 17.0521 17.5448 16.9035C17.9226 16.855 18.27 17.1171 18.3273 17.4937C18.3778 17.8738 18.1108 18.2229 17.7309 18.2736C16.8376 18.3821 15.9412 18.0965 15.2753 17.491C15.1466 17.3837 14.9597 17.3837 14.831 17.491C14.2039 18.0184 13.4105 18.3069 12.5913 18.3056C11.8095 18.3116 11.0544 18.0213 10.4779 17.4931C10.3542 17.3818 10.169 17.3739 10.0364 17.4743C9.36229 18.0037 8.53281 18.2965 7.67586 18.3076C6.83742 18.2999 6.02961 17.9914 5.39937 17.4382C5.27335 17.3314 5.08955 17.3282 4.9599 17.4306C4.31298 17.9807 3.50059 18.2985 2.65216 18.3333C2.52424 18.3332 2.39647 18.3249 2.26962 18.3083C1.88945 18.2577 1.62229 17.9084 1.6729 17.5281C1.72351 17.1479 2.07274 16.8806 2.45291 16.9312C3.60961 17.076 4.64927 15.8201 4.67418 15.79C4.82066 15.6226 5.03646 15.5315 5.25857 15.5438C5.48067 15.5562 5.68473 15.6701 5.81176 15.8528C6.23088 16.4819 6.92125 16.8775 7.67586 16.9208C8.50236 16.8658 9.26646 16.4618 9.7774 15.8097C9.93067 15.6271 10.1638 15.5313 10.4012 15.5535C10.6385 15.5757 10.8499 15.713 10.9667 15.9208C11.2878 16.522 11.9073 16.904 12.5885 16.9208C13.3433 16.9024 14.0393 16.5092 14.445 15.8722C14.577 15.6737 14.7982 15.5528 15.0366 15.549C15.2749 15.5451 15.4999 15.6587 15.6384 15.8528Z" />
</svg>