<!--character:9337-->
  <svg width="24" height="24" viewBox="0 0 24 24" >
<path d="M9.50002 17.4167C9.50002 17.8769 9.12702 18.25 8.6669 18.25C8.20678 18.25 7.83378 17.8769 7.83378 17.4167V4.91667C7.83378 3.30584 9.13928 2 10.7497 2C12.3601 2 13.6656 3.30584 13.6656 4.91667C13.6656 5.3769 13.2926 5.75 12.8325 5.75C12.3724 5.75 11.9994 5.3769 11.9994 4.91667C11.9994 4.22631 11.4399 3.66667 10.7497 3.66667C10.0595 3.66667 9.50002 4.22631 9.50002 4.91667V6.58333C9.50002 6.81345 9.68652 7 9.91658 7H14.4987C14.6092 7 14.7152 6.9561 14.7933 6.87796C14.8714 6.79982 14.9153 6.69384 14.9153 6.58333V4.91667C14.9153 3.30584 16.2208 2 17.8312 2C19.4416 2 20.7471 3.30584 20.7471 4.91667C20.7471 5.3769 20.3741 5.75 19.914 5.75C19.4539 5.75 19.0809 5.3769 19.0809 4.91667C19.0809 4.22631 18.5214 3.66667 17.8312 3.66667C17.141 3.66667 16.5815 4.22631 16.5815 4.91667V17.4167C16.5815 17.8769 16.2085 18.25 15.7484 18.25C15.2883 18.25 14.9153 17.8769 14.9153 17.4167V16.5833C14.9153 16.3532 14.7288 16.1667 14.4987 16.1667H9.91658C9.68652 16.1667 9.50002 16.3532 9.50002 16.5833V17.4167ZM9.91658 8.66667C9.68652 8.66667 9.50002 8.85322 9.50002 9.08333V10.3333C9.50002 10.5635 9.68652 10.75 9.91658 10.75H14.4987C14.7288 10.75 14.9153 10.5635 14.9153 10.3333V9.08333C14.9153 8.85322 14.7288 8.66667 14.4987 8.66667H9.91658ZM9.50002 12.8333V14.0833C9.50002 14.3135 9.68652 14.5 9.91658 14.5H14.4987C14.7288 14.5 14.9153 14.3135 14.9153 14.0833V12.8333C14.9153 12.6032 14.7288 12.4167 14.4987 12.4167H9.91658C9.68652 12.4167 9.50002 12.6032 9.50002 12.8333Z" />
<path d="M18.766 19.0233C18.7718 19.0342 19.6966 20.4625 21.0537 20.2842C21.5071 20.226 21.9239 20.5405 21.9926 20.9925C22.0532 21.4486 21.7329 21.8675 21.277 21.9283C20.205 22.0586 19.1293 21.7158 18.3302 20.9892C18.1758 20.8605 17.9515 20.8605 17.797 20.9892C17.0446 21.622 16.0925 21.9683 15.1094 21.9667C14.1713 21.9739 13.2652 21.6256 12.5734 20.9917C12.425 20.8581 12.2027 20.8487 12.0435 20.9692C11.2346 21.6044 10.2393 21.9558 9.21093 21.9692C8.20479 21.9599 7.23542 21.5896 6.47913 20.9258C6.32791 20.7977 6.10735 20.7938 5.95177 20.9167C5.17547 21.5769 4.2006 21.9582 3.18249 22C3.02898 21.9999 2.87565 21.9899 2.72344 21.97C2.26723 21.9092 1.94664 21.4901 2.00737 21.0337C2.06811 20.5774 2.48717 20.2567 2.94338 20.3175C4.33142 20.4913 5.57901 18.9842 5.6089 18.948C5.78468 18.7471 6.04364 18.6378 6.31017 18.6526C6.5767 18.6674 6.82156 18.8041 6.97401 19.0233C7.47694 19.7783 8.3054 20.253 9.21093 20.305C10.2027 20.239 11.1196 19.7542 11.7328 18.9717C11.9167 18.7525 12.1964 18.6376 12.4813 18.6642C12.7661 18.6908 13.0197 18.8556 13.1599 19.105C13.5452 19.8264 14.2886 20.2848 15.1061 20.305C16.0118 20.2828 16.8471 19.811 17.3338 19.0467C17.4923 18.8085 17.7577 18.6634 18.0438 18.6588C18.3298 18.6541 18.5998 18.7904 18.766 19.0233Z" />
</svg>