<!-- character:0:2143 -->
  <svg width="20" height="20" viewBox="0 0 20 20" >
<path   d="M7.91668 14.5138C7.91668 14.8974 7.60585 15.2083 7.22242 15.2083C6.83899 15.2083 6.52815 14.8974 6.52815 14.5138V4.09718C6.52815 2.75482 7.61607 1.66663 8.95808 1.66663C10.3001 1.66663 11.388 2.75482 11.388 4.09718C11.388 4.48071 11.0772 4.79163 10.6937 4.79163C10.3103 4.79163 9.99948 4.48071 9.99948 4.09718C9.99948 3.52189 9.53323 3.05551 8.95808 3.05551C8.38293 3.05551 7.91668 3.52189 7.91668 4.09718V5.48607C7.91668 5.67784 8.0721 5.83329 8.26382 5.83329H12.0823C12.1743 5.83329 12.2626 5.79671 12.3277 5.73159C12.3928 5.66648 12.4294 5.57816 12.4294 5.48607V4.09718C12.4294 2.75482 13.5173 1.66663 14.8593 1.66663C16.2013 1.66663 17.2893 2.75482 17.2893 4.09718C17.2893 4.48071 16.9784 4.79163 16.595 4.79163C16.2116 4.79163 15.9007 4.48071 15.9007 4.09718C15.9007 3.52189 15.4345 3.05551 14.8593 3.05551C14.2842 3.05551 13.8179 3.52189 13.8179 4.09718V14.5138C13.8179 14.8974 13.5071 15.2083 13.1237 15.2083C12.7402 15.2083 12.4294 14.8974 12.4294 14.5138V13.8194C12.4294 13.6276 12.274 13.4722 12.0823 13.4722H8.26382C8.0721 13.4722 7.91668 13.6276 7.91668 13.8194V14.5138ZM8.26382 7.22218C8.0721 7.22218 7.91668 7.37764 7.91668 7.5694V8.61107C7.91668 8.80284 8.0721 8.95829 8.26382 8.95829H12.0823C12.274 8.95829 12.4294 8.80284 12.4294 8.61107V7.5694C12.4294 7.37764 12.274 7.22218 12.0823 7.22218H8.26382ZM7.91668 10.6944C7.91668 10.5026 8.0721 10.3472 8.26382 10.3472H12.0823C12.274 10.3472 12.4294 10.5026 12.4294 10.6944V11.7361C12.4294 11.9278 12.274 12.0833 12.0823 12.0833H8.26382C8.0721 12.0833 7.91668 11.9278 7.91668 11.7361V10.6944ZM15.6383 15.8527C15.6432 15.8618 16.4138 17.052 17.5448 16.9034C17.9226 16.855 18.2699 17.117 18.3272 17.4937C18.3777 17.8738 18.1107 18.2229 17.7308 18.2736C16.8375 18.3821 15.9411 18.0964 15.2752 17.4909C15.1465 17.3837 14.9596 17.3837 14.8309 17.4909C14.2038 18.0183 13.4104 18.3069 12.5912 18.3055C11.8094 18.3116 11.0543 18.0213 10.4778 17.493C10.3541 17.3817 10.1689 17.3739 10.0363 17.4743C9.3622 18.0036 8.53272 18.2965 7.67577 18.3076C6.83733 18.2999 6.02952 17.9913 5.39928 17.4382C5.27326 17.3314 5.08946 17.3282 4.95981 17.4305C4.31289 17.9807 3.5005 18.2985 2.65207 18.3333C2.52415 18.3332 2.39637 18.3248 2.26953 18.3083C1.88936 18.2577 1.6222 17.9084 1.67281 17.5281C1.72342 17.1478 2.07264 16.8806 2.45282 16.9312C3.60952 17.076 4.64918 15.8201 4.67409 15.79L4.67447 15.7895C4.82095 15.6221 5.03636 15.5314 5.25847 15.5438C5.48058 15.5561 5.68464 15.6701 5.81167 15.8527C6.23078 16.4819 6.92116 16.8775 7.67577 16.9208C8.50226 16.8658 9.26637 16.4618 9.77731 15.8097C9.93058 15.627 10.1637 15.5313 10.4011 15.5535C10.6384 15.5756 10.8498 15.7129 10.9666 15.9208C11.2877 16.5219 11.9072 16.9039 12.5884 16.9208C13.3432 16.9023 14.0392 16.5092 14.4449 15.8722C14.5769 15.6737 14.7981 15.5528 15.0365 15.5489C15.2748 15.545 15.4998 15.6586 15.6383 15.8527Z" />
</svg>