<!--character:7397-->
  <svg width="24" height="24" viewBox="0 0 24 24" >
<path d="M9.50013 17.4167C9.50013 17.8769 9.12713 18.25 8.66701 18.25C8.20689 18.25 7.83389 17.8769 7.83389 17.4167V4.91666C7.83389 3.30583 9.13939 2 10.7498 2C12.3602 2 13.6657 3.30583 13.6657 4.91666C13.6657 5.3769 13.2927 5.75 12.8326 5.75C12.3725 5.75 11.9995 5.3769 11.9995 4.91666C11.9995 4.22631 11.44 3.66666 10.7498 3.66666C10.0596 3.66666 9.50013 4.22631 9.50013 4.91666V6.58333C9.50013 6.81345 9.68663 7 9.91669 7H14.4988C14.6093 7 14.7153 6.9561 14.7934 6.87796C14.8715 6.79982 14.9154 6.69384 14.9154 6.58333V4.91666C14.9154 3.30583 16.2209 2 17.8313 2C19.4417 2 20.7472 3.30583 20.7472 4.91666C20.7472 5.3769 20.3742 5.75 19.9141 5.75C19.454 5.75 19.081 5.3769 19.081 4.91666C19.081 4.22631 18.5215 3.66666 17.8313 3.66666C17.1411 3.66666 16.5816 4.22631 16.5816 4.91666V17.4167C16.5816 17.8769 16.2086 18.25 15.7485 18.25C15.2884 18.25 14.9154 17.8769 14.9154 17.4167V16.5833C14.9154 16.3532 14.7289 16.1667 14.4988 16.1667H9.91669C9.68663 16.1667 9.50013 16.3532 9.50013 16.5833V17.4167ZM9.91669 8.66666C9.68663 8.66666 9.50013 8.85321 9.50013 9.08333V10.3333C9.50013 10.5634 9.68663 10.75 9.91669 10.75H14.4988C14.7289 10.75 14.9154 10.5634 14.9154 10.3333V9.08333C14.9154 8.85321 14.7289 8.66666 14.4988 8.66666H9.91669ZM9.50013 12.8333V14.0833C9.50013 14.3134 9.68663 14.5 9.91669 14.5H14.4988C14.7289 14.5 14.9154 14.3134 14.9154 14.0833V12.8333C14.9154 12.6032 14.7289 12.4167 14.4988 12.4167H9.91669C9.68663 12.4167 9.50013 12.6032 9.50013 12.8333Z" />
<path d="M18.7661 19.0233C18.7719 19.0342 19.6967 20.4625 21.0538 20.2842C21.5072 20.226 21.924 20.5405 21.9927 20.9925C22.0534 21.4486 21.733 21.8675 21.2771 21.9283C20.2051 22.0586 19.1294 21.7158 18.3303 20.9892C18.1759 20.8605 17.9516 20.8605 17.7972 20.9892C17.0447 21.622 16.0926 21.9683 15.1095 21.9667C14.1714 21.9739 13.2653 21.6256 12.5735 20.9917C12.4251 20.8581 12.2028 20.8487 12.0436 20.9692C11.2347 21.6044 10.2394 21.9558 9.21104 21.9692C8.2049 21.9599 7.23553 21.5896 6.47924 20.9258C6.32802 20.7977 6.10746 20.7938 5.95188 20.9167C5.17558 21.5769 4.20071 21.9582 3.1826 22C3.02909 21.9999 2.87576 21.9899 2.72355 21.97C2.26734 21.9092 1.94675 21.4901 2.00748 21.0337C2.06822 20.5774 2.48728 20.2567 2.94349 20.3175C4.33153 20.4913 5.57912 18.9842 5.60901 18.948C5.78479 18.7471 6.04375 18.6378 6.31028 18.6526C6.57681 18.6674 6.82167 18.8041 6.97412 19.0233C7.47705 19.7783 8.3055 20.253 9.21104 20.305C10.2028 20.239 11.1198 19.7542 11.7329 18.9717C11.9168 18.7525 12.1966 18.6376 12.4814 18.6642C12.7662 18.6908 13.0199 18.8556 13.16 19.105C13.5454 19.8264 14.2887 20.2848 15.1062 20.305C16.0119 20.2828 16.8472 19.811 17.3339 19.0467C17.4924 18.8085 17.7579 18.6634 18.0439 18.6588C18.3299 18.6541 18.5999 18.7904 18.7661 19.0233Z" />
</svg>