<!--character:1234-->
  <svg width="20" height="20" viewBox="0 0 20 20" >
<path d="M17.1526 18.125L1.87484 2.84722C1.59706 2.56944 1.59706 2.15278 1.87484 1.875C2.15262 1.59722 2.56928 1.59722 2.84706 1.875L6.93809 5.96603C7.11294 5.64939 7.32333 5.35053 7.56928 5.06944L9.7915 2.84722C10.2082 2.43055 10.8332 2.43055 11.2498 2.84722L11.5971 3.19444C11.6665 3.26389 11.8054 3.26389 11.8748 3.19444L13.1943 1.875C13.4721 1.59722 13.8887 1.59722 14.1665 1.875C14.4443 2.15278 14.4443 2.56944 14.1665 2.84722L12.8471 4.16666C12.7776 4.23611 12.7776 4.375 12.8471 4.44444L14.5137 6.18055C14.5832 6.25 14.7221 6.25 14.7915 6.18055L16.1109 4.86111C16.3887 4.58333 16.8054 4.58333 17.0832 4.86111C17.3609 5.13889 17.3609 5.55555 17.0832 5.83333L15.7637 7.15278C15.6943 7.22222 15.6943 7.29166 15.7637 7.36111L16.1804 7.77778C16.5971 8.19444 16.5971 8.81944 16.1804 9.23611L13.9582 11.4583C13.7165 11.7345 13.4234 11.9592 13.1044 12.1324L18.1248 17.1528C18.4026 17.4306 18.4026 17.8472 18.1248 18.125C17.8471 18.4028 17.3609 18.4028 17.1526 18.125ZM10.933 9.96096C11.047 9.89799 11.1538 9.81824 11.2498 9.72222C11.8054 9.16666 11.8054 8.33333 11.2498 7.77778C10.6943 7.22222 9.86095 7.22222 9.30539 7.77778C9.20938 7.87379 9.12962 7.98064 9.06665 8.09459L10.933 9.96096Z" />
<path d="M7.49984 14.5139L5.27761 16.7361C4.99984 17.0139 4.58317 17.0139 4.30539 16.7361C4.02762 16.4583 4.02762 16.0417 4.30539 15.7639L6.73595 13.3333C6.80539 13.2639 6.94428 13.2639 7.01373 13.3333L7.08317 13.4028C7.22206 13.5417 7.43039 13.5417 7.56928 13.4028L8.81928 12.1528C8.88873 12.0833 8.95817 12.0833 9.02761 12.1528C9.2591 12.2917 9.49057 12.3688 9.72206 12.446C9.8378 12.4846 9.95354 12.5231 10.0693 12.5694L6.52761 8.88889C6.59706 9.23611 6.73595 9.58333 6.87484 9.93055V10.1389L5.62484 11.3889C5.48595 11.5278 5.48595 11.7361 5.62484 11.875L5.76373 12.0833C5.83317 12.1528 5.83317 12.2917 5.76373 12.3611L3.33317 14.7222C2.49984 15.5556 2.49984 16.875 3.33317 17.6389C4.1665 18.4028 5.48595 18.4028 6.24984 17.6389L8.47206 15.4167C8.61095 15.2778 8.81928 15.2778 8.95817 15.4167C9.09706 15.5556 9.09706 15.7639 8.95817 15.9028L7.77761 17.0833C7.49984 17.3611 7.49984 17.7778 7.77761 18.0556C8.05539 18.3333 8.47206 18.3333 8.74984 18.0556L9.93039 16.875C10.6248 16.1806 10.6248 15.0694 9.93039 14.4444C9.23595 13.8194 8.19428 13.8194 7.49984 14.5139Z" />
</svg>