<!--character:84:550:638-->
  <svg width="24" height="24" viewBox="0 0 24 24" >
<path d="M20.5833 21.75L2.25 3.41667C1.91667 3.08333 1.91667 2.58333 2.25 2.25C2.58333 1.91667 3.08333 1.91667 3.41667 2.25L8.32589 7.15923C8.5357 6.77926 8.78818 6.42063 9.08331 6.08333L11.75 3.41667C12.25 2.91667 13 2.91667 13.5 3.41667L13.9166 3.83333C14 3.91667 14.1666 3.91667 14.25 3.83333L15.8333 2.25C16.1666 1.91667 16.6666 1.91667 17 2.25C17.3333 2.58333 17.3333 3.08333 17 3.41667L15.4166 5C15.3333 5.08333 15.3333 5.25 15.4166 5.33333L17.4166 7.41667C17.5 7.5 17.6666 7.5 17.75 7.41667L19.3333 5.83333C19.6666 5.5 20.1666 5.5 20.5 5.83333C20.8333 6.16667 20.8333 6.66667 20.5 7L18.9166 8.58333C18.8333 8.66667 18.8333 8.75 18.9166 8.83333L19.4166 9.33333C19.9166 9.83333 19.9166 10.5833 19.4166 11.0833L16.75 13.75C16.46 14.0814 16.1083 14.351 15.7255 14.5588L21.75 20.5833C22.0833 20.9167 22.0833 21.4167 21.75 21.75C21.4167 22.0833 20.8333 22.0833 20.5833 21.75ZM13.1198 11.9532C13.2565 11.8776 13.3848 11.7819 13.5 11.6667C14.1666 11 14.1666 10 13.5 9.33333C12.8333 8.66667 11.8333 8.66667 11.1666 9.33333C11.0514 9.44855 10.9557 9.57677 10.8802 9.71349L13.1198 11.9532Z" />
<path d="M9 17.4167L6.33333 20.0834C6 20.4167 5.5 20.4167 5.16667 20.0834C4.83333 19.75 4.83333 19.25 5.16667 18.9167L8.08333 16C8.16667 15.9167 8.33333 15.9167 8.41667 16L8.5 16.0834C8.66667 16.25 8.91667 16.25 9.08333 16.0834L10.5833 14.5834C10.6667 14.5 10.75 14.5 10.8333 14.5834C11.1111 14.75 11.3889 14.8426 11.6667 14.9352C11.8055 14.9815 11.9445 15.0278 12.0833 15.0834L7.83333 10.6667C7.91667 11.0834 8.08333 11.5 8.25 11.9167V12.1667L6.75 13.6667C6.58333 13.8334 6.58333 14.0834 6.75 14.25L6.91667 14.5C7 14.5834 7 14.75 6.91667 14.8334L4 17.6667C3 18.6667 3 20.25 4 21.1667C5 22.0834 6.58333 22.0834 7.5 21.1667L10.1667 18.5C10.3333 18.3334 10.5833 18.3334 10.75 18.5C10.9167 18.6667 10.9167 18.9167 10.75 19.0834L9.33333 20.5C9 20.8334 9 21.3334 9.33333 21.6667C9.66667 22 10.1667 22 10.5 21.6667L11.9167 20.25C12.75 19.4167 12.75 18.0834 11.9167 17.3334C11.0833 16.5834 9.83333 16.5834 9 17.4167Z" />
</svg>