<!--character:$550:571-->
  <svg width="24" height="24" viewBox="0 0 24 24" >
<path d="M19.3245 5.78051C19.6501 5.45501 20.1779 5.45501 20.5035 5.78051C20.829 6.1061 20.829 6.63389 20.5035 6.95949L18.9143 8.54702C18.8751 8.58613 18.8531 8.63923 18.8531 8.69461C18.8531 8.74998 18.8751 8.80308 18.9143 8.84219L19.4146 9.34246C19.9028 9.83085 19.9028 10.6225 19.4146 11.1109L16.7598 13.7682C15.8517 14.6654 14.6227 15.1625 13.3463 15.149C12.487 15.1457 11.6404 14.9406 10.8749 14.5503C10.7947 14.5096 10.6975 14.5251 10.6339 14.5887L9.09309 16.127C8.93029 16.2898 8.66639 16.2898 8.50359 16.127L8.39353 16.017C8.3122 15.9374 8.18221 15.9374 8.10087 16.017L5.14175 18.9019C4.82626 19.2284 4.82997 19.7472 5.15009 20.0692C5.48018 20.3836 5.99898 20.3836 6.32907 20.0692L8.98219 17.4161C9.79691 16.6077 11.1118 16.61 11.9237 17.4212C12.7355 18.2324 12.7389 19.5473 11.9313 20.3627L10.5272 21.7659C10.2 22.0819 9.68 22.0774 9.35838 21.7558C9.03676 21.4342 9.03224 20.9141 9.34823 20.587L10.7498 19.1845C10.8551 19.0791 10.8962 18.9255 10.8575 18.7815C10.8188 18.6376 10.7063 18.5253 10.5623 18.4868C10.4184 18.4483 10.2648 18.4896 10.1595 18.595L7.50888 21.2457C6.51878 22.1895 4.96204 22.1895 3.97194 21.2457C2.99601 20.269 2.99601 18.6862 3.97194 17.7096L6.92523 14.8355C6.96469 14.7963 6.98689 14.7431 6.98689 14.6875C6.98689 14.6319 6.96469 14.5786 6.92523 14.5395L6.74096 14.3544C6.57821 14.1916 6.57821 13.9277 6.74096 13.7649L8.27764 12.224C8.34077 12.1603 8.3562 12.0633 8.31599 11.9831C7.96128 11.2866 7.75918 10.5226 7.72317 9.74185C7.64281 8.3879 8.14212 7.06367 9.09642 6.09985L11.7487 3.44756C12.2371 2.95931 13.0288 2.95931 13.5172 3.44756L13.9032 3.83277C13.9422 3.87193 13.9951 3.89394 14.0504 3.89394C14.1056 3.89394 14.1586 3.87193 14.1976 3.83277L15.7868 2.24357C16.1135 1.918 16.6423 1.91893 16.9678 2.24565C17.2934 2.57237 17.2925 3.10115 16.9657 3.42671L15.3765 5.01092C15.2958 5.09274 15.2958 5.22426 15.3765 5.30608L17.4402 7.36971C17.4793 7.40892 17.5324 7.43095 17.5877 7.43095C17.6431 7.43095 17.6962 7.40892 17.7353 7.36971L19.3245 5.78051ZM13.5172 11.7004C14.1681 11.0492 14.1681 9.99364 13.5172 9.34245C13.0403 8.86542 12.323 8.72266 11.6998 8.98074C11.0766 9.23882 10.6702 9.84691 10.6702 10.5214C10.6702 11.1959 11.0766 11.804 11.6998 12.0621C12.323 12.3202 13.0403 12.1774 13.5172 11.7004Z" />
</svg>