<!-- character:0:2305 -->
  <svg width="20" height="20" viewBox="0 0 20 20" >
<path   d="M16.1037 4.81705C16.3751 4.5458 16.8149 4.5458 17.0862 4.81705C17.3575 5.08838 17.3575 5.5282 17.0862 5.79953L15.7619 7.12248C15.7292 7.15507 15.7108 7.19932 15.7108 7.24546C15.7108 7.29161 15.7292 7.33586 15.7619 7.36845L16.1788 7.78534C16.5856 8.19234 16.5856 8.85208 16.1788 9.25907L13.9665 11.4735C13.2097 12.2211 12.1856 12.6354 11.1218 12.6241C10.4058 12.6214 9.70033 12.4505 9.06237 12.1252C8.99558 12.0913 8.91452 12.1042 8.86157 12.1572L7.57753 13.4391C7.44187 13.5748 7.22195 13.5748 7.08629 13.4391L6.99457 13.3474C6.92679 13.2811 6.81847 13.2811 6.75069 13.3474L4.28475 15.7515C4.02184 16.0236 4.02493 16.456 4.2917 16.7243C4.56677 16.9863 4.99911 16.9863 5.27418 16.7243L7.48512 14.5133C8.16405 13.8397 9.25977 13.8417 9.93633 14.5176C10.6129 15.1936 10.6157 16.2894 9.94272 16.9689L8.77263 18.1382C8.5 18.4016 8.06663 18.3978 7.79861 18.1298C7.53059 17.8618 7.52683 17.4284 7.79015 17.1558L8.95815 15.9871C9.0459 15.8992 9.08011 15.7712 9.04788 15.6512C9.01565 15.5313 8.92189 15.4377 8.80191 15.4056C8.68193 15.3736 8.55396 15.4079 8.46621 15.4958L6.25736 17.7047C5.43228 18.4912 4.13499 18.4912 3.30991 17.7047C2.49663 16.8908 2.49663 15.5718 3.30991 14.7579L5.77098 12.3629C5.80387 12.3302 5.82237 12.2858 5.82237 12.2395C5.82237 12.1932 5.80387 12.1488 5.77098 12.1162L5.61743 11.9619C5.4818 11.8263 5.4818 11.6064 5.61743 11.4707L6.89799 10.1867C6.9506 10.1335 6.96346 10.0527 6.92995 9.98586C6.63436 9.4055 6.46594 8.76877 6.43593 8.11817C6.36896 6.98987 6.78506 5.88635 7.58031 5.08317L9.79055 2.87293C10.1975 2.46605 10.8573 2.46605 11.2643 2.87293L11.586 3.19394C11.6185 3.22656 11.6626 3.24491 11.7086 3.24491C11.7546 3.24491 11.7988 3.22656 11.8313 3.19394L13.1556 1.8696C13.4279 1.59829 13.8685 1.59907 14.1398 1.87133C14.4111 2.1436 14.4103 2.58425 14.1381 2.85556L12.8137 4.17572C12.7465 4.24391 12.7465 4.35351 12.8137 4.42169L14.5334 6.14139C14.566 6.17406 14.6103 6.19242 14.6564 6.19242C14.7026 6.19242 14.7468 6.17406 14.7794 6.14139L16.1037 4.81705ZM11.2643 9.75031C11.8068 9.20765 11.8068 8.328 11.2643 7.78534C10.8669 7.38782 10.2691 7.26885 9.7498 7.48392C9.23047 7.69898 8.89184 8.20573 8.89184 8.76783C8.89184 9.32993 9.23047 9.83667 9.7498 10.0517C10.2691 10.2668 10.8669 10.1478 11.2643 9.75031Z" />
</svg>