<!--character:8486-->
  <svg width="24" height="24" viewBox="0 0 24 24" >
<path d="M20.5831 21.75L2.2498 3.41666C1.91647 3.08333 1.91647 2.58333 2.2498 2.25C2.58314 1.91666 3.08314 1.91666 3.41647 2.25L8.32571 7.15924C8.53552 6.77927 8.788 6.42063 9.08314 6.08333L11.7498 3.41666C12.2498 2.91666 12.9998 2.91666 13.4998 3.41666L13.9165 3.83333C13.9998 3.91666 14.1665 3.91666 14.2498 3.83333L15.8331 2.25C16.1665 1.91666 16.6665 1.91666 16.9998 2.25C17.3331 2.58333 17.3331 3.08333 16.9998 3.41666L15.4165 5C15.3331 5.08333 15.3331 5.25 15.4165 5.33333L17.4165 7.41666C17.4998 7.5 17.6665 7.5 17.7498 7.41666L19.3331 5.83333C19.6665 5.5 20.1665 5.5 20.4998 5.83333C20.8331 6.16666 20.8331 6.66666 20.4998 7L18.9165 8.58333C18.8331 8.66666 18.8331 8.75 18.9165 8.83333L19.4165 9.33333C19.9165 9.83333 19.9165 10.5833 19.4165 11.0833L16.7498 13.75C16.4598 14.0814 16.1081 14.351 15.7253 14.5588L21.7498 20.5833C22.0831 20.9167 22.0831 21.4167 21.7498 21.75C21.4165 22.0833 20.8331 22.0833 20.5831 21.75ZM13.1196 11.9532C13.2564 11.8776 13.3846 11.7819 13.4998 11.6667C14.1665 11 14.1665 10 13.4998 9.33333C12.8331 8.66666 11.8331 8.66666 11.1665 9.33333C11.0513 9.44855 10.9555 9.57677 10.88 9.7135L13.1196 11.9532Z" />
<path d="M8.9998 17.4167L6.33314 20.0833C5.9998 20.4167 5.4998 20.4167 5.16647 20.0833C4.83314 19.75 4.83314 19.25 5.16647 18.9167L8.08314 16C8.16647 15.9167 8.33314 15.9167 8.41647 16L8.4998 16.0833C8.66647 16.25 8.91647 16.25 9.08314 16.0833L10.5831 14.5833C10.6665 14.5 10.7498 14.5 10.8331 14.5833C11.1109 14.75 11.3887 14.8426 11.6665 14.9352C11.8054 14.9815 11.9442 15.0278 12.0831 15.0833L7.83314 10.6667C7.91647 11.0833 8.08314 11.5 8.2498 11.9167V12.1667L6.7498 13.6667C6.58314 13.8333 6.58314 14.0833 6.7498 14.25L6.91647 14.5C6.9998 14.5833 6.9998 14.75 6.91647 14.8333L3.9998 17.6667C2.9998 18.6667 2.9998 20.25 3.9998 21.1667C4.9998 22.0833 6.58314 22.0833 7.4998 21.1667L10.1665 18.5C10.3331 18.3333 10.5831 18.3333 10.7498 18.5C10.9165 18.6667 10.9165 18.9167 10.7498 19.0833L9.33314 20.5C8.9998 20.8333 8.9998 21.3333 9.33314 21.6667C9.66647 22 10.1665 22 10.4998 21.6667L11.9165 20.25C12.7498 19.4167 12.7498 18.0833 11.9165 17.3333C11.0831 16.5833 9.83314 16.5833 8.9998 17.4167Z" />
</svg>