<!--character:3024:2827-->
<svg width="24" height="24" viewBox="0 0 24 24">
  <path d="M19.3248 5.7805C19.6504 5.45501 20.1782 5.45501 20.5038 5.7805C20.8293 6.1061 20.8293 6.63389 20.5038 6.95948L18.9146 8.54702C18.8753 8.58613 18.8533 8.63923 18.8533 8.6946C18.8533 8.74998 18.8753 8.80308 18.9146 8.84218L19.4148 9.34246C19.9031 9.83085 19.9031 10.6225 19.4148 11.1109L16.76 13.7682C15.8519 14.6654 14.623 15.1625 13.3465 15.149C12.4872 15.1457 11.6407 14.9406 10.8751 14.5503C10.795 14.5096 10.6977 14.5251 10.6342 14.5887L9.09333 16.127C8.93053 16.2898 8.66664 16.2898 8.50384 16.127L8.39378 16.017C8.31244 15.9374 8.18245 15.9374 8.10112 16.017L5.14199 18.9019C4.82651 19.2284 4.83021 19.7472 5.15033 20.0692C5.48042 20.3836 5.99922 20.3836 6.32931 20.0692L8.98244 17.4161C9.79715 16.6077 11.112 16.61 11.9239 17.4212C12.7358 18.2324 12.7392 19.5473 11.9316 20.3627L10.5274 21.7659C10.2003 22.0819 9.68025 22.0774 9.35863 21.7558C9.037 21.4342 9.03249 20.9141 9.34847 20.587L10.7501 19.1845C10.8554 19.0791 10.8964 18.9255 10.8577 18.7815C10.8191 18.6376 10.7066 18.5253 10.5626 18.4868C10.4186 18.4483 10.265 18.4896 10.1597 18.595L7.50913 21.2457C6.51903 22.1895 4.96228 22.1895 3.97219 21.2457C2.99625 20.269 2.99625 18.6862 3.97219 17.7096L6.92547 14.8355C6.96493 14.7963 6.98713 14.7431 6.98713 14.6875C6.98713 14.6319 6.96493 14.5786 6.92547 14.5395L6.74121 14.3544C6.57846 14.1916 6.57846 13.9277 6.74121 13.7649L8.27788 12.224C8.34101 12.1602 8.35644 12.0633 8.31624 11.9831C7.96153 11.2866 7.75942 10.5226 7.72341 9.74184C7.64305 8.38789 8.14236 7.06367 9.09666 6.09985L11.749 3.44756C12.2373 2.95931 13.029 2.95931 13.5174 3.44756L13.9035 3.83277C13.9424 3.87192 13.9954 3.89394 14.0506 3.89394C14.1059 3.89394 14.1588 3.87192 14.1978 3.83277L15.787 2.24356C16.1137 1.918 16.6425 1.91893 16.9681 2.24565C17.2936 2.57236 17.2927 3.10115 16.966 3.42671L15.3768 5.01091C15.296 5.09274 15.296 5.22425 15.3768 5.30608L17.4404 7.36971C17.4795 7.40891 17.5326 7.43095 17.588 7.43095C17.6434 7.43095 17.6965 7.40891 17.7356 7.36971L19.3248 5.7805ZM13.5174 11.7004C14.1684 11.0492 14.1684 9.99365 13.5174 9.34246C13.0405 8.86543 12.3232 8.72266 11.7 8.98075C11.0769 9.23883 10.6705 9.84692 10.6705 10.5214C10.6705 11.196 11.0769 11.8041 11.7 12.0621C12.3232 12.3202 13.0405 12.1774 13.5174 11.7004Z" />
</svg>
