<!--category:services-->
<!--character:0033-->
<!--added:0.11-->
<svg width="24" height="24" viewBox="0 0 24 24" xmlns="http://www.w3.org/2000/svg"><path d="M8.326 7.1592c.2097-.38.4622-.7386.7573-1.0759L11.75 3.4167c.5-.5 1.25-.5 1.75 0l.4167.4166c.0833.0834.25.0834.3333 0L15.8333 2.25c.3334-.3333.8334-.3333 1.1667 0 .3333.3333.3333.8333 0 1.1667L15.4167 5c-.0834.0833-.0834.25 0 .3333l2 2.0834c.0833.0833.25.0833.3333 0l1.5833-1.5834c.3334-.3333.8334-.3333 1.1667 0 .3333.3334.3333.8334 0 1.1667l-1.5833 1.5833c-.0834.0834-.0834.1667 0 .25l.5.5c.5.5.5 1.25 0 1.75L16.75 13.75c-.29.3314-.6417.601-1.0245.8088l6.0245 6.0245c.3333.3334.3333.8334 0 1.1667-.3333.3333-.9167.3333-1.1667 0L2.25 3.4167c-.3333-.3334-.3333-.8334 0-1.1667.3333-.3333.8333-.3333 1.1667 0l4.9092 4.9092zm2.5542 2.5543l2.2396 2.2397a1.7012 1.7012 0 0 0 .3802-.2865c.6667-.6667.6667-1.6667 0-2.3334-.6667-.6666-1.6667-.6666-2.3333 0a1.7012 1.7012 0 0 0-.2865.3802zM9 17.4167c.8333-.8334 2.0833-.8334 2.9167-.0834.8333.75.8333 2.0834 0 2.9167L10.5 21.6667c-.3333.3333-.8333.3333-1.1667 0C9 21.3333 9 20.8333 9.3333 20.5l1.4167-1.4167c.1667-.1666.1667-.4166 0-.5833-.1667-.1667-.4167-.1667-.5833 0L7.5 21.1667c-.9167.9166-2.5.9166-3.5 0-1-.9167-1-2.5 0-3.5l2.9167-2.8334c.0833-.0833.0833-.25 0-.3333l-.1667-.25c-.1667-.1667-.1667-.4167 0-.5833l1.5-1.5v-.25c-.1667-.4167-.3333-.8334-.4167-1.25l4.25 4.4166c-.4166-.1666-.8333-.25-1.25-.5-.0833-.0833-.1666-.0833-.25 0l-1.5 1.5c-.1666.1667-.4166.1667-.5833 0L8.4167 16c-.0834-.0833-.25-.0833-.3334 0l-2.9166 2.9167c-.3334.3333-.3334.8333 0 1.1666.3333.3334.8333.3334 1.1666 0L9 17.4167z"/></svg>