<!--character:8785-->
  <svg width="24" height="24" viewBox="0 0 24 24" >
<path d="M20.5834 21.75L2.25002 3.41667C1.91669 3.08334 1.91669 2.58334 2.25002 2.25001C2.58336 1.91667 3.08336 1.91667 3.41669 2.25001L8.32593 7.15925C8.53574 6.77928 8.78822 6.42064 9.08336 6.08334L11.75 3.41667C12.25 2.91667 13 2.91667 13.5 3.41667L13.9167 3.83334C14 3.91667 14.1667 3.91667 14.25 3.83334L15.8334 2.25001C16.1667 1.91667 16.6667 1.91667 17 2.25001C17.3334 2.58334 17.3334 3.08334 17 3.41667L15.4167 5.00001C15.3334 5.08334 15.3334 5.25001 15.4167 5.33334L17.4167 7.41667C17.5 7.50001 17.6667 7.50001 17.75 7.41667L19.3334 5.83334C19.6667 5.50001 20.1667 5.50001 20.5 5.83334C20.8334 6.16667 20.8334 6.66667 20.5 7.00001L18.9167 8.58334C18.8334 8.66667 18.8334 8.75001 18.9167 8.83334L19.4167 9.33334C19.9167 9.83334 19.9167 10.5833 19.4167 11.0833L16.75 13.75C16.4601 14.0814 16.1083 14.351 15.7255 14.5588L21.75 20.5833C22.0834 20.9167 22.0834 21.4167 21.75 21.75C21.4167 22.0833 20.8334 22.0833 20.5834 21.75ZM13.1199 11.9532C13.2566 11.8776 13.3848 11.7819 13.5 11.6667C14.1667 11 14.1667 10 13.5 9.33334C12.8334 8.66667 11.8334 8.66667 11.1667 9.33334C11.0515 9.44856 10.9558 9.57678 10.8802 9.71351L13.1199 11.9532Z" />
<path d="M9.00002 17.4167L6.33336 20.0833C6.00002 20.4167 5.50002 20.4167 5.16669 20.0833C4.83336 19.75 4.83336 19.25 5.16669 18.9167L8.08336 16C8.16669 15.9167 8.33336 15.9167 8.41669 16L8.50002 16.0833C8.66669 16.25 8.91669 16.25 9.08336 16.0833L10.5834 14.5833C10.6667 14.5 10.75 14.5 10.8334 14.5833C11.1111 14.75 11.3889 14.8426 11.6667 14.9352C11.8056 14.9815 11.9445 15.0278 12.0834 15.0833L7.83336 10.6667C7.91669 11.0833 8.08336 11.5 8.25002 11.9167V12.1667L6.75002 13.6667C6.58336 13.8333 6.58336 14.0833 6.75002 14.25L6.91669 14.5C7.00002 14.5833 7.00002 14.75 6.91669 14.8333L4.00002 17.6667C3.00002 18.6667 3.00002 20.25 4.00002 21.1667C5.00002 22.0833 6.58336 22.0833 7.50002 21.1667L10.1667 18.5C10.3334 18.3333 10.5834 18.3333 10.75 18.5C10.9167 18.6667 10.9167 18.9167 10.75 19.0833L9.33336 20.5C9.00002 20.8333 9.00002 21.3333 9.33336 21.6667C9.66669 22 10.1667 22 10.5 21.6667L11.9167 20.25C12.75 19.4167 12.75 18.0833 11.9167 17.3333C11.0834 16.5833 9.83336 16.5833 9.00002 17.4167Z" />
</svg>