<!-- character:0:2313 -->
  <svg width="20" height="20" viewBox="0 0 20 20" >
<path   d="M17.1527 18.125L1.87496 2.84718C1.59718 2.5694 1.59718 2.15274 1.87496 1.87496C2.15274 1.59718 2.5694 1.59718 2.84718 1.87496L6.93822 5.96599C7.11306 5.64935 7.32345 5.35049 7.5694 5.0694L9.79163 2.84718C10.2083 2.43051 10.8333 2.43051 11.25 2.84718L11.5972 3.1944C11.6666 3.26385 11.8055 3.26385 11.875 3.1944L13.1944 1.87496C13.4722 1.59718 13.8888 1.59718 14.1666 1.87496C14.4444 2.15274 14.4444 2.5694 14.1666 2.84718L12.8472 4.16663C12.7777 4.23607 12.7777 4.37496 12.8472 4.4444L14.5138 6.18051C14.5833 6.24996 14.7222 6.24996 14.7916 6.18051L16.1111 4.86107C16.3888 4.58329 16.8055 4.58329 17.0833 4.86107C17.3611 5.13885 17.3611 5.55551 17.0833 5.83329L15.7638 7.15274C15.6944 7.22218 15.6944 7.29163 15.7638 7.36107L16.1805 7.77774C16.5972 8.1944 16.5972 8.8194 16.1805 9.23607L13.9583 11.4583C13.7167 11.7344 13.4235 11.9591 13.1045 12.1323L18.125 17.1527C18.4027 17.4305 18.4027 17.8472 18.125 18.125C17.8472 18.4027 17.3611 18.4027 17.1527 18.125ZM10.9331 9.96093C11.0471 9.89796 11.1539 9.8182 11.25 9.72218C11.8055 9.16663 11.8055 8.33329 11.25 7.77774C10.6944 7.22218 9.86107 7.22218 9.30552 7.77774C9.2095 7.87375 9.12974 7.9806 9.06677 8.09455L10.9331 9.96093ZM7.49996 14.5138L5.27774 16.7361C4.99996 17.0138 4.58329 17.0138 4.30551 16.7361C4.02774 16.4583 4.02774 16.0416 4.30551 15.7638L6.73607 13.3333C6.80551 13.2638 6.9444 13.2638 7.01385 13.3333L7.08329 13.4027C7.22218 13.5416 7.43051 13.5416 7.5694 13.4027L8.8194 12.1527C8.88885 12.0833 8.95829 12.0833 9.02774 12.1527C9.25922 12.2916 9.4907 12.3688 9.72218 12.4459C9.83792 12.4845 9.95366 12.5231 10.0694 12.5694L6.52774 8.88885C6.59718 9.23607 6.73607 9.58329 6.87496 9.93052V10.1388L5.62496 11.3888C5.48607 11.5277 5.48607 11.7361 5.62496 11.875L5.76385 12.0833C5.83329 12.1527 5.83329 12.2916 5.76385 12.3611L3.33329 14.7222C2.49996 15.5555 2.49996 16.875 3.33329 17.6388C4.16663 18.4027 5.48607 18.4027 6.24996 17.6388L8.47218 15.4166C8.61107 15.2777 8.8194 15.2777 8.95829 15.4166C9.09718 15.5555 9.09718 15.7638 8.95829 15.9027L7.77774 17.0833C7.49996 17.3611 7.49996 17.7777 7.77774 18.0555C8.05551 18.3333 8.47218 18.3333 8.74996 18.0555L9.93051 16.875C10.625 16.1805 10.625 15.0694 9.93051 14.4444C9.23607 13.8194 8.1944 13.8194 7.49996 14.5138Z" />
</svg>