<!--character:9284-->
  <svg width="20" height="20" viewBox="0 0 20 20" >
<path d="M16.104 4.81709C16.3753 4.54584 16.8151 4.54584 17.0865 4.81709C17.3577 5.08842 17.3577 5.52824 17.0865 5.79957L15.7621 7.12252C15.7295 7.15511 15.7111 7.19936 15.7111 7.2455C15.7111 7.29165 15.7295 7.3359 15.7621 7.36849L16.179 7.78538C16.5859 8.19238 16.5859 8.85211 16.179 9.25911L13.9667 11.4735C13.2099 12.2211 12.1858 12.6354 11.1221 12.6241C10.406 12.6214 9.70057 12.4505 9.06262 12.1253C8.99582 12.0913 8.91476 12.1042 8.86181 12.1572L7.57777 13.4392C7.44211 13.5748 7.2222 13.5748 7.08653 13.4392L6.99482 13.3475C6.92703 13.2812 6.81871 13.2812 6.75093 13.3475L4.285 15.7516C4.02209 16.0236 4.02518 16.456 4.29194 16.7243C4.56702 16.9864 4.99935 16.9864 5.27443 16.7243L7.48536 14.5134C8.16429 13.8398 9.26002 13.8417 9.93658 14.5177C10.6131 15.1937 10.616 16.2894 9.94296 16.9689L8.77287 18.1383C8.50024 18.4016 8.06687 18.3978 7.79885 18.1298C7.53084 17.8618 7.52707 17.4284 7.79039 17.1558L8.95839 15.9871C9.04614 15.8992 9.08035 15.7712 9.04812 15.6513C9.0159 15.5313 8.92213 15.4377 8.80215 15.4057C8.68218 15.3736 8.55421 15.408 8.46646 15.4959L6.25761 17.7047C5.43252 18.4912 4.13524 18.4912 3.31015 17.7047C2.49688 16.8908 2.49688 15.5719 3.31015 14.758L5.77123 12.3629C5.80411 12.3303 5.82261 12.2859 5.82261 12.2396C5.82261 12.1932 5.80411 12.1488 5.77123 12.1162L5.61767 11.962C5.48205 11.8263 5.48205 11.6064 5.61767 11.4707L6.89823 10.1867C6.95084 10.1335 6.9637 10.0528 6.9302 9.9859C6.63461 9.40554 6.46619 8.76881 6.43618 8.1182C6.36921 6.98991 6.7853 5.88639 7.58055 5.0832L9.79079 2.87296C10.1978 2.46609 10.8575 2.46609 11.2645 2.87296L11.5862 3.19397C11.6187 3.2266 11.6628 3.24495 11.7089 3.24495C11.7549 3.24495 11.799 3.2266 11.8315 3.19397L13.1558 1.86964C13.4281 1.59833 13.8688 1.59911 14.1401 1.87137C14.4114 2.14364 14.4106 2.58429 14.1383 2.85559L12.814 4.17576C12.7467 4.24395 12.7467 4.35354 12.814 4.42173L14.5337 6.14142C14.5663 6.1741 14.6105 6.19246 14.6567 6.19246C14.7028 6.19246 14.7471 6.1741 14.7796 6.14142L16.104 4.81709ZM11.2645 9.75035C11.807 9.20769 11.807 8.32804 11.2645 7.78538C10.8671 7.38786 10.2694 7.26889 9.75004 7.48395C9.23071 7.69902 8.89209 8.20577 8.89209 8.76787C8.89209 9.32997 9.23071 9.83671 9.75004 10.0518C10.2694 10.2668 10.8671 10.1479 11.2645 9.75035Z" />
</svg>