<!--character:3027-->
  <svg width="24" height="24" viewBox="0 0 24 24" >
<path d="M19.1167 8.6713C19.0764 8.71122 19.0217 8.73316 18.965 8.73213C18.91 8.72981 18.858 8.70621 18.82 8.6663L16.2084 5.83296C15.485 5.05145 14.371 4.76587 13.3609 5.10296L10.2592 6.1363C10.0543 6.20383 9.82913 6.16168 9.66254 6.02463L5.37504 2.4513C4.93298 2.08311 4.27615 2.14299 3.90796 2.58505C3.53977 3.02711 3.59965 3.68394 4.04171 4.05213L8.32921 7.62713C9.04833 8.2298 10.0295 8.41422 10.9184 8.1138L14.02 7.08046C14.2522 7.00321 14.5081 7.06832 14.675 7.24713L17.3534 10.1513C17.4295 10.2333 17.4269 10.3608 17.3475 10.4396L16.4967 11.2905C16.3772 11.4096 16.3414 11.5891 16.4061 11.745C16.4707 11.9009 16.623 12.0024 16.7917 12.0021H20.125C20.3552 12.0021 20.5417 11.8156 20.5417 11.5855V8.25213C20.5417 8.08352 20.44 7.93154 20.2842 7.86713C20.2338 7.84601 20.1797 7.83524 20.125 7.83546C20.0145 7.83527 19.9083 7.87904 19.83 7.95713L19.1167 8.6713Z" />
<path d="M6.16666 8.87667C6.16666 8.64655 5.98011 8.46 5.74999 8.46H3.24999C3.01987 8.46 2.83333 8.64655 2.83333 8.87667V19.085C2.8331 19.1403 2.85498 19.1934 2.8941 19.2326C2.93322 19.2717 2.98634 19.2936 3.04166 19.2933H5.95833C6.01365 19.2936 6.06677 19.2717 6.10589 19.2326C6.145 19.1934 6.16688 19.1403 6.16666 19.085V8.87667Z" />
<path d="M16.1667 13.0433C16.1667 12.8132 15.9801 12.6267 15.75 12.6267H13.25C13.0199 12.6267 12.8333 12.8132 12.8333 13.0433V19.085C12.8331 19.1403 12.855 19.1934 12.8941 19.2326C12.9332 19.2717 12.9863 19.2936 13.0417 19.2933H15.9583C16.0136 19.2936 16.0668 19.2717 16.1059 19.2326C16.145 19.1934 16.1669 19.1403 16.1667 19.085V13.0433Z" />
<path d="M18.0417 19.2933H20.9583C21.0136 19.2936 21.0668 19.2717 21.1059 19.2326C21.145 19.1934 21.1669 19.1403 21.1667 19.085V17.21C21.1667 16.9799 20.9801 16.7933 20.75 16.7933H18.25C18.0199 16.7933 17.8333 16.9799 17.8333 17.21V19.085C17.8331 19.1403 17.855 19.1934 17.8941 19.2326C17.9332 19.2717 17.9863 19.2936 18.0417 19.2933Z" />
<path d="M10.75 14.2933C10.9801 14.2933 11.1667 14.4799 11.1667 14.71V19.085C11.1669 19.1403 11.145 19.1934 11.1059 19.2326C11.0668 19.2717 11.0136 19.2936 10.9583 19.2933H8.04166C7.98634 19.2936 7.93322 19.2717 7.8941 19.2326C7.85498 19.1934 7.8331 19.1403 7.83333 19.085V14.71C7.83333 14.4799 8.01988 14.2933 8.24999 14.2933H10.75Z" />
<path d="M21.1667 21.7933H2.83333C2.37309 21.7933 1.99999 21.4202 1.99999 20.96C1.99999 20.4998 2.37309 20.1267 2.83333 20.1267H21.1667C21.6269 20.1267 22 20.4998 22 20.96C22 21.4202 21.6269 21.7933 21.1667 21.7933Z" />
</svg>