<!--character:4206:218-->
  <svg width="24" height="24" viewBox="0 0 24 24" >
<path   d="M7.53026 4.52705C7.8583 4.15362 8.42696 4.11682 8.80039 4.44486L16.3747 11.0984C16.9187 11.5764 16.9187 12.4236 16.3747 12.9015L8.80039 19.5551C8.42696 19.8832 7.8583 19.8464 7.53026 19.4729C7.20222 19.0995 7.23901 18.5308 7.61245 18.2028L14.6736 12L7.61245 5.79719C7.23901 5.46914 7.20222 4.90048 7.53026 4.52705ZM12.2506 4.52705C12.5786 4.15362 13.1473 4.11682 13.5207 4.44486L21.095 11.0984C21.639 11.5764 21.639 12.4236 21.095 12.9015L13.5207 19.5551C13.1473 19.8832 12.5786 19.8464 12.2506 19.4729C11.9226 19.0995 11.9594 18.5308 12.3328 18.2028L19.3939 12L12.3328 5.79719C11.9594 5.46914 11.9226 4.90048 12.2506 4.52705ZM4.38604 7.10956V16.8904L9.95317 12L4.38604 7.10956ZM2.58604 5.78387C2.58604 4.75178 3.80259 4.20117 4.578 4.88232L11.6543 11.0984C12.1983 11.5764 12.1983 12.4236 11.6543 12.9015L4.578 19.1177C3.8026 19.7988 2.58604 19.2482 2.58604 18.2161V5.78387Z" />
</svg>