<!--character:2874-->
<svg width="24" height="24" viewBox="0 0 24 24">
  <path d="M13.73 5.65345C13.7302 5.52115 13.7719 5.39205 13.8495 5.28349C13.9272 5.17492 14.0371 5.09208 14.1646 5.04609C14.2912 4.99638 14.4306 4.98669 14.5632 5.01837C14.6957 5.05005 14.8147 5.12151 14.9032 5.22263L20.8222 11.5591C20.9361 11.6806 20.9996 11.839 21.0001 12.0035C21.0001 12.169 20.9347 12.3282 20.8175 12.4481L14.8992 18.7838C14.8084 18.8815 14.6893 18.9501 14.5577 18.9807C14.4261 19.0114 14.288 19.0026 14.1616 18.9555C14.0352 18.9085 13.9264 18.8253 13.8494 18.717C13.7723 18.6087 13.7307 18.4802 13.73 18.3485V17.4333C13.73 17.3521 13.7612 17.2737 13.8174 17.2137L18.0702 12.6605C18.2399 12.4805 18.3341 12.245 18.3341 12.0006C18.3341 11.7562 18.2399 11.5207 18.0702 11.3407L13.8174 6.7882C13.7612 6.72811 13.7301 6.64981 13.73 6.56858V5.65329V5.65345ZM16.4524 12.4481L10.5343 18.7839C10.4434 18.8815 10.3244 18.9502 10.1927 18.9808C10.0611 19.0115 9.92307 19.0027 9.79667 18.9556C9.67027 18.9086 9.56143 18.8254 9.48441 18.7171C9.40739 18.6088 9.36579 18.4803 9.36506 18.3486V17.4334C9.36506 17.3521 9.39626 17.2738 9.45234 17.2138L13.7039 12.6606C13.8736 12.4805 13.9678 12.245 13.9678 12.0007C13.9678 11.7563 13.8736 11.5208 13.7039 11.3407L9.45106 6.78827C9.3949 6.72819 9.36375 6.64989 9.3637 6.56866V5.65329C9.36395 5.52086 9.40585 5.39167 9.48377 5.2831C9.56168 5.17454 9.67188 5.0918 9.79954 5.04601C9.92613 4.99629 10.0656 4.98658 10.1982 5.01827C10.3307 5.04995 10.4497 5.12142 10.5383 5.22255L16.4571 11.559C16.5711 11.6805 16.6346 11.839 16.6351 12.0035C16.6351 12.169 16.5697 12.3282 16.4525 12.4481L16.4524 12.4481ZM12.0948 12.4416L6.16866 18.7859C6.07753 18.8835 5.95818 18.952 5.82629 18.9824C5.69441 19.0128 5.55617 19.0036 5.42974 18.9561C5.30331 18.9086 5.19461 18.8249 5.11792 18.7162C5.04124 18.6074 5.00017 18.4786 5.0001 18.3466V5.65594C5.00004 5.52389 5.04107 5.39492 5.11778 5.28601C5.19449 5.1771 5.30328 5.09336 5.42984 5.04581C5.55639 4.99827 5.69477 4.98915 5.82675 5.01966C5.95873 5.05016 6.07813 5.11886 6.16922 5.21671L12.0948 11.5623C12.2071 11.6826 12.2694 11.8393 12.2694 12.0019C12.2694 12.1645 12.2071 12.3212 12.0948 12.4415V12.4416Z" />
</svg>
