<!--category:travel-->
<!--character:E08D-->
<!--added:0.11-->
<svg width="24" height="24" viewBox="0 0 24 24" xmlns="http://www.w3.org/2000/svg"><path d="M13.73 5.653c0-.132.042-.26.12-.37a.664.664 0 01.315-.237.667.667 0 01.738.177l5.92 6.336a.636.636 0 01-.005.889l-5.919 6.336a.688.688 0 01-.738.172.668.668 0 01-.312-.239.642.642 0 01-.12-.368v-.916c0-.08.032-.16.088-.22l4.253-4.553a.962.962 0 00.264-.66.962.962 0 00-.264-.66l-4.253-4.552a.322.322 0 01-.087-.22v-.915zm2.722 6.795l-5.918 6.336a.688.688 0 01-1.05-.067.642.642 0 01-.119-.368v-.916c0-.08.031-.16.087-.22l4.252-4.552a.962.962 0 00.264-.66.962.962 0 00-.264-.66L9.45 6.788a.322.322 0 01-.087-.22v-.915c0-.132.042-.261.12-.37a.664.664 0 01.315-.237.667.667 0 01.74.177l5.918 6.336a.636.636 0 01-.005.89zm-4.357-.006l-5.926 6.344a.689.689 0 01-.739.17.669.669 0 01-.312-.24.642.642 0 01-.118-.37V5.657c0-.132.041-.261.118-.37a.669.669 0 01.312-.24.689.689 0 01.74.17l5.925 6.346a.644.644 0 010 .88z"/></svg>
