<!-- character:0:1685 -->
  <svg width="20" height="20" viewBox="0 0 20 20" >
<path d="M11.4416 4.71117C11.4417 4.60092 11.4765 4.49334 11.5412 4.40287C11.6059 4.3124 11.6975 4.24336 11.8037 4.20503C11.9092 4.16361 12.0254 4.15553 12.1359 4.18194C12.2463 4.20834 12.3455 4.26789 12.4193 4.35216L17.3517 9.63254C17.4467 9.73379 17.4995 9.86582 17.5 10.0029C17.5 10.1408 17.4455 10.2735 17.3478 10.3734L12.4159 15.6532C12.3402 15.7345 12.241 15.7917 12.1313 15.8173C12.0216 15.8428 11.9066 15.8355 11.8013 15.7962C11.6959 15.757 11.6052 15.6877 11.541 15.5975C11.4769 15.5072 11.4422 15.4002 11.4416 15.2904V14.5277C11.4416 14.46 11.4676 14.3947 11.5144 14.3447L15.0584 10.5504C15.1998 10.4003 15.2783 10.2041 15.2783 10.0004C15.2783 9.7968 15.1998 9.60055 15.0584 9.45051L11.5144 5.65679C11.4676 5.60672 11.4416 5.54147 11.4416 5.47378V4.71104V4.71117ZM13.7103 10.3734L8.77846 15.6532C8.70274 15.7346 8.60355 15.7918 8.49386 15.8173C8.38418 15.8428 8.26913 15.8355 8.1638 15.7963C8.05847 15.7571 7.96777 15.6878 7.90358 15.5975C7.8394 15.5073 7.80473 15.4002 7.80412 15.2904V14.5278C7.80412 14.4601 7.83012 14.3948 7.87686 14.3448L11.4198 10.5505C11.5612 10.4004 11.6397 10.2042 11.6397 10.0005C11.6397 9.79686 11.5612 9.60062 11.4198 9.45057L7.87579 5.65686C7.82899 5.60679 7.80303 5.54154 7.80299 5.47385V4.71104C7.8032 4.60067 7.83812 4.49302 7.90305 4.40255C7.96798 4.31208 8.05981 4.24313 8.16619 4.20497C8.27169 4.16353 8.3879 4.15545 8.49837 4.18185C8.60885 4.20825 8.708 4.26781 8.78179 4.35209L13.7142 9.63248C13.8092 9.73373 13.8621 9.86578 13.8625 10.0029C13.8625 10.1408 13.808 10.2735 13.7103 10.3734L13.7103 10.3734ZM10.0789 10.368L5.14046 15.6548C5.06451 15.7362 4.96505 15.7933 4.85515 15.8186C4.74525 15.844 4.63005 15.8363 4.52469 15.7967C4.41933 15.7571 4.32875 15.6874 4.26485 15.5968C4.20094 15.5061 4.16671 15.3988 4.16666 15.2888V4.71325C4.16661 4.6032 4.2008 4.49573 4.26473 4.40497C4.32865 4.31421 4.41931 4.24443 4.52477 4.20481C4.63023 4.16519 4.74555 4.15759 4.85553 4.18301C4.96552 4.20843 5.06502 4.26568 5.14092 4.34722L10.0789 9.63521C10.1725 9.73547 10.2244 9.86608 10.2244 10.0016C10.2244 10.137 10.1725 10.2676 10.0789 10.3679V10.368Z" />
</svg>