<!--character:$550:1236-->
  <svg width="24" height="24" viewBox="0 0 24 24" >
<path d="M13.5712 4.48513C13.5713 4.33629 13.6182 4.19106 13.7056 4.06892C13.793 3.94679 13.9167 3.8536 14.06 3.80185C14.2024 3.74593 14.3593 3.73503 14.5084 3.77067C14.6576 3.80631 14.7914 3.8867 14.891 4.00047L21.5498 11.129C21.678 11.2657 21.7494 11.4439 21.75 11.629C21.75 11.8152 21.6764 11.9942 21.5445 12.1291L14.8865 19.2568C14.7843 19.3667 14.6504 19.4439 14.5023 19.4783C14.3542 19.5128 14.1989 19.5029 14.0567 19.45C13.9145 19.397 13.7921 19.3035 13.7054 19.1816C13.6188 19.0598 13.572 18.9153 13.5712 18.7671V17.7375C13.5712 17.6461 13.6063 17.5579 13.6694 17.4904L18.4538 12.3681C18.6448 12.1655 18.7507 11.9006 18.7507 11.6257C18.7507 11.3507 18.6448 11.0858 18.4538 10.8832L13.6694 5.76172C13.6063 5.69413 13.5712 5.60604 13.5712 5.51466V4.48496V4.48513ZM16.6339 12.1292L9.97593 19.2569C9.87372 19.3667 9.7398 19.444 9.59173 19.4784C9.44366 19.5129 9.28834 19.503 9.14615 19.4501C9.00395 19.3971 8.8815 19.3036 8.79485 19.1817C8.7082 19.0599 8.6614 18.9154 8.66058 18.7672V17.7375C8.66058 17.6462 8.69568 17.558 8.75877 17.4905L13.5417 12.3682C13.7327 12.1656 13.8386 11.9007 13.8386 11.6257C13.8386 11.3508 13.7327 11.0859 13.5417 10.8833L8.75733 5.76181C8.69415 5.69422 8.65911 5.60613 8.65905 5.51475V4.48496C8.65933 4.33597 8.70647 4.19063 8.79413 4.06849C8.88179 3.94636 9.00575 3.85327 9.14937 3.80176C9.29179 3.74583 9.44867 3.73491 9.59782 3.77055C9.74696 3.8062 9.88081 3.8866 9.98043 4.00038L16.6392 11.1289C16.7674 11.2656 16.8388 11.4439 16.8394 11.629C16.8394 11.8152 16.7658 11.9942 16.634 12.1291L16.6339 12.1292ZM11.7316 12.1218L5.06463 19.2591C4.96211 19.369 4.82784 19.446 4.67947 19.4802C4.5311 19.5144 4.37558 19.5041 4.23334 19.4506C4.09111 19.3972 3.96882 19.3031 3.88256 19.1807C3.79629 19.0583 3.75008 18.9134 3.75 18.765V4.48794C3.74994 4.33938 3.79609 4.19429 3.88239 4.07176C3.96869 3.94924 4.09109 3.85503 4.23346 3.80154C4.37583 3.74806 4.53151 3.7378 4.67998 3.77212C4.82846 3.80644 4.96278 3.88372 5.06526 3.99381L11.7316 11.1326C11.8579 11.2679 11.9279 11.4443 11.9279 11.6272C11.9279 11.81 11.8579 11.9864 11.7316 12.1217V12.1218Z" />
</svg>