<!--character:4555-->
  <svg width="20" height="20" viewBox="0 0 20 20" >
<path d="M11.4417 4.71121C11.4418 4.60096 11.4766 4.49338 11.5413 4.4029C11.606 4.31243 11.6976 4.2434 11.8038 4.20507C11.9093 4.16365 12.0255 4.15557 12.136 4.18198C12.2464 4.20838 12.3456 4.26793 12.4193 4.35219L17.3518 9.63258C17.4468 9.73382 17.4996 9.86585 17.5001 10.003C17.5001 10.1409 17.4456 10.2735 17.3479 10.3734L12.416 15.6532C12.3403 15.7346 12.2411 15.7918 12.1314 15.8173C12.0217 15.8428 11.9067 15.8355 11.8014 15.7963C11.696 15.7571 11.6053 15.6878 11.5411 15.5975C11.477 15.5072 11.4423 15.4002 11.4417 15.2904V14.5277C11.4417 14.4601 11.4677 14.3948 11.5145 14.3447L15.0585 10.5504C15.1999 10.4004 15.2784 10.2041 15.2784 10.0005C15.2784 9.79683 15.1999 9.60059 15.0585 9.45055L11.5145 5.65683C11.4677 5.60676 11.4417 5.54151 11.4417 5.47382V4.71108V4.71121ZM13.7103 10.3735L8.77855 15.6533C8.70284 15.7346 8.60364 15.7918 8.49396 15.8174C8.38427 15.8429 8.26923 15.8356 8.16389 15.7963C8.05856 15.7571 7.96786 15.6878 7.90367 15.5976C7.83949 15.5073 7.80482 15.4003 7.80421 15.2905V14.5278C7.80421 14.4601 7.83021 14.3948 7.87695 14.3448L11.4199 10.5505C11.5613 10.4004 11.6398 10.2042 11.6398 10.0006C11.6398 9.7969 11.5613 9.60066 11.4199 9.45061L7.87588 5.65689C7.82908 5.60683 7.80313 5.54158 7.80308 5.47388V4.71108C7.80329 4.60071 7.83821 4.49306 7.90314 4.40259C7.96807 4.31211 8.0599 4.24316 8.16628 4.20501C8.27178 4.16357 8.38799 4.15548 8.49846 4.18189C8.60894 4.20829 8.70809 4.26785 8.78188 4.35213L13.7143 9.63252C13.8093 9.73377 13.8622 9.86582 13.8626 10.003C13.8626 10.1409 13.8081 10.2735 13.7104 10.3734L13.7103 10.3735ZM10.079 10.368L5.14055 15.6549C5.06461 15.7363 4.96515 15.7934 4.85524 15.8187C4.74534 15.844 4.63014 15.8364 4.52478 15.7968C4.41942 15.7572 4.32884 15.6875 4.26494 15.5968C4.20104 15.5062 4.16681 15.3988 4.16675 15.2889V4.71328C4.1667 4.60324 4.20089 4.49577 4.26482 4.40501C4.32874 4.31425 4.4194 4.24447 4.52487 4.20484C4.63033 4.16522 4.74564 4.15762 4.85563 4.18305C4.96561 4.20847 5.06511 4.26572 5.14101 4.34726L10.079 9.63524C10.1726 9.73551 10.2245 9.86612 10.2245 10.0016C10.2245 10.1371 10.1726 10.2677 10.079 10.3679V10.368Z" />
</svg>