<!-- character:0:1735 -->
  <svg width="20" height="20" viewBox="0 0 20 20" >
<path   d="M15.7569 4.61725C15.7234 4.58398 15.6778 4.56569 15.6306 4.56655C15.5847 4.56849 15.5414 4.58816 15.5097 4.62141L13.3333 6.98253C12.7305 7.63379 11.8022 7.87177 10.9604 7.59086L8.37569 6.72975C8.20496 6.67347 8.0173 6.70859 7.87847 6.8228L4.30555 9.80058C3.93717 10.1074 3.38981 10.0575 3.08299 9.68912C2.77616 9.32074 2.82606 8.77338 3.19444 8.46655L6.76736 5.48739C7.36663 4.98516 8.18428 4.83148 8.925 5.08183L11.5097 5.94294C11.7032 6.00732 11.9164 5.95306 12.0556 5.80405L14.2875 3.38391C14.3509 3.3156 14.3487 3.20933 14.2826 3.14364L13.5736 2.43461C13.474 2.33529 13.4442 2.18573 13.4981 2.05582C13.5519 1.9259 13.6788 1.8413 13.8194 1.84155H16.5972C16.789 1.84155 16.9444 1.99701 16.9444 2.18878V4.96655C16.9444 5.10706 16.8597 5.23371 16.7299 5.28739C16.6879 5.30499 16.6428 5.31396 16.5972 5.31378C16.5051 5.31394 16.4166 5.27747 16.3514 5.21239L15.7569 4.61725ZM14.8611 7.39711C14.8611 7.20534 15.0166 7.04989 15.2083 7.04989H17.2917C17.4834 7.04989 17.6389 7.20534 17.6389 7.39711V15.9041C17.6391 15.9502 17.6208 15.9944 17.5882 16.027C17.5556 16.0596 17.5114 16.0779 17.4653 16.0777H15.0347C14.9886 16.0779 14.9444 16.0596 14.9118 16.027C14.8792 15.9944 14.8609 15.9502 14.8611 15.9041V7.39711ZM6.52778 10.8693C6.52778 10.6776 6.68323 10.5221 6.875 10.5221H8.95833C9.1501 10.5221 9.30555 10.6776 9.30555 10.8693V15.9041C9.30574 15.9502 9.28751 15.9944 9.25491 16.027C9.22231 16.0596 9.17805 16.0779 9.13194 16.0777H6.70139C6.65529 16.0779 6.61102 16.0596 6.57842 16.027C6.54582 15.9944 6.52759 15.9502 6.52778 15.9041V10.8693ZM4.96528 16.0777H2.53472C2.48862 16.0779 2.44435 16.0596 2.41176 16.027C2.37916 15.9944 2.36092 15.9502 2.36111 15.9041V14.3416C2.36111 14.1498 2.51657 13.9943 2.70833 13.9943H4.79167C4.98343 13.9943 5.13889 14.1498 5.13889 14.3416V15.9041C5.13907 15.9502 5.12084 15.9944 5.08824 16.027C5.05565 16.0596 5.01138 16.0779 4.96528 16.0777ZM11.0417 11.911C10.8499 11.911 10.6944 12.0665 10.6944 12.2582V15.9041C10.6943 15.9502 10.7125 15.9944 10.7451 16.027C10.7777 16.0596 10.822 16.0779 10.8681 16.0777H13.2986C13.3447 16.0779 13.389 16.0596 13.4216 16.027C13.4542 15.9944 13.4724 15.9502 13.4722 15.9041V12.2582C13.4722 12.0665 13.3168 11.911 13.125 11.911H11.0417ZM2.36111 18.161H17.6389C18.0224 18.161 18.3333 17.8501 18.3333 17.4666C18.3333 17.083 18.0224 16.7721 17.6389 16.7721H2.36111C1.97758 16.7721 1.66667 17.083 1.66667 17.4666C1.66667 17.8501 1.97758 18.161 2.36111 18.161Z" />
</svg>