<!--character:$550:1137-->
  <svg width="24" height="24" viewBox="0 0 24 24" >
<path d="M18.9083 5.5408C18.8681 5.50087 18.8134 5.47893 18.7567 5.47996C18.7016 5.48228 18.6496 5.50589 18.6117 5.5458L16 8.37913C15.2766 9.16064 14.1627 9.44622 13.1525 9.10913L10.0508 8.0758C9.84594 8.00827 9.62075 8.05041 9.45416 8.18746L5.16666 11.7608C4.7246 12.129 4.06776 12.0691 3.69957 11.627C3.33138 11.185 3.39127 10.5282 3.83332 10.16L8.12082 6.58496C8.83994 5.98229 9.82112 5.79787 10.71 6.0983L13.8117 7.13163C14.0438 7.20888 14.2997 7.14377 14.4667 6.96496L17.145 4.0608C17.2211 3.97882 17.2185 3.8513 17.1392 3.77246L16.2883 2.92163C16.1688 2.80245 16.133 2.62297 16.1977 2.46708C16.2623 2.31118 16.4146 2.20966 16.5833 2.20996H19.9167C20.1468 2.20996 20.3333 2.39651 20.3333 2.62663V5.95996C20.3333 6.12858 20.2316 6.28055 20.0758 6.34496C20.0254 6.36608 19.9713 6.37685 19.9167 6.37663C19.8061 6.37683 19.6999 6.33306 19.6217 6.25496L18.9083 5.5408Z" />
<path d="M17.8333 8.87663C17.8333 8.64651 18.0199 8.45996 18.25 8.45996H20.75C20.9801 8.45996 21.1667 8.64651 21.1667 8.87663V19.085C21.1669 19.1403 21.145 19.1934 21.1059 19.2325C21.0668 19.2716 21.0137 19.2935 20.9583 19.2933H18.0417C17.9864 19.2935 17.9332 19.2716 17.8941 19.2325C17.855 19.1934 17.8331 19.1403 17.8333 19.085V8.87663Z" />
<path d="M7.83334 13.0433C7.83334 12.8132 8.01989 12.6266 8.25001 12.6266H10.75C10.9801 12.6266 11.1667 12.8132 11.1667 13.0433V19.085C11.1669 19.1403 11.145 19.1934 11.1059 19.2325C11.0668 19.2717 11.0137 19.2935 10.9583 19.2933H8.04168C7.98636 19.2935 7.93324 19.2717 7.89412 19.2325C7.855 19.1934 7.83312 19.1403 7.83334 19.085V13.0433Z" />
<path d="M5.95834 19.2933H3.04168C2.98636 19.2935 2.93324 19.2716 2.89412 19.2325C2.855 19.1934 2.83312 19.1403 2.83334 19.0849V17.2099C2.83334 16.9798 3.01989 16.7933 3.25001 16.7933H5.75001C5.98013 16.7933 6.16668 16.9798 6.16668 17.2099V19.0849C6.1669 19.1403 6.14502 19.1934 6.1059 19.2325C6.06679 19.2716 6.01367 19.2935 5.95834 19.2933Z" />
<path d="M13.25 14.2933C13.0199 14.2933 12.8333 14.4798 12.8333 14.7099V19.0849C12.8331 19.1403 12.855 19.1934 12.8941 19.2325C12.9332 19.2716 12.9864 19.2935 13.0417 19.2933H15.9583C16.0137 19.2935 16.0668 19.2716 16.1059 19.2325C16.145 19.1934 16.1669 19.1403 16.1667 19.0849V14.7099C16.1667 14.4798 15.9801 14.2933 15.75 14.2933H13.25Z" />
<path d="M2.83333 21.7933H21.1667C21.6269 21.7933 22 21.4202 22 20.96C22 20.4997 21.6269 20.1266 21.1667 20.1266H2.83333C2.3731 20.1266 2 20.4997 2 20.96C2 21.4202 2.3731 21.7933 2.83333 21.7933Z" />
</svg>