<!--character:1519-->
  <svg width="20" height="20" viewBox="0 0 20 20" >
<path d="M15.7569 4.61736C15.7234 4.58409 15.6778 4.56581 15.6306 4.56667C15.5847 4.5686 15.5414 4.58827 15.5097 4.62153L13.3333 6.98264C12.7305 7.6339 11.8022 7.87188 10.9604 7.59097L8.3757 6.72986C8.20496 6.67359 8.0173 6.70871 7.87847 6.82292L4.30556 9.8007C3.93718 10.1075 3.38981 10.0576 3.08299 9.68924C2.77616 9.32086 2.82606 8.77349 3.19445 8.46667L6.76736 5.4875C7.36663 4.98528 8.18428 4.83159 8.925 5.08195L11.5097 5.94306C11.7032 6.00743 11.9164 5.95318 12.0556 5.80417L14.2875 3.38403C14.3509 3.31571 14.3487 3.20945 14.2826 3.14375L13.5736 2.43472C13.474 2.33541 13.4442 2.18584 13.4981 2.05593C13.5519 1.92602 13.6788 1.84142 13.8194 1.84167H16.5972C16.789 1.84167 16.9444 1.99712 16.9444 2.18889V4.96667C16.9444 5.10718 16.8597 5.23383 16.7299 5.2875C16.6879 5.3051 16.6428 5.31408 16.5972 5.31389C16.5051 5.31405 16.4166 5.27758 16.3514 5.2125L15.7569 4.61736Z" />
<path d="M14.8611 7.39722C14.8611 7.20546 15.0166 7.05 15.2083 7.05H17.2917C17.4834 7.05 17.6389 7.20546 17.6389 7.39722V15.9042C17.6391 15.9503 17.6208 15.9945 17.5882 16.0271C17.5556 16.0597 17.5114 16.078 17.4653 16.0778H15.0347C14.9886 16.078 14.9444 16.0597 14.9118 16.0271C14.8792 15.9945 14.8609 15.9503 14.8611 15.9042V7.39722Z" />
<path d="M6.52778 10.8694C6.52778 10.6777 6.68324 10.5222 6.875 10.5222H8.95833C9.1501 10.5222 9.30556 10.6777 9.30556 10.8694V15.9042C9.30574 15.9503 9.28751 15.9945 9.25491 16.0271C9.22231 16.0597 9.17805 16.078 9.13195 16.0778H6.70139C6.65529 16.078 6.61102 16.0597 6.57842 16.0271C6.54583 15.9945 6.52759 15.9503 6.52778 15.9042V10.8694Z" />
<path d="M4.96528 16.0778H2.53472C2.48862 16.078 2.44436 16.0597 2.41176 16.0271C2.37916 15.9945 2.36093 15.9503 2.36111 15.9042V14.3417C2.36111 14.1499 2.51657 13.9944 2.70833 13.9944H4.79167C4.98343 13.9944 5.13889 14.1499 5.13889 14.3417V15.9042C5.13908 15.9503 5.12084 15.9945 5.08825 16.0271C5.05565 16.0597 5.01138 16.078 4.96528 16.0778Z" />
<path d="M11.0417 11.9111C10.8499 11.9111 10.6944 12.0666 10.6944 12.2583V15.9042C10.6943 15.9503 10.7125 15.9945 10.7451 16.0271C10.7777 16.0597 10.822 16.078 10.8681 16.0778H13.2986C13.3447 16.078 13.389 16.0597 13.4216 16.0271C13.4542 15.9945 13.4724 15.9503 13.4722 15.9042V12.2583C13.4722 12.0666 13.3168 11.9111 13.125 11.9111H11.0417Z" />
<path d="M2.36111 18.1611H17.6389C18.0224 18.1611 18.3333 17.8502 18.3333 17.4667C18.3333 17.0831 18.0224 16.7722 17.6389 16.7722H2.36111C1.97758 16.7722 1.66667 17.0831 1.66667 17.4667C1.66667 17.8502 1.97758 18.1611 2.36111 18.1611Z" />
</svg>