<!--character:E166-->
<!--added:0.27-->
<svg width="24" height="24" viewBox="0 0 24 24" xmlns="http://www.w3.org/2000/svg"><path d="M3.0417 19.2933a.2075.2075 0 0 1-.2084-.2083V17.21a.4167.4167 0 0 1 .4167-.4167h2.5a.4167.4167 0 0 1 .4167.4167v1.875a.2075.2075 0 0 1-.2084.2083H3.0417zM8.25 12.6267h2.5a.4167.4167 0 0 1 .4167.4166v6.0417a.2075.2075 0 0 1-.2084.2083H8.0417a.2075.2075 0 0 1-.2084-.2083v-6.0417a.4167.4167 0 0 1 .4167-.4166zm5 1.6666h2.5a.4167.4167 0 0 1 .4167.4167v4.375a.2075.2075 0 0 1-.2084.2083h-2.9166a.2075.2075 0 0 1-.2084-.2083V14.71a.4167.4167 0 0 1 .4167-.4167zm5-5.8333h2.5a.4167.4167 0 0 1 .4167.4167V19.085a.2075.2075 0 0 1-.2084.2083h-2.9166a.2075.2075 0 0 1-.2084-.2083V8.8767A.4167.4167 0 0 1 18.25 8.46zM2.8333 21.7933a.8333.8333 0 1 1 0-1.6666h18.3334a.8333.8333 0 0 1 0 1.6666H2.8333zM18.7567 5.48a.2125.2125 0 0 0-.145.0658L16 8.3792a2.7108 2.7108 0 0 1-2.8475.73l-3.1017-1.0334a.6292.6292 0 0 0-.5966.1117l-4.2875 3.5733c-.442.3682-1.099.3083-1.4671-.1337-.3682-.442-.3083-1.099.1337-1.4671l4.2875-3.575a2.69 2.69 0 0 1 2.5892-.4867l3.1017 1.0334a.6258.6258 0 0 0 .655-.1667l2.6783-2.9042a.2075.2075 0 0 0-.0058-.2883l-.8509-.8508a.4167.4167 0 0 1 .295-.7117h3.3334a.4167.4167 0 0 1 .4166.4167V5.96a.4166.4166 0 0 1-.4166.4167.4167.4167 0 0 1-.295-.1217l-.7134-.7142a.21.21 0 0 0-.1516-.0608z"/></svg>