<!--character:7636-->
  <svg width="24" height="24" viewBox="0 0 24 24" >
<path d="M18.9083 5.54083C18.8681 5.50091 18.8134 5.47897 18.7567 5.48C18.7016 5.48232 18.6496 5.50593 18.6117 5.54584L16 8.37917C15.2766 9.16068 14.1627 9.44626 13.1525 9.10917L10.0508 8.07584C9.84595 8.00831 9.62076 8.05045 9.45417 8.1875L5.16667 11.7608C4.72461 12.129 4.06777 12.0691 3.69959 11.6271C3.3314 11.185 3.39128 10.5282 3.83334 10.16L8.12083 6.585C8.83995 5.98233 9.82113 5.79791 10.71 6.09834L13.8117 7.13167C14.0438 7.20892 14.2997 7.14381 14.4667 6.965L17.145 4.06084C17.2211 3.97886 17.2185 3.85134 17.1392 3.7725L16.2883 2.92167C16.1689 2.80249 16.1331 2.62301 16.1977 2.46712C16.2623 2.31122 16.4146 2.2097 16.5833 2.21H19.9167C20.1468 2.21 20.3333 2.39655 20.3333 2.62667V5.96C20.3333 6.12862 20.2317 6.28059 20.0758 6.345C20.0254 6.36612 19.9713 6.37689 19.9167 6.37667C19.8061 6.37687 19.7 6.3331 19.6217 6.255L18.9083 5.54083Z" />
<path d="M17.8333 8.87667C17.8333 8.64655 18.0199 8.46 18.25 8.46H20.75C20.9801 8.46 21.1667 8.64655 21.1667 8.87667V19.085C21.1669 19.1403 21.145 19.1934 21.1059 19.2326C21.0668 19.2717 21.0137 19.2936 20.9583 19.2933H18.0417C17.9863 19.2936 17.9332 19.2717 17.8941 19.2326C17.855 19.1934 17.8331 19.1403 17.8333 19.085V8.87667Z" />
<path d="M7.83333 13.0433C7.83333 12.8132 8.01988 12.6267 8.25 12.6267H10.75C10.9801 12.6267 11.1667 12.8132 11.1667 13.0433V19.085C11.1669 19.1403 11.145 19.1934 11.1059 19.2326C11.0668 19.2717 11.0137 19.2936 10.9583 19.2933H8.04167C7.98635 19.2936 7.93323 19.2717 7.89411 19.2326C7.85499 19.1934 7.83311 19.1403 7.83333 19.085V13.0433Z" />
<path d="M5.95834 19.2933H3.04167C2.98635 19.2936 2.93323 19.2717 2.89411 19.2326C2.85499 19.1934 2.83311 19.1403 2.83333 19.085V17.21C2.83333 16.9799 3.01988 16.7933 3.25 16.7933H5.75C5.98012 16.7933 6.16667 16.9799 6.16667 17.21V19.085C6.16689 19.1403 6.14501 19.1934 6.1059 19.2326C6.06678 19.2717 6.01366 19.2936 5.95834 19.2933Z" />
<path d="M13.25 14.2933C13.0199 14.2933 12.8333 14.4799 12.8333 14.71V19.085C12.8331 19.1403 12.855 19.1934 12.8941 19.2326C12.9332 19.2717 12.9863 19.2936 13.0417 19.2933H15.9583C16.0137 19.2936 16.0668 19.2717 16.1059 19.2326C16.145 19.1934 16.1669 19.1403 16.1667 19.085V14.71C16.1667 14.4799 15.9801 14.2933 15.75 14.2933H13.25Z" />
<path d="M2.83333 21.7933H21.1667C21.6269 21.7933 22 21.4202 22 20.96C22 20.4998 21.6269 20.1267 21.1667 20.1267H2.83333C2.3731 20.1267 2 20.4998 2 20.96C2 21.4202 2.3731 21.7933 2.83333 21.7933Z" />
</svg>