<!--character:6679-->
  <svg width="24" height="24" viewBox="0 0 24 24" >
<path d="M22.0004 9.49667C22.0004 9.72678 21.8138 9.91333 21.5837 9.91333C20.4331 9.91333 19.5004 10.8461 19.5004 11.9967C19.5004 13.1473 20.4331 14.08 21.5837 14.08C21.8138 14.08 22.0004 14.2665 22.0004 14.4967V17.4133C22.0004 18.1037 21.4407 18.6633 20.7504 18.6633H3.25039C2.56003 18.6633 2.00039 18.1037 2.00039 17.4133V14.4967C2.00039 14.2665 2.18694 14.08 2.41706 14.08C3.56765 14.08 4.50039 13.1473 4.50039 11.9967C4.50039 10.8461 3.56765 9.91333 2.41706 9.91333C2.18694 9.91333 2.00039 9.72678 2.00039 9.49667V6.58C2.00039 5.88964 2.56003 5.33 3.25039 5.33H20.7504C21.4407 5.33 22.0004 5.88964 22.0004 6.58V9.49667ZM14.8921 8.22167L8.22539 14.8883C7.99592 15.1346 8.0027 15.5183 8.24071 15.7564C8.47872 15.9944 8.86247 16.0011 9.10872 15.7717L15.7754 9.105C16.0049 8.85874 15.9981 8.47499 15.7601 8.23698C15.5221 7.99897 15.1383 7.9922 14.8921 8.22167ZM7.83372 9.49667C7.83372 10.4171 8.57992 11.1633 9.50039 11.1633C10.4209 11.1633 11.1671 10.4171 11.1671 9.49667C11.1671 8.57619 10.4209 7.83 9.50039 7.83C8.57992 7.83 7.83372 8.57619 7.83372 9.49667ZM16.1671 14.4967C16.1671 13.5762 15.4209 12.83 14.5004 12.83C13.5799 12.83 12.8337 13.5762 12.8337 14.4967C12.8337 15.4171 13.5799 16.1633 14.5004 16.1633C15.4209 16.1633 16.1671 15.4171 16.1671 14.4967Z" />
</svg>