<!--character:5800-->
  <svg width="20" height="20" viewBox="0 0 20 20" >
<path d="M18.3337 7.91389C18.3337 8.10565 18.1782 8.26111 17.9864 8.26111C17.0276 8.26111 16.2503 9.03839 16.2503 9.99722C16.2503 10.956 17.0276 11.7333 17.9864 11.7333C18.1782 11.7333 18.3337 11.8888 18.3337 12.0806V14.5111C18.3337 15.0864 17.8673 15.5528 17.292 15.5528H2.70866C2.13336 15.5528 1.66699 15.0864 1.66699 14.5111V12.0806C1.66699 11.8888 1.82245 11.7333 2.01421 11.7333C2.97304 11.7333 3.75033 10.956 3.75033 9.99722C3.75033 9.03839 2.97304 8.26111 2.01421 8.26111C1.82245 8.26111 1.66699 8.10565 1.66699 7.91389V5.48333C1.66699 4.90804 2.13336 4.44167 2.70866 4.44167H17.292C17.8673 4.44167 18.3337 4.90804 18.3337 5.48333V7.91389ZM12.41 6.85139L6.85449 12.4069C6.66327 12.6122 6.66891 12.932 6.86725 13.1303C7.0656 13.3286 7.38539 13.3343 7.5906 13.1431L13.1462 7.5875C13.3374 7.38228 13.3317 7.06249 13.1334 6.86415C12.9351 6.66581 12.6153 6.66017 12.41 6.85139ZM6.5281 7.91389C6.5281 8.68095 7.14993 9.30278 7.91699 9.30278C8.68405 9.30278 9.30588 8.68095 9.30588 7.91389C9.30588 7.14683 8.68405 6.525 7.91699 6.525C7.14993 6.525 6.5281 7.14683 6.5281 7.91389ZM13.4725 12.0806C13.4725 11.3135 12.8507 10.6917 12.0837 10.6917C11.3166 10.6917 10.6948 11.3135 10.6948 12.0806C10.6948 12.8476 11.3166 13.4694 12.0837 13.4694C12.8507 13.4694 13.4725 12.8476 13.4725 12.0806Z" />
</svg>