<!--character:132:550:1288-->
<svg width="24" height="24" viewBox="0 0 24 24" xmlns="http://www.w3.org/2000/svg"><path d="M21.5833 9.9133A.4167.4167 0 0 0 22 9.4967V6.58c0-.6904-.5596-1.25-1.25-1.25H3.25C2.5596 5.33 2 5.8896 2 6.58v2.9167c0 .23.1865.4166.4167.4166 1.1506 0 2.0833.9328 2.0833 2.0834 0 1.1506-.9327 2.0833-2.0833 2.0833A.4167.4167 0 0 0 2 14.4967v2.9166c0 .6904.5596 1.25 1.25 1.25h17.5c.6904 0 1.25-.5596 1.25-1.25v-2.9166a.4167.4167 0 0 0-.4167-.4167c-1.1506 0-2.0833-.9327-2.0833-2.0833 0-1.1506.9327-2.0834 2.0833-2.0834zM8.225 14.8883l6.6667-6.6666a.625.625 0 0 1 .8833.8833l-6.6667 6.6667a.625.625 0 0 1-.8833-.8834zm-.3917-5.3916c0-.9205.7462-1.6667 1.6667-1.6667.9205 0 1.6667.7462 1.6667 1.6667 0 .9204-.7462 1.6666-1.6667 1.6666-.9205 0-1.6667-.7462-1.6667-1.6666zM14.5 12.83c.9205 0 1.6667.7462 1.6667 1.6667 0 .9204-.7462 1.6666-1.6667 1.6666-.9205 0-1.6667-.7462-1.6667-1.6666 0-.9205.7462-1.6667 1.6667-1.6667z"/></svg></svg>
