<!--character:132:550:1288-->
  <svg width="24" height="24" viewBox="0 0 24 24" >
<path   d="M22 9.49675C22 9.72686 21.8135 9.91341 21.5833 9.91341C20.4327 9.91341 19.5 10.8462 19.5 11.9967C19.5 13.1473 20.4327 14.0801 21.5833 14.0801C21.8135 14.0801 22 14.2666 22 14.4967V17.4134C22 18.1038 21.4404 18.6634 20.75 18.6634H3.25C2.55964 18.6634 2 18.1038 2 17.4134V14.4967C2 14.2666 2.18655 14.0801 2.41667 14.0801C3.56726 14.0801 4.5 13.1473 4.5 11.9967C4.5 10.8462 3.56726 9.91341 2.41667 9.91341C2.18655 9.91341 2 9.72686 2 9.49675V6.58008C2 5.88972 2.55964 5.33008 3.25 5.33008H20.75C21.4404 5.33008 22 5.88972 22 6.58008V9.49675ZM14.8917 8.22173L8.22503 14.8884C7.99556 15.1347 8.00233 15.5184 8.24034 15.7564C8.47835 15.9944 8.8621 16.0012 9.10836 15.7717L15.775 9.10507C16.0045 8.85881 15.9977 8.47506 15.7597 8.23705C15.5217 7.99904 15.138 7.99227 14.8917 8.22173ZM7.83331 9.49675C7.83331 8.57627 8.57951 7.83008 9.49998 7.83008C10.4205 7.83008 11.1666 8.57627 11.1666 9.49675C11.1666 10.4172 10.4205 11.1634 9.49998 11.1634C8.57951 11.1634 7.83331 10.4172 7.83331 9.49675ZM16.1666 14.4967C16.1666 13.5763 15.4205 12.8301 14.5 12.8301C13.5795 12.8301 12.8333 13.5763 12.8333 14.4967C12.8333 15.4172 13.5795 16.1634 14.5 16.1634C15.4205 16.1634 16.1666 15.4172 16.1666 14.4967Z" />
</svg>