<!-- character:0:1875 -->
  <svg width="20" height="20" viewBox="0 0 20 20" >
<path   d="M18.3333 7.91387C18.3333 8.10564 18.1778 8.2611 17.9861 8.2611C17.0272 8.2611 16.25 9.03838 16.25 9.99721C16.25 10.956 17.0272 11.7333 17.9861 11.7333C18.1778 11.7333 18.3333 11.8888 18.3333 12.0805V14.5111C18.3333 15.0864 17.8669 15.5528 17.2916 15.5528H2.70829C2.133 15.5528 1.66663 15.0864 1.66663 14.5111V12.0805C1.66663 11.8888 1.82208 11.7333 2.01385 11.7333C2.97268 11.7333 3.74996 10.956 3.74996 9.99721C3.74996 9.03838 2.97268 8.2611 2.01385 8.2611C1.82208 8.2611 1.66663 8.10564 1.66663 7.91387V5.48332C1.66663 4.90802 2.133 4.44165 2.70829 4.44165H17.2916C17.8669 4.44165 18.3333 4.90802 18.3333 5.48332V7.91387ZM12.4097 6.85137L6.85413 12.4069C6.6629 12.6121 6.66855 12.9319 6.86689 13.1303C7.06523 13.3286 7.38502 13.3343 7.59024 13.143L13.1458 7.58748C13.337 7.38227 13.3314 7.06248 13.133 6.86414C12.9347 6.66579 12.6149 6.66015 12.4097 6.85137ZM6.52774 7.91387C6.52774 7.14681 7.14956 6.52498 7.91663 6.52498C8.68369 6.52498 9.30551 7.14681 9.30551 7.91387C9.30551 8.68093 8.68369 9.30276 7.91663 9.30276C7.14956 9.30276 6.52774 8.68093 6.52774 7.91387ZM13.4722 12.0805C13.4722 11.3135 12.8504 10.6917 12.0833 10.6917C11.3162 10.6917 10.6944 11.3135 10.6944 12.0805C10.6944 12.8476 11.3162 13.4694 12.0833 13.4694C12.8504 13.4694 13.4722 12.8476 13.4722 12.0805Z" />
</svg>