<!--character:102:550:723-->
  <svg width="24" height="24" viewBox="0 0 24 24" >
<path d="M2.8333 8.6667C2.72386 8.6667 2.61549 8.64514 2.51439 8.60326C2.41328 8.56138 2.32141 8.49999 2.24403 8.4226C2.16665 8.34521 2.10527 8.25333 2.0634 8.15222C2.02153 8.05111 1.99999 7.94274 2 7.8333V2.8333C2 2.72387 2.02155 2.61551 2.06343 2.51441C2.10531 2.41331 2.16669 2.32145 2.24407 2.24407C2.40034 2.08779 2.6123 2 2.8333 2H7.8333C7.94274 1.99999 8.05111 2.02153 8.15222 2.0634C8.25333 2.10527 8.34521 2.16665 8.4226 2.24403C8.49999 2.32141 8.56138 2.41328 8.60326 2.51439C8.64514 2.61549 8.6667 2.72386 8.6667 2.8333V7.8333C8.66671 7.94275 8.64517 8.05113 8.60329 8.15224C8.56141 8.25336 8.50002 8.34524 8.42263 8.42263C8.34524 8.50002 8.25336 8.56141 8.15224 8.60329C8.05113 8.64517 7.94275 8.66671 7.8333 8.6667H2.8333ZM3.6667 3.875V6.7917C3.6667 6.9067 3.7599 7 3.875 7H6.7917C6.84694 7 6.89993 6.97805 6.93899 6.93899C6.97805 6.89993 7 6.84694 7 6.7917V3.875C7 3.81976 6.97805 3.76677 6.93899 3.72771C6.89993 3.68865 6.84694 3.6667 6.7917 3.6667H3.875C3.81976 3.6667 3.76677 3.68865 3.72771 3.72771C3.68865 3.76677 3.6667 3.81976 3.6667 3.875ZM7.8333 15.3333C7.94275 15.3333 8.05113 15.3548 8.15224 15.3967C8.25336 15.4386 8.34524 15.5 8.42263 15.5774C8.50002 15.6548 8.56141 15.7466 8.60329 15.8478C8.64517 15.9489 8.66671 16.0573 8.6667 16.1667V21.1667C8.6667 21.2761 8.64514 21.3845 8.60326 21.4856C8.56138 21.5867 8.49999 21.6786 8.4226 21.756C8.34521 21.8333 8.25333 21.8947 8.15222 21.9366C8.05111 21.9785 7.94274 22 7.8333 22H2.8333C2.72387 22 2.61551 21.9784 2.51441 21.9366C2.41331 21.8947 2.32145 21.8333 2.24407 21.7559C2.08779 21.5997 2 21.3877 2 21.1667V16.1667C1.99999 16.0573 2.02153 15.9489 2.0634 15.8478C2.10527 15.7467 2.16665 15.6548 2.24403 15.5774C2.32141 15.5 2.41328 15.4386 2.51439 15.3967C2.61549 15.3549 2.72386 15.3333 2.8333 15.3333H7.8333ZM7 20.125V17.2083C7 17.1531 6.97805 17.1001 6.93899 17.061C6.89993 17.0219 6.84694 17 6.7917 17H3.875C3.81976 17 3.76677 17.0219 3.72771 17.061C3.68865 17.1001 3.6667 17.1531 3.6667 17.2083V20.125C3.6667 20.24 3.7599 20.3333 3.875 20.3333H6.7917C6.84694 20.3333 6.89993 20.3114 6.93899 20.2723C6.97805 20.2332 7 20.1802 7 20.125ZM21.1667 2C21.3877 2 21.5997 2.08779 21.7559 2.24407C21.9122 2.40034 22 2.6123 22 2.8333V7.8333C22 7.94274 21.9785 8.05111 21.9366 8.15222C21.8947 8.25333 21.8333 8.34521 21.756 8.4226C21.6786 8.49999 21.5867 8.56138 21.4856 8.60326C21.3845 8.64514 21.2761 8.6667 21.1667 8.6667H16.1667C16.0573 8.66671 15.9489 8.64517 15.8478 8.60329C15.7466 8.56141 15.6548 8.50002 15.5774 8.42263C15.5 8.34524 15.4386 8.25336 15.3967 8.15224C15.3548 8.05113 15.3333 7.94275 15.3333 7.8333V2.8333C15.3333 2.72386 15.3549 2.61549 15.3967 2.51439C15.4386 2.41328 15.5 2.32141 15.5774 2.24403C15.6548 2.16665 15.7467 2.10527 15.8478 2.0634C15.9489 2.02153 16.0573 1.99999 16.1667 2H21.1667ZM20.3333 6.7917V3.875C20.3333 3.81976 20.3114 3.76677 20.2723 3.72771C20.2332 3.68865 20.1802 3.6667 20.125 3.6667H17.2083C17.1531 3.6667 17.1001 3.68865 17.061 3.72771C17.0219 3.76677 17 3.81976 17 3.875V6.7917C17 6.9067 17.0933 7 17.2083 7H20.125C20.1802 7 20.2332 6.97805 20.2723 6.93899C20.3114 6.89993 20.3333 6.84694 20.3333 6.7917ZM10.3333 5.5417C10.1675 5.5417 10.0086 5.47585 9.89136 5.35864C9.77415 5.24143 9.7083 5.08246 9.7083 4.9167V2.8333C9.7083 2.66754 9.77415 2.50857 9.89136 2.39136C10.0086 2.27415 10.1675 2.2083 10.3333 2.2083C10.4991 2.2083 10.658 2.27415 10.7752 2.39136C10.8925 2.50857 10.9583 2.66754 10.9583 2.8333V4.0833C10.9583 4.1983 11.0516 4.2917 11.1667 4.2917C11.3325 4.2917 11.4914 4.35755 11.6086 4.47476C11.7259 4.59197 11.7917 4.75094 11.7917 4.9167C11.7917 5.08246 11.7259 5.24143 11.6086 5.35864C11.4914 5.47585 11.3325 5.5417 11.1667 5.5417H10.3333ZM12.8333 3.4583C12.6675 3.4583 12.5086 3.39245 12.3914 3.27524C12.2741 3.15803 12.2083 2.99906 12.2083 2.8333C12.2083 2.66754 12.2741 2.50857 12.3914 2.39136C12.5086 2.27415 12.6675 2.2083 12.8333 2.2083H13.6667C13.8325 2.2083 13.9914 2.27415 14.1086 2.39136C14.2259 2.50857 14.2917 2.66754 14.2917 2.8333V8.25C14.2917 8.41576 14.2259 8.57473 14.1086 8.69194C13.9914 8.80915 13.8325 8.875 13.6667 8.875C13.5009 8.875 13.342 8.80915 13.2248 8.69194C13.1075 8.57473 13.0417 8.41576 13.0417 8.25V3.6667C13.0417 3.63933 13.0363 3.61222 13.0259 3.58693C13.0154 3.56164 13 3.53866 12.9807 3.51931C12.9613 3.49996 12.9384 3.48461 12.9131 3.47414C12.8878 3.46367 12.8607 3.45829 12.8333 3.4583ZM6.7917 10.75C6.7917 10.5842 6.85755 10.4253 6.97476 10.3081C7.09197 10.1908 7.25094 10.125 7.4167 10.125H9.5C9.55524 10.125 9.60823 10.1031 9.64729 10.064C9.68635 10.0249 9.7083 9.97194 9.7083 9.9167V7.4167C9.7083 7.25094 9.77415 7.09197 9.89136 6.97476C10.0086 6.85755 10.1675 6.7917 10.3333 6.7917C10.4991 6.7917 10.658 6.85755 10.7752 6.97476C10.8925 7.09197 10.9583 7.25094 10.9583 7.4167V10.75C10.9583 10.9158 10.8925 11.0747 10.7752 11.1919C10.658 11.3092 10.4991 11.375 10.3333 11.375H7.4167C7.25094 11.375 7.09197 11.3092 6.97476 11.1919C6.85755 11.0747 6.7917 10.9158 6.7917 10.75ZM4.5 10.125C4.58208 10.125 4.66335 10.1412 4.73918 10.1726C4.81501 10.204 4.88391 10.25 4.94194 10.3081C4.99998 10.3661 5.04602 10.435 5.07742 10.5108C5.10883 10.5867 5.125 10.6679 5.125 10.75V12.8333C5.125 12.9483 5.2183 13.0417 5.3333 13.0417H12.8333C12.8607 13.0417 12.8878 13.0363 12.9131 13.0259C12.9384 13.0154 12.9613 13 12.9807 12.9807C13 12.9613 13.0154 12.9384 13.0259 12.9131C13.0363 12.8878 13.0417 12.8607 13.0417 12.8333V11.1667C13.0417 11.0009 13.1075 10.842 13.2248 10.7248C13.342 10.6075 13.5009 10.5417 13.6667 10.5417C13.8325 10.5417 13.9914 10.6075 14.1086 10.7248C14.2259 10.842 14.2917 11.0009 14.2917 11.1667V13.6667C14.2917 13.8325 14.2259 13.9914 14.1086 14.1086C13.9914 14.2259 13.8325 14.2917 13.6667 14.2917H2.8333C2.66754 14.2917 2.50857 14.2259 2.39136 14.1086C2.27415 13.9914 2.2083 13.8325 2.2083 13.6667C2.2083 13.5009 2.27415 13.342 2.39136 13.2248C2.50857 13.1075 2.66754 13.0417 2.8333 13.0417H3.6667C3.69406 13.0417 3.72116 13.0363 3.74644 13.0258C3.77171 13.0154 3.79468 13 3.81403 12.9807C3.83337 12.9613 3.84871 12.9383 3.85917 12.913C3.86963 12.8878 3.87501 12.8607 3.875 12.8333V10.75C3.875 10.5842 3.94085 10.4253 4.05806 10.3081C4.17527 10.1908 4.33424 10.125 4.5 10.125ZM13.4583 16.1667C13.4583 16.3325 13.3925 16.4914 13.2752 16.6086C13.158 16.7259 12.9991 16.7917 12.8333 16.7917H11.1667C11.1393 16.7917 11.1122 16.7971 11.087 16.8075C11.0617 16.818 11.0387 16.8333 11.0193 16.8527C11 16.872 10.9846 16.895 10.9742 16.9203C10.9637 16.9455 10.9583 16.9726 10.9583 17V19.5C10.9583 19.6658 10.8925 19.8247 10.7752 19.9419C10.658 20.0592 10.4991 20.125 10.3333 20.125C10.1675 20.125 10.0086 20.0592 9.89136 19.9419C9.77415 19.8247 9.7083 19.6658 9.7083 19.5V16.1667C9.7083 16.0009 9.77415 15.842 9.89136 15.7248C10.0086 15.6075 10.1675 15.5417 10.3333 15.5417H12.8333C12.9991 15.5417 13.158 15.6075 13.2752 15.7248C13.3925 15.842 13.4583 16.0009 13.4583 16.1667ZM21.1667 20.5417C21.3325 20.5417 21.4914 20.6075 21.6086 20.7248C21.7259 20.842 21.7917 21.0009 21.7917 21.1667C21.7917 21.3325 21.7259 21.4914 21.6086 21.6086C21.4914 21.7259 21.3325 21.7917 21.1667 21.7917H13.25C13.0842 21.7917 12.9253 21.7259 12.8081 21.6086C12.6908 21.4914 12.625 21.3325 12.625 21.1667V18.6667C12.625 18.5009 12.6908 18.342 12.8081 18.2248C12.9253 18.1075 13.0842 18.0417 13.25 18.0417C13.4158 18.0417 13.5747 18.1075 13.6919 18.2248C13.8092 18.342 13.875 18.5009 13.875 18.6667V20.3333C13.875 20.4483 13.9683 20.5417 14.0833 20.5417H21.1667ZM15.75 18.875C15.5842 18.875 15.4253 18.8092 15.3081 18.6919C15.1908 18.5747 15.125 18.4158 15.125 18.25V15.75C15.125 15.5842 15.1908 15.4253 15.3081 15.3081C15.4253 15.1908 15.5842 15.125 15.75 15.125H18.25C18.4158 15.125 18.5747 15.1908 18.6919 15.3081C18.8092 15.4253 18.875 15.5842 18.875 15.75V18.25C18.875 18.4158 18.8092 18.5747 18.6919 18.6919C18.5747 18.8092 18.4158 18.875 18.25 18.875H15.75ZM16.375 16.5833V17.4167C16.375 17.5317 16.4683 17.625 16.5833 17.625H17.4167C17.4719 17.625 17.5249 17.6031 17.564 17.564C17.6031 17.5249 17.625 17.4719 17.625 17.4167V16.5833C17.625 16.5281 17.6031 16.4751 17.564 16.436C17.5249 16.3969 17.4719 16.375 17.4167 16.375H16.5833C16.5281 16.375 16.4751 16.3969 16.436 16.436C16.3969 16.4751 16.375 16.5281 16.375 16.5833ZM20.75 12.625C20.9158 12.625 21.0747 12.6908 21.1919 12.8081C21.3092 12.9253 21.375 13.0842 21.375 13.25V18.6667C21.375 18.8325 21.3092 18.9914 21.1919 19.1086C21.0747 19.2259 20.9158 19.2917 20.75 19.2917C20.5842 19.2917 20.4253 19.2259 20.3081 19.1086C20.1908 18.9914 20.125 18.8325 20.125 18.6667V13.25C20.125 13.0842 20.1908 12.9253 20.3081 12.8081C20.4253 12.6908 20.5842 12.625 20.75 12.625ZM21.375 10.3333C21.375 10.4991 21.3092 10.658 21.1919 10.7752C21.0747 10.8925 20.9158 10.9583 20.75 10.9583H17C16.9726 10.9583 16.9455 10.9637 16.9203 10.9742C16.895 10.9846 16.872 11 16.8527 11.0193C16.8333 11.0387 16.818 11.0617 16.8075 11.087C16.7971 11.1122 16.7917 11.1393 16.7917 11.1667V12.8333C16.7917 12.9991 16.7259 13.158 16.6086 13.2752C16.4914 13.3925 16.3325 13.4583 16.1667 13.4583C16.0009 13.4583 15.842 13.3925 15.7248 13.2752C15.6075 13.158 15.5417 12.9991 15.5417 12.8333V10.3333C15.5417 10.1675 15.6075 10.0086 15.7248 9.89136C15.842 9.77415 16.0009 9.7083 16.1667 9.7083H20.75C20.9158 9.7083 21.0747 9.77415 21.1919 9.89136C21.3092 10.0086 21.375 10.1675 21.375 10.3333Z" />
</svg>