<!--character:3024:2801-->
<svg width="24" height="24" viewBox="0 0 24 24">
  <path d="M2.83369 8.6667C2.72425 8.6667 2.61588 8.64514 2.51478 8.60326C2.41367 8.56137 2.3218 8.49998 2.24442 8.42259C2.16704 8.3452 2.10566 8.25333 2.06379 8.15222C2.02192 8.05111 2.00038 7.94274 2.00039 7.8333V2.8333C2.00039 2.72387 2.02194 2.61551 2.06382 2.51441C2.1057 2.41331 2.16708 2.32144 2.24446 2.24406C2.40073 2.08779 2.61269 2 2.83369 2H7.83369C7.94313 1.99998 8.0515 2.02153 8.15261 2.0634C8.25372 2.10527 8.3456 2.16665 8.42299 2.24403C8.50038 2.32141 8.56177 2.41328 8.60365 2.51438C8.64553 2.61549 8.66709 2.72386 8.66709 2.8333V7.8333C8.6671 7.94274 8.64556 8.05112 8.60368 8.15224C8.5618 8.25336 8.50041 8.34524 8.42302 8.42263C8.34563 8.50002 8.25375 8.56141 8.15263 8.60328C8.05152 8.64516 7.94314 8.66671 7.83369 8.6667H2.83369ZM3.66709 3.875V6.7917C3.66709 6.9067 3.76029 7 3.87539 7H6.79209C6.84734 7 6.90032 6.97805 6.93938 6.93899C6.97844 6.89992 7.00039 6.84694 7.00039 6.7917V3.875C7.00039 3.81975 6.97844 3.76677 6.93938 3.72771C6.90032 3.68864 6.84734 3.6667 6.79209 3.6667H3.87539C3.82015 3.6667 3.76716 3.68864 3.7281 3.72771C3.68904 3.76677 3.66709 3.81975 3.66709 3.875ZM7.83369 15.3333C7.94314 15.3333 8.05152 15.3548 8.15263 15.3967C8.25375 15.4386 8.34563 15.5 8.42302 15.5774C8.50041 15.6548 8.5618 15.7466 8.60368 15.8478C8.64556 15.9489 8.6671 16.0573 8.66709 16.1667V21.1667C8.66709 21.2761 8.64553 21.3845 8.60365 21.4856C8.56177 21.5867 8.50038 21.6786 8.42299 21.756C8.3456 21.8333 8.25372 21.8947 8.15261 21.9366C8.0515 21.9785 7.94313 22 7.83369 22H2.83369C2.72426 22 2.6159 21.9784 2.5148 21.9366C2.4137 21.8947 2.32184 21.8333 2.24446 21.7559C2.08818 21.5997 2.00039 21.3877 2.00039 21.1667V16.1667C2.00038 16.0573 2.02192 15.9489 2.06379 15.8478C2.10566 15.7467 2.16704 15.6548 2.24442 15.5774C2.3218 15.5 2.41367 15.4386 2.51478 15.3967C2.61588 15.3549 2.72425 15.3333 2.83369 15.3333H7.83369ZM7.00039 20.125V17.2083C7.00039 17.1531 6.97844 17.1001 6.93938 17.061C6.90032 17.0219 6.84734 17 6.79209 17H3.87539C3.82015 17 3.76716 17.0219 3.7281 17.061C3.68904 17.1001 3.66709 17.1531 3.66709 17.2083V20.125C3.66709 20.24 3.76029 20.3333 3.87539 20.3333H6.79209C6.84734 20.3333 6.90032 20.3114 6.93938 20.2723C6.97844 20.2332 7.00039 20.1802 7.00039 20.125ZM21.1671 2C21.3881 2 21.6001 2.08779 21.7563 2.24406C21.9126 2.40034 22.0004 2.61229 22.0004 2.8333V7.8333C22.0004 7.94274 21.9789 8.05111 21.937 8.15222C21.8951 8.25333 21.8337 8.3452 21.7564 8.42259C21.679 8.49998 21.5871 8.56137 21.486 8.60326C21.3849 8.64514 21.2765 8.6667 21.1671 8.6667H16.1671C16.0576 8.66671 15.9493 8.64516 15.8481 8.60328C15.747 8.56141 15.6552 8.50002 15.5778 8.42263C15.5004 8.34524 15.439 8.25336 15.3971 8.15224C15.3552 8.05112 15.3337 7.94274 15.3337 7.8333V2.8333C15.3337 2.72386 15.3552 2.61549 15.3971 2.51438C15.439 2.41328 15.5004 2.32141 15.5778 2.24403C15.6552 2.16665 15.7471 2.10527 15.8482 2.0634C15.9493 2.02153 16.0577 1.99998 16.1671 2H21.1671ZM20.3337 6.7917V3.875C20.3337 3.81975 20.3117 3.76677 20.2727 3.72771C20.2336 3.68864 20.1806 3.6667 20.1254 3.6667H17.2087C17.1534 3.6667 17.1005 3.68864 17.0614 3.72771C17.0223 3.76677 17.0004 3.81975 17.0004 3.875V6.7917C17.0004 6.9067 17.0937 7 17.2087 7H20.1254C20.1806 7 20.2336 6.97805 20.2727 6.93899C20.3117 6.89992 20.3337 6.84694 20.3337 6.7917ZM10.3337 5.5417C10.1679 5.5417 10.009 5.47585 9.89175 5.35864C9.77454 5.24143 9.70869 5.08246 9.70869 4.9167V2.8333C9.70869 2.66754 9.77454 2.50857 9.89175 2.39136C10.009 2.27415 10.1679 2.2083 10.3337 2.2083C10.4995 2.2083 10.6584 2.27415 10.7756 2.39136C10.8928 2.50857 10.9587 2.66754 10.9587 2.8333V4.0833C10.9587 4.1983 11.052 4.2917 11.1671 4.2917C11.3329 4.2917 11.4918 4.35754 11.609 4.47476C11.7262 4.59197 11.7921 4.75094 11.7921 4.9167C11.7921 5.08246 11.7262 5.24143 11.609 5.35864C11.4918 5.47585 11.3329 5.5417 11.1671 5.5417H10.3337ZM12.8337 3.4583C12.6679 3.4583 12.509 3.39245 12.3917 3.27524C12.2745 3.15803 12.2087 2.99906 12.2087 2.8333C12.2087 2.66754 12.2745 2.50857 12.3917 2.39136C12.509 2.27415 12.6679 2.2083 12.8337 2.2083H13.6671C13.8329 2.2083 13.9918 2.27415 14.109 2.39136C14.2262 2.50857 14.2921 2.66754 14.2921 2.8333V8.25C14.2921 8.41576 14.2262 8.57473 14.109 8.69194C13.9918 8.80915 13.8329 8.875 13.6671 8.875C13.5013 8.875 13.3424 8.80915 13.2251 8.69194C13.1079 8.57473 13.0421 8.41576 13.0421 8.25V3.6667C13.0421 3.63933 13.0367 3.61222 13.0263 3.58693C13.0158 3.56164 13.0004 3.53866 12.9811 3.51931C12.9617 3.49995 12.9387 3.4846 12.9135 3.47413C12.8882 3.46367 12.8611 3.45828 12.8337 3.4583ZM6.79209 10.75C6.79209 10.5842 6.85794 10.4253 6.97515 10.3081C7.09236 10.1908 7.25133 10.125 7.41709 10.125H9.50039C9.55564 10.125 9.60862 10.1031 9.64768 10.064C9.68675 10.0249 9.70869 9.97194 9.70869 9.9167V7.4167C9.70869 7.25094 9.77454 7.09197 9.89175 6.97476C10.009 6.85755 10.1679 6.7917 10.3337 6.7917C10.4995 6.7917 10.6584 6.85755 10.7756 6.97476C10.8928 7.09197 10.9587 7.25094 10.9587 7.4167V10.75C10.9587 10.9158 10.8928 11.0747 10.7756 11.1919C10.6584 11.3091 10.4995 11.375 10.3337 11.375H7.41709C7.25133 11.375 7.09236 11.3091 6.97515 11.1919C6.85794 11.0747 6.79209 10.9158 6.79209 10.75ZM4.50039 10.125C4.58247 10.125 4.66374 10.1412 4.73957 10.1726C4.8154 10.204 4.8843 10.25 4.94233 10.3081C5.00037 10.3661 5.04641 10.435 5.07782 10.5108C5.10922 10.5866 5.12539 10.6679 5.12539 10.75V12.8333C5.12539 12.9483 5.21869 13.0417 5.33369 13.0417H12.8337C12.8611 13.0417 12.8882 13.0363 12.9135 13.0259C12.9387 13.0154 12.9617 13 12.9811 12.9807C13.0004 12.9613 13.0158 12.9384 13.0263 12.9131C13.0367 12.8878 13.0421 12.8607 13.0421 12.8333V11.1667C13.0421 11.0009 13.1079 10.842 13.2251 10.7248C13.3424 10.6075 13.5013 10.5417 13.6671 10.5417C13.8329 10.5417 13.9918 10.6075 14.109 10.7248C14.2262 10.842 14.2921 11.0009 14.2921 11.1667V13.6667C14.2921 13.8325 14.2262 13.9914 14.109 14.1086C13.9918 14.2258 13.8329 14.2917 13.6671 14.2917H2.83369C2.66793 14.2917 2.50896 14.2258 2.39175 14.1086C2.27454 13.9914 2.20869 13.8325 2.20869 13.6667C2.20869 13.5009 2.27454 13.342 2.39175 13.2248C2.50896 13.1075 2.66793 13.0417 2.83369 13.0417H3.66709C3.69445 13.0417 3.72155 13.0363 3.74683 13.0258C3.77211 13.0154 3.79507 13 3.81442 12.9807C3.83376 12.9613 3.8491 12.9383 3.85956 12.913C3.87003 12.8878 3.8754 12.8607 3.87539 12.8333V10.75C3.87539 10.5842 3.94124 10.4253 4.05845 10.3081C4.17566 10.1908 4.33463 10.125 4.50039 10.125ZM13.4587 16.1667C13.4587 16.3325 13.3928 16.4914 13.2756 16.6086C13.1584 16.7259 12.9995 16.7917 12.8337 16.7917H11.1671C11.1397 16.7917 11.1126 16.7971 11.0873 16.8075C11.0621 16.818 11.0391 16.8333 11.0197 16.8527C11.0004 16.872 10.985 16.895 10.9746 16.9203C10.9641 16.9455 10.9587 16.9726 10.9587 17V19.5C10.9587 19.6658 10.8928 19.8247 10.7756 19.9419C10.6584 20.0592 10.4995 20.125 10.3337 20.125C10.1679 20.125 10.009 20.0592 9.89175 19.9419C9.77454 19.8247 9.70869 19.6658 9.70869 19.5V16.1667C9.70869 16.0009 9.77454 15.842 9.89175 15.7248C10.009 15.6075 10.1679 15.5417 10.3337 15.5417H12.8337C12.9995 15.5417 13.1584 15.6075 13.2756 15.7248C13.3928 15.842 13.4587 16.0009 13.4587 16.1667ZM21.1671 20.5417C21.3329 20.5417 21.4918 20.6075 21.609 20.7248C21.7262 20.842 21.7921 21.0009 21.7921 21.1667C21.7921 21.3325 21.7262 21.4914 21.609 21.6086C21.4918 21.7259 21.3329 21.7917 21.1671 21.7917H13.2504C13.0846 21.7917 12.9257 21.7259 12.8084 21.6086C12.6912 21.4914 12.6254 21.3325 12.6254 21.1667V18.6667C12.6254 18.5009 12.6912 18.342 12.8084 18.2248C12.9257 18.1075 13.0846 18.0417 13.2504 18.0417C13.4162 18.0417 13.5751 18.1075 13.6923 18.2248C13.8095 18.342 13.8754 18.5009 13.8754 18.6667V20.3333C13.8754 20.4483 13.9687 20.5417 14.0837 20.5417H21.1671ZM15.7504 18.875C15.5846 18.875 15.4257 18.8091 15.3084 18.6919C15.1912 18.5747 15.1254 18.4158 15.1254 18.25V15.75C15.1254 15.5842 15.1912 15.4253 15.3084 15.3081C15.4257 15.1908 15.5846 15.125 15.7504 15.125H18.2504C18.4162 15.125 18.5751 15.1908 18.6923 15.3081C18.8095 15.4253 18.8754 15.5842 18.8754 15.75V18.25C18.8754 18.4158 18.8095 18.5747 18.6923 18.6919C18.5751 18.8091 18.4162 18.875 18.2504 18.875H15.7504ZM16.3754 16.5833V17.4167C16.3754 17.5317 16.4687 17.625 16.5837 17.625H17.4171C17.4723 17.625 17.5253 17.6031 17.5644 17.564C17.6034 17.5249 17.6254 17.4719 17.6254 17.4167V16.5833C17.6254 16.5281 17.6034 16.4751 17.5644 16.436C17.5253 16.3969 17.4723 16.375 17.4171 16.375H16.5837C16.5284 16.375 16.4755 16.3969 16.4364 16.436C16.3973 16.4751 16.3754 16.5281 16.3754 16.5833ZM20.7504 12.625C20.9162 12.625 21.0751 12.6908 21.1923 12.8081C21.3095 12.9253 21.3754 13.0842 21.3754 13.25V18.6667C21.3754 18.8325 21.3095 18.9914 21.1923 19.1086C21.0751 19.2259 20.9162 19.2917 20.7504 19.2917C20.5846 19.2917 20.4257 19.2259 20.3084 19.1086C20.1912 18.9914 20.1254 18.8325 20.1254 18.6667V13.25C20.1254 13.0842 20.1912 12.9253 20.3084 12.8081C20.4257 12.6908 20.5846 12.625 20.7504 12.625ZM21.3754 10.3333C21.3754 10.4991 21.3095 10.658 21.1923 10.7752C21.0751 10.8924 20.9162 10.9583 20.7504 10.9583H17.0004C16.973 10.9583 16.9459 10.9637 16.9207 10.9742C16.8954 10.9846 16.8724 11 16.8531 11.0193C16.8337 11.0387 16.8184 11.0617 16.8079 11.087C16.7975 11.1122 16.7921 11.1393 16.7921 11.1667V12.8333C16.7921 12.9991 16.7262 13.158 16.609 13.2752C16.4918 13.3924 16.3329 13.4583 16.1671 13.4583C16.0013 13.4583 15.8424 13.3924 15.7251 13.2752C15.6079 13.158 15.5421 12.9991 15.5421 12.8333V10.3333C15.5421 10.1675 15.6079 10.0086 15.7251 9.89136C15.8424 9.77415 16.0013 9.7083 16.1671 9.7083H20.7504C20.9162 9.7083 21.0751 9.77415 21.1923 9.89136C21.3095 10.0086 21.3754 10.1675 21.3754 10.3333Z" />
</svg>
