<!--character:1753-->
  <svg width="20" height="20" viewBox="0 0 20 20" >
<path d="M2.36141 7.22225C2.27021 7.22225 2.1799 7.20428 2.09565 7.16938C2.01139 7.13448 1.93484 7.08332 1.87035 7.01883C1.80587 6.95434 1.75472 6.87778 1.71983 6.79352C1.68493 6.70925 1.66698 6.61895 1.66699 6.52775V2.36108C1.66699 2.26989 1.68495 2.17959 1.71985 2.09534C1.75475 2.01109 1.8059 1.93454 1.87038 1.87005C2.00061 1.73983 2.17724 1.66666 2.36141 1.66666H6.52808C6.61928 1.66665 6.70958 1.68461 6.79384 1.7195C6.8781 1.75439 6.95467 1.80554 7.01916 1.87002C7.08365 1.93451 7.13481 2.01106 7.16971 2.09532C7.20461 2.17958 7.22258 2.26988 7.22258 2.36108V6.52775C7.22259 6.61895 7.20463 6.70927 7.16973 6.79353C7.13483 6.8778 7.08368 6.95437 7.01919 7.01886C6.95469 7.08335 6.87813 7.13451 6.79386 7.1694C6.7096 7.2043 6.61928 7.22226 6.52808 7.22225H2.36141ZM3.05591 3.22916V5.65975C3.05591 5.75558 3.13358 5.83333 3.22949 5.83333H5.66008C5.70611 5.83333 5.75026 5.81504 5.78282 5.78249C5.81537 5.74994 5.83366 5.70578 5.83366 5.65975V3.22916C5.83366 3.18313 5.81537 3.13898 5.78282 3.10642C5.75026 3.07387 5.70611 3.05558 5.66008 3.05558H3.22949C3.18346 3.05558 3.1393 3.07387 3.10675 3.10642C3.0742 3.13898 3.05591 3.18313 3.05591 3.22916ZM6.52808 12.7777C6.61928 12.7777 6.7096 12.7957 6.79386 12.8306C6.87813 12.8655 6.95469 12.9166 7.01919 12.9811C7.08368 13.0456 7.13483 13.1222 7.16973 13.2065C7.20463 13.2907 7.22259 13.381 7.22258 13.4722V17.6389C7.22258 17.7301 7.20461 17.8204 7.16971 17.9047C7.13481 17.9889 7.08365 18.0655 7.01916 18.13C6.95467 18.1945 6.8781 18.2456 6.79384 18.2805C6.70958 18.3154 6.61928 18.3333 6.52808 18.3333H2.36141C2.27022 18.3333 2.17992 18.3154 2.09567 18.2805C2.01142 18.2456 1.93486 18.1944 1.87038 18.1299C1.74015 17.9997 1.66699 17.8231 1.66699 17.6389V13.4722C1.66698 13.381 1.68493 13.2907 1.71983 13.2065C1.75472 13.1222 1.80587 13.0457 1.87035 12.9812C1.93484 12.9167 2.01139 12.8655 2.09565 12.8306C2.1799 12.7957 2.27021 12.7777 2.36141 12.7777H6.52808ZM5.83366 16.7708V14.3402C5.83366 14.2942 5.81537 14.2501 5.78282 14.2175C5.75026 14.185 5.70611 14.1667 5.66008 14.1667H3.22949C3.18346 14.1667 3.1393 14.185 3.10675 14.2175C3.0742 14.2501 3.05591 14.2942 3.05591 14.3402V16.7708C3.05591 16.8667 3.13358 16.9444 3.22949 16.9444H5.66008C5.70611 16.9444 5.75026 16.9261 5.78282 16.8936C5.81537 16.861 5.83366 16.8169 5.83366 16.7708ZM17.6392 1.66666C17.8234 1.66666 18 1.73983 18.1303 1.87005C18.2605 2.00028 18.3337 2.17691 18.3337 2.36108V6.52775C18.3337 6.61895 18.3157 6.70925 18.2808 6.79352C18.2459 6.87778 18.1948 6.95434 18.1303 7.01883C18.0658 7.08332 17.9893 7.13448 17.905 7.16938C17.8207 7.20428 17.7304 7.22225 17.6392 7.22225H13.4726C13.3814 7.22226 13.2911 7.2043 13.2068 7.1694C13.1225 7.13451 13.046 7.08335 12.9815 7.01886C12.917 6.95437 12.8658 6.8778 12.8309 6.79353C12.796 6.70927 12.7781 6.61895 12.7781 6.52775V2.36108C12.7781 2.26988 12.796 2.17958 12.8309 2.09532C12.8658 2.01106 12.917 1.93451 12.9815 1.87002C13.046 1.80554 13.1225 1.75439 13.2068 1.7195C13.2911 1.68461 13.3814 1.66665 13.4726 1.66666H17.6392ZM16.9447 5.65975V3.22916C16.9447 3.18313 16.9265 3.13898 16.8939 3.10642C16.8613 3.07387 16.8172 3.05558 16.7712 3.05558H14.3406C14.2945 3.05558 14.2504 3.07387 14.2178 3.10642C14.1853 3.13898 14.167 3.18313 14.167 3.22916V5.65975C14.167 5.75558 14.2447 5.83333 14.3406 5.83333H16.7712C16.8172 5.83333 16.8613 5.81504 16.8939 5.78249C16.9265 5.74994 16.9447 5.70578 16.9447 5.65975ZM8.61141 4.61808C8.47328 4.61808 8.3408 4.56321 8.24312 4.46553C8.14545 4.36786 8.09058 4.23538 8.09058 4.09725V2.36108C8.09058 2.22295 8.14545 2.09047 8.24312 1.9928C8.3408 1.89512 8.47328 1.84025 8.61141 1.84025C8.74954 1.84025 8.88202 1.89512 8.97969 1.9928C9.07737 2.09047 9.13224 2.22295 9.13224 2.36108V3.40275C9.13224 3.49858 9.20999 3.57641 9.30591 3.57641C9.44404 3.57641 9.57652 3.63129 9.67419 3.72896C9.77187 3.82664 9.82674 3.95911 9.82674 4.09725C9.82674 4.23538 9.77187 4.36786 9.67419 4.46553C9.57652 4.56321 9.44404 4.61808 9.30591 4.61808H8.61141ZM10.6947 2.88191C10.5566 2.88191 10.4241 2.82704 10.3265 2.72937C10.2288 2.63169 10.1739 2.49921 10.1739 2.36108C10.1739 2.22295 10.2288 2.09047 10.3265 1.9928C10.4241 1.89512 10.5566 1.84025 10.6947 1.84025H11.3892C11.5274 1.84025 11.6599 1.89512 11.7575 1.9928C11.8552 2.09047 11.9101 2.22295 11.9101 2.36108V6.875C11.9101 7.01313 11.8552 7.14561 11.7575 7.24328C11.6599 7.34096 11.5274 7.39583 11.3892 7.39583C11.2511 7.39583 11.1186 7.34096 11.021 7.24328C10.9233 7.14561 10.8684 7.01313 10.8684 6.875V3.05558C10.8684 3.03277 10.8639 3.01018 10.8552 2.98911C10.8465 2.96803 10.8337 2.94888 10.8176 2.93276C10.8014 2.91663 10.7823 2.90384 10.7612 2.89511C10.7401 2.88639 10.7176 2.8819 10.6947 2.88191ZM5.66008 8.95833C5.66008 8.8202 5.71495 8.68772 5.81262 8.59005C5.9103 8.49237 6.04278 8.4375 6.18091 8.4375H7.91699C7.96303 8.4375 8.00718 8.41921 8.03973 8.38666C8.07229 8.3541 8.09058 8.30995 8.09058 8.26391V6.18058C8.09058 6.04245 8.14545 5.90997 8.24312 5.8123C8.3408 5.71462 8.47328 5.65975 8.61141 5.65975C8.74954 5.65975 8.88202 5.71462 8.97969 5.8123C9.07737 5.90997 9.13224 6.04245 9.13224 6.18058V8.95833C9.13224 9.09646 9.07737 9.22894 8.97969 9.32662C8.88202 9.42429 8.74954 9.47916 8.61141 9.47916H6.18091C6.04278 9.47916 5.9103 9.42429 5.81262 9.32662C5.71495 9.22894 5.66008 9.09646 5.66008 8.95833ZM3.75033 8.4375C3.81872 8.4375 3.88645 8.45097 3.94964 8.47714C4.01283 8.50332 4.07025 8.54168 4.11861 8.59005C4.16697 8.63841 4.20534 8.69583 4.23151 8.75902C4.25769 8.82221 4.27116 8.88993 4.27116 8.95833V10.6944C4.27116 10.7902 4.34891 10.8681 4.44474 10.8681H10.6947C10.7176 10.8681 10.7401 10.8636 10.7612 10.8549C10.7823 10.8462 10.8014 10.8334 10.8176 10.8172C10.8337 10.8011 10.8465 10.782 10.8552 10.7609C10.8639 10.7398 10.8684 10.7172 10.8684 10.6944V9.30558C10.8684 9.16745 10.9233 9.03497 11.021 8.9373C11.1186 8.83962 11.2511 8.78475 11.3892 8.78475C11.5274 8.78475 11.6599 8.83962 11.7575 8.9373C11.8552 9.03497 11.9101 9.16745 11.9101 9.30558V11.3889C11.9101 11.527 11.8552 11.6595 11.7575 11.7572C11.6599 11.8549 11.5274 11.9097 11.3892 11.9097H2.36141C2.22328 11.9097 2.0908 11.8549 1.99312 11.7572C1.89545 11.6595 1.84058 11.527 1.84058 11.3889C1.84058 11.2508 1.89545 11.1183 1.99312 11.0206C2.0908 10.923 2.22328 10.8681 2.36141 10.8681H3.05591C3.07871 10.8681 3.10129 10.8636 3.12236 10.8549C3.14342 10.8461 3.16256 10.8333 3.17868 10.8172C3.1948 10.8011 3.20758 10.7819 3.2163 10.7609C3.22502 10.7398 3.2295 10.7172 3.22949 10.6944V8.95833C3.22949 8.8202 3.28437 8.68772 3.38204 8.59005C3.47972 8.49237 3.61219 8.4375 3.75033 8.4375ZM11.2156 13.4722C11.2156 13.6104 11.1607 13.7429 11.063 13.8405C10.9654 13.9382 10.8329 13.9931 10.6947 13.9931H9.30591C9.28311 13.9931 9.26053 13.9976 9.23946 14.0063C9.21839 14.015 9.19924 14.0278 9.18311 14.0439C9.16699 14.06 9.15419 14.0792 9.14546 14.1002C9.13674 14.1213 9.13224 14.1439 9.13224 14.1667V16.25C9.13224 16.3881 9.07737 16.5206 8.97969 16.6183C8.88202 16.716 8.74954 16.7708 8.61141 16.7708C8.47328 16.7708 8.3408 16.716 8.24312 16.6183C8.14545 16.5206 8.09058 16.3881 8.09058 16.25V13.4722C8.09058 13.3341 8.14545 13.2016 8.24312 13.104C8.3408 13.0063 8.47328 12.9514 8.61141 12.9514H10.6947C10.8329 12.9514 10.9654 13.0063 11.063 13.104C11.1607 13.2016 11.2156 13.3341 11.2156 13.4722ZM17.6392 17.1181C17.7774 17.1181 17.9099 17.173 18.0075 17.2706C18.1052 17.3683 18.1601 17.5008 18.1601 17.6389C18.1601 17.777 18.1052 17.9095 18.0075 18.0072C17.9099 18.1049 17.7774 18.1597 17.6392 18.1597H11.042C10.9039 18.1597 10.7714 18.1049 10.6737 18.0072C10.576 17.9095 10.5212 17.777 10.5212 17.6389V15.5556C10.5212 15.4174 10.576 15.285 10.6737 15.1873C10.7714 15.0896 10.9039 15.0347 11.042 15.0347C11.1801 15.0347 11.3126 15.0896 11.4103 15.1873C11.508 15.285 11.5628 15.4174 11.5628 15.5556V16.9444C11.5628 17.0402 11.6406 17.1181 11.7364 17.1181H17.6392ZM13.1253 15.7292C12.9872 15.7292 12.8547 15.6743 12.757 15.5766C12.6594 15.4789 12.6045 15.3465 12.6045 15.2083V13.125C12.6045 12.9869 12.6594 12.8544 12.757 12.7567C12.8547 12.659 12.9872 12.6042 13.1253 12.6042H15.2087C15.3468 12.6042 15.4793 12.659 15.5769 12.7567C15.6746 12.8544 15.7295 12.9869 15.7295 13.125V15.2083C15.7295 15.3465 15.6746 15.4789 15.5769 15.5766C15.4793 15.6743 15.3468 15.7292 15.2087 15.7292H13.1253ZM13.6462 13.8194V14.5139C13.6462 14.6097 13.7239 14.6875 13.8197 14.6875H14.5142C14.5603 14.6875 14.6044 14.6692 14.637 14.6367C14.6695 14.6041 14.6878 14.56 14.6878 14.5139V13.8194C14.6878 13.7734 14.6695 13.7292 14.637 13.6967C14.6044 13.6641 14.5603 13.6458 14.5142 13.6458H13.8197C13.7737 13.6458 13.7296 13.6641 13.697 13.6967C13.6644 13.7292 13.6462 13.7734 13.6462 13.8194ZM17.292 10.5208C17.4301 10.5208 17.5626 10.5757 17.6603 10.6734C17.758 10.7711 17.8128 10.9035 17.8128 11.0417V15.5556C17.8128 15.6937 17.758 15.8262 17.6603 15.9239C17.5626 16.0215 17.4301 16.0764 17.292 16.0764C17.1539 16.0764 17.0214 16.0215 16.9237 15.9239C16.826 15.8262 16.7712 15.6937 16.7712 15.5556V11.0417C16.7712 10.9035 16.826 10.7711 16.9237 10.6734C17.0214 10.5757 17.1539 10.5208 17.292 10.5208ZM17.8128 8.61108C17.8128 8.74921 17.758 8.88169 17.6603 8.97937C17.5626 9.07704 17.4301 9.13191 17.292 9.13191H14.167C14.1442 9.13191 14.1216 9.13641 14.1005 9.14514C14.0795 9.15386 14.0603 9.16666 14.0442 9.18279C14.0281 9.19891 14.0153 9.21806 14.0066 9.23913C13.9979 9.2602 13.9934 9.28278 13.9934 9.30558V10.6944C13.9934 10.8325 13.9385 10.965 13.8409 11.0627C13.7432 11.1604 13.6107 11.2152 13.4726 11.2152C13.3344 11.2152 13.202 11.1604 13.1043 11.0627C13.0066 10.965 12.9517 10.8325 12.9517 10.6944V8.61108C12.9517 8.47295 13.0066 8.34047 13.1043 8.2428C13.202 8.14512 13.3344 8.09025 13.4726 8.09025H17.292C17.4301 8.09025 17.5626 8.14512 17.6603 8.2428C17.758 8.34047 17.8128 8.47295 17.8128 8.61108Z" />
</svg>