<!-- character:253:58 -->
  <svg width="20" height="20" viewBox="0 0 20 20" >
<path d="M2.36104 7.22233C2.26984 7.22233 2.17954 7.20437 2.09528 7.16946C2.01103 7.13456 1.93447 7.0834 1.86999 7.01891C1.8055 6.95442 1.75435 6.87786 1.71946 6.7936C1.68457 6.70934 1.66662 6.61903 1.66663 6.52783V2.36116C1.66663 2.26997 1.68459 2.17967 1.71949 2.09542C1.75438 2.01117 1.80553 1.93462 1.87002 1.87014C2.00024 1.73991 2.17687 1.66675 2.36104 1.66675H6.52771C6.61891 1.66674 6.70922 1.68469 6.79348 1.71958C6.87774 1.75448 6.9543 1.80562 7.01879 1.87011C7.08328 1.93459 7.13444 2.01115 7.16934 2.0954C7.20425 2.17966 7.22221 2.26997 7.22221 2.36116V6.52783C7.22222 6.61904 7.20426 6.70935 7.16937 6.79362C7.13447 6.87788 7.08331 6.95445 7.01882 7.01894C6.95433 7.08343 6.87776 7.13459 6.7935 7.16949C6.70923 7.20439 6.61892 7.22234 6.52771 7.22233H2.36104ZM3.05554 3.22925V5.65983C3.05554 5.75566 3.13321 5.83342 3.22913 5.83342H5.65971C5.70575 5.83342 5.7499 5.81513 5.78245 5.78257C5.815 5.75002 5.83329 5.70587 5.83329 5.65983V3.22925C5.83329 3.18321 5.815 3.13906 5.78245 3.10651C5.7499 3.07395 5.70575 3.05566 5.65971 3.05566H3.22913C3.18309 3.05566 3.13894 3.07395 3.10638 3.10651C3.07383 3.13906 3.05554 3.18321 3.05554 3.22925ZM6.52771 12.7778C6.61892 12.7778 6.70923 12.7958 6.7935 12.8307C6.87776 12.8656 6.95433 12.9167 7.01882 12.9812C7.08331 13.0457 7.13447 13.1223 7.16937 13.2065C7.20426 13.2908 7.22222 13.3811 7.22221 13.4723V17.639C7.22221 17.7302 7.20425 17.8205 7.16934 17.9048C7.13444 17.989 7.08328 18.0656 7.01879 18.1301C6.9543 18.1945 6.87774 18.2457 6.79348 18.2806C6.70922 18.3155 6.61891 18.3334 6.52771 18.3334H2.36104C2.26985 18.3334 2.17955 18.3155 2.0953 18.2806C2.01105 18.2457 1.9345 18.1945 1.87002 18.13C1.73979 17.9998 1.66663 17.8232 1.66663 17.639V13.4723C1.66662 13.3811 1.68457 13.2908 1.71946 13.2066C1.75435 13.1223 1.8055 13.0457 1.86999 12.9813C1.93447 12.9168 2.01103 12.8656 2.09528 12.8307C2.17954 12.7958 2.26984 12.7778 2.36104 12.7778H6.52771ZM5.83329 16.7709V14.3403C5.83329 14.2943 5.815 14.2501 5.78245 14.2176C5.7499 14.185 5.70575 14.1667 5.65971 14.1667H3.22913C3.18309 14.1667 3.13894 14.185 3.10638 14.2176C3.07383 14.2501 3.05554 14.2943 3.05554 14.3403V16.7709C3.05554 16.8667 3.13321 16.9445 3.22913 16.9445H5.65971C5.70575 16.9445 5.7499 16.9262 5.78245 16.8937C5.815 16.8611 5.83329 16.817 5.83329 16.7709ZM17.6389 1.66675C17.823 1.66675 17.9997 1.73991 18.1299 1.87014C18.2601 2.00037 18.3333 2.17699 18.3333 2.36116V6.52783C18.3333 6.61903 18.3154 6.70934 18.2805 6.7936C18.2456 6.87786 18.1944 6.95442 18.1299 7.01891C18.0655 7.0834 17.9889 7.13456 17.9046 7.16946C17.8204 7.20437 17.7301 7.22233 17.6389 7.22233H13.4722C13.381 7.22234 13.2907 7.20439 13.2064 7.16949C13.1222 7.13459 13.0456 7.08343 12.9811 7.01894C12.9166 6.95445 12.8655 6.87788 12.8306 6.79362C12.7957 6.70935 12.7777 6.61904 12.7777 6.52783V2.36116C12.7777 2.26997 12.7957 2.17966 12.8306 2.0954C12.8655 2.01115 12.9166 1.93459 12.9811 1.87011C13.0456 1.80562 13.1222 1.75448 13.2064 1.71958C13.2907 1.68469 13.381 1.66674 13.4722 1.66675H17.6389ZM16.9444 5.65983V3.22925C16.9444 3.18321 16.9261 3.13906 16.8935 3.10651C16.861 3.07395 16.8168 3.05566 16.7708 3.05566H14.3402C14.2942 3.05566 14.25 3.07395 14.2175 3.10651C14.1849 3.13906 14.1666 3.18321 14.1666 3.22925V5.65983C14.1666 5.75566 14.2444 5.83342 14.3402 5.83342H16.7708C16.8168 5.83342 16.861 5.81513 16.8935 5.78257C16.9261 5.75002 16.9444 5.70587 16.9444 5.65983ZM8.61104 4.61816C8.47291 4.61816 8.34043 4.56329 8.24276 4.46562C8.14508 4.36794 8.09021 4.23547 8.09021 4.09733V2.36116C8.09021 2.22303 8.14508 2.09056 8.24276 1.99288C8.34043 1.8952 8.47291 1.84033 8.61104 1.84033C8.74918 1.84033 8.88165 1.8952 8.97933 1.99288C9.077 2.09056 9.13188 2.22303 9.13188 2.36116V3.40283C9.13188 3.49866 9.20963 3.5765 9.30554 3.5765C9.44368 3.5765 9.57615 3.63137 9.67383 3.72905C9.7715 3.82672 9.82638 3.9592 9.82638 4.09733C9.82638 4.23547 9.7715 4.36794 9.67383 4.46562C9.57615 4.56329 9.44368 4.61816 9.30554 4.61816H8.61104ZM10.6944 2.882C10.5562 2.882 10.4238 2.82712 10.3261 2.72945C10.2284 2.63177 10.1735 2.4993 10.1735 2.36116C10.1735 2.22303 10.2284 2.09056 10.3261 1.99288C10.4238 1.8952 10.5562 1.84033 10.6944 1.84033H11.3889C11.527 1.84033 11.6595 1.8952 11.7572 1.99288C11.8548 2.09056 11.9097 2.22303 11.9097 2.36116V6.87508C11.9097 7.01322 11.8548 7.14569 11.7572 7.24337C11.6595 7.34104 11.527 7.39592 11.3889 7.39592C11.2507 7.39592 11.1183 7.34104 11.0206 7.24337C10.9229 7.14569 10.868 7.01322 10.868 6.87508V3.05566C10.8681 3.03286 10.8636 3.01027 10.8548 2.98919C10.8461 2.96812 10.8333 2.94897 10.8172 2.93284C10.8011 2.91671 10.7819 2.90392 10.7608 2.8952C10.7398 2.88647 10.7172 2.88199 10.6944 2.882ZM5.65971 8.95842C5.65971 8.82028 5.71458 8.68781 5.81226 8.59013C5.90993 8.49245 6.04241 8.43758 6.18054 8.43758H7.91663C7.96266 8.43758 8.00681 8.41929 8.03937 8.38674C8.07192 8.35419 8.09021 8.31004 8.09021 8.264V6.18067C8.09021 6.04253 8.14508 5.91006 8.24276 5.81238C8.34043 5.7147 8.47291 5.65983 8.61104 5.65983C8.74918 5.65983 8.88165 5.7147 8.97933 5.81238C9.077 5.91006 9.13188 6.04253 9.13188 6.18067V8.95842C9.13188 9.09655 9.077 9.22902 8.97933 9.3267C8.88165 9.42438 8.74918 9.47925 8.61104 9.47925H6.18054C6.04241 9.47925 5.90993 9.42438 5.81226 9.3267C5.71458 9.22902 5.65971 9.09655 5.65971 8.95842ZM3.74996 8.43758C3.81836 8.43758 3.88608 8.45105 3.94927 8.47723C4.01246 8.5034 4.06988 8.54177 4.11824 8.59013C4.16661 8.63849 4.20497 8.69591 4.23115 8.7591C4.25732 8.82229 4.27079 8.89002 4.27079 8.95842V10.6945C4.27079 10.7903 4.34854 10.8682 4.44438 10.8682H10.6944C10.7172 10.8682 10.7398 10.8637 10.7608 10.855C10.7819 10.8462 10.8011 10.8335 10.8172 10.8173C10.8333 10.8012 10.8461 10.782 10.8548 10.761C10.8636 10.7399 10.8681 10.7173 10.868 10.6945V9.30567C10.868 9.16753 10.9229 9.03506 11.0206 8.93738C11.1183 8.8397 11.2507 8.78483 11.3889 8.78483C11.527 8.78483 11.6595 8.8397 11.7572 8.93738C11.8548 9.03506 11.9097 9.16753 11.9097 9.30567V11.389C11.9097 11.5271 11.8548 11.6596 11.7572 11.7573C11.6595 11.855 11.527 11.9098 11.3889 11.9098H2.36104C2.22291 11.9098 2.09043 11.855 1.99276 11.7573C1.89508 11.6596 1.84021 11.5271 1.84021 11.389C1.84021 11.2509 1.89508 11.1184 1.99276 11.0207C2.09043 10.923 2.22291 10.8682 2.36104 10.8682H3.05554C3.07834 10.8682 3.10092 10.8637 3.12199 10.8549C3.14305 10.8462 3.16219 10.8334 3.17831 10.8173C3.19443 10.8012 3.20722 10.782 3.21594 10.761C3.22466 10.7399 3.22914 10.7173 3.22913 10.6945V8.95842C3.22913 8.82028 3.284 8.68781 3.38167 8.59013C3.47935 8.49245 3.61183 8.43758 3.74996 8.43758ZM11.2152 13.4723C11.2152 13.6105 11.1603 13.7429 11.0627 13.8406C10.965 13.9383 10.8325 13.9932 10.6944 13.9932H9.30554C9.28274 13.9932 9.26016 13.9976 9.23909 14.0064C9.21802 14.0151 9.19887 14.0279 9.18275 14.044C9.16662 14.0601 9.15383 14.0792 9.1451 14.1003C9.13637 14.1214 9.13188 14.1439 9.13188 14.1667V16.2501C9.13188 16.3882 9.077 16.5207 8.97933 16.6184C8.88165 16.716 8.74918 16.7709 8.61104 16.7709C8.47291 16.7709 8.34043 16.716 8.24276 16.6184C8.14508 16.5207 8.09021 16.3882 8.09021 16.2501V13.4723C8.09021 13.3342 8.14508 13.2017 8.24276 13.104C8.34043 13.0064 8.47291 12.9515 8.61104 12.9515H10.6944C10.8325 12.9515 10.965 13.0064 11.0627 13.104C11.1603 13.2017 11.2152 13.3342 11.2152 13.4723ZM17.6389 17.1182C17.777 17.1182 17.9095 17.173 18.0072 17.2707C18.1048 17.3684 18.1597 17.5009 18.1597 17.639C18.1597 17.7771 18.1048 17.9096 18.0072 18.0073C17.9095 18.105 17.777 18.1598 17.6389 18.1598H11.0416C10.9035 18.1598 10.771 18.105 10.6733 18.0073C10.5757 17.9096 10.5208 17.7771 10.5208 17.639V15.5557C10.5208 15.4175 10.5757 15.2851 10.6733 15.1874C10.771 15.0897 10.9035 15.0348 11.0416 15.0348C11.1798 15.0348 11.3122 15.0897 11.4099 15.1874C11.5076 15.2851 11.5625 15.4175 11.5625 15.5557V16.9445C11.5625 17.0403 11.6402 17.1182 11.736 17.1182H17.6389ZM13.125 15.7292C12.9868 15.7292 12.8544 15.6744 12.7567 15.5767C12.659 15.479 12.6041 15.3465 12.6041 15.2084V13.1251C12.6041 12.9869 12.659 12.8545 12.7567 12.7568C12.8544 12.6591 12.9868 12.6042 13.125 12.6042H15.2083C15.3464 12.6042 15.4789 12.6591 15.5766 12.7568C15.6743 12.8545 15.7291 12.9869 15.7291 13.1251V15.2084C15.7291 15.3465 15.6743 15.479 15.5766 15.5767C15.4789 15.6744 15.3464 15.7292 15.2083 15.7292H13.125ZM13.6458 13.8195V14.514C13.6458 14.6098 13.7235 14.6876 13.8194 14.6876H14.5139C14.5599 14.6876 14.6041 14.6693 14.6366 14.6367C14.6692 14.6042 14.6875 14.56 14.6875 14.514V13.8195C14.6875 13.7735 14.6692 13.7293 14.6366 13.6968C14.6041 13.6642 14.5599 13.6459 14.5139 13.6459H13.8194C13.7733 13.6459 13.7292 13.6642 13.6966 13.6968C13.6641 13.7293 13.6458 13.7735 13.6458 13.8195ZM17.2916 10.5209C17.4298 10.5209 17.5622 10.5758 17.6599 10.6735C17.7576 10.7711 17.8125 10.9036 17.8125 11.0417V15.5557C17.8125 15.6938 17.7576 15.8263 17.6599 15.924C17.5622 16.0216 17.4298 16.0765 17.2916 16.0765C17.1535 16.0765 17.021 16.0216 16.9233 15.924C16.8257 15.8263 16.7708 15.6938 16.7708 15.5557V11.0417C16.7708 10.9036 16.8257 10.7711 16.9233 10.6735C17.021 10.5758 17.1535 10.5209 17.2916 10.5209ZM17.8125 8.61116C17.8125 8.7493 17.7576 8.88177 17.6599 8.97945C17.5622 9.07713 17.4298 9.132 17.2916 9.132H14.1666C14.1438 9.132 14.1212 9.13649 14.1002 9.14522C14.0791 9.15395 14.06 9.16674 14.0439 9.18287C14.0277 9.199 14.015 9.21814 14.0062 9.23921C13.9975 9.26028 13.993 9.28286 13.993 9.30567V10.6945C13.993 10.8326 13.9382 10.9651 13.8405 11.0628C13.7428 11.1605 13.6103 11.2153 13.4722 11.2153C13.3341 11.2153 13.2016 11.1605 13.1039 11.0628C13.0062 10.9651 12.9514 10.8326 12.9514 10.6945V8.61116C12.9514 8.47303 13.0062 8.34056 13.1039 8.24288C13.2016 8.14521 13.3341 8.09033 13.4722 8.09033H17.2916C17.4298 8.09033 17.5622 8.14521 17.6599 8.24288C17.7576 8.34056 17.8125 8.47303 17.8125 8.61116Z" />
</svg>