<!--character:6147-->
  <svg width="20" height="20" viewBox="0 0 20 20" >
<path d="M10.6248 10.775C10.6248 11.15 10.3748 11.4 9.99984 11.4C9.62484 11.4 9.37484 11.15 9.37484 10.775C9.37484 10.025 9.81296 9.3375 10.4998 9.025C11.1248 8.775 11.4373 8.025 11.1248 7.4C10.8755 6.775 10.1255 6.4625 9.50046 6.775C9.06234 6.9625 8.74984 7.4 8.74984 7.9C8.74984 8.275 8.49984 8.525 8.12484 8.525C7.74984 8.525 7.49984 8.275 7.49984 7.9C7.49984 6.525 8.62484 5.4 9.99984 5.4C11.3755 5.4 12.4998 6.525 12.4998 7.9C12.4998 8.9 11.9373 9.8375 10.9998 10.2125C10.7505 10.3375 10.6248 10.525 10.6248 10.775ZM8.9165 13.525C8.9165 12.9472 9.42278 12.4417 9.99984 12.4417C10.5776 12.4417 11.0832 12.9472 11.0832 13.525C11.0832 14.1028 10.5776 14.6083 9.99984 14.6083C9.42278 14.6083 8.9165 14.1028 8.9165 13.525ZM9.99984 1.66666C5.4165 1.66666 1.6665 5.41666 1.6665 10C1.6665 14.5833 5.4165 18.3333 9.99984 18.3333C14.5832 18.3333 18.3332 14.5833 18.3332 10C18.3332 5.41666 14.5832 1.66666 9.99984 1.66666Z" />
</svg>