<!--character:121:550:1154-->
<svg width="24" height="24" viewBox="0 0 24 24" xmlns="http://www.w3.org/2000/svg"><path d="M13.2 12.255c-.2992.15-.45.375-.45.675 0 .45-.3.75-.75.75s-.75-.3-.75-.75c0-.9.5258-1.725 1.35-2.1.75-.3 1.125-1.2.75-1.95-.2992-.75-1.1992-1.125-1.9492-.75-.5258.225-.9008.75-.9008 1.35 0 .45-.3.75-.75.75S9 9.93 9 9.48c0-1.65 1.35-3 3-3 1.6508 0 3 1.35 3 3 0 1.2-.675 2.325-1.8 2.775zM12 17.53c-.6925 0-1.3-.6067-1.3-1.3s.6075-1.3 1.3-1.3c.6933 0 1.3.6067 1.3 1.3s-.6067 1.3-1.3 1.3zM12 2C6.5 2 2 6.5 2 12s4.5 10 10 10 10-4.5 10-10S17.5 2 12 2"/></svg></svg>
