<!--character:1362-->
  <svg width="24" height="24" viewBox="0 0 24 24" >
<path d="M12.75 12.93C12.75 13.38 12.45 13.68 12 13.68C11.55 13.68 11.25 13.38 11.25 12.93C11.25 12.03 11.7758 11.205 12.6 10.83C13.35 10.53 13.725 9.63 13.35 8.88C13.0507 8.13 12.1508 7.755 11.4008 8.13C10.875 8.355 10.5 8.88 10.5 9.48C10.5 9.93 10.2 10.23 9.75 10.23C9.3 10.23 9 9.93 9 9.48C9 7.83 10.35 6.48 12 6.48C13.6508 6.48 15 7.83 15 9.48C15 10.68 14.325 11.805 13.2 12.255C12.9007 12.405 12.75 12.63 12.75 12.93ZM10.7 16.23C10.7 15.5366 11.3075 14.93 12 14.93C12.6933 14.93 13.3 15.5366 13.3 16.23C13.3 16.9233 12.6933 17.53 12 17.53C11.3075 17.53 10.7 16.9233 10.7 16.23ZM12 2C6.5 2 2 6.5 2 12C2 17.5 6.5 22 12 22C17.5 22 22 17.5 22 12C22 6.5 17.5 2 12 2Z" />
</svg>