<!--character:121:550:1154-->
  <svg width="24" height="24" viewBox="0 0 24 24" >
<path   d="M12.75 12.93C12.75 12.63 12.9007 12.405 13.2 12.255C14.325 11.805 15 10.68 15 9.48C15 7.83 13.6508 6.48 12 6.48C10.35 6.48 9 7.83 9 9.48C9 9.93 9.3 10.23 9.75 10.23C10.2 10.23 10.5 9.93 10.5 9.48C10.5 8.88 10.875 8.355 11.4008 8.13C12.1508 7.755 13.0507 8.13 13.35 8.88C13.725 9.63 13.35 10.53 12.6 10.83C11.7758 11.205 11.25 12.03 11.25 12.93C11.25 13.38 11.55 13.68 12 13.68C12.45 13.68 12.75 13.38 12.75 12.93ZM10.7 16.23C10.7 16.9233 11.3075 17.53 12 17.53C12.6933 17.53 13.3 16.9233 13.3 16.23C13.3 15.5366 12.6933 14.93 12 14.93C11.3075 14.93 10.7 15.5366 10.7 16.23ZM12 2C6.5 2 2 6.5 2 12C2 17.5 6.5 22 12 22C17.5 22 22 17.5 22 12C22 6.5 17.5 2 12 2Z" />
</svg>