<!--character:3024:2915-->
<svg width="24" height="24" viewBox="0 0 24 24">
  <path d="M12.7498 12.93C12.7498 13.38 12.4498 13.68 11.9998 13.68C11.5498 13.68 11.2498 13.38 11.2498 12.93C11.2498 12.03 11.7756 11.205 12.5998 10.83C13.3498 10.53 13.7248 9.63 13.3498 8.88C13.0506 8.13 12.1506 7.755 11.4006 8.13C10.8748 8.355 10.4998 8.88 10.4998 9.48C10.4998 9.93 10.1998 10.23 9.7498 10.23C9.2998 10.23 8.9998 9.93 8.9998 9.48C8.9998 7.83 10.3498 6.48 11.9998 6.48C13.6506 6.48 14.9998 7.83 14.9998 9.48C14.9998 10.68 14.3248 11.805 13.1998 12.255C12.9006 12.405 12.7498 12.63 12.7498 12.93ZM10.6998 16.23C10.6998 15.5367 11.3073 14.93 11.9998 14.93C12.6931 14.93 13.2998 15.5367 13.2998 16.23C13.2998 16.9233 12.6931 17.53 11.9998 17.53C11.3073 17.53 10.6998 16.9233 10.6998 16.23ZM11.9998 2C6.4998 2 1.9998 6.5 1.9998 12C1.9998 17.5 6.4998 22 11.9998 22C17.4998 22 21.9998 17.5 21.9998 12C21.9998 6.5 17.4998 2 11.9998 2Z" />
</svg>
