<!-- character:0:40 -->
  <svg width="20" height="20" viewBox="0 0 20 20" >
<path   d="M10.625 10.7751C10.625 10.5251 10.7506 10.3376 11 10.2126C11.9375 9.83758 12.5 8.90008 12.5 7.90008C12.5 6.52508 11.3756 5.40008 10 5.40008C8.62502 5.40008 7.50002 6.52508 7.50002 7.90008C7.50002 8.27508 7.75002 8.52508 8.12502 8.52508C8.50002 8.52508 8.75002 8.27508 8.75002 7.90008C8.75002 7.40008 9.06252 6.96258 9.50064 6.77508C10.1256 6.46258 10.8756 6.77508 11.125 7.40008C11.4375 8.02508 11.125 8.77508 10.5 9.02508C9.81314 9.33758 9.37502 10.0251 9.37502 10.7751C9.37502 11.1501 9.62502 11.4001 10 11.4001C10.375 11.4001 10.625 11.1501 10.625 10.7751ZM8.91669 13.5251C8.91669 14.1029 9.42296 14.6084 10 14.6084C10.5778 14.6084 11.0834 14.1029 11.0834 13.5251C11.0834 12.9473 10.5778 12.4417 10 12.4417C9.42296 12.4417 8.91669 12.9473 8.91669 13.5251ZM10 1.66675C5.41669 1.66675 1.66669 5.41675 1.66669 10.0001C1.66669 14.5834 5.41669 18.3334 10 18.3334C14.5834 18.3334 18.3334 14.5834 18.3334 10.0001C18.3334 5.41675 14.5834 1.66675 10 1.66675Z" />
</svg>