<!--character:2552-->
  <svg width="20" height="20" viewBox="0 0 20 20" >
<path d="M9.99984 1.66666C12.2395 1.66666 14.3401 2.55513 15.8924 4.10744C16.1396 4.35469 16.1396 4.75557 15.8924 5.00282C15.6451 5.25007 15.2443 5.25007 14.997 5.00282C13.6798 3.68563 11.9002 2.93292 9.99984 2.93292C6.0968 2.93292 2.93276 6.09696 2.93276 10C2.93276 13.903 6.0968 17.0671 9.99984 17.0671C13.9029 17.0671 17.0669 13.903 17.0669 10C17.0669 9.65033 17.3504 9.36687 17.7 9.36687C18.0497 9.36687 18.3332 9.65033 18.3332 10C18.3332 14.6024 14.6022 18.3333 9.99984 18.3333C5.39746 18.3333 1.6665 14.6024 1.6665 10C1.6665 5.39762 5.39746 1.66666 9.99984 1.66666Z" />
<path d="M9.99981 4.74672C11.4115 4.74672 12.736 5.30695 13.7144 6.28536C13.9617 6.53261 13.9617 6.93348 13.7144 7.18074C13.4672 7.42799 13.0663 7.42799 12.819 7.18074C12.0757 6.43744 11.0722 6.01297 9.99981 6.01297C7.79785 6.01297 6.01281 7.79801 6.01281 9.99997C6.01281 12.2019 7.79785 13.987 9.99981 13.987C12.2018 13.987 13.9868 12.2019 13.9868 9.99997C13.9868 9.6503 14.2703 9.36684 14.6199 9.36684C14.9696 9.36684 15.2531 9.6503 15.2531 9.99997C15.2531 12.9013 12.9011 15.2532 9.99981 15.2532C7.09852 15.2532 4.74656 12.9013 4.74656 9.99997C4.74656 7.09868 7.09852 4.74672 9.99981 4.74672Z" />
<path d="M9.99988 7.82677C8.79967 7.82677 7.82671 8.79973 7.82671 9.99994C7.82671 11.2001 8.79967 12.1731 9.99988 12.1731C11.2001 12.1731 12.173 11.2001 12.173 9.99994C12.173 8.79973 11.2001 7.82677 9.99988 7.82677ZM9.99988 9.09302C10.5007 9.09302 10.9068 9.49906 10.9068 9.99994C10.9068 10.5008 10.5007 10.9068 9.99988 10.9068C9.499 10.9068 9.09296 10.5008 9.09296 9.99994C9.09296 9.49906 9.499 9.09302 9.99988 9.09302Z" />
<path d="M16.0309 3.19552C16.2812 2.95132 16.682 2.95623 16.9262 3.2065C17.1501 3.4359 17.1646 3.79184 16.9727 4.03767L16.9152 4.10181L11.5262 9.36038C11.2759 9.60458 10.8751 9.59967 10.6309 9.34941C10.407 9.12 10.3925 8.76406 10.5844 8.51823L10.6418 8.4541L16.0309 3.19552Z" />
</svg>