<!--character:3024:2797-->
<svg width="24" height="24" viewBox="0 0 24 24">
  <path d="M11.9998 2C14.6874 2 17.2081 3.06616 19.0709 4.92893C19.3676 5.22563 19.3676 5.70668 19.0709 6.00338C18.7742 6.30009 18.2931 6.30009 17.9964 6.00338C16.4158 4.42275 14.2803 3.5195 11.9998 3.5195C7.31616 3.5195 3.51931 7.31635 3.51931 12C3.51931 16.6836 7.31616 20.4805 11.9998 20.4805C16.6835 20.4805 20.4803 16.6836 20.4803 12C20.4803 11.5804 20.8205 11.2402 21.2401 11.2402C21.6597 11.2402 21.9998 11.5804 21.9998 12C21.9998 17.5228 17.5227 22 11.9998 22C6.47696 22 1.9998 17.5228 1.9998 12C1.9998 6.47715 6.47696 2 11.9998 2Z" />
  <path d="M11.9998 5.69606C13.6938 5.69606 15.2832 6.36834 16.4573 7.54243C16.754 7.83913 16.754 8.32018 16.4573 8.61688C16.1606 8.91358 15.6795 8.91358 15.3828 8.61688C14.4909 7.72493 13.2866 7.21557 11.9998 7.21557C9.35742 7.21557 7.21537 9.35761 7.21537 12C7.21537 14.6423 9.35742 16.7844 11.9998 16.7844C14.6421 16.7844 16.7842 14.6423 16.7842 12C16.7842 11.5804 17.1243 11.2402 17.5439 11.2402C17.9635 11.2402 18.3037 11.5804 18.3037 12C18.3037 15.4815 15.4813 18.3039 11.9998 18.3039C8.51822 18.3039 5.69587 15.4815 5.69587 12C5.69587 8.51841 8.51822 5.69606 11.9998 5.69606Z" />
  <path d="M11.9999 9.39212C10.5596 9.39212 9.39205 10.5597 9.39205 11.9999C9.39205 13.4402 10.5596 14.6077 11.9999 14.6077C13.4401 14.6077 14.6077 13.4402 14.6077 11.9999C14.6077 10.5597 13.4401 9.39212 11.9999 9.39212ZM11.9999 10.9116C12.6009 10.9116 13.0881 11.3989 13.0881 11.9999C13.0881 12.601 12.6009 13.0882 11.9999 13.0882C11.3988 13.0882 10.9116 12.601 10.9116 11.9999C10.9116 11.3989 11.3988 10.9116 11.9999 10.9116Z" />
  <path d="M19.2371 3.83463C19.5374 3.54158 20.0184 3.54748 20.3115 3.84779C20.5801 4.12308 20.5975 4.55021 20.3672 4.8452L20.2983 4.92217L13.8314 11.2325C13.5311 11.5255 13.0501 11.5196 12.757 11.2193C12.4884 10.944 12.471 10.5169 12.7012 10.2219L12.7702 10.1449L19.2371 3.83463Z" />
</svg>
