<!--character:7558-->
  <svg width="24" height="24" viewBox="0 0 24 24" >
<path d="M11.9967 2.33008C14.5947 2.33008 17.0314 3.3607 18.8321 5.16138C19.1189 5.44819 19.1189 5.91321 18.8321 6.20002C18.5452 6.48683 18.0802 6.48683 17.7934 6.20002C16.2655 4.67208 14.2011 3.79894 11.9967 3.79894C7.46916 3.79894 3.79887 7.46922 3.79887 11.9967C3.79887 16.5243 7.46916 20.1946 11.9967 20.1946C16.5242 20.1946 20.1945 16.5243 20.1945 11.9967C20.1945 11.5911 20.5233 11.2623 20.9289 11.2623C21.3345 11.2623 21.6633 11.5911 21.6633 11.9967C21.6633 17.3355 17.3354 21.6634 11.9967 21.6634C6.65793 21.6634 2.33002 17.3355 2.33002 11.9967C2.33002 6.65799 6.65793 2.33008 11.9967 2.33008Z" />
<path d="M11.9966 5.90293C13.6342 5.90293 15.1706 6.55281 16.3056 7.68776C16.5924 7.97457 16.5924 8.43958 16.3056 8.7264C16.0188 9.01321 15.5538 9.01321 15.267 8.7264C14.4047 7.86418 13.2406 7.37179 11.9966 7.37179C9.44237 7.37179 7.37173 9.44243 7.37173 11.9967C7.37173 14.551 9.44237 16.6216 11.9966 16.6216C14.5509 16.6216 16.6216 14.551 16.6216 11.9967C16.6216 11.5911 16.9504 11.2623 17.356 11.2623C17.7616 11.2623 18.0904 11.5911 18.0904 11.9967C18.0904 15.3622 15.3621 18.0905 11.9966 18.0905C8.63115 18.0905 5.90287 15.3622 5.90287 11.9967C5.90287 8.63121 8.63115 5.90293 11.9966 5.90293Z" />
<path d="M11.9967 9.47579C10.6045 9.47579 9.47584 10.6044 9.47584 11.9967C9.47584 13.3889 10.6045 14.5175 11.9967 14.5175C13.389 14.5175 14.5176 13.3889 14.5176 11.9967C14.5176 10.6044 13.389 9.47579 11.9967 9.47579ZM11.9967 10.9446C12.5777 10.9446 13.0487 11.4156 13.0487 11.9967C13.0487 12.5777 12.5777 13.0487 11.9967 13.0487C11.4157 13.0487 10.9447 12.5777 10.9447 11.9967C10.9447 11.4156 11.4157 10.9446 11.9967 10.9446Z" />
<path d="M18.9927 4.10355C19.283 3.82028 19.748 3.82598 20.0313 4.11628C20.291 4.3824 20.3078 4.79529 20.0852 5.08045L20.0186 5.15484L13.7672 11.2548C13.4769 11.5381 13.0119 11.5324 12.7287 11.2421C12.469 10.9759 12.4521 10.5631 12.6748 10.2779L12.7414 10.2035L18.9927 4.10355Z" />
</svg>