<!-- character:212:44 -->
  <svg width="20" height="20" viewBox="0 0 20 20" >
<path d="M10 1.66675C12.2397 1.66675 14.3403 2.55522 15.8926 4.10753C16.1398 4.35478 16.1398 4.75565 15.8926 5.0029C15.6453 5.25016 15.2445 5.25016 14.9972 5.0029C13.68 3.68571 11.9004 2.933 10 2.933C6.09698 2.933 2.93294 6.09704 2.93294 10.0001C2.93294 13.9031 6.09698 17.0672 10 17.0672C13.9031 17.0672 17.0671 13.9031 17.0671 10.0001C17.0671 9.65042 17.3506 9.36695 17.7002 9.36695C18.0499 9.36695 18.3334 9.65042 18.3334 10.0001C18.3334 14.6025 14.6024 18.3334 10 18.3334C5.39765 18.3334 1.66669 14.6025 1.66669 10.0001C1.66669 5.39771 5.39765 1.66675 10 1.66675Z" />
<path d="M9.99999 4.7468C11.4116 4.7468 12.7362 5.30703 13.7146 6.28544C13.9619 6.53269 13.9619 6.93357 13.7146 7.18082C13.4673 7.42807 13.0665 7.42807 12.8192 7.18082C12.0759 6.43753 11.0724 6.01306 9.99999 6.01306C7.79803 6.01306 6.01299 7.79809 6.01299 10.0001C6.01299 12.202 7.79803 13.987 9.99999 13.987C12.2019 13.987 13.987 12.202 13.987 10.0001C13.987 9.65038 14.2704 9.36692 14.6201 9.36692C14.9698 9.36692 15.2532 9.65038 15.2532 10.0001C15.2532 12.9013 12.9013 15.2533 9.99999 15.2533C7.0987 15.2533 4.74674 12.9013 4.74674 10.0001C4.74674 7.09876 7.0987 4.7468 9.99999 4.7468Z" />
<path d="M10.0001 7.82685C8.79985 7.82685 7.82689 8.79981 7.82689 10C7.82689 11.2002 8.79985 12.1732 10.0001 12.1732C11.2003 12.1732 12.1732 11.2002 12.1732 10C12.1732 8.79981 11.2003 7.82685 10.0001 7.82685ZM10.0001 9.09311C10.5009 9.09311 10.907 9.49915 10.907 10C10.907 10.5009 10.5009 10.9069 10.0001 10.9069C9.49918 10.9069 9.09315 10.5009 9.09315 10C9.09315 9.49915 9.49918 9.09311 10.0001 9.09311Z" />
<path d="M16.0311 3.19561C16.2813 2.9514 16.6822 2.95632 16.9264 3.20658C17.1503 3.43599 17.1648 3.79193 16.9729 4.03775L16.9154 4.10189L11.5263 9.36046C11.2761 9.60467 10.8752 9.59975 10.631 9.34949C10.4072 9.12008 10.3927 8.76414 10.5846 8.51832L10.642 8.45418L16.0311 3.19561Z" />
</svg>