<!-- character:0:1521 -->
  <svg width="20" height="20" viewBox="0 0 20 20" >
<path   d="M9.18258 15.4629C8.95982 15.1511 8.52664 15.0787 8.21461 15.3011L8.19378 15.3184C8.14122 15.3559 8.07223 15.3611 8.01466 15.3319C7.95709 15.3028 7.92044 15.2441 7.9195 15.1796V6.28945C7.91941 6.17734 7.97346 6.07209 8.06463 6.00684L11.1199 3.82718C11.1725 3.78975 11.2414 3.78456 11.299 3.81371C11.3566 3.84286 11.3932 3.90154 11.3942 3.96606V7.91638C11.3942 8.29987 11.7051 8.61076 12.0885 8.61076C12.472 8.61076 12.7829 8.29987 12.7829 7.91638V3.96814C12.7839 3.90362 12.8205 3.84494 12.8781 3.81579C12.9357 3.78664 13.0046 3.79183 13.0572 3.82927L16.1125 6.00892C16.1996 6.07566 16.2501 6.17968 16.2486 6.28945V9.39957C16.2486 9.78306 16.5595 10.0939 16.9429 10.0939C17.3264 10.0939 17.6373 9.78306 17.6373 9.39957V5.93254C17.6367 5.59625 17.4745 5.28076 17.2013 5.0847L12.6878 1.86071C12.3256 1.60193 11.839 1.60193 11.4768 1.86071L7.44941 4.7389C7.32427 4.82924 7.15452 4.82613 7.03278 4.73127L3.35188 1.88987C3.0384 1.64345 2.61174 1.59762 2.25307 1.77185C1.89441 1.94609 1.6667 2.3098 1.66663 2.70854V13.0451C1.66717 13.3728 1.82141 13.6812 2.08325 13.8783L6.60088 17.2683C6.96431 17.5404 7.46213 17.5457 7.83132 17.2815L9.02079 16.4322C9.1709 16.3252 9.27231 16.1629 9.30266 15.9811C9.33301 15.7993 9.28981 15.6128 9.18258 15.4629ZM3.05538 3.76886C3.05538 3.7031 3.09253 3.64299 3.15134 3.61359C3.21015 3.58418 3.28053 3.59053 3.33313 3.62998L6.3884 5.99087C6.47582 6.05644 6.52727 6.15934 6.52727 6.26862V15.1282C6.52727 15.1939 6.49012 15.2541 6.43131 15.2835C6.3725 15.3129 6.30212 15.3065 6.24952 15.2671L3.19426 12.9756C3.10683 12.9101 3.05538 12.8071 3.05538 12.6979V3.76886ZM18.1283 18.1286C18.3993 17.8574 18.3993 17.4179 18.1283 17.1467L16.4659 15.4851C16.3538 15.3731 16.3318 15.1994 16.4124 15.0629C17.3912 13.4036 16.9834 11.2753 15.4605 10.0954C13.9376 8.91555 11.7749 9.05223 10.4127 10.4145C9.05049 11.7767 8.91382 13.9394 10.0937 15.4622C11.2736 16.9851 13.4019 17.393 15.0612 16.4142C15.1975 16.3334 15.3712 16.3551 15.4834 16.467L17.1464 18.13C17.4176 18.4011 17.8571 18.4011 18.1283 18.13V18.1286ZM10.6935 13.1242C10.6935 12.1412 11.2857 11.2551 12.1938 10.8789C13.102 10.5027 14.1473 10.7106 14.8424 11.4057C15.5374 12.1008 15.7454 13.1461 15.3692 14.0543C14.993 14.9624 14.1068 15.5545 13.1239 15.5545C11.7816 15.5545 10.6935 14.4664 10.6935 13.1242Z" />
</svg>