<!--character:77:550:1219-->
  <svg width="24" height="24" viewBox="0 0 24 24" >
<path d="M11.0191 18.5555C10.7518 18.1814 10.232 18.0945 9.85758 18.3614L9.83259 18.3822C9.76951 18.4271 9.68673 18.4333 9.61764 18.3984C9.54856 18.3634 9.50458 18.293 9.50345 18.2155V7.54739C9.50334 7.41286 9.5682 7.28655 9.6776 7.20825L13.3439 4.59267C13.407 4.54775 13.4898 4.54152 13.5589 4.5765C13.6279 4.61148 13.6719 4.68189 13.6731 4.75932V9.4997C13.6731 9.9599 14.0461 10.333 14.5063 10.333C14.9665 10.333 15.3396 9.9599 15.3396 9.4997V4.76182C15.3407 4.68439 15.3847 4.61398 15.4538 4.579C15.5228 4.54402 15.6056 4.55025 15.6687 4.59517L19.335 7.21075C19.4396 7.29084 19.5002 7.41567 19.4983 7.54739V11.2795C19.4983 11.7397 19.8714 12.1128 20.3316 12.1128C20.7918 12.1128 21.1648 11.7397 21.1648 11.2795V7.1191C21.1641 6.71555 20.9694 6.33696 20.6416 6.10169L15.2254 2.2329C14.7908 1.92237 14.2068 1.92237 13.7722 2.2329L8.93934 5.68673C8.78917 5.79514 8.58547 5.79141 8.43939 5.67757L4.02231 2.26789C3.64613 1.97218 3.13414 1.91719 2.70374 2.12627C2.27334 2.33535 2.00009 2.77181 2 3.2503V15.6541C2.00065 16.0474 2.18574 16.4175 2.49995 16.654L7.9211 20.722C8.35723 21.0485 8.9546 21.0549 9.39763 20.7378L10.825 19.7187C11.0051 19.5903 11.1268 19.3956 11.1632 19.1774C11.1997 18.9592 11.1478 18.7354 11.0191 18.5555ZM3.66651 4.5227C3.66651 4.4438 3.71109 4.37167 3.78166 4.33638C3.85223 4.30109 3.93669 4.30871 3.99981 4.35605L7.66613 7.18911C7.77103 7.26779 7.83278 7.39128 7.83278 7.52241V18.1539C7.83278 18.2328 7.7882 18.3049 7.71762 18.3402C7.64705 18.3755 7.5626 18.3679 7.49947 18.3206L3.83316 15.5708C3.72825 15.4921 3.66651 15.3686 3.66651 15.2375V4.5227Z" />
<path d="M21.7539 21.7544C22.0792 21.429 22.0792 20.9015 21.7539 20.5761L19.7591 18.5822C19.6246 18.4477 19.5982 18.2393 19.695 18.0755C20.8695 16.0844 20.3801 13.5305 18.5527 12.1146C16.7252 10.6987 14.13 10.8627 12.4953 12.4974C10.8606 14.1321 10.6966 16.7273 12.1125 18.5547C13.5284 20.3822 16.0823 20.8716 18.0735 19.6971C18.237 19.6001 18.4454 19.6262 18.5801 19.7604L20.5757 21.756C20.9011 22.0813 21.4286 22.0813 21.7539 21.756V21.7544ZM12.8323 15.7491C12.8323 14.5695 13.5428 13.5061 14.6326 13.0547C15.7224 12.6033 16.9768 12.8528 17.8109 13.6869C18.645 14.521 18.8945 15.7754 18.4431 16.8651C17.9917 17.9549 16.9283 18.6655 15.7487 18.6655C14.138 18.6655 12.8323 17.3598 12.8323 15.7491Z" />
</svg>