<!--character:1162-->
  <svg width="20" height="20" viewBox="0 0 20 20" >
<path d="M9.18294 15.4629C8.96019 15.1512 8.52701 15.0788 8.21498 15.3011L8.19415 15.3185C8.14159 15.3559 8.0726 15.3611 8.01503 15.332C7.95746 15.3028 7.92081 15.2441 7.91987 15.1796V6.28949C7.91978 6.17738 7.97383 6.07212 8.06499 6.00688L11.1203 3.82722C11.1728 3.78979 11.2418 3.7846 11.2994 3.81375C11.3569 3.8429 11.3936 3.90158 11.3945 3.9661V7.91642C11.3945 8.29991 11.7054 8.61079 12.0889 8.61079C12.4724 8.61079 12.7833 8.29991 12.7833 7.91642V3.96818C12.7842 3.90366 12.8209 3.84498 12.8785 3.81583C12.936 3.78668 13.005 3.79187 13.0576 3.82931L16.1128 6.00896C16.2 6.07569 16.2505 6.17972 16.2489 6.28949V9.39961C16.2489 9.7831 16.5598 10.094 16.9433 10.094C17.3268 10.094 17.6377 9.7831 17.6377 9.39961V5.93258C17.6371 5.59629 17.4748 5.2808 17.2016 5.08474L12.6882 1.86074C12.326 1.60197 11.8394 1.60197 11.4772 1.86074L7.44977 4.73894C7.32464 4.82928 7.15489 4.82617 7.03315 4.7313L3.35225 1.88991C3.03876 1.64348 2.6121 1.59766 2.25344 1.77189C1.89478 1.94613 1.66706 2.30984 1.66699 2.70858V13.0451C1.66754 13.3728 1.82178 13.6813 2.08362 13.8783L6.60124 17.2683C6.96468 17.5404 7.46249 17.5457 7.83168 17.2815L9.02115 16.4323C9.17127 16.3253 9.27268 16.163 9.30303 15.9811C9.33338 15.7993 9.29017 15.6129 9.18294 15.4629ZM3.05575 3.7689C3.05575 3.70314 3.0929 3.64303 3.15171 3.61363C3.21052 3.58422 3.2809 3.59057 3.3335 3.63002L6.38876 5.99091C6.47619 6.05647 6.52764 6.15938 6.52764 6.26866V15.1282C6.52764 15.194 6.49049 15.2541 6.43168 15.2835C6.37287 15.3129 6.30249 15.3066 6.24989 15.2671L3.19462 12.9757C3.1072 12.9101 3.05575 12.8072 3.05575 12.6979V3.7689Z" />
<path d="M18.1286 18.1286C18.3997 17.8575 18.3997 17.4179 18.1286 17.1468L16.4663 15.4851C16.3542 15.3731 16.3322 15.1994 16.4128 15.063C17.3916 13.4037 16.9838 11.2754 15.4609 10.0955C13.938 8.91559 11.7753 9.05227 10.4131 10.4145C9.05086 11.7767 8.91418 13.9394 10.0941 15.4623C11.274 16.9852 13.4022 17.393 15.0615 16.4142C15.1978 16.3334 15.3715 16.3551 15.4837 16.467L17.1468 18.13C17.4179 18.4011 17.8575 18.4011 18.1286 18.13V18.1286ZM10.6939 13.1243C10.6939 12.1413 11.286 11.2551 12.1942 10.8789C13.1023 10.5028 14.1477 10.7107 14.8427 11.4058C15.5378 12.1008 15.7457 13.1461 15.3696 14.0543C14.9934 14.9624 14.1072 15.5546 13.1242 15.5546C11.782 15.5546 10.6939 14.4665 10.6939 13.1243Z" />
</svg>