<!--category:travel-->
<!--character:0064-->
<!--added:0.11-->
<svg width="24" height="24" viewBox="0 0 24 24" xmlns="http://www.w3.org/2000/svg"><path d="M11.0191 18.5555a.8333.8333 0 0 1-.1941 1.1632l-1.4274 1.0191a1.2499 1.2499 0 0 1-1.4765-.0158L2.5 16.654a1.254 1.254 0 0 1-.5-.9999V3.2503a1.2497 1.2497 0 0 1 2.0223-.9824l4.417 3.4097a.4166.4166 0 0 0 .5.0091l4.833-3.4538a1.2499 1.2499 0 0 1 1.4531 0l5.4162 3.8688c.3278.2353.5225.6139.5232 1.0174v4.1604a.8333.8333 0 0 1-1.6665 0V7.5474a.4166.4166 0 0 0-.1633-.3366l-3.6663-2.6156a.2083.2083 0 0 0-.3291.1666v4.7379a.8333.8333 0 0 1-1.6665 0V4.7593a.2083.2083 0 0 0-.3292-.1666L9.6776 7.2083a.4166.4166 0 0 0-.1741.339v10.6682a.2083.2083 0 0 0 .329.1667l.025-.0208a.8333.8333 0 0 1 1.1616.1941zM3.6665 4.5227v10.7148c0 .1311.0617.2546.1667.3333l3.6663 2.7497a.2083.2083 0 0 0 .3333-.1666V7.5224a.4166.4166 0 0 0-.1667-.3333L3.9998 4.356a.2083.2083 0 0 0-.3333.1666zM21.754 21.7544v.0016a.8333.8333 0 0 1-1.1783 0l-1.9956-1.9956a.4166.4166 0 0 0-.5066-.0633c-1.9912 1.1745-4.5451.685-5.961-1.1424-1.4159-1.8274-1.2519-4.4226.3828-6.0573 1.6347-1.6347 4.2299-1.7987 6.0574-.3828 1.8274 1.4159 2.3168 3.9698 1.1423 5.961a.4166.4166 0 0 0 .0641.5066l1.9948 1.994a.8333.8333 0 0 1 0 1.1782zm-8.9217-6.0053c0 1.6107 1.3057 2.9164 2.9164 2.9164a2.9164 2.9164 0 1 0-2.9164-2.9164z"/></svg>