<!--character:3024:2785-->
<svg width="24" height="24" viewBox="0 0 24 24">
  <path d="M11.0195 18.5555C10.7522 18.1814 10.2324 18.0945 9.85797 18.3614L9.83298 18.3822C9.7699 18.4271 9.68712 18.4333 9.61803 18.3984C9.54895 18.3634 9.50497 18.293 9.50384 18.2155V7.54739C9.50373 7.41285 9.56859 7.28655 9.67799 7.20825L13.3443 4.59267C13.4074 4.54775 13.4902 4.54152 13.5593 4.5765C13.6283 4.61148 13.6723 4.68189 13.6734 4.75932V9.4997C13.6734 9.95989 14.0465 10.333 14.5067 10.333C14.9669 10.333 15.34 9.95989 15.34 9.4997V4.76182C15.3411 4.68439 15.3851 4.61398 15.4541 4.579C15.5232 4.54402 15.606 4.55025 15.6691 4.59517L19.3354 7.21075C19.44 7.29083 19.5006 7.41566 19.4987 7.54739V11.2795C19.4987 11.7397 19.8718 12.1128 20.332 12.1128C20.7922 12.1128 21.1652 11.7397 21.1652 11.2795V7.11909C21.1645 6.71555 20.9698 6.33696 20.6419 6.10169L15.2258 2.23289C14.7912 1.92236 14.2072 1.92236 13.7726 2.23289L8.93973 5.68673C8.78956 5.79514 8.58587 5.7914 8.43978 5.67756L4.0227 2.26789C3.64652 1.97218 3.13453 1.91719 2.70413 2.12627C2.27373 2.33535 2.00048 2.7718 2.00039 3.2503V15.6541C2.00104 16.0474 2.18613 16.4175 2.50034 16.654L7.92149 20.722C8.35762 21.0485 8.95499 21.0549 9.39802 20.7378L10.8254 19.7187C11.0055 19.5903 11.1272 19.3956 11.1636 19.1774C11.2001 18.9592 11.1482 18.7354 11.0195 18.5555ZM3.6669 4.52267C3.6669 4.44377 3.71148 4.37164 3.78205 4.33635C3.85262 4.30107 3.93708 4.30868 4.0002 4.35602L7.66652 7.18909C7.77143 7.26777 7.83317 7.39125 7.83317 7.52239V18.1539C7.83317 18.2328 7.78859 18.3049 7.71801 18.3402C7.64744 18.3755 7.56299 18.3679 7.49987 18.3205L3.83355 15.5708C3.72864 15.4921 3.6669 15.3686 3.6669 15.2375V4.52267Z" />
  <path d="M21.7543 21.7544C22.0796 21.429 22.0796 20.9015 21.7543 20.5761L19.7595 18.5822C19.625 18.4477 19.5986 18.2393 19.6954 18.0755C20.8699 16.0844 20.3805 13.5305 18.553 12.1146C16.7256 10.6987 14.1304 10.8627 12.4957 12.4974C10.861 14.1321 10.697 16.7273 12.1129 18.5547C13.5288 20.3822 16.0827 20.8716 18.0739 19.6971C18.2374 19.6001 18.4458 19.6262 18.5805 19.7604L20.5761 21.756C20.9015 22.0813 21.429 22.0813 21.7543 21.756V21.7544ZM12.8327 15.7491C12.8327 14.5695 13.5432 13.5061 14.633 13.0547C15.7228 12.6033 16.9772 12.8528 17.8113 13.6869C18.6454 14.521 18.8949 15.7754 18.4435 16.8652C17.9921 17.9549 16.9286 18.6655 15.7491 18.6655C14.1384 18.6655 12.8327 17.3598 12.8327 15.7491Z" />
</svg>
