<!--character:1100-->
  <svg width="29" height="29" viewBox="0 0 29 29" >
<path   d="M25.3955 12.5322C25.9941 12.4835 26.5189 12.9293 26.5676 13.528C26.7984 16.3657 26.0216 19.1939 24.3738 21.5156C22.7259 23.8374 20.3125 25.504 17.5577 26.2227C14.8028 26.9414 11.8828 26.666 9.31077 25.4451C6.73877 24.2242 4.67939 22.1359 3.49455 19.5471C3.2446 19.0009 3.4847 18.3556 4.03083 18.1056C4.57696 17.8557 5.22231 18.0958 5.47226 18.6419C6.44422 20.7656 8.13359 22.4787 10.2435 23.4803C12.3534 24.4818 14.7487 24.7077 17.0086 24.1181C19.2685 23.5286 21.2483 22.1614 22.6001 20.2568C23.9518 18.3522 24.589 16.0321 24.3997 13.7043C24.351 13.1056 24.7969 12.5809 25.3955 12.5322Z" />
<path   d="M18.9367 5.60693C16.9086 4.59414 14.5951 4.3057 12.3804 4.78954C10.1658 5.27338 8.18332 6.50037 6.76242 8.26667C5.34151 10.033 4.56769 12.2322 4.5695 14.4991C4.56998 15.0997 4.08348 15.587 3.48287 15.5875C2.88226 15.588 2.39498 15.1015 2.3945 14.5009C2.39229 11.7375 3.3356 9.05651 5.06772 6.90335C6.79983 4.7502 9.21649 3.25447 11.9162 2.66466C14.6159 2.07485 17.4362 2.42646 19.9084 3.66108C22.3807 4.8957 24.3561 6.93901 25.5065 9.45154C25.7566 9.99763 25.5166 10.643 24.9705 10.8931C24.4244 11.1431 23.779 10.9031 23.529 10.357C22.5852 8.29591 20.9647 6.61973 18.9367 5.60693Z" />
<path   d="M24.749 12.5493C25.1737 12.1246 25.8622 12.1246 26.2869 12.5493L28.6504 14.9128C29.0751 15.3375 29.0751 16.026 28.6504 16.4507C28.2257 16.8754 27.5372 16.8754 27.1125 16.4507L25.5179 14.8562L23.9234 16.4507C23.4987 16.8754 22.8101 16.8754 22.3854 16.4507C21.9607 16.026 21.9607 15.3375 22.3854 14.9128L24.749 12.5493Z" />
<path   d="M4.25097 16.4507C3.82628 16.8754 3.13771 16.8754 2.71302 16.4507L0.349497 14.0872C-0.0751985 13.6625 -0.0751985 12.974 0.349497 12.5493C0.774192 12.1246 1.46276 12.1246 1.88745 12.5493L3.482 14.1438L5.07654 12.5493C5.50123 12.1246 6.1898 12.1246 6.61449 12.5493C7.03919 12.974 7.03919 13.6625 6.61449 14.0872L4.25097 16.4507Z" />
<path   d="M18.6415 8.9694C19.122 9.32976 19.2194 10.0114 18.859 10.4919L12.7991 18.5717C12.4387 19.0522 11.7571 19.1496 11.2766 18.7892C10.7961 18.4289 10.6987 17.7472 11.0591 17.2667L17.119 9.1869C17.4794 8.70641 18.161 8.60903 18.6415 8.9694Z" />
<path   d="M9.96083 11.2094C10.117 10.6294 10.7137 10.2858 11.2937 10.442L16.0681 11.7274C16.3378 11.8 16.5691 11.9736 16.7143 12.2121L19.2852 16.4356C19.5975 16.9487 19.4347 17.6177 18.9217 17.93C18.4087 18.2423 17.7396 18.0796 17.4273 17.5665L15.0826 13.7145L10.7282 12.5422C10.1483 12.3861 9.80469 11.7893 9.96083 11.2094Z" />
<path   d="M8.8392 17.3574C8.94664 16.7665 9.51278 16.3746 10.1037 16.482L12.1237 16.8493C12.4604 16.9105 12.7487 17.1267 12.9018 17.4329L13.82 19.2692C14.0886 19.8064 13.8708 20.4597 13.3336 20.7283C12.7964 20.9969 12.1432 20.7791 11.8746 20.2419L11.1996 18.8919L9.71462 18.6219C9.1237 18.5145 8.73176 17.9484 8.8392 17.3574Z" />
</svg>