<!--character:8789-->
  <svg width="29" height="29" viewBox="0 0 29 29" >
<path d="M18.9367 5.60694C16.9086 4.59414 14.5951 4.3057 12.3804 4.78954C10.1658 5.27338 8.18332 6.50037 6.76242 8.26667C5.6719 9.62226 4.96254 11.2329 4.69243 12.9334L5.07654 12.5493C5.50123 12.1246 6.1898 12.1246 6.61449 12.5493C7.03919 12.974 7.03919 13.6625 6.61449 14.0872L4.25097 16.4507C3.82628 16.8754 3.13771 16.8754 2.71302 16.4507L0.349497 14.0872C-0.0751985 13.6625 -0.0751985 12.974 0.349497 12.5493C0.774192 12.1246 1.46276 12.1246 1.88745 12.5493L2.47094 13.1327C2.72742 10.8614 3.6233 8.69888 5.06772 6.90336C6.79983 4.7502 9.21649 3.25447 11.9162 2.66466C14.6159 2.07485 17.4362 2.42646 19.9084 3.66108C21.2774 4.34475 22.4941 5.27639 23.5027 6.39836L21.9621 7.93897C21.1199 6.97989 20.0947 6.18526 18.9367 5.60694Z" />
<path d="M17.2086 12.6924L18.859 10.4919C19.2194 10.0114 19.122 9.32977 18.6415 8.9694C18.161 8.60904 17.4794 8.70641 17.119 9.1869L15.3572 11.536L11.2937 10.442C10.7137 10.2858 10.117 10.6294 9.96083 11.2094C9.80469 11.7893 10.1483 12.3861 10.7282 12.5422L13.9516 13.41L11.4624 16.7291L10.1037 16.482C9.51278 16.3746 8.94664 16.7665 8.8392 17.3574C8.73176 17.9484 9.1237 18.5145 9.71462 18.6219L11.0384 18.8626L17.2086 12.6924Z" />
<path d="M7.93907 21.962C6.90046 21.0473 6.05667 19.9188 5.47226 18.6419C5.22231 18.0958 4.57696 17.8557 4.03083 18.1056C3.4847 18.3556 3.2446 19.0009 3.49455 19.5471C4.18753 21.0612 5.17968 22.4041 6.39858 23.5025L7.93907 21.962Z" />
<path d="M8.15778 24.8192L9.7487 23.2282C9.91087 23.3166 10.0758 23.4007 10.2435 23.4803C12.3534 24.4818 14.7487 24.7077 17.0086 24.1181C19.2685 23.5286 21.2483 22.1614 22.6001 20.2568C23.4914 19.0009 24.072 17.5645 24.3099 16.0642L23.9234 16.4507C23.4987 16.8754 22.8101 16.8754 22.3854 16.4507C21.9607 16.026 21.9607 15.3375 22.3854 14.9128L24.749 12.5493C25.1737 12.1246 25.8622 12.1246 26.2869 12.5493L28.6504 14.9128C29.0751 15.3375 29.0751 16.026 28.6504 16.4507C28.2257 16.8754 27.5372 16.8754 27.1125 16.4507L26.5308 15.8691C26.3022 17.8909 25.566 19.8358 24.3738 21.5156C22.7259 23.8374 20.3125 25.504 17.5577 26.2227C14.8028 26.9414 11.8828 26.666 9.31077 25.4451C8.91378 25.2567 8.52901 25.0476 8.15778 24.8192Z" />
<path d="M12.2883 20.6886L13.7826 19.1944L13.82 19.2692C14.0886 19.8064 13.8708 20.4597 13.3336 20.7283C12.9889 20.9006 12.5963 20.8727 12.2883 20.6886Z" />
<path d="M16.6642 16.3128L18.247 14.73L19.2852 16.4356C19.5975 16.9487 19.4347 17.6177 18.9217 17.93C18.4087 18.2423 17.7396 18.0796 17.4273 17.5665L16.6642 16.3128Z" />
<path d="M23.226 9.75091L24.8175 8.15943C25.072 8.57408 25.3023 9.00541 25.5065 9.45155C25.7566 9.99763 25.5166 10.643 24.9705 10.8931C24.4244 11.1431 23.779 10.9031 23.529 10.357C23.4347 10.151 23.3336 9.94892 23.226 9.75091Z" />
<path   d="M2.72382 25.672C2.29912 25.2473 2.29912 24.5587 2.72382 24.134L24.7381 2.11971C25.1628 1.69501 25.8514 1.69501 26.2761 2.11971C26.7008 2.5444 26.7008 3.23297 26.2761 3.65766L4.26177 25.672C3.83708 26.0967 3.14851 26.0967 2.72382 25.672Z" />
</svg>