<!--character:7002-->
  <svg width="24" height="24" viewBox="0 0 24 24" >
<path   d="M21.017 10.3715C21.5124 10.3312 21.9467 10.7001 21.987 11.1955C22.1779 13.544 21.5351 15.8846 20.1714 17.806C18.8077 19.7275 16.8104 21.1068 14.5305 21.7015C12.2506 22.2963 9.83401 22.0685 7.70546 21.058C5.57691 20.0476 3.8726 18.3193 2.89204 16.1769C2.68519 15.7249 2.88389 15.1908 3.33586 14.984C3.78783 14.7771 4.32191 14.9758 4.52877 15.4278C5.33315 17.1853 6.73125 18.6031 8.47736 19.432C10.2235 20.2608 12.2058 20.4477 14.0761 19.9598C15.9464 19.4719 17.5848 18.3404 18.7035 16.7642C19.8222 15.188 20.3496 13.2679 20.1929 11.3415C20.1526 10.846 20.5215 10.4118 21.017 10.3715Z" />
<path   d="M15.6717 4.64022C13.9933 3.80204 12.0787 3.56334 10.2459 3.96376C8.41306 4.36417 6.77241 5.37961 5.59648 6.84138C4.42056 8.30314 3.78015 10.1232 3.78166 11.9993C3.78205 12.4963 3.37943 12.8996 2.88238 12.9C2.38532 12.9004 1.98205 12.4978 1.98166 12.0007C1.97982 9.71377 2.76049 7.49504 4.19397 5.71312C5.62745 3.9312 7.62744 2.69335 9.86169 2.20523C12.0959 1.71711 14.4299 2.0081 16.4759 3.02986C18.5219 4.05161 20.1568 5.74263 21.1088 7.82197C21.3158 8.2739 21.1172 8.80802 20.6652 9.01494C20.2133 9.22187 19.6792 9.02326 19.4722 8.57132C18.6912 6.86558 17.3501 5.47839 15.6717 4.64022Z" />
<path   d="M20.4819 10.3856C20.8334 10.0341 21.4032 10.0341 21.7547 10.3856L23.7107 12.3416C24.0622 12.6931 24.0622 13.2629 23.7107 13.6144C23.3592 13.9659 22.7894 13.9659 22.4379 13.6144L21.1183 12.2948L19.7987 13.6144C19.4472 13.9659 18.8773 13.9659 18.5259 13.6144C18.1744 13.2629 18.1744 12.6931 18.5259 12.3416L20.4819 10.3856Z" />
<path   d="M3.51805 13.6144C3.16658 13.9659 2.59673 13.9659 2.24526 13.6144L0.289239 11.6584C-0.0622332 11.3069 -0.0622332 10.7371 0.289239 10.3856C0.640711 10.0341 1.21056 10.0341 1.56203 10.3856L2.88165 11.7052L4.20127 10.3856C4.55274 10.0341 5.12259 10.0341 5.47406 10.3856C5.82554 10.7371 5.82554 11.3069 5.47406 11.6584L3.51805 13.6144Z" />
<path   d="M15.4274 7.42295C15.8251 7.72118 15.9057 8.2853 15.6074 8.68295L10.5924 15.3697C10.2941 15.7674 9.73001 15.8479 9.33237 15.5497C8.93472 15.2515 8.85413 14.6874 9.15237 14.2897L14.1674 7.60295C14.4657 7.2053 15.0298 7.12471 15.4274 7.42295Z" />
<path   d="M8.24345 9.27672C8.37267 8.79676 8.86651 8.51242 9.34648 8.64164L13.2977 9.70545C13.5209 9.76553 13.7124 9.90914 13.8326 10.1065L15.9602 13.6019C16.2186 14.0265 16.0839 14.5802 15.6593 14.8386C15.2347 15.0971 14.681 14.9624 14.4226 14.5378L12.4822 11.35L8.87853 10.3798C8.39856 10.2505 8.11423 9.75669 8.24345 9.27672Z" />
<path   d="M7.3152 14.3648C7.40412 13.8757 7.87264 13.5514 8.36168 13.6403L10.0334 13.9442C10.3121 13.9949 10.5507 14.1738 10.6774 14.4272L11.4372 15.9469C11.6595 16.3915 11.4793 16.9321 11.0347 17.1544C10.5901 17.3767 10.0495 17.1965 9.82725 16.7519L9.26864 15.6347L8.03969 15.4113C7.55065 15.3223 7.22629 14.8538 7.3152 14.3648Z" />
</svg>