<!--character:9193-->
  <svg width="24" height="24" viewBox="0 0 24 24" >
<path d="M15.6717 4.64022C13.9933 3.80205 12.0787 3.56334 10.2459 3.96376C8.41306 4.36418 6.77241 5.37962 5.59648 6.84138C4.69399 7.96325 4.10693 9.29618 3.88339 10.7035L4.20127 10.3856C4.55274 10.0341 5.12259 10.0341 5.47406 10.3856C5.82554 10.7371 5.82554 11.3069 5.47406 11.6584L3.51805 13.6144C3.16658 13.9659 2.59673 13.9659 2.24526 13.6144L0.289239 11.6584C-0.0622332 11.3069 -0.0622332 10.7371 0.289239 10.3856C0.640711 10.0341 1.21056 10.0341 1.56203 10.3856L2.04491 10.8685C2.25717 8.98877 2.99859 7.19907 4.19397 5.71312C5.62745 3.9312 7.62744 2.69336 9.86169 2.20524C12.0959 1.71712 14.4299 2.00811 16.4759 3.02986C17.6089 3.59566 18.6158 4.36667 19.4505 5.2952L18.1755 6.57018C17.4785 5.77646 16.6301 5.11883 15.6717 4.64022Z" />
<path d="M14.2416 10.5041L15.6074 8.68295C15.9057 8.28531 15.8251 7.72119 15.4274 7.42295C15.0298 7.12472 14.4657 7.20531 14.1674 7.60295L12.7094 9.54704L9.34648 8.64165C8.86651 8.51243 8.37267 8.79676 8.24345 9.27672C8.11423 9.75669 8.39856 10.2505 8.87853 10.3798L11.5462 11.098L9.4861 13.8447L8.36168 13.6403C7.87264 13.5514 7.40412 13.8757 7.3152 14.3648C7.22629 14.8538 7.55065 15.3223 8.03969 15.4113L9.13523 15.6104L14.2416 10.5041Z" />
<path d="M6.57026 18.1754C5.71072 17.4185 5.01242 16.4846 4.52877 15.4278C4.32191 14.9758 3.78783 14.7771 3.33586 14.984C2.88389 15.1908 2.68519 15.7249 2.89204 16.1769C3.46555 17.43 4.28663 18.5414 5.29537 19.4503L6.57026 18.1754Z" />
<path d="M6.75127 20.54L8.06789 19.2234C8.2021 19.2965 8.33863 19.3661 8.47736 19.432C10.2235 20.2608 12.2058 20.4477 14.0761 19.9598C15.9464 19.4719 17.5848 18.3404 18.7035 16.7642C19.4412 15.7249 19.9217 14.5361 20.1186 13.2945L19.7987 13.6144C19.4472 13.9659 18.8773 13.9659 18.5259 13.6144C18.1744 13.2629 18.1744 12.6931 18.5259 12.3416L20.4819 10.3856C20.8334 10.0341 21.4032 10.0341 21.7547 10.3856L23.7107 12.3416C24.0622 12.6931 24.0622 13.2629 23.7107 13.6144C23.3592 13.9659 22.7894 13.9659 22.4379 13.6144L21.9565 13.133C21.7674 14.8063 21.158 16.4159 20.1714 17.806C18.8077 19.7275 16.8104 21.1068 14.5305 21.7015C12.2506 22.2963 9.83401 22.0685 7.70546 21.0581C7.37692 20.9021 7.05849 20.729 6.75127 20.54Z" />
<path d="M10.1697 17.1216L11.4063 15.885L11.4372 15.9469C11.6595 16.3915 11.4793 16.9321 11.0347 17.1544C10.7494 17.2971 10.4246 17.274 10.1697 17.1216Z" />
<path d="M13.791 13.5002L15.1009 12.1903L15.9602 13.6019C16.2186 14.0265 16.0839 14.5802 15.6593 14.8386C15.2347 15.0971 14.681 14.9624 14.4226 14.5378L13.791 13.5002Z" />
<path d="M19.2215 8.06972L20.5386 6.75263C20.7492 7.09579 20.9398 7.45276 21.1088 7.82197C21.3158 8.2739 21.1172 8.80802 20.6652 9.01495C20.2133 9.22188 19.6792 9.02326 19.4722 8.57133C19.3942 8.40087 19.3106 8.23359 19.2215 8.06972Z" />
<path   d="M2.25419 21.2458C1.90272 20.8943 1.90272 20.3244 2.25419 19.973L20.4729 1.75424C20.8244 1.40277 21.3942 1.40277 21.7457 1.75424C22.0972 2.10571 22.0972 2.67556 21.7457 3.02703L3.52699 21.2458C3.17551 21.5972 2.60567 21.5972 2.25419 21.2458Z" />
</svg>