<!--character:129-->
  <svg width="24" height="24" viewBox="0 0 24 24" >
<path d="M17.5954 18.2938C17.5957 17.843 17.9524 17.4777 18.393 17.4777C18.8336 17.4777 19.1903 17.843 19.1906 18.2938V18.8295C19.1888 19.4043 18.9656 19.9555 18.5683 20.362C18.1711 20.7685 17.6325 20.9982 17.0706 21H3.82769C3.2898 20.9999 2.77398 20.7804 2.39363 20.3912C2.01329 20.002 1.80002 19.4743 1.8 18.9238V8.82352C1.8 8.3725 2.1568 8.00741 2.59756 8.00741C3.03833 8.00741 3.39513 8.3725 3.39513 8.82352V18.9238C3.39515 19.0411 3.44143 19.1533 3.52243 19.2362C3.60344 19.3191 3.71313 19.3664 3.82769 19.3665H17.0654C17.2056 19.366 17.3404 19.3084 17.4395 19.207C17.5381 19.106 17.5945 18.9695 17.5954 18.8268V18.2938Z" />
<path d="M17.5954 8.85232V5.16787L17.585 5.06286C17.5648 4.96014 17.5143 4.86557 17.4408 4.79039C17.3429 4.69021 17.2104 4.63265 17.0719 4.63222H3.92511L3.82119 4.64418C3.71966 4.66521 3.62533 4.71566 3.55101 4.79171C3.45188 4.89315 3.39556 5.03107 3.39513 5.17451V8.85232C3.39499 9.30321 3.03825 9.66842 2.59756 9.66842C2.15688 9.66842 1.80014 9.30321 1.8 8.85232V5.1692C1.80173 4.59432 2.02494 4.04317 2.4222 3.63667C2.81947 3.23017 3.3581 3.00177 3.91991 3H17.0771C17.6372 3.00177 18.1736 3.2301 18.5696 3.63534C18.9657 4.04058 19.1888 4.58946 19.1906 5.16255V8.85232C19.1904 9.30321 18.8337 9.66842 18.393 9.66842C17.9523 9.66842 17.5956 9.30321 17.5954 8.85232Z" />
<path d="M18.393 6.7766C18.8338 6.7766 19.1906 7.14169 19.1906 7.59271C19.1906 8.04373 18.8338 8.40882 18.393 8.40882H2.59756C2.1568 8.40882 1.8 8.04373 1.8 7.59271C1.8 7.14169 2.1568 6.7766 2.59756 6.7766H18.393Z" />
<path d="M16.4807 13.0715H21.4024C21.8432 13.0715 22.2 13.4366 22.2 13.8876C22.2 14.3387 21.8432 14.7037 21.4024 14.7037H16.4807C16.04 14.7036 15.6831 14.3386 15.6831 13.8876C15.6831 13.4367 16.04 13.0717 16.4807 13.0715Z" />
<path d="M21.9662 13.3108C22.2779 13.6297 22.2779 14.1456 21.9662 14.4645L20.1217 16.3532C19.81 16.6722 19.3045 16.6722 18.9929 16.3532C18.6812 16.0343 18.6812 15.5171 18.9929 15.1982L20.8387 13.3108C21.1504 12.9919 21.6545 12.9919 21.9662 13.3108Z" />
<path d="M21.9662 13.3108C22.2779 13.6297 22.2779 14.1456 21.9662 14.4645C21.6545 14.7832 21.1503 14.7837 20.8387 14.4649L18.9929 12.5762C18.6814 12.2573 18.6814 11.7414 18.9929 11.4225C19.3045 11.1036 19.81 11.1036 20.1217 11.4225L21.9662 13.3108Z" />
</svg>