<!--character:231-->
  <svg width="24" height="24" viewBox="0 0 24 24" >
<path d="M16.4584 19.144H5.7709V19.6318C5.77105 20.1289 5.96872 20.606 6.32021 20.9575C6.67171 21.309 7.14883 21.5067 7.6459 21.5068H14.5834C15.0804 21.5068 15.5575 21.3088 15.9091 20.9575C16.2606 20.606 16.4582 20.1289 16.4584 19.6318V19.144ZM16.4159 6.36328C16.7674 6.0119 17.3374 6.01198 17.6889 6.36328L19.7704 8.44482C20.1218 8.7963 20.1219 9.36632 19.7704 9.71777L17.6889 11.7993C17.3374 12.1505 16.7673 12.1507 16.4159 11.7993C16.0645 11.4479 16.0647 10.8779 16.4159 10.5264L16.9608 9.98145H13.5844C13.0876 9.98145 12.6839 9.57875 12.6835 9.08203C12.6835 8.58498 13.0873 8.18115 13.5844 8.18115H16.9608L16.4159 7.63623C16.0646 7.28479 16.0646 6.71471 16.4159 6.36328ZM18.2587 19.6318C18.2585 20.6063 17.8711 21.5414 17.182 22.2305C16.4929 22.9193 15.5578 23.3057 14.5834 23.3057H7.6459C6.67144 23.3055 5.73632 22.9195 5.04727 22.2305C4.35821 21.5414 3.97223 20.6063 3.97207 19.6318V4.36816C3.97223 3.39371 4.35821 2.45859 5.04727 1.76953C5.73632 1.08047 6.67144 0.694492 7.6459 0.694337H14.5834C15.2287 0.693923 15.8628 0.862695 16.4218 1.18506C16.9808 1.50759 17.4452 1.97232 17.768 2.53125C18.0165 2.96171 17.8688 3.51173 17.4384 3.76025C17.008 4.00856 16.4579 3.86104 16.2094 3.43066C16.0447 3.14568 15.8075 2.90959 15.5224 2.74512C15.2372 2.58062 14.9141 2.49301 14.5849 2.49316H7.6459C7.14883 2.49332 6.67171 2.69099 6.32021 3.04248C5.96872 3.39397 5.77105 3.8711 5.7709 4.36816V17.3438H16.4584V14.7744C16.4587 14.2776 16.8624 13.875 17.3593 13.875C17.856 13.8752 18.2584 14.2777 18.2587 14.7744V19.6318Z" />
</svg>