<!--character:9565-->
  <svg width="24" height="24" viewBox="0 0 24 24" >
<path   d="M4.90754 4.92219C6.78469 3.04504 9.33066 1.99047 11.9853 1.99047C14.64 1.99047 17.186 3.04504 19.0632 4.92219C20.9403 6.79935 21.9949 9.34531 21.9949 12C21.9949 14.6547 20.9403 17.2007 19.0632 19.0778C17.186 20.955 14.64 22.0095 11.9853 22.0095C9.33066 22.0095 6.78469 20.955 4.90754 19.0778C4.55607 18.7263 4.55607 18.1565 4.90754 17.805C5.25902 17.4535 5.82886 17.4535 6.18034 17.805C7.71992 19.3446 9.80805 20.2095 11.9853 20.2095C14.1627 20.2095 16.2508 19.3446 17.7904 17.805C19.3299 16.2654 20.1949 14.1773 20.1949 12C20.1949 9.8227 19.3299 7.73457 17.7904 6.19499C16.2508 4.6554 14.1627 3.79047 11.9853 3.79047C9.80805 3.79047 7.71992 4.6554 6.18034 6.19499C4.95623 7.4191 4.15858 8.99002 3.88311 10.6768C3.803 11.1674 3.34038 11.5001 2.84982 11.42C2.35927 11.3399 2.02653 10.8773 2.10664 10.3867C2.4425 8.33012 3.41498 6.41476 4.90754 4.92219Z" />
<path   d="M11.4034 7.81882H13.6269C14.124 7.81882 14.5269 8.22176 14.5269 8.71882C14.5269 9.21588 14.124 9.61882 13.6269 9.61882H11.4037C11.272 9.61897 11.1444 9.66492 11.0429 9.74881C10.9412 9.83275 10.8719 9.94944 10.8469 10.0789C10.8219 10.2083 10.8427 10.3424 10.9058 10.4582C10.9687 10.5737 11.0698 10.6639 11.1919 10.7131L13.4499 11.6168C13.9599 11.822 14.3826 12.1982 14.6455 12.681C14.9084 13.1638 14.9952 13.723 14.8908 14.2627C14.7865 14.8025 14.4977 15.2891 14.0738 15.6391C13.6499 15.9892 13.1175 16.1808 12.5677 16.1812H10.3457C9.84868 16.1812 9.44573 15.7783 9.44573 15.2812C9.44573 14.7841 9.84868 14.3812 10.3457 14.3812L12.5665 14.3812C12.6981 14.381 12.8261 14.3351 12.9276 14.2512C13.0293 14.1673 13.0985 14.0506 13.1235 13.9212C13.1486 13.7917 13.1278 13.6576 13.0647 13.5419C13.0018 13.4263 12.9007 13.3362 12.7786 13.2869L10.5206 12.3832C10.0106 12.1781 9.58787 11.8018 9.32496 11.319C9.06205 10.8362 8.97532 10.277 9.07963 9.73729C9.18395 9.19755 9.47282 8.71093 9.89669 8.36089C10.3206 8.01085 10.8536 7.8192 11.4034 7.81882Z" />
<path   d="M11.9862 6.53952C12.4833 6.53952 12.8862 6.94246 12.8862 7.43952V8.35161C12.8862 8.84867 12.4833 9.25161 11.9862 9.25161C11.4891 9.25161 11.0862 8.84867 11.0862 8.35161V7.43952C11.0862 6.94246 11.4891 6.53952 11.9862 6.53952Z" />
<path   d="M11.9862 14.7484C12.4833 14.7484 12.8862 15.1513 12.8862 15.6484V16.5605C12.8862 17.0575 12.4833 17.4605 11.9862 17.4605C11.4891 17.4605 11.0862 17.0575 11.0862 16.5605V15.6484C11.0862 15.1513 11.4891 14.7484 11.9862 14.7484Z" />
<path   d="M3.63128 13.2997C3.27981 13.6512 2.70996 13.6512 2.35849 13.2997L0.402471 11.3437C0.0509992 10.9922 0.0509992 10.4224 0.402471 10.0709C0.753943 9.71945 1.32379 9.71945 1.67526 10.0709L2.99488 11.3905L4.3145 10.0709C4.66598 9.71945 5.23583 9.71945 5.5873 10.0709C5.93877 10.4224 5.93877 10.9922 5.5873 11.3437L3.63128 13.2997Z" />
</svg>