<!--character:$550:1301-->
  <svg width="24" height="24" viewBox="0 0 24 24" >
<path d="M3.77243 10.1651C4.64589 6.01706 8.30266 3.04591 12.5416 3.04004C17.4892 3.04004 21.5 7.05084 21.5 11.9984C21.5 16.946 17.4892 20.9568 12.5416 20.9568C12.0814 20.9568 11.7083 20.5837 11.7083 20.1234C11.7083 19.6632 12.0814 19.2901 12.5416 19.2901C16.3167 19.2901 19.4676 16.4087 19.8042 12.6486C20.1408 8.88853 17.5519 5.49327 13.8368 4.82268C10.1218 4.15209 6.50916 6.42794 5.50994 10.0684C5.49243 10.1311 5.50533 10.1983 5.54479 10.2501C5.58425 10.3018 5.6457 10.332 5.71077 10.3317H7.16661C7.33613 10.3297 7.48996 10.4306 7.55566 10.5869C7.62136 10.7432 7.58582 10.9237 7.46578 11.0434L4.8391 13.6692C4.67639 13.8319 4.41264 13.8319 4.24993 13.6692L1.62242 11.0434C1.50305 10.9243 1.4672 10.7451 1.53161 10.5892C1.59602 10.4334 1.74799 10.3318 1.91659 10.3317H3.5691C3.66792 10.3317 3.75299 10.262 3.77243 10.1651Z" />
<path d="M10.2454 15.2801C10.2454 15.8321 10.6133 16.2 11.1652 16.2L11.5332 16.016C11.6251 16.016 11.7171 16.108 11.7171 16.2V16.292C11.7171 16.8439 12.0851 17.2118 12.637 17.2118C13.1889 17.2118 13.5568 16.8439 13.5568 16.292V16.108C13.5568 16.016 13.6488 15.924 13.7408 15.924C14.4767 15.7401 15.0286 15.2801 15.3046 14.5443C15.7645 13.4404 15.2126 12.0606 14.0168 11.6007L11.9011 10.7728C11.7171 10.6808 11.6251 10.4969 11.6251 10.3129C11.6251 10.0369 11.8091 9.85297 12.0851 9.85297H14.2007C14.7527 9.85297 15.1206 9.48503 15.1206 8.93311C15.1206 8.3812 14.7527 8.01325 14.2007 8.01325H13.8328C13.7408 8.01325 13.6488 7.92127 13.6488 7.82928V7.7373C13.6488 7.18538 13.2809 6.81744 12.729 6.81744C12.1771 6.81744 11.8091 7.18538 11.8091 7.7373V8.10524C11.8091 8.19723 11.7171 8.28921 11.6251 8.28921C10.8893 8.47318 10.3373 8.93311 10.0614 9.669C9.60145 10.7728 10.1534 12.1526 11.3492 12.6126L13.4649 13.4404C13.6488 13.5324 13.7408 13.7164 13.7408 13.9004C13.7408 14.1763 13.5568 14.3603 13.2809 14.3603H11.1652C10.6133 14.3603 10.2454 14.7282 10.2454 15.2801Z" />
</svg>