<!--character:7875-->
  <svg width="29" height="29" viewBox="0 0 29 29" >
<path   d="M5.93001 5.94765C8.19823 3.67943 11.2746 2.40515 14.4824 2.40515C17.6901 2.40515 20.7665 3.67943 23.0347 5.94765C25.3029 8.21588 26.5772 11.2922 26.5772 14.5C26.5772 17.7078 25.3029 20.7841 23.0347 23.0523C20.7665 25.3206 17.6901 26.5948 14.4824 26.5948C11.2746 26.5948 8.19823 25.3206 5.93001 23.0523C5.50531 22.6277 5.50531 21.9391 5.93001 21.5144C6.3547 21.0897 7.04327 21.0897 7.46796 21.5144C9.3283 23.3747 11.8514 24.4198 14.4824 24.4198C17.1133 24.4198 19.6364 23.3747 21.4967 21.5144C23.3571 19.6541 24.4022 17.1309 24.4022 14.5C24.4022 11.8691 23.3571 9.34594 21.4967 7.48561C19.6364 5.62528 17.1133 4.58015 14.4824 4.58015C11.8514 4.58015 9.3283 5.62528 7.46796 7.48561C5.98883 8.96474 5.02501 10.8629 4.69215 12.9012C4.59535 13.4939 4.03635 13.896 3.4436 13.7992C2.85084 13.7024 2.44879 13.1434 2.54559 12.5506C2.95141 10.0656 4.12649 7.75117 5.93001 5.94765Z" />
<path   d="M13.7791 9.44774H16.4659C17.0665 9.44774 17.5534 9.93463 17.5534 10.5352C17.5534 11.1359 17.0665 11.6227 16.4659 11.6227H13.7796C13.6204 11.6229 13.4662 11.6784 13.3435 11.7798C13.2207 11.8812 13.137 12.0222 13.1068 12.1786C13.0765 12.335 13.1017 12.4971 13.1778 12.6369C13.2539 12.7766 13.3761 12.8855 13.5236 12.945L16.252 14.0369C16.8683 14.2849 17.379 14.7395 17.6967 15.3229C18.0144 15.9062 18.1192 16.582 17.9932 17.2341C17.8671 17.8863 17.5181 18.4743 17.0059 18.8973C16.4937 19.3202 15.8503 19.5518 15.1861 19.5523H12.5012C11.9005 19.5523 11.4137 19.0654 11.4137 18.4648C11.4137 17.8642 11.9005 17.3773 12.5012 17.3773L15.1845 17.3773C15.3436 17.3771 15.4982 17.3215 15.6209 17.2202C15.7437 17.1188 15.8275 16.9778 15.8577 16.8214C15.8879 16.665 15.8628 16.503 15.7866 16.3631C15.7105 16.2234 15.5884 16.1146 15.4409 16.055L12.7124 14.9631C12.0962 14.7151 11.5854 14.2605 11.2677 13.6771C10.95 13.0938 10.8452 12.4181 10.9713 11.7659C11.0973 11.1137 11.4464 10.5257 11.9586 10.1027C12.4707 9.67978 13.1149 9.4482 13.7791 9.44774Z" />
<path   d="M14.4834 7.90192C15.084 7.90192 15.5709 8.3888 15.5709 8.98941V10.0915C15.5709 10.6921 15.084 11.179 14.4834 11.179C13.8828 11.179 13.3959 10.6921 13.3959 10.0915V8.98942C13.3959 8.38881 13.8828 7.90192 14.4834 7.90192Z" />
<path   d="M14.4834 17.821C15.084 17.821 15.5709 18.3078 15.5709 18.9085V20.0106C15.5709 20.6112 15.084 21.0981 14.4834 21.0981C13.8828 21.0981 13.3959 20.6112 13.3959 20.0106V18.9085C13.3959 18.3078 13.8828 17.821 14.4834 17.821Z" />
<path   d="M4.38786 16.0705C3.96316 16.4952 3.27459 16.4952 2.8499 16.0705L0.486378 13.707C0.061683 13.2823 0.061683 12.5937 0.486378 12.169C0.911073 11.7443 1.59964 11.7443 2.02434 12.169L3.61888 13.7636L5.21342 12.169C5.63811 11.7443 6.32668 11.7443 6.75138 12.169C7.17607 12.5937 7.17607 13.2823 6.75138 13.707L4.38786 16.0705Z" />
</svg>