<!-- character:0:1925 -->
  <svg width="20" height="20" viewBox="0 0 20 20" >
<path   d="M3.14369 8.47097C3.87157 5.01429 6.91888 2.53834 10.4514 2.53345C14.5743 2.53345 17.9167 5.87578 17.9167 9.99875C17.9167 14.1217 14.5743 17.4641 10.4514 17.4641C10.0678 17.4641 9.75691 17.1531 9.75691 16.7696C9.75691 16.3861 10.0678 16.0752 10.4514 16.0752C13.5973 16.0751 16.223 13.674 16.5035 10.5406C16.784 7.40719 14.6266 4.5778 11.5307 4.01898C8.43481 3.46015 5.4243 5.35669 4.59162 8.39041C4.57702 8.44264 4.58778 8.49869 4.62066 8.54181C4.65355 8.58492 4.70475 8.61012 4.75898 8.60986H5.97218C6.11344 8.60818 6.24164 8.69227 6.29638 8.8225C6.35113 8.95274 6.32152 9.10316 6.22148 9.20292L4.03259 11.3911C3.897 11.5267 3.6772 11.5267 3.54161 11.3911L1.35202 9.20292C1.25254 9.10369 1.22267 8.95429 1.27634 8.82444C1.33002 8.69459 1.45665 8.60989 1.59716 8.60986H2.97425C3.0566 8.60982 3.12749 8.55171 3.14369 8.47097ZM8.53781 12.7335C8.53781 13.1935 8.84443 13.5001 9.30436 13.5001L9.61098 13.3468C9.68764 13.3468 9.76429 13.4234 9.76429 13.5001V13.5768C9.76429 14.0367 10.0709 14.3433 10.5308 14.3433C10.9908 14.3433 11.2974 14.0367 11.2974 13.5768V13.4234C11.2974 13.3468 11.374 13.2701 11.4507 13.2701C12.0639 13.1168 12.5239 12.7335 12.7538 12.1203C13.1371 11.2005 12.6772 10.0506 11.6807 9.66735L9.9176 8.97746C9.76429 8.9008 9.68764 8.74749 9.68764 8.59418C9.68764 8.36422 9.84095 8.21091 10.0709 8.21091H11.834C12.2939 8.21091 12.6005 7.90429 12.6005 7.44436C12.6005 6.98443 12.2939 6.67781 11.834 6.67781H11.5274C11.4507 6.67781 11.374 6.60115 11.374 6.5245V6.44784C11.374 5.98791 11.0674 5.68129 10.6075 5.68129C10.1476 5.68129 9.84095 5.98791 9.84095 6.44784V6.75446C9.84095 6.83112 9.76429 6.90777 9.68764 6.90777C9.0744 7.06108 8.61447 7.44436 8.3845 8.0576C8.00123 8.97746 8.46116 10.1273 9.45767 10.5106L11.2207 11.2004C11.374 11.2771 11.4507 11.4304 11.4507 11.5837C11.4507 11.8137 11.2974 11.967 11.0674 11.967H9.30436C8.84443 11.967 8.53781 12.2736 8.53781 12.7335Z" />
</svg>