<!--character:6660-->
  <svg width="20" height="20" viewBox="0 0 20 20" >
<path d="M3.14369 8.47086C3.87157 5.01418 6.91888 2.53822 10.4514 2.53333C14.5743 2.53333 17.9167 5.87566 17.9167 9.99864C17.9167 14.1216 14.5743 17.4639 10.4514 17.4639C10.0678 17.4639 9.75691 17.153 9.75691 16.7695C9.75691 16.386 10.0678 16.0751 10.4514 16.0751C13.5973 16.075 16.223 13.6739 16.5035 10.5405C16.784 7.40708 14.6266 4.57769 11.5307 4.01886C8.43481 3.46004 5.4243 5.35658 4.59162 8.3903C4.57702 8.44253 4.58778 8.49857 4.62066 8.54169C4.65355 8.58481 4.70475 8.61 4.75898 8.60975H5.97218C6.11344 8.60807 6.24164 8.69215 6.29638 8.82239C6.35113 8.95262 6.32152 9.10304 6.22148 9.2028L4.03259 11.391C3.897 11.5266 3.6772 11.5266 3.54161 11.391L1.35202 9.2028C1.25254 9.10358 1.22267 8.95418 1.27634 8.82433C1.33002 8.69448 1.45665 8.60978 1.59716 8.60975H2.97425C3.0566 8.6097 3.12749 8.55159 3.14369 8.47086Z" />
<path d="M8.53781 12.7334C8.53781 13.1934 8.84443 13.5 9.30436 13.5L9.61098 13.3467C9.68764 13.3467 9.76429 13.4233 9.76429 13.5V13.5766C9.76429 14.0366 10.0709 14.3432 10.5308 14.3432C10.9908 14.3432 11.2974 14.0366 11.2974 13.5766V13.4233C11.2974 13.3467 11.374 13.27 11.4507 13.27C12.0639 13.1167 12.5239 12.7334 12.7538 12.1202C13.1371 11.2003 12.6772 10.0505 11.6807 9.66724L9.9176 8.97734C9.76429 8.90069 9.68764 8.74738 9.68764 8.59407C9.68764 8.3641 9.84095 8.21079 10.0709 8.21079H11.834C12.2939 8.21079 12.6005 7.90417 12.6005 7.44424C12.6005 6.98431 12.2939 6.67769 11.834 6.67769H11.5274C11.4507 6.67769 11.374 6.60104 11.374 6.52438V6.44773C11.374 5.9878 11.0674 5.68118 10.6075 5.68118C10.1476 5.68118 9.84095 5.9878 9.84095 6.44773V6.75435C9.84095 6.831 9.76429 6.90766 9.68764 6.90766C9.0744 7.06097 8.61447 7.44424 8.3845 8.05748C8.00123 8.97734 8.46116 10.1272 9.45767 10.5104L11.2207 11.2003C11.374 11.277 11.4507 11.4303 11.4507 11.5836C11.4507 11.8136 11.2974 11.9669 11.0674 11.9669H9.30436C8.84443 11.9669 8.53781 12.2735 8.53781 12.7334Z" />
</svg>