<!--character:4573-->
  <svg width="29" height="29" viewBox="0 0 29 29" >
<path d="M5.93001 5.94765C8.19823 3.67943 11.2746 2.40515 14.4824 2.40515C17.6901 2.40515 20.7665 3.67943 23.0347 5.94765C23.1883 6.10124 23.3373 6.25853 23.4817 6.41932L21.941 7.95999C21.7986 7.79754 21.6505 7.63931 21.4967 7.48561C19.6364 5.62528 17.1133 4.58015 14.4824 4.58015C11.8514 4.58015 9.3283 5.62528 7.46796 7.48561C6.05099 8.90259 5.10692 10.7041 4.73745 12.645L5.21342 12.169C5.63811 11.7443 6.32668 11.7443 6.75138 12.169C7.17607 12.5937 7.17607 13.2823 6.75138 13.707L4.38786 16.0705C3.96316 16.4952 3.27459 16.4952 2.8499 16.0705L0.486378 13.707C0.061683 13.2823 0.061683 12.5937 0.486378 12.169C0.911073 11.7443 1.59964 11.7443 2.02434 12.169L2.53236 12.6771C2.5343 12.6352 2.53867 12.593 2.54559 12.5506C2.95141 10.0656 4.12649 7.75117 5.93001 5.94765Z" />
<path d="M15.975 13.9261L13.5236 12.945C13.3761 12.8855 13.2539 12.7766 13.1778 12.6369C13.1017 12.4971 13.0765 12.335 13.1068 12.1786C13.137 12.0222 13.2207 11.8812 13.3435 11.7798C13.4662 11.6784 13.6204 11.6229 13.7796 11.6227H16.4659C17.0665 11.6227 17.5534 11.1359 17.5534 10.5352C17.5534 9.93463 17.0665 9.44774 16.4659 9.44774H15.5709V8.98941C15.5709 8.3888 15.084 7.90192 14.4834 7.90192C13.8828 7.90192 13.3959 8.38881 13.3959 8.98942V9.47378C12.8701 9.54519 12.3714 9.76178 11.9586 10.1027C11.4464 10.5257 11.0973 11.1137 10.9713 11.7659C10.8452 12.4181 10.95 13.0938 11.2677 13.6771C11.5854 14.2605 12.0962 14.7151 12.7124 14.9631L14.3018 15.5992L15.975 13.9261Z" />
<path d="M12.5237 17.3773H12.5012C11.9005 17.3773 11.4137 17.8642 11.4137 18.4648C11.4137 18.4723 11.4137 18.4797 11.4139 18.4871L12.5237 17.3773Z" />
<path d="M13.3959 19.5811L17.6816 15.2954C17.6867 15.3045 17.6917 15.3137 17.6967 15.3229C18.0144 15.9062 18.1192 16.582 17.9932 17.2341C17.8671 17.8863 17.5181 18.4743 17.0059 18.8973C16.5934 19.2379 16.0959 19.4544 15.5709 19.526V20.0106C15.5709 20.6112 15.084 21.0981 14.4834 21.0981C13.8828 21.0981 13.3959 20.6112 13.3959 20.0106V19.5811Z" />
<path d="M9.75561 23.2213C11.1941 24.0009 12.8166 24.4198 14.4824 24.4198C17.1133 24.4198 19.6364 23.3747 21.4967 21.5144C23.3571 19.6541 24.4022 17.1309 24.4022 14.5C24.4022 12.8343 23.9832 11.2117 23.2037 9.77325L24.7955 8.1814C25.9511 10.0677 26.5772 12.2516 26.5772 14.5C26.5772 17.7078 25.3029 20.7841 23.0347 23.0523C20.7665 25.3206 17.6901 26.5948 14.4824 26.5948C12.2339 26.5948 10.05 25.9688 8.16376 24.8132L9.75561 23.2213Z" />
<path d="M7.94234 21.9587C7.7799 21.8162 7.62167 21.6681 7.46796 21.5144C7.04327 21.0897 6.3547 21.0897 5.93001 21.5144C5.50531 21.9391 5.50531 22.6277 5.93001 23.0523C6.08359 23.2059 6.24089 23.355 6.40167 23.4994L7.94234 21.9587Z" />
<path   d="M2.72382 25.672C2.29912 25.2473 2.29912 24.5587 2.72382 24.134L24.7381 2.1197C25.1628 1.695 25.8514 1.69501 26.2761 2.1197C26.7008 2.5444 26.7008 3.23296 26.2761 3.65766L4.26177 25.672C3.83708 26.0967 3.14851 26.0967 2.72382 25.672Z" />
</svg>