<!--character:2560-->
  <svg width="24" height="24" viewBox="0 0 24 24" >
<path d="M3.77243 10.165C4.64589 6.01702 8.30266 3.04587 12.5416 3.04C17.4892 3.04 21.5 7.0508 21.5 11.9984C21.5 16.9459 17.4892 20.9567 12.5416 20.9567C12.0814 20.9567 11.7083 20.5836 11.7083 20.1234C11.7083 19.6632 12.0814 19.2901 12.5416 19.2901C16.3167 19.29 19.4676 16.4086 19.8042 12.6486C20.1408 8.88849 17.5519 5.49323 13.8368 4.82264C10.1218 4.15205 6.50916 6.4279 5.50994 10.0684C5.49243 10.131 5.50533 10.1983 5.54479 10.25C5.58425 10.3018 5.6457 10.332 5.71077 10.3317H7.16661C7.33613 10.3297 7.48996 10.4306 7.55566 10.5869C7.62136 10.7431 7.58582 10.9237 7.46578 11.0434L4.8391 13.6692C4.67639 13.8319 4.41264 13.8319 4.24993 13.6692L1.62242 11.0434C1.50305 10.9243 1.4672 10.745 1.53161 10.5892C1.59602 10.4334 1.74799 10.3317 1.91659 10.3317H3.5691C3.66792 10.3316 3.75299 10.2619 3.77243 10.165Z" />
<path d="M10.2454 15.2801C10.2454 15.832 10.6133 16.2 11.1652 16.2L11.5332 16.016C11.6252 16.016 11.7172 16.108 11.7172 16.2V16.292C11.7172 16.8439 12.0851 17.2118 12.637 17.2118C13.1889 17.2118 13.5569 16.8439 13.5569 16.292V16.108C13.5569 16.016 13.6489 15.924 13.7408 15.924C14.4767 15.7401 15.0286 15.2801 15.3046 14.5442C15.7645 13.4404 15.2126 12.0606 14.0168 11.6007L11.9011 10.7728C11.7172 10.6808 11.6252 10.4969 11.6252 10.3129C11.6252 10.0369 11.8091 9.85295 12.0851 9.85295H14.2008C14.7527 9.85295 15.1206 9.48501 15.1206 8.93309C15.1206 8.38118 14.7527 8.01323 14.2008 8.01323H13.8328C13.7408 8.01323 13.6489 7.92125 13.6489 7.82926V7.73728C13.6489 7.18536 13.2809 6.81742 12.729 6.81742C12.1771 6.81742 11.8091 7.18536 11.8091 7.73728V8.10522C11.8091 8.1972 11.7172 8.28919 11.6252 8.28919C10.8893 8.47316 10.3374 8.93309 10.0614 9.66898C9.60148 10.7728 10.1534 12.1526 11.3492 12.6125L13.4649 13.4404C13.6489 13.5324 13.7408 13.7164 13.7408 13.9003C13.7408 14.1763 13.5569 14.3603 13.2809 14.3603H11.1652C10.6133 14.3603 10.2454 14.7282 10.2454 15.2801Z" />
</svg>