<!--character:E165-->
<!--added:0.27-->
<svg width="24" height="24" viewBox="0 0 24 24" xmlns="http://www.w3.org/2000/svg"><path d="M11.1652 16.2c-.5519 0-.9198-.368-.9198-.9199 0-.5519.368-.9198.9198-.9198h2.1157c.276 0 .46-.184.46-.46 0-.184-.092-.368-.276-.4599l-2.1157-.8279c-1.1958-.4599-1.7477-1.8397-1.2878-2.9435.276-.736.8279-1.1958 1.5638-1.3798.092 0 .184-.092.184-.184v-.368c0-.5518.3679-.9198.9198-.9198.552 0 .9199.368.9199.9199v.092c0 .092.092.184.184.184h.3679c.5519 0 .9198.3679.9198.9198 0 .552-.368.9199-.9198.9199H12.085c-.276 0-.46.184-.46.4599 0 .184.092.368.276.46l2.1157.8278c1.1958.46 1.7477 1.8397 1.2878 2.9435-.276.736-.8279 1.1959-1.5638 1.3798-.092 0-.184.092-.184.184v.184c0 .5519-.3679.9198-.9198.9198s-.9198-.368-.9198-.9198V16.2c0-.092-.092-.184-.184-.184l-.368.184zm1.3764-13.16c4.9476 0 8.9584 4.0108 8.9584 8.9584 0 4.9475-4.0108 8.9583-8.9584 8.9583a.8333.8333 0 0 1 0-1.6666c3.7751 0 6.926-2.8815 7.2626-6.6415.3366-3.7601-2.2523-7.1554-5.9674-7.826-3.715-.6706-7.3276 1.6053-8.3269 5.2458a.2075.2075 0 0 0 .2009.2633h1.4558a.4167.4167 0 0 1 .2992.7117L4.839 13.6692a.4167.4167 0 0 1-.5892 0l-2.6275-2.6258a.4167.4167 0 0 1 .2942-.7117H3.569a.2075.2075 0 0 0 .2033-.1667C4.646 6.017 8.3027 3.046 12.5416 3.04z"/></svg>