<!--character:7572-->
  <svg width="24" height="24" viewBox="0 0 24 24" >
<path d="M4.90754 4.92219C6.78469 3.04504 9.33066 1.99047 11.9853 1.99047C14.64 1.99047 17.186 3.04504 19.0632 4.92219C19.1903 5.0493 19.3136 5.17947 19.4331 5.31254L18.158 6.58757C18.0402 6.45314 17.9176 6.32219 17.7904 6.19498C16.2508 4.6554 14.1627 3.79047 11.9853 3.79047C9.80805 3.79047 7.71992 4.6554 6.18034 6.19498C5.00766 7.36766 4.22637 8.8586 3.9206 10.4648L4.3145 10.0709C4.66598 9.71945 5.23582 9.71945 5.5873 10.0709C5.93877 10.4224 5.93877 10.9922 5.5873 11.3437L3.63128 13.2997C3.27981 13.6512 2.70996 13.6512 2.35849 13.2997L0.402471 11.3437C0.0509992 10.9922 0.0509992 10.4224 0.402471 10.0709C0.753943 9.71945 1.32379 9.71945 1.67526 10.0709L2.0957 10.4914C2.0973 10.4567 2.10092 10.4218 2.10664 10.3867C2.4425 8.33012 3.41498 6.41476 4.90754 4.92219Z" />
<path d="M13.2206 11.525L11.1919 10.7131C11.0698 10.6639 10.9687 10.5737 10.9058 10.4582C10.8427 10.3424 10.8219 10.2083 10.8469 10.0789C10.8719 9.94943 10.9412 9.83274 11.0429 9.74881C11.1444 9.66492 11.272 9.61897 11.4037 9.61882H13.6269C14.124 9.61882 14.5269 9.21587 14.5269 8.71882C14.5269 8.22176 14.124 7.81882 13.6269 7.81882H12.8862V7.43951C12.8862 6.94246 12.4833 6.53951 11.9862 6.53951C11.4891 6.53951 11.0862 6.94246 11.0862 7.43951V7.84037C10.6511 7.89946 10.2384 8.07871 9.89669 8.36089C9.47282 8.71093 9.18395 9.19755 9.07963 9.73729C8.97531 10.277 9.06205 10.8362 9.32496 11.319C9.58787 11.8018 10.0106 12.178 10.5206 12.3832L11.836 12.9097L13.2206 11.525Z" />
<path d="M10.3644 14.3812H10.3457C9.84868 14.3812 9.44573 14.7841 9.44573 15.2812C9.44573 15.2874 9.44579 15.2936 9.44592 15.2997L10.3644 14.3812Z" />
<path d="M11.0862 16.205L14.633 12.6582C14.6372 12.6658 14.6414 12.6734 14.6455 12.681C14.9084 13.1638 14.9952 13.723 14.8908 14.2627C14.7865 14.8025 14.4977 15.2891 14.0738 15.6391C13.7324 15.921 13.3207 16.1002 12.8862 16.1595V16.5605C12.8862 17.0575 12.4833 17.4605 11.9862 17.4605C11.4891 17.4605 11.0862 17.0575 11.0862 16.5605V16.205Z" />
<path d="M8.07356 19.2176C9.26401 19.8628 10.6068 20.2095 11.9853 20.2095C14.1627 20.2095 16.2508 19.3446 17.7904 17.805C19.3299 16.2654 20.1949 14.1773 20.1949 12C20.1949 10.6215 19.8482 9.27866 19.203 8.08821L20.5204 6.77082C21.4768 8.33187 21.9949 10.1392 21.9949 12C21.9949 14.6547 20.9403 17.2007 19.0632 19.0778C17.186 20.955 14.64 22.0095 11.9853 22.0095C10.1246 22.0095 8.31722 21.4914 6.75617 20.535L8.07356 19.2176Z" />
<path d="M6.57292 18.1727C6.43849 18.0548 6.30754 17.9322 6.18034 17.805C5.82886 17.4535 5.25902 17.4535 4.90754 17.805C4.55607 18.1565 4.55607 18.7263 4.90754 19.0778C5.03465 19.2049 5.16482 19.3282 5.29789 19.4477L6.57292 18.1727Z" />
<path   d="M2.25415 21.2458C1.90267 20.8943 1.90267 20.3244 2.25415 19.973L20.4729 1.75423C20.8244 1.40276 21.3942 1.40276 21.7457 1.75423C22.0971 2.10571 22.0971 2.67555 21.7457 3.02703L3.52694 21.2458C3.17547 21.5972 2.60562 21.5972 2.25415 21.2458Z" />
</svg>