<!--character:4122-->
  <svg width="24" height="24" viewBox="0 0 24 24" >
<path d="M7.29957 9.9361C7.22159 9.9361 7.15004 9.9793 7.11372 10.0483C6.68857 10.8536 5.84302 11.3476 4.93273 11.3226C4.00854 11.4014 3.15329 10.8287 2.87425 9.94412C2.75982 9.41617 2.93211 8.867 3.32761 8.49902L11.4357 2.20523C11.7864 1.93159 12.2784 1.93159 12.6291 2.20523L20.618 8.45735C21.0767 8.84019 21.2718 9.45428 21.1181 10.0316C20.8283 10.8622 20.0138 11.3919 19.1371 11.3201C18.2273 11.3456 17.3819 10.8526 16.9561 10.0483C16.9198 9.9793 16.8482 9.9361 16.7703 9.9361C16.6923 9.9361 16.6207 9.9793 16.5844 10.0483C16.1587 10.8528 15.3132 11.3458 14.4034 11.3201C13.4936 11.3458 12.6481 10.8528 12.2224 10.0483C12.1861 9.9793 12.1145 9.9361 12.0366 9.9361C11.9586 9.9361 11.887 9.9793 11.8507 10.0483C11.4249 10.8526 10.5795 11.3456 9.66974 11.3201C8.75876 11.3471 7.91164 10.8539 7.48541 10.0483C7.4491 9.9793 7.37754 9.9361 7.29957 9.9361Z" />
<path d="M12.8366 12.416C12.8366 12.1858 12.6501 11.9993 12.4199 11.9993H11.5865C11.3564 11.9993 11.1698 12.1858 11.1698 12.416V21.1458C11.1698 21.606 11.543 21.9792 12.0032 21.9792C12.4635 21.9792 12.8366 21.606 12.8366 21.1458V12.416Z" />
<path d="M7.83627 16.9996C8.75681 16.9996 9.50306 17.7459 9.50306 18.6664V21.1666C9.50306 21.6269 9.12994 22 8.66967 22C8.20939 22 7.83627 21.6269 7.83627 21.1666V18.8756C7.83627 18.7605 7.74299 18.6673 7.62792 18.6673H5.54444C5.42937 18.6673 5.33609 18.7605 5.33609 18.8756V21.1666C5.33609 21.6269 4.96297 22 4.5027 22C4.04243 22 3.6693 21.6269 3.6693 21.1666V18.0164C3.67007 17.9548 3.66392 17.8933 3.65097 17.833L2.85341 14.2603C2.78263 13.9673 2.87552 13.659 3.09635 13.4539C3.31718 13.2488 3.63153 13.1789 3.91846 13.2711C4.20539 13.3633 4.42018 13.6032 4.4802 13.8986L5.13274 16.833C5.15219 16.9298 5.23727 16.9996 5.33609 16.9996H7.83627Z" />
<path d="M14.5034 18.6664C14.5034 17.7459 15.2497 16.9996 16.1702 16.9996H18.6704C18.7692 16.9996 18.8543 16.9298 18.8737 16.833L19.5263 13.8986C19.633 13.457 20.0737 13.1822 20.5172 13.2808C20.9607 13.3794 21.2435 13.815 21.1531 14.2603L20.3555 17.833C20.3426 17.8933 20.3364 17.9548 20.3372 18.0164V21.1666C20.3372 21.6269 19.9641 22 19.5038 22C19.0435 22 18.6704 21.6269 18.6704 21.1666V18.8756C18.6704 18.7605 18.5771 18.6673 18.462 18.6673H16.3786C16.2635 18.6673 16.1702 18.7605 16.1702 18.8756V21.1666C16.1702 21.6269 15.7971 22 15.3368 22C14.8765 22 14.5034 21.6269 14.5034 21.1666V18.6664Z" />
</svg>