<!--character:9709-->
  <svg width="24" height="24" viewBox="0 0 24 24" >
<path d="M7.29948 9.93611C7.22151 9.93611 7.14995 9.97931 7.11364 10.0483C6.68849 10.8536 5.84294 11.3476 4.93265 11.3226C4.00846 11.4014 3.1532 10.8287 2.87416 9.94413C2.75974 9.41618 2.93203 8.86701 3.32753 8.49903L11.4356 2.20524C11.7864 1.93159 12.2783 1.93159 12.629 2.20524L20.6179 8.45736C21.0766 8.8402 21.2717 9.45429 21.118 10.0316C20.8282 10.8622 20.0137 11.3919 19.137 11.3201C18.2273 11.3456 17.3819 10.8526 16.956 10.0483C16.9197 9.97931 16.8481 9.93611 16.7702 9.93611C16.6922 9.93611 16.6206 9.97931 16.5843 10.0483C16.1586 10.8528 15.3131 11.3458 14.4033 11.3201C13.4935 11.3458 12.648 10.8528 12.2223 10.0483C12.186 9.97931 12.1145 9.93611 12.0365 9.93611C11.9585 9.93611 11.887 9.97931 11.8506 10.0483C11.4248 10.8526 10.5794 11.3456 9.66966 11.3201C8.75867 11.3471 7.91155 10.8539 7.48533 10.0483C7.44901 9.97931 7.37746 9.93611 7.29948 9.93611Z" />
<path d="M12.8366 12.416C12.8366 12.1858 12.65 11.9993 12.4199 11.9993H11.5865C11.3563 11.9993 11.1698 12.1858 11.1698 12.416V21.1458C11.1698 21.606 11.5429 21.9792 12.0032 21.9792C12.4634 21.9792 12.8366 21.606 12.8366 21.1458V12.416Z" />
<path d="M7.83619 16.9996C8.75673 16.9996 9.50298 17.7459 9.50298 18.6664V21.1666C9.50298 21.6269 9.12985 22 8.66958 22C8.20931 22 7.83619 21.6269 7.83619 21.1666V18.8756C7.83619 18.7605 7.74291 18.6673 7.62784 18.6673H5.54436C5.42929 18.6673 5.33601 18.7605 5.33601 18.8756V21.1666C5.33601 21.6269 4.96289 22 4.50261 22C4.04234 22 3.66922 21.6269 3.66922 21.1666V18.0164C3.66999 17.9548 3.66384 17.8933 3.65089 17.833L2.85333 14.2603C2.78255 13.9673 2.87544 13.659 3.09627 13.4539C3.31709 13.2488 3.63145 13.1789 3.91838 13.2711C4.20531 13.3633 4.4201 13.6032 4.48011 13.8986L5.13266 16.833C5.15211 16.9299 5.23718 16.9996 5.33601 16.9996H7.83619Z" />
<path d="M14.5033 18.6664C14.5033 17.7459 15.2496 16.9996 16.1701 16.9996H18.6703C18.7691 16.9996 18.8542 16.9299 18.8737 16.833L19.5262 13.8986C19.6329 13.457 20.0737 13.1822 20.5172 13.2808C20.9607 13.3794 21.2435 13.8151 21.153 14.2603L20.3554 17.833C20.3425 17.8933 20.3363 17.9548 20.3371 18.0164V21.1666C20.3371 21.6269 19.964 22 19.5037 22C19.0434 22 18.6703 21.6269 18.6703 21.1666V18.8756C18.6703 18.7605 18.577 18.6673 18.462 18.6673H16.3785C16.2634 18.6673 16.1701 18.7605 16.1701 18.8756V21.1666C16.1701 21.6269 15.797 22 15.3367 22C14.8765 22 14.5033 21.6269 14.5033 21.1666V18.6664Z" />
</svg>