<!--character:$550:558-->
  <svg width="24" height="24" viewBox="0 0 24 24" >
<path d="M7.29951 9.9361C7.22153 9.9361 7.14997 9.9793 7.11366 10.0483C6.68851 10.8536 5.84296 11.3476 4.93267 11.3226C4.00848 11.4014 3.15323 10.8287 2.87419 9.94413C2.75976 9.41617 2.93205 8.867 3.32755 8.49902L11.4356 2.20523C11.7864 1.93159 12.2783 1.93159 12.6291 2.20523L20.618 8.45735C21.0766 8.8402 21.2717 9.45428 21.118 10.0316C20.8282 10.8622 20.0137 11.3919 19.137 11.3201C18.2273 11.3456 17.3819 10.8526 16.956 10.0483C16.9197 9.9793 16.8482 9.9361 16.7702 9.9361C16.6922 9.9361 16.6207 9.9793 16.5843 10.0483C16.1587 10.8528 15.3131 11.3458 14.4034 11.3201C13.4936 11.3458 12.648 10.8528 12.2224 10.0483C12.186 9.9793 12.1145 9.9361 12.0365 9.9361C11.9585 9.9361 11.887 9.9793 11.8507 10.0483C11.4248 10.8526 10.5794 11.3456 9.66968 11.3201C8.7587 11.3471 7.91158 10.8539 7.48535 10.0483C7.44904 9.9793 7.37748 9.9361 7.29951 9.9361Z" />
<path d="M12.8366 12.416C12.8366 12.1858 12.65 11.9993 12.4199 11.9993H11.5865C11.3563 11.9993 11.1698 12.1858 11.1698 12.416V21.1458C11.1698 21.606 11.5429 21.9792 12.0032 21.9792C12.4634 21.9792 12.8366 21.606 12.8366 21.1458V12.416Z" />
<path d="M7.83621 16.9997C8.75675 16.9997 9.503 17.7459 9.503 18.6664V21.1666C9.503 21.6269 9.12987 22 8.6696 22C8.20933 22 7.83621 21.6269 7.83621 21.1666V18.8756C7.83621 18.7606 7.74293 18.6673 7.62786 18.6673H5.54438C5.42931 18.6673 5.33603 18.7606 5.33603 18.8756V21.1666C5.33603 21.6269 4.96291 22 4.50264 22C4.04237 22 3.66924 21.6269 3.66924 21.1666V18.0164C3.67001 17.9548 3.66386 17.8933 3.65091 17.8331L2.85335 14.2603C2.78257 13.9673 2.87546 13.659 3.09629 13.4539C3.31712 13.2488 3.63147 13.1789 3.9184 13.2711C4.20533 13.3633 4.42012 13.6033 4.48013 13.8986L5.13268 16.833C5.15213 16.9299 5.23721 16.9996 5.33603 16.9997H7.83621Z" />
<path d="M14.5034 18.6664C14.5034 17.7459 15.2496 16.9996 16.1701 16.9996H18.6703C18.7692 16.9996 18.8542 16.9298 18.8737 16.833L19.5262 13.8986C19.6329 13.457 20.0737 13.1822 20.5172 13.2808C20.9607 13.3794 21.2435 13.815 21.153 14.2603L20.3554 17.833C20.3425 17.8933 20.3363 17.9548 20.3371 18.0164V21.1666C20.3371 21.6269 19.964 22 19.5037 22C19.0435 22 18.6703 21.6269 18.6703 21.1666V18.8756C18.6703 18.7605 18.577 18.6673 18.462 18.6673H16.3785C16.2634 18.6673 16.1701 18.7605 16.1701 18.8756V21.1666C16.1701 21.6269 15.797 22 15.3368 22C14.8765 22 14.5034 21.6269 14.5034 21.1666V18.6664Z" />
</svg>