<!--character:4723-->
  <svg width="20" height="20" viewBox="0 0 20 20" >
<path d="M6.08297 8.28008C6.01799 8.28008 5.95836 8.31608 5.9281 8.37358C5.57381 9.04467 4.86918 9.45635 4.11061 9.43546C3.34045 9.50118 2.62774 9.02392 2.39521 8.28677C2.29985 7.84681 2.44343 7.38916 2.77301 7.08252L9.52975 1.83769C9.82204 1.60965 10.232 1.60965 10.5243 1.83769L17.1817 7.04779C17.5639 7.36683 17.7265 7.87857 17.5984 8.35969C17.3569 9.05183 16.6782 9.49328 15.9476 9.43338C15.1895 9.45467 14.4849 9.04386 14.1301 8.37358C14.0998 8.31608 14.0402 8.28008 13.9752 8.28008C13.9102 8.28008 13.8506 8.31608 13.8203 8.37358C13.4656 9.04398 12.761 9.45483 12.0028 9.43338C11.2447 9.45483 10.5401 9.04398 10.1854 8.37358C10.1551 8.31608 10.0955 8.28008 10.0305 8.28008C9.9655 8.28008 9.90587 8.31608 9.87561 8.37358C9.52074 9.04386 8.81623 9.45467 8.05811 9.43338C7.29896 9.4559 6.59303 9.04489 6.23784 8.37358C6.20758 8.31608 6.14795 8.28008 6.08297 8.28008Z" />
<path d="M10.6972 10.3466C10.6972 10.1549 10.5417 9.99939 10.3499 9.99939H9.65545C9.46367 9.99939 9.30821 10.1549 9.30821 10.3466V17.6215C9.30821 18.005 9.61914 18.316 10.0027 18.316C10.3863 18.316 10.6972 18.005 10.6972 17.6215V10.3466Z" />
<path d="M6.53023 14.1664C7.29734 14.1664 7.91922 14.7882 7.91922 15.5554V17.6388C7.91922 18.0224 7.60828 18.3333 7.22472 18.3333C6.84116 18.3333 6.53023 18.0224 6.53023 17.6388V15.7297C6.53023 15.6338 6.45249 15.556 6.3566 15.556H4.62037C4.52448 15.556 4.44674 15.6338 4.44674 15.7297V17.6388C4.44674 18.0224 4.13581 18.3333 3.75225 18.3333C3.36869 18.3333 3.05775 18.0224 3.05775 17.6388V15.0136C3.05839 14.9623 3.05327 14.9111 3.04247 14.8609L2.37784 11.8836C2.31886 11.6394 2.39627 11.3825 2.58029 11.2116C2.76431 11.0407 3.02628 10.9824 3.26538 11.0592C3.50449 11.1361 3.68348 11.336 3.7335 11.5821L4.27729 14.0275C4.29349 14.1082 4.36439 14.1663 4.44674 14.1664H6.53023Z" />
<path d="M12.0862 15.5554C12.0862 14.7882 12.7081 14.1664 13.4752 14.1664H15.5587C15.641 14.1663 15.7119 14.1082 15.7281 14.0275L16.2719 11.5821C16.3608 11.2141 16.7281 10.9852 17.0977 11.0673C17.4673 11.1495 17.7029 11.5125 17.6276 11.8836L16.9629 14.8609C16.9521 14.9111 16.947 14.9623 16.9476 15.0136V17.6388C16.9476 18.0224 16.6367 18.3333 16.2532 18.3333C15.8696 18.3333 15.5587 18.0224 15.5587 17.6388V15.7297C15.5587 15.6338 15.4809 15.556 15.385 15.556H13.6488C13.5529 15.556 13.4752 15.6338 13.4752 15.7297V17.6388C13.4752 18.0224 13.1642 18.3333 12.7807 18.3333C12.3971 18.3333 12.0862 18.0224 12.0862 17.6388V15.5554Z" />
</svg>