<!--category:services-->
<!--character:E046-->
<!--added:0.11-->
<svg width="24" height="24" viewBox="0 0 24 24" xmlns="http://www.w3.org/2000/svg"><path d="M12.4199 11.9993a.4167.4167 0 0 1 .4167.4167v8.7298a.8334.8334 0 1 1-1.6668 0V12.416a.4167.4167 0 0 1 .4167-.4167h.8334zm-2.917 6.6671v2.5002a.8334.8334 0 0 1-1.6667 0v-2.291a.2083.2083 0 0 0-.2084-.2083H5.5444a.2083.2083 0 0 0-.2084.2083v2.291a.8334.8334 0 1 1-1.6668 0v-3.1502a.8234.8234 0 0 0-.0183-.1834l-.7976-3.5727a.8334.8334 0 1 1 1.6268-.3617l.6526 2.9344a.2075.2075 0 0 0 .2033.1666h2.5002c.9205 0 1.6668.7463 1.6668 1.6668zm5.0004 0c0-.9205.7463-1.6668 1.6668-1.6668h2.5002a.2075.2075 0 0 0 .2034-.1666l.6525-2.9344a.8334.8334 0 0 1 1.6268.3617l-.7976 3.5727a.8234.8234 0 0 0-.0183.1834v3.1502a.8334.8334 0 0 1-1.6668 0v-2.291a.2083.2083 0 0 0-.2083-.2083h-2.0835a.2083.2083 0 0 0-.2084.2083v2.291a.8334.8334 0 1 1-1.6668 0v-2.5002zm-7.3897-8.6181a2.3918 2.3918 0 0 1-2.181 1.2743A1.9818 1.9818 0 0 1 2.8743 9.944a1.531 1.531 0 0 1 .4533-1.445l8.1081-6.2939a.97.97 0 0 1 1.1934 0l7.989 6.2522a1.536 1.536 0 0 1 .5 1.5742 1.931 1.931 0 0 1-1.981 1.2885 2.3918 2.3918 0 0 1-2.181-1.2718.21.21 0 0 0-.3717 0 2.391 2.391 0 0 1-2.181 1.2718 2.391 2.391 0 0 1-2.181-1.2718.21.21 0 0 0-.3716 0 2.3918 2.3918 0 0 1-2.181 1.2718 2.391 2.391 0 0 1-2.1844-1.2718.21.21 0 0 0-.3717 0z"/></svg>