<!-- character:0:2105 -->
  <svg width="20" height="20" viewBox="0 0 20 20" >
<path   d="M6.08291 8.28004C6.01793 8.28004 5.9583 8.31604 5.92804 8.37354C5.57375 9.04463 4.86912 9.45631 4.11055 9.43543C3.34039 9.50114 2.62768 9.02388 2.39514 8.28673C2.29979 7.84677 2.44337 7.38913 2.77295 7.08248L9.52969 1.83765C9.82198 1.60962 10.2319 1.60962 10.5242 1.83765L17.1816 7.04775C17.5639 7.36679 17.7264 7.87853 17.5983 8.35965C17.3568 9.05179 16.6781 9.49324 15.9475 9.43334C15.1894 9.45463 14.4849 9.04382 14.13 8.37354C14.0998 8.31604 14.0401 8.28004 13.9751 8.28004C13.9102 8.28004 13.8505 8.31604 13.8203 8.37354C13.4655 9.04394 12.7609 9.45479 12.0028 9.43334C11.2446 9.45479 10.54 9.04394 10.1853 8.37354C10.155 8.31604 10.0954 8.28004 10.0304 8.28004C9.96544 8.28004 9.90581 8.31604 9.87555 8.37354C9.52068 9.04382 8.81617 9.45463 8.05805 9.43334C7.2989 9.45586 6.59297 9.04486 6.23778 8.37354C6.20752 8.31604 6.14789 8.28004 6.08291 8.28004ZM10.6971 10.3466C10.6971 10.1548 10.5417 9.99936 10.3499 9.99936H9.65539C9.46361 9.99936 9.30814 10.1548 9.30814 10.3466V17.6214C9.30814 18.005 9.61908 18.3159 10.0026 18.3159C10.3862 18.3159 10.6971 18.005 10.6971 17.6214V10.3466ZM6.53017 14.1663C7.29728 14.1663 7.91916 14.7882 7.91916 15.5553V17.6388C7.91916 18.0224 7.60822 18.3333 7.22466 18.3333C6.8411 18.3333 6.53017 18.0224 6.53017 17.6388V15.7296C6.53017 15.6337 6.45243 15.556 6.35654 15.556H4.62031C4.52442 15.556 4.44668 15.6337 4.44668 15.7296V17.6388C4.44668 18.0224 4.13575 18.3333 3.75219 18.3333C3.36863 18.3333 3.05769 18.0224 3.05769 17.6388V15.0136C3.05833 14.9623 3.05321 14.911 3.04241 14.8608L2.37778 11.8835C2.3188 11.6394 2.39621 11.3824 2.58023 11.2115C2.76425 11.0406 3.02621 10.9824 3.26532 11.0592C3.50443 11.136 3.68342 11.336 3.73344 11.5821L4.27722 14.0274C4.29343 14.1082 4.36433 14.1663 4.44668 14.1663H6.53017ZM12.0861 15.5553C12.0861 14.7882 12.708 14.1663 13.4751 14.1663H15.5586C15.6409 14.1663 15.7118 14.1082 15.7281 14.0274L16.2718 11.5821C16.3608 11.2141 16.7281 10.9851 17.0976 11.0673C17.4672 11.1495 17.7029 11.5125 17.6275 11.8835L16.9629 14.8608C16.9521 14.911 16.9469 14.9623 16.9476 15.0136V17.6388C16.9476 18.0224 16.6366 18.3333 16.2531 18.3333C15.8695 18.3333 15.5586 18.0224 15.5586 17.6388V15.7296C15.5586 15.6337 15.4809 15.556 15.385 15.556H13.6487C13.5528 15.556 13.4751 15.6337 13.4751 15.7296V17.6388C13.4751 18.0224 13.1642 18.3333 12.7806 18.3333C12.3971 18.3333 12.0861 18.0224 12.0861 17.6388V15.5553Z" />
</svg>