<!-- character:0:100 -->
  <svg width="20" height="20" viewBox="0 0 20 20" >
<path   d="M12.7569 3.80633C11.8871 3.41399 10.9407 3.20837 9.96671 3.20837C6.21578 3.20837 3.17505 6.24911 3.17505 10C3.17505 10.3978 3.20934 10.7911 3.27669 11.1765L1.83626 11.9103C1.56508 12.0485 1.47618 12.321 1.61458 12.5926C1.68367 12.7282 1.77492 12.7955 1.91092 12.8401L5.18615 13.9039C5.41362 14.0152 5.68479 13.877 5.77369 13.6045L6.83773 10.3298C6.9264 10.0569 6.78823 9.78569 6.51533 9.69702L6.43587 9.67603C6.33263 9.65576 6.23835 9.66736 6.12988 9.72263L4.69422 10.4542C4.68148 10.3039 4.67505 10.1525 4.67505 10C4.67505 7.07753 7.04421 4.70837 9.96671 4.70837C10.727 4.70837 11.4633 4.86834 12.1401 5.17365C12.5176 5.34397 12.9618 5.17596 13.1321 4.79839C13.3024 4.42082 13.1344 3.97666 12.7569 3.80633ZM18.0784 7.08189L14.8032 6.01808C14.5757 5.90683 14.3045 6.045 14.2156 6.31745L13.1516 9.59222C13.0629 9.86512 13.2011 10.1363 13.474 10.225L13.5535 10.246C13.6567 10.2662 13.751 10.2546 13.8594 10.1994L15.235 9.49898C15.2505 9.66458 15.2584 9.83173 15.2584 10C15.2584 12.9225 12.8892 15.2917 9.96672 15.2917C9.20996 15.2917 8.47694 15.1332 7.80266 14.8306C7.42476 14.661 6.98093 14.8299 6.81133 15.2078C6.64174 15.5857 6.8106 16.0295 7.18851 16.1991C8.055 16.588 8.99721 16.7917 9.96672 16.7917C13.7177 16.7917 16.7584 13.751 16.7584 10C16.7584 9.58643 16.7213 9.17772 16.6486 8.77767L18.1531 8.01165C18.4242 7.87348 18.5131 7.60103 18.3747 7.3294C18.3056 7.19381 18.2144 7.12645 18.0784 7.08189Z" />
</svg>