<!--character:32:472:454-->
  <svg width="24" height="24" viewBox="0 0 24 24" >
<path   d="M15.3082 4.56752C14.2645 4.09671 13.1288 3.84998 11.96 3.84998C7.45886 3.84998 3.80999 7.49886 3.80999 12C3.80999 12.4773 3.85114 12.9493 3.93196 13.4117L2.20344 14.2923C1.87803 14.4581 1.77135 14.7851 1.93743 15.111C2.02033 15.2737 2.12983 15.3546 2.29303 15.408L6.2233 16.6846C6.49627 16.8181 6.82168 16.6523 6.92836 16.3254L8.20521 12.3956C8.31161 12.0682 8.1458 11.7428 7.81833 11.6363L7.72297 11.6112C7.59908 11.5868 7.48594 11.6008 7.35578 11.6671L5.63299 12.5449C5.6177 12.3647 5.60999 12.1829 5.60999 12C5.60999 8.49297 8.45298 5.64998 11.96 5.64998C12.8723 5.64998 13.7558 5.84193 14.568 6.2083C15.0211 6.41269 15.5541 6.21108 15.7585 5.758C15.9629 5.30491 15.7613 4.77191 15.3082 4.56752ZM21.694 8.49822L17.7637 7.22165C17.4908 7.08815 17.1653 7.25396 17.0587 7.58089L15.7818 11.5106C15.6754 11.8381 15.8412 12.1635 16.1687 12.2699L16.2641 12.2951C16.3879 12.3194 16.5011 12.3055 16.6312 12.2392L18.2819 11.3987C18.3006 11.5975 18.31 11.798 18.31 12C18.31 15.507 15.467 18.35 11.96 18.35C11.0519 18.35 10.1722 18.1598 9.36311 17.7967C8.90963 17.5932 8.37702 17.7958 8.17351 18.2493C7.97 18.7028 8.17264 19.2354 8.62612 19.4389C9.66591 19.9055 10.7966 20.15 11.96 20.15C16.4611 20.15 20.11 16.5011 20.11 12C20.11 11.5037 20.0655 11.0132 19.9782 10.5332L21.7836 9.61393C22.109 9.44813 22.2157 9.12119 22.0496 8.79524C21.9667 8.63253 21.8572 8.5517 21.694 8.49822Z" />
</svg>