<!--character:7824-->
  <svg width="20" height="20" viewBox="0 0 20 20" >
<path d="M12.7566 3.80629C11.8869 3.41395 10.9405 3.20834 9.96647 3.20834C6.21554 3.20834 3.1748 6.24907 3.1748 10C3.1748 10.3978 3.2091 10.7911 3.27645 11.1765L1.83601 11.9103C1.56484 12.0485 1.47594 12.3209 1.61434 12.5925C1.68343 12.7281 1.77468 12.7955 1.91068 12.8401L5.1859 13.9039C5.41337 14.0151 5.68455 13.8769 5.77345 13.6045L6.83749 10.3297C6.92616 10.0568 6.78799 9.78565 6.51509 9.69698L6.43562 9.67599C6.33239 9.65572 6.2381 9.66732 6.12963 9.72259L4.69398 10.4541C4.68123 10.3039 4.6748 10.1524 4.6748 10C4.6748 7.0775 7.04396 4.70834 9.96647 4.70834C10.7267 4.70834 11.463 4.8683 12.1398 5.17361C12.5174 5.34393 12.9615 5.17593 13.1319 4.79835C13.3022 4.42078 13.1342 3.97662 12.7566 3.80629ZM18.0782 7.08185L14.8029 6.01804C14.5755 5.90679 14.3043 6.04496 14.2154 6.31741L13.1513 9.59218C13.0627 9.86508 13.2008 10.1363 13.4737 10.2249L13.5532 10.2459C13.6564 10.2662 13.7507 10.2546 13.8592 10.1993L15.2348 9.49894C15.2503 9.66454 15.2581 9.83169 15.2581 10C15.2581 12.9225 12.889 15.2917 9.96647 15.2917C9.20972 15.2917 8.4767 15.1332 7.80242 14.8306C7.42452 14.661 6.98068 14.8299 6.81109 15.2078C6.64149 15.5857 6.81036 16.0295 7.18826 16.1991C8.05475 16.5879 8.99697 16.7917 9.96647 16.7917C13.7174 16.7917 16.7581 13.7509 16.7581 10C16.7581 9.58639 16.7211 9.17768 16.6483 8.77764L18.1528 8.01161C18.424 7.87344 18.5129 7.60099 18.3745 7.32936C18.3054 7.19378 18.2142 7.12641 18.0782 7.08185Z" />
</svg>