<!--category:basic-->
<!--character:0057-->
<svg width="24" height="24" viewBox="0 0 24 24" xmlns="http://www.w3.org/2000/svg"><path d="M14.659 18.7727v-7.3636a.6139.6139 0 0 0-.6135-.6136.6139.6139 0 0 0-.6137.6136v7.3636c0 .3388.275.6137.6137.6137a.6139.6139 0 0 0 .6136-.6137zm-4.0908 0v-7.3636a.6139.6139 0 0 0-.6137-.6136.6139.6139 0 0 0-.6136.6136v7.3636c0 .3388.275.6137.6136.6137a.6139.6139 0 0 0 .6137-.6137zm7.5682-10.6363c.2258 0 .409.1832.409.409V20c0 .9033-.733 1.6364-1.6363 1.6364H7.0909c-.9033 0-1.6364-.7331-1.6364-1.6364V8.5455c0-.2259.1833-.4091.4091-.4091h12.2728zm-8.591-3.0682c0 .1129.0917.2045.2046.2045h4.5a.2046.2046 0 0 0 .2045-.2045V4.0455a.4092.4092 0 0 0-.409-.4091h-4.091a.4092.4092 0 0 0-.409.409v1.0228zm10.6364.2045A.818.818 0 0 1 21 6.091a.818.818 0 0 1-.8182.8182H3.8182A.8185.8185 0 0 1 3 6.0909a.8185.8185 0 0 1 .8182-.8182h3.8863a.2046.2046 0 0 0 .2046-.2045V4.0455C7.909 2.9155 8.8246 2 9.9545 2h4.091c1.1299 0 2.0454.9155 2.0454 2.0455v1.0227c0 .1129.0916.2045.2046.2045h3.8863z"/></svg>