<!--character:2598-->
  <svg width="20" height="20" viewBox="0 0 20 20" >
<path d="M13.5795 4.39394H16.8182C17.1952 4.39394 17.5 4.69939 17.5 5.07575C17.5 5.45212 17.1952 5.75757 16.8182 5.75757H3.18182C2.80545 5.75757 2.5 5.45212 2.5 5.07575C2.5 4.69939 2.80545 4.39394 3.18182 4.39394H6.42045C6.51455 4.39394 6.59091 4.31757 6.59091 4.22348V3.37121C6.59091 2.42962 7.35386 1.66666 8.29545 1.66666H11.7045C12.6461 1.66666 13.4091 2.42962 13.4091 3.37121V4.22348C13.4091 4.31757 13.4855 4.39394 13.5795 4.39394ZM7.95455 3.37121V4.22348C7.95455 4.31757 8.03091 4.39394 8.125 4.39394H11.875C11.9691 4.39394 12.0455 4.31757 12.0455 4.22348V3.37121C12.0455 3.18303 11.8927 3.0303 11.7045 3.0303H8.29545C8.10727 3.0303 7.95455 3.18303 7.95455 3.37121Z" />
<path d="M4.88636 6.7803H15.1136C15.3018 6.7803 15.4545 6.93303 15.4545 7.12121V16.6667C15.4545 17.4194 14.8436 18.0303 14.0909 18.0303H5.90909C5.15636 18.0303 4.54545 17.4194 4.54545 16.6667V7.12121C4.54545 6.93303 4.69818 6.7803 4.88636 6.7803ZM11.7045 16.1553C11.9868 16.1553 12.2159 15.9262 12.2159 15.6439V9.50757C12.2159 9.2253 11.9868 8.99621 11.7045 8.99621C11.4223 8.99621 11.1932 9.2253 11.1932 9.50757V15.6439C11.1932 15.9262 11.4223 16.1553 11.7045 16.1553ZM8.29545 16.1553C8.57773 16.1553 8.80682 15.9262 8.80682 15.6439V9.50757C8.80682 9.2253 8.57773 8.99621 8.29545 8.99621C8.01318 8.99621 7.78409 9.2253 7.78409 9.50757V15.6439C7.78409 15.9262 8.01318 16.1553 8.29545 16.1553Z" />
</svg>