<!--character:1263-->
  <svg width="24" height="24" viewBox="0 0 24 24" >
<path d="M16.2955 5.27272H20.1818C20.6343 5.27272 21 5.63927 21 6.09091C21 6.54254 20.6343 6.90909 20.1818 6.90909H3.81818C3.36655 6.90909 3 6.54254 3 6.09091C3 5.63927 3.36655 5.27272 3.81818 5.27272H7.70455C7.81745 5.27272 7.90909 5.18109 7.90909 5.06818V4.04545C7.90909 2.91554 8.82464 2 9.95455 2H14.0455C15.1754 2 16.0909 2.91554 16.0909 4.04545V5.06818C16.0909 5.18109 16.1825 5.27272 16.2955 5.27272ZM9.54545 4.04545V5.06818C9.54545 5.18109 9.63709 5.27272 9.75 5.27272H14.25C14.3629 5.27272 14.4545 5.18109 14.4545 5.06818V4.04545C14.4545 3.81963 14.2713 3.63636 14.0455 3.63636H9.95454C9.72873 3.63636 9.54545 3.81963 9.54545 4.04545Z" />
<path d="M5.86364 8.13636H18.1364C18.3622 8.13636 18.5455 8.31963 18.5455 8.54545V20C18.5455 20.9033 17.8124 21.6364 16.9091 21.6364H7.09091C6.18764 21.6364 5.45455 20.9033 5.45455 20V8.54545C5.45455 8.31963 5.63782 8.13636 5.86364 8.13636ZM14.0455 19.3864C14.3842 19.3864 14.6591 19.1115 14.6591 18.7727V11.4091C14.6591 11.0704 14.3842 10.7955 14.0455 10.7955C13.7067 10.7955 13.4318 11.0704 13.4318 11.4091V18.7727C13.4318 19.1115 13.7067 19.3864 14.0455 19.3864ZM9.95454 19.3864C10.2933 19.3864 10.5682 19.1115 10.5682 18.7727V11.4091C10.5682 11.0704 10.2933 10.7955 9.95454 10.7955C9.61582 10.7955 9.34091 11.0704 9.34091 11.4091V18.7727C9.34091 19.1115 9.61582 19.3864 9.95454 19.3864Z" />
</svg>