<!--character:5291-->
  <svg width="24" height="24" viewBox="0 0 24 24" >
<path d="M16.2955 5.27273H20.1818C20.6343 5.27273 21 5.63927 21 6.09091C21 6.54255 20.6343 6.90909 20.1818 6.90909H3.81818C3.36655 6.90909 3 6.54255 3 6.09091C3 5.63927 3.36655 5.27273 3.81818 5.27273H7.70455C7.81745 5.27273 7.90909 5.18109 7.90909 5.06818V4.04545C7.90909 2.91555 8.82464 2 9.95455 2H14.0455C15.1754 2 16.0909 2.91555 16.0909 4.04545V5.06818C16.0909 5.18109 16.1825 5.27273 16.2955 5.27273ZM9.54544 4.04548V5.06821C9.54544 5.18112 9.63708 5.27275 9.74999 5.27275H14.25C14.3629 5.27275 14.4545 5.18112 14.4545 5.06821V4.04548C14.4545 3.81966 14.2713 3.63639 14.0454 3.63639H9.95454C9.72872 3.63639 9.54544 3.81966 9.54544 4.04548Z" />
<path d="M5.86365 8.13639H18.1364C18.3622 8.13639 18.5455 8.31966 18.5455 8.54548V20C18.5455 20.9033 17.8124 21.6364 16.9091 21.6364H7.09092C6.18765 21.6364 5.45456 20.9033 5.45456 20V8.54548C5.45456 8.31966 5.63783 8.13639 5.86365 8.13639ZM14.0455 19.3864C14.3842 19.3864 14.6591 19.1115 14.6591 18.7728V11.4091C14.6591 11.0704 14.3842 10.7955 14.0455 10.7955C13.7067 10.7955 13.4318 11.0704 13.4318 11.4091V18.7728C13.4318 19.1115 13.7067 19.3864 14.0455 19.3864ZM9.95455 19.3864C10.2933 19.3864 10.5682 19.1115 10.5682 18.7728V11.4091C10.5682 11.0704 10.2933 10.7955 9.95455 10.7955C9.61583 10.7955 9.34092 11.0704 9.34092 11.4091V18.7728C9.34092 19.1115 9.61583 19.3864 9.95455 19.3864Z" />
</svg>