<!--character:2979-->
  <svg width="20" height="20" viewBox="0 0 20 20" >
<path d="M16.5753 7.74942C16.4882 6.03222 15.0683 4.66666 13.3295 4.66666H7.26667L7.17259 4.67251C6.80278 4.71879 6.51667 5.03431 6.51667 5.41666C6.51667 5.83088 6.85245 6.16666 7.26667 6.16666H13.3295L13.4545 6.17106C14.3626 6.23514 15.0795 6.99219 15.0795 7.91666V11.4683L13.4201 11.4678C13.1157 11.4678 12.9128 11.6702 12.9128 11.975C12.9128 12.1272 12.9636 12.2286 13.0645 12.3301L15.4998 14.7649C15.652 14.9673 15.9563 14.9673 16.1592 14.7649L18.594 12.3301C18.7969 12.1272 18.7969 11.8228 18.594 11.6199L18.5327 11.5652C18.4499 11.5002 18.3607 11.4678 18.2389 11.4678L16.5795 11.4683V7.91666L16.5753 7.74942ZM6.93167 7.66991L4.49638 5.23512C4.3442 5.03273 4.03986 5.03273 3.83696 5.23512L1.40217 7.66991C1.19928 7.87281 1.19928 8.17715 1.40217 8.38005L1.46345 8.43483C1.54623 8.49976 1.63551 8.53223 1.75725 8.53223L3.41667 8.53166V12.0833L3.4209 12.2506C3.50794 13.9678 4.92783 15.3333 6.66667 15.3333H12.7295L12.8236 15.3275C13.1934 15.2812 13.4795 14.9657 13.4795 14.5833C13.4795 14.1691 13.1437 13.8333 12.7295 13.8333H6.66667L6.54169 13.8289C5.63352 13.7649 4.91667 13.0078 4.91667 12.0833V8.53166L6.57609 8.53223C6.88043 8.53223 7.08333 8.32983 7.08333 8.02498C7.08333 7.87281 7.03261 7.77136 6.93167 7.66991Z" />
</svg>