<!--character:9641-->
  <svg width="24" height="24" viewBox="0 0 24 24" >
<path d="M19.8903 9.2993C19.7859 7.23865 18.082 5.59999 15.9954 5.59999H8.72L8.60711 5.607C8.16334 5.66254 7.82 6.04117 7.82 6.49999C7.82 6.99704 8.22294 7.39999 8.72 7.39999H15.9954L16.1454 7.40526C17.2352 7.48216 18.0954 8.39062 18.0954 9.49999V13.762L16.1041 13.7613C15.7389 13.7613 15.4954 14.0042 15.4954 14.37C15.4954 14.5526 15.5563 14.6744 15.6774 14.7961L18.5997 17.7178C18.7824 17.9607 19.1476 17.9607 19.391 17.7178L22.3128 14.7961C22.5563 14.5526 22.5563 14.1874 22.3128 13.9439L22.2393 13.8782C22.1399 13.8003 22.0328 13.7613 21.8867 13.7613L19.8954 13.762V9.49999L19.8903 9.2993ZM8.318 9.20388L5.39565 6.28214C5.21304 6.03927 4.84783 6.03927 4.60435 6.28214L1.68261 9.20388C1.43913 9.44736 1.43913 9.81257 1.68261 10.0561L1.75614 10.1218C1.85548 10.1997 1.96261 10.2387 2.1087 10.2387L4.1 10.238V14.5L4.10507 14.7007C4.20953 16.7613 5.9134 18.4 8 18.4H15.2754L15.3883 18.393C15.8321 18.3374 16.1754 17.9588 16.1754 17.5C16.1754 17.0029 15.7725 16.6 15.2754 16.6H8L7.85003 16.5947C6.76022 16.5178 5.9 15.6094 5.9 14.5V10.238L7.8913 10.2387C8.25652 10.2387 8.5 9.99579 8.5 9.62997C8.5 9.44736 8.43913 9.32562 8.318 9.20388Z" />
</svg>