<!-- character:0:108 -->
  <svg width="20" height="20" viewBox="0 0 20 20" >
<path   d="M16.5753 7.74938C16.4882 6.03218 15.0683 4.66663 13.3295 4.66663H7.26667L7.17259 4.67247C6.80278 4.71875 6.51667 5.03428 6.51667 5.41663C6.51667 5.83084 6.85245 6.16663 7.26667 6.16663H13.3295L13.4545 6.17102C14.3626 6.2351 15.0795 6.99215 15.0795 7.91663V11.4683L13.4201 11.4677C13.1157 11.4677 12.9128 11.6701 12.9128 11.975C12.9128 12.1272 12.9636 12.2286 13.0645 12.3301L15.4998 14.7648C15.652 14.9672 15.9563 14.9672 16.1592 14.7648L18.594 12.3301C18.7969 12.1272 18.7969 11.8228 18.594 11.6199L18.5327 11.5651C18.4499 11.5002 18.3607 11.4677 18.2389 11.4677L16.5795 11.4683V7.91663L16.5753 7.74938ZM6.93167 7.66987L4.49638 5.23509C4.3442 5.03269 4.03986 5.03269 3.83696 5.23509L1.40217 7.66987C1.19928 7.87277 1.19928 8.17711 1.40217 8.38001L1.46345 8.4348C1.54623 8.49972 1.63551 8.53219 1.75725 8.53219L3.41667 8.53163V12.0833L3.4209 12.2505C3.50794 13.9677 4.92783 15.3333 6.66667 15.3333H12.7295L12.8236 15.3274C13.1934 15.2812 13.4795 14.9656 13.4795 14.5833C13.4795 14.1691 13.1437 13.8333 12.7295 13.8333H6.66667L6.54169 13.8289C5.63352 13.7648 4.91667 13.0078 4.91667 12.0833V8.53163L6.57609 8.53219C6.88043 8.53219 7.08333 8.3298 7.08333 8.02494C7.08333 7.87277 7.03261 7.77132 6.93167 7.66987Z" />
</svg>