<!-- character:0:2023 -->
  <svg width="20" height="20" viewBox="0 0 20 20" >
<path   d="M8.43333 2.36107C8.43333 1.97754 8.74424 1.66663 9.12777 1.66663C9.5113 1.66663 9.82222 1.97754 9.82222 2.36107V5.83329C9.82054 7.01013 9.07908 8.0588 7.97013 8.45274C7.83159 8.50183 7.73897 8.63284 7.73888 8.77982V17.6388C7.73888 18.0224 7.42797 18.3333 7.04444 18.3333C6.66091 18.3333 6.35 18.0224 6.35 17.6388V8.77982C6.34991 8.63284 6.25729 8.50183 6.11875 8.45274C5.0098 8.0588 4.26834 7.01013 4.26666 5.83329V2.36107C4.26666 1.97754 4.57758 1.66663 4.96111 1.66663C5.34464 1.66663 5.65555 1.97754 5.65555 2.36107V5.83329C5.65526 6.19639 5.79767 6.54506 6.05208 6.80413C6.10167 6.85402 6.1764 6.8692 6.24153 6.84263C6.30667 6.81606 6.34945 6.75294 6.35 6.6826V2.36107C6.35 1.97754 6.66091 1.66663 7.04444 1.66663C7.42797 1.66663 7.73888 1.97754 7.73888 2.36107V6.68399C7.73943 6.75433 7.78221 6.81745 7.84735 6.84402C7.91248 6.87059 7.98721 6.8554 8.0368 6.80551C8.29155 6.5461 8.43398 6.19687 8.43333 5.83329V2.36107ZM11.9056 2.18746C11.9056 1.89981 12.1387 1.66663 12.4264 1.66663C14.0458 1.66663 15.6805 5.87149 15.725 10.8632V10.868C15.7263 11.0986 15.6353 11.3202 15.4722 11.4833C15.3091 11.6463 15.0876 11.7374 14.8569 11.7361H13.6417C13.4499 11.7361 13.2944 11.8915 13.2944 12.0833V17.6388C13.2944 18.0224 12.9835 18.3333 12.6 18.3333C12.2165 18.3333 11.9056 18.0224 11.9056 17.6388V2.18746Z" />
</svg>