<!--character:8995-->
  <svg width="24" height="24" viewBox="0 0 24 24" >
<path d="M10.12 2.83333C10.12 2.37309 10.4931 2 10.9533 2C11.4136 2 11.7867 2.37309 11.7867 2.83333V7C11.7846 8.4122 10.8949 9.6706 9.56416 10.1433C9.39791 10.2022 9.28676 10.3594 9.28666 10.5358V21.1667C9.28666 21.6269 8.91357 22 8.45333 22C7.99309 22 7.62 21.6269 7.62 21.1667V10.5358C7.61989 10.3594 7.50875 10.2022 7.3425 10.1433C6.01176 9.6706 5.12201 8.4122 5.12 7V2.83333C5.12 2.37309 5.49309 2 5.95333 2C6.41357 2 6.78666 2.37309 6.78666 2.83333V7C6.78631 7.43571 6.95721 7.85412 7.2625 8.165C7.32201 8.22486 7.41168 8.24309 7.48984 8.2112C7.568 8.17932 7.61934 8.10358 7.62 8.01916V2.83333C7.62 2.37309 7.99309 2 8.45333 2C8.91357 2 9.28666 2.37309 9.28666 2.83333V8.02083C9.28732 8.10524 9.33866 8.18099 9.41682 8.21287C9.49498 8.24476 9.58465 8.22653 9.64416 8.16666C9.94986 7.85537 10.1208 7.43629 10.12 7V2.83333Z" />
<path d="M14.2867 2.625C14.2867 2.27982 14.5665 2 14.9117 2C16.855 2 18.8167 7.04583 18.87 13.0358V13.0417C18.8716 13.3184 18.7623 13.5843 18.5666 13.78C18.3709 13.9756 18.1051 14.0849 17.8283 14.0833H16.37C16.1399 14.0833 15.9533 14.2699 15.9533 14.5V21.1667C15.9533 21.6269 15.5802 22 15.12 22C14.6598 22 14.2867 21.6269 14.2867 21.1667V2.625Z" />
</svg>