<!--character:$550:580-->
  <svg width="24" height="24" viewBox="0 0 24 24" >
<path d="M10.1201 2.83333C10.1201 2.3731 10.4932 2 10.9534 2C11.4136 2 11.7867 2.3731 11.7867 2.83333V7C11.7847 8.4122 10.895 9.6706 9.56422 10.1433C9.39797 10.2022 9.28682 10.3595 9.28672 10.5358V21.1667C9.28672 21.6269 8.91363 22 8.45339 22C7.99315 22 7.62006 21.6269 7.62006 21.1667V10.5358C7.61996 10.3595 7.50881 10.2022 7.34256 10.1433C6.01182 9.6706 5.12207 8.4122 5.12006 7V2.83333C5.12006 2.3731 5.49315 2 5.95339 2C6.41363 2 6.78672 2.3731 6.78672 2.83333V7C6.78638 7.43572 6.95727 7.85412 7.26256 8.165C7.32207 8.22487 7.41174 8.24309 7.4899 8.21121C7.56806 8.17932 7.6194 8.10358 7.62006 8.01917V2.83333C7.62006 2.3731 7.99315 2 8.45339 2C8.91363 2 9.28672 2.3731 9.28672 2.83333V8.02083C9.28738 8.10525 9.33872 8.18099 9.41688 8.21287C9.49504 8.24476 9.58471 8.22653 9.64422 8.16667C9.94992 7.85537 10.1208 7.43629 10.1201 7V2.83333Z" />
<path d="M14.2867 2.625C14.2867 2.27982 14.5666 2 14.9117 2C16.8551 2 18.8167 7.04583 18.8701 13.0358V13.0417C18.8716 13.3184 18.7624 13.5843 18.5667 13.78C18.371 13.9757 18.1052 14.0849 17.8284 14.0833H16.3701C16.14 14.0833 15.9534 14.2699 15.9534 14.5V21.1667C15.9534 21.6269 15.5803 22 15.1201 22C14.6598 22 14.2867 21.6269 14.2867 21.1667V2.625Z" />
</svg>