<!--character:3246-->
  <svg width="20" height="20" viewBox="0 0 20 20" >
<path d="M8.43327 2.36111C8.43327 1.97758 8.74418 1.66666 9.12771 1.66666C9.51124 1.66666 9.82216 1.97758 9.82216 2.36111V5.83333C9.82048 7.01017 9.07902 8.05883 7.97007 8.45278C7.83153 8.50187 7.73891 8.63287 7.73882 8.77986V17.6389C7.73882 18.0224 7.42791 18.3333 7.04438 18.3333C6.66085 18.3333 6.34993 18.0224 6.34993 17.6389V8.77986C6.34985 8.63287 6.25723 8.50187 6.11868 8.45278C5.00974 8.05883 4.26828 7.01017 4.2666 5.83333V2.36111C4.2666 1.97758 4.57751 1.66666 4.96105 1.66666C5.34458 1.66666 5.65549 1.97758 5.65549 2.36111V5.83333C5.6552 6.19643 5.79761 6.5451 6.05202 6.80416C6.10161 6.85405 6.17634 6.86924 6.24147 6.84267C6.30661 6.8161 6.34939 6.75298 6.34993 6.68264V2.36111C6.34993 1.97758 6.66085 1.66666 7.04438 1.66666C7.42791 1.66666 7.73882 1.97758 7.73882 2.36111V6.68403C7.73937 6.75437 7.78215 6.81749 7.84729 6.84406C7.91242 6.87063 7.98715 6.85544 8.03674 6.80555C8.29148 6.54614 8.43392 6.19691 8.43327 5.83333V2.36111Z" />
<path d="M11.9055 2.1875C11.9055 1.89985 12.1387 1.66666 12.4263 1.66666C14.0458 1.66666 15.6805 5.87153 15.7249 10.8632V10.8681C15.7262 11.0987 15.6352 11.3202 15.4721 11.4833C15.309 11.6464 15.0875 11.7374 14.8569 11.7361H13.6416C13.4498 11.7361 13.2944 11.8916 13.2944 12.0833V17.6389C13.2944 18.0224 12.9835 18.3333 12.5999 18.3333C12.2164 18.3333 11.9055 18.0224 11.9055 17.6389V2.1875Z" />
</svg>