<!--character:2483-->
  <svg width="24" height="24" viewBox="0 0 24 24" >
<path d="M10.1199 2.83333C10.1199 2.37309 10.493 2 10.9533 2C11.4135 2 11.7866 2.37309 11.7866 2.83333V7C11.7846 8.4122 10.8948 9.6706 9.56409 10.1433C9.39784 10.2022 9.28669 10.3594 9.28659 10.5358V21.1667C9.28659 21.6269 8.91349 22 8.45326 22C7.99302 22 7.61992 21.6269 7.61992 21.1667V10.5358C7.61982 10.3594 7.50867 10.2022 7.34242 10.1433C6.01169 9.6706 5.12193 8.4122 5.11992 7V2.83333C5.11992 2.37309 5.49302 2 5.95326 2C6.41349 2 6.78659 2.37309 6.78659 2.83333V7C6.78624 7.43571 6.95713 7.85412 7.26242 8.165C7.32194 8.22486 7.4116 8.24309 7.48977 8.2112C7.56793 8.17932 7.61926 8.10358 7.61992 8.01916V2.83333C7.61992 2.37309 7.99302 2 8.45326 2C8.91349 2 9.28659 2.37309 9.28659 2.83333V8.02083C9.28725 8.10524 9.33858 8.18099 9.41674 8.21287C9.49491 8.24476 9.58457 8.22653 9.64409 8.16666C9.94978 7.85537 10.1207 7.43629 10.1199 7V2.83333Z" />
<path d="M14.2866 2.625C14.2866 2.27982 14.5664 2 14.9116 2C16.8549 2 18.8166 7.04583 18.8699 13.0358V13.0417C18.8715 13.3184 18.7622 13.5843 18.5665 13.78C18.3709 13.9756 18.105 14.0849 17.8283 14.0833H16.3699C16.1398 14.0833 15.9533 14.2699 15.9533 14.5V21.1667C15.9533 21.6269 15.5802 22 15.1199 22C14.6597 22 14.2866 21.6269 14.2866 21.1667V2.625Z" />
</svg>