<!-- character:0:154 -->
  <svg width="20" height="20" viewBox="0 0 20 20" >
<path   d="M15.9719 7.35645L18.1255 9.5093C18.4026 9.78709 18.4026 10.2038 18.1255 10.4816L15.9719 12.6344C15.556 13.0518 14.792 12.7733 14.792 12.1483V10.8288C14.792 10.7593 14.7226 10.6899 14.6531 10.6899H10.7151C10.4292 11.4992 9.65745 12.079 8.75018 12.079C7.84291 12.079 7.07119 11.4992 6.78526 10.6899H2.36109C1.94441 10.6899 1.66663 10.4121 1.66663 9.99542C1.66663 9.57875 1.94441 9.30096 2.36109 9.30096H6.78535C7.07137 8.4918 7.84301 7.91216 8.75018 7.91216C9.65735 7.91216 10.429 8.4918 10.715 9.30096H14.6531C14.7226 9.30096 14.792 9.23151 14.792 9.16207V7.84258C14.792 7.21756 15.556 6.93977 15.9719 7.35645Z" />
</svg>