<!--character:2966-->
  <svg width="24" height="24" viewBox="0 0 24 24" >
<path d="M19.1668 8.82775L21.751 11.4112C22.0835 11.7445 22.0835 12.2445 21.751 12.5779L19.1668 15.1613C18.6676 15.6621 17.7509 15.328 17.7509 14.5779V12.9946C17.7509 12.9112 17.6675 12.8279 17.5842 12.8279H15.8583C15.515 13.799 14.5885 14.4948 13.5005 14.4948C12.4117 14.4948 11.4857 13.799 11.1426 12.8279H9.35838C9.01526 13.799 8.08919 14.4948 7.00047 14.4948C5.91174 14.4948 4.98568 13.799 4.64256 12.8279H2.83375C2.33373 12.8279 2.00039 12.4945 2.00039 11.9945C2.00039 11.4945 2.33373 11.1612 2.83375 11.1612H4.64268C4.98589 10.1902 5.91187 9.49461 7.00047 9.49461C8.08907 9.49461 9.01504 10.1902 9.35826 11.1612H11.1427C11.4859 10.1902 12.4119 9.49461 13.5005 9.49461C14.5884 9.49461 15.5148 10.1902 15.8582 11.1612H17.5842C17.6675 11.1612 17.7509 11.0778 17.7509 10.9945V9.41111C17.7509 8.66108 18.6676 8.32774 19.1668 8.82775Z" />
</svg>