<!-- character:0:162 -->
  <svg width="20" height="20" viewBox="0 0 20 20" >
<path   d="M15.9719 7.35645L18.1255 9.5093C18.4026 9.78709 18.4026 10.2038 18.1255 10.4816L15.9719 12.6344C15.556 13.0518 14.792 12.7733 14.792 12.1483V10.8288C14.792 10.7593 14.7226 10.6899 14.6531 10.6899H13.2149C12.9288 11.4992 12.1567 12.079 11.25 12.079C10.3428 12.079 9.57103 11.4992 9.2851 10.6899H7.79828C7.51235 11.4992 6.74063 12.079 5.83336 12.079C4.92609 12.079 4.15437 11.4992 3.86843 10.6899H2.36109C1.94441 10.6899 1.66663 10.4121 1.66663 9.99542C1.66663 9.57875 1.94441 9.30096 2.36109 9.30096H3.86853C4.15454 8.4918 4.92619 7.91216 5.83336 7.91216C6.74052 7.91216 7.51217 8.4918 7.79818 9.30096H9.2852C9.57121 8.4918 10.3429 7.91216 11.25 7.91216C12.1566 7.91216 12.9286 8.4918 13.2148 9.30096H14.6531C14.7226 9.30096 14.792 9.23151 14.792 9.16207V7.84258C14.792 7.21756 15.556 6.93977 15.9719 7.35645Z" />
</svg>