<!--character:69:472:443-->
  <svg width="24" height="24" viewBox="0 0 24 24" >
<path d="M19.1664 8.82772L21.7506 11.4111C22.0831 11.7445 22.0831 12.2445 21.7506 12.5778L19.1664 15.1613C18.6672 15.6621 17.7505 15.3279 17.7505 14.5779V12.9945C17.7505 12.9112 17.6672 12.8278 17.5838 12.8278H12.8582C12.5151 13.799 11.589 14.4947 10.5003 14.4947C9.41156 14.4947 8.4855 13.799 8.14238 12.8278H2.83336C2.33334 12.8278 2 12.4945 2 11.9945C2 11.4945 2.33334 11.1611 2.83336 11.1611H8.14248C8.48569 10.1901 9.41167 9.49456 10.5003 9.49456C11.5889 9.49456 12.5149 10.1901 12.8581 11.1611H17.5838C17.6672 11.1611 17.7505 11.0778 17.7505 10.9945V9.41107C17.7505 8.66105 18.6672 8.3277 19.1664 8.82772Z" />
</svg>