<!--character:8728-->
  <svg width="24" height="24" viewBox="0 0 24 24" >
<path d="M19.1668 8.82775L21.751 11.4112C22.0835 11.7445 22.0835 12.2445 21.751 12.5779L19.1668 15.1613C18.6676 15.6621 17.7509 15.328 17.7509 14.5779V12.9946C17.7509 12.9112 17.6675 12.8279 17.5842 12.8279H12.8586C12.5154 13.799 11.5894 14.4948 10.5007 14.4948C9.41193 14.4948 8.48587 13.799 8.14275 12.8279H2.83375C2.33373 12.8279 2.00039 12.4945 2.00039 11.9945C2.00039 11.4945 2.33373 11.1612 2.83375 11.1612H8.14286C8.48608 10.1902 9.41205 9.49461 10.5007 9.49461C11.5893 9.49461 12.5152 10.1902 12.8584 11.1612H17.5842C17.6675 11.1612 17.7509 11.0778 17.7509 10.9945V9.41111C17.7509 8.66108 18.6676 8.32774 19.1668 8.82775Z" />
</svg>