<!--character:1915-->
  <svg width="20" height="20" viewBox="0 0 20 20" >
<path d="M15.9723 7.35646L18.1258 9.50931C18.4029 9.78709 18.4029 10.2038 18.1258 10.4816L15.9723 12.6344C15.5563 13.0518 14.7924 12.7733 14.7924 12.1483V10.8288C14.7924 10.7593 14.723 10.6899 14.6535 10.6899H13.2152C12.9291 11.4992 12.1571 12.079 11.2504 12.079C10.3431 12.079 9.5714 11.4992 9.28547 10.6899H7.79865C7.51271 11.4992 6.74099 12.079 5.83372 12.079C4.92645 12.079 4.15473 11.4992 3.8688 10.6899H2.36146C1.94478 10.6899 1.66699 10.4121 1.66699 9.99543C1.66699 9.57875 1.94478 9.30097 2.36146 9.30097H3.8689C4.15491 8.49181 4.92656 7.91217 5.83372 7.91217C6.74089 7.91217 7.51254 8.49181 7.79855 9.30097H9.28557C9.57158 8.49181 10.3432 7.91217 11.2504 7.91217C12.157 7.91217 12.929 8.49181 13.2151 9.30097H14.6535C14.723 9.30097 14.7924 9.23152 14.7924 9.16207V7.84259C14.7924 7.21757 15.5563 6.93978 15.9723 7.35646Z" />
</svg>