<!--character:5253-->
  <svg width="24" height="24" viewBox="0 0 24 24" >
<path d="M19.1664 8.82776L21.7506 11.4112C22.0831 11.7445 22.0831 12.2445 21.7506 12.5779L19.1664 15.1613C18.6672 15.6621 17.7505 15.328 17.7505 14.5779V12.9946C17.7505 12.9112 17.6671 12.8279 17.5838 12.8279H12.8582C12.515 13.7991 11.589 14.4948 10.5003 14.4948C9.41153 14.4948 8.48546 13.7991 8.14234 12.8279H2.83335C2.33333 12.8279 1.99999 12.4945 1.99999 11.9945C1.99999 11.4945 2.33333 11.1612 2.83335 11.1612H8.14246C8.48568 10.1902 9.41165 9.49462 10.5003 9.49462C11.5889 9.49462 12.5148 10.1902 12.858 11.1612H17.5838C17.6671 11.1612 17.7505 11.0778 17.7505 10.9945V9.41111C17.7505 8.66109 18.6672 8.32775 19.1664 8.82776Z" />
</svg>