<!--character:1186-->
  <svg width="20" height="20" viewBox="0 0 20 20" >
<path d="M15.9723 7.35646L18.1258 9.50931C18.4029 9.78709 18.4029 10.2038 18.1258 10.4816L15.9723 12.6344C15.5563 13.0518 14.7924 12.7733 14.7924 12.1483V10.8288C14.7924 10.7593 14.723 10.6899 14.6535 10.6899H10.7155C10.4295 11.4992 9.65782 12.079 8.75055 12.079C7.84328 12.079 7.07156 11.4992 6.78562 10.6899H2.36146C1.94478 10.6899 1.66699 10.4121 1.66699 9.99543C1.66699 9.57875 1.94478 9.30097 2.36146 9.30097H6.78572C7.07173 8.49181 7.84338 7.91217 8.75055 7.91217C9.65771 7.91217 10.4294 8.49181 10.7154 9.30097H14.6535C14.723 9.30097 14.7924 9.23152 14.7924 9.16207V7.84259C14.7924 7.21757 15.5563 6.93978 15.9723 7.35646Z" />
</svg>