<!--character:8469-->
  <svg width="24" height="24" viewBox="0 0 24 24" >
<path d="M19.1664 8.82776L21.7506 11.4112C22.0832 11.7445 22.0832 12.2445 21.7506 12.5779L19.1664 15.1613C18.6672 15.6621 17.7505 15.328 17.7505 14.5779V12.9946C17.7505 12.9112 17.6672 12.8279 17.5838 12.8279H15.8579C15.5146 13.7991 14.5882 14.4948 13.5001 14.4948C12.4114 14.4948 11.4853 13.7991 11.1422 12.8279H9.35801C9.01489 13.7991 8.08883 14.4948 7.0001 14.4948C5.91138 14.4948 4.98531 13.7991 4.64219 12.8279H2.83338C2.33337 12.8279 2.00002 12.4945 2.00002 11.9945C2.00002 11.4945 2.33337 11.1612 2.83338 11.1612H4.64231C4.98553 10.1902 5.9115 9.49462 7.0001 9.49462C8.0887 9.49462 9.01468 10.1902 9.35789 11.1612H11.1423C11.4855 10.1902 12.4115 9.49462 13.5001 9.49462C14.588 9.49462 15.5144 10.1902 15.8578 11.1612H17.5838C17.6672 11.1612 17.7505 11.0778 17.7505 10.9945V9.41111C17.7505 8.66109 18.6672 8.32775 19.1664 8.82776Z" />
</svg>