<!--character:2050-->
  <svg width="24" height="24" viewBox="0 0 24 24" >
<path d="M19.1664 8.82772L21.7506 11.4111C22.0831 11.7445 22.0831 12.2445 21.7506 12.5778L19.1664 15.1613C18.6672 15.6621 17.7505 15.3279 17.7505 14.5779V12.9945C17.7505 12.9112 17.6672 12.8278 17.5838 12.8278H15.8579C15.5146 13.799 14.5881 14.4947 13.5001 14.4947C12.4114 14.4947 11.4853 13.799 11.1422 12.8278H9.35798C9.01486 13.799 8.0888 14.4947 7.00008 14.4947C5.91136 14.4947 4.9853 13.799 4.64218 12.8278H2.83336C2.33334 12.8278 2 12.4945 2 11.9945C2 11.4945 2.33334 11.1611 2.83336 11.1611H4.64228C4.98549 10.1901 5.91147 9.49456 7.00008 9.49456C8.08869 9.49456 9.01467 10.1901 9.35787 11.1611H11.1423C11.4855 10.1901 12.4115 9.49456 13.5001 9.49456C14.588 9.49456 15.5144 10.1901 15.8578 11.1611H17.5838C17.6672 11.1611 17.7505 11.0778 17.7505 10.9945V9.41107C17.7505 8.66105 18.6672 8.3277 19.1664 8.82772Z" />
</svg>