<!--character:506-->
  <svg width="24" height="24" viewBox="0 0 24 24" >
<path d="M10.4929 3.60559C9.99028 3.63849 9.46808 3.80719 9.10268 4.17259C8.54548 4.86979 7.91828 5.49629 7.15178 5.91419C7.11346 5.94786 7.06419 5.96642 7.01318 5.96642C6.96217 5.96642 6.91291 5.94786 6.87458 5.91419C6.80458 5.70489 7.01318 5.56629 7.01318 5.42699C7.08318 5.14839 7.15318 4.80049 7.01318 4.45189C6.73458 4.10399 6.10808 4.03399 5.62018 4.10399C5.41158 4.10399 5.20298 4.17399 4.92438 4.24399C4.85438 4.24399 4.71438 4.31259 4.71438 4.45189C4.78438 4.73049 4.64578 5.07979 4.57578 5.28839C4.50578 5.42839 4.57578 5.49699 4.57578 5.70629C4.50578 5.70629 4.57578 5.77559 4.50648 5.77559C4.50648 6.12349 4.99438 5.98419 5.20298 6.19279C5.20298 6.26279 5.27298 6.33279 5.27298 6.40279C5.34228 6.47209 5.34158 6.61139 5.34158 6.68139C4.99368 7.23859 4.01998 7.58579 3.74068 7.86439C3.32278 8.42159 4.08998 8.63089 4.08998 8.90949V9.04809C4.08998 9.39599 4.22858 9.60599 4.22858 9.88459C4.50718 10.5811 4.92438 11.2076 5.34228 11.9041C5.48228 12.1134 5.62228 12.3913 5.83088 12.7392C5.90088 12.8792 5.96878 13.0178 6.10808 13.0878C7.50108 14.4808 9.38128 15.3159 10.635 16.7082L11.4715 17.7533C11.8894 18.3105 12.3066 18.8677 12.6545 19.4942C12.8638 19.7728 13.0031 20.1214 13.2817 20.4C13.491 20.33 13.3517 20.0521 13.3517 19.9128C13.421 19.9128 13.2817 19.9121 13.3517 19.8428C13.2817 19.5635 13.1417 19.2856 13.0717 19.007C13.0024 18.937 13.0031 18.8684 13.0031 18.8684C12.9331 18.5205 12.7938 18.1719 12.6545 17.824C12.3759 17.2668 12.168 16.6396 11.8194 16.0831C11.4715 15.5259 10.9843 14.968 10.3571 14.5501C9.92609 14.2996 9.54747 13.9682 9.24198 13.5743C8.82408 13.0178 8.47618 12.3913 8.12828 11.7641C7.98828 11.4855 7.91968 11.1383 7.71038 10.8597C7.36248 10.3725 6.59738 10.0932 6.52738 9.53669C6.59738 8.84019 6.87528 8.28299 7.29318 7.72579C8.05898 6.68139 9.38198 6.12279 10.775 6.19279C12.238 6.12279 13.631 6.75069 15.2326 6.81999C16.0677 6.88999 16.9728 6.74999 17.7386 6.54139L18.3658 6.33279C19.0389 6.10628 19.6731 5.77739 20.246 5.35769C20.3853 5.28769 20.3846 5.14839 20.3846 5.07909C20.3146 5.00909 20.246 5.07909 20.1767 5.07909C19.6888 5.14909 19.3402 5.35769 18.8537 5.35769H18.0872C16.9035 5.21839 15.7884 4.94049 14.744 4.59189C13.4903 4.24399 12.3059 3.82539 10.9822 3.61679C10.8195 3.59878 10.6562 3.59503 10.4929 3.60559ZM10.6777 6.88509C10.4656 6.92429 10.3207 7.08109 10.2164 7.23789C9.65803 8.4967 9.30541 9.83699 9.17198 11.2076C9.17198 11.3476 9.17268 11.5562 9.31198 11.6255C9.31198 11.6955 9.45058 11.6955 9.45058 11.6255C10.0078 10.3025 10.2871 8.97949 11.0536 7.72649C11.1229 7.51649 11.4008 7.30789 11.1915 7.02929C11.1222 6.95929 11.0522 6.88929 10.9129 6.88929C10.8355 6.87279 10.7556 6.87137 10.6777 6.88509ZM12.7231 7.23789C12.5838 7.23789 12.5852 7.30789 12.5152 7.37789C11.7494 8.63089 11.1922 10.0925 10.7743 11.4855C10.565 12.112 10.4257 12.8085 10.5643 13.4357C10.5643 13.5057 10.635 13.5057 10.7043 13.5057C10.7743 13.5057 10.8443 13.4357 10.8443 13.3664C11.2615 11.6955 12.2359 10.1625 13.0024 8.63019C13.1417 8.21229 13.4203 7.86509 13.3503 7.37719C13.211 7.23859 12.9324 7.23789 12.7231 7.23789ZM17.3207 7.23789C17.0421 7.30789 16.8328 7.58649 16.7628 7.79509C16.067 9.53599 15.0919 11.1376 14.3254 12.8092C13.7689 14.3408 13.0724 15.8045 13.0024 17.4754C13.0024 17.6154 13.0024 17.754 13.1424 17.8933C13.2124 17.8933 13.281 17.9633 13.281 17.8933C13.4903 17.5447 13.5596 17.1261 13.6989 16.7082C14.1861 15.3852 14.6733 14.0622 15.4398 12.8092C16.3449 11.3462 17.46 9.95319 18.0172 8.35159C18.0872 8.07299 18.2258 7.86439 18.0872 7.58579C17.9472 7.37719 17.6693 7.30719 17.3207 7.23789ZM15.0219 7.30719C14.7433 7.37719 14.604 7.58649 14.4647 7.79509C14.1161 8.56159 13.6989 9.18809 13.3503 9.95389C12.5145 11.4862 12.0973 13.0878 11.888 14.8287C11.888 15.038 11.888 15.3159 11.958 15.5252C12.0273 15.5252 12.1673 15.5252 12.1673 15.4552C12.3066 14.968 12.4452 14.4808 12.5845 14.0629C13.2117 11.9041 14.6747 10.1632 15.5798 8.14369C15.6498 8.00369 15.7884 7.65579 15.5798 7.51649C15.4405 7.44649 15.2312 7.37719 15.0219 7.30719Z" />
</svg>