<!--character:2887-->
<svg width="24" height="24" viewBox="0 0 24 24">
  <path d="M16.4398 9.815C16.4398 6.15611 13.4737 3.19 9.81484 3.19C6.15596 3.19 3.18984 6.15611 3.18984 9.815C3.18984 13.4739 6.15596 16.44 9.81484 16.44C11.1006 16.44 12.3008 16.0737 13.3169 15.4398L18.2432 20.3712C18.8286 20.9574 19.7784 20.958 20.3645 20.3725C20.9507 19.7871 20.9513 18.8374 20.3659 18.2512L15.439 13.318C16.0733 12.3018 16.4398 11.1012 16.4398 9.815ZM5.43984 9.815C5.43984 7.39875 7.3986 5.44 9.81484 5.44C12.2311 5.44 14.1898 7.39875 14.1898 9.815C14.1898 12.2312 12.2311 14.19 9.81484 14.19C7.3986 14.19 5.43984 12.2312 5.43984 9.815Z" />
</svg>
