<!--character:96:550:651-->
  <svg width="24" height="24" viewBox="0 0 24 24" >
<path   d="M16.4399 9.81494C16.4399 6.15605 13.4738 3.18994 9.81494 3.18994C6.15605 3.18994 3.18994 6.15605 3.18994 9.81494C3.18994 13.4738 6.15605 16.4399 9.81494 16.4399C11.1007 16.4399 12.3009 16.0737 13.317 15.4397L18.2433 20.3712C18.8287 20.9573 19.7785 20.9579 20.3646 20.3725C20.9508 19.7871 20.9514 18.8373 20.366 18.2512L15.4391 13.318C16.0734 12.3017 16.4399 11.1011 16.4399 9.81494ZM5.43994 9.81494C5.43994 7.3987 7.3987 5.43994 9.81494 5.43994C12.2312 5.43994 14.1899 7.3987 14.1899 9.81494C14.1899 12.2312 12.2312 14.1899 9.81494 14.1899C7.3987 14.1899 5.43994 12.2312 5.43994 9.81494Z" />
</svg>