<!--category:basic-->
<!--character:E07C-->
<svg width="24" height="24" viewBox="0 0 24 24" xmlns="http://www.w3.org/2000/svg"><path d="M9.815 3.19c3.658887 0 6.625 2.966114 6.625 6.625 0 1.286195-.366525 2.486784-1.000825 3.503015l4.926841 4.933208c.585422.58615.584831 1.535898-.00132 2.12132-.58615.585422-1.535897.58483-2.12132-.00132l-4.926364-4.931422C12.300994 16.073716 11.100773 16.44 9.815 16.44c-3.658886 0-6.625-2.966114-6.625-6.625S6.156114 3.19 9.815 3.19zm0 2.25c-2.416246 0-4.375 1.958754-4.375 4.375s1.958754 4.375 4.375 4.375 4.375-1.958754 4.375-4.375S12.231246 5.44 9.815 5.44z"/></svg>
