<!--character:2272-->
  <svg width="20" height="20" viewBox="0 0 20 20" >
<path d="M13.6999 8.17917C13.6999 5.13009 11.2281 2.65833 8.17904 2.65833C5.12996 2.65833 2.6582 5.13009 2.6582 8.17917C2.6582 11.2282 5.12996 13.7 8.17904 13.7C9.25051 13.7 10.2507 13.3948 11.0974 12.8665L15.2027 16.976C15.6905 17.4645 16.482 17.465 16.9705 16.9771C17.4589 16.4893 17.4594 15.6978 16.9715 15.2094L12.8658 11.0983C13.3944 10.2515 13.6999 9.25099 13.6999 8.17917ZM4.5332 8.17917C4.5332 6.16563 6.1655 4.53333 8.17904 4.53333C10.1926 4.53333 11.8249 6.16563 11.8249 8.17917C11.8249 10.1927 10.1926 11.825 8.17904 11.825C6.1655 11.825 4.5332 10.1927 4.5332 8.17917Z" />
</svg>