<!-- character:0:668 -->
  <svg width="20" height="20" viewBox="0 0 20 20" >
<path   d="M13.7 8.17916C13.7 5.13009 11.2282 2.65833 8.17916 2.65833C5.13009 2.65833 2.65833 5.13009 2.65833 8.17916C2.65833 11.2282 5.13009 13.7 8.17916 13.7C9.25064 13.7 10.2508 13.3948 11.0975 12.8665L15.2028 16.976C15.6907 17.4645 16.4821 17.465 16.9706 16.9771C17.459 16.4893 17.4595 15.6978 16.9717 15.2093L12.866 11.0983C13.3946 10.2515 13.7 9.25099 13.7 8.17916ZM4.53332 8.17916C4.53332 6.16562 6.16562 4.53332 8.17916 4.53332C10.1927 4.53332 11.825 6.16562 11.825 8.17916C11.825 10.1927 10.1927 11.825 8.17916 11.825C6.16562 11.825 4.53332 10.1927 4.53332 8.17916Z" />
</svg>