<!--character:65:472:320-->
  <svg width="24" height="24" viewBox="0 0 24 24" >
<path d="M16.0132 3.66003C17.6622 3.66003 19.0002 4.99803 19.0002 6.64703V9.66804H18.9862C17.8932 9.66804 17.0072 10.554 17.0072 11.646V13.095C17.0072 13.411 16.7512 13.668 16.4342 13.668H12.5652C12.2492 13.668 11.9922 13.411 11.9922 13.095V11.646C11.9922 10.554 11.1062 9.66804 10.0132 9.66804H10.0002V6.64703C10.0002 4.99803 11.3372 3.66003 12.9862 3.66003H16.0132Z" />
<path d="M6.2507 6.90033C6.3597 6.94833 6.4727 6.97033 6.5847 6.97033C6.9067 6.97033 7.2127 6.78333 7.3507 6.47033C7.5347 6.04733 7.3427 5.55533 6.9197 5.37033L3.1697 3.73033C2.7487 3.54533 2.2547 3.73833 2.0697 4.15933C1.8857 4.58233 2.0777 5.07433 2.5007 5.25933L6.2507 6.90033Z" />
<path d="M2.06969 18.8297C2.20769 19.1427 2.51369 19.3297 2.83569 19.3297C2.94769 19.3297 3.06069 19.3077 3.16969 19.2597L6.91969 17.6197C7.34169 17.4347 7.53469 16.9427 7.35069 16.5197C7.16569 16.0987 6.67269 15.9057 6.25069 16.0907L2.50069 17.7297C2.07869 17.9147 1.88569 18.4067 2.06969 18.8297Z" />
<path d="M19 10.66C18.447 10.66 18 11.108 18 11.66V14.094C18 14.407 17.746 14.66 17.433 14.66H11.566C11.253 14.66 11 14.407 11 14.094V11.66C11 11.108 10.552 10.66 10 10.66C9.447 10.66 9 11.108 9 11.66V15.094C9 15.959 9.701 16.66 10.566 16.66H12.433C12.746 16.66 13 16.914 13 17.227V18.38C13 18.535 12.874 18.66 12.719 18.66H11.835C11.374 18.66 11 19.034 11 19.495C11 19.957 11.374 20.331 11.835 20.331H17.165C17.626 20.331 18 19.957 18 19.495C18 19.034 17.626 18.66 17.165 18.66H16.28C16.125 18.66 16 18.535 16 18.38V17.227C16 16.914 16.253 16.66 16.566 16.66H19C19.276 16.66 19.526 16.549 19.707 16.368C19.888 16.186 20 15.936 20 15.66V11.66C20 11.108 19.552 10.66 19 10.66Z" />
</svg>