<!-- character:0:2435 -->
  <svg width="20" height="20" viewBox="0 0 20 20" >
<path   d="M8.05521 5.4718C9.10598 5.4718 9.9578 4.61998 9.9578 3.56921C9.9578 2.51844 9.10598 1.66663 8.05521 1.66663C7.00444 1.66663 6.15262 2.51844 6.15262 3.56921C6.15262 4.61998 7.00444 5.4718 8.05521 5.4718ZM15.688 18.3328C15.2597 18.3328 14.8505 18.0869 14.663 17.6719C14.1239 16.4828 13.6197 15.4236 13.1639 14.5236C12.8605 13.9244 12.6014 13.8269 12.4472 13.8136H11.2505C8.94471 14.0436 8.20137 12.5744 7.98637 11.9286L7.94137 11.7378L7.32054 7.54025C7.22971 6.92609 7.65387 6.35359 8.26887 6.26275C8.88471 6.16942 9.45554 6.59692 9.54637 7.21109L10.1505 11.3003C10.2222 11.4753 10.378 11.6494 11.068 11.5711L11.1914 11.5644H12.3022C12.3622 11.5611 12.4239 11.5611 12.4864 11.5644L12.5489 11.5669C13.373 11.6094 14.4147 12.0119 15.1714 13.5078C15.6414 14.4361 16.1597 15.5253 16.7122 16.7428C16.9689 17.3086 16.7172 17.9753 16.1514 18.2319C16.0005 18.3003 15.843 18.3328 15.688 18.3328ZM8.13131 14.8325H11.0993C11.556 14.8325 11.8604 15.1369 11.8604 15.5936C11.8604 16.0502 11.556 16.3546 11.0993 16.3546H8.13131C7.06586 16.3546 6.15262 15.6697 5.92431 14.6042L4.70665 9.27698C4.55445 8.89646 4.85886 8.43984 5.23938 8.36373C5.6199 8.21153 6.07652 8.51594 6.15262 8.89646L7.37028 14.2237C7.44638 14.6042 7.75079 14.8325 8.13131 14.8325Z" />
</svg>