<!--character:13:472:309-->
  <svg width="24" height="24" viewBox="0 0 24 24" >
<path   d="M9.66628 6.56621C10.9272 6.56621 11.9494 5.54403 11.9494 4.28311C11.9494 3.02218 10.9272 2 9.66628 2C8.40535 2 7.38317 3.02218 7.38317 4.28311C7.38317 5.54403 8.40535 6.56621 9.66628 6.56621ZM18.8257 21.9994C18.3117 21.9994 17.8207 21.7044 17.5957 21.2064C16.9487 19.7794 16.3437 18.5084 15.7967 17.4284C15.4327 16.7094 15.1217 16.5924 14.9367 16.5764H13.5007C10.7337 16.8524 9.84168 15.0894 9.58368 14.3144L9.52968 14.0854L8.78468 9.04835C8.67568 8.31135 9.18468 7.62435 9.92268 7.51535C10.6617 7.40335 11.3467 7.91635 11.4557 8.65335L12.1807 13.5604C12.2667 13.7704 12.4537 13.9794 13.2817 13.8854L13.4297 13.8774H14.7627C14.8347 13.8734 14.9087 13.8734 14.9837 13.8774L15.0587 13.8804C16.0477 13.9314 17.2977 14.4144 18.2057 16.2094C18.7697 17.3234 19.3917 18.6304 20.0547 20.0914C20.3627 20.7704 20.0607 21.5704 19.3817 21.8784C19.2007 21.9604 19.0117 21.9994 18.8257 21.9994ZM9.7576 17.7991H13.3192C13.8672 17.7991 14.2325 18.1644 14.2325 18.7123C14.2325 19.2603 13.8672 19.6256 13.3192 19.6256H9.7576C8.47906 19.6256 7.38317 18.8037 7.1092 17.5251L5.64801 11.1324C5.46536 10.6758 5.83066 10.1279 6.28728 10.0365C6.7439 9.85389 7.29184 10.2192 7.38317 10.6758L8.84436 17.0685C8.93568 17.5251 9.30098 17.7991 9.7576 17.7991Z" />
</svg>