<!--character:9964-->
  <svg width="24" height="24" viewBox="0 0 24 24" >
<path d="M16.0132 3.66H12.9862C11.3372 3.66 10.0002 4.998 10.0002 6.647V9.668H10.0132C11.1062 9.668 11.9922 10.554 11.9922 11.646V13.095C11.9922 13.411 12.2492 13.668 12.5652 13.668H16.4342C16.7512 13.668 17.0072 13.411 17.0072 13.095V11.646C17.0072 10.554 17.8932 9.668 18.9862 9.668H18.9992L19.0002 6.647C19.0002 4.998 17.6622 3.66 16.0132 3.66Z" />
<path d="M19 10.66C18.447 10.66 18 11.108 18 11.66V14.094C18 14.407 17.746 14.66 17.433 14.66H11.566C11.253 14.66 11 14.407 11 14.094V11.66C11 11.108 10.552 10.66 10 10.66C9.44702 10.66 9.00002 11.108 9.00002 11.66V15.094C9.00002 15.959 9.70102 16.66 10.566 16.66H12.433C12.746 16.66 13 16.914 13 17.227V18.38C13 18.535 12.874 18.66 12.719 18.66H11.835C11.374 18.66 11 19.034 11 19.495C11 19.957 11.374 20.331 11.835 20.331H17.165C17.626 20.331 18 19.957 18 19.495C18 19.034 17.626 18.66 17.165 18.66H16.28C16.125 18.66 16 18.535 16 18.38V17.227C16 16.914 16.253 16.66 16.566 16.66H19C19.276 16.66 19.526 16.549 19.707 16.368C19.888 16.186 20 15.936 20 15.66V11.66C20 11.108 19.552 10.66 19 10.66Z" />
<path d="M2.00002 8.535C2.00002 10.099 3.21594 11.37 4.71002 11.37C6.20411 11.37 7.42002 10.099 7.42002 8.535V6.535C7.42002 4.972 6.20411 3.7 4.71002 3.7C3.21594 3.7 2.00002 4.972 2.00002 6.535V8.535ZM3.60002 7.08C3.60002 6.776 3.84602 6.53 4.15002 6.53H5.27802C5.58202 6.53 5.82802 6.776 5.82802 7.08V8.53C5.82802 9.174 5.32902 9.695 4.71402 9.695C4.09902 9.695 3.60002 9.174 3.60002 8.53V7.08Z" />
</svg>