<!--category:services-->
<!--character:E02A-->
<!--added:0.11-->
<svg width="24" height="24" viewBox="0 0 24 24" xmlns="http://www.w3.org/2000/svg"><path d="M9.6963 6.5662c-1.261 0-2.2831-1.0222-2.2831-2.283C7.4132 3.0221 8.4354 2 9.6963 2c1.261 0 2.2831 1.0222 2.2831 2.2831 0 1.261-1.0222 2.2831-2.2831 2.2831zm8.4018 10.2283l.274 3.7443c0 .7306-.548 1.3699-1.2785 1.4612-.7306 0-1.3699-.548-1.4612-1.2785l-.274-3.8357c0-.1826-.1827-.3653-.4566-.3653H12.71c-1.6438 0-3.0137-1.1872-3.1964-2.7397L8.7831 9.032c-.0914-.7306.4566-1.3699 1.1872-1.5525.7306-.0914 1.3698.4566 1.5525 1.0958l.7306 4.8402c0 .274.1826.4566.4566.4566h2.1918c1.6438 0 3.0137 1.2786 3.1963 2.9224zm-4.7488 1.0046c.548 0 .9132.3653.9132.9132 0 .548-.3653.9133-.9132.9133H9.7876c-1.2785 0-2.3744-.822-2.6484-2.1005L5.678 11.1324c-.1826-.4566.1827-1.0045.6393-1.0959.4566-.1826 1.0046.1827 1.0959.6393l1.4612 6.3927c.0913.4566.4566.7306.9132.7306h3.5617z"/></svg>