<!-- character:0:2457 -->
  <svg width="20" height="20" viewBox="0 0 20 20" >
<path   d="M13.3443 3.05005H12.0835H10.8218C9.44766 3.05005 8.3335 4.16505 8.3335 5.53922V8.05671H8.34433C9.25516 8.05671 9.9935 8.79505 9.9935 9.70505V10.9125C9.9935 11.1759 10.2077 11.39 10.471 11.39H12.0835H13.6952C13.9593 11.39 14.1727 11.1759 14.1727 10.9125V9.70505C14.1727 8.79505 14.911 8.05671 15.8218 8.05671H15.8327H15.8335V5.53922C15.8335 4.16505 14.7185 3.05005 13.3443 3.05005ZM15.8333 8.88338C15.3725 8.88338 15 9.25672 15 9.71672V11.745C15 12.0059 14.7883 12.2167 14.5275 12.2167H9.63833C9.3775 12.2167 9.16666 12.0059 9.16666 11.745V9.71672C9.16666 9.25672 8.79333 8.88338 8.33333 8.88338C7.8725 8.88338 7.5 9.25672 7.5 9.71672V12.5784C7.5 13.2992 8.08416 13.8834 8.805 13.8834H10.3608C10.6217 13.8834 10.8333 14.095 10.8333 14.3559V15.3167C10.8333 15.4459 10.7283 15.55 10.5992 15.55H9.8625C9.47833 15.55 9.16666 15.8617 9.16666 16.2459C9.16666 16.6309 9.47833 16.9425 9.8625 16.9425H14.3042C14.6883 16.9425 15 16.6309 15 16.2459C15 15.8617 14.6883 15.55 14.3042 15.55H13.5667C13.4375 15.55 13.3333 15.4459 13.3333 15.3167V14.3559C13.3333 14.095 13.5442 13.8834 13.805 13.8834H15.8333C16.0633 13.8834 16.2717 13.7909 16.4225 13.64C16.5733 13.4884 16.6667 13.28 16.6667 13.05V9.71672C16.6667 9.25672 16.2933 8.88338 15.8333 8.88338ZM3 5.90005C3 5.64672 3.205 5.44172 3.45833 5.44172H4.39833C4.65166 5.44172 4.85666 5.64672 4.85666 5.90005V7.10838C4.85666 7.64505 4.44083 8.07922 3.92833 8.07922C3.41583 8.07922 3 7.64505 3 7.10838V5.90005ZM1.66666 7.11255C1.66666 8.41588 2.67993 9.47505 3.925 9.47505C5.17007 9.47505 6.18333 8.41588 6.18333 7.11255V5.44588C6.18333 4.14338 5.17007 3.08338 3.925 3.08338C2.67993 3.08338 1.66666 4.14338 1.66666 5.44588V7.11255Z" />
</svg>