<!--character:2977-->
  <svg width="20" height="20" viewBox="0 0 20 20" >
<path d="M13.3444 3.05H10.8219C9.44769 3.05 8.33352 4.165 8.33352 5.53917V8.05667H8.34435C9.25519 8.05667 9.99352 8.795 9.99352 9.705V10.9125C9.99352 11.1758 10.2077 11.39 10.471 11.39H13.6952C13.9594 11.39 14.1727 11.1758 14.1727 10.9125V9.705C14.1727 8.795 14.911 8.05667 15.8219 8.05667H15.8327L15.8335 5.53917C15.8335 4.165 14.7185 3.05 13.3444 3.05Z" />
<path d="M15.8334 8.88334C15.3725 8.88334 15 9.25667 15 9.71667V11.745C15 12.0058 14.7884 12.2167 14.5275 12.2167H9.63835C9.37752 12.2167 9.16669 12.0058 9.16669 11.745V9.71667C9.16669 9.25667 8.79335 8.88334 8.33335 8.88334C7.87252 8.88334 7.50002 9.25667 7.50002 9.71667V12.5783C7.50002 13.2992 8.08419 13.8833 8.80502 13.8833H10.3609C10.6217 13.8833 10.8334 14.095 10.8334 14.3558V15.3167C10.8334 15.4458 10.7284 15.55 10.5992 15.55H9.86252C9.47835 15.55 9.16669 15.8617 9.16669 16.2458C9.16669 16.6308 9.47835 16.9425 9.86252 16.9425H14.3042C14.6884 16.9425 15 16.6308 15 16.2458C15 15.8617 14.6884 15.55 14.3042 15.55H13.5667C13.4375 15.55 13.3334 15.4458 13.3334 15.3167V14.3558C13.3334 14.095 13.5442 13.8833 13.805 13.8833H15.8334C16.0634 13.8833 16.2717 13.7908 16.4225 13.64C16.5734 13.4883 16.6667 13.28 16.6667 13.05V9.71667C16.6667 9.25667 16.2934 8.88334 15.8334 8.88334Z" />
<path d="M1.66669 7.1125C1.66669 8.41584 2.67995 9.475 3.92502 9.475C5.17009 9.475 6.18335 8.41584 6.18335 7.1125V5.44584C6.18335 4.14334 5.17009 3.08334 3.92502 3.08334C2.67995 3.08334 1.66669 4.14334 1.66669 5.44584V7.1125ZM3.00002 5.9C3.00002 5.64667 3.20502 5.44167 3.45835 5.44167H4.39835C4.65169 5.44167 4.85669 5.64667 4.85669 5.9V7.10834C4.85669 7.645 4.44085 8.07917 3.92835 8.07917C3.41585 8.07917 3.00002 7.645 3.00002 7.10834V5.9Z" />
</svg>