<!-- character:0:2445 -->
  <svg width="20" height="20" viewBox="0 0 20 20" >
<path   d="M12.0835 3.05005H13.3443C14.7185 3.05005 15.8335 4.16505 15.8335 5.53922V8.05671H15.8327H15.8218C14.911 8.05671 14.1727 8.79505 14.1727 9.70505V10.9125C14.1727 11.1759 13.9593 11.39 13.6952 11.39H12.0835H10.471C10.2077 11.39 9.9935 11.1759 9.9935 10.9125V9.70505C9.9935 8.79505 9.25517 8.05671 8.34433 8.05671H8.3335V5.53922C8.3335 4.16505 9.44767 3.05005 10.8218 3.05005H12.0835ZM5.20892 5.7503C5.29975 5.7903 5.39392 5.80863 5.48725 5.80863C5.75558 5.80863 6.01058 5.6528 6.12558 5.39197C6.27892 5.03947 6.11892 4.62947 5.76642 4.4753L2.64142 3.10864C2.29058 2.95447 1.87892 3.1153 1.72475 3.46613C1.57142 3.81863 1.73142 4.22863 2.08392 4.3828L5.20892 5.7503ZM1.72475 15.6915C1.83975 15.9523 2.09475 16.1081 2.36308 16.1081C2.45642 16.1081 2.55058 16.0898 2.64142 16.0498L5.76642 14.6831C6.11808 14.529 6.27892 14.119 6.12558 13.7665C5.97142 13.4156 5.56058 13.2548 5.20892 13.409L2.08392 14.7748C1.73225 14.929 1.57142 15.339 1.72475 15.6915ZM15.8333 8.88338C15.3725 8.88338 15 9.25672 15 9.71672V11.745C15 12.0059 14.7883 12.2167 14.5275 12.2167H9.63833C9.3775 12.2167 9.16667 12.0059 9.16667 11.745V9.71672C9.16667 9.25672 8.79333 8.88338 8.33333 8.88338C7.8725 8.88338 7.5 9.25672 7.5 9.71672V12.5784C7.5 13.2992 8.08417 13.8834 8.805 13.8834H10.3608C10.6217 13.8834 10.8333 14.095 10.8333 14.3559V15.3167C10.8333 15.4459 10.7283 15.55 10.5992 15.55H9.8625C9.47833 15.55 9.16667 15.8617 9.16667 16.2459C9.16667 16.6309 9.47833 16.9425 9.8625 16.9425H14.3042C14.6883 16.9425 15 16.6309 15 16.2459C15 15.8617 14.6883 15.55 14.3042 15.55H13.5667C13.4375 15.55 13.3333 15.4459 13.3333 15.3167V14.3559C13.3333 14.095 13.5442 13.8834 13.805 13.8834H15.8333C16.0633 13.8834 16.2717 13.7909 16.4225 13.64C16.5733 13.4884 16.6667 13.28 16.6667 13.05V9.71672C16.6667 9.25672 16.2933 8.88338 15.8333 8.88338Z" />
</svg>