<!--character:6797-->
  <svg width="24" height="24" viewBox="0 0 24 24" >
<path d="M16.0132 3.66003H12.9862C11.3372 3.66003 10.0002 4.99803 10.0002 6.64703V9.66804H10.0132C11.1062 9.66804 11.9922 10.554 11.9922 11.646V13.095C11.9922 13.411 12.2492 13.668 12.5652 13.668H16.4342C16.7512 13.668 17.0072 13.411 17.0072 13.095V11.646C17.0072 10.554 17.8932 9.66804 18.9862 9.66804H19.0002V6.64703C19.0002 4.99803 17.6622 3.66003 16.0132 3.66003Z" />
<path d="M19 10.66C18.447 10.66 18 11.108 18 11.66V14.094C18 14.407 17.746 14.66 17.433 14.66H11.566C11.253 14.66 11 14.407 11 14.094V11.66C11 11.108 10.552 10.66 10 10.66C9.447 10.66 9 11.108 9 11.66V15.094C9 15.959 9.701 16.66 10.566 16.66H12.433C12.746 16.66 13 16.914 13 17.227V18.38C13 18.535 12.874 18.66 12.719 18.66H11.835C11.374 18.66 11 19.034 11 19.495C11 19.957 11.374 20.331 11.835 20.331H17.165C17.626 20.331 18 19.957 18 19.495C18 19.034 17.626 18.66 17.165 18.66H16.28C16.125 18.66 16 18.535 16 18.38V17.227C16 16.914 16.253 16.66 16.566 16.66H19C19.276 16.66 19.526 16.549 19.707 16.368C19.888 16.186 20 15.936 20 15.66V11.66C20 11.108 19.552 10.66 19 10.66Z" />
<path d="M2 8.53504C2 10.099 3.21592 11.37 4.71 11.37C6.20408 11.37 7.42 10.099 7.42 8.53504V6.53504C7.42 4.97204 6.20408 3.70004 4.71 3.70004C3.21592 3.70004 2 4.97204 2 6.53504V8.53504ZM3.59999 7.08006C3.59999 6.77606 3.84599 6.53006 4.14999 6.53006H5.27799C5.58199 6.53006 5.82799 6.77606 5.82799 7.08006V8.53006C5.82799 9.17406 5.32899 9.69506 4.71399 9.69506C4.09899 9.69506 3.59999 9.17406 3.59999 8.53006V7.08006Z" />
</svg>