<!--character:2999-->
  <svg width="24" height="24" viewBox="0 0 24 24" >
<path d="M16.0132 3.66C17.6622 3.66 19.0002 4.998 19.0002 6.647V9.668H18.9862C17.8932 9.668 17.0072 10.554 17.0072 11.646V13.095C17.0072 13.411 16.7512 13.668 16.4342 13.668H12.5652C12.2492 13.668 11.9922 13.411 11.9922 13.095V11.646C11.9922 10.554 11.1062 9.668 10.0132 9.668H10.0002V6.647C10.0002 4.998 11.3372 3.66 12.9862 3.66H16.0132Z" />
<path d="M6.2507 6.90031C6.3597 6.94831 6.4727 6.97031 6.5847 6.97031C6.9067 6.97031 7.2127 6.78331 7.3507 6.47031C7.5347 6.04731 7.3427 5.55531 6.9197 5.37031L3.1697 3.73031C2.7487 3.54531 2.2547 3.73831 2.0697 4.15931C1.8857 4.58231 2.0777 5.07431 2.5007 5.25931L6.2507 6.90031Z" />
<path d="M2.0697 18.8297C2.2077 19.1427 2.5137 19.3297 2.8357 19.3297C2.9477 19.3297 3.0607 19.3077 3.1697 19.2597L6.9197 17.6197C7.3417 17.4347 7.5347 16.9427 7.3507 16.5197C7.1657 16.0987 6.6727 15.9057 6.2507 16.0907L2.5007 17.7297C2.0787 17.9147 1.8857 18.4067 2.0697 18.8297Z" />
<path d="M19 10.66C18.447 10.66 18 11.108 18 11.66V14.094C18 14.407 17.746 14.66 17.433 14.66H11.566C11.253 14.66 11 14.407 11 14.094V11.66C11 11.108 10.552 10.66 10 10.66C9.447 10.66 9 11.108 9 11.66V15.094C9 15.959 9.701 16.66 10.566 16.66H12.433C12.746 16.66 13 16.914 13 17.227V18.38C13 18.535 12.874 18.66 12.719 18.66H11.835C11.374 18.66 11 19.034 11 19.495C11 19.957 11.374 20.331 11.835 20.331H17.165C17.626 20.331 18 19.957 18 19.495C18 19.034 17.626 18.66 17.165 18.66H16.28C16.125 18.66 16 18.535 16 18.38V17.227C16 16.914 16.253 16.66 16.566 16.66H19C19.276 16.66 19.526 16.549 19.707 16.368C19.888 16.186 20 15.936 20 15.66V11.66C20 11.108 19.552 10.66 19 10.66Z" />
</svg>