<!--character:7774-->
  <svg width="24" height="24" viewBox="0 0 24 24" >
<path d="M9.69631 6.56621C10.9572 6.56621 11.9794 5.54403 11.9794 4.28311C11.9794 3.02218 10.9572 2 9.69631 2C8.43538 2 7.4132 3.02218 7.4132 4.28311C7.4132 5.54403 8.43538 6.56621 9.69631 6.56621Z" />
<path d="M18.0981 16.7945C17.9155 15.1507 16.5456 13.8722 14.9018 13.8722H12.71C12.436 13.8722 12.2534 13.6895 12.2534 13.4155L11.5228 8.57535C11.3401 7.93608 10.7009 7.38813 9.97027 7.47946C9.23967 7.66211 8.69173 8.30138 8.78305 9.03197L9.51365 13.7808C9.69629 15.3333 11.0662 16.5206 12.71 16.5206H14.9018C15.1757 16.5206 15.3584 16.7032 15.3584 16.8858L15.6324 20.7215C15.7237 21.4521 16.363 22 17.0936 22C17.8241 21.9087 18.3721 21.2694 18.3721 20.5388L18.0981 16.7945Z" />
<path d="M9.78763 17.7991H13.3493C13.8972 17.7991 14.2625 18.1644 14.2625 18.7123C14.2625 19.2603 13.8972 19.6256 13.3493 19.6256H9.78763C8.50909 19.6256 7.4132 18.8037 7.13923 17.5251L5.67804 11.1324C5.49539 10.6758 5.86069 10.1279 6.31731 10.0365C6.77393 9.85389 7.32187 10.2192 7.4132 10.6758L8.87439 17.0685C8.96571 17.5251 9.33101 17.7991 9.78763 17.7991Z" />
</svg>