<!--character:4513-->
  <svg width="20" height="20" viewBox="0 0 20 20" >
<path d="M8.07999 5.47184C9.13076 5.47184 9.98258 4.62002 9.98258 3.56925C9.98258 2.51848 9.13076 1.66666 8.07999 1.66666C7.02922 1.66666 6.1774 2.51848 6.1774 3.56925C6.1774 4.62002 7.02922 5.47184 8.07999 5.47184Z" />
<path d="M15.0815 13.9954C14.9293 12.6256 13.7878 11.5601 12.4179 11.5601H10.5914C10.3631 11.5601 10.2109 11.4079 10.2109 11.1796L9.60206 7.14612C9.44985 6.61339 8.91713 6.15677 8.3083 6.23287C7.69947 6.38508 7.24285 6.91781 7.31895 7.52663L7.92778 11.484C8.07999 12.7778 9.22154 13.7671 10.5914 13.7671H12.4179C12.6462 13.7671 12.7984 13.9193 12.7984 14.0715L13.0267 17.2679C13.1028 17.8767 13.6355 18.3333 14.2444 18.3333C14.8532 18.2572 15.3098 17.7245 15.3098 17.1157L15.0815 13.9954Z" />
<path d="M8.15609 14.8326H11.1241C11.5807 14.8326 11.8852 15.137 11.8852 15.5936C11.8852 16.0502 11.5807 16.3546 11.1241 16.3546H8.15609C7.09064 16.3546 6.1774 15.6697 5.94909 14.6043L4.73143 9.27701C4.57923 8.8965 4.88364 8.43988 5.26416 8.36377C5.64468 8.21157 6.1013 8.51598 6.1774 8.8965L7.39506 14.2237C7.47116 14.6043 7.77557 14.8326 8.15609 14.8326Z" />
</svg>