<!--character:539-->
  <svg width="24" height="24" viewBox="0 0 24 24" >
<path d="M4.71881 13.211C4.66404 13.211 4.61318 13.2394 4.58439 13.2859C4.5556 13.3325 4.55298 13.3907 4.57747 13.4397C4.57747 13.4397 4.57747 13.4397 4.57747 13.4397L5.87205 16.0289C6.07804 16.4409 6.49911 16.7011 6.95972 16.7011H17.0404C17.0403 16.7011 17.0404 16.7011 17.0404 16.7011C17.5009 16.7011 17.922 16.4408 18.128 16.0289L19.4226 13.4397C19.4471 13.3907 19.4444 13.3325 19.4157 13.2859C19.3869 13.2393 19.336 13.211 19.2812 13.211H17.415C17.415 13.211 17.4151 13.211 17.415 13.211C17.3552 13.211 17.3005 13.2448 17.2737 13.2983C17.2737 13.2983 17.2737 13.2983 17.2737 13.2983L16.5081 14.8295C16.3556 15.1344 16.044 15.327 15.7031 15.327H8.29697C7.95608 15.327 7.64445 15.1344 7.49199 14.8295L6.72638 13.2984C6.69961 13.2448 6.64488 13.211 6.58502 13.211H4.71881C4.71881 13.211 4.71881 13.211 4.71881 13.211ZM3.05323 12.3396C3.40999 11.7624 4.0402 11.411 4.7188 11.411H6.58497C6.58497 11.411 6.58498 11.411 6.58497 11.411C7.32663 11.411 8.00466 11.83 8.33633 12.4934C8.33633 12.4934 8.33634 12.4934 8.33633 12.4934L8.85319 13.527H15.1469L15.6638 12.4933C15.9954 11.83 16.6734 11.411 17.4149 11.411H19.2812C19.9598 11.411 20.5901 11.7624 20.9468 12.3396C21.3036 12.9169 21.336 13.6377 21.0326 14.2446L19.738 16.8338C19.2271 17.8556 18.1828 18.5011 17.0404 18.5011H6.95972C5.81732 18.5011 4.77297 17.8556 4.26208 16.8338C4.26208 16.8338 4.26208 16.8338 4.26208 16.8338L2.9675 14.2446C2.66403 13.6377 2.69646 12.9169 3.05323 12.3396Z" />
<path d="M10.677 4.12483C9.65562 4.12483 8.78233 4.85976 8.60789 5.86617L7.60913 11.6282C7.94489 11.8942 8.21836 12.2321 8.40877 12.618L8.85743 13.5275H15.2048L16.0025 12.2498C16.1182 12.0645 16.2545 11.8929 16.4088 11.7382L16.4107 11.7362L15.3933 5.86617C15.2188 4.85976 14.3455 4.12483 13.3241 4.12483H10.677ZM6.83433 5.55875C7.1583 3.6897 8.78011 2.32483 10.677 2.32483H13.3241C15.221 2.32483 16.8428 3.6897 17.1668 5.55875L18.2639 11.8879C18.3138 12.1759 18.2208 12.4701 18.0144 12.6771L17.6835 13.0091C17.6249 13.0677 17.5733 13.1328 17.5294 13.2031L16.4674 14.9041C16.3029 15.1675 16.0136 15.327 15.7031 15.327H8.29697C7.95434 15.327 7.64233 15.1329 7.49074 14.8257L6.79452 13.4144C6.70884 13.2407 6.57884 13.0928 6.41764 12.9854L6.12527 12.7908C5.82855 12.5932 5.67639 12.2392 5.73727 11.8879L6.83433 5.55875Z" />
<path d="M9.47988 17.2301C9.97694 17.2301 10.3799 17.6331 10.3799 18.1301V20.2461C10.3799 20.7432 9.97694 21.1461 9.47988 21.1461C8.98283 21.1461 8.57988 20.7432 8.57988 20.2461V18.1301C8.57988 17.6331 8.98283 17.2301 9.47988 17.2301Z" />
<path d="M14.77 17.2301C15.2671 17.2301 15.67 17.6331 15.67 18.1301V20.2461C15.67 20.7432 15.2671 21.1461 14.77 21.1461C14.273 21.1461 13.87 20.7432 13.87 20.2461V18.1301C13.87 17.6331 14.273 17.2301 14.77 17.2301Z" />
<path d="M17.2571 20.7752C17.2571 21.2722 16.8541 21.6752 16.3571 21.6752H7.89291C7.39586 21.6752 6.99291 21.2722 6.99291 20.7752C6.99291 20.2781 7.39586 19.8752 7.89291 19.8752H16.3571C16.8541 19.8752 17.2571 20.2781 17.2571 20.7752Z" />
</svg>