<!-- character:0:2425 -->
  <svg width="20" height="20" viewBox="0 0 20 20" >
<path   d="M8.08023 5.4718C9.131 5.4718 9.98282 4.61998 9.98282 3.56921C9.98282 2.51844 9.131 1.66663 8.08023 1.66663C7.02946 1.66663 6.17764 2.51844 6.17764 3.56921C6.17764 4.61998 7.02946 5.4718 8.08023 5.4718ZM15.0818 13.9954C14.9295 12.6255 13.788 11.5601 12.4181 11.5601H10.5916C10.3633 11.5601 10.2111 11.4079 10.2111 11.1796L9.6023 7.14608C9.4501 6.61335 8.91737 6.15673 8.30854 6.23284C7.69971 6.38504 7.24309 6.91777 7.3192 7.5266L7.92803 11.484C8.08023 12.7777 9.22178 13.7671 10.5916 13.7671H12.4181C12.6464 13.7671 12.7986 13.9193 12.7986 14.0715L13.027 17.2678C13.1031 17.8767 13.6358 18.3333 14.2446 18.3333C14.8534 18.2572 15.3101 17.7245 15.3101 17.1156L15.0818 13.9954ZM8.15634 14.8325H11.1244C11.581 14.8325 11.8854 15.1369 11.8854 15.5936C11.8854 16.0502 11.581 16.3546 11.1244 16.3546H8.15634C7.09089 16.3546 6.17764 15.6697 5.94933 14.6042L4.73168 9.27698C4.57947 8.89646 4.88388 8.43984 5.2644 8.36373C5.64492 8.21153 6.10154 8.51594 6.17764 8.89646L7.3953 14.2237C7.4714 14.6042 7.77582 14.8325 8.15634 14.8325Z" />
</svg>