<!--character:541-->
  <svg width="24" height="24" viewBox="0 0 24 24" >
<path d="M23.7851 1.98158C23.9982 2.33676 23.883 2.79746 23.5279 3.01057L23.1112 3.26057C22.756 3.47368 22.2953 3.3585 22.0822 3.00332C21.8691 2.64813 21.9843 2.18744 22.3395 1.97433L22.7561 1.72433C23.1113 1.51122 23.572 1.62639 23.7851 1.98158ZM21.7018 3.23158C21.9149 3.58676 21.7997 4.04746 21.4445 4.26057L20.6112 4.76057C20.256 4.97368 19.7953 4.8585 19.5822 4.50332C19.3691 4.14813 19.4843 3.68744 19.8395 3.47433L20.6728 2.97433C21.028 2.76122 21.4887 2.87639 21.7018 3.23158ZM19.2018 4.73158C19.4149 5.08676 19.2997 5.54746 18.9445 5.76057L18.5279 6.01057C18.1727 6.22368 17.712 6.1085 17.4989 5.75332C17.2858 5.39813 17.4009 4.93744 17.7561 4.72433L18.1728 4.47433C18.528 4.26122 18.9887 4.37639 19.2018 4.73158Z" />
<path d="M23.7851 22.5353C23.9982 22.1801 23.883 21.7194 23.5279 21.5063L23.1112 21.2563C22.756 21.0432 22.2953 21.1583 22.0822 21.5135C21.8691 21.8687 21.9843 22.3294 22.3395 22.5425L22.7561 22.7925C23.1113 23.0056 23.572 22.8905 23.7851 22.5353ZM21.7018 21.2853C21.9149 20.9301 21.7997 20.4694 21.4445 20.2563L20.6112 19.7563C20.256 19.5432 19.7953 19.6584 19.5822 20.0135C19.3691 20.3687 19.4843 20.8294 19.8395 21.0425L20.6728 21.5425C21.028 21.7556 21.4887 21.6405 21.7018 21.2853ZM19.2018 19.7853C19.4149 19.4301 19.2997 18.9694 18.9445 18.7563L18.5279 18.5063C18.1727 18.2932 17.712 18.4084 17.4989 18.7635C17.2858 19.1187 17.4009 19.5794 17.7561 19.7925L18.1728 20.0425C18.528 20.2556 18.9887 20.1405 19.2018 19.7853Z" />
<path d="M4.71881 13.211C4.66404 13.211 4.61318 13.2394 4.58439 13.2859C4.5556 13.3325 4.55298 13.3907 4.57747 13.4397C4.57747 13.4397 4.57747 13.4397 4.57747 13.4397L5.87205 16.0289C6.07804 16.4409 6.49911 16.7011 6.95972 16.7011H17.0404C17.0403 16.7011 17.0404 16.7011 17.0404 16.7011C17.5009 16.7011 17.922 16.4409 18.128 16.0289L19.4226 13.4397C19.4471 13.3907 19.4444 13.3325 19.4157 13.2859C19.3869 13.2394 19.336 13.211 19.2812 13.211H17.415C17.415 13.211 17.4151 13.211 17.415 13.211C17.3552 13.211 17.3005 13.2448 17.2737 13.2983C17.2737 13.2983 17.2737 13.2983 17.2737 13.2983L16.5081 14.8295C16.3556 15.1344 16.044 15.327 15.7031 15.327H8.29697C7.95608 15.327 7.64445 15.1344 7.49199 14.8296L6.72638 13.2984C6.69961 13.2448 6.64488 13.211 6.58502 13.211H4.71881C4.71881 13.211 4.71881 13.211 4.71881 13.211ZM3.05323 12.3396C3.40999 11.7624 4.0402 11.411 4.7188 11.411H6.58497C6.58497 11.411 6.58498 11.411 6.58497 11.411C7.32663 11.411 8.00466 11.83 8.33633 12.4934C8.33633 12.4934 8.33634 12.4934 8.33633 12.4934L8.85319 13.527H15.1469L15.6638 12.4933C15.9954 11.8301 16.6734 11.411 17.4149 11.411H19.2812C19.9598 11.411 20.5901 11.7624 20.9468 12.3396C21.3036 12.9169 21.336 13.6377 21.0326 14.2447L19.738 16.8339C19.2271 17.8556 18.1828 18.5011 17.0404 18.5011H6.95972C5.81732 18.5011 4.77297 17.8557 4.26208 16.8339C4.26208 16.8339 4.26208 16.8339 4.26208 16.8339L2.9675 14.2447C2.66403 13.6377 2.69646 12.9169 3.05323 12.3396Z" />
<path d="M10.677 4.12484C9.65562 4.12484 8.78233 4.85977 8.60789 5.86618L7.60913 11.6282C7.94489 11.8942 8.21836 12.2321 8.40877 12.618L8.85743 13.5275H15.2048L16.0025 12.2499C16.1182 12.0645 16.2545 11.8929 16.4088 11.7382L16.4107 11.7362L15.3933 5.86618C15.2188 4.85977 14.3455 4.12484 13.3241 4.12484H10.677ZM6.83433 5.55877C7.1583 3.68971 8.78011 2.32484 10.677 2.32484H13.3241C15.221 2.32484 16.8428 3.68971 17.1668 5.55877L18.2639 11.8879C18.3138 12.1759 18.2208 12.4701 18.0144 12.6771L17.6835 13.0091C17.6249 13.0677 17.5733 13.1329 17.5294 13.2032L16.4674 14.9041C16.3029 15.1675 16.0136 15.327 15.7031 15.327H8.29697C7.95434 15.327 7.64233 15.1329 7.49074 14.8257L6.79452 13.4144C6.70884 13.2407 6.57884 13.0928 6.41764 12.9854L6.12527 12.7908C5.82855 12.5932 5.67639 12.2392 5.73727 11.8879L6.83433 5.55877Z" />
<path d="M9.47988 17.2301C9.97694 17.2301 10.3799 17.6331 10.3799 18.1301V20.2462C10.3799 20.7432 9.97694 21.1462 9.47988 21.1462C8.98282 21.1462 8.57988 20.7432 8.57988 20.2462V18.1301C8.57988 17.6331 8.98282 17.2301 9.47988 17.2301Z" />
<path d="M14.77 17.2301C15.2671 17.2301 15.67 17.6331 15.67 18.1301V20.2462C15.67 20.7432 15.2671 21.1462 14.77 21.1462C14.273 21.1462 13.87 20.7432 13.87 20.2462V18.1301C13.87 17.6331 14.273 17.2301 14.77 17.2301Z" />
<path d="M17.257 20.7752C17.257 21.2722 16.854 21.6752 16.357 21.6752H7.89279C7.39573 21.6752 6.99279 21.2722 6.99279 20.7752C6.99279 20.2781 7.39573 19.8752 7.89279 19.8752H16.357C16.854 19.8752 17.257 20.2781 17.257 20.7752Z" />
</svg>