<!--character:6612-->
  <svg width="20" height="20" viewBox="0 0 20 20" >
<path d="M8.05557 5.47184C9.10634 5.47184 9.95816 4.62002 9.95816 3.56925C9.95816 2.51848 9.10634 1.66666 8.05557 1.66666C7.0048 1.66666 6.15299 2.51848 6.15299 3.56925C6.15299 4.62002 7.0048 5.47184 8.05557 5.47184Z" />
<path d="M15.6884 18.3328C15.2601 18.3328 14.8509 18.087 14.6634 17.672C14.1242 16.4828 13.6201 15.4236 13.1642 14.5236C12.8609 13.9245 12.6017 13.827 12.4476 13.8136H11.2509C8.94507 14.0436 8.20174 12.5745 7.98674 11.9286L7.94174 11.7378L7.32091 7.54029C7.23007 6.92613 7.65424 6.35363 8.26924 6.26279C8.88507 6.16946 9.45591 6.59696 9.54674 7.21113L10.1509 11.3003C10.2226 11.4753 10.3784 11.6495 11.0684 11.5711L11.1917 11.5645H12.3026C12.3626 11.5611 12.4242 11.5611 12.4867 11.5645L12.5492 11.567C13.3734 11.6095 14.4151 12.012 15.1717 13.5078C15.6417 14.4361 16.1601 15.5253 16.7126 16.7428C16.9692 17.3086 16.7176 17.9753 16.1517 18.232C16.0009 18.3003 15.8434 18.3328 15.6884 18.3328Z" />
<path d="M8.13168 14.8326H11.0997C11.5563 14.8326 11.8607 15.137 11.8607 15.5936C11.8607 16.0502 11.5563 16.3546 11.0997 16.3546H8.13168C7.06623 16.3546 6.15299 15.6697 5.92468 14.6043L4.70702 9.27701C4.55481 8.8965 4.85923 8.43988 5.23974 8.36377C5.62026 8.21157 6.07688 8.51598 6.15299 8.8965L7.37064 14.2237C7.44675 14.6043 7.75116 14.8326 8.13168 14.8326Z" />
</svg>