<!--character:9094-->
  <svg width="29" height="29" viewBox="0 0 29 29" >
<path   d="M9.73733 3.53883C10.4568 2.81934 11.4327 2.41513 12.4502 2.41513C13.4677 2.41513 14.4435 2.81934 15.163 3.53883C15.8825 4.25833 16.2867 5.23417 16.2867 6.25169C16.2867 7.26921 15.8825 8.24506 15.163 8.96455C14.4435 9.68404 13.4677 10.0883 12.4502 10.0883C11.4327 10.0883 10.4568 9.68404 9.73733 8.96455C9.01783 8.24506 8.61362 7.26921 8.61362 6.25169C8.61362 5.23417 9.01783 4.25833 9.73733 3.53883ZM12.4502 4.59013C12.0095 4.59013 11.5869 4.76518 11.2753 5.07679C10.9637 5.38839 10.7886 5.81102 10.7886 6.25169C10.7886 6.69236 10.9637 7.11499 11.2753 7.42659C11.5869 7.7382 12.0095 7.91325 12.4502 7.91325C12.8909 7.91325 13.3135 7.7382 13.6251 7.42659C13.9367 7.11499 14.1117 6.69236 14.1117 6.25169C14.1117 5.81102 13.9367 5.38839 13.6251 5.07679C13.3135 4.76518 12.8909 4.59013 12.4502 4.59013Z" />
<path   d="M12.7022 12.5401C12.5931 12.476 12.4631 12.4573 12.3403 12.488C12.2175 12.5186 12.1116 12.5963 12.0454 12.7042C11.9806 12.8099 11.9589 12.9365 11.9847 13.0576L13.255 18.1399C13.3659 18.5846 13.6224 18.9795 13.9836 19.2616C14.3448 19.5438 14.79 19.697 15.2483 19.697H18.2059C18.7395 19.697 19.1943 20.0842 19.2795 20.6111L19.8272 24.0011C19.828 24.0065 19.8289 24.012 19.8297 24.0174C19.8407 24.075 19.8622 24.1302 19.893 24.1802C19.9264 24.2342 19.97 24.2812 20.0215 24.3183C20.073 24.3555 20.1313 24.3822 20.1931 24.3968C20.2549 24.4115 20.3189 24.4138 20.3816 24.4037C20.4443 24.3936 20.5044 24.3712 20.5584 24.3379C20.6125 24.3045 20.6595 24.2609 20.6966 24.2094C20.7338 24.1579 20.7605 24.0996 20.7751 24.0378C20.7898 23.9761 20.7921 23.912 20.782 23.8494C20.782 23.8493 20.782 23.8494 20.782 23.8494L20.2343 20.4573L20.2336 20.4532C20.1577 19.9717 19.912 19.5332 19.5408 19.2171C19.1696 18.9011 18.6975 18.7284 18.21 18.7302L18.2059 18.7302H15.2463C14.7472 18.7302 14.3121 18.3905 14.1912 17.9062L12.9221 12.8234C12.8879 12.7044 12.8092 12.6029 12.7022 12.5401ZM11.8132 10.3778C12.4885 10.2091 13.2032 10.312 13.8035 10.6645C14.4038 11.0169 14.8419 11.5908 15.0237 12.2628C15.0255 12.2696 15.0273 12.2765 15.029 12.2833L16.0957 16.5552H18.2039C19.2102 16.5519 20.1846 16.9087 20.9508 17.5611C21.7171 18.2135 22.2246 19.1186 22.3818 20.1126C22.3819 20.1133 22.382 20.114 22.3821 20.1146L22.9292 23.5027C22.9848 23.8473 22.972 24.1997 22.8915 24.5394C22.811 24.8791 22.6643 25.1996 22.46 25.4827C22.2556 25.7657 21.9974 26.0058 21.7003 26.189C21.4031 26.3723 21.0728 26.4953 20.7281 26.5509C20.3835 26.6065 20.0312 26.5937 19.6915 26.5132C19.3518 26.4327 19.0313 26.2861 18.7482 26.0817C18.4652 25.8773 18.2251 25.6192 18.0419 25.322C17.8586 25.0249 17.7356 24.6945 17.68 24.3499C17.6786 24.3411 17.6772 24.3322 17.676 24.3234L17.28 21.872H15.2485C15.2484 21.872 15.2485 21.872 15.2485 21.872C14.3049 21.8721 13.3883 21.5565 12.6446 20.9756C11.9012 20.3948 11.3732 19.5821 11.1448 18.6668L9.87131 13.5718C9.8696 13.565 9.86795 13.5581 9.86638 13.5512C9.71075 12.8727 9.82749 12.1602 10.1915 11.5668C10.5555 10.9735 11.1378 10.5465 11.8132 10.3778Z" />
<path   d="M6.87464 12.6684C7.45502 12.5138 8.05081 12.859 8.20538 13.4394L10.4458 21.8517C10.6008 22.4338 11.1279 22.8388 11.7302 22.8388H15.9013C16.5019 22.8388 16.9888 23.3257 16.9888 23.9263C16.9888 24.5269 16.5019 25.0138 15.9013 25.0138H11.7302C10.1422 25.0138 8.75273 23.946 8.34406 22.4115L6.10364 13.9991C5.94907 13.4187 6.29426 12.8229 6.87464 12.6684Z" />
</svg>