<!--character:540-->
  <svg width="24" height="24" viewBox="0 0 24 24" >
<path d="M3.81867 3.37877C3.88227 3.39935 3.92158 3.46299 3.9115 3.52907L3.1236 8.69627C3.11577 8.74763 3.07944 8.79007 3.02991 8.80573L2.61527 8.93685C2.52737 8.96465 2.43779 8.89903 2.43779 8.80683V3.11952C2.43779 3.02695 2.52805 2.96128 2.61613 2.98978L3.81867 3.37877ZM3.07779 1.56259C2.02092 1.22071 0.937793 2.00872 0.937793 3.11952V8.80683C0.937793 9.91311 2.01273 10.7006 3.06753 10.367L3.48217 10.2359C4.07654 10.048 4.51249 9.53864 4.60646 8.92238L5.39436 3.75518C5.51528 2.96219 5.04355 2.19847 4.28033 1.95158L3.07779 1.56259Z" />
<path d="M4.71883 13.211C4.66407 13.211 4.61321 13.2394 4.58442 13.2859C4.55563 13.3325 4.55301 13.3907 4.57749 13.4397C4.57749 13.4397 4.5775 13.4397 4.57749 13.4397L5.87208 16.0289C6.07806 16.4409 6.49914 16.7011 6.95974 16.7011H17.0404C17.0404 16.7011 17.0404 16.7011 17.0404 16.7011C17.501 16.7011 17.922 16.4408 18.128 16.0289L19.4226 13.4397C19.4471 13.3907 19.4445 13.3325 19.4157 13.2859C19.3869 13.2394 19.336 13.211 19.2813 13.211H17.4151C17.4151 13.211 17.4151 13.211 17.4151 13.211C17.3553 13.211 17.3005 13.2448 17.2738 13.2983C17.2738 13.2983 17.2738 13.2983 17.2738 13.2983L16.5081 14.8295C16.3557 15.1344 16.044 15.327 15.7031 15.327H8.297C7.95611 15.327 7.64447 15.1344 7.49202 14.8295L6.7264 13.2984C6.69964 13.2448 6.6449 13.211 6.58505 13.211H4.71883C4.71883 13.211 4.71883 13.211 4.71883 13.211ZM3.05325 12.3396C3.41002 11.7624 4.04023 11.411 4.71883 11.411H6.585C6.58499 11.411 6.58501 11.411 6.585 11.411C7.32665 11.411 8.00468 11.83 8.33636 12.4934C8.33635 12.4934 8.33636 12.4934 8.33636 12.4934L8.85322 13.527H15.1469L15.6638 12.4933C15.9955 11.83 16.6734 11.411 17.415 11.411H19.2813C19.9599 11.411 20.5901 11.7624 20.9468 12.3396C21.3036 12.9169 21.3361 13.6377 21.0326 14.2446L19.738 16.8339C19.2271 17.8556 18.1828 18.5011 17.0404 18.5011H6.95974C5.81734 18.5011 4.77299 17.8557 4.26211 16.8339C4.2621 16.8339 4.26211 16.8339 4.26211 16.8339L2.96752 14.2447C2.66405 13.6377 2.69649 12.9169 3.05325 12.3396Z" />
<path d="M10.6771 4.12483C9.65564 4.12483 8.78236 4.85977 8.60791 5.86618L7.60916 11.6282C7.94492 11.8942 8.21838 12.2321 8.40879 12.618L8.85745 13.5275H15.2049L16.0025 12.2499C16.1183 12.0645 16.2545 11.8929 16.4088 11.7382L16.4108 11.7362L15.3933 5.86618C15.2188 4.85977 14.3456 4.12483 13.3241 4.12483H10.6771ZM6.83436 5.55876C7.15833 3.68971 8.78014 2.32483 10.6771 2.32483H13.3241C15.2211 2.32483 16.8429 3.68971 17.1668 5.55876L18.2639 11.8879C18.3138 12.1759 18.2208 12.4701 18.0145 12.6771L17.6835 13.0091C17.625 13.0677 17.5733 13.1329 17.5294 13.2031L16.4674 14.9041C16.303 15.1675 16.0136 15.327 15.7031 15.327H8.297C7.95437 15.327 7.64236 15.1329 7.49077 14.8257L6.79454 13.4144C6.70887 13.2407 6.57886 13.0928 6.41767 12.9854L6.1253 12.7908C5.82858 12.5932 5.67641 12.2392 5.7373 11.8879L6.83436 5.55876Z" />
<path d="M9.47991 17.2301C9.97696 17.2301 10.3799 17.6331 10.3799 18.1301V20.2461C10.3799 20.7432 9.97696 21.1461 9.47991 21.1461C8.98285 21.1461 8.57991 20.7432 8.57991 20.2461V18.1301C8.57991 17.6331 8.98285 17.2301 9.47991 17.2301Z" />
<path d="M14.7701 17.2301C15.2671 17.2301 15.6701 17.6331 15.6701 18.1301V20.2461C15.6701 20.7432 15.2671 21.1461 14.7701 21.1461C14.273 21.1461 13.8701 20.7432 13.8701 20.2461V18.1301C13.8701 17.6331 14.273 17.2301 14.7701 17.2301Z" />
<path d="M17.257 20.7752C17.257 21.2722 16.854 21.6752 16.357 21.6752H7.89282C7.39576 21.6752 6.99282 21.2722 6.99282 20.7752C6.99282 20.2781 7.39576 19.8752 7.89282 19.8752H16.357C16.854 19.8752 17.257 20.2781 17.257 20.7752Z" />
</svg>