<!--character:4998-->
  <svg width="24" height="24" viewBox="0 0 24 24" >
<path   d="M8.05848 2.92869C8.65392 2.33324 9.46152 1.99872 10.3036 1.99872C11.1457 1.99872 11.9533 2.33324 12.5487 2.92869C13.1442 3.52413 13.4787 4.33173 13.4787 5.17381C13.4787 6.0159 13.1442 6.82349 12.5487 7.41894C11.9533 8.01438 11.1457 8.3489 10.3036 8.3489C9.46152 8.3489 8.65392 8.01438 8.05848 7.41894C7.46303 6.82349 7.12851 6.0159 7.12851 5.17381C7.12851 4.33173 7.46303 3.52413 8.05848 2.92869ZM10.3036 3.79872C9.93891 3.79872 9.58915 3.9436 9.33127 4.20148C9.07339 4.45936 8.92851 4.80912 8.92851 5.17381C8.92851 5.53851 9.07339 5.88827 9.33127 6.14614C9.58915 6.40402 9.93891 6.5489 10.3036 6.5489C10.6683 6.5489 11.0181 6.40402 11.2759 6.14614C11.5338 5.88827 11.6787 5.53851 11.6787 5.17381C11.6787 4.80912 11.5338 4.45936 11.2759 4.20148C11.0181 3.9436 10.6683 3.79872 10.3036 3.79872Z" />
<path   d="M10.5122 10.378C10.4219 10.325 10.3143 10.3095 10.2127 10.3349C10.111 10.3602 10.0234 10.4245 9.96865 10.5138C9.91496 10.6013 9.89701 10.706 9.91837 10.8063L10.9697 15.0123C11.0615 15.3804 11.2737 15.7071 11.5726 15.9407C11.8716 16.1742 12.24 16.301 12.6193 16.301H15.0669C15.5086 16.301 15.885 16.6214 15.9554 17.0574L16.4087 19.8629C16.4094 19.8674 16.4101 19.872 16.4108 19.8765C16.4199 19.9242 16.4377 19.9698 16.4632 20.0112C16.4908 20.0559 16.5269 20.0948 16.5695 20.1255C16.6121 20.1563 16.6604 20.1784 16.7115 20.1905C16.7627 20.2026 16.8157 20.2045 16.8676 20.1962C16.9194 20.1878 16.9692 20.1693 17.0139 20.1417C17.0586 20.1141 17.0975 20.078 17.1282 20.0354C17.159 19.9928 17.1811 19.9445 17.1932 19.8934C17.2053 19.8423 17.2072 19.7893 17.1989 19.7374C17.1989 19.7374 17.1989 19.7374 17.1989 19.7374L16.7456 16.9302L16.7451 16.9268C16.6823 16.5283 16.4789 16.1654 16.1717 15.9038C15.8645 15.6423 15.4738 15.4993 15.0704 15.5009L15.0669 15.5009H12.6176C12.2046 15.5009 11.8445 15.2197 11.7444 14.8189L10.6941 10.6125C10.6658 10.514 10.6007 10.43 10.5122 10.378ZM9.7764 8.58853C10.3353 8.44889 10.9267 8.53407 11.4236 8.82577C11.9204 9.11746 12.2829 9.5924 12.4334 10.1485C12.4349 10.1542 12.4364 10.1598 12.4378 10.1655L13.3205 13.7009H15.0653C15.8981 13.6981 16.7045 13.9934 17.3386 14.5333C17.9728 15.0733 18.3928 15.8223 18.5229 16.6449C18.5229 16.6455 18.523 16.646 18.5231 16.6466L18.9759 19.4505C19.0219 19.7357 19.0113 20.0273 18.9447 20.3085C18.8781 20.5896 18.7567 20.8549 18.5876 21.0891C18.4184 21.3234 18.2048 21.522 17.9589 21.6737C17.713 21.8254 17.4396 21.9271 17.1543 21.9732C16.8691 22.0192 16.5776 22.0086 16.2964 21.942C16.0153 21.8753 15.75 21.754 15.5158 21.5848C15.2815 21.4157 15.0829 21.2021 14.9312 20.9561C14.7795 20.7102 14.6777 20.4369 14.6317 20.1516C14.6305 20.1443 14.6294 20.137 14.6285 20.1297L14.3007 18.101H12.6194C12.6194 18.101 12.6194 18.101 12.6194 18.101C11.8385 18.101 11.0799 17.8399 10.4645 17.3591C9.84923 16.8785 9.41231 16.2059 9.22327 15.4483L8.16936 11.2319C8.16794 11.2262 8.16658 11.2205 8.16528 11.2148C8.03648 10.6533 8.13309 10.0636 8.43435 9.57256C8.7356 9.08148 9.21746 8.72817 9.7764 8.58853Z" />
<path   d="M5.68936 10.4842C6.16967 10.3562 6.66274 10.6419 6.79066 11.1222L8.6448 18.0842C8.77308 18.5659 9.20926 18.9011 9.70775 18.9011H13.1597C13.6568 18.9011 14.0597 19.304 14.0597 19.8011C14.0597 20.2982 13.6568 20.7011 13.1597 20.7011H9.70775C8.39355 20.7011 7.24364 19.8174 6.90543 18.5474L5.05129 11.5855C4.92337 11.1051 5.20904 10.6121 5.68936 10.4842Z" />
</svg>