<!--character:E188-->
<svg width="24" height="24" viewBox="0 0 24 24" xmlns="http://www.w3.org/2000/svg"><path d="M19 10.66c.552 0 1 .448 1 1v4c0 .276-.112.526-.293.708a.996.996 0 0 1-.707.292h-2.434c-.313 0-.566.254-.566.567v1.153c0 .155.125.28.28.28h.885c.461 0 .835.374.835.835 0 .462-.374.836-.835.836h-5.33c-.461 0-.835-.374-.835-.836 0-.461.374-.835.835-.835h.884c.155 0 .281-.125.281-.28v-1.153c0-.313-.254-.567-.567-.567h-1.867C9.701 16.66 9 15.959 9 15.094V11.66c0-.552.447-1 1-1 .552 0 1 .448 1 1v2.434c0 .313.253.566.566.566h5.867c.313 0 .567-.253.567-.566V11.66c0-.552.447-1 1-1zm-2.9868-7c1.649 0 2.987 1.338 2.987 2.987v3.021H18.9862c-1.093 0-1.979.886-1.979 1.978v1.449a.573.573 0 0 1-.573.573H12.5652a.5736.5736 0 0 1-.573-.573v-1.449c0-1.092-.886-1.978-1.979-1.978h-.013V6.647c0-1.649 1.337-2.987 2.986-2.987h3.027zM4.15 6.53c-.304 0-.55.246-.55.55v1.45c0 .644.499 1.165 1.114 1.165.615 0 1.114-.521 1.114-1.165V7.08c0-.304-.246-.55-.55-.55H4.15zm.56 4.84C3.216 11.37 2 10.099 2 8.535v-2C2 4.972 3.216 3.7 4.71 3.7s2.71 1.272 2.71 2.835v2c0 1.564-1.216 2.835-2.71 2.835z"/></svg>
