<!--character:4321-->
  <svg width="24" height="24" viewBox="0 0 24 24" >
<path d="M9.69599 6.56621C10.9569 6.56621 11.9791 5.54403 11.9791 4.2831C11.9791 3.02218 10.9569 2 9.69599 2C8.43506 2 7.41288 3.02218 7.41288 4.2831C7.41288 5.54403 8.43506 6.56621 9.69599 6.56621Z" />
<path d="M18.0978 16.7945C17.9152 15.1507 16.5453 13.8721 14.9015 13.8721H12.7097C12.4357 13.8721 12.2531 13.6895 12.2531 13.4155L11.5225 8.57534C11.3398 7.93607 10.7006 7.38812 9.96996 7.47945C9.23936 7.6621 8.69142 8.30137 8.78274 9.03196L9.51334 13.7808C9.69599 15.3333 11.0658 16.5205 12.7097 16.5205H14.9015C15.1754 16.5205 15.3581 16.7032 15.3581 16.8858L15.6321 20.7215C15.7234 21.4521 16.3627 22 17.0932 22C17.8238 21.9087 18.3718 21.2694 18.3718 20.5388L18.0978 16.7945Z" />
<path d="M9.78731 17.7991H13.349C13.8969 17.7991 14.2622 18.1644 14.2622 18.7123C14.2622 19.2603 13.8969 19.6256 13.349 19.6256H9.78731C8.50877 19.6256 7.41288 18.8036 7.13891 17.5251L5.67772 11.1324C5.49507 10.6758 5.86037 10.1279 6.31699 10.0365C6.77361 9.85388 7.32156 10.2192 7.41288 10.6758L8.87407 17.0685C8.96539 17.5251 9.33069 17.7991 9.78731 17.7991Z" />
</svg>