<!--character:6688-->
  <svg width="20" height="20" viewBox="0 0 20 20" >
<path d="M13.3443 3.05C14.7185 3.05 15.8335 4.165 15.8335 5.53917V8.05667H15.8218C14.911 8.05667 14.1727 8.795 14.1727 9.705V10.9125C14.1727 11.1758 13.9593 11.39 13.6952 11.39H10.471C10.2077 11.39 9.9935 11.1758 9.9935 10.9125V9.705C9.9935 8.795 9.25517 8.05667 8.34433 8.05667H8.3335V5.53917C8.3335 4.165 9.44767 3.05 10.8218 3.05H13.3443Z" />
<path d="M5.20892 5.75026C5.29975 5.79026 5.39392 5.80859 5.48725 5.80859C5.75558 5.80859 6.01058 5.65276 6.12558 5.39192C6.27892 5.03942 6.11892 4.62942 5.76642 4.47526L2.64142 3.10859C2.29058 2.95442 1.87892 3.11526 1.72475 3.46609C1.57142 3.81859 1.73142 4.22859 2.08392 4.38276L5.20892 5.75026Z" />
<path d="M1.72475 15.6914C1.83975 15.9523 2.09475 16.1081 2.36308 16.1081C2.45642 16.1081 2.55058 16.0898 2.64142 16.0498L5.76642 14.6831C6.11808 14.5289 6.27892 14.1189 6.12558 13.7664C5.97142 13.4156 5.56058 13.2548 5.20892 13.4089L2.08392 14.7748C1.73225 14.9289 1.57142 15.3389 1.72475 15.6914Z" />
<path d="M15.8333 8.88334C15.3725 8.88334 15 9.25667 15 9.71667V11.745C15 12.0058 14.7883 12.2167 14.5275 12.2167H9.63833C9.3775 12.2167 9.16667 12.0058 9.16667 11.745V9.71667C9.16667 9.25667 8.79333 8.88334 8.33333 8.88334C7.8725 8.88334 7.5 9.25667 7.5 9.71667V12.5783C7.5 13.2992 8.08417 13.8833 8.805 13.8833H10.3608C10.6217 13.8833 10.8333 14.095 10.8333 14.3558V15.3167C10.8333 15.4458 10.7283 15.55 10.5992 15.55H9.8625C9.47833 15.55 9.16667 15.8617 9.16667 16.2458C9.16667 16.6308 9.47833 16.9425 9.8625 16.9425H14.3042C14.6883 16.9425 15 16.6308 15 16.2458C15 15.8617 14.6883 15.55 14.3042 15.55H13.5667C13.4375 15.55 13.3333 15.4458 13.3333 15.3167V14.3558C13.3333 14.095 13.5442 13.8833 13.805 13.8833H15.8333C16.0633 13.8833 16.2717 13.7908 16.4225 13.64C16.5733 13.4883 16.6667 13.28 16.6667 13.05V9.71667C16.6667 9.25667 16.2933 8.88334 15.8333 8.88334Z" />
</svg>