<!--character:3024:2817-->
<svg width="24" height="24" viewBox="0 0 24 24">
  <path d="M9.66669 6.56621C10.9276 6.56621 11.9498 5.54403 11.9498 4.2831C11.9498 3.02218 10.9276 2 9.66669 2C8.40576 2 7.38358 3.02218 7.38358 4.2831C7.38358 5.54403 8.40576 6.56621 9.66669 6.56621Z" />
  <path d="M18.8261 21.9993C18.3121 21.9993 17.8211 21.7043 17.5961 21.2063C16.9491 19.7793 16.3441 18.5083 15.7971 17.4284C15.4331 16.7094 15.1221 16.5923 14.9371 16.5763H13.5011C10.7341 16.8523 9.84209 15.0893 9.58409 14.3144L9.53009 14.0854L8.78509 9.04835C8.67609 8.31135 9.18509 7.62435 9.92309 7.51535C10.6621 7.40335 11.3471 7.91635 11.4561 8.65335L12.1811 13.5604C12.2671 13.7704 12.4541 13.9794 13.2821 13.8854L13.4301 13.8774H14.7631C14.8351 13.8734 14.9091 13.8734 14.9841 13.8774L15.0591 13.8804C16.0481 13.9314 17.2981 14.4144 18.2061 16.2093C18.7701 17.3233 19.3921 18.6303 20.0551 20.0913C20.3631 20.7703 20.0611 21.5703 19.3821 21.8784C19.2011 21.9603 19.0121 21.9993 18.8261 21.9993Z" />
  <path d="M9.75801 17.7991H13.3197C13.8676 17.7991 14.2329 18.1644 14.2329 18.7123C14.2329 19.2603 13.8676 19.6256 13.3197 19.6256H9.75801C8.47947 19.6256 7.38358 18.8036 7.10961 17.5251L5.64842 11.1324C5.46578 10.6758 5.83107 10.1279 6.28769 10.0365C6.74431 9.85388 7.29226 10.2192 7.38358 10.6758L8.84477 17.0685C8.93609 17.5251 9.30139 17.7991 9.75801 17.7991Z" />
</svg>
