<!--character:6993-->
  <svg width="24" height="24" viewBox="0 0 24 24" >
<path d="M11.9558 3C14.4386 3 16.8461 3.45141 19.1032 4.42947C19.7803 4.73041 20.2317 5.40752 20.3069 6.08464V11.5768C20.2317 15.6395 17.6737 19.1755 13.912 20.5298L13.0844 20.8307C12.4073 21.0564 11.5797 21.0564 10.9026 20.8307L10.075 20.5298C6.23797 19.1755 3.67998 15.6395 3.67998 11.5768V6.08464C3.67998 5.40752 4.13139 4.73041 4.80851 4.42947C7.06556 3.45141 9.47308 3 11.9558 3ZM12.4825 19.4013C14.0551 18.8022 18.6837 17.0105 18.7267 11.652H11.9558L11.9558 4.5047C9.69879 4.5047 7.44174 4.95611 5.41039 5.7837C5.25992 5.7837 5.18468 5.93417 5.18468 6.08464V11.5768C5.18468 11.602 5.18478 11.627 5.18497 11.652L11.9558 11.652L11.9558 19.5136C12.1314 19.5089 12.3069 19.4715 12.4825 19.4013Z" />
</svg>