<!--character:8185-->
  <svg width="24" height="24" viewBox="0 0 24 24" >
<path d="M11.9559 3C14.4386 3 16.8462 3.45141 19.1032 4.42947C19.7803 4.73041 20.2317 5.40752 20.307 6.08464V11.5768C20.2317 15.6395 17.6737 19.1755 13.912 20.5298L13.0844 20.8307C12.4073 21.0564 11.5797 21.0564 10.9026 20.8307L10.075 20.5298C6.23801 19.1755 3.68002 15.6395 3.68002 11.5768V6.08464C3.68002 5.40752 4.13143 4.73041 4.80854 4.42947C7.0656 3.45141 9.47312 3 11.9559 3ZM12.4825 19.4013C14.0551 18.8022 18.6838 17.0105 18.7267 11.652H11.9559L11.9559 4.5047C9.69883 4.5047 7.44177 4.95611 5.41043 5.7837C5.25996 5.7837 5.18472 5.93417 5.18472 6.08464V11.5768C5.18472 11.602 5.18482 11.627 5.18501 11.652L11.9559 11.652L11.9559 19.5136C12.1314 19.5089 12.307 19.4715 12.4825 19.4013Z" />
</svg>