<!--description:Security articles, privacy policy, ...-->
<!--category:services-->
<!--character:E146-->
<!--added:0.19-->
<svg width="24" height="24" viewBox="0 0 24 24" xmlns="http://www.w3.org/2000/svg"><path d="M11.9559 19.5136c.1755-.0047.351-.0421.5266-.1123 1.5726-.5991 6.2013-2.3908 6.2442-7.7493H11.956V4.5047c-2.257 0-4.5141.4514-6.5455 1.279-.1505 0-.2257.1505-.2257.301v5.4921c0 .0252.0001.0502.0003.0752h6.7709v7.8616zm7.1473-15.0841c.6771.301 1.1285.978 1.2038 1.6551v5.4922c-.0753 4.0627-2.6333 7.5987-6.395 8.953l-.8276.301c-.6771.2256-1.5047.2256-2.1818 0l-.8276-.301c-3.837-1.3543-6.395-4.8903-6.395-8.953V6.0846c0-.677.4514-1.3542 1.1285-1.6551C7.0655 3.4515 9.4731 3 11.956 3c2.4827 0 4.8902.4514 7.1473 1.4295z"/></svg>