<!-- character:0:1633 -->
  <svg width="20" height="20" viewBox="0 0 20 20" >
<path   d="M9.96323 2.5C12.0322 2.5 14.0385 2.87618 15.9193 3.69122C16.4836 3.94201 16.8598 4.50627 16.9225 5.07053V9.64734C16.8598 13.0329 14.7281 15.9796 11.5933 17.1082L10.9037 17.3589C10.3394 17.547 9.64975 17.547 9.08549 17.3589L8.39583 17.1082C5.19834 15.9796 3.06668 13.0329 3.06668 9.64734V5.07053C3.06668 4.50627 3.44286 3.94201 4.00712 3.69122C5.888 2.87618 7.89427 2.5 9.96323 2.5ZM10.4021 16.1677C11.7126 15.6685 15.5698 14.1754 15.6056 9.71003H9.96323L9.96323 3.75392C8.08236 3.75392 6.20148 4.13009 4.50869 4.81975C4.3833 4.81975 4.3206 4.94514 4.3206 5.07053V9.64734C4.3206 9.6683 4.32068 9.6892 4.32084 9.71003H9.96323V16.2613C10.1095 16.2574 10.2558 16.2262 10.4021 16.1677Z" />
</svg>