<!--character:62:550:415-->
  <svg width="24" height="24" viewBox="0 0 24 24" >
<path d="M11.9559 3C14.4386 3 16.8462 3.45141 19.1032 4.42947C19.7803 4.73041 20.2317 5.40752 20.307 6.08464V11.5768C20.2317 15.6395 17.6738 19.1755 13.912 20.5298L13.0844 20.8307C12.4073 21.0564 11.5797 21.0564 10.9026 20.8307L10.075 20.5298C6.23802 19.1755 3.68002 15.6395 3.68002 11.5768V6.08464C3.68002 5.40752 4.13143 4.73041 4.80855 4.42947C7.0656 3.45141 9.47313 3 11.9559 3ZM12.4825 19.4012C14.0551 18.8022 18.6838 17.0105 18.7268 11.652H11.9559V4.50469C9.69884 4.50469 7.44179 4.9561 5.41045 5.78368C5.25998 5.78368 5.18474 5.93415 5.18474 6.08462V11.5768C5.18474 11.602 5.18484 11.627 5.18503 11.6521L11.9559 11.652L11.9559 19.5136C12.1314 19.5089 12.307 19.4715 12.4825 19.4012Z" />
</svg>