<!--character:8324-->
  <svg width="20" height="20" viewBox="0 0 20 20" >
<path d="M9.9632 2.5C12.0322 2.5 14.0384 2.87618 15.9193 3.69122C16.4836 3.94201 16.8598 4.50627 16.9225 5.07053V9.64734C16.8598 13.0329 14.7281 15.9796 11.5933 17.1082L10.9036 17.3589C10.3394 17.547 9.64972 17.547 9.08546 17.3589L8.3958 17.1082C5.19831 15.9796 3.06665 13.0329 3.06665 9.64734V5.07053C3.06665 4.50627 3.44283 3.94201 4.00709 3.69122C5.88797 2.87618 7.89424 2.5 9.9632 2.5ZM10.4021 16.1677C11.7126 15.6685 15.5698 14.1754 15.6056 9.71003H9.9632L9.9632 3.75392C8.08232 3.75392 6.20145 4.13009 4.50866 4.81975C4.38327 4.81975 4.32057 4.94514 4.32057 5.07053V9.64734C4.32057 9.6683 4.32065 9.6892 4.32081 9.71003L9.9632 9.71003L9.9632 16.2613C10.1095 16.2574 10.2558 16.2262 10.4021 16.1677Z" />
</svg>