<!--character:8546-->
  <svg width="24" height="24" viewBox="0 0 24 24" >
<path d="M9.52332 4.25951C9.52332 5.40799 8.59229 6.33902 7.44381 6.33902C6.29532 6.33902 5.36429 5.40799 5.36429 4.25951C5.36429 3.11103 6.29532 2.18 7.44381 2.18C8.59229 2.18 9.52332 3.11103 9.52332 4.25951Z" />
<path d="M11.3533 11.413C12.1019 11.4962 12.5178 12.1617 12.4346 12.8271C12.4117 13.0106 12.3445 13.1815 12.2469 13.3292C12.6318 13.9081 12.8505 14.6031 12.8505 15.3225V16.7366C12.8505 17.2357 13.1833 17.5684 13.6823 17.5684H21.1686C21.6677 17.5684 22.0004 17.9011 22.0004 18.4002C22.0004 18.8993 21.6677 19.232 21.1686 19.232H13.6823C12.2683 19.232 11.1869 18.1507 11.1869 16.7366V15.3225C11.1869 14.7054 10.9008 14.0884 10.3286 13.7366C9.12069 13.5263 7.98927 12.9857 7.0279 12.1617C7.0279 12.0785 6.94472 12.0785 6.94472 12.0785C6.86154 12.0785 6.69518 12.1617 6.69518 12.2448L6.36246 13.4094C6.31105 13.4608 6.32319 13.4804 6.33996 13.5075C6.35032 13.5243 6.36246 13.544 6.36246 13.5757C8.27561 16.1543 8.60833 16.7366 9.44014 20.2302V20.3133C9.52332 20.9788 9.10742 21.7274 8.44197 21.8106C7.77653 21.8938 7.11108 21.4779 6.94472 20.8124C6.44564 18.4834 6.1961 17.8179 5.44747 16.6534L4.44931 20.8124C4.28295 21.4779 3.6175 21.8938 2.95206 21.7274C2.28662 21.5611 1.87071 20.8956 2.03707 20.2302L4.94839 8.5849C5.11475 8.08581 5.53065 7.66991 6.02974 7.66991C6.94472 7.50355 7.27744 8.16899 7.52699 8.66808C8.19243 9.99897 8.77469 10.9971 11.3533 11.413Z" />
<path d="M15.0964 21.7274C15.6936 21.7274 16.1778 21.2433 16.1778 20.6461C16.1778 20.0489 15.6936 19.5647 15.0964 19.5647C14.4992 19.5647 14.0151 20.0489 14.0151 20.6461C14.0151 21.2433 14.4992 21.7274 15.0964 21.7274Z" />
<path d="M20.5031 20.6461C20.5031 21.2433 20.019 21.7274 19.4218 21.7274C18.8246 21.7274 18.3405 21.2433 18.3405 20.6461C18.3405 20.0489 18.8246 19.5647 19.4218 19.5647C20.019 19.5647 20.5031 20.0489 20.5031 20.6461Z" />
<path d="M18.5068 16.9861H20.6695C21.0854 16.9861 21.5013 16.6534 21.5013 16.1543V11.413C21.5013 10.9971 21.1686 10.5812 20.6695 10.5812H20.42C20.2536 10.5812 20.1704 10.498 20.1704 10.3317V9.66624C20.1704 9.33352 19.9209 9.08398 19.5882 9.08398C19.2554 9.08398 19.0059 9.33352 19.0059 9.66624V10.3317C19.0059 10.498 18.9227 10.5812 18.7564 10.5812H18.5068C18.0909 10.5812 17.675 10.9139 17.675 11.413V16.1543C17.675 16.6534 18.0077 16.9861 18.5068 16.9861Z" />
<path d="M14.8469 16.9861H14.2646C13.7655 16.9861 13.4328 16.6534 13.4328 16.1543V11.413C13.4328 10.914 13.8487 10.5812 14.2646 10.5812H14.8469C15.0132 10.5812 15.0964 10.6644 15.0964 10.8308V16.7366C15.0964 16.9029 15.0132 16.9861 14.8469 16.9861Z" />
<path d="M15.845 16.9861H16.4273C16.8432 16.9861 17.2591 16.6534 17.2591 16.1543V11.413C17.2591 10.9971 16.9264 10.5812 16.4273 10.5812H15.845C15.6787 10.5812 15.5955 10.6644 15.5955 10.8308V16.7366C15.5955 16.9029 15.7619 16.9861 15.845 16.9861Z" />
</svg>