<!--character:1875-->
  <svg width="20" height="20" viewBox="0 0 20 20" >
<path d="M7.9361 3.54959C7.9361 4.50666 7.16024 5.28252 6.20317 5.28252C5.2461 5.28252 4.47024 4.50666 4.47024 3.54959C4.47024 2.59252 5.2461 1.81667 6.20317 1.81667C7.16024 1.81667 7.9361 2.59252 7.9361 3.54959Z" />
<path d="M9.46107 9.51086C10.0849 9.58018 10.4315 10.1347 10.3622 10.6893C10.3431 10.8422 10.2871 10.9846 10.2058 11.1077C10.5265 11.5901 10.7088 12.1693 10.7088 12.7688V13.9472C10.7088 14.3631 10.986 14.6403 11.402 14.6403H17.6405C18.0564 14.6403 18.3337 14.9176 18.3337 15.3335C18.3337 15.7494 18.0564 16.0267 17.6405 16.0267H11.402C10.2236 16.0267 9.32244 15.1255 9.32244 13.9472V12.7688C9.32244 12.2545 9.08401 11.7403 8.60716 11.4472C7.60058 11.2719 6.65772 10.8214 5.85659 10.1347C5.85659 10.0654 5.78727 10.0654 5.78727 10.0654C5.71795 10.0654 5.57932 10.1347 5.57932 10.204L5.30205 11.1745C5.25921 11.2173 5.26932 11.2337 5.2833 11.2563C5.29194 11.2703 5.30205 11.2866 5.30205 11.3131C6.89634 13.4619 7.17361 13.9472 7.86678 16.8585V16.9278C7.9361 17.4823 7.58951 18.1062 7.03498 18.1755C6.48044 18.2448 5.9259 17.8982 5.78727 17.3437C5.37137 15.4028 5.16342 14.8483 4.53956 13.8778L3.70776 17.3437C3.56912 17.8982 3.01459 18.2448 2.46005 18.1062C1.90551 17.9675 1.55893 17.413 1.69756 16.8585L4.12366 7.15408C4.26229 6.73818 4.60888 6.39159 5.02478 6.39159C5.78727 6.25296 6.06454 6.8075 6.27249 7.2234C6.82702 8.33247 7.31224 9.16428 9.46107 9.51086Z" />
<path d="M12.5803 18.1062C13.078 18.1062 13.4815 17.7027 13.4815 17.2051C13.4815 16.7074 13.078 16.3039 12.5803 16.3039C12.0827 16.3039 11.6792 16.7074 11.6792 17.2051C11.6792 17.7027 12.0827 18.1062 12.5803 18.1062Z" />
<path d="M17.086 17.2051C17.086 17.7027 16.6825 18.1062 16.1848 18.1062C15.6872 18.1062 15.2837 17.7027 15.2837 17.2051C15.2837 16.7074 15.6872 16.3039 16.1848 16.3039C16.6825 16.3039 17.086 16.7074 17.086 17.2051Z" />
<path d="M15.4223 14.1551H17.2246C17.5712 14.1551 17.9178 13.8778 17.9178 13.4619V9.51086C17.9178 9.16428 17.6405 8.81769 17.2246 8.81769H17.0166C16.878 8.81769 16.8087 8.74837 16.8087 8.60974V8.0552C16.8087 7.77793 16.6007 7.56998 16.3235 7.56998C16.0462 7.56998 15.8382 7.77793 15.8382 8.0552V8.60974C15.8382 8.74837 15.7689 8.81769 15.6303 8.81769H15.4223C15.0758 8.81769 14.7292 9.09496 14.7292 9.51086V13.4619C14.7292 13.8778 15.0064 14.1551 15.4223 14.1551Z" />
<path d="M12.3724 14.1551H11.8872C11.4713 14.1551 11.194 13.8778 11.194 13.4619V9.51086C11.194 9.09496 11.5406 8.81769 11.8872 8.81769H12.3724C12.511 8.81769 12.5803 8.88701 12.5803 9.02564V13.9472C12.5803 14.0858 12.511 14.1551 12.3724 14.1551Z" />
<path d="M13.2042 14.1551H13.6894C14.036 14.1551 14.3826 13.8778 14.3826 13.4619V9.51086C14.3826 9.16428 14.1053 8.81769 13.6894 8.81769H13.2042C13.0656 8.81769 12.9962 8.88701 12.9962 9.02564V13.9472C12.9962 14.0858 13.1349 14.1551 13.2042 14.1551Z" />
</svg>