<!--description:Use when passengers need to transfer between locations on their own-->
<!--category:transportation-->
<!--character:E020-->
<!--added:0.11-->
<svg width="24" height="24" viewBox="0 0 24 24" xmlns="http://www.w3.org/2000/svg"><path d="M12.2465 13.3292a3.6105 3.6105 0 0 1 .6036 1.9933v1.414c0 .4992.3328.8319.8319.8319h7.4862c.499 0 .8318.3327.8318.8318 0 .499-.3327.8318-.8318.8318H13.682c-1.4141 0-2.4955-1.0813-2.4955-2.4954v-1.414c0-.6172-.286-1.2342-.8583-1.586-1.2079-.2103-2.3393-.751-3.3007-1.575 0-.0831-.0832-.0831-.0832-.0831-.0831 0-.2495.0832-.2495.1663l-.3327 1.1646c-.0832.0831 0 .0831 0 .1663 1.9131 2.5786 2.2458 3.1609 3.0776 6.6545v.0831c.0832.6655-.3327 1.4141-.9981 1.4973-.6655.0832-1.331-.3327-1.4973-.9982-.499-2.329-.7486-2.9945-1.4972-4.159l-.9982 4.159c-.1663.6655-.8318 1.0814-1.4972.915-.6655-.1663-1.0814-.8318-.915-1.4972L4.948 8.5849c.1664-.499.5823-.915 1.0813-.915.915-.1663 1.2478.499 1.4973.9982.6654 1.3309 1.2477 2.329 3.8263 2.745.7486.0831 1.1645.7486 1.0813 1.414a1.1776 1.1776 0 0 1-.1877.5021zM7.4435 6.339c-1.1486 0-2.0796-.931-2.0796-2.0795 0-1.1485.931-2.0795 2.0795-2.0795 1.1485 0 2.0795.931 2.0795 2.0795 0 1.1485-.931 2.0795-2.0795 2.0795zm7.6525 15.3884c-.5972 0-1.0813-.4841-1.0813-1.0813s.4841-1.0814 1.0813-1.0814 1.0814.4842 1.0814 1.0814-.4842 1.0813-1.0814 1.0813zm4.3254 0c-.5972 0-1.0813-.4841-1.0813-1.0813s.484-1.0814 1.0813-1.0814c.5972 0 1.0814.4842 1.0814 1.0814s-.4842 1.0813-1.0814 1.0813zm-.915-4.7413c-.499 0-.8318-.3327-.8318-.8318V11.413c0-.499.416-.8318.8318-.8318h.2496c.1663 0 .2495-.0832.2495-.2495v-.6655c0-.3327.2495-.5822.5823-.5822.3327 0 .5822.2495.5822.5822v.6655c0 .1663.0832.2495.2496.2495h.2495c.4991 0 .8318.416.8318.8318v4.7413c0 .4991-.4159.8318-.8318.8318h-2.1627zm-4.2422 0c-.499 0-.8318-.3327-.8318-.8318V11.413c0-.499.416-.8318.8318-.8318h.5823c.1663 0 .2495.0832.2495.2496v5.9058c0 .1663-.0832.2495-.2495.2495h-.5823zm1.5804 0c-.0831 0-.2495-.0832-.2495-.2495v-5.9058c0-.1664.0832-.2496.2495-.2496h.5823c.499 0 .8318.416.8318.8318v4.7413c0 .4991-.4159.8318-.8318.8318h-.5823z"/></svg>