<!--character:26:472:410-->
  <svg width="24" height="24" viewBox="0 0 24 24" >
<path   d="M9.52292 4.25944C9.52292 5.40793 8.5919 6.33896 7.44341 6.33896C6.29493 6.33896 5.3639 5.40793 5.3639 4.25944C5.3639 3.11096 6.29493 2.17993 7.44341 2.17993C8.5919 2.17993 9.52292 3.11096 9.52292 4.25944ZM11.3529 11.413C12.1015 11.4961 12.5174 12.1616 12.4342 12.827C12.4113 13.0106 12.3441 13.1814 12.2465 13.3292C12.6314 13.908 12.8502 14.6031 12.8502 15.3224V16.7365C12.8502 17.2356 13.1829 17.5683 13.682 17.5683H21.1682C21.6673 17.5683 22 17.901 22 18.4001C22 18.8992 21.6673 19.2319 21.1682 19.2319H13.682C12.2679 19.2319 11.1865 18.1506 11.1865 16.7365V15.3224C11.1865 14.7054 10.9004 14.0883 10.3283 13.7365C9.12034 13.5262 7.98889 12.9856 7.02751 12.1616C7.02751 12.0784 6.94433 12.0784 6.94433 12.0784C6.86115 12.0784 6.69479 12.1616 6.69479 12.2448L6.36207 13.4093C6.31066 13.4607 6.3228 13.4803 6.33957 13.5075C6.34993 13.5243 6.36207 13.5439 6.36207 13.5757C8.27522 16.1543 8.60794 16.7365 9.43975 20.2301V20.3133C9.52293 20.9787 9.10702 21.7274 8.44158 21.8105C7.77614 21.8937 7.11069 21.4778 6.94433 20.8124C6.44525 18.4833 6.19571 17.8179 5.44708 16.6533L4.44892 20.8124C4.28256 21.4778 3.61711 21.8937 2.95167 21.7274C2.28623 21.561 1.87032 20.8955 2.03668 20.2301L4.948 8.58483C5.11436 8.08575 5.53026 7.66985 6.02935 7.66985C6.94433 7.50348 7.27705 8.16893 7.5266 8.66801C8.19204 9.9989 8.7743 10.9971 11.3529 11.413ZM15.096 21.7274C15.6932 21.7274 16.1774 21.2432 16.1774 20.646C16.1774 20.0488 15.6932 19.5647 15.096 19.5647C14.4988 19.5647 14.0147 20.0488 14.0147 20.646C14.0147 21.2432 14.4988 21.7274 15.096 21.7274ZM20.5028 20.646C20.5028 21.2432 20.0186 21.7274 19.4214 21.7274C18.8242 21.7274 18.3401 21.2432 18.3401 20.646C18.3401 20.0488 18.8242 19.5647 19.4214 19.5647C20.0186 19.5647 20.5028 20.0488 20.5028 20.646ZM18.5064 16.9861H20.6691C21.085 16.9861 21.5009 16.6534 21.5009 16.1543V11.413C21.5009 10.9971 21.1682 10.5812 20.6691 10.5812H20.4196C20.2532 10.5812 20.17 10.498 20.17 10.3316V9.66619C20.17 9.33347 19.9205 9.08393 19.5878 9.08393C19.255 9.08393 19.0055 9.33347 19.0055 9.66619V10.3316C19.0055 10.498 18.9223 10.5812 18.7559 10.5812H18.5064C18.0905 10.5812 17.6746 10.9139 17.6746 11.413V16.1543C17.6746 16.6534 18.0073 16.9861 18.5064 16.9861ZM14.8465 16.986H14.2642C13.7651 16.986 13.4324 16.6533 13.4324 16.1542V11.4129C13.4324 10.9139 13.8483 10.5811 14.2642 10.5811H14.8465C15.0128 10.5811 15.096 10.6643 15.096 10.8307V16.7365C15.096 16.9029 15.0128 16.986 14.8465 16.986ZM15.8446 16.986H16.4269C16.8428 16.986 17.2587 16.6533 17.2587 16.1542V11.4129C17.2587 10.997 16.926 10.5811 16.4269 10.5811H15.8446C15.6783 10.5811 15.5951 10.6643 15.5951 10.8307V16.7365C15.5951 16.9029 15.7615 16.986 15.8446 16.986Z" />
</svg>