<!-- character:0:1187 -->
  <svg width="20" height="20" viewBox="0 0 20 20" >
<path   d="M7.93573 3.54958C7.93573 4.50665 7.15987 5.2825 6.20281 5.2825C5.24574 5.2825 4.46988 4.50665 4.46988 3.54958C4.46988 2.59251 5.24574 1.81665 6.20281 1.81665C7.15987 1.81665 7.93573 2.59251 7.93573 3.54958ZM9.46071 9.51085C10.0846 9.58016 10.4311 10.1347 10.3618 10.6892C10.3427 10.8422 10.2867 10.9846 10.2054 11.1077C10.5261 11.59 10.7084 12.1693 10.7084 12.7687V13.9471C10.7084 14.363 10.9857 14.6403 11.4016 14.6403H17.6401C18.056 14.6403 18.3333 14.9176 18.3333 15.3335C18.3333 15.7494 18.056 16.0267 17.6401 16.0267H11.4016C10.2232 16.0267 9.32207 15.1255 9.32207 13.9471V12.7687C9.32207 12.2545 9.08365 11.7403 8.60679 11.4472C7.60021 11.2719 6.65735 10.8214 5.85622 10.1347C5.85622 10.0654 5.7869 10.0654 5.7869 10.0654C5.71759 10.0654 5.57895 10.1347 5.57895 10.204L5.30168 11.1745C5.25884 11.2173 5.26896 11.2337 5.28293 11.2563C5.29157 11.2702 5.30168 11.2866 5.30168 11.3131C6.89598 13.4619 7.17324 13.9471 7.86642 16.8585V16.9278C7.93573 17.4823 7.58915 18.1062 7.03461 18.1755C6.48007 18.2448 5.92554 17.8982 5.7869 17.3437C5.371 15.4028 5.16305 14.8483 4.5392 13.8778L3.70739 17.3437C3.56876 17.8982 3.01422 18.2448 2.45968 18.1062C1.90515 17.9675 1.55856 17.413 1.6972 16.8585L4.12329 7.15407C4.26193 6.73816 4.60851 6.39158 5.02442 6.39158C5.7869 6.25294 6.06417 6.80748 6.27212 7.22338C6.82666 8.33246 7.31188 9.16426 9.46071 9.51085ZM12.58 18.1062C13.0777 18.1062 13.4811 17.7027 13.4811 17.205C13.4811 16.7074 13.0777 16.3039 12.58 16.3039C12.0823 16.3039 11.6789 16.7074 11.6789 17.205C11.6789 17.7027 12.0823 18.1062 12.58 18.1062ZM17.0856 17.205C17.0856 17.7027 16.6821 18.1062 16.1845 18.1062C15.6868 18.1062 15.2833 17.7027 15.2833 17.205C15.2833 16.7074 15.6868 16.3039 16.1845 16.3039C16.6821 16.3039 17.0856 16.7074 17.0856 17.205ZM15.422 14.1551H17.2242C17.5708 14.1551 17.9174 13.8778 17.9174 13.4619V9.51085C17.9174 9.16426 17.6401 8.81767 17.2242 8.81767H17.0163C16.8776 8.81767 16.8083 8.74836 16.8083 8.60972V8.05519C16.8083 7.77792 16.6004 7.56997 16.3231 7.56997C16.0458 7.56997 15.8379 7.77792 15.8379 8.05519V8.60972C15.8379 8.74836 15.7686 8.81767 15.6299 8.81767H15.422C15.0754 8.81767 14.7288 9.09494 14.7288 9.51085V13.4619C14.7288 13.8778 15.0061 14.1551 15.422 14.1551ZM12.372 14.1551H11.8868C11.4709 14.1551 11.1936 13.8778 11.1936 13.4619V9.51085C11.1936 9.09494 11.5402 8.81768 11.8868 8.81768H12.372C12.5107 8.81768 12.58 8.88699 12.58 9.02563V13.9471C12.58 14.0858 12.5107 14.1551 12.372 14.1551ZM13.2038 14.1551H13.689C14.0356 14.1551 14.3822 13.8778 14.3822 13.4619V9.51085C14.3822 9.16426 14.1049 8.81768 13.689 8.81768H13.2038C13.0652 8.81768 12.9959 8.88699 12.9959 9.02563V13.9471C12.9959 14.0858 13.1345 14.1551 13.2038 14.1551Z" />
</svg>