<!--character:7441-->
  <svg width="24" height="24" viewBox="0 0 24 24" >
<path d="M19.8633 3.58712C19.7562 3.49769 19.6083 3.47515 19.4794 3.52862L2.23064 10.6531C2.08961 10.7119 1.99837 10.8504 2.00002 11.0032C2.00167 11.156 2.09587 11.2925 2.23814 11.3483L6.98679 13.1924C7.10346 13.2379 7.23513 13.2221 7.33777 13.1504L13.6373 8.67025C13.7973 8.55457 14.0196 8.58277 14.1456 8.73473C14.2717 8.88669 14.2583 9.11035 14.115 9.2462L8.86541 14.3046C8.79208 14.3753 8.75066 14.4727 8.75066 14.5746V19.6239C8.75115 19.7929 8.86458 19.9407 9.02767 19.9848C9.19075 20.0289 9.36322 19.9586 9.44886 19.8129L11.8239 15.7445C11.8755 15.6567 11.9874 15.6258 12.0767 15.6747L16.4459 18.0746C16.5496 18.1317 16.6743 18.1365 16.7821 18.0875C16.8899 18.0384 16.9682 17.9413 16.9933 17.8256L19.9931 3.95159C20.0193 3.81555 19.9697 3.67598 19.8633 3.58712Z" />
</svg>