<!--character:532-->
  <svg width="24" height="24" viewBox="0 0 24 24" >
<path d="M2.58293 5.90316C2.08297 4.07902 3.93333 2.3757 5.74348 3.21488H5.74465L20.1728 9.91214C21.943 10.7334 21.943 13.2651 20.1728 14.0864L5.74465 20.7848H5.74348C3.87593 21.6508 1.96257 19.8092 2.63801 17.9207L4.7509 11.9969L2.63801 6.08011L2.58293 5.90316ZM4.52239 18.5946H4.52122C4.47446 18.7253 4.51063 18.8387 4.59973 18.9215C4.6452 18.9637 4.69584 18.988 4.74153 18.9965C4.78179 19.004 4.83356 19.0025 4.90208 18.9707L17.7634 13H6.51692L4.52239 18.5946ZM4.74153 5.00433C4.69581 5.01289 4.64522 5.03703 4.59973 5.07933C4.53303 5.14139 4.49566 5.22015 4.50129 5.31136L4.52239 5.40628L6.51926 10.9996H17.7657L4.90208 5.02894C4.83365 4.9973 4.78171 4.99689 4.74153 5.00433Z" />
</svg>