<!--description:Use for send button for chat-->
<!--category:basic-->
<!--character:004d-->
<!--added:0.11-->
<svg width="24" height="24" viewBox="0 0 24 24" xmlns="http://www.w3.org/2000/svg"><path d="M19.8634 3.5871a.375.375 0 0 0-.384-.0585L2.2306 10.6531a.375.375 0 0 0 .0075.6952l4.7487 1.8441a.375.375 0 0 0 .351-.042l6.2995-4.4802a.375.375 0 0 1 .4777.576l-5.2496 5.0584a.375.375 0 0 0-.1147.27v5.0493a.375.375 0 0 0 .6982.189l2.375-4.0684a.1882.1882 0 0 1 .2528-.0698l4.3692 2.3999a.375.375 0 0 0 .5474-.249l2.9998-13.874a.381.381 0 0 0-.1297-.3645z"/></svg>
