<!--character:6145-->
  <svg width="24" height="24" viewBox="0 0 24 24" >
<path d="M19.8637 3.58712C19.7566 3.49768 19.6087 3.47515 19.4798 3.52862L2.23103 10.6531C2.09 10.7119 1.99876 10.8504 2.00041 11.0032C2.00206 11.156 2.09626 11.2925 2.23853 11.3483L6.98719 13.1924C7.10385 13.2379 7.23552 13.2221 7.33816 13.1504L13.6377 8.67024C13.7977 8.55457 14.02 8.58277 14.146 8.73473C14.2721 8.88669 14.2587 9.11035 14.1154 9.2462L8.8658 14.3046C8.79247 14.3753 8.75105 14.4727 8.75106 14.5746V19.6239C8.75155 19.7929 8.86497 19.9407 9.02806 19.9848C9.19114 20.0289 9.36361 19.9586 9.44925 19.8129L11.8243 15.7445C11.8759 15.6567 11.9878 15.6258 12.0771 15.6747L16.4462 18.0746C16.55 18.1317 16.6746 18.1365 16.7825 18.0875C16.8903 18.0384 16.9686 17.9413 16.9937 17.8256L19.9935 3.95159C20.0197 3.81554 19.97 3.67598 19.8637 3.58712Z" />
</svg>