<!-- character:0:550 -->
  <svg width="20" height="20" viewBox="0 0 20 20" >
<path d="M16.5528 2.98926C16.4635 2.91473 16.3402 2.89595 16.2328 2.94051L1.85883 8.87757C1.7413 8.92659 1.66527 9.04202 1.66664 9.16935C1.66802 9.29668 1.74652 9.41044 1.86508 9.45691L5.82229 10.9937C5.91951 11.0316 6.02923 11.0184 6.11477 10.9587L11.3644 7.2252C11.4977 7.1288 11.6829 7.1523 11.788 7.27893C11.893 7.40557 11.8819 7.59195 11.7625 7.70516L7.3878 11.9205C7.3267 11.9794 7.29218 12.0606 7.29218 12.1455V16.3533C7.29259 16.4941 7.38711 16.6172 7.52301 16.654C7.65892 16.6908 7.80264 16.6321 7.87401 16.5108L9.85324 13.1204C9.8962 13.0473 9.98948 13.0215 10.0639 13.0623L13.7048 15.0621C13.7913 15.1098 13.8952 15.1138 13.985 15.0729C14.0749 15.032 14.1401 14.9511 14.1611 14.8546L16.6609 3.29298C16.6827 3.17961 16.6413 3.06331 16.5528 2.98926Z" />
</svg>