<!--character:4084-->
  <svg width="20" height="20" viewBox="0 0 20 20" >
<path d="M16.5531 2.98926C16.4638 2.91474 16.3406 2.89596 16.2331 2.94052L1.8592 8.87758C1.74167 8.9266 1.66564 9.04202 1.66701 9.16936C1.66838 9.29669 1.74689 9.41045 1.86544 9.45691L5.82265 10.9937C5.91988 11.0316 6.0296 11.0184 6.11513 10.9587L11.3647 7.2252C11.4981 7.12881 11.6833 7.15231 11.7883 7.27894C11.8934 7.40557 11.8822 7.59196 11.7628 7.70517L7.38816 11.9205C7.32706 11.9794 7.29254 12.0606 7.29255 12.1455V16.3533C7.29295 16.4941 7.38747 16.6172 7.52338 16.654C7.65929 16.6908 7.80301 16.6321 7.87438 16.5108L9.85361 13.1204C9.89656 13.0473 9.98985 13.0215 10.0642 13.0623L13.7052 15.0621C13.7917 15.1098 13.8955 15.1138 13.9854 15.0729C14.0752 15.032 14.1405 14.9511 14.1614 14.8546L16.6612 3.29299C16.6831 3.17962 16.6417 3.06331 16.5531 2.98926Z" />
</svg>