<!--character:9851-->
  <svg width="24" height="24" viewBox="0 0 24 24" >
<path d="M11.9998 16.1667C9.69897 16.1667 7.83314 14.3017 7.83314 12C7.83314 9.69916 9.69897 7.83333 11.9998 7.83333C14.3015 7.83333 16.1665 9.69916 16.1665 12C16.164 14.3 14.2998 16.1642 11.9998 16.1667ZM20.7498 9.91666H19.1981C19.044 9.38333 18.8306 8.86916 18.5623 8.38333L19.6598 7.28666C20.1481 6.79833 20.1481 6.0075 19.6598 5.51916L18.4806 4.34083C17.9923 3.85333 17.2015 3.85333 16.7131 4.34083L15.6148 5.43833C15.1298 5.17 14.6165 4.95666 14.0831 4.8025V3.25C14.0831 2.55916 13.5231 2 12.8331 2H11.1665C10.4756 2 9.91647 2.55916 9.91647 3.25V4.8025C9.38314 4.95666 8.86981 5.17 8.38397 5.43833L7.28564 4.34083C6.79731 3.85333 6.00647 3.85333 5.51814 4.34083L4.33897 5.51916C3.85064 6.0075 3.85064 6.79833 4.33814 7.28666L5.4373 8.385C5.16897 8.87 4.95564 9.38416 4.80147 9.91666H3.2498C2.55897 9.91666 1.9998 10.4758 1.9998 11.1667V12.8333C1.9998 13.5233 2.55897 14.0833 3.2498 14.0833H4.80147C4.9548 14.6167 5.16897 15.1308 5.4373 15.6158L4.33814 16.715C3.8498 17.2033 3.8498 17.9942 4.33814 18.4825L5.51647 19.6608C6.0123 20.13 6.78897 20.13 7.2848 19.6608L8.38314 18.5633C8.86897 18.8317 9.38314 19.045 9.91647 19.2V20.75C9.91647 21.44 10.4756 22 11.1665 22H12.8331C13.5231 22 14.0831 21.44 14.0831 20.75V19.2C14.6165 19.0458 15.1298 18.8325 15.6156 18.5642L16.714 19.6617C17.2023 20.1492 17.9931 20.1492 18.4815 19.6617L19.6598 18.4833C20.1473 17.995 20.1473 17.2042 19.6598 16.7158L18.5623 15.6183C18.8306 15.1325 19.044 14.6183 19.1981 14.085H20.7498C21.4398 14.085 21.9998 13.525 21.9998 12.835V11.1667C21.9998 10.4758 21.4398 9.91666 20.7498 9.91666Z" />
</svg>