<!--character:59:550:673-->
  <svg width="24" height="24" viewBox="0 0 24 24" >
<path d="M12 16.1666C9.69918 16.1666 7.83334 14.3016 7.83334 12C7.83334 9.69915 9.69918 7.83331 12 7.83331C14.3017 7.83331 16.1667 9.69915 16.1667 12C16.1642 14.3 14.3 16.1641 12 16.1666ZM20.75 9.91667H19.1983C19.0442 9.38333 18.8308 8.86917 18.5625 8.38333L19.66 7.28667C20.1483 6.79833 20.1483 6.0075 19.66 5.51917L18.4808 4.34083C17.9925 3.85333 17.2017 3.85333 16.7133 4.34083L15.615 5.43833C15.13 5.17 14.6167 4.95667 14.0833 4.8025V3.25C14.0833 2.55917 13.5233 2 12.8333 2H11.1667C10.4758 2 9.91667 2.55917 9.91667 3.25V4.8025C9.38333 4.95667 8.87 5.17 8.38417 5.43833L7.28583 4.34083C6.7975 3.85333 6.00667 3.85333 5.51833 4.34083L4.33917 5.51917C3.85083 6.0075 3.85083 6.79833 4.33833 7.28667L5.4375 8.385C5.16917 8.87 4.95583 9.38417 4.80167 9.91667H3.25C2.55917 9.91667 2 10.4758 2 11.1667V12.8333C2 13.5233 2.55917 14.0833 3.25 14.0833H4.80167C4.955 14.6167 5.16917 15.1308 5.4375 15.6158L4.33833 16.715C3.85 17.2033 3.85 17.9942 4.33833 18.4825L5.51667 19.6608C6.0125 20.13 6.78917 20.13 7.285 19.6608L8.38333 18.5633C8.86917 18.8317 9.38333 19.045 9.91667 19.2V20.75C9.91667 21.44 10.4758 22 11.1667 22H12.8333C13.5233 22 14.0833 21.44 14.0833 20.75V19.2C14.6167 19.0458 15.13 18.8325 15.6158 18.5642L16.7142 19.6617C17.2025 20.1492 17.9933 20.1492 18.4817 19.6617L19.66 18.4833C20.1475 17.995 20.1475 17.2042 19.66 16.7158L18.5625 15.6183C18.8308 15.1325 19.0442 14.6183 19.1983 14.085H20.75C21.44 14.085 22 13.525 22 12.835V11.1667C22 10.4758 21.44 9.91667 20.75 9.91667Z" />
</svg>