<!-- character:0:286 -->
  <svg width="20" height="20" viewBox="0 0 20 20" >
<path   d="M10 13.4723C8.08266 13.4723 6.5278 11.9181 6.5278 10.0001C6.5278 8.08272 8.08266 6.52786 10 6.52786C11.9181 6.52786 13.4722 8.08272 13.4722 10.0001C13.4702 11.9167 11.9167 13.4702 10 13.4723ZM17.2917 8.26397H15.9986C15.8702 7.81953 15.6924 7.39105 15.4688 6.98619L16.3834 6.0723C16.7903 5.66536 16.7903 5.00633 16.3834 4.59939V4.59869L15.4007 3.61744C14.9938 3.21119 14.3347 3.21119 13.9278 3.61744L13.0125 4.53203C12.6084 4.30841 12.1806 4.13064 11.7361 4.00216V2.70841C11.7361 2.13272 11.2695 1.66675 10.6945 1.66675H9.30558C8.72988 1.66675 8.26391 2.13272 8.26391 2.70841V4.00216C7.81947 4.13064 7.39169 4.30841 6.98683 4.53203L6.07155 3.61744C5.6646 3.21119 5.00558 3.21119 4.59863 3.61744L3.61599 4.59939C3.20905 5.00633 3.20905 5.66536 3.6153 6.0723L3.61599 6.073L4.53127 6.98758C4.30766 7.39175 4.12988 7.82022 4.00141 8.26397H2.70835C2.13266 8.26397 1.66669 8.72994 1.66669 9.30564V10.6945C1.66669 11.2695 2.13266 11.7362 2.70835 11.7362H4.00141C4.12919 12.1806 4.30766 12.6091 4.53127 13.0133L3.6153 13.9292C3.20835 14.3362 3.20835 14.9952 3.6153 15.4022L4.59724 16.3841C5.01044 16.7751 5.65766 16.7751 6.07085 16.3841L6.98613 15.4695C7.39099 15.6931 7.81947 15.8709 8.26391 16.0001V17.2917C8.26391 17.8667 8.72988 18.3334 9.30558 18.3334H10.6945C11.2695 18.3334 11.7361 17.8667 11.7361 17.2917V16.0001C12.1806 15.8716 12.6084 15.6938 13.0132 15.4702L13.9285 16.3848C14.3354 16.7911 14.9945 16.7911 15.4014 16.3848L16.3834 15.4029C16.7896 14.9959 16.7896 14.3369 16.3834 13.9299L15.4688 13.0154C15.6924 12.6105 15.8702 12.182 15.9986 11.7376H17.2917C17.8667 11.7376 18.3334 11.2709 18.3334 10.6959V10.6945V9.30564C18.3334 8.72994 17.8667 8.26397 17.2917 8.26397Z" />
</svg>