<!--character:1223-->
  <svg width="20" height="20" viewBox="0 0 20 20" >
<path d="M9.99984 13.4722C8.08248 13.4722 6.52761 11.9181 6.52761 10C6.52761 8.08264 8.08248 6.52777 9.99984 6.52777C11.9179 6.52777 13.4721 8.08264 13.4721 10C13.47 11.9167 11.9165 13.4701 9.99984 13.4722ZM17.2915 8.26389H15.9984C15.87 7.81944 15.6922 7.39097 15.4686 6.98611L16.3832 6.07222C16.7901 5.66528 16.7901 5.00625 16.3832 4.5993L15.4005 3.61736C14.9936 3.21111 14.3346 3.21111 13.9276 3.61736L13.0123 4.53194C12.6082 4.30833 12.1804 4.13055 11.7359 4.00208V2.70833C11.7359 2.13264 11.2693 1.66666 10.6943 1.66666H9.30539C8.7297 1.66666 8.26373 2.13264 8.26373 2.70833V4.00208C7.81928 4.13055 7.3915 4.30833 6.98664 4.53194L6.07137 3.61736C5.66442 3.21111 5.00539 3.21111 4.59845 3.61736L3.61581 4.5993C3.20887 5.00625 3.20887 5.66528 3.61512 6.07222L4.53109 6.9875C4.30748 7.39166 4.1297 7.82014 4.00123 8.26389H2.70817C2.13248 8.26389 1.6665 8.72986 1.6665 9.30555V10.6944C1.6665 11.2694 2.13248 11.7361 2.70817 11.7361H4.00123C4.129 12.1806 4.30748 12.609 4.53109 13.0132L3.61512 13.9292C3.20817 14.3361 3.20817 14.9951 3.61512 15.4021L4.59706 16.384C5.01025 16.775 5.65748 16.775 6.07067 16.384L6.98595 15.4694C7.39081 15.6931 7.81928 15.8708 8.26373 16V17.2917C8.26373 17.8667 8.7297 18.3333 9.30539 18.3333H10.6943C11.2693 18.3333 11.7359 17.8667 11.7359 17.2917V16C12.1804 15.8715 12.6082 15.6937 13.013 15.4701L13.9283 16.3847C14.3353 16.791 14.9943 16.791 15.4012 16.3847L16.3832 15.4028C16.7894 14.9958 16.7894 14.3368 16.3832 13.9299L15.4686 13.0153C15.6922 12.6104 15.87 12.1819 15.9984 11.7375H17.2915C17.8665 11.7375 18.3332 11.2708 18.3332 10.6958V9.30555C18.3332 8.72986 17.8665 8.26389 17.2915 8.26389Z" />
</svg>