<!--character:6162-->
  <svg width="20" height="20" viewBox="0 0 20 20" >
<path d="M15.4166 12.5C14.4798 12.5 13.6537 12.9519 13.1197 13.6407L7.47758 10.6373C7.48329 10.5632 7.49993 10.4922 7.49993 10.4167C7.49993 10.2765 7.47774 10.1423 7.45852 10.0074L13.2401 6.5053C13.775 7.11026 14.5476 7.50006 15.4165 7.50006C17.0246 7.50006 18.3332 6.19147 18.3332 4.58339C18.3332 2.97531 17.0246 1.66672 15.4165 1.66672C13.8085 1.66672 12.4999 2.97527 12.4999 4.58335C12.4999 4.72354 12.5221 4.85776 12.5413 4.99268L6.75974 8.49476C6.22485 7.8898 5.4522 7.5 4.5833 7.5C2.97522 7.5 1.66663 8.80859 1.66663 10.4167C1.66663 12.0247 2.97522 13.3333 4.5833 13.3333C5.52013 13.3333 6.34618 12.8814 6.8802 12.1927L12.5223 15.196C12.5166 15.2701 12.5 15.3411 12.5 15.4166C12.5 17.0247 13.8085 18.3333 15.4166 18.3333C17.0247 18.3333 18.3333 17.0247 18.3333 15.4166C18.3333 13.8086 17.0247 12.5 15.4166 12.5Z" />
</svg>