<!-- character:0:2609 -->
  <svg width="20" height="20" viewBox="0 0 20 20" >
<path d="M10.3412 1.70087C9.99337 1.8748 9.73247 2.22267 9.73247 2.57054V5.26654C9.73247 5.3535 9.6455 5.44047 9.6455 5.44047C6.25377 6.57105 3.90564 8.5713 3.29687 11.0934C2.6881 13.4415 3.64474 15.9635 5.81893 18.1377C6.07983 18.3986 6.51467 18.3986 6.68861 18.1377C6.94951 17.8768 6.94951 17.442 6.68861 17.2681C5.645 16.2245 5.21016 15.0069 5.55803 13.7894C5.99287 12.3109 7.47131 11.0064 9.47157 10.3976C9.55854 10.3976 9.6455 10.3976 9.6455 10.4846C9.6455 10.4846 9.6455 10.4846 9.6455 10.5716V12.8327C9.6455 13.3545 10.0803 13.7894 10.6021 13.7894C10.863 13.7894 11.124 13.7024 11.2979 13.5285L16.6899 8.13647C16.9508 7.87556 16.9508 7.44073 16.6899 7.26679L11.2979 1.8748C11.124 1.70087 10.7761 1.6139 10.3412 1.70087Z" />
</svg>