<!--description:Use for every share action-->
<!--category:social-->
<!--character:E016-->
<svg width="24" height="24" viewBox="0 0 24 24" xmlns="http://www.w3.org/2000/svg"><path d="M12.4095 2.041c-.4175.2087-.7305.6261-.7305 1.0436v3.2351c0 .1044-.1044.2088-.1044.2088-4.07 1.3567-6.8878 3.757-7.6184 6.7834-.7305 2.8178.4175 5.8443 3.0265 8.4533.3131.313.8349.313 1.0436 0 .3131-.3131.3131-.8349 0-1.0436-1.2523-1.2524-1.7741-2.7134-1.3567-4.1745.5218-1.7741 2.296-3.3395 4.6963-4.07.1043 0 .2087 0 .2087.1043v2.8178c0 .6261.5218 1.148 1.148 1.148.313 0 .6261-.1044.8349-.3132l6.4704-6.4703c.313-.3131.313-.835 0-1.0436l-6.4704-6.4704c-.2088-.2088-.6262-.3131-1.148-.2088z"/></svg>