<!--character:2691-->
  <svg width="20" height="20" viewBox="0 0 20 20" >
<path d="M10.3412 1.70078C9.99334 1.87472 9.73244 2.22259 9.73244 2.57046V5.26645C9.73244 5.35342 9.64547 5.44039 9.64547 5.44039C6.25374 6.57097 3.90561 8.57122 3.29684 11.0933C2.68807 13.4414 3.64471 15.9635 5.8189 18.1377C6.0798 18.3986 6.51464 18.3986 6.68858 18.1377C6.94948 17.8768 6.94948 17.4419 6.68858 17.268C5.64497 16.2244 5.21013 15.0068 5.558 13.7893C5.99284 12.3108 7.47128 11.0063 9.47154 10.3975C9.55851 10.3975 9.64547 10.3975 9.64547 10.4845C9.64547 10.4845 9.64547 10.4845 9.64547 10.5715V12.8326C9.64547 13.3544 10.0803 13.7893 10.6021 13.7893C10.863 13.7893 11.1239 13.7023 11.2979 13.5284L16.6898 8.13638C16.9507 7.87548 16.9507 7.44064 16.6898 7.26671L11.2979 1.87472C11.1239 1.70078 10.7761 1.61381 10.3412 1.70078Z" />
</svg>