<!--character:35:550:1-->
  <svg width="24" height="24" viewBox="0 0 24 24" >
<path   d="M11.9931 12.417C11.3028 12.417 10.7431 11.8574 10.7431 11.167V6.79216C10.7431 6.67711 10.6499 6.58384 10.5348 6.58384H9.07653C8.73812 6.58648 8.43171 6.3842 8.30118 6.07196C8.17066 5.75971 8.24194 5.39954 8.48155 5.16055L11.3981 2.24398C11.7235 1.91867 12.251 1.91867 12.5764 2.24398L15.493 5.16055C15.7305 5.39812 15.8021 5.75507 15.6747 6.06589C15.5472 6.3767 15.2456 6.58059 14.9097 6.58301H13.4514C13.3363 6.58301 13.2431 6.67628 13.2431 6.79133V11.167C13.2431 11.8574 12.6834 12.417 11.9931 12.417ZM17.4096 7.83379C18.33 7.83379 19.0762 8.57995 19.0762 9.5004V20.3334C19.0762 21.2538 18.33 22 17.4096 22H6.57662C5.65618 22 4.91001 21.2538 4.91001 20.3334V9.5004C4.91001 8.57995 5.65618 7.83379 6.57662 7.83379H9.2832C9.33859 7.83334 9.39188 7.85498 9.43129 7.89392C9.4707 7.93285 9.49297 7.98588 9.49319 8.04128V9.29124C9.49341 9.34663 9.47156 9.39984 9.43247 9.43909C9.39338 9.47833 9.34026 9.5004 9.28486 9.5004H6.99327C6.76316 9.5004 6.57662 9.68694 6.57662 9.91705V19.9167C6.57662 20.1468 6.76316 20.3334 6.99327 20.3334H16.9929C17.2231 20.3334 17.4096 20.1468 17.4096 19.9167V9.91705C17.4096 9.68694 17.2231 9.5004 16.9929 9.5004H14.7014C14.5863 9.5004 14.493 9.40713 14.493 9.29207V8.04211C14.493 7.92706 14.5863 7.83379 14.7014 7.83379H17.4096Z" />
</svg>