<!--character:$550:9-->
  <svg width="24" height="24" viewBox="0 0 24 24" >
<path d="M18.5812 15.0375C17.443 15.0375 16.4393 15.5866 15.7905 16.4234L8.93531 12.7743C8.94223 12.6843 8.96245 12.598 8.96245 12.5063C8.96245 12.336 8.93549 12.1729 8.91214 12.0089L15.9368 7.7539C16.5867 8.48893 17.5255 8.96255 18.5812 8.96255C20.535 8.96255 22.125 7.3726 22.125 5.41877C22.125 3.46494 20.535 1.875 18.5812 1.875C16.6274 1.875 15.0375 3.4649 15.0375 5.41873C15.0375 5.58906 15.0644 5.75214 15.0878 5.91607L8.06311 10.1711C7.41323 9.43608 6.47445 8.96247 5.41873 8.96247C3.4649 8.96247 1.87495 10.5524 1.87495 12.5062C1.87495 14.4601 3.4649 16.05 5.41873 16.05C6.55698 16.05 7.56064 15.5009 8.20948 14.6641L15.0647 18.3132C15.0577 18.4032 15.0375 18.4895 15.0375 18.5812C15.0375 20.5351 16.6275 22.125 18.5813 22.125C20.5351 22.125 22.1251 20.5351 22.1251 18.5812C22.125 16.6274 20.5351 15.0375 18.5812 15.0375Z" />
</svg>