<!--character:8388-->
  <svg width="24" height="24" viewBox="0 0 24 24" >
<path   d="M15.7437 16.3688C16.3845 15.5423 17.3758 15 18.5 15C20.4297 15 22 16.5703 22 18.5C22 20.4296 20.4297 22 18.5 22C16.5703 22 15 20.4296 15 18.5C15 18.4453 15.0073 18.3927 15.0145 18.34C15.0193 18.3053 15.0241 18.2706 15.0268 18.2353L8.25632 14.6312C7.61549 15.4577 6.62423 16 5.50003 16C3.57033 16 2.00002 14.4297 2.00002 12.5C2.00002 10.5703 3.57033 8.99999 5.50003 8.99999C6.54271 8.99999 7.4699 9.46776 8.11176 10.1937L15.0497 5.99122C15.0469 5.97219 15.0442 5.95317 15.0414 5.93415C15.0207 5.79135 15 5.64848 15 5.50002C15 3.57032 16.5702 2.00006 18.4999 2.00006C20.4296 2.00006 21.9999 3.57037 21.9999 5.50007C21.9999 7.42976 20.4296 9.00007 18.4999 9.00007C17.4572 9.00007 16.5301 8.53231 15.8882 7.80636L8.9503 12.0088C8.95301 12.0279 8.95577 12.0469 8.95853 12.0659C8.97925 12.2087 8.99999 12.3516 8.99999 12.5C8.99999 12.5547 8.99273 12.6073 8.98546 12.66C8.98068 12.6947 8.97589 12.7294 8.97318 12.7647L15.7437 16.3688ZM20.0818 5.48767C20.0818 6.36798 19.3681 7.0816 18.4878 7.0816C17.6075 7.0816 16.8939 6.36798 16.8939 5.48767C16.8939 4.60737 17.6075 3.89374 18.4878 3.89374C19.3681 3.89374 20.0818 4.60737 20.0818 5.48767ZM7.09724 12.5121C7.09724 13.3924 6.38361 14.106 5.50331 14.106C4.623 14.106 3.90938 13.3924 3.90938 12.5121C3.90938 11.6318 4.623 10.9182 5.50331 10.9182C6.38361 10.9182 7.09724 11.6318 7.09724 12.5121ZM18.4878 20.0817C19.3681 20.0817 20.0818 19.368 20.0818 18.4877C20.0818 17.6074 19.3681 16.8938 18.4878 16.8938C17.6075 16.8938 16.8939 17.6074 16.8939 18.4877C16.8939 19.368 17.6075 20.0817 18.4878 20.0817Z" />
</svg>