<!--character:9200-->
  <svg width="24" height="24" viewBox="0 0 24 24" >
<path d="M12.4095 2.04094C11.992 2.24966 11.6789 2.6671 11.6789 3.08455V6.31974C11.6789 6.4241 11.5746 6.52847 11.5746 6.52847C7.50449 7.88516 4.68674 10.2855 3.95621 13.3119C3.22568 16.1297 4.37365 19.1562 6.98268 21.7652C7.29576 22.0783 7.81757 22.0783 8.02629 21.7652C8.33937 21.4521 8.33937 20.9303 8.02629 20.7216C6.77396 19.4692 6.25215 18.0082 6.6696 16.5471C7.1914 14.773 8.96554 13.2076 11.3658 12.477C11.4702 12.477 11.5746 12.477 11.5746 12.5814C11.5746 12.5814 11.5746 12.5814 11.5746 12.6858V15.3992C11.5746 16.0253 12.0964 16.5471 12.7225 16.5471C13.0356 16.5471 13.3487 16.4428 13.5574 16.234L20.0278 9.76366C20.3409 9.45058 20.3409 8.92877 20.0278 8.72005L13.5574 2.24966C13.3487 2.04094 12.9313 1.93658 12.4095 2.04094Z" />
</svg>