<!--character:2134-->
  <svg width="24" height="24" viewBox="0 0 24 24" >
<path d="M12.4095 2.04094C11.992 2.24966 11.679 2.66711 11.679 3.08455V6.31975C11.679 6.42411 11.5746 6.52847 11.5746 6.52847C7.50452 7.88516 4.68677 10.2855 3.95624 13.3119C3.22571 16.1297 4.37369 19.1562 6.98271 21.7652C7.2958 22.0783 7.8176 22.0783 8.02632 21.7652C8.33941 21.4521 8.33941 20.9303 8.02632 20.7216C6.77399 19.4692 6.25219 18.0082 6.66963 16.5471C7.19144 14.773 8.96557 13.2076 11.3659 12.4771C11.4702 12.4771 11.5746 12.477 11.5746 12.5814C11.5746 12.5814 11.5746 12.5814 11.5746 12.6858V15.3992C11.5746 16.0253 12.0964 16.5471 12.7226 16.5471C13.0357 16.5471 13.3487 16.4428 13.5575 16.234L20.0278 9.76366C20.3409 9.45058 20.3409 8.92877 20.0278 8.72005L13.5575 2.24966C13.3487 2.04094 12.9313 1.93658 12.4095 2.04094Z" />
</svg>