<!--character:3024:2835-->
<svg width="24" height="24" viewBox="0 0 24 24">
  <path d="M18.4999 15C17.3757 15 16.3844 15.5423 15.7436 16.3688L8.9731 12.7647C8.97995 12.6758 8.99991 12.5907 8.99991 12.5C8.99991 12.3318 8.97329 12.1708 8.95023 12.0088L15.8881 7.80636C16.53 8.53231 17.4572 9.00007 18.4999 9.00007C20.4295 9.00007 21.9999 7.42976 21.9999 5.50007C21.9999 3.57037 20.4295 2.00006 18.4999 2.00006C16.5702 2.00006 14.9999 3.57032 14.9999 5.50002C14.9999 5.66825 15.0265 5.82931 15.0496 5.99122L8.11168 10.1937C7.46983 9.46776 6.54264 8.99999 5.49996 8.99999C3.57026 8.99999 1.99995 10.5703 1.99995 12.5C1.99995 14.4297 3.57026 16 5.49996 16C6.62416 16 7.61542 15.4577 8.25625 14.6312L15.0268 18.2353C15.0199 18.3242 14.9999 18.4093 14.9999 18.5C14.9999 20.4296 16.5703 22 18.4999 22C20.4296 22 22 20.4296 22 18.5C21.9999 16.5703 20.4296 15 18.4999 15Z" />
</svg>
