<!--character:9226-->
  <svg width="20" height="20" viewBox="0 0 20 20" >
<path d="M9.99426 10.3475C9.41898 10.3475 8.95263 9.88113 8.95263 9.30585V5.66014C8.95263 5.56426 8.8749 5.48653 8.77902 5.48653H7.56378C7.28177 5.48873 7.02643 5.32016 6.91766 5.05996C6.80889 4.79976 6.86829 4.49962 7.06797 4.30046L9.49844 1.86998C9.76961 1.59889 10.2092 1.59889 10.4804 1.86998L12.9108 4.30046C13.1088 4.49843 13.1685 4.79589 13.0622 5.0549C12.956 5.31392 12.7047 5.48382 12.4247 5.48584H11.2095C11.1136 5.48584 11.0359 5.56356 11.0359 5.65944V9.30585C11.0359 9.88113 10.5695 10.3475 9.99426 10.3475Z" />
<path d="M14.508 6.52816C15.275 6.52816 15.8968 7.14997 15.8968 7.91701V16.9445C15.8968 17.7115 15.275 18.3333 14.508 18.3333H5.48052C4.71348 18.3333 4.09167 17.7115 4.09167 16.9445V7.91701C4.09167 7.14997 4.71348 6.52816 5.48052 6.52816H7.736C7.78216 6.52779 7.82657 6.54582 7.85941 6.57827C7.89225 6.61072 7.91081 6.65491 7.91099 6.70107V7.74271C7.91118 7.78887 7.89297 7.8332 7.86039 7.86591C7.82781 7.89862 7.78355 7.91701 7.73739 7.91701H5.82773C5.63597 7.91701 5.48052 8.07246 5.48052 8.26422V16.5973C5.48052 16.789 5.63597 16.9445 5.82773 16.9445H14.1608C14.3525 16.9445 14.508 16.789 14.508 16.5973V8.26422C14.508 8.07246 14.3525 7.91701 14.1608 7.91701H12.2511C12.1552 7.91701 12.0775 7.83928 12.0775 7.7434V6.70177C12.0775 6.60589 12.1552 6.52816 12.2511 6.52816H14.508Z" />
</svg>