<!--character:6041-->
  <svg width="24" height="24" viewBox="0 0 24 24" >
<path d="M11.9931 12.417C11.3028 12.417 10.7432 11.8574 10.7432 11.167V6.79216C10.7432 6.67711 10.6499 6.58384 10.5348 6.58384H9.07654C8.73813 6.58648 8.43172 6.38419 8.30119 6.07195C8.17067 5.75971 8.24194 5.39954 8.48156 5.16055L11.3981 2.24398C11.7235 1.91867 12.251 1.91867 12.5764 2.24398L15.493 5.16055C15.7305 5.39812 15.8021 5.75507 15.6747 6.06589C15.5472 6.3767 15.2456 6.58059 14.9097 6.583H13.4514C13.3363 6.583 13.2431 6.67627 13.2431 6.79133V11.167C13.2431 11.8574 12.6834 12.417 11.9931 12.417Z" />
<path d="M17.4096 7.83379C18.33 7.83379 19.0762 8.57996 19.0762 9.50041V20.3334C19.0762 21.2538 18.33 22 17.4096 22H6.57662C5.65618 22 4.91001 21.2538 4.91001 20.3334V9.50041C4.91001 8.57996 5.65618 7.83379 6.57662 7.83379H9.2832C9.3386 7.83335 9.39189 7.85499 9.43129 7.89393C9.4707 7.93286 9.49297 7.98589 9.49319 8.04129V9.29125C9.49341 9.34664 9.47156 9.39985 9.43247 9.43909C9.39338 9.47834 9.34026 9.50041 9.28487 9.50041H6.99327C6.76316 9.50041 6.57662 9.68695 6.57662 9.91706V19.9167C6.57662 20.1468 6.76316 20.3334 6.99327 20.3334H16.9929C17.2231 20.3334 17.4096 20.1468 17.4096 19.9167V9.91706C17.4096 9.68695 17.2231 9.50041 16.9929 9.50041H14.7014C14.5863 9.50041 14.493 9.40714 14.493 9.29208V8.04212C14.493 7.92707 14.5863 7.83379 14.7014 7.83379H17.4096Z" />
</svg>