<!--description:Share version only for iOS devices-->
<!--category:social-->
<!--character:E163-->
<!--added:0.11.0-->
<svg width="24" height="24" viewBox="0 0 24 24" xmlns="http://www.w3.org/2000/svg"><path d="M19.0762 9.5004v10.833c0 .9204-.7462 1.6666-1.6666 1.6666H6.5766c-.9204 0-1.6666-.7462-1.6666-1.6666V9.5004c0-.9204.7462-1.6666 1.6666-1.6666h2.7066a.2084.2084 0 0 1 .21.2075v1.25a.2083.2083 0 0 1-.2083.2091H6.9933a.4167.4167 0 0 0-.4167.4167v9.9996c0 .2301.1866.4167.4167.4167h9.9996a.4167.4167 0 0 0 .4167-.4167V9.9171a.4167.4167 0 0 0-.4167-.4167h-2.2916a.2083.2083 0 0 1-.2083-.2083v-1.25c0-.115.0933-.2083.2083-.2083h2.7083c.9204 0 1.6666.7462 1.6666 1.6666zm-8.333 1.6666V6.7922a.2083.2083 0 0 0-.2084-.2084H9.0765a.8333.8333 0 0 1-.595-1.4232l2.9166-2.9166a.8333.8333 0 0 1 1.1783 0l2.9166 2.9166a.8333.8333 0 0 1-.5833 1.4224h-1.4583a.2083.2083 0 0 0-.2083.2083v4.3757c0 .6904-.5597 1.25-1.25 1.25s-1.25-.5596-1.25-1.25z"/></svg>
