<!-- character:0:2617 -->
  <svg width="20" height="20" viewBox="0 0 20 20" >
<path   d="M9.99425 10.3476C9.41897 10.3476 8.95262 9.88121 8.95262 9.30593V5.66022C8.95262 5.56434 8.87489 5.48661 8.77901 5.48661H7.56378C7.28176 5.48882 7.02643 5.32025 6.91765 5.06004C6.80888 4.79984 6.86828 4.4997 7.06796 4.30054L9.49843 1.87007C9.76961 1.59898 10.2092 1.59898 10.4803 1.87007L12.9108 4.30054C13.1087 4.49851 13.1684 4.79598 13.0622 5.05499C12.956 5.314 12.7047 5.48391 12.4247 5.48592H11.2095C11.1136 5.48592 11.0359 5.56365 11.0359 5.65952V9.30593C11.0359 9.88121 10.5695 10.3476 9.99425 10.3476ZM14.508 6.52825C15.275 6.52825 15.8968 7.15005 15.8968 7.91709V16.9446C15.8968 17.7116 15.275 18.3334 14.508 18.3334H5.48051C4.71347 18.3334 4.09167 17.7116 4.09167 16.9446V7.91709C4.09167 7.15005 4.71347 6.52825 5.48051 6.52825H7.73599C7.78216 6.52788 7.82656 6.54591 7.8594 6.57836C7.89224 6.6108 7.9108 6.65499 7.91099 6.70116V7.74279C7.91117 7.78895 7.89296 7.83329 7.86038 7.866C7.82781 7.8987 7.78354 7.91709 7.73738 7.91709H5.82772C5.63596 7.91709 5.48051 8.07254 5.48051 8.2643V16.5974C5.48051 16.7891 5.63596 16.9446 5.82772 16.9446H14.1608C14.3525 16.9446 14.508 16.7891 14.508 16.5974V8.2643C14.508 8.07254 14.3525 7.91709 14.1608 7.91709H12.2511C12.1552 7.91709 12.0775 7.83936 12.0775 7.74348V6.70185C12.0775 6.60597 12.1552 6.52825 12.2511 6.52825H14.508Z" />
</svg>