<!-- character:0:2613 -->
  <svg width="20" height="20" viewBox="0 0 20 20" >
<path d="M15.4166 12.5C14.4798 12.5 13.6537 12.9519 13.1197 13.6407L7.47763 10.6373C7.48333 10.5632 7.49997 10.4922 7.49997 10.4167C7.49997 10.2765 7.47779 10.1423 7.45857 10.0074L13.2402 6.50533C13.775 7.11029 14.5477 7.50009 15.4166 7.50009C17.0247 7.50009 18.3333 6.1915 18.3333 4.58342C18.3333 2.97534 17.0247 1.66675 15.4166 1.66675C13.8085 1.66675 12.5 2.9753 12.5 4.58338C12.5 4.72357 12.5221 4.85779 12.5414 4.99271L6.75978 8.49479C6.2249 7.88983 5.45225 7.50003 4.58334 7.50003C2.97526 7.50003 1.66667 8.80862 1.66667 10.4167C1.66667 12.0248 2.97526 13.3334 4.58334 13.3334C5.52018 13.3334 6.34623 12.8815 6.88025 12.1927L12.5223 15.1961C12.5166 15.2702 12.5 15.3411 12.5 15.4167C12.5 17.0247 13.8086 18.3333 15.4167 18.3333C17.0248 18.3333 18.3333 17.0247 18.3333 15.4167C18.3333 13.8086 17.0247 12.5 15.4166 12.5Z" />
</svg>