<!--character:9305-->
  <svg width="24" height="24" viewBox="0 0 24 24" >
<path d="M15.7437 16.3688L8.97318 12.7647C8.97589 12.7294 8.98068 12.6947 8.98546 12.66C8.99273 12.6073 8.99999 12.5547 8.99999 12.5C8.99999 12.3516 8.97925 12.2087 8.95853 12.0659C8.95577 12.0469 8.95301 12.0279 8.9503 12.0088L15.8882 7.80636C16.5301 8.53231 17.4572 9.00007 18.4999 9.00007C20.4296 9.00007 21.9999 7.42976 21.9999 5.50007C21.9999 3.57037 20.4296 2.00006 18.4999 2.00006C16.5702 2.00006 15 3.57032 15 5.50002C15 5.64848 15.0207 5.79135 15.0414 5.93415C15.0442 5.95317 15.0469 5.97219 15.0497 5.99122L8.11176 10.1937C7.4699 9.46776 6.54271 8.99999 5.50003 8.99999C3.57033 8.99999 2.00002 10.5703 2.00002 12.5C2.00002 14.4297 3.57033 16 5.50003 16C6.62423 16 7.61549 15.4577 8.25632 14.6312L15.0268 18.2353C15.0241 18.2706 15.0193 18.3053 15.0145 18.34C15.0073 18.3927 15 18.4453 15 18.5C15 20.4296 16.5703 22 18.5 22C20.4297 22 22 20.4296 22 18.5C22 16.5703 20.4297 15 18.5 15C17.3758 15 16.3845 15.5423 15.7437 16.3688ZM20.0818 5.48767C20.0818 6.36798 19.3681 7.0816 18.4878 7.0816C17.6075 7.0816 16.8939 6.36798 16.8939 5.48767C16.8939 4.60737 17.6075 3.89374 18.4878 3.89374C19.3681 3.89374 20.0818 4.60737 20.0818 5.48767ZM7.09724 12.5121C7.09724 13.3924 6.38361 14.106 5.50331 14.106C4.623 14.106 3.90938 13.3924 3.90938 12.5121C3.90938 11.6318 4.623 10.9182 5.50331 10.9182C6.38361 10.9182 7.09724 11.6318 7.09724 12.5121ZM18.4878 20.0817C17.6075 20.0817 16.8939 19.368 16.8939 18.4877C16.8939 17.6074 17.6075 16.8938 18.4878 16.8938C19.3681 16.8938 20.0818 17.6074 20.0818 18.4877C20.0818 19.368 19.3681 20.0817 18.4878 20.0817Z" />
</svg>