<!--description:Share version only for Android devices-->
<!--category:social-->
<!--character:E068-->
<!--added:0.11.0-->
<svg width="24" height="24" viewBox="0 0 24 24" xmlns="http://www.w3.org/2000/svg"><path d="M17.8357 13.6674a4.1434 4.1434 0 0 0-2.9867 1.275l-4.575-2.289a4.1248 4.1248 0 0 0 .0658-.6525 4.114 4.114 0 0 0-.0658-.6524l4.575-2.289c1.3873 1.4264 3.5903 1.6695 5.255.5798 1.6646-1.0896 2.3244-3.2064 1.5737-5.0495-.7507-1.843-2.7014-2.8957-4.6532-2.511-1.9517.3848-3.3574 2.099-3.3532 4.0893.0046.2192.0266.4376.0658.6533l-4.575 2.2873A4.163 4.163 0 0 0 4.606 8.137C3.031 8.7728 2 10.3016 2 12.0005c0 1.699 1.0311 3.2277 2.6059 3.8635a4.163 4.163 0 0 0 4.5563-.9717l4.575 2.2881a4.114 4.114 0 0 0-.0659.6533c0 2.301 1.8645 4.1663 4.1644 4.1663C20.1356 22 22 20.1347 22 17.8337c0-2.301-1.8644-4.1663-4.1643-4.1663z"/></svg>