<!--character:225-->
  <svg width="24" height="24" viewBox="0 0 24 24" >
<path d="M19.7615 7.77282H4.23846V10.4822C4.23833 12.7259 5.03254 14.8974 6.4807 16.6111C7.89611 18.286 9.84708 19.4155 12 19.8151C14.1529 19.4155 16.1039 18.286 17.5193 16.6111C18.9674 14.8974 19.7617 12.7259 19.7615 10.4822V7.77282ZM14.2773 9.70297C14.6283 9.35226 15.1972 9.35237 15.5482 9.70297C15.8992 10.054 15.8992 10.6238 15.5482 10.9748L13.2708 13.2512L15.5482 15.5295C15.8992 15.8805 15.8992 16.4493 15.5482 16.8003C15.1971 17.1512 14.6283 17.1513 14.2773 16.8003L12 14.523L9.72264 16.8003C9.37166 17.1513 8.80284 17.1512 8.45181 16.8003C8.10079 16.4493 8.10079 15.8805 8.45181 15.5295L10.7282 13.2512L8.45181 10.9748C8.10079 10.6238 8.10079 10.054 8.45181 9.70297C8.80279 9.35237 9.37172 9.35226 9.72264 9.70297L12 11.9803L14.2773 9.70297ZM19.7615 4.56403C19.7615 4.49615 19.7354 4.43061 19.6874 4.38262C19.6394 4.33462 19.5739 4.30849 19.506 4.30849H4.494C4.42612 4.30849 4.36058 4.33462 4.31259 4.38262C4.26459 4.43061 4.23846 4.49615 4.23846 4.56403V5.97433H19.7615V4.56403ZM21.56 10.4822C21.5602 13.1508 20.6149 15.7336 18.8925 17.7718C17.1701 19.8099 14.7813 21.1726 12.1502 21.6174C12.051 21.6342 11.949 21.6342 11.8498 21.6174C9.21866 21.1726 6.8299 19.8099 5.10747 17.7718C3.38505 15.7336 2.43983 13.1508 2.43999 10.4822V4.56403C2.43999 4.01937 2.65663 3.49691 3.04176 3.11178C3.42688 2.72665 3.94934 2.51001 4.494 2.51001H19.506C20.0506 2.51001 20.5731 2.72665 20.9582 3.11178C21.3434 3.49691 21.56 4.01937 21.56 4.56403V10.4822Z" />
</svg>