<!--character:217-->
  <svg width="24" height="24" viewBox="0 0 24 24" >
<path d="M4.49453 4.30851H19.5055C19.5731 4.30851 19.6378 4.33534 19.6856 4.38311C19.7334 4.43087 19.7602 4.49565 19.7602 4.5632V5.97258H4.23984V4.5632C4.23984 4.49565 4.26668 4.43087 4.31444 4.38311C4.3622 4.33534 4.42699 4.30851 4.49453 4.30851ZM21.5602 4.5632C21.5602 4.01826 21.3437 3.49564 20.9584 3.11031C20.5731 2.72498 20.0505 2.50851 19.5055 2.50851H4.49453C3.9496 2.50851 3.42698 2.72498 3.04165 3.11031C2.65632 3.49564 2.43984 4.01826 2.43984 4.5632V10.4813C2.43969 13.15 3.3847 15.7326 5.10727 17.7708C6.82984 19.8091 9.21865 21.1715 11.85 21.6163C11.9493 21.6331 12.0507 21.6331 12.15 21.6163C14.7814 21.1715 17.1702 19.8091 18.8928 17.7708C20.6154 15.7326 21.5604 13.1501 21.5602 10.4814V4.5632ZM19.7602 7.77258V10.4814C19.7603 12.7247 18.966 14.8956 17.518 16.609C16.1028 18.2836 14.1526 19.4154 12 19.8149C9.84741 19.4154 7.89727 18.2836 6.48207 16.609C5.03408 14.8956 4.23971 12.7247 4.23984 10.4814V7.77258H19.7602ZM15.9423 9.69947C16.2937 10.0509 16.2937 10.6208 15.9423 10.9723L11.732 15.1826C11.5949 15.3197 11.4317 15.4289 11.2527 15.5032C11.0734 15.5775 10.8812 15.6158 10.6871 15.6158C10.493 15.6158 10.3008 15.5775 10.1216 15.5032C9.94256 15.429 9.77992 15.3203 9.64291 15.1832M9.64291 15.1832L8.31887 13.8599C7.96729 13.5086 7.96713 12.9387 8.3185 12.5871C8.66987 12.2356 9.23971 12.2354 9.59129 12.5868L10.687 13.6819L14.6695 9.69947C15.021 9.34799 15.5908 9.34799 15.9423 9.69947" />
</svg>