<!--character:2614-->
  <svg width="20" height="20" viewBox="0 0 20 20" >
<path d="M16.3693 7.65218H16.9443V7.65079C17.7113 7.65079 18.3332 8.27262 18.3332 9.03968C18.3332 9.80674 17.7113 10.4286 16.9443 10.4286H3.05539C2.28833 10.4286 1.6665 9.80674 1.6665 9.03968C1.6665 8.27262 2.28833 7.65079 3.05539 7.65079H3.63039C3.64136 7.65101 3.65143 7.64475 3.65609 7.63482L5.73942 3.12093C5.86943 2.83933 6.13978 2.64849 6.44866 2.62028C6.75753 2.59207 7.05798 2.73078 7.23685 2.98417C7.41572 3.23755 7.44581 3.56711 7.31581 3.84871L5.67553 7.40565C5.65065 7.45942 5.6549 7.52217 5.68682 7.57209C5.71874 7.62201 5.77392 7.65221 5.83317 7.65218H14.1665C14.226 7.65268 14.2816 7.62268 14.3139 7.57268C14.3461 7.52268 14.3505 7.45965 14.3255 7.40565L12.6839 3.84871C12.4957 3.41579 12.688 2.9119 13.1167 2.71436C13.5454 2.51681 14.0534 2.69804 14.2603 3.12232L16.3436 7.63621C16.3482 7.64614 16.3583 7.65239 16.3693 7.65218Z" />
<path d="M16.5971 11.4716H3.40262C3.29834 11.4716 3.19957 11.5184 3.13361 11.5992C3.06765 11.68 3.04148 11.7861 3.06234 11.8883L3.95192 16.3327C4.21873 17.0326 4.92682 17.4617 5.67067 17.3744H14.329C15.0729 17.4617 15.7809 17.0326 16.0478 16.3327L16.9373 11.8883C16.9582 11.7861 16.932 11.68 16.8661 11.5992C16.8001 11.5184 16.7013 11.4716 16.5971 11.4716ZM6.80123 12.6925C6.9381 12.6723 7.07736 12.7077 7.18798 12.7908C7.29859 12.8739 7.37138 12.9977 7.39011 13.1348L7.73734 15.5654C7.75695 15.702 7.72141 15.8408 7.63855 15.9511C7.55568 16.0615 7.43232 16.1343 7.29567 16.1536C7.27133 16.1574 7.24671 16.1593 7.22206 16.1591C6.96301 16.1586 6.74374 15.9677 6.70748 15.7112L6.36025 13.2807C6.34063 13.1442 6.37608 13.0055 6.4588 12.8951C6.54151 12.7848 6.66471 12.7119 6.80123 12.6925ZM9.479 13.2077C9.479 12.9201 9.71219 12.6869 9.99984 12.6869C10.2875 12.6869 10.5207 12.9201 10.5207 13.2077V15.6383C10.5207 15.9259 10.2875 16.1591 9.99984 16.1591C9.71219 16.1591 9.479 15.9259 9.479 15.6383V13.2077ZM13.6401 13.2813L13.2929 15.7119C13.2566 15.9684 13.0374 16.1593 12.7783 16.1598C12.7534 16.16 12.7286 16.1582 12.704 16.1543C12.5674 16.135 12.444 16.0622 12.3611 15.9518C12.2783 15.8415 12.2427 15.7027 12.2623 15.5661L12.6096 13.1355C12.65 12.8509 12.9135 12.653 13.1981 12.6935C13.4827 12.734 13.6806 12.9968 13.6401 13.2813Z" />
</svg>