<!--character:3024:2896-->
<svg width="24" height="24" viewBox="0 0 24 24">
  <path d="M19.6431 9.18261H20.3331V9.18095C21.2536 9.18095 21.9998 9.92714 21.9998 10.8476C21.9998 11.7681 21.2536 12.5143 20.3331 12.5143H3.66647C2.746 12.5143 1.9998 11.7681 1.9998 10.8476C1.9998 9.92714 2.746 9.18095 3.66647 9.18095H4.35647C4.36963 9.18121 4.38171 9.1737 4.3873 9.16178L6.8873 3.74511C7.04331 3.4072 7.36774 3.17818 7.73839 3.14433C8.10903 3.11048 8.46958 3.27694 8.68422 3.581C8.89886 3.88506 8.93498 4.28053 8.77897 4.61845L6.81064 8.88678C6.78078 8.95131 6.78588 9.02661 6.82419 9.08651C6.86249 9.14642 6.9287 9.18265 6.99981 9.18261H16.9998C17.0712 9.18322 17.1379 9.14722 17.1766 9.08722C17.2153 9.02722 17.2206 8.95158 17.1906 8.88678L15.2206 4.61845C14.9949 4.09895 15.2256 3.49428 15.7401 3.25723C16.2545 3.02018 16.8641 3.23764 17.1123 3.74678L19.6123 9.16345C19.6179 9.17536 19.63 9.18287 19.6431 9.18261Z" />
  <path d="M19.9165 13.7659H4.08314C3.958 13.7659 3.83948 13.8221 3.76033 13.9191C3.68118 14.016 3.64978 14.1433 3.6748 14.2659L4.7423 19.5993C5.06247 20.4391 5.91219 20.954 6.80481 20.8493H17.1948C18.0874 20.954 18.9371 20.4391 19.2573 19.5993L20.3248 14.2659C20.3498 14.1433 20.3184 14.016 20.2393 13.9191C20.1601 13.8221 20.0416 13.7659 19.9165 13.7659ZM8.16147 15.2309C8.32572 15.2067 8.49283 15.2492 8.62557 15.3489C8.75831 15.4486 8.84566 15.5973 8.86814 15.7618L9.2848 18.6784C9.30834 18.8424 9.26569 19.0089 9.16625 19.1413C9.06682 19.2738 8.91878 19.3612 8.7548 19.3843C8.72559 19.3889 8.69605 19.3911 8.66647 19.3909C8.35561 19.3903 8.09249 19.1612 8.04897 18.8534L7.6323 15.9368C7.60875 15.773 7.65129 15.6066 7.75055 15.4742C7.84981 15.3418 7.99765 15.2543 8.16147 15.2309ZM11.3748 15.8493C11.3748 15.5041 11.6546 15.2243 11.9998 15.2243C12.345 15.2243 12.6248 15.5041 12.6248 15.8493V18.7659C12.6248 19.1111 12.345 19.3909 11.9998 19.3909C11.6546 19.3909 11.3748 19.1111 11.3748 18.7659V15.8493ZM16.3681 15.9376L15.9515 18.8543C15.908 19.1621 15.6448 19.3911 15.334 19.3918C15.3041 19.392 15.2743 19.3898 15.2448 19.3851C15.0808 19.362 14.9328 19.2746 14.8334 19.1422C14.7339 19.0097 14.6913 18.8432 14.7148 18.6793L15.1315 15.7626C15.18 15.4211 15.4962 15.1836 15.8377 15.2322C16.1792 15.2808 16.4167 15.5961 16.3681 15.9376Z" />
</svg>
