<!--character:87:550:532-->
  <svg width="24" height="24" viewBox="0 0 24 24" >
<path   d="M19.6433 9.18263H20.3333V9.18096C21.2538 9.18096 22 9.92715 22 10.8476C22 11.7681 21.2538 12.5143 20.3333 12.5143H3.66667C2.74619 12.5143 2 11.7681 2 10.8476C2 9.92715 2.74619 9.18096 3.66667 9.18096H4.35667C4.36983 9.18122 4.38191 9.17371 4.3875 9.16179L6.8875 3.74513C7.04351 3.40721 7.36794 3.1782 7.73858 3.14434C8.10923 3.11049 8.46978 3.27695 8.68441 3.58101C8.89905 3.88507 8.93517 4.28055 8.77917 4.61846L6.81083 8.88679C6.78097 8.95132 6.78608 9.02662 6.82438 9.08653C6.86269 9.14643 6.9289 9.18266 7 9.18263H17C17.0714 9.18323 17.1381 9.14723 17.1768 9.08723C17.2155 9.02723 17.2208 8.95159 17.1908 8.88679L15.2208 4.61846C14.9951 4.09896 15.2258 3.49429 15.7403 3.25724C16.2547 3.02019 16.8643 3.23766 17.1125 3.74679L19.6125 9.16346C19.6181 9.17538 19.6302 9.18289 19.6433 9.18263ZM19.9167 13.766H4.08335C3.95821 13.7659 3.83969 13.8222 3.76054 13.9191C3.68139 14.016 3.64998 14.1434 3.67501 14.266L4.74251 19.5993C5.06268 20.4391 5.91239 20.9541 6.80501 20.8493H17.195C18.0876 20.9541 18.9373 20.4391 19.2575 19.5993L20.325 14.266C20.35 14.1434 20.3186 14.016 20.2395 13.9191C20.1603 13.8222 20.0418 13.7659 19.9167 13.766ZM8.16168 15.2309C8.32593 15.2067 8.49304 15.2492 8.62578 15.3489C8.75853 15.4486 8.84587 15.5973 8.86835 15.7618L9.28502 18.6784C9.30856 18.8424 9.2659 19.0089 9.16647 19.1413C9.06703 19.2738 8.91899 19.3612 8.75502 19.3843C8.7258 19.3889 8.69626 19.3911 8.66668 19.3909C8.35582 19.3903 8.0927 19.1612 8.04918 18.8534L7.63252 15.9368C7.60897 15.773 7.65151 15.6066 7.75077 15.4742C7.85003 15.3418 7.99786 15.2543 8.16168 15.2309ZM11.375 15.8493V18.7659C11.375 19.1111 11.6548 19.3909 12 19.3909C12.3452 19.3909 12.625 19.1111 12.625 18.7659V15.8493C12.625 15.5041 12.3452 15.2243 12 15.2243C11.6548 15.2243 11.375 15.5041 11.375 15.8493ZM16.3684 15.9376L15.9517 18.8543C15.9082 19.1621 15.645 19.3911 15.3342 19.3918C15.3043 19.392 15.2745 19.3898 15.245 19.3851C15.081 19.362 14.933 19.2746 14.8336 19.1422C14.7341 19.0098 14.6915 18.8432 14.715 18.6793L15.1317 15.7626C15.1802 15.4211 15.4964 15.1837 15.8379 15.2322C16.1794 15.2808 16.4169 15.597 16.3684 15.9385V15.9376Z" />
</svg>