<!-- character:0:1989 -->
  <svg width="20" height="20" viewBox="0 0 20 20" >
<path   d="M16.3695 7.65221H16.9445V7.65082C17.7115 7.65082 18.3334 8.27265 18.3334 9.03971C18.3334 9.80677 17.7115 10.4286 16.9445 10.4286H3.05558C2.28851 10.4286 1.66669 9.80677 1.66669 9.03971C1.66669 8.27265 2.28851 7.65082 3.05558 7.65082H3.63058C3.64154 7.65104 3.65161 7.64478 3.65627 7.63485L5.7396 3.12096C5.86961 2.83936 6.13997 2.64852 6.44884 2.62031C6.75771 2.5921 7.05817 2.73081 7.23703 2.9842C7.4159 3.23758 7.446 3.56714 7.31599 3.84874L5.67571 7.40568C5.65083 7.45945 5.65509 7.52221 5.68701 7.57212C5.71893 7.62204 5.7741 7.65224 5.83335 7.65221H14.1667C14.2262 7.65271 14.2818 7.62271 14.3141 7.57271C14.3463 7.52271 14.3507 7.45968 14.3257 7.40568L12.684 3.84874C12.4959 3.41582 12.6882 2.91193 13.1169 2.71439C13.5456 2.51684 14.0536 2.69807 14.2604 3.12235L16.3438 7.63624C16.3484 7.64617 16.3585 7.65242 16.3695 7.65221ZM16.5972 11.4717H3.4028C3.29852 11.4716 3.19975 11.5185 3.13379 11.5992C3.06783 11.68 3.04166 11.7861 3.06252 11.8883L3.9521 16.3328C4.21891 17.0326 4.927 17.4617 5.67085 17.3744H14.3292C15.073 17.4617 15.7811 17.0326 16.0479 16.3328L16.9375 11.8883C16.9584 11.7861 16.9322 11.68 16.8662 11.5992C16.8003 11.5185 16.7015 11.4716 16.5972 11.4717ZM6.80141 12.6925C6.93828 12.6723 7.07754 12.7077 7.18816 12.7908C7.29878 12.8739 7.37156 12.9978 7.3903 13.1348L7.73752 15.5654C7.75714 15.702 7.72159 15.8408 7.63873 15.9511C7.55587 16.0615 7.4325 16.1343 7.29585 16.1536C7.27151 16.1575 7.24689 16.1593 7.22224 16.1592C6.96319 16.1586 6.74393 15.9677 6.70766 15.7112L6.36044 13.2807C6.34081 13.1442 6.37626 13.0055 6.45898 12.8952C6.5417 12.7848 6.66489 12.7119 6.80141 12.6925ZM9.47919 13.2078V15.6383C9.47919 15.926 9.71237 16.1592 10 16.1592C10.2877 16.1592 10.5209 15.926 10.5209 15.6383V13.2078C10.5209 12.9201 10.2877 12.6869 10 12.6869C9.71237 12.6869 9.47919 12.9201 9.47919 13.2078ZM13.6403 13.2814L13.2931 15.7119C13.2568 15.9684 13.0375 16.1593 12.7785 16.1598C12.7536 16.16 12.7288 16.1582 12.7042 16.1543C12.5675 16.135 12.4442 16.0622 12.3613 15.9518C12.2785 15.8415 12.2429 15.7027 12.2625 15.5661L12.6097 13.1355C12.6502 12.851 12.9137 12.6531 13.1983 12.6935C13.4829 12.734 13.6808 12.9975 13.6403 13.2821V13.2814Z" />
</svg>