<!--category:services-->
<!--character:E036-->
<!--added:0.11-->
<svg width="24" height="24" viewBox="0 0 24 24" xmlns="http://www.w3.org/2000/svg"><path d="M19.9167 13.766a.4167.4167 0 0 1 .4083.5l-1.0675 5.3333a1.9625 1.9625 0 0 1-2.0625 1.25H6.805a1.9625 1.9625 0 0 1-2.0625-1.25L3.675 14.2659a.4167.4167 0 0 1 .4083-.5h15.8334zm-11.755 1.465a.6233.6233 0 0 0-.5292.7058l.4167 2.9166a.625.625 0 0 0 .6175.5376.5438.5438 0 0 0 .0883-.0067.6233.6233 0 0 0 .53-.7059l-.4167-2.9166a.6217.6217 0 0 0-.7066-.5309zm3.2133 3.535a.625.625 0 0 0 1.25 0v-2.9167a.625.625 0 1 0-1.25 0v2.9166zm4.9933-2.8284v.0008a.6246.6246 0 1 0-1.2366-.1758l-.4167 2.9167a.6233.6233 0 0 0 .53.7058.5444.5444 0 0 0 .0892.0067.625.625 0 0 0 .6175-.5375l.4166-2.9167zm3.965-6.755V9.181c.9205 0 1.6667.7462 1.6667 1.6667 0 .9205-.7462 1.6667-1.6667 1.6667H3.6667C2.7462 12.5143 2 11.768 2 10.8476c0-.9205.7462-1.6667 1.6667-1.6667h.69a.0333.0333 0 0 0 .0308-.0191l2.5-5.4167a1.0418 1.0418 0 1 1 1.8917.8733L6.8108 8.8868A.2083.2083 0 0 0 7 9.1826h10a.2083.2083 0 0 0 .1908-.2958l-1.97-4.2684a1.0417 1.0417 0 0 1 1.8917-.8716l2.5 5.4166a.0333.0333 0 0 0 .0308.0192h.69z"/></svg>