<!--character:$472:298-->
  <svg width="24" height="24" viewBox="0 0 24 24" >
<path d="M11.7375 7.52657L9.91241 5.29719C9.5786 4.9281 9.00801 4.89879 8.63796 5.23172C8.2679 5.56465 8.23851 6.13374 8.57232 6.50283L11.3675 9.80487C11.7268 10.202 12.3519 10.201 12.7097 9.80253L15.4298 6.54677C15.7623 6.17652 15.7309 5.60753 15.3597 5.2759C14.9884 4.94426 14.418 4.97557 14.0855 5.34581L12.3318 7.52553C12.1842 7.6899 11.9313 7.70348 11.7669 7.55587C11.7566 7.54662 11.7468 7.53684 11.7375 7.52657ZM15.4298 17.4553L12.7097 14.1995C12.3519 13.8011 11.7268 13.8 11.3675 14.1972L8.57232 17.4992C8.23851 17.8683 8.2679 18.4374 8.63796 18.7703C9.00801 19.1032 9.5786 19.0739 9.91241 18.7048L11.7375 16.4754C11.7468 16.4652 11.7566 16.4554 11.7669 16.4462C11.9313 16.2985 12.1842 16.3121 12.3318 16.4765L14.0855 18.6562C14.418 19.0265 14.9884 19.0578 15.3597 18.7261C15.7309 18.3945 15.7623 17.8255 15.4298 17.4553Z" />
</svg>