<!-- character:0:180 -->
  <svg width="20" height="20" viewBox="0 0 20 20" >
<path   d="M7.19831 8.22523C7.50669 8.50267 7.98218 8.47825 8.26035 8.17067L9.78127 6.31285C9.78901 6.3043 9.79719 6.29615 9.80577 6.28844C9.94274 6.16543 10.1535 6.17675 10.2765 6.31372L11.7379 8.13015C12.015 8.43869 12.4904 8.46478 12.7997 8.18842C13.1091 7.91205 13.1352 7.4379 12.8582 7.12936L10.5915 4.41623C10.2933 4.08421 9.7723 4.0833 9.47296 4.41428L7.14361 7.16597C6.86544 7.47354 6.88993 7.94779 7.19831 8.22523ZM9.47296 15.5873C9.7723 15.9183 10.2933 15.9174 10.5915 15.5854L12.8582 12.8723C13.1352 12.5637 13.1091 12.0896 12.7997 11.8132C12.4904 11.5368 12.015 11.5629 11.7379 11.8715L10.2765 13.6879C10.1535 13.8249 9.94274 13.8362 9.80577 13.7132C9.79719 13.7055 9.78901 13.6973 9.78127 13.6888L8.26035 11.8309C7.98218 11.5234 7.50669 11.499 7.19831 11.7764C6.88993 12.0538 6.86544 12.5281 7.14361 12.8356L9.47296 15.5873Z" />
</svg>