<!--character:2884-->
<svg width="24" height="24" viewBox="0 0 24 24">
  <path d="M11.7375 7.52657L9.91244 5.29718C9.57863 4.9281 9.00804 4.89879 8.63798 5.23172C8.26793 5.56465 8.23854 6.13374 8.57234 6.50282L11.3676 9.80486C11.7268 10.202 12.352 10.2009 12.7098 9.80252L15.4298 6.54677C15.7623 6.17652 15.7309 5.60753 15.3597 5.2759C14.9885 4.94426 14.418 4.97556 14.0855 5.34581L12.3318 7.52553C12.1842 7.68989 11.9313 7.70347 11.7669 7.55587C11.7566 7.54662 11.7468 7.53684 11.7375 7.52657ZM15.4298 17.4553L12.7098 14.1995C12.352 13.8011 11.7268 13.8 11.3676 14.1972L8.57234 17.4992C8.23854 17.8683 8.26793 18.4374 8.63798 18.7703C9.00804 19.1033 9.57863 19.0739 9.91244 18.7049L11.7375 16.4755C11.7468 16.4652 11.7566 16.4554 11.7669 16.4462C11.9313 16.2986 12.1842 16.3121 12.3318 16.4765L14.0855 18.6562C14.418 19.0265 14.9885 19.0578 15.3597 18.7261C15.7309 18.3945 15.7623 17.8255 15.4298 17.4553Z" />
</svg>
