<!--character:4481-->
  <svg width="20" height="20" viewBox="0 0 20 20" >
<path d="M9.78128 6.27214L8.26036 4.41432C7.98219 4.10675 7.5067 4.08232 7.19832 4.35976C6.88994 4.63721 6.86545 5.11145 7.14362 5.41902L9.47298 8.17072C9.77232 8.5017 10.2933 8.50079 10.5915 8.16877L12.8582 5.45564C13.1353 5.1471 13.1091 4.67294 12.7997 4.39658C12.4904 4.12022 12.015 4.1463 11.7379 4.45484L10.2765 6.27128C10.1535 6.40824 9.94275 6.41956 9.80578 6.29655C9.7972 6.28885 9.78902 6.2807 9.78128 6.27214ZM12.8582 14.5461L10.5915 11.8329C10.2933 11.5009 9.77232 11.5 9.47298 11.831L7.14362 14.5827C6.86545 14.8902 6.88994 15.3645 7.19832 15.6419C7.5067 15.9194 7.98219 15.8949 8.26036 15.5874L9.78128 13.7296C9.78902 13.721 9.7972 13.7129 9.80578 13.7051C9.94275 13.5821 10.1535 13.5935 10.2765 13.7304L11.7379 15.5469C12.015 15.8554 12.4904 15.8815 12.7997 15.6051C13.1091 15.3288 13.1353 14.8546 12.8582 14.5461Z" />
</svg>