<!--character:7392-->
  <svg width="20" height="20" viewBox="0 0 20 20" >
<path d="M7.19832 8.22527C7.5067 8.50271 7.98219 8.47828 8.26036 8.17071L9.78128 6.31289C9.78902 6.30434 9.7972 6.29619 9.80578 6.28848C9.94275 6.16547 10.1535 6.17679 10.2765 6.31376L11.7379 8.13019C12.015 8.43873 12.4904 8.46482 12.7997 8.18845C13.1091 7.91209 13.1353 7.43793 12.8582 7.1294L10.5915 4.41627C10.2933 4.08425 9.77232 4.08334 9.47298 4.41431L7.14362 7.16601C6.86545 7.47358 6.88994 7.94783 7.19832 8.22527ZM9.47298 15.5874C9.77232 15.9184 10.2933 15.9175 10.5915 15.5854L12.8582 12.8723C13.1353 12.5638 13.1091 12.0896 12.7997 11.8132C12.4904 11.5369 12.015 11.563 11.7379 11.8715L10.2765 13.6879C10.1535 13.8249 9.94275 13.8362 9.80578 13.7132C9.7972 13.7055 9.78902 13.6974 9.78128 13.6888L8.26036 11.831C7.98219 11.5234 7.5067 11.499 7.19832 11.7764C6.88994 12.0539 6.86545 12.5281 7.14362 12.8357L9.47298 15.5874Z" />
</svg>