<!--character:5137-->
  <svg width="24" height="24" viewBox="0 0 24 24" >
<path d="M8.63798 9.87032C9.00804 10.2033 9.57863 10.1739 9.91244 9.80486L11.7375 7.57547C11.7468 7.5652 11.7566 7.55542 11.7669 7.54617C11.9313 7.39857 12.1842 7.41215 12.3318 7.57651L14.0855 9.75623C14.418 10.1265 14.9885 10.1578 15.3597 9.82614C15.7309 9.49451 15.7623 8.92552 15.4298 8.55527L12.7098 5.29952C12.352 4.90109 11.7268 4.9 11.3676 5.29718L8.57234 8.59922C8.23854 8.9683 8.26793 9.53739 8.63798 9.87032ZM11.3676 18.7049C11.7268 19.102 12.352 19.1009 12.7098 18.7025L15.4298 15.4468C15.7623 15.0765 15.7309 14.5075 15.3597 14.1759C14.9885 13.8443 14.418 13.8756 14.0855 14.2458L12.3318 16.4255C12.1842 16.5899 11.9313 16.6035 11.7669 16.4559C11.7566 16.4466 11.7468 16.4368 11.7375 16.4266L9.91244 14.1972C9.57863 13.8281 9.00804 13.7988 8.63798 14.1317C8.26793 14.4646 8.23854 15.0337 8.57234 15.4028L11.3676 18.7049Z" />
</svg>