<!-- character:0:188 -->
  <svg width="20" height="20" viewBox="0 0 20 20" >
<path   d="M9.78127 6.2721L8.26035 4.41428C7.98218 4.10671 7.50668 4.08229 7.1983 4.35973C6.88992 4.63717 6.86543 5.11141 7.14361 5.41898L9.47296 8.17068C9.7723 8.50166 10.2933 8.50075 10.5915 8.16873L12.8581 5.4556C13.1352 5.14706 13.1091 4.6729 12.7997 4.39654C12.4904 4.12018 12.015 4.14626 11.7379 4.4548L10.2765 6.27124C10.1535 6.40821 9.94274 6.41952 9.80577 6.29652C9.79718 6.28881 9.78901 6.28066 9.78127 6.2721ZM12.8581 14.546L10.5915 11.8329C10.2933 11.5009 9.7723 11.5 9.47296 11.8309L7.14361 14.5826C6.86543 14.8902 6.88992 15.3645 7.1983 15.6419C7.50668 15.9193 7.98218 15.8949 8.26035 15.5873L9.78127 13.7295C9.78901 13.721 9.79718 13.7128 9.80577 13.7051C9.94274 13.5821 10.1535 13.5934 10.2765 13.7304L11.7379 15.5468C12.015 15.8554 12.4904 15.8814 12.7997 15.6051C13.1091 15.3287 13.1352 14.8546 12.8581 14.546Z" />
</svg>