<!--character:6396-->
  <svg width="24" height="24" viewBox="0 0 24 24" >
<path d="M8.63796 9.87033C9.00802 10.2033 9.57861 10.1739 9.91241 9.80486L11.7375 7.57547C11.7468 7.56521 11.7566 7.55543 11.7669 7.54618C11.9313 7.39857 12.1842 7.41215 12.3318 7.57651L14.0855 9.75623C14.418 10.1265 14.9885 10.1578 15.3597 9.82615C15.7309 9.49451 15.7623 8.92553 15.4298 8.55528L12.7097 5.29952C12.3519 4.9011 11.7268 4.90001 11.3675 5.29718L8.57232 8.59922C8.23852 8.9683 8.26791 9.5374 8.63796 9.87033ZM11.3675 18.7048C11.7268 19.102 12.3519 19.1009 12.7097 18.7025L15.4298 15.4467C15.7623 15.0765 15.7309 14.5075 15.3597 14.1759C14.9885 13.8442 14.418 13.8755 14.0855 14.2458L12.3318 16.4255C12.1842 16.5899 11.9313 16.6035 11.7669 16.4558C11.7566 16.4466 11.7468 16.4368 11.7375 16.4265L9.91241 14.1972C9.57861 13.8281 9.00802 13.7988 8.63796 14.1317C8.26791 14.4646 8.23852 15.0337 8.57232 15.4028L11.3675 18.7048Z" />
</svg>