<!--character:79:550:389-->
  <svg width="24" height="24" viewBox="0 0 24 24" >
<path   d="M20.0626 5.6199C20.0626 5.827 19.8947 5.99489 19.6876 5.99489H4.31171C4.10461 5.99489 3.93673 5.827 3.93673 5.6199V4.49495C3.93673 3.87365 4.44038 3.37 5.06168 3.37H18.9376C19.5589 3.37 20.0626 3.87365 20.0626 4.49495V5.6199ZM3 14.627C3 14.2128 3.33577 13.8771 3.74997 13.8771H9.93721C10.3514 13.8771 10.6872 14.2128 10.6872 14.627C10.6872 15.0412 10.3514 15.377 9.93721 15.377C9.83366 15.377 9.74972 15.4609 9.74972 15.5645V19.4943C9.74972 20.1156 9.24606 20.6193 8.62477 20.6193H5.06241C4.44112 20.6193 3.93746 20.1156 3.93746 19.4943V15.5645C3.93766 15.5147 3.91797 15.4669 3.88277 15.4317C3.84756 15.3965 3.79976 15.3768 3.74997 15.377C3.33577 15.377 3 15.0412 3 14.627ZM14.062 13.8771C13.7941 13.8771 13.5465 14.02 13.4125 14.252C13.2786 14.4841 13.2786 14.77 13.4125 15.002C13.5465 15.2341 13.7941 15.377 14.062 15.377C14.1656 15.377 14.2495 15.4609 14.2495 15.5645V19.4943C14.2495 20.1156 14.7532 20.6193 15.3745 20.6193H18.9376C19.5589 20.6193 20.0625 20.1156 20.0625 19.4943V15.5645C20.0623 15.5147 20.082 15.4669 20.1172 15.4317C20.1524 15.3965 20.2002 15.3768 20.25 15.377C20.6642 15.377 21 15.0412 21 14.627C21 14.2128 20.6642 13.8771 20.25 13.8771H14.062ZM3 7.50231C3 7.08812 3.33577 6.75234 3.74997 6.75234H20.2493C20.6635 6.75234 20.9993 7.08812 20.9993 7.50231C20.9993 7.91651 20.6635 8.25228 20.2493 8.25228C20.1473 8.25433 20.0659 8.33779 20.0663 8.43977V12.7446C20.0663 12.9517 19.8984 13.1196 19.6913 13.1196H14.6013C14.4135 13.1215 14.2533 12.9844 14.2263 12.7986C14.0671 11.691 13.1182 10.8687 11.9993 10.8687C10.8803 10.8687 9.93137 11.691 9.77222 12.7986C9.74539 12.983 9.58728 13.1197 9.40098 13.1196H4.31245C4.10535 13.1196 3.93746 12.9517 3.93746 12.7446V8.43977C3.93766 8.38999 3.91797 8.34218 3.88277 8.30698C3.84756 8.27177 3.79976 8.25208 3.74997 8.25228C3.33577 8.25228 3 7.91651 3 7.50231Z" />
</svg>