<!--category:travel-->
<!--character:E015-->
<!--added:0.11-->
<svg width="24" height="24" viewBox="0 0 24 24" xmlns="http://www.w3.org/2000/svg"><path d="M3.75 13.877h6.1872a.75.75 0 0 1 0 1.5.1875.1875 0 0 0-.1875.1875v3.9298c0 .6213-.5036 1.125-1.125 1.125H5.0625c-.6213 0-1.125-.5037-1.125-1.125v-3.9298a.1867.1867 0 0 0-.1874-.1875.75.75 0 0 1 0-1.5zM19.6876 5.995H4.3117a.375.375 0 0 1-.375-.375V4.495c0-.6212.5037-1.1249 1.125-1.1249h13.8759c.6213 0 1.125.5037 1.125 1.125V5.62a.375.375 0 0 1-.375.3749zM14.062 13.877h6.188a.75.75 0 1 1 0 1.4999.1867.1867 0 0 0-.1875.1875v3.9298c0 .6213-.5036 1.125-1.125 1.125h-3.563c-.6213 0-1.125-.5037-1.125-1.125v-3.9298a.1875.1875 0 0 0-.1875-.1875.75.75 0 1 1 0-1.5zM3.75 6.7524h16.4993a.75.75 0 0 1 0 1.4999.1867.1867 0 0 0-.183.1875v4.3048a.375.375 0 0 1-.375.375h-5.09a.375.375 0 0 1-.375-.321c-.1592-1.1076-1.108-1.9299-2.227-1.9299-1.119 0-2.068.8223-2.227 1.93a.375.375 0 0 1-.3713.321H4.3124a.375.375 0 0 1-.375-.375v-4.305a.1867.1867 0 0 0-.1874-.1874.75.75 0 0 1 0-1.5z"/></svg>
