<!-- character:0:1961 -->
  <svg width="20" height="20" viewBox="0 0 20 20" >
<path   d="M16.7188 4.68327C16.7188 4.85585 16.5789 4.99576 16.4063 4.99576H3.59308C3.4205 4.99576 3.28059 4.85585 3.28059 4.68327V3.74581C3.28059 3.22807 3.70031 2.80835 4.21805 2.80835H15.7813C16.2991 2.80835 16.7188 3.22807 16.7188 3.74581V4.68327ZM2.5 12.1892C2.5 11.844 2.77981 11.5642 3.12497 11.5642H8.28101C8.62617 11.5642 8.90598 11.844 8.90598 12.1892C8.90598 12.5344 8.62617 12.8142 8.28101 12.8142C8.19472 12.8142 8.12477 12.8841 8.12477 12.9704V16.2453C8.12477 16.763 7.70505 17.1827 7.1873 17.1827H4.21868C3.70093 17.1827 3.28122 16.763 3.28122 16.2453V12.9704C3.28138 12.9289 3.26498 12.8891 3.23564 12.8598C3.2063 12.8304 3.16646 12.814 3.12497 12.8142C2.77981 12.8142 2.5 12.5344 2.5 12.1892ZM11.7184 11.5642C11.4951 11.5642 11.2888 11.6834 11.1771 11.8767C11.0655 12.0701 11.0655 12.3083 11.1771 12.5017C11.2888 12.6951 11.4951 12.8142 11.7184 12.8142C11.8047 12.8142 11.8746 12.8841 11.8746 12.9704V16.2453C11.8746 16.763 12.2943 17.1827 12.8121 17.1827H15.7813C16.2991 17.1827 16.7188 16.763 16.7188 16.2453V12.9704C16.7186 12.9289 16.735 12.8891 16.7644 12.8598C16.7937 12.8304 16.8335 12.814 16.875 12.8142C17.2202 12.8142 17.5 12.5344 17.5 12.1892C17.5 11.844 17.2202 11.5642 16.875 11.5642H11.7184ZM2.5 6.25196C2.5 5.90679 2.77981 5.62698 3.12497 5.62698H16.8744C17.2196 5.62698 17.4994 5.90679 17.4994 6.25196C17.4994 6.59712 17.2196 6.87693 16.8744 6.87693C16.7894 6.87864 16.7215 6.94819 16.7219 7.03317V10.6205C16.7219 10.7931 16.582 10.933 16.4094 10.933H12.1677C12.0113 10.9346 11.8778 10.8203 11.8552 10.6655C11.7226 9.74253 10.9318 9.05727 9.99937 9.05727C9.0669 9.05727 8.27614 9.74253 8.14351 10.6655C8.12116 10.8192 7.9894 10.9331 7.83415 10.933H3.5937C3.42112 10.933 3.28122 10.7931 3.28122 10.6205V7.03317C3.28138 6.99168 3.26498 6.95185 3.23564 6.92251C3.2063 6.89317 3.16646 6.87676 3.12497 6.87693C2.77981 6.87693 2.5 6.59712 2.5 6.25196Z" />
</svg>