<!--character:6555-->
  <svg width="24" height="24" viewBox="0 0 24 24" >
<path d="M22.8066 4.65234L20.959 2.80469C20.7012 2.54688 20.3145 2.375 19.9707 2.375H13.3965V1.6875C13.3965 1.34375 13.0527 1 12.709 1H11.334C10.9473 1 10.6465 1.34375 10.6465 1.6875V2.375H3.42773C2.82617 2.375 2.39648 2.84766 2.39648 3.40625V6.84375C2.39648 7.44531 2.82617 7.875 3.42773 7.875H19.9707C20.3145 7.875 20.6582 7.74609 20.959 7.48828L22.8066 5.64062C23.0645 5.38281 23.0645 4.91016 22.8066 4.65234ZM10.6465 22.3125C10.6465 22.6992 10.9473 23 11.334 23H12.709C13.0527 23 13.3965 22.6992 13.3965 22.3125V17.5H10.6465V22.3125ZM20.6152 10.625H13.3965V9.25H10.6465V10.625H4.0293C3.68555 10.625 3.3418 10.7969 3.08398 11.0547L1.19336 12.9023C0.935547 13.1602 0.935547 13.6328 1.19336 13.8906L3.08398 15.7383C3.3418 15.9961 3.68555 16.125 4.0293 16.125H20.6152C21.1738 16.125 21.6465 15.6953 21.6465 15.0938V11.6562C21.6465 11.0977 21.1738 10.625 20.6152 10.625Z" />
</svg>