<!-- character:333:2 -->
  <svg width="20" height="20" viewBox="0 0 20 20" >
<path d="M19.0055 3.87699L17.4658 2.33728C17.251 2.12244 16.9287 1.97921 16.6422 1.97921H11.1637V1.40629C11.1637 1.11983 10.8773 0.833374 10.5908 0.833374H9.44497C9.1227 0.833374 8.87205 1.11983 8.87205 1.40629V1.97921H2.85642C2.35512 1.97921 1.99705 2.37309 1.99705 2.83858V5.70317C1.99705 6.20447 2.35512 6.56254 2.85642 6.56254H16.6422C16.9287 6.56254 17.2151 6.45512 17.4658 6.24027L19.0055 4.70056C19.2204 4.48572 19.2204 4.09184 19.0055 3.87699ZM8.87205 18.5938C8.87205 18.9161 9.1227 19.1667 9.44497 19.1667H10.5908C10.8773 19.1667 11.1637 18.9161 11.1637 18.5938V14.5834H8.87205V18.5938ZM17.1793 8.85421H11.1637V7.70837H8.87205V8.85421H3.35773C3.07127 8.85421 2.78481 8.99744 2.56997 9.21228L0.994446 10.752C0.779602 10.9668 0.779602 11.3607 0.994446 11.5756L2.56997 13.1153C2.78481 13.3301 3.07127 13.4375 3.35773 13.4375H17.1793C17.6448 13.4375 18.0387 13.0795 18.0387 12.5782V9.71358C18.0387 9.24809 17.6448 8.85421 17.1793 8.85421Z" />
</svg>