<!--character:3024:2841-->
<svg width="24" height="24" viewBox="0 0 24 24">
  <path d="M22.8068 4.65235L20.9592 2.80469C20.7014 2.54688 20.3146 2.375 19.9709 2.375H13.3967V1.6875C13.3967 1.34375 13.0529 1 12.7092 1H11.3342C10.9475 1 10.6467 1.34375 10.6467 1.6875V2.375H3.42793C2.82637 2.375 2.39668 2.84766 2.39668 3.40625V6.84375C2.39668 7.44532 2.82637 7.875 3.42793 7.875H19.9709C20.3146 7.875 20.6584 7.7461 20.9592 7.48828L22.8068 5.64063C23.0646 5.38282 23.0646 4.91016 22.8068 4.65235ZM10.6467 22.3125C10.6467 22.6992 10.9475 23 11.3342 23H12.7092C13.0529 23 13.3967 22.6992 13.3967 22.3125V17.5H10.6467V22.3125ZM20.6154 10.625H13.3967V9.25H10.6467V10.625H4.02949C3.68574 10.625 3.34199 10.7969 3.08418 11.0547L1.19355 12.9023C0.935742 13.1602 0.935742 13.6328 1.19355 13.8906L3.08418 15.7383C3.34199 15.9961 3.68574 16.125 4.02949 16.125H20.6154C21.174 16.125 21.6467 15.6953 21.6467 15.0938V11.6563C21.6467 11.0977 21.174 10.625 20.6154 10.625Z" />
</svg>
