<!--character:4625-->
  <svg width="20" height="20" viewBox="0 0 20 20" >
<path d="M19.0057 3.87696L17.466 2.33724C17.2511 2.1224 16.9289 1.97917 16.6424 1.97917H11.1639V1.40625C11.1639 1.11979 10.8774 0.833336 10.591 0.833336H9.44515C9.12288 0.833336 8.87223 1.11979 8.87223 1.40625V1.97917H2.85661C2.35531 1.97917 1.99723 2.37305 1.99723 2.83854V5.70313C1.99723 6.20443 2.35531 6.5625 2.85661 6.5625H16.6424C16.9289 6.5625 17.2153 6.45508 17.466 6.24024L19.0057 4.70052C19.2205 4.48568 19.2205 4.0918 19.0057 3.87696ZM8.87223 18.5938C8.87223 18.916 9.12288 19.1667 9.44515 19.1667H10.591C10.8774 19.1667 11.1639 18.916 11.1639 18.5938V14.5833H8.87223V18.5938ZM17.1795 8.85417H11.1639V7.70834H8.87223V8.85417H3.35791C3.07145 8.85417 2.78499 8.9974 2.57015 9.21224L0.994629 10.752C0.779785 10.9668 0.779785 11.3607 0.994629 11.5755L2.57015 13.1152C2.78499 13.3301 3.07145 13.4375 3.35791 13.4375H17.1795C17.645 13.4375 18.0389 13.0794 18.0389 12.5781V9.71354C18.0389 9.24805 17.645 8.85417 17.1795 8.85417Z" />
</svg>