<!-- character:0:2355 -->
  <svg width="20" height="20" viewBox="0 0 20 20" >
<path   d="M15.2083 5.83333H14.1666C13.5913 5.83333 13.125 5.36696 13.125 4.79167C13.125 4.21637 13.5913 3.75 14.1666 3.75H15.2083C15.7836 3.75 16.25 4.21637 16.25 4.79167C16.25 5.36696 15.7836 5.83333 15.2083 5.83333ZM7.22218 7.56944C7.77443 7.56944 8.2742 7.24225 8.4951 6.73611C8.5503 6.60963 8.67516 6.52785 8.81315 6.52778H11.0416C11.6169 6.52778 12.0833 6.06141 12.0833 5.48611C12.0833 4.91081 11.6169 4.44444 11.0416 4.44444H7.5694C7.01716 4.44445 6.51739 4.77164 6.29649 5.27778C6.24129 5.40426 6.11643 5.48604 5.97843 5.48611H4.79163C3.44927 5.48611 2.36107 6.57431 2.36107 7.91667V8.4375C2.36107 8.72515 2.59426 8.95833 2.8819 8.95833C3.16955 8.95833 3.40274 8.72515 3.40274 8.4375V7.91667C3.40274 7.7249 3.55819 7.56944 3.74996 7.56944H7.22218ZM17.2916 14.1667C17.8669 14.1667 18.3333 13.7003 18.3333 13.125V10.3472C18.3333 9.77193 17.8669 9.30556 17.2916 9.30556H4.79163C4.21633 9.30556 3.74996 9.77193 3.74996 10.3472V13.125C3.74996 13.7003 4.21633 14.1667 4.79163 14.1667H17.2916ZM5.13885 11.0417C5.13885 10.8499 5.2943 10.6944 5.48607 10.6944H13.4722C13.6639 10.6944 13.8194 10.8499 13.8194 11.0417V12.4306C13.8194 12.6223 13.6639 12.7778 13.4722 12.7778H5.48607C5.2943 12.7778 5.13885 12.6223 5.13885 12.4306V11.0417ZM1.66663 10.6944C1.66663 10.1191 2.133 9.65278 2.70829 9.65278C2.90006 9.65278 3.05552 9.80823 3.05552 10V13.4722C3.05552 13.664 2.90006 13.8194 2.70829 13.8194C2.133 13.8194 1.66663 13.3531 1.66663 12.7778V10.6944Z" />
</svg>