<!--character:1741-->
  <svg width="24" height="24" viewBox="0 0 24 24" >
<path d="M18.2504 7H17.0004C16.31 7 15.7504 6.44036 15.7504 5.75C15.7504 5.05964 16.31 4.5 17.0004 4.5H18.2504C18.9407 4.5 19.5004 5.05964 19.5004 5.75C19.5004 6.44036 18.9407 7 18.2504 7Z" />
<path d="M8.66706 9.08333C9.32975 9.08332 9.92948 8.6907 10.1946 8.08333C10.2608 7.93156 10.4106 7.83342 10.5762 7.83333H13.2504C13.9407 7.83333 14.5004 7.27369 14.5004 6.58333C14.5004 5.89298 13.9407 5.33333 13.2504 5.33333H9.08372C8.42103 5.33334 7.8213 5.72596 7.55622 6.33333C7.48998 6.48511 7.34016 6.58325 7.17456 6.58333H5.75039C4.13956 6.58333 2.83372 7.88917 2.83372 9.5V10.125C2.83372 10.4702 3.11355 10.75 3.45872 10.75C3.8039 10.75 4.08372 10.4702 4.08372 10.125V9.5C4.08372 9.26988 4.27027 9.08333 4.50039 9.08333H8.66706Z" />
<path d="M20.7504 17C21.4407 17 22.0004 16.4404 22.0004 15.75V12.4167C22.0004 11.7263 21.4407 11.1667 20.7504 11.1667H5.75039C5.06003 11.1667 4.50039 11.7263 4.50039 12.4167V15.75C4.50039 16.4404 5.06003 17 5.75039 17H20.7504ZM6.16706 13.25C6.16706 13.0199 6.3536 12.8333 6.58372 12.8333H16.1671C16.3972 12.8333 16.5837 13.0199 16.5837 13.25V14.9167C16.5837 15.1468 16.3972 15.3333 16.1671 15.3333H6.58372C6.3536 15.3333 6.16706 15.1468 6.16706 14.9167V13.25Z" />
<path d="M2.00039 12.8333C2.00039 12.143 2.56003 11.5833 3.25039 11.5833C3.48051 11.5833 3.66706 11.7699 3.66706 12V16.1667C3.66706 16.3968 3.48051 16.5833 3.25039 16.5833C2.56003 16.5833 2.00039 16.0237 2.00039 15.3333V12.8333Z" />
</svg>