<!--character:1196-->
  <svg width="24" height="24" viewBox="0 0 24 24" >
<path d="M21.7504 2.25C21.4171 1.91666 20.9171 1.91666 20.5837 2.25L11.6671 11.1667H5.75039C5.08372 11.1667 4.50039 11.75 4.50039 12.4167V15.75C4.50039 16.4167 5.08372 17 5.75039 17H5.83372L2.25039 20.5833C1.91706 20.9167 1.91706 21.4167 2.25039 21.75C2.58372 22.0833 3.16706 22.0833 3.41706 21.75L21.7504 3.41666C22.0837 3.08333 22.0837 2.58333 21.7504 2.25ZM7.50039 15.3333H6.58372C6.33372 15.3333 6.16706 15.1667 6.16706 14.9167V13.25C6.16706 13 6.33372 12.8333 6.58372 12.8333H10.0004L7.50039 15.3333Z" />
<path d="M10.1671 8.08333C9.91706 8.66666 9.33372 9.08333 8.66706 9.08333H4.58372C4.33372 9.08333 4.16706 9.25 4.16706 9.5V10.1667C4.16706 10.5833 3.91706 10.8333 3.50039 10.8333C3.08372 10.8333 2.83372 10.5 2.83372 10.1667V9.5C2.83372 7.91666 4.16706 6.58333 5.75039 6.58333H7.16706C7.33372 6.58333 7.50039 6.5 7.58372 6.33333C7.83372 5.75 8.41706 5.33333 9.08372 5.33333H13.2504C13.9171 5.33333 14.5004 5.91666 14.5004 6.58333C14.5004 7.25 13.9171 7.83333 13.2504 7.83333H10.5837C10.4171 7.83333 10.2504 7.91666 10.1671 8.08333Z" />
<path d="M2.00039 12.8333C2.00039 12.1667 2.58372 11.5833 3.25039 11.5833C3.50039 11.5833 3.66706 11.75 3.66706 12V16.1667C3.66706 16.4167 3.50039 16.5833 3.25039 16.5833C2.58372 16.5833 2.00039 16 2.00039 15.3333V12.8333Z" />
<path d="M20.7504 11.1667H15.6671L14.0004 12.8333H16.1671C16.4171 12.8333 16.5837 13 16.5837 13.25V14.9167C16.5837 15.1667 16.4171 15.3333 16.1671 15.3333H11.5004L9.83372 17H20.7504C21.4171 17 22.0004 16.4167 22.0004 15.75V12.4167C22.0004 11.75 21.4171 11.1667 20.7504 11.1667Z" />
</svg>