<!--character:5209-->
  <svg width="24" height="24" viewBox="0 0 24 24" >
<path d="M18.25 7H17C16.3096 7 15.75 6.44036 15.75 5.75C15.75 5.05964 16.3096 4.5 17 4.5H18.25C18.9404 4.5 19.5 5.05964 19.5 5.75C19.5 6.44036 18.9404 7 18.25 7Z" />
<path d="M8.66665 9.08331C9.32934 9.0833 9.92907 8.69068 10.1941 8.08331C10.2604 7.93154 10.4102 7.8334 10.5758 7.83331H13.25C13.9403 7.83331 14.5 7.27367 14.5 6.58331C14.5 5.89296 13.9403 5.33331 13.25 5.33331H9.08331C8.42062 5.33332 7.82089 5.72594 7.55581 6.33331C7.48957 6.48509 7.33974 6.58323 7.17415 6.58331H5.74998C4.13915 6.58331 2.83331 7.88915 2.83331 9.49998V10.125C2.83331 10.4702 3.11314 10.75 3.45831 10.75C3.80349 10.75 4.08331 10.4702 4.08331 10.125V9.49998C4.08331 9.26986 4.26986 9.08331 4.49998 9.08331H8.66665Z" />
<path d="M20.75 17C21.4404 17 22 16.4404 22 15.75V12.4167C22 11.7263 21.4404 11.1667 20.75 11.1667H5.75C5.05964 11.1667 4.5 11.7263 4.5 12.4167V15.75C4.5 16.4404 5.05964 17 5.75 17H20.75ZM6.16669 13.25C6.16669 13.0199 6.35324 12.8334 6.58335 12.8334H16.1667C16.3968 12.8334 16.5834 13.0199 16.5834 13.25V14.9167C16.5834 15.1468 16.3968 15.3334 16.1667 15.3334H6.58335C6.35324 15.3334 6.16669 15.1468 6.16669 14.9167V13.25Z" />
<path d="M2 12.8333C2 12.143 2.55964 11.5833 3.25 11.5833C3.48012 11.5833 3.66667 11.7699 3.66667 12V16.1666C3.66667 16.3968 3.48012 16.5833 3.25 16.5833C2.55964 16.5833 2 16.0237 2 15.3333V12.8333Z" />
</svg>