<!--character:4883-->
  <svg width="20" height="20" viewBox="0 0 20 20" >
<path d="M15.2087 5.83333H14.167C13.5917 5.83333 13.1253 5.36696 13.1253 4.79167C13.1253 4.21637 13.5917 3.75 14.167 3.75H15.2087C15.784 3.75 16.2503 4.21637 16.2503 4.79167C16.2503 5.36696 15.784 5.83333 15.2087 5.83333Z" />
<path d="M7.22255 7.56944C7.77479 7.56944 8.27457 7.24225 8.49546 6.73611C8.55066 6.60963 8.67552 6.52785 8.81352 6.52778H11.042C11.6173 6.52778 12.0837 6.06141 12.0837 5.48611C12.0837 4.91081 11.6173 4.44444 11.042 4.44444H7.56977C7.01752 4.44445 6.51775 4.77164 6.29685 5.27778C6.24165 5.40426 6.1168 5.48604 5.9788 5.48611H4.79199C3.44963 5.48611 2.36144 6.57431 2.36144 7.91667V8.4375C2.36144 8.72515 2.59462 8.95833 2.88227 8.95833C3.16992 8.95833 3.4031 8.72515 3.4031 8.4375V7.91667C3.4031 7.7249 3.55856 7.56944 3.75033 7.56944H7.22255Z" />
<path d="M17.292 14.1667C17.8673 14.1667 18.3337 13.7003 18.3337 13.125V10.3472C18.3337 9.77193 17.8673 9.30556 17.292 9.30556H4.79199C4.2167 9.30556 3.75033 9.77193 3.75033 10.3472V13.125C3.75033 13.7003 4.2167 14.1667 4.79199 14.1667H17.292ZM5.13921 11.0417C5.13921 10.8499 5.29467 10.6944 5.48644 10.6944H13.4725C13.6643 10.6944 13.8198 10.8499 13.8198 11.0417V12.4306C13.8198 12.6223 13.6643 12.7778 13.4725 12.7778H5.48644C5.29467 12.7778 5.13921 12.6223 5.13921 12.4306V11.0417Z" />
<path d="M1.66699 10.6944C1.66699 10.1191 2.13336 9.65278 2.70866 9.65278C2.90042 9.65278 3.05588 9.80823 3.05588 10V13.4722C3.05588 13.664 2.90042 13.8194 2.70866 13.8194C2.13336 13.8194 1.66699 13.3531 1.66699 12.7778V10.6944Z" />
</svg>