<!--character:7198-->
  <svg width="24" height="24" viewBox="0 0 24 24" >
<path d="M18.25 7H17C16.3096 7 15.75 6.44036 15.75 5.75C15.75 5.05964 16.3096 4.5 17 4.5H18.25C18.9403 4.5 19.5 5.05964 19.5 5.75C19.5 6.44036 18.9403 7 18.25 7Z" />
<path d="M8.66665 9.08333C9.32935 9.08332 9.92908 8.6907 10.1942 8.08333C10.2604 7.93156 10.4102 7.83342 10.5758 7.83333H13.25C13.9403 7.83333 14.5 7.27369 14.5 6.58333C14.5 5.89298 13.9403 5.33333 13.25 5.33333H9.08332C8.42063 5.33334 7.8209 5.72596 7.55582 6.33333C7.48958 6.48511 7.33975 6.58325 7.17415 6.58333H5.74999C4.13916 6.58333 2.83332 7.88917 2.83332 9.5V10.125C2.83332 10.4702 3.11314 10.75 3.45832 10.75C3.8035 10.75 4.08332 10.4702 4.08332 10.125V9.5C4.08332 9.26988 4.26987 9.08333 4.49999 9.08333H8.66665Z" />
<path d="M20.75 17C21.4403 17 22 16.4404 22 15.75V12.4167C22 11.7263 21.4403 11.1667 20.75 11.1667H5.74999C5.05963 11.1667 4.49999 11.7263 4.49999 12.4167V15.75C4.49999 16.4404 5.05963 17 5.74999 17H20.75ZM6.16665 13.25C6.16665 13.0199 6.3532 12.8333 6.58332 12.8333H16.1667C16.3968 12.8333 16.5833 13.0199 16.5833 13.25V14.9167C16.5833 15.1468 16.3968 15.3333 16.1667 15.3333H6.58332C6.3532 15.3333 6.16665 15.1468 6.16665 14.9167V13.25Z" />
<path d="M1.99999 12.8333C1.99999 12.143 2.55963 11.5833 3.24999 11.5833C3.48011 11.5833 3.66665 11.7699 3.66665 12V16.1667C3.66665 16.3968 3.48011 16.5833 3.24999 16.5833C2.55963 16.5833 1.99999 16.0237 1.99999 15.3333V12.8333Z" />
</svg>