<!--category:basic-->
<!--character:E037-->
<!--added:0.11-->
<svg width="24" height="24" viewBox="0 0 24 24" xmlns="http://www.w3.org/2000/svg"><path d="M20.75 17h-15c-.6904 0-1.25-.5596-1.25-1.25v-3.3333c0-.6904.5596-1.25 1.25-1.25h15c.6904 0 1.25.5596 1.25 1.25V15.75c0 .6904-.5596 1.25-1.25 1.25zM6.1667 13.25v1.6667c0 .23.1865.4166.4166.4166h9.5834a.4167.4167 0 0 0 .4166-.4166V13.25a.4167.4167 0 0 0-.4166-.4167H6.5833a.4167.4167 0 0 0-.4166.4167zM3.25 11.5833A.4167.4167 0 0 1 3.6667 12v4.1667a.4167.4167 0 0 1-.4167.4166c-.6904 0-1.25-.5596-1.25-1.25v-2.5c0-.6903.5596-1.25 1.25-1.25zm5.4167-2.5H4.5a.4167.4167 0 0 0-.4167.4167v.625a.625.625 0 1 1-1.25 0V9.5c0-1.6108 1.3059-2.9167 2.9167-2.9167h1.4242a.4167.4167 0 0 0 .3816-.25c.2651-.6073.8648-1 1.5275-1H13.25c.6904 0 1.25.5597 1.25 1.25 0 .6904-.5596 1.25-1.25 1.25h-2.6742a.4167.4167 0 0 0-.3816.25c-.2651.6074-.8648 1-1.5275 1zM17 7c-.6904 0-1.25-.5596-1.25-1.25S16.3096 4.5 17 4.5h1.25c.6904 0 1.25.5596 1.25 1.25S18.9404 7 18.25 7H17z"/></svg>