<!-- character:0:2371 -->
  <svg width="20" height="20" viewBox="0 0 20 20" >
<path   d="M18.125 1.87496C17.8472 1.59718 17.4305 1.59718 17.1527 1.87496L9.72218 9.30551H4.79163C4.23607 9.30551 3.74996 9.79163 3.74996 10.3472V13.125C3.74996 13.6805 4.23607 14.1666 4.79163 14.1666H4.86107L1.87496 17.1527C1.59718 17.4305 1.59718 17.8472 1.87496 18.125C2.15274 18.4027 2.63885 18.4027 2.84718 18.125L18.125 2.84718C18.4027 2.5694 18.4027 2.15274 18.125 1.87496ZM6.24996 12.7777L8.33329 10.6944H5.48607C5.27774 10.6944 5.13885 10.8333 5.13885 11.0416V12.4305C5.13885 12.6388 5.27774 12.7777 5.48607 12.7777H6.24996ZM8.47218 6.73607C8.26385 7.22218 7.77774 7.5694 7.22218 7.5694H3.8194C3.61107 7.5694 3.47218 7.70829 3.47218 7.91663V8.47218C3.47218 8.8194 3.26385 9.02774 2.91663 9.02774C2.5694 9.02774 2.36107 8.74996 2.36107 8.47218V7.91663C2.36107 6.59718 3.47218 5.48607 4.79163 5.48607H5.97218C6.11107 5.48607 6.24996 5.41663 6.3194 5.27774C6.52774 4.79163 7.01385 4.4444 7.5694 4.4444H11.0416C11.5972 4.4444 12.0833 4.93051 12.0833 5.48607C12.0833 6.04163 11.5972 6.52774 11.0416 6.52774H8.8194C8.68052 6.52774 8.54163 6.59718 8.47218 6.73607ZM1.66663 10.6944C1.66663 10.1388 2.15274 9.65274 2.70829 9.65274C2.91663 9.65274 3.05552 9.79163 3.05552 9.99996V13.4722C3.05552 13.6805 2.91663 13.8194 2.70829 13.8194C2.15274 13.8194 1.66663 13.3333 1.66663 12.7777V10.6944ZM17.2916 9.30551H13.0555L11.6666 10.6944H13.4722C13.6805 10.6944 13.8194 10.8333 13.8194 11.0416V12.4305C13.8194 12.6388 13.6805 12.7777 13.4722 12.7777H9.58329L8.1944 14.1666H17.2916C17.8472 14.1666 18.3333 13.6805 18.3333 13.125V10.3472C18.3333 9.79163 17.8472 9.30551 17.2916 9.30551Z" />
</svg>