<!--character:5062-->
  <svg width="24" height="24" viewBox="0 0 24 24" >
<path d="M21.75 2.25C21.4167 1.91667 20.9167 1.91667 20.5833 2.25L11.6666 11.1667H5.75C5.08333 11.1667 4.5 11.75 4.5 12.4167V15.75C4.5 16.4167 5.08333 17 5.75 17H5.83331L2.25 20.5833C1.91667 20.9167 1.91667 21.4167 2.25 21.75C2.58333 22.0833 3.16667 22.0833 3.41667 21.75L21.75 3.41667C22.0833 3.08333 22.0833 2.58333 21.75 2.25ZM7.49998 15.3334H6.58333C6.33333 15.3334 6.16667 15.1667 6.16667 14.9167V13.25C6.16667 13 6.33333 12.8334 6.58333 12.8334H9.99998L7.49998 15.3334Z" />
<path d="M10.1666 8.08331C9.91665 8.66665 9.33331 9.08331 8.66665 9.08331H4.58331C4.33331 9.08331 4.16665 9.24998 4.16665 9.49998V10.1666C4.16665 10.5833 3.91665 10.8333 3.49998 10.8333C3.08331 10.8333 2.83331 10.5 2.83331 10.1666V9.49998C2.83331 7.91665 4.16665 6.58331 5.74998 6.58331H7.16665C7.33331 6.58331 7.49998 6.49998 7.58331 6.33331C7.83331 5.74998 8.41665 5.33331 9.08331 5.33331H13.25C13.9166 5.33331 14.5 5.91665 14.5 6.58331C14.5 7.24998 13.9166 7.83331 13.25 7.83331H10.5833C10.4166 7.83331 10.25 7.91665 10.1666 8.08331Z" />
<path d="M2 12.8333C2 12.1666 2.58333 11.5833 3.25 11.5833C3.5 11.5833 3.66667 11.75 3.66667 12V16.1666C3.66667 16.4166 3.5 16.5833 3.25 16.5833C2.58333 16.5833 2 16 2 15.3333V12.8333Z" />
<path d="M20.75 11.1667H15.6666L14 12.8334H16.1666C16.4166 12.8334 16.5833 13 16.5833 13.25V14.9167C16.5833 15.1667 16.4166 15.3334 16.1666 15.3334H11.5L9.83331 17H20.75C21.4166 17 22 16.4167 22 15.75V12.4167C22 11.75 21.4166 11.1667 20.75 11.1667Z" />
</svg>