<!--character:9398-->
  <svg width="20" height="20" viewBox="0 0 20 20" >
<path d="M18.1253 1.875C17.8475 1.59722 17.4309 1.59722 17.1531 1.875L9.72255 9.30555H4.79199C4.23644 9.30555 3.75033 9.79166 3.75033 10.3472V13.125C3.75033 13.6806 4.23644 14.1667 4.79199 14.1667H4.86144L1.87533 17.1528C1.59755 17.4306 1.59755 17.8472 1.87533 18.125C2.1531 18.4028 2.63921 18.4028 2.84755 18.125L18.1253 2.84722C18.4031 2.56944 18.4031 2.15278 18.1253 1.875ZM6.25033 12.7778H5.48644C5.2781 12.7778 5.13921 12.6389 5.13921 12.4306V11.0417C5.13921 10.8333 5.2781 10.6944 5.48644 10.6944H8.33366L6.25033 12.7778Z" />
<path d="M8.47255 6.73611C8.26421 7.22222 7.7781 7.56944 7.22255 7.56944H3.81977C3.61144 7.56944 3.47255 7.70833 3.47255 7.91666V8.47222C3.47255 8.81944 3.26421 9.02777 2.91699 9.02777C2.56977 9.02777 2.36144 8.75 2.36144 8.47222V7.91666C2.36144 6.59722 3.47255 5.48611 4.79199 5.48611H5.97255C6.11144 5.48611 6.25033 5.41666 6.31977 5.27778C6.5281 4.79166 7.01421 4.44444 7.56977 4.44444H11.042C11.5975 4.44444 12.0837 4.93055 12.0837 5.48611C12.0837 6.04166 11.5975 6.52777 11.042 6.52777H8.81977C8.68088 6.52777 8.54199 6.59722 8.47255 6.73611Z" />
<path d="M1.66699 10.6944C1.66699 10.1389 2.1531 9.65277 2.70866 9.65277C2.91699 9.65277 3.05588 9.79166 3.05588 10V13.4722C3.05588 13.6806 2.91699 13.8194 2.70866 13.8194C2.1531 13.8194 1.66699 13.3333 1.66699 12.7778V10.6944Z" />
<path d="M17.292 9.30555H13.0559L11.667 10.6944H13.4725C13.6809 10.6944 13.8198 10.8333 13.8198 11.0417V12.4306C13.8198 12.6389 13.6809 12.7778 13.4725 12.7778H9.58366L8.19477 14.1667H17.292C17.8475 14.1667 18.3337 13.6806 18.3337 13.125V10.3472C18.3337 9.79166 17.8475 9.30555 17.292 9.30555Z" />
</svg>