<!--category:basic-->
<!--character:E126-->
<!--added:0.11-->
<svg width="24" height="24" viewBox="0 0 24 24" xmlns="http://www.w3.org/2000/svg"><path d="M5.8333 17H5.75c-.6667 0-1.25-.5833-1.25-1.25v-3.3333c0-.6667.5833-1.25 1.25-1.25h5.9167L20.5833 2.25c.3334-.3333.8334-.3333 1.1667 0 .3333.3333.3333.8333 0 1.1667L3.4167 21.75c-.25.3333-.8334.3333-1.1667 0-.3333-.3333-.3333-.8333 0-1.1667L5.8333 17zM7.5 15.3333l2.5-2.5H6.5833c-.25 0-.4166.1667-.4166.4167v1.6667c0 .25.1666.4166.4166.4166H7.5zm-4.25-3.75c.25 0 .4167.1667.4167.4167v4.1667c0 .25-.1667.4166-.4167.4166-.6667 0-1.25-.5833-1.25-1.25v-2.5c0-.6666.5833-1.25 1.25-1.25zm5.4167-2.5H4.5833c-.25 0-.4166.1667-.4166.4167v.6667c0 .4166-.25.6666-.6667.6666-.4167 0-.6667-.3333-.6667-.6666V9.5c0-1.5833 1.3334-2.9167 2.9167-2.9167h1.4167c.1666 0 .3333-.0833.4166-.25.25-.5833.8334-1 1.5-1H13.25c.6667 0 1.25.5834 1.25 1.25 0 .6667-.5833 1.25-1.25 1.25h-2.6667c-.1666 0-.3333.0834-.4166.25-.25.5834-.8334 1-1.5 1zM20.75 11.1667c.6667 0 1.25.5833 1.25 1.25V15.75c0 .6667-.5833 1.25-1.25 1.25H9.8333L11.5 15.3333h4.6667c.25 0 .4166-.1666.4166-.4166V13.25c0-.25-.1666-.4167-.4166-.4167H14l1.6667-1.6666H20.75z"/></svg>