<!--character:4702-->
  <svg width="24" height="24" viewBox="0 0 24 24" >
<path d="M21.75 2.25001C21.4167 1.91667 20.9167 1.91667 20.5834 2.25001L11.6667 11.1667H5.75002C5.08336 11.1667 4.50002 11.75 4.50002 12.4167V15.75C4.50002 16.4167 5.08336 17 5.75002 17H5.83336L2.25002 20.5833C1.91669 20.9167 1.91669 21.4167 2.25002 21.75C2.58336 22.0833 3.16669 22.0833 3.41669 21.75L21.75 3.41667C22.0834 3.08334 22.0834 2.58334 21.75 2.25001ZM7.50003 15.3333H6.58336C6.33336 15.3333 6.16669 15.1667 6.16669 14.9167V13.25C6.16669 13 6.33336 12.8333 6.58336 12.8333H10L7.50003 15.3333Z" />
<path d="M10.1667 8.08334C9.91669 8.66667 9.33336 9.08334 8.66669 9.08334H4.58336C4.33336 9.08334 4.16669 9.25 4.16669 9.5V10.1667C4.16669 10.5833 3.91669 10.8333 3.50002 10.8333C3.08336 10.8333 2.83336 10.5 2.83336 10.1667V9.5C2.83336 7.91667 4.16669 6.58334 5.75002 6.58334H7.16669C7.33336 6.58334 7.50002 6.50001 7.58336 6.33334C7.83336 5.75001 8.41669 5.33334 9.08336 5.33334H13.25C13.9167 5.33334 14.5 5.91667 14.5 6.58334C14.5 7.25001 13.9167 7.83334 13.25 7.83334H10.5834C10.4167 7.83334 10.25 7.91667 10.1667 8.08334Z" />
<path d="M2.00002 12.8333C2.00002 12.1667 2.58336 11.5833 3.25002 11.5833C3.50002 11.5833 3.66669 11.75 3.66669 12V16.1667C3.66669 16.4167 3.50002 16.5833 3.25002 16.5833C2.58336 16.5833 2.00002 16 2.00002 15.3333V12.8333Z" />
<path d="M20.75 11.1667H15.6667L14 12.8333H16.1667C16.4167 12.8333 16.5834 13 16.5834 13.25V14.9167C16.5834 15.1667 16.4167 15.3333 16.1667 15.3333H11.5L9.83336 17H20.75C21.4167 17 22 16.4167 22 15.75V12.4167C22 11.75 21.4167 11.1667 20.75 11.1667Z" />
</svg>