<!--character:1757-->
  <svg width="24" height="24" viewBox="0 0 24 24" >
<path d="M11.3081 10.4623V17.6C11.3081 17.8122 11.2189 18.0157 11.0603 18.1657C10.9016 18.3157 10.6863 18.4 10.4619 18.4H4.53885C4.31444 18.4 4.09922 18.3157 3.94053 18.1657C3.78185 18.0157 3.6927 17.8122 3.6927 17.6V7.8C3.6927 7.58782 3.78185 7.38434 3.94053 7.23431C4.09922 7.08428 4.31444 7 4.53885 7H9.78803C9.84413 7 9.89793 6.97893 9.93761 6.94142C9.97728 6.90391 9.99956 6.85304 9.99956 6.8V5.2C9.99956 5.14695 9.97728 5.09608 9.93761 5.05858C9.89793 5.02107 9.84413 5 9.78803 5H4.11578C3.55474 5 3.01668 5.21071 2.61997 5.58578C2.22326 5.96086 2.00039 6.46956 2.00039 7V20C2.00039 20.2626 2.05511 20.5227 2.16141 20.7654C2.26772 21.008 2.42354 21.2285 2.61997 21.4142C2.8164 21.5999 3.0496 21.7472 3.30625 21.8478C3.5629 21.9483 3.83798 22 4.11578 22H10.885C11.1628 22 11.4379 21.9483 11.6945 21.8478C11.9512 21.7472 12.1844 21.5999 12.3808 21.4142C12.5772 21.2285 12.7331 21.008 12.8394 20.7654C12.9457 20.5227 13.0004 20.2626 13.0004 20V10.6016C12.9986 10.549 12.9755 10.4991 12.9358 10.4623C12.896 10.4255 12.8428 10.4046 12.7872 10.404C12.3798 10.4062 11.9754 10.4109 11.5932 10.2775C11.5615 10.2653 11.5271 10.2608 11.493 10.2643C11.459 10.2678 11.4264 10.2792 11.3982 10.2975C11.3699 10.3158 11.3469 10.3404 11.3312 10.3692C11.3155 10.3979 11.3075 10.4299 11.3081 10.4623Z" />
<path d="M20.7312 2H12.2696C11.933 2 11.6102 2.12594 11.3721 2.35013C11.1341 2.57432 11.0004 2.87839 11.0004 3.19544V7.97721C11.0004 8.29426 11.1341 8.59832 11.3721 8.82251C11.6102 9.0467 11.933 9.17265 12.2696 9.17265H14.385V10.6016C14.385 10.6804 14.4099 10.7575 14.4564 10.8231C14.503 10.8886 14.5691 10.9397 14.6465 10.9698C14.7238 10.9999 14.8089 11.0077 14.891 10.9923C14.9731 10.9768 15.0485 10.9388 15.1076 10.8829L16.9235 9.17265H20.7312C21.0678 9.17265 21.3906 9.0467 21.6286 8.82251C21.8667 8.59832 22.0004 8.29426 22.0004 7.97721V3.19544C22.0004 2.87839 21.8667 2.57432 21.6286 2.35013C21.3906 2.12594 21.0678 2 20.7312 2ZM12.9042 5.38708C12.9042 5.22946 12.9539 5.07537 13.0468 4.94431C13.1398 4.81326 13.272 4.71111 13.4266 4.65079C13.5812 4.59047 13.7513 4.57468 13.9155 4.60543C14.0796 4.63619 14.2304 4.71209 14.3487 4.82355C14.467 4.935 14.5476 5.07701 14.5803 5.2316C14.6129 5.3862 14.5962 5.54644 14.5321 5.69207C14.4681 5.83769 14.3596 5.96216 14.2205 6.04973C14.0813 6.1373 13.9177 6.18404 13.7504 6.18404C13.526 6.18404 13.3108 6.10008 13.1521 5.95062C12.9934 5.80116 12.9042 5.59845 12.9042 5.38708ZM15.8658 5.38708C15.8658 5.22946 15.9154 5.07537 16.0084 4.94431C16.1014 4.81326 16.2335 4.71111 16.3881 4.65079C16.5427 4.59047 16.7129 4.57468 16.877 4.60543C17.0411 4.63619 17.1919 4.71209 17.3103 4.82355C17.4286 4.935 17.5092 5.07701 17.5418 5.2316C17.5745 5.3862 17.5577 5.54644 17.4937 5.69207C17.4296 5.83769 17.3212 5.96216 17.182 6.04973C17.0429 6.1373 16.8793 6.18404 16.7119 6.18404C16.4875 6.18404 16.2723 6.10008 16.1136 5.95062C15.9549 5.80116 15.8658 5.59845 15.8658 5.38708ZM19.6735 6.18404C19.5061 6.18404 19.3425 6.1373 19.2034 6.04973C19.0642 5.96216 18.9558 5.83769 18.8917 5.69207C18.8277 5.54644 18.8109 5.3862 18.8436 5.2316C18.8762 5.07701 18.9568 4.935 19.0751 4.82355C19.1935 4.71209 19.3443 4.63619 19.5084 4.60543C19.6725 4.57468 19.8427 4.59047 19.9973 4.65079C20.1519 4.71111 20.284 4.81326 20.377 4.94431C20.47 5.07537 20.5196 5.22946 20.5196 5.38708C20.5196 5.59845 20.4305 5.80116 20.2718 5.95062C20.1131 6.10008 19.8979 6.18404 19.6735 6.18404Z" />
</svg>