<!--character:1634-->
  <svg width="24" height="24" viewBox="0 0 24 24" >
<path d="M11.3077 10.4623V17.6C11.3077 17.8122 11.2185 18.0157 11.0599 18.1657C10.9012 18.3157 10.686 18.4 10.4615 18.4H4.53846C4.31405 18.4 4.09882 18.3157 3.94014 18.1657C3.78146 18.0157 3.69231 17.8122 3.69231 17.6V7.8C3.69231 7.58783 3.78146 7.38434 3.94014 7.23431C4.09882 7.08429 4.31405 7 4.53846 7H9.78763C9.84374 7 9.89754 6.97893 9.93721 6.94142C9.97689 6.90391 9.99917 6.85304 9.99917 6.8V5.2C9.99917 5.14696 9.97689 5.09609 9.93721 5.05858C9.89754 5.02107 9.84374 5 9.78763 5H4.11538C3.55435 5 3.01629 5.21071 2.61958 5.58579C2.22287 5.96086 2 6.46957 2 7V20C2 20.2626 2.05472 20.5227 2.16102 20.7654C2.26733 21.008 2.42315 21.2285 2.61958 21.4142C2.81601 21.5999 3.04921 21.7472 3.30586 21.8478C3.56251 21.9483 3.83759 22 4.11538 22H10.8846C11.1624 22 11.4375 21.9483 11.6941 21.8478C11.9508 21.7472 12.184 21.5999 12.3804 21.4142C12.5768 21.2285 12.7327 21.008 12.839 20.7654C12.9453 20.5227 13 20.2626 13 20V10.6016C12.9983 10.549 12.9751 10.4991 12.9354 10.4623C12.8956 10.4255 12.8424 10.4046 12.7868 10.404C12.3794 10.4062 11.975 10.4109 11.5928 10.2775C11.5611 10.2653 11.5267 10.2608 11.4926 10.2643C11.4586 10.2678 11.426 10.2792 11.3978 10.2975C11.3695 10.3158 11.3465 10.3404 11.3308 10.3692C11.3151 10.3979 11.3071 10.4299 11.3077 10.4623Z" />
<path d="M20.7308 2H12.2692C11.9326 2 11.6098 2.12595 11.3717 2.35014C11.1337 2.57433 11 2.87839 11 3.19544V7.97721C11 8.29426 11.1337 8.59833 11.3717 8.82252C11.6098 9.0467 11.9326 9.17265 12.2692 9.17265H14.3846V10.6016C14.3846 10.6805 14.4095 10.7575 14.456 10.8231C14.5026 10.8886 14.5687 10.9397 14.6461 10.9698C14.7234 10.9999 14.8086 11.0077 14.8906 10.9923C14.9727 10.9768 15.0481 10.9388 15.1072 10.8829L16.9231 9.17265H20.7308C21.0674 9.17265 21.3902 9.0467 21.6283 8.82252C21.8663 8.59833 22 8.29426 22 7.97721V3.19544C22 2.87839 21.8663 2.57433 21.6283 2.35014C21.3902 2.12595 21.0674 2 20.7308 2ZM12.9038 5.38709C12.9038 5.22946 12.9535 5.07538 13.0464 4.94432C13.1394 4.81326 13.2716 4.71111 13.4262 4.65079C13.5808 4.59047 13.7509 4.57469 13.9151 4.60544C14.0792 4.63619 14.23 4.71209 14.3483 4.82355C14.4667 4.93501 14.5472 5.07701 14.5799 5.23161C14.6125 5.3862 14.5958 5.54644 14.5317 5.69207C14.4677 5.83769 14.3592 5.96216 14.2201 6.04973C14.0809 6.13731 13.9174 6.18405 13.75 6.18405C13.5256 6.18405 13.3104 6.10008 13.1517 5.95062C12.993 5.80116 12.9038 5.59845 12.9038 5.38709ZM15.8654 5.38709C15.8654 5.22946 15.915 5.07538 16.008 4.94432C16.101 4.81326 16.2331 4.71111 16.3877 4.65079C16.5423 4.59047 16.7125 4.57469 16.8766 4.60544C17.0408 4.63619 17.1915 4.71209 17.3099 4.82355C17.4282 4.93501 17.5088 5.07701 17.5414 5.23161C17.5741 5.3862 17.5573 5.54644 17.4933 5.69207C17.4292 5.83769 17.3208 5.96216 17.1816 6.04973C17.0425 6.13731 16.8789 6.18405 16.7115 6.18405C16.4871 6.18405 16.2719 6.10008 16.1132 5.95062C15.9545 5.80116 15.8654 5.59845 15.8654 5.38709ZM19.6731 6.18405C19.5057 6.18405 19.3421 6.13731 19.203 6.04973C19.0638 5.96216 18.9554 5.83769 18.8913 5.69207C18.8273 5.54644 18.8105 5.3862 18.8432 5.23161C18.8758 5.07701 18.9564 4.93501 19.0748 4.82355C19.1931 4.71209 19.3439 4.63619 19.508 4.60544C19.6721 4.57469 19.8423 4.59047 19.9969 4.65079C20.1515 4.71111 20.2837 4.81326 20.3766 4.94432C20.4696 5.07538 20.5192 5.22946 20.5192 5.38709C20.5192 5.59845 20.4301 5.80116 20.2714 5.95062C20.1127 6.10008 19.8975 6.18405 19.6731 6.18405Z" />
</svg>