<!--character:7270-->
  <svg width="24" height="24" viewBox="0 0 24 24" >
<path d="M11.3077 10.4623V17.6C11.3077 17.8122 11.2186 18.0157 11.0599 18.1657C10.9012 18.3157 10.686 18.4 10.4616 18.4H4.53849C4.31407 18.4 4.09885 18.3157 3.94016 18.1657C3.78148 18.0157 3.69233 17.8122 3.69233 17.6V7.80001C3.69233 7.58783 3.78148 7.38435 3.94016 7.23432C4.09885 7.08429 4.31407 7.00001 4.53849 7.00001H9.78766C9.84376 7.00001 9.89757 6.97894 9.93724 6.94143C9.97691 6.90392 9.9992 6.85305 9.9992 6.80001V5.20001C9.9992 5.14696 9.97691 5.09609 9.93724 5.05858C9.89757 5.02108 9.84376 5.00001 9.78766 5.00001H4.11541C3.55437 5.00001 3.01632 5.21072 2.61961 5.58579C2.22289 5.96087 2.00002 6.46957 2.00002 7.00001V20C2.00002 20.2627 2.05474 20.5227 2.16105 20.7654C2.26736 21.008 2.42317 21.2285 2.61961 21.4142C2.81604 21.5999 3.04924 21.7473 3.30589 21.8478C3.56254 21.9483 3.83761 22 4.11541 22H10.8846C11.1624 22 11.4375 21.9483 11.6942 21.8478C11.9508 21.7473 12.184 21.5999 12.3804 21.4142C12.5769 21.2285 12.7327 21.008 12.839 20.7654C12.9453 20.5227 13 20.2627 13 20V10.6016C12.9983 10.549 12.9751 10.4991 12.9354 10.4623C12.8957 10.4255 12.8424 10.4046 12.7868 10.404C12.3794 10.4062 11.975 10.4109 11.5929 10.2775C11.5611 10.2653 11.5267 10.2608 11.4927 10.2643C11.4586 10.2678 11.426 10.2792 11.3978 10.2975C11.3695 10.3158 11.3465 10.3404 11.3308 10.3692C11.3151 10.3979 11.3072 10.4299 11.3077 10.4623Z" />
<path d="M20.7308 2.00001H12.2693C11.9326 2.00001 11.6098 2.12595 11.3718 2.35014C11.1337 2.57433 11 2.8784 11 3.19545V7.97722C11 8.29427 11.1337 8.59833 11.3718 8.82252C11.6098 9.04671 11.9326 9.17266 12.2693 9.17266H14.3846V10.6016C14.3847 10.6805 14.4095 10.7575 14.4561 10.8231C14.5026 10.8886 14.5687 10.9397 14.6461 10.9698C14.7235 10.9999 14.8086 11.0077 14.8907 10.9923C14.9728 10.9768 15.0481 10.9388 15.1073 10.8829L16.9231 9.17266H20.7308C21.0674 9.17266 21.3902 9.04671 21.6283 8.82252C21.8663 8.59833 22 8.29427 22 7.97722V3.19545C22 2.8784 21.8663 2.57433 21.6283 2.35014C21.3902 2.12595 21.0674 2.00001 20.7308 2.00001ZM12.9039 5.38709C12.9039 5.22947 12.9535 5.07538 13.0465 4.94432C13.1395 4.81326 13.2716 4.71112 13.4262 4.6508C13.5808 4.59048 13.751 4.57469 13.9151 4.60544C14.0792 4.63619 14.23 4.7121 14.3483 4.82356C14.4667 4.93501 14.5473 5.07702 14.5799 5.23161C14.6126 5.38621 14.5958 5.54645 14.5318 5.69208C14.4677 5.8377 14.3593 5.96217 14.2201 6.04974C14.081 6.13731 13.9174 6.18405 13.75 6.18405C13.5256 6.18405 13.3104 6.10009 13.1517 5.95063C12.993 5.80117 12.9039 5.59846 12.9039 5.38709ZM15.8654 5.38709C15.8654 5.22947 15.915 5.07538 16.008 4.94432C16.101 4.81326 16.2331 4.71112 16.3878 4.6508C16.5424 4.59048 16.7125 4.57469 16.8766 4.60544C17.0408 4.63619 17.1915 4.7121 17.3099 4.82356C17.4282 4.93501 17.5088 5.07702 17.5415 5.23161C17.5741 5.38621 17.5574 5.54645 17.4933 5.69208C17.4293 5.8377 17.3208 5.96217 17.1817 6.04974C17.0425 6.13731 16.8789 6.18405 16.7116 6.18405C16.4871 6.18405 16.2719 6.10009 16.1132 5.95063C15.9546 5.80117 15.8654 5.59846 15.8654 5.38709ZM19.6731 6.18405C19.5057 6.18405 19.3422 6.13731 19.203 6.04974C19.0639 5.96217 18.9554 5.8377 18.8914 5.69208C18.8273 5.54645 18.8106 5.38621 18.8432 5.23161C18.8759 5.07702 18.9564 4.93501 19.0748 4.82356C19.1931 4.7121 19.3439 4.63619 19.508 4.60544C19.6722 4.57469 19.8423 4.59048 19.9969 4.6508C20.1515 4.71112 20.2837 4.81326 20.3767 4.94432C20.4696 5.07538 20.5193 5.22947 20.5193 5.38709C20.5193 5.59846 20.4301 5.80117 20.2714 5.95063C20.1127 6.10009 19.8975 6.18405 19.6731 6.18405Z" />
</svg>