<!-- character:297:2 -->
  <svg width="20" height="20" viewBox="0 0 20 20" >
<path d="M9.42304 8.71867V14.6667C9.42304 14.8436 9.34875 15.0131 9.21651 15.1382C9.08427 15.2632 8.90492 15.3334 8.71791 15.3334H3.78201C3.595 15.3334 3.41565 15.2632 3.28341 15.1382C3.15117 15.0131 3.07688 14.8436 3.07688 14.6667V6.50008C3.07688 6.32327 3.15117 6.1537 3.28341 6.02868C3.41565 5.90365 3.595 5.83342 3.78201 5.83342H8.15632C8.20307 5.83342 8.24791 5.81586 8.28097 5.7846C8.31403 5.75334 8.3326 5.71095 8.3326 5.66675V4.33341C8.3326 4.28921 8.31403 4.24682 8.28097 4.21556C8.24791 4.18431 8.20307 4.16675 8.15632 4.16675H3.42945C2.96192 4.16675 2.51354 4.34234 2.18294 4.6549C1.85235 4.96746 1.66663 5.39139 1.66663 5.83342V16.6667C1.66663 16.8856 1.71222 17.1023 1.80081 17.3046C1.8894 17.5068 2.01925 17.6905 2.18294 17.8453C2.34664 18 2.54097 18.1228 2.75484 18.2065C2.96872 18.2903 3.19795 18.3334 3.42945 18.3334H9.07047C9.30197 18.3334 9.5312 18.2903 9.74508 18.2065C9.95895 18.1228 10.1533 18 10.317 17.8453C10.4807 17.6905 10.6105 17.5068 10.6991 17.3046C10.7877 17.1023 10.8333 16.8856 10.8333 16.6667V8.83475C10.8318 8.79094 10.8125 8.74935 10.7794 8.71867C10.7463 8.68798 10.702 8.67058 10.6556 8.67008C10.3161 8.6719 9.97912 8.67581 9.66066 8.56467C9.63422 8.55453 9.60553 8.55075 9.57716 8.55366C9.5488 8.55656 9.52163 8.56607 9.4981 8.58132C9.47456 8.59657 9.45539 8.6171 9.44229 8.64106C9.42919 8.66503 9.42258 8.69169 9.42304 8.71867Z" />
<path d="M17.2756 1.66675H10.2243C9.9438 1.66675 9.67477 1.7717 9.47642 1.95853C9.27806 2.14535 9.16663 2.39874 9.16663 2.66295V6.64776C9.16663 6.91197 9.27806 7.16535 9.47642 7.35218C9.67477 7.539 9.9438 7.64396 10.2243 7.64396H11.9871V8.83475C11.9872 8.90046 12.0079 8.96468 12.0467 9.0193C12.0854 9.07391 12.1406 9.11646 12.205 9.14156C12.2695 9.16666 12.3404 9.17319 12.4088 9.1603C12.4772 9.14742 12.5401 9.11571 12.5893 9.06919L14.1025 7.64396H17.2756C17.5561 7.64396 17.8251 7.539 18.0235 7.35218C18.2219 7.16535 18.3333 6.91197 18.3333 6.64776V2.66295C18.3333 2.39874 18.2219 2.14535 18.0235 1.95853C17.8251 1.7717 17.5561 1.66675 17.2756 1.66675ZM10.7532 4.48932C10.7532 4.35797 10.7945 4.22956 10.872 4.12035C10.9495 4.01113 11.0596 3.92601 11.1885 3.87574C11.3173 3.82547 11.4591 3.81232 11.5959 3.83795C11.7326 3.86357 11.8583 3.92682 11.9569 4.01971C12.0555 4.11259 12.1227 4.23092 12.1499 4.35975C12.1771 4.48858 12.1631 4.62212 12.1097 4.74347C12.0564 4.86483 11.966 4.96855 11.85 5.04153C11.7341 5.1145 11.5978 5.15345 11.4583 5.15345C11.2713 5.15345 11.0919 5.08348 10.9597 4.95893C10.8275 4.83438 10.7532 4.66546 10.7532 4.48932ZM13.2211 4.48932C13.2211 4.35797 13.2625 4.22956 13.3399 4.12035C13.4174 4.01113 13.5276 3.92601 13.6564 3.87574C13.7852 3.82547 13.927 3.81232 14.0638 3.83795C14.2006 3.86357 14.3262 3.92682 14.4248 4.01971C14.5235 4.11259 14.5906 4.23092 14.6178 4.35975C14.645 4.48858 14.6311 4.62212 14.5777 4.74347C14.5243 4.86483 14.4339 4.96855 14.318 5.04153C14.202 5.1145 14.0657 5.15345 13.9262 5.15345C13.7392 5.15345 13.5599 5.08348 13.4276 4.95893C13.2954 4.83438 13.2211 4.66546 13.2211 4.48932ZM16.3942 5.15345C16.2547 5.15345 16.1184 5.1145 16.0024 5.04153C15.8865 4.96855 15.7961 4.86483 15.7427 4.74347C15.6894 4.62212 15.6754 4.48858 15.7026 4.35975C15.7298 4.23092 15.797 4.11259 15.8956 4.01971C15.9942 3.92682 16.1198 3.86357 16.2566 3.83795C16.3934 3.81232 16.5352 3.82547 16.664 3.87574C16.7929 3.92601 16.903 4.01113 16.9805 4.12035C17.058 4.22956 17.0993 4.35797 17.0993 4.48932C17.0993 4.66546 17.025 4.83438 16.8928 4.95893C16.7606 5.08348 16.5812 5.15345 16.3942 5.15345Z" />
</svg>