<!--character:6926-->
  <svg width="20" height="20" viewBox="0 0 20 20" >
<path d="M9.4234 8.71858V14.6667C9.4234 14.8435 9.34911 15.013 9.21688 15.1381C9.08464 15.2631 8.90529 15.3333 8.71827 15.3333H3.78238C3.59537 15.3333 3.41601 15.2631 3.28378 15.1381C3.15154 15.013 3.07725 14.8435 3.07725 14.6667V6.5C3.07725 6.32319 3.15154 6.15362 3.28378 6.02859C3.41601 5.90357 3.59537 5.83333 3.78238 5.83333H8.15669C8.20344 5.83333 8.24828 5.81577 8.28134 5.78452C8.3144 5.75326 8.33297 5.71087 8.33297 5.66666V4.33333C8.33297 4.28913 8.3144 4.24674 8.28134 4.21548C8.24828 4.18422 8.20344 4.16666 8.15669 4.16666H3.42981C2.96228 4.16666 2.5139 4.34226 2.18331 4.65482C1.85272 4.96738 1.66699 5.3913 1.66699 5.83333V16.6667C1.66699 16.8855 1.71259 17.1023 1.80118 17.3045C1.88977 17.5067 2.01962 17.6904 2.18331 17.8452C2.347 17.9999 2.54134 18.1227 2.75521 18.2065C2.96909 18.2902 3.19832 18.3333 3.42981 18.3333H9.07084C9.30234 18.3333 9.53157 18.2902 9.74544 18.2065C9.95932 18.1227 10.1536 17.9999 10.3173 17.8452C10.481 17.6904 10.6109 17.5067 10.6995 17.3045C10.7881 17.1023 10.8337 16.8855 10.8337 16.6667V8.83467C10.8322 8.79086 10.8129 8.74927 10.7798 8.71858C10.7467 8.6879 10.7023 8.6705 10.656 8.67C10.3165 8.67182 9.97949 8.67573 9.66103 8.56458C9.63459 8.55445 9.6059 8.55067 9.57753 8.55357C9.54916 8.55648 9.522 8.56598 9.49846 8.58123C9.47493 8.59649 9.45575 8.61701 9.44266 8.64098C9.42956 8.66495 9.42294 8.69161 9.4234 8.71858Z" />
<path d="M17.276 1.66666H10.2247C9.94417 1.66666 9.67514 1.77162 9.47678 1.95844C9.27843 2.14527 9.16699 2.39866 9.16699 2.66287V6.64767C9.16699 6.91188 9.27843 7.16527 9.47678 7.35209C9.67514 7.53892 9.94417 7.64387 10.2247 7.64387H11.9875V8.83467C11.9875 8.90037 12.0082 8.9646 12.047 9.01921C12.0858 9.07383 12.1409 9.11638 12.2054 9.14148C12.2699 9.16658 12.3408 9.1731 12.4092 9.16022C12.4776 9.14734 12.5404 9.11563 12.5897 9.06911L14.1029 7.64387H17.276C17.5565 7.64387 17.8255 7.53892 18.0239 7.35209C18.2222 7.16527 18.3337 6.91188 18.3337 6.64767V2.66287C18.3337 2.39866 18.2222 2.14527 18.0239 1.95844C17.8255 1.77162 17.5565 1.66666 17.276 1.66666ZM10.7535 4.48924C10.7535 4.35788 10.7949 4.22948 10.8724 4.12026C10.9498 4.01105 11.06 3.92592 11.1888 3.87566C11.3177 3.82539 11.4594 3.81224 11.5962 3.83786C11.733 3.86349 11.8586 3.92674 11.9573 4.01962C12.0559 4.1125 12.123 4.23084 12.1502 4.35967C12.1774 4.4885 12.1635 4.62203 12.1101 4.74339C12.0567 4.86474 11.9664 4.96847 11.8504 5.04144C11.7345 5.11442 11.5981 5.15337 11.4587 5.15337C11.2716 5.15337 11.0923 5.0834 10.9601 4.95885C10.8278 4.8343 10.7535 4.66537 10.7535 4.48924ZM13.2215 4.48924C13.2215 4.35788 13.2628 4.22948 13.3403 4.12026C13.4178 4.01105 13.5279 3.92592 13.6568 3.87566C13.7856 3.82539 13.9274 3.81224 14.0642 3.83786C14.201 3.86349 14.3266 3.92674 14.4252 4.01962C14.5238 4.1125 14.591 4.23084 14.6182 4.35967C14.6454 4.4885 14.6314 4.62203 14.5781 4.74339C14.5247 4.86474 14.4343 4.96847 14.3184 5.04144C14.2024 5.11442 14.0661 5.15337 13.9266 5.15337C13.7396 5.15337 13.5602 5.0834 13.428 4.95885C13.2958 4.8343 13.2215 4.66537 13.2215 4.48924ZM16.3946 5.15337C16.2551 5.15337 16.1188 5.11442 16.0028 5.04144C15.8869 4.96847 15.7965 4.86474 15.7431 4.74339C15.6897 4.62203 15.6758 4.4885 15.703 4.35967C15.7302 4.23084 15.7973 4.1125 15.896 4.01962C15.9946 3.92674 16.1202 3.86349 16.257 3.83786C16.3938 3.81224 16.5356 3.82539 16.6644 3.87566C16.7932 3.92592 16.9034 4.01105 16.9809 4.12026C17.0583 4.22948 17.0997 4.35788 17.0997 4.48924C17.0997 4.66537 17.0254 4.8343 16.8932 4.95885C16.7609 5.0834 16.5816 5.15337 16.3946 5.15337Z" />
</svg>