<!--character:1802-->
  <svg width="20" height="20" viewBox="0 0 20 20" >
<path d="M5.33696 13.9587C5.26752 13.9587 5.19807 13.8893 5.19807 13.8198V6.18015C5.19807 6.1107 5.26752 6.04126 5.33696 6.04126H6.65645C7.28147 6.04126 7.55995 5.27734 7.14257 4.86136L4.98973 2.70782C4.71194 2.43073 4.29526 2.43073 4.01748 2.70782L1.86463 4.86136C1.44795 5.27734 1.72574 6.04126 2.35076 6.04126H3.67024C3.73969 6.04126 3.80914 6.1107 3.80914 6.18015V13.8198C3.80914 13.8893 3.73969 13.9587 3.67024 13.9587H2.35076C1.72574 13.9587 1.44795 14.7227 1.86463 15.1386L4.01748 17.2922C4.29526 17.5693 4.71194 17.5693 4.98973 17.2922L7.14257 15.1386C7.55995 14.7227 7.28147 13.9587 6.65645 13.9587H5.33696Z" />
<path d="M17.4998 6.67275H9.58317C9.12293 6.67275 8.74984 6.29965 8.74984 5.83941C8.74984 5.37918 9.12293 5.00608 9.58317 5.00608H17.4998C17.9601 5.00608 18.3332 5.37918 18.3332 5.83941C18.3332 6.29965 17.9601 6.67275 17.4998 6.67275Z" />
<path d="M14.9998 9.17275H9.58317C9.12293 9.17275 8.74984 9.54584 8.74984 10.0061C8.74984 10.4663 9.12293 10.8394 9.58317 10.8394H14.9998C15.4601 10.8394 15.8332 10.4663 15.8332 10.0061C15.8332 9.54584 15.4601 9.17275 14.9998 9.17275Z" />
<path d="M9.58317 13.3394H12.4998C12.9601 13.3394 13.3332 13.7125 13.3332 14.1727C13.3332 14.633 12.9601 15.0061 12.4998 15.0061H9.58317C9.12293 15.0061 8.74984 14.633 8.74984 14.1727C8.74984 13.7125 9.12293 13.3394 9.58317 13.3394Z" />
</svg>