<!--added:0.28-->
<!--character:E171-->
<svg width="24" height="24" viewBox="0 0 24 24" xmlns="http://www.w3.org/2000/svg"><path d="M6.2379 16.5838c0 .0834.0833.1667.1667.1667h1.5833c.75 0 1.0842.9167.5834 1.4159l-2.5834 2.5842c-.3334.3325-.8334.3325-1.1667 0l-2.5834-2.5842c-.5-.4992-.1667-1.416.5833-1.416h1.5834c.0833 0 .1667-.0832.1667-.1666V7.4162c0-.0834-.0834-.1667-.1667-.1667H2.821c-.75 0-1.0834-.9167-.5833-1.4159l2.5834-2.5842c.3333-.3325.8333-.3325 1.1667 0l2.5834 2.5842c.5008.4992.1667 1.416-.5834 1.416H6.4046c-.0834 0-.1667.0832-.1667.1666v9.1676zM11.5 8.0073c-.5523 0-1-.4477-1-1s.4477-1 1-1H21c.5523 0 1 .4477 1 1s-.4477 1-1 1h-9.5zm6.5 3c.5523 0 1 .4477 1 1s-.4477 1-1 1h-6.5c-.5523 0-1-.4477-1-1s.4477-1 1-1H18zm-3 5c.5523 0 1 .4477 1 1s-.4477 1-1 1h-3.5c-.5523 0-1-.4477-1-1s.4477-1 1-1H15z"/></svg>
