<!-- character:0:676 -->
  <svg width="20" height="20" viewBox="0 0 20 20" >
<path   d="M5.33715 13.9587C5.2677 13.9587 5.19825 13.8893 5.19825 13.8198V6.18015C5.19825 6.1107 5.2677 6.04126 5.33715 6.04126H6.65663C7.28165 6.04126 7.56013 5.27734 7.14276 4.86136L4.98991 2.70782C4.71213 2.43073 4.29545 2.43073 4.01766 2.70782L1.86482 4.86136C1.44814 5.27734 1.72592 6.04126 2.35094 6.04126H3.67043C3.73987 6.04126 3.80932 6.1107 3.80932 6.18015V13.8198C3.80932 13.8893 3.73987 13.9587 3.67043 13.9587H2.35094C1.72592 13.9587 1.44814 14.7227 1.86482 15.1386L4.01766 17.2922C4.29545 17.5693 4.71213 17.5693 4.98991 17.2922L7.14276 15.1386C7.56013 14.7227 7.28165 13.9587 6.65663 13.9587H5.33715ZM17.5 6.67275H9.58335C9.12312 6.67275 8.75002 6.29965 8.75002 5.83941C8.75002 5.37918 9.12312 5.00608 9.58335 5.00608H17.5C17.9603 5.00608 18.3334 5.37918 18.3334 5.83941C18.3334 6.29965 17.9603 6.67275 17.5 6.67275ZM15 9.17275H9.58335C9.12312 9.17275 8.75002 9.54584 8.75002 10.0061C8.75002 10.4663 9.12312 10.8394 9.58335 10.8394H15C15.4603 10.8394 15.8334 10.4663 15.8334 10.0061C15.8334 9.54584 15.4603 9.17275 15 9.17275ZM9.58335 13.3394H12.5C12.9603 13.3394 13.3334 13.7125 13.3334 14.1727C13.3334 14.633 12.9603 15.0061 12.5 15.0061H9.58335C9.12312 15.0061 8.75002 14.633 8.75002 14.1727C8.75002 13.7125 9.12312 13.3394 9.58335 13.3394Z" />
</svg>