<!--character:340-->
  <svg width="24" height="24" viewBox="0 0 24 24" >
<path d="M9.53505 7.17307C9.45324 7.17307 9.37143 7.25488 9.37143 7.33669V14.0656C9.37143 14.3804 9.11622 14.6356 8.80142 14.6356H8.30523C7.99042 14.6356 7.73521 14.3804 7.73521 14.0656V7.33669C7.73521 7.25488 7.6534 7.17307 7.57159 7.17307H6.01719C5.28089 7.17307 4.95365 6.27315 5.44451 5.7831L7.98065 3.24615C8.30789 2.91973 8.79875 2.91973 9.126 3.24615L11.6621 5.7831C12.1538 6.27315 11.8258 7.17307 11.0895 7.17307H9.53505Z" />
<path d="M16.4282 16.8269C16.3464 16.8269 16.2645 16.7451 16.2645 16.6632V9.93431C16.2645 9.6195 16.0093 9.3643 15.6945 9.3643H15.1983C14.8835 9.3643 14.6283 9.6195 14.6283 9.93431V16.6632C14.6283 16.7451 14.5465 16.8269 14.4647 16.8269H12.9103C12.174 16.8269 11.8468 17.7268 12.3376 18.2168L14.8738 20.7538C15.201 21.0802 15.6919 21.0802 16.0191 20.7538L18.5552 18.2168C19.0469 17.7268 18.7189 16.8269 17.9826 16.8269H16.4282Z" />
</svg>