<!--character:1188-->
  <svg width="24" height="24" viewBox="0 0 24 24" >
<path d="M6.40454 16.7505C6.3212 16.7505 6.23787 16.6672 6.23787 16.5838V7.41618C6.23787 7.33284 6.3212 7.24951 6.40454 7.24951H7.98792C8.73795 7.24951 9.07212 6.33281 8.57127 5.83363L5.98786 3.24938C5.65452 2.91687 5.1545 2.91687 4.82116 3.24938L2.23774 5.83363C1.73773 6.33281 2.07107 7.24951 2.82109 7.24951H4.40448C4.48781 7.24951 4.57115 7.33284 4.57115 7.41618V16.5838C4.57115 16.6672 4.48781 16.7505 4.40448 16.7505H2.82109C2.07107 16.7505 1.73773 17.6672 2.23774 18.1664L4.82116 20.7506C5.1545 21.0831 5.65452 21.0831 5.98786 20.7506L8.57127 18.1664C9.07212 17.6672 8.73795 16.7505 7.98792 16.7505H6.40454Z" />
<path d="M21 8.00729H11.5C10.9477 8.00729 10.5 7.55958 10.5 7.00729C10.5 6.45501 10.9477 6.0073 11.5 6.0073H21C21.5523 6.0073 22 6.45501 22 7.00729C22 7.55958 21.5523 8.00729 21 8.00729Z" />
<path d="M18 11.0073H11.5C10.9477 11.0073 10.5 11.455 10.5 12.0073C10.5 12.5596 10.9477 13.0073 11.5 13.0073H18C18.5523 13.0073 19 12.5596 19 12.0073C19 11.455 18.5523 11.0073 18 11.0073Z" />
<path d="M11.5 16.0073H15C15.5523 16.0073 16 16.455 16 17.0073C16 17.5596 15.5523 18.0073 15 18.0073H11.5C10.9477 18.0073 10.5 17.5596 10.5 17.0073C10.5 16.455 10.9477 16.0073 11.5 16.0073Z" />
</svg>