<!--character:3778-->
  <svg width="24" height="24" viewBox="0 0 24 24" >
<path d="M6.40436 16.7505C6.32102 16.7505 6.23768 16.6672 6.23768 16.5838V7.41618C6.23768 7.33284 6.32102 7.24951 6.40436 7.24951H7.98774C8.73776 7.24951 9.07194 6.33281 8.57109 5.83363L5.98768 3.24938C5.65433 2.91687 5.15432 2.91687 4.82097 3.24938L2.23756 5.83363C1.73754 6.33281 2.07089 7.24951 2.82091 7.24951H4.40429C4.48763 7.24951 4.57097 7.33284 4.57097 7.41618V16.5838C4.57097 16.6672 4.48763 16.7505 4.40429 16.7505H2.82091C2.07089 16.7505 1.73754 17.6672 2.23756 18.1664L4.82097 20.7506C5.15432 21.0831 5.65433 21.0831 5.98768 20.7506L8.57109 18.1664C9.07194 17.6672 8.73776 16.7505 7.98774 16.7505H6.40436Z" />
<path d="M20.9998 8.00729H11.4998C10.9475 8.00729 10.4998 7.55958 10.4998 7.00729C10.4998 6.45501 10.9475 6.0073 11.4998 6.0073H20.9998C21.5521 6.0073 21.9998 6.45501 21.9998 7.00729C21.9998 7.55958 21.5521 8.00729 20.9998 8.00729Z" />
<path d="M17.9998 11.0073H11.4998C10.9475 11.0073 10.4998 11.455 10.4998 12.0073C10.4998 12.5596 10.9475 13.0073 11.4998 13.0073H17.9998C18.5521 13.0073 18.9998 12.5596 18.9998 12.0073C18.9998 11.455 18.5521 11.0073 17.9998 11.0073Z" />
<path d="M11.4998 16.0073H14.9998C15.5521 16.0073 15.9998 16.455 15.9998 17.0073C15.9998 17.5596 15.5521 18.0073 14.9998 18.0073H11.4998C10.9475 18.0073 10.4998 17.5596 10.4998 17.0073C10.4998 16.455 10.9475 16.0073 11.4998 16.0073Z" />
</svg>