<!--character:$550:660-->
  <svg width="24" height="24" viewBox="0 0 24 24" >
<path d="M6.40455 16.7505C6.32122 16.7505 6.23788 16.6672 6.23788 16.5838V7.41618C6.23788 7.33284 6.32122 7.24951 6.40455 7.24951H7.98793C8.73796 7.24951 9.07213 6.33281 8.57129 5.83363L5.98787 3.24938C5.65453 2.91687 5.15451 2.91687 4.82117 3.24938L2.23775 5.83363C1.73774 6.33281 2.07108 7.24951 2.82111 7.24951H4.40449C4.48782 7.24951 4.57116 7.33284 4.57116 7.41618V16.5838C4.57116 16.6672 4.48782 16.7505 4.40449 16.7505H2.82111C2.07108 16.7505 1.73774 17.6672 2.23775 18.1664L4.82117 20.7506C5.15451 21.0831 5.65453 21.0831 5.98787 20.7506L8.57129 18.1664C9.07213 17.6672 8.73796 16.7505 7.98793 16.7505H6.40455Z" />
<path d="M21 8.0073H11.5C10.9477 8.0073 10.5 7.55959 10.5 7.0073C10.5 6.45502 10.9477 6.0073 11.5 6.0073H21C21.5523 6.0073 22 6.45502 22 7.0073C22 7.55959 21.5523 8.0073 21 8.0073Z" />
<path d="M18 11.0073H11.5C10.9477 11.0073 10.5 11.455 10.5 12.0073C10.5 12.5596 10.9477 13.0073 11.5 13.0073H18C18.5523 13.0073 19 12.5596 19 12.0073C19 11.455 18.5523 11.0073 18 11.0073Z" />
<path d="M11.5 16.0073H15C15.5523 16.0073 16 16.455 16 17.0073C16 17.5596 15.5523 18.0073 15 18.0073H11.5C10.9477 18.0073 10.5 17.5596 10.5 17.0073C10.5 16.455 10.9477 16.0073 11.5 16.0073Z" />
</svg>