<!--character:2870-->
<svg width="24" height="24" viewBox="0 0 24 24">
  <path d="M12.301 15.0442C12.2219 15.1258 12.1132 15.1719 11.9996 15.1722C11.8857 15.1721 11.7767 15.126 11.6974 15.0442C11.5872 14.9306 9.00892 12.2353 9.00892 8.83974C9.12948 6.69903 9.95221 4.65773 11.3498 3.03172C11.5146 2.84617 11.751 2.74 11.9992 2.74C12.2474 2.74 12.4838 2.84617 12.6486 3.03172C14.0464 4.65763 14.8691 6.69899 14.9895 8.83974C14.9895 12.2353 12.4112 14.9306 12.301 15.0442Z" />
  <path d="M14.6402 14.0232C15.6418 12.4755 16.1994 10.6825 16.2521 8.83973C16.2503 8.21181 16.1778 7.5861 16.0358 6.97444C15.9906 6.77586 16.0941 6.57345 16.2816 6.4938C16.7728 6.28325 17.2793 6.1102 17.7967 5.97613C18.0288 5.91719 18.2751 5.96502 18.4683 6.10656C18.6614 6.2481 18.7813 6.46853 18.795 6.70761C18.9462 8.6549 18.4513 10.5977 17.3868 12.2353C16.7281 13.1032 15.8856 13.8146 14.9196 14.3186C14.8358 14.3641 14.7319 14.3475 14.6664 14.2783C14.6009 14.209 14.5901 14.1043 14.6402 14.0232Z" />
  <path d="M21.3993 9.88518C21.631 9.94583 21.8236 10.1066 21.9246 10.3237C22.0259 10.5404 22.0252 10.791 21.9229 11.0072C21.1149 12.786 19.7434 14.2491 18.0206 15.1705C17.2959 15.4998 16.5201 15.7023 15.7269 15.7689C15.6277 15.7779 15.5358 15.7161 15.5067 15.6209C15.4776 15.5256 15.5192 15.423 15.6065 15.375C16.7021 14.7893 17.6576 13.9728 18.407 12.9819C19.0515 12.0781 19.5093 11.0548 19.7537 9.97188C19.8041 9.76113 20.0063 9.62308 20.2209 9.65286C20.6178 9.70796 21.0112 9.78552 21.3993 9.88518Z" />
  <path d="M18.5509 16.3161C19.1511 16.0326 19.7122 15.6728 20.2201 15.2454C20.384 15.1134 20.6201 15.1227 20.7731 15.2673C21.3114 15.7051 21.64 16.3497 21.678 17.0425C21.678 18.1485 20.6931 19.1536 19.0888 19.9044C18.9857 19.9524 18.8676 19.9567 18.7613 19.9162L15.4785 18.6662C15.3193 18.6059 15.1395 18.6474 15.0228 18.7714C14.9062 18.8954 14.8758 19.0775 14.9457 19.2327L15.4853 20.4255C15.5395 20.5457 15.5342 20.6843 15.471 20.8C15.4079 20.9158 15.2941 20.9952 15.1637 21.0147C14.1161 21.1689 13.0585 21.246 11.9996 21.2453C6.65457 21.2453 2.3196 19.3598 2.3196 17.0366C2.35761 16.3438 2.68618 15.6992 3.22447 15.2614C3.37918 15.1176 3.61645 15.1108 3.77918 15.2454C4.28708 15.6728 4.84813 16.0326 5.44835 16.3161C6.58958 16.8247 7.82776 17.0792 9.0771 17.0619C10.0281 17.0587 10.9752 16.9405 11.8978 16.71C11.9646 16.6933 12.0346 16.6933 12.1015 16.71C13.0241 16.9406 13.9712 17.0587 14.9221 17.0619C16.1715 17.0792 17.4097 16.8247 18.5509 16.3161Z" />
  <path d="M5.98033 15.1705C6.70504 15.4997 7.48088 15.7022 8.27408 15.7689C8.37343 15.7784 8.46575 15.7167 8.49511 15.6213C8.52446 15.5259 8.48276 15.4231 8.39529 15.375C7.29924 14.7896 6.34344 13.9731 5.59397 12.9819C4.94906 12.0787 4.49064 11.056 4.24551 9.97356C4.19512 9.76282 3.99297 9.62477 3.77834 9.65454C3.38144 9.70956 2.98799 9.78712 2.5999 9.88686C2.36811 9.94729 2.17545 10.1082 2.07462 10.3254C1.97379 10.5427 1.97535 10.7937 2.07886 11.0097C2.88688 12.7876 4.25802 14.2499 5.98033 15.1705Z" />
  <path d="M9.07878 14.3186C9.16279 14.3647 9.26729 14.3482 9.33302 14.2785C9.39875 14.2088 9.40912 14.1035 9.35824 14.0223C8.35664 12.4749 7.79907 10.6823 7.7463 8.83973C7.74697 8.21194 7.81841 7.58622 7.95927 6.97444C8.00452 6.77608 7.90141 6.57375 7.71432 6.4938C7.22307 6.28325 6.71657 6.1102 6.19919 5.97613C5.96695 5.91717 5.72051 5.96511 5.52731 6.10683C5.33411 6.24855 5.21438 6.46922 5.20088 6.70845C5.05075 8.65585 5.5469 10.5984 6.61248 12.2353C7.27092 13.1031 8.11313 13.8145 9.07878 14.3186Z" />
</svg>
