<!--character:1759-->
  <svg width="20" height="20" viewBox="0 0 20 20" >
<path d="M10.2508 12.5368C10.1849 12.6048 10.0943 12.6433 9.99968 12.6435C9.90478 12.6435 9.81392 12.605 9.74786 12.5368C9.65597 12.4421 7.50743 10.1961 7.50743 7.36645C7.6079 5.58253 8.29351 3.88144 9.45816 2.52644C9.59554 2.37181 9.7925 2.28333 9.99933 2.28333C10.2062 2.28333 10.4031 2.37181 10.5405 2.52644C11.7053 3.88136 12.3909 5.58249 12.4912 7.36645C12.4912 10.1961 10.3427 12.4421 10.2508 12.5368Z" />
<path d="M12.2001 11.686C13.0348 10.3962 13.4995 8.9021 13.5434 7.36645C13.5419 6.84318 13.4815 6.32175 13.3631 5.81203C13.3255 5.64655 13.4118 5.47788 13.568 5.4115C13.9773 5.23604 14.3994 5.09183 14.8306 4.98011C15.024 4.93099 15.2292 4.97085 15.3902 5.0888C15.5512 5.20675 15.651 5.39044 15.6625 5.58967C15.7885 7.21242 15.3761 8.83146 14.489 10.1961C13.94 10.9193 13.238 11.5122 12.433 11.9322C12.3632 11.9701 12.2766 11.9563 12.222 11.8986C12.1674 11.8408 12.1584 11.7536 12.2001 11.686Z" />
<path d="M17.8328 8.23765C18.0258 8.28819 18.1863 8.42217 18.2705 8.6031C18.3549 8.78369 18.3544 8.99251 18.2691 9.17268C17.5957 10.655 16.4529 11.8743 15.0172 12.6421C14.4133 12.9165 13.7667 13.0852 13.1057 13.1408C13.0231 13.1482 12.9465 13.0967 12.9223 13.0174C12.898 12.938 12.9327 12.8525 13.0054 12.8125C13.9184 12.3244 14.7147 11.644 15.3391 10.8183C15.8762 10.0651 16.2578 9.21231 16.4614 8.3099C16.5034 8.13428 16.6719 8.01923 16.8508 8.04405C17.1815 8.08996 17.5094 8.1546 17.8328 8.23765Z" />
<path d="M15.4591 13.5967C15.9593 13.3605 16.4268 13.0606 16.8501 12.7045C16.9866 12.5945 17.1834 12.6023 17.3109 12.7227C17.7595 13.0876 18.0333 13.6247 18.065 14.2021C18.065 15.1238 17.2443 15.9613 15.9073 16.587C15.8214 16.627 15.723 16.6306 15.6344 16.5968L12.8988 15.5552C12.7661 15.5049 12.6162 15.5395 12.519 15.6429C12.4218 15.7462 12.3965 15.8979 12.4548 16.0273L12.9044 17.0212C12.9495 17.1214 12.9451 17.2369 12.8925 17.3334C12.8399 17.4298 12.7451 17.496 12.6364 17.5122C11.7634 17.6407 10.8821 17.705 9.99968 17.7044C5.54547 17.7044 1.933 16.1332 1.933 14.1972C1.96467 13.6198 2.23848 13.0826 2.68706 12.7178C2.81598 12.598 3.01371 12.5923 3.14932 12.7045C3.57257 13.0606 4.0401 13.3605 4.54029 13.5967C5.49132 14.0206 6.52313 14.2327 7.56425 14.2182C8.35672 14.2156 9.14597 14.1171 9.91481 13.925C9.97054 13.9111 10.0288 13.9111 10.0846 13.925C10.8534 14.1172 11.6426 14.2156 12.4351 14.2182C13.4762 14.2327 14.508 14.0206 15.4591 13.5967Z" />
<path d="M4.98361 12.6421C5.58753 12.9165 6.23407 13.0851 6.89506 13.1408C6.97786 13.1487 7.0548 13.0973 7.07926 13.0178C7.10371 12.9383 7.06897 12.8526 6.99607 12.8125C6.0827 12.3247 5.2862 11.6442 4.66165 10.8183C4.12422 10.0656 3.7422 9.21333 3.53792 8.3113C3.49594 8.13568 3.32747 8.02064 3.14862 8.04545C2.81786 8.0913 2.48999 8.15594 2.16659 8.23905C1.97342 8.28941 1.81287 8.42346 1.72885 8.60454C1.64483 8.78561 1.64612 8.99477 1.73239 9.17479C2.40573 10.6564 3.54835 11.8749 4.98361 12.6421Z" />
<path d="M7.56565 11.9322C7.63565 11.9706 7.72274 11.9568 7.77752 11.8987C7.83229 11.8407 7.84093 11.7529 7.79853 11.6853C6.96387 10.3958 6.49922 8.90188 6.45525 7.36645C6.45581 6.84328 6.51534 6.32185 6.63272 5.81203C6.67043 5.64673 6.58451 5.47812 6.4286 5.4115C6.01922 5.23604 5.59714 5.09183 5.16599 4.98011C4.97246 4.93098 4.76709 4.97092 4.60609 5.08903C4.44509 5.20713 4.34532 5.39102 4.33407 5.59037C4.20896 7.21321 4.62241 8.83201 5.5104 10.1961C6.0591 10.9192 6.76094 11.5121 7.56565 11.9322Z" />
</svg>