<!--character:1054-->
  <svg width="24" height="24" viewBox="0 0 24 24" >
<path d="M12.3009 15.0442C12.2218 15.1258 12.1131 15.1719 11.9995 15.1721C11.8856 15.1721 11.7766 15.126 11.6973 15.0442C11.5871 14.9306 9.00881 12.2353 9.00881 8.83973C9.12938 6.69902 9.95211 4.65772 11.3497 3.03171C11.5145 2.84616 11.7509 2.73999 11.9991 2.73999C12.2473 2.73999 12.4836 2.84616 12.6485 3.03171C14.0462 4.65763 14.869 6.69898 14.9894 8.83973C14.9894 12.2353 12.4111 14.9306 12.3009 15.0442Z" />
<path d="M14.6401 14.0232C15.6417 12.4755 16.1993 10.6825 16.252 8.83972C16.2502 8.2118 16.1777 7.58608 16.0357 6.97442C15.9905 6.77585 16.0941 6.57344 16.2815 6.49379C16.7727 6.28323 17.2792 6.11018 17.7966 5.97612C18.0287 5.91717 18.275 5.96501 18.4682 6.10654C18.6613 6.24808 18.7812 6.46852 18.7949 6.70759C18.9462 8.65489 18.4512 10.5977 17.3867 12.2353C16.728 13.1032 15.8855 13.8146 14.9195 14.3186C14.8357 14.3641 14.7318 14.3475 14.6663 14.2783C14.6008 14.209 14.59 14.1043 14.6401 14.0232Z" />
<path d="M21.3993 9.88519C21.6309 9.94584 21.8235 10.1066 21.9245 10.3237C22.0258 10.5405 22.0251 10.791 21.9228 11.0072C21.1148 12.786 19.7433 14.2492 18.0205 15.1705C17.2958 15.4999 16.52 15.7023 15.7268 15.769C15.6276 15.7779 15.5357 15.7161 15.5066 15.6209C15.4775 15.5256 15.5192 15.423 15.6064 15.375C16.702 14.7893 17.6575 13.9729 18.4069 12.982C19.0514 12.0781 19.5092 11.0548 19.7536 9.97189C19.804 9.76115 20.0062 9.6231 20.2208 9.65287C20.6177 9.70797 21.0111 9.78554 21.3993 9.88519Z" />
<path d="M18.5508 16.3161C19.151 16.0327 19.7121 15.6728 20.22 15.2454C20.3838 15.1134 20.62 15.1228 20.773 15.2673C21.3113 15.7051 21.6398 16.3497 21.6779 17.0425C21.6779 18.1486 20.693 19.1536 19.0887 19.9044C18.9856 19.9524 18.8675 19.9567 18.7612 19.9162L15.4784 18.6662C15.3192 18.6059 15.1394 18.6474 15.0227 18.7715C14.9061 18.8955 14.8757 19.0775 14.9456 19.2327L15.4852 20.4255C15.5393 20.5457 15.5341 20.6843 15.4709 20.8C15.4078 20.9158 15.294 20.9952 15.1636 21.0147C14.116 21.1689 13.0584 21.246 11.9995 21.2453C6.65446 21.2453 2.31949 19.3598 2.31949 17.0366C2.3575 16.3438 2.68607 15.6992 3.22436 15.2614C3.37907 15.1177 3.61634 15.1108 3.77907 15.2454C4.28697 15.6728 4.84802 16.0327 5.44824 16.3161C6.58948 16.8248 7.82765 17.0792 9.07699 17.0619C10.028 17.0587 10.9751 16.9405 11.8977 16.71C11.9645 16.6933 12.0345 16.6933 12.1014 16.71C13.024 16.9406 13.9711 17.0588 14.922 17.0619C16.1714 17.0792 17.4096 16.8248 18.5508 16.3161Z" />
<path d="M5.98024 15.1704C6.70494 15.4997 7.48078 15.7021 8.27398 15.7689C8.37334 15.7783 8.46566 15.7167 8.49501 15.6213C8.52436 15.5259 8.48267 15.423 8.39519 15.375C7.29915 14.7895 6.34334 13.973 5.59388 12.9819C4.94896 12.0787 4.49055 11.056 4.24541 9.97352C4.19503 9.76278 3.99287 9.62473 3.77824 9.6545C3.38134 9.70952 2.98789 9.78709 2.5998 9.88682C2.36801 9.94726 2.17535 10.1081 2.07452 10.3254C1.97369 10.5427 1.97525 10.7937 2.07877 11.0097C2.88678 12.7876 4.25792 14.2499 5.98024 15.1704Z" />
<path d="M9.0787 14.3186C9.1627 14.3647 9.26721 14.3482 9.33294 14.2785C9.39867 14.2088 9.40903 14.1035 9.35815 14.0223C8.35656 12.4749 7.79898 10.6822 7.74622 8.83972C7.74689 8.21192 7.81833 7.58621 7.95918 6.97442C8.00444 6.77606 7.90132 6.57373 7.71423 6.49378C7.22298 6.28323 6.71649 6.11018 6.1991 5.97611C5.96686 5.91715 5.72043 5.96509 5.52723 6.10681C5.33403 6.24854 5.2143 6.4692 5.2008 6.70843C5.05067 8.65583 5.54681 10.5984 6.6124 12.2353C7.27084 13.1031 8.11305 13.8145 9.0787 14.3186Z" />
</svg>