<!-- character:0:2157 -->
  <svg width="20" height="20" viewBox="0 0 20 20" >
<path   d="M10.2507 12.5368C10.1848 12.6048 10.0943 12.6433 9.99959 12.6435C9.90468 12.6434 9.81383 12.605 9.74777 12.5368C9.65588 12.4421 7.50734 10.1961 7.50734 7.36644C7.60781 5.58252 8.29342 3.88144 9.45807 2.52643C9.59545 2.3718 9.79241 2.28333 9.99924 2.28333C10.2061 2.28333 10.403 2.3718 10.5404 2.52643C11.7052 3.88135 12.3908 5.58248 12.4911 7.36644C12.4911 10.1961 10.3426 12.4421 10.2507 12.5368ZM12.2 11.686C13.0347 10.3962 13.4994 8.90209 13.5433 7.36644C13.5418 6.84317 13.4814 6.32174 13.363 5.81202C13.3254 5.64654 13.4117 5.47787 13.5679 5.41149C13.9773 5.23603 14.3993 5.09182 14.8305 4.9801C15.0239 4.93098 15.2291 4.97085 15.3901 5.08879C15.5511 5.20674 15.651 5.39043 15.6624 5.58966C15.7884 7.21241 15.376 8.83145 14.4889 10.1961C13.94 10.9193 13.2379 11.5122 12.4329 11.9322C12.3631 11.9701 12.2765 11.9563 12.2219 11.8986C12.1673 11.8408 12.1583 11.7536 12.2 11.686ZM17.8327 8.23764C18.0257 8.28818 18.1862 8.42216 18.2704 8.60309C18.3548 8.78369 18.3543 8.9925 18.269 9.17267C17.5956 10.655 16.4528 11.8743 15.0171 12.642C14.4132 12.9165 13.7666 13.0852 13.1056 13.1408C13.023 13.1482 12.9464 13.0967 12.9222 13.0174C12.8979 12.938 12.9326 12.8525 13.0053 12.8125C13.9183 12.3244 14.7146 11.644 15.339 10.8183C15.8761 10.065 16.2577 9.2123 16.4614 8.30989C16.5033 8.13427 16.6718 8.01923 16.8507 8.04404C17.1814 8.08996 17.5093 8.15459 17.8327 8.23764ZM15.459 13.5967C15.9592 13.3605 16.4267 13.0606 16.85 12.7045C16.9865 12.5945 17.1834 12.6023 17.3108 12.7227C17.7594 13.0876 18.0332 13.6247 18.0649 14.2021C18.0649 15.1238 17.2442 15.9613 15.9072 16.587C15.8213 16.627 15.7229 16.6305 15.6343 16.5968L12.8987 15.5552C12.766 15.5049 12.6161 15.5395 12.5189 15.6429C12.4218 15.7462 12.3964 15.8979 12.4547 16.0272L12.9043 17.0212C12.9495 17.1214 12.9451 17.2369 12.8924 17.3333C12.8398 17.4298 12.745 17.496 12.6363 17.5122C11.7633 17.6407 10.882 17.705 9.99959 17.7044C5.54538 17.7044 1.93291 16.1332 1.93291 14.1972C1.96458 13.6198 2.23839 13.0826 2.68697 12.7178C2.81589 12.598 3.01362 12.5923 3.14923 12.7045C3.57248 13.0606 4.04001 13.3605 4.5402 13.5967C5.49123 14.0206 6.52304 14.2327 7.56416 14.2182C8.35663 14.2155 9.14588 14.1171 9.91472 13.925C9.97045 13.9111 10.0287 13.9111 10.0845 13.925C10.8533 14.1172 11.6426 14.2156 12.435 14.2182C13.4761 14.2327 14.508 14.0206 15.459 13.5967ZM4.98352 12.642C5.58744 12.9164 6.23398 13.0851 6.89497 13.1408C6.97777 13.1486 7.0547 13.0973 7.07916 13.0178C7.10362 12.9383 7.06888 12.8525 6.99598 12.8125C6.08261 12.3246 5.28611 11.6442 4.66155 10.8183C4.12413 10.0656 3.74211 9.21332 3.53783 8.31129C3.49585 8.13567 3.32738 8.02063 3.14852 8.04544C2.81777 8.09129 2.4899 8.15593 2.16649 8.23904C1.97333 8.2894 1.81278 8.42345 1.72876 8.60453C1.64473 8.78561 1.64603 8.99476 1.7323 9.17478C2.40564 10.6564 3.54826 11.8749 4.98352 12.642ZM7.56556 11.9322C7.63556 11.9706 7.72265 11.9568 7.77743 11.8987C7.8322 11.8407 7.84084 11.7529 7.79844 11.6853C6.96378 10.3958 6.49913 8.90187 6.45516 7.36644C6.45572 6.84328 6.51525 6.32185 6.63263 5.81202C6.67034 5.64673 6.58441 5.47812 6.42851 5.41149C6.01913 5.23603 5.59705 5.09182 5.1659 4.9801C4.97236 4.93097 4.767 4.97092 4.606 5.08902C4.445 5.20712 4.34523 5.39101 4.33398 5.59036C4.20887 7.2132 4.62232 8.83201 5.51031 10.1961C6.05901 10.9192 6.76085 11.5121 7.56556 11.9322Z" />
</svg>