<!--category:services-->
<!--character:E04A-->
<!--added:0.11-->
<svg width="24" height="24" viewBox="0 0 24 24" xmlns="http://www.w3.org/2000/svg"><path d="M20.22 15.2454a.4209.4209 0 0 1 .553.0219 2.462 2.462 0 0 1 .9049 1.7752c0 1.106-.9849 2.111-2.5892 2.862a.4209.4209 0 0 1-.3275.0117l-3.2828-1.25a.4209.4209 0 0 0-.5328.5665l.5396 1.1928a.4209.4209 0 0 1-.3216.5892 21.6333 21.6333 0 0 1-3.164.2306c-5.3451 0-9.68-1.8855-9.68-4.2087a2.462 2.462 0 0 1 .9048-1.7752.4209.4209 0 0 1 .5547-.016 7.6977 7.6977 0 0 0 1.6692 1.0707 8.6194 8.6194 0 0 0 3.6287.7458 11.7995 11.7995 0 0 0 2.8207-.3519.4209.4209 0 0 1 .2037 0 11.7928 11.7928 0 0 0 2.8206.3519 8.6194 8.6194 0 0 0 3.6288-.7458 7.6977 7.6977 0 0 0 1.6692-1.0707zm1.7045-4.9217a.803.803 0 0 1-.0017.6835 8.8913 8.8913 0 0 1-3.9023 4.1633 6.9503 6.9503 0 0 1-2.2937.5984.2104.2104 0 0 1-.1204-.3939 8.5858 8.5858 0 0 0 2.8005-2.393 8.3518 8.3518 0 0 0 1.3467-3.0101.4209.4209 0 0 1 .4672-.319c.3969.055.7903.1326 1.1784.2323a.8039.8039 0 0 1 .5253.4385zM5.9802 15.1705a8.8871 8.8871 0 0 1-3.9014-4.1608.8022.8022 0 0 1 .521-1.1228c.388-.0998.7815-.1773 1.1784-.2324a.4209.4209 0 0 1 .4672.319A8.3518 8.3518 0 0 0 5.594 12.982a8.5799 8.5799 0 0 0 2.8013 2.3931.2104.2104 0 0 1-.1212.394 6.9553 6.9553 0 0 1-2.2938-.5985zM16.252 8.8397a8.3534 8.3534 0 0 0-.2163-1.8653.4209.4209 0 0 1 .2458-.4806 10.5874 10.5874 0 0 1 1.515-.5177.8022.8022 0 0 1 .9984.7315 8.8804 8.8804 0 0 1-1.4082 5.5277 7.388 7.388 0 0 1-2.4672 2.0833.2104.2104 0 0 1-.2794-.2954 10.0706 10.0706 0 0 0 1.6119-5.1835zm-7.1733 5.479a7.3871 7.3871 0 0 1-2.4663-2.0834 8.8795 8.8795 0 0 1-1.4116-5.5269.8022.8022 0 0 1 .9983-.7323c.5174.1341 1.0239.3072 1.5151.5177.1871.08.2902.2823.245.4806a8.3534 8.3534 0 0 0-.213 1.8653 10.068 10.068 0 0 0 1.612 5.1826.2104.2104 0 0 1-.2795.2963zm2.9208.8535a.4209.4209 0 0 1-.3022-.128c-.1102-.1136-2.6885-2.8089-2.6885-6.2045a9.7516 9.7516 0 0 1 2.3409-5.808.8687.8687 0 0 1 1.2988 0 9.749 9.749 0 0 1 2.3409 5.808c0 3.3956-2.5783 6.0909-2.6885 6.2045a.4209.4209 0 0 1-.3014.128z"/></svg>