<!-- character:0:2005 -->
  <svg width="20" height="20" viewBox="0 0 20 20" >
<path   d="M3.58172 6.42103C3.61473 6.58273 3.75698 6.69885 3.92201 6.69882H6.31936C6.48465 6.69918 6.62729 6.58298 6.66034 6.42103C6.67279 6.35712 6.68477 6.29414 6.69629 6.23358L6.6963 6.23349L6.7041 6.19254C6.96314 4.78345 7.34371 1.66663 5.12068 1.66663C2.89766 1.66663 3.27893 4.78622 3.54144 6.19741C3.5497 6.25413 3.56102 6.31304 3.57262 6.37344L3.58172 6.42103ZM3.93729 7.74331C3.79387 7.74345 3.6653 7.83174 3.61367 7.96555C3.51265 8.22749 3.33416 8.55383 3.1249 8.93643C2.0581 10.8869 0.19158 14.2995 3.71228 18.0966C3.85233 18.248 4.04916 18.334 4.25536 18.3341H5.9867C6.19218 18.3335 6.38814 18.2474 6.5277 18.0966C9.95748 14.3973 8.26169 11.1671 7.16933 9.0864L7.16933 9.08639C6.9474 8.66366 6.75038 8.28838 6.62631 7.96624C6.57509 7.83264 6.44716 7.74413 6.30408 7.74331H3.93729ZM12.778 7.22246C11.2034 7.22058 9.70239 7.88877 8.65002 9.06005C8.55593 9.1644 8.534 9.31518 8.59447 9.44201C9.50909 11.3539 10.2043 13.7964 8.93198 16.4562C8.86614 16.5935 8.8974 16.7577 9.00907 16.8611C10.8366 18.5478 13.5624 18.8144 15.6823 17.514C17.8021 16.2136 18.7995 13.6628 18.124 11.2694C17.4486 8.87593 15.2649 7.22289 12.778 7.22246ZM11.296 9.81494C11.296 9.4057 11.6277 9.07394 12.037 9.07394C12.4462 9.07394 12.778 9.4057 12.778 9.81494C12.778 10.2242 12.4462 10.556 12.037 10.556C11.6277 10.556 11.296 10.2242 11.296 9.81494ZM12.094 13.0616C12.2086 13.3382 12.4786 13.5186 12.778 13.5186C13.1867 13.5182 13.5179 13.187 13.5183 12.7783C13.5183 12.4789 13.3379 12.2089 13.0613 12.0943C12.7847 11.9797 12.4663 12.0431 12.2545 12.2548C12.0428 12.4665 11.9795 12.785 12.094 13.0616ZM15.0003 11.2963C14.7005 11.2965 14.43 11.1161 14.3152 10.8392C14.2003 10.5622 14.2637 10.2433 14.4757 10.0313C14.6877 9.81927 15.0066 9.75592 15.2835 9.87079C15.5605 9.98566 15.7409 10.2561 15.7407 10.556C15.7407 10.9649 15.4093 11.2966 15.0003 11.297V11.2963Z" />
</svg>