<!--character:3024:2855-->
<svg width="24" height="24" viewBox="0 0 24 24">
  <path d="M5.75046 7.94677C5.75046 7.48653 6.12356 7.11343 6.58381 7.11343H9.9172C10.3774 7.11343 10.7505 7.48653 10.7505 7.94677C10.7505 8.40702 10.3774 8.78012 9.9172 8.78012C9.86826 8.78031 9.82256 8.80464 9.79507 8.84513C9.76757 8.88562 9.76182 8.93706 9.77969 8.98262L9.87386 9.21513C9.9163 9.31821 10.0321 9.36989 10.1372 9.33263L14.2406 7.8701C14.2928 7.85143 14.3354 7.81275 14.3589 7.7626C14.3823 7.71198 14.3847 7.65415 14.3656 7.60177L14.2989 7.42093C14.1761 7.08801 14.2006 6.71858 14.3662 6.40476C14.5319 6.09094 14.8231 5.86232 15.1673 5.7759L17.2932 5.24506C17.7398 5.13345 18.1924 5.40507 18.304 5.85174C18.4156 6.29841 18.144 6.75098 17.6973 6.86259L16.2456 7.22509C16.1881 7.2392 16.1393 7.27724 16.1116 7.32963C16.0839 7.38201 16.0799 7.44375 16.1006 7.49927L17.1507 10.351C17.1846 10.4432 17.2784 10.4991 17.3757 10.4851C17.527 10.4614 17.6799 10.4486 17.8332 10.4468C19.8865 10.4379 21.6374 11.9324 21.9509 13.9617C22.2645 15.9909 21.0464 17.9442 19.0861 18.5555C17.1259 19.1668 15.0134 18.252 14.118 16.4042C13.2226 14.5564 13.8137 12.3316 15.5081 11.1718C15.5872 11.1181 15.6198 11.0176 15.5873 10.9277L15.3531 10.2926C15.3262 10.2209 15.2623 10.1694 15.1865 10.1585C15.1105 10.1474 15.0347 10.1795 14.9898 10.2418L11.4222 15.1061C11.2652 15.3204 11.0154 15.447 10.7497 15.4469H10.4164C10.3205 15.4468 10.2369 15.5121 10.2139 15.6052C9.69694 17.7148 7.64625 19.0734 5.5021 18.7269C3.35794 18.3804 1.83961 16.445 2.0135 14.28C2.18739 12.115 3.99516 10.4467 6.16713 10.4468C6.77048 10.4499 7.36562 10.5868 7.90966 10.8477C7.9965 10.888 8.09963 10.8639 8.15967 10.7893L8.45134 10.4251C8.4981 10.3662 8.50955 10.2866 8.48134 10.2168L7.9505 8.91012C7.91887 8.83157 7.84268 8.78011 7.75799 8.78012H6.58381C6.12356 8.78012 5.75046 8.40702 5.75046 7.94677ZM3.68756 15.013C3.88421 16.2281 4.93617 17.1193 6.16713 17.1136C7.10318 17.1121 7.95915 16.5852 8.38217 15.7502C8.41523 15.6857 8.41237 15.6086 8.37462 15.5468C8.33687 15.4849 8.26966 15.447 8.19717 15.4469H6.16713C5.70689 15.4469 5.33379 15.0738 5.33379 14.6136C5.33379 14.1533 5.70689 13.7802 6.16713 13.7802H8.19717C8.26966 13.7801 8.33687 13.7422 8.37462 13.6803C8.41237 13.6185 8.41523 13.5414 8.38217 13.4769C7.82247 12.3805 6.54797 11.8547 5.37803 12.2375C4.20808 12.6203 3.49091 13.7978 3.68756 15.013ZM10.3747 13.7169L12.6556 10.6102C12.7096 10.5363 12.7091 10.4358 12.6544 10.3625C12.5996 10.2891 12.5034 10.2601 12.4172 10.291L10.0572 11.1318C10.0208 11.1451 9.98879 11.1682 9.9647 11.1985L9.45719 11.8327C9.39749 11.9081 9.39749 12.0147 9.45719 12.0902C9.82763 12.56 10.0913 13.1048 10.2297 13.6869C10.2381 13.7169 10.2625 13.7397 10.2931 13.746C10.3236 13.7523 10.3551 13.7411 10.3747 13.7169ZM15.334 14.6136C15.334 15.9943 16.4533 17.1136 17.834 17.1136C19.2147 17.1136 20.334 15.9943 20.334 14.6136C20.334 13.2328 19.2147 12.1135 17.834 12.1135C17.8247 12.1116 17.8151 12.1155 17.8098 12.1235C17.8066 12.1301 17.8066 12.1378 17.8098 12.1443L18.6132 14.3252C18.7236 14.6062 18.6734 14.9249 18.4819 15.1584C18.2905 15.3918 17.9878 15.5035 17.6906 15.4502C17.3935 15.397 17.1483 15.1873 17.0498 14.9019L16.3481 12.9985C16.3234 12.9305 16.265 12.8802 16.1941 12.8659C16.1231 12.8516 16.0498 12.8753 16.0006 12.9285C15.5726 13.3852 15.3343 13.9876 15.334 14.6136Z" />
</svg>
