<!--character:84:550:462-->
<svg width="24" height="24" viewBox="0 0 24 24" xmlns="http://www.w3.org/2000/svg"><path d="M4.298 7.7053c-.0175-.0925-.0358-.1825-.0483-.2684C3.9347 5.7435 3.4772 2 6.1448 2s2.211 3.7402 1.9 5.4311c-.0166.0875-.034.18-.0524.2742a.4167.4167 0 0 1-.4092.3333H4.7064a.4167.4167 0 0 1-.4084-.3333zM7.565 9.292a.4167.4167 0 0 1 .3867.2675c.8817 2.2893 4.8335 6.8154-.1184 12.1565a.8884.8884 0 0 1-.6492.285H5.1064a.888.888 0 0 1-.6517-.285c-5.0536-5.4503-.8575-10.2405-.1183-12.1573a.4167.4167 0 0 1 .3883-.2667H7.565zm7.7687-.625c2.9843.0005 5.6047 1.9842 6.4152 4.8563.8105 2.8721-.3863 5.933-2.9301 7.4935-2.5438 1.5606-5.8148 1.2406-8.0078-.7834a.4167.4167 0 0 1-.0925-.4859c1.5267-3.1918.6925-6.1228-.405-8.417a.4167.4167 0 0 1 .0666-.4584 6.6487 6.6487 0 0 1 4.9536-2.2051zm-1.7784 3.111a.8892.8892 0 1 0 1.7784 0 .8892.8892 0 0 0-1.7784 0zm1.7784 4.4444a.8892.8892 0 0 0 .8884-.8884.8884.8884 0 1 0-.8884.8884zm2.6668-2.6668v.0008a.8892.8892 0 0 0 .8884-.8892.8892.8892 0 1 0-.8884.8884z"/></svg>
