<!--character:6384-->
  <svg width="24" height="24" viewBox="0 0 24 24" >
<path d="M4.29803 7.70528C4.33764 7.89932 4.50834 8.03867 4.70638 8.03863H7.58319C7.78154 8.03907 7.95271 7.89963 7.99238 7.70528C8.0073 7.62863 8.02167 7.55309 8.03549 7.48045L8.04488 7.4311C8.35573 5.74018 8.81242 2 6.14479 2C3.47715 2 3.93468 5.74352 4.24969 7.43693C4.25961 7.50501 4.27319 7.5757 4.28711 7.64818L4.29803 7.70528Z" />
<path d="M7.56487 9.29202H4.72473C4.55263 9.29218 4.39833 9.39813 4.33637 9.5587C4.21515 9.87303 4.00097 10.2646 3.74985 10.7238C2.4697 13.0643 0.229872 17.1595 4.45471 21.716C4.62277 21.8976 4.85897 22.0009 5.10641 22.001H7.18402C7.43059 22.0002 7.66575 21.8969 7.83321 21.716C11.9489 17.2768 9.914 13.4006 8.60318 10.9037C8.33686 10.3964 8.10044 9.9461 7.95155 9.55953C7.89009 9.39921 7.73657 9.293 7.56487 9.29202Z" />
<path d="M15.3336 8.667C13.4441 8.66475 11.6429 9.46657 10.38 10.8721C10.2671 10.9973 10.2408 11.1783 10.3133 11.3305C11.4109 13.6247 12.2451 16.5557 10.7184 19.7475C10.6394 19.9123 10.6769 20.1092 10.8109 20.2334C13.004 22.2574 16.2749 22.5774 18.8187 21.0168C21.3625 19.4563 22.5594 16.3954 21.7488 13.5233C20.9383 10.6512 18.3179 8.66751 15.3336 8.667ZM13.5552 11.778C13.5552 11.2869 13.9533 10.8887 14.4444 10.8887C14.9355 10.8887 15.3336 11.2869 15.3336 11.778C15.3336 12.2691 14.9355 12.6672 14.4444 12.6672C13.9533 12.6672 13.5552 12.2691 13.5552 11.778ZM14.5128 15.6739C14.3753 15.342 14.4513 14.9599 14.7054 14.7058C14.9595 14.4517 15.3416 14.3757 15.6736 14.5132C16.0055 14.6507 16.222 14.9747 16.222 15.334C16.2215 15.8244 15.824 16.2219 15.3336 16.2224C14.9743 16.2224 14.6503 16.0059 14.5128 15.6739ZM18.0004 13.5556C17.6406 13.5559 17.316 13.3394 17.1782 13.007C17.0403 12.6747 17.1164 12.292 17.3708 12.0376C17.6252 11.7832 18.0079 11.7071 18.3402 11.845C18.6726 11.9828 18.8891 12.3074 18.8888 12.6672C18.8888 13.158 18.4912 13.5551 18.0004 13.5556Z" />
</svg>