<!--character:6047-->
  <svg width="20" height="20" viewBox="0 0 20 20" >
<path d="M3.58178 6.42107C3.61479 6.58276 3.75704 6.69889 3.92208 6.69886H6.31942C6.48471 6.69922 6.62735 6.58302 6.66041 6.42107C6.67285 6.35716 6.68483 6.29418 6.69635 6.23362L6.70416 6.19258C6.9632 4.78348 7.34377 1.66666 5.12075 1.66666C2.89772 1.66666 3.27899 4.78626 3.5415 6.19744C3.54976 6.25417 3.56108 6.31308 3.57268 6.37348L3.58178 6.42107Z" />
<path d="M3.93735 7.74335C3.79394 7.74349 3.66536 7.83178 3.61373 7.96559C3.51271 8.22753 3.33422 8.55387 3.12496 8.93647C2.05816 10.8869 0.191641 14.2996 3.71234 18.0966C3.85239 18.248 4.04922 18.3341 4.25542 18.3342H5.98676C6.19224 18.3335 6.3882 18.2475 6.52776 18.0966C9.95754 14.3973 8.26175 11.1672 7.1694 9.08643C6.94747 8.66371 6.75045 8.28842 6.62638 7.96628C6.57515 7.83268 6.44722 7.74417 6.30414 7.74335H3.93735Z" />
<path d="M12.7781 7.22249C11.2035 7.22062 9.70245 7.88881 8.65009 9.06008C8.55599 9.16444 8.53406 9.31521 8.59453 9.44205C9.50916 11.3539 10.2043 13.7964 8.93204 16.4563C8.86621 16.5935 8.89746 16.7577 9.00913 16.8612C10.8367 18.5478 13.5625 18.8145 15.6823 17.514C17.8021 16.2136 18.7995 13.6629 18.1241 11.2694C17.4487 8.87597 15.265 7.22292 12.7781 7.22249ZM11.296 9.81498C11.296 9.40573 11.6278 9.07397 12.0371 9.07397C12.4463 9.07397 12.7781 9.40573 12.7781 9.81498C12.7781 10.2242 12.4463 10.556 12.0371 10.556C11.6278 10.556 11.296 10.2242 11.296 9.81498ZM12.0941 13.0616C11.9795 12.785 12.0429 12.4666 12.2546 12.2548C12.4663 12.0431 12.7847 11.9798 13.0614 12.0944C13.338 12.2089 13.5184 12.4789 13.5184 12.7783C13.518 13.187 13.1868 13.5183 12.7781 13.5186C12.4786 13.5186 12.2087 13.3383 12.0941 13.0616ZM15.0004 11.2963C14.7006 11.2966 14.4301 11.1161 14.3152 10.8392C14.2004 10.5622 14.2637 10.2433 14.4757 10.0313C14.6877 9.81931 15.0066 9.75596 15.2836 9.87083C15.5606 9.9857 15.741 10.2562 15.7407 10.556C15.7407 10.965 15.4094 11.2959 15.0004 11.2963Z" />
</svg>