<!--category:services-->
<!--character:E127-->
<svg width="24" height="24" viewBox="0 0 24 24" xmlns="http://www.w3.org/2000/svg"><path d="M6.5839 7.1134a.8333.8333 0 0 0 0 1.6667H7.758a.2075.2075 0 0 1 .1925.13l.5309 1.3067a.2092.2092 0 0 1-.03.2083l-.2917.3642a.2083.2083 0 0 1-.25.0584 4.0784 4.0784 0 0 0-1.7425-.4009c-2.172-.0001-3.9798 1.6682-4.1537 3.8332-.1738 2.165 1.3445 4.1004 3.4886 4.447 2.1442.3464 4.1949-1.0122 4.7118-3.1218a.2083.2083 0 0 1 .2025-.1583h.3334a.8333.8333 0 0 0 .6725-.3408l3.5675-4.8643a.2058.2058 0 0 1 .1967-.0833.21.21 0 0 1 .1667.1341l.2341.635c.0326.09 0 .1905-.0791.2442-1.6945 1.1598-2.2856 3.3846-1.3902 5.2324.8955 1.8478 3.008 2.7626 4.9682 2.1513 1.9602-.6113 3.1783-2.5646 2.8648-4.5938-.3136-2.0293-2.0645-3.5238-4.1178-3.5149a3.1867 3.1867 0 0 0-.4575.0384.2083.2083 0 0 1-.225-.1342l-1.05-2.8517a.2075.2075 0 0 1 .145-.2742l1.4517-.3625a.8336.8336 0 0 0-.4042-1.6175l-2.1259.5308a1.25 1.25 0 0 0-.8683 1.645l.0667.1809a.2108.2108 0 0 1-.0067.1608.2083.2083 0 0 1-.1183.1075l-4.1035 1.4625a.2092.2092 0 0 1-.2633-.1175l-.0942-.2325a.1483.1483 0 0 1 .1375-.2025.8333.8333 0 1 0 0-1.6667H6.584zm-.4167 10.0002c-1.231.0057-2.283-.8855-2.4796-2.1006-.1966-1.2152.5205-2.3927 1.6905-2.7755 1.17-.3828 2.4444.143 3.0041 1.2394a.2083.2083 0 0 1-.185.3033h-2.03a.8333.8333 0 0 0 0 1.6667h2.03a.2083.2083 0 0 1 .185.3033 2.4876 2.4876 0 0 1-2.215 1.3634zm4.2076-3.3967a.0833.0833 0 0 1-.145-.03 4.1176 4.1176 0 0 0-.7726-1.5967.2075.2075 0 0 1 0-.2575l.5075-.6342a.21.21 0 0 1 .0925-.0667l2.36-.8408a.2083.2083 0 0 1 .2384.3192l-2.2808 3.1067zm7.4592 3.3967c-1.3807 0-2.5-1.1193-2.5-2.5a2.4659 2.4659 0 0 1 .6667-1.685.2075.2075 0 0 1 .3475.07l.7017 1.9033a.8333.8333 0 1 0 1.5633-.5767l-.8033-2.1809a.0233.0233 0 0 1 0-.0208.0233.0233 0 0 1 .0241-.01c1.3808 0 2.5 1.1193 2.5 2.5 0 1.3808-1.1192 2.5-2.5 2.5z"/></svg>