<!--character:2916-->
<svg width="24" height="24" viewBox="0 0 24 24">
  <path d="M4.29814 7.70528C4.33774 7.89932 4.50845 8.03867 4.70649 8.03863H7.5833C7.78165 8.03907 7.95282 7.89962 7.99249 7.70528C8.00742 7.62859 8.02179 7.55301 8.03562 7.48034L8.04499 7.4311C8.35584 5.74018 8.81253 2 6.14489 2C3.47726 2 3.93479 5.74352 4.2498 7.43693C4.25971 7.505 4.2733 7.57569 4.28722 7.64817L4.29814 7.70528Z" />
  <path d="M4.72482 9.29202C4.55272 9.29219 4.39843 9.39814 4.33647 9.5587C4.21525 9.87303 4.00106 10.2646 3.74995 10.7238C2.4698 13.0643 0.22997 17.1595 4.45481 21.716C4.62287 21.8976 4.85906 22.0009 5.10651 22.001H7.18411C7.43069 22.0002 7.66584 21.897 7.83331 21.716C11.949 17.2768 9.9141 13.4006 8.60327 10.9037C8.33696 10.3964 8.10053 9.9461 7.95165 9.55954C7.89018 9.39921 7.73667 9.29301 7.56496 9.29202H4.72482Z" />
  <path d="M15.3337 8.66699C13.4442 8.66474 11.6429 9.46657 10.3801 10.8721C10.2672 10.9973 10.2409 11.1783 10.3134 11.3305C11.411 13.6247 12.2452 16.5557 10.7185 19.7475C10.6394 19.9123 10.6769 20.1092 10.811 20.2334C13.004 22.2574 16.275 22.5774 18.8188 21.0168C21.3626 19.4563 22.5594 16.3954 21.7489 13.5233C20.9384 10.6512 18.318 8.66751 15.3337 8.66699ZM13.5553 11.778C13.5553 11.2869 13.9534 10.8888 14.4445 10.8888C14.9356 10.8888 15.3337 11.2869 15.3337 11.778C15.3337 12.2691 14.9356 12.6672 14.4445 12.6672C13.9534 12.6672 13.5553 12.2691 13.5553 11.778ZM14.5129 15.674C14.3754 15.342 14.4514 14.9599 14.7055 14.7058C14.9596 14.4517 15.3417 14.3757 15.6736 14.5132C16.0056 14.6507 16.2221 14.9747 16.2221 15.334C16.2216 15.8244 15.8241 16.2219 15.3337 16.2224C14.9744 16.2224 14.6504 16.0059 14.5129 15.674ZM18.0005 13.5556C17.6407 13.5559 17.3161 13.3394 17.1783 13.007C17.0404 12.6747 17.1165 12.292 17.3709 12.0376C17.6253 11.7832 18.008 11.7071 18.3403 11.845C18.6727 11.9828 18.8892 12.3074 18.8889 12.6672C18.8889 13.158 18.4913 13.5551 18.0005 13.5556Z" />
</svg>
