<!--character:6784-->
  <svg width="20" height="20" viewBox="0 0 20 20" >
<path d="M4.79205 6.62231C4.79205 6.23877 5.10297 5.92785 5.48651 5.92785H8.26433C8.64787 5.92785 8.95879 6.23877 8.95879 6.62231C8.95879 7.00585 8.64787 7.31677 8.26433 7.31677C8.22355 7.31693 8.18547 7.3372 8.16256 7.37094C8.13964 7.40468 8.13485 7.44755 8.14975 7.48552L8.22822 7.67927C8.26359 7.76518 8.36011 7.80825 8.44767 7.77719L11.8672 6.55842C11.9106 6.54286 11.9461 6.51062 11.9658 6.46884C11.9853 6.42665 11.9873 6.37846 11.9713 6.33481L11.9158 6.18411C11.8134 5.90667 11.8338 5.59881 11.9719 5.3373C12.1099 5.07579 12.3526 4.88527 12.6394 4.81325L14.411 4.37088C14.7832 4.27788 15.1603 4.50422 15.2533 4.87645C15.3463 5.24867 15.12 5.62582 14.7478 5.71882L13.538 6.02091C13.4901 6.03266 13.4494 6.06436 13.4263 6.10802C13.4032 6.15168 13.3999 6.20312 13.4172 6.24939L14.2922 8.62582C14.3205 8.70263 14.3987 8.74923 14.4797 8.73762C14.6059 8.71782 14.7333 8.70715 14.861 8.70568C16.5721 8.69825 18.0311 9.9437 18.2924 11.6347C18.5537 13.3258 17.5386 14.9535 15.9051 15.4629C14.2716 15.9723 12.5112 15.21 11.765 13.6702C11.0188 12.1303 11.5114 10.2763 12.9234 9.30986C12.9894 9.26508 13.0165 9.18131 12.9894 9.10638L12.7943 8.5772C12.7719 8.51738 12.7186 8.47452 12.6554 8.4654C12.5921 8.45617 12.5289 8.48294 12.4915 8.53484L9.51852 12.5884C9.38767 12.767 9.1795 12.8725 8.95809 12.8724H8.68031C8.6004 12.8723 8.53074 12.9268 8.51156 13.0044C8.08078 14.7623 6.37187 15.8945 4.58508 15.6058C2.79829 15.317 1.53301 13.7041 1.67792 11.9C1.82282 10.0958 3.3293 8.70556 5.13928 8.70568C5.64206 8.70824 6.13802 8.82233 6.59139 9.03971C6.66375 9.0733 6.7497 9.05325 6.79972 8.9911L7.04278 8.68762C7.08175 8.63847 7.0913 8.57216 7.06778 8.51401L6.62541 7.4251C6.59906 7.35964 6.53556 7.31676 6.46499 7.31677H5.48651C5.10297 7.31677 4.79205 7.00585 4.79205 6.62231ZM3.07297 12.5108C3.23684 13.5234 4.11347 14.2661 5.13928 14.2613C5.91932 14.2601 6.63262 13.821 6.98514 13.1252C7.01269 13.0714 7.01031 13.0072 6.97885 12.9556C6.94739 12.9041 6.89139 12.8725 6.83097 12.8724H5.13928C4.75574 12.8724 4.44482 12.5615 4.44482 12.178C4.44482 11.7944 4.75574 11.4835 5.13928 11.4835H6.83097C6.89139 11.4834 6.94739 11.4519 6.97885 11.4003C7.01031 11.3487 7.01269 11.2845 6.98514 11.2307C6.51873 10.3171 5.45664 9.87891 4.48169 10.1979C3.50674 10.5169 2.90909 11.4982 3.07297 12.5108ZM8.64559 11.4307L10.5463 8.84179C10.5913 8.78024 10.5909 8.69651 10.5453 8.6354C10.4997 8.57429 10.4195 8.55012 10.3477 8.57582L8.381 9.27652C8.35067 9.28758 8.32399 9.3068 8.30391 9.33208L7.88099 9.86056C7.83124 9.92344 7.83124 10.0123 7.88099 10.0751C8.18969 10.4666 8.40938 10.9207 8.52475 11.4057C8.53175 11.4307 8.55212 11.4498 8.57756 11.455C8.60299 11.4603 8.62924 11.4509 8.64559 11.4307ZM12.7783 12.178C12.7783 13.3286 13.7111 14.2613 14.8617 14.2613C16.0123 14.2613 16.945 13.3286 16.945 12.178C16.945 11.0273 16.0123 10.0946 14.8617 10.0946C14.8539 10.093 14.8459 10.0963 14.8415 10.1029C14.8388 10.1084 14.8388 10.1148 14.8415 10.1203L15.511 11.9377C15.603 12.1718 15.5611 12.4374 15.4016 12.632C15.2421 12.8265 14.9898 12.9196 14.7422 12.8752C14.4946 12.8309 14.2903 12.656 14.2082 12.4182L13.6234 10.8321C13.6029 10.7754 13.5542 10.7335 13.495 10.7216C13.4359 10.7097 13.3748 10.7294 13.3339 10.7738C12.9772 11.1544 12.7786 11.6563 12.7783 12.178Z" />
</svg>