<!-- character:0:2231 -->
  <svg width="20" height="20" viewBox="0 0 20 20" >
<path   d="M4.7921 6.62229C4.7921 6.23875 5.10301 5.92783 5.48655 5.92783H8.26438C8.64791 5.92783 8.95883 6.23875 8.95883 6.62229C8.95883 7.00583 8.64791 7.31674 8.26438 7.31674C8.22359 7.31691 8.18551 7.33717 8.1626 7.37092C8.13969 7.40466 8.1349 7.44753 8.14979 7.4855L8.22826 7.67925C8.26363 7.76515 8.36016 7.80822 8.44771 7.77717L11.8672 6.5584C11.9107 6.54284 11.9462 6.5106 11.9658 6.46881C11.9853 6.42663 11.9873 6.37844 11.9714 6.33478L11.9158 6.18409C11.8135 5.90665 11.8339 5.59879 11.9719 5.33728C12.11 5.07576 12.3526 4.88524 12.6394 4.81323L14.411 4.37086C14.7832 4.27785 15.1604 4.5042 15.2534 4.87643C15.3464 5.24865 15.12 5.62579 14.7478 5.7188L13.5381 6.02089C13.4901 6.03264 13.4495 6.06434 13.4264 6.108C13.4033 6.15166 13.4 6.2031 13.4172 6.24936L14.2923 8.62579C14.3206 8.70261 14.3987 8.7492 14.4798 8.7376C14.6059 8.7178 14.7333 8.70712 14.861 8.70566C16.5721 8.69822 18.0312 9.94368 18.2925 11.6347C18.5538 13.3258 17.5387 14.9535 15.9051 15.4629C14.2716 15.9723 12.5112 15.21 11.765 13.6702C11.0189 12.1303 11.5114 10.2763 12.9235 9.30983C12.9894 9.26506 13.0166 9.18129 12.9895 9.10636L12.7943 8.57718C12.7719 8.51735 12.7187 8.4745 12.6554 8.46537C12.5921 8.45615 12.5289 8.48292 12.4915 8.53482L9.51856 12.5884C9.38771 12.767 9.17954 12.8725 8.95814 12.8724H8.68036C8.60044 12.8723 8.53078 12.9268 8.5116 13.0043C8.08083 14.7623 6.37192 15.8945 4.58513 15.6057C2.79833 15.317 1.53306 13.7041 1.67796 11.8999C1.82287 10.0958 3.32935 8.70554 5.13932 8.70566C5.64211 8.70822 6.13806 8.8223 6.59143 9.03969C6.6638 9.07328 6.74974 9.05323 6.79977 8.99108L7.04283 8.6876C7.08179 8.63844 7.09134 8.57214 7.06783 8.51399L6.62546 7.42508C6.5991 7.35962 6.53561 7.31674 6.46504 7.31674H5.48655C5.10301 7.31674 4.7921 7.00583 4.7921 6.62229ZM3.07301 12.5108C3.23689 13.5234 4.11352 14.2661 5.13932 14.2613C5.91937 14.2601 6.63267 13.821 6.98519 13.1252C7.01274 13.0714 7.01035 13.0072 6.9789 12.9556C6.94744 12.904 6.89143 12.8725 6.83102 12.8724H5.13932C4.75579 12.8724 4.44487 12.5615 4.44487 12.1779C4.44487 11.7944 4.75579 11.4835 5.13932 11.4835H6.83102C6.89143 11.4834 6.94744 11.4518 6.9789 11.4003C7.01035 11.3487 7.01274 11.2845 6.98519 11.2307C6.51877 10.317 5.45669 9.87888 4.48173 10.1979C3.50678 10.5169 2.90913 11.4981 3.07301 12.5108ZM8.64563 11.4307C8.62928 11.4509 8.60304 11.4603 8.5776 11.455C8.55217 11.4497 8.5318 11.4307 8.5248 11.4057C8.40942 10.9207 8.18974 10.4666 7.88104 10.0751C7.83129 10.0122 7.83129 9.92341 7.88104 9.86054L8.30396 9.33206C8.32404 9.30678 8.35072 9.28755 8.38104 9.2765L10.3477 8.57579C10.4196 8.5501 10.4997 8.57427 10.5454 8.63538C10.591 8.69649 10.5914 8.78022 10.5464 8.84177L8.64563 11.4307ZM12.7783 12.1779C12.7783 13.3285 13.7111 14.2613 14.8617 14.2613C16.0123 14.2613 16.9451 13.3285 16.9451 12.1779C16.9451 11.0273 16.0123 10.0946 14.8617 10.0946C14.8539 10.093 14.8459 10.0963 14.8416 10.1029C14.8388 10.1084 14.8388 10.1148 14.8416 10.1203L15.511 11.9377C15.603 12.1718 15.5612 12.4374 15.4017 12.6319C15.2421 12.8265 14.9899 12.9195 14.7422 12.8752C14.4946 12.8308 14.2903 12.656 14.2082 12.4182L13.6235 10.8321C13.6029 10.7754 13.5542 10.7335 13.4951 10.7215C13.4359 10.7096 13.3748 10.7294 13.3339 10.7737C12.9772 11.1543 12.7786 11.6563 12.7783 12.1779Z" />
</svg>