<!--character:$472:402-->
  <svg width="24" height="24" viewBox="0 0 24 24" >
<path d="M5.75051 7.94674C5.75051 7.4865 6.12361 7.1134 6.58386 7.1134H9.91724C10.3775 7.1134 10.7506 7.4865 10.7506 7.94674C10.7506 8.40699 10.3775 8.78009 9.91724 8.78009C9.8683 8.78029 9.82261 8.80461 9.79511 8.8451C9.76762 8.88559 9.76187 8.93703 9.77974 8.9826L9.87391 9.2151C9.91635 9.31818 10.0322 9.36987 10.1372 9.3326L14.2407 7.87008C14.2928 7.85141 14.3354 7.81272 14.359 7.76258C14.3824 7.71196 14.3848 7.65412 14.3657 7.60174L14.299 7.4209C14.1762 7.08798 14.2006 6.71855 14.3663 6.40473C14.5319 6.09092 14.8232 5.86229 15.1673 5.77588L17.2932 5.24503C17.7399 5.13342 18.1924 5.40504 18.3041 5.85171C18.4157 6.29838 18.144 6.75095 17.6974 6.86256L16.2457 7.22507C16.1881 7.23917 16.1393 7.27721 16.1116 7.3296C16.0839 7.38199 16.0799 7.44372 16.1007 7.49924L17.1507 10.351C17.1847 10.4431 17.2784 10.499 17.3757 10.4851C17.5271 10.4614 17.68 10.4485 17.8332 10.4468C19.8865 10.4379 21.6374 11.9324 21.951 13.9617C22.2645 15.9909 21.0464 17.9442 19.0862 18.5555C17.1259 19.1667 15.0135 18.252 14.118 16.4042C13.2226 14.5564 13.8137 12.3315 15.5082 11.1718C15.5873 11.1181 15.6199 11.0175 15.5873 10.9276L15.3532 10.2926C15.3263 10.2208 15.2624 10.1694 15.1865 10.1584C15.1105 10.1474 15.0347 10.1795 14.9898 10.2418L11.4223 15.106C11.2652 15.3204 11.0154 15.447 10.7498 15.4469H10.4164C10.3205 15.4468 10.2369 15.5121 10.2139 15.6052C9.69699 17.7148 7.6463 19.0734 5.50215 18.7269C3.35799 18.3804 1.83966 16.4449 2.01355 14.2799C2.18744 12.1149 3.99521 10.4466 6.16718 10.4468C6.77052 10.4499 7.36567 10.5868 7.90971 10.8476C7.99655 10.8879 8.09968 10.8639 8.15972 10.7893L8.45139 10.4251C8.49815 10.3661 8.5096 10.2866 8.48139 10.2168L7.95055 8.91009C7.91892 8.83154 7.84273 8.78009 7.75804 8.78009H6.58386C6.12361 8.78009 5.75051 8.40699 5.75051 7.94674ZM3.68761 15.0129C3.88426 16.2281 4.93622 17.1193 6.16718 17.1136C7.10323 17.1121 7.95919 16.5852 8.38222 15.7502C8.41528 15.6857 8.41242 15.6086 8.37467 15.5467C8.33692 15.4848 8.26971 15.447 8.19722 15.4469H6.16718C5.70694 15.4469 5.33384 15.0738 5.33384 14.6135C5.33384 14.1533 5.70694 13.7802 6.16718 13.7802H8.19722C8.26971 13.78 8.33692 13.7422 8.37467 13.6803C8.41242 13.6184 8.41528 13.5414 8.38222 13.4768C7.82252 12.3805 6.54802 11.8547 5.37808 12.2375C4.20813 12.6203 3.49096 13.7978 3.68761 15.0129ZM10.3748 13.7168L12.6556 10.6101C12.7097 10.5363 12.7092 10.4358 12.6544 10.3625C12.5997 10.2891 12.5035 10.2601 12.4173 10.291L10.0572 11.1318C10.0209 11.1451 9.98884 11.1681 9.96475 11.1985L9.45724 11.8326C9.39754 11.9081 9.39754 12.0147 9.45724 12.0901C9.82768 12.5599 10.0913 13.1048 10.2297 13.6868C10.2381 13.7169 10.2626 13.7397 10.2931 13.746C10.3236 13.7523 10.3551 13.7411 10.3748 13.7168ZM15.334 14.6135C15.334 15.9943 16.4533 17.1136 17.834 17.1136C19.2148 17.1136 20.3341 15.9943 20.3341 14.6135C20.3341 13.2328 19.2148 12.1135 17.834 12.1135C17.8247 12.1116 17.8151 12.1155 17.8099 12.1235C17.8066 12.13 17.8066 12.1378 17.8099 12.1443L18.6132 14.3252C18.7236 14.6062 18.6734 14.9249 18.482 15.1583C18.2906 15.3918 17.9879 15.5034 17.6907 15.4502C17.3935 15.397 17.1484 15.1872 17.0499 14.9019L16.3482 12.9985C16.3235 12.9304 16.2651 12.8802 16.1941 12.8659C16.1231 12.8516 16.0498 12.8753 16.0007 12.9285C15.5726 13.3852 15.3343 13.9876 15.334 14.6135Z" />
</svg>