<!--character:9155-->
  <svg width="24" height="24" viewBox="0 0 24 24" >
<path d="M18.3507 2.00799C17.9255 2.06611 17.6319 2.46068 17.69 2.88891L18.5954 9.1043C18.6565 9.52946 19.0511 9.82616 19.4763 9.76499C19.9045 9.70381 20.1982 9.28782 20.137 8.8596L19.2561 2.66868C19.1949 2.24351 18.7789 1.94681 18.3507 2.00799ZM13.628 3.64748C13.527 3.66583 13.4261 3.71171 13.3343 3.76983C12.9734 4.00535 12.8786 4.48252 13.1141 4.84651L16.5399 10.1076C16.7754 10.4685 17.2556 10.5633 17.6166 10.3278C17.9806 10.0923 18.0723 9.61511 17.8368 9.25112L14.411 3.99006C14.2336 3.72089 13.9277 3.59242 13.628 3.64748ZM10.2021 6.92646C10.0033 6.96317 9.81063 7.09164 9.68828 7.26904C9.44358 7.62386 9.52922 8.09797 9.88404 8.34573L15.0472 11.9183C15.399 12.163 15.8792 12.0743 16.1239 11.7226C16.3717 11.3678 16.2829 10.8661 15.9281 10.6214L10.7894 7.07328C10.612 6.95093 10.401 6.88976 10.2021 6.92646ZM8.31796 10.6459C8.01514 10.6796 7.74903 10.8723 7.65727 11.1842C7.53492 11.5972 7.78267 12.0407 8.19561 12.163L14.1908 13.9249C14.6037 14.0472 15.0472 13.824 15.1696 13.411C15.2919 12.9981 15.0442 12.5546 14.6312 12.4322L8.63607 10.6704C8.53207 10.6398 8.41889 10.6337 8.31796 10.6459ZM3.83994 14.1696V19.6509C3.83994 20.9478 4.89215 22 6.18906 22H15.5856C16.8825 22 17.9347 20.9478 17.9347 19.6509V14.1696H16.3686V19.6509C16.3686 20.0822 16.0168 20.4339 15.5856 20.4339H6.18906C5.75778 20.4339 5.40602 20.0822 5.40602 19.6509V14.1696H3.83994ZM7.85303 14.2675C7.42174 14.2246 7.0394 14.5489 6.99657 14.9771C6.95375 15.4084 7.27798 15.7907 7.70621 15.8336L13.9461 16.4453C14.3773 16.4881 14.7597 16.167 14.8025 15.7357C14.8453 15.3074 14.5211 14.922 14.0929 14.8792L7.85303 14.2675ZM7.75515 17.3018C7.32386 17.3018 6.9721 17.6535 6.9721 18.0848C6.9721 18.5161 7.32386 18.8678 7.75515 18.8678H14.0195C14.4508 18.8678 14.8025 18.5161 14.8025 18.0848C14.8025 17.6535 14.4508 17.3018 14.0195 17.3018H7.75515Z" />
</svg>