<!--character:5568-->
  <svg width="24" height="24" viewBox="0 0 24 24" >
<path d="M18.3508 2.00799C17.9256 2.06611 17.6319 2.46069 17.6901 2.88891L18.5955 9.1043C18.6566 9.52947 19.0512 9.82616 19.4764 9.76499C19.9046 9.70381 20.1982 9.28782 20.1371 8.8596L19.2561 2.66868C19.195 2.24352 18.779 1.94682 18.3508 2.00799ZM13.628 3.64748C13.5271 3.66584 13.4262 3.71172 13.3344 3.76983C12.9735 4.00536 12.8786 4.48252 13.1142 4.84651L16.54 10.1076C16.7755 10.4685 17.2557 10.5633 17.6167 10.3278C17.9806 10.0923 18.0724 9.61511 17.8369 9.25112L14.4111 3.99006C14.2337 3.72089 13.9278 3.59243 13.628 3.64748ZM10.2022 6.92647C10.0034 6.96317 9.81071 7.09164 9.68836 7.26905C9.44366 7.62386 9.52931 8.09797 9.88412 8.34573L15.0473 11.9184C15.3991 12.1631 15.8793 12.0743 16.124 11.7226C16.3717 11.3678 16.283 10.8661 15.9282 10.6214L10.7895 7.07329C10.6121 6.95094 10.4011 6.88976 10.2022 6.92647ZM8.31804 10.6459C8.01522 10.6796 7.74911 10.8723 7.65735 11.1843C7.535 11.5972 7.78276 12.0407 8.19569 12.1631L14.1908 13.9249C14.6038 14.0472 15.0473 13.824 15.1697 13.411C15.292 12.9981 15.0442 12.5546 14.6313 12.4322L8.63615 10.6704C8.53216 10.6398 8.41898 10.6337 8.31804 10.6459ZM3.84003 14.1696V19.6509C3.84003 20.9478 4.89224 22 6.18915 22H15.5856C16.8826 22 17.9348 20.9478 17.9348 19.6509V14.1696H16.3687V19.6509C16.3687 20.0822 16.0169 20.4339 15.5856 20.4339H6.18915C5.75787 20.4339 5.40611 20.0822 5.40611 19.6509V14.1696H3.84003ZM7.85311 14.2675C7.42183 14.2247 7.03948 14.5489 6.99666 14.9771C6.95384 15.4084 7.27807 15.7907 7.70629 15.8336L13.9461 16.4453C14.3774 16.4881 14.7598 16.167 14.8026 15.7357C14.8454 15.3074 14.5212 14.922 14.093 14.8792L7.85311 14.2675ZM7.75523 17.3018C7.32395 17.3018 6.97219 17.6535 6.97219 18.0848C6.97219 18.5161 7.32395 18.8678 7.75523 18.8678H14.0196C14.4508 18.8678 14.8026 18.5161 14.8026 18.0848C14.8026 17.6535 14.4508 17.3018 14.0196 17.3018H7.75523Z" />
</svg>