<!--character:9843-->
  <svg width="20" height="20" viewBox="0 0 20 20" >
<path d="M15.2922 1.67332C14.9379 1.72175 14.6932 2.05057 14.7416 2.40743L15.4961 7.58691C15.5471 7.94122 15.8759 8.18847 16.2302 8.13749C16.5871 8.08651 16.8318 7.73985 16.7808 7.383L16.0467 2.2239C15.9957 1.86959 15.6491 1.62235 15.2922 1.67332ZM11.3566 3.03957C11.2725 3.05486 11.1884 3.0931 11.1119 3.14153C10.8111 3.3378 10.7321 3.73543 10.9284 4.03876L13.7832 8.42297C13.9795 8.72375 14.3797 8.80277 14.6805 8.6065C14.9838 8.41023 15.0603 8.01259 14.864 7.70926L12.0092 3.32505C11.8613 3.10074 11.6064 2.99369 11.3566 3.03957ZM8.50179 5.77205C8.33611 5.80264 8.17552 5.9097 8.07356 6.05754C7.86965 6.35322 7.94102 6.74831 8.2367 6.95477L12.5393 9.93196C12.8325 10.1359 13.2327 10.062 13.4366 9.76882C13.643 9.47314 13.5691 9.05511 13.2734 8.8512L8.99119 5.8944C8.84335 5.79244 8.66747 5.74147 8.50179 5.77205ZM6.93163 8.87159C6.67928 8.89963 6.45752 9.06021 6.38105 9.32021C6.2791 9.66432 6.48556 10.0339 6.82967 10.1359L11.8256 11.6041C12.1697 11.706 12.5393 11.52 12.6413 11.1758C12.7433 10.8317 12.5368 10.4621 12.1927 10.3602L7.19672 8.89198C7.11006 8.86649 7.01575 8.86139 6.93163 8.87159ZM3.19995 11.808V16.3757C3.19995 17.4565 4.07679 18.3333 5.15755 18.3333H12.988C14.0687 18.3333 14.9456 17.4565 14.9456 16.3757V11.808H13.6405V16.3757C13.6405 16.7351 13.3474 17.0283 12.988 17.0283H5.15755C4.79815 17.0283 4.50502 16.7351 4.50502 16.3757V11.808H3.19995ZM6.54419 11.8896C6.18478 11.8539 5.86616 12.1241 5.83048 12.4809C5.79479 12.8403 6.06498 13.1589 6.42184 13.1946L11.6217 13.7044C11.9811 13.7401 12.2997 13.4725 12.3354 13.1131C12.3711 12.7562 12.1009 12.435 11.7441 12.3994L6.54419 11.8896ZM6.46262 14.4181C6.10322 14.4181 5.81009 14.7113 5.81009 15.0707C5.81009 15.4301 6.10322 15.7232 6.46262 15.7232H11.6829C12.0423 15.7232 12.3354 15.4301 12.3354 15.0707C12.3354 14.7113 12.0423 14.4181 11.6829 14.4181H6.46262Z" />
</svg>