<!-- character:438:299 -->
  <svg width="20" height="20" viewBox="0 0 20 20" >
<path d="M15.2923 1.67329C14.938 1.72172 14.6933 2.05053 14.7417 2.40739L15.4962 7.58688C15.5472 7.94118 15.876 8.18843 16.2303 8.13745C16.5872 8.08647 16.8319 7.73981 16.7809 7.38296L16.0468 2.22386C15.9958 1.86956 15.6491 1.62231 15.2923 1.67329ZM11.3567 3.03953C11.2726 3.05482 11.1885 3.09306 11.112 3.14149C10.8112 3.33776 10.7322 3.7354 10.9285 4.03872L13.7833 8.42293C13.9796 8.72371 14.3798 8.80273 14.6805 8.60646C14.9839 8.41019 15.0603 8.01255 14.8641 7.70923L12.0092 3.32501C11.8614 3.1007 11.6065 2.99365 11.3567 3.03953ZM8.50185 5.77202C8.33617 5.8026 8.17558 5.90966 8.07363 6.0575C7.86971 6.35318 7.94108 6.74827 8.23676 6.95473L12.5394 9.93192C12.8325 10.1358 13.2327 10.0619 13.4366 9.76879C13.6431 9.47311 13.5692 9.05508 13.2735 8.85116L8.99125 5.89437C8.84341 5.79241 8.66753 5.74143 8.50185 5.77202ZM6.93169 8.87155C6.67934 8.89959 6.45758 9.06017 6.38112 9.32017C6.27916 9.66428 6.48562 10.0339 6.82973 10.1358L11.8257 11.604C12.1698 11.706 12.5394 11.5199 12.6414 11.1758C12.7433 10.8317 12.5369 10.4621 12.1927 10.3601L7.19678 8.89194C7.11012 8.86645 7.01581 8.86136 6.93169 8.87155ZM3.20001 11.808V16.3757C3.20001 17.4565 4.07685 18.3333 5.15761 18.3333H12.988C14.0688 18.3333 14.9456 17.4565 14.9456 16.3757V11.808H13.6406V16.3757C13.6406 16.7351 13.3474 17.0282 12.988 17.0282H5.15761C4.79821 17.0282 4.50508 16.7351 4.50508 16.3757V11.808H3.20001ZM6.54425 11.8895C6.18485 11.8538 5.86623 12.124 5.83054 12.4809C5.79485 12.8403 6.06504 13.1589 6.4219 13.1946L11.6218 13.7044C11.9812 13.7401 12.2998 13.4724 12.3355 13.113C12.3712 12.7562 12.101 12.435 11.7441 12.3993L6.54425 11.8895ZM6.46268 14.4181C6.10328 14.4181 5.81015 14.7112 5.81015 15.0706C5.81015 15.43 6.10328 15.7232 6.46268 15.7232H11.683C12.0424 15.7232 12.3355 15.43 12.3355 15.0706C12.3355 14.7112 12.0424 14.4181 11.683 14.4181H6.46268Z" />
</svg>