<!--character:3239-->
  <svg width="24" height="24" viewBox="0 0 24 24" >
<path d="M18.3507 2.00799C17.9256 2.06611 17.6319 2.46069 17.69 2.88891L18.5954 9.1043C18.6566 9.52947 19.0512 9.82617 19.4764 9.76499C19.9046 9.70382 20.1982 9.28783 20.1371 8.8596L19.2561 2.66868C19.195 2.24352 18.779 1.94682 18.3507 2.00799ZM13.628 3.64749C13.5271 3.66584 13.4261 3.71172 13.3344 3.76984C12.9735 4.00536 12.8786 4.48252 13.1142 4.84652L16.54 10.1076C16.7755 10.4685 17.2557 10.5633 17.6166 10.3278C17.9806 10.0923 18.0724 9.61511 17.8369 9.25112L14.4111 3.99007C14.2337 3.7209 13.9278 3.59243 13.628 3.64749ZM10.2022 6.92647C10.0034 6.96317 9.8107 7.09164 9.68835 7.26905C9.44365 7.62386 9.5293 8.09797 9.88411 8.34573L15.0473 11.9184C15.399 12.1631 15.8793 12.0743 16.124 11.7226C16.3717 11.3678 16.283 10.8661 15.9282 10.6214L10.7895 7.07329C10.6121 6.95094 10.401 6.88976 10.2022 6.92647ZM8.31803 10.6459C8.01521 10.6796 7.7491 10.8723 7.65734 11.1843C7.53499 11.5972 7.78275 12.0407 8.19568 12.1631L14.1908 13.9249C14.6038 14.0472 15.0473 13.824 15.1696 13.411C15.292 12.9981 15.0442 12.5546 14.6313 12.4322L8.63614 10.6704C8.53214 10.6398 8.41897 10.6337 8.31803 10.6459ZM3.84001 14.1696V19.6509C3.84001 20.9478 4.89223 22 6.18914 22H15.5856C16.8825 22 17.9347 20.9478 17.9347 19.6509V14.1696H16.3687V19.6509C16.3687 20.0822 16.0169 20.4339 15.5856 20.4339H6.18914C5.75785 20.4339 5.4061 20.0822 5.4061 19.6509V14.1696H3.84001ZM7.8531 14.2675C7.42181 14.2247 7.03947 14.5489 6.99665 14.9771C6.95383 15.4084 7.27805 15.7907 7.70628 15.8336L13.9461 16.4453C14.3774 16.4881 14.7598 16.167 14.8026 15.7357C14.8454 15.3075 14.5212 14.922 14.093 14.8792L7.8531 14.2675ZM7.75522 17.3018C7.32393 17.3018 6.97218 17.6535 6.97218 18.0848C6.97218 18.5161 7.32393 18.8678 7.75522 18.8678H14.0195C14.4508 18.8678 14.8026 18.5161 14.8026 18.0848C14.8026 17.6535 14.4508 17.3018 14.0195 17.3018H7.75522Z" />
</svg>