<!--character:6674-->
  <svg width="20" height="20" viewBox="0 0 20 20" >
<path d="M17.2147 6.92333C17.6833 6.92449 18.1018 7.21663 18.2645 7.65608C18.426 8.09617 18.2971 8.59023 17.9413 8.89542L14.0888 12.0885L15.7026 16.9313C15.8563 17.3935 15.6933 17.9022 15.2996 18.1891C14.9059 18.476 14.3718 18.4753 13.9788 18.1874L10.0002 15.2701L6.02091 18.1859C5.62744 18.4744 5.09244 18.4748 4.69852 18.1869C4.3046 17.899 4.14252 17.3892 4.29791 16.9267L5.91088 12.087L2.06679 8.90154C1.70621 8.59896 1.57327 8.10323 1.73406 7.66083C1.89486 7.21844 2.31508 6.92376 2.78579 6.92333H7.32596L8.94657 2.33274C9.1053 1.8907 9.5231 1.59476 9.99276 1.59169C10.4624 1.58862 10.8841 1.87906 11.0486 2.31898L12.6745 6.92333H17.2147ZM12.4743 12.0771C12.3748 11.7779 12.4691 11.4483 12.712 11.2473L15.6728 8.78998C15.735 8.73872 15.7584 8.65389 15.7311 8.57798C15.7039 8.50208 15.6319 8.45146 15.5513 8.45149H12.132C11.8079 8.4514 11.5191 8.24682 11.4115 7.94109L10.1806 4.45077C10.1538 4.37411 10.0814 4.32277 10.0002 4.32277C9.91904 4.32277 9.84671 4.37411 9.81992 4.45077L8.58822 7.94109C8.48061 8.24682 8.19181 8.4514 7.86769 8.45149H4.44843C4.36779 8.45146 4.29581 8.50208 4.26857 8.57798C4.24133 8.65389 4.26468 8.73872 4.32694 8.78998L7.29005 11.2442C7.53258 11.4455 7.62665 11.775 7.52691 12.074L6.34411 15.6247C6.31816 15.7035 6.34608 15.7901 6.4132 15.8389C6.48032 15.8877 6.57128 15.8876 6.63829 15.8386L9.54714 13.7045C9.81613 13.5072 10.1821 13.5072 10.451 13.7045L13.3637 15.8424C13.4308 15.8917 13.5221 15.8919 13.5894 15.8428C13.6567 15.7937 13.6844 15.7067 13.6579 15.6277L12.4743 12.0771Z" />
</svg>