<!-- character:0:518 -->
  <svg width="20" height="20" viewBox="0 0 20 20" >
<path d="M18.2667 7.65884C18.1102 7.23846 17.7095 6.95915 17.2609 6.95782H12.9067C12.7549 6.95793 12.6195 6.86214 12.5691 6.7189L11.0061 2.28888C10.8493 1.86958 10.4487 1.59167 10.0011 1.59167C9.55343 1.59167 9.15282 1.86958 8.99605 2.28888L8.99247 2.30033L7.43306 6.7189C7.38273 6.86189 7.24773 6.95763 7.09614 6.95782H2.74051C2.28888 6.95748 1.88539 7.23997 1.73119 7.66446C1.57699 8.08895 1.7051 8.56455 2.05165 8.85415L5.75991 11.9301C5.87344 12.0243 5.91747 12.1785 5.87078 12.3185L4.3128 16.9903C4.16505 17.4335 4.3211 17.9214 4.69864 18.1966C5.07618 18.4719 5.58842 18.4712 5.9652 18.1949L9.78934 15.3908C9.91518 15.2986 10.0863 15.2986 10.2121 15.3908L14.0348 18.1942C14.4114 18.4714 14.9243 18.4728 15.3024 18.1975C15.6804 17.9223 15.8367 17.4339 15.6886 16.9903L14.1307 12.3156C14.084 12.1757 14.128 12.0214 14.2415 11.9272L17.957 8.847C18.299 8.555 18.4226 8.08067 18.2667 7.65884Z" />
</svg>