<!-- character:0:522 -->
  <svg width="20" height="20" viewBox="0 0 20 20" >
<path   d="M17.2147 6.92334C17.6833 6.9245 18.1019 7.21664 18.2646 7.65609C18.426 8.09617 18.2972 8.59023 17.9414 8.89543L14.0889 12.0885L15.7026 16.9313C15.8563 17.3936 15.6934 17.9022 15.2997 18.1891C14.9059 18.476 14.3718 18.4753 13.9789 18.1874L10.0003 15.2702L6.02095 18.1859C5.62749 18.4744 5.09248 18.4748 4.69856 18.1869C4.30465 17.899 4.14257 17.3892 4.29795 16.9267L5.91093 12.087L2.06684 8.90154C1.70626 8.59897 1.57331 8.10324 1.73411 7.66084C1.8949 7.21844 2.31513 6.92377 2.78584 6.92334H7.326L8.94662 2.33274C9.10535 1.89071 9.52315 1.59477 9.99281 1.5917C10.4625 1.58863 10.8841 1.87907 11.0486 2.31899L12.6746 6.92334H17.2147ZM12.4744 12.0771C12.3748 11.7779 12.4692 11.4484 12.712 11.2473L15.6728 8.78999C15.7351 8.73873 15.7584 8.65389 15.7312 8.57799C15.7039 8.50209 15.632 8.45147 15.5513 8.4515H12.1321C11.8079 8.45141 11.5191 8.24683 11.4115 7.94109L10.1806 4.45077C10.1538 4.37412 10.0815 4.32278 10.0003 4.32278C9.91908 4.32278 9.84675 4.37412 9.81996 4.45077L8.58826 7.94109C8.48066 8.24683 8.19186 8.45141 7.86774 8.4515H4.44848C4.36783 8.45147 4.29586 8.50209 4.26861 8.57799C4.24137 8.65389 4.26473 8.73873 4.32699 8.78999L7.29009 11.2442C7.53263 11.4455 7.6267 11.775 7.52696 12.074L6.34416 15.6247C6.31821 15.7035 6.34613 15.7901 6.41325 15.8389C6.48037 15.8877 6.57133 15.8876 6.63833 15.8386L9.54718 13.7046C9.81618 13.5072 10.1821 13.5072 10.4511 13.7046L13.3638 15.8424C13.4309 15.8917 13.5222 15.8919 13.5894 15.8428C13.6567 15.7937 13.6844 15.7067 13.6579 15.6277L12.4744 12.0771Z" />
</svg>