<!--category:basic-->
<!--character:E08C-->
<svg width="24" height="24" viewBox="0 0 24 24" xmlns="http://www.w3.org/2000/svg"><path d="M21.9175 9.1873a1.347 1.347 0 0 0-1.2598-.8793h-5.4482l-1.9512-5.5252a1.3433 1.3433 0 0 0-2.5224.0165L8.7912 8.308H3.343a1.3442 1.3442 0 0 0-.8628 2.3738l4.613 3.8226-1.9357 5.8076a1.3433 1.3433 0 0 0 2.0676 1.511l4.7752-3.4988 4.7743 3.5007a1.3433 1.3433 0 0 0 2.0685-1.5074l-1.9365-5.8113 4.623-3.8317a1.3478 1.3478 0 0 0 .3879-1.4872zm-6.6631 4.3094a.9169.9169 0 0 0-.2852.9958l1.4203 4.2608a.2292.2292 0 0 1-.353.2576l-3.4952-2.5654a.9169.9169 0 0 0-1.0847 0L7.966 19.0063a.2292.2292 0 0 1-.353-.2567l1.4193-4.2608a.9169.9169 0 0 0-.2842-.9958l-3.5557-2.945a.2292.2292 0 0 1 .1458-.4062h4.103a.9169.9169 0 0 0 .8647-.6125l1.478-4.1884a.2292.2292 0 0 1 .4328 0l1.4771 4.1884a.9169.9169 0 0 0 .8647.6125h4.103a.2292.2292 0 0 1 .1459.4062l-3.553 2.9487z"/></svg>