<!--character:42:472:228-->
  <svg width="24" height="24" viewBox="0 0 24 24" >
<path d="M20.6577 8.30803C21.22 8.30942 21.7223 8.65999 21.9175 9.18734C22.1112 9.71543 21.9566 10.3083 21.5296 10.6745L16.9066 14.5063L18.8431 20.3175C19.0276 20.8723 18.8321 21.4827 18.3596 21.827C17.8871 22.1713 17.2462 22.1704 16.7746 21.8249L12.0003 18.3242L7.22514 21.8231C6.75298 22.1693 6.11097 22.1698 5.63827 21.8243C5.16557 21.4789 4.97107 20.867 5.15754 20.312L7.09311 14.5044L2.4802 10.6819C2.0475 10.3188 1.88797 9.72391 2.08092 9.19304C2.27388 8.66216 2.77814 8.30855 3.343 8.30803H8.7912L10.7359 2.79932C10.9264 2.26888 11.4278 1.91375 11.9914 1.91006C12.555 1.90638 13.0609 2.25491 13.2583 2.78281L15.2095 8.30803H20.6577ZM14.9693 14.4925C14.8498 14.1335 14.963 13.7381 15.2544 13.4968L18.8074 10.548C18.8821 10.4865 18.9101 10.3847 18.8774 10.2936C18.8447 10.2025 18.7584 10.1418 18.6616 10.1418H14.5585C14.1695 10.1417 13.823 9.89623 13.6939 9.52934L12.2167 5.34096C12.1846 5.24897 12.0978 5.18737 12.0003 5.18737C11.9029 5.18737 11.8161 5.24897 11.784 5.34096L10.3059 9.52934C10.1768 9.89623 9.83024 10.1417 9.44129 10.1418H5.33818C5.2414 10.1418 5.15503 10.2025 5.12234 10.2936C5.08965 10.3847 5.11768 10.4865 5.19239 10.548L8.74812 13.4931C9.03916 13.7346 9.15204 14.1301 9.03235 14.4888L7.613 18.7497C7.58185 18.8442 7.61536 18.9481 7.6959 19.0067C7.77645 19.0653 7.8856 19.0652 7.966 19.0064L11.4566 16.4455C11.7794 16.2087 12.2185 16.2087 12.5413 16.4455L16.0365 19.011C16.1171 19.0701 16.2266 19.0703 16.3073 19.0114C16.3881 18.9525 16.4213 18.8481 16.3895 18.7533L14.9693 14.4925Z" />
</svg>