<!--description:Also for Top Routes-->
<!--category:basic-->
<!--character:0023-->
<svg width="24" height="24" viewBox="0 0 24 24" xmlns="http://www.w3.org/2000/svg"><path d="M21.92 9.1906a1.2919 1.2919 0 0 0-1.2069-.8412h-5.225a.4292.4292 0 0 1-.4052-.2867l-1.8755-5.316a1.2876 1.2876 0 0 0-2.4121 0l-.0043.0137-1.8713 5.3023a.4292.4292 0 0 1-.4043.2867H3.2886a1.2876 1.2876 0 0 0-.8266 2.2756l4.4499 3.691a.4292.4292 0 0 1 .133.4662l-1.8695 5.6061a1.2876 1.2876 0 0 0 1.9829 1.4456l4.589-3.365a.4292.4292 0 0 1 .5072 0l4.5873 3.3641a1.2876 1.2876 0 0 0 1.9846-1.4447l-1.8696-5.6096a.4292.4292 0 0 1 .133-.466l4.4586-3.6963a1.2876 1.2876 0 0 0 .3716-1.4258z"/></svg>