<!--character:1063-->
  <svg width="20" height="20" viewBox="0 0 20 20" >
<path d="M18.2667 7.65883C18.1102 7.23845 17.7095 6.95914 17.2609 6.95781H12.9067C12.7549 6.95792 12.6195 6.86213 12.5691 6.71889L11.0061 2.28887C10.8493 1.86958 10.4487 1.59167 10.0011 1.59167C9.5534 1.59167 9.15279 1.86958 8.99602 2.28887L8.99244 2.30032L7.43303 6.71889C7.3827 6.86189 7.2477 6.95762 7.09611 6.95781H2.74048C2.28885 6.95747 1.88536 7.23997 1.73116 7.66445C1.57696 8.08894 1.70507 8.56454 2.05162 8.85415L5.75987 11.9301C5.87341 12.0243 5.91744 12.1785 5.87075 12.3185L4.31277 16.9903C4.16502 17.4335 4.32107 17.9214 4.69861 18.1966C5.07615 18.4719 5.58839 18.4712 5.96517 18.1949L9.78931 15.3908C9.91515 15.2986 10.0862 15.2986 10.2121 15.3908L14.0348 18.1942C14.4114 18.4714 14.9242 18.4728 15.3023 18.1975C15.6804 17.9223 15.8367 17.4339 15.6886 16.9903L14.1306 12.3156C14.0839 12.1757 14.128 12.0214 14.2415 11.9272L17.9569 8.84699C18.299 8.55499 18.4226 8.08066 18.2667 7.65883Z" />
</svg>