<!--character:2:472:232-->
  <svg width="24" height="24" viewBox="0 0 24 24" >
<path d="M21.92 9.19063C21.7323 8.68618 21.2514 8.35101 20.7131 8.34941H15.4881C15.3059 8.34954 15.1434 8.23459 15.0829 8.06271L13.2074 2.74668C13.0192 2.24352 12.5385 1.91003 12.0013 1.91003C11.4641 1.91003 10.9834 2.24352 10.7953 2.74668L10.791 2.76042L8.91968 8.06271C8.85929 8.2343 8.69728 8.34918 8.51538 8.34941H3.28862C2.74667 8.349 2.26248 8.68799 2.07744 9.19738C1.8924 9.70676 2.04613 10.2775 2.46199 10.625L6.9119 14.3161C7.04814 14.4292 7.10098 14.6143 7.04495 14.7822L5.17537 20.3884C4.99808 20.9203 5.18533 21.5057 5.63838 21.836C6.09143 22.1663 6.70612 22.1654 7.15826 21.8339L11.7472 18.469C11.8982 18.3584 12.1035 18.3584 12.2545 18.469L16.8418 21.833C17.2937 22.1657 17.9091 22.1673 18.3628 21.8371C18.8165 21.5068 19.0041 20.9207 18.8264 20.3884L16.9568 14.7788C16.9008 14.6108 16.9536 14.4257 17.0899 14.3127L21.5484 10.6164C21.9588 10.266 22.1072 9.69683 21.92 9.19063Z" />
</svg>