<!--character:9958-->
  <svg width="24" height="24" viewBox="0 0 24 24" >
<path d="M21.92 9.1906C21.7322 8.68615 21.2514 8.35097 20.7131 8.34938H15.4881C15.3058 8.34951 15.1434 8.23456 15.0829 8.06267L13.2073 2.74665C13.0192 2.24349 12.5384 1.91 12.0013 1.91C11.4641 1.91 10.9834 2.24349 10.7952 2.74665L10.7909 2.76038L8.91963 8.06267C8.85924 8.23426 8.69724 8.34914 8.51533 8.34938H3.28857C2.74662 8.34897 2.26243 8.68796 2.07739 9.19734C1.89235 9.70673 2.04608 10.2775 2.46194 10.625L6.91185 14.3161C7.04809 14.4291 7.10093 14.6142 7.0449 14.7822L5.17532 20.3883C4.99803 20.9202 5.18528 21.5057 5.63833 21.836C6.09138 22.1662 6.70607 22.1654 7.15821 21.8339L11.7472 18.469C11.8982 18.3583 12.1035 18.3583 12.2545 18.469L16.8417 21.833C17.2937 22.1657 17.9091 22.1673 18.3628 21.837C18.8165 21.5067 19.004 20.9207 18.8263 20.3883L16.9568 14.7787C16.9007 14.6108 16.9536 14.4257 17.0898 14.3126L21.5483 10.6164C21.9588 10.266 22.1071 9.69679 21.92 9.1906Z" />
</svg>