<!--character:3024:2866-->
<svg width="24" height="24" viewBox="0 0 24 24">
  <path d="M20.6576 8.308C21.2199 8.30939 21.7222 8.65996 21.9174 9.1873C22.1112 9.7154 21.9565 10.3083 21.5296 10.6745L16.9066 14.5062L18.8431 20.3175C19.0275 20.8723 18.832 21.4826 18.3595 21.8269C17.8871 22.1712 17.2462 22.1704 16.7746 21.8249L12.0003 18.3242L7.22509 21.823C6.75293 22.1693 6.11092 22.1698 5.63822 21.8243C5.16552 21.4788 4.97103 20.867 5.15749 20.312L7.09306 14.5044L2.48015 10.6818C2.04745 10.3188 1.88792 9.72388 2.08088 9.193C2.27383 8.66212 2.7781 8.30852 3.34295 8.308H8.79115L10.7359 2.79928C10.9264 2.26884 11.4277 1.91372 11.9913 1.91003C12.5549 1.90634 13.0609 2.25488 13.2583 2.78278L15.2094 8.308H20.6576ZM14.9692 14.4925C14.8497 14.1335 14.963 13.738 15.2544 13.4967L18.8073 10.548C18.882 10.4865 18.9101 10.3847 18.8774 10.2936C18.8447 10.2025 18.7583 10.1418 18.6615 10.1418H14.5584C14.1695 10.1417 13.8229 9.89619 13.6938 9.5293L12.2167 5.34092C12.1845 5.24893 12.0977 5.18733 12.0003 5.18733C11.9028 5.18733 11.816 5.24893 11.7839 5.34092L10.3059 9.5293C10.1767 9.89619 9.83018 10.1417 9.44123 10.1418H5.33812C5.24134 10.1418 5.15497 10.2025 5.12228 10.2936C5.08959 10.3847 5.11762 10.4865 5.19233 10.548L8.74805 13.493C9.0391 13.7346 9.15198 14.13 9.03229 14.4888L7.61294 18.7496C7.58179 18.8442 7.6153 18.9481 7.69584 19.0067C7.77639 19.0653 7.88554 19.0651 7.96594 19.0063L11.4566 16.4455C11.7794 16.2087 12.2185 16.2087 12.5413 16.4455L16.0365 19.0109C16.117 19.0701 16.2266 19.0702 16.3073 19.0113C16.388 18.9524 16.4212 18.848 16.3895 18.7533L14.9692 14.4925Z" />
</svg>
