<!--character:393-->
  <svg width="24" height="24" viewBox="0 0 24 24" >
<path d="M11.2898 1.8164C11.4531 1.84874 11.6045 1.92804 11.7241 2.04603C11.8837 2.20353 11.9734 2.41707 11.9734 2.63979V9.5681H17.0914L18.2161 6.60913L18.318 6.36857C18.5774 5.81752 18.9817 5.34309 19.4903 4.99515C20.0716 4.59752 20.3254 4.51192 21.0327 4.51184C21.4618 4.55474 21.6 4.63685 21.6 5.0717V5.63156C21.4816 5.8579 21.3052 6.03888 21.0327 6.19142C20.8282 6.3059 20.7564 6.17232 20.4598 6.37513C20.2003 6.55264 19.9938 6.79489 19.8615 7.07605L19.8094 7.19852L18.4776 10.7031C18.475 10.7097 18.4725 10.7163 18.4698 10.7228L16.5086 15.8819C16.5061 15.8883 16.5046 15.8951 16.5019 15.9015L16.2072 16.6768C16.3598 16.6517 16.5148 16.6364 16.6715 16.6364L16.9496 16.6495C17.595 16.7126 18.2022 16.9945 18.6648 17.451C19.1934 17.9727 19.4903 18.6804 19.4903 19.4182C19.4903 20.156 19.1935 20.8637 18.6648 21.3854C18.2022 21.8419 17.595 22.1238 16.9496 22.1869L16.6715 22.2C15.924 22.1999 15.2067 21.907 14.6781 21.3854C14.3105 21.0225 14.0584 20.5689 13.9368 20.0786H10.8565C10.8227 20.2119 10.7792 20.3428 10.7258 20.4701C10.5841 20.8074 10.3768 21.1141 10.1152 21.3722C9.85363 21.6304 9.54287 21.8349 9.20111 21.9747C8.85911 22.1145 8.49206 22.1869 8.12188 22.1869C7.75171 22.1869 7.38465 22.1145 7.04266 21.9747C6.70089 21.8349 6.39013 21.6304 6.12853 21.3722C5.86694 21.1141 5.65965 20.8074 5.51801 20.4701C5.41182 20.2171 5.34351 19.95 5.31634 19.6784L5.30305 19.4051C5.30307 18.6673 5.59991 17.9596 6.12853 17.4379C6.65716 16.9162 7.3743 16.6232 8.12188 16.6232L8.4 16.6364C9.04548 16.6995 9.65256 16.9813 10.1152 17.4379C10.3946 17.7136 10.6065 18.0424 10.7468 18.3991H13.8936C13.8547 18.2409 13.8613 18.0697 13.9235 17.9059L14.4853 16.4264H5.5867C5.10457 16.4263 4.636 16.2676 4.25596 15.9748C3.92345 15.7186 3.67548 15.3724 3.54017 14.9808L3.4892 14.8102L2.42548 10.6113C2.42357 10.6037 2.42275 10.5959 2.42105 10.5883C2.41056 10.5411 2.40318 10.4927 2.40111 10.4429C2.4008 10.4356 2.40011 10.4283 2.4 10.421V10.4079C2.4 8.12494 3.31935 5.93586 4.95512 4.32157C6.5909 2.70728 8.8091 1.8 11.1224 1.8L11.2898 1.8164ZM16.6715 18.316C16.3753 18.316 16.0908 18.4319 15.8814 18.6385C15.6721 18.8452 15.5546 19.1259 15.5546 19.4182C15.5546 19.7104 15.6721 19.9911 15.8814 20.1978C16.0908 20.4045 16.3753 20.5203 16.6715 20.5204L16.7823 20.5149C17.0378 20.4898 17.2783 20.3785 17.4615 20.1978C17.671 19.9911 17.7884 19.7105 17.7884 19.4182C17.7883 19.1259 17.6709 18.8452 17.4615 18.6385C17.2783 18.4579 17.0377 18.3465 16.7823 18.3214L16.6715 18.316ZM8.12188 18.3028C7.82568 18.3028 7.54131 18.4187 7.33186 18.6254C7.12241 18.8321 7.005 19.1128 7.00499 19.4051L7.01053 19.5133C7.02129 19.6209 7.04824 19.7269 7.0903 19.8271C7.14642 19.9607 7.22825 20.0825 7.33186 20.1847C7.43547 20.287 7.55882 20.3677 7.69418 20.4231C7.82969 20.4785 7.97521 20.5073 8.12188 20.5073C8.26856 20.5073 8.41408 20.4785 8.54958 20.4231C8.68495 20.3677 8.80829 20.287 8.91191 20.1847C9.01552 20.0825 9.09734 19.9607 9.15346 19.8271C9.1928 19.7334 9.21672 19.6345 9.22881 19.5341L9.23324 19.2957C9.20776 19.0436 9.09507 18.8062 8.91191 18.6254C8.72874 18.4447 8.4882 18.3334 8.23269 18.3083L8.12188 18.3028ZM5.14017 14.4024L5.16454 14.4735C5.195 14.5425 5.24229 14.6037 5.30305 14.6506C5.38394 14.7129 5.48408 14.7467 5.5867 14.7468H15.1235L16.4532 11.2477H4.34127L5.14017 14.4024ZM10.2715 3.53208C8.72318 3.71866 7.27282 4.40935 6.15845 5.50909C5.04408 6.60883 4.34425 8.0402 4.15512 9.5681H10.2715V3.53208Z" />
</svg>