<!--character:7665-->
  <svg width="20" height="20" viewBox="0 0 20 20" >
<path d="M9.86095 1.66761C5.27761 1.73706 1.6665 5.69539 1.6665 10.2787V17.6398C1.6665 18.0565 1.94428 18.3343 2.36095 18.3343H4.30539C4.30539 18.2996 4.32275 18.2648 4.34012 18.2301C4.35748 18.1954 4.37484 18.1607 4.37484 18.1259L5.90262 15.9037C6.11095 15.6259 6.45817 15.5565 6.73595 15.7648C7.01373 15.9732 7.08317 16.3204 6.87484 16.5982L5.69428 18.3343H14.3054L13.1248 16.5287C12.9165 16.2509 12.9859 15.9037 13.2637 15.6954C13.5415 15.4871 13.8887 15.5565 14.0971 15.8343L15.6248 18.0565C15.6943 18.1259 15.6943 18.1954 15.6943 18.2648H17.6387C18.0554 18.2648 18.3332 17.9871 18.3332 17.5704V10.0009C18.3332 5.34817 14.5137 1.59817 9.86095 1.66761ZM9.23595 9.44539C9.30539 9.44539 9.37484 9.37595 9.37484 9.3065V6.04261C9.37484 5.90372 9.30539 5.83428 9.23595 5.83428H7.9165C7.08317 5.83428 6.38873 6.52872 6.38873 7.36206V9.65372C6.45817 9.79261 6.52761 9.79261 6.59706 9.79261C7.49984 9.58428 8.33317 9.51484 9.23595 9.44539ZM7.43039 11.2509H6.52761C6.38873 11.2509 6.24984 11.3898 6.24984 11.5287V12.1537C6.24984 12.2926 6.38873 12.4315 6.52761 12.4315H7.43039C7.77761 12.4315 8.05539 12.1537 8.05539 11.8065C8.05539 11.5287 7.77761 11.2509 7.43039 11.2509ZM13.4026 9.79261C12.5693 9.58428 11.6665 9.44539 10.7637 9.44539C10.6943 9.44539 10.6248 9.37595 10.6248 9.3065V5.97317C10.6248 5.90372 10.6943 5.83428 10.7637 5.83428H12.0832C12.9165 5.83428 13.6109 6.52872 13.5415 7.36206V9.65372C13.5415 9.72317 13.4721 9.79261 13.4026 9.79261ZM13.7498 14.9315C12.4998 15.2093 11.2498 15.3482 9.99984 15.4176C8.74984 15.3482 7.49984 15.2093 6.31928 14.9315C5.69428 14.7926 5.20817 14.2371 5.20817 13.6121V7.36206C5.20817 5.90372 6.38873 4.65372 7.9165 4.65372H12.0832C13.5415 4.65372 14.7915 5.83428 14.7915 7.36206V13.6121C14.7915 14.2371 14.3748 14.7926 13.7498 14.9315ZM11.1804 12.9176C11.2498 12.9176 11.3193 12.9871 11.3193 13.0565V14.1676C11.3193 14.2371 11.2498 14.3065 11.1804 14.3065C11.0147 14.3065 10.8332 14.3223 10.6434 14.3389C10.4355 14.357 10.2177 14.3759 9.99984 14.3759C9.65262 14.3759 9.23595 14.3759 8.81928 14.3065C8.74984 14.3065 8.68039 14.2371 8.68039 14.1676V13.0565C8.68039 12.9871 8.74984 12.9176 8.81928 12.9176H11.1804ZM12.5693 11.2509H13.4721C13.6109 11.2509 13.7498 11.3898 13.7498 11.5982V12.2232C13.7498 12.3621 13.6109 12.5009 13.4721 12.5009H12.5693C12.2221 12.5009 11.9443 12.2232 11.9443 11.8759C11.9443 11.5287 12.2221 11.2509 12.5693 11.2509Z" />
</svg>