<!--character:1584-->
  <svg width="24" height="24" viewBox="0 0 24 24" >
<path d="M11.8331 2.00114C6.33314 2.08447 1.9998 6.83447 1.9998 12.3345V21.1678C1.9998 21.6678 2.33314 22.0011 2.83314 22.0011H5.16647C5.16647 21.9595 5.18731 21.9178 5.20814 21.8761C5.22897 21.8345 5.2498 21.7928 5.2498 21.7511L7.08314 19.0845C7.33314 18.7511 7.74981 18.6678 8.08314 18.9178C8.41647 19.1678 8.49981 19.5845 8.2498 19.9178L6.83314 22.0011H17.1665L15.7498 19.8345C15.4998 19.5011 15.5831 19.0845 15.9165 18.8345C16.2498 18.5845 16.6665 18.6678 16.9165 19.0011L18.7498 21.6678C18.8331 21.7511 18.8331 21.8345 18.8331 21.9178H21.1665C21.6665 21.9178 21.9998 21.5845 21.9998 21.0845V12.0011C21.9998 6.4178 17.4165 1.9178 11.8331 2.00114ZM11.0831 11.3345C11.1665 11.3345 11.2498 11.2511 11.2498 11.1678V7.25114C11.2498 7.08447 11.1665 7.00114 11.0831 7.00114H9.4998C8.4998 7.00114 7.66647 7.83447 7.66647 8.83447V11.5845C7.7498 11.7511 7.83314 11.7511 7.91647 11.7511C8.9998 11.5011 9.9998 11.4178 11.0831 11.3345ZM8.91647 13.5011H7.83314C7.66647 13.5011 7.4998 13.6678 7.4998 13.8345V14.5845C7.4998 14.7511 7.66647 14.9178 7.83314 14.9178H8.91647C9.33314 14.9178 9.66647 14.5845 9.66647 14.1678C9.66647 13.8345 9.33314 13.5011 8.91647 13.5011ZM16.0831 11.7511C15.0831 11.5011 13.9998 11.3345 12.9165 11.3345C12.8331 11.3345 12.7498 11.2511 12.7498 11.1678V7.1678C12.7498 7.08447 12.8331 7.00114 12.9165 7.00114H14.4998C15.4998 7.00114 16.3331 7.83447 16.2498 8.83447V11.5845C16.2498 11.6678 16.1665 11.7511 16.0831 11.7511ZM16.4998 17.9178C14.9998 18.2511 13.4998 18.4178 11.9998 18.5011C10.4998 18.4178 8.9998 18.2511 7.58314 17.9178C6.83314 17.7511 6.2498 17.0845 6.2498 16.3345V8.83447C6.2498 7.08447 7.66647 5.58447 9.4998 5.58447H14.4998C16.2498 5.58447 17.7498 7.00114 17.7498 8.83447V16.3345C17.7498 17.0845 17.2498 17.7511 16.4998 17.9178ZM13.4165 15.5011C13.4998 15.5011 13.5831 15.5845 13.5831 15.6678V17.0011C13.5831 17.0845 13.4998 17.1678 13.4165 17.1678C13.2176 17.1678 12.9998 17.1868 12.7721 17.2066C12.5226 17.2284 12.2612 17.2511 11.9998 17.2511C11.5831 17.2511 11.0831 17.2511 10.5831 17.1678C10.4998 17.1678 10.4165 17.0845 10.4165 17.0011V15.6678C10.4165 15.5845 10.4998 15.5011 10.5831 15.5011H13.4165ZM15.0831 13.5011H16.1665C16.3331 13.5011 16.4998 13.6678 16.4998 13.9178V14.6678C16.4998 14.8345 16.3331 15.0011 16.1665 15.0011H15.0831C14.6665 15.0011 14.3331 14.6678 14.3331 14.2511C14.3331 13.8345 14.6665 13.5011 15.0831 13.5011Z" />
</svg>