<!--character:7603-->
  <svg width="24" height="24" viewBox="0 0 24 24" >
<path d="M11.8334 2.00114C6.33336 2.08447 2.00002 6.83447 2.00002 12.3345V21.1678C2.00002 21.6678 2.33336 22.0011 2.83336 22.0011H5.16669C5.16669 21.9595 5.18752 21.9178 5.20836 21.8761C5.22919 21.8345 5.25002 21.7928 5.25002 21.7511L7.08336 19.0845C7.33336 18.7511 7.75002 18.6678 8.08336 18.9178C8.41669 19.1678 8.50002 19.5845 8.25002 19.9178L6.83336 22.0011H17.1667L15.75 19.8345C15.5 19.5011 15.5834 19.0845 15.9167 18.8345C16.25 18.5845 16.6667 18.6678 16.9167 19.0011L18.75 21.6678C18.8334 21.7511 18.8334 21.8345 18.8334 21.9178H21.1667C21.6667 21.9178 22 21.5845 22 21.0845V12.0011C22 6.4178 17.4167 1.9178 11.8334 2.00114ZM11.0834 11.3345C11.1667 11.3345 11.25 11.2511 11.25 11.1678V7.25114C11.25 7.08447 11.1667 7.00114 11.0834 7.00114H9.50002C8.50002 7.00114 7.66669 7.83447 7.66669 8.83447V11.5845C7.75002 11.7511 7.83336 11.7511 7.91669 11.7511C9.00002 11.5011 10 11.4178 11.0834 11.3345ZM8.91669 13.5011H7.83336C7.66669 13.5011 7.50002 13.6678 7.50002 13.8345V14.5845C7.50002 14.7511 7.66669 14.9178 7.83336 14.9178H8.91669C9.33336 14.9178 9.66669 14.5845 9.66669 14.1678C9.66669 13.8345 9.33336 13.5011 8.91669 13.5011ZM16.0834 11.7511C15.0834 11.5011 14 11.3345 12.9167 11.3345C12.8334 11.3345 12.75 11.2511 12.75 11.1678V7.1678C12.75 7.08447 12.8334 7.00114 12.9167 7.00114H14.5C15.5 7.00114 16.3334 7.83447 16.25 8.83447V11.5845C16.25 11.6678 16.1667 11.7511 16.0834 11.7511ZM16.5 17.9178C15 18.2511 13.5 18.4178 12 18.5011C10.5 18.4178 9.00002 18.2511 7.58336 17.9178C6.83336 17.7511 6.25002 17.0845 6.25002 16.3345V8.83447C6.25002 7.08447 7.66669 5.58447 9.50002 5.58447H14.5C16.25 5.58447 17.75 7.00114 17.75 8.83447V16.3345C17.75 17.0845 17.25 17.7511 16.5 17.9178ZM13.4167 15.5011C13.5 15.5011 13.5834 15.5845 13.5834 15.6678V17.0011C13.5834 17.0845 13.5 17.1678 13.4167 17.1678C13.2178 17.1678 13 17.1868 12.7723 17.2066C12.5228 17.2284 12.2614 17.2511 12 17.2511C11.5834 17.2511 11.0834 17.2511 10.5834 17.1678C10.5 17.1678 10.4167 17.0845 10.4167 17.0011V15.6678C10.4167 15.5845 10.5 15.5011 10.5834 15.5011H13.4167ZM15.0834 13.5011H16.1667C16.3334 13.5011 16.5 13.6678 16.5 13.9178V14.6678C16.5 14.8345 16.3334 15.0011 16.1667 15.0011H15.0834C14.6667 15.0011 14.3334 14.6678 14.3334 14.2511C14.3334 13.8345 14.6667 13.5011 15.0834 13.5011Z" />
</svg>