<!--character:23:472:392-->
<svg width="24" height="24" viewBox="0 0 24 24" xmlns="http://www.w3.org/2000/svg"><path d="M7.9167 11.7511c1.0833-.25 2.0833-.3333 3.1666-.4166.0834 0 .1667-.0834.1667-.1667V7.2511c0-.1666-.0833-.25-.1667-.25H9.5c-1 0-1.8333.8334-1.8333 1.8334v2.75c.0833.1666.1666.1666.25.1666zm1 1.75H7.8333c-.1666 0-.3333.1667-.3333.3334v.75c0 .1666.1667.3333.3333.3333h1.0834c.4166 0 .75-.3333.75-.75 0-.3333-.3334-.6667-.75-.6667zm4-2.1666c1.0833 0 2.1666.1666 3.1666.4166.0834 0 .1667-.0833.1667-.1666v-2.75c.0833-1-.75-1.8334-1.75-1.8334h-1.5833c-.0834 0-.1667.0834-.1667.1667v4c0 .0833.0833.1667.1667.1667zM11.8333 2.001C6.3333 2.0845 2 6.8345 2 12.3345v8.8333c0 .5.3333.8333.8333.8333h2.3334c0-.0833.0833-.1666.0833-.25l1.8333-2.6666c.25-.3334.6667-.4167 1-.1667.3334.25.4167.6667.1667 1l-1.4167 2.0833h10.3334L15.75 19.8345c-.25-.3334-.1667-.75.1667-1 .3333-.25.75-.1667 1 .1666l1.8333 2.6667c.0833.0833.0833.1667.0833.25h2.3334c.5 0 .8333-.3333.8333-.8333V12.001c0-5.5833-4.5833-10.0833-10.1667-10zM17.75 16.3345c0 .75-.5 1.4166-1.25 1.5833-1.5.3333-3 .5-4.5.5833-1.5-.0833-3-.25-4.4167-.5833-.75-.1667-1.3333-.8333-1.3333-1.5833v-7.5c0-1.75 1.4167-3.25 3.25-3.25h5c1.75 0 3.25 1.4166 3.25 3.25v7.5zm-4.3333-.8334h-2.8334c-.0833 0-.1666.0834-.1666.1667v1.3333c0 .0834.0833.1667.1666.1667.5.0833 1 .0833 1.4167.0833.5 0 1-.0833 1.4167-.0833.0833 0 .1666-.0833.1666-.1667v-1.3333c0-.0833-.0833-.1667-.1666-.1667zm2.75-2h-1.0834a.7469.7469 0 0 0-.75.75c0 .4167.3334.75.75.75h1.0834c.1666 0 .3333-.1666.3333-.3333v-.75c0-.25-.1667-.4167-.3333-.4167z"/></svg></svg>
