<!-- character:0:1121 -->
  <svg width="20" height="20" viewBox="0 0 20 20" >
<path   d="M9.86113 1.66758C5.2778 1.73702 1.66669 5.69535 1.66669 10.2787V17.6398C1.66669 18.0565 1.94446 18.3342 2.36113 18.3342H4.30558C4.30558 18.2995 4.32294 18.2648 4.3403 18.2301C4.35766 18.1954 4.37502 18.1606 4.37502 18.1259L5.9028 15.9037C6.11113 15.6259 6.45835 15.5565 6.73613 15.7648C7.01391 15.9731 7.08335 16.3204 6.87502 16.5981L5.69447 18.3342H14.3056L13.125 16.5287C12.9167 16.2509 12.9861 15.9037 13.2639 15.6954C13.5417 15.487 13.8889 15.5565 14.0972 15.8342L15.625 18.0565C15.6945 18.1259 15.6945 18.1954 15.6945 18.2648H17.6389C18.0556 18.2648 18.3334 17.987 18.3334 17.5704V10.0009C18.3334 5.34813 14.5139 1.59813 9.86113 1.66758ZM9.23613 9.44535C9.30558 9.44535 9.37502 9.37591 9.37502 9.30646V6.04258C9.37502 5.90369 9.30558 5.83424 9.23613 5.83424H7.91669C7.08335 5.83424 6.38891 6.52869 6.38891 7.36202V9.65369C6.45835 9.79257 6.5278 9.79257 6.59724 9.79257C7.50002 9.58424 8.33335 9.5148 9.23613 9.44535ZM7.43058 11.2509H6.5278C6.38891 11.2509 6.25002 11.3898 6.25002 11.5287V12.1537C6.25002 12.2926 6.38891 12.4315 6.5278 12.4315H7.43058C7.7778 12.4315 8.05558 12.1537 8.05558 11.8065C8.05558 11.5287 7.7778 11.2509 7.43058 11.2509ZM13.4028 9.79257C12.5695 9.58424 11.6667 9.44535 10.7639 9.44535C10.6945 9.44535 10.625 9.37591 10.625 9.30646V5.97313C10.625 5.90369 10.6945 5.83424 10.7639 5.83424H12.0834C12.9167 5.83424 13.6111 6.52869 13.5417 7.36202V9.65369C13.5417 9.72313 13.4722 9.79257 13.4028 9.79257ZM13.75 14.9315C14.375 14.7926 14.7917 14.237 14.7917 13.612V7.36202C14.7917 5.83424 13.5417 4.65369 12.0834 4.65369H7.91669C6.38891 4.65369 5.20835 5.90369 5.20835 7.36202V13.612C5.20835 14.237 5.69446 14.7926 6.31946 14.9315C7.50002 15.2092 8.75002 15.3481 10 15.4176C11.25 15.3481 12.5 15.2092 13.75 14.9315ZM11.1806 12.9176H8.81946C8.75002 12.9176 8.68058 12.987 8.68058 13.0565V14.1676C8.68058 14.237 8.75002 14.3065 8.81946 14.3065C9.23613 14.3759 9.6528 14.3759 10 14.3759C10.2178 14.3759 10.4357 14.3569 10.6436 14.3388C10.8334 14.3223 11.0149 14.3065 11.1806 14.3065C11.25 14.3065 11.3195 14.237 11.3195 14.1676V13.0565C11.3195 12.987 11.25 12.9176 11.1806 12.9176ZM12.5695 11.2509H13.4722C13.6111 11.2509 13.75 11.3898 13.75 11.5981V12.2231C13.75 12.362 13.6111 12.5009 13.4722 12.5009H12.5695C12.2222 12.5009 11.9445 12.2231 11.9445 11.8759C11.9445 11.5287 12.2222 11.2509 12.5695 11.2509Z" />
</svg>