<!--character:1265-->
  <svg width="24" height="24" viewBox="0 0 24 24" >
<path d="M19.9168 6.99334H16.4168C16.1668 6.99334 16.0001 6.82667 16.0001 6.57667V5.74334C16.0001 4.57667 15.0834 3.66 13.9168 3.66H10.1668C9.0001 3.66 8.0001 4.57667 8.0001 5.74334V6.57667C8.0001 6.82667 7.83343 6.99334 7.66676 6.99334H4.08343C2.91676 6.99334 2.0001 7.91 2.0001 9.07667V18.2433C2.0001 19.41 2.91676 20.3267 4.08343 20.3267H19.9168C21.0834 20.3267 22.0001 19.41 22.0001 18.2433V9.07667C22.0001 7.91 21.0834 6.99334 19.9168 6.99334ZM14.3334 6.57667C14.3334 6.82667 14.1668 6.99334 13.9168 6.99334H10.1668C9.91676 6.99334 9.66676 6.82667 9.66676 6.57667V5.74334C9.7501 5.49334 9.91676 5.32667 10.1668 5.32667H13.9168C14.1668 5.32667 14.3334 5.49334 14.3334 5.74334V6.57667ZM16.1668 11.16C16.1668 10.2433 16.9168 9.49334 17.8334 9.49334C18.7501 9.49334 19.5001 10.2433 19.5001 11.16C19.5001 12.0767 18.7501 12.8267 17.8334 12.8267C16.9168 12.8267 16.1668 12.0767 16.1668 11.16Z" />
</svg>