<!--character:107:550:822-->
<svg width="24" height="24" viewBox="0 0 24 24" xmlns="http://www.w3.org/2000/svg"><path d="M19.9167 6.9933h-3.5c-.25 0-.4167-.1666-.4167-.4166v-.8334c0-1.1666-.9167-2.0833-2.0833-2.0833h-3.75C9 3.66 8 4.5767 8 5.7433v.8334c0 .25-.1667.4166-.3333.4166H4.0833C2.9167 6.9933 2 7.91 2 9.0767v9.1666c0 1.1667.9167 2.0834 2.0833 2.0834h15.8334c1.1666 0 2.0833-.9167 2.0833-2.0834V9.0767c0-1.1667-.9167-2.0834-2.0833-2.0834zm-5.5834-.4166c0 .25-.1666.4166-.4166.4166h-3.75c-.25 0-.5-.1666-.5-.4166v-.8334c.0833-.25.25-.4166.5-.4166h3.75c.25 0 .4166.1666.4166.4166v.8334zm3.5 6.25c-.9166 0-1.6666-.75-1.6666-1.6667 0-.9167.75-1.6667 1.6666-1.6667.9167 0 1.6667.75 1.6667 1.6667 0 .9167-.75 1.6667-1.6667 1.6667z"/></svg></svg>
