<!--character:3588-->
  <svg width="20" height="20" viewBox="0 0 20 20" >
<path d="M16.5973 5.82778H13.6806C13.4723 5.82778 13.3334 5.68889 13.3334 5.48056V4.78611C13.3334 3.81389 12.5695 3.05 11.5973 3.05H8.4723C7.50008 3.05 6.66675 3.81389 6.66675 4.78611V5.48056C6.66675 5.68889 6.52786 5.82778 6.38897 5.82778H3.40286C2.43064 5.82778 1.66675 6.59167 1.66675 7.56389V15.2028C1.66675 16.175 2.43064 16.9389 3.40286 16.9389H16.5973C17.5695 16.9389 18.3334 16.175 18.3334 15.2028V7.56389C18.3334 6.59167 17.5695 5.82778 16.5973 5.82778ZM11.9445 5.48056C11.9445 5.68889 11.8056 5.82778 11.5973 5.82778H8.4723C8.26397 5.82778 8.05564 5.68889 8.05564 5.48056V4.78611C8.12508 4.57778 8.26397 4.43889 8.4723 4.43889H11.5973C11.8056 4.43889 11.9445 4.57778 11.9445 4.78611V5.48056ZM13.4723 9.3C13.4723 8.53611 14.0973 7.91111 14.8612 7.91111C15.6251 7.91111 16.2501 8.53611 16.2501 9.3C16.2501 10.0639 15.6251 10.6889 14.8612 10.6889C14.0973 10.6889 13.4723 10.0639 13.4723 9.3Z" />
</svg>