<!-- character:0:841 -->
  <svg width="20" height="20" viewBox="0 0 20 20" >
<path   d="M16.5972 5.82776H13.6805C13.4722 5.82776 13.3333 5.68888 13.3333 5.48054V4.7861C13.3333 3.81388 12.5694 3.04999 11.5972 3.04999H8.47221C7.49999 3.04999 6.66666 3.81388 6.66666 4.7861V5.48054C6.66666 5.68888 6.52777 5.82776 6.38888 5.82776H3.40277C2.43055 5.82776 1.66666 6.59165 1.66666 7.56388V15.2028C1.66666 16.175 2.43055 16.9389 3.40277 16.9389H16.5972C17.5694 16.9389 18.3333 16.175 18.3333 15.2028V7.56388C18.3333 6.59165 17.5694 5.82776 16.5972 5.82776ZM11.9444 5.48054C11.9444 5.68888 11.8055 5.82776 11.5972 5.82776H8.47221C8.26388 5.82776 8.05554 5.68888 8.05554 5.48054V4.7861C8.12499 4.57777 8.26388 4.43888 8.47221 4.43888H11.5972C11.8055 4.43888 11.9444 4.57777 11.9444 4.7861V5.48054ZM13.4722 9.29999C13.4722 10.0639 14.0972 10.6889 14.8611 10.6889C15.625 10.6889 16.25 10.0639 16.25 9.29999C16.25 8.5361 15.625 7.9111 14.8611 7.9111C14.0972 7.9111 13.4722 8.5361 13.4722 9.29999Z" />
</svg>