<!--character:6487-->
  <svg width="24" height="24" viewBox="0 0 24 24" >
<path d="M12 4.88917C12.4602 4.88917 12.8333 4.51607 12.8333 4.05583V2.83333C12.8333 2.3731 12.4602 2 12 2C11.5398 2 11.1667 2.3731 11.1667 2.83333V4.05583C11.1667 4.51607 11.5398 4.88917 12 4.88917Z" />
<path d="M5.87084 12C5.87084 8.61496 8.61496 5.87084 12 5.87084C15.3835 5.87451 18.1255 8.61648 18.1292 12C18.1292 15.385 15.385 18.1292 12 18.1292C8.61496 18.1292 5.87084 15.385 5.87084 12ZM7.53749 12C7.53749 14.4646 9.53542 16.4625 12 16.4625C14.4634 16.4598 16.4597 14.4635 16.4625 12C16.4625 9.53545 14.4646 7.53752 12 7.53752C9.53542 7.53752 7.53749 9.53545 7.53749 12Z" />
<path d="M6.60374 7.19893C6.31239 7.2752 6.00255 7.18832 5.79332 6.97168L4.92915 6.10752C4.61334 5.78054 4.61786 5.26078 4.93931 4.93934C5.26075 4.61789 5.78051 4.61337 6.10749 4.92918L6.97165 5.79335C7.18828 6.00258 7.27516 6.31242 7.1989 6.60377C7.12264 6.89513 6.8951 7.12267 6.60374 7.19893Z" />
<path d="M4.05583 11.1667H2.83333C2.3731 11.1667 2 11.5398 2 12C2 12.4603 2.3731 12.8334 2.83333 12.8334H4.05583C4.51607 12.8334 4.88917 12.4603 4.88917 12C4.88917 11.5398 4.51607 11.1667 4.05583 11.1667Z" />
<path d="M4.92915 17.8925L5.79332 17.0283C6.00255 16.8117 6.31238 16.7248 6.60374 16.8011C6.8951 16.8774 7.12264 17.1049 7.1989 17.3962C7.27516 17.6876 7.18828 17.9974 6.97165 18.2067L6.10749 19.0708C5.89826 19.2875 5.58842 19.3743 5.29706 19.2981C5.0057 19.2218 4.77817 18.9943 4.7019 18.7029C4.62564 18.4116 4.71252 18.1017 4.92915 17.8925Z" />
<path d="M12 19.1108C11.5398 19.1108 11.1667 19.4839 11.1667 19.9442V21.1667C11.1667 21.6269 11.5398 22 12 22C12.4602 22 12.8333 21.6269 12.8333 21.1667V19.9442C12.8333 19.4839 12.4602 19.1108 12 19.1108Z" />
<path d="M17.0385 17.0385C17.3599 16.717 17.8797 16.7125 18.2067 17.0283L19.0708 17.8925C19.3867 18.2195 19.3821 18.7392 19.0607 19.0607C18.7392 19.3821 18.2195 19.3867 17.8925 19.0708L17.0283 18.2067C16.7125 17.8797 16.717 17.3599 17.0385 17.0385Z" />
<path d="M21.1667 11.1667H19.9442C19.4839 11.1667 19.1108 11.5398 19.1108 12C19.1108 12.4603 19.4839 12.8334 19.9442 12.8334H21.1667C21.6269 12.8334 22 12.4603 22 12C22 11.5398 21.6269 11.1667 21.1667 11.1667Z" />
<path d="M18.2067 6.97168C18.0504 7.12798 17.8385 7.2158 17.6175 7.21585C17.2805 7.21578 16.9767 7.01274 16.8478 6.7014C16.7188 6.39005 16.7901 6.03168 17.0283 5.79335L17.8925 4.92918C18.2195 4.61337 18.7392 4.61789 19.0607 4.93934C19.3821 5.26078 19.3866 5.78054 19.0708 6.10752L18.2067 6.97168Z" />
</svg>