<!--category:time-->
<!--character:E096-->
<!--added:0.22-->
<svg width="24" height="24" viewBox="0 0 24 24" xmlns="http://www.w3.org/2000/svg"><path d="M12 5.8708c3.3835.0037 6.1255 2.7457 6.1292 6.1292 0 3.385-2.7442 6.1292-6.1292 6.1292S5.8708 15.385 5.8708 12 8.615 5.8708 12 5.8708zm0 10.5917c2.4634-.0028 4.4597-1.999 4.4625-4.4625 0-2.4646-1.998-4.4625-4.4625-4.4625-2.4646 0-4.4625 1.998-4.4625 4.4625 0 2.4646 1.998 4.4625 4.4625 4.4625zm0-11.5733a.8333.8333 0 0 1-.8333-.8334V2.8333a.8333.8333 0 1 1 1.6666 0v1.2225A.8333.8333 0 0 1 12 4.8892zM5.7933 6.9717l-.8641-.8642a.8333.8333 0 0 1 1.1783-1.1783l.8642.8641a.8333.8333 0 1 1-1.1784 1.1784zm-1.7375 4.195a.8333.8333 0 1 1 0 1.6666H2.8333a.8333.8333 0 1 1 0-1.6666h1.2225zm1.7375 5.8616a.8333.8333 0 1 1 1.1784 1.1784l-.8642.8641a.8333.8333 0 1 1-1.1783-1.1783l.8641-.8642zM12 19.1108a.8333.8333 0 0 1 .8333.8334v1.2225a.8333.8333 0 1 1-1.6666 0v-1.2225A.8333.8333 0 0 1 12 19.1108zm6.2067-2.0825l.8641.8642a.8333.8333 0 0 1-1.1783 1.1783l-.8642-.8641a.8333.8333 0 0 1 1.1784-1.1784zm2.96-5.8616a.8333.8333 0 1 1 0 1.6666h-1.2225a.8333.8333 0 1 1 0-1.6666h1.2225zm-3.5492-3.9509a.8333.8333 0 0 1-.5892-1.4225l.8642-.8641a.8333.8333 0 0 1 1.1783 1.1783l-.8641.8642a.8333.8333 0 0 1-.5892.2441z"/></svg>