<!-- character:0:1561 -->
  <svg width="20" height="20" viewBox="0 0 20 20" >
<path   d="M9.99996 4.07439C10.3835 4.07439 10.6944 3.76347 10.6944 3.37994V2.36119C10.6944 1.97766 10.3835 1.66675 9.99996 1.66675C9.61643 1.66675 9.30551 1.97766 9.30551 2.36119V3.37994C9.30551 3.76347 9.61643 4.07439 9.99996 4.07439ZM4.89232 10.0001C4.89232 7.17921 7.17909 4.89244 9.99996 4.89244C12.8196 4.8955 15.1045 7.18048 15.1076 10.0001C15.1076 12.821 12.8208 15.1077 9.99996 15.1077C7.17909 15.1077 4.89232 12.821 4.89232 10.0001ZM6.28121 10.0001C6.28121 12.0539 7.94615 13.7188 9.99996 13.7188C12.0528 13.7165 13.7164 12.0529 13.7187 10.0001C13.7187 7.94627 12.0538 6.28133 9.99996 6.28133C7.94615 6.28133 6.28121 7.94627 6.28121 10.0001ZM5.50309 5.99918C5.26029 6.06273 5.00209 5.99033 4.82774 5.8098L4.1076 5.08966C3.84442 4.81718 3.84819 4.38405 4.11606 4.11618C4.38393 3.84831 4.81706 3.84455 5.08954 4.10772L5.80968 4.82786C5.99021 5.00222 6.06261 5.26041 5.99905 5.50321C5.9355 5.74601 5.74589 5.93562 5.50309 5.99918ZM3.37982 9.30564H2.36107C1.97754 9.30564 1.66663 9.61655 1.66663 10.0001C1.66663 10.3836 1.97754 10.6945 2.36107 10.6945H3.37982C3.76335 10.6945 4.07426 10.3836 4.07426 10.0001C4.07426 9.61655 3.76335 9.30564 3.37982 9.30564ZM4.1076 14.9105L4.82774 14.1904C5.00209 14.0098 5.26029 13.9374 5.50309 14.001C5.74589 14.0645 5.9355 14.2542 5.99905 14.497C6.06261 14.7397 5.99021 14.9979 5.80968 15.1723L5.08954 15.8924C4.91519 16.073 4.65699 16.1454 4.41419 16.0818C4.17139 16.0183 3.98178 15.8286 3.91823 15.5858C3.85467 15.3431 3.92707 15.0849 4.1076 14.9105ZM9.99996 15.9258C9.61643 15.9258 9.30551 16.2367 9.30551 16.6202V17.639C9.30551 18.0225 9.61643 18.3334 9.99996 18.3334C10.3835 18.3334 10.6944 18.0225 10.6944 17.639V16.6202C10.6944 16.2367 10.3835 15.9258 9.99996 15.9258ZM14.1987 14.1988C14.4666 13.9309 14.8997 13.9272 15.1722 14.1904L15.8923 14.9105C16.1555 15.183 16.1517 15.6161 15.8839 15.884C15.616 16.1519 15.1829 16.1556 14.9104 15.8924L14.1902 15.1723C13.9271 14.8998 13.9308 14.4667 14.1987 14.1988ZM17.6388 9.30564H16.6201C16.2366 9.30564 15.9257 9.61655 15.9257 10.0001C15.9257 10.3836 16.2366 10.6945 16.6201 10.6945H17.6388C18.0224 10.6945 18.3333 10.3836 18.3333 10.0001C18.3333 9.61655 18.0224 9.30564 17.6388 9.30564ZM15.1722 5.8098C15.042 5.94005 14.8654 6.01324 14.6812 6.01328C14.4004 6.01322 14.1472 5.84402 14.0398 5.58456C13.9323 5.32511 13.9917 5.02647 14.1902 4.82786L14.9104 4.10772C15.1829 3.84455 15.616 3.84831 15.8839 4.11618C16.1517 4.38405 16.1555 4.81718 15.8923 5.08966L15.1722 5.8098Z" />
</svg>