<!--character:3024:2712-->
<svg width="24" height="24" viewBox="0 0 24 24">
  <path d="M12.0004 4.88916C12.4606 4.88916 12.8337 4.51607 12.8337 4.05583V2.83333C12.8337 2.37309 12.4606 2 12.0004 2C11.5402 2 11.1671 2.37309 11.1671 2.83333V4.05583C11.1671 4.51607 11.5402 4.88916 12.0004 4.88916Z" />
  <path d="M5.87122 12C5.87122 8.61495 8.61535 5.87083 12.0004 5.87083C15.3839 5.8745 18.1259 8.61648 18.1296 12C18.1296 15.385 15.3854 18.1292 12.0004 18.1292C8.61535 18.1292 5.87122 15.385 5.87122 12ZM7.53789 12C7.53789 14.4646 9.53582 16.4625 12.0004 16.4625C14.4638 16.4597 16.4601 14.4634 16.4629 12C16.4629 9.53543 14.465 7.5375 12.0004 7.5375C9.53582 7.5375 7.53789 9.53543 7.53789 12Z" />
  <path d="M6.60415 7.19891C6.31279 7.27517 6.00295 7.18829 5.79372 6.97166L4.92956 6.1075C4.61375 5.78051 4.61826 5.26076 4.93971 4.93931C5.26115 4.61787 5.78091 4.61335 6.10789 4.92916L6.97206 5.79333C7.18869 6.00256 7.27557 6.3124 7.1993 6.60375C7.12304 6.89511 6.8955 7.12265 6.60415 7.19891Z" />
  <path d="M4.05622 11.1667H2.83372C2.37349 11.1667 2.00039 11.5398 2.00039 12C2.00039 12.4602 2.37349 12.8333 2.83372 12.8333H4.05622C4.51646 12.8333 4.88956 12.4602 4.88956 12C4.88956 11.5398 4.51646 11.1667 4.05622 11.1667Z" />
  <path d="M4.92956 17.8925L5.79372 17.0283C6.00295 16.8117 6.31279 16.7248 6.60415 16.8011C6.8955 16.8773 7.12304 17.1049 7.1993 17.3962C7.27557 17.6876 7.18869 17.9974 6.97206 18.2067L6.10789 19.0708C5.89866 19.2875 5.58883 19.3743 5.29747 19.2981C5.00611 19.2218 4.77857 18.9943 4.70231 18.7029C4.62605 18.4116 4.71293 18.1017 4.92956 17.8925Z" />
  <path d="M12.0004 19.1108C11.5402 19.1108 11.1671 19.4839 11.1671 19.9442V21.1667C11.1671 21.6269 11.5402 22 12.0004 22C12.4606 22 12.8337 21.6269 12.8337 21.1667V19.9442C12.8337 19.4839 12.4606 19.1108 12.0004 19.1108Z" />
  <path d="M17.0389 17.0385C17.3603 16.717 17.8801 16.7125 18.2071 17.0283L19.0712 17.8925C19.387 18.2195 19.3825 18.7392 19.0611 19.0607C18.7396 19.3821 18.2199 19.3866 17.8929 19.0708L17.0287 18.2067C16.7129 17.8797 16.7174 17.3599 17.0389 17.0385Z" />
  <path d="M21.1671 11.1667H19.9446C19.4843 11.1667 19.1112 11.5398 19.1112 12C19.1112 12.4602 19.4843 12.8333 19.9446 12.8333H21.1671C21.6273 12.8333 22.0004 12.4602 22.0004 12C22.0004 11.5398 21.6273 11.1667 21.1671 11.1667Z" />
  <path d="M18.2071 6.97166C18.0508 7.12795 17.8389 7.21578 17.6179 7.21583C17.2809 7.21576 16.9771 7.01272 16.8482 6.70138C16.7192 6.39003 16.7905 6.03166 17.0287 5.79333L17.8929 4.92916C18.2199 4.61335 18.7396 4.61787 19.0611 4.93931C19.3825 5.26076 19.387 5.78051 19.0712 6.1075L18.2071 6.97166Z" />
</svg>
