<!--character:9072-->
  <svg width="20" height="20" viewBox="0 0 20 20" >
<path d="M10.0003 4.0743C10.3839 4.0743 10.6948 3.76339 10.6948 3.37986V2.36111C10.6948 1.97758 10.3839 1.66666 10.0003 1.66666C9.61679 1.66666 9.30588 1.97758 9.30588 2.36111V3.37986C9.30588 3.76339 9.61679 4.0743 10.0003 4.0743Z" />
<path d="M4.89269 10C4.89269 7.17913 7.17945 4.89236 10.0003 4.89236C12.8199 4.89542 15.1049 7.1804 15.108 10C15.108 12.8209 12.8212 15.1076 10.0003 15.1076C7.17945 15.1076 4.89269 12.8209 4.89269 10ZM6.28158 10C6.28158 12.0538 7.94652 13.7187 10.0003 13.7187C12.0532 13.7165 13.7168 12.0529 13.7191 10C13.7191 7.94619 12.0541 6.28125 10.0003 6.28125C7.94652 6.28125 6.28158 7.94619 6.28158 10Z" />
<path d="M5.50346 5.99909C5.26066 6.06264 5.00246 5.99024 4.8281 5.80972L4.10796 5.08958C3.84479 4.8171 3.84855 4.38397 4.11642 4.1161C4.38429 3.84823 4.81742 3.84446 5.08991 4.10764L5.81005 4.82778C5.99057 5.00213 6.06297 5.26033 5.99942 5.50313C5.93587 5.74593 5.74625 5.93554 5.50346 5.99909Z" />
<path d="M3.38019 9.30555H2.36144C1.97791 9.30555 1.66699 9.61647 1.66699 10C1.66699 10.3835 1.97791 10.6944 2.36144 10.6944H3.38019C3.76372 10.6944 4.07463 10.3835 4.07463 10C4.07463 9.61647 3.76372 9.30555 3.38019 9.30555Z" />
<path d="M4.10796 14.9104L4.8281 14.1903C5.00246 14.0097 5.26066 13.9373 5.50346 14.0009C5.74625 14.0645 5.93587 14.2541 5.99942 14.4969C6.06297 14.7397 5.99057 14.9979 5.81005 15.1722L5.08991 15.8924C4.91555 16.0729 4.65735 16.1453 4.41456 16.0817C4.17176 16.0182 3.98214 15.8286 3.91859 15.5858C3.85504 15.343 3.92744 15.0848 4.10796 14.9104Z" />
<path d="M10.0003 15.9257C9.61679 15.9257 9.30588 16.2366 9.30588 16.6201V17.6389C9.30588 18.0224 9.61679 18.3333 10.0003 18.3333C10.3839 18.3333 10.6948 18.0224 10.6948 17.6389V16.6201C10.6948 16.2366 10.3839 15.9257 10.0003 15.9257Z" />
<path d="M14.1991 14.1987C14.4669 13.9309 14.9001 13.9271 15.1725 14.1903L15.8927 14.9104C16.1559 15.1829 16.1521 15.616 15.8842 15.8839C15.6164 16.1518 15.1832 16.1555 14.9107 15.8924L14.1906 15.1722C13.9274 14.8997 13.9312 14.4666 14.1991 14.1987Z" />
<path d="M17.6392 9.30555H16.6205C16.2369 9.30555 15.926 9.61647 15.926 10C15.926 10.3835 16.2369 10.6944 16.6205 10.6944H17.6392C18.0227 10.6944 18.3337 10.3835 18.3337 10C18.3337 9.61647 18.0227 9.30555 17.6392 9.30555Z" />
<path d="M15.1725 5.80972C15.0423 5.93996 14.8657 6.01315 14.6816 6.01319C14.4007 6.01313 14.1476 5.84394 14.0401 5.58448C13.9327 5.32502 13.9921 5.02638 14.1906 4.82778L14.9107 4.10764C15.1832 3.84446 15.6164 3.84823 15.8842 4.1161C16.1521 4.38397 16.1559 4.8171 15.8927 5.08958L15.1725 5.80972Z" />
</svg>