<!--character:4656-->
  <svg width="20" height="20" viewBox="0 0 20 20" >
<path d="M10.6909 5.07032C10.6909 5.45404 10.3799 5.76511 9.99616 5.76511C9.61243 5.76511 9.30136 5.45404 9.30136 5.07032V4.02813C9.30136 3.6444 9.61243 3.33334 9.99616 3.33334C10.3799 3.33334 10.6909 3.6444 10.6909 4.02813V5.07032Z" />
<path d="M5.20626 7.34229C5.38071 7.5229 5.63903 7.59534 5.88195 7.53175C6.12487 7.46817 6.31458 7.27846 6.37817 7.03554C6.44175 6.79262 6.36931 6.53429 6.1887 6.35985L5.45152 5.62615C5.17686 5.3827 4.76022 5.39486 4.50024 5.65393C4.24025 5.913 4.22661 6.32959 4.46909 6.60511L5.20626 7.34229Z" />
<path d="M2.87454 11.8445H3.91673C4.30045 11.8445 4.61152 11.5335 4.61152 11.1497C4.61152 10.766 4.30045 10.455 3.91673 10.455H2.87454C2.49082 10.455 2.17975 10.766 2.17975 11.1497C2.17975 11.5335 2.49082 11.8445 2.87454 11.8445Z" />
<path d="M15.3808 11.1497C15.3808 11.5335 15.6919 11.8445 16.0756 11.8445H17.1178C17.5015 11.8445 17.8126 11.5335 17.8126 11.1497C17.8126 10.766 17.5015 10.455 17.1178 10.455H16.0756C15.6919 10.455 15.3808 10.766 15.3808 11.1497Z" />
<path d="M14.7867 7.34229C14.6565 7.47259 14.4798 7.54582 14.2955 7.54586V7.54933C14.0146 7.54927 13.7613 7.37999 13.6538 7.12041C13.5463 6.86082 13.6057 6.56203 13.8043 6.36332L14.5408 5.62615C14.7116 5.43209 14.976 5.3489 15.2271 5.41019C15.4782 5.47148 15.6746 5.66713 15.7368 5.91804C15.7989 6.16895 15.7167 6.43364 15.5232 6.60511L14.7867 7.34229Z" />
<path d="M6.04696 13.9873C6.18974 14.1944 6.43335 14.3082 6.68384 14.2847C6.93433 14.2612 7.15256 14.1042 7.25437 13.8741C7.35619 13.6441 7.32568 13.3769 7.17461 13.1758C6.14048 11.7355 6.35694 9.74756 7.6768 8.56361C8.99667 7.37966 10.9963 7.37966 12.3162 8.56361C13.6361 9.74756 13.8525 11.7355 12.8184 13.1758C12.6673 13.3769 12.6368 13.6441 12.7386 13.8741C12.8404 14.1042 13.0587 14.2612 13.3092 14.2847C13.5597 14.3082 13.8033 14.1944 13.946 13.9873C15.3949 11.9711 15.0925 9.18724 13.2446 7.52915C11.3966 5.87105 8.5964 5.87105 6.74845 7.52915C4.90049 9.18724 4.59811 11.9711 6.04696 13.9873Z" />
<path d="M2.36178 15.275H17.6389C18.0226 15.275 18.3337 15.5861 18.3337 15.9698C18.3337 16.3535 18.0226 16.6646 17.6389 16.6646H2.36178C1.97806 16.6646 1.66699 16.3535 1.66699 15.9698C1.66699 15.5861 1.97806 15.275 2.36178 15.275Z" />
</svg>