<!--character:8878-->
  <svg width="24" height="24" viewBox="0 0 24 24" >
<path d="M12.8291 6.08438C12.8291 6.54485 12.4559 6.91813 11.9954 6.91813C11.5349 6.91813 11.1616 6.54485 11.1616 6.08438V4.83375C11.1616 4.37329 11.5349 4 11.9954 4C12.4559 4 12.8291 4.37329 12.8291 4.83375V6.08438Z" />
<path d="M6.24751 8.81074C6.45685 9.02748 6.76684 9.1144 7.05834 9.0381C7.34985 8.9618 7.5775 8.73415 7.6538 8.44265C7.7301 8.15114 7.64318 7.84115 7.42644 7.63182L6.54183 6.75138C6.21224 6.45924 5.71227 6.47384 5.40029 6.78472C5.0883 7.09559 5.07193 7.59551 5.36291 7.92613L6.24751 8.81074Z" />
<path d="M3.44945 14.2134H4.70007C5.16054 14.2134 5.53382 13.8402 5.53382 13.3797C5.53382 12.9192 5.16054 12.5459 4.70007 12.5459H3.44945C2.98898 12.5459 2.6157 12.9192 2.6157 13.3797C2.6157 13.8402 2.98898 14.2134 3.44945 14.2134Z" />
<path d="M18.457 13.3797C18.457 13.8402 18.8302 14.2134 19.2907 14.2134H20.5413C21.0018 14.2134 21.3751 13.8402 21.3751 13.3797C21.3751 12.9192 21.0018 12.5459 20.5413 12.5459H19.2907C18.8302 12.5459 18.457 12.9192 18.457 13.3797Z" />
<path d="M17.7441 8.81074C17.5878 8.96711 17.3757 9.05498 17.1546 9.05503V9.0592C16.8175 9.05913 16.5135 8.85599 16.3845 8.54449C16.2555 8.23298 16.3268 7.87444 16.5652 7.63599L17.4489 6.75138C17.6539 6.51851 17.9712 6.41868 18.2725 6.49223C18.5739 6.56578 18.8095 6.80055 18.8841 7.10165C18.9587 7.40274 18.86 7.72037 18.6279 7.92613L17.7441 8.81074Z" />
<path d="M7.25635 16.7847C7.42769 17.0333 7.72002 17.1698 8.02061 17.1417C8.32119 17.1135 8.58307 16.925 8.70525 16.649C8.82743 16.3729 8.79081 16.0523 8.60953 15.8109C7.36858 14.0826 7.62832 11.6971 9.21216 10.2763C10.796 8.85559 13.1956 8.85559 14.7794 10.2763C16.3633 11.6971 16.623 14.0826 15.3821 15.8109C15.2008 16.0523 15.1642 16.3729 15.2864 16.649C15.4085 16.925 15.6704 17.1135 15.971 17.1417C16.2716 17.1698 16.5639 17.0333 16.7353 16.7847C18.4739 14.3653 18.111 11.0247 15.8935 9.03497C13.6759 7.04526 10.3157 7.04526 8.09814 9.03497C5.88059 11.0247 5.51773 14.3653 7.25635 16.7847Z" />
<path d="M2.83414 18.33H21.1666C21.6271 18.33 22.0004 18.7033 22.0004 19.1638C22.0004 19.6242 21.6271 19.9975 21.1666 19.9975H2.83414C2.37367 19.9975 2.00039 19.6242 2.00039 19.1638C2.00039 18.7033 2.37367 18.33 2.83414 18.33Z" />
</svg>