<!--character:37:550:790-->
  <svg width="24" height="24" viewBox="0 0 24 24" >
<path d="M12.8288 6.08438C12.8288 6.54484 12.4555 6.91813 11.995 6.91813C11.5345 6.91813 11.1612 6.54484 11.1612 6.08438V4.83375C11.1612 4.37328 11.5345 4 11.995 4C12.4555 4 12.8288 4.37328 12.8288 4.83375V6.08438Z" />
<path d="M6.24713 8.81073C6.45646 9.02746 6.76645 9.11439 7.05796 9.03809C7.34946 8.96179 7.57711 8.73414 7.65341 8.44263C7.72971 8.15113 7.64279 7.84114 7.42605 7.6318L6.54144 6.75136C6.21185 6.45922 5.71188 6.47382 5.3999 6.7847C5.08792 7.09558 5.07155 7.59549 5.36252 7.92612L6.24713 8.81073Z" />
<path d="M3.44907 14.2134H4.6997C5.16016 14.2134 5.53345 13.8401 5.53345 13.3797C5.53345 12.9192 5.16016 12.5459 4.6997 12.5459H3.44907C2.9886 12.5459 2.61532 12.9192 2.61532 13.3797C2.61532 13.8401 2.9886 14.2134 3.44907 14.2134Z" />
<path d="M18.4566 13.3797C18.4566 13.8401 18.8298 14.2134 19.2903 14.2134H20.5409C21.0014 14.2134 21.3747 13.8401 21.3747 13.3797C21.3747 12.9192 21.0014 12.5459 20.5409 12.5459H19.2903C18.8298 12.5459 18.4566 12.9192 18.4566 13.3797Z" />
<path d="M17.7437 8.81076C17.5874 8.96713 17.3754 9.055 17.1543 9.05505V9.05922C16.8171 9.05914 16.5132 8.85601 16.3841 8.5445C16.2551 8.233 16.3264 7.87445 16.5648 7.63601L17.4486 6.7514C17.6535 6.51853 17.9708 6.41869 18.2721 6.49224C18.5735 6.5658 18.8091 6.80057 18.8837 7.10167C18.9583 7.40276 18.8596 7.72039 18.6275 7.92615L17.7437 8.81076Z" />
<path d="M7.25597 16.7847C7.42731 17.0333 7.71964 17.1698 8.02023 17.1417C8.32082 17.1135 8.58269 16.925 8.70487 16.649C8.82705 16.3729 8.79043 16.0523 8.60915 15.8109C7.3682 14.0826 7.62794 11.6971 9.21178 10.2763C10.7956 8.8556 13.1952 8.8556 14.7791 10.2763C16.3629 11.6971 16.6227 14.0826 15.3817 15.8109C15.2004 16.0523 15.1638 16.3729 15.286 16.649C15.4082 16.925 15.67 17.1135 15.9706 17.1417C16.2712 17.1698 16.5635 17.0333 16.7349 16.7847C18.4735 14.3653 18.1106 11.0247 15.8931 9.03498C13.6755 7.04526 10.3153 7.04526 8.09776 9.03498C5.88021 11.0247 5.51735 14.3653 7.25597 16.7847Z" />
<path d="M2.83375 18.33H21.1663C21.6267 18.33 22 18.7033 22 19.1638C22 19.6242 21.6267 19.9975 21.1663 19.9975H2.83375C2.37328 19.9975 2 19.6242 2 19.1638C2 18.7033 2.37328 18.33 2.83375 18.33Z" />
</svg>