<!-- character:0:1587 -->
  <svg width="20" height="20" viewBox="0 0 20 20" >
<path   d="M10.6906 5.07023C10.6906 5.45395 10.3795 5.76502 9.99579 5.76502C9.61207 5.76502 9.301 5.45395 9.301 5.07023V4.02804C9.301 3.64432 9.61207 3.33325 9.99579 3.33325C10.3795 3.33325 10.6906 3.64432 10.6906 4.02804V5.07023ZM5.2059 7.3422C5.38034 7.52282 5.63867 7.59525 5.88159 7.53167C6.12451 7.46808 6.31422 7.27838 6.3778 7.03546C6.44138 6.79254 6.36895 6.53421 6.18833 6.35977L5.45116 5.62607C5.1765 5.38261 4.75986 5.39478 4.49987 5.65385C4.23989 5.91291 4.22624 6.32951 4.46872 6.60503L5.2059 7.3422ZM2.87417 11.8445H3.91636C4.30009 11.8445 4.61115 11.5334 4.61115 11.1497C4.61115 10.7659 4.30009 10.4549 3.91636 10.4549H2.87417C2.49045 10.4549 2.17938 10.7659 2.17938 11.1497C2.17938 11.5334 2.49045 11.8445 2.87417 11.8445ZM15.3804 11.1497C15.3804 11.5334 15.6915 11.8445 16.0752 11.8445H17.1174C17.5011 11.8445 17.8122 11.5334 17.8122 11.1497C17.8122 10.7659 17.5011 10.4549 17.1174 10.4549H16.0752C15.6915 10.4549 15.3804 10.7659 15.3804 11.1497ZM14.7864 7.3422C14.6561 7.47251 14.4794 7.54574 14.2952 7.54578V7.54925C14.0142 7.54919 13.7609 7.37991 13.6534 7.12032C13.5459 6.86074 13.6053 6.56195 13.8039 6.36324L14.5404 5.62607C14.7112 5.43201 14.9756 5.34881 15.2267 5.4101C15.4779 5.4714 15.6742 5.66704 15.7364 5.91796C15.7986 6.16887 15.7163 6.43356 15.5229 6.60503L14.7864 7.3422ZM6.04659 13.9872C6.18938 14.1943 6.43298 14.3081 6.68347 14.2846C6.93396 14.2612 7.15219 14.1041 7.25401 13.874C7.35582 13.644 7.32531 13.3769 7.17424 13.1757C6.14011 11.7354 6.35657 9.74748 7.67643 8.56353C8.9963 7.37957 10.996 7.37957 12.3158 8.56353C13.6357 9.74748 13.8522 11.7354 12.818 13.1757C12.667 13.3769 12.6365 13.644 12.7383 13.874C12.8401 14.1041 13.0583 14.2612 13.3088 14.2846C13.5593 14.3081 13.8029 14.1943 13.9457 13.9872C15.3945 11.971 15.0921 9.18716 13.2442 7.52906C11.3962 5.87096 8.59604 5.87096 6.74808 7.52906C4.90012 9.18716 4.59774 11.971 6.04659 13.9872ZM2.36142 15.2749H17.6385C18.0222 15.2749 18.3333 15.586 18.3333 15.9697C18.3333 16.3534 18.0222 16.6645 17.6385 16.6645H2.36142C1.97769 16.6645 1.66663 16.3534 1.66663 15.9697C1.66663 15.586 1.97769 15.2749 2.36142 15.2749Z" />
</svg>