<!--character:6188-->
  <svg width="20" height="20" viewBox="0 0 20 20" >
<path d="M13.768 15.7076C13.7354 15.675 13.6911 15.6568 13.645 15.6569H6.35265C6.25677 15.6569 6.17904 15.7347 6.17904 15.8306V17.5667C6.17904 17.9502 5.86812 18.2611 5.48459 18.2611H4.0957C3.71217 18.2611 3.40126 17.9502 3.40126 17.5667V15.6569C2.922 15.6566 2.53359 15.2681 2.5332 14.7889V10.9694C2.53516 10.208 2.99002 9.52082 3.69015 9.22152C3.74839 9.19644 3.78832 9.1416 3.79431 9.07847L4.01862 6.74583C4.01654 5.52639 5.23459 4.78194 6.81376 4.38889C6.87292 4.37429 6.9201 4.32975 6.93806 4.27152L7.50959 2.42777C7.65672 2.01163 8.05015 1.73339 8.49154 1.73333H11.5082C11.9496 1.73339 12.343 2.01163 12.4901 2.42777L13.0631 4.27639C13.081 4.33424 13.1279 4.3785 13.1867 4.39305C14.7658 4.79236 15.9839 5.55208 15.9839 6.8125L16.204 9.07986C16.2106 9.14262 16.2504 9.19702 16.3082 9.22222C17.0078 9.52154 17.4621 10.2085 17.4638 10.9694V14.7889C17.4634 15.2119 17.1585 15.5731 16.7415 15.6444C16.658 15.6583 16.5966 15.7305 16.5964 15.8153V17.5667C16.5964 17.9502 16.2855 18.2611 15.902 18.2611H14.5131C14.1295 18.2611 13.8186 17.9502 13.8186 17.5667V15.8306C13.8188 15.7845 13.8006 15.7402 13.768 15.7076ZM8.87973 3.12222C8.80377 3.12224 8.73672 3.17182 8.71445 3.24444L8.51862 3.86458C8.5017 3.91982 8.51314 3.97985 8.54917 4.025C8.58593 4.07088 8.64348 4.09494 8.70195 4.08889C9.13737 4.05208 9.57417 4.03472 10.002 4.03472C10.4297 4.03472 10.8679 4.05208 11.3033 4.08958C11.3609 4.09447 11.4171 4.07043 11.4533 4.02545C11.4895 3.98047 11.501 3.92044 11.4839 3.86527L11.2908 3.24444C11.2686 3.17182 11.2015 3.12224 11.1256 3.12222H8.87973ZM5.13737 13.0528C5.71267 13.0528 6.17904 12.5864 6.17904 12.0111C6.17904 11.4358 5.71267 10.9694 5.13737 10.9694C4.56207 10.9694 4.0957 11.4358 4.0957 12.0111C4.0957 12.5864 4.56207 13.0528 5.13737 13.0528ZM11.9082 14.2681C12.0041 14.2681 12.0818 14.1903 12.0818 14.0944V13.5681C12.0818 13.3771 11.7332 13.2076 11.6256 13.1597C11.1075 12.9574 10.5545 12.8597 9.99848 12.8722C8.72626 12.8722 7.91515 13.2833 7.91515 13.5667V14.0944C7.91515 14.1903 7.99288 14.2681 8.08876 14.2681H11.9082ZM9.99848 8.19166C11.5602 8.1788 13.1085 8.47941 14.552 9.07569C14.6083 9.09924 14.6728 9.0916 14.7221 9.05555C14.7715 9.01963 14.798 8.96006 14.7915 8.8993L14.5978 6.87986C14.595 6.50694 14.1506 6.16805 13.4068 5.90764C12.3035 5.56788 11.1534 5.40521 9.99917 5.42569C7.29154 5.42569 5.40404 6.15763 5.40404 6.81458L5.20612 8.89791C5.20049 8.9588 5.2273 9.01817 5.27671 9.05419C5.32612 9.09022 5.39084 9.09759 5.44709 9.07361C6.89014 8.47877 8.43769 8.17889 9.99848 8.19166ZM13.8179 12.0111C13.8179 12.5864 14.2843 13.0528 14.8596 13.0528C15.4349 13.0528 15.9013 12.5864 15.9013 12.0111C15.9013 11.4358 15.4349 10.9694 14.8596 10.9694C14.2843 10.9694 13.8179 11.4358 13.8179 12.0111Z" />
</svg>