<!--character:21:472:371-->
  <svg width="24" height="24" viewBox="0 0 24 24" >
<path   d="M16.5218 18.8492C16.4826 18.8101 16.4295 18.7882 16.3742 18.7884H7.62337C7.50831 18.7884 7.41504 18.8817 7.41504 18.9967V21.0801C7.41504 21.5403 7.04194 21.9134 6.58171 21.9134H4.91504C4.4548 21.9134 4.08171 21.5403 4.08171 21.0801V18.7884C3.5066 18.788 3.0405 18.3219 3.04004 17.7467V13.1634C3.04238 12.2497 3.58822 11.4251 4.42837 11.0659C4.49826 11.0358 4.54618 10.97 4.55337 10.8942L4.82254 8.09508C4.82004 6.63174 6.28171 5.73841 8.17671 5.26674C8.2477 5.24923 8.30431 5.19578 8.32587 5.12591L9.01171 2.91341C9.18826 2.41404 9.66038 2.08015 10.19 2.08008H13.81C14.3397 2.08015 14.8118 2.41404 14.9884 2.91341L15.6759 5.13174C15.6974 5.20117 15.7537 5.25428 15.8242 5.27174C17.7192 5.75091 19.1809 6.66258 19.1809 8.17508L19.445 10.8959C19.4529 10.9712 19.5006 11.0365 19.57 11.0667C20.4096 11.4259 20.9548 12.2503 20.9567 13.1634V17.7467C20.9563 18.2543 20.5903 18.6878 20.09 18.7734C19.9897 18.7901 19.9161 18.8767 19.9159 18.9784V21.0801C19.9159 21.5403 19.5428 21.9134 19.0825 21.9134H17.4159C16.9556 21.9134 16.5825 21.5403 16.5825 21.0801V18.9967C16.5828 18.9414 16.5609 18.8883 16.5218 18.8492ZM10.6559 3.74676C10.5647 3.74679 10.4843 3.80629 10.4576 3.89343L10.2226 4.6376C10.2023 4.70388 10.216 4.77592 10.2592 4.8301C10.3033 4.88516 10.3724 4.91404 10.4426 4.90677C10.9651 4.8626 11.4892 4.84177 12.0026 4.84177C12.5159 4.84177 13.0417 4.8626 13.5642 4.9076C13.6333 4.91347 13.7007 4.88462 13.7442 4.83065C13.7876 4.77667 13.8014 4.70463 13.7809 4.63843L13.5492 3.89343C13.5225 3.80629 13.442 3.74679 13.3509 3.74676H10.6559ZM6.16504 15.6634C5.47468 15.6634 4.91504 15.1037 4.91504 14.4134C4.91504 13.723 5.47468 13.1634 6.16504 13.1634C6.8554 13.1634 7.41504 13.723 7.41504 14.4134C7.41504 15.1037 6.8554 15.6634 6.16504 15.6634ZM14.2901 17.1218C14.4051 17.1218 14.4984 17.0285 14.4984 16.9134V16.2818C14.4984 16.0526 14.0801 15.8493 13.9509 15.7918C13.3292 15.549 12.6656 15.4317 11.9984 15.4468C10.4717 15.4468 9.49838 15.9401 9.49838 16.2801V16.9134C9.49838 17.0285 9.59166 17.1218 9.70672 17.1218H14.2901ZM11.9984 9.83006C10.1254 9.81474 8.26838 10.1746 6.53672 10.8884C6.46922 10.9172 6.39156 10.9083 6.33226 10.8651C6.27297 10.8219 6.24079 10.7506 6.24755 10.6776L6.48505 8.17756C6.48505 7.38923 8.75005 6.5109 11.9992 6.5109C13.3843 6.48632 14.7645 6.68153 16.0884 7.08923C16.9809 7.40173 17.5142 7.8084 17.5176 8.2559L17.7501 10.6792C17.7578 10.7521 17.726 10.8236 17.6667 10.8667C17.6076 10.91 17.5301 10.9192 17.4626 10.8909C15.7305 10.1754 13.8724 9.81463 11.9984 9.83006ZM16.5817 14.4134C16.5817 15.1037 17.1413 15.6634 17.8317 15.6634C18.5221 15.6634 19.0817 15.1037 19.0817 14.4134C19.0817 13.723 18.5221 13.1634 17.8317 13.1634C17.1413 13.1634 16.5817 13.723 16.5817 14.4134Z" />
</svg>