<!--character:1833-->
  <svg width="24" height="24" viewBox="0 0 24 24" >
<path d="M16.5217 18.8491C16.4826 18.81 16.4295 18.7881 16.3742 18.7883H7.62332C7.50826 18.7883 7.41499 18.8816 7.41499 18.9967V21.08C7.41499 21.5402 7.04189 21.9133 6.58166 21.9133H4.91499C4.45475 21.9133 4.08166 21.5402 4.08166 21.08V18.7883C3.50655 18.7879 3.04045 18.3218 3.03999 17.7467V13.1633C3.04234 12.2496 3.58818 11.425 4.42832 11.0658C4.49822 11.0357 4.54614 10.9699 4.55332 10.8942L4.82249 8.095C4.81999 6.63166 6.28166 5.73833 8.17666 5.26666C8.24765 5.24915 8.30426 5.1957 8.32582 5.12583L9.01166 2.91333C9.18821 2.41396 9.66033 2.08007 10.19 2.08H13.81C14.3397 2.08007 14.8118 2.41396 14.9883 2.91333L15.6758 5.13166C15.6973 5.20109 15.7536 5.25419 15.8242 5.27166C17.7192 5.75083 19.1808 6.6625 19.1808 8.175L19.445 10.8958C19.4528 10.9711 19.5006 11.0364 19.57 11.0667C20.4095 11.4259 20.9547 12.2502 20.9567 13.1633V17.7467C20.9562 18.2542 20.5903 18.6877 20.09 18.7733C19.9897 18.79 19.9161 18.8766 19.9158 18.9783V21.08C19.9158 21.5402 19.5427 21.9133 19.0825 21.9133H17.4158C16.9556 21.9133 16.5825 21.5402 16.5825 21.08V18.9967C16.5827 18.9413 16.5608 18.8882 16.5217 18.8491ZM10.6558 3.74666C10.5647 3.74668 10.4842 3.80619 10.4575 3.89333L10.2225 4.6375C10.2022 4.70378 10.2159 4.77581 10.2592 4.83C10.3033 4.88505 10.3723 4.91393 10.4425 4.90666C10.965 4.8625 11.4892 4.84166 12.0025 4.84166C12.5158 4.84166 13.0417 4.8625 13.5642 4.9075C13.6332 4.91336 13.7006 4.88452 13.7441 4.83055C13.7875 4.77657 13.8013 4.70452 13.7808 4.63833L13.5492 3.89333C13.5224 3.80619 13.442 3.74668 13.3508 3.74666H10.6558ZM6.16499 15.6633C6.85535 15.6633 7.41499 15.1037 7.41499 14.4133C7.41499 13.723 6.85535 13.1633 6.16499 13.1633C5.47463 13.1633 4.91499 13.723 4.91499 14.4133C4.91499 15.1037 5.47463 15.6633 6.16499 15.6633ZM14.29 17.1217C14.4051 17.1217 14.4983 17.0284 14.4983 16.9133V16.2817C14.4983 16.0525 14.08 15.8492 13.9508 15.7917C13.3292 15.5489 12.6656 15.4316 11.9983 15.4467C10.4717 15.4467 9.49832 15.94 9.49832 16.28V16.9133C9.49832 17.0284 9.5916 17.1217 9.70666 17.1217H14.29ZM11.9983 9.83C13.8723 9.81456 15.7304 10.1753 17.4625 10.8908C17.5301 10.9191 17.6075 10.9099 17.6667 10.8667C17.726 10.8236 17.7577 10.7521 17.75 10.6792L17.5175 8.25583C17.5142 7.80833 16.9808 7.40166 16.0883 7.08916C14.7644 6.68146 13.3842 6.48626 11.9992 6.51083C8.74999 6.51083 6.48499 7.38916 6.48499 8.1775L6.24749 10.6775C6.24073 10.7506 6.27291 10.8218 6.3322 10.865C6.39149 10.9083 6.46916 10.9171 6.53666 10.8883C8.26832 10.1745 10.1254 9.81467 11.9983 9.83ZM16.5817 14.4133C16.5817 15.1037 17.1413 15.6633 17.8317 15.6633C18.522 15.6633 19.0817 15.1037 19.0817 14.4133C19.0817 13.723 18.522 13.1633 17.8317 13.1633C17.1413 13.1633 16.5817 13.723 16.5817 14.4133Z" />
</svg>