<!--character:7241-->
  <svg width="24" height="24" viewBox="0 0 24 24" >
<path d="M16.5216 18.8491C16.4825 18.81 16.4293 18.7881 16.374 18.7883H7.62318C7.50812 18.7883 7.41484 18.8816 7.41484 18.9967V21.08C7.41484 21.5402 7.04175 21.9133 6.58151 21.9133H4.91484C4.45461 21.9133 4.08151 21.5402 4.08151 21.08V18.7883C3.5064 18.7879 3.0403 18.3218 3.03984 17.7467V13.1633C3.04219 12.2496 3.58803 11.425 4.42818 11.0658C4.49807 11.0357 4.54599 10.9699 4.55318 10.8942L4.82234 8.095C4.81984 6.63166 6.28151 5.73833 8.17651 5.26666C8.2475 5.24915 8.30412 5.1957 8.32568 5.12583L9.01151 2.91333C9.18807 2.41396 9.66018 2.08007 10.1898 2.08H13.8098C14.3395 2.08007 14.8116 2.41396 14.9882 2.91333L15.6757 5.13166C15.6972 5.20109 15.7535 5.25419 15.824 5.27166C17.719 5.75083 19.1807 6.6625 19.1807 8.175L19.4448 10.8958C19.4527 10.9711 19.5004 11.0364 19.5698 11.0667C20.4094 11.4259 20.9546 12.2502 20.9565 13.1633V17.7467C20.9561 18.2542 20.5901 18.6877 20.0898 18.7733C19.9895 18.79 19.9159 18.8766 19.9157 18.9783V21.08C19.9157 21.5402 19.5426 21.9133 19.0823 21.9133H17.4157C16.9554 21.9133 16.5823 21.5402 16.5823 21.08V18.9967C16.5826 18.9413 16.5607 18.8882 16.5216 18.8491ZM10.6557 3.74666C10.5645 3.74668 10.4841 3.80619 10.4573 3.89333L10.2223 4.6375C10.202 4.70378 10.2158 4.77581 10.259 4.83C10.3031 4.88505 10.3722 4.91393 10.4423 4.90666C10.9648 4.8625 11.489 4.84166 12.0023 4.84166C12.5157 4.84166 13.0415 4.8625 13.564 4.9075C13.6331 4.91336 13.7005 4.88452 13.7439 4.83055C13.7874 4.77657 13.8012 4.70452 13.7807 4.63833L13.549 3.89333C13.5223 3.80619 13.4418 3.74668 13.3507 3.74666H10.6557ZM6.16484 15.6633C6.8552 15.6633 7.41484 15.1037 7.41484 14.4133C7.41484 13.723 6.8552 13.1633 6.16484 13.1633C5.47449 13.1633 4.91484 13.723 4.91484 14.4133C4.91484 15.1037 5.47449 15.6633 6.16484 15.6633ZM14.2898 17.1217C14.4049 17.1217 14.4982 17.0284 14.4982 16.9133V16.2817C14.4982 16.0525 14.0798 15.8492 13.9507 15.7917C13.329 15.5489 12.6654 15.4316 11.9982 15.4467C10.4715 15.4467 9.49818 15.94 9.49818 16.28V16.9133C9.49818 17.0284 9.59145 17.1217 9.70651 17.1217H14.2898ZM11.9982 9.83C13.8722 9.81456 15.7302 10.1753 17.4623 10.8908C17.5299 10.9191 17.6074 10.9099 17.6665 10.8667C17.7258 10.8236 17.7576 10.7521 17.7498 10.6792L17.5173 8.25583C17.514 7.80833 16.9807 7.40166 16.0882 7.08916C14.7643 6.68146 13.3841 6.48626 11.999 6.51083C8.74984 6.51083 6.48484 7.38916 6.48484 8.1775L6.24734 10.6775C6.24058 10.7506 6.27276 10.8218 6.33205 10.865C6.39135 10.9083 6.46901 10.9171 6.53651 10.8883C8.26817 10.1745 10.1252 9.81467 11.9982 9.83ZM16.5815 14.4133C16.5815 15.1037 17.1412 15.6633 17.8315 15.6633C18.5219 15.6633 19.0815 15.1037 19.0815 14.4133C19.0815 13.723 18.5219 13.1633 17.8315 13.1633C17.1412 13.1633 16.5815 13.723 16.5815 14.4133Z" />
</svg>