<!-- character:0:1151 -->
  <svg width="20" height="20" viewBox="0 0 20 20" >
<path   d="M13.7681 15.7075C13.7355 15.6749 13.6912 15.6567 13.6451 15.6569H6.35277C6.25689 15.6569 6.17916 15.7346 6.17916 15.8305V17.5666C6.17916 17.9501 5.86825 18.2611 5.48471 18.2611H4.09583C3.71229 18.2611 3.40138 17.9501 3.40138 17.5666V15.6569C2.92213 15.6565 2.53371 15.2681 2.53333 14.7888V10.9694C2.53528 10.208 2.99015 9.52076 3.69027 9.22147C3.74851 9.19639 3.78845 9.14155 3.79444 9.07842L4.01874 6.74578C4.01666 5.52633 5.23471 4.78189 6.81388 4.38883C6.87304 4.37424 6.92022 4.32969 6.93819 4.27147L7.50971 2.42772C7.65684 2.01158 8.05027 1.73334 8.49166 1.73328H11.5083C11.9497 1.73334 12.3431 2.01158 12.4903 2.42772L13.0632 4.27633C13.0811 4.33419 13.128 4.37844 13.1868 4.393C14.766 4.7923 15.984 5.55203 15.984 6.81244L16.2042 9.0798C16.2107 9.14257 16.2505 9.19696 16.3083 9.22217C17.0079 9.52149 17.4623 10.2085 17.4639 10.9694V14.7888C17.4635 15.2118 17.1586 15.573 16.7417 15.6444C16.6581 15.6583 16.5967 15.7305 16.5965 15.8152V17.5666C16.5965 17.9501 16.2856 18.2611 15.9021 18.2611H14.5132C14.1297 18.2611 13.8187 17.9501 13.8187 17.5666V15.8305C13.8189 15.7844 13.8007 15.7401 13.7681 15.7075ZM8.87985 3.12217C8.80389 3.12218 8.73684 3.17177 8.71457 3.24439L8.51874 3.86453C8.50182 3.91976 8.51326 3.97979 8.5493 4.02494C8.58605 4.07083 8.6436 4.09489 8.70207 4.08883C9.13749 4.05203 9.5743 4.03467 10.0021 4.03467C10.4299 4.03467 10.868 4.05203 11.3035 4.08953C11.361 4.09442 11.4172 4.07038 11.4534 4.0254C11.4896 3.98042 11.5011 3.92038 11.484 3.86522L11.291 3.24439C11.2687 3.17177 11.2016 3.12218 11.1257 3.12217H8.87985ZM5.13749 13.0527C4.5622 13.0527 4.09583 12.5864 4.09583 12.0111C4.09583 11.4358 4.5622 10.9694 5.13749 10.9694C5.71279 10.9694 6.17916 11.4358 6.17916 12.0111C6.17916 12.5864 5.71279 13.0527 5.13749 13.0527ZM11.9083 14.268C12.0042 14.268 12.0819 14.1903 12.0819 14.0944V13.568C12.0819 13.377 11.7333 13.2076 11.6257 13.1597C11.1076 12.9573 10.5546 12.8596 9.9986 12.8722C8.72638 12.8722 7.91527 13.2833 7.91527 13.5666V14.0944C7.91527 14.1903 7.993 14.268 8.08888 14.268H11.9083ZM9.9986 8.19161C8.43781 8.17884 6.89026 8.47871 5.44721 9.07355C5.39096 9.09754 5.32624 9.09017 5.27683 9.05414C5.22742 9.01811 5.20061 8.95875 5.20624 8.89786L5.40416 6.81453C5.40416 6.15758 7.29166 5.42564 9.9993 5.42564C11.1535 5.40516 12.3037 5.56783 13.4069 5.90758C14.1507 6.168 14.5951 6.50689 14.5979 6.8798L14.7917 8.89925C14.7981 8.96 14.7716 9.01958 14.7222 9.0555C14.6729 9.09154 14.6084 9.09918 14.5521 9.07564C13.1087 8.47936 11.5603 8.17875 9.9986 8.19161ZM13.818 12.0111C13.818 12.5864 14.2844 13.0527 14.8597 13.0527C15.435 13.0527 15.9014 12.5864 15.9014 12.0111C15.9014 11.4358 15.435 10.9694 14.8597 10.9694C14.2844 10.9694 13.818 11.4358 13.818 12.0111Z" />
</svg>