<!--character:21:472:371-->
<svg width="24" height="24" viewBox="0 0 24 24" xmlns="http://www.w3.org/2000/svg"><path d="M16.3742 18.7883a.2075.2075 0 0 1 .2083.2084V21.08c0 .4602.3731.8333.8333.8333h1.6667a.8333.8333 0 0 0 .8333-.8333v-2.1017a.2083.2083 0 0 1 .1742-.205 1.0425 1.0425 0 0 0 .8667-1.0266v-4.5834a2.2858 2.2858 0 0 0-1.3867-2.0966.21.21 0 0 1-.125-.1709l-.2642-2.7208c0-1.5125-1.4616-2.4242-3.3566-2.9033a.2075.2075 0 0 1-.1484-.14l-.6875-2.2184A1.2499 1.2499 0 0 0 13.81 2.08h-3.62c-.5297 0-1.0018.334-1.1783.8333l-.6859 2.2125a.2083.2083 0 0 1-.1491.1409c-1.895.4716-3.3567 1.365-3.3542 2.8283l-.2692 2.7992a.2083.2083 0 0 1-.125.1716A2.2875 2.2875 0 0 0 3.04 13.1633v4.5834c.0005.575.4666 1.0412 1.0417 1.0416V21.08c0 .4602.373.8333.8333.8333h1.6667a.8333.8333 0 0 0 .8333-.8333v-2.0833c0-.115.0933-.2084.2083-.2084h8.7509zm-5.9167-14.895a.2075.2075 0 0 1 .1983-.1466h2.695a.2075.2075 0 0 1 .1984.1466l.2316.745a.2083.2083 0 0 1-.2166.2692 18.2781 18.2781 0 0 0-1.5617-.0658 18.583 18.583 0 0 0-1.56.065.2075.2075 0 0 1-.1833-.0767.21.21 0 0 1-.0367-.1925l.235-.7442zm-4.2925 11.77c-.6904 0-1.25-.5596-1.25-1.25 0-.6903.5596-1.25 1.25-1.25s1.25.5597 1.25 1.25c0 .6904-.5596 1.25-1.25 1.25zm8.3333 1.25a.2083.2083 0 0 1-.2083.2084H9.7067a.2083.2083 0 0 1-.2084-.2084V16.28c0-.34.9734-.8333 2.5-.8333a5.0533 5.0533 0 0 1 1.9525.345c.1292.0575.5475.2608.5475.49v.6316zm-2.5-7.0833a14.03 14.03 0 0 0-5.4616 1.0583.2083.2083 0 0 1-.2892-.2108l.2375-2.5c0-.7883 2.265-1.6667 5.5142-1.6667a13.1042 13.1042 0 0 1 4.0891.5784c.8925.3125 1.4259.7191 1.4292 1.1666l.2325 2.4234a.205.205 0 0 1-.0833.1875.2092.2092 0 0 1-.2042.0241A14.0092 14.0092 0 0 0 11.9983 9.83zm5.8334 5.8333c-.6904 0-1.25-.5596-1.25-1.25 0-.6903.5596-1.25 1.25-1.25.6903 0 1.25.5597 1.25 1.25 0 .6904-.5597 1.25-1.25 1.25z"/></svg>
