<!--character:3852-->
  <svg width="24" height="24" viewBox="0 0 24 24" >
<path d="M21.2608 5.5H19.7398C19.3308 5.5 18.9998 5.832 18.9998 6.24V7C18.9998 7.277 19.2248 7.5 19.4998 7.5C20.8808 7.5 21.9998 8.62 21.9998 10V17.761C21.9998 19.274 20.7738 20.5 19.2608 20.5H4.7398C3.2268 20.5 1.9998 19.274 1.9998 17.761V10C1.9998 8.62 3.1198 7.5 4.4998 7.5C4.7768 7.5 4.9998 7.277 4.9998 7V6.24C4.9998 5.832 4.6688 5.5 4.2608 5.5H2.7398C2.3308 5.5 1.9998 5.169 1.9998 4.761V4.24C1.9998 3.832 2.3308 3.5 2.7398 3.5H21.2608C21.6688 3.5 21.9998 3.832 21.9998 4.24V4.761C21.9998 5.169 21.6688 5.5 21.2608 5.5ZM7.4938 5.5C7.2278 5.5 7.0168 5.709 6.9998 5.969V6.761C6.9998 7.169 7.3308 7.5 7.7398 7.5H16.2608C16.6688 7.5 16.9998 7.169 16.9998 6.761V6.24C16.9998 5.832 16.6688 5.5 16.2608 5.5H7.4938ZM12.633 10.5552C12.633 10.0149 12.3978 9.5 12.0003 9.5C11.6028 9.5 11.3675 9.8902 11.3675 10.5136V12.2229C11.3675 12.3891 11.2883 12.5138 11.1695 12.5969L8.19837 14.3008C8.07952 14.3424 8.00029 14.5086 8.00029 14.6333V14.9018C8.00029 15.1927 8.2776 15.4005 8.51528 15.2758L11.0902 14.3615C11.2091 14.3199 11.3675 14.403 11.3675 14.5693V15.9643C11.3675 16.0889 11.2883 16.2552 11.1695 16.3383L10.4168 16.837C10.2583 16.9201 10.1538 17.0545 10.2055 17.1525C10.2072 17.1558 10.2091 17.1608 10.2115 17.1669C10.2249 17.2013 10.2526 17.2725 10.3455 17.2942C10.4207 17.3116 10.6506 17.2663 10.9945 17.1986C11.1508 17.1678 11.3307 17.1323 11.5302 17.096C11.5387 17.0945 11.5496 17.0925 11.5636 17.0908C11.6739 17.3636 11.8194 17.5 12.0003 17.5C12.1808 17.5 12.3255 17.3641 12.4343 17.0922L12.4704 17.0978C12.6699 17.1341 12.8496 17.1695 13.0059 17.2003C13.3497 17.2681 13.5799 17.3134 13.655 17.2959C13.748 17.2743 13.7757 17.2031 13.7891 17.1686C13.7914 17.1626 13.7934 17.1576 13.7951 17.1543C13.8468 17.0563 13.7423 16.9219 13.5838 16.8388L12.8311 16.3401C12.7123 16.257 12.633 16.1721 12.633 16.0058V14.6108C12.633 14.4862 12.7519 14.3615 12.9104 14.403L15.4853 15.3173C15.723 15.442 16.0003 15.2342 16.0003 14.9433V14.6749C16.0003 14.5086 15.9211 14.384 15.8022 14.3008L12.8311 12.5969C12.7123 12.5138 12.633 12.3891 12.633 12.2229V10.5552Z" />
</svg>