<!-- character:0:1673 -->
  <svg width="20" height="20" viewBox="0 0 20 20" >
<path   d="M17.7175 4.58329H16.45C16.1092 4.58329 15.8334 4.85996 15.8334 5.19996V5.83329C15.8334 6.06413 16.0209 6.24996 16.25 6.24996C17.4009 6.24996 18.3334 7.18329 18.3334 8.33329V14.8008C18.3334 16.0616 17.3117 17.0833 16.0509 17.0833H3.95002C2.68919 17.0833 1.66669 16.0616 1.66669 14.8008V8.33329C1.66669 7.18329 2.60002 6.24996 3.75002 6.24996C3.98085 6.24996 4.16669 6.06413 4.16669 5.83329V5.19996C4.16669 4.85996 3.89085 4.58329 3.55085 4.58329H2.28335C1.94252 4.58329 1.66669 4.30746 1.66669 3.96746V3.53329C1.66669 3.19329 1.94252 2.91663 2.28335 2.91663H17.7175C18.0575 2.91663 18.3334 3.19329 18.3334 3.53329V3.96746C18.3334 4.30746 18.0575 4.58329 17.7175 4.58329ZM6.24502 4.58329C6.02335 4.58329 5.84752 4.75746 5.83335 4.97413V5.63413C5.83335 5.97413 6.10919 6.24996 6.45002 6.24996H13.5509C13.8909 6.24996 14.1667 5.97413 14.1667 5.63413V5.19996C14.1667 4.85996 13.8909 4.58329 13.5509 4.58329H6.24502ZM10.5277 8.79592C10.5277 8.3457 10.3316 7.91663 10.0004 7.91663C9.66921 7.91663 9.47313 8.2418 9.47313 8.76129V10.1857C9.47313 10.3242 9.40711 10.4281 9.30807 10.4974L6.83215 11.9173C6.73312 11.952 6.66709 12.0905 6.66709 12.1944V12.4181C6.66709 12.6605 6.89818 12.8337 7.09625 12.7298L9.24204 11.9679C9.34108 11.9332 9.47313 12.0025 9.47313 12.141V13.3035C9.47313 13.4074 9.40711 13.5459 9.30807 13.6152L8.68084 14.0308C8.54879 14.1001 8.46164 14.2121 8.50474 14.2937C8.5062 14.2965 8.5078 14.3006 8.50977 14.3057C8.52094 14.3344 8.54399 14.3937 8.62146 14.4118C8.68412 14.4263 8.87571 14.3886 9.16227 14.3321C9.2925 14.3064 9.44241 14.2769 9.60868 14.2467C9.61574 14.2454 9.62482 14.2437 9.63648 14.2423C9.7284 14.4696 9.84971 14.5833 10.0004 14.5833C10.1509 14.5833 10.2714 14.47 10.3621 14.2435L10.3922 14.2481C10.5584 14.2784 10.7082 14.3079 10.8384 14.3336C11.125 14.39 11.3167 14.4278 11.3794 14.4133C11.4569 14.3952 11.4799 14.3359 11.4911 14.3072C11.4931 14.3021 11.4946 14.298 11.4961 14.2952C11.5392 14.2135 11.4521 14.1016 11.32 14.0323L10.6928 13.6167C10.5937 13.5474 10.5277 13.4767 10.5277 13.3381V12.1757C10.5277 12.0718 10.6268 11.9679 10.7588 12.0025L12.9046 12.7644C13.1027 12.8683 13.3338 12.6952 13.3338 12.4527V12.229C13.3338 12.0905 13.2677 11.9866 13.1687 11.9173L10.6928 10.4974C10.5937 10.4281 10.5277 10.3242 10.5277 10.1857V8.79592Z" />
<rect x="-17.5" y="-15.5" width="55" height="131" rx="4.5" stroke="#7B61FF" stroke-dasharray="10 5"/>
</svg>