<!--character:3912-->
  <svg width="20" height="20" viewBox="0 0 20 20" >
<path d="M5.83296 8.40164L6.80501 7.22128C7.01331 7.01298 7.29104 7.01298 7.49934 7.08242C7.70764 7.29071 7.77707 7.63788 7.56877 7.84618L6.18012 9.582C6.11069 9.72086 5.97182 9.79029 5.83296 9.79029C5.69409 9.79029 5.55522 9.72086 5.48579 9.65143L4.4443 8.60994C4.236 8.47107 4.236 8.12391 4.4443 7.91561C4.6526 7.70731 4.93033 7.70731 5.13863 7.91561L5.69409 8.40164C5.76352 8.47107 5.83296 8.47107 5.83296 8.40164Z" />
<path d="M5.83296 12.2204L6.80501 11.0401C7.01331 10.8318 7.29104 10.8318 7.49934 10.9012C7.70764 11.1095 7.77707 11.4567 7.56877 11.665L6.18012 13.4008C6.11069 13.5397 5.97182 13.6091 5.83296 13.6091C5.69409 13.6091 5.55522 13.5397 5.48579 13.4702L4.37487 12.4982C4.16657 12.2899 4.16657 11.9427 4.37487 11.7344C4.58317 11.5261 4.93033 11.5261 5.13863 11.7344L5.69409 12.2204C5.76352 12.2899 5.83296 12.2899 5.83296 12.2204Z" />
<path d="M11.3876 8.40164H8.95743C8.6797 8.40164 8.40197 8.60994 8.40197 8.9571C8.40197 9.30426 8.61026 9.51256 8.95743 9.51256H11.3876C11.6653 9.51256 11.943 9.30426 11.943 8.9571C11.943 8.60994 11.6653 8.40164 11.3876 8.40164Z" />
<path d="M8.95743 12.2204H11.3876C11.6653 12.2204 11.943 12.4287 11.943 12.7759C11.943 13.1231 11.6653 13.3314 11.3876 13.3314H8.95743C8.61026 13.3314 8.40197 13.0536 8.40197 12.7759C8.40197 12.4287 8.6797 12.2204 8.95743 12.2204Z" />
<path d="M10.9015 1.87496L14.6509 5.62433C14.7898 5.7632 14.8592 5.90206 14.8592 6.11036V16.9419C14.8592 17.7056 14.2343 18.3305 13.4706 18.3305H3.05565C2.29189 18.3305 1.66699 17.7056 1.66699 16.9419V3.05532C1.66699 2.29156 2.29189 1.66666 3.05565 1.66666H10.4155C10.6238 1.66666 10.7627 1.7361 10.9015 1.87496ZM13.1234 16.9419C13.3317 16.9419 13.4706 16.803 13.4706 16.5947V6.66582C13.4706 6.59639 13.4011 6.52695 13.3317 6.52695H11.3876C10.6238 6.52695 9.99892 5.90206 9.99892 5.1383V3.19418C9.99892 3.12475 9.92949 3.05532 9.79062 3.05532H3.40281C3.19451 3.05532 3.05565 3.19418 3.05565 3.40248V16.5947C3.05565 16.803 3.19451 16.9419 3.40281 16.9419H13.1234Z" />
<path d="M18.3308 13.8174C18.3308 14.0257 18.192 14.1646 17.9837 14.1646H15.9007C15.6924 14.1646 15.5535 14.0257 15.5535 13.8174V4.79114C15.5535 4.65227 15.6924 4.44397 15.9007 4.44397H17.9837C18.192 4.44397 18.3308 4.65227 18.3308 4.79114V13.8174Z" />
<path d="M16.595 18.1222C16.6645 18.3305 16.8728 18.3999 17.0811 18.2611C17.1076 18.2346 17.1341 18.2182 17.1568 18.2042C17.1934 18.1815 17.2199 18.1651 17.2199 18.1222L18.2614 15.3449C18.3308 15.1366 18.2614 14.9977 18.0531 14.9283H15.8313C15.623 14.9283 15.4841 15.0672 15.4841 15.2755V15.4143L16.595 18.1222Z" />
<path d="M17.9837 3.74965H15.9007C15.6924 3.74965 15.5535 3.61078 15.5535 3.40248V3.05532C15.5535 2.29156 16.1784 1.66666 16.9422 1.66666C17.7059 1.66666 18.3308 2.29156 18.3308 3.05532V3.40248C18.3308 3.61078 18.192 3.74965 17.9837 3.74965Z" />
</svg>