<!--character:2165-->
  <svg width="24" height="24" viewBox="0 0 24 24" >
<path d="M21.261 5.5H19.74C19.331 5.5 19 5.832 19 6.24V7C19 7.277 19.225 7.5 19.5 7.5C20.881 7.5 22 8.62 22 10V17.761C22 19.274 20.774 20.5 19.261 20.5H4.73999C3.22699 20.5 1.99999 19.274 1.99999 17.761V10C1.99999 8.62 3.11999 7.5 4.49999 7.5C4.77699 7.5 4.99999 7.277 4.99999 7V6.24C4.99999 5.832 4.66899 5.5 4.26099 5.5H2.73999C2.33099 5.5 1.99999 5.169 1.99999 4.761V4.24C1.99999 3.832 2.33099 3.5 2.73999 3.5H21.261C21.669 3.5 22 3.832 22 4.24V4.761C22 5.169 21.669 5.5 21.261 5.5ZM7.49399 5.5C7.22799 5.5 7.01699 5.709 6.99999 5.969V6.761C6.99999 7.169 7.33099 7.5 7.73999 7.5H16.261C16.669 7.5 17 7.169 17 6.761V6.24C17 5.832 16.669 5.5 16.261 5.5H7.49399ZM12.6332 10.5552C12.6332 10.0149 12.3979 9.5 12.0005 9.5C11.603 9.5 11.3677 9.8902 11.3677 10.5136V12.2229C11.3677 12.3891 11.2885 12.5138 11.1696 12.5969L8.19855 14.3008C8.07971 14.3424 8.00048 14.5086 8.00048 14.6333V14.9018C8.00048 15.1927 8.27778 15.4005 8.51547 15.2758L11.0904 14.3615C11.2093 14.3199 11.3677 14.403 11.3677 14.5693V15.9643C11.3677 16.0889 11.2885 16.2552 11.1696 16.3383L10.417 16.837C10.2585 16.9201 10.1539 17.0545 10.2056 17.1525C10.2074 17.1558 10.2093 17.1608 10.2117 17.1669C10.2251 17.2013 10.2527 17.2725 10.3457 17.2942C10.4209 17.3116 10.6508 17.2663 10.9947 17.1986C11.151 17.1678 11.3309 17.1323 11.5304 17.096C11.5389 17.0945 11.5497 17.0925 11.5637 17.0908C11.674 17.3636 11.8196 17.5 12.0005 17.5C12.181 17.5 12.3257 17.3641 12.4345 17.0922L12.4706 17.0978C12.67 17.1341 12.8498 17.1695 13.0061 17.2003C13.3499 17.2681 13.58 17.3134 13.6552 17.2959C13.7482 17.2743 13.7759 17.2031 13.7893 17.1686C13.7916 17.1626 13.7935 17.1576 13.7953 17.1543C13.847 17.0563 13.7424 16.9219 13.584 16.8388L12.8313 16.3401C12.7125 16.257 12.6332 16.1721 12.6332 16.0058V14.6108C12.6332 14.4862 12.7521 14.3615 12.9105 14.403L15.4855 15.3173C15.7232 15.442 16.0005 15.2342 16.0005 14.9433V14.6749C16.0005 14.5086 15.9212 14.384 15.8024 14.3008L12.8313 12.5969C12.7125 12.5138 12.6332 12.3891 12.6332 12.2229V10.5552Z" />
</svg>