<!--character:2843-->
<svg width="24" height="24" viewBox="0 0 24 24">
  <path d="M6.99955 10.082L8.16602 8.66554C8.41597 8.41558 8.74925 8.41558 8.99921 8.4989C9.24917 8.74886 9.33249 9.16545 9.08253 9.41541L7.41614 11.4984C7.33282 11.665 7.16619 11.7484 6.99955 11.7484C6.83291 11.7484 6.66627 11.665 6.58295 11.5817L5.33316 10.3319C5.0832 10.1653 5.0832 9.74869 5.33316 9.49873C5.58312 9.24877 5.9164 9.24877 6.16635 9.49873L6.83291 10.082C6.91623 10.1653 6.99955 10.1653 6.99955 10.082Z" />
  <path d="M6.99955 14.6645L8.16602 13.2481C8.41597 12.9981 8.74925 12.9981 8.99921 13.0815C9.24917 13.3314 9.33249 13.748 9.08253 13.998L7.41614 16.081C7.33282 16.2476 7.16619 16.3309 6.99955 16.3309C6.83291 16.3309 6.66627 16.2476 6.58295 16.1643L5.24984 14.9978C4.99988 14.7478 4.99988 14.3312 5.24984 14.0813C5.4998 13.8313 5.9164 13.8313 6.16635 14.0813L6.83291 14.6645C6.91623 14.7478 6.99955 14.7478 6.99955 14.6645Z" />
  <path d="M13.6651 10.082H10.7489C10.4156 10.082 10.0824 10.3319 10.0824 10.7485C10.0824 11.1651 10.3323 11.4151 10.7489 11.4151H13.6651C13.9984 11.4151 14.3316 11.1651 14.3316 10.7485C14.3316 10.3319 13.9984 10.082 13.6651 10.082Z" />
  <path d="M10.7489 14.6645H13.6651C13.9984 14.6645 14.3316 14.9145 14.3316 15.3311C14.3316 15.7477 13.9984 15.9976 13.6651 15.9976H10.7489C10.3323 15.9976 10.0824 15.6644 10.0824 15.3311C10.0824 14.9145 10.4156 14.6645 10.7489 14.6645Z" />
  <path d="M13.0819 2.24995L17.5811 6.7492C17.7477 6.91583 17.8311 7.08247 17.8311 7.33243V20.3302C17.8311 21.2467 17.0812 21.9966 16.1647 21.9966H3.66678C2.75026 21.9966 2.00039 21.2467 2.00039 20.3302V3.66638C2.00039 2.74987 2.75026 2 3.66678 2H12.4986C12.7486 2 12.9152 2.08332 13.0819 2.24995ZM15.7481 20.3302C15.998 20.3302 16.1647 20.1636 16.1647 19.9136V7.99898C16.1647 7.91566 16.0813 7.83235 15.998 7.83235H13.6651C12.7486 7.83235 11.9987 7.08247 11.9987 6.16596V3.83302C11.9987 3.7497 11.9154 3.66638 11.7487 3.66638H4.08337C3.83341 3.66638 3.66678 3.83302 3.66678 4.08298V19.9136C3.66678 20.1636 3.83341 20.3302 4.08337 20.3302H15.7481Z" />
  <path d="M21.997 16.5809C21.997 16.8308 21.8304 16.9975 21.5804 16.9975H19.0808C18.8309 16.9975 18.6642 16.8308 18.6642 16.5809V5.74936C18.6642 5.58273 18.8309 5.33277 19.0808 5.33277H21.5804C21.8304 5.33277 21.997 5.58273 21.997 5.74936V16.5809Z" />
  <path d="M19.914 21.7467C19.9974 21.9966 20.2473 22.0799 20.4973 21.9133C20.5291 21.8815 20.5609 21.8618 20.5881 21.845C20.6321 21.8178 20.6639 21.7982 20.6639 21.7467L21.9137 18.4139C21.997 18.1639 21.9137 17.9973 21.6637 17.914H18.9975C18.7476 17.914 18.5809 18.0806 18.5809 18.3306V18.4972L19.914 21.7467Z" />
  <path d="M21.5804 4.49957H19.0808C18.8309 4.49957 18.6642 4.33294 18.6642 4.08298V3.66638C18.6642 2.74987 19.4141 2 20.3306 2C21.2471 2 21.997 2.74987 21.997 3.66638V4.08298C21.997 4.33294 21.8304 4.49957 21.5804 4.49957Z" />
</svg>
