<!--description:Also for Terms of Use and other similar features-->
<!--category:services-->
<!--character:E0A4-->
<!--added:0.11-->
<svg width="24" height="24" viewBox="0 0 24 24" xmlns="http://www.w3.org/2000/svg"><path d="M8.1656 13.2481c.25-.25.5833-.25.8332-.1666.25.25.3333.6665.0833.9165l-1.6663 2.083c-.0834.1666-.25.25-.4166.25-.1667 0-.3333-.0834-.4166-.1667l-1.3331-1.1665c-.25-.25-.25-.6665 0-.9165s.6665-.25.9165 0l.6665.5832c.0833.0833.1667.0833.1667 0l1.1664-1.4164zm0-4.5826c.25-.25.5833-.25.8332-.1666.25.25.3333.6666.0833.9165l-1.6663 2.083c-.0834.1666-.25.25-.4166.25-.1667 0-.3333-.0834-.4166-.1667L5.3328 10.332c-.25-.1666-.25-.5832 0-.8332s.5832-.25.8332 0l.6665.5833c.0833.0833.1667.0833.1667 0l1.1664-1.4165zm5.4991 1.4165c.3333 0 .6666.25.6666.6665 0 .4166-.3333.6666-.6666.6666h-2.9162c-.4166 0-.6665-.25-.6665-.6666 0-.4166.3332-.6665.6665-.6665h2.9162zm0 4.5825c.3333 0 .6666.25.6666.6666 0 .4166-.3333.6665-.6666.6665h-2.9162c-.4166 0-.6665-.3332-.6665-.6665 0-.4166.3332-.6666.6665-.6666h2.9162zm3.916-7.9153c.1666.1666.25.3333.25.5832v12.9978c0 .9166-.75 1.6664-1.6664 1.6664H3.6663C2.75 21.9966 2 21.2468 2 20.3302V3.6664C2 2.7499 2.7499 2 3.6664 2h8.8318c.25 0 .4166.0833.5833.25l4.4992 4.4992zm-1.4164 13.1644V7.999c0-.0833-.0833-.1667-.1667-.1667h-2.3329c-.9165 0-1.6664-.7498-1.6664-1.6663V3.833c0-.0833-.0833-.1666-.25-.1666H4.083c-.25 0-.4166.1666-.4166.4166v15.8306c0 .25.1666.4166.4166.4166h11.6647c.25 0 .4166-.1666.4166-.4166zm5.4157-2.9161h-2.4996c-.25 0-.4165-.1667-.4165-.4166V5.7494c0-.1667.1666-.4166.4165-.4166H21.58c.25 0 .4166.25.4166.4166v10.8315c0 .25-.1666.4166-.4166.4166zm-1.6664 4.7492l-1.333-3.2495v-.1666c0-.25.1666-.4166.4165-.4166h2.6662c.25.0833.3333.25.25.4999l-1.2498 3.3328c0 .0833-.0833.0833-.1666.1666-.25.1666-.5.0833-.5833-.1666zm-.8332-17.2471c-.25 0-.4165-.1667-.4165-.4166v-.4166c0-.9165.7498-1.6664 1.6663-1.6664.9166 0 1.6664.7499 1.6664 1.6664v.4166c0 .25-.1666.4166-.4166.4166h-2.4996z"/></svg>