<!--character:7819-->
  <svg width="20" height="20" viewBox="0 0 20 20" >
<path d="M17.7173 4.58333H16.4498C16.109 4.58333 15.8332 4.86 15.8332 5.2V5.83333C15.8332 6.06416 16.0207 6.25 16.2498 6.25C17.4007 6.25 18.3332 7.18333 18.3332 8.33333V14.8008C18.3332 16.0617 17.3115 17.0833 16.0507 17.0833H3.94984C2.689 17.0833 1.6665 16.0617 1.6665 14.8008V8.33333C1.6665 7.18333 2.59984 6.25 3.74984 6.25C3.98067 6.25 4.1665 6.06416 4.1665 5.83333V5.2C4.1665 4.86 3.89067 4.58333 3.55067 4.58333H2.28317C1.94234 4.58333 1.6665 4.3075 1.6665 3.9675V3.53333C1.6665 3.19333 1.94234 2.91666 2.28317 2.91666H17.7173C18.0573 2.91666 18.3332 3.19333 18.3332 3.53333V3.9675C18.3332 4.3075 18.0573 4.58333 17.7173 4.58333ZM6.24484 4.58333C6.02317 4.58333 5.84734 4.7575 5.83317 4.97416V5.63416C5.83317 5.97416 6.109 6.25 6.44984 6.25H13.5507C13.8907 6.25 14.1665 5.97416 14.1665 5.63416V5.2C14.1665 4.86 13.8907 4.58333 13.5507 4.58333H6.24484ZM10.5275 8.79596C10.5275 8.34574 10.3315 7.91666 10.0002 7.91666C9.66902 7.91666 9.47295 8.24184 9.47295 8.76133V10.1857C9.47295 10.3243 9.40692 10.4282 9.30789 10.4974L6.83197 11.9174C6.73293 11.952 6.66691 12.0905 6.66691 12.1944V12.4181C6.66691 12.6606 6.898 12.8337 7.09607 12.7298L9.24186 11.9679C9.3409 11.9333 9.47295 12.0025 9.47295 12.1411V13.3035C9.47295 13.4074 9.40692 13.546 9.30789 13.6152L8.68065 14.0308C8.54861 14.1001 8.46146 14.2121 8.50456 14.2938C8.50602 14.2965 8.50762 14.3006 8.50959 14.3057C8.52076 14.3345 8.5438 14.3938 8.62128 14.4118C8.68394 14.4264 8.87553 14.3886 9.16209 14.3321C9.29232 14.3065 9.44223 14.2769 9.60849 14.2467C9.61556 14.2454 9.62464 14.2438 9.6363 14.2423C9.72821 14.4697 9.84953 14.5833 10.0002 14.5833C10.1507 14.5833 10.2713 14.4701 10.3619 14.2435L10.392 14.2482C10.5582 14.2784 10.708 14.3079 10.8382 14.3336C11.1248 14.3901 11.3165 14.4279 11.3792 14.4133C11.4567 14.3953 11.4797 14.3359 11.4909 14.3072C11.4929 14.3021 11.4945 14.298 11.4959 14.2952C11.539 14.2136 11.4519 14.1016 11.3198 14.0323L10.6926 13.6167C10.5936 13.5475 10.5275 13.4767 10.5275 13.3382V12.1757C10.5275 12.0718 10.6266 11.9679 10.7586 12.0025L12.9044 12.7645C13.1025 12.8684 13.3336 12.6952 13.3336 12.4528V12.2291C13.3336 12.0905 13.2676 11.9866 13.1685 11.9174L10.6926 10.4974C10.5936 10.4282 10.5275 10.3243 10.5275 10.1857V8.79596Z" />
</svg>