<!--character:5167-->
  <svg width="24" height="24" viewBox="0 0 24 24" >
<path d="M6.99915 10.0819L8.16562 8.66552C8.41557 8.41556 8.74885 8.41556 8.99881 8.49888C9.24877 8.74884 9.33209 9.16543 9.08213 9.41539L7.41574 11.4984C7.33242 11.665 7.16578 11.7483 6.99915 11.7483C6.83251 11.7483 6.66587 11.665 6.58255 11.5817L5.33276 10.3319C5.0828 10.1653 5.0828 9.74867 5.33276 9.49871C5.58272 9.24875 5.916 9.24875 6.16595 9.49871L6.83251 10.0819C6.91583 10.1653 6.99915 10.1653 6.99915 10.0819Z" />
<path d="M6.99916 14.6646L8.16563 13.2481C8.41559 12.9982 8.74887 12.9982 8.99883 13.0815C9.24878 13.3314 9.3321 13.748 9.08214 13.998L7.41576 16.081C7.33244 16.2476 7.1658 16.3309 6.99916 16.3309C6.83252 16.3309 6.66589 16.2476 6.58257 16.1643L5.24946 14.9978C4.9995 14.7479 4.9995 14.3313 5.24946 14.0813C5.49942 13.8314 5.91601 13.8314 6.16597 14.0813L6.83252 14.6646C6.91584 14.7479 6.99916 14.7479 6.99916 14.6646Z" />
<path d="M13.6647 10.082H10.7485C10.4153 10.082 10.082 10.3319 10.082 10.7485C10.082 11.1651 10.3319 11.4151 10.7485 11.4151H13.6647C13.998 11.4151 14.3313 11.1651 14.3313 10.7485C14.3313 10.3319 13.998 10.082 13.6647 10.082Z" />
<path d="M10.7485 14.6645H13.6647C13.998 14.6645 14.3313 14.9145 14.3313 15.3311C14.3313 15.7477 13.998 15.9976 13.6647 15.9976H10.7485C10.3319 15.9976 10.082 15.6644 10.082 15.3311C10.082 14.9145 10.4153 14.6645 10.7485 14.6645Z" />
<path d="M13.0815 2.24996L17.5807 6.7492C17.7473 6.91584 17.8307 7.08248 17.8307 7.33243V20.3302C17.8307 21.2467 17.0808 21.9966 16.1643 21.9966H3.66639C2.74987 21.9966 2 21.2467 2 20.3302V3.66639C2 2.74987 2.74987 2 3.66639 2H12.4982C12.7482 2 12.9148 2.08332 13.0815 2.24996ZM15.7477 20.3303C15.9977 20.3303 16.1643 20.1636 16.1643 19.9137V7.99902C16.1643 7.9157 16.081 7.83238 15.9977 7.83238H13.6647C12.7482 7.83238 11.9983 7.08251 11.9983 6.16599V3.83305C11.9983 3.74973 11.915 3.66641 11.7484 3.66641H4.08301C3.83305 3.66641 3.66641 3.83305 3.66641 4.08301V19.9137C3.66641 20.1636 3.83305 20.3303 4.08301 20.3303H15.7477Z" />
<path d="M21.9966 16.5809C21.9966 16.8308 21.83 16.9975 21.58 16.9975H19.0804C18.8305 16.9975 18.6638 16.8308 18.6638 16.5809V5.74936C18.6638 5.58273 18.8305 5.33277 19.0804 5.33277H21.58C21.83 5.33277 21.9966 5.58273 21.9966 5.74936V16.5809Z" />
<path d="M19.9137 21.7467C19.997 21.9966 20.2469 22.08 20.4969 21.9133C20.5287 21.8815 20.5605 21.8618 20.5877 21.845C20.6317 21.8179 20.6635 21.7982 20.6635 21.7467L21.9133 18.4139C21.9966 18.164 21.9133 17.9973 21.6634 17.914H18.9971C18.7472 17.914 18.5805 18.0806 18.5805 18.3306V18.4972L19.9137 21.7467Z" />
<path d="M21.58 4.49958H19.0804C18.8305 4.49958 18.6638 4.33294 18.6638 4.08298V3.66639C18.6638 2.74987 19.4137 2 20.3302 2C21.2467 2 21.9966 2.74987 21.9966 3.66639V4.08298C21.9966 4.33294 21.83 4.49958 21.58 4.49958Z" />
</svg>