<!-- character:0:2641 -->
  <svg width="20" height="20" viewBox="0 0 20 20" >
<path   d="M10.9012 1.87505L14.6505 5.62441C14.7894 5.76328 14.8588 5.90214 14.8588 6.11044V16.9419C14.8588 17.7057 14.2339 18.3306 13.4702 18.3306H3.05528C2.29152 18.3306 1.66663 17.7057 1.66663 16.9419V3.0554C1.66663 2.29164 2.29152 1.66675 3.05528 1.66675H10.4151C10.6234 1.66675 10.7623 1.73618 10.9012 1.87505ZM13.123 16.9419C13.3313 16.9419 13.4702 16.8031 13.4702 16.5948V6.6659C13.4702 6.59647 13.4008 6.52704 13.3313 6.52704H11.3872C10.6234 6.52704 9.99855 5.90214 9.99855 5.13838V3.19427C9.99855 3.12484 9.92912 3.0554 9.79026 3.0554H3.40244C3.19415 3.0554 3.05528 3.19427 3.05528 3.40257V16.5948C3.05528 16.8031 3.19415 16.9419 3.40244 16.9419H13.123ZM5.83259 8.40172L6.80465 7.22137C7.01295 7.01307 7.29068 7.01307 7.49897 7.0825C7.70727 7.2908 7.77671 7.63796 7.56841 7.84626L6.17975 9.58208C6.11032 9.72094 5.97146 9.79038 5.83259 9.79038C5.69372 9.79038 5.55486 9.72094 5.48543 9.65151L4.44393 8.61002C4.23564 8.47115 4.23564 8.12399 4.44393 7.91569C4.65223 7.70739 4.92996 7.70739 5.13826 7.91569L5.69372 8.40172C5.76316 8.47115 5.83259 8.47115 5.83259 8.40172ZM5.83259 12.2205L6.80465 11.0402C7.01295 10.8319 7.29068 10.8319 7.49897 10.9013C7.70727 11.1096 7.77671 11.4568 7.56841 11.6651L6.17975 13.4009C6.11032 13.5397 5.97146 13.6092 5.83259 13.6092C5.69372 13.6092 5.55486 13.5397 5.48543 13.4703L4.3745 12.4983C4.1662 12.29 4.1662 11.9428 4.3745 11.7345C4.5828 11.5262 4.92996 11.5262 5.13826 11.7345L5.69372 12.2205C5.76316 12.29 5.83259 12.29 5.83259 12.2205ZM11.3872 8.40172H8.95706C8.67933 8.40172 8.4016 8.61002 8.4016 8.95718C8.4016 9.30435 8.6099 9.51265 8.95706 9.51265H11.3872C11.6649 9.51265 11.9427 9.30435 11.9427 8.95718C11.9427 8.61002 11.6649 8.40172 11.3872 8.40172ZM8.95706 12.2205H11.3872C11.6649 12.2205 11.9427 12.4288 11.9427 12.776C11.9427 13.1231 11.6649 13.3314 11.3872 13.3314H8.95706C8.6099 13.3314 8.4016 13.0537 8.4016 12.776C8.4016 12.4288 8.67933 12.2205 8.95706 12.2205ZM18.3305 13.8175C18.3305 14.0258 18.1916 14.1646 17.9833 14.1646H15.9003C15.692 14.1646 15.5532 14.0258 15.5532 13.8175V4.79122C15.5532 4.65235 15.692 4.44406 15.9003 4.44406H17.9833C18.1916 4.44406 18.3305 4.65235 18.3305 4.79122V13.8175ZM16.5947 18.1223C16.6641 18.3306 16.8724 18.4 17.0807 18.2612C17.1072 18.2346 17.1337 18.2183 17.1564 18.2043C17.193 18.1816 17.2196 18.1652 17.2196 18.1223L18.261 15.345C18.3305 15.1367 18.261 14.9978 18.0527 14.9284H17.9139H15.8309C15.6226 14.9284 15.4837 15.0673 15.4837 15.2756V15.4144L16.5947 18.1223ZM17.9833 3.74973H15.9003C15.692 3.74973 15.5532 3.61086 15.5532 3.40257V3.0554C15.5532 2.29164 16.1781 1.66675 16.9418 1.66675C17.7056 1.66675 18.3305 2.29164 18.3305 3.0554V3.40257C18.3305 3.61086 18.1916 3.74973 17.9833 3.74973Z" />
</svg>