<!-- character:0:2597 -->
  <svg width="20" height="20" viewBox="0 0 20 20" >
<path   d="M14.6875 10.8417C14.6875 11.2252 14.9984 11.5361 15.3819 11.5361H17.6389C18.0224 11.5361 18.3333 11.2252 18.3333 10.8417V3.20281C18.3333 2.81928 18.0224 2.50836 17.6389 2.50836H15.3819C14.9984 2.50836 14.6875 2.81928 14.6875 3.20281V10.8417ZM15.7292 4.41808C15.7292 4.13044 15.9623 3.89725 16.25 3.89725C16.5376 3.89725 16.7708 4.13044 16.7708 4.41808C16.7708 4.70573 16.5376 4.93892 16.25 4.93892C15.9623 4.93892 15.7292 4.70573 15.7292 4.41808ZM3.40278 12.4042C2.44395 12.4042 1.66666 11.6269 1.66666 10.6681C1.66807 10.0429 2.00546 9.46682 2.55 9.15975C2.34912 8.78909 2.30655 8.35299 2.43196 7.95048C2.55737 7.54797 2.84011 7.21322 3.21597 7.02225C2.83855 6.25476 3.14799 5.32645 3.91041 4.93892C3.80408 4.72291 3.74918 4.48523 3.75 4.24447C3.75 3.79031 3.95278 3.0292 5.3125 3.0285H9.82639C10.7869 3.02349 11.7447 3.1333 12.6792 3.35558C12.8917 3.40072 13.1167 3.44725 13.3646 3.49447C13.5279 3.52608 13.6459 3.66909 13.6458 3.83545V10.8604C13.6459 10.9747 13.5899 11.0817 13.4958 11.1466C12.1729 12.0598 10.6944 14.1431 10.6944 16.05C10.7217 16.7475 10.2271 17.3569 9.53889 17.4736C8.8625 17.5674 7.99722 17.1507 7.58889 15.6924C7.44221 14.6582 7.56664 13.6036 7.95 12.632C7.96735 12.5791 7.95834 12.5212 7.92577 12.4761C7.89321 12.4311 7.84102 12.4043 7.78541 12.4042H3.40278Z" />
</svg>