<!-- character:0:2585 -->
  <svg width="20" height="20" viewBox="0 0 20 20" >
<path   d="M17.8248 8.09883C18.1504 8.42442 18.3333 8.866 18.3333 9.32645C18.3334 9.95308 17.9958 10.5311 17.45 10.8389C17.6509 11.2096 17.6934 11.6457 17.568 12.0482C17.4426 12.4507 17.1599 12.7855 16.784 12.9764C17.1614 13.7439 16.852 14.6722 16.0896 15.0598C16.1954 15.2747 16.2503 15.5112 16.25 15.7508C16.25 16.2021 16.0472 16.966 14.6875 16.966H10.1736C9.21305 16.971 8.25533 16.8612 7.32083 16.6389C7.10833 16.5938 6.88333 16.5473 6.63542 16.5001C6.47209 16.4685 6.35413 16.3254 6.35417 16.1591V9.13409C6.35406 9.01985 6.41014 8.91286 6.50417 8.84798C7.82708 7.93478 9.30556 5.85145 9.30556 3.9445C9.27827 3.24701 9.77291 2.63763 10.4611 2.52089C11.1375 2.42714 12.0028 2.84381 12.4111 4.30214C12.5578 5.33634 12.4334 6.3909 12.05 7.36256C12.0326 7.41539 12.0417 7.47333 12.0742 7.5184C12.1068 7.56348 12.159 7.59022 12.2146 7.59034H16.5972C17.0577 7.59034 17.4993 7.77325 17.8248 8.09883ZM5.3125 9.15284C5.3125 8.76931 5.00159 8.45839 4.61805 8.45839H2.36111C1.97758 8.45839 1.66667 8.76931 1.66667 9.15284V16.7917C1.66667 17.1753 1.97758 17.4862 2.36111 17.4862H4.61805C5.00159 17.4862 5.3125 17.1753 5.3125 16.7917V9.15284ZM4.27083 15.5764C4.27083 15.8641 4.03765 16.0973 3.75 16.0973C3.46235 16.0973 3.22917 15.8641 3.22917 15.5764C3.22917 15.2888 3.46235 15.0556 3.75 15.0556C4.03765 15.0556 4.27083 15.2888 4.27083 15.5764Z" />
</svg>