<!--character:17:472:335-->
  <svg width="24" height="24" viewBox="0 0 24 24" >
<path   d="M21.3898 9.71857C21.7805 10.1093 22 10.6392 22 11.1917C22.0001 11.9437 21.595 12.6373 20.94 13.0067C21.1811 13.4515 21.2321 13.9748 21.0816 14.4578C20.9312 14.9409 20.5919 15.3426 20.1408 15.5717C20.5937 16.4927 20.2224 17.6067 19.3075 18.0717C19.4345 18.3297 19.5003 18.6134 19.5 18.9009C19.5 19.4425 19.2567 20.3592 17.625 20.3592H12.2083C11.0557 20.3652 9.9064 20.2335 8.785 19.9667C8.53 19.9125 8.26 19.8567 7.9625 19.8C7.76651 19.7621 7.62496 19.5905 7.625 19.3909V10.9609C7.62487 10.8238 7.69217 10.6954 7.805 10.6175C9.3925 9.52171 11.1667 7.02171 11.1667 4.73338C11.1339 3.89639 11.7275 3.16513 12.5533 3.02505C13.365 2.91255 14.4033 3.41255 14.8933 5.16255C15.0693 6.40358 14.92 7.66906 14.46 8.83505C14.4392 8.89844 14.45 8.96798 14.4891 9.02206C14.5281 9.07615 14.5908 9.10824 14.6575 9.10838H19.9167C20.4692 9.10838 20.9991 9.32787 21.3898 9.71857ZM6.375 10.9834C6.375 10.5232 6.0019 10.1501 5.54167 10.1501H2.83333C2.3731 10.1501 2 10.5232 2 10.9834V20.1501C2 20.6103 2.3731 20.9834 2.83333 20.9834H5.54167C6.0019 20.9834 6.375 20.6103 6.375 20.1501V10.9834ZM5.125 18.6918C5.125 19.0369 4.84518 19.3168 4.5 19.3168C4.15482 19.3168 3.875 19.0369 3.875 18.6918C3.875 18.3466 4.15482 18.0668 4.5 18.0668C4.84518 18.0668 5.125 18.3466 5.125 18.6918Z" />
</svg>