<!--character:4945-->
  <svg width="24" height="24" viewBox="0 0 24 24" >
<path d="M17.625 13.01C17.625 13.4702 17.9981 13.8433 18.4584 13.8433H21.1667C21.6269 13.8433 22 13.4702 22 13.01V3.84333C22 3.38309 21.6269 3.01 21.1667 3.01H18.4584C17.9981 3.01 17.625 3.38309 17.625 3.84333V13.01ZM18.875 5.30166C18.875 4.95649 19.1548 4.67666 19.5 4.67666C19.8452 4.67666 20.125 4.95649 20.125 5.30166C20.125 5.64684 19.8452 5.92666 19.5 5.92666C19.1548 5.92666 18.875 5.64684 18.875 5.30166Z" />
<path d="M4.08336 14.885C2.93276 14.885 2.00002 13.9523 2.00002 12.8017C2.00171 12.0515 2.40658 11.3601 3.06002 10.9917C2.81897 10.5469 2.76789 10.0235 2.91838 9.54054C3.06887 9.05753 3.40816 8.65583 3.85919 8.42666C3.40629 7.50568 3.77761 6.39171 4.69252 5.92666C4.56493 5.66746 4.49904 5.38224 4.50002 5.09333C4.50002 4.54833 4.74336 3.635 6.37502 3.63416H11.7917C12.9444 3.62815 14.0936 3.75992 15.215 4.02666C15.47 4.08083 15.74 4.13666 16.0375 4.19333C16.2335 4.23126 16.3751 4.40287 16.375 4.6025V13.0325C16.3752 13.1696 16.3079 13.298 16.195 13.3758C14.6075 14.4717 12.8334 16.9717 12.8334 19.26C12.8661 20.097 12.2725 20.8283 11.4467 20.9683C10.635 21.0808 9.59669 20.5808 9.10669 18.8308C8.93068 17.5898 9.08 16.3243 9.54002 15.1583C9.56084 15.0949 9.55004 15.0254 9.51096 14.9713C9.47187 14.9172 9.40925 14.8851 9.34253 14.885H4.08336Z" />
</svg>