<!--character:8077-->
  <svg width="20" height="20" viewBox="0 0 20 20" >
<path d="M14.6875 10.8417C14.6875 11.2252 14.9984 11.5361 15.382 11.5361H17.6389C18.0224 11.5361 18.3334 11.2252 18.3334 10.8417V3.20278C18.3334 2.81924 18.0224 2.50833 17.6389 2.50833H15.382C14.9984 2.50833 14.6875 2.81924 14.6875 3.20278V10.8417ZM15.7292 4.41805C15.7292 4.13041 15.9624 3.89722 16.25 3.89722C16.5377 3.89722 16.7709 4.13041 16.7709 4.41805C16.7709 4.7057 16.5377 4.93889 16.25 4.93889C15.9624 4.93889 15.7292 4.7057 15.7292 4.41805Z" />
<path d="M3.4028 12.4042C2.44397 12.4042 1.66669 11.6269 1.66669 10.6681C1.66809 10.0429 2.00549 9.46679 2.55002 9.15972C2.34914 8.78906 2.30657 8.35296 2.43198 7.95045C2.55739 7.54794 2.84013 7.21319 3.21599 7.02222C2.83857 6.25473 3.14801 5.32642 3.91044 4.93889C3.80411 4.72288 3.7492 4.4852 3.75002 4.24444C3.75002 3.79028 3.9528 3.02916 5.31252 3.02847H9.82641C10.787 3.02346 11.7447 3.13327 12.6792 3.35555C12.8917 3.40069 13.1167 3.44722 13.3646 3.49444C13.5279 3.52605 13.6459 3.66906 13.6459 3.83541V10.8604C13.646 10.9747 13.5899 11.0816 13.4959 11.1465C12.1729 12.0597 10.6945 14.1431 10.6945 16.05C10.7217 16.7475 10.2271 17.3569 9.53891 17.4736C8.86252 17.5674 7.99724 17.1507 7.58891 15.6924C7.44223 14.6582 7.56667 13.6036 7.95002 12.6319C7.96737 12.5791 7.95836 12.5212 7.9258 12.4761C7.89323 12.431 7.84104 12.4043 7.78544 12.4042H3.4028Z" />
</svg>