<!--character:2691-->
  <svg width="20" height="20" viewBox="0 0 20 20" >
<path d="M17.8249 8.0988C18.1504 8.42439 18.3334 8.86597 18.3334 9.32642C18.3335 9.95305 17.9959 10.5311 17.45 10.8389C17.6509 11.2096 17.6935 11.6457 17.5681 12.0482C17.4427 12.4507 17.1599 12.7855 16.784 12.9764C17.1615 13.7439 16.852 14.6722 16.0896 15.0598C16.1954 15.2747 16.2503 15.5111 16.25 15.7507C16.25 16.2021 16.0472 16.966 14.6875 16.966H10.1736C9.21307 16.971 8.25535 16.8612 7.32085 16.6389C7.10835 16.5938 6.88335 16.5473 6.63544 16.5C6.47211 16.4684 6.35415 16.3254 6.35419 16.1591V9.13406C6.35408 9.01982 6.41017 8.91283 6.50419 8.84795C7.8271 7.93475 9.30558 5.85142 9.30558 3.94447C9.2783 3.24698 9.77293 2.6376 10.4611 2.52086C11.1375 2.42711 12.0028 2.84378 12.4111 4.30211C12.5578 5.33631 12.4334 6.39087 12.05 7.36253C12.0327 7.41536 12.0417 7.4733 12.0742 7.51837C12.1068 7.56345 12.159 7.59019 12.2146 7.59031H16.5972C17.0577 7.59031 17.4993 7.77322 17.8249 8.0988Z" />
<path d="M5.31252 9.15281C5.31252 8.76928 5.00161 8.45836 4.61808 8.45836H2.36113C1.9776 8.45836 1.66669 8.76928 1.66669 9.15281V16.7917C1.66669 17.1752 1.9776 17.4861 2.36113 17.4861H4.61808C5.00161 17.4861 5.31252 17.1752 5.31252 16.7917V9.15281ZM4.27085 15.5764C4.27085 15.8641 4.03767 16.0972 3.75002 16.0972C3.46237 16.0972 3.22919 15.8641 3.22919 15.5764C3.22919 15.2888 3.46237 15.0556 3.75002 15.0556C4.03767 15.0556 4.27085 15.2888 4.27085 15.5764Z" />
</svg>