<!--character:2369-->
  <svg width="24" height="24" viewBox="0 0 24 24" >
<path d="M17.625 13.01C17.625 13.4702 17.9981 13.8433 18.4583 13.8433H21.1667C21.6269 13.8433 22 13.4702 22 13.01V3.84334C22 3.38311 21.6269 3.01001 21.1667 3.01001H18.4583C17.9981 3.01001 17.625 3.38311 17.625 3.84334V13.01ZM18.875 5.3017C18.875 4.95652 19.1548 4.6767 19.5 4.6767C19.8452 4.6767 20.125 4.95652 20.125 5.3017C20.125 5.64688 19.8452 5.9267 19.5 5.9267C19.1548 5.9267 18.875 5.64688 18.875 5.3017Z" />
<path d="M4.08333 14.885C2.93274 14.885 2 13.9523 2 12.8017C2.00169 12.0515 2.40656 11.3602 3.06 10.9917C2.81895 10.5469 2.76786 10.0236 2.91835 9.54056C3.06884 9.05755 3.40813 8.65585 3.85917 8.42669C3.40626 7.50571 3.77759 6.39173 4.6925 5.92669C4.5649 5.66748 4.49902 5.38227 4.5 5.09336C4.5 4.54836 4.74333 3.63502 6.375 3.63419H11.7917C12.9443 3.62818 14.0936 3.75995 15.215 4.02669C15.47 4.08086 15.74 4.13669 16.0375 4.19336C16.2335 4.23129 16.375 4.4029 16.375 4.60252V13.0325C16.3751 13.1696 16.3078 13.298 16.195 13.3759C14.6075 14.4717 12.8333 16.9717 12.8333 19.26C12.8661 20.097 12.2725 20.8283 11.4467 20.9684C10.635 21.0809 9.59667 20.5809 9.10667 18.8309C8.93066 17.5898 9.07997 16.3243 9.54 15.1584C9.56082 15.095 9.55001 15.0254 9.51093 14.9713C9.47185 14.9173 9.40923 14.8852 9.3425 14.885H4.08333Z" />
</svg>