<!--character:9504-->
  <svg width="24" height="24" viewBox="0 0 24 24" >
<path d="M21.3898 9.71856C21.7805 10.1093 22 10.6392 22 11.1917C22.0001 11.9437 21.595 12.6373 20.94 13.0067C21.1811 13.4515 21.2322 13.9748 21.0817 14.4578C20.9312 14.9408 20.5919 15.3425 20.1409 15.5717C20.5938 16.4927 20.2224 17.6067 19.3075 18.0717C19.4345 18.3296 19.5004 18.6134 19.5 18.9009C19.5 19.4425 19.2567 20.3592 17.625 20.3592H12.2084C11.0557 20.3652 9.90643 20.2334 8.78502 19.9667C8.53002 19.9125 8.26002 19.8567 7.96252 19.8C7.76653 19.7621 7.62498 19.5905 7.62502 19.3909V10.9609C7.62489 10.8238 7.6922 10.6954 7.80502 10.6175C9.39252 9.5217 11.1667 7.0217 11.1667 4.73337C11.134 3.89637 11.7275 3.16512 12.5534 3.02503C13.365 2.91253 14.4034 3.41253 14.8934 5.16253C15.0694 6.40357 14.9201 7.66905 14.46 8.83503C14.4392 8.89843 14.45 8.96796 14.4891 9.02205C14.5282 9.07614 14.5908 9.10823 14.6575 9.10837H19.9167C20.4692 9.10837 20.9991 9.32786 21.3898 9.71856Z" />
<path d="M6.37502 10.9834C6.37502 10.5231 6.00193 10.15 5.54169 10.15H2.83336C2.37312 10.15 2.00002 10.5231 2.00002 10.9834V20.15C2.00002 20.6103 2.37312 20.9834 2.83336 20.9834H5.54169C6.00193 20.9834 6.37502 20.6103 6.37502 20.15V10.9834ZM5.12502 18.6917C5.12502 19.0369 4.8452 19.3167 4.50002 19.3167C4.15485 19.3167 3.87502 19.0369 3.87502 18.6917C3.87502 18.3465 4.15485 18.0667 4.50002 18.0667C4.8452 18.0667 5.12502 18.3465 5.12502 18.6917Z" />
</svg>