<!--character:7918-->
  <svg width="24" height="24" viewBox="0 0 24 24" >
<path d="M6.8301 16.8156C7.2881 16.8156 7.6601 16.4446 7.6601 15.9856C7.6601 15.5276 7.2881 15.1556 6.8301 15.1556C6.3721 15.1556 6.0001 15.5276 6.0001 15.9856C6.0001 16.4446 6.3721 16.8156 6.8301 16.8156Z" />
<path d="M7.6601 13.3256C7.6601 13.7846 7.2881 14.1556 6.8301 14.1556C6.3721 14.1556 6.0001 13.7846 6.0001 13.3256C6.0001 12.8676 6.3721 12.4956 6.8301 12.4956C7.2881 12.4956 7.6601 12.8676 7.6601 13.3256Z" />
<path d="M6.8301 11.4956C7.2881 11.4956 7.6601 11.1246 7.6601 10.6656C7.6601 10.2076 7.2881 9.8356 6.8301 9.8356C6.3721 9.8356 6.0001 10.2076 6.0001 10.6656C6.0001 11.1246 6.3721 11.4956 6.8301 11.4956Z" />
<path d="M7.6601 8.0056C7.6601 8.4646 7.2881 8.8356 6.8301 8.8356C6.3721 8.8356 6.0001 8.4646 6.0001 8.0056C6.0001 7.5476 6.3721 7.1766 6.8301 7.1766C7.2881 7.1766 7.6601 7.5476 7.6601 8.0056Z" />
<path d="M9.5001 10.64C9.5001 10.1816 9.8717 9.81 10.3301 9.81H16.6701C17.1285 9.81 17.5001 10.1816 17.5001 10.64C17.5001 11.0984 17.1285 11.47 16.6701 11.47H10.3301C9.8717 11.47 9.5001 11.0984 9.5001 10.64Z" />
<path d="M10.3301 12.47C9.8717 12.47 9.5001 12.8416 9.5001 13.3C9.5001 13.7584 9.8717 14.13 10.3301 14.13H13.6701C14.1285 14.13 14.5001 13.7584 14.5001 13.3C14.5001 12.8416 14.1285 12.47 13.6701 12.47H10.3301Z" />
<path d="M21.3091 10.778C21.7051 10.689 22.0001 10.361 22.0001 9.955V6.908C22.0001 5.889 21.4411 5.33 20.7501 5.33H3.2501C2.5611 5.33 2.0001 5.89 2.0001 6.58V9.955C2.0001 10.361 2.2961 10.689 2.6931 10.778C3.2621 10.905 3.6681 11.411 3.6681 11.997C3.6681 12.582 3.2621 13.089 2.6931 13.216C2.2961 13.306 2.0001 13.632 2.0001 14.038V17.413C2.0001 17.745 2.1321 18.063 2.3671 18.297C2.6011 18.531 2.9191 18.663 3.2501 18.663H20.7501C21.4411 18.663 22.0001 18.104 22.0001 17.413V14.038C22.0001 13.632 21.7051 13.306 21.3091 13.216C20.7391 13.088 20.3331 12.582 20.3331 11.997C20.3331 11.411 20.7391 10.905 21.3091 10.778ZM20.5831 9.174C20.5831 9.388 20.4541 9.57 20.2681 9.676C19.4531 10.141 18.9161 11.02 18.9161 11.997C18.9161 12.973 19.4511 13.851 20.2651 14.316C20.4531 14.423 20.5831 14.607 20.5831 14.823V16.677C20.5831 16.991 20.3281 17.246 20.0131 17.246H3.9871C3.6731 17.246 3.4181 16.991 3.4181 16.677V14.823C3.4181 14.607 3.5481 14.423 3.7361 14.316C4.5501 13.851 5.0861 12.973 5.0861 11.997C5.0861 11.022 4.5501 10.143 3.7361 9.678C3.5481 9.57 3.4181 9.386 3.4181 9.17V7.316C3.4181 7.002 3.6721 6.747 3.9861 6.747H20.0201C20.3311 6.747 20.5831 6.999 20.5831 7.311V9.174Z" />
</svg>