<!--character:19:472:349-->
<svg width="24" height="24" viewBox="0 0 24 24" xmlns="http://www.w3.org/2000/svg"><path d="M21.3333 10.7717a1.25 1.25 0 0 0 0 2.45.8334.8334 0 0 1 .6667.8166v3.375c0 .6904-.5596 1.25-1.25 1.25H3.25a1.25 1.25 0 0 1-1.25-1.25v-3.375c0-.396.2786-.7374.6667-.8166a1.25 1.25 0 0 0 0-2.45A.8334.8334 0 0 1 2 9.955V6.58c0-.6904.5596-1.25 1.25-1.25h17.5c.6904 0 1.25.5596 1.25 1.25v3.375a.8334.8334 0 0 1-.6667.8167zM6.83 16.8156c.458 0 .83-.371.83-.83 0-.458-.372-.83-.83-.83-.458 0-.83.372-.83.83 0 .459.372.83.83.83zm0-2.66c.458 0 .83-.371.83-.83 0-.458-.372-.83-.83-.83-.458 0-.83.372-.83.83 0 .459.372.83.83.83zm0-2.66c.458 0 .83-.371.83-.83 0-.458-.372-.83-.83-.83-.458 0-.83.372-.83.83 0 .459.372.83.83.83zm0-2.66c.458 0 .83-.371.83-.83 0-.458-.372-.829-.83-.829-.458 0-.83.371-.83.829 0 .459.372.83.83.83zm3.5.9744a.83.83 0 0 0 0 1.66h6.34a.83.83 0 0 0 0-1.66h-6.34zm0 2.66a.83.83 0 0 0 0 1.66h3.34a.83.83 0 0 0 0-1.66h-3.34z"/></svg>
