<!--character:705-->
  <svg width="24" height="24" viewBox="0 0 24 24" >
<path   d="M11.0449 15.25C11.6747 15.2501 12.2791 15.5 12.7246 15.9453C13.1699 16.3907 13.4198 16.9952 13.4199 17.625C13.4199 18.2549 13.1698 18.8592 12.7246 19.3047C12.3347 19.6945 11.8231 19.9353 11.2792 19.9893L11.25 19.9902V21.418C11.25 21.8322 10.9142 22.168 10.5 22.168C10.0857 22.168 9.74995 21.8322 9.74995 21.418V16C9.74995 15.5858 10.0857 15.25 10.5 15.25H11.0449ZM11.25 18.4746C11.4052 18.4369 11.5493 18.3589 11.664 18.2441C11.828 18.08 11.9199 17.857 11.9199 17.625C11.9198 17.3932 11.8279 17.1709 11.664 17.0068C11.5491 16.8919 11.4054 16.812 11.25 16.7744V18.4746Z" />
<path   d="M14.8349 15.25C15.6084 15.2501 16.3504 15.5576 16.8974 16.1045C17.4443 16.6515 17.7518 17.3935 17.7519 18.167V19.251C17.7519 20.0246 17.4444 20.7664 16.8974 21.3135C16.4187 21.7921 15.7908 22.088 15.123 22.1543L14.8349 22.168C14.4207 22.168 14.0849 21.8322 14.0849 21.418V16L14.0888 15.9229C14.1275 15.5449 14.4468 15.25 14.8349 15.25ZM15.5849 20.4512C15.6751 20.3948 15.7605 20.3293 15.8369 20.2529C16.1025 19.9872 16.2519 19.6267 16.2519 19.251V18.167L16.2451 18.0273C16.2129 17.7029 16.0693 17.3976 15.8369 17.165C15.7603 17.0885 15.6752 17.0222 15.5849 16.9658V20.4512Z" />
<path d="M21.413 15.2539C21.7911 15.2924 22.0859 15.6117 22.0859 16C22.0859 16.3883 21.7911 16.7076 21.413 16.7461L21.3359 16.75H20.2529C20.1644 16.75 20.0791 16.7851 20.0166 16.8477C19.954 16.9102 19.9189 16.9955 19.9189 17.084V18.501H20.7939L20.871 18.5049C21.2492 18.5433 21.5439 18.8627 21.5439 19.251C21.5439 19.6393 21.2492 19.9587 20.871 19.9971L20.7939 20.001H19.9189V21.418C19.9189 21.8322 19.5831 22.168 19.1689 22.168C18.7547 22.1679 18.4189 21.8321 18.4189 21.418V17.084C18.4189 16.5977 18.6122 16.131 18.956 15.7871C19.2998 15.4433 19.7666 15.25 20.2529 15.25H21.3359L21.413 15.2539Z" />
<path d="M20.1035 3.75C20.6292 3.7501 21.1365 3.95568 21.5117 4.3252C21.8871 4.69511 22.1005 5.19949 22.1005 5.72754V8.79688C22.1005 9.21089 21.7645 9.54656 21.3505 9.54688C20.8846 9.54688 20.4393 9.72976 20.1132 10.0508C19.7876 10.3715 19.6074 10.8044 19.6074 11.2529L19.6152 11.4199C19.6542 11.8077 19.8282 12.1744 20.1132 12.4551C20.3985 12.736 20.775 12.9109 21.1767 12.9502L21.3505 12.958L21.4267 12.9619C21.8048 13.0003 22.1004 13.3198 22.1005 13.708C22.1005 14.0963 21.8048 14.4156 21.4267 14.4541L21.3505 14.458L21.1904 14.4541C20.392 14.4152 19.6325 14.0856 19.0615 13.5234C18.49 12.9606 18.1513 12.2077 18.1113 11.4121L18.1074 11.2529C18.1074 10.399 18.452 9.58267 19.0615 8.98242C19.4896 8.56092 20.0236 8.2703 20.6005 8.13477V5.72754C20.6005 5.60473 20.5507 5.48399 20.4589 5.39355C20.3667 5.30287 20.2386 5.2501 20.1035 5.25H8.74995V5.54199C8.74977 5.95606 8.41406 6.29199 7.99995 6.29199C7.58585 6.29199 7.25013 5.95606 7.24995 5.54199V5.25H3.89741C3.76227 5.25 3.6342 5.30297 3.54194 5.39355C3.4501 5.48401 3.40041 5.60463 3.40034 5.72754V8.13477C3.97719 8.27039 4.51141 8.56092 4.9394 8.98242C5.54873 9.58265 5.89351 10.3992 5.89351 11.2529C5.89346 12.1067 5.54872 12.9232 4.9394 13.5234C4.51147 13.9449 3.97708 14.2345 3.40034 14.3701V16.7773C3.40034 16.9003 3.45006 17.0208 3.54194 17.1113C3.63409 17.202 3.76136 17.2547 3.89644 17.2549L7.99897 17.25L8.07612 17.2539C8.45412 17.292 8.74943 17.6109 8.74995 17.999C8.75046 18.3872 8.456 18.707 8.07808 18.7461L8.00093 18.75L3.89839 18.7559C3.37268 18.7559 2.86447 18.55 2.48921 18.1807C2.11352 17.8107 1.90034 17.3056 1.90034 16.7773V13.708L1.90425 13.6318C1.94259 13.2536 2.26197 12.958 2.65034 12.958C3.11603 12.9579 3.56071 12.7759 3.88667 12.4551C4.21221 12.1344 4.39346 11.7014 4.39351 11.2529C4.39351 10.8044 4.21224 10.3715 3.88667 10.0508C3.5607 9.72987 3.11611 9.54698 2.65034 9.54688C2.45152 9.54688 2.2607 9.46768 2.12007 9.32715C1.97952 9.18651 1.90034 8.99571 1.90034 8.79688V5.72754C1.90041 5.19936 2.11358 4.69513 2.48921 4.3252C2.86448 3.95572 3.37163 3.75 3.89741 3.75H20.1035Z" />
<path d="M7.99995 13.458L8.0771 13.4619C8.45496 13.5006 8.74979 13.82 8.74995 14.208V15.292C8.74978 15.7061 8.41406 16.042 7.99995 16.042L7.9228 16.0381C7.54494 15.9994 7.25012 15.68 7.24995 15.292V14.208C7.25013 13.7939 7.58585 13.458 7.99995 13.458Z" />
<path d="M7.99995 10.208C8.41406 10.208 8.74977 10.5439 8.74995 10.958V12.042C8.74978 12.4561 8.41406 12.792 7.99995 12.792L7.9228 12.7881C7.54494 12.7494 7.25012 12.43 7.24995 12.042V10.958C7.25013 10.5439 7.58585 10.208 7.99995 10.208Z" />
<path d="M7.99995 6.95801C8.41406 6.95801 8.74977 7.29394 8.74995 7.70801V8.79199C8.74978 9.20606 8.41406 9.54199 7.99995 9.54199C7.58585 9.54199 7.25013 9.20606 7.24995 8.79199V7.70801C7.25013 7.29394 7.58585 6.95801 7.99995 6.95801Z" />
</svg>