<!-- character:0:1009 -->
  <svg width="20" height="20" viewBox="0 0 20 20" >
<path   d="M17.1525 7.64498C17.1525 7.82332 17.045 7.97498 16.89 8.06332C16.2108 8.45082 15.7633 9.18332 15.7633 9.99748C15.7633 10.8108 16.2092 11.5425 16.8875 11.93C17.0442 12.0192 17.1525 12.1725 17.1525 12.3525V13.8975C17.1525 14.1592 16.94 14.3716 16.6775 14.3716H3.32249C3.06082 14.3716 2.84832 14.1592 2.84832 13.8975V12.3525C2.84832 12.1725 2.95666 12.0192 3.11332 11.93C3.79166 11.5425 4.23832 10.8108 4.23832 9.99748C4.23832 9.18498 3.79166 8.45248 3.11332 8.06498C2.95666 7.97498 2.84832 7.82165 2.84832 7.64165V6.09665C2.84832 5.83498 3.05999 5.62248 3.32166 5.62248H16.6833C16.9425 5.62248 17.1525 5.83248 17.1525 6.09248V7.64498ZM17.7575 8.98165C18.0875 8.90748 18.3333 8.63415 18.3333 8.29582V5.75665C18.3333 4.90748 17.8675 4.44165 17.2917 4.44165H2.70832C2.13416 4.44165 1.66666 4.90832 1.66666 5.48332V8.29582C1.66666 8.63415 1.91332 8.90748 2.24416 8.98165C2.71832 9.08748 3.05666 9.50915 3.05666 9.99748C3.05666 10.485 2.71832 10.9075 2.24416 11.0133C1.91332 11.0883 1.66666 11.36 1.66666 11.6983V14.5108C1.66666 14.7875 1.77666 15.0525 1.97249 15.2475C2.16749 15.4425 2.43249 15.5525 2.70832 15.5525H17.2917C17.8675 15.5525 18.3333 15.0867 18.3333 14.5108V11.6983C18.3333 11.36 18.0875 11.0883 17.7575 11.0133C17.2825 10.9067 16.9442 10.485 16.9442 9.99748C16.9442 9.50915 17.2825 9.08748 17.7575 8.98165ZM5.69166 14.013C6.07332 14.013 6.38332 13.7038 6.38332 13.3213C6.38332 12.9397 6.07332 12.6297 5.69166 12.6297C5.30999 12.6297 4.99999 12.9397 4.99999 13.3213C4.99999 13.7038 5.30999 14.013 5.69166 14.013ZM6.38332 11.1046C6.38332 11.4871 6.07332 11.7963 5.69166 11.7963C5.30999 11.7963 4.99999 11.4871 4.99999 11.1046C4.99999 10.723 5.30999 10.413 5.69166 10.413C6.07332 10.413 6.38332 10.723 6.38332 11.1046ZM5.69166 9.57965C6.07332 9.57965 6.38332 9.27048 6.38332 8.88798C6.38332 8.50632 6.07332 8.19632 5.69166 8.19632C5.30999 8.19632 4.99999 8.50632 4.99999 8.88798C4.99999 9.27048 5.30999 9.57965 5.69166 9.57965ZM6.38332 6.67132C6.38332 7.05382 6.07332 7.36298 5.69166 7.36298C5.30999 7.36298 4.99999 7.05382 4.99999 6.67132C4.99999 6.28965 5.30999 5.98048 5.69166 5.98048C6.07332 5.98048 6.38332 6.28965 6.38332 6.67132ZM7.91666 8.86665C7.91666 8.48465 8.22633 8.17498 8.60832 8.17498H13.8917C14.2737 8.17498 14.5833 8.48465 14.5833 8.86665C14.5833 9.24865 14.2737 9.55832 13.8917 9.55832H8.60832C8.22633 9.55832 7.91666 9.24865 7.91666 8.86665ZM8.60832 10.3917C8.22633 10.3917 7.91666 10.7013 7.91666 11.0833C7.91666 11.4653 8.22633 11.775 8.60832 11.775H11.3917C11.7737 11.775 12.0833 11.4653 12.0833 11.0833C12.0833 10.7013 11.7737 10.3917 11.3917 10.3917H8.60832Z" />
</svg>