<!--character:1849-->
  <svg width="20" height="20" viewBox="0 0 20 20" >
<path d="M5.69175 14.013C6.07341 14.013 6.38341 13.7038 6.38341 13.3213C6.38341 12.9397 6.07341 12.6297 5.69175 12.6297C5.31008 12.6297 5.00008 12.9397 5.00008 13.3213C5.00008 13.7038 5.31008 14.013 5.69175 14.013Z" />
<path d="M6.38341 11.1047C6.38341 11.4872 6.07341 11.7963 5.69175 11.7963C5.31008 11.7963 5.00008 11.4872 5.00008 11.1047C5.00008 10.723 5.31008 10.413 5.69175 10.413C6.07341 10.413 6.38341 10.723 6.38341 11.1047Z" />
<path d="M5.69175 9.57967C6.07341 9.57967 6.38341 9.2705 6.38341 8.888C6.38341 8.50633 6.07341 8.19633 5.69175 8.19633C5.31008 8.19633 5.00008 8.50633 5.00008 8.888C5.00008 9.2705 5.31008 9.57967 5.69175 9.57967Z" />
<path d="M6.38341 6.67133C6.38341 7.05383 6.07341 7.363 5.69175 7.363C5.31008 7.363 5.00008 7.05383 5.00008 6.67133C5.00008 6.28967 5.31008 5.9805 5.69175 5.9805C6.07341 5.9805 6.38341 6.28967 6.38341 6.67133Z" />
<path d="M7.91675 8.86667C7.91675 8.48467 8.22642 8.175 8.60841 8.175H13.8917C14.2737 8.175 14.5834 8.48467 14.5834 8.86667C14.5834 9.24866 14.2737 9.55833 13.8917 9.55833H8.60841C8.22642 9.55833 7.91675 9.24866 7.91675 8.86667Z" />
<path d="M8.60841 10.3917C8.22642 10.3917 7.91675 10.7013 7.91675 11.0833C7.91675 11.4653 8.22642 11.775 8.60841 11.775H11.3917C11.7737 11.775 12.0834 11.4653 12.0834 11.0833C12.0834 10.7013 11.7737 10.3917 11.3917 10.3917H8.60841Z" />
<path d="M17.7576 8.98167C18.0876 8.9075 18.3334 8.63417 18.3334 8.29583V5.75667C18.3334 4.9075 17.8676 4.44167 17.2917 4.44167H2.70841C2.13425 4.44167 1.66675 4.90833 1.66675 5.48333V8.29583C1.66675 8.63417 1.91341 8.9075 2.24425 8.98167C2.71841 9.0875 3.05675 9.50917 3.05675 9.9975C3.05675 10.485 2.71841 10.9075 2.24425 11.0133C1.91341 11.0883 1.66675 11.36 1.66675 11.6983V14.5108C1.66675 14.7875 1.77675 15.0525 1.97258 15.2475C2.16758 15.4425 2.43258 15.5525 2.70841 15.5525H17.2917C17.8676 15.5525 18.3334 15.0867 18.3334 14.5108V11.6983C18.3334 11.36 18.0876 11.0883 17.7576 11.0133C17.2826 10.9067 16.9442 10.485 16.9442 9.9975C16.9442 9.50917 17.2826 9.0875 17.7576 8.98167ZM17.1526 7.645C17.1526 7.82333 17.0451 7.975 16.8901 8.06333C16.2109 8.45083 15.7634 9.18333 15.7634 9.9975C15.7634 10.8108 16.2092 11.5425 16.8876 11.93C17.0442 12.0192 17.1526 12.1725 17.1526 12.3525V13.8975C17.1526 14.1592 16.9401 14.3717 16.6776 14.3717H3.32258C3.06091 14.3717 2.84841 14.1592 2.84841 13.8975V12.3525C2.84841 12.1725 2.95675 12.0192 3.11341 11.93C3.79175 11.5425 4.23841 10.8108 4.23841 9.9975C4.23841 9.185 3.79175 8.4525 3.11341 8.065C2.95675 7.975 2.84841 7.82167 2.84841 7.64167V6.09667C2.84841 5.835 3.06008 5.6225 3.32175 5.6225H16.6834C16.9426 5.6225 17.1526 5.8325 17.1526 6.0925V7.645Z" />
</svg>