<!--character:3020-->
  <svg width="20" height="20" viewBox="0 0 20 20" >
<path d="M17.7777 8.97639C18.1011 8.91038 18.3334 8.62588 18.3333 8.29583V5.48333C18.3333 4.90804 17.8669 4.44167 17.2916 4.44167H2.70829C2.133 4.44167 1.66663 4.90804 1.66663 5.48333V8.29583C1.66656 8.62588 1.8988 8.91038 2.22218 8.97639C2.70767 9.07497 3.05656 9.50183 3.05656 9.99722C3.05656 10.4926 2.70767 10.9195 2.22218 11.0181C1.8988 11.0841 1.66656 11.3686 1.66663 11.6986V14.5111C1.66663 14.7874 1.77637 15.0523 1.97172 15.2477C2.16707 15.443 2.43203 15.5528 2.70829 15.5528H17.2916C17.8669 15.5528 18.3333 15.0864 18.3333 14.5111V11.6986C18.3334 11.3686 18.1011 11.0841 17.7777 11.0181C17.2923 10.9195 16.9434 10.4926 16.9434 9.99722C16.9434 9.50183 17.2923 9.07497 17.7777 8.97639ZM5.69163 14.013C5.30996 14.013 4.99996 13.7038 4.99996 13.3213C4.99996 12.9397 5.30996 12.6297 5.69163 12.6297C6.07329 12.6297 6.38329 12.9397 6.38329 13.3213C6.38329 13.7038 6.07329 14.013 5.69163 14.013ZM6.38329 11.1047C6.38329 11.4872 6.07329 11.7963 5.69163 11.7963C5.30996 11.7963 4.99996 11.4872 4.99996 11.1047C4.99996 10.723 5.30996 10.413 5.69163 10.413C6.07329 10.413 6.38329 10.723 6.38329 11.1047ZM5.69163 9.57967C5.30996 9.57967 4.99996 9.2705 4.99996 8.888C4.99996 8.50633 5.30996 8.19633 5.69163 8.19633C6.07329 8.19633 6.38329 8.50633 6.38329 8.888C6.38329 9.2705 6.07329 9.57967 5.69163 9.57967ZM6.38329 6.67133C6.38329 7.05383 6.07329 7.363 5.69163 7.363C5.30996 7.363 4.99996 7.05383 4.99996 6.67133C4.99996 6.28967 5.30996 5.9805 5.69163 5.9805C6.07329 5.9805 6.38329 6.28967 6.38329 6.67133ZM7.91663 8.86667C7.91663 8.48467 8.2263 8.175 8.60829 8.175H13.8916C14.2736 8.175 14.5833 8.48467 14.5833 8.86667C14.5833 9.24866 14.2736 9.55833 13.8916 9.55833H8.60829C8.2263 9.55833 7.91663 9.24866 7.91663 8.86667ZM8.60829 10.3917H11.3916C11.7736 10.3917 12.0833 10.7013 12.0833 11.0833C12.0833 11.4653 11.7736 11.775 11.3916 11.775H8.60829C8.2263 11.775 7.91663 11.4653 7.91663 11.0833C7.91663 10.7013 8.2263 10.3917 8.60829 10.3917Z" />
</svg>