<!--character:2476-->
  <svg width="24" height="24" viewBox="0 0 24 24" >
<path d="M6.82999 16.8156C7.28799 16.8156 7.65999 16.4446 7.65999 15.9856C7.65999 15.5276 7.28799 15.1556 6.82999 15.1556C6.37199 15.1556 5.99999 15.5276 5.99999 15.9856C5.99999 16.4446 6.37199 16.8156 6.82999 16.8156Z" />
<path d="M7.65999 13.3256C7.65999 13.7846 7.28799 14.1556 6.82999 14.1556C6.37199 14.1556 5.99999 13.7846 5.99999 13.3256C5.99999 12.8676 6.37199 12.4956 6.82999 12.4956C7.28799 12.4956 7.65999 12.8676 7.65999 13.3256Z" />
<path d="M6.82999 11.4956C7.28799 11.4956 7.65999 11.1246 7.65999 10.6656C7.65999 10.2076 7.28799 9.8356 6.82999 9.8356C6.37199 9.8356 5.99999 10.2076 5.99999 10.6656C5.99999 11.1246 6.37199 11.4956 6.82999 11.4956Z" />
<path d="M7.65999 8.0056C7.65999 8.4646 7.28799 8.8356 6.82999 8.8356C6.37199 8.8356 5.99999 8.4646 5.99999 8.0056C5.99999 7.5476 6.37199 7.1766 6.82999 7.1766C7.28799 7.1766 7.65999 7.5476 7.65999 8.0056Z" />
<path d="M9.49999 10.64C9.49999 10.1816 9.87159 9.81 10.33 9.81H16.67C17.1284 9.81 17.5 10.1816 17.5 10.64C17.5 11.0984 17.1284 11.47 16.67 11.47H10.33C9.87159 11.47 9.49999 11.0984 9.49999 10.64Z" />
<path d="M10.33 12.47C9.87159 12.47 9.49999 12.8416 9.49999 13.3C9.49999 13.7584 9.87159 14.13 10.33 14.13H13.67C14.1284 14.13 14.5 13.7584 14.5 13.3C14.5 12.8416 14.1284 12.47 13.67 12.47H10.33Z" />
<path d="M21.309 10.778C21.705 10.689 22 10.361 22 9.955V6.908C22 5.889 21.441 5.33 20.75 5.33H3.24999C2.56099 5.33 1.99999 5.89 1.99999 6.58V9.955C1.99999 10.361 2.29599 10.689 2.69299 10.778C3.26199 10.905 3.66799 11.411 3.66799 11.997C3.66799 12.582 3.26199 13.089 2.69299 13.216C2.29599 13.306 1.99999 13.632 1.99999 14.038V17.413C1.99999 17.745 2.13199 18.063 2.36699 18.297C2.60099 18.531 2.91899 18.663 3.24999 18.663H20.75C21.441 18.663 22 18.104 22 17.413V14.038C22 13.632 21.705 13.306 21.309 13.216C20.739 13.088 20.333 12.582 20.333 11.997C20.333 11.411 20.739 10.905 21.309 10.778ZM20.583 9.174C20.583 9.388 20.454 9.57 20.268 9.676C19.453 10.141 18.916 11.02 18.916 11.997C18.916 12.973 19.451 13.851 20.265 14.316C20.453 14.423 20.583 14.607 20.583 14.823V16.677C20.583 16.991 20.328 17.246 20.013 17.246H3.98699C3.67299 17.246 3.41799 16.991 3.41799 16.677V14.823C3.41799 14.607 3.54799 14.423 3.73599 14.316C4.54999 13.851 5.08599 12.973 5.08599 11.997C5.08599 11.022 4.54999 10.143 3.73599 9.678C3.54799 9.57 3.41799 9.386 3.41799 9.17V7.316C3.41799 7.002 3.67199 6.747 3.98599 6.747H20.02C20.331 6.747 20.583 6.999 20.583 7.311V9.174Z" />
</svg>