<!--character:$472:349-->
  <svg width="24" height="24" viewBox="0 0 24 24" >
<path d="M21.3333 10.7717C21.7214 10.6925 22.0001 10.3511 22 9.95508V6.58008C22 5.88972 21.4404 5.33008 20.75 5.33008H3.25C2.55964 5.33008 2 5.88972 2 6.58008V9.95508C1.99992 10.3511 2.27861 10.6925 2.66667 10.7717C3.24925 10.89 3.66792 11.4023 3.66792 11.9967C3.66792 12.5912 3.24925 13.1034 2.66667 13.2217C2.27861 13.301 1.99992 13.6424 2 14.0384V17.4134C2 17.7449 2.1317 18.0629 2.36612 18.2973C2.60054 18.5317 2.91848 18.6634 3.25 18.6634H20.75C21.4404 18.6634 22 18.1038 22 17.4134V14.0384C22.0001 13.6424 21.7214 13.301 21.3333 13.2217C20.7508 13.1034 20.3321 12.5912 20.3321 11.9967C20.3321 11.4023 20.7508 10.89 21.3333 10.7717ZM6.83 16.8157C6.372 16.8157 6 16.4447 6 15.9857C6 15.5277 6.372 15.1557 6.83 15.1557C7.288 15.1557 7.66 15.5277 7.66 15.9857C7.66 16.4447 7.288 16.8157 6.83 16.8157ZM7.66 13.3257C7.66 13.7847 7.288 14.1557 6.83 14.1557C6.372 14.1557 6 13.7847 6 13.3257C6 12.8677 6.372 12.4957 6.83 12.4957C7.288 12.4957 7.66 12.8677 7.66 13.3257ZM6.83 11.4957C6.372 11.4957 6 11.1247 6 10.6657C6 10.2077 6.372 9.83568 6.83 9.83568C7.288 9.83568 7.66 10.2077 7.66 10.6657C7.66 11.1247 7.288 11.4957 6.83 11.4957ZM7.66 8.0057C7.66 8.4647 7.288 8.8357 6.83 8.8357C6.372 8.8357 6 8.4647 6 8.0057C6 7.5477 6.372 7.1767 6.83 7.1767C7.288 7.1767 7.66 7.5477 7.66 8.0057ZM9.5 10.6401C9.5 10.1817 9.8716 9.81007 10.33 9.81007H16.67C17.1284 9.81007 17.5 10.1817 17.5 10.6401C17.5 11.0985 17.1284 11.4701 16.67 11.4701H10.33C9.8716 11.4701 9.5 11.0985 9.5 10.6401ZM10.33 12.47H13.67C14.1284 12.47 14.5 12.8417 14.5 13.3C14.5 13.7584 14.1284 14.13 13.67 14.13H10.33C9.87161 14.13 9.5 13.7584 9.5 13.3C9.5 12.8417 9.87161 12.47 10.33 12.47Z" />
</svg>