<!--character:178-->
  <svg width="24" height="24" viewBox="0 0 24 24" >
<path d="M21.348 6.6C21.348 6.56098 21.3315 6.49565 21.2543 6.42773C21.1731 6.35646 21.0403 6.30002 20.8816 6.3H3.11836C2.95965 6.3 2.82688 6.35645 2.7457 6.42773C2.66846 6.49566 2.65195 6.56097 2.65195 6.6V8.80547C3.25302 8.94478 3.8165 9.2212 4.27852 9.62695C4.96967 10.2341 5.38477 11.0844 5.38477 12C5.38477 12.9156 4.96967 13.7659 4.27852 14.373C3.81656 14.7787 3.25292 15.054 2.65195 15.1934V17.4C2.65195 17.439 2.66846 17.5043 2.7457 17.5723C2.82688 17.6436 2.95964 17.7 3.11836 17.7H20.8816C21.0403 17.7 21.1731 17.6435 21.2543 17.5723C21.293 17.5382 21.3167 17.5047 21.3305 17.475L21.348 17.4V15.1934C20.747 15.054 20.1835 14.7788 19.7215 14.373C19.0303 13.7659 18.6152 12.9156 18.6152 12C18.6152 11.0844 19.0303 10.2341 19.7215 9.62695C20.1835 9.22118 20.7469 8.94477 21.348 8.80547V6.6ZM23.148 9.6C23.148 10.097 22.7451 10.4999 22.248 10.5C21.727 10.5 21.2472 10.683 20.9098 10.9793C20.5761 11.2723 20.4152 11.6427 20.4152 12L20.4223 12.1348C20.4576 12.449 20.6179 12.7644 20.9098 13.0207C21.2472 13.317 21.727 13.5 22.248 13.5C22.7451 13.5001 23.148 13.903 23.148 14.4V17.4C23.148 17.9975 22.8765 18.5425 22.4414 18.9246C22.0101 19.3034 21.4477 19.5 20.8816 19.5H3.11836C2.55234 19.5 1.98991 19.3034 1.55859 18.9246C1.12352 18.5425 0.851953 17.9975 0.851953 17.4V14.4C0.851953 13.9029 1.2549 13.5 1.75195 13.5C2.27303 13.5 2.75281 13.317 3.09023 13.0207C3.42391 12.7277 3.58477 12.3573 3.58477 12C3.58477 11.6427 3.42391 11.2723 3.09023 10.9793C2.75281 10.683 2.27303 10.5 1.75195 10.5C1.51326 10.5 1.28441 10.4051 1.11562 10.2363C0.946842 10.0675 0.851953 9.83869 0.851953 9.6V6.6C0.851953 6.00254 1.12352 5.45748 1.55859 5.07539C1.98991 4.69665 2.55233 4.5 3.11836 4.5H20.8816C21.4477 4.50002 22.0101 4.69664 22.4414 5.07539C22.8765 5.45748 23.148 6.00254 23.148 6.6V9.6Z" />
<path d="M7.13995 18.0504C7.13995 17.5533 7.5429 17.1504 8.03995 17.1504C8.53701 17.1504 8.93995 17.5533 8.93995 18.0504V18.6H7.13995V18.0504ZM7.13995 15.8496V14.7504C7.13995 14.2533 7.5429 13.8504 8.03995 13.8504C8.53701 13.8504 8.93995 14.2533 8.93995 14.7504V15.8496C8.93995 16.3467 8.53701 16.7496 8.03995 16.7496C7.5429 16.7496 7.13995 16.3467 7.13995 15.8496ZM7.13995 12.5496V11.4504C7.13995 10.9533 7.5429 10.5504 8.03995 10.5504C8.53701 10.5504 8.93995 10.9533 8.93995 11.4504V12.5496C8.93995 13.0467 8.53701 13.4496 8.03995 13.4496C7.5429 13.4496 7.13995 13.0467 7.13995 12.5496ZM7.13995 9.24961V8.15039C7.13995 7.65333 7.5429 7.25039 8.03995 7.25039C8.53701 7.25039 8.93995 7.65333 8.93995 8.15039V9.24961C8.93995 9.74667 8.53701 10.1496 8.03995 10.1496C7.5429 10.1496 7.13995 9.74667 7.13995 9.24961ZM7.13995 5.94961V5.4L8.93995 5.4V5.94961C8.93995 6.44667 8.53701 6.84961 8.03995 6.84961C7.5429 6.84961 7.13995 6.44667 7.13995 5.94961Z" />
</svg>