<!--character:4536-->
  <svg width="24" height="24" viewBox="0 0 24 24" >
<path d="M21.3333 10.7717C21.7213 10.6925 22 10.3511 22 9.955V6.58C22 5.88964 21.4403 5.33 20.75 5.33H3.24995C2.5596 5.33 1.99995 5.88964 1.99995 6.58V9.955C1.99987 10.3511 2.27856 10.6925 2.66662 10.7717C3.2492 10.89 3.66787 11.4022 3.66787 11.9967C3.66787 12.5911 3.2492 13.1034 2.66662 13.2217C2.27856 13.3009 1.99987 13.6423 1.99995 14.0383V17.4133C1.99995 17.7449 2.13165 18.0628 2.36607 18.2972C2.60049 18.5316 2.91843 18.6633 3.24995 18.6633H20.75C21.4403 18.6633 22 18.1037 22 17.4133V14.0383C22 13.6423 21.7213 13.3009 21.3333 13.2217C20.7507 13.1034 20.332 12.5911 20.332 11.9967C20.332 11.4022 20.7507 10.89 21.3333 10.7717ZM6.82995 16.8156C6.37195 16.8156 5.99995 16.4446 5.99995 15.9856C5.99995 15.5276 6.37195 15.1556 6.82995 15.1556C7.28795 15.1556 7.65995 15.5276 7.65995 15.9856C7.65995 16.4446 7.28795 16.8156 6.82995 16.8156ZM7.65995 13.3256C7.65995 13.7846 7.28795 14.1556 6.82995 14.1556C6.37195 14.1556 5.99995 13.7846 5.99995 13.3256C5.99995 12.8676 6.37195 12.4956 6.82995 12.4956C7.28795 12.4956 7.65995 12.8676 7.65995 13.3256ZM6.82995 11.4956C6.37195 11.4956 5.99995 11.1246 5.99995 10.6656C5.99995 10.2076 6.37195 9.8356 6.82995 9.8356C7.28795 9.8356 7.65995 10.2076 7.65995 10.6656C7.65995 11.1246 7.28795 11.4956 6.82995 11.4956ZM7.65995 8.0056C7.65995 8.4646 7.28795 8.8356 6.82995 8.8356C6.37195 8.8356 5.99995 8.4646 5.99995 8.0056C5.99995 7.5476 6.37195 7.1766 6.82995 7.1766C7.28795 7.1766 7.65995 7.5476 7.65995 8.0056ZM9.49995 10.64C9.49995 10.1816 9.87155 9.81 10.33 9.81H16.67C17.1283 9.81 17.5 10.1816 17.5 10.64C17.5 11.0984 17.1283 11.47 16.67 11.47H10.33C9.87155 11.47 9.49995 11.0984 9.49995 10.64ZM10.33 12.47H13.67C14.1283 12.47 14.5 12.8416 14.5 13.3C14.5 13.7584 14.1283 14.13 13.67 14.13H10.33C9.87156 14.13 9.49995 13.7584 9.49995 13.3C9.49995 12.8416 9.87155 12.47 10.33 12.47Z" />
</svg>