<!--character:30:472:359-->
  <svg width="24" height="24" viewBox="0 0 24 24" >
<path d="M6.83 16.8157C7.288 16.8157 7.66 16.4447 7.66 15.9857C7.66 15.5277 7.288 15.1557 6.83 15.1557C6.372 15.1557 6 15.5277 6 15.9857C6 16.4447 6.372 16.8157 6.83 16.8157Z" />
<path d="M7.66 13.3257C7.66 13.7847 7.288 14.1557 6.83 14.1557C6.372 14.1557 6 13.7847 6 13.3257C6 12.8677 6.372 12.4957 6.83 12.4957C7.288 12.4957 7.66 12.8677 7.66 13.3257Z" />
<path d="M6.83 11.4957C7.288 11.4957 7.66 11.1247 7.66 10.6657C7.66 10.2077 7.288 9.83568 6.83 9.83568C6.372 9.83568 6 10.2077 6 10.6657C6 11.1247 6.372 11.4957 6.83 11.4957Z" />
<path d="M7.66 8.0057C7.66 8.4647 7.288 8.8357 6.83 8.8357C6.372 8.8357 6 8.4647 6 8.0057C6 7.5477 6.372 7.1767 6.83 7.1767C7.288 7.1767 7.66 7.5477 7.66 8.0057Z" />
<path d="M9.5 10.6401C9.5 10.1817 9.8716 9.81007 10.33 9.81007H16.67C17.1284 9.81007 17.5 10.1817 17.5 10.6401C17.5 11.0985 17.1284 11.4701 16.67 11.4701H10.33C9.8716 11.4701 9.5 11.0985 9.5 10.6401Z" />
<path d="M10.33 12.47C9.87161 12.47 9.5 12.8417 9.5 13.3C9.5 13.7584 9.87161 14.13 10.33 14.13H13.67C14.1284 14.13 14.5 13.7584 14.5 13.3C14.5 12.8417 14.1284 12.47 13.67 12.47H10.33Z" />
<path d="M21.309 10.7781C21.705 10.6891 22 10.3611 22 9.95508V6.90808C22 5.88908 21.441 5.33008 20.75 5.33008H3.25C2.561 5.33008 2 5.89008 2 6.58008V9.95508C2 10.3611 2.296 10.6891 2.693 10.7781C3.262 10.9051 3.668 11.4111 3.668 11.9971C3.668 12.5821 3.262 13.0891 2.693 13.2161C2.296 13.3061 2 13.6321 2 14.0381V17.4131C2 17.7451 2.132 18.0631 2.367 18.2971C2.601 18.5311 2.919 18.6631 3.25 18.6631H20.75C21.441 18.6631 22 18.1041 22 17.4131V14.0381C22 13.6321 21.705 13.3061 21.309 13.2161C20.739 13.0881 20.333 12.5821 20.333 11.9971C20.333 11.4111 20.739 10.9051 21.309 10.7781ZM20.583 9.17408C20.583 9.38808 20.454 9.57008 20.268 9.67608C19.453 10.1411 18.916 11.0201 18.916 11.9971C18.916 12.9731 19.451 13.8511 20.265 14.3161C20.453 14.4231 20.583 14.6071 20.583 14.8231V16.6771C20.583 16.9911 20.328 17.2461 20.013 17.2461H3.98699C3.67299 17.2461 3.41799 16.9911 3.41799 16.6771V14.8231C3.41799 14.6071 3.54799 14.4231 3.73599 14.3161C4.54999 13.8511 5.08599 12.9731 5.08599 11.9971C5.08599 11.0221 4.54999 10.1431 3.73599 9.67808C3.54799 9.57008 3.41799 9.38608 3.41799 9.17008V7.31608C3.41799 7.00208 3.67199 6.74708 3.98599 6.74708H20.02C20.331 6.74708 20.583 6.99908 20.583 7.31108V9.17408Z" />
</svg>