<!--description:Non-selected icon for mobile menu-->
<!--category:travel-->
<!--character:E138-->
<!--added:0.11-->
<svg width="24" height="24" viewBox="0 0 24 24" xmlns="http://www.w3.org/2000/svg"><path d="M20.583 9.174V7.311c0-.312-.252-.564-.563-.564H3.986c-.314 0-.568.255-.568.569V9.17c0 .216.13.4.318.508.814.465 1.35 1.344 1.35 2.319 0 .976-.536 1.854-1.35 2.319-.188.107-.318.291-.318.507v1.854c0 .314.255.569.569.569h16.026c.315 0 .57-.255.57-.569v-1.854c0-.216-.13-.4-.318-.507-.814-.465-1.349-1.343-1.349-2.319 0-.977.537-1.856 1.352-2.321.186-.106.315-.288.315-.502zm.726 1.604c-.57.127-.976.633-.976 1.219 0 .585.406 1.091.976 1.219.396.09.691.416.691.822v3.375c0 .691-.559 1.25-1.25 1.25H3.25c-.331 0-.649-.132-.883-.366A1.2471 1.2471 0 0 1 2 17.413v-3.375c0-.406.296-.732.693-.822.569-.127.975-.634.975-1.219 0-.586-.406-1.092-.975-1.219-.397-.089-.693-.417-.693-.823V6.58c0-.69.561-1.25 1.25-1.25h17.5c.691 0 1.25.559 1.25 1.578v3.047c0 .406-.295.734-.691.823zM6.83 16.8156c-.458 0-.83-.371-.83-.83 0-.458.372-.83.83-.83.458 0 .83.372.83.83 0 .459-.372.83-.83.83zm0-2.66c-.458 0-.83-.371-.83-.83 0-.458.372-.83.83-.83.458 0 .83.372.83.83 0 .459-.372.83-.83.83zm0-2.66c-.458 0-.83-.371-.83-.83 0-.458.372-.83.83-.83.458 0 .83.372.83.83 0 .459-.372.83-.83.83zm0-2.66c-.458 0-.83-.371-.83-.83 0-.458.372-.829.83-.829.458 0 .83.371.83.829 0 .459-.372.83-.83.83zm3.5.9744h6.34a.83.83 0 0 1 0 1.66h-6.34a.83.83 0 0 1 0-1.66zm0 2.66h3.34a.83.83 0 0 1 0 1.66h-3.34a.83.83 0 0 1 0-1.66z"/></svg>