<!-- character:0:991 -->
  <svg width="20" height="20" viewBox="0 0 20 20" >
<path   d="M17.7778 8.97637C18.1012 8.91036 18.3334 8.62586 18.3333 8.29582V5.48332C18.3333 4.90802 17.867 4.44165 17.2917 4.44165H2.70834C2.13304 4.44165 1.66667 4.90802 1.66667 5.48332V8.29582C1.6666 8.62586 1.89885 8.91036 2.22223 8.97637C2.70771 9.07495 3.05661 9.50181 3.05661 9.99721C3.05661 10.4926 2.70771 10.9195 2.22223 11.018C1.89885 11.084 1.6666 11.3685 1.66667 11.6986V14.5111C1.66667 14.7874 1.77642 15.0523 1.97177 15.2477C2.16712 15.443 2.43207 15.5528 2.70834 15.5528H17.2917C17.867 15.5528 18.3333 15.0864 18.3333 14.5111V11.6986C18.3334 11.3685 18.1012 11.084 17.7778 11.018C17.2923 10.9195 16.9434 10.4926 16.9434 9.99721C16.9434 9.50181 17.2923 9.07495 17.7778 8.97637ZM5.69167 14.013C6.07334 14.013 6.38334 13.7038 6.38334 13.3213C6.38334 12.9397 6.07334 12.6297 5.69167 12.6297C5.31 12.6297 5.00001 12.9397 5.00001 13.3213C5.00001 13.7038 5.31 14.013 5.69167 14.013ZM6.38334 11.1046C6.38334 11.4871 6.07334 11.7963 5.69167 11.7963C5.31 11.7963 5.00001 11.4871 5.00001 11.1046C5.00001 10.723 5.31 10.413 5.69167 10.413C6.07334 10.413 6.38334 10.723 6.38334 11.1046ZM5.69167 9.57965C6.07334 9.57965 6.38334 9.27048 6.38334 8.88798C6.38334 8.50632 6.07334 8.19632 5.69167 8.19632C5.31 8.19632 5.00001 8.50632 5.00001 8.88798C5.00001 9.27048 5.31 9.57965 5.69167 9.57965ZM6.38334 6.67132C6.38334 7.05382 6.07334 7.36298 5.69167 7.36298C5.31 7.36298 5.00001 7.05382 5.00001 6.67132C5.00001 6.28965 5.31 5.98048 5.69167 5.98048C6.07334 5.98048 6.38334 6.28965 6.38334 6.67132ZM7.91667 8.86665C7.91667 8.48465 8.22634 8.17498 8.60834 8.17498H13.8917C14.2737 8.17498 14.5833 8.48465 14.5833 8.86665C14.5833 9.24865 14.2737 9.55832 13.8917 9.55832H8.60834C8.22634 9.55832 7.91667 9.24865 7.91667 8.86665ZM8.60834 10.3917C8.22634 10.3917 7.91667 10.7013 7.91667 11.0833C7.91667 11.4653 8.22634 11.775 8.60834 11.775H11.3917C11.7737 11.775 12.0833 11.4653 12.0833 11.0833C12.0833 10.7013 11.7737 10.3917 11.3917 10.3917H8.60834Z" />
</svg>