<!--character:2563-->
  <svg width="24" height="24" viewBox="0 0 24 24" >
<path d="M17.4099 6.54631C16.4569 5.92478 15.7689 4.93075 15.5545 3.77189C15.5081 3.52139 15.4827 3.26379 15.4827 3H12.4409L12.4359 15.1901C12.3848 16.5551 11.2614 17.6508 9.88394 17.6508C9.4559 17.6508 9.05268 17.5438 8.6979 17.3569C7.88406 16.9285 7.32723 16.0754 7.32723 15.0938C7.32723 13.6838 8.47428 12.5368 9.88394 12.5368C10.1471 12.5368 10.3994 12.5802 10.6384 12.6549V9.54966C10.3911 9.51599 10.1401 9.49501 9.88394 9.49501C6.79728 9.49531 4.28577 12.0068 4.28577 15.0938C4.28577 16.9879 5.23224 18.664 6.67587 19.6775C7.58512 20.3159 8.6914 20.6922 9.88423 20.6922C12.9712 20.6922 15.4827 18.1807 15.4827 15.0938V8.91248C16.6755 9.76885 18.1372 10.2734 19.7143 10.2734V7.23164C18.8648 7.23164 18.0734 6.97907 17.4099 6.54631Z" />
</svg>