<!--character:2167-->
  <svg width="24" height="24" viewBox="0 0 24 24" >
<path d="M17.0492 6.90989C16.1598 6.32979 15.5176 5.40203 15.3175 4.32043C15.2742 4.08663 15.2505 3.84621 15.2505 3.6H12.4115L12.4068 14.9774C12.3591 16.2515 11.3106 17.2741 10.025 17.2741C9.62546 17.2741 9.24911 17.1743 8.91799 16.9997C8.15841 16.6 7.6387 15.8037 7.6387 14.8875C7.6387 13.5716 8.70928 12.501 10.025 12.501C10.2706 12.501 10.5061 12.5415 10.7291 12.6113V9.71302C10.4984 9.68159 10.264 9.66201 10.025 9.66201C7.14408 9.66229 4.8 12.0064 4.8 14.8875C4.8 16.6554 5.68337 18.2197 7.03076 19.1657C7.87939 19.7615 8.91192 20.1128 10.0252 20.1128C12.9064 20.1128 15.2505 17.7687 15.2505 14.8875V9.11831C16.3638 9.91759 17.728 10.3885 19.2 10.3885V7.54953C18.4071 7.54953 17.6684 7.3138 17.0492 6.90989Z" />
</svg>