<!--character:6190-->
  <svg width="24" height="24" viewBox="0 0 24 24" >
<path d="M17.4098 6.54631C16.4568 5.92478 15.7688 4.93075 15.5544 3.77189C15.508 3.52139 15.4826 3.26379 15.4826 3H12.4408L12.4358 15.1901C12.3847 16.5551 11.2613 17.6508 9.88382 17.6508C9.45578 17.6508 9.05255 17.5438 8.69778 17.3569C7.88394 16.9285 7.32711 16.0754 7.32711 15.0938C7.32711 13.6838 8.47416 12.5368 9.88382 12.5368C10.147 12.5368 10.3993 12.5802 10.6383 12.6549V9.54966C10.391 9.51599 10.1399 9.49501 9.88382 9.49501C6.79716 9.49531 4.28564 12.0068 4.28564 15.0938C4.28564 16.9879 5.23211 18.664 6.67575 19.6775C7.58499 20.3159 8.69128 20.6922 9.88411 20.6922C12.9711 20.6922 15.4826 18.1807 15.4826 15.0938V8.91248C16.6754 9.76885 18.1371 10.2734 19.7142 10.2734V7.23164C18.8646 7.23164 18.0733 6.97907 17.4098 6.54631Z" />
</svg>