<!--character:8551-->
  <svg width="20" height="20" viewBox="0 0 20 20" >
<path d="M9.6531 4.79166C9.6531 4.5999 9.80856 4.44444 10.0003 4.44444C13.0686 4.44444 15.5559 6.93175 15.5559 10C15.5559 13.0682 13.0686 15.5556 10.0003 15.5556C6.93208 15.5556 4.44477 13.0682 4.44477 10C4.44477 9.80823 4.60023 9.65277 4.79199 9.65277H9.6531V4.79166Z" />
<path d="M10.0003 1.66666C5.39795 1.66666 1.66699 5.39762 1.66699 10C1.66699 14.6024 5.39795 18.3333 10.0003 18.3333C14.6027 18.3333 18.3337 14.6024 18.3337 10C18.3287 5.39969 14.6006 1.67164 10.0003 1.66666ZM3.05588 10C3.05588 6.16469 6.16501 3.05555 10.0003 3.05555C13.8356 3.05555 16.9448 6.16469 16.9448 10C16.9406 13.8336 13.8339 16.9402 10.0003 16.9444C6.16501 16.9444 3.05588 13.8353 3.05588 10Z" />
</svg>