<!--character:4109-->
  <svg width="24" height="24" viewBox="0 0 24 24" >
<path d="M8.35387 10.5882C8.6887 10.2667 9.23009 10.2622 9.57069 10.578L12.6088 13.4946C12.9476 13.82 12.9476 14.3475 12.6088 14.6729C12.2671 14.9919 11.723 14.9919 11.3814 14.6729L8.3433 11.7563C8.01434 11.4293 8.01905 10.9096 8.35387 10.5882Z" />
<path d="M19.553 7.5898L18.2105 8.87859C20.7082 11.627 20.9267 15.6581 18.7392 18.6405C16.5514 21.6234 12.5235 22.7848 8.98577 21.4527C5.44801 20.1207 3.31653 16.6403 3.82444 13.0249C4.33235 9.40946 7.34811 6.59541 11.1271 6.21068V3.6666H9.391C8.91161 3.6666 8.52298 3.29352 8.52298 2.8333C8.52298 2.37308 8.91161 2 9.391 2H14.5992C15.0786 2 15.4672 2.37308 15.4672 2.8333C15.4672 3.29352 15.0786 3.6666 14.5992 3.6666H12.8631V6.21068C14.3407 6.35842 15.7487 6.88867 16.9367 7.74479L18.3256 6.41151C18.5435 6.19489 18.8663 6.10801 19.1697 6.18427C19.4732 6.26053 19.7102 6.48806 19.7897 6.77941C19.8691 7.07075 19.7786 7.38058 19.553 7.5898ZM11.9951 20.3327C15.5888 20.3285 18.501 17.5328 18.5053 14.0829C18.5053 10.6312 15.5906 7.83312 11.9951 7.83312C8.3996 7.83312 5.48489 10.6312 5.48489 14.0829C5.48489 17.5346 8.3996 20.3327 11.9951 20.3327Z" />
</svg>