<!--character:100:550:693-->
<svg width="24" height="24" viewBox="0 0 24 24" xmlns="http://www.w3.org/2000/svg"><path d="M18.2093 8.8798v-.0025c2.4989 2.7484 2.7177 6.7803.53 9.7632-2.1879 2.983-6.2158 4.1443-9.7535 2.8123-3.5378-1.332-5.6693-4.8125-5.1614-8.428.508-3.6153 3.5237-6.4294 7.3027-6.8141v-2.544H9.391c-.4794 0-.868-.3732-.868-.8334 0-.4602.3886-.8333.868-.8333h5.2082c.4794 0 .868.373.868.8333 0 .4602-.3886.8333-.868.8333H12.863v2.544c1.4776.1478 2.8856.678 4.0736 1.5342l1.3889-1.3333c.218-.2166.5407-.3035.8441-.2272.3035.0762.5405.3038.62.5951.0794.2914-.011.6012-.2367.8104l-1.3437 1.29zM11.995 20.3327c3.5937-.0041 6.5059-2.7998 6.5102-6.2498 0-3.4517-2.9147-6.2498-6.5102-6.2498-3.5955 0-6.5102 2.7981-6.5102 6.2498 0 3.4517 2.9147 6.2498 6.5102 6.2498zM9.5707 10.578l3.038 2.9166c.339.3254.339.8529 0 1.1783-.3416.319-.8857.319-1.2273 0l-3.0381-2.9166c-.329-.327-.3243-.8467.0106-1.1681.3348-.3215.8762-.326 1.2168-.0102z"/></svg>
