<!--character:6496-->
  <svg width="24" height="24" viewBox="0 0 24 24" >
<path d="M11.5837 5.75C11.5837 5.51988 11.7703 5.33333 12.0004 5.33333C15.6823 5.33333 18.6671 8.3181 18.6671 12C18.6671 15.6819 15.6823 18.6667 12.0004 18.6667C8.31849 18.6667 5.33372 15.6819 5.33372 12C5.33372 11.7699 5.52027 11.5833 5.75039 11.5833H11.5837V5.75Z" />
<path d="M12.0004 2C6.47754 2 2.00039 6.47715 2.00039 12C2.00039 17.5228 6.47754 22 12.0004 22C17.5232 22 22.0004 17.5228 22.0004 12C21.9944 6.47962 17.5208 2.00597 12.0004 2ZM3.66706 12C3.66706 7.39762 7.39802 3.66666 12.0004 3.66666C16.6028 3.66666 20.3337 7.39762 20.3337 12C20.3287 16.6003 16.6007 20.3283 12.0004 20.3333C7.39802 20.3333 3.66706 16.6024 3.66706 12Z" />
</svg>