<!-- character:0:1339 -->
  <svg width="20" height="20" viewBox="0 0 20 20" >
<path   d="M16.2941 6.32492L15.1754 7.39891C17.2569 9.68925 17.4389 13.0485 15.616 15.5339C13.7929 18.0196 10.4363 18.9874 7.48814 17.8774C4.54001 16.7674 2.76378 13.867 3.18703 10.8541C3.61029 7.8413 6.12343 5.49626 9.27254 5.17565V3.05559H7.82584C7.42634 3.05559 7.10248 2.74469 7.10248 2.36117C7.10248 1.97765 7.42634 1.66675 7.82584 1.66675H12.166C12.5655 1.66675 12.8893 1.97765 12.8893 2.36117C12.8893 2.74469 12.5655 3.05559 12.166 3.05559H10.7193V5.17565C11.9505 5.29877 13.1239 5.74064 14.114 6.45408L15.2713 5.34301C15.4529 5.16249 15.7219 5.09009 15.9748 5.15364C16.2277 5.21719 16.4252 5.4068 16.4914 5.64959C16.5576 5.89238 16.4822 6.15057 16.2941 6.32492ZM9.9959 16.944C6.99967 16.944 4.57074 14.6122 4.57074 11.7358C4.57074 8.85945 6.99967 6.52769 9.9959 6.52769C12.9921 6.52769 15.4211 8.85945 15.4211 11.7358C15.4175 14.6108 12.9906 16.9405 9.9959 16.944ZM6.96156 8.82357C7.24058 8.5557 7.69174 8.55194 7.97557 8.81511L10.5073 11.2456C10.7897 11.5167 10.7897 11.9563 10.5073 12.2275C10.2226 12.4933 9.7692 12.4933 9.48449 12.2275L6.95275 9.79702C6.67862 9.52454 6.68254 9.09143 6.96156 8.82357Z" />
</svg>