<!--character:4820-->
  <svg width="24" height="24" viewBox="0 0 24 24" >
<path d="M11.5833 5.74998C11.5833 5.51986 11.7699 5.33331 12 5.33331C15.6819 5.33331 18.6667 8.31808 18.6667 12C18.6667 15.6819 15.6819 18.6666 12 18.6666C8.31811 18.6666 5.33334 15.6819 5.33334 12C5.33334 11.7699 5.51989 11.5833 5.75001 11.5833H11.5833V5.74998Z" />
<path d="M12 2C6.47715 2 2 6.47715 2 12C2 17.5228 6.47715 22 12 22C17.5228 22 22 17.5228 22 12C21.994 6.47963 17.5204 2.00597 12 2ZM3.66666 12C3.66666 7.39765 7.39762 3.66669 12 3.66669C16.6024 3.66669 20.3333 7.39765 20.3333 12C20.3283 16.6003 16.6003 20.3283 12 20.3334C7.39762 20.3334 3.66666 16.6024 3.66666 12Z" />
</svg>