<!-- character:0:1315 -->
  <svg width="20" height="20" viewBox="0 0 20 20" >
<path   d="M9.99996 1.66675C5.39759 1.66675 1.66663 5.39771 1.66663 10.0001C1.66663 14.6025 5.39759 18.3334 9.99996 18.3334C14.6023 18.3334 18.3333 14.6025 18.3333 10.0001C18.3283 5.39977 14.6003 1.67172 9.99996 1.66675ZM3.05552 10.0001C3.05552 6.16477 6.16465 3.05564 9.99996 3.05564C13.8353 3.05564 16.9444 6.16477 16.9444 10.0001C16.9402 13.8336 13.8335 16.9403 9.99996 16.9445C6.16465 16.9445 3.05552 13.8354 3.05552 10.0001ZM9.65274 4.79175C9.65274 4.59998 9.80819 4.44453 9.99996 4.44453C13.0682 4.44453 15.5555 6.93183 15.5555 10.0001C15.5555 13.0683 13.0682 15.5556 9.99996 15.5556C6.93171 15.5556 4.4444 13.0683 4.4444 10.0001C4.4444 9.80832 4.59986 9.65286 4.79163 9.65286H9.65274V4.79175Z" />
</svg>