<!--character:2667-->
  <svg width="20" height="20" viewBox="0 0 20 20" >
<path d="M6.96156 8.82348C7.24058 8.55562 7.69174 8.55186 7.97557 8.81502L10.5073 11.2455C10.7897 11.5167 10.7897 11.9562 10.5073 12.2274C10.2226 12.4932 9.7692 12.4932 9.48449 12.2274L6.95275 9.79693C6.67862 9.52446 6.68254 9.09134 6.96156 8.82348Z" />
<path d="M16.2941 6.32483L15.1754 7.39882C17.2569 9.68916 17.4389 13.0484 15.616 15.5338C13.7929 18.0195 10.4363 18.9873 7.48814 17.8773C4.54001 16.7673 2.76378 13.8669 3.18703 10.854C3.61029 7.84122 6.12343 5.49617 9.27254 5.17557V3.0555H7.82584C7.42634 3.0555 7.10248 2.7446 7.10248 2.36108C7.10248 1.97757 7.42634 1.66666 7.82584 1.66666H12.166C12.5655 1.66666 12.8893 1.97757 12.8893 2.36108C12.8893 2.7446 12.5655 3.0555 12.166 3.0555H10.7193V5.17557C11.9505 5.29869 13.1239 5.74056 14.114 6.454L15.2713 5.34292C15.4529 5.1624 15.7219 5.09001 15.9748 5.15356C16.2277 5.21711 16.4252 5.40672 16.4914 5.6495C16.5576 5.89229 16.4822 6.15048 16.2941 6.32483ZM9.9959 16.9439C12.9906 16.9405 15.4175 14.6107 15.4211 11.7358C15.4211 8.85937 12.9921 6.5276 9.9959 6.5276C6.99967 6.5276 4.57074 8.85937 4.57074 11.7358C4.57074 14.6121 6.99967 16.9439 9.9959 16.9439Z" />
</svg>