<!--character:6822-->
  <svg width="24" height="24" viewBox="0 0 24 24" >
<path d="M8.35387 10.5882C8.68869 10.2667 9.23009 10.2622 9.57068 10.578L12.6088 13.4946C12.9476 13.82 12.9476 14.3475 12.6088 14.6729C12.2671 14.9919 11.723 14.9919 11.3814 14.6729L8.34329 11.7563C8.01434 11.4293 8.01904 10.9096 8.35387 10.5882Z" />
<path d="M19.553 7.5898L18.2105 8.87859C20.7082 11.627 20.9267 15.6581 18.7392 18.6405C16.5514 21.6234 12.5235 22.7848 8.98577 21.4528C5.44801 20.1207 3.31653 16.6403 3.82444 13.0249C4.33235 9.40947 7.34811 6.59541 11.1271 6.21068V3.66661H9.391C8.91161 3.66661 8.52298 3.29352 8.52298 2.8333C8.52298 2.37308 8.91161 2 9.391 2H14.5992C15.0786 2 15.4672 2.37308 15.4672 2.8333C15.4672 3.29352 15.0786 3.66661 14.5992 3.66661H12.8631V6.21068C14.3407 6.35843 15.7487 6.88867 16.9367 7.7448L18.3256 6.41151C18.5435 6.19489 18.8663 6.10801 19.1697 6.18427C19.4732 6.26053 19.7102 6.48806 19.7897 6.77941C19.8691 7.07076 19.7786 7.38058 19.553 7.5898ZM11.9951 20.3327C15.5888 20.3285 18.501 17.5328 18.5053 14.0829C18.5053 10.6312 15.5905 7.8331 11.9951 7.8331C8.39959 7.8331 5.48488 10.6312 5.48488 14.0829C5.48488 17.5345 8.39959 20.3327 11.9951 20.3327Z" />
</svg>