<!--character:9472-->
  <svg width="24" height="24" viewBox="0 0 24 24" >
<path d="M11.9998 5.75C12.46 5.75 12.8331 5.3769 12.8331 4.91666V2.83333C12.8331 2.37309 12.46 2 11.9998 2C11.5396 2 11.1665 2.37309 11.1665 2.83333V4.91666C11.1665 5.3769 11.5396 5.75 11.9998 5.75Z" />
<path d="M13.564 19.9167H10.4373C10.2928 19.9167 10.1587 19.9915 10.0828 20.1144C10.0069 20.2374 10.0001 20.3908 10.0648 20.52L10.344 21.0783C10.6244 21.644 11.2018 22.0013 11.8331 22H12.1665C12.7984 22.0019 13.3766 21.6445 13.6573 21.0783L13.9365 20.52C14.0012 20.3908 13.9944 20.2374 13.9185 20.1144C13.8426 19.9915 13.7084 19.9167 13.564 19.9167Z" />
<path d="M18.4815 5.17333C18.8069 4.84801 19.3344 4.84801 19.6598 5.17333C19.9851 5.49875 19.9851 6.02625 19.6598 6.35166L18.1865 7.82416C17.9772 8.04079 17.6674 8.12767 17.376 8.05141C17.0847 7.97514 16.8571 7.74761 16.7809 7.45625C16.7046 7.16489 16.7915 6.85506 17.0081 6.64583L18.4815 5.17333Z" />
<path d="M21.9998 12.8333C21.9998 12.3731 21.6267 12 21.1665 12H19.4998C19.0396 12 18.6665 12.3731 18.6665 12.8333C18.6665 13.2936 19.0396 13.6667 19.4998 13.6667H21.1665C21.6267 13.6667 21.9998 13.2936 21.9998 12.8333Z" />
<path d="M5.51814 5.17333L6.99147 6.64583C7.30728 6.97281 7.30276 7.49257 6.98132 7.81401C6.65987 8.13545 6.14012 8.13997 5.81314 7.82416L4.3398 6.35166C4.02399 6.02468 4.02851 5.50492 4.34995 5.18348C4.6714 4.86204 5.19115 4.85752 5.51814 5.17333Z" />
<path d="M4.4998 12H2.83314C2.3729 12 1.9998 12.3731 1.9998 12.8333C1.9998 13.2936 2.3729 13.6667 2.83314 13.6667H4.4998C4.96004 13.6667 5.33314 13.2936 5.33314 12.8333C5.33314 12.3731 4.96004 12 4.4998 12Z" />
<path d="M11.9998 7C8.99197 7.00321 6.55431 9.44049 6.55064 12.4483C6.54392 14.1374 7.33698 15.73 8.68897 16.7425C8.79389 16.8212 8.85564 16.9447 8.85564 17.0758V17.4458C8.85541 17.7697 8.98397 18.0803 9.21297 18.3093C9.44196 18.5383 9.75262 18.6669 10.0765 18.6667H13.9231C14.59 18.6658 15.1324 18.1293 15.1406 17.4625V17.4367L15.1256 17.1392C15.1191 17.001 15.1816 16.8686 15.2923 16.7858C17.1578 15.3731 17.9121 12.9265 17.1659 10.7086C16.4197 8.49076 14.3398 6.99768 11.9998 7ZM14.1615 15.5467C13.7314 15.8464 13.4749 16.3374 13.4748 16.8617C13.4748 16.8989 13.4598 16.9346 13.4331 16.9607C13.4064 16.9867 13.3704 17.0009 13.3331 17H10.6665C10.6299 17 10.5948 16.9854 10.5689 16.9594C10.5431 16.9335 10.5287 16.8983 10.529 16.8617C10.5286 16.3373 10.2719 15.8462 9.84147 15.5467C8.48531 14.6022 7.89931 12.8866 8.39426 11.3099C8.88921 9.73311 10.3505 8.66021 12.0031 8.66021C13.6558 8.66021 15.1171 9.73311 15.612 11.3099C16.107 12.8866 15.521 14.6022 14.1648 15.5467H14.1615Z" />
</svg>