<!--character:4114-->
  <svg width="24" height="24" viewBox="0 0 24 24" >
<path d="M12 5.75C12.4603 5.75 12.8334 5.3769 12.8334 4.91666V2.83333C12.8334 2.37309 12.4603 2 12 2C11.5398 2 11.1667 2.37309 11.1667 2.83333V4.91666C11.1667 5.3769 11.5398 5.75 12 5.75Z" />
<path d="M13.5642 19.9167H10.4375C10.2931 19.9167 10.1589 19.9915 10.083 20.1144C10.0071 20.2374 10.0003 20.3908 10.065 20.52L10.3442 21.0783C10.6247 21.644 11.202 22.0013 11.8334 22H12.1667C12.7987 22.0019 13.3768 21.6445 13.6575 21.0783L13.9367 20.52C14.0014 20.3908 13.9946 20.2374 13.9187 20.1144C13.8428 19.9915 13.7087 19.9167 13.5642 19.9167Z" />
<path d="M18.4817 5.17333C18.8071 4.84801 19.3346 4.84801 19.66 5.17333C19.9853 5.49875 19.9853 6.02625 19.66 6.35166L18.1867 7.82416C17.9775 8.04079 17.6676 8.12767 17.3763 8.05141C17.0849 7.97514 16.8574 7.74761 16.7811 7.45625C16.7048 7.16489 16.7917 6.85506 17.0083 6.64583L18.4817 5.17333Z" />
<path d="M22 12.8333C22 12.3731 21.6269 12 21.1667 12H19.5C19.0398 12 18.6667 12.3731 18.6667 12.8333C18.6667 13.2936 19.0398 13.6667 19.5 13.6667H21.1667C21.6269 13.6667 22 13.2936 22 12.8333Z" />
<path d="M5.51836 5.17333L6.99169 6.64583C7.3075 6.97281 7.30298 7.49257 6.98154 7.81401C6.66009 8.13545 6.14034 8.13997 5.81336 7.82416L4.34002 6.35166C4.02421 6.02468 4.02873 5.50492 4.35017 5.18348C4.67162 4.86204 5.19137 4.85752 5.51836 5.17333Z" />
<path d="M4.50002 12H2.83336C2.37312 12 2.00002 12.3731 2.00002 12.8333C2.00002 13.2936 2.37312 13.6667 2.83336 13.6667H4.50002C4.96026 13.6667 5.33336 13.2936 5.33336 12.8333C5.33336 12.3731 4.96026 12 4.50002 12Z" />
<path d="M12 7C8.99219 7.00321 6.55453 9.44049 6.55086 12.4483C6.54414 14.1374 7.3372 15.73 8.68919 16.7425C8.79411 16.8212 8.85586 16.9447 8.85586 17.0758V17.4458C8.85563 17.7697 8.98419 18.0803 9.21319 18.3093C9.44218 18.5383 9.75284 18.6669 10.0767 18.6667H13.9234C14.5902 18.6658 15.1326 18.1293 15.1409 17.4625V17.4367L15.1259 17.1392C15.1193 17.001 15.1818 16.8686 15.2925 16.7858C17.158 15.3731 17.9123 12.9265 17.1661 10.7086C16.4199 8.49076 14.3401 6.99768 12 7ZM14.1617 15.5467C13.7316 15.8464 13.4752 16.3374 13.475 16.8617C13.475 16.8989 13.46 16.9346 13.4333 16.9607C13.4067 16.9867 13.3706 17.0009 13.3334 17H10.6667C10.6301 17 10.595 16.9854 10.5692 16.9594C10.5434 16.9335 10.529 16.8983 10.5292 16.8617C10.5289 16.3373 10.2721 15.8462 9.84169 15.5467C8.48553 14.6022 7.89953 12.8866 8.39448 11.3099C8.88943 9.73311 10.3507 8.66021 12.0034 8.66021C13.656 8.66021 15.1173 9.73311 15.6122 11.3099C16.1072 12.8866 15.5212 14.6022 14.165 15.5467H14.1617Z" />
</svg>