<!--character:6768-->
  <svg width="24" height="24" viewBox="0 0 24 24" >
<path d="M12 5.75C12.4602 5.75 12.8333 5.3769 12.8333 4.91667V2.83333C12.8333 2.3731 12.4602 2 12 2C11.5398 2 11.1667 2.3731 11.1667 2.83333V4.91667C11.1667 5.3769 11.5398 5.75 12 5.75Z" />
<path d="M10.4375 19.9167C10.293 19.9167 10.1589 19.9915 10.083 20.1145C10.0071 20.2374 10.0003 20.3909 10.065 20.52L10.3442 21.0783C10.6246 21.644 11.202 22.0013 11.8333 22H12.1667C12.7986 22.002 13.3768 21.6445 13.6575 21.0783L13.9367 20.52C14.0014 20.3909 13.9946 20.2374 13.9187 20.1145C13.8428 19.9915 13.7086 19.9167 13.5642 19.9167H10.4375Z" />
<path d="M18.4817 5.17336C18.8071 4.84804 19.3346 4.84804 19.66 5.17336C19.9853 5.49877 19.9853 6.02627 19.66 6.35169L18.1867 7.82419C17.9774 8.04082 17.6676 8.1277 17.3762 8.05144C17.0849 7.97517 16.8573 7.74764 16.7811 7.45628C16.7048 7.16492 16.7917 6.85509 17.0083 6.64586L18.4817 5.17336Z" />
<path d="M22 12.8333C22 12.3731 21.6269 12 21.1666 12H19.5C19.0397 12 18.6667 12.3731 18.6667 12.8333C18.6667 13.2936 19.0397 13.6667 19.5 13.6667H21.1666C21.6269 13.6667 22 13.2936 22 12.8333Z" />
<path d="M5.51833 5.17334L6.99167 6.64584C7.30748 6.97283 7.30296 7.49258 6.98151 7.81403C6.66007 8.13547 6.14032 8.13999 5.81333 7.82418L4.34 6.35168C4.02419 6.02469 4.02871 5.50494 4.35015 5.18349C4.6716 4.86205 5.19135 4.85753 5.51833 5.17334Z" />
<path d="M4.5 12H2.83333C2.3731 12 2 12.3731 2 12.8333C2 13.2936 2.3731 13.6667 2.83333 13.6667H4.5C4.96024 13.6667 5.33333 13.2936 5.33333 12.8333C5.33333 12.3731 4.96024 12 4.5 12Z" />
<path d="M12 7C8.99216 7.00321 6.5545 9.4405 6.55083 12.4483C6.54412 14.1374 7.33717 15.73 8.68916 16.7425C8.79408 16.8212 8.85583 16.9447 8.85583 17.0758V17.4458C8.85561 17.7697 8.98416 18.0803 9.21316 18.3093C9.44216 18.5383 9.75281 18.6669 10.0767 18.6667H13.9233C14.5902 18.6658 15.1326 18.1293 15.1408 17.4625V17.4367L15.1258 17.1392C15.1193 17.001 15.1817 16.8686 15.2925 16.7858C17.158 15.3732 17.9123 12.9265 17.1661 10.7086C16.4199 8.49076 14.34 6.99769 12 7ZM14.1617 15.5466C13.7316 15.8464 13.4751 16.3374 13.475 16.8616C13.475 16.8989 13.46 16.9346 13.4333 16.9607C13.4066 16.9867 13.3706 17.0009 13.3333 17H10.6667C10.6301 17 10.595 16.9854 10.5691 16.9594C10.5433 16.9334 10.5289 16.8983 10.5292 16.8616C10.5288 16.3373 10.2721 15.8462 9.84167 15.5466C8.48551 14.6022 7.89951 12.8866 8.39446 11.3099C8.88941 9.7331 10.3507 8.6602 12.0033 8.6602C13.656 8.6602 15.1173 9.7331 15.6122 11.3099C16.1072 12.8866 15.5212 14.6022 14.165 15.5466H14.1617Z" />
</svg>