<!-- character:0:2325 -->
  <svg width="20" height="20" viewBox="0 0 20 20" >
<path   d="M10 4.79175C10.3835 4.79175 10.6945 4.48083 10.6945 4.0973V2.36119C10.6945 1.97766 10.3835 1.66675 10 1.66675C9.61649 1.66675 9.30557 1.97766 9.30557 2.36119V4.0973C9.30557 4.48083 9.61649 4.79175 10 4.79175ZM11.3035 16.5973H11.3021H8.69793C8.57754 16.5973 8.46574 16.6597 8.4025 16.7621C8.33925 16.8646 8.33358 16.9924 8.38752 17.1001L8.62016 17.5654C8.85388 18.0367 9.33499 18.3345 9.86113 18.3334H10.1389C10.6655 18.335 11.1473 18.0372 11.3813 17.5654L11.6139 17.1001C11.6678 16.9924 11.6622 16.8646 11.5989 16.7621C11.5357 16.6597 11.4239 16.5973 11.3035 16.5973ZM15.4014 4.31119C15.6726 4.04009 16.1122 4.04009 16.3833 4.31119C16.6544 4.58237 16.6544 5.02195 16.3833 5.29314L15.1556 6.52022C14.9812 6.70074 14.723 6.77314 14.4802 6.70959C14.2374 6.64604 14.0478 6.45642 13.9843 6.21363C13.9207 5.97083 13.9931 5.71263 14.1736 5.53827L15.4014 4.31119ZM18.3333 10.6945C18.3333 10.311 18.0224 10.0001 17.6389 10.0001H16.25C15.8665 10.0001 15.5556 10.311 15.5556 10.6945C15.5556 11.0781 15.8665 11.389 16.25 11.389H17.6389C18.0224 11.389 18.3333 11.0781 18.3333 10.6945ZM4.59863 4.31119L5.82641 5.53827C6.08958 5.81076 6.08582 6.24389 5.81795 6.51176C5.55008 6.77963 5.11695 6.78339 4.84446 6.52022L3.61669 5.29314C3.35351 5.02065 3.35728 4.58752 3.62515 4.31965C3.89302 4.05178 4.32614 4.04802 4.59863 4.31119ZM3.75002 10.0001H2.36113C1.9776 10.0001 1.66669 10.311 1.66669 10.6945C1.66669 11.0781 1.9776 11.389 2.36113 11.389H3.75002C4.13355 11.389 4.44446 11.0781 4.44446 10.6945C4.44446 10.311 4.13355 10.0001 3.75002 10.0001ZM10 5.83341C7.49349 5.83609 5.46211 7.86716 5.45905 10.3737C5.45345 11.7812 6.11433 13.1084 7.24099 13.9522C7.32842 14.0177 7.37988 14.1206 7.37988 14.2299V14.5383C7.37969 14.8081 7.48682 15.067 7.67765 15.2579C7.86849 15.4487 8.12736 15.5558 8.39724 15.5556H11.6028C12.1585 15.5549 12.6105 15.1078 12.6174 14.5522V14.5306L12.6049 14.2827C12.5994 14.1676 12.6515 14.0573 12.7438 13.9883C14.2984 12.811 14.927 10.7722 14.3051 8.92395C13.6833 7.07572 11.9501 5.83149 10 5.83341ZM11.8014 12.9556C11.443 13.2054 11.2293 13.6146 11.2292 14.0515C11.2292 14.0825 11.2167 14.1123 11.1944 14.134C11.1722 14.1557 11.1422 14.1675 11.1111 14.1667H8.88891C8.8584 14.1667 8.82915 14.1546 8.80764 14.1329C8.78613 14.1113 8.77414 14.082 8.77432 14.0515C8.77404 13.6145 8.56009 13.2052 8.20141 12.9556C7.07127 12.1686 6.58294 10.739 6.9954 9.42498C7.40786 8.11101 8.62561 7.21693 10.0028 7.21693C11.38 7.21693 12.5977 8.11101 13.0102 9.42498C13.4227 10.739 12.9343 12.1686 11.8042 12.9556H11.8014Z" />
</svg>