<!--character:6871-->
  <svg width="20" height="20" viewBox="0 0 20 20" >
<path d="M9.99984 4.79166C10.3834 4.79166 10.6943 4.48075 10.6943 4.09722V2.36111C10.6943 1.97758 10.3834 1.66666 9.99984 1.66666C9.6163 1.66666 9.30539 1.97758 9.30539 2.36111V4.09722C9.30539 4.48075 9.6163 4.79166 9.99984 4.79166Z" />
<path d="M11.3033 16.5972H8.69775C8.57736 16.5972 8.46556 16.6596 8.40231 16.762C8.33907 16.8645 8.3334 16.9924 8.38733 17.1L8.61997 17.5653C8.85369 18.0366 9.33481 18.3344 9.86094 18.3333H10.1387C10.6654 18.3349 11.1471 18.0371 11.3811 17.5653L11.6137 17.1C11.6677 16.9924 11.662 16.8645 11.5987 16.762C11.5355 16.6596 11.4237 16.5972 11.3033 16.5972Z" />
<path d="M15.4012 4.31111C15.6724 4.04001 16.112 4.04001 16.3832 4.31111C16.6543 4.58229 16.6543 5.02187 16.3832 5.29305L15.1554 6.52013C14.981 6.70066 14.7228 6.77306 14.48 6.70951C14.2372 6.64595 14.0476 6.45634 13.9841 6.21354C13.9205 5.97074 13.9929 5.71255 14.1734 5.53819L15.4012 4.31111Z" />
<path d="M18.3332 10.6944C18.3332 10.3109 18.0222 9.99999 17.6387 9.99999H16.2498C15.8663 9.99999 15.5554 10.3109 15.5554 10.6944C15.5554 11.078 15.8663 11.3889 16.2498 11.3889H17.6387C18.0222 11.3889 18.3332 11.078 18.3332 10.6944Z" />
<path d="M4.59845 4.31111L5.82622 5.53819C6.0894 5.81068 6.08564 6.2438 5.81776 6.51167C5.54989 6.77955 5.11677 6.78331 4.84428 6.52013L3.6165 5.29305C3.35333 5.02057 3.35709 4.58744 3.62496 4.31957C3.89283 4.0517 4.32596 4.04793 4.59845 4.31111Z" />
<path d="M3.74984 9.99999H2.36095C1.97742 9.99999 1.6665 10.3109 1.6665 10.6944C1.6665 11.078 1.97742 11.3889 2.36095 11.3889H3.74984C4.13337 11.3889 4.44428 11.078 4.44428 10.6944C4.44428 10.3109 4.13337 9.99999 3.74984 9.99999Z" />
<path d="M9.99983 5.83333C7.49331 5.83601 5.46193 7.86708 5.45886 10.3736C5.45327 11.7812 6.11415 13.1083 7.24081 13.9521C7.32824 14.0176 7.3797 14.1206 7.3797 14.2299V14.5382C7.37951 14.8081 7.48664 15.0669 7.67747 15.2578C7.8683 15.4486 8.12718 15.5557 8.39706 15.5555H11.6026C12.1583 15.5548 12.6104 15.1078 12.6172 14.5521V14.5305L12.6047 14.2826C12.5993 14.1675 12.6513 14.0572 12.7436 13.9882C14.2982 12.811 14.9268 10.7721 14.3049 8.92386C13.6831 7.07563 11.9499 5.8314 9.99983 5.83333ZM11.8012 12.9555C11.4428 13.2053 11.2291 13.6145 11.229 14.0514C11.229 14.0824 11.2165 14.1122 11.1943 14.1339C11.172 14.1556 11.142 14.1674 11.1109 14.1667H8.88872C8.85821 14.1667 8.82896 14.1545 8.80745 14.1329C8.78595 14.1112 8.77396 14.0819 8.77414 14.0514C8.77386 13.6144 8.55991 13.2052 8.20122 12.9555C7.07109 12.1685 6.58276 10.7389 6.99521 9.4249C7.40767 8.11093 8.62542 7.21684 10.0026 7.21684C11.3798 7.21684 12.5976 8.11093 13.01 9.4249C13.4225 10.7389 12.9341 12.1685 11.804 12.9555H11.8012Z" />
</svg>