<!--character:7833-->
  <svg width="24" height="24" viewBox="0 0 24 24" >
<path d="M11.9987 2C11.5385 2 11.1654 2.37309 11.1654 2.83333V21.1667C11.1654 21.6269 11.5385 22 11.9987 22C12.459 22 12.8321 21.6269 12.8321 21.1667V2.83333C12.8321 2.37309 12.459 2 11.9987 2Z" />
<path d="M7.97707 10.2075C8.32732 10.5256 8.58624 10.9316 8.72707 11.3833L10.3129 16.4592C10.3524 16.5856 10.3294 16.7233 10.2509 16.8301C10.1724 16.9368 10.0479 16.9999 9.9154 17H8.7829C8.57154 16.9984 8.39244 17.1552 8.36623 17.365L7.83207 21.6358C7.80548 21.8452 7.62649 22.0017 7.4154 22H4.9154C4.70432 22.0017 4.52533 21.8452 4.49874 21.6358L3.97124 17.365C3.94503 17.1552 3.76594 16.9984 3.55457 17H2.41541C2.28307 16.9996 2.15876 16.9365 2.08049 16.8297C2.00222 16.723 1.9793 16.5855 2.01874 16.4592L3.60207 11.3833C3.7429 10.9316 4.00182 10.5256 4.35207 10.2075C4.44677 10.1213 4.49658 9.99635 4.48715 9.86864C4.47771 9.74094 4.41008 9.62466 4.30374 9.55333C3.08722 8.73479 2.54844 7.21742 2.97634 5.81499C3.40423 4.41256 4.69831 3.45442 6.16457 3.45442C7.63083 3.45442 8.92491 4.41256 9.3528 5.81499C9.7807 7.21742 9.24192 8.73479 8.0254 9.55333C7.91906 9.62466 7.85143 9.74094 7.84199 9.86864C7.83256 9.99635 7.88237 10.1213 7.97707 10.2075ZM6.44707 6.03749C6.28786 5.89184 6.04378 5.89184 5.88457 6.03749C5.56208 6.32985 5.1935 6.56693 4.79374 6.73916C4.60462 6.82196 4.50466 7.03076 4.55874 7.22999C4.75448 7.95442 5.41167 8.45759 6.16207 8.45759C6.91247 8.45759 7.56966 7.95442 7.7654 7.22999C7.81948 7.03076 7.71951 6.82196 7.5304 6.73916C7.13314 6.56648 6.76711 6.3294 6.44707 6.03749Z" />
<path d="M19.9354 10.0833C19.8163 10.0137 19.7395 9.88956 19.7301 9.75192C19.7208 9.61429 19.7802 9.48095 19.8887 9.39583C21.0075 8.51868 21.4468 7.0285 20.9829 5.68471C20.5189 4.34092 19.2537 3.43929 17.8321 3.43929C16.4104 3.43929 15.1452 4.34092 14.6813 5.68471C14.2173 7.0285 14.6566 8.51868 15.7754 9.39583C15.884 9.48095 15.9433 9.61429 15.934 9.75192C15.9247 9.88956 15.8478 10.0137 15.7287 10.0833C14.4524 10.8256 13.6666 12.1902 13.6654 13.6667V15.75C13.6654 15.9801 13.8519 16.1667 14.0821 16.1667H15.2087C15.4226 16.1655 15.6027 16.3264 15.6254 16.5392L16.1654 21.6283C16.1885 21.8407 16.3684 22.0012 16.5821 22H19.0821C19.2957 22.0012 19.4757 21.8407 19.4987 21.6283L20.0437 16.5392C20.0664 16.3264 20.2465 16.1655 20.4604 16.1667H21.5821C21.8122 16.1667 21.9987 15.9801 21.9987 15.75V13.6667C21.9975 12.1902 21.2117 10.8256 19.9354 10.0833ZM16.2087 6.42333C16.2375 6.3009 16.32 6.198 16.4332 6.14332C16.5464 6.08864 16.6783 6.08803 16.7921 6.14166C17.4241 6.43319 18.1119 6.58389 18.8079 6.58333C18.9538 6.58287 19.0995 6.5748 19.2446 6.55916C19.3105 6.55261 19.3761 6.57409 19.4254 6.61833C19.4731 6.66325 19.4997 6.72615 19.4987 6.79166C19.4987 7.71213 18.7525 8.45833 17.8321 8.45833C16.9116 8.45833 16.1654 7.71213 16.1654 6.79166C16.1654 6.66761 16.1799 6.54398 16.2087 6.42333Z" />
</svg>