<!-- character:0:2387 -->
  <svg width="20" height="20" viewBox="0 0 20 20" >
<path   d="M9.99913 1.66663C9.6156 1.66663 9.30468 1.97754 9.30468 2.36107V17.6388C9.30468 18.0224 9.6156 18.3333 9.99913 18.3333C10.3827 18.3333 10.6936 18.0224 10.6936 17.6388V2.36107C10.6936 1.97754 10.3827 1.66663 9.99913 1.66663ZM6.64774 8.5062C6.93962 8.77134 7.15539 9.10961 7.27274 9.48606L8.59427 13.7159C8.62717 13.8213 8.60799 13.9361 8.5426 14.025C8.47722 14.114 8.37342 14.1666 8.26302 14.1666H7.31927C7.14313 14.1653 6.99388 14.296 6.97205 14.4708L6.52691 18.0298C6.50475 18.2043 6.35559 18.3347 6.17968 18.3333H4.09635C3.92045 18.3347 3.77129 18.2043 3.74913 18.0298L3.30955 14.4708C3.28771 14.296 3.13846 14.1653 2.96233 14.1666H2.01302C1.90274 14.1663 1.79915 14.1137 1.73392 14.0247C1.6687 13.9358 1.6496 13.8212 1.68247 13.7159L3.00191 9.48606C3.11926 9.10961 3.33503 8.77134 3.62691 8.5062C3.70583 8.43438 3.74734 8.33025 3.73947 8.22383C3.73161 8.11741 3.67525 8.02051 3.58663 7.96107C2.57287 7.27895 2.12388 6.01448 2.48046 4.84579C2.83704 3.67709 3.91544 2.87865 5.13732 2.87865C6.35921 2.87865 7.43761 3.67709 7.79419 4.84579C8.15077 6.01448 7.70178 7.27895 6.68802 7.96107C6.5994 8.02051 6.54304 8.11741 6.53518 8.22383C6.52731 8.33025 6.56882 8.43438 6.64774 8.5062ZM5.37274 5.03121C5.24006 4.90983 5.03667 4.90983 4.90399 5.03121C4.63525 5.27484 4.3281 5.47241 3.99496 5.61593C3.83737 5.68493 3.75406 5.85893 3.79913 6.02496C3.96225 6.62864 4.50991 7.04796 5.13524 7.04796C5.76058 7.04796 6.30823 6.62864 6.47135 6.02496C6.51642 5.85893 6.43311 5.68493 6.27552 5.61593C5.94447 5.47203 5.63944 5.27446 5.37274 5.03121ZM16.613 8.40273C16.5138 8.34467 16.4497 8.24126 16.442 8.12657C16.4342 8.01187 16.4837 7.90075 16.5741 7.82982C17.5064 7.09886 17.8726 5.85705 17.4859 4.73722C17.0993 3.6174 16.0449 2.86603 14.8602 2.86603C13.6755 2.86603 12.6212 3.6174 12.2346 4.73722C11.8479 5.85705 12.214 7.09886 13.1463 7.82982C13.2368 7.90075 13.2863 8.01187 13.2785 8.12657C13.2707 8.24126 13.2067 8.34467 13.1075 8.40273C12.0438 9.02127 11.389 10.1584 11.388 11.3888V13.125C11.388 13.3167 11.5435 13.4722 11.7352 13.4722H12.6741C12.8524 13.4712 13.0025 13.6053 13.0213 13.7826L13.4713 18.0236C13.4906 18.2006 13.6405 18.3343 13.8186 18.3333H15.9019C16.0799 18.3343 16.2299 18.2006 16.2491 18.0236L16.7033 13.7826C16.7222 13.6053 16.8722 13.4712 17.0505 13.4722H17.9852C18.177 13.4722 18.3325 13.3167 18.3325 13.125V11.3888C18.3314 10.1584 17.6766 9.02127 16.613 8.40273ZM13.5075 5.35273C13.5314 5.25071 13.6001 5.16496 13.6945 5.1194C13.7889 5.07383 13.8988 5.07332 13.9936 5.11801C14.5202 5.36096 15.0934 5.48654 15.6734 5.48607C15.795 5.48569 15.9165 5.47896 16.0373 5.46593C16.0922 5.46047 16.1469 5.47837 16.188 5.51523C16.2278 5.55267 16.2499 5.60509 16.2491 5.65968C16.2491 6.42674 15.6273 7.04857 14.8602 7.04857C14.0932 7.04857 13.4713 6.42674 13.4713 5.65968C13.4713 5.5563 13.4834 5.45328 13.5075 5.35273Z" />
</svg>