<!--character:5952-->
  <svg width="24" height="24" viewBox="0 0 24 24" >
<path d="M11.9989 2C11.5387 2 11.1656 2.3731 11.1656 2.83333V21.1667C11.1656 21.6269 11.5387 22 11.9989 22C12.4592 22 12.8323 21.6269 12.8323 21.1667V2.83333C12.8323 2.3731 12.4592 2 11.9989 2Z" />
<path d="M7.97726 10.2075C8.32752 10.5256 8.58644 10.9316 8.72726 11.3833L10.3131 16.4591C10.3526 16.5856 10.3296 16.7233 10.2511 16.8301C10.1726 16.9368 10.0481 16.9999 9.9156 17H8.7831C8.57173 16.9983 8.39263 17.1552 8.36643 17.365L7.83226 21.6358C7.80567 21.8452 7.62668 22.0017 7.4156 22H4.9156C4.70452 22.0017 4.52552 21.8452 4.49893 21.6358L3.97143 17.365C3.94523 17.1552 3.76613 16.9983 3.55477 17H2.4156C2.28326 16.9996 2.15895 16.9364 2.08068 16.8297C2.00242 16.723 1.9795 16.5855 2.01893 16.4591L3.60227 11.3833C3.74309 10.9316 4.00201 10.5256 4.35227 10.2075C4.44697 10.1213 4.49678 9.99633 4.48734 9.86863C4.47791 9.74092 4.41027 9.62465 4.30393 9.55331C3.08742 8.73477 2.54864 7.21741 2.97653 5.81498C3.40443 4.41254 4.69851 3.4544 6.16476 3.4544C7.63102 3.4544 8.9251 4.41254 9.353 5.81498C9.78089 7.21741 9.24211 8.73477 8.0256 9.55331C7.91925 9.62465 7.85162 9.74092 7.84219 9.86863C7.83275 9.99633 7.88256 10.1213 7.97726 10.2075ZM6.44726 6.03749C6.28805 5.89183 6.04397 5.89183 5.88476 6.03749C5.56227 6.32985 5.1937 6.56693 4.79393 6.73916C4.60482 6.82196 4.50485 7.03075 4.55893 7.22999C4.75467 7.95441 5.41186 8.45759 6.16226 8.45759C6.91266 8.45759 7.56985 7.95441 7.76559 7.22999C7.81967 7.03075 7.71971 6.82196 7.53059 6.73916C7.13333 6.56647 6.7673 6.3294 6.44726 6.03749Z" />
<path d="M19.9356 10.0833C19.8165 10.0136 19.7397 9.88954 19.7303 9.75191C19.721 9.61427 19.7804 9.48093 19.8889 9.39581C21.0077 8.51866 21.4471 7.02848 20.9831 5.68469C20.5191 4.34091 19.2539 3.43927 17.8323 3.43927C16.4106 3.43927 15.1454 4.34091 14.6815 5.68469C14.2175 7.02848 14.6568 8.51866 15.7756 9.39581C15.8842 9.48093 15.9436 9.61427 15.9342 9.75191C15.9249 9.88954 15.848 10.0136 15.7289 10.0833C14.4526 10.8256 13.6668 12.1902 13.6656 13.6666V15.75C13.6656 15.9801 13.8522 16.1666 14.0823 16.1666H15.2089C15.4229 16.1654 15.6029 16.3264 15.6256 16.5391L16.1656 21.6283C16.1887 21.8407 16.3686 22.0012 16.5823 22H19.0823C19.2959 22.0012 19.4759 21.8407 19.4989 21.6283L20.0439 16.5391C20.0666 16.3264 20.2467 16.1654 20.4606 16.1666H21.5823C21.8124 16.1666 21.9989 15.9801 21.9989 15.75V13.6666C21.9977 12.1902 21.212 10.8256 19.9356 10.0833ZM16.2089 6.42331C16.2377 6.30089 16.3202 6.19799 16.4334 6.14331C16.5466 6.08863 16.6785 6.08802 16.7923 6.14165C17.4243 6.43318 18.1121 6.58388 18.8081 6.58331C18.954 6.58286 19.0997 6.57479 19.2448 6.55915C19.3107 6.5526 19.3763 6.57407 19.4256 6.61831C19.4733 6.66323 19.4999 6.72614 19.4989 6.79165C19.4989 7.71212 18.7527 8.45831 17.8323 8.45831C16.9118 8.45831 16.1656 7.71212 16.1656 6.79165C16.1656 6.66759 16.1801 6.54397 16.2089 6.42331Z" />
</svg>