<!--character:1769-->
  <svg width="20" height="20" viewBox="0 0 20 20" >
<path d="M9.99894 1.66666C9.61541 1.66666 9.3045 1.97758 9.3045 2.36111V17.6389C9.3045 18.0224 9.61541 18.3333 9.99894 18.3333C10.3825 18.3333 10.6934 18.0224 10.6934 17.6389V2.36111C10.6934 1.97758 10.3825 1.66666 9.99894 1.66666Z" />
<path d="M6.64756 8.50624C6.93944 8.77137 7.1552 9.10965 7.27256 9.4861L8.59408 13.716C8.62698 13.8214 8.6078 13.9361 8.54242 14.0251C8.47703 14.114 8.37324 14.1666 8.26283 14.1667H7.31908C7.14295 14.1653 6.9937 14.296 6.97186 14.4708L6.52672 18.0298C6.50456 18.2044 6.3554 18.3347 6.1795 18.3333H4.09617C3.92027 18.3347 3.77111 18.2044 3.74895 18.0298L3.30936 14.4708C3.28753 14.296 3.13828 14.1653 2.96214 14.1667H2.01284C1.90256 14.1664 1.79896 14.1137 1.73374 14.0248C1.66852 13.9359 1.64942 13.8212 1.68228 13.716L3.00173 9.4861C3.11908 9.10965 3.33485 8.77137 3.62673 8.50624C3.70564 8.43442 3.74715 8.33029 3.73929 8.22387C3.73143 8.11745 3.67507 8.02055 3.58645 7.9611C2.57269 7.27899 2.1237 6.01452 2.48028 4.84583C2.83686 3.67713 3.91526 2.87868 5.13714 2.87868C6.35902 2.87868 7.43742 3.67713 7.794 4.84583C8.15058 6.01452 7.7016 7.27899 6.68783 7.9611C6.59922 8.02055 6.54286 8.11745 6.53499 8.22387C6.52713 8.33029 6.56864 8.43442 6.64756 8.50624ZM5.37256 5.03124C5.23988 4.90986 5.03648 4.90986 4.90381 5.03124C4.63506 5.27488 4.32792 5.47244 3.99478 5.61597C3.83719 5.68497 3.75388 5.85896 3.79895 6.02499C3.96207 6.62868 4.50972 7.04799 5.13506 7.04799C5.76039 7.04799 6.30805 6.62868 6.47117 6.02499C6.51623 5.85896 6.43293 5.68497 6.27534 5.61597C5.94428 5.47207 5.63926 5.2745 5.37256 5.03124Z" />
<path d="M16.6128 8.40277C16.5136 8.34471 16.4496 8.2413 16.4418 8.1266C16.434 8.01191 16.4835 7.90079 16.5739 7.82985C17.5063 7.0989 17.8724 5.85708 17.4857 4.73726C17.0991 3.61744 16.0447 2.86607 14.8601 2.86607C13.6754 2.86607 12.621 3.61744 12.2344 4.73726C11.8477 5.85708 12.2139 7.0989 13.1462 7.82985C13.2366 7.90079 13.2861 8.01191 13.2783 8.1266C13.2705 8.2413 13.2065 8.34471 13.1073 8.40277C12.0436 9.02131 11.3888 10.1585 11.3878 11.3889V13.125C11.3878 13.3168 11.5433 13.4722 11.7351 13.4722H12.6739C12.8522 13.4712 13.0023 13.6054 13.0212 13.7826L13.4712 18.0236C13.4904 18.2006 13.6404 18.3344 13.8184 18.3333H15.9017C16.0797 18.3344 16.2297 18.2006 16.2489 18.0236L16.7031 13.7826C16.722 13.6054 16.8721 13.4712 17.0503 13.4722H17.985C18.1768 13.4722 18.3323 13.3168 18.3323 13.125V11.3889C18.3313 10.1585 17.6765 9.02131 16.6128 8.40277ZM13.5073 5.35277C13.5312 5.25075 13.6 5.165 13.6943 5.11944C13.7887 5.07387 13.8986 5.07336 13.9934 5.11805C14.5201 5.36099 15.0932 5.48658 15.6732 5.48611C15.7948 5.48572 15.9163 5.479 16.0371 5.46597C16.0921 5.46051 16.1468 5.4784 16.1878 5.51527C16.2276 5.55271 16.2498 5.60512 16.2489 5.65972C16.2489 6.42678 15.6271 7.0486 14.8601 7.0486C14.093 7.0486 13.4712 6.42678 13.4712 5.65972C13.4711 5.55634 13.4833 5.45332 13.5073 5.35277Z" />
</svg>