<!--character:7816-->
  <svg width="24" height="24" viewBox="0 0 24 24" >
<path d="M11.9989 2C11.5387 2 11.1656 2.3731 11.1656 2.83333V21.1667C11.1656 21.6269 11.5387 22 11.9989 22C12.4592 22 12.8322 21.6269 12.8322 21.1667V2.83333C12.8322 2.3731 12.4592 2 11.9989 2Z" />
<path d="M7.97725 10.2075C8.32751 10.5257 8.58643 10.9316 8.72725 11.3833L10.3131 16.4592C10.3526 16.5856 10.3295 16.7233 10.2511 16.8301C10.1726 16.9368 10.0481 16.9999 9.91558 17H8.78308C8.57172 16.9984 8.39262 17.1552 8.36642 17.365L7.83225 21.6358C7.80566 21.8452 7.62667 22.0017 7.41558 22H4.91559C4.7045 22.0017 4.52551 21.8452 4.49892 21.6358L3.97142 17.365C3.94522 17.1552 3.76612 16.9984 3.55475 17H2.41559C2.28325 16.9997 2.15894 16.9365 2.08067 16.8297C2.0024 16.723 1.97948 16.5855 2.01892 16.4592L3.60225 11.3833C3.74308 10.9316 4.002 10.5257 4.35225 10.2075C4.44696 10.1213 4.49677 9.99635 4.48733 9.86865C4.4779 9.74094 4.41026 9.62467 4.30392 9.55333C3.08741 8.73479 2.54862 7.21743 2.97652 5.815C3.40441 4.41256 4.6985 3.45442 6.16475 3.45442C7.63101 3.45442 8.92509 4.41256 9.35299 5.815C9.78088 7.21743 9.2421 8.73479 8.02558 9.55333C7.91924 9.62467 7.85161 9.74094 7.84217 9.86865C7.83274 9.99635 7.88255 10.1213 7.97725 10.2075ZM6.44725 6.0375C6.28804 5.89184 6.04397 5.89184 5.88475 6.0375C5.56226 6.32986 5.19369 6.56694 4.79392 6.73916C4.60481 6.82197 4.50484 7.03076 4.55892 7.23C4.75466 7.95442 5.41185 8.4576 6.16225 8.4576C6.91266 8.4576 7.56984 7.95442 7.76559 7.23C7.81966 7.03076 7.7197 6.82197 7.53059 6.73916C7.13332 6.56648 6.76729 6.32941 6.44725 6.0375Z" />
<path d="M19.9356 10.0833C19.8165 10.0137 19.7397 9.88957 19.7303 9.75193C19.721 9.61429 19.7804 9.48096 19.8889 9.39583C21.0077 8.51868 21.447 7.02851 20.983 5.68472C20.5191 4.34093 19.2539 3.43929 17.8322 3.43929C16.4106 3.43929 15.1454 4.34093 14.6814 5.68472C14.2175 7.02851 14.6568 8.51868 15.7756 9.39583C15.8841 9.48096 15.9435 9.61429 15.9342 9.75193C15.9248 9.88957 15.848 10.0137 15.7289 10.0833C14.4526 10.8256 13.6668 12.1902 13.6656 13.6667V15.75C13.6656 15.9801 13.8521 16.1667 14.0822 16.1667H15.2089C15.4228 16.1655 15.6029 16.3264 15.6256 16.5392L16.1656 21.6283C16.1886 21.8407 16.3686 22.0012 16.5822 22H19.0822C19.2959 22.0012 19.4758 21.8407 19.4989 21.6283L20.0439 16.5392C20.0666 16.3264 20.2467 16.1655 20.4606 16.1667H21.5822C21.8124 16.1667 21.9989 15.9801 21.9989 15.75V13.6667C21.9977 12.1902 21.2119 10.8256 19.9356 10.0833ZM16.2089 6.42333C16.2376 6.30091 16.3201 6.19801 16.4334 6.14333C16.5466 6.08865 16.6785 6.08804 16.7922 6.14167C17.4243 6.4332 18.1121 6.5839 18.8081 6.58333C18.954 6.58287 19.0997 6.57481 19.2447 6.55916C19.3107 6.55262 19.3763 6.57409 19.4256 6.61833C19.4733 6.66325 19.4999 6.72615 19.4989 6.79166C19.4989 7.71214 18.7527 8.45833 17.8322 8.45833C16.9118 8.45833 16.1656 7.71214 16.1656 6.79166C16.1655 6.66761 16.1801 6.54399 16.2089 6.42333Z" />
</svg>