<!--category:services-->
<!--character:E129-->
<!--added:0.11-->
<svg width="24" height="24" viewBox="0 0 24 24" xmlns="http://www.w3.org/2000/svg"><path d="M8.7273 11.3833l1.5858 5.0759A.4167.4167 0 0 1 9.9156 17H8.7831a.4167.4167 0 0 0-.4167.365l-.5341 4.2708A.4167.4167 0 0 1 7.4156 22h-2.5a.4167.4167 0 0 1-.4167-.3642l-.5275-4.2708A.4167.4167 0 0 0 3.5548 17H2.4156a.4167.4167 0 0 1-.3967-.5408l1.5834-5.0759a2.6567 2.6567 0 0 1 .75-1.1758.4167.4167 0 0 0-.0484-.6542 3.3333 3.3333 0 1 1 3.7217 0 .4167.4167 0 0 0-.0483.6542c.3502.3182.6091.724.75 1.1758zM5.8848 6.0375a3.9525 3.9525 0 0 1-1.0909.7017.4167.4167 0 0 0-.235.4908 1.6608 1.6608 0 0 0 3.2067 0 .4167.4167 0 0 0-.235-.4908 3.9358 3.9358 0 0 1-1.0833-.7017.4167.4167 0 0 0-.5625 0zM11.9989 2a.8333.8333 0 0 1 .8334.8333v18.3334a.8333.8333 0 1 1-1.6667 0V2.8333A.8333.8333 0 0 1 11.9989 2zm7.9367 8.0833a4.1492 4.1492 0 0 1 2.0633 3.5834V15.75a.4167.4167 0 0 1-.4166.4167h-1.1217a.4167.4167 0 0 0-.4167.3725l-.545 5.0891a.4167.4167 0 0 1-.4166.3717h-2.5a.4167.4167 0 0 1-.4167-.3717l-.54-5.0891a.4167.4167 0 0 0-.4167-.3725h-1.1266a.4167.4167 0 0 1-.4167-.4167v-2.0833a4.1492 4.1492 0 0 1 2.0633-3.5834.4167.4167 0 0 0 .0467-.6875 3.3333 3.3333 0 1 1 4.1133 0 .4167.4167 0 0 0 .0467.6875zm-3.7267-3.66a1.5833 1.5833 0 0 0-.0433.3684c0 .9204.7462 1.6666 1.6667 1.6666.9204 0 1.6666-.7462 1.6666-1.6666a.2335.2335 0 0 0-.0733-.1734.2358.2358 0 0 0-.1808-.0591 4.195 4.195 0 0 1-.4367.0241 4.8033 4.8033 0 0 1-2.0158-.4416.4167.4167 0 0 0-.5834.2816z"/></svg>