<!--character:22:472:380-->
<svg width="24" height="24" viewBox="0 0 24 24" xmlns="http://www.w3.org/2000/svg"><path d="M7.4558 17.3483a.8333.8333 0 0 1 .2309 1.1559l-2.0834 3.125a.8334.8334 0 0 1-1.3866-.925L6.3 17.5792a.8333.8333 0 0 1 1.1558-.2309zM19.77 20.7042a.8334.8334 0 1 1-1.3867.925L16.3 18.5042a.8334.8334 0 1 1 1.3867-.925l2.0833 3.125zM18.66 14.5a1.8484 1.8484 0 0 1-1.4908 1.825 28.6725 28.6725 0 0 1-5.1759.675 28.64 28.64 0 0 1-5.1666-.6733 1.8583 1.8583 0 0 1-1.5-1.8267V5.7592C5.329 3.684 7.0107 2.0023 9.0858 2h5.815c2.0752.0023 3.7569 1.684 3.7592 3.7592V14.5zM12.8267 3.875v4.6025a.2092.2092 0 0 0 .2.2083 20.6275 20.6275 0 0 1 3.7116.4675.2083.2083 0 0 0 .255-.2033V5.7592c-.0009-1.1553-.9372-2.0916-2.0925-2.0925H13.035a.2083.2083 0 0 0-.2083.2083zM6.9933 5.7592V8.95a.2083.2083 0 0 0 .255.2033 20.6275 20.6275 0 0 1 3.7117-.4675.2092.2092 0 0 0 .2-.2083V3.875a.2083.2083 0 0 0-.2083-.2083H9.0858c-1.1552.0009-2.0915.9372-2.0925 2.0925zm1.4584 7.0741a.8333.8333 0 1 0 0-1.6666h-1.25a.4167.4167 0 0 0-.4167.4166v.8334c0 .23.1865.4166.4167.4166h1.25zm5.4166 2.3767v-1.5433a.2108.2108 0 0 0-.2083-.2084h-3.3333a.2108.2108 0 0 0-.2084.2084v1.5425c0 .1055.0787.1944.1834.2075.561.0742 1.1258.116 1.6916.125a14.6717 14.6717 0 0 0 1.6917-.1242.2091.2091 0 0 0 .1833-.2075zm2.9167-2.3767a.4167.4167 0 0 0 .4167-.4166v-.8334a.4167.4167 0 0 0-.4167-.4166h-1.25a.8333.8333 0 1 0 0 1.6666h1.25z"/></svg>
