<!--character:6564-->
  <svg width="24" height="24" viewBox="0 0 24 24" >
<path d="M18.66 14.5V5.75917C18.6577 3.68399 16.976 2.0023 14.9008 2H9.08585C7.01067 2.0023 5.32898 3.68399 5.32668 5.75917V14.5C5.32515 15.3894 5.95399 16.1552 6.82668 16.3267C8.52487 16.7076 10.2542 16.933 11.9933 17C13.7356 16.9328 15.468 16.7069 17.1692 16.325C18.0398 16.1534 18.6656 15.3873 18.66 14.5ZM12.8267 3.87502C12.8267 3.75996 12.92 3.66669 13.035 3.66669H14.9008C16.0561 3.66761 16.9924 4.60391 16.9933 5.75919V8.95002C16.9934 9.01353 16.9646 9.07361 16.9149 9.1132C16.8652 9.1528 16.8002 9.16758 16.7383 9.15335C15.5178 8.88542 14.2755 8.72894 13.0267 8.68585C12.9151 8.68096 12.827 8.58923 12.8267 8.47752V3.87502ZM9.08584 3.66669H10.9517C11.0667 3.66669 11.16 3.75996 11.16 3.87502V8.47752C11.1597 8.58923 11.0716 8.68096 10.96 8.68585C9.71117 8.72894 8.46884 8.88542 7.24834 9.15335C7.18644 9.16758 7.12144 9.1528 7.07178 9.1132C7.02213 9.07361 6.99325 9.01353 6.99334 8.95002V5.75919C6.99425 4.60391 7.93056 3.66761 9.08584 3.66669ZM8.45169 12.8334H7.20169C6.97157 12.8334 6.78502 12.6468 6.78502 12.4167V11.5834C6.78502 11.3532 6.97157 11.1667 7.20169 11.1667H8.45169C8.91193 11.1667 9.28502 11.5398 9.28502 12C9.28502 12.4603 8.91193 12.8334 8.45169 12.8334ZM13.685 15.4175C13.124 15.4915 12.5591 15.5329 11.9933 15.5416C11.4275 15.5326 10.8627 15.4909 10.3017 15.4166C10.197 15.4036 10.1184 15.3147 10.1183 15.2091V13.6666C10.1197 13.5522 10.2122 13.4597 10.3267 13.4583H13.66C13.7745 13.4597 13.867 13.5522 13.8683 13.6666V15.21C13.8683 15.3155 13.7897 15.4044 13.685 15.4175ZM16.785 12.8334H15.535C15.0748 12.8334 14.7017 12.4603 14.7017 12C14.7017 11.5398 15.0748 11.1667 15.535 11.1667H16.785C17.0151 11.1667 17.2017 11.3532 17.2017 11.5834V12.4167C17.2017 12.6468 17.0151 12.8334 16.785 12.8334Z" />
<path d="M7.45584 17.3484C7.27196 17.2257 7.04687 17.1811 6.8301 17.2243C6.61333 17.2676 6.42265 17.3953 6.3 17.5792L4.21667 20.7042C3.96124 21.0871 4.06459 21.6046 4.4475 21.86C4.83042 22.1154 5.3479 22.0121 5.60334 21.6292L7.68667 18.5042C7.80936 18.3203 7.85397 18.0952 7.81068 17.8785C7.76738 17.6617 7.63974 17.471 7.45584 17.3484Z" />
<path d="M19.77 20.7042L17.6867 17.5792C17.5214 17.3315 17.2366 17.1907 16.9395 17.21C16.6423 17.2292 16.378 17.4055 16.2461 17.6725C16.1142 17.9394 16.1348 18.2565 16.3 18.5042L18.3833 21.6292C18.6388 22.0121 19.1562 22.1154 19.5392 21.86C19.9221 21.6046 20.0254 21.0871 19.77 20.7042Z" />
</svg>