<!--character:5102-->
  <svg width="24" height="24" viewBox="0 0 24 24" >
<path d="M18.6599 14.5V5.75916C18.6576 3.68398 16.9759 2.00229 14.9007 2H9.08572C7.01054 2.00229 5.32885 3.68398 5.32656 5.75916V14.5C5.32502 15.3894 5.95386 16.1552 6.82656 16.3267C8.52474 16.7076 10.2541 16.933 11.9932 17C13.7354 16.9328 15.4679 16.7069 17.1691 16.325C18.0396 16.1534 18.6654 15.3873 18.6599 14.5ZM12.8266 3.875C12.8266 3.75994 12.9198 3.66666 13.0349 3.66666H14.9007C16.056 3.66758 16.9923 4.60389 16.9932 5.75916V8.95C16.9933 9.0135 16.9644 9.07359 16.9148 9.11318C16.8651 9.15277 16.8001 9.16756 16.7382 9.15333C15.5177 8.8854 14.2754 8.72892 13.0266 8.68583C12.915 8.68093 12.8269 8.58921 12.8266 8.4775V3.875ZM9.08572 3.66666H10.9516C11.0666 3.66666 11.1599 3.75994 11.1599 3.875V8.4775C11.1596 8.58921 11.0715 8.68093 10.9599 8.68583C9.71106 8.72892 8.46873 8.8854 7.24822 9.15333C7.18633 9.16756 7.12133 9.15277 7.07167 9.11318C7.02202 9.07359 6.99313 9.0135 6.99322 8.95V5.75916C6.99414 4.60389 7.93045 3.66758 9.08572 3.66666ZM8.45156 12.8333H7.20156C6.97144 12.8333 6.78489 12.6468 6.78489 12.4167V11.5833C6.78489 11.3532 6.97144 11.1667 7.20156 11.1667H8.45156C8.91179 11.1667 9.28489 11.5398 9.28489 12C9.28489 12.4602 8.91179 12.8333 8.45156 12.8333ZM13.6849 15.4175C13.1239 15.4915 12.559 15.5329 11.9932 15.5417C11.4274 15.5327 10.8626 15.4909 10.3016 15.4167C10.1969 15.4036 10.1183 15.3147 10.1182 15.2092V13.6667C10.1196 13.5522 10.2121 13.4597 10.3266 13.4583H13.6599C13.7744 13.4597 13.8669 13.5522 13.8682 13.6667V15.21C13.8682 15.3155 13.7896 15.4045 13.6849 15.4175ZM16.7849 12.8333H15.5349C15.0747 12.8333 14.7016 12.4602 14.7016 12C14.7016 11.5398 15.0747 11.1667 15.5349 11.1667H16.7849C17.015 11.1667 17.2016 11.3532 17.2016 11.5833V12.4167C17.2016 12.6468 17.015 12.8333 16.7849 12.8333Z" />
<path d="M7.45573 17.3483C7.27185 17.2256 7.04676 17.181 6.82999 17.2243C6.61323 17.2676 6.42254 17.3953 6.29989 17.5792L4.21656 20.7042C3.96113 21.0871 4.06448 21.6046 4.44739 21.86C4.83031 22.1154 5.34779 22.0121 5.60323 21.6292L7.68656 18.5042C7.80925 18.3203 7.85386 18.0952 7.81057 17.8784C7.76727 17.6617 7.63963 17.471 7.45573 17.3483Z" />
<path d="M19.7699 20.7042L17.6866 17.5792C17.5213 17.3315 17.2365 17.1907 16.9394 17.21C16.6422 17.2292 16.3779 17.4055 16.246 17.6725C16.1141 17.9394 16.1347 18.2565 16.2999 18.5042L18.3832 21.6292C18.6387 22.0121 19.1561 22.1154 19.5391 21.86C19.922 21.6046 20.0253 21.0871 19.7699 20.7042Z" />
</svg>