<!-- character:0:1099 -->
  <svg width="20" height="20" viewBox="0 0 20 20" >
<path   d="M15.55 12.0833V4.79926C15.5481 3.06995 14.1466 1.66854 12.4173 1.66663H7.5715C5.84218 1.66854 4.44077 3.06995 4.43886 4.79926V12.0833C4.43758 12.8244 4.96161 13.4626 5.68886 13.6055C7.10401 13.923 8.54516 14.1108 9.99441 14.1666C11.4463 14.1107 12.89 13.9224 14.3076 13.6041C15.0331 13.4611 15.5546 12.8227 15.55 12.0833ZM10.6889 3.22913C10.6889 3.13324 10.7666 3.05552 10.8625 3.05552H12.4173C13.3801 3.05628 14.1603 3.83654 14.1611 4.79926V7.45829C14.1612 7.51122 14.1371 7.56128 14.0957 7.59428C14.0543 7.62727 14.0002 7.63959 13.9486 7.62774C12.9315 7.40446 11.8962 7.27406 10.8555 7.23815C10.7625 7.23407 10.6891 7.15763 10.6889 7.06454V3.22913ZM7.5715 3.05552C6.60877 3.05628 5.82851 3.83654 5.82775 4.79926V7.45829C5.82767 7.51122 5.85174 7.56128 5.89312 7.59428C5.9345 7.62727 5.98867 7.63959 6.04025 7.62774C7.05734 7.40446 8.09261 7.27406 9.1333 7.23815C9.22631 7.23407 9.29969 7.15763 9.29997 7.06454V3.22913C9.29997 3.13324 9.22224 3.05552 9.12636 3.05552H7.5715ZM7.04302 10.6944H6.00136C5.80959 10.6944 5.65414 10.5389 5.65414 10.3472V9.65274C5.65414 9.46097 5.80959 9.30551 6.00136 9.30551H7.04302C7.42656 9.30551 7.73747 9.61643 7.73747 9.99996C7.73747 10.3835 7.42656 10.6944 7.04302 10.6944ZM11.4041 12.8479C11.4914 12.837 11.5569 12.7629 11.5569 12.675V11.3888C11.5558 11.2934 11.4787 11.2164 11.3833 11.2152H8.60552C8.51011 11.2164 8.43304 11.2934 8.43191 11.3888V12.6743C8.43194 12.7622 8.49744 12.8363 8.58469 12.8472C9.0522 12.9091 9.52289 12.9438 9.99441 12.9513C10.4659 12.9441 10.9366 12.9095 11.4041 12.8479ZM13.9875 10.6944H12.9458C12.5623 10.6944 12.2514 10.3835 12.2514 9.99996C12.2514 9.61643 12.5623 9.30551 12.9458 9.30551H13.9875C14.1792 9.30551 14.3347 9.46097 14.3347 9.65274V10.3472C14.3347 10.5389 14.1792 10.6944 13.9875 10.6944ZM6.21317 14.4569C6.05994 14.3547 5.87236 14.3175 5.69172 14.3536C5.51108 14.3896 5.35218 14.496 5.24997 14.6493L3.51386 17.2534C3.301 17.5725 3.38712 18.0038 3.70622 18.2166C4.02532 18.4295 4.45656 18.3434 4.66942 18.0243L6.40553 15.4201C6.50777 15.2669 6.54494 15.0793 6.50887 14.8987C6.47279 14.718 6.36642 14.5591 6.21317 14.4569ZM16.475 17.2534L14.7389 14.6493C14.6012 14.4428 14.3638 14.3256 14.1162 14.3416C13.8686 14.3576 13.6483 14.5046 13.5384 14.727C13.4285 14.9495 13.4456 15.2137 13.5833 15.4201L15.3194 18.0243C15.5323 18.3434 15.9635 18.4295 16.2826 18.2166C16.6017 18.0038 16.6878 17.5725 16.475 17.2534Z" />
</svg>