<!--character:1594-->
  <svg width="20" height="20" viewBox="0 0 20 20" >
<path d="M15.5499 12.0833V4.7993C15.548 3.06999 14.1466 1.66858 12.4173 1.66666H7.57144C5.84212 1.66858 4.44071 3.06999 4.4388 4.7993V12.0833C4.43752 12.8245 4.96155 13.4626 5.6888 13.6056C7.10395 13.923 8.5451 14.1108 9.99435 14.1667C11.4462 14.1107 12.8899 13.9224 14.3075 13.6042C15.033 13.4612 15.5545 12.8228 15.5499 12.0833ZM10.6888 3.22916C10.6888 3.13328 10.7665 3.05555 10.8624 3.05555H12.4173C13.38 3.05632 14.1603 3.83657 14.161 4.7993V7.45833C14.1611 7.51125 14.137 7.56132 14.0956 7.59432C14.0543 7.62731 14.0001 7.63963 13.9485 7.62778C12.9314 7.4045 11.8962 7.2741 10.8555 7.23819C10.7625 7.23411 10.6891 7.15767 10.6888 7.06458V3.22916ZM7.57144 3.05555H9.1263C9.22218 3.05555 9.29991 3.13328 9.29991 3.22916V7.06458C9.29963 7.15767 9.22624 7.23411 9.13324 7.23819C8.09255 7.2741 7.05728 7.4045 6.04019 7.62778C5.98861 7.63963 5.93444 7.62731 5.89306 7.59432C5.85168 7.56132 5.82761 7.51125 5.82769 7.45833V4.7993C5.82845 3.83657 6.60871 3.05632 7.57144 3.05555ZM7.04296 10.6944H6.0013C5.80953 10.6944 5.65407 10.539 5.65407 10.3472V9.65278C5.65407 9.46101 5.80953 9.30555 6.0013 9.30555H7.04296C7.42649 9.30555 7.73741 9.61647 7.73741 10C7.73741 10.3835 7.42649 10.6944 7.04296 10.6944ZM11.4041 12.8479C10.9366 12.9096 10.4659 12.9441 9.99435 12.9514C9.52283 12.9439 9.05213 12.9091 8.58463 12.8472C8.49738 12.8364 8.43188 12.7622 8.43185 12.6743V11.3889C8.43298 11.2935 8.51005 11.2164 8.60546 11.2153H11.3832C11.4787 11.2164 11.5557 11.2935 11.5569 11.3889V12.675C11.5568 12.7629 11.4913 12.8371 11.4041 12.8479ZM13.9874 10.6944H12.9457C12.5622 10.6944 12.2513 10.3835 12.2513 10C12.2513 9.61647 12.5622 9.30555 12.9457 9.30555H13.9874C14.1792 9.30555 14.3346 9.46101 14.3346 9.65278V10.3472C14.3346 10.539 14.1792 10.6944 13.9874 10.6944Z" />
<path d="M6.21311 14.4569C6.05988 14.3547 5.8723 14.3175 5.69166 14.3536C5.51102 14.3897 5.35211 14.496 5.24991 14.6493L3.5138 17.2535C3.30094 17.5726 3.38706 18.0038 3.70616 18.2167C4.02526 18.4295 4.4565 18.3434 4.66936 18.0243L6.40547 15.4201C6.50771 15.2669 6.54488 15.0793 6.50881 14.8987C6.47273 14.7181 6.36636 14.5591 6.21311 14.4569Z" />
<path d="M16.4749 17.2535L14.7388 14.6493C14.6011 14.4429 14.3637 14.3256 14.1161 14.3416C13.8685 14.3577 13.6483 14.5046 13.5384 14.7271C13.4284 14.9495 13.4455 15.2137 13.5832 15.4201L15.3194 18.0243C15.5322 18.3434 15.9635 18.4295 16.2825 18.2167C16.6016 18.0038 16.6878 17.5726 16.4749 17.2535Z" />
</svg>