<!--character:1576-->
  <svg width="24" height="24" viewBox="0 0 24 24" >
<path d="M18.66 14.5V5.75916C18.6577 3.68398 16.976 2.00229 14.9008 2H9.0858C7.01062 2.00229 5.32893 3.68398 5.32663 5.75916V14.5C5.32509 15.3894 5.95394 16.1552 6.82663 16.3267C8.52482 16.7076 10.2542 16.933 11.9933 17C13.7355 16.9328 15.468 16.7069 17.1691 16.325C18.0397 16.1534 18.6655 15.3873 18.66 14.5ZM12.8266 3.875C12.8266 3.75994 12.9199 3.66666 13.035 3.66666H14.9008C16.0561 3.66758 16.9924 4.60389 16.9933 5.75916V8.95C16.9934 9.0135 16.9645 9.07359 16.9148 9.11318C16.8652 9.15277 16.8002 9.16756 16.7383 9.15333C15.5178 8.8854 14.2755 8.72892 13.0266 8.68583C12.915 8.68093 12.827 8.58921 12.8266 8.4775V3.875ZM9.0858 3.66666H10.9516C11.0667 3.66666 11.16 3.75994 11.16 3.875V8.4775C11.1596 8.58921 11.0716 8.68093 10.96 8.68583C9.71113 8.72892 8.4688 8.8854 7.2483 9.15333C7.1864 9.16756 7.1214 9.15277 7.07174 9.11318C7.02209 9.07359 6.99321 9.0135 6.9933 8.95V5.75916C6.99422 4.60389 7.93052 3.66758 9.0858 3.66666ZM8.45163 12.8333H7.20163C6.97151 12.8333 6.78496 12.6468 6.78496 12.4167V11.5833C6.78496 11.3532 6.97151 11.1667 7.20163 11.1667H8.45163C8.91187 11.1667 9.28496 11.5398 9.28496 12C9.28496 12.4602 8.91187 12.8333 8.45163 12.8333ZM13.685 15.4175C13.1239 15.4915 12.5591 15.5329 11.9933 15.5417C11.4275 15.5327 10.8626 15.4909 10.3016 15.4167C10.1969 15.4036 10.1183 15.3147 10.1183 15.2092V13.6667C10.1196 13.5522 10.2121 13.4597 10.3266 13.4583H13.66C13.7745 13.4597 13.8669 13.5522 13.8683 13.6667V15.21C13.8683 15.3155 13.7897 15.4045 13.685 15.4175ZM16.785 12.8333H15.535C15.0747 12.8333 14.7016 12.4602 14.7016 12C14.7016 11.5398 15.0747 11.1667 15.535 11.1667H16.785C17.0151 11.1667 17.2016 11.3532 17.2016 11.5833V12.4167C17.2016 12.6468 17.0151 12.8333 16.785 12.8333Z" />
<path d="M7.4558 17.3483C7.27192 17.2256 7.04684 17.181 6.83007 17.2243C6.6133 17.2676 6.42261 17.3953 6.29997 17.5792L4.21663 20.7042C3.9612 21.0871 4.06455 21.6046 4.44747 21.86C4.83038 22.1154 5.34787 22.0121 5.6033 21.6292L7.68663 18.5042C7.80932 18.3203 7.85393 18.0952 7.81064 17.8784C7.76735 17.6617 7.63971 17.471 7.4558 17.3483Z" />
<path d="M19.77 20.7042L17.6866 17.5792C17.5214 17.3315 17.2366 17.1907 16.9394 17.21C16.6423 17.2292 16.378 17.4055 16.2461 17.6725C16.1142 17.9394 16.1347 18.2565 16.3 18.5042L18.3833 21.6292C18.6387 22.0121 19.1562 22.1154 19.5391 21.86C19.9221 21.6046 20.0254 21.0871 19.77 20.7042Z" />
</svg>