<!--character:3319-->
  <svg width="24" height="24" viewBox="0 0 24 24" >
<path d="M18.66 14.5V5.75916C18.6577 3.68398 16.976 2.00229 14.9008 2H9.08583C7.01065 2.00229 5.32896 3.68398 5.32667 5.75916V14.5C5.32513 15.3894 5.95397 16.1552 6.82667 16.3267C8.52485 16.7076 10.2542 16.933 11.9933 17C13.7355 16.9328 15.468 16.7069 17.1692 16.325C18.0398 16.1534 18.6656 15.3873 18.66 14.5ZM12.8267 3.875C12.8267 3.75994 12.9199 3.66666 13.035 3.66666H14.9008C16.0561 3.66758 16.9924 4.60389 16.9933 5.75916V8.95C16.9934 9.0135 16.9645 9.07359 16.9149 9.11318C16.8652 9.15277 16.8002 9.16756 16.7383 9.15333C15.5178 8.8854 14.2755 8.72892 13.0267 8.68583C12.9151 8.68093 12.827 8.58921 12.8267 8.4775V3.875ZM9.08583 3.66666H10.9517C11.0667 3.66666 11.16 3.75994 11.16 3.875V8.4775C11.1597 8.58921 11.0716 8.68093 10.96 8.68583C9.71117 8.72892 8.46884 8.8854 7.24833 9.15333C7.18644 9.16756 7.12144 9.15277 7.07178 9.11318C7.02213 9.07359 6.99324 9.0135 6.99333 8.95V5.75916C6.99425 4.60389 7.93056 3.66758 9.08583 3.66666ZM8.45167 12.8333H7.20167C6.97155 12.8333 6.785 12.6468 6.785 12.4167V11.5833C6.785 11.3532 6.97155 11.1667 7.20167 11.1667H8.45167C8.9119 11.1667 9.285 11.5398 9.285 12C9.285 12.4602 8.9119 12.8333 8.45167 12.8333ZM13.685 15.4175C13.124 15.4915 12.5591 15.5329 11.9933 15.5417C11.4275 15.5327 10.8627 15.4909 10.3017 15.4167C10.197 15.4036 10.1184 15.3147 10.1183 15.2092V13.6667C10.1197 13.5522 10.2122 13.4597 10.3267 13.4583H13.66C13.7745 13.4597 13.867 13.5522 13.8683 13.6667V15.21C13.8683 15.3155 13.7897 15.4045 13.685 15.4175ZM16.785 12.8333H15.535C15.0748 12.8333 14.7017 12.4602 14.7017 12C14.7017 11.5398 15.0748 11.1667 15.535 11.1667H16.785C17.0151 11.1667 17.2017 11.3532 17.2017 11.5833V12.4167C17.2017 12.6468 17.0151 12.8333 16.785 12.8333Z" />
<path d="M7.45584 17.3483C7.27196 17.2256 7.04687 17.181 6.8301 17.2243C6.61333 17.2676 6.42265 17.3953 6.3 17.5792L4.21667 20.7042C3.96124 21.0871 4.06459 21.6046 4.4475 21.86C4.83042 22.1154 5.3479 22.0121 5.60334 21.6292L7.68667 18.5042C7.80936 18.3203 7.85397 18.0952 7.81068 17.8784C7.76738 17.6617 7.63974 17.471 7.45584 17.3483Z" />
<path d="M19.77 20.7042L17.6867 17.5792C17.5214 17.3315 17.2366 17.1907 16.9395 17.21C16.6423 17.2292 16.378 17.4055 16.2461 17.6725C16.1142 17.9394 16.1348 18.2565 16.3 18.5042L18.3833 21.6292C18.6388 22.0121 19.1563 22.1154 19.5392 21.86C19.9221 21.6046 20.0254 21.0871 19.77 20.7042Z" />
</svg>