<!-- character:0:2495 -->
  <svg width="20" height="20" viewBox="0 0 20 20" >
<path d="M3.51854 1.66675C2.49579 1.66675 1.66669 2.49585 1.66669 3.5186C1.66721 4.17968 2.0201 4.79035 2.59261 5.12089V13.0292C2.02066 13.3594 1.66785 13.9693 1.66669 14.6297C1.66669 15.6525 2.49579 16.4816 3.51854 16.4816C4.54129 16.4816 5.37039 15.6525 5.37039 14.6297C5.36987 13.9686 5.01698 13.358 4.44446 13.0274V10.463C4.44446 10.2075 4.65187 10.0001 4.90743 10.0001H8.61113C8.86669 10.0001 9.0741 10.2075 9.0741 10.463V13.0292C8.50214 13.3594 8.14934 13.9693 8.14817 14.6297C8.14817 15.6525 8.97727 16.4816 10 16.4816C11.0228 16.4816 11.8519 15.6525 11.8519 14.6297C11.8513 13.9686 11.4985 13.358 10.9259 13.0274V10.463C10.9259 10.2075 11.1334 10.0001 11.3889 10.0001H15.0926C15.3482 10.0001 15.5556 10.2075 15.5556 10.463V14.8811C14.9836 15.2113 14.6308 15.8211 14.6297 16.4816C14.6297 17.5043 15.4588 18.3334 16.4815 18.3334C17.5043 18.3334 18.3334 17.5043 18.3334 16.4816C18.3328 15.8205 17.9799 15.2098 17.4074 14.8793V5.11908C17.9794 4.78886 18.3322 4.17903 18.3334 3.5186C18.3334 2.49585 17.5043 1.66675 16.4815 1.66675C15.4588 1.66675 14.6297 2.49585 14.6297 3.5186C14.6302 4.17968 14.9831 4.79035 15.5556 5.12089V7.68527C15.5556 7.94082 15.3482 8.14823 15.0926 8.14823H11.3889C11.1334 8.14823 10.9259 7.94082 10.9259 7.68527V5.11908C11.4979 4.78886 11.8507 4.17903 11.8519 3.5186C11.8519 2.49585 11.0228 1.66675 10 1.66675C8.97727 1.66675 8.14817 2.49585 8.14817 3.5186C8.14869 4.17968 8.50158 4.79035 9.0741 5.12089V7.68527C9.0741 7.94082 8.86669 8.14823 8.61113 8.14823H4.90743C4.65187 8.14823 4.44446 7.94082 4.44446 7.68527V5.11908C5.01642 4.78886 5.36922 4.17903 5.37039 3.5186C5.37039 2.49585 4.54129 1.66675 3.51854 1.66675Z" />
</svg>