<!--character:108:550:833-->
  <svg width="24" height="24" viewBox="0 0 24 24" >
<path d="M4.22222 2C2.99492 2 2 2.99492 2 4.22222C2.00063 5.01552 2.4241 5.74832 3.11111 6.14497V15.635C2.42477 16.0312 2.0014 16.763 2 17.5556C2 18.7829 2.99492 19.7778 4.22222 19.7778C5.44952 19.7778 6.44444 18.7829 6.44444 17.5556C6.44382 16.7623 6.02035 16.0295 5.33333 15.6328V12.5556C5.33333 12.2489 5.58222 12 5.88889 12H10.3333C10.64 12 10.8889 12.2489 10.8889 12.5556V15.635C10.2025 16.0312 9.77918 16.763 9.77778 17.5556C9.77778 18.7829 10.7727 19.7778 12 19.7778C13.2273 19.7778 14.2222 18.7829 14.2222 17.5556C14.2216 16.7623 13.7981 16.0295 13.1111 15.6328V12.5556C13.1111 12.2489 13.36 12 13.6667 12H18.1111C18.4178 12 18.6667 12.2489 18.6667 12.5556V17.8572C17.9803 18.2535 17.557 18.9853 17.5556 19.7778C17.5556 21.0051 18.5505 22 19.7778 22C21.0051 22 22 21.0051 22 19.7778C21.9994 18.9845 21.5759 18.2517 20.8889 17.855V6.1428C21.5752 5.74654 21.9986 5.01474 22 4.22222C22 2.99492 21.0051 2 19.7778 2C18.5505 2 17.5556 2.99492 17.5556 4.22222C17.5562 5.01552 17.9797 5.74832 18.6667 6.14497V9.22222C18.6667 9.52889 18.4178 9.77778 18.1111 9.77778H13.6667C13.36 9.77778 13.1111 9.52889 13.1111 9.22222V6.1428C13.7975 5.74654 14.2208 5.01474 14.2222 4.22222C14.2222 2.99492 13.2273 2 12 2C10.7727 2 9.77778 2.99492 9.77778 4.22222C9.77841 5.01552 10.2019 5.74832 10.8889 6.14497V9.22222C10.8889 9.52889 10.64 9.77778 10.3333 9.77778H5.88889C5.58222 9.77778 5.33333 9.52889 5.33333 9.22222V6.1428C6.01968 5.74654 6.44304 5.01474 6.44444 4.22222C6.44444 2.99492 5.44952 2 4.22222 2Z" />
</svg>