<!--character:5039-->
  <svg width="20" height="20" viewBox="0 0 20 20" >
<path d="M3.51836 1.66666C2.49561 1.66666 1.6665 2.49577 1.6665 3.51852C1.66703 4.1796 2.01992 4.79026 2.59243 5.1208V13.0292C2.02048 13.3594 1.66767 13.9692 1.6665 14.6296C1.6665 15.6524 2.49561 16.4815 3.51836 16.4815C4.54111 16.4815 5.37021 15.6524 5.37021 14.6296C5.36968 13.9685 5.01679 13.3579 4.44428 13.0273V10.463C4.44428 10.2074 4.65169 10 4.90724 10H8.61095C8.8665 10 9.07391 10.2074 9.07391 10.463V13.0292C8.50196 13.3594 8.14915 13.9692 8.14799 14.6296C8.14799 15.6524 8.97709 16.4815 9.99984 16.4815C11.0226 16.4815 11.8517 15.6524 11.8517 14.6296C11.8512 13.9685 11.4983 13.3579 10.9258 13.0273V10.463C10.9258 10.2074 11.1332 10 11.3887 10H15.0924C15.348 10 15.5554 10.2074 15.5554 10.463V14.881C14.9834 15.2112 14.6306 15.821 14.6295 16.4815C14.6295 17.5042 15.4586 18.3333 16.4813 18.3333C17.5041 18.3333 18.3332 17.5042 18.3332 16.4815C18.3326 15.8204 17.9798 15.2097 17.4072 14.8792V5.11899C17.9792 4.78878 18.332 4.17895 18.3332 3.51852C18.3332 2.49577 17.5041 1.66666 16.4813 1.66666C15.4586 1.66666 14.6295 2.49577 14.6295 3.51852C14.63 4.1796 14.9829 4.79026 15.5554 5.1208V7.68518C15.5554 7.94074 15.348 8.14815 15.0924 8.14815H11.3887C11.1332 8.14815 10.9258 7.94074 10.9258 7.68518V5.11899C11.4977 4.78878 11.8505 4.17895 11.8517 3.51852C11.8517 2.49577 11.0226 1.66666 9.99984 1.66666C8.97709 1.66666 8.14799 2.49577 8.14799 3.51852C8.14851 4.1796 8.5014 4.79026 9.07391 5.1208V7.68518C9.07391 7.94074 8.8665 8.14815 8.61095 8.14815H4.90724C4.65169 8.14815 4.44428 7.94074 4.44428 7.68518V5.11899C5.01624 4.78878 5.36904 4.17895 5.37021 3.51852C5.37021 2.49577 4.54111 1.66666 3.51836 1.66666Z" />
</svg>