<!--character:8486-->
  <svg width="24" height="24" viewBox="0 0 24 24" >
<path d="M4.22221 2.00001C2.99491 2.00001 1.99999 2.99493 1.99999 4.22223C2.00062 5.01552 2.42408 5.74832 3.1111 6.14497V15.635C2.42475 16.0312 2.00139 16.763 1.99999 17.5556C1.99999 18.7829 2.99491 19.7778 4.22221 19.7778C5.44951 19.7778 6.44443 18.7829 6.44443 17.5556C6.44381 16.7623 6.02034 16.0295 5.33332 15.6328V12.5556C5.33332 12.2489 5.58221 12 5.88888 12H10.3333C10.64 12 10.8889 12.2489 10.8889 12.5556V15.635C10.2025 16.0312 9.77917 16.763 9.77777 17.5556C9.77777 18.7829 10.7727 19.7778 12 19.7778C13.2273 19.7778 14.2222 18.7829 14.2222 17.5556C14.2216 16.7623 13.7981 16.0295 13.1111 15.6328V12.5556C13.1111 12.2489 13.36 12 13.6667 12H18.1111C18.4178 12 18.6667 12.2489 18.6667 12.5556V17.8572C17.9803 18.2535 17.5569 18.9853 17.5555 19.7778C17.5555 21.0051 18.5505 22 19.7778 22C21.0051 22 22 21.0051 22 19.7778C21.9994 18.9845 21.5759 18.2517 20.8889 17.855V6.1428C21.5752 5.74654 21.9986 5.01475 22 4.22223C22 2.99493 21.0051 2.00001 19.7778 2.00001C18.5505 2.00001 17.5555 2.99493 17.5555 4.22223C17.5562 5.01552 17.9796 5.74832 18.6667 6.14497V9.22223C18.6667 9.5289 18.4178 9.77778 18.1111 9.77778H13.6667C13.36 9.77778 13.1111 9.5289 13.1111 9.22223V6.1428C13.7974 5.74654 14.2208 5.01475 14.2222 4.22223C14.2222 2.99493 13.2273 2.00001 12 2.00001C10.7727 2.00001 9.77777 2.99493 9.77777 4.22223C9.77839 5.01552 10.2019 5.74832 10.8889 6.14497V9.22223C10.8889 9.5289 10.64 9.77778 10.3333 9.77778H5.88888C5.58221 9.77778 5.33332 9.5289 5.33332 9.22223V6.1428C6.01967 5.74654 6.44303 5.01475 6.44443 4.22223C6.44443 2.99493 5.44951 2.00001 4.22221 2.00001Z" />
</svg>