<!--character:6850-->
  <svg width="24" height="24" viewBox="0 0 24 24" >
<path d="M4.22203 2C2.99473 2 1.9998 2.99492 1.9998 4.22222C2.00043 5.01551 2.4239 5.74831 3.11092 6.14496V15.635C2.42457 16.0312 2.00121 16.763 1.9998 17.5556C1.9998 18.7829 2.99473 19.7778 4.22203 19.7778C5.44933 19.7778 6.44425 18.7829 6.44425 17.5556C6.44362 16.7623 6.02015 16.0295 5.33314 15.6328V12.5556C5.33314 12.2489 5.58203 12 5.88869 12H10.3331C10.6398 12 10.8887 12.2489 10.8887 12.5556V15.635C10.2024 16.0312 9.77898 16.763 9.77758 17.5556C9.77758 18.7829 10.7725 19.7778 11.9998 19.7778C13.2271 19.7778 14.222 18.7829 14.222 17.5556C14.2214 16.7623 13.7979 16.0295 13.1109 15.6328V12.5556C13.1109 12.2489 13.3598 12 13.6665 12H18.1109C18.4176 12 18.6665 12.2489 18.6665 12.5556V17.8572C17.9801 18.2535 17.5568 18.9853 17.5554 19.7778C17.5554 21.0051 18.5503 22 19.7776 22C21.0049 22 21.9998 21.0051 21.9998 19.7778C21.9992 18.9845 21.5757 18.2517 20.8887 17.855V6.14279C21.575 5.74653 21.9984 5.01474 21.9998 4.22222C21.9998 2.99492 21.0049 2 19.7776 2C18.5503 2 17.5554 2.99492 17.5554 4.22222C17.556 5.01551 17.9795 5.74831 18.6665 6.14496V9.22222C18.6665 9.52889 18.4176 9.77777 18.1109 9.77777H13.6665C13.3598 9.77777 13.1109 9.52889 13.1109 9.22222V6.14279C13.7973 5.74653 14.2206 5.01474 14.222 4.22222C14.222 2.99492 13.2271 2 11.9998 2C10.7725 2 9.77758 2.99492 9.77758 4.22222C9.77821 5.01551 10.2017 5.74831 10.8887 6.14496V9.22222C10.8887 9.52889 10.6398 9.77777 10.3331 9.77777H5.88869C5.58203 9.77777 5.33314 9.52889 5.33314 9.22222V6.14279C6.01948 5.74653 6.44285 5.01474 6.44425 4.22222C6.44425 2.99492 5.44933 2 4.22203 2Z" />
</svg>