<!-- character:0:1551 -->
  <svg width="20" height="20" viewBox="0 0 20 20" >
<path   d="M9.99996 1.66675C7.28418 1.66675 4.87387 2.98124 3.3512 5.00008H3.33329V5.02287C2.29159 6.41399 1.66663 8.13374 1.66663 10.0001C1.66663 14.5926 5.40746 18.3334 9.99996 18.3334C14.5925 18.3334 18.3333 14.5926 18.3333 10.0001C18.3333 5.40758 14.5925 1.66675 9.99996 1.66675ZM13.0531 4.59727C13.8109 4.59727 16.7615 7.14643 16.6666 10.0001C16.6088 11.7387 16.0004 13.3153 14.9153 14.5004C14.3433 15.1251 14.281 14.8912 14.1674 14.4647C14.0655 14.0822 13.9224 13.5449 13.3333 13.3334C13.3333 13.3334 12.8724 13.314 12.6544 12.9058C12.4364 12.4975 12.5 11.2639 12.5 11.2639C12.5 10.6316 12.1537 10.0001 11.268 10.0001H8.12719C7.75695 10.0001 7.56385 9.45306 7.66531 8.92045C7.76677 8.38785 8.33329 8.33342 8.33329 8.33342C8.79329 8.33342 9.16663 7.96008 9.16663 7.50008C9.16663 7.50008 9.242 6.65838 9.5944 6.30174C9.9468 5.94511 10.8753 5.87019 10.8753 5.87019L10.998 5.86189C11.986 5.79555 12.5 5.76103 12.5 4.87612C12.5 4.72582 12.5636 4.61969 13.0531 4.59727ZM4.91378 9.98877C4.62207 9.34467 4.27121 8.56997 3.90195 8.56997C3.37839 8.56997 3.33329 9.48524 3.33329 10.0001C3.33329 13.409 5.87144 16.201 9.16663 16.6098C9.83229 16.6708 9.8793 14.9733 8.9791 14.8171C8.0789 14.6608 7.49996 14.3344 7.49996 13.3334C7.49996 13.3334 7.48613 12.4326 7.28239 12.1609C7.20084 12.0522 6.91169 11.8759 6.5728 11.6694C6.06498 11.3598 5.44546 10.9822 5.24549 10.6617C5.14723 10.5042 5.03566 10.2579 4.91378 9.98877Z" />
</svg>