<!--character:99:550:682-->
<svg width="24" height="24" viewBox="0 0 24 24" xmlns="http://www.w3.org/2000/svg"><path d="M12 2C8.741068 2 5.84869 3.577387 4.021484 6H4v.027344C2.749953 7.696694 2 9.760385 2 12c0 5.511003 4.488997 10 10 10s10-4.488997 10-10S17.511003 2 12 2zm3.66373 3.516623C16.573172 5.516623 20.11385 8.575617 20 12c-.069364 2.086321-.799413 3.978318-2.101562 5.400391C16.596289 18.822464 17.495193 16.536672 16 16c-.368735-.015525-.640288-.186588-.814657-.51319-.17437-.326601-.236151-.98333-.185343-1.970187C15 12.757828 14.584447 12 13.521617 12H9.752673c-.444288 0-.676-.656424-.554252-1.295554.081167-.426087.34836-.660902.801579-.704446.552 0 1-.448 1-1 .060303-.673363.231415-1.152698.513334-1.438005.281919-.285307.79429-.45793 1.537112-.517867C14.332107 6.956242 15 6.956242 15 5.851242c0-.180359.07637-.307709.66373-.334619zM4.68239 10.283871c.628267 0 1.21213 1.868821 1.612244 2.510085.400113.641264 2.199785 1.473054 2.444279 1.799045C8.901907 14.810328 8.988937 15.279328 9 16c0 1.201164.694732 1.59291 1.774968 1.780415 1.080236.187504 1.023827 2.224457.225032 2.151226C7.045772 19.441154 4 16.090654 4 12c0-.617812.054121-1.716129.682389-1.716129z"/></svg>
