<!--character:3024:2911-->
<svg width="24" height="24" viewBox="0 0 24 24">
  <path d="M12.0004 2C8.74146 2 5.84908 3.57738 4.02188 6H4.00039V6.02734C2.75034 7.69669 2.00039 9.76038 2.00039 12C2.00039 17.511 6.48939 22 12.0004 22C17.5114 22 22.0004 17.511 22.0004 12C22.0004 6.48899 17.5114 2 12.0004 2ZM15.6641 5.51662C16.5736 5.51662 20.1142 8.57561 20.0004 12C19.931 14.0863 19.201 15.9783 17.8988 17.4004C17.2124 18.1501 17.1376 17.8693 17.0013 17.3576C16.8791 16.8986 16.7074 16.2538 16.0004 16C16.0004 16 15.4473 15.9767 15.1857 15.4868C14.9242 14.9969 15.0004 13.5166 15.0004 13.5166C15.0004 12.7578 14.5848 12 13.522 12H9.75306C9.30877 12 9.07706 11.3436 9.19881 10.7044C9.32056 10.0653 10.0004 10 10.0004 10C10.5524 10 11.0004 9.552 11.0004 9C11.0004 9 11.0908 7.98995 11.5137 7.56199C11.9366 7.13403 13.0508 7.04413 13.0508 7.04413L13.198 7.03417C14.3836 6.95456 15.0004 6.91314 15.0004 5.85124C15.0004 5.67088 15.0768 5.54353 15.6641 5.51662ZM5.89697 11.9864C6.04324 12.3094 6.17711 12.605 6.29502 12.794C6.535 13.1786 7.27841 13.6317 7.8878 14.0031C8.29447 14.251 8.64145 14.4625 8.7393 14.593C8.9838 14.919 9.00039 16 9.00039 16C9.00039 17.2012 9.69512 17.5929 10.7754 17.7804C11.8556 17.9679 11.7992 20.0049 11.0004 19.9316C7.04616 19.4412 4.00039 16.0907 4.00039 12C4.00039 11.3822 4.05451 10.2839 4.68278 10.2839C5.1259 10.2839 5.54692 11.2135 5.89697 11.9864Z" />
</svg>
