<!--character:5730-->
  <svg width="24" height="24" viewBox="0 0 24 24" >
<path d="M12 2C8.74107 2 5.84869 3.57739 4.02148 6H4V6.02734C2.74995 7.69669 2 9.76039 2 12C2 17.511 6.489 22 12 22C17.511 22 22 17.511 22 12C22 6.489 17.511 2 12 2ZM15.6637 5.51662C16.5732 5.51662 20.1139 8.57561 20 12C19.9306 14.0863 19.2006 15.9783 17.8985 17.4004C17.212 18.15 17.1372 17.8693 17.001 17.3576C16.8787 16.8986 16.707 16.2538 16 16C16 16 15.4469 15.9767 15.1854 15.4868C14.9238 14.9969 15 13.5166 15 13.5166C15 12.7578 14.5845 12 13.5216 12H9.75268C9.3084 12 9.07668 11.3436 9.19843 10.7044C9.32018 10.0653 10 9.99999 10 9.99999C10.552 9.99999 11 9.55199 11 8.99999C11 8.99999 11.0905 7.98995 11.5133 7.56199C11.9362 7.13403 13.0505 7.04412 13.0505 7.04412L13.1976 7.03417C14.3832 6.95456 15 6.91314 15 5.85124C15 5.67088 15.0764 5.54353 15.6637 5.51662ZM5.89658 11.9864C6.04285 12.3094 6.17672 12.605 6.29463 12.794C6.53461 13.1786 7.27802 13.6317 7.88741 14.0032C8.29408 14.251 8.64106 14.4625 8.73891 14.593C8.98341 14.919 9 16 9 16C9 17.2012 9.69473 17.5929 10.775 17.7804C11.8552 17.9679 11.7988 20.0049 11 19.9317C7.04577 19.4412 4 16.0907 4 12C4 11.3822 4.05412 10.2839 4.68239 10.2839C5.1255 10.2839 5.54653 11.2135 5.89658 11.9864Z" />
</svg>