<!--character:5536-->
  <svg width="20" height="20" viewBox="0 0 20 20" >
<path d="M10.0003 1.66666C7.28455 1.66666 4.87423 2.98115 3.35156 5H3.33366V5.02278C2.29195 6.41391 1.66699 8.13365 1.66699 10C1.66699 14.5925 5.40782 18.3333 10.0003 18.3333C14.5928 18.3333 18.3337 14.5925 18.3337 10C18.3337 5.4075 14.5928 1.66666 10.0003 1.66666ZM13.0534 4.59718C13.8113 4.59718 16.7619 7.14635 16.667 10C16.6092 11.7386 16.0008 13.3153 14.9157 14.5003C14.3437 15.125 14.2813 14.8911 14.1678 14.4646C14.0659 14.0821 13.9228 13.5448 13.3337 13.3333C13.3337 13.3333 12.8727 13.3139 12.6548 12.9057C12.4368 12.4974 12.5003 11.2639 12.5003 11.2639C12.5003 10.6315 12.154 10 11.2683 10H8.12755C7.75731 10 7.56422 9.45298 7.66568 8.92037C7.76713 8.38776 8.33366 8.33333 8.33366 8.33333C8.79366 8.33333 9.16699 7.96 9.16699 7.5C9.16699 7.5 9.24237 6.65829 9.59477 6.30166C9.94717 5.94503 10.8757 5.8701 10.8757 5.8701L10.9983 5.86181C11.9863 5.79546 12.5003 5.76095 12.5003 4.87603C12.5003 4.72573 12.564 4.61961 13.0534 4.59718ZM4.91414 9.98869C5.03603 10.2578 5.14759 10.5041 5.24585 10.6616C5.44583 10.9821 6.06534 11.3597 6.57317 11.6693C6.91206 11.8759 7.20121 12.0521 7.28275 12.1608C7.4865 12.4325 7.50033 13.3333 7.50033 13.3333C7.50033 14.3343 8.07927 14.6608 8.97947 14.817C9.87966 14.9733 9.83265 16.6707 9.16699 16.6097C5.8718 16.201 3.33366 13.4089 3.33366 10C3.33366 9.48515 3.37876 8.56989 3.90232 8.56989C4.27158 8.56989 4.62244 9.34459 4.91414 9.98869Z" />
</svg>