<!--character:564-->
  <svg width="24" height="24" viewBox="0 0 24 24" >
<path   d="M8.18176 7.99417C8.66405 7.87392 9.1525 8.16741 9.27275 8.6497L9.68626 10.3082L15.6135 10.312C16.1105 10.3123 16.5132 10.7155 16.5129 11.2125C16.5126 11.7096 16.1094 12.1123 15.6123 12.112L8.98243 12.1078C8.56945 12.1075 8.20964 11.8262 8.10973 11.4255L7.52622 9.08516C7.40597 8.60287 7.69946 8.11442 8.18176 7.99417Z" />
<path   d="M11.3995 7.20421C11.8818 7.08396 12.3702 7.37745 12.4905 7.85975L13.2685 10.9802C13.3888 11.4625 13.0953 11.9509 12.613 12.0712C12.1307 12.1914 11.6422 11.8979 11.522 11.4156L10.744 8.29521C10.6237 7.81291 10.9172 7.32446 11.3995 7.20421Z" />
<path   d="M5.80067 15.28C5.80067 14.7829 6.20361 14.38 6.70067 14.38H8.80659C9.30365 14.38 9.70659 14.7829 9.70659 15.28C9.70659 15.777 9.30365 16.18 8.80659 16.18H6.70067C6.20361 16.18 5.80067 15.777 5.80067 15.28Z" />
<path   d="M10.9094 15.28C10.9094 14.7829 11.3124 14.38 11.8094 14.38H16.9037C17.4007 14.38 17.8037 14.7829 17.8037 15.28C17.8037 15.777 17.4007 16.18 16.9037 16.18H11.8094C11.3124 16.18 10.9094 15.777 10.9094 15.28Z" />
<path   d="M1.95513 6.08596C1.95513 4.3297 3.37886 2.90596 5.13513 2.90596H18.8873C20.6435 2.90596 22.0673 4.3297 22.0673 6.08596V17.9527C22.0673 19.7089 20.6435 21.1327 18.8873 21.1327H5.13513C3.37886 21.1327 1.95513 19.7089 1.95513 17.9527V6.08596ZM5.13513 4.70596C4.37297 4.70596 3.75513 5.32381 3.75513 6.08596V17.9527C3.75513 18.7148 4.37297 19.3327 5.13513 19.3327H18.8873C19.6494 19.3327 20.2673 18.7148 20.2673 17.9527V6.08596C20.2673 5.32381 19.6494 4.70596 18.8873 4.70596H5.13513Z" />
</svg>