<!--character:6116-->
  <svg width="20" height="20" viewBox="0 0 20 20" >
<path d="M16.1622 3.90092C16.7793 3.84844 17.5814 3.50622 18.0539 3.26784C18.2069 3.18466 18.3599 3.10147 18.5129 3.01829C18.2434 3.74237 17.8778 4.30902 17.3148 4.73889C17.1899 4.83435 17.0661 4.96331 16.9098 5.02417C17.7113 5.02472 18.3717 4.66631 19 4.47148C18.6698 5.00072 18.2237 5.52829 17.7473 5.9068C17.5555 6.05809 17.3631 6.20994 17.1707 6.36123C17.1814 7.20366 17.1584 8.00702 16.9998 8.71491C16.0773 12.8288 13.6338 15.6219 9.76544 16.8182C8.37606 17.2476 6.13169 17.424 4.54037 17.0321C3.75119 16.8372 3.03794 16.6178 2.36913 16.3275C1.99731 16.1667 1.65306 15.992 1.324 15.7927C1.216 15.7274 1.10744 15.6621 1 15.5967C1.35888 15.6073 1.7785 15.7056 2.18012 15.6414C2.54294 15.5828 2.899 15.5984 3.23369 15.5253C4.06956 15.3438 4.81094 15.1032 5.44994 14.732C5.75987 14.5522 6.23012 14.3406 6.45006 14.081C6.0355 14.0888 5.65919 13.9928 5.35094 13.8851C4.15619 13.4664 3.46094 12.6971 3.00869 11.5403C3.37037 11.58 4.41325 11.6732 4.65738 11.4694C4.20119 11.4443 3.76356 11.1825 3.45025 10.9882C2.4895 10.3914 1.70537 9.39042 1.71156 7.85014C1.83756 7.90988 1.96356 7.96906 2.09012 8.02823C2.33087 8.12928 2.57669 8.18343 2.86469 8.24205C2.98619 8.26717 3.22919 8.33808 3.36869 8.28671C3.16506 8.07178 2.86244 7.92886 2.67513 7.69829C2.05862 6.93793 1.48094 5.76723 1.84656 4.37322C1.93937 4.01983 2.08619 3.7072 2.24312 3.41913C2.33256 3.57768 2.49287 3.6871 2.59412 3.8116C2.90912 4.19904 3.29781 4.5474 3.69325 4.85501C5.04212 5.90177 6.25656 6.54434 8.20675 7.02111C8.70175 7.1417 9.27381 7.23381 9.86444 7.23493C9.6985 6.75537 9.75194 5.97881 9.88244 5.51433C10.2115 4.34642 10.9253 3.5051 11.9727 3.05402C12.223 2.94627 12.5009 2.86756 12.7922 2.80447C12.943 2.78661 13.0926 2.76874 13.2428 2.75088C14.6732 2.72576 15.4349 3.24327 16.1622 3.90092Z" />
</svg>