<!--character:3571-->
  <svg width="24" height="24" viewBox="0 0 24 24" >
<path d="M19.3946 4.6811C20.1351 4.61813 21.0977 4.20747 21.6647 3.92141C21.8483 3.82159 22.0318 3.72177 22.2154 3.62195C21.8921 4.49084 21.4534 5.17082 20.7777 5.68667C20.6278 5.80122 20.4794 5.95598 20.2917 6.029C21.2536 6.02967 22.046 5.59958 22.8 5.36577C22.4038 6.00086 21.8685 6.63394 21.2968 7.08815C21.0666 7.26971 20.8357 7.45193 20.6049 7.63348C20.6177 8.6444 20.59 9.60842 20.3997 10.4579C19.2927 15.3946 16.3605 18.7462 11.7185 20.1819C10.0513 20.6971 7.35803 20.9088 5.44845 20.4385C4.50143 20.2047 3.64552 19.9414 2.84295 19.593C2.39677 19.4001 1.98368 19.1904 1.5888 18.9512C1.4592 18.8729 1.32892 18.7945 1.2 18.7161C1.63065 18.7288 2.1342 18.8467 2.61615 18.7697C3.05153 18.6993 3.4788 18.7181 3.88042 18.6303C4.88347 18.4126 5.77312 18.1239 6.53992 17.6784C6.91185 17.4627 7.47615 17.2088 7.74008 16.8972C7.2426 16.9066 6.79102 16.7914 6.42112 16.6621C4.98742 16.1596 4.15312 15.2365 3.61042 13.8484C4.04445 13.896 5.2959 14.0078 5.58885 13.7633C5.04143 13.7332 4.51627 13.419 4.1403 13.1858C2.9874 12.4697 2.04645 11.2685 2.05388 9.42017C2.20508 9.49186 2.35627 9.56287 2.50815 9.63388C2.79705 9.75514 3.09202 9.82012 3.43762 9.89046C3.58342 9.92061 3.87502 10.0057 4.04242 9.94406C3.79807 9.68613 3.43492 9.51463 3.21015 9.23795C2.47035 8.32551 1.77713 6.92067 2.21588 5.24786C2.32725 4.8238 2.50342 4.44864 2.69175 4.10296C2.79907 4.29322 2.99145 4.42452 3.11295 4.57392C3.49095 5.03885 3.95738 5.45688 4.4319 5.82601C6.05055 7.08212 7.50787 7.85321 9.8481 8.42533C10.4421 8.57004 11.1286 8.68057 11.8373 8.68191C11.6382 8.10645 11.7023 7.17458 11.8589 6.6172C12.2538 5.21571 13.1104 4.20613 14.3672 3.66482C14.6676 3.53553 15.001 3.44107 15.3507 3.36537C15.5316 3.34393 15.7111 3.32249 15.8914 3.30105C17.6079 3.27091 18.5219 3.89193 19.3946 4.6811Z" />
</svg>