<!--category:social-->
<!--character:E131-->
<svg width="24" height="24" viewBox="0 0 24 24" xmlns="http://www.w3.org/2000/svg"><path d="M17.466 6.177c.5999-.0505 1.3797-.3806 1.839-.6105l.4463-.2407c-.262.6984-.6174 1.2449-1.1648 1.6595-.1214.092-.2417.2165-.3938.2752.7793.0005 1.4214-.3452 2.0322-.5331-.321.5104-.7547 1.0193-1.2179 1.3844-.1865.1459-.3735.2924-.5605.4383.0104.8125-.012 1.5874-.1663 2.2701-.8968 3.968-3.2725 6.6619-7.0333 7.8158-1.3508.414-3.5328.5842-5.08.2062-.7672-.1879-1.4607-.3995-2.1109-.6795-.3615-.155-.6962-.3236-1.016-.5159-.105-.063-.2106-.126-.315-.189.3488.0103.7568.105 1.1473.0431.3527-.0565.6989-.0414 1.0243-.112.8126-.175 1.5334-.407 2.1546-.7651.3014-.1734.7586-.3775.9724-.6279-.403.0076-.769-.085-1.0686-.189-1.1616-.4038-1.8375-1.1458-2.2772-2.2615.3517.0382 1.3656.1281 1.6029-.0684-.4435-.0242-.869-.2768-1.1736-.4642-.934-.5756-1.6964-1.541-1.6904-3.0266.1225.0576.245.1146.368.1717.2341.0975.4731.1497.7531.2063.1181.0242.3544.0926.49.043-.198-.2073-.4922-.3451-.6743-.5675-.5994-.7334-1.161-1.8625-.8055-3.207.0902-.341.233-.6425.3855-.9203.087.153.2428.2584.3413.3785.3062.3737.6841.7097 1.0686 1.0064 1.3114 1.0096 2.492 1.6294 4.388 2.0892.4813.1163 1.0375.2052 1.6117.2063-.1613-.4626-.1093-1.2116.0175-1.6596.32-1.1264 1.014-1.9379 2.0322-2.373.2434-.1039.5135-.1798.7968-.2407.1466-.0172.292-.0344.438-.0517 1.3908-.0242 2.1312.475 2.8383 1.1093z"/></svg>