<!-- character:0:2557 -->
  <svg width="20" height="20" viewBox="0 0 20 20" >
<path   d="M14.5549 5.14752C15.0549 5.10534 15.7048 4.83028 16.0876 4.63868C16.2115 4.57182 16.3355 4.50496 16.4594 4.4381C16.2411 5.02009 15.9449 5.47554 15.4887 5.82105C15.3876 5.89778 15.2873 6.00143 15.1606 6.05034C15.81 6.05079 16.3451 5.76272 16.8541 5.60611C16.5866 6.0315 16.2252 6.45554 15.8392 6.75977C15.6838 6.88137 15.5279 7.00342 15.3721 7.12502C15.3807 7.80214 15.362 8.44784 15.2335 9.01682C14.4861 12.3234 12.5064 14.5684 9.3724 15.53C8.24675 15.875 6.42839 16.0168 5.13913 15.7018C4.49974 15.5452 3.92188 15.3689 3.38001 15.1355C3.07878 15.0063 2.79987 14.8659 2.53327 14.7057C2.44577 14.6532 2.35781 14.6007 2.27077 14.5482C2.56152 14.5567 2.9015 14.6357 3.22689 14.5841C3.52083 14.5369 3.80931 14.5495 4.08047 14.4907C4.75768 14.3449 5.35833 14.1515 5.87604 13.8531C6.12715 13.7086 6.50814 13.5386 6.68633 13.3299C6.35046 13.3362 6.04557 13.259 5.79583 13.1724C4.82786 12.8359 4.26458 12.2175 3.89818 11.2878C4.19121 11.3196 5.03613 11.3946 5.23392 11.2308C4.86432 11.2106 4.50977 11.0002 4.25592 10.844C3.47754 10.3643 2.84225 9.55977 2.84727 8.32175C2.94935 8.36977 3.05143 8.41733 3.15397 8.4649C3.34902 8.54611 3.54818 8.58964 3.78151 8.63675C3.87995 8.65695 4.07682 8.71393 4.18984 8.67265C4.02487 8.4999 3.77969 8.38502 3.62793 8.1997C3.12845 7.58855 2.66042 6.64759 2.95664 5.52714C3.03184 5.2431 3.15078 4.99182 3.27793 4.76028C3.35039 4.88772 3.48027 4.97566 3.5623 5.07573C3.81751 5.38714 4.13242 5.66714 4.4528 5.91438C5.54564 6.75573 6.52956 7.2722 8.10957 7.65541C8.51061 7.75233 8.97409 7.82637 9.4526 7.82727C9.31816 7.44182 9.36146 6.81765 9.46719 6.44432C9.73379 5.5056 10.3121 4.82938 11.1607 4.46682C11.3635 4.38022 11.5886 4.31695 11.8247 4.26624C11.9468 4.25188 12.068 4.23752 12.1897 4.22316C13.3486 4.20297 13.9657 4.61893 14.5549 5.14752Z" />
</svg>