<!--character:49:550:59-->
  <svg width="24" height="24" viewBox="0 0 24 24" >
<path   d="M17.4659 6.17708C18.0659 6.12646 18.8457 5.79638 19.3051 5.56646C19.4538 5.48623 19.6026 5.406 19.7513 5.32577C19.4894 6.02415 19.1339 6.57069 18.5865 6.98531C18.4651 7.07739 18.3448 7.20177 18.1927 7.26046C18.972 7.261 19.6141 6.91531 20.2249 6.72738C19.9039 7.23785 19.4702 7.74669 19.007 8.11177C18.8205 8.25769 18.6335 8.40415 18.4465 8.55008C18.4569 9.36262 18.4345 10.1375 18.2802 10.8202C17.3834 14.7882 15.0077 17.4821 11.2469 18.636C9.89609 19.0501 7.71406 19.2202 6.16695 18.8422C5.39969 18.6543 4.70625 18.4427 4.05602 18.1627C3.69453 18.0076 3.35984 17.8391 3.03992 17.6468C2.93492 17.5838 2.82937 17.5208 2.72492 17.4578C3.07383 17.4681 3.4818 17.5628 3.87227 17.5009C4.225 17.4444 4.57117 17.4595 4.89656 17.3889C5.70922 17.2139 6.43 16.9818 7.05125 16.6238C7.35258 16.4504 7.80977 16.2463 8.02359 15.9959C7.62055 16.0035 7.25469 15.9108 6.955 15.8069C5.79344 15.4031 5.1175 14.6611 4.67781 13.5454C5.02945 13.5836 6.04336 13.6735 6.2807 13.477C5.83719 13.4528 5.41172 13.2002 5.10711 13.0128C4.17305 12.4372 3.4107 11.4718 3.41672 9.98616C3.53922 10.0438 3.66172 10.1008 3.78477 10.1579C4.01883 10.2554 4.25781 10.3076 4.53781 10.3642C4.65594 10.3884 4.89219 10.4568 5.02781 10.4072C4.82984 10.1999 4.53562 10.0621 4.35352 9.83969C3.75414 9.10631 3.1925 7.97715 3.54797 6.63262C3.6382 6.29177 3.78094 5.99023 3.93352 5.71238C4.02047 5.86531 4.17633 5.97085 4.27477 6.09092C4.58102 6.46462 4.95891 6.80062 5.34336 7.09731C6.65477 8.10692 7.83547 8.72669 9.73148 9.18654C10.2127 9.30285 10.7689 9.39169 11.3431 9.39277C11.1818 8.93023 11.2338 8.18123 11.3606 7.73323C11.6805 6.60677 12.3745 5.79531 13.3928 5.36023C13.6362 5.25631 13.9063 5.18038 14.1896 5.11954C14.3362 5.10231 14.4816 5.08508 14.6277 5.06785C16.0184 5.04362 16.7588 5.54277 17.4659 6.17708Z" />
</svg>