<!--character:22:550:59-->
  <svg width="24" height="24" viewBox="0 0 24 24" >
<path d="M17.4659 6.17697C18.0659 6.12636 18.8457 5.79628 19.3051 5.56636C19.4538 5.48613 19.6026 5.40589 19.7513 5.32566C19.4894 6.02405 19.1339 6.57059 18.5865 6.9852C18.4651 7.07728 18.3448 7.20166 18.1927 7.26036C18.972 7.2609 19.6141 6.9152 20.2249 6.72728C19.9039 7.23774 19.4702 7.74659 19.007 8.11166C18.8205 8.25759 18.6335 8.40405 18.4465 8.54997C18.4569 9.36251 18.4344 10.1374 18.2802 10.8201C17.3834 14.7881 15.0077 17.482 11.2469 18.6359C9.89609 19.05 7.71406 19.2201 6.16695 18.8421C5.39968 18.6542 4.70624 18.4426 4.05601 18.1626C3.69452 18.0075 3.35984 17.839 3.03991 17.6467C2.93491 17.5837 2.82937 17.5207 2.72491 17.4577C3.07382 17.468 3.48179 17.5627 3.87226 17.5008C4.22499 17.4443 4.57116 17.4594 4.89656 17.3888C5.70921 17.2138 6.42999 16.9817 7.05124 16.6237C7.35257 16.4503 7.80976 16.2462 8.02359 15.9958C7.62054 16.0034 7.25468 15.9107 6.95499 15.8068C5.79343 15.403 5.11749 14.661 4.67781 13.5453C5.02945 13.5835 6.04335 13.6734 6.2807 13.4769C5.83718 13.4527 5.41171 13.2001 5.1071 13.0127C4.17304 12.4371 3.4107 11.4717 3.41671 9.98605C3.53921 10.0437 3.66171 10.1007 3.78476 10.1578C4.01882 10.2553 4.25781 10.3075 4.53781 10.364C4.65593 10.3883 4.89218 10.4567 5.02781 10.4071C4.82984 10.1998 4.53562 10.062 4.35351 9.83959C3.75413 9.1062 3.19249 7.97705 3.54796 6.63251C3.6382 6.29166 3.78093 5.99013 3.93351 5.71228C4.02046 5.8652 4.17632 5.97074 4.27476 6.09082C4.58101 6.46451 4.9589 6.80051 5.34335 7.0972C6.65476 8.10682 7.83546 8.72659 9.73148 9.18643C10.2127 9.30274 10.7689 9.39159 11.3431 9.39266C11.1818 8.93013 11.2337 8.18113 11.3606 7.73313C11.6805 6.60666 12.3745 5.7952 13.3928 5.36013C13.6362 5.2562 13.9063 5.18028 14.1896 5.11943C14.3362 5.1022 14.4816 5.08497 14.6276 5.06774C16.0184 5.04351 16.7588 5.54266 17.4659 6.17697Z" />
</svg>