<!--character:2937-->
  <svg width="24" height="24" viewBox="0 0 24 24" >
<path d="M18.8469 5.26998C19.5325 5.21207 20.4237 4.83445 20.9488 4.57141C21.1188 4.47962 21.2887 4.38783 21.4587 4.29604C21.1594 5.09503 20.7531 5.7203 20.1275 6.19464C19.9888 6.29998 19.8512 6.44228 19.6775 6.50942C20.5681 6.51004 21.3019 6.11455 22 5.89956C21.6331 6.48355 21.1375 7.0657 20.6081 7.48336C20.395 7.6503 20.1812 7.81786 19.9675 7.98481C19.9794 8.91439 19.9538 9.80085 19.7775 10.582C18.7525 15.1215 16.0375 18.2034 11.7394 19.5236C10.1956 19.9973 7.70188 20.192 5.93375 19.7595C5.05687 19.5445 4.26438 19.3024 3.52125 18.9821C3.10813 18.8047 2.72563 18.6119 2.36 18.3919C2.24 18.3199 2.11938 18.2478 2 18.1757C2.39875 18.1874 2.865 18.2958 3.31125 18.225C3.71438 18.1603 4.11 18.1776 4.48188 18.0969C5.41062 17.8967 6.23438 17.6311 6.94438 17.2215C7.28875 17.0231 7.81125 16.7897 8.05563 16.5032C7.595 16.5118 7.17688 16.4059 6.83438 16.287C5.50688 15.825 4.73438 14.9761 4.23188 13.6997C4.63375 13.7434 5.7925 13.8463 6.06375 13.6214C5.55688 13.5937 5.07062 13.3048 4.7225 13.0904C3.655 12.4319 2.78375 11.3274 2.79063 9.62775C2.93063 9.69366 3.07063 9.75896 3.21125 9.82426C3.47875 9.93576 3.75188 9.99551 4.07188 10.0602C4.20687 10.0879 4.47687 10.1662 4.63188 10.1095C4.40563 9.87231 4.06938 9.7146 3.86125 9.46019C3.17625 8.62116 2.53438 7.32935 2.94063 5.79114C3.04375 5.40119 3.20688 5.05622 3.38125 4.73835C3.48063 4.9133 3.65875 5.03404 3.77125 5.17142C4.12125 5.59894 4.55313 5.98334 4.9925 6.32277C6.49125 7.47782 7.84063 8.18686 10.0075 8.71295C10.5575 8.84601 11.1931 8.94765 11.8494 8.94889C11.665 8.41972 11.7244 7.56283 11.8694 7.05029C12.235 5.76157 13.0281 4.83322 14.1919 4.33547C14.47 4.21658 14.7788 4.12972 15.1025 4.06011C15.27 4.04039 15.4363 4.02068 15.6031 4.00097C17.1925 3.97325 18.0387 4.5443 18.8469 5.26998Z" />
</svg>