<!-- character:0:2571 -->
  <svg width="20" height="20" viewBox="0 0 20 20" >
<path   d="M2.5 16.1765V14.1667V5V3.82353C2.5 3.09256 3.09256 2.5 3.82353 2.5H5H14.1667H16.1765C16.9074 2.5 17.5 3.09256 17.5 3.82353V4.21875V16.1765V16.6146C17.5 17.1036 17.1036 17.5 16.6146 17.5H16.1765H4.21875H3.82353C3.09256 17.5 2.5 16.9074 2.5 16.1765ZM5.83333 9.58327C6.04786 7.45417 7.84434 5.83331 9.98956 5.83333C12.2422 5.83336 14.0891 7.61512 14.1643 9.86087C14.2395 12.1066 12.5159 14.0073 10.2682 14.1572C8.02058 14.3072 6.0586 12.6523 5.83333 10.4166H8.73643V11.0416C8.73643 11.1566 8.82994 11.2499 8.94528 11.2499H11.0338C11.1492 11.2499 11.2427 11.1566 11.2427 11.0416V8.95828C11.2427 8.84322 11.1492 8.74995 11.0338 8.74995H8.94528C8.82994 8.74995 8.73643 8.84322 8.73643 8.95828V9.58327H5.83333Z" />
</svg>