<!--character:112:550:883-->
<svg width="24" height="24" viewBox="0 0 24 24" xmlns="http://www.w3.org/2000/svg"><path d="M5.0625 21h-.4743C3.7111 21 3 20.289 3 19.4118V4.5882C3 3.7111 3.711 3 4.5882 3h14.8236C20.2889 3 21 3.711 21 4.5882v15.3493C21 20.5243 20.5243 21 19.9375 21H5.0625zm6.925-14C9.4132 7 7.2575 8.945 7 11.5h3.4837v-.75c0-.1381.1122-.25.2506-.25h2.5063c.1384 0 .2506.1119.2506.25v2.4999c0 .138-.1122.25-.2506.25h-2.5063a.2503.2503 0 0 1-.2506-.25v-.75H7c.2703 2.6829 2.6247 4.6687 5.3219 4.4888 2.6972-.18 4.7655-2.4608 4.6753-5.1557C16.9069 9.1381 14.6907 7 11.9875 7z"/></svg>
