<!--character:7003-->
  <svg width="20" height="20" viewBox="0 0 20 20" >
<path d="M2.5 16.1765V3.82353C2.5 3.09256 3.09256 2.5 3.82353 2.5H16.1765C16.9074 2.5 17.5 3.09256 17.5 3.82353V16.6146C17.5 17.1036 17.1036 17.5 16.6146 17.5H3.82353C3.09256 17.5 2.5 16.9074 2.5 16.1765ZM5.83333 9.58327H8.73643V8.95828C8.73643 8.84322 8.82994 8.74995 8.94528 8.74995H11.0338C11.1492 8.74995 11.2427 8.84322 11.2427 8.95828V11.0416C11.2427 11.1566 11.1492 11.2499 11.0338 11.2499H8.94528C8.82994 11.2499 8.73643 11.1566 8.73643 11.0416V10.4166H5.83333C6.0586 12.6523 8.02058 14.3072 10.2682 14.1572C12.5159 14.0073 14.2395 12.1066 14.1643 9.86087C14.0891 7.61512 12.2422 5.83336 9.98956 5.83333C7.84434 5.83331 6.04786 7.45417 5.83333 9.58327Z" />
</svg>