<!--character:6152-->
  <svg width="24" height="24" viewBox="0 0 24 24" >
<path d="M3 19.4118V4.58824C3 3.71108 3.71108 3 4.58824 3H19.4118C20.2889 3 21 3.71108 21 4.58824V19.9375C21 20.5243 20.5243 21 19.9375 21H4.58824C3.71108 21 3 20.2889 3 19.4118ZM7 11.4999H10.4837V10.7499C10.4837 10.6119 10.5959 10.4999 10.7343 10.4999H13.2406C13.379 10.4999 13.4912 10.6119 13.4912 10.7499V13.2499C13.4912 13.388 13.379 13.4999 13.2406 13.4999H10.7343C10.5959 13.4999 10.4837 13.388 10.4837 13.2499V12.4999H7C7.27032 15.1828 9.62469 17.1686 12.3219 16.9887C15.0191 16.8088 17.0874 14.5279 16.9972 11.833C16.9069 9.13815 14.6907 7.00003 11.9875 7C9.41321 6.99997 7.25743 8.94501 7 11.4999Z" />
</svg>