<!--character:7980-->
  <svg width="20" height="20" viewBox="0 0 20 20" >
<path d="M11.3438 13.3532C11.3438 14.0967 10.7411 14.6994 9.99759 14.6994C9.25408 14.6994 8.65134 14.0967 8.65134 13.3532V7.05864C8.65134 6.96278 8.57363 6.88507 8.47777 6.88507H6.63162C6.36788 6.88496 6.12847 6.73091 6.01908 6.49092C5.90969 6.25092 5.95046 5.96916 6.12339 5.77002L9.48936 1.89861C9.61715 1.75129 9.80257 1.66666 9.99759 1.66666C10.1926 1.66666 10.378 1.75129 10.5058 1.89861L13.8718 5.77002C14.0447 5.96916 14.0855 6.25092 13.9761 6.49092C13.8667 6.73091 13.6273 6.88496 13.3636 6.88507H11.5174C11.4215 6.88507 11.3438 6.96278 11.3438 7.05864V13.3532Z" />
<path d="M16.5622 14.2682C16.5622 13.8035 16.9389 13.4267 17.4037 13.4267C17.6275 13.4258 17.8424 13.514 18.001 13.6719C18.1595 13.8299 18.2486 14.0444 18.2486 14.2682V15.5561C18.2486 17.0899 17.0053 18.3333 15.4714 18.3333H4.52373C2.99128 18.3314 1.75 17.0886 1.75 15.5561V14.2682C1.75 13.8035 2.12675 13.4267 2.59149 13.4267C3.05623 13.4267 3.43298 13.8035 3.43298 14.2682V15.5561C3.43375 16.1581 3.92176 16.6458 4.52373 16.6462H15.4714C16.0734 16.6458 16.5614 16.1581 16.5622 15.5561V14.2682Z" />
</svg>