<!--character:4840-->
  <svg width="24" height="24" viewBox="0 0 24 24" >
<path d="M13.6126 16.0238C13.6126 16.916 12.8893 17.6393 11.9971 17.6393C11.1049 17.6393 10.3816 16.916 10.3816 16.0238V8.47037C10.3816 8.35534 10.2884 8.26208 10.1733 8.26208H7.95795C7.64145 8.26195 7.35416 8.07709 7.22289 7.7891C7.09163 7.50111 7.14056 7.163 7.34807 6.92403L11.3872 2.27833C11.5406 2.10154 11.7631 2 11.9971 2C12.2311 2 12.4536 2.10154 12.607 2.27833L16.6461 6.92403C16.8537 7.163 16.9026 7.50111 16.7713 7.7891C16.6401 8.07709 16.3528 8.26195 16.0363 8.26208H13.8209C13.7059 8.26208 13.6126 8.35534 13.6126 8.47037V16.0238Z" />
<path d="M19.8746 17.1218C19.8746 16.5642 20.3267 16.1121 20.8844 16.1121C21.153 16.1109 21.4109 16.2168 21.6011 16.4063C21.7914 16.5958 21.8984 16.8533 21.8984 17.1218V18.6674C21.8984 20.5079 20.4063 22 18.5657 22H5.42847C3.58953 21.9977 2.1 20.5063 2.1 18.6674V17.1218C2.1 16.5642 2.5521 16.1121 3.10979 16.1121C3.66748 16.1121 4.11958 16.5642 4.11958 17.1218V18.6674C4.1205 19.3897 4.70611 19.975 5.42847 19.9754H18.5657C19.2881 19.975 19.8737 19.3897 19.8746 18.6674V17.1218Z" />
</svg>