<!-- character:0:2673 -->
  <svg width="20" height="20" viewBox="0 0 20 20" >
<path   d="M11.3438 13.3532C11.3438 14.0968 10.7411 14.6995 9.99759 14.6995C9.25408 14.6995 8.65134 14.0968 8.65134 13.3532V7.05873C8.65134 6.96287 8.57363 6.88515 8.47777 6.88515H6.63162C6.36788 6.88505 6.12847 6.73099 6.01908 6.491C5.90969 6.25101 5.95046 5.96925 6.12339 5.77011L9.48936 1.89869C9.61715 1.75137 9.80257 1.66675 9.99759 1.66675C10.1926 1.66675 10.378 1.75137 10.5058 1.89869L13.8718 5.77011C14.0447 5.96925 14.0855 6.25101 13.9761 6.491C13.8667 6.73099 13.6273 6.88505 13.3636 6.88515H11.5174C11.4215 6.88515 11.3438 6.96287 11.3438 7.05873V13.3532ZM16.5622 14.2683C16.5622 13.8035 16.9389 13.4268 17.4037 13.4268C17.6275 13.4259 17.8424 13.5141 18.001 13.672C18.1595 13.8299 18.2486 14.0445 18.2486 14.2683V15.5562C18.2486 17.09 17.0053 18.3334 15.4714 18.3334H4.52373C2.99128 18.3315 1.75 17.0887 1.75 15.5562V14.2683C1.75 13.8035 2.12675 13.4268 2.59149 13.4268C3.05623 13.4268 3.43298 13.8035 3.43298 14.2683V15.5562C3.43375 16.1582 3.92176 16.6459 4.52373 16.6463H15.4714C16.0734 16.6459 16.5614 16.1582 16.5622 15.5562V14.2683Z" />
</svg>