<!--character:113:550:898-->
  <svg width="24" height="24" viewBox="0 0 24 24" >
<path   d="M13.6126 16.0238C13.6126 16.916 12.8894 17.6393 11.9971 17.6393C11.1049 17.6393 10.3817 16.916 10.3817 16.0238V8.47038C10.3817 8.35534 10.2884 8.26208 10.1734 8.26208H7.95799C7.6415 8.26196 7.3542 8.07709 7.22294 7.7891C7.09168 7.50111 7.1406 7.163 7.34812 6.92403L11.3873 2.27833C11.5406 2.10155 11.7631 2 11.9971 2C12.2312 2 12.4537 2.10155 12.607 2.27833L16.6462 6.92403C16.8537 7.163 16.9026 7.50111 16.7714 7.7891C16.6401 8.07709 16.3528 8.26196 16.0363 8.26208H13.8209C13.7059 8.26208 13.6126 8.35534 13.6126 8.47038V16.0238ZM19.8747 17.1218C19.8747 16.5641 20.3268 16.112 20.8845 16.112C21.153 16.1109 21.4109 16.2168 21.6012 16.4063C21.7915 16.5958 21.8984 16.8533 21.8984 17.1218V18.6673C21.8984 20.5079 20.4063 22 18.5658 22H5.42851C3.58957 21.9977 2.10004 20.5063 2.10004 18.6673V17.1218C2.10004 16.5641 2.55213 16.112 3.10983 16.112C3.66752 16.112 4.11962 16.5641 4.11962 17.1218V18.6673C4.12053 19.3897 4.70614 19.9749 5.42851 19.9754H18.5658C19.2881 19.9749 19.8737 19.3897 19.8747 18.6673V17.1218Z" />
</svg>