<!--character:749-->
  <svg width="24" height="24" viewBox="0 0 24 24" >
<path d="M20.2917 16.0896C20.2426 15.0987 19.8266 14.1586 19.1217 13.4538C18.37 12.7022 17.3508 12.28 16.2877 12.28C15.2247 12.28 14.2054 12.7021 13.4538 13.4538C12.7021 14.2055 12.28 15.2248 12.2799 16.2878L12.2848 16.487C12.334 17.4775 12.7492 18.4171 13.4538 19.1218C14.2054 19.8735 15.2247 20.2965 16.2877 20.2966L16.487 20.2917C17.4776 20.2425 18.4171 19.8264 19.1217 19.1218C19.8734 18.3701 20.2965 17.3509 20.2965 16.2878L20.2917 16.0896ZM22.0895 16.5759C22.0183 18.0115 21.4164 19.374 20.3952 20.3952C19.374 21.4164 18.0115 22.0184 16.5758 22.0896L16.2877 22.0964C14.7473 22.0964 13.2696 21.4845 12.1803 20.3952C11.1592 19.374 10.5582 18.0114 10.487 16.5759L10.4792 16.2878C10.4792 14.7474 11.0911 13.2696 12.1803 12.1804C13.2696 11.0911 14.7473 10.4792 16.2877 10.4792C17.8282 10.4792 19.3059 11.0912 20.3952 12.1804C21.4844 13.2696 22.0963 14.7474 22.0963 16.2878L22.0895 16.5759Z" />
<path d="M16.288 13.4297C16.785 13.4298 17.1884 13.8331 17.1884 14.3301V15.3877H18.2402L18.332 15.3926C18.7858 15.4387 19.1396 15.8221 19.1396 16.2881C19.1395 16.754 18.7858 17.1375 18.332 17.1836L18.2402 17.1885H17.1884V18.2402C17.1883 18.7371 16.785 19.1396 16.288 19.1397C15.7911 19.1397 15.3878 18.7372 15.3876 18.2402V17.1885H14.33C13.833 17.1885 13.4297 16.7851 13.4296 16.2881C13.4296 15.791 13.833 15.3877 14.33 15.3877H15.3876V14.3301C15.3876 13.833 15.791 13.4297 16.288 13.4297Z" />
<path   d="M8.73237 4.10547C9.22178 4.12961 9.70449 4.23787 10.1582 4.42578C10.6765 4.64059 11.1481 4.9548 11.5449 5.35157C11.9416 5.74835 12.2559 6.2199 12.4707 6.73828C12.6854 7.25674 12.7968 7.81286 12.7968 8.37403L12.791 8.58496C12.7668 9.07427 12.6585 9.55618 12.4707 10.0098C12.2558 10.5284 11.9418 11.0005 11.5449 11.3975C11.1481 11.7942 10.6765 12.1084 10.1582 12.3232C10.1402 12.3307 10.1215 12.3366 10.1035 12.3438C10.3218 12.5416 10.4392 12.8419 10.3886 13.1543C10.3089 13.6449 9.84603 13.9782 9.35542 13.8984C9.15143 13.8653 8.94467 13.8444 8.73628 13.8359L8.5273 13.832C7.25298 13.8321 6.45792 14.3058 5.41108 15.3525C4.44389 16.3197 3.90043 17.6322 3.90034 19C3.90016 19.4969 3.4969 19.8994 2.99995 19.8994C2.50301 19.8994 2.09974 19.4969 2.09956 19C2.09965 17.1549 2.83305 15.3848 4.13765 14.0801C4.95634 13.2614 5.77631 12.6232 6.80855 12.2891C6.32067 12.0756 5.87587 11.7743 5.49897 11.3975C5.10206 11.0005 4.78801 10.5284 4.57319 10.0098C4.38534 9.55617 4.27701 9.07429 4.25288 8.58496L4.24702 8.37403C4.24708 7.81285 4.35844 7.25675 4.57319 6.73828C4.788 6.21989 5.10219 5.74835 5.49897 5.35157C5.89576 4.95479 6.3673 4.64059 6.88569 4.42578C7.40414 4.21104 7.96028 4.09967 8.52144 4.09961L8.73237 4.10547ZM8.52144 5.90039C8.19678 5.90045 7.87511 5.9637 7.57515 6.08789C7.27494 6.21224 7.00218 6.39524 6.77241 6.625C6.54264 6.85477 6.35966 7.12753 6.2353 7.42774C6.1111 7.72772 6.04786 8.04935 6.0478 8.37403L6.05952 8.61719C6.08334 8.85879 6.14209 9.09618 6.2353 9.32129C6.35966 9.6215 6.54264 9.89426 6.77241 10.124C7.00218 10.3538 7.27496 10.5358 7.57515 10.6602C7.87521 10.7844 8.19666 10.8486 8.52144 10.8486L8.7646 10.8369C9.00628 10.8131 9.24352 10.7534 9.4687 10.6602C9.76888 10.5358 10.0417 10.3538 10.2714 10.124C10.5012 9.89427 10.6832 9.62148 10.8076 9.32129C10.9319 9.02108 10.996 8.69897 10.996 8.37403L10.9843 8.13184C10.9605 7.89013 10.9008 7.65295 10.8076 7.42774C10.6832 7.12755 10.5012 6.85477 10.2714 6.625C10.0417 6.39524 9.7689 6.21225 9.4687 6.08789C9.24361 5.99469 9.00618 5.93593 8.7646 5.91211L8.52144 5.90039Z" />
</svg>