<!--character:5875-->
  <svg width="24" height="24" viewBox="0 0 24 24" >
<path d="M7.20061 14.168C6.78421 14.9167 6.56701 15.752 6.56831 16.6002C6.56831 16.821 6.38131 17 6.15061 17H2.42101C2.36205 17.0007 2.30358 16.9891 2.24931 16.9661C2.19504 16.943 2.14614 16.9089 2.10571 16.866C2.06643 16.8242 2.03687 16.7743 2.01917 16.7198C2.00147 16.6652 1.99605 16.6075 2.00331 16.5506C2.14431 15.4721 2.78731 14.5125 3.75241 13.9397C4.71761 13.367 5.90151 13.2426 6.97351 13.6012C7.08851 13.6404 7.17971 13.7256 7.22341 13.8346C7.24498 13.8883 7.25414 13.9462 7.25021 14.0039C7.24628 14.0617 7.22936 14.1178 7.20071 14.1681L7.20061 14.168ZM18.2629 12.6026C17.1095 12.6026 16.1745 11.7077 16.1745 10.6038C16.1745 9.4999 17.1095 8.605 18.2629 8.605C19.4162 8.605 20.3512 9.5 20.3512 10.6038C20.3512 11.7078 19.4162 12.6026 18.2629 12.6026ZM17.4284 16.6002C17.4296 15.7522 17.2136 14.9169 16.7994 14.1672C16.771 14.1167 16.7543 14.0605 16.7507 14.0027C16.7471 13.9449 16.7565 13.887 16.7784 13.8334C16.8228 13.7246 16.9147 13.6397 17.0299 13.6012C18.1015 13.2437 19.2845 13.3688 20.2488 13.9414C21.2131 14.514 21.8555 15.4729 21.9968 16.5506C22.0041 16.6075 21.9986 16.6652 21.9809 16.7197C21.9632 16.7742 21.9337 16.8242 21.8944 16.8659C21.854 16.9088 21.8051 16.9429 21.7508 16.966C21.6965 16.989 21.6381 17.0006 21.5791 16.9999H17.8461C17.6154 16.9999 17.4284 16.821 17.4284 16.6002ZM5.73301 12.6026C4.57961 12.6026 3.64461 11.7077 3.64461 10.6038C3.64461 9.4999 4.57961 8.605 5.73301 8.605C6.88631 8.605 7.82131 9.5 7.82131 10.6038C7.82131 11.7078 6.88631 12.6026 5.73301 12.6026ZM13.6418 12.9224C15.1822 13.5403 16.1826 14.9849 16.1771 16.5834C16.1788 16.6375 16.1693 16.6913 16.1491 16.7415C16.129 16.7916 16.0986 16.8371 16.0599 16.8749C15.9797 16.9534 15.8717 16.9972 15.7594 16.9968H8.24141C8.12901 16.9972 8.02097 16.9533 7.94071 16.8746C7.90202 16.8367 7.87164 16.7912 7.8515 16.7409C7.83136 16.6906 7.82189 16.6367 7.82371 16.5826C7.81861 14.9856 8.81681 13.5419 10.3548 12.9224C10.4269 12.893 10.4758 12.8274 10.4812 12.7525C10.4836 12.7153 10.4754 12.6782 10.4577 12.6455C10.4399 12.6128 10.4132 12.5857 10.3807 12.5675C9.17561 11.8721 8.60261 10.4931 8.97961 9.1955C9.35661 7.8979 10.5912 7 11.9983 7C13.4055 7 14.6401 7.8979 15.0171 9.1955C15.3941 10.4931 14.8211 11.8721 13.6159 12.5675C13.5834 12.5857 13.5568 12.6128 13.539 12.6455C13.5213 12.6783 13.5131 12.7153 13.5155 12.7525C13.5209 12.8274 13.5697 12.893 13.6418 12.9225V12.9224ZM11.9979 11.8031C12.9804 11.8039 13.7981 11.0808 13.8749 10.1433C13.8773 10.1121 13.8721 10.0808 13.8599 10.0521C13.8476 10.0233 13.8287 9.99785 13.8046 9.9779C13.7799 9.9573 13.7508 9.9425 13.7196 9.9346C13.6884 9.92669 13.6559 9.92587 13.6243 9.9322C13.3634 9.98018 13.0986 10.0043 12.8333 10.0042C12.0128 10.005 11.2106 9.7723 10.5286 9.3358C10.5015 9.31884 10.471 9.30805 10.4392 9.30418C10.4074 9.30031 10.3752 9.30346 10.3448 9.3134C10.3148 9.32269 10.2874 9.33889 10.2648 9.36068C10.2421 9.38247 10.2249 9.40926 10.2145 9.4389C10.0237 9.9871 10.1201 10.5897 10.4735 11.0582C10.8269 11.5267 11.3942 11.8039 11.9979 11.8031Z" />
</svg>