<!--character:459-->
  <svg width="24" height="24" viewBox="0 0 24 24" >
<path   d="M4.50305 4.84992C5.3874 3.96557 6.58684 3.46875 7.8375 3.46875C9.08816 3.46875 10.2876 3.96557 11.172 4.84992C12.0563 5.73428 12.5531 6.93371 12.5531 8.18438C12.5531 9.43504 12.0563 10.6345 11.172 11.5188C10.6555 12.0353 10.0315 12.4196 9.35259 12.65C10.6818 12.9385 11.9122 13.6032 12.8889 14.5799C14.2286 15.9196 14.9812 17.7366 14.9812 19.6312C14.9812 20.1283 14.5783 20.5312 14.0812 20.5312C13.5842 20.5312 13.1812 20.1283 13.1812 19.6312C13.1812 18.214 12.6182 16.8548 11.6161 15.8526C10.614 14.8505 9.25475 14.2875 7.8375 14.2875C6.42025 14.2875 5.06105 14.8505 4.0589 15.8526C3.05675 16.8548 2.49375 18.214 2.49375 19.6312C2.49375 20.1283 2.09081 20.5312 1.59375 20.5312C1.09669 20.5312 0.69375 20.1283 0.69375 19.6312C0.69375 17.7366 1.44639 15.9196 2.78611 14.5799C3.76281 13.6032 4.9932 12.9385 6.32241 12.65C5.64353 12.4196 5.01955 12.0353 4.50305 11.5188C3.6187 10.6345 3.12188 9.43504 3.12188 8.18438C3.12188 6.93371 3.6187 5.73428 4.50305 4.84992ZM7.8375 5.26875C7.06423 5.26875 6.32263 5.57593 5.77584 6.12272C5.22906 6.6695 4.92188 7.4111 4.92188 8.18438C4.92188 8.95765 5.22906 9.69925 5.77584 10.246C6.32263 10.7928 7.06423 11.1 7.8375 11.1C8.61077 11.1 9.35237 10.7928 9.89916 10.246C10.4459 9.69925 10.7531 8.95765 10.7531 8.18438C10.7531 7.4111 10.4459 6.6695 9.89916 6.12272C9.35237 5.57593 8.61077 5.26875 7.8375 5.26875ZM14.4536 7.42173C15.2078 6.66748 16.2308 6.24375 17.2975 6.24375C18.3641 6.24375 19.3871 6.66748 20.1414 7.42173C20.8956 8.17598 21.3193 9.19896 21.3193 10.2656C21.3193 11.3323 20.8956 12.3553 20.1414 13.1095C19.8208 13.4301 19.4517 13.6909 19.0514 13.8849C19.6486 14.0674 20.2157 14.3424 20.7315 14.7018C21.5259 15.2553 22.1748 15.9925 22.6231 16.8506C23.0714 17.7088 23.3057 18.6625 23.3063 19.6307C23.3066 20.1278 22.9038 20.531 22.4068 20.5312C21.9097 20.5315 21.5066 20.1288 21.5063 19.6317C21.5059 18.9534 21.3417 18.2853 21.0276 17.6841C20.7136 17.0829 20.259 16.5664 19.7024 16.1786C19.1459 15.7908 18.504 15.5432 17.8312 15.4568C17.1584 15.3704 16.4747 15.4478 15.8383 15.6824C15.3719 15.8543 14.8545 15.6155 14.6826 15.1491C14.5107 14.6827 14.7494 14.1653 15.2158 13.9934C15.3234 13.9538 15.432 13.9172 15.5414 13.8839C15.1419 13.69 14.7735 13.4295 14.4536 13.1095C13.6993 12.3553 13.2756 11.3323 13.2756 10.2656C13.2756 9.19896 13.6993 8.17598 14.4536 7.42173ZM17.2975 8.04375C16.7082 8.04375 16.143 8.27784 15.7264 8.69452C15.3097 9.1112 15.0756 9.67635 15.0756 10.2656C15.0756 10.8549 15.3097 11.42 15.7264 11.8367C16.143 12.2534 16.7082 12.4875 17.2975 12.4875C17.8867 12.4875 18.4519 12.2534 18.8686 11.8367C19.2852 11.42 19.5193 10.8549 19.5193 10.2656C19.5193 9.67635 19.2852 9.1112 18.8686 8.69452C18.4519 8.27784 17.8867 8.04375 17.2975 8.04375Z" />
</svg>