<!-- character:205:7 -->
  <svg width="20" height="20" viewBox="0 0 20 20" >
<path d="M6.0005 11.8066C5.6535 12.4306 5.4725 13.1266 5.47358 13.8335C5.47358 14.0175 5.31775 14.1666 5.1255 14.1666H2.0175C1.96836 14.1672 1.91964 14.1576 1.87441 14.1384C1.82919 14.1191 1.78844 14.0908 1.75475 14.055C1.72201 14.0202 1.69739 13.9786 1.68263 13.9331C1.66788 13.8877 1.66337 13.8395 1.66942 13.7921C1.78692 12.8934 2.32275 12.0937 3.127 11.6164C3.93133 11.1391 4.91792 11.0355 5.81125 11.3343C5.90708 11.367 5.98308 11.438 6.0195 11.5288C6.03747 11.5736 6.04511 11.6218 6.04183 11.6699C6.03856 11.7181 6.02446 11.7648 6.00058 11.8067L6.0005 11.8066ZM15.2191 10.5021C14.2579 10.5021 13.4787 9.7564 13.4787 8.83648C13.4787 7.91656 14.2579 7.17081 15.2191 7.17081C16.1802 7.17081 16.9593 7.91665 16.9593 8.83648C16.9593 9.75648 16.1802 10.5021 15.2191 10.5021ZM14.5237 13.8335C14.5247 13.1268 14.3447 12.4307 13.9995 11.806C13.9758 11.7639 13.9619 11.7171 13.9589 11.6689C13.9559 11.6207 13.9638 11.5725 13.982 11.5278C14.019 11.4371 14.0956 11.3664 14.1916 11.3343C15.0846 11.0364 16.0704 11.1406 16.874 11.6178C17.6776 12.095 18.2129 12.8941 18.3307 13.7921C18.3367 13.8395 18.3322 13.8877 18.3174 13.9331C18.3027 13.9785 18.2781 14.0201 18.2453 14.0549C18.2116 14.0907 18.1709 14.1191 18.1257 14.1383C18.0804 14.1575 18.0317 14.1671 17.9826 14.1666H14.8717C14.6795 14.1666 14.5237 14.0175 14.5237 13.8335ZM4.7775 10.5021C3.81633 10.5021 3.03717 9.7564 3.03717 8.83648C3.03717 7.91656 3.81633 7.17081 4.7775 7.17081C5.73858 7.17081 6.51775 7.91665 6.51775 8.83648C6.51775 9.75648 5.73858 10.5021 4.7775 10.5021ZM11.3682 10.7686C12.6518 11.2836 13.4855 12.4874 13.4809 13.8195C13.4823 13.8645 13.4744 13.9094 13.4576 13.9512C13.4408 13.993 13.4155 14.0309 13.3832 14.0624C13.3164 14.1278 13.2264 14.1643 13.1328 14.164H6.86783C6.77416 14.1643 6.68413 14.1277 6.61725 14.0621C6.58501 14.0306 6.55969 13.9926 6.54291 13.9507C6.52612 13.9088 6.51824 13.8639 6.51975 13.8188C6.5155 12.488 7.34733 11.2849 8.629 10.7686C8.68908 10.7441 8.72983 10.6895 8.73433 10.6271C8.73632 10.5961 8.72952 10.5652 8.7147 10.5379C8.69988 10.5106 8.67765 10.4881 8.65058 10.4729C7.64633 9.8934 7.16883 8.74423 7.483 7.6629C7.79717 6.58156 8.826 5.83331 9.99858 5.83331C11.1712 5.83331 12.2001 6.58156 12.5142 7.6629C12.8284 8.74423 12.3509 9.8934 11.3466 10.4729C11.3195 10.4881 11.2973 10.5106 11.2825 10.5379C11.2677 10.5652 11.2609 10.5961 11.2629 10.6271C11.2674 10.6895 11.3081 10.7441 11.3682 10.7687V10.7686ZM9.99825 9.8359C10.817 9.83656 11.4984 9.23398 11.5624 8.45273C11.5644 8.42675 11.5601 8.40067 11.5499 8.37669C11.5397 8.35271 11.5239 8.33152 11.5038 8.3149C11.4832 8.29773 11.459 8.2854 11.433 8.27881C11.407 8.27222 11.3799 8.27154 11.3536 8.27681C11.1361 8.3168 10.9155 8.33688 10.6944 8.33681C10.0107 8.33748 9.34217 8.14356 8.77383 7.77981C8.75122 7.76568 8.72579 7.75669 8.69932 7.75346C8.67286 7.75024 8.64601 7.75286 8.62067 7.76115C8.59566 7.76889 8.57281 7.78238 8.55396 7.80055C8.5351 7.81871 8.52076 7.84103 8.51208 7.86573C8.35308 8.32256 8.43342 8.82473 8.72792 9.21515C9.02242 9.60556 9.49517 9.83656 9.99825 9.8359Z" />
</svg>