<!--character:2928-->
  <svg width="24" height="24" viewBox="0 0 24 24" >
<path d="M7.20053 14.168C6.78413 14.9167 6.56693 15.752 6.56823 16.6002C6.56823 16.821 6.38123 17 6.15053 17H2.42093C2.36196 17.0007 2.30349 16.9891 2.24922 16.9661C2.19495 16.943 2.14606 16.9089 2.10563 16.866C2.06634 16.8242 2.03679 16.7743 2.01908 16.7198C2.00138 16.6652 1.99596 16.6075 2.00323 16.5506C2.14423 15.4721 2.78723 14.5125 3.75233 13.9397C4.71753 13.367 5.90143 13.2426 6.97343 13.6012C7.08843 13.6404 7.17963 13.7256 7.22333 13.8346C7.24489 13.8883 7.25406 13.9462 7.25012 14.0039C7.24619 14.0617 7.22927 14.1178 7.20063 14.1681L7.20053 14.168ZM18.2628 12.6026C17.1094 12.6026 16.1744 11.7077 16.1744 10.6038C16.1744 9.4999 17.1094 8.605 18.2628 8.605C19.4161 8.605 20.3511 9.5 20.3511 10.6038C20.3511 11.7078 19.4161 12.6026 18.2628 12.6026ZM17.4283 16.6002C17.4295 15.7522 17.2135 14.9169 16.7993 14.1672C16.7709 14.1167 16.7543 14.0605 16.7506 14.0027C16.747 13.9449 16.7565 13.887 16.7783 13.8334C16.8227 13.7246 16.9146 13.6397 17.0298 13.6012C18.1014 13.2437 19.2844 13.3688 20.2487 13.9414C21.213 14.514 21.8554 15.4729 21.9967 16.5506C22.004 16.6075 21.9985 16.6652 21.9808 16.7197C21.9631 16.7742 21.9336 16.8242 21.8943 16.8659C21.8539 16.9088 21.805 16.9429 21.7507 16.966C21.6965 16.989 21.638 17.0006 21.579 16.9999H17.846C17.6153 16.9999 17.4283 16.821 17.4283 16.6002ZM5.73293 12.6026C4.57953 12.6026 3.64453 11.7077 3.64453 10.6038C3.64453 9.4999 4.57953 8.605 5.73293 8.605C6.88623 8.605 7.82123 9.5 7.82123 10.6038C7.82123 11.7078 6.88623 12.6026 5.73293 12.6026ZM13.6417 12.9224C15.1821 13.5403 16.1825 14.9849 16.177 16.5834C16.1787 16.6375 16.1692 16.6913 16.149 16.7415C16.1289 16.7916 16.0985 16.8371 16.0598 16.8749C15.9796 16.9534 15.8716 16.9972 15.7593 16.9968H8.24133C8.12892 16.9972 8.02089 16.9533 7.94063 16.8746C7.90194 16.8367 7.87156 16.7912 7.85141 16.7409C7.83127 16.6906 7.82181 16.6367 7.82363 16.5826C7.81853 14.9856 8.81673 13.5419 10.3547 12.9224C10.4268 12.893 10.4757 12.8274 10.4811 12.7525C10.4835 12.7153 10.4753 12.6782 10.4576 12.6455C10.4398 12.6128 10.4131 12.5857 10.3806 12.5675C9.17553 11.8721 8.60253 10.4931 8.97953 9.1955C9.35653 7.8979 10.5911 7 11.9982 7C13.4054 7 14.64 7.8979 15.017 9.1955C15.394 10.4931 14.821 11.8721 13.6158 12.5675C13.5834 12.5857 13.5567 12.6128 13.5389 12.6455C13.5212 12.6783 13.513 12.7153 13.5154 12.7525C13.5208 12.8274 13.5696 12.893 13.6417 12.9225V12.9224ZM11.9978 11.8031C12.9803 11.8039 13.798 11.0808 13.8748 10.1433C13.8772 10.1121 13.872 10.0808 13.8598 10.0521C13.8476 10.0233 13.8286 9.99785 13.8045 9.9779C13.7798 9.9573 13.7508 9.94251 13.7196 9.9346C13.6884 9.92669 13.6558 9.92587 13.6242 9.9322C13.3633 9.98018 13.0985 10.0043 12.8332 10.0042C12.0127 10.005 11.2105 9.7723 10.5285 9.3358C10.5014 9.31885 10.4709 9.30805 10.4391 9.30418C10.4074 9.30031 10.3751 9.30346 10.3447 9.3134C10.3147 9.3227 10.2873 9.33889 10.2647 9.36068C10.242 9.38248 10.2248 9.40926 10.2144 9.4389C10.0236 9.9871 10.12 10.5897 10.4734 11.0582C10.8268 11.5267 11.3941 11.8039 11.9978 11.8031Z" />
</svg>