<!--character:4471-->
  <svg width="20" height="20" viewBox="0 0 20 20" >
<path d="M6.00044 11.8067C5.65344 12.4306 5.47244 13.1267 5.47352 13.8335C5.47352 14.0175 5.31769 14.1667 5.12544 14.1667H2.01744C1.9683 14.1672 1.91958 14.1576 1.87435 14.1384C1.82913 14.1192 1.78838 14.0908 1.75469 14.055C1.72195 14.0202 1.69732 13.9786 1.68257 13.9331C1.66782 13.8877 1.6633 13.8396 1.66936 13.7922C1.78686 12.8934 2.32269 12.0938 3.12694 11.6164C3.93127 11.1392 4.91786 11.0355 5.81119 11.3343C5.90702 11.367 5.98302 11.438 6.01944 11.5288C6.03741 11.5736 6.04505 11.6218 6.04177 11.67C6.0385 11.7181 6.02439 11.7648 6.00052 11.8068L6.00044 11.8067ZM15.219 10.5022C14.2579 10.5022 13.4787 9.75642 13.4787 8.8365C13.4787 7.91659 14.2579 7.17084 15.219 7.17084C16.1801 7.17084 16.9593 7.91667 16.9593 8.8365C16.9593 9.7565 16.1801 10.5022 15.219 10.5022ZM14.5236 13.8335C14.5246 13.1268 14.3446 12.4308 13.9994 11.806C13.9758 11.764 13.9619 11.7171 13.9588 11.6689C13.9558 11.6208 13.9637 11.5725 13.9819 11.5278C14.0189 11.4372 14.0955 11.3664 14.1915 11.3343C15.0845 11.0364 16.0704 11.1407 16.8739 11.6178C17.6775 12.095 18.2129 12.8941 18.3306 13.7922C18.3366 13.8395 18.3321 13.8877 18.3174 13.9331C18.3026 13.9785 18.278 14.0201 18.2453 14.0549C18.2116 14.0907 18.1708 14.1191 18.1256 14.1383C18.0804 14.1575 18.0317 14.1672 17.9825 14.1666H14.8717C14.6794 14.1666 14.5236 14.0175 14.5236 13.8335ZM4.77744 10.5022C3.81627 10.5022 3.03711 9.75642 3.03711 8.8365C3.03711 7.91659 3.81627 7.17084 4.77744 7.17084C5.73852 7.17084 6.51769 7.91667 6.51769 8.8365C6.51769 9.7565 5.73852 10.5022 4.77744 10.5022ZM11.3681 10.7687C12.6518 11.2836 13.4854 12.4874 13.4809 13.8195C13.4823 13.8645 13.4743 13.9094 13.4575 13.9512C13.4407 13.993 13.4154 14.0309 13.3832 14.0624C13.3163 14.1279 13.2263 14.1644 13.1328 14.164H6.86777C6.7741 14.1643 6.68407 14.1278 6.61719 14.0622C6.58495 14.0306 6.55963 13.9926 6.54285 13.9508C6.52606 13.9089 6.51817 13.8639 6.51969 13.8188C6.51544 12.488 7.34727 11.2849 8.62894 10.7687C8.68902 10.7442 8.72977 10.6895 8.73427 10.6271C8.73626 10.5961 8.72946 10.5652 8.71464 10.5379C8.69982 10.5106 8.67759 10.4881 8.65052 10.4729C7.64627 9.89342 7.16877 8.74425 7.48294 7.66292C7.79711 6.58159 8.82594 5.83334 9.99852 5.83334C11.1712 5.83334 12.2 6.58159 12.5142 7.66292C12.8284 8.74425 12.3509 9.89342 11.3465 10.4729C11.3195 10.4881 11.2973 10.5107 11.2825 10.5379C11.2676 10.5652 11.2609 10.5961 11.2629 10.6271C11.2674 10.6895 11.308 10.7442 11.3681 10.7688V10.7687ZM9.99819 9.83592C10.8169 9.83659 11.4984 9.234 11.5624 8.45275C11.5643 8.42677 11.56 8.40069 11.5498 8.37671C11.5396 8.35273 11.5238 8.33154 11.5038 8.31492C11.4832 8.29775 11.459 8.28542 11.433 8.27883C11.407 8.27224 11.3798 8.27156 11.3535 8.27684C11.1361 8.31682 10.9154 8.3369 10.6944 8.33684C10.0106 8.3375 9.3421 8.14359 8.77377 7.77984C8.75116 7.76571 8.72573 7.75671 8.69926 7.75348C8.6728 7.75026 8.64595 7.75288 8.6206 7.76117C8.5956 7.76891 8.57275 7.78241 8.5539 7.80057C8.53504 7.81873 8.5207 7.84105 8.51202 7.86575C8.35302 8.32259 8.43335 8.82475 8.72786 9.21517C9.02236 9.60559 9.4951 9.83659 9.99819 9.83592Z" />
</svg>