<!--character:224-->
  <svg width="24" height="24" viewBox="0 0 24 24" >
<path d="M9.05673 5.32923C9.83724 4.54873 10.8958 4.11024 11.9996 4.11024C13.1034 4.11024 14.162 4.54873 14.9425 5.32923C15.723 6.10974 16.1615 7.16833 16.1615 8.27213C16.1615 9.37594 15.723 10.4345 14.9425 11.215C14.5104 11.6472 13.993 11.9745 13.4299 12.1805C14.7419 12.4561 15.9572 13.1075 16.9196 14.0699C18.2244 15.3747 18.9574 17.1445 18.9574 18.9898C18.9574 19.4868 18.5545 19.8898 18.0574 19.8898C17.5604 19.8898 17.1574 19.4868 17.1574 18.9898C17.1574 17.6218 16.614 16.3099 15.6468 15.3427C14.6795 14.3754 13.3676 13.832 11.9996 13.832C10.6317 13.832 9.3198 14.3754 8.35253 15.3427C7.38525 16.3099 6.84185 17.6218 6.84185 18.9898C6.84185 19.4868 6.4389 19.8898 5.94185 19.8898C5.44479 19.8898 5.04185 19.4868 5.04185 18.9898C5.04185 17.1445 5.7749 15.3747 7.07974 14.0699C8.04212 13.1075 9.25739 12.4561 10.5694 12.1805C10.0063 11.9745 9.48887 11.6472 9.05673 11.215C8.27623 10.4345 7.83774 9.37594 7.83774 8.27213C7.83774 7.16833 8.27623 6.10974 9.05673 5.32923ZM11.9996 5.91024C11.3732 5.91024 10.7725 6.15908 10.3295 6.60202C9.88659 7.04496 9.63774 7.64572 9.63774 8.27213C9.63774 8.89855 9.88659 9.4993 10.3295 9.94224C10.7725 10.3852 11.3732 10.634 11.9996 10.634C12.626 10.634 13.2268 10.3852 13.6697 9.94224C14.1127 9.4993 14.3615 8.89855 14.3615 8.27213C14.3615 7.64572 14.1127 7.04496 13.6697 6.60202C13.2268 6.15908 12.626 5.91024 11.9996 5.91024Z" />
</svg>