<!--character:117:550:928-->
  <svg width="24" height="24" viewBox="0 0 24 24" >
<path   d="M16.6 2.5L21.5 7.5C21.8 7.8 22 8.2 22 8.7V15.5C22 15.9 21.8 16.4 21.5 16.7L16.6 21.5C16.2 21.8 15.8 22 15.4 22H8.6C8.1 22 7.7 21.8 7.3 21.5L2.5 16.7C2.2 16.3 2 15.9 2 15.5V8.7C2 8.2 2.2 7.8 2.5 7.5L7.4 2.5C7.8 2.2 8.2 2 8.6 2H15.4C15.8 2 16.2 2.2 16.6 2.5ZM13.6 18.6C15.3 18.6 16.6 17.3 16.6 15.6L16.5 8.49998C16.5 7.99998 16.3 7.69998 15.8 7.69998C15.3 7.69998 15 8.09998 15 8.49998V11.5C15 11.6 14.8 11.8 14.7 11.8C14.6 11.8 14.4 11.7 14.4 11.5V7.39998C14.4 6.89998 14 6.59998 13.6 6.59998C13.2 6.59998 12.9 6.99998 12.9 7.39998V11.4C12.9 11.5 12.8 11.7 12.6 11.7C12.5 11.7 12.3 11.6 12.3 11.4V6.19998C12.3 5.69998 12 5.39998 11.5 5.39998C11 5.39998 10.7 5.79998 10.7 6.19998V11.5C10.7 11.6 10.6 11.8 10.4 11.8C10.3 11.8 10.1 11.7 10.1 11.5V7.59998C10.1 7.09998 9.8 6.79998 9.4 6.79998C8.9 6.79998 8.6 7.19998 8.6 7.59998V13C8.6 13.1 8.5 13.2 8.4 13.2L8.3 13.1L7.3 11.9C7.1 11.8 6.6 11.8 6.4 12C6.1 12.3 6 12.8 6.2 13C6.5 13.9 7 14.8 7.5 15.6L8.6 17.2C8.6 17.25 8.625 17.275 8.65 17.3C8.675 17.325 8.7 17.35 8.7 17.4C9.2 18.2 10.1 18.6 11 18.6H13.6Z" />
</svg>