<!--character:3276-->
  <svg width="24" height="24" viewBox="0 0 24 24" >
<path d="M16.5998 2.5L21.4998 7.5C21.7998 7.8 21.9998 8.2 21.9998 8.7V15.5C21.9998 15.9 21.7998 16.4 21.4998 16.7L16.5998 21.5C16.1998 21.8 15.7998 22 15.3998 22H8.5998C8.0998 22 7.69981 21.8 7.29981 21.5L2.4998 16.7C2.1998 16.3 1.9998 15.9 1.9998 15.5V8.7C1.9998 8.2 2.1998 7.8 2.4998 7.5L7.39981 2.5C7.7998 2.2 8.19981 2 8.5998 2H15.3998C15.7998 2 16.1998 2.2 16.5998 2.5ZM13.5998 18.6C15.2998 18.6 16.5998 17.3 16.5998 15.6L16.4998 8.5C16.4998 8 16.2998 7.7 15.7998 7.7C15.2998 7.7 14.9998 8.1 14.9998 8.5V11.5C14.9998 11.6 14.7998 11.8 14.6998 11.8C14.5998 11.8 14.3998 11.7 14.3998 11.5V7.4C14.3998 6.9 13.9998 6.6 13.5998 6.6C13.1998 6.6 12.8998 7 12.8998 7.4V11.4C12.8998 11.5 12.7998 11.7 12.5998 11.7C12.4998 11.7 12.2998 11.6 12.2998 11.4V6.2C12.2998 5.7 11.9998 5.4 11.4998 5.4C10.9998 5.4 10.6998 5.8 10.6998 6.2V11.5C10.6998 11.6 10.5998 11.8 10.3998 11.8C10.2998 11.8 10.0998 11.7 10.0998 11.5V7.6C10.0998 7.1 9.7998 6.8 9.3998 6.8C8.8998 6.8 8.5998 7.2 8.5998 7.6V13C8.5998 13.1 8.4998 13.2 8.3998 13.2L8.2998 13.1L7.2998 11.9C7.0998 11.8 6.5998 11.8 6.3998 12C6.0998 12.3 5.9998 12.8 6.1998 13C6.4998 13.9 6.9998 14.8 7.4998 15.6L8.5998 17.2C8.5998 17.25 8.6248 17.275 8.6498 17.3C8.6748 17.325 8.6998 17.35 8.6998 17.4C9.1998 18.2 10.0998 18.6 10.9998 18.6H13.5998Z" />
</svg>