<!--character:7819-->
  <svg width="20" height="20" viewBox="0 0 20 20" >
<path d="M13.8332 2.08333L17.9165 6.25C18.1665 6.5 18.3332 6.83333 18.3332 7.25V12.9167C18.3332 13.25 18.1665 13.6667 17.9165 13.9167L13.8332 17.9167C13.4998 18.1667 13.1665 18.3333 12.8332 18.3333H7.1665C6.74984 18.3333 6.4165 18.1667 6.08317 17.9167L2.08317 13.9167C1.83317 13.5833 1.6665 13.25 1.6665 12.9167V7.25C1.6665 6.83333 1.83317 6.5 2.08317 6.25L6.1665 2.08333C6.49984 1.83333 6.83317 1.66666 7.1665 1.66666H12.8332C13.1665 1.66666 13.4998 1.83333 13.8332 2.08333ZM11.3332 15.5C12.7498 15.5 13.8332 14.4167 13.8332 13L13.7498 7.08333C13.7498 6.66666 13.5832 6.41666 13.1665 6.41666C12.7498 6.41666 12.4998 6.75 12.4998 7.08333V9.58333C12.4998 9.66667 12.3332 9.83333 12.2498 9.83333C12.1665 9.83333 11.9998 9.75 11.9998 9.58333V6.16666C11.9998 5.75 11.6665 5.5 11.3332 5.5C10.9998 5.5 10.7498 5.83333 10.7498 6.16666V9.5C10.7498 9.58333 10.6665 9.75 10.4998 9.75C10.4165 9.75 10.2498 9.66667 10.2498 9.5V5.16666C10.2498 4.75 9.99984 4.5 9.58317 4.5C9.1665 4.5 8.9165 4.83333 8.9165 5.16666V9.58333C8.9165 9.66667 8.83317 9.83333 8.6665 9.83333C8.58317 9.83333 8.4165 9.75 8.4165 9.58333V6.33333C8.4165 5.91666 8.1665 5.66666 7.83317 5.66666C7.4165 5.66666 7.1665 6 7.1665 6.33333V10.8333C7.1665 10.9167 7.08317 11 6.99984 11L6.9165 10.9167L6.08317 9.91667C5.9165 9.83333 5.49984 9.83333 5.33317 10C5.08317 10.25 4.99984 10.6667 5.1665 10.8333C5.4165 11.5833 5.83317 12.3333 6.24984 13L7.1665 14.3333C7.1665 14.375 7.18734 14.3958 7.20817 14.4167C7.229 14.4375 7.24984 14.4583 7.24984 14.5C7.6665 15.1667 8.4165 15.5 9.1665 15.5H11.3332Z" />
</svg>