<!--character:3991-->
  <svg width="24" height="24" viewBox="0 0 24 24" >
<path d="M16.6 2.50001L21.5 7.50001C21.8 7.80001 22 8.20001 22 8.70001V15.5C22 15.9 21.8 16.4 21.5 16.7L16.6 21.5C16.2 21.8 15.8 22 15.4 22H8.60002C8.10002 22 7.70002 21.8 7.30002 21.5L2.50002 16.7C2.20002 16.3 2.00002 15.9 2.00002 15.5V8.70001C2.00002 8.20001 2.20002 7.80001 2.50002 7.50001L7.40002 2.50001C7.80002 2.20001 8.20002 2.00001 8.60002 2.00001H15.4C15.8 2.00001 16.2 2.20001 16.6 2.50001ZM13.6 18.6C15.3 18.6 16.6 17.3 16.6 15.6L16.5 8.50001C16.5 8.00001 16.3 7.70001 15.8 7.70001C15.3 7.70001 15 8.10001 15 8.50001V11.5C15 11.6 14.8 11.8 14.7 11.8C14.6 11.8 14.4 11.7 14.4 11.5V7.40001C14.4 6.90001 14 6.60001 13.6 6.60001C13.2 6.60001 12.9 7.00001 12.9 7.40001V11.4C12.9 11.5 12.8 11.7 12.6 11.7C12.5 11.7 12.3 11.6 12.3 11.4V6.20001C12.3 5.70001 12 5.40001 11.5 5.40001C11 5.40001 10.7 5.80001 10.7 6.20001V11.5C10.7 11.6 10.6 11.8 10.4 11.8C10.3 11.8 10.1 11.7 10.1 11.5V7.60001C10.1 7.10001 9.80002 6.80001 9.40002 6.80001C8.90002 6.80001 8.60002 7.20001 8.60002 7.60001V13C8.60002 13.1 8.50002 13.2 8.40002 13.2L8.30002 13.1L7.30002 11.9C7.10002 11.8 6.60002 11.8 6.40002 12C6.10002 12.3 6.00002 12.8 6.20002 13C6.50002 13.9 7.00002 14.8 7.50002 15.6L8.60002 17.2C8.60002 17.25 8.62502 17.275 8.65002 17.3C8.67502 17.325 8.70002 17.35 8.70002 17.4C9.20002 18.2 10.1 18.6 11 18.6H13.6Z" />
</svg>