<!-- character:0:1717 -->
  <svg width="20" height="20" viewBox="0 0 20 20" >
<path   d="M13.8333 2.08329L17.9166 6.24996C18.1666 6.49996 18.3333 6.83329 18.3333 7.24996V12.9166C18.3333 13.25 18.1666 13.6666 17.9166 13.9166L13.8333 17.9166C13.5 18.1666 13.1666 18.3333 12.8333 18.3333H7.16663C6.74996 18.3333 6.41663 18.1666 6.08329 17.9166L2.08329 13.9166C1.83329 13.5833 1.66663 13.25 1.66663 12.9166V7.24996C1.66663 6.83329 1.83329 6.49996 2.08329 6.24996L6.16663 2.08329C6.49996 1.83329 6.83329 1.66663 7.16663 1.66663H12.8333C13.1666 1.66663 13.5 1.83329 13.8333 2.08329ZM11.3333 15.5C12.75 15.5 13.8333 14.4166 13.8333 13L13.75 7.08329C13.75 6.66663 13.5833 6.41663 13.1666 6.41663C12.75 6.41663 12.5 6.74996 12.5 7.08329V9.58329C12.5 9.66663 12.3333 9.83329 12.25 9.83329C12.1666 9.83329 12 9.74996 12 9.58329V6.16663C12 5.74996 11.6666 5.49996 11.3333 5.49996C11 5.49996 10.75 5.83329 10.75 6.16663V9.49996C10.75 9.58329 10.6666 9.74996 10.5 9.74996C10.4166 9.74996 10.25 9.66663 10.25 9.49996V5.16663C10.25 4.74996 9.99996 4.49996 9.58329 4.49996C9.16663 4.49996 8.91663 4.83329 8.91663 5.16663V9.58329C8.91663 9.66663 8.83329 9.83329 8.66663 9.83329C8.58329 9.83329 8.41663 9.74996 8.41663 9.58329V6.33329C8.41663 5.91663 8.16663 5.66663 7.83329 5.66663C7.41663 5.66663 7.16663 5.99996 7.16663 6.33329V10.8333C7.16663 10.9166 7.08329 11 6.99996 11L6.91663 10.9166L6.08329 9.91663C5.91663 9.83329 5.49996 9.83329 5.33329 9.99996C5.08329 10.25 4.99996 10.6666 5.16663 10.8333C5.41663 11.5833 5.83329 12.3333 6.24996 13L7.16663 14.3333C7.16663 14.375 7.18746 14.3958 7.20829 14.4166C7.22913 14.4375 7.24996 14.4583 7.24996 14.5C7.66663 15.1666 8.41663 15.5 9.16663 15.5H11.3333Z" />
</svg>