<!--character:4825-->
  <svg width="20" height="20" viewBox="0 0 20 20" >
<path d="M9.72803 7.23339C9.81848 7.22419 9.90934 7.21956 10.0003 7.2195C11.5344 7.2195 12.7781 8.46318 12.7781 9.99734C12.7781 11.5315 11.5344 12.7752 10.0003 12.7752C8.4661 12.7752 7.22242 11.5315 7.22242 9.99734C7.22387 9.80687 7.24717 9.6172 7.29187 9.43205C7.30563 9.37407 7.34816 9.32721 7.40453 9.3079C7.4609 9.28859 7.52324 9.29954 7.56965 9.33691C8.09969 9.77015 8.86676 9.75108 9.3746 9.29202C9.88245 8.83296 9.97864 8.07171 9.60094 7.50076C9.56757 7.45022 9.56306 7.38591 9.58906 7.33122C9.61505 7.27652 9.66777 7.23941 9.72803 7.23339Z" />
<path d="M17.7032 8.37577C15.8775 6.36532 13.1906 4.58056 10.4058 4.45C10.2704 4.44167 10.1391 4.44167 10.0003 4.44167C7.04672 4.46528 4.35847 6.15698 2.40149 8.26119C2.36677 8.29869 2.33204 8.33688 2.29732 8.37508C1.45721 9.29263 1.45721 10.7 2.29732 11.6175C3.13414 12.5404 6.16059 15.553 9.91137 15.553H10.0891C13.8392 15.553 16.8664 12.5404 17.7046 11.6175C18.5442 10.6998 18.5436 9.29274 17.7032 8.37577ZM16.6768 10.6828C15.1698 12.3411 12.9823 13.9155 10.6753 14.1328C10.4511 14.1564 10.2257 14.1669 10.0003 14.1641C7.47937 14.1051 5.25016 12.6988 3.55151 10.9293C3.4742 10.8487 3.39804 10.767 3.32304 10.6842C2.97086 10.294 2.97086 9.70068 3.32304 9.31052C4.96682 7.49728 7.45298 5.77155 10.0003 5.83058C10.8953 5.8296 11.781 6.01256 12.6024 6.36809C13.4454 6.7219 14.2391 7.18339 14.9636 7.74104C15.5825 8.20939 16.1567 8.7341 16.6789 9.30843C17.0309 9.69923 17.03 10.293 16.6768 10.6828Z" />
</svg>