<!--character:6438-->
  <svg width="24" height="24" viewBox="0 0 24 24" >
<path d="M20.5628 2.25973C20.8957 1.92676 21.3952 1.92676 21.7281 2.25973C22.0611 2.59269 22.0611 3.09213 21.7281 3.4251L3.41519 21.7381C3.16547 22.071 2.58278 22.071 2.24982 21.7381C1.91686 21.4051 1.91686 20.9056 2.24982 20.5727L6.0328 16.7897C4.40766 15.7359 3.23351 14.5501 2.74926 13.9967C1.75038 12.8313 1.75038 11.1665 2.74926 10.0844L2.91575 9.91787C5.24649 7.42065 8.40963 5.33963 11.989 5.33963H12.4884C13.8412 5.40405 15.1441 5.81741 16.3971 6.4254L20.5628 2.25973ZM15.1282 7.69432C15.1086 7.68633 15.0888 7.67835 15.0689 7.67037C14.1532 7.25417 13.0711 7.00445 11.989 7.00445C8.90908 6.92121 5.99565 9.00222 3.99787 11.1665C3.58167 11.6659 3.58167 12.3319 3.99787 12.8313C4.08112 12.9145 4.16436 12.9978 4.2476 13.1643C5.1299 14.1096 6.10763 14.9595 7.21692 15.6056L9.12461 13.6979C8.83125 13.2113 8.65936 12.6337 8.65936 11.9989V11.2497C8.7426 11.1665 8.90908 11.1665 8.99232 11.2497C9.575 11.6659 10.4074 11.7492 10.9901 11.333C11.8225 10.8335 11.989 9.75139 11.4895 9.00222V8.91898C11.4895 8.7525 11.5728 8.66926 11.656 8.66926H11.989C12.6238 8.66926 13.2014 8.84115 13.688 9.13451L15.1282 7.69432Z" />
<path d="M11.989 15.3285C13.8203 15.3285 15.3186 13.8302 15.3186 11.9989C15.3186 11.8324 15.3186 11.6659 15.2354 11.5827L11.4895 15.3285H11.989Z" />
<path d="M18.898 8.00334C19.7304 8.58602 20.5628 9.33519 21.2287 10.0844C22.2276 11.1665 22.2276 12.8313 21.3952 13.9967C20.3963 15.162 16.7337 18.7414 12.2387 18.7414H11.989C10.8236 18.7414 9.82472 18.4917 8.82584 18.1587L10.1577 16.8269C10.8236 16.9933 11.4063 17.0766 12.0722 17.0766H12.9046C15.6516 16.8269 18.232 14.9123 20.0633 12.9145C20.4795 12.4151 20.4795 11.7492 20.0633 11.2497C19.3974 10.5006 18.7315 9.91787 17.9823 9.33519C17.9407 9.29357 17.8991 9.27276 17.8575 9.25195C17.8158 9.23114 17.7742 9.21033 17.7326 9.1687L18.898 8.00334Z" />
</svg>