<!-- character:0:252 -->
  <svg width="20" height="20" viewBox="0 0 20 20" >
<path   d="M17.1356 1.88309C17.413 1.60562 17.8292 1.60562 18.1067 1.88309C18.3842 2.16056 18.3842 2.57676 18.1067 2.85423L2.8459 18.115C2.6378 18.3925 2.15223 18.3925 1.87476 18.115C1.59729 17.8376 1.59729 17.4214 1.87476 17.1439L5.02725 13.9914C3.67296 13.1133 2.6945 12.1251 2.29096 11.6639C1.45855 10.6927 1.45855 9.30539 2.29096 8.40361L2.4297 8.26488C4.37198 6.18386 7.00794 4.44968 9.99073 4.44968H10.4069C11.5342 4.50336 12.62 4.84782 13.6642 5.35449L17.1356 1.88309ZM12.6067 6.41192C12.5904 6.40526 12.5739 6.39861 12.5573 6.39196C11.7943 6.04513 10.8925 5.83702 9.99073 5.83702C7.42414 5.76766 4.99628 7.50184 3.33147 9.30539C2.98463 9.72159 2.98463 10.2765 3.33147 10.6927C3.40084 10.7621 3.47021 10.8315 3.53957 10.9702C4.27483 11.758 5.0896 12.4662 6.01401 13.0046L7.60375 11.4149C7.35928 11.0094 7.21604 10.5281 7.21604 9.99906V9.44412V9.37475C7.28541 9.30539 7.42414 9.30539 7.49351 9.37475C7.97908 9.72159 8.67275 9.79096 9.15832 9.44412C9.85199 9.02792 9.99073 8.12614 9.57452 7.50184V7.43247C9.57452 7.29374 9.64389 7.22437 9.71326 7.22437H9.99073C10.5198 7.22437 11.001 7.36761 11.4066 7.61208L12.6067 6.41192ZM9.99073 12.7737C11.5168 12.7737 12.7654 11.5251 12.7654 9.99906C12.7654 9.86032 12.7654 9.72159 12.696 9.65222L9.57452 12.7737H9.99073ZM15.7482 6.66943C16.4419 7.155 17.1356 7.77931 17.6905 8.40361C18.5229 9.30539 18.5229 10.6927 17.8292 11.6639C16.9968 12.635 13.9447 15.6178 10.1988 15.6178H9.99073C9.01959 15.6178 8.18718 15.4097 7.35477 15.1322L8.46465 14.0224C9.01959 14.1611 9.50516 14.2305 10.0601 14.2305H10.7538C13.0429 14.0224 15.1933 12.4269 16.7194 10.7621C17.0662 10.3459 17.0662 9.79096 16.7194 9.37475C16.1644 8.75045 15.6095 8.26488 14.9852 7.77931C14.9505 7.74462 14.9158 7.72728 14.8811 7.70994C14.8464 7.6926 14.8118 7.67526 14.7771 7.64057L15.7482 6.66943Z" />
</svg>