<!-- character:0:240 -->
  <svg width="20" height="20" viewBox="0 0 20 20" >
<path   d="M17.7032 8.37576C15.8775 6.3653 13.1906 4.58054 10.4058 4.44998C10.2704 4.44165 10.1391 4.44165 10.0003 4.44165C7.04672 4.46526 4.35847 6.15696 2.40149 8.26117C2.36677 8.29867 2.33204 8.33687 2.29732 8.37506C1.45721 9.29262 1.45721 10.6999 2.29732 11.6175C3.13414 12.5404 6.16059 15.553 9.91137 15.553H10.0891C13.8392 15.553 16.8664 12.5404 17.7046 11.6175C18.5442 10.6998 18.5436 9.29272 17.7032 8.37576ZM16.6768 10.6828C15.1698 12.3411 12.9823 13.9155 10.6753 14.1328C10.4511 14.1564 10.2257 14.1668 10.0003 14.1641C7.47937 14.105 5.25016 12.6988 3.55151 10.9293C3.4742 10.8487 3.39804 10.767 3.32304 10.6841C2.97086 10.294 2.97086 9.70066 3.32304 9.3105C4.96682 7.49727 7.45298 5.77154 10.0003 5.83057C10.8953 5.82959 11.781 6.01254 12.6024 6.36808C13.4454 6.72189 14.2391 7.18337 14.9636 7.74102C15.5825 8.20938 16.1567 8.73409 16.6789 9.30842C17.0309 9.69922 17.03 10.293 16.6768 10.6828ZM9.72803 7.23337C9.81848 7.22418 9.90934 7.21954 10.0003 7.21949C11.5344 7.21949 12.7781 8.46316 12.7781 9.99732C12.7781 11.5315 11.5344 12.7752 10.0003 12.7752C8.4661 12.7752 7.22242 11.5315 7.22242 9.99732C7.22387 9.80685 7.24717 9.61718 7.29187 9.43203C7.30563 9.37406 7.34816 9.32719 7.40453 9.30789C7.4609 9.28858 7.52324 9.29953 7.56965 9.33689C8.09969 9.77014 8.86676 9.75106 9.3746 9.29201C9.88245 8.83295 9.97864 8.07169 9.60094 7.50074C9.56757 7.45021 9.56306 7.3859 9.58906 7.3312C9.61505 7.27651 9.66777 7.2394 9.72803 7.23337Z" />
</svg>