<!--character:$472:270-->
  <svg width="24" height="24" viewBox="0 0 24 24" >
<path d="M20.5627 2.25973C20.8956 1.92677 21.3951 1.92677 21.728 2.25973C22.061 2.59269 22.061 3.09214 21.728 3.4251L3.41509 21.7381C3.16537 22.071 2.58268 22.071 2.24972 21.7381C1.91676 21.4051 1.91676 20.9056 2.24972 20.5727L6.03271 16.7897C4.40756 15.7359 3.23341 14.5501 2.74917 13.9967C1.75028 12.8313 1.75028 11.1665 2.74917 10.0843L2.91565 9.91787C5.24639 7.42065 8.40953 5.33963 11.9889 5.33963H12.4883C13.8411 5.40405 15.144 5.8174 16.397 6.4254L20.5627 2.25973ZM15.1281 7.69432C15.1085 7.68633 15.0887 7.67835 15.0688 7.67037C14.1531 7.25416 13.071 7.00444 11.9889 7.00444C8.90898 6.9212 5.99555 9.00222 3.99778 11.1665C3.58157 11.6659 3.58157 12.3318 3.99778 12.8313C4.08102 12.9145 4.16426 12.9978 4.2475 13.1643C5.12981 14.1096 6.10754 14.9595 7.21683 15.6056L9.12452 13.6979C8.83116 13.2113 8.65927 12.6337 8.65927 11.9989V11.2497C8.74251 11.1665 8.90899 11.1665 8.99223 11.2497C9.57492 11.6659 10.4073 11.7492 10.99 11.3329C11.8224 10.8335 11.9889 9.75138 11.4895 9.00221V8.91897C11.4895 8.75249 11.5727 8.66925 11.6559 8.66925H11.9889C12.6237 8.66925 13.2013 8.84114 13.6879 9.1345L15.1281 7.69432Z" />
<path d="M11.9889 15.3285C13.8202 15.3285 15.3185 13.8302 15.3185 11.9989C15.3185 11.8324 15.3185 11.6659 15.2353 11.5827L11.4894 15.3285H11.9889Z" />
<path d="M18.8978 8.00333C19.7303 8.58602 20.5627 9.33518 21.2286 10.0843C22.2275 11.1665 22.2275 12.8313 21.3951 13.9967C20.3962 15.162 16.7336 18.7414 12.2386 18.7414H11.9889C10.8235 18.7414 9.82461 18.4917 8.82572 18.1587L10.1576 16.8268C10.8235 16.9933 11.4062 17.0766 12.0721 17.0766H12.9045C15.6515 16.8268 18.2319 14.9123 20.0632 12.9145C20.4794 12.4151 20.4794 11.7492 20.0632 11.2497C19.3973 10.5006 18.7314 9.91787 17.9822 9.33518C17.9406 9.29356 17.899 9.27275 17.8573 9.25194C17.8157 9.23113 17.7741 9.21032 17.7325 9.1687L18.8978 8.00333Z" />
</svg>