<!--character:7489-->
  <svg width="24" height="24" viewBox="0 0 24 24" >
<path d="M11.6736 8.68007C11.7822 8.66903 11.8912 8.66347 12.0003 8.6634C13.8413 8.6634 15.3337 10.1558 15.3337 11.9968C15.3337 13.8378 13.8413 15.3302 12.0003 15.3302C10.1593 15.3302 8.66691 13.8378 8.66691 11.9968C8.66864 11.7682 8.6966 11.5406 8.75024 11.3185C8.76676 11.2489 8.8178 11.1926 8.88544 11.1695C8.95308 11.1463 9.02788 11.1595 9.08358 11.2043C9.71962 11.7242 10.6401 11.7013 11.2495 11.1504C11.8589 10.5996 11.9744 9.68605 11.5211 9.00091C11.4811 8.94027 11.4757 8.8631 11.5069 8.79746C11.5381 8.73183 11.6013 8.6873 11.6736 8.68007Z" />
<path d="M21.2438 10.0509C19.053 7.63838 15.8287 5.49667 12.487 5.34C12.3245 5.33 12.167 5.33 12.0003 5.33C8.45607 5.35833 5.23017 7.38837 2.88179 9.91343C2.84012 9.95843 2.79845 10.0043 2.75678 10.0501C1.74865 11.1512 1.74865 12.8399 2.75678 13.941C3.76097 15.0485 7.39271 18.6636 11.8936 18.6636H12.107C16.6071 18.6636 20.2396 15.0485 21.2455 13.941C22.2531 12.8398 22.2523 11.1513 21.2438 10.0509ZM20.0121 12.8193C18.2038 14.8094 15.5787 16.6986 12.8103 16.9594C12.5413 16.9877 12.2708 17.0002 12.0003 16.9969C8.97525 16.9261 6.30019 15.2385 4.26182 13.1152C4.16904 13.0185 4.07765 12.9204 3.98764 12.821C3.56503 12.3528 3.56503 11.6408 3.98764 11.1726C5.96018 8.99674 8.94358 6.92586 12.0003 6.9967C13.0744 6.99553 14.1372 7.21507 15.1229 7.64171C16.1345 8.06628 17.0869 8.62006 17.9563 9.28925C18.699 9.85127 19.3881 10.4809 20.0146 11.1701C20.4371 11.6391 20.436 12.3516 20.0121 12.8193Z" />
</svg>