<!--character:2165-->
  <svg width="20" height="20" viewBox="0 0 20 20" >
<path d="M17.1356 1.8831C17.4131 1.60564 17.8293 1.60564 18.1068 1.8831C18.3843 2.16057 18.3843 2.57678 18.1068 2.85425L2.84599 18.115C2.63789 18.3925 2.15232 18.3925 1.87485 18.115C1.59738 17.8376 1.59738 17.4214 1.87485 17.1439L5.02734 13.9914C3.67305 13.1133 2.69459 12.1251 2.29105 11.6639C1.45865 10.6927 1.45865 9.3054 2.29105 8.40363L2.42979 8.26489C4.37207 6.18387 7.00803 4.44969 9.99082 4.44969H10.407C11.5343 4.50337 12.62 4.84784 13.6643 5.3545L17.1356 1.8831ZM12.6068 6.41193C12.5905 6.40528 12.574 6.39863 12.5574 6.39198C11.7944 6.04514 10.8926 5.83704 9.99082 5.83704C7.42423 5.76767 4.99638 7.50185 3.33156 9.3054C2.98473 9.72161 2.98473 10.2765 3.33156 10.6927C3.40093 10.7621 3.4703 10.8315 3.53966 10.9702C4.27492 11.758 5.0897 12.4662 6.0141 13.0047L7.60384 11.4149C7.35937 11.0094 7.21613 10.5281 7.21613 9.99907V9.37477C7.2855 9.3054 7.42423 9.3054 7.4936 9.37477C7.97917 9.72161 8.67284 9.79097 9.15841 9.44414C9.85209 9.02793 9.99082 8.12616 9.57462 7.50185V7.43249C9.57462 7.29375 9.64398 7.22438 9.71335 7.22438H9.99082C10.5199 7.22438 11.0011 7.36763 11.4067 7.61209L12.6068 6.41193Z" />
<path d="M9.99082 12.7738C11.5169 12.7738 12.7655 11.5252 12.7655 9.99907C12.7655 9.86034 12.7655 9.7216 12.6961 9.65224L9.57461 12.7738H9.99082Z" />
<path d="M15.7483 6.66945C16.442 7.15502 17.1356 7.77932 17.6906 8.40363C18.523 9.3054 18.523 10.6927 17.8293 11.6639C16.9969 12.635 13.9448 15.6178 10.1989 15.6178H9.99082C9.01968 15.6178 8.18727 15.4097 7.35486 15.1323L8.46474 14.0224C9.01968 14.1611 9.50525 14.2305 10.0602 14.2305H10.7539C13.043 14.0224 15.1934 12.4269 16.7194 10.7621C17.0663 10.3459 17.0663 9.79097 16.7194 9.37477C16.1645 8.75046 15.6096 8.26489 14.9853 7.77932C14.9506 7.74464 14.9159 7.7273 14.8812 7.70995C14.8465 7.69261 14.8118 7.67527 14.7772 7.64059L15.7483 6.66945Z" />
</svg>