<!--category:basic-->
<!--character:E005-->
<svg width="24" height="24" viewBox="0 0 24 24" xmlns="http://www.w3.org/2000/svg"><path d="M21.2438 10.051c1.0085 1.1003 1.0092 2.7888.0017 3.89-1.0059 1.1075-4.6384 4.7226-9.1385 4.7226h-.2134c-4.5009 0-8.1326-3.615-9.1368-4.7226-1.0082-1.101-1.0082-2.7898 0-3.8909.0416-.0458.0833-.0917.125-.1367 2.3484-2.525 5.5743-4.555 9.1185-4.5834.1667 0 .3242 0 .4867.01 3.3417.1567 6.566 2.2984 8.7568 4.711zm-1.2317 2.7683a1.23 1.23 0 0 0 .0025-1.6492 15.0761 15.0761 0 0 0-2.0583-1.8809 12.7078 12.7078 0 0 0-2.8334-1.6475 7.8393 7.8393 0 0 0-3.1226-.645c-3.0567-.0708-6.0401 2-8.0127 4.176a1.23 1.23 0 0 0 0 1.6483c.09.0994.1814.1975.2742.2942 2.0384 2.1233 4.7134 3.8109 7.7385 3.8817a6.931 6.931 0 0 0 .81-.0375c2.7684-.2608 5.3935-2.15 7.2018-4.14zm-8.0118-4.1559c1.841 0 3.3334 1.4924 3.3334 3.3334 0 1.841-1.4924 3.3334-3.3334 3.3334-1.841 0-3.3334-1.4924-3.3334-3.3334a2.9867 2.9867 0 0 1 .0833-.6783.2083.2083 0 0 1 .3334-.1142 1.6617 1.6617 0 0 0 2.4375-2.2034.2075.2075 0 0 1 .1525-.3208 3.25 3.25 0 0 1 .3267-.0167z"/></svg>