<!--category:basic-->
<!--character:E004-->
<svg width="24" height="24" viewBox="0 0 24 24" xmlns="http://www.w3.org/2000/svg"><path d="M6.0327 16.7897c-1.6251-1.0538-2.7993-2.2396-3.2835-2.793-.999-1.1654-.999-2.8302 0-3.9124l.1664-.1664c2.3308-2.4973 5.494-4.5783 9.0733-4.5783h.4994c1.3528.0644 2.6557.4778 3.9087 1.0858l4.1657-4.1657c.333-.333.8324-.333 1.1653 0 .333.333.333.8324 0 1.1654L3.415 21.738c-.2496.333-.8323.333-1.1653 0-.333-.333-.333-.8325 0-1.1654l3.783-3.783zm1.1841-1.1841l1.9077-1.9077c-.2934-.4866-.4652-1.0642-.4652-1.699v-.666-.0832c.0832-.0832.2497-.0832.333 0 .5826.4162 1.415.4995 1.9977.0833.8324-.4995.9989-1.5816.4994-2.3308V8.919c0-.1665.0833-.2497.1665-.2497h.333c.6348 0 1.2124.1718 1.699.4652l1.4402-1.4402a9.4092 9.4092 0 0 0-.0593-.024c-.9157-.4161-1.9978-.6659-3.08-.6659-3.0798-.0832-5.9932 1.9978-7.991 4.162-.4162.4995-.4162 1.1654 0 1.6649.0832.0832.1665.1665.2497.333.8823.9453 1.86 1.7952 2.9693 2.4413zm4.772-.277h-.4994l3.7459-3.746c.0832.0833.0832.2498.0832.4163 0 1.8313-1.4983 3.3296-3.3296 3.3296zm9.2398-5.2443c.9989 1.0822.9989 2.747.1665 3.9124-.9989 1.1653-4.6615 4.7447-9.1565 4.7447h-.2497c-1.1654 0-2.1643-.2497-3.1632-.5827l1.3319-1.3319c.666.1665 1.2486.2498 1.9145.2498h.8324c2.747-.2498 5.3274-2.1643 7.1587-4.162.4162-.4995.4162-1.1654 0-1.6649-.6659-.7491-1.3318-1.3318-2.081-1.9145-.0832-.0833-.1665-.0833-.2497-.1665l1.1654-1.1654c.8324.5827 1.6648 1.3319 2.3307 2.081z"/></svg>