<!--character:$472:263-->
  <svg width="24" height="24" viewBox="0 0 24 24" >
<path d="M11.6736 8.68002C11.7821 8.66898 11.8912 8.66342 12.0003 8.66335C13.8413 8.66335 15.3337 10.1558 15.3337 11.9968C15.3337 13.8377 13.8413 15.3302 12.0003 15.3302C10.1593 15.3302 8.66687 13.8377 8.66687 11.9968C8.6686 11.7682 8.69657 11.5406 8.75021 11.3184C8.76672 11.2488 8.81776 11.1926 8.88541 11.1694C8.95305 11.1463 9.02785 11.1594 9.08355 11.2042C9.71959 11.7241 10.6401 11.7012 11.2495 11.1504C11.8589 10.5995 11.9743 9.686 11.5211 9.00086C11.481 8.94022 11.4756 8.86305 11.5068 8.79741C11.538 8.73178 11.6013 8.68725 11.6736 8.68002Z" />
<path d="M21.2438 10.0509C19.0529 7.63834 15.8287 5.49663 12.4869 5.33996C12.3244 5.32996 12.1669 5.32996 12.0003 5.32996C8.45603 5.35829 5.23013 7.38833 2.88174 9.91338C2.84008 9.95838 2.79841 10.0042 2.75674 10.0501C1.74861 11.1511 1.74861 12.8399 2.75674 13.941C3.76093 15.0485 7.39267 18.6636 11.8936 18.6636H12.1069C16.607 18.6636 20.2396 15.0485 21.2455 13.941C22.253 12.8397 22.2523 11.1512 21.2438 10.0509ZM20.0121 12.8193C18.2037 14.8093 15.5787 16.6985 12.8103 16.9594C12.5413 16.9877 12.2708 17.0002 12.0003 16.9969C8.97522 16.926 6.30016 15.2385 4.26178 13.1151C4.169 13.0184 4.07761 12.9204 3.98761 12.8209C3.565 12.3527 3.565 11.6408 3.98761 11.1726C5.96015 8.99669 8.94355 6.92582 12.0003 6.99665C13.0743 6.99548 14.1372 7.21502 15.1228 7.64167C16.1345 8.06623 17.0868 8.62002 17.9562 9.2892C18.699 9.85123 19.3881 10.4809 20.0146 11.1701C20.437 11.639 20.4359 12.3516 20.0121 12.8193Z" />
</svg>