<!--character:6026-->
  <svg width="24" height="24" viewBox="0 0 24 24" >
<path d="M13.6669 4.22888C13.6669 5.45986 12.669 6.45777 11.438 6.45777C10.207 6.45777 9.20913 5.45986 9.20913 4.22888C9.20913 2.9979 10.207 2 11.438 2C12.669 2 13.6669 2.9979 13.6669 4.22888Z" />
<path d="M15.5472 12.3973C14.7726 12.1394 14.0447 11.7583 13.3914 11.2686L13.1346 11.0742C13.0671 11.0236 12.9767 11.0154 12.9012 11.0532C12.8257 11.091 12.778 11.1681 12.778 11.2526V12.8609C12.7798 13.1206 12.8956 13.3663 13.0945 13.5331C15.0101 15.3766 16.4136 17.6864 17.1671 20.2358C17.28 20.5727 17.2542 20.9405 17.0955 21.2583C16.9368 21.5761 16.6581 21.8177 16.3211 21.9298C16.1849 21.9758 16.0422 21.9993 15.8985 21.9993C15.3228 21.9993 14.8117 21.6308 14.6298 21.0846C14.1601 19.5111 13.4322 18.0267 12.4758 16.6919C12.4243 16.628 12.3419 16.5975 12.2612 16.6126C12.1805 16.6277 12.1146 16.6859 12.0897 16.7641C11.6048 18.4606 10.8328 20.0615 9.80737 21.4974C9.34625 22.0745 8.50462 22.1685 7.92753 21.7074C7.35045 21.2462 7.25645 20.4046 7.71757 19.8275C8.65595 18.581 9.32757 17.1546 9.69058 15.6372C9.96502 14.4028 10.1034 13.1421 10.1034 11.8775V10.6677C10.1035 10.5871 10.0601 10.5126 9.98985 10.4731C9.9196 10.4335 9.83345 10.435 9.76458 10.4769C8.85527 11.0374 8.30642 12.0336 8.31848 13.1016C8.28328 13.8143 7.69472 14.3739 6.98115 14.373C6.6083 14.374 6.25194 14.2194 5.99803 13.9464C5.74413 13.6733 5.61573 13.3067 5.64382 12.9349C5.67394 10.8235 6.88227 8.90621 8.77406 7.96807C10.4946 7.10996 12.552 7.29628 14.0904 8.44951L14.9962 9.12887C15.4187 9.44589 15.8895 9.69275 16.3906 9.85995L17.3758 10.1871C18.0167 10.3844 18.4237 11.0132 18.3413 11.6787C18.2422 12.3323 17.6803 12.8154 17.0191 12.8154C16.8752 12.8152 16.7323 12.7921 16.5957 12.7468L15.5472 12.3973Z" />
</svg>