<!--character:6079-->
  <svg width="20" height="20" viewBox="0 0 20 20" >
<path d="M11.3893 3.52407C11.3893 4.54988 10.5577 5.38147 9.53187 5.38147C8.50605 5.38147 7.67447 4.54988 7.67447 3.52407C7.67447 2.49825 8.50605 1.66666 9.53187 1.66666C10.5577 1.66666 11.3893 2.49825 11.3893 3.52407Z" />
<path d="M12.9562 10.3311C12.3107 10.1161 11.7041 9.79854 11.1597 9.39049L10.9457 9.22852C10.8894 9.18631 10.8141 9.17952 10.7512 9.21098C10.6883 9.24244 10.6485 9.30676 10.6485 9.37711V10.7174C10.6501 10.9338 10.7465 11.1386 10.9123 11.2776C12.5086 12.8138 13.6782 14.7386 14.3061 16.8632C14.4002 17.1439 14.3787 17.4504 14.2464 17.7153C14.1142 17.9801 13.882 18.1814 13.6011 18.2748C13.4876 18.3132 13.3687 18.3328 13.2489 18.3328C12.7692 18.3327 12.3433 18.0257 12.1917 17.5705C11.8003 16.2593 11.1937 15.0222 10.3967 13.9099C10.3538 13.8566 10.2851 13.8312 10.2178 13.8438C10.1506 13.8564 10.0957 13.9049 10.075 13.9701C9.67083 15.3838 9.02753 16.7179 8.17299 17.9145C7.78872 18.3954 7.08736 18.4737 6.60646 18.0894C6.12556 17.7052 6.04722 17.0038 6.43149 16.5229C7.21347 15.4842 7.77316 14.2955 8.07567 13.031C8.30437 12.0023 8.41972 10.9517 8.41966 9.89793V8.88973C8.41978 8.82254 8.3836 8.76052 8.32506 8.72755C8.26651 8.69458 8.19472 8.6958 8.13733 8.73074C7.37958 9.19778 6.9222 10.0279 6.93225 10.918C6.90291 11.5119 6.41245 11.9782 5.81781 11.9775C5.5071 11.9784 5.21013 11.8495 4.99854 11.622C4.78695 11.3944 4.67996 11.0889 4.70337 10.7791C4.72847 9.01957 5.73541 7.42183 7.3119 6.64004C8.74565 5.92495 10.4602 6.08022 11.7422 7.04124L12.497 7.60738C12.8491 7.87156 13.2415 8.07728 13.659 8.21661L14.48 8.48927C15.0141 8.65367 15.3533 9.17763 15.2846 9.73225C15.202 10.2769 14.7337 10.6795 14.1828 10.6795C14.0629 10.6793 13.9437 10.66 13.8299 10.6223L12.9562 10.3311Z" />
</svg>