<!--character:2529-->
  <svg width="24" height="24" viewBox="0 0 24 24" >
<path d="M13.6671 4.22888C13.6671 5.45986 12.6692 6.45776 11.4382 6.45776C10.2073 6.45776 9.20936 5.45986 9.20936 4.22888C9.20936 2.9979 10.2073 2 11.4382 2C12.6692 2 13.6671 2.9979 13.6671 4.22888Z" />
<path d="M15.5474 12.3973C14.7728 12.1394 14.0449 11.7582 13.3916 11.2686L13.1349 11.0742C13.0673 11.0236 12.977 11.0154 12.9015 11.0532C12.8259 11.0909 12.7782 11.1681 12.7782 11.2525V12.8609C12.7801 13.1205 12.8958 13.3663 13.0947 13.5331C15.0103 15.3766 16.4138 17.6863 17.1674 20.2358C17.2802 20.5726 17.2545 20.9405 17.0957 21.2583C16.937 21.5761 16.6584 21.8177 16.3213 21.9298C16.1851 21.9758 16.0424 21.9993 15.8987 21.9993C15.323 21.9993 14.8119 21.6308 14.63 21.0846C14.1603 19.5111 13.4324 18.0267 12.476 16.6919C12.4245 16.628 12.3421 16.5975 12.2614 16.6126C12.1807 16.6277 12.1148 16.6859 12.09 16.7641C11.605 18.4606 10.833 20.0615 9.80759 21.4974C9.34647 22.0745 8.50483 22.1685 7.92775 21.7073C7.35067 21.2462 7.25667 20.4046 7.71779 19.8275C8.65617 18.581 9.32779 17.1546 9.6908 15.6372C9.96524 14.4028 10.1037 13.1421 10.1036 11.8775V10.6677C10.1037 10.587 10.0603 10.5126 9.99007 10.4731C9.91981 10.4335 9.83367 10.435 9.7648 10.4769C8.85549 11.0373 8.30663 12.0335 8.3187 13.1016C8.2835 13.8143 7.69494 14.3738 6.98137 14.373C6.60852 14.374 6.25216 14.2194 5.99825 13.9464C5.74435 13.6733 5.61595 13.3067 5.64404 12.9349C5.67416 10.8235 6.88249 8.90619 8.77428 7.96805C10.4948 7.10994 12.5523 7.29627 14.0906 8.44949L14.9964 9.12886C15.4189 9.44588 15.8898 9.69273 16.3908 9.85993L17.376 10.1871C18.0169 10.3844 18.424 11.0132 18.3415 11.6787C18.2424 12.3323 17.6805 12.8154 17.0194 12.8154C16.8754 12.8152 16.7325 12.792 16.5959 12.7468L15.5474 12.3973Z" />
</svg>