<!-- character:0:1179 -->
  <svg width="20" height="20" viewBox="0 0 20 20" >
<path   d="M11.389 3.52403C11.389 4.54984 10.5574 5.38143 9.53162 5.38143C8.50581 5.38143 7.67422 4.54984 7.67422 3.52403C7.67422 2.49821 8.50581 1.66663 9.53162 1.66663C10.5574 1.66663 11.389 2.49821 11.389 3.52403ZM12.9559 10.331C12.3104 10.1161 11.7038 9.7985 11.1595 9.39045L10.9455 9.22848C10.8892 9.18627 10.8139 9.17948 10.751 9.21094C10.688 9.24241 10.6483 9.30672 10.6483 9.37707V10.7174C10.6498 10.9338 10.7462 11.1386 10.912 11.2776C12.5084 12.8138 13.6779 14.7386 14.3059 16.8631C14.4 17.1438 14.3785 17.4504 14.2462 17.7152C14.1139 17.9801 13.8817 18.1814 13.6008 18.2748C13.4874 18.3131 13.3684 18.3327 13.2487 18.3327C12.7689 18.3327 12.343 18.0256 12.1914 17.5704C11.8 16.2592 11.1934 15.0222 10.3964 13.9099C10.3535 13.8566 10.2848 13.8312 10.2176 13.8438C10.1503 13.8563 10.0955 13.9049 10.0747 13.9701C9.67058 15.3838 9.02729 16.7179 8.17275 17.9144C7.78848 18.3953 7.08712 18.4737 6.60622 18.0894C6.12531 17.7051 6.04698 17.0038 6.43125 16.5229C7.21323 15.4841 7.77291 14.2955 8.07542 13.031C8.30412 12.0023 8.41948 10.9517 8.41941 9.89789V8.88969C8.41954 8.8225 8.38336 8.76048 8.32481 8.72751C8.26627 8.69454 8.19448 8.69576 8.13709 8.7307C7.37933 9.19774 6.92195 10.0279 6.932 10.918C6.90267 11.5119 6.41221 11.9782 5.81756 11.9774C5.50686 11.9783 5.20989 11.8495 4.9983 11.6219C4.78671 11.3944 4.67971 11.0889 4.70312 10.779C4.72822 9.01953 5.73516 7.42179 7.31166 6.64001C8.74541 5.92492 10.46 6.08018 11.7419 7.0412L12.4968 7.60734C12.8489 7.87152 13.2412 8.07724 13.6588 8.21657L14.4797 8.48924C15.0139 8.65363 15.3531 9.17759 15.2844 9.73221C15.2017 10.2769 14.7335 10.6795 14.1826 10.6795C14.0626 10.6793 13.9435 10.66 13.8297 10.6223L12.9559 10.331Z" />
</svg>