<!-- character:0:1847 -->
  <svg width="20" height="20" viewBox="0 0 20 20" >
<path   d="M14.05 2.5142C14.425 2.43927 14.875 2.66406 14.95 3.11363L15.325 4.837V4.91193C15.325 4.98686 15.25 5.06179 15.175 5.06179H5.875C5.8 5.06179 5.725 4.98686 5.725 4.91193C5.725 4.837 5.8 4.76207 5.875 4.76207L14.05 2.5142ZM14.8 14.1282C13.525 14.1282 12.4 13.0792 12.4 11.7305C12.4 10.3817 13.45 9.33274 14.8 9.33274H16.225C16.3 9.33274 16.375 9.25781 16.375 9.18288V7.60937C16.375 6.71022 15.7 6.03586 14.8 6.03586H4.075C3.175 6.03586 2.5 6.71022 2.5 7.60937V15.9265C2.5 16.7507 3.175 17.5 4.075 17.5H14.8C15.7 17.5 16.375 16.7507 16.375 15.9265V14.353C16.375 14.2781 16.3 14.2031 16.225 14.2031H14.8V14.1282ZM16.675 10.3068H14.8C14.05 10.3068 13.375 10.9812 13.375 11.7305C13.375 12.4798 13.975 13.1541 14.8 13.1541H16.675C17.125 13.0792 17.5 12.7045 17.5 12.18V11.206C17.5 10.8313 17.2 10.3817 16.675 10.3068Z" />
</svg>