<!--character:14:550:863-->
  <svg width="24" height="24" viewBox="0 0 24 24" >
<path d="M16.86 3.01704C17.31 2.92712 17.85 3.19687 17.94 3.73636L18.39 5.8044V5.89431C18.39 5.98423 18.3 6.07414 18.21 6.07414H7.05003C6.96003 6.07414 6.87003 5.98423 6.87003 5.89431C6.87003 5.8044 6.96003 5.71448 7.05003 5.71448L16.86 3.01704Z" />
<path d="M17.76 16.9538C16.23 16.9538 14.88 15.695 14.88 14.0765C14.88 12.4581 16.14 11.1993 17.76 11.1993H19.47C19.56 11.1993 19.65 11.1093 19.65 11.0194V9.13122C19.65 8.05224 18.84 7.24301 17.76 7.24301H4.89C3.81 7.24301 3 8.05224 3 9.13122V19.1118C3 20.1008 3.81 21 4.89 21H17.76C18.84 21 19.65 20.1008 19.65 19.1118V17.2235C19.65 17.1336 19.56 17.0437 19.47 17.0437H17.76V16.9538Z" />
<path d="M20.01 12.3682H17.76C16.86 12.3682 16.05 13.1774 16.05 14.0766C16.05 14.9757 16.77 15.7849 17.76 15.7849H20.01C20.55 15.695 21 15.2454 21 14.616V13.4472C21 12.9976 20.64 12.4581 20.01 12.3682Z" />
</svg>