<!--category:services-->
<!--character:E088-->
<svg width="24" height="24" viewBox="0 0 24 24" xmlns="http://www.w3.org/2000/svg"><path d="M13.6708 16.3211c.5562.1397.895.7026.758 1.2595-.602 2.4125-2.6675 4.1778-5.1443 4.3966-2.4768.2189-4.8199-1.1569-5.8356-3.4264-1.0157-2.2695-.4805-4.9335 1.3329-6.6346.4214-.3817 1.0709-.3551 1.4597.0596.3889.4148.3735 1.0647-.0345 1.4606a3.7485 3.7485 0 1 0 6.201 3.6436c.1408-.557.7048-.896 1.2628-.7589zm6.1742 1.112h-.0008c.5675-.0942 1.104.2893 1.1983.8568.0943.5675-.2893 1.104-.8568 1.1983-.144.0242-2.5248.4307-2.6706.4307a1.042 1.042 0 0 1-.9996-.7547l-1.192-4.165a.4165.4165 0 0 0-.4698-.2958c-1.4528.244-3.766.6364-4.8965.858a1.8751 1.8751 0 0 1-2.22-1.5994l-.6747-6.3725a.4165.4165 0 0 0-.2699-.3473c-1.166-.4307-1.8885-1.6008-1.751-2.8363.1373-1.2355 1.0992-2.2182 2.3315-2.3821 1.2322-.164 2.4175.5332 2.8732 1.6898.4556 1.1566.0642 2.4748-.9488 3.1954a.4165.4165 0 0 0-.1733.3832l.1725 1.626a.4165.4165 0 0 0 .4856.3673l3.6003-.623a1.0407 1.0407 0 0 1 .3548 2.0508l-3.7893.6556a.4165.4165 0 0 0-.3432.454l.1274 1.2028a.4165.4165 0 0 0 .4898.3657c1.985-.3657 5.408-.9296 5.5745-.957a1.0396 1.0396 0 0 1 1.1712.7413l1.1912 4.165a.4165.4165 0 0 0 .469.2957l1.217-.2032z"/></svg>