<!--character:3024:2919-->
<svg width="24" height="24" viewBox="0 0 24 24">
  <path d="M18.6282 17.6364L19.8453 17.4332C20.4127 17.3389 20.9484 17.7224 21.0427 18.2899C21.137 18.8574 20.7534 19.3939 20.186 19.4882C20.1719 19.4906 20.1367 19.4965 20.0844 19.5054C19.5994 19.5877 17.6469 19.9189 17.5153 19.9189C17.0513 19.9179 16.6437 19.6102 16.5157 19.1642L15.3237 14.9991C15.2652 14.7953 15.0629 14.668 14.8539 14.7034C13.4011 14.9475 11.0879 15.3398 9.95747 15.5614C9.44879 15.661 8.92157 15.5456 8.50101 15.2427C8.08044 14.9397 7.80407 14.4761 7.73751 13.962L7.06278 7.58954C7.04628 7.43181 6.94164 7.29714 6.79288 7.24217C5.62676 6.8115 4.90434 5.64141 5.04176 4.40592C5.17918 3.17043 6.14104 2.18768 7.3733 2.02376C8.60556 1.85984 9.79088 2.55696 10.2465 3.71357C10.7021 4.87017 10.3107 6.18842 9.29773 6.90897C9.175 6.99602 9.10877 7.14251 9.12447 7.29215L9.2969 8.91818C9.30881 9.033 9.36785 9.13773 9.45991 9.20737C9.55197 9.27701 9.66881 9.30532 9.78254 9.28554L13.3828 8.66245C13.7491 8.59906 14.1215 8.73593 14.3596 9.02151C14.5976 9.30708 14.6653 9.69797 14.537 10.0469C14.4087 10.3959 14.104 10.6499 13.7377 10.7133L9.94831 11.3689C9.73224 11.4063 9.58216 11.6048 9.60511 11.8229L9.73256 13.0257C9.74479 13.1411 9.80459 13.2462 9.89757 13.3156C9.99055 13.385 10.1083 13.4125 10.2224 13.3914C12.1756 13.0316 15.5209 12.4798 15.7864 12.436L15.7968 12.4343C16.3191 12.3471 16.8234 12.6664 16.9681 13.1757L18.1593 17.3407C18.2177 17.5441 18.4195 17.6713 18.6282 17.6364Z" />
  <path d="M12.4082 17.08C12.5491 16.523 13.1131 16.1841 13.671 16.3211C14.2272 16.4608 14.566 17.0237 14.4291 17.5806C13.827 19.9931 11.7615 21.7584 9.28472 21.9772C6.80793 22.1961 4.46484 20.8203 3.44915 18.5508C2.43345 16.2813 2.96862 13.6173 4.782 11.9162C5.2034 11.5345 5.85292 11.5611 6.24177 11.9758C6.63062 12.3906 6.61528 13.0405 6.20728 13.4364C5.04154 14.5298 4.69724 16.242 5.34976 17.701C6.00227 19.1599 7.50807 20.0447 9.10016 19.9047C10.6922 19.7646 12.0204 18.6305 12.4082 17.08Z" />
</svg>
