<!--character:13:472:315-->
  <svg width="24" height="24" viewBox="0 0 24 24" >
<path d="M18.6279 17.6364L19.845 17.4332C20.4125 17.3389 20.9481 17.7224 21.0424 18.2899C21.1367 18.8574 20.7531 19.3939 20.1857 19.4882C20.1716 19.4906 20.1363 19.4965 20.0839 19.5054C19.5987 19.5877 17.6466 19.9189 17.515 19.9189C17.051 19.9179 16.6434 19.6103 16.5154 19.1642L15.3234 14.9991C15.2649 14.7954 15.0626 14.668 14.8536 14.7034C13.4008 14.9475 11.0876 15.3398 9.95718 15.5614C9.4485 15.661 8.92128 15.5456 8.50072 15.2427C8.08015 14.9397 7.80378 14.4761 7.73722 13.962L7.06248 7.58954C7.04599 7.43181 6.94135 7.29714 6.79259 7.24218C5.62647 6.8115 4.90405 5.64142 5.04147 4.40592C5.17889 3.17043 6.14075 2.18768 7.37301 2.02376C8.60526 1.85984 9.79059 2.55697 10.2462 3.71357C10.7018 4.87018 10.3104 6.18842 9.29744 6.90897C9.17471 6.99603 9.10847 7.14251 9.12418 7.29216L9.29661 8.91819C9.30852 9.03301 9.36755 9.13773 9.45962 9.20737C9.55168 9.27701 9.66852 9.30532 9.78225 9.28554L13.3825 8.66245C13.7489 8.59906 14.1212 8.73593 14.3593 9.02151C14.5973 9.30708 14.665 9.69798 14.5367 10.0469C14.4084 10.3959 14.1037 10.6499 13.7374 10.7133L9.94802 11.3689C9.73195 11.4063 9.58187 11.6048 9.60482 11.8229L9.73227 13.0257C9.7445 13.1411 9.8043 13.2462 9.89728 13.3156C9.99026 13.385 10.108 13.4125 10.2221 13.3914C12.1754 13.0316 15.5207 12.4798 15.7861 12.436L15.7966 12.4343C16.3188 12.3471 16.8231 12.6664 16.9678 13.1757L18.159 17.3407C18.2174 17.5441 18.4192 17.6713 18.6279 17.6364Z" />
<path d="M12.4079 17.08C12.5488 16.523 13.1128 16.1841 13.6707 16.3211C14.2269 16.4608 14.5657 17.0237 14.4288 17.5806C13.8268 19.9931 11.7612 21.7584 9.28442 21.9772C6.80764 22.1961 4.46455 20.8203 3.44886 18.5508C2.43316 16.2813 2.96833 13.6173 4.78171 11.9162C5.20311 11.5345 5.85263 11.5611 6.24148 11.9758C6.63033 12.3906 6.61498 13.0405 6.20698 13.4364C5.04125 14.5298 4.69695 16.242 5.34946 17.701C6.00198 19.1599 7.50778 20.0447 9.09987 19.9047C10.692 19.7646 12.0201 18.6305 12.4079 17.08Z" />
</svg>