<!--character:3267-->
  <svg width="20" height="20" viewBox="0 0 20 20" >
<path d="M15.5235 14.697L16.5377 14.5276C17.0106 14.4491 17.457 14.7687 17.5356 15.2416C17.6142 15.7145 17.2945 16.1616 16.8216 16.2402C16.8099 16.2421 16.7806 16.2471 16.737 16.2545C16.3329 16.3231 14.7058 16.5991 14.5961 16.5991C14.2094 16.5983 13.8698 16.3419 13.7631 15.9701L12.7698 12.4993C12.721 12.3295 12.5524 12.2234 12.3782 12.2528C11.1676 12.4562 9.23989 12.7832 8.29789 12.9678C7.874 13.0509 7.43464 12.9547 7.08417 12.7022C6.7337 12.4497 6.50339 12.0634 6.44793 11.635L5.88565 6.32461C5.8719 6.19317 5.7847 6.08095 5.66073 6.03514C4.68897 5.67625 4.08695 4.70118 4.20147 3.6716C4.31598 2.64202 5.11754 1.82306 6.14442 1.68647C7.1713 1.54987 8.15907 2.1308 8.53875 3.09464C8.91844 4.05848 8.59226 5.15702 7.74811 5.75748C7.64583 5.83002 7.59064 5.95209 7.60372 6.0768L7.74742 7.43182C7.75734 7.5275 7.80654 7.61477 7.88326 7.67281C7.95998 7.73084 8.05734 7.75443 8.15212 7.73795L11.1523 7.21871C11.4576 7.16588 11.7679 7.27994 11.9663 7.51792C12.1647 7.7559 12.2211 8.08164 12.1142 8.37245C12.0073 8.66325 11.7533 8.87494 11.448 8.92776L8.29026 9.47407C8.1102 9.50523 7.98514 9.67066 8.00426 9.8524L8.11047 10.8548C8.12066 10.9509 8.1705 11.0385 8.24798 11.0963C8.32546 11.1542 8.42356 11.1771 8.51864 11.1595C10.1464 10.8597 12.9341 10.3998 13.1553 10.3634L13.164 10.3619C13.5992 10.2893 14.0195 10.5553 14.14 10.9797L15.1327 14.4506C15.1814 14.6201 15.3496 14.7261 15.5235 14.697Z" />
<path d="M10.3401 14.2333C10.4576 13.7692 10.9275 13.4867 11.3925 13.6009C11.856 13.7174 12.1383 14.1864 12.0242 14.6505C11.5225 16.6609 9.80125 18.132 7.73726 18.3144C5.67328 18.4967 3.7207 17.3502 2.87429 15.459C2.02788 13.5677 2.47385 11.3478 3.985 9.93014C4.33617 9.61211 4.87744 9.63423 5.20148 9.97986C5.52552 10.3255 5.51273 10.8671 5.17273 11.197C4.20128 12.1081 3.91437 13.535 4.45813 14.7508C5.00189 15.9666 6.25672 16.7039 7.58347 16.5872C8.91021 16.4705 10.017 15.5254 10.3401 14.2333Z" />
</svg>