<!-- character:0:2209 -->
  <svg width="20" height="20" viewBox="0 0 20 20" >
<path   d="M15.5233 14.697L16.5375 14.5276H16.5368C17.0097 14.449 17.4568 14.7687 17.5353 15.2416C17.6139 15.7145 17.2943 16.1615 16.8214 16.2401C16.8097 16.2421 16.7803 16.2471 16.7367 16.2545C16.3326 16.323 14.7055 16.599 14.5959 16.599C14.2091 16.5982 13.8695 16.3418 13.7629 15.9701L12.7695 12.4992C12.7207 12.3294 12.5522 12.2233 12.378 12.2528C11.1674 12.4562 9.23964 12.7832 8.29765 12.9678C7.87375 13.0508 7.4344 12.9547 7.08393 12.7022C6.73346 12.4497 6.50315 12.0634 6.44768 11.635L5.8854 6.32458C5.87165 6.19314 5.78446 6.08091 5.66049 6.03511C4.68872 5.67621 4.08671 4.70114 4.20122 3.67156C4.31574 2.64198 5.11729 1.82303 6.14417 1.68643C7.17105 1.54983 8.15883 2.13076 8.53851 3.0946C8.9182 4.05844 8.59202 5.15698 7.74787 5.75744C7.64559 5.82998 7.59039 5.95205 7.60348 6.07676L7.74717 7.43178C7.7571 7.52746 7.80629 7.61474 7.88301 7.67277C7.95973 7.7308 8.0571 7.75439 8.15187 7.73791L11.1521 7.21867C11.4574 7.16585 11.7677 7.2799 11.9661 7.51788C12.1645 7.75586 12.2208 8.08161 12.1139 8.37241C12.007 8.66321 11.7531 8.8749 11.4478 8.92772L8.29001 9.47404C8.10995 9.50519 7.98489 9.67063 8.00402 9.85236L8.11022 10.8547C8.12041 10.9509 8.17025 11.0384 8.24773 11.0963C8.32521 11.1541 8.42331 11.177 8.5184 11.1595C10.1461 10.8596 12.9339 10.3998 13.1551 10.3633L13.1638 10.3619C13.599 10.2892 14.0193 10.5553 14.1398 10.9797L15.1325 14.4506C15.1812 14.6201 15.3493 14.7261 15.5233 14.697ZM10.3399 14.2333C10.4573 13.7691 10.9273 13.4867 11.3923 13.6009C11.8558 13.7173 12.1381 14.1864 12.024 14.6505C11.5223 16.6609 9.801 18.132 7.73702 18.3143C5.67303 18.4967 3.72046 17.3502 2.87405 15.4589C2.02763 13.5677 2.47361 11.3477 3.98476 9.93011C4.33592 9.61207 4.87719 9.63419 5.20123 9.97982C5.52528 10.3255 5.51249 10.867 5.17249 11.197C4.20104 12.1081 3.91412 13.535 4.45789 14.7508C5.00165 15.9666 6.25648 16.7039 7.58322 16.5872C8.90996 16.4705 10.0168 15.5254 10.3399 14.2333Z" />
</svg>