<!--character:4535-->
  <svg width="20" height="20" viewBox="0 0 20 20" >
<path d="M17.1528 1.875C17.4306 1.59722 17.8472 1.59722 18.125 1.875C18.4028 2.15278 18.4028 2.56944 18.125 2.84722L2.84724 18.125C2.63891 18.4028 2.1528 18.4028 1.87502 18.125C1.59724 17.8472 1.59724 17.4306 1.87502 17.1528L6.53274 12.4951C6.50509 12.4739 6.48003 12.4522 6.45835 12.4306C6.11113 12.0833 6.11113 11.5278 6.45835 11.1806C7.22942 10.4095 8.20114 9.93941 9.23427 9.79353L10.9737 8.05414C9.11001 7.7681 7.12718 8.34728 5.62502 9.79166C5.34724 10.1389 4.79169 10.1389 4.44446 9.79166C4.09724 9.44444 4.09724 8.88889 4.44446 8.54166C6.60448 6.44337 9.69686 5.77104 12.4056 6.62218L13.6784 5.34943C10.4126 3.84116 6.41473 4.42462 3.75002 7.15277C3.4028 7.5 2.84724 7.5 2.50002 7.15277C2.1528 6.80555 2.1528 6.25 2.50002 5.90277C5.86121 2.54159 10.9672 1.94797 14.9619 4.06593L17.1528 1.875Z" />
<path d="M10 13.75C9.0278 13.75 8.26391 14.5139 8.26391 15.4861C8.26391 16.4583 9.0278 17.2222 10 17.2222C10.9722 17.2222 11.7361 16.4583 11.7361 15.4861C11.7361 14.5139 10.9722 13.75 10 13.75Z" />
<path d="M17.5 5.90278C17.3611 5.76389 17.1528 5.55555 16.9445 5.41666L15.6945 6.66666C15.9028 6.80555 16.0417 6.94444 16.25 7.15278C16.5972 7.5 17.1528 7.5 17.5 7.15278C17.8472 6.80555 17.8472 6.25 17.5 5.90278Z" />
<path d="M10.7639 11.5972L12.1528 10.2083C12.6389 10.4861 13.125 10.7639 13.5417 11.25C13.75 11.4583 13.8195 11.6667 13.8195 11.875C13.8195 12.3611 13.4722 12.7778 12.9861 12.7778C12.7778 12.7778 12.5 12.6389 12.3611 12.5L12.2222 12.3611C11.8056 11.9444 11.25 11.7361 10.7639 11.5972Z" />
<path d="M14.5834 7.77777L13.3334 9.02777C13.5711 9.17041 13.7763 9.3456 13.9935 9.53106C14.0935 9.61647 14.1961 9.70407 14.3056 9.79166C14.4445 9.93055 14.7222 10.0694 14.9306 10.0694C15.4167 10.0694 15.7639 9.72222 15.7639 9.23611C15.7639 9.02777 15.6945 8.81944 15.4861 8.61111C15.2084 8.26389 14.9306 7.98611 14.5834 7.77777Z" />
</svg>