<!--character:1140-->
  <svg width="24" height="24" viewBox="0 0 24 24" >
<path d="M20.5834 2.25C20.9167 1.91666 21.4167 1.91666 21.75 2.25C22.0834 2.58333 22.0834 3.08333 21.75 3.41666L3.41669 21.75C3.16669 22.0833 2.58336 22.0833 2.25002 21.75C1.91669 21.4167 1.91669 20.9167 2.25002 20.5833L7.83929 14.9941C7.80611 14.9687 7.77604 14.9427 7.75002 14.9167C7.33336 14.5 7.33336 13.8333 7.75002 13.4167C8.6753 12.4914 9.84137 11.9273 11.0811 11.7522L13.1684 9.66496C10.932 9.32172 8.55262 10.0167 6.75002 11.75C6.41669 12.1667 5.75002 12.1667 5.33336 11.75C4.91669 11.3333 4.91669 10.6667 5.33336 10.25C7.92537 7.73204 11.6362 6.92525 14.8867 7.94662L16.414 6.41932C12.4951 4.60939 7.69767 5.30955 4.50002 8.58333C4.08336 9 3.41669 9 3.00002 8.58333C2.58336 8.16666 2.58336 7.5 3.00002 7.08333C7.03345 3.04991 13.1606 2.33757 17.9542 4.87912L20.5834 2.25Z" />
<path d="M12 16.5C10.8334 16.5 9.91669 17.4167 9.91669 18.5833C9.91669 19.75 10.8334 20.6667 12 20.6667C13.1667 20.6667 14.0834 19.75 14.0834 18.5833C14.0834 17.4167 13.1667 16.5 12 16.5Z" />
<path d="M21 7.08333C20.8334 6.91666 20.5834 6.66666 20.3334 6.5L18.8334 8C19.0834 8.16666 19.25 8.33333 19.5 8.58333C19.9167 9 20.5834 9 21 8.58333C21.4167 8.16666 21.4167 7.5 21 7.08333Z" />
<path d="M12.9167 13.9167L14.5834 12.25C15.1667 12.5833 15.75 12.9167 16.25 13.5C16.5 13.75 16.5834 14 16.5834 14.25C16.5834 14.8333 16.1667 15.3333 15.5834 15.3333C15.3334 15.3333 15 15.1667 14.8334 15L14.6667 14.8333C14.1667 14.3333 13.5 14.0833 12.9167 13.9167Z" />
<path d="M17.5 9.33333L16 10.8333C16.2853 11.0045 16.5315 11.2147 16.7921 11.4373C16.9122 11.5398 17.0353 11.6449 17.1667 11.75C17.3334 11.9167 17.6667 12.0833 17.9167 12.0833C18.5 12.0833 18.9167 11.6667 18.9167 11.0833C18.9167 10.8333 18.8334 10.5833 18.5834 10.3333C18.25 9.91666 17.9167 9.58333 17.5 9.33333Z" />
</svg>