<!--character:4160:565-->
  <svg width="24" height="24" viewBox="0 0 24 24" >
<path d="M10.1513 17.8357C10.1513 18.326 10.3461 18.7962 10.6928 19.1429C11.0395 19.4896 11.5097 19.6844 12 19.6844C12.4903 19.6844 12.9605 19.4896 13.3071 19.1429C13.6538 18.7962 13.8486 18.326 13.8486 17.8357C13.8486 17.3455 13.6538 16.8752 13.3071 16.5286C12.9605 16.1819 12.4903 15.9871 12 15.9871C11.5097 15.9871 11.0395 16.1819 10.6928 16.5286C10.3461 16.8752 10.1513 17.3455 10.1513 17.8357Z" />
<path   d="M7.03405 13.7343C8.35049 12.418 10.1359 11.6785 11.9975 11.6785C13.8591 11.6785 15.6445 12.418 16.961 13.7343C17.3125 14.0857 17.3125 14.6556 16.961 15.0071C16.6096 15.3586 16.0397 15.3586 15.6882 15.0071C14.7094 14.0284 13.3818 13.4785 11.9975 13.4785C10.6132 13.4785 9.28565 14.0284 8.30676 15.0071C7.95527 15.3586 7.38543 15.3586 7.03397 15.0071C6.68252 14.6556 6.68255 14.0857 7.03405 13.7343Z" />
<path   d="M4.44005 11.1379C6.4451 9.13295 9.16446 8.00661 11.9999 8.00661C14.8354 8.00661 17.5548 9.13295 19.5598 11.1379C19.9113 11.4893 19.9113 12.0592 19.5599 12.4107C19.2084 12.7622 18.6386 12.7622 18.2871 12.4107C16.6196 10.7433 14.3581 9.80661 11.9999 9.80661C9.64183 9.80661 7.38029 10.7433 5.7128 12.4107C5.36131 12.7622 4.79147 12.7622 4.44001 12.4107C4.08855 12.0592 4.08856 11.4893 4.44005 11.1379Z" />
<path   d="M2.20663 8.19148C4.86555 5.71322 8.36517 4.33518 12 4.33518C15.6347 4.33518 19.1344 5.71322 21.7933 8.19148C22.1569 8.53038 22.1769 9.09988 21.838 9.46348C21.4991 9.82709 20.9296 9.84712 20.566 9.50822C18.2403 7.34053 15.1792 6.13518 12 6.13518C8.82067 6.13518 5.75962 7.34053 3.4339 9.50822C3.0703 9.84712 2.5008 9.82709 2.1619 9.46348C1.823 9.09988 1.84302 8.53038 2.20663 8.19148Z" />
</svg>