<!-- character:0:2271 -->
  <svg width="20" height="20" viewBox="0 0 20 20" >
<path   d="M1.94033 5.58282C6.39465 1.13906 13.6053 1.13906 18.0597 5.58282C18.2957 5.81886 18.3879 6.16289 18.3015 6.48532C18.2151 6.80776 17.9632 7.05961 17.6408 7.146C17.3184 7.2324 16.9743 7.14021 16.7383 6.90418C13.014 3.18949 6.98595 3.18949 3.26168 6.90418C2.8968 7.26906 2.30521 7.26906 1.94033 6.90418C1.57545 6.53929 1.57545 5.9477 1.94033 5.58282ZM4.06714 9.75411C3.70668 9.39385 3.70145 8.81118 4.05539 8.44451C7.34086 5.16921 12.6569 5.16921 15.9423 8.44451C16.1179 8.61919 16.2164 8.85678 16.2159 9.10444V9.12611C16.2081 9.63384 15.7932 10.0408 15.2854 10.0387C15.0376 10.0389 14.7999 9.94044 14.6247 9.76512C12.0689 7.21641 7.93259 7.21641 5.37674 9.76512C5.01028 10.1193 4.4276 10.1144 4.06714 9.75411ZM11.781 10.0259C9.81982 9.34162 7.64005 9.8383 6.16896 11.3047C5.9018 11.5718 5.82179 11.9735 5.96623 12.3226C6.11066 12.6716 6.45112 12.8994 6.82889 12.8996C7.07683 12.8997 7.31459 12.801 7.48956 12.6253C8.82687 11.2975 10.9688 11.2466 12.3677 12.5095C12.3892 12.5286 12.4119 12.5461 12.4344 12.5635C12.4603 12.5835 12.4861 12.6033 12.5097 12.6253C12.6845 12.7996 12.9213 12.8974 13.1681 12.8974C13.5458 12.8967 13.8861 12.6688 14.0305 12.3197C14.1748 11.9707 14.095 11.569 13.828 11.3017C13.2512 10.7268 12.5512 10.2905 11.781 10.0259ZM11.8684 15.8839C11.8684 16.9158 11.0319 17.7523 9.99999 17.7523C8.96808 17.7523 8.13156 16.9158 8.13156 15.8839C8.13156 14.8519 8.96808 14.0154 9.99999 14.0154C11.0319 14.0154 11.8684 14.8519 11.8684 15.8839Z" />
</svg>