<!--character:11:472:428-->
  <svg width="24" height="24" viewBox="0 0 24 24" >
<path d="M20.5833 2.25C20.9167 1.91667 21.4167 1.91667 21.75 2.25C22.0833 2.58333 22.0833 3.08333 21.75 3.41667L3.41667 21.75C3.16667 22.0833 2.58333 22.0833 2.25 21.75C1.91667 21.4167 1.91667 20.9167 2.25 20.5833L7.83925 14.9941C7.80607 14.9687 7.77601 14.9427 7.75 14.9167C7.33333 14.5 7.33333 13.8334 7.75 13.4167C8.67527 12.4914 9.84132 11.9273 11.0811 11.7523L13.1684 9.66497C10.932 9.32174 8.5526 10.0168 6.75001 11.75C6.41668 12.1667 5.75001 12.1667 5.33334 11.75C4.91668 11.3333 4.91668 10.6667 5.33334 10.25C7.92535 7.73206 11.6362 6.92527 14.8867 7.94663L16.414 6.41933C12.4951 4.60941 7.69765 5.30957 4.5 8.58335C4.08333 9.00001 3.41667 9.00001 3 8.58335C2.58333 8.16668 2.58333 7.50001 3 7.08335C7.03342 3.04993 13.1606 2.33759 17.9542 4.87913L20.5833 2.25Z" />
<path d="M12 16.5C10.8333 16.5 9.91666 17.4167 9.91666 18.5833C9.91666 19.75 10.8333 20.6667 12 20.6667C13.1667 20.6667 14.0833 19.75 14.0833 18.5833C14.0833 17.4167 13.1667 16.5 12 16.5Z" />
<path d="M21 7.08333C20.8333 6.91667 20.5833 6.66667 20.3333 6.5L18.8333 8C19.0833 8.16667 19.25 8.33333 19.5 8.58333C19.9167 9 20.5833 9 21 8.58333C21.4167 8.16667 21.4167 7.5 21 7.08333Z" />
<path d="M12.9167 13.9167L14.5833 12.25C15.1667 12.5833 15.75 12.9167 16.25 13.5C16.5 13.75 16.5833 14 16.5833 14.25C16.5833 14.8333 16.1667 15.3333 15.5833 15.3333C15.3333 15.3333 15 15.1667 14.8333 15L14.6667 14.8333C14.1667 14.3333 13.5 14.0833 12.9167 13.9167Z" />
<path d="M17.5 9.33337L16 10.8334C16.2853 11.0045 16.5315 11.2148 16.7921 11.4373C16.9121 11.5398 17.0353 11.6449 17.1667 11.75C17.3333 11.9167 17.6667 12.0834 17.9167 12.0834C18.5 12.0834 18.9167 11.6667 18.9167 11.0834C18.9167 10.8334 18.8333 10.5834 18.5833 10.3334C18.25 9.91671 17.9167 9.58337 17.5 9.33337Z" />
</svg>