<!--character:4322-->
  <svg width="24" height="24" viewBox="0 0 24 24" >
<path d="M2.32839 6.69939C7.67357 1.36687 16.3264 1.36687 21.6716 6.69939C21.9548 6.98263 22.0654 7.39547 21.9618 7.78239C21.8581 8.16931 21.5559 8.47153 21.169 8.5752C20.782 8.67888 20.3692 8.56826 20.086 8.28501C15.6168 3.82738 8.38314 3.82738 3.91402 8.28501C3.47616 8.72287 2.76625 8.72287 2.32839 8.28501C1.89053 7.84715 1.89053 7.13725 2.32839 6.69939Z" />
<path d="M4.88057 11.7049C4.44801 11.2726 4.44174 10.5734 4.86647 10.1334C8.80903 6.20305 15.1883 6.20305 19.1308 10.1334C19.3415 10.343 19.4597 10.6281 19.4591 10.9253V10.9513C19.4497 11.5606 18.9518 12.0489 18.3425 12.0464C18.0451 12.0466 17.7598 11.9285 17.5497 11.7181C14.4827 8.65969 9.51911 8.65969 6.45209 11.7181C6.01233 12.1431 5.31312 12.1372 4.88057 11.7049Z" />
<path d="M14.1372 12.0311C11.7838 11.2099 9.16806 11.806 7.40275 13.5656C7.08215 13.8862 6.98614 14.3682 7.15947 14.7871C7.33279 15.206 7.74134 15.4792 8.19466 15.4795C8.4922 15.4796 8.77751 15.3612 8.98748 15.1504C10.5922 13.557 13.1626 13.496 14.8412 15.0114C14.8671 15.0343 14.8943 15.0553 14.9213 15.0762C14.9524 15.1002 14.9833 15.124 15.0116 15.1504C15.2213 15.3595 15.5055 15.4769 15.8017 15.4768C16.255 15.476 16.6633 15.2026 16.8365 14.7837C17.0098 14.3648 16.9139 13.8828 16.5936 13.5621C15.9014 12.8721 15.0614 12.3486 14.1372 12.0311Z" />
<path d="M14.2421 19.0606C14.2421 20.2989 13.2383 21.3027 12 21.3027C10.7617 21.3027 9.75787 20.2989 9.75787 19.0606C9.75787 17.8223 10.7617 16.8185 12 16.8185C13.2383 16.8185 14.2421 17.8223 14.2421 19.0606Z" />
</svg>