<!-- character:0:2283 -->
  <svg width="20" height="20" viewBox="0 0 20 20" >
<path   d="M17.1528 1.87496C17.4306 1.59718 17.8472 1.59718 18.125 1.87496C18.4028 2.15274 18.4028 2.5694 18.125 2.84718L2.84722 18.125C2.63889 18.4027 2.15278 18.4027 1.875 18.125C1.59722 17.8472 1.59722 17.4305 1.875 17.1527L6.53272 12.495C6.50507 12.4739 6.48001 12.4522 6.45833 12.4305C6.11111 12.0833 6.11111 11.5277 6.45833 11.1805C7.2294 10.4095 8.20112 9.93937 9.23425 9.79349L10.9736 8.0541C9.10999 7.76806 7.12716 8.34724 5.625 9.79163C5.34722 10.1388 4.79166 10.1388 4.44444 9.79163C4.09722 9.4444 4.09722 8.88885 4.44444 8.54163C6.60445 6.44333 9.69684 5.77101 12.4056 6.62214L13.6783 5.34939C10.4126 3.84112 6.4147 4.42458 3.75 7.15274C3.40278 7.49996 2.84722 7.49996 2.5 7.15274C2.15278 6.80551 2.15278 6.24996 2.5 5.90274C5.86118 2.54155 10.9671 1.94794 14.9618 4.06589L17.1528 1.87496ZM10 13.75C9.02778 13.75 8.26389 14.5138 8.26389 15.4861C8.26389 16.4583 9.02778 17.2222 10 17.2222C10.9722 17.2222 11.7361 16.4583 11.7361 15.4861C11.7361 14.5138 10.9722 13.75 10 13.75ZM17.5 5.90274C17.3611 5.76385 17.1528 5.55552 16.9444 5.41663L15.6944 6.66663C15.9028 6.80551 16.0417 6.9444 16.25 7.15274C16.5972 7.49996 17.1528 7.49996 17.5 7.15274C17.8472 6.80551 17.8472 6.24996 17.5 5.90274ZM10.7639 11.5972L12.1528 10.2083C12.6389 10.4861 13.125 10.7638 13.5417 11.25C13.75 11.4583 13.8194 11.6666 13.8194 11.875C13.8194 12.3611 13.4722 12.7777 12.9861 12.7777C12.7778 12.7777 12.5 12.6388 12.3611 12.5L12.2222 12.3611C11.8056 11.9444 11.25 11.7361 10.7639 11.5972ZM14.5833 7.77774L13.3333 9.02774C13.5711 9.17037 13.7762 9.34556 13.9934 9.53102C14.0935 9.61644 14.1961 9.70403 14.3056 9.79163C14.4444 9.93052 14.7222 10.0694 14.9306 10.0694C15.4167 10.0694 15.7639 9.72218 15.7639 9.23607C15.7639 9.02774 15.6944 8.8194 15.4861 8.61107C15.2083 8.26385 14.9306 7.98607 14.5833 7.77774Z" />
</svg>