<!--character:12:472:421-->
  <svg width="24" height="24" viewBox="0 0 24 24" >
<path d="M2.32839 6.69934C7.67357 1.36682 16.3264 1.36682 21.6716 6.69934C21.9548 6.98258 22.0654 7.39542 21.9618 7.78234C21.8581 8.16926 21.5559 8.47148 21.169 8.57515C20.782 8.67883 20.3692 8.56821 20.086 8.28496C15.6168 3.82734 8.38314 3.82734 3.91402 8.28496C3.47616 8.72282 2.76625 8.72282 2.32839 8.28496C1.89054 7.8471 1.89054 7.1372 2.32839 6.69934Z" />
<path d="M4.88057 11.7049C4.44802 11.2726 4.44174 10.5734 4.86647 10.1334C8.80903 6.20299 15.1883 6.20299 19.1308 10.1334C19.3415 10.343 19.4597 10.6281 19.4591 10.9253V10.9513C19.4497 11.5606 18.9518 12.0489 18.3425 12.0463C18.0451 12.0466 17.7598 11.9285 17.5497 11.7181C14.4827 8.65963 9.51911 8.65963 6.4521 11.7181C6.01234 12.1431 5.31312 12.1372 4.88057 11.7049Z" />
<path d="M14.1372 12.0311C11.7838 11.2099 9.16805 11.8059 7.40274 13.5656C7.08215 13.8861 6.98614 14.3681 7.15946 14.787C7.33279 15.2059 7.74133 15.4792 8.19466 15.4795C8.49219 15.4796 8.7775 15.3611 8.98747 15.1503C10.5922 13.5569 13.1626 13.4959 14.8412 15.0113C14.867 15.0342 14.8943 15.0552 14.9213 15.0761C14.9524 15.1001 14.9833 15.1239 15.0116 15.1503C15.2213 15.3595 15.5055 15.4769 15.8017 15.4768C16.255 15.476 16.6633 15.2025 16.8365 14.7836C17.0098 14.3647 16.9139 13.8827 16.5936 13.562C15.9014 12.8721 15.0614 12.3486 14.1372 12.0311Z" />
<path d="M14.2421 19.0605C14.2421 20.2988 13.2383 21.3027 12 21.3027C10.7617 21.3027 9.75786 20.2988 9.75786 19.0605C9.75786 17.8223 10.7617 16.8184 12 16.8184C13.2383 16.8184 14.2421 17.8223 14.2421 19.0605Z" />
</svg>