<!--character:7992-->
  <svg width="24" height="24" viewBox="0 0 24 24" >
<path d="M20.439 4.94785C21.3683 5.19426 22.1004 5.92027 22.3487 6.84225C22.8 8.51335 22.8 12 22.8 12C22.8 12 22.8 15.4867 22.3487 17.1576C22.1004 18.0796 21.3683 18.8057 20.439 19.0522C18.7545 19.5 12 19.5 12 19.5C12 19.5 5.24551 19.5 3.56102 19.0522C2.63165 18.8057 1.89965 18.0796 1.65126 17.1576C1.2 15.4867 1.2 12 1.2 12C1.2 12 1.2 8.51335 1.65126 6.84225C1.89965 5.92027 2.63165 5.19426 3.56102 4.94785C5.24551 4.5 12 4.5 12 4.5C12 4.5 18.7545 4.5 20.439 4.94785ZM9.83996 8.78547V15.2141L15.4517 11.9998L9.83996 8.78547Z" />
</svg>