<!-- character:438:298 -->
  <svg width="20" height="20" viewBox="0 0 20 20" >
<path   d="M16.5115 4.51508C17.2287 4.70674 17.7935 5.27142 17.9851 5.98852C18.3333 7.28828 18.3333 10.0002 18.3333 10.0002C18.3333 10.0002 18.3333 12.712 17.9851 14.0117C17.7935 14.7288 17.2287 15.2936 16.5115 15.4852C15.2118 15.8336 9.99999 15.8336 9.99999 15.8336C9.99999 15.8336 4.78819 15.8336 3.48843 15.4852C2.77133 15.2936 2.20651 14.7288 2.01485 14.0117C1.66666 12.712 1.66666 10.0002 1.66666 10.0002C1.66666 10.0002 1.66666 7.28828 2.01485 5.98852C2.20651 5.27142 2.77133 4.70674 3.48843 4.51508C4.78819 4.16675 9.99999 4.16675 9.99999 4.16675C9.99999 4.16675 15.2118 4.16675 16.5115 4.51508ZM8.33329 7.49993V12.5L12.6634 9.99999L8.33329 7.49993Z" />
</svg>