<!--character:6223-->
  <svg width="24" height="24" viewBox="0 0 24 24" >
<path d="M20.5953 4.71278C21.5418 4.9674 22.2874 5.71762 22.5404 6.67033C23 8.39712 23 12 23 12C23 12 23 15.6029 22.5404 17.3295C22.2874 18.2822 21.5418 19.0326 20.5953 19.2872C18.8796 19.75 12 19.75 12 19.75C12 19.75 5.12043 19.75 3.40474 19.2872C2.45817 19.0326 1.7126 18.2822 1.45962 17.3295C1 15.6029 1 12 1 12C1 12 1 8.39712 1.45962 6.67033C1.7126 5.71762 2.45817 4.9674 3.40474 4.71278C5.12043 4.25 12 4.25 12 4.25C12 4.25 18.8796 4.25 20.5953 4.71278ZM15.5157 11.9998L9.79997 8.67831V15.3212L15.5157 11.9998Z" />
</svg>