<!--character:4363-->
  <svg width="20" height="20" viewBox="0 0 20 20" >
<path d="M17.0325 4.12321C17.807 4.32855 18.417 4.93356 18.6239 5.70188C19 7.09446 19 10 19 10C19 10 19 12.9055 18.6239 14.298C18.417 15.0663 17.807 15.6714 17.0325 15.8768C15.6287 16.25 10 16.25 10 16.25C10 16.25 4.37126 16.25 2.96752 15.8768C2.19305 15.6714 1.58304 15.0663 1.37605 14.298C1 12.9055 1 10 1 10C1 10 1 7.09446 1.37605 5.70188C1.58304 4.93356 2.19305 4.32855 2.96752 4.12321C4.37126 3.75 10 3.75 10 3.75C10 3.75 15.6287 3.75 17.0325 4.12321ZM8.19997 7.32122V12.6784L12.8764 9.99981L8.19997 7.32122Z" />
</svg>