<!--character:50:550:62-->
  <svg width="24" height="24" viewBox="0 0 24 24" >
<path   d="M19.8139 5.418C20.6744 5.64799 21.3522 6.32561 21.5822 7.18613C22 8.74584 22 12.0001 22 12.0001C22 12.0001 22 15.2544 21.5822 16.8139C21.3522 17.6744 20.6744 18.3522 19.8139 18.5822C18.2542 19.0002 12 19.0002 12 19.0002C12 19.0002 5.74584 19.0002 4.18613 18.5822C3.32561 18.3522 2.64782 17.6744 2.41783 16.8139C2 15.2544 2 12.0001 2 12.0001C2 12.0001 2 8.74584 2.41783 7.18613C2.64782 6.32561 3.32561 5.64799 4.18613 5.418C5.74584 5 12 5 12 5C12 5 18.2542 5 19.8139 5.418ZM15.1961 11.9999L9.99997 8.99982V15L15.1961 11.9999Z" />
</svg>