<svg xmlns="http://www.w3.org/2000/svg" viewBox="0 0 40 40">
  <g fill="#FFF" fill-rule="nonzero" stroke="#5F738C">
    <path stroke-linejoin="round" d="M12 4.8421053h16V4h6c1.1045695 0 2 .8954305 2 2v28c0 1.1045695-.8954305 2-2 2H6c-1.1045695 0-2-.8954305-2-2V6c0-1.1045695.8954305-2 2-2h6v.8421053z"/>
    <path d="M39.5 36.1541722V12.173913c0-2.1250956-1.7227304-3.847826-3.8478261-3.847826-2.1250957 0-3.8478261 1.7227304-3.8478261 3.8478351l-.0003569 19.6301649H8.1949829l.0006693-19.630174c0-2.1250956-1.7227304-3.847826-3.8478261-3.847826C2.2227304 8.326087.5 10.0488174.5 12.1738794l.0015782 24.2142289c.0122126.8692448.0890734 1.3095409.2541698 1.6689749l.0858577.1723859c.2148607.4017547.5271705.7140645.9289252.9289252.473268.2531065.9315543.3416057 2.0752969.3416057h32.3083444c1.0235604 0 1.5136652-.0769352 1.902911-.255748l.1723859-.0858577c.4017547-.2148607.7140645-.5271705.9289252-.9289252.2531065-.4732679.3416057-.9315543.3416057-2.0752969z"/>
  </g>
</svg>
