<svg width="24" height="24" viewBox="0 0 24 24" version="1.1" xmlns="http://www.w3.org/2000/svg"><path d="M21.463235 10.391544h-.757353v-.038603h-8.470588v3.764706h5.319853c-.777574 2.191176-2.862133 3.764705-5.319853 3.764705-3.119485 0-5.64706-2.527573-5.64706-5.647058 0-3.119485 2.527575-5.64706 5.64706-5.64706 1.439338 0 2.75.54228 3.746324 1.430148l2.661764-2.661765c-1.680147-1.566176-3.928309-2.533088-6.408088-2.533088-5.19853 0-9.411765 4.213235-9.411765 9.411765 0 5.19853 4.213235 9.411764 9.411765 9.411764 5.19853 0 9.411764-4.213235 9.411764-9.411764 0-.630515-.064338-1.246324-.183823-1.84375z"/></svg>
