<svg width="32" height="32" viewBox="0 0 32 32" fill="none" xmlns="http://www.w3.org/2000/svg">
  <path d="M10.9004 20.5924C10.9004 20.8686 11.1242 21.0924 11.4004 21.0924H15.9004C16.1765 21.0924 16.4004 20.8686 16.4004 20.5924C16.4004 20.3163 16.1765 20.0924 15.9004 20.0924H11.9004V16.0924C11.9004 15.8163 11.6765 15.5924 11.4004 15.5924C11.1242 15.5924 10.9004 15.8163 10.9004 16.0924V20.5924ZM20.2392 11.0465L11.0468 20.2389L11.7539 20.946L20.9463 11.7536L20.2392 11.0465Z" fill="currentColor"/>
  <path d="M20.6924 11C20.6924 10.7239 20.4685 10.5 20.1924 10.5H15.6924C15.4162 10.5 15.1924 10.7239 15.1924 11C15.1924 11.2761 15.4162 11.5 15.6924 11.5H19.6924V15.5C19.6924 15.7761 19.9162 16 20.1924 16C20.4685 16 20.6924 15.7761 20.6924 15.5V11ZM11.3536 20.5459L20.5459 11.3535L19.8388 10.6464L10.6464 19.8388L11.3536 20.5459Z" fill="currentColor"/>
</svg>
