
            <svg width="24px" height="24px" viewBox="0 0 24 24" version="1.1" xmlns="http://www.w3.org/2000/svg" xmlns:xlink="http://www.w3.org/1999/xlink">
            
            <g>
               <path d="M18.8921418,10.86 L12.2984078,10.86 L12.2984078,12.918 L16.9794556,12.918 C16.7421674,15.7901538 14.4627632,17.0189231 12.3055984,17.0189231 C9.55161787,17.0189231 7.13559322,14.7423077 7.13559322,11.5384615 C7.13559322,8.44769231 9.43656908,6.058 12.3127889,6.058 C14.5346687,6.058 15.8361582,7.54307692 15.8361582,7.54307692 L17.2023626,6.05046154 C17.2023626,6.05046154 15.4478685,4 12.2408834,4 C8.15665126,4 5,7.61846154 5,11.5384615 C5,15.3453846 7.96969697,19.0769231 12.3487417,19.0769231 C16.1956857,19.0769231 19,16.3103077 19,12.2244615 C19,11.3575385 18.8921418,10.86 18.8921418,10.86 Z" id="path-1"></path>
            </g>
        </svg>
        