
            <svg width="24px" height="24px" viewBox="0 0 24 24" version="1.1" xmlns="http://www.w3.org/2000/svg" xmlns:xlink="http://www.w3.org/1999/xlink">
            
            <g>
               <path d="M12,17.25 C11.31,17.25 10.75,16.69 10.75,16 C10.75,15.31 11.31,14.75 12,14.75 C12.69,14.75 13.25,15.31 13.25,16 C13.25,16.69 12.69,17.25 12,17.25 L12,17.25 Z M11,6 L13,6 L13,13 L11,13 L11,6 Z M12,2 C6.486,2 2,6.486 2,12 C2,17.515 6.486,22 12,22 C17.514,22 22,17.515 22,12 C22,6.486 17.514,2 12,2 L12,2 Z" id="path-1"></path>
            </g>
        </svg>
        