
            <svg width="24px" height="24px" viewBox="0 0 24 24" version="1.1" xmlns="http://www.w3.org/2000/svg" xmlns:xlink="http://www.w3.org/1999/xlink">
            
            <g>
               <path d="M21.9238,8.6177 C21.7688,8.2437 21.4038,7.9997 20.9998,7.9997 L15.6178,7.9997 L12.8948,2.5527 C12.5558,1.8757 11.4448,1.8757 11.1058,2.5527 L8.3818,7.9997 L2.9998,7.9997 C2.5958,7.9997 2.2308,8.2437 2.0758,8.6177 C1.9218,8.9907 2.0068,9.4217 2.2928,9.7067 L6.8768,14.2907 L5.0388,20.7257 C4.9238,21.1287 5.0718,21.5607 5.4108,21.8077 C5.7498,22.0557 6.2068,22.0647 6.5548,21.8317 L11.9998,18.2017 L17.4448,21.8317 C17.6138,21.9437 17.8068,21.9997 17.9998,21.9997 C18.2068,21.9997 18.4138,21.9357 18.5898,21.8077 C18.9278,21.5607 19.0768,21.1287 18.9618,20.7257 L17.1228,14.2907 L21.7068,9.7067 C21.9928,9.4217 22.0788,8.9907 21.9238,8.6177" id="path-1"></path>
            </g>
        </svg>
        