<?xml version="1.0" encoding="UTF-8"?>
<svg width="32px" height="32px" viewBox="0 0 32 32" version="1.1" xmlns="http://www.w3.org/2000/svg" xmlns:xlink="http://www.w3.org/1999/xlink">
    <!-- Generator: Sketch 48.2 (47327) - http://www.bohemiancoding.com/sketch -->
    <title>Icons / 24px / System / icn-alert-circle</title>
    <desc>Created with Sketch.</desc>
    <defs>
        <path d="M17.2,17.2 L14.8,17.2 L14.8,10 L17.2,10 L17.2,17.2 Z M17.2,22 L14.8,22 L14.8,19.6 L17.2,19.6 L17.2,22 Z M16,4 C9.372583,4 4,9.372583 4,16 C4,19.1825979 5.26428208,22.2348448 7.51471863,24.4852814 C9.76515517,26.7357179 12.8174021,28 16,28 C19.1825979,28 22.2348448,26.7357179 24.4852814,24.4852814 C26.7357179,22.2348448 28,19.1825979 28,16 C28,12.8174021 26.7357179,9.76515517 24.4852814,7.51471863 C22.2348448,5.26428208 19.1825979,4 16,4 Z" id="path-1"></path>
    </defs>
    <g id="Icons" stroke="none" stroke-width="1" fill="none" fill-rule="evenodd">
        <g id="Icons-/-24px-/-System-/-icn-alert-circle">
            <mask id="mask-2" fill="white">
                <use xlink:href="#path-1"></use>
            </mask>
            <use id="Mask" fill="#000000" fill-rule="nonzero" xlink:href="#path-1"></use>
            <g id="_Library-Helpers-/-Colors-/-Front-/-Casper" mask="url(#mask-2)" fill="#BAC7D5">
                <g transform="translate(1.000000, 1.000000)" id="Rectangle">
                    <rect x="0" y="0" width="30" height="30"></rect>
                </g>
            </g>
        </g>
    </g>
</svg>