<?xml version="1.0" encoding="UTF-8"?>
<svg width="32px" height="32px" viewBox="0 0 32 32" version="1.1" xmlns="http://www.w3.org/2000/svg" xmlns:xlink="http://www.w3.org/1999/xlink">
    <!-- Generator: Sketch 48.2 (47327) - http://www.bohemiancoding.com/sketch -->
    <title>Icons / 24px / System / icn-settings</title>
    <desc>Created with Sketch.</desc>
    <defs>
        <path d="M15.9458663,20.2 C13.6262704,20.2 11.7458663,18.3195959 11.7458663,16 C11.7458663,13.6804041 13.6262704,11.8 15.9458663,11.8 C18.2654623,11.8 20.1458663,13.6804041 20.1458663,16 C20.1458663,18.3195959 18.2654623,20.2 15.9458663,20.2 Z M24.8618663,17.164 C24.9098663,16.78 24.9458663,16.396 24.9458663,16 C24.9458663,15.604 24.9098663,15.208 24.8618663,14.8 L27.3938663,12.844 C27.6218663,12.664 27.6818663,12.34 27.5378663,12.076 L25.1378663,7.924 C24.9938663,7.66 24.6698663,7.552 24.4058663,7.66 L21.4178663,8.86 C20.7938663,8.392 20.1458663,7.984 19.3898663,7.684 L18.9458663,4.504 C18.8978663,4.216 18.6458663,4 18.3458663,4 L13.5458663,4 C13.2458663,4 12.9938663,4.216 12.9458663,4.504 L12.5018663,7.684 C11.7458663,7.984 11.0978663,8.392 10.4738663,8.86 L7.48586632,7.66 C7.22186632,7.552 6.89786632,7.66 6.75386632,7.924 L4.35386632,12.076 C4.19786632,12.34 4.26986632,12.664 4.49786632,12.844 L7.02986632,14.8 C6.98186632,15.208 6.94586632,15.604 6.94586632,16 C6.94586632,16.396 6.98186632,16.78 7.02986632,17.164 L4.49786632,19.156 C4.26986632,19.336 4.19786632,19.66 4.35386632,19.924 L6.75386632,24.076 C6.89786632,24.34 7.22186632,24.436 7.48586632,24.34 L10.4738663,23.128 C11.0978663,23.608 11.7458663,24.016 12.5018663,24.316 L12.9458663,27.496 C12.9938663,27.784 13.2458663,28 13.5458663,28 L18.3458663,28 C18.6458663,28 18.8978663,27.784 18.9458663,27.496 L19.3898663,24.316 C20.1458663,24.004 20.7938663,23.608 21.4178663,23.128 L24.4058663,24.34 C24.6698663,24.436 24.9938663,24.34 25.1378663,24.076 L27.5378663,19.924 C27.6818663,19.66 27.6218663,19.336 27.3938663,19.156 L24.8618663,17.164 Z" id="path-1"></path>
    </defs>
    <g id="Icons" stroke="none" stroke-width="1" fill="none" fill-rule="evenodd">
        <g id="Icons-/-24px-/-System-/-icn-settings">
            <mask id="mask-2" fill="white">
                <use xlink:href="#path-1"></use>
            </mask>
            <use id="Mask" fill="#000000" fill-rule="nonzero" xlink:href="#path-1"></use>
            <g id="_Library-Helpers-/-Colors-/-Front-/-Casper" mask="url(#mask-2)" fill="#BAC7D5">
                <g transform="translate(1.000000, 1.000000)" id="Rectangle">
                    <rect x="0" y="0" width="30" height="30"></rect>
                </g>
            </g>
        </g>
    </g>
</svg>