<?xml version="1.0" encoding="UTF-8"?>
<svg width="32px" height="32px" viewBox="0 0 32 32" version="1.1" xmlns="http://www.w3.org/2000/svg" xmlns:xlink="http://www.w3.org/1999/xlink">
    <!-- Generator: Sketch 48.2 (47327) - http://www.bohemiancoding.com/sketch -->
    <title>Icons / 24px / System / icn-calendar</title>
    <desc>Created with Sketch.</desc>
    <defs>
        <path d="M21.8,17.2 L15.8,17.2 L15.8,23.2 L21.8,23.2 L21.8,17.2 L21.8,17.2 Z M20.6,4 L20.6,6.4 L11,6.4 L11,4 L8.6,4 L8.6,6.4 L7.4,6.4 C6.068,6.4 5.012,7.48 5.012,8.8 L5,25.6 C5,26.92 6.068,28 7.4,28 L24.2,28 C25.52,28 26.6,26.92 26.6,25.6 L26.6,8.8 C26.6,7.48 25.52,6.4 24.2,6.4 L23,6.4 L23,4 L20.6,4 L20.6,4 Z M24.2,25.6 L7.4,25.6 L7.4,12.4 L24.2,12.4 L24.2,25.6 L24.2,25.6 Z" id="path-1"></path>
    </defs>
    <g id="Icons" stroke="none" stroke-width="1" fill="none" fill-rule="evenodd">
        <g id="Icons-/-24px-/-System-/-icn-calendar">
            <mask id="mask-2" fill="white">
                <use xlink:href="#path-1"></use>
            </mask>
            <use id="Mask" fill="#7C8B99" xlink:href="#path-1"></use>
            <g id="_Library-Helpers-/-Colors-/-Front-/-Casper" mask="url(#mask-2)" fill="#BAC7D5">
                <g transform="translate(1.000000, 1.000000)" id="Rectangle">
                    <rect x="0" y="0" width="30" height="30"></rect>
                </g>
            </g>
        </g>
    </g>
</svg>