<?xml version="1.0" encoding="UTF-8"?>
<svg width="32px" height="32px" viewBox="0 0 32 32" version="1.1" xmlns="http://www.w3.org/2000/svg" xmlns:xlink="http://www.w3.org/1999/xlink">
    <!-- Generator: Sketch 48.2 (47327) - http://www.bohemiancoding.com/sketch -->
    <title>Icons / 24px / System / icn-loading (custom)</title>
    <desc>Created with Sketch.</desc>
    <defs>
        <path d="M6.76923077,18.7692308 C5.23982685,18.7692308 4,17.5294039 4,16 C4,14.4705961 5.23982685,13.2307692 6.76923077,13.2307692 C8.29863469,13.2307692 9.53846154,14.4705961 9.53846154,16 C9.53846154,17.5294039 8.29863469,18.7692308 6.76923077,18.7692308 Z M6.76923077,9.53846154 C5.23982685,9.53846154 4,8.29863469 4,6.76923077 C4,5.23982685 5.23982685,4 6.76923077,4 C8.29863469,4 9.53846154,5.23982685 9.53846154,6.76923077 C9.53846154,8.29863469 8.29863469,9.53846154 6.76923077,9.53846154 Z M16,9.53846154 C14.4705961,9.53846154 13.2307692,8.29863469 13.2307692,6.76923077 C13.2307692,5.23982685 14.4705961,4 16,4 C17.5294039,4 18.7692308,5.23982685 18.7692308,6.76923077 C18.7692308,8.29863469 17.5294039,9.53846154 16,9.53846154 Z M16,18.7692308 C14.4705961,18.7692308 13.2307692,17.5294039 13.2307692,16 C13.2307692,14.4705961 14.4705961,13.2307692 16,13.2307692 C17.5294039,13.2307692 18.7692308,14.4705961 18.7692308,16 C18.7692308,17.5294039 17.5294039,18.7692308 16,18.7692308 Z M25.2307692,9.53846154 C23.7013653,9.53846154 22.4615385,8.29863469 22.4615385,6.76923077 C22.4615385,5.23982685 23.7013653,4 25.2307692,4 C26.7601732,4 28,5.23982685 28,6.76923077 C28,8.29863469 26.7601732,9.53846154 25.2307692,9.53846154 Z M25.2307692,18.7692308 C23.7013653,18.7692308 22.4615385,17.5294039 22.4615385,16 C22.4615385,14.4705961 23.7013653,13.2307692 25.2307692,13.2307692 C26.7601732,13.2307692 28,14.4705961 28,16 C28,17.5294039 26.7601732,18.7692308 25.2307692,18.7692308 Z M6.76923077,28 C5.23982685,28 4,26.7601732 4,25.2307692 C4,23.7013653 5.23982685,22.4615385 6.76923077,22.4615385 C8.29863469,22.4615385 9.53846154,23.7013653 9.53846154,25.2307692 C9.53846154,26.7601732 8.29863469,28 6.76923077,28 Z M16,28 C14.4705961,28 13.2307692,26.7601732 13.2307692,25.2307692 C13.2307692,23.7013653 14.4705961,22.4615385 16,22.4615385 C17.5294039,22.4615385 18.7692308,23.7013653 18.7692308,25.2307692 C18.7692308,26.7601732 17.5294039,28 16,28 Z M25.2307692,28 C23.7013653,28 22.4615385,26.7601732 22.4615385,25.2307692 C22.4615385,23.7013653 23.7013653,22.4615385 25.2307692,22.4615385 C26.7601732,22.4615385 28,23.7013653 28,25.2307692 C28,26.7601732 26.7601732,28 25.2307692,28 Z" id="path-1"></path>
    </defs>
    <g id="Icons" stroke="none" stroke-width="1" fill="none" fill-rule="evenodd">
        <g id="Icons-/-24px-/-System-/-icn-loading-(custom)">
            <mask id="mask-2" fill="white">
                <use xlink:href="#path-1"></use>
            </mask>
            <use id="Mask" fill-opacity="0.5" fill="#000000" fill-rule="nonzero" xlink:href="#path-1"></use>
            <g id="_Library-Helpers-/-Colors-/-Front-/-Casper" mask="url(#mask-2)" fill="#BAC7D5">
                <g transform="translate(1.000000, 1.000000)" id="Rectangle">
                    <rect x="0" y="0" width="30" height="30"></rect>
                </g>
            </g>
        </g>
    </g>
</svg>