<?xml version="1.0" encoding="UTF-8"?>
<svg width="32px" height="32px" viewBox="0 0 32 32" version="1.1" xmlns="http://www.w3.org/2000/svg" xmlns:xlink="http://www.w3.org/1999/xlink">
    <!-- Generator: Sketch 48.2 (47327) - http://www.bohemiancoding.com/sketch -->
    <title>Icons / 24px / System / icn-timelapse</title>
    <desc>Created with Sketch.</desc>
    <defs>
        <path d="M21.088,10.912 C19.684,9.508 17.848,8.8 16,8.8 L16,16 L10.912,21.088 C13.72,23.896 18.28,23.896 21.1,21.088 C23.908,18.28 23.908,13.72 21.088,10.912 L21.088,10.912 Z M16,4 C9.376,4 4,9.376 4,16 C4,22.624 9.376,28 16,28 C22.624,28 28,22.624 28,16 C28,9.376 22.624,4 16,4 L16,4 Z M16,25.6 C10.696,25.6 6.4,21.304 6.4,16 C6.4,10.696 10.696,6.4 16,6.4 C21.304,6.4 25.6,10.696 25.6,16 C25.6,21.304 21.304,25.6 16,25.6 L16,25.6 Z" id="path-1"></path>
    </defs>
    <g id="Icons" stroke="none" stroke-width="1" fill="none" fill-rule="evenodd">
        <g id="Icons-/-24px-/-System-/-icn-timelapse">
            <mask id="mask-2" fill="white">
                <use xlink:href="#path-1"></use>
            </mask>
            <use id="Mask" fill="#7C8B99" xlink:href="#path-1"></use>
            <g id="_Library-Helpers-/-Colors-/-Front-/-Casper" mask="url(#mask-2)" fill="#BAC7D5">
                <g transform="translate(1.000000, 1.000000)" id="Rectangle">
                    <rect x="0" y="0" width="30" height="30"></rect>
                </g>
            </g>
        </g>
    </g>
</svg>