<?xml version="1.0" encoding="UTF-8"?>
<svg width="32px" height="32px" viewBox="0 0 32 32" version="1.1" xmlns="http://www.w3.org/2000/svg" xmlns:xlink="http://www.w3.org/1999/xlink">
    <!-- Generator: Sketch 48.2 (47327) - http://www.bohemiancoding.com/sketch -->
    <title>Icons / 24px / System / icn-bell</title>
    <desc>Created with Sketch.</desc>
    <defs>
        <path d="M15.8461538,28 C17.2,28 18.3076923,26.8923077 18.3076923,25.5384615 L13.3846154,25.5384615 C13.3846154,26.8923077 14.48,28 15.8461538,28 L15.8461538,28 Z M23.2307692,20.6153846 L23.2307692,14.4615385 C23.2307692,10.6830769 21.2123077,7.52 17.6923077,6.68307692 L17.6923077,5.84615385 C17.6923077,4.82461538 16.8676923,4 15.8461538,4 C14.8246154,4 14,4.82461538 14,5.84615385 L14,6.68307692 C10.4676923,7.52 8.46153846,10.6707692 8.46153846,14.4615385 L8.46153846,20.6153846 L6,23.0769231 L6,24.3076923 L25.6923077,24.3076923 L25.6923077,23.0769231 L23.2307692,20.6153846 L23.2307692,20.6153846 Z" id="path-1"></path>
    </defs>
    <g id="Icons" stroke="none" stroke-width="1" fill="none" fill-rule="evenodd">
        <g id="Icons-/-24px-/-System-/-icn-bell">
            <mask id="mask-2" fill="white">
                <use xlink:href="#path-1"></use>
            </mask>
            <use id="Mask" fill="#01BBA5" xlink:href="#path-1"></use>
            <g id="_Library-Helpers-/-Colors-/-Front-/-Casper" mask="url(#mask-2)" fill="#BAC7D5">
                <g transform="translate(1.000000, 1.000000)" id="Rectangle">
                    <rect x="0" y="0" width="30" height="30"></rect>
                </g>
            </g>
        </g>
    </g>
</svg>