<svg width="122" height="41" viewBox="0 0 122 41" fill="none" xmlns="http://www.w3.org/2000/svg">
  <path d="M48.7572 7.4575V27.978L51.3893 27.9982V18.2217H57.7383V15.6415H51.3893V10.0377H59.6471V7.4575H48.7572ZM64.3888 11.6301C65.3331 11.6301 66.1167 10.8642 66.1167 9.89658C66.1167 8.92902 65.3532 8.16302 64.3888 8.16302C63.4445 8.16302 62.6609 8.92902 62.6609 9.89658C62.6609 10.8642 63.4244 11.6301 64.3888 11.6301ZM63.0426 14.2103V27.9982H65.6747V14.2103H63.0426ZM75.4394 13.8072C71.9434 13.8072 69.5123 16.7704 69.5123 20.2979C69.5123 23.8255 71.9434 26.7887 75.4394 26.7887C77.0468 26.7887 78.3528 26.184 79.3172 25.156V26.9903C79.3373 29.2681 77.529 31.1629 75.2385 31.1831C75.2184 31.1831 75.2184 31.1831 75.1983 31.1831C74.3544 31.1831 73.5307 30.8606 72.8676 30.3969L71.5416 32.6949C74.6759 34.7309 78.8551 33.8238 80.8643 30.6792C81.5675 29.5705 81.9492 28.3005 81.9492 26.9903V14.2305H79.3172V15.4601C78.3528 14.4321 77.0468 13.8072 75.4394 13.8072ZM72.1443 20.2979C72.1443 18.1008 73.812 16.3874 75.7408 16.3874C77.6696 16.3874 79.3172 18.1209 79.3172 20.2979C79.3172 22.4951 77.6495 24.1884 75.7408 24.1884C73.812 24.1884 72.1443 22.475 72.1443 20.2979ZM91.4327 16.3874C89.8655 16.4075 88.5997 17.6976 88.6198 19.2699V27.978H85.9877V14.1902H88.6198V15.4601C89.4235 14.3917 90.6692 13.787 92.0153 13.8072C93.8638 13.8072 95.2903 14.7143 96.094 16.1253C97.0183 14.6941 98.5854 13.8273 100.273 13.8072C103.267 13.8072 105.135 16.2261 105.135 19.2296V27.978H102.523V19.2699C102.523 17.6976 101.278 16.4075 99.7106 16.3874C98.1434 16.4075 96.8776 17.6976 96.8977 19.2699V27.978H94.2455V19.2699C94.2455 17.6976 92.9998 16.4075 91.4327 16.3874ZM119.16 15.7625C117.954 14.4925 116.266 13.787 114.518 13.8072C110.6 13.8072 107.828 17.1332 107.828 21.0841C107.828 25.0552 110.6 28.361 114.518 28.361C116.266 28.361 117.934 27.6555 119.16 26.4057V27.978H121.792V14.1902H119.16V15.7625ZM110.46 21.0841C110.46 18.4636 112.469 16.3672 114.82 16.3672C117.15 16.3874 119.16 18.4636 119.16 21.0841C119.16 23.7046 117.15 25.7808 114.8 25.7808C112.489 25.801 110.46 23.7248 110.46 21.0841Z" fill="white"/>
  <path fill-rule="evenodd" clip-rule="evenodd" d="M8.91875 0.150635H22.0812C26.6187 0.150635 30.3125 3.74124 30.3125 8.05186C30.3125 10.5719 29.0488 12.8481 27.0913 14.3013C29.0488 15.7563 30.3125 18.0307 30.3125 20.5525C30.3125 24.8613 26.6187 28.4519 22.0812 28.4519C20.2325 28.4519 18.5244 27.8575 17.15 26.86V33.0513C17.15 37.3619 13.4581 40.9525 8.91875 40.9525C4.38125 40.9525 0.6875 37.3619 0.6875 33.0513C0.6875 30.5313 1.95123 28.2569 3.90873 26.8019C1.95123 25.3469 0.6875 23.0725 0.6875 20.5525C0.6875 18.0307 1.95123 15.7563 3.90873 14.3013C1.95123 12.8481 0.6875 10.5719 0.6875 8.05186C0.6875 3.74124 4.38125 0.150635 8.91875 0.150635ZM13.85 28.4519H8.91875C6.2375 28.4519 3.98749 30.505 3.98749 33.0513C3.98749 35.5994 6.2375 37.6506 8.91875 37.6506C11.6019 37.6506 13.85 35.5994 13.85 33.0513V28.4519ZM17.15 20.5525C17.15 18.0044 19.3981 15.9513 22.0812 15.9513C24.7625 15.9513 27.0125 18.0044 27.0125 20.5525C27.0125 23.0988 24.7625 25.1519 22.0812 25.1519C19.3981 25.1519 17.15 23.0988 17.15 20.5525ZM8.85687 15.9532C6.20187 15.9832 3.98749 18.025 3.98749 20.5525C3.98749 23.0988 6.2375 25.1519 8.91875 25.1519H13.85V15.9513H8.91875L8.85687 15.9532ZM13.85 12.6512V3.45248H8.91875C6.2375 3.45248 3.98749 5.50374 3.98749 8.05186C3.98749 10.6 6.2375 12.6512 8.91875 12.6512H13.85ZM17.15 12.6512H22.0812C24.7625 12.6512 27.0125 10.6 27.0125 8.05186C27.0125 5.50374 24.7625 3.45248 22.0812 3.45248H17.15V12.6512Z" fill="white"/>
</svg>
