<?xml version="1.0" encoding="UTF-8" standalone="no"?>
<!DOCTYPE svg PUBLIC "-//W3C//DTD SVG 1.1//EN" "http://www.w3.org/Graphics/SVG/1.1/DTD/svg11.dtd">
<svg width="100%" height="100%" viewBox="0 0 192 44" version="1.1" xmlns="http://www.w3.org/2000/svg" xmlns:xlink="http://www.w3.org/1999/xlink" xml:space="preserve" xmlns:serif="http://www.serif.com/" style="fill-rule:evenodd;clip-rule:evenodd;stroke-linejoin:round;stroke-miterlimit:2;">
    <g transform="matrix(1,0,0,1,-124,-16)">
        <g id="orbit-logo" transform="matrix(0.758893,0,0,0.389381,54.1818,22.2301)">
            <rect x="92" y="-16" width="253" height="113" style="fill:none;"/>
            <clipPath id="_clip1">
                <rect x="92" y="-16" width="253" height="113"/>
            </clipPath>
            <g clip-path="url(#_clip1)">
                <g transform="matrix(0.905924,0,0,1.76563,92.7218,-16)">
                    <circle cx="31.203" cy="32" r="32" style="fill:rgb(0,169,145);"/>
                </g>
                <g transform="matrix(0.905924,0,0,1.76563,92,-16)">
                    <path d="M44.194,21.636C51.286,20.246 54.256,20.575 55.031,22.697C55.673,24.489 54.187,26.489 50.342,28.987C50.026,29.176 49.65,29.234 49.292,29.151C48.934,29.068 48.622,28.85 48.422,28.541C48.222,28.233 48.148,27.86 48.217,27.499C48.287,27.138 48.493,26.818 48.793,26.606C51.132,25.094 51.922,24.16 52.193,23.736C51.535,23.566 49.541,23.418 43.881,24.558L43.706,24.558C43.622,24.564 43.536,24.564 43.452,24.558C43.372,24.549 43.294,24.531 43.218,24.505L43.176,24.505C43.143,24.493 43.109,24.48 43.077,24.465C43.046,24.451 43.015,24.436 42.985,24.42L42.916,24.383L42.762,24.277L42.688,24.219C42.645,24.177 42.604,24.133 42.566,24.086L42.513,24.033C41.296,22.483 39.744,21.228 37.973,20.362C36.202,19.497 34.258,19.044 32.286,19.037C30.059,19.029 27.867,19.596 25.924,20.684C23.98,21.771 22.349,23.342 21.19,25.244C20.031,27.146 19.383,29.315 19.307,31.541C19.232,33.767 19.733,35.975 20.761,37.951C24.549,37.036 28.282,35.906 31.942,34.567C35.432,33.31 38.705,31.952 41.68,30.536C41.848,30.456 42.03,30.41 42.216,30.4C42.401,30.39 42.587,30.417 42.763,30.479C42.938,30.541 43.099,30.637 43.238,30.762C43.376,30.886 43.488,31.037 43.568,31.204C43.649,31.372 43.695,31.554 43.705,31.74C43.714,31.926 43.687,32.112 43.625,32.287C43.563,32.462 43.467,32.624 43.343,32.762C43.218,32.9 43.068,33.013 42.9,33.093C39.845,34.583 36.535,35.925 32.902,37.235C29.268,38.545 25.709,39.633 22.447,40.45C23.888,42.136 25.738,43.425 27.82,44.191C29.902,44.957 32.146,45.176 34.337,44.825C36.528,44.475 38.591,43.567 40.331,42.19C42.07,40.813 43.426,39.012 44.269,36.959C44.424,36.635 44.698,36.381 45.034,36.251C45.37,36.121 45.743,36.124 46.077,36.259C46.411,36.395 46.681,36.652 46.831,36.979C46.982,37.306 47.003,37.679 46.889,38.02C45.814,40.637 44.057,42.917 41.799,44.622C39.541,46.327 36.867,47.394 34.056,47.711C31.245,48.028 28.4,47.584 25.82,46.425C23.239,45.266 21.017,43.435 19.387,41.123C18.39,41.33 17.419,41.516 16.512,41.654C15.074,41.892 13.62,42.024 12.162,42.046C9.431,42.046 7.882,41.372 7.389,40.004C6.848,38.508 7.219,35.968 16.523,31.183C16.687,28.043 17.786,25.023 19.678,22.512C21.57,20 24.168,18.11 27.141,17.084C30.114,16.059 33.325,15.944 36.363,16.755C39.401,17.566 42.128,19.265 44.194,21.636ZM16.666,34.286C12.2,36.715 10.571,38.339 10.179,39.002C11.075,39.357 13.717,39.336 17.917,38.529C17.3,37.182 16.879,35.753 16.666,34.286Z" style="fill:white;"/>
                </g>
                <g transform="matrix(0.905924,0,0,1.76563,92,-16)">
                    <path d="M44.774,30.563C44.627,30.322 44.554,30.044 44.566,29.762C44.573,29.574 44.617,29.39 44.696,29.22C44.775,29.05 44.886,28.897 45.024,28.769C45.162,28.642 45.324,28.544 45.5,28.479C45.676,28.415 45.863,28.385 46.051,28.393C46.333,28.405 46.605,28.5 46.833,28.666C47.06,28.833 47.234,29.063 47.331,29.328C47.428,29.592 47.444,29.88 47.378,30.154C47.312,30.429 47.166,30.677 46.958,30.868C46.751,31.059 46.491,31.185 46.213,31.228C45.934,31.272 45.648,31.232 45.392,31.114C45.136,30.995 44.921,30.804 44.774,30.563Z" style="fill:white;fill-rule:nonzero;"/>
                </g>
                <g transform="matrix(1.31771,0,0,2.56818,49.8333,-98.1818)">
                    <path d="M93.785,44C99.185,44 103.569,48.469 103.569,53.975C103.569,59.479 99.185,63.949 93.785,63.949C88.384,63.949 84,59.479 84,53.975C84,48.469 88.384,44 93.785,44ZM93.785,47.821C97.116,47.821 99.821,50.578 99.821,53.975C99.821,57.37 97.116,60.128 93.785,60.128C90.453,60.128 87.748,57.37 87.748,53.975C87.748,50.578 90.453,47.821 93.785,47.821Z" style="fill:rgb(37,42,49);"/>
                </g>
                <g transform="matrix(1.31771,0,0,2.56818,49.8333,-98.1818)">
                    <path d="M114.448,56.483C113.285,56.489 112.126,56.49 110.964,56.492L110.865,56.493L110.845,62.343L110.819,62.627C110.769,62.811 110.718,62.996 110.623,63.16C110.24,63.819 109.364,64.137 108.645,63.873C108.108,63.675 107.696,63.181 107.598,62.616C107.582,62.523 107.582,62.427 107.574,62.332L107.6,54.946L107.592,54.862L107.6,54.768L107.631,45.667L107.656,45.385C107.721,45.145 107.723,45.076 107.849,44.857C108.084,44.448 108.5,44.152 108.965,44.065C109.122,44.035 109.282,44.036 109.445,44.034C110.823,44.018 112.201,44.007 113.575,44.007C114.521,44.008 115.482,43.959 116.38,44.102C118.425,44.427 120.258,45.828 121.093,47.778C122.179,50.313 121.444,53.564 119.196,55.232C118.825,55.507 118.422,55.737 117.999,55.921L121.645,61.429C121.921,61.865 121.991,62.416 121.818,62.891C121.557,63.609 120.744,64.077 119.99,63.941C119.557,63.862 119.172,63.6 118.919,63.234L114.448,56.483ZM113.316,47.278C112.555,47.279 111.795,47.283 111.034,47.289L110.896,47.291L110.876,53.222C112.366,53.219 113.841,53.224 115.342,53.207C116.468,53.19 117.592,52.662 118.048,51.575C118.485,50.528 118.393,49.267 117.668,48.374C117.118,47.696 116.256,47.316 115.377,47.295C114.69,47.279 114.005,47.278 113.316,47.278Z" style="fill:rgb(37,42,49);"/>
                </g>
                <g transform="matrix(1.31771,0,0,2.56818,49.8333,-98.1818)">
                    <path d="M130.655,44C131.5,44.001 132.345,44.001 133.19,44.02C133.19,44.02 133.406,44.027 133.562,44.039C135.636,44.197 137.624,45.562 138.326,47.764C138.888,49.524 138.549,51.54 137.441,53.04C139.344,54.404 140.234,56.934 139.748,59.205C139.301,61.291 137.821,63.155 135.72,63.752C135.127,63.92 134.508,63.96 133.882,63.973C131.787,64.017 129.691,63.998 127.596,63.982L127.54,63.982C127.29,63.958 127.221,63.968 126.983,63.88C126.538,63.715 126.175,63.349 126.014,62.901C125.927,62.663 125.938,62.594 125.917,62.344L125.931,53.661L125.931,53.6L125.943,45.643L125.968,45.361C126.033,45.119 126.035,45.05 126.161,44.83C126.398,44.42 126.818,44.122 127.285,44.037C127.586,43.982 127.896,44.008 128.206,44.007C129.022,44.002 129.838,44 130.655,44ZM129.691,55.259L129.198,55.259L129.19,60.72C130.885,60.728 132.58,60.754 134.276,60.69C134.656,60.674 135.031,60.572 135.35,60.375C136.267,59.811 136.732,58.607 136.584,57.559C136.454,56.64 135.897,55.774 135.049,55.433C134.473,55.202 133.812,55.264 133.161,55.263C132.003,55.261 130.846,55.259 129.691,55.259ZM130.422,47.271C130.051,47.271 129.681,47.272 129.311,47.273L129.212,47.273L129.204,51.983C130.492,51.977 131.785,51.987 133.063,51.974C134.329,51.956 135.432,50.724 135.315,49.298C135.251,48.51 134.766,47.707 133.932,47.42C133.453,47.255 132.932,47.285 132.414,47.279C131.75,47.272 131.085,47.271 130.422,47.271Z" style="fill:rgb(37,42,49);"/>
                </g>
                <g transform="matrix(1.31771,0,0,2.56818,49.8333,-98.1818)">
                    <path d="M145.845,44.026C146.088,44.091 146.158,44.093 146.378,44.221C146.708,44.413 146.966,44.721 147.095,45.08C147.182,45.319 147.171,45.388 147.192,45.639L147.154,62.334C147.145,62.429 147.145,62.525 147.129,62.618C146.994,63.368 146.281,63.968 145.515,63.966C144.753,63.964 144.039,63.366 143.907,62.611C143.891,62.517 143.891,62.421 143.883,62.327L143.921,45.632C143.944,45.381 143.934,45.312 144.022,45.073C144.185,44.628 144.552,44.26 145.001,44.097C145.241,44.011 145.309,44.021 145.561,44C145.656,44.009 145.75,44.017 145.845,44.026Z" style="fill:rgb(37,42,49);"/>
                </g>
                <g transform="matrix(1.31771,0,0,2.56818,49.8333,-98.1818)">
                    <path d="M157.1,47.271L152.825,47.271C152.129,47.253 151.48,46.788 151.27,46.141C151.031,45.407 151.395,44.529 152.083,44.178C152.312,44.062 152.568,44.007 152.825,44C156.674,44 160.524,44 164.373,44.001C165.042,44.018 165.667,44.442 165.9,45.05C166.175,45.767 165.865,46.663 165.191,47.053C164.943,47.195 164.658,47.264 164.373,47.272L160.37,47.271L160.269,62.326C160.26,62.42 160.259,62.516 160.242,62.609C160.105,63.359 159.389,63.955 158.623,63.95C157.861,63.945 157.15,63.343 157.021,62.588C157.006,62.494 157.006,62.398 156.999,62.304L157.1,47.271Z" style="fill:rgb(37,42,49);"/>
                </g>
                <g transform="matrix(1.31771,0,0,2.56818,49.8333,-98.1818)">
                    <path d="M176.076,58L176.076,57.16C176.436,57.784 177.096,58.156 177.948,58.156C179.664,58.156 180.636,56.8 180.636,55.084C180.636,53.404 179.736,52.06 177.984,52.06C177.024,52.06 176.352,52.528 176.076,53.044L176.076,49.312L174.96,49.312L174.96,58L176.076,58ZM179.484,55.084C179.484,56.332 178.812,57.148 177.78,57.148C176.784,57.148 176.064,56.332 176.064,55.084C176.064,53.836 176.784,53.056 177.78,53.056C178.824,53.056 179.484,53.836 179.484,55.084ZM183.279,60.412L187.035,52.228L185.823,52.228L184.095,56.212L182.295,52.228L180.999,52.228L183.483,57.364L182.043,60.412L183.279,60.412Z" style="fill:rgb(95,115,140);fill-rule:nonzero;"/>
                </g>
                <g transform="matrix(1.31771,0,0,2.56818,49.8333,-98.1818)">
                    <path d="M205.864,52.612C205.88,52.571 205.897,52.505 205.897,52.464C205.897,52.243 205.726,52.137 205.547,52.137C205.393,52.137 205.295,52.211 205.238,52.383L204.523,54.586L203.701,52.366C203.653,52.227 203.563,52.137 203.392,52.137C203.222,52.137 203.132,52.227 203.083,52.366L202.27,54.586L201.555,52.383C201.498,52.211 201.4,52.137 201.246,52.137C201.067,52.137 200.896,52.243 200.896,52.464C200.896,52.505 200.912,52.571 200.929,52.612L201.929,55.601C201.961,55.732 202.067,55.823 202.246,55.823C202.425,55.823 202.522,55.724 202.571,55.593L203.392,53.324L204.222,55.593C204.271,55.732 204.376,55.823 204.547,55.823C204.718,55.823 204.815,55.741 204.864,55.601L205.864,52.612ZM198.408,55.139L197.225,53.954L198.408,52.77C198.557,52.619 198.569,52.387 198.408,52.225C198.247,52.063 198.017,52.075 197.868,52.225L196.428,53.675C196.354,53.749 196.313,53.85 196.315,53.954C196.313,54.059 196.354,54.16 196.428,54.233L197.868,55.683C198.017,55.834 198.247,55.846 198.408,55.683C198.569,55.521 198.557,55.289 198.408,55.139ZM196.134,55.41L196.134,52.494C196.134,52.281 195.971,52.109 195.752,52.109C195.532,52.109 195.37,52.281 195.37,52.494L195.37,55.41C195.37,55.623 195.524,55.795 195.752,55.795C195.979,55.795 196.134,55.623 196.134,55.41L196.134,55.41ZM199.369,52.522L199.369,55.437C199.369,55.65 199.524,55.823 199.751,55.823C199.979,55.823 200.133,55.65 200.133,55.437L200.133,52.522C200.133,52.309 199.971,52.137 199.751,52.137C199.532,52.137 199.369,52.309 199.369,52.522ZM206.673,52.522L206.673,55.437C206.673,55.65 206.827,55.823 207.055,55.823C207.282,55.823 207.437,55.65 207.437,55.437L207.437,52.522C207.437,52.309 207.274,52.137 207.055,52.137C206.835,52.137 206.673,52.309 206.673,52.522ZM206.673,52.522L206.673,55.437C206.673,55.65 206.827,55.823 207.055,55.823C207.282,55.823 207.437,55.65 207.437,55.437L207.437,52.522C207.437,52.309 207.274,52.137 207.055,52.137C206.835,52.137 206.673,52.309 206.673,52.522ZM206.673,52.522L206.673,55.437C206.673,55.65 206.827,55.823 207.055,55.823C207.282,55.823 207.437,55.65 207.437,55.437L207.437,52.522C207.437,52.309 207.274,52.137 207.055,52.137C206.835,52.137 206.673,52.309 206.673,52.522ZM214.408,52.807C214.75,52.807 214.95,52.939 215.141,53.086C215.217,53.139 215.292,53.164 215.369,53.164C215.555,53.164 215.695,53.021 215.695,52.831C215.695,52.743 215.659,52.663 215.586,52.59C215.313,52.305 214.873,52.135 214.408,52.135C213.353,52.135 212.617,52.888 212.617,53.965C212.617,55.043 213.353,55.795 214.408,55.795C214.873,55.795 215.312,55.626 215.584,55.343C215.659,55.267 215.695,55.188 215.695,55.099C215.695,54.909 215.555,54.766 215.369,54.766C215.292,54.766 215.216,54.793 215.136,54.849C214.955,54.988 214.75,55.123 214.408,55.123C213.776,55.123 213.335,54.647 213.335,53.965C213.335,53.283 213.776,52.807 214.408,52.807ZM217.966,52.135C216.939,52.135 216.165,52.922 216.165,53.965C216.165,55.008 216.939,55.795 217.966,55.795C218.993,55.795 219.767,55.008 219.767,53.965C219.767,52.922 218.993,52.135 217.966,52.135ZM217.966,55.142C217.254,55.142 216.881,54.55 216.881,53.965C216.881,53.193 217.427,52.789 217.966,52.789C218.679,52.789 219.052,53.381 219.052,53.965C219.052,54.737 218.506,55.142 217.966,55.142ZM223.656,52.156C223.523,52.156 223.407,52.235 223.345,52.367L222.231,54.715L222.222,54.694L221.106,52.362C221.029,52.222 220.929,52.156 220.792,52.156C220.702,52.155 220.616,52.19 220.553,52.254C220.49,52.318 220.455,52.404 220.456,52.495L220.456,55.431C220.456,55.617 220.61,55.774 220.792,55.774C220.977,55.774 221.133,55.617 221.133,55.431L221.133,53.871L221.936,55.586C222.001,55.714 222.094,55.774 222.232,55.774C222.362,55.774 222.47,55.705 222.527,55.584L223.32,53.871L223.32,55.436C223.32,55.623 223.47,55.774 223.656,55.774C223.847,55.774 223.997,55.626 223.997,55.436L223.997,52.5C223.997,52.294 223.86,52.156 223.656,52.156L223.656,52.156Z" style="fill:rgb(95,115,140);"/>
                </g>
                <g transform="matrix(1.31771,0,0,2.56818,49.8333,-98.1818)">
                    <path d="M209.259,57.348C209.16,57.275 209.041,57.235 208.919,57.235C208.737,57.235 208.566,57.323 208.457,57.47C207.738,58.451 206.724,59.273 205.522,59.848C204.273,60.446 202.846,60.762 201.39,60.762C199.168,60.762 197.084,60.042 195.523,58.735C194.773,58.109 194.186,57.381 193.777,56.574C193.359,55.746 193.147,54.869 193.146,53.965C193.147,53.062 193.359,52.184 193.777,51.357C194.392,50.14 195.417,49.102 196.742,48.354C198.115,47.578 199.723,47.168 201.393,47.168C202.848,47.168 204.28,47.486 205.531,48.087C206.735,48.665 207.751,49.49 208.468,50.475C208.576,50.623 208.748,50.711 208.93,50.711C209.052,50.711 209.171,50.672 209.269,50.599C209.524,50.41 209.579,50.049 209.392,49.792C208.562,48.654 207.398,47.704 206.025,47.044C204.62,46.37 203.018,46.014 201.393,46.013C198.904,46.014 196.559,46.828 194.79,48.306C193.92,49.034 193.235,49.884 192.756,50.833C192.254,51.823 192,52.877 192,53.965C192,55.053 192.254,56.107 192.756,57.098C193.475,58.518 194.659,59.724 196.181,60.584C197.725,61.456 199.527,61.917 201.393,61.917C203.014,61.917 204.612,61.562 206.015,60.891C207.385,60.234 208.549,59.288 209.379,58.155C209.567,57.899 209.513,57.537 209.259,57.348" style="fill:rgb(95,115,140);"/>
                </g>
                <g transform="matrix(1.31771,0,0,2.56818,49.8333,-98.1818)">
                    <path d="M210.175,53.329C209.827,53.33 209.545,53.614 209.544,53.965C209.545,54.316 209.827,54.6 210.175,54.601C210.524,54.6 210.806,54.316 210.806,53.965C210.806,53.614 210.524,53.33 210.175,53.329Z" style="fill:rgb(95,115,140);"/>
                </g>
            </g>
        </g>
    </g>
</svg>
