<svg width="14" height="20" viewBox="0 0 14 20" fill="none" xmlns="http://www.w3.org/2000/svg">
<path d="M1 4C1 3.20435 1.31607 2.44129 1.87868 1.87868C2.44129 1.31607 3.20435 1 4 1H7V7H4C3.20435 7 2.44129 6.68393 1.87868 6.12132C1.31607 5.55871 1 4.79565 1 4Z" stroke="#697D95" stroke-linecap="round" stroke-linejoin="round"/>
<path d="M7 1H10C10.394 1 10.7841 1.0776 11.1481 1.22836C11.512 1.37913 11.8427 1.6001 12.1213 1.87868C12.3999 2.15726 12.6209 2.48797 12.7716 2.85195C12.9224 3.21593 13 3.60603 13 4C13 4.39397 12.9224 4.78407 12.7716 5.14805C12.6209 5.51203 12.3999 5.84274 12.1213 6.12132C11.8427 6.3999 11.512 6.62087 11.1481 6.77164C10.7841 6.9224 10.394 7 10 7H7V1Z" stroke="#697D95" stroke-linecap="round" stroke-linejoin="round"/>
<path d="M7 10C7 9.60603 7.0776 9.21593 7.22836 8.85195C7.37913 8.48797 7.6001 8.15726 7.87868 7.87868C8.15726 7.6001 8.48797 7.37913 8.85195 7.22836C9.21593 7.0776 9.60603 7 10 7C10.394 7 10.7841 7.0776 11.1481 7.22836C11.512 7.37913 11.8427 7.6001 12.1213 7.87868C12.3999 8.15726 12.6209 8.48797 12.7716 8.85195C12.9224 9.21593 13 9.60603 13 10C13 10.394 12.9224 10.7841 12.7716 11.148C12.6209 11.512 12.3999 11.8427 12.1213 12.1213C11.8427 12.3999 11.512 12.6209 11.1481 12.7716C10.7841 12.9224 10.394 13 10 13C9.60603 13 9.21593 12.9224 8.85195 12.7716C8.48797 12.6209 8.15726 12.3999 7.87868 12.1213C7.6001 11.8427 7.37913 11.512 7.22836 11.148C7.0776 10.7841 7 10.394 7 10V10Z" stroke="#697D95" stroke-linecap="round" stroke-linejoin="round"/>
<path d="M1 16C1 15.2043 1.31607 14.4413 1.87868 13.8787C2.44129 13.3161 3.20435 13 4 13H7V16C7 16.7956 6.68393 17.5587 6.12132 18.1213C5.55871 18.6839 4.79565 19 4 19C3.20435 19 2.44129 18.6839 1.87868 18.1213C1.31607 17.5587 1 16.7956 1 16Z" stroke="#697D95" stroke-linecap="round" stroke-linejoin="round"/>
<path d="M1 10C1 9.20435 1.31607 8.44129 1.87868 7.87868C2.44129 7.31607 3.20435 7 4 7H7V13H4C3.20435 13 2.44129 12.6839 1.87868 12.1213C1.31607 11.5587 1 10.7956 1 10Z" stroke="#697D95" stroke-linecap="round" stroke-linejoin="round"/>
</svg>
