<svg xmlns="http://www.w3.org/2000/svg" width="1407" height="1182" viewBox="0 0 1407 1182">
  <g fill="none">
    <path fill="#171B1E" d="M895.2 362.8C886.6 354.2 876.1 349.6 864.9 349.6 853.7 349.6 842.9 354.3 834.4 362.8L638.2 559.1C629.8 567.5 625.3 578.5 625.5 590.2 625.3 602.2 629.8 613.3 638.2 621.7L834.4 817.9C842.9 826.4 853.8 831.1 864.9 831.1 876.1 831.1 886.5 826.5 895.2 817.9 904 809.1 908.6 798.4 908.4 787 908.2 776 903.5 765.4 895.2 757.1L728.5 590.4 895.2 423.7C912.8 406 912.8 380.5 895.2 362.8M600.4 392.8C600.4 381.2 596.1 370.3 588.2 362.3 580.2 354.2 569.3 349.8 557.4 349.8 532.9 349.8 514.4 368.3 514.4 392.8L514.4 787.4C514.4 812.3 532.5 830.4 557.4 830.4 569.9 830.4 580.6 826.1 588.6 817.9 596.2 810 600.4 799.2 600.4 787.4L600.4 392.8z"/>
    <path fill="#00A991" d="M1359.2,557.3 C1333.2,557.3 1312,578.5 1312,604.5 C1312,630.5 1333.2,651.7 1359.2,651.7 C1385.2,651.7 1406.4,630.5 1406.4,604.5 C1406.4,578.5 1385.3,557.3 1359.2,557.3"/>
    <path fill="#00A991" d="M1290.7,841.8 C1283.3,836.3 1274.5,833.4 1265.3,833.4 C1251.7,833.4 1238.8,839.9 1230.8,850.8 C1177.1,923.6 1101.2,984.7 1011.3,1027.4 C917.9,1071.8 811.1,1095.3 702.2,1095.3 C536.1,1095.3 380.2,1041.9 263.4,944.8 C207.3,898.3 163.4,844.3 132.9,784.3 C101.6,722.9 85.8,657.7 85.7,590.7 C85.7,523.6 101.6,458.5 132.9,397 C178.9,306.7 255.6,229.6 354.6,174 C457.3,116.4 577.5,86 702.4,86 C811.3,86 918.3,109.6 1011.9,154.2 C1101.9,197.1 1177.9,258.4 1231.5,331.5 C1239.5,342.5 1252.5,349 1266.1,349 C1275.3,349 1284,346.1 1291.4,340.7 C1310.5,326.7 1314.6,299.8 1300.6,280.8 C1238.6,196.3 1151.5,125.8 1048.8,76.8 C943.7,26.7 824,0.3 702.4,0.3 C516.3,0.3 341,60.8 208.7,170.5 C143.6,224.5 92.4,287.6 56.5,358.1 C19,431.7 -2.27373675e-13,509.9 -2.27373675e-13,590.7 C-2.27373675e-13,671.5 19,749.7 56.5,823.3 C110.3,928.8 198.9,1018.3 312.7,1082.1 C428.1,1146.8 562.9,1181.1 702.4,1181.1 C823.6,1181.1 943.1,1154.8 1048,1104.9 C1150.5,1056.2 1237.5,985.9 1299.6,901.8 C1313.8,882.8 1309.7,855.9 1290.7,841.8"/>
  </g>
</svg>
