<?xml version="1.0" standalone="no"?>
<!DOCTYPE svg PUBLIC "-//W3C//DTD SVG 1.1//EN" "http://www.w3.org/Graphics/SVG/1.1/DTD/svg11.dtd" >
<svg xmlns="http://www.w3.org/2000/svg">
<defs>
  <font id="orbit-icons" horiz-adv-x="1000">
    <font-face font-family="orbit-icons"
      units-per-em="1000" ascent="1000"
      descent="0" />
    <missing-glyph horiz-adv-x="0" />
    <glyph glyph-name="accommodation"
      unicode="&#xE085;"
      horiz-adv-x="1000" d="M791.6666666666666 708.3333333333334L458.3333333333333 708.3333333333334L458.3333333333333 416.6666666666668L125 416.6666666666668L125 791.6666666666667L41.6666666666667 791.6666666666667L41.6666666666667 166.6666666666668L125 166.6666666666668L125 291.6666666666668L875 291.6666666666668L875 166.6666666666668L958.3333333333331 166.6666666666668L958.3333333333331 541.6666666666667C958.3333333333331 633.714125 883.714125 708.3333333333334 791.6666666666666 708.3333333333334zM291.6666666666667 458.3333333333334C360.7022604166667 458.3333333333334 416.6666666666667 514.2977416666668 416.6666666666667 583.3333333333334C416.6666666666667 652.3689270833333 360.7022604166667 708.3333333333334 291.6666666666667 708.3333333333334C222.6310729166667 708.3333333333334 166.6666666666667 652.3689270833333 166.6666666666667 583.3333333333334C166.6666666666667 514.2977416666668 222.6310729166667 458.3333333333334 291.6666666666667 458.3333333333334z" />
    <glyph glyph-name="account-circle"
      unicode="&#xE134;"
      horiz-adv-x="1000" d="M500 916.6666666666666C270 916.6666666666666 83.3333333333333 730 83.3333333333333 500C83.3333333333333 270.0000000000001 270 83.3333333333334 500 83.3333333333334C729.9999999999999 83.3333333333334 916.6666666666666 270.0000000000001 916.6666666666666 500C916.6666666666666 730 729.9999999999999 916.6666666666666 500 916.6666666666666L500 916.6666666666666zM500 791.6666666666667C569.1666666666666 791.6666666666667 625 735.8333333333334 625 666.6666666666667C625 597.5 569.1666666666666 541.6666666666667 500 541.6666666666667C430.8333333333333 541.6666666666667 375 597.5 375 666.6666666666667C375 735.8333333333334 430.8333333333333 791.6666666666667 500 791.6666666666667L500 791.6666666666667zM500 200.0000000000001C395.8333333333333 200.0000000000001 303.75 253.3333333333333 250 334.1666666666668C251.25 417.0833333333334 416.6666666666667 462.5 500 462.5C582.9166666666666 462.5 748.7499999999999 417.0833333333334 750 334.1666666666668C696.25 253.3333333333333 604.1666666666666 200.0000000000001 500 200.0000000000001L500 200.0000000000001z" />
    <glyph glyph-name="airplane-down"
      unicode="&#xE101;"
      horiz-adv-x="1000" d="M83.3333333333333 666.6666666666667L416.6666666666667 562.5L416.6666666666667 791.6666666666667L333.3333333333333 854.1666666666667L333.3333333333333 916.6666666666666L479.1666666666666 875L625 916.6666666666666L625 854.1666666666667L541.6666666666666 791.6666666666667L541.6666666666666 562.5L875 666.6666666666667L875 583.3333333333334L541.6666666666666 375L541.6666666666666 145.8333333333334C541.6666666666666 111.2500000000001 513.75 83.3333333333334 479.1666666666666 83.3333333333334C444.5833333333333 83.3333333333334 416.6666666666667 111.2500000000001 416.6666666666667 145.8333333333334L416.6666666666667 375L83.3333333333333 583.3333333333334L83.3333333333333 666.6666666666667z" />
    <glyph glyph-name="airplane-landing"
      unicode="&#x0;"
      horiz-adv-x="1000" d="M104.1666666666667 208.3333333333334L895.8333333333333 208.3333333333334L895.8333333333333 125L104.1666666666667 125L104.1666666666667 208.3333333333334zM403.3333333333333 447.0833333333334L584.5833333333333 398.75L805.8333333333333 339.5833333333334C839.1666666666666 330.8333333333334 873.3333333333334 350.4166666666668 882.4999999999999 383.7500000000001C891.25 417.0833333333334 871.6666666666667 451.25 838.3333333333334 460.4166666666667L617.0833333333334 519.5833333333334L502.0833333333333 895.4166666666667L421.6666666666667 916.6666666666666L421.6666666666667 571.6666666666667L214.5833333333334 627.0833333333334L175.8333333333333 723.75L115.4166666666667 740L115.4166666666667 524.5833333333334L182.0833333333333 506.6666666666667L403.3333333333333 447.0833333333334L403.3333333333333 447.0833333333334z" />
    <glyph glyph-name="airplane-off"
      unicode="&#xE102;"
      horiz-adv-x="1000" d="M541.6666666666666 625L541.6666666666666 854.1666666666667C541.6666666666666 888.75 513.75 916.6666666666666 479.1666666666666 916.6666666666666C444.5833333333333 916.6666666666666 416.6666666666667 888.75 416.6666666666667 854.1666666666667L416.6666666666667 700.8333333333334L742.9166666666665 374.5833333333334L875 333.3333333333334L875 416.6666666666668L541.6666666666666 625L541.6666666666666 625zM125 780.4166666666667L332.9166666666667 572.5L83.3333333333333 416.6666666666668L83.3333333333333 333.3333333333334L416.6666666666667 437.5L416.6666666666667 208.3333333333334L333.3333333333333 145.8333333333334L333.3333333333333 83.3333333333334L479.1666666666666 125L625 83.3333333333334L625 145.8333333333334L541.6666666666666 208.3333333333334L541.6666666666666 363.75L780.4166666666666 125L833.3333333333333 177.9166666666668L177.9166666666666 833.3333333333334L125 780.4166666666667L125 780.4166666666667z" />
    <glyph glyph-name="airplane-return"
      unicode="&#xE159;"
      horiz-adv-x="1000" d="M284.26520875 125L222.0825991666667 187.1826083333333L315.35651375 591.3695720833334L144.3543370833333 762.3717483333334C118.5485541666667 788.17753125 118.5485541666667 829.8398795833334 144.3543370833333 855.6456629166667C170.1601204166667 881.4514458333333 211.82246875 881.4514458333333 237.6282516666667 855.6456629166667L408.6304279166667 684.64348625L812.8173916666667 777.9174008333333L875 715.73479125L548.5413 544.7326166666667L719.5434750000001 373.7304375L828.3630416666666 389.2760916666668L875 342.6391333333334L735.0891291666667 264.9108708333333L657.3608666666667 125L610.7239083333333 171.6369583333334L626.2695625 280.456525L455.2673833333333 451.4587L284.26520875 125z" />
    <glyph glyph-name="airplane-right"
      unicode="&#xE103;"
      horiz-adv-x="1000" d="M312.5 104.1666666666667L416.6666666666667 437.5L187.5 437.5L125 354.1666666666668L62.5 354.1666666666668L104.1666666666667 500L62.5 645.8333333333334L125 645.8333333333334L187.5 562.5L416.6666666666667 562.5L312.5 895.8333333333334L395.8333333333333 895.8333333333334L604.1666666666666 562.5L833.3333333333333 562.5C867.9166666666665 562.5 895.8333333333333 534.5833333333334 895.8333333333333 500C895.8333333333333 465.4166666666667 867.9166666666665 437.5 833.3333333333333 437.5L604.1666666666666 437.5L395.8333333333333 104.1666666666667L312.5 104.1666666666667z" />
    <glyph glyph-name="airplane-takeoff"
      unicode="&#x0;"
      horiz-adv-x="1000" d="M104.1666666666667 208.3333333333334L895.8333333333333 208.3333333333334L895.8333333333333 125L104.1666666666667 125L104.1666666666667 208.3333333333334zM842.9166666666666 642.5L621.6666666666666 583.3333333333334L334.1666666666667 851.25L253.75 830L426.25 531.25L219.1666666666667 475.8333333333334L137.0833333333333 540L76.6666666666667 523.75L152.5 392.0833333333334L184.5833333333333 336.6666666666668L251.25 354.5833333333334L472.4999999999999 413.75L653.7499999999999 462.0833333333334L875 521.25C908.7499999999998 530.8333333333334 928.3333333333334 565 919.5833333333331 598.3333333333333C910.8333333333331 631.6666666666667 876.25 651.6666666666667 842.9166666666666 642.5z" />
    <glyph glyph-name="airplane-up"
      unicode="&#xE160;"
      horiz-adv-x="1000" d="M875 333.3333333333334L875 416.6666666666668L541.6666666666666 625L541.6666666666666 854.1666666666667C541.6666666666666 888.75 513.75 916.6666666666666 479.1666666666666 916.6666666666666C444.5833333333333 916.6666666666666 416.6666666666667 888.75 416.6666666666667 854.1666666666667L416.6666666666667 625L83.3333333333333 416.6666666666668L83.3333333333333 333.3333333333334L416.6666666666667 437.5L416.6666666666667 208.3333333333334L333.3333333333333 145.8333333333334L333.3333333333333 83.3333333333334L479.1666666666666 125L625 83.3333333333334L625 145.8333333333334L541.6666666666666 208.3333333333334L541.6666666666666 437.5L875 333.3333333333334L875 333.3333333333334z" />
    <glyph glyph-name="airplane"
      unicode="&#xA;"
      horiz-adv-x="1000" d="M715.7347916666665 125L544.7326166666667 451.4587L373.7304383333333 280.456525L389.2760908333333 171.6369583333334L342.63913375 125L264.9108716666667 264.9108708333333L125 342.6391333333334L171.6369570833333 389.2760916666668L280.4565241666667 373.7304375L451.4587 544.7326166666667L125 715.73479125L187.1826095833333 777.9174008333333L591.3695708333332 684.64348625L762.3717499999999 855.6456629166667C788.1775333333333 881.4514458333333 829.8398791666666 881.4514458333333 855.6456625 855.6456629166667C881.4514458333332 829.8398795833334 881.4514458333332 788.17753125 855.6456625 762.3717483333334L684.6434874999999 591.3695720833334L777.9174 187.1826083333333L715.7347916666665 125z" />
    <glyph glyph-name="airport-security"
      unicode="&#xE035;"
      horiz-adv-x="1000" d="M166.6666666666667 916.6666666666666L166.6666666666667 83.3333333333334L250 83.3333333333334L250 791.6666666666667L750 791.6666666666667L750 83.3333333333334L833.3333333333333 83.3333333333334L833.3333333333333 916.6666666666666L166.6666666666667 916.6666666666666zM416.6666666666667 875L458.3333333333333 875L458.3333333333333 833.3333333333334L416.6666666666667 833.3333333333334L416.6666666666667 875zM541.6666666666666 875L583.3333333333333 875L583.3333333333333 833.3333333333334L541.6666666666666 833.3333333333334L541.6666666666666 875zM599.9958333333333 566.6666666666667C599.9958333333333 527.1 576.6958333333333 493.1333333333334 543.2624999999999 476.9333333333334C614.1291666666666 457.7333333333333 666.6625 393.5333333333334 666.6625 316.6666666666668L666.6625 250C666.6625 231.6 651.7291666666666 216.6666666666666 633.3291666666667 216.6666666666666L599.9958333333333 216.6666666666666L599.9958333333333 116.6666666666668C599.9958333333333 98.2666666666667 585.0624999999999 83.3333333333334 566.6624999999999 83.3333333333334L433.3291666666667 83.3333333333334C414.9291666666666 83.3333333333334 399.9958333333333 98.2666666666667 399.9958333333333 116.6666666666668L399.9958333333333 216.6666666666666L366.6625 216.6666666666666C348.2625 216.6666666666666 333.3291666666667 231.6 333.3291666666667 250L333.3291666666667 316.6666666666668C333.3291666666667 393.5333333333334 385.8958333333333 457.7333333333333 456.7291666666666 476.9333333333334C423.2958333333334 493.1333333333334 399.9958333333333 527.1 399.9958333333333 566.6666666666667C399.9958333333333 621.8333333333333 444.8625 666.6666666666667 499.9958333333333 666.6666666666667C555.1291666666666 666.6666666666667 599.9958333333333 621.8333333333333 599.9958333333333 566.6666666666667z" />
    <glyph glyph-name="alert-circle"
      unicode="&#x0;"
      horiz-adv-x="1000" d="M500 281.25C471.25 281.25 447.9166666666667 304.5833333333334 447.9166666666667 333.3333333333334C447.9166666666667 362.0833333333334 471.25 385.4166666666668 500 385.4166666666668C528.75 385.4166666666668 552.0833333333333 362.0833333333334 552.0833333333333 333.3333333333334C552.0833333333333 304.5833333333334 528.75 281.25 500 281.25L500 281.25zM458.3333333333333 750L541.6666666666666 750L541.6666666666666 458.3333333333334L458.3333333333333 458.3333333333334L458.3333333333333 750zM500 916.6666666666666C270.25 916.6666666666666 83.3333333333333 729.75 83.3333333333333 500C83.3333333333333 270.2083333333334 270.25 83.3333333333334 500 83.3333333333334C729.7499999999999 83.3333333333334 916.6666666666666 270.2083333333334 916.6666666666666 500C916.6666666666666 729.75 729.7499999999999 916.6666666666666 500 916.6666666666666L500 916.6666666666666z" />
    <glyph glyph-name="alert"
      unicode="&#xE07F;"
      horiz-adv-x="1000" d="M500 197.9166666666668C471.25 197.9166666666668 447.9166666666667 221.25 447.9166666666667 250C447.9166666666667 278.7500000000001 471.25 302.0833333333334 500 302.0833333333334C528.75 302.0833333333334 552.0833333333333 278.7500000000001 552.0833333333333 250C552.0833333333333 221.25 528.75 197.9166666666668 500 197.9166666666668L500 197.9166666666668zM458.3333333333333 583.3333333333334L541.6666666666666 583.3333333333334L541.6666666666666 333.3333333333334L458.3333333333333 333.3333333333334L458.3333333333333 583.3333333333334zM912.2916666666666 143.625L537.2916666666666 893.625C523.1666666666666 921.875 476.8333333333333 921.875 462.7083333333333 893.625L87.7083333333333 143.625C81.2916666666667 130.7083333333334 81.9583333333333 115.375 89.5416666666667 103.0833333333334C97.1666666666667 90.8333333333334 110.5416666666667 83.3333333333334 125 83.3333333333334L875 83.3333333333334C889.4583333333334 83.3333333333334 902.8333333333331 90.8333333333334 910.4583333333331 103.0833333333334C918.0416666666666 115.375 918.7083333333331 130.7083333333334 912.2916666666666 143.625L912.2916666666666 143.625z" />
    <glyph glyph-name="all"
      unicode="&#xE061;"
      horiz-adv-x="1000" d="M708.3333333333333 708.3333333333334C581.0416666666666 708.3333333333334 519.2083333333334 609.375 464.6666666666666 522.0416666666667C407.4583333333333 430.5833333333334 367.25 375 291.6666666666667 375C233.875 375 166.6666666666667 429.625 166.6666666666667 500C166.6666666666667 570.375 233.875 625 291.6666666666667 625C334.875 625 366.4583333333333 606.3333333333333 396.3333333333333 573.7083333333334L443.7916666666667 644.7916666666667C405.0416666666667 682.0416666666667 357.0416666666667 708.3333333333334 291.6666666666667 708.3333333333334C180.6666666666667 708.3333333333334 83.3333333333333 611 83.3333333333333 500C83.3333333333333 389 180.6666666666667 291.6666666666668 291.6666666666667 291.6666666666668C418.9583333333333 291.6666666666668 480.7916666666666 390.625 535.3333333333334 477.9583333333334C592.5416666666666 569.4166666666667 632.75 625 708.3333333333333 625C766.125 625 833.3333333333333 570.375 833.3333333333333 500C833.3333333333333 413.5833333333334 794.75 375 708.3333333333333 375C667.1666666666666 375 636.5416666666666 391.9166666666668 607.9583333333333 421.7083333333334L557.2916666666666 354.1250000000001C595.8333333333334 317.4166666666667 643.5416666666666 291.6666666666668 708.3333333333333 291.6666666666668C840.75 291.6666666666668 916.6666666666666 367.5833333333334 916.6666666666666 500C916.6666666666666 611 819.3333333333334 708.3333333333334 708.3333333333333 708.3333333333334z" />
    <glyph glyph-name="anywhere"
      unicode="&#x0;"
      horiz-adv-x="1000" d="M752.9583333333334 330.4166666666668C684.1666666666667 261.5833333333334 595.5416666666666 219.8333333333334 500 210.375L500 166.6666666666668L708.3333333333333 166.6666666666668L708.3333333333333 83.3333333333334L208.3333333333333 83.3333333333334L208.3333333333333 166.6666666666668L416.6666666666667 166.6666666666668L416.6666666666667 210.4166666666668C321.0833333333333 219.8333333333334 232.5 261.625 163.7083333333333 330.4166666666668L222.6666666666667 389.3333333333334C285.5833333333333 326.3333333333334 369.2916666666667 291.6666666666668 458.3333333333333 291.6666666666668C547.375 291.6666666666668 631.0833333333334 326.3333333333334 694.0416666666666 389.3333333333334C756.9999999999999 452.25 791.6666666666666 535.9583333333333 791.6666666666666 625C791.6666666666666 714.0416666666667 756.9999999999999 797.7916666666667 694.0416666666666 860.7083333333334L752.9583333333334 919.625C831.6666666666666 840.9166666666667 875 736.2916666666667 875 625C875 513.7083333333334 831.6666666666666 409.0833333333334 752.9583333333334 330.4166666666668zM458.3333333333333 375C320.2621458333333 375 208.3333333333333 486.9288125 208.3333333333333 625C208.3333333333333 763.0711875 320.2621458333333 875 458.3333333333333 875C596.4045208333333 875 708.3333333333333 763.0711875 708.3333333333333 625C708.3333333333333 486.9288125 596.4045208333333 375 458.3333333333333 375z" />
    <glyph glyph-name="arrow-down"
      unicode="&#xE0A0;"
      horiz-adv-x="1000" d="M833.3333333333333 500L774.5833333333333 558.75L541.6666666666666 326.25L541.6666666666666 833.3333333333334L458.3333333333333 833.3333333333334L458.3333333333333 326.25L225.8333333333333 559.1666666666667L166.6666666666667 500L500 166.6666666666668z" />
    <glyph glyph-name="arrow-up"
      unicode="&#xE09F;"
      horiz-adv-x="1000" d="M166.6666666666667 500L225.4166666666667 441.25L458.3333333333333 673.75L458.3333333333333 166.6666666666668L541.6666666666666 166.6666666666668L541.6666666666666 673.75L774.1666666666665 440.8333333333334L833.3333333333333 500L500 833.3333333333334z" />
    <glyph glyph-name="atm"
      unicode="&#xE02C;"
      horiz-adv-x="1000" d="M833.3333333333333 1000C856.25 1000 875 981.25 875 958.3333333333334L875 41.6666666666667C875 18.6666666666667 856.375 0 833.3333333333333 0L166.6666666666667 0C143.6666666666667 0 125 18.6666666666667 125 41.6666666666667L125 958.3333333333334C125 981.2916666666666 143.75 1000 166.6666666666667 1000L833.3333333333333 1000zM402.7916666666667 958.3333333333334L402.7916666666667 893.5L467.5833333333333 893.5L467.5833333333333 699.0416666666667L532.3749999999999 699.0416666666667L532.3749999999999 893.5L597.25 893.5L597.25 699.0833333333333L662.0833333333334 699.0833333333333L662.0833333333334 827.6666666666667L671.5416666666666 813.4583333333334C676.625 805.75 685.25 801.1666666666666 694.4583333333334 801.1666666666666C703.6666666666667 801.1666666666666 712.2916666666666 805.75 717.3749999999999 813.4583333333334L726.8333333333333 827.6666666666667L726.8333333333333 699.125L791.6666666666666 699.125L791.6666666666666 926C791.6666666666666 943.8333333333334 777.2083333333333 958.3333333333334 759.2916666666666 958.3333333333334C740.7916666666666 958.3333333333334 748.4999999999999 956.8333333333334 694.4583333333334 878.4166666666666C640.4166666666666 956.8333333333334 648.0833333333333 958.3333333333334 629.625 958.3333333333334C611.75 958.3333333333334 597.25 943.875 597.25 926L597.25 958.3333333333334L402.7916666666667 958.3333333333334zM337.9583333333333 861.125L338 861.125L338 828.7083333333334L273.1666666666667 828.7083333333334L273.1666666666667 861.125C273.1666666666667 878.9583333333334 287.6666666666667 893.5416666666666 305.5833333333333 893.5416666666666C323.4166666666667 893.5416666666666 337.9583333333333 878.9583333333334 337.9583333333333 861.125zM208.3333333333333 861.125L208.3333333333333 699.0416666666667L273.1666666666667 699.0416666666667L273.1666666666667 763.875L337.9583333333333 763.875L337.9583333333333 699.0833333333333L402.7916666666667 699.0833333333333L402.7916666666667 861.125C402.7916666666667 914.75 359.1666666666667 958.3333333333334 305.5833333333333 958.3333333333334C251.9583333333333 958.3333333333334 208.3333333333333 914.75 208.3333333333333 861.125zM291.6666666666667 583.2916666666667L708.3333333333333 583.2916666666667L708.3333333333333 333.2916666666667L291.6666666666667 333.2916666666667L291.6666666666667 583.2916666666667zM291.6666666666667 291.625L541.6666666666666 291.625L541.6666666666666 208.2916666666666L291.6666666666667 208.2916666666666L291.6666666666667 291.625zM208.3333333333333 83.2916666666666L791.6666666666666 83.2916666666666L791.6666666666666 624.9583333333334L208.3333333333333 624.9583333333334L208.3333333333333 83.2916666666666zM666.6666666666666 208.3333333333334C643.6548041666666 208.3333333333334 625 226.9881375 625 250C625 273.0118625000001 643.6548041666666 291.6666666666668 666.6666666666666 291.6666666666668C689.6785291666666 291.6666666666668 708.3333333333333 273.0118625000001 708.3333333333333 250C708.3333333333333 226.9881375 689.6785291666666 208.3333333333334 666.6666666666666 208.3333333333334z" />
    <glyph glyph-name="attachment"
      unicode="&#xE104;"
      horiz-adv-x="1000" d="M458.3333333333333 41.6666666666667C337.625 41.6666666666667 250 138.0416666666666 250 270.8333333333334L250 625C250 791.2916666666666 366.4166666666667 916.6666666666666 520.8333333333333 916.6666666666666C675.2499999999999 916.6666666666666 791.6666666666666 791.2916666666666 791.6666666666666 625L791.6666666666666 333.3333333333334L708.3333333333333 333.3333333333334L708.3333333333333 625C708.3333333333333 745.7083333333334 629.4583333333333 833.3333333333334 520.8333333333333 833.3333333333334C412.2083333333333 833.3333333333334 333.3333333333333 745.7083333333334 333.3333333333333 625L333.3333333333333 270.8333333333334C333.3333333333333 198.2083333333335 372 125 458.3333333333333 125C544.6666666666666 125 583.3333333333333 198.2083333333335 583.3333333333333 270.8333333333334L583.3333333333333 583.3333333333334C583.3333333333333 608.4166666666667 577.2499999999999 666.6666666666667 520.8333333333333 666.6666666666667C464.4166666666667 666.6666666666667 458.3333333333333 608.4166666666667 458.3333333333333 583.3333333333334L458.3333333333333 291.6666666666668L375 291.6666666666668L375 583.3333333333334C375 683.0416666666667 433.625 750 520.8333333333333 750C608.0416666666666 750 666.6666666666666 683.0416666666667 666.6666666666666 583.3333333333334L666.6666666666666 270.8333333333334C666.6666666666666 138.0416666666666 579.0416666666666 41.6666666666667 458.3333333333333 41.6666666666667" />
    <glyph glyph-name="baggage-cabin-none"
      unicode="&#xE174;"
      horiz-adv-x="1000" d="M914.4142291666666 122.4935375000001L856.0808958333333 64.1602041666666L743.7095375 176.5315666666668C731.2035375 146.2931416666668 701.406625 125 666.6666666666666 125L666.6666666666666 83.3333333333334L583.3333333333333 83.3333333333334L583.3333333333333 125L416.6666666666667 125L416.6666666666667 83.3333333333334L333.3333333333333 83.3333333333334L333.3333333333333 125C287.3333333333333 125 250 162.3333333333334 250 208.3333333333334L250 583.3333333333334C250 607.2418654166668 260.08525625 628.8091775 276.2308004166667 644.0103012500001L90.0485516666667 830.19255L148.381885 888.5258833333334L914.4142291666666 122.4935375000001zM488.0922333333334 666.6666666666667L666.6666666666666 666.6666666666667C712.6666666666666 666.6666666666667 750 629.3333333333333 750 583.3333333333334L750 404.7589000000001L666.6666666666666 488.0922333333334L666.6666666666666 500L666.6666666666666 541.6666666666667L613.0922333333333 541.6666666666667L488.0922333333334 666.6666666666667zM420.2411 500L378.574435 541.6666666666667L333.3333333333333 541.6666666666667L333.3333333333333 500L420.2411 500zM458.3333333333333 708.3333333333334L458.3333333333333 833.3333333333334L333.3333333333333 833.3333333333334L333.3333333333333 916.6666666666666L666.6666666666666 916.6666666666666L666.6666666666666 833.3333333333334L541.6666666666666 833.3333333333334L541.6666666666666 708.3333333333334L458.3333333333333 708.3333333333334z" />
    <glyph glyph-name="baggage-cabin"
      unicode="&#xE106;"
      horiz-adv-x="1000" d="M666.6666666666666 666.6666666666667C712.6666666666666 666.6666666666667 750 629.3333333333333 750 583.3333333333334L750 208.3333333333334C750 162.3333333333334 712.6666666666666 125 666.6666666666666 125L666.6666666666666 83.3333333333334L583.3333333333333 83.3333333333334L583.3333333333333 125L416.6666666666667 125L416.6666666666667 83.3333333333334L333.3333333333333 83.3333333333334L333.3333333333333 125C287.3333333333333 125 250 162.3333333333334 250 208.3333333333334L250 583.3333333333334C250 629.3333333333333 287.3333333333333 666.6666666666667 333.3333333333333 666.6666666666667L666.6666666666666 666.6666666666667zM458.3333333333333 708.3333333333334L458.3333333333333 833.3333333333334L333.3333333333333 833.3333333333334L333.3333333333333 916.6666666666666L666.6666666666666 916.6666666666666L666.6666666666666 833.3333333333334L541.6666666666666 833.3333333333334L541.6666666666666 708.3333333333334L458.3333333333333 708.3333333333334zM666.6666666666666 500L666.6666666666666 541.6666666666667L333.3333333333333 541.6666666666667L333.3333333333333 500L625 500L625 416.6666666666668L666.6666666666666 416.6666666666668L666.6666666666666 500z" />
    <glyph glyph-name="baggage-checked"
      unicode="&#x0;"
      horiz-adv-x="1000" d="M166.6666666666667 491.6666666666667L833.3333333333333 491.6666666666667L833.3333333333333 187.5C833.3333333333333 145.8750000000001 799.9583333333334 112.5 758.3333333333333 112.5L708.3333333333333 112.5L708.3333333333333 83.7237041666666C708.3333333333333 60.4962416666667 689.8389666666666 41.6666666666667 666.6666666666666 41.6666666666667C643.6548041666666 41.6666666666667 625 60.1397166666668 625 83.7237041666666L625 112.5L375 112.5L375 83.7237041666666C375 60.4962416666667 356.5056325 41.6666666666667 333.3333333333333 41.6666666666667C310.32146875 41.6666666666667 291.6666666666667 60.1397166666668 291.6666666666667 83.7237041666666L291.6666666666667 112.5L241.6666666666667 112.5C200.0416666666667 112.5 166.6666666666667 145.8750000000001 166.6666666666667 187.5L166.6666666666667 491.6666666666667zM166.6666666666667 575L166.6666666666667 741.6666666666667C166.6666666666667 783.2916666666667 200.0416666666667 816.6666666666666 241.6666666666667 816.6666666666666L354.1666666666667 816.6666666666666L354.1666666666667 925C354.1666666666667 966.625 387.5416666666667 1000 429.1666666666667 1000L570.8333333333333 1000C612.4583333333333 1000 645.8333333333333 966.625 645.8333333333333 925L645.8333333333333 816.6666666666666L758.3333333333333 816.6666666666666C799.9583333333334 816.6666666666666 833.3333333333333 783.2916666666667 833.3333333333333 741.6666666666667L833.3333333333333 575L687.5 575L612.4999999999999 575L387.5 575L312.5 575L166.6666666666667 575zM429.1666666666667 925L429.1666666666667 816.6666666666666L570.8333333333333 816.6666666666666L570.8333333333333 925L429.1666666666667 925z" />
    <glyph glyph-name="baggage-none"
      unicode="&#xE021;"
      horiz-adv-x="1000" d="M436.6666666666667 575L387.5 575L312.5 575L166.6666666666667 575L166.6666666666667 740.8333333333334L41.6666666666667 865.8333333333334L92.5 916.6666666666666L203.0760404166667 806.09062625C203.5990366666667 806.4030391666666 204.1262270833333 806.7092470833334 204.6575054166667 807.00916125L436.6666666666667 575zM520 491.6666666666667L824.1666666666666 187.5L833.3333333333333 196.6666666666666L833.3333333333333 187.5C833.3333333333333 183.7980541666667 833.0693541666667 180.1613666666667 832.5590624999999 176.6076041666667L916.6666666666666 92.5L865.8333333333334 41.6666666666667L788.6771124999999 118.8228875000001C779.4139666666666 114.7546833333335 769.1523208333332 112.5 758.3333333333333 112.5L708.3333333333333 112.5L708.3333333333333 83.7237041666666C708.3333333333333 60.4962416666667 689.8389666666666 41.6666666666667 666.6666666666666 41.6666666666667C643.6548041666666 41.6666666666667 625 60.1397166666668 625 83.7237041666666L625 112.5L375 112.5L375 83.7237041666666C375 60.4962416666667 356.5056325 41.6666666666667 333.3333333333333 41.6666666666667C310.32146875 41.6666666666667 291.6666666666667 60.1397166666668 291.6666666666667 83.7237041666666L291.6666666666667 112.5L241.6666666666667 112.5C200.0416666666667 112.5 166.6666666666667 145.8750000000001 166.6666666666667 187.5L166.6666666666667 491.6666666666667L520 491.6666666666667zM833.3333333333333 575L687.5 575L612.4999999999999 575L538.3333333333333 575L296.6666666666667 816.6666666666666L354.1666666666667 816.6666666666666L354.1666666666667 925C354.1666666666667 966.625 387.5416666666667 1000 429.1666666666667 1000L570.8333333333333 1000C612.4583333333333 1000 645.8333333333333 966.625 645.8333333333333 925L645.8333333333333 816.6666666666666L758.3333333333333 816.6666666666666C799.9583333333334 816.6666666666666 833.3333333333333 783.2916666666667 833.3333333333333 741.6666666666667L833.3333333333333 575zM833.3333333333333 491.6666666666667L833.3333333333333 280L621.6666666666666 491.6666666666667L833.3333333333333 491.6666666666667zM429.1666666666667 925L429.1666666666667 816.6666666666666L570.8333333333333 816.6666666666666L570.8333333333333 925L429.1666666666667 925z" />
    <glyph glyph-name="baggage-personal-item-none"
      unicode="&#xE175;"
      horiz-adv-x="1000" d="M375.85636875 778.9025295833333C406.1603670833333 812.5003891666667 450.2309208333333 833.3333333333334 500 833.3333333333334C593.3593666666667 833.3333333333334 666.6666666666666 760.0260333333333 666.6666666666666 666.6666666666667L600 666.6666666666667C600 723.3072999999999 556.6406333333333 766.6666666666667 500 766.6666666666667C468.5405166666666 766.6666666666667 441.178225 753.2905537500001 423.06685 731.6920491666667L375.85636875 778.9025295833333zM521.4255666666667 633.3333333333333L766.6666666666665 633.3333333333333L796.875 450.0000000000001C793.4896 439.9739666666667 786.8489666666667 433.7239666666667 780.2083333333334 427.0833333333334C769.8621291666666 419.2729625000001 759.1998333333333 413.1219541666667 747.113475 407.6454250000001L697.7017666666666 457.0571333333334C708.5314999999999 460.3988041666667 716.9572374999999 463.7014833333334 722.9166666666666 466.6666666666666L710.4166666666666 566.6666666666667L588.0922333333333 566.6666666666667L521.4255666666667 633.3333333333333zM778.8520249999999 375.906875C787.6023708333333 379.7957625 795.9027458333333 384.1312375 803.1249999999999 389.5833333333334L810.3180291666666 344.4408666666667L778.8520249999999 375.906875zM914.4142291666666 122.4935375000001L856.0808958333333 64.1602041666666L720.2411 200.0000000000001L166.6666666666667 200.0000000000001L193.75 386.4583333333334C207.0312666666667 376.4323000000001 220.0521 373.3073000000001 233.3333333333333 366.6666666666668C243.3593666666667 363.2812333333334 250.3906333333333 359.6354 260.4166666666667 356.2500000000001L246.875 266.6666666666667L653.5744333333333 266.6666666666667L550.2626958333333 369.9784041666667C545.4031583333333 369.8523125000001 540.7875499999999 369.7916666666668 536.4583333333333 369.7916666666668C536.4583333333333 349.7395666666667 523.1771 336.4583333333334 503.1249999999999 336.4583333333334C483.0729333333333 336.4583333333334 469.7916666666666 349.7395666666667 469.7916666666666 369.7916666666668C423.1771 369.7916666666668 349.6093666666667 377.0833333333334 289.5833333333333 393.75C279.5573 393.75 273.3073 396.6145666666667 266.6666666666667 400C253.3854333333333 403.3854 240.2343666666667 410.0260333333335 230.2083333333334 416.6666666666668C216.9271 426.6927000000001 206.5104333333333 436.8489666666667 203.125 446.875L233.3333333333333 633.3333333333333L286.9077683333333 633.3333333333333L90.0485516666667 830.19255L148.381885 888.5258833333334L914.4142291666666 122.4935375000001zM353.574435 566.6666666666667L286.4583333333333 566.6666666666667L272.9166666666667 466.6666666666666C301.7544391666667 453.8777333333334 374.29779375 434.8106791666667 486.8264708333333 433.4146333333333L353.574435 566.6666666666667z" />
    <glyph glyph-name="baggage-personal-item"
      unicode="&#xE156;"
      horiz-adv-x="1000" d="M500 833.3333333333334C406.6406333333333 833.3333333333334 333.3333333333333 760.0260333333333 333.3333333333333 666.6666666666667L400 666.6666666666667C400 723.3072999999999 443.3593666666667 766.6666666666667 500 766.6666666666667C556.6406333333333 766.6666666666667 600 723.3072999999999 600 666.6666666666667L666.6666666666666 666.6666666666667C666.6666666666666 760.0260333333333 593.3593666666667 833.3333333333334 500 833.3333333333334zM233.3333333333333 633.3333333333333L203.125 446.875C206.5104333333333 436.8489666666667 216.9271 426.6927000000001 230.2083333333334 416.6666666666668C240.2343666666667 410.0260333333335 253.3854333333333 403.3854 266.6666666666667 400C273.3073 396.6145666666667 279.5573 393.75 289.5833333333333 393.75C349.6093666666667 377.0833333333334 423.1771 369.7916666666668 469.7916666666666 369.7916666666668C469.7916666666666 349.7395666666667 483.0729333333333 336.4583333333334 503.1249999999999 336.4583333333334C523.1771 336.4583333333334 536.4583333333333 349.7395666666667 536.4583333333333 369.7916666666668C583.0729333333333 369.7916666666668 662.8906333333333 376.8229 722.9166666666666 396.875C729.5572999999999 396.875 733.0729333333334 399.7395666666668 736.4583333333334 403.1250000000001C753.1249999999999 409.7656333333335 766.9271 417.0573 780.2083333333334 427.0833333333334C786.8489666666667 433.7239666666667 793.4896 439.9739666666667 796.875 450.0000000000001L766.6666666666665 633.3333333333333L233.3333333333333 633.3333333333333zM286.4583333333333 566.6666666666667L710.4166666666666 566.6666666666667L722.9166666666666 466.6666666666666C696.2239666666667 453.3854 620.0521 433.3333333333334 500 433.3333333333334C379.9479333333333 433.3333333333334 302.8646 453.3854 272.9166666666667 466.6666666666666L286.4583333333333 566.6666666666667zM803.1249999999999 389.5833333333334C789.8437666666665 379.5573000000001 772.9166666666666 373.3073000000001 756.2499999999999 366.6666666666668C749.6093666666666 363.2812333333334 746.2239666666666 363.8020666666668 739.5833333333333 360.4166666666668L753.1249999999999 266.6666666666667L246.875 266.6666666666667L260.4166666666667 356.2500000000001C250.3906333333333 359.6354 243.3593666666667 363.2812333333334 233.3333333333333 366.6666666666668C220.0521 373.3073000000001 207.0312666666667 376.4323000000001 193.75 386.4583333333334L166.6666666666667 200.0000000000001L833.3333333333333 200.0000000000001L803.1249999999999 389.5833333333334z" />
    <glyph glyph-name="baggage-recheck"
      unicode="&#xE105;"
      horiz-adv-x="1000" d="M500 500C362.125 500 250 612.125 250 750C250 887.875 362.125 1000 500 1000C637.8749999999999 1000 750 887.875 750 750C750 612.125 637.8749999999999 500 500 500zM500 916.6666666666666C408.0833333333333 916.6666666666666 333.3333333333333 841.9166666666667 333.3333333333333 750C333.3333333333333 658.0833333333334 408.0833333333333 583.3333333333334 500 583.3333333333334C591.9166666666666 583.3333333333334 666.6666666666666 658.0833333333334 666.6666666666666 750C666.6666666666666 841.9166666666667 591.9166666666666 916.6666666666666 500 916.6666666666666zM614.3791666666667 815.3875L503.2541666666666 691.1791666666667L441.1708333333334 746.7625L552.2958333333333 870.9291666666667L614.3791666666667 815.3875zM750 333.3333333333334C772.9999999999999 333.3333333333334 791.6666666666666 314.6666666666668 791.6666666666666 291.6666666666668L791.6666666666666 41.6666666666667C791.6666666666666 18.625 772.9999999999999 0 750 0L250 0C227 0 208.3333333333333 18.625 208.3333333333333 41.6666666666667L208.3333333333333 291.6666666666668C208.3333333333333 314.6666666666668 227 333.3333333333334 250 333.3333333333334L375 333.3333333333334L375 375C375 421 412.375 458.3333333333334 458.3333333333333 458.3333333333334L541.6666666666666 458.3333333333334C587.625 458.3333333333334 625 421 625 375L625 333.3333333333334L750 333.3333333333334zM708.3333333333333 83.3333333333334L708.3333333333333 250L625 250L625 83.3333333333334L708.3333333333333 83.3333333333334zM375 83.3333333333334L375 250L291.6666666666667 250L291.6666666666667 83.3333333333334L375 83.3333333333334zM458.3333333333333 375L458.3333333333333 333.3333333333334L541.6666666666666 333.3333333333334L541.6666666666666 375L458.3333333333333 375z" />
    <glyph glyph-name="baggage-set"
      unicode="&#xE107;"
      horiz-adv-x="1000" d="M666.6666666666666 666.6666666666667L541.5579875 666.6666666666667C495.6607416666666 666.6666666666667 458.3333333333333 629.5059833333333 458.3333333333333 583.6659575L458.3333333333333 541.6666666666667L306.61231875 541.6666666666667L233.24275375 541.6666666666667L41.6666666666667 541.6666666666667L41.6666666666667 715.7668233333334C41.6666666666667 754.85133 72.9557291666667 786.1893583333333 111.9791666666667 786.1893583333333L217.4479166666667 786.1893583333333L217.4479166666667 887.9107979166666C217.4479166666667 926.995305 248.7369791666667 958.3333333333334 287.7604166666667 958.3333333333334L420.5729166666667 958.3333333333334C459.5963541666667 958.3333333333334 490.8854166666666 926.995305 490.8854166666666 887.9107979166666L490.8854166666666 786.1893583333333L596.3541666666666 786.1893583333333C635.3776041666666 786.1893583333333 666.6666666666666 754.85133 666.6666666666666 715.7668233333334L666.6666666666666 666.6666666666667zM291.6666666666667 125L250 125L250 83.7237041666666C250 60.4962416666667 231.5056325 41.6666666666667 208.3333333333333 41.6666666666667C185.32146875 41.6666666666667 166.6666666666667 60.1397166666668 166.6666666666667 83.7237041666666L166.6666666666667 125L111.9791666666667 125C72.9557291666667 125 41.6666666666667 156.3380291666667 41.6666666666667 195.4225333333335L41.6666666666667 458.3333333333334L323.57047 458.3333333333334C303.724535 436.1661250000001 291.6666666666667 406.873925 291.6666666666667 374.7584041666667L291.6666666666667 125zM291.6666666666667 875L291.6666666666667 791.6666666666667L416.6666666666667 791.6666666666667L416.6666666666667 875L291.6666666666667 875zM802.0833333333333 469.4444458333334L880.2083333333333 469.4444458333334C923.5677083333331 469.4444458333334 958.3333333333331 434.8333333333334 958.3333333333331 391.6666666666668L958.3333333333331 119.4444458333334C958.3333333333331 76.2777791666666 923.5677083333331 41.6666666666667 880.2083333333333 41.6666666666667L411.4583333333333 41.6666666666667C368.0989583333333 41.6666666666667 333.3333333333333 76.2777791666666 333.3333333333333 119.4444458333334L333.7239583333333 391.6666666666668C333.7239583333333 434.8333333333334 368.0989583333333 469.4444458333334 411.4583333333333 469.4444458333334L489.5833333333333 469.4444458333334L489.5833333333333 547.2222208333334C489.5833333333333 590.38888875 524.3489583333333 625 567.7083333333333 625L723.9583333333333 625C767.3177083333333 625 802.0833333333333 590.38888875 802.0833333333333 547.2222208333334L802.0833333333333 469.4444458333334zM541.6666666666666 458.3333333333334L750 458.3333333333334L750 541.6666666666667L541.6666666666666 541.6666666666667L541.6666666666666 458.3333333333334z" />
    <glyph glyph-name="baggage-storage"
      unicode="&#xE147;"
      horiz-adv-x="1000" d="M750 333.3333333333334C772.9999999999999 333.3333333333334 791.6666666666666 314.6666666666668 791.6666666666666 291.6666666666668L791.6666666666666 41.6666666666667C791.6666666666666 18.625 772.9999999999999 0 750 0L250 0C227 0 208.3333333333333 18.625 208.3333333333333 41.6666666666667L208.3333333333333 291.6666666666668C208.3333333333333 314.6666666666668 227 333.3333333333334 250 333.3333333333334L375 333.3333333333334L375 375C375 421 412.375 458.3333333333334 458.3333333333333 458.3333333333334L541.6666666666666 458.3333333333334C587.625 458.3333333333334 625 421 625 375L625 333.3333333333334L750 333.3333333333334zM708.3333333333333 83.3333333333334L708.3333333333333 250L625 250L625 83.3333333333334L708.3333333333333 83.3333333333334zM375 83.3333333333334L375 250L291.6666666666667 250L291.6666666666667 83.3333333333334L375 83.3333333333334zM458.3333333333333 375L458.3333333333333 333.3333333333334L541.6666666666666 333.3333333333334L541.6666666666666 375L458.3333333333333 375zM452.4166666666667 791.625L875 791.6666666666667L875 708.3333333333334L791.7083333333334 708.3333333333334L791.6666666666666 583.3333333333334L708.3333333333333 583.3333333333334L708.375 708.3333333333334L625.0416666666666 708.3333333333334L625 624.9166666666667L541.6666666666666 624.9166666666667L541.7083333333333 708.2916666666667L452.4166666666667 708.2916666666667C433.75 636.625 369.0833333333333 583.3333333333334 291.6666666666667 583.3333333333334C199.75 583.3333333333334 125 658.0833333333334 125 750C125 841.9166666666667 199.75 916.6666666666666 291.6666666666667 916.6666666666666C369.0833333333333 916.6666666666666 433.7916666666667 863.2916666666666 452.4166666666667 791.625zM291.6666666666667 666.6666666666667C337.625 666.6666666666667 375 704.0833333333333 375 750C375 795.9583333333334 337.625 833.3333333333334 291.6666666666667 833.3333333333334C245.7083333333334 833.3333333333334 208.3333333333333 795.9583333333334 208.3333333333333 750C208.3333333333333 704.0833333333333 245.7083333333334 666.6666666666667 291.6666666666667 666.6666666666667z" />
    <glyph glyph-name="billing-details"
      unicode="&#xE108;"
      horiz-adv-x="1000" d="M708.3333333333333 583.3333333333334L625 583.3333333333334L625 666.6666666666667L708.3333333333333 666.6666666666667L708.3333333333333 583.3333333333334zM708.3333333333333 458.3333333333334L625 458.3333333333334L625 541.6666666666667L708.3333333333333 541.6666666666667L708.3333333333333 458.3333333333334zM708.3333333333333 333.3333333333334L625 333.3333333333334L625 416.6666666666668L708.3333333333333 416.6666666666668L708.3333333333333 333.3333333333334zM541.6666666666666 333.3333333333334L291.6666666666667 333.3333333333334L291.6666666666667 416.6666666666668L541.6666666666666 416.6666666666668L541.6666666666666 333.3333333333334zM291.6666666666667 541.6666666666667L458.3333333333333 541.6666666666667L458.3333333333333 458.3333333333334L291.6666666666667 458.3333333333334L291.6666666666667 541.6666666666667zM291.6666666666667 666.6666666666667L500 666.6666666666667L500 583.3333333333334L291.6666666666667 583.3333333333334L291.6666666666667 666.6666666666667zM813.5833333333333 910.4166666666666C801.2916666666667 918.0416666666666 785.9166666666665 918.7083333333334 773.0416666666666 912.25L627.9999999999999 839.75L523.125 909.6666666666666C509.1249999999999 919 490.875 919 476.875 909.6666666666666L372.0416666666667 839.75L226.9583333333333 912.25C214.0833333333333 918.7083333333334 198.75 918.0416666666666 186.4583333333333 910.4166666666666C174.1666666666667 902.8333333333334 166.6666666666667 889.4583333333334 166.6666666666667 875L166.6666666666667 125C166.6666666666667 110.5416666666666 174.1666666666667 97.1666666666667 186.4583333333333 89.5416666666667C193.125 85.375 200.7083333333334 83.3333333333334 208.3333333333333 83.3333333333334C214.7083333333333 83.3333333333334 221.125 84.7916666666667 226.9583333333333 87.7083333333334L372.0416666666667 160.25L476.875 90.3333333333334C490.875 81 509.1249999999999 81 523.125 90.3333333333334L627.9583333333333 160.25L773.0416666666666 87.7083333333334C785.9166666666665 81.25 801.2916666666667 81.9583333333334 813.5833333333333 89.5416666666667C825.875 97.1666666666667 833.3333333333333 110.5416666666666 833.3333333333333 125L833.3333333333333 875C833.3333333333333 889.4583333333334 825.8333333333333 902.8333333333334 813.5833333333333 910.4166666666666L813.5833333333333 910.4166666666666z" />
    <glyph glyph-name="boarding-gate"
      unicode="&#xE00A;"
      horiz-adv-x="1000" d="M791.6666666666666 708.3333333333334L833.3333333333333 708.3333333333334C879.3333333333333 708.3333333333334 916.6666666666666 671 916.6666666666666 625L916.6666666666666 250C916.6666666666666 204.0000000000001 879.3333333333333 166.6666666666668 833.3333333333333 166.6666666666668L166.6666666666667 166.6666666666668C120.625 166.6666666666668 83.3333333333333 204.0000000000001 83.3333333333333 250L83.3333333333333 625C83.3333333333333 671 120.625 708.3333333333334 166.6666666666667 708.3333333333334L208.3333333333333 708.3333333333334L208.3333333333333 791.6666666666667L83.3333333333333 791.6666666666667L83.3333333333333 875L916.6666666666666 875L916.6666666666666 791.6666666666667L791.6666666666666 791.6666666666667L791.6666666666666 708.3333333333334zM708.3333333333333 708.3333333333334L708.3333333333333 791.6666666666667L291.6666666666667 791.6666666666667L291.6666666666667 708.3333333333334L708.3333333333333 708.3333333333334zM625 441.0833333333334L625 291.6666666666668L708.3333333333333 291.6666666666668L708.3333333333333 441.0833333333334L762.2083333333333 387.2083333333334L821.125 446.1250000000001L666.6666666666666 600.5833333333334L512.2083333333333 446.1250000000001L571.125 387.2083333333334L625 441.0833333333334zM427.0833333333333 510.4166666666667L427.0833333333333 583.3333333333334L281.25 583.3333333333334C241.0416666666667 583.3333333333334 208.3333333333333 550.5833333333334 208.3333333333333 510.4166666666667L208.3333333333333 364.5833333333334C208.3333333333333 324.375 241.0416666666667 291.6666666666668 281.25 291.6666666666668L354.1666666666667 291.6666666666668C394.375 291.6666666666668 427.0833333333333 324.375 427.0833333333333 364.5833333333334L427.0833333333333 473.9583333333334L317.7083333333333 473.9583333333334L317.7083333333333 401.0416666666668L354.1666666666667 401.0416666666668L354.1666666666667 364.5833333333334L281.25 364.5833333333334L281.25 510.4166666666667L427.0833333333333 510.4166666666667z" />
    <glyph glyph-name="boat"
      unicode="&#xE139;"
      horiz-adv-x="1000" d="M833.4304166666666 125C775.51375 125 717.5970833333332 144.5833333333334 666.76375 180.0000000000001C565.0970833333332 108.75 435.0970833333334 108.75 333.43041625 180.0000000000001C282.5970829166667 144.5833333333334 224.68041625 125 166.7637495833333 125L83.43041625 125L83.43041625 41.6666666666667L166.7637495833333 41.6666666666667C224.2637495833333 41.6666666666667 280.93041625 56.2500000000001 333.43041625 82.9166666666666C438.4304166666667 29.1666666666667 561.76375 29.1666666666667 666.76375 82.9166666666666C719.2637499999998 55.8333333333334 775.9304166666667 41.6666666666667 833.4304166666666 41.6666666666667L916.76375 41.6666666666667L916.76375 125L833.4304166666666 125zM164.68041625 208.3333333333334L166.7637495833333 208.3333333333334C233.43041625 208.3333333333334 292.5970829166667 245 333.43041625 291.6666666666668C374.2637495833333 245 433.4304166666666 208.3333333333334 500.0970833333333 208.3333333333334C566.76375 208.3333333333334 625.9304166666666 245 666.76375 291.6666666666668C707.5970833333333 245 766.76375 208.3333333333334 833.4304166666666 208.3333333333334L835.51375 208.3333333333334L914.2637499999998 486.6666666666666C917.5970833333334 497.5 916.76375 509.1666666666667 911.76375 519.1666666666667C906.7637499999998 529.1666666666667 897.5970833333332 536.6666666666667 886.7637500000001 540L833.4304166666666 557.5L833.4304166666666 750C833.4304166666666 795.8333333333334 795.9304166666666 833.3333333333334 750.0970833333333 833.3333333333334L625.0970833333333 833.3333333333334L625.0970833333333 958.3333333333334L375.0970829166667 958.3333333333334L375.0970829166667 833.3333333333334L250.0970829166667 833.3333333333334C204.2637495833333 833.3333333333334 166.7637495833333 795.8333333333334 166.7637495833333 750L166.7637495833333 557.5L113.0137495833333 540C102.18041625 536.6666666666667 93.0137495833333 529.1666666666667 88.0137495833333 519.1666666666667C83.0137495833333 509.1666666666667 81.7637495833333 497.5 85.5137495833333 486.6666666666666L164.68041625 208.3333333333334zM250.0970829166667 750L750.0970833333333 750L750.0970833333333 584.5833333333333L500.0970833333333 666.6666666666667L250.0970829166667 584.5833333333333L250.0970829166667 750z" />
    <glyph glyph-name="bug"
      unicode="&#x0;"
      horiz-adv-x="1000" d="M721.3988083333334 757.7976191666667C665.5952374999999 828.4821429166667 587.4702374999999 875 500.0297625 875C412.5892858333333 875 334.4642858333333 828.4821429166667 278.6607141666667 757.7976191666667C291.69642875 728.0357141666667 308.4226191666666 701.9940475000001 330.7440475 677.7976191666667C377.2619045833333 633.1547620833334 436.7857125 608.9583333333334 500.0297625 608.9583333333334C563.2738083333334 608.9583333333334 622.7976208333333 633.1547620833334 669.315475 677.7976191666667C691.6369041666666 701.9940475000001 708.3928583333333 728.0357141666667 721.3988083333334 757.7976191666667zM260.0892858333334 728.0357141666667C256.3690475 722.4404762500001 252.6488095833333 716.875 250.7738095833333 713.1547620833333C245.17857125 715.0297620833333 241.4583333333333 718.75 235.8928570833334 722.4702379166667C234.0178570833334 724.3452379166667 230.2976191666667 729.9107141666667 228.4523808333334 737.3511904166667C237.7678570833334 757.8273808333333 230.3273808333334 783.8690475000001 209.8511904166667 795.0297620833334C187.5297620833334 806.19047625 159.6130954166667 798.75 148.4523808333333 778.2738095833333C135.4166666666667 755.9523808333333 144.7321429166667 729.9107141666667 165.2083333333333 716.875C167.0833333333333 715 170.80357125 715 172.6488095833333 713.1547620833333C178.2440475 701.9940475000001 185.68452375 687.1130954166667 198.69047625 677.7976191666667C206.1309525 670.3571429166667 213.57142875 664.7619045833334 226.6071429166667 657.32142875C213.57142875 620.1190475000001 204.2857141666667 579.1964291666667 202.4107141666667 536.3988083333334C181.93452375 534.5238083333334 168.92857125 532.6785708333334 155.8928570833333 528.9583333333334C148.4523808333333 525.2380958333333 141.0119045833333 521.5178583333334 133.57142875 517.7976208333333C131.69642875 517.7976208333333 129.8511904166667 517.7976208333333 127.9761904166667 517.7976208333333C103.7797620833333 517.7976208333333 83.3333333333333 497.3214291666667 83.3333333333333 473.1547625000001C83.3333333333333 448.9880958333335 103.80952375 428.5119041666667 127.9761904166667 428.5119041666667C152.1726191666667 428.5119041666667 170.7738095833333 447.1130958333335 172.6190475 471.309525C181.93452375 473.184525 191.2202379166667 476.9047625000001 204.2559525 476.9047625000001C209.8511904166667 415.5059541666667 228.4523808333334 357.8571416666666 258.2142858333333 309.4940458333334C232.1726191666667 289.0178583333334 215.4166666666667 266.6964291666667 207.9761904166667 242.5297625C207.9761904166667 242.5297625 206.1011904166667 242.5297625 204.2559525 240.6547625000001C202.4107141666667 238.7797625 200.5357141666667 236.934525 198.6607141666667 235.0595250000001C183.7797620833333 216.4583333333334 183.7797620833333 188.5416666666666 202.3809525 171.815475C220.9821429166667 155.0892875000001 248.8988095833333 156.9345250000001 265.625 175.5357125000001C280.5059525 192.2916666666666 280.5059525 216.4583333333334 267.5 233.2142875000001C273.0952379166667 244.375 278.6607141666667 249.9702375000001 291.69642875 261.1309541666667C341.93452375 203.4523791666667 410.7440475 164.4047625 485.1488083333334 160.6845250000001L485.1488083333334 579.2261916666666C386.5476191666666 584.82142875 300.9821429166667 644.3452379166667 260.05952375 728.0357141666667L260.0892858333334 728.0357141666667zM872.0535708333333 517.8571416666666C870.1785708333333 517.8571416666666 868.3333333333333 517.8571416666666 866.4583333333334 517.8571416666666C859.0178583333333 521.5773791666668 851.5773791666666 525.2976208333333 844.1369041666666 529.0178583333334C831.1011916666666 532.7380958333333 818.0952374999999 534.6130958333333 797.6190458333333 536.4583333333334C795.7440458333332 579.2559541666667 786.4583333333333 620.17857125 773.4226208333333 657.3809524999999C786.4583333333333 664.82142875 793.8988083333332 670.4166666666667 801.3392875 677.8571429166666C814.375 687.1726191666667 821.815475 702.05357125 827.3809541666666 713.2142858333334C829.2559541666667 715.0892858333334 832.9761916666665 715.0892858333334 834.8214291666666 716.93452375C855.2976208333333 729.9702379166667 864.5833333333333 756.0119045833334 851.5773791666666 778.3333333333334C840.4166666666667 798.80952375 812.5 806.25 790.1785708333333 795.0892858333334C769.7023791666666 783.92857125 762.2619041666666 757.8869045833334 771.5773791666667 737.4107141666667C769.7023791666666 729.9702379166667 765.9821416666666 724.375 764.1369041666667 722.5297620833334C758.5416666666665 718.8095237499999 754.8214291666667 715.0892858333334 749.2559541666666 713.2142858333334C747.3809541666667 716.93452375 743.6607124999999 722.5297620833334 739.940475 728.0952379166667C699.0178583333333 644.375 613.4523791666667 584.8511904166667 514.8511916666666 579.2857125L514.8511916666666 160.7440458333334C589.2559541666666 164.4642875000001 658.0952374999999 203.5416666666668 708.3035708333333 261.190475C721.3392875000001 250.0297625 726.9047625 244.434525 732.4999999999999 233.2738083333334C719.4642875 216.5178583333334 719.4642875 192.3511916666666 734.375 175.5952375000001C751.1309541666667 156.9940458333334 779.0178583333334 155.1190458333333 797.6190458333333 171.875C816.2202375 188.6309541666668 816.2202375 216.5178583333334 801.3392875 235.1190458333334C799.4642875 236.9940458333333 797.6190458333333 238.8392875000001 795.7440458333332 240.7142875000001C793.8690458333333 242.5892875000001 792.0238083333334 242.5892875000001 792.0238083333334 242.5892875000001C784.5833333333333 266.7857125 767.8273791666667 289.1071416666668 741.7857124999999 309.5535708333334C771.5476208333333 357.9166666666668 790.1488083333332 415.5952375000001 795.7440458333332 476.9642875C808.7797625 476.9642875 818.065475 473.2440458333334 827.3809541666666 471.3690458333334C829.2559541666667 447.1726208333334 847.8571416666666 428.5714291666667 872.0238083333332 428.5714291666667C896.190475 428.5714291666667 916.6666666666666 449.0476208333334 916.6666666666666 473.2142875C916.6666666666666 497.4107125 896.190475 517.8571416666666 872.0238083333332 517.8571416666666L872.0535708333333 517.8571416666666z" />
    <glyph glyph-name="bus"
      unicode="&#x0;"
      horiz-adv-x="1000" d="M750 916.6666666666666L250 916.6666666666666C204 916.6666666666666 166.6666666666667 879.375 166.6666666666667 833.3333333333334L166.6666666666667 166.6666666666668C166.6666666666667 120.6666666666668 204 83.3333333333334 250 83.3333333333334C296 83.3333333333334 333.3333333333333 120.6666666666668 333.3333333333333 166.6666666666668L666.6666666666666 166.6666666666668C666.6666666666666 120.6666666666668 704 83.3333333333334 750 83.3333333333334C795.9999999999999 83.3333333333334 833.3333333333333 120.6666666666668 833.3333333333333 166.6666666666668L833.3333333333333 833.3333333333334C833.3333333333333 879.375 795.9999999999999 916.6666666666666 750 916.6666666666666zM250 750L750 750L750 458.3333333333334L250 458.3333333333334L250 750zM312.5 250C278 250 250 278.0000000000001 250 312.5C250 347 278 375 312.5 375C347 375 375 347 375 312.5C375 278.0000000000001 347 250 312.5 250zM625 312.5C625 347 653 375 687.5 375C721.9999999999999 375 750 347 750 312.5C750 278.0000000000001 721.9999999999999 250 687.5 250C653 250 625 278.0000000000001 625 312.5zM875 708.3333333333334L958.3333333333331 708.3333333333334L958.3333333333331 541.6666666666667L875 541.6666666666667L875 708.3333333333334zM41.6666666666667 708.3333333333334L125 708.3333333333334L125 541.6666666666667L41.6666666666667 541.6666666666667L41.6666666666667 708.3333333333334z" />
    <glyph glyph-name="calendar-anytime"
      unicode="&#xA;"
      horiz-adv-x="1000" d="M387.9166666666667 250L489.5833333333333 351.6666666666667L591.25 250L635.4166666666666 294.1666666666667L533.75 395.8333333333334L635.4166666666666 497.5L591.25 541.6666666666667L489.5833333333333 440L387.9166666666667 541.6666666666667L343.75 497.5L445.4166666666667 395.8333333333334L343.75 294.1666666666667L387.9166666666667 250L387.9166666666667 250zM791.6666666666666 833.3333333333334L750 833.3333333333334L750 916.6666666666666L666.6666666666666 916.6666666666666L666.6666666666666 833.3333333333334L333.3333333333333 833.3333333333334L333.3333333333333 916.6666666666666L250 916.6666666666666L250 833.3333333333334L208.3333333333333 833.3333333333334C162.0833333333334 833.3333333333334 125.4166666666667 795.8333333333334 125.4166666666667 750L125 166.6666666666668C125 120.8333333333334 162.0833333333334 83.3333333333334 208.3333333333333 83.3333333333334L791.6666666666666 83.3333333333334C837.5 83.3333333333334 875 120.8333333333334 875 166.6666666666668L875 750C875 795.8333333333334 837.5 833.3333333333334 791.6666666666666 833.3333333333334L791.6666666666666 833.3333333333334zM791.6666666666666 166.6666666666668L208.3333333333333 166.6666666666668L208.3333333333333 625L791.6666666666666 625L791.6666666666666 166.6666666666668L791.6666666666666 166.6666666666668z" />
    <glyph glyph-name="calendar-range"
      unicode="&#x0;"
      horiz-adv-x="1000" d="M375 541.6666666666667L291.6666666666667 541.6666666666667L291.6666666666667 458.3333333333334L375 458.3333333333334L375 541.6666666666667L375 541.6666666666667zM541.6666666666666 541.6666666666667L458.3333333333333 541.6666666666667L458.3333333333333 458.3333333333334L541.6666666666666 458.3333333333334L541.6666666666666 541.6666666666667L541.6666666666666 541.6666666666667zM708.3333333333333 541.6666666666667L625 541.6666666666667L625 458.3333333333334L708.3333333333333 458.3333333333334L708.3333333333333 541.6666666666667L708.3333333333333 541.6666666666667zM791.6666666666666 833.3333333333334L750 833.3333333333334L750 916.6666666666666L666.6666666666666 916.6666666666666L666.6666666666666 833.3333333333334L333.3333333333333 833.3333333333334L333.3333333333333 916.6666666666666L250 916.6666666666666L250 833.3333333333334L208.3333333333333 833.3333333333334C162.0833333333334 833.3333333333334 125.4166666666667 795.8333333333334 125.4166666666667 750L125 166.6666666666668C125 120.8333333333334 162.0833333333334 83.3333333333334 208.3333333333333 83.3333333333334L791.6666666666666 83.3333333333334C837.5 83.3333333333334 875 120.8333333333334 875 166.6666666666668L875 750C875 795.8333333333334 837.5 833.3333333333334 791.6666666666666 833.3333333333334L791.6666666666666 833.3333333333334zM791.6666666666666 166.6666666666668L208.3333333333333 166.6666666666668L208.3333333333333 625L791.6666666666666 625L791.6666666666666 166.6666666666668L791.6666666666666 166.6666666666668z" />
    <glyph glyph-name="calendar-trip-length"
      unicode="&#xE109;"
      horiz-adv-x="1000" d="M791.6666666666666 833.3333333333334L750 833.3333333333334L750 916.6666666666666L666.6666666666666 916.6666666666666L666.6666666666666 833.3333333333334L333.3333333333333 833.3333333333334L333.3333333333333 916.6666666666666L250 916.6666666666666L250 833.3333333333334L208.3333333333333 833.3333333333334C162.0833333333334 833.3333333333334 125.4166666666667 795.8333333333334 125.4166666666667 750L125 166.6666666666668C125 120.8333333333334 162.0833333333334 83.3333333333334 208.3333333333333 83.3333333333334L791.6666666666666 83.3333333333334C837.5 83.3333333333334 875 120.8333333333334 875 166.6666666666668L875 750C875 795.8333333333334 837.5 833.3333333333334 791.6666666666666 833.3333333333334L791.6666666666666 833.3333333333334zM791.6666666666666 166.6666666666668L208.3333333333333 166.6666666666668L208.3333333333333 625L791.6666666666666 625L791.6666666666666 166.6666666666668zM625 270.8333333333334L770.8333333333333 416.6666666666668L625 562.5L625 458.3333333333334L375 458.3333333333334L375 562.5L229.1666666666667 416.6666666666668L375 270.8333333333334L375 375L625 375L625 270.8333333333334z" />
    <glyph glyph-name="calendar"
      unicode="&#xF;"
      horiz-adv-x="1000" d="M791.6666666666666 833.3333333333334L750 833.3333333333334L750 916.6666666666666L666.6666666666666 916.6666666666666L666.6666666666666 833.3333333333334L333.3333333333333 833.3333333333334L333.3333333333333 916.6666666666666L250 916.6666666666666L250 833.3333333333334L208.3333333333333 833.3333333333334C162.0833333333334 833.3333333333334 125.4166666666667 795.8333333333334 125.4166666666667 750L125 166.6666666666668C125 120.8333333333334 162.0833333333334 83.3333333333334 208.3333333333333 83.3333333333334L791.6666666666666 83.3333333333334C837.5 83.3333333333334 875 120.8333333333334 875 166.6666666666668L875 750C875 795.8333333333334 837.5 833.3333333333334 791.6666666666666 833.3333333333334L791.6666666666666 833.3333333333334zM791.6666666666666 166.6666666666668L208.3333333333333 166.6666666666668L208.3333333333333 625L791.6666666666666 625L791.6666666666666 166.6666666666668L791.6666666666666 166.6666666666668zM291.6666666666667 541.6666666666667L500 541.6666666666667L500 333.3333333333334L291.6666666666667 333.3333333333334L291.6666666666667 541.6666666666667z" />
    <glyph glyph-name="camera"
      unicode="&#xE017;"
      horiz-adv-x="1000" d="M833.3333333333333 749.9583333333334C879.3333333333333 749.9583333333334 916.6666666666666 712.625 916.6666666666666 666.6666666666667L916.6666666666666 208.3333333333334C916.6666666666666 162.3333333333334 879.3333333333333 125 833.3333333333333 125L166.6666666666667 125C120.625 125 83.3333333333333 162.3333333333334 83.3333333333333 208.3333333333334L83.3333333333333 666.6666666666667C83.3333333333333 712.6666666666667 120.625 750 166.6666666666667 750L247.0833333333333 750C274.9166666666667 750 300.9583333333333 763.875 316.4166666666667 787.0833333333334L350.25 837.9166666666666C365.7083333333333 861.0416666666667 391.75 875 419.5833333333333 875L580.4166666666666 875C608.25 875 634.2916666666666 861.0416666666667 649.7499999999999 837.875L683.5833333333333 787.0416666666667C699.0416666666666 763.875 725.0833333333334 749.9583333333334 752.9166666666666 749.9583333333334L833.3333333333333 749.9583333333334zM500 625C591.9166666666666 625 666.6666666666666 550.2083333333334 666.6666666666666 458.3333333333334C666.6666666666666 366.375 591.9166666666666 291.6666666666668 500 291.6666666666668C408.0833333333333 291.6666666666668 333.3333333333333 366.375 333.3333333333333 458.3333333333334C333.3333333333333 550.25 408.0833333333333 625 500 625zM500 208.3333333333334C637.8749999999999 208.3333333333334 750 320.4166666666668 750 458.3333333333334C750 596.1666666666667 637.8749999999999 708.3333333333334 500 708.3333333333334C362.125 708.3333333333334 250 596.1666666666667 250 458.3333333333334C250 320.4583333333334 362.125 208.3333333333334 500 208.3333333333334z" />
    <glyph glyph-name="car-rental"
      unicode="&#xE030;"
      horiz-adv-x="1000" d="M312.5 541.6666666666667L187.5 291.6666666666668L187.5 125L270.8333333333333 125L270.8333333333333 104.1666666666667C270.8333333333333 69.6666666666667 298.8333333333333 41.6666666666667 333.3333333333333 41.6666666666667C367.8333333333333 41.6666666666667 395.8333333333333 69.6666666666667 395.8333333333333 104.1666666666667L395.8333333333333 125L645.8333333333333 125L645.8333333333333 104.1666666666667C645.8333333333333 69.6666666666667 673.8333333333334 41.6666666666667 708.3333333333333 41.6666666666667C742.8333333333333 41.6666666666667 770.8333333333333 69.6666666666667 770.8333333333333 104.1666666666667L770.8333333333333 125L854.1666666666666 125L854.1666666666666 291.6666666666668L729.1249999999999 541.6666666666667L312.5 541.6666666666667zM395.8333333333333 208.3333333333334L270.8333333333333 208.3333333333334L270.8333333333333 291.6666666666668L395.8333333333333 291.6666666666668L395.8333333333333 208.3333333333334zM770.8333333333333 208.3333333333334L645.8333333333333 208.3333333333334L645.8333333333333 291.6666666666668L770.8333333333333 291.6666666666668L770.8333333333333 208.3333333333334zM312.5 375L354.1666666666667 458.3333333333334L687.5 458.3333333333334L729.1666666666666 375L312.5 375zM452.4166666666667 874.9583333333334L875 875L875 791.6666666666667L791.7083333333334 791.6666666666667L791.6666666666666 666.6666666666667L708.3333333333333 666.6666666666667L708.375 791.6666666666667L625.0416666666666 791.6666666666667L625 708.25L541.6666666666666 708.25L541.7083333333333 791.625L452.4166666666667 791.625C433.75 719.9583333333334 369.0833333333333 666.6666666666667 291.6666666666667 666.6666666666667C199.75 666.6666666666667 125 741.4166666666667 125 833.3333333333334C125 925.25 199.75 1000 291.6666666666667 1000C369.0833333333333 1000 433.7916666666667 946.625 452.4166666666667 874.9583333333334zM291.6666666666667 750C337.625 750 375 787.4166666666666 375 833.3333333333334C375 879.2916666666667 337.625 916.6666666666666 291.6666666666667 916.6666666666666C245.7083333333334 916.6666666666666 208.3333333333333 879.2916666666667 208.3333333333333 833.3333333333334C208.3333333333333 787.4166666666666 245.7083333333334 750 291.6666666666667 750z" />
    <glyph glyph-name="car"
      unicode="&#xE03A;"
      horiz-adv-x="1000" d="M729.1666666666666 791.6666666666667L270.8333333333333 791.6666666666667C243.3333333333333 791.6666666666667 220.4166666666667 774.1666666666667 211.6666666666667 749.5833333333334L125 500L125 166.6666666666668C125 143.75 143.75 125 166.6666666666667 125L208.3333333333333 125C231.25 125 250 143.75 250 166.6666666666668L250 208.3333333333334L750 208.3333333333334L750 166.6666666666668C750 143.75 768.7499999999999 125 791.6666666666666 125L833.3333333333333 125C856.25 125 875 143.75 875 166.6666666666668L875 500L788.3333333333334 749.5833333333334C779.9999999999999 774.1666666666667 756.6666666666666 791.6666666666667 729.1666666666666 791.6666666666667zM270.8333333333333 333.3333333333334C236.25 333.3333333333334 208.3333333333333 361.25 208.3333333333333 395.8333333333334C208.3333333333333 430.4166666666668 236.25 458.3333333333334 270.8333333333333 458.3333333333334C305.4166666666667 458.3333333333334 333.3333333333333 430.4166666666668 333.3333333333333 395.8333333333334C333.3333333333333 361.25 305.4166666666667 333.3333333333334 270.8333333333333 333.3333333333334L270.8333333333333 333.3333333333334zM729.1666666666666 333.3333333333334C694.5833333333334 333.3333333333334 666.6666666666666 361.25 666.6666666666666 395.8333333333334C666.6666666666666 430.4166666666668 694.5833333333334 458.3333333333334 729.1666666666666 458.3333333333334C763.7499999999999 458.3333333333334 791.6666666666666 430.4166666666668 791.6666666666666 395.8333333333334C791.6666666666666 361.25 763.7499999999999 333.3333333333334 729.1666666666666 333.3333333333334L729.1666666666666 333.3333333333334zM208.3333333333333 541.6666666666667L270.8333333333333 729.1666666666667L729.1666666666666 729.1666666666667L791.6666666666666 541.6666666666667L208.3333333333333 541.6666666666667L208.3333333333333 541.6666666666667z" />
    <glyph glyph-name="chart"
      unicode="&#xE176;"
      horiz-adv-x="1000" d="M266.6666666666667 616.6666666666667L275 616.6666666666667C307.0833333333333 616.6666666666667 333.3333333333333 590.4166666666667 333.3333333333333 558.3333333333334L333.3333333333333 266.6666666666667C333.3333333333333 234.5833333333334 307.0833333333333 208.3333333333334 275 208.3333333333334L266.6666666666667 208.3333333333334C234.5833333333333 208.3333333333334 208.3333333333333 234.5833333333334 208.3333333333333 266.6666666666667L208.3333333333333 558.3333333333334C208.3333333333333 590.4166666666667 234.5833333333333 616.6666666666667 266.6666666666667 616.6666666666667zM500 791.6666666666667C532.0833333333333 791.6666666666667 558.3333333333334 765.4166666666667 558.3333333333334 733.3333333333333L558.3333333333334 266.6666666666667C558.3333333333334 234.5833333333334 532.0833333333333 208.3333333333334 500 208.3333333333334C467.9166666666667 208.3333333333334 441.6666666666667 234.5833333333334 441.6666666666667 266.6666666666667L441.6666666666667 733.3333333333333C441.6666666666667 765.4166666666667 467.9166666666667 791.6666666666667 500 791.6666666666667zM733.3333333333334 458.3333333333334C765.4166666666666 458.3333333333334 791.6666666666666 432.0833333333334 791.6666666666666 400L791.6666666666666 266.6666666666667C791.6666666666666 234.5833333333334 765.4166666666666 208.3333333333334 733.3333333333334 208.3333333333334C701.2499999999999 208.3333333333334 674.9999999999999 234.5833333333334 674.9999999999999 266.6666666666667L674.9999999999999 400C674.9999999999999 432.0833333333334 701.2499999999999 458.3333333333334 733.3333333333334 458.3333333333334z" />
    <glyph glyph-name="chat"
      unicode="&#x9;"
      horiz-adv-x="1000" d="M833.3333333333333 916.6666666666666L166.6666666666667 916.6666666666666C120.6666666666667 916.6666666666666 83.3333333333333 879.375 83.3333333333333 833.3333333333334L83.3333333333333 333.3333333333334C83.3333333333333 287.3333333333334 120.6666666666667 250 166.6666666666667 250L208.3333333333333 250L208.3333333333333 83.3333333333334L375 250L833.2916666666665 250C879.3333333333333 250 916.6249999999998 287.3333333333334 916.6249999999998 333.3333333333334L916.6249999999998 833.3333333333334C916.6666666666666 879.375 879.375 916.6666666666666 833.3333333333333 916.6666666666666zM541.6666666666666 375L250 375L250 458.3333333333334L541.6666666666666 458.3333333333334L541.6666666666666 375zM750 541.6666666666667L250 541.6666666666667L250 625L750 625L750 541.6666666666667zM750 708.3333333333334L250 708.3333333333334L250 791.6666666666667L750 791.6666666666667L750 708.3333333333334z" />
    <glyph glyph-name="check-circle"
      unicode="&#x0;"
      horiz-adv-x="1000" d="M468.75 260.4166666666668L260.4166666666667 416.6666666666668L322.9166666666667 500L447.9166666666667 406.25L666.6666666666666 697.9166666666667L750 635.4166666666667L468.75 260.4166666666668zM500 916.6666666666666C269.875 916.6666666666666 83.3333333333333 730.0833333333334 83.3333333333333 500C83.3333333333333 269.9166666666668 269.875 83.3333333333334 500 83.3333333333334C730.125 83.3333333333334 916.6666666666666 269.9166666666668 916.6666666666666 500C916.6666666666666 730.0833333333334 730.125 916.6666666666666 500 916.6666666666666L500 916.6666666666666z" />
    <glyph glyph-name="check"
      unicode="&#x0;"
      horiz-adv-x="1000" d="M371.9166666666667 222.8333333333334L166.6666666666667 428.125L240.2916666666667 501.7916666666667L368.375 373.7083333333334L748.2916666666666 791.6666666666667L825.3333333333333 721.5833333333333z" />
    <glyph glyph-name="chevron-down"
      unicode="&#xE09D;"
      horiz-adv-x="1000" d="M691.25 642.0833333333334L500 451.25L308.75 642.0833333333334L250 583.3333333333334L500 333.3333333333334L750 583.3333333333334z" />
    <glyph glyph-name="chevron-left"
      unicode="&#x0;"
      horiz-adv-x="1000" d="M642.0833333333333 691.25L583.3333333333333 750L333.3333333333333 500L583.3333333333333 250L642.0833333333333 308.75L451.25 500z" />
    <glyph glyph-name="chevron-right"
      unicode="&#xE01F;"
      horiz-adv-x="1000" d="M416.6666666666667 750L357.9166666666667 691.25L548.75 500L357.9166666666667 308.75L416.6666666666667 250L666.6666666666666 500z" />
    <glyph glyph-name="chevron-up"
      unicode="&#x0;"
      horiz-adv-x="1000" d="M500 666.6666666666667L250 416.6666666666668L308.75 357.9166666666668L500 548.75L691.25 357.9166666666668L750 416.6666666666668z" />
    <glyph glyph-name="child-friendly"
      unicode="&#xE05D;"
      horiz-adv-x="1000" d="M541.6666666666666 916.6666666666666L541.6666666666666 583.3333333333334L875 583.3333333333334C875 767.5 725.8333333333334 916.6666666666666 541.6666666666666 916.6666666666666zM805 337.9166666666667C848.75 394.1666666666668 875 465 875 541.6666666666667L268.3333333333333 541.6666666666667L228.75 625L83.3333333333333 625L83.3333333333333 541.6666666666667L175.8333333333333 541.6666666666667C175.8333333333333 541.6666666666667 254.5833333333334 372.0833333333334 264.1666666666667 357.5C218.3333333333334 332.9166666666667 187.5 284.5833333333333 187.5 229.1666666666668C187.5 148.7500000000001 252.9166666666667 83.3333333333334 333.3333333333333 83.3333333333334C406.6666666666667 83.3333333333334 467.5 137.5000000000001 477.5 208.3333333333334L564.1666666666666 208.3333333333334C574.1666666666666 137.5000000000001 635 83.3333333333334 708.3333333333333 83.3333333333334C788.75 83.3333333333334 854.1666666666666 148.7500000000001 854.1666666666666 229.1666666666668C854.1666666666666 272.5 834.9999999999999 311.25 805 337.9166666666667zM333.3333333333333 166.6666666666668C298.75 166.6666666666668 270.8333333333333 194.5833333333335 270.8333333333333 229.1666666666668C270.8333333333333 263.75 298.75 291.6666666666668 333.3333333333333 291.6666666666668C367.9166666666667 291.6666666666668 395.8333333333333 263.75 395.8333333333333 229.1666666666668C395.8333333333333 194.5833333333335 367.9166666666667 166.6666666666668 333.3333333333333 166.6666666666668zM708.3333333333333 166.6666666666668C673.75 166.6666666666668 645.8333333333333 194.5833333333335 645.8333333333333 229.1666666666668C645.8333333333333 263.75 673.75 291.6666666666668 708.3333333333333 291.6666666666668C742.9166666666665 291.6666666666668 770.8333333333333 263.75 770.8333333333333 229.1666666666668C770.8333333333333 194.5833333333335 742.9166666666665 166.6666666666668 708.3333333333333 166.6666666666668z" />
    <glyph glyph-name="child"
      unicode="&#xE050;"
      horiz-adv-x="1000" d="M955.8333333333334 472.5C957.5 481.2500000000001 958.3333333333331 490.4166666666667 958.3333333333331 500C958.3333333333331 509.5833333333334 957.5 518.75 955.8333333333334 527.5C945.4166666666666 590.4166666666667 899.1666666666665 641.6666666666667 838.7499999999999 659.5833333333334C816.6666666666666 706.25 785.4166666666666 747.0833333333334 747.5 780.8333333333334C681.6666666666666 839.5833333333334 594.9999999999999 875 500 875C405 875 318.3333333333333 839.5833333333334 252.5 780.8333333333334C214.1666666666666 747.0833333333334 182.9166666666666 705.8333333333334 161.25 659.5833333333334C100.8333333333333 641.6666666666667 54.5833333333333 590.8333333333334 44.1666666666667 527.5C42.5 518.75 41.6666666666667 509.5833333333334 41.6666666666667 500C41.6666666666667 490.4166666666667 42.5 481.2500000000001 44.1666666666667 472.5C54.5833333333333 409.5833333333334 100.8333333333333 358.3333333333334 161.25 340.4166666666668C182.9166666666666 294.1666666666667 214.1666666666666 253.3333333333333 251.6666666666667 220.0000000000001C317.5 160.8333333333334 404.5833333333334 125 500 125C595.4166666666666 125 682.4999999999999 160.8333333333334 748.7499999999999 220.0000000000001C786.25 253.3333333333333 817.5 294.5833333333334 839.1666666666666 340.4166666666668C899.1666666666665 358.3333333333334 945.4166666666666 409.1666666666668 955.8333333333334 472.5L955.8333333333334 472.5zM791.6666666666666 416.6666666666668C787.4999999999999 416.6666666666668 783.7499999999999 417.5 779.5833333333334 417.9166666666667C771.25 390 759.1666666666666 364.1666666666668 743.75 340.4166666666668C691.6666666666667 260.8333333333335 602.0833333333333 208.3333333333334 500 208.3333333333334C397.9166666666667 208.3333333333334 308.3333333333333 260.8333333333335 256.25 340.4166666666668C240.8333333333334 364.1666666666668 228.75 390 220.4166666666667 417.9166666666667C216.25 417.5 212.5 416.6666666666668 208.3333333333333 416.6666666666668C162.5 416.6666666666668 125 454.1666666666667 125 500C125 545.8333333333334 162.5 583.3333333333334 208.3333333333333 583.3333333333334C212.5 583.3333333333334 216.25 582.5 220.4166666666667 582.0833333333334C228.75 610 240.8333333333334 635.8333333333334 256.25 659.5833333333334C308.3333333333333 739.1666666666667 397.9166666666667 791.6666666666667 500 791.6666666666667C602.0833333333333 791.6666666666667 691.6666666666667 739.1666666666667 743.75 659.5833333333334C759.1666666666666 635.8333333333334 771.25 610 779.5833333333334 582.0833333333334C783.7499999999999 582.5 787.4999999999999 583.3333333333334 791.6666666666666 583.3333333333334C837.5 583.3333333333334 875 545.8333333333334 875 500C875 454.1666666666667 837.5 416.6666666666668 791.6666666666666 416.6666666666668L791.6666666666666 416.6666666666668zM312.5 416.6666666666668L687.5 416.6666666666668C655.8333333333333 342.9166666666668 583.75 291.6666666666668 500 291.6666666666668C416.25 291.6666666666668 344.1666666666667 342.9166666666668 312.5 416.6666666666668zM395.8333333333333 510.4166666666667C367.0685025 510.4166666666667 343.75 533.7351708333333 343.75 562.5C343.75 591.2648308333333 367.0685025 614.5833333333334 395.8333333333333 614.5833333333334C424.5981625 614.5833333333334 447.9166666666667 591.2648308333333 447.9166666666667 562.5C447.9166666666667 533.7351708333333 424.5981625 510.4166666666667 395.8333333333333 510.4166666666667zM604.1666666666666 510.4166666666667C575.4018374999999 510.4166666666667 552.0833333333333 533.7351708333333 552.0833333333333 562.5C552.0833333333333 591.2648308333333 575.4018374999999 614.5833333333334 604.1666666666666 614.5833333333334C632.9314958333333 614.5833333333334 656.25 591.2648308333333 656.25 562.5C656.25 533.7351708333333 632.9314958333333 510.4166666666667 604.1666666666666 510.4166666666667z" />
    <glyph glyph-name="circle-empty"
      unicode="&#xE179;"
      horiz-adv-x="1000" d="M500 83.3333333333334C270.2777779166667 83.3333333333334 83.3333333333333 270.2314833333335 83.3333333333333 500C83.3333333333333 729.7685183333333 270.2777779166667 916.6666666666666 500 916.6666666666666C729.7222208333333 916.6666666666666 916.6666666666666 729.7685183333333 916.6666666666666 500C916.6666666666666 270.2314833333335 729.7222208333333 83.3333333333334 500 83.3333333333334zM500 824.0740741666667C321.29629625 824.0740741666667 175.9259258333333 678.7037037499999 175.9259258333333 500C175.9259258333333 321.2962958333334 321.29629625 175.9259250000001 500 175.9259250000001C678.7037041666666 175.9259250000001 824.0740749999999 321.2962958333334 824.0740749999999 500C824.0740749999999 678.7037037499999 678.7037041666666 824.0740741666667 500 824.0740741666667z" />
    <glyph glyph-name="circle-filled"
      unicode="&#xE180;"
      horiz-adv-x="1000" d="M500 83.3333333333334C270.2777779166667 83.3333333333334 83.3333333333333 270.2314833333335 83.3333333333333 500C83.3333333333333 729.7685183333333 270.2777779166667 916.6666666666666 500 916.6666666666666C729.7222208333333 916.6666666666666 916.6666666666666 729.7685183333333 916.6666666666666 500C916.6666666666666 270.2314833333335 729.7222208333333 83.3333333333334 500 83.3333333333334zM500 824.0740741666667C321.29629625 824.0740741666667 175.9259258333333 678.7037037499999 175.9259258333333 500C175.9259258333333 321.2962958333334 321.29629625 175.9259250000001 500 175.9259250000001C678.7037041666666 175.9259250000001 824.0740749999999 321.2962958333334 824.0740749999999 500C824.0740749999999 678.7037037499999 678.7037041666666 824.0740741666667 500 824.0740741666667zM500 708.3333333333334C615 708.3333333333334 708.3333333333333 615 708.3333333333333 500C708.3333333333333 385 615 291.6666666666668 500 291.6666666666668C385 291.6666666666668 291.6666666666667 385 291.6666666666667 500C291.6666666666667 615 385 708.3333333333334 500 708.3333333333334z" />
    <glyph glyph-name="circle-small"
      unicode="&#xE148;"
      horiz-adv-x="1000" d="M500 708.3333333333334C385 708.3333333333334 291.6666666666667 615 291.6666666666667 500C291.6666666666667 385 385 291.6666666666668 500 291.6666666666668C615 291.6666666666668 708.3333333333333 385 708.3333333333333 500C708.3333333333333 615 615 708.3333333333334 500 708.3333333333334L500 708.3333333333334z" />
    <glyph glyph-name="circle"
      unicode="&#xE013;"
      horiz-adv-x="1000" d="M500 833.3333333333334C316 833.3333333333334 166.6666666666667 684 166.6666666666667 500C166.6666666666667 316 316 166.6666666666668 500 166.6666666666668C684 166.6666666666668 833.3333333333333 316 833.3333333333333 500C833.3333333333333 684 684 833.3333333333334 500 833.3333333333334L500 833.3333333333334z" />
    <glyph glyph-name="city"
      unicode="&#xC;"
      horiz-adv-x="1000" d="M935.2916666666666 636.5C949.4166666666666 629.4583333333333 958.3333333333331 615.0416666666666 958.3333333333331 599.2083333333334L958.3333333333331 83.3333333333334C958.3333333333331 60.2916666666667 939.6666666666666 41.6666666666667 916.6666666666666 41.6666666666667L833.3333333333333 41.6666666666667L833.3333333333333 458.3333333333334L708.3333333333333 533.3333333333334L708.3333333333333 682.5416666666667C708.3333333333333 697 715.8333333333333 710.4166666666667 728.0833333333333 718C740.3749999999999 725.625 755.7083333333333 726.2916666666667 768.6249999999999 719.8333333333333L935.2916666666666 636.5zM274.375 767.6666666666667C285.25 759.8333333333334 291.6666666666667 747.25 291.6666666666667 733.875L291.6666666666667 83.3333333333334C291.6666666666667 60.2916666666667 273 41.6666666666667 250 41.6666666666667L83.3333333333333 41.6666666666667C60.3333333333333 41.6666666666667 41.6666666666667 60.2916666666667 41.6666666666667 83.3333333333334L41.6666666666667 678.2916666666667C41.6666666666667 696.2083333333333 53.125 712.1666666666667 70.1666666666667 717.8333333333333L236.8333333333333 773.4166666666667C249.5416666666667 777.5833333333334 263.5 775.5 274.375 767.6666666666667zM208.3333333333333 166.6666666666668L208.3333333333333 250L125 250L125 166.6666666666668L208.3333333333333 166.6666666666668zM208.3333333333333 333.3333333333334L208.3333333333333 416.6666666666668L125 416.6666666666668L125 333.3333333333334L208.3333333333333 333.3333333333334zM208.3333333333333 500L208.3333333333333 583.3333333333334L125 583.3333333333334L125 500L208.3333333333333 500zM726.9583333333333 428.1666666666668C741.0833333333334 421.125 750 406.7083333333334 750 390.875L750 41.6666666666667L625 41.6666666666667L625 104.1666666666667C625 138.6666666666668 596.9999999999999 166.6666666666668 562.5 166.6666666666668C528 166.6666666666668 500 138.6666666666668 500 104.1666666666667L500 41.6666666666667L416.6666666666667 41.6666666666667C393.6666666666667 41.6666666666667 375 60.2916666666667 375 83.3333333333334L375 458.3333333333334L541.6666666666666 458.3333333333334L541.6666666666666 541.6666666666667L375 541.6666666666667L375 625L541.6666666666666 625L541.6666666666666 708.3333333333334L375 708.3333333333334L375 791.6666666666667L541.6666666666666 791.6666666666667L541.6666666666666 875L375 875L375 942.2083333333334C375 955.5833333333334 381.4166666666667 968.1666666666666 392.2916666666667 975.9583333333334C403.1666666666667 983.7916666666666 417.125 985.9166666666666 429.8333333333333 981.7083333333334L596.5 926.125C613.5416666666666 920.4583333333334 625 904.5416666666666 625 886.625L625 474.0416666666667C641.7083333333333 474.0416666666667 710.1666666666666 436.5833333333334 726.9583333333333 428.1666666666668zM666.6666666666666 291.6666666666668L666.6666666666666 375L458.3333333333333 375L458.3333333333333 291.6666666666668L666.6666666666666 291.6666666666668z" />
    <glyph glyph-name="clock"
      unicode="&#xE;"
      horiz-adv-x="1000" d="M500 83.3333333333334C270.2777779166667 83.3333333333334 83.3333333333333 270.2314833333335 83.3333333333333 500C83.3333333333333 729.7685183333333 270.2777779166667 916.6666666666666 500 916.6666666666666C729.7222208333333 916.6666666666666 916.6666666666666 729.7685183333333 916.6666666666666 500C916.6666666666666 270.2314833333335 729.7222208333333 83.3333333333334 500 83.3333333333334zM500 824.0740741666667C321.29629625 824.0740741666667 175.9259258333333 678.7037037499999 175.9259258333333 500C175.9259258333333 321.2962958333334 321.29629625 175.9259250000001 500 175.9259250000001C678.7037041666666 175.9259250000001 824.0740749999999 321.2962958333334 824.0740749999999 500C824.0740749999999 678.7037037499999 678.7037041666666 824.0740741666667 500 824.0740741666667zM606.2116 328.2920208333334L467.2518083333333 467.2518083333333C458.5436624999999 475.9599583333334 453.6800708333333 487.7252166666667 453.6800708333333 500L453.6800708333333 731.5996504166667L546.3199291666666 731.5996504166667L546.3199291666666 519.17645L671.7079791666666 393.7884L606.2116 328.2920208333334z" />
    <glyph glyph-name="close-circle"
      unicode="&#x0;"
      horiz-adv-x="1000" d="M500 916.6666666666666C269.5833333333333 916.6666666666666 83.3333333333333 730.4166666666667 83.3333333333333 500C83.3333333333333 269.5833333333334 269.5833333333333 83.3333333333334 500 83.3333333333334C730.4166666666666 83.3333333333334 916.6666666666666 269.5833333333334 916.6666666666666 500C916.6666666666666 730.4166666666667 730.4166666666666 916.6666666666666 500 916.6666666666666L500 916.6666666666666zM708.3333333333333 350.4166666666668L649.5833333333333 291.6666666666668L500 441.25L350.4166666666667 291.6666666666668L291.6666666666667 350.4166666666668L441.25 500L291.6666666666667 649.5833333333334L350.4166666666667 708.3333333333334L500 558.75L649.5833333333333 708.3333333333334L708.3333333333333 649.5833333333334L558.75 500L708.3333333333333 350.4166666666668L708.3333333333333 350.4166666666668z" />
    <glyph glyph-name="close"
      unicode="&#x0;"
      horiz-adv-x="1000" d="M791.6666666666666 732.9166666666667L732.9166666666666 791.6666666666667L500 558.75L267.0833333333333 791.6666666666667L208.3333333333333 732.9166666666667L441.25 500L208.3333333333333 267.0833333333334L267.0833333333333 208.3333333333334L500 441.25L732.9166666666666 208.3333333333334L791.6666666666666 267.0833333333334L558.75 500z" />
    <glyph glyph-name="cocktail"
      unicode="&#xE038;"
      horiz-adv-x="1000" d="M750 916.6666666666666C841.8749999999999 916.6666666666666 916.6666666666666 841.9166666666667 916.6666666666666 750C916.6666666666666 672.5833333333334 863.375 607.9166666666667 791.6666666666666 589.25L791.6666666666666 750L583.3333333333333 750C583.3333333333333 841.9166666666667 658.125 916.6666666666666 750 916.6666666666666zM708.3333333333333 708.3333333333334C725.1666666666666 708.3333333333334 740.4166666666666 698.1666666666667 746.8333333333333 682.625C753.2499999999999 667.0416666666667 749.7083333333333 649.1666666666667 737.7916666666666 637.25L458.3333333333333 357.75L458.3333333333333 166.6666666666668L583.3333333333333 166.6666666666668L583.3333333333333 83.3333333333334L250 83.3333333333334L250 166.6666666666668L375 166.6666666666668L375 357.75L95.5416666666667 637.2083333333333C83.625 649.125 80.0833333333333 667.0416666666667 86.5 682.625C92.9166666666667 698.1666666666667 108.1666666666667 708.3333333333334 125 708.3333333333334L708.3333333333333 708.3333333333334zM232.75 750L191.0833333333334 791.6666666666667L83.3333333333333 791.6666666666667L83.3333333333333 875L208.3333333333333 875C219.4166666666667 875 229.9583333333333 870.5833333333334 237.7916666666667 862.7916666666666L350.5833333333333 750L232.75 750z" />
    <glyph glyph-name="code"
      unicode="&#xE141;"
      horiz-adv-x="1000" d="M362.5 337.5L200 500L362.5 662.5C378.75 678.75 378.75 704.5833333333334 362.5 720.8333333333333C346.25 737.0833333333334 320.4166666666667 737.0833333333334 304.1666666666667 720.8333333333333L112.9166666666667 529.5833333333334C96.6666666666667 513.3333333333334 96.6666666666667 487.0833333333334 112.9166666666667 470.8333333333334L304.1666666666667 279.1666666666667C320.4166666666667 262.9166666666667 346.25 262.9166666666667 362.5 279.1666666666667C378.75 295.4166666666668 378.75 321.2500000000001 362.5 337.5zM637.5 337.5L799.9999999999999 500L637.5 662.5C621.25 678.75 621.25 704.5833333333334 637.5 720.8333333333333C653.7499999999999 737.0833333333334 679.5833333333333 737.0833333333334 695.8333333333333 720.8333333333333L887.0833333333333 529.5833333333334C903.3333333333331 513.3333333333334 903.3333333333331 487.0833333333334 887.0833333333333 470.8333333333334L695.8333333333333 279.1666666666667C679.5833333333333 262.9166666666667 653.7499999999999 262.9166666666667 637.5 279.1666666666667C621.25 295.4166666666668 621.25 321.2500000000001 637.5 337.5z" />
    <glyph glyph-name="coffee"
      unicode="&#xE02F;"
      horiz-adv-x="1000" d="M458.3333333333333 916.6666666666666C458.3333333333333 863.444 449.21875 863.28125 428.3854166666667 842.4479166666667C407.5520833333333 821.6145833333334 375 780.1106666666667 375 708.3333333333334L458.3333333333333 708.3333333333334C458.3333333333333 761.556 467.4479166666666 761.71875 488.28125 782.5520833333334C509.1145833333333 803.3854166666667 541.6666666666666 844.8893333333333 541.6666666666666 916.6666666666666L458.3333333333333 916.6666666666666zM611.9791666666666 875C611.9791666666666 775.0650833333334 541.6666666666666 775.0650833333334 541.6666666666666 708.3333333333334L625 708.3333333333334C625 770.8333333333334 695.3125 762.5325416666667 695.3125 875L611.9791666666666 875zM208.3333333333333 666.6666666666667L208.3333333333333 416.6666666666668C208.3333333333333 325.0325416666667 283.365875 250 375 250L625 250C704.2643333333333 250 769.694 305.8268333333333 786.4583333333333 380.2083333333334C861.0026249999999 396.8098750000001 916.6666666666666 462.0768333333333 916.6666666666666 541.6666666666667L916.6666666666666 583.3333333333334C916.6666666666666 605.1432083333334 909.0169166666666 627.4414166666667 893.2291666666666 643.2291666666667C877.4414166666666 659.0169166666667 855.1432499999999 666.6666666666667 833.3333333333333 666.6666666666667L208.3333333333333 666.6666666666667zM791.6666666666666 583.3333333333334L833.3333333333333 583.3333333333334L833.3333333333333 541.6666666666667C833.3333333333333 507.9752500000001 817.2200416666667 482.0963333333333 791.6666666666666 468.75L791.6666666666666 583.3333333333334zM83.3333333333333 208.3333333333334C83.3333333333333 137.5325416666667 137.5325416666667 83.3333333333334 208.3333333333333 83.3333333333334L791.6666666666666 83.3333333333334C862.4674583333333 83.3333333333334 916.6666666666666 137.5325416666667 916.6666666666666 208.3333333333334L83.3333333333333 208.3333333333334z" />
    <glyph glyph-name="compare"
      unicode="&#xE155;"
      horiz-adv-x="1000" d="M83.3333333333333 916.6666666666666L83.3333333333333 833.3333333333334L458.3333333333333 833.3333333333334C481.4453333333333 833.3333333333334 500 814.778625 500 791.6666666666667L500 458.3333333333334C500 435.2213333333333 481.4453333333333 416.6666666666668 458.3333333333333 416.6666666666668L83.3333333333333 416.6666666666668L83.3333333333333 333.3333333333334L416.6666666666667 333.3333333333334L416.6666666666667 208.3333333333334C416.6666666666667 139.8112083333334 473.1445416666666 83.3333333333334 541.6666666666666 83.3333333333334L916.6666666666666 83.3333333333334L916.6666666666666 166.6666666666668L541.6666666666666 166.6666666666668C518.5547083333333 166.6666666666668 500 185.2213333333334 500 208.3333333333334L500 341.1458333333334C548.1770833333333 358.5612083333333 583.3333333333333 404.4596250000001 583.3333333333333 458.3333333333334L583.3333333333333 583.3333333333334L916.6666666666666 583.3333333333334L916.6666666666666 666.6666666666667L583.3333333333333 666.6666666666667L583.3333333333333 791.6666666666667C583.3333333333333 860.1887916666667 526.8554583333333 916.6666666666666 458.3333333333333 916.6666666666666L83.3333333333333 916.6666666666666zM208.3333333333333 750L208.3333333333333 666.6666666666667L83.3333333333333 666.6666666666667L83.3333333333333 583.3333333333334L208.3333333333333 583.3333333333334L208.3333333333333 500L375 625L208.3333333333333 750zM791.6666666666666 500L625 375L791.6666666666666 250L791.6666666666666 333.3333333333334L916.6666666666666 333.3333333333334L916.6666666666666 416.6666666666668L791.6666666666666 416.6666666666668L791.6666666666666 500z" />
    <glyph glyph-name="compass"
      unicode="&#xE07E;"
      horiz-adv-x="1000" d="M500 916.6666666666666C729.7499999999999 916.6666666666666 916.6666666666666 729.75 916.6666666666666 500C916.6666666666666 270.2500000000001 729.7499999999999 83.3333333333334 500 83.3333333333334C270.25 83.3333333333334 83.3333333333333 270.2500000000001 83.3333333333333 500C83.3333333333333 729.75 270.25 916.6666666666666 500 916.6666666666666zM555.4583333333333 444.5416666666668L555.4583333333333 444.5L389.125 389.0833333333334L444.5416666666667 555.5L555.4583333333333 444.5416666666668zM621.3333333333334 378.7083333333334L742.6666666666667 742.6666666666667L378.7083333333333 621.375L257.375 257.2083333333333L621.3333333333334 378.7083333333334z" />
    <glyph glyph-name="contact-email"
      unicode="&#x0;"
      horiz-adv-x="1000" d="M875 666.6666666666667L875 708.3333333333334L750 625L625 708.3333333333334L625 666.6666666666667L750 583.3333333333334L875 666.6666666666667L875 666.6666666666667zM916.6666666666666 875L83.3333333333333 875C37.5 875 0 837.5 0 791.6666666666667L0 208.3333333333334C0 162.5 37.5 125 83.3333333333333 125L916.6666666666666 125C962.5 125 999.5833333333331 162.5 999.5833333333331 208.3333333333334L1000 791.6666666666667C1000 837.5 962.5 875 916.6666666666666 875L916.6666666666666 875zM333.3333333333333 750C402.5 750 458.3333333333333 694.1666666666667 458.3333333333333 625C458.3333333333333 555.8333333333334 402.5 500 333.3333333333333 500C264.1666666666667 500 208.3333333333333 555.8333333333334 208.3333333333333 625C208.3333333333333 694.1666666666667 264.1666666666667 750 333.3333333333333 750L333.3333333333333 750zM583.3333333333333 250L83.3333333333333 250L83.3333333333333 291.6666666666668C83.3333333333333 375 250 420.8333333333334 333.3333333333333 420.8333333333334C416.6666666666667 420.8333333333334 583.3333333333333 375 583.3333333333333 291.6666666666668L583.3333333333333 250L583.3333333333333 250zM916.6666666666666 500L583.3333333333333 500L583.3333333333333 750L916.6666666666666 750L916.6666666666666 500L916.6666666666666 500z" />
    <glyph glyph-name="credit-card"
      unicode="&#x0;"
      horiz-adv-x="1000" d="M83.3333333333333 249.9583333333334L83.3333333333333 583.2916666666667L916.6666666666666 583.2916666666667L916.6666666666666 249.9583333333334C916.6666666666666 204.0000000000001 879.2916666666666 166.625 833.3333333333333 166.625L166.6666666666667 166.625C120.7083333333333 166.625 83.3333333333333 204.0000000000001 83.3333333333333 249.9583333333334zM833.3333333333333 833.2833333333333C879.2916666666666 833.2833333333333 916.6666666666666 795.9083333333333 916.6666666666666 749.95L916.6666666666666 666.6166666666667L83.3333333333333 666.6166666666667L83.3333333333333 749.95C83.3333333333333 795.9083333333333 120.7083333333333 833.2833333333333 166.6666666666667 833.2833333333333L833.3333333333333 833.2833333333333zM208.3333333333333 374.9583333333334L208.3333333333333 291.625L416.6666666666667 291.625L416.6666666666667 374.9583333333334L208.3333333333333 374.9583333333334zM208.3333333333333 499.9583333333334L208.3333333333333 416.625L500 416.625L500 499.9583333333334L208.3333333333333 499.9583333333334zM625 499.9583333333334L625 416.625L791.6666666666666 416.625L791.6666666666666 499.9583333333334L625 499.9583333333334z" />
    <glyph glyph-name="deals"
      unicode="&#xE142;"
      horiz-adv-x="1000" d="M892.0833333333333 517.5L517.0833333333333 892.5C502.0833333333333 907.5 481.25 916.6666666666666 458.3333333333333 916.6666666666666L166.6666666666667 916.6666666666666C120.8333333333333 916.6666666666666 83.3333333333333 879.1666666666666 83.3333333333333 833.3333333333334L83.3333333333333 541.6666666666667C83.3333333333333 518.75 92.5 497.9166666666667 107.9166666666667 482.5L482.9166666666666 107.5C497.9166666666666 92.5 518.7499999999999 83.3333333333334 541.6666666666666 83.3333333333334C564.5833333333334 83.3333333333334 585.4166666666666 92.5 600.4166666666666 107.9166666666667L892.0833333333333 399.5833333333334C907.5 414.5833333333334 916.6666666666666 435.4166666666667 916.6666666666666 458.3333333333334C916.6666666666666 481.2500000000001 907.0833333333331 502.5000000000001 892.0833333333333 517.5zM229.1666666666667 708.3333333333334C194.5833333333333 708.3333333333334 166.6666666666667 736.25 166.6666666666667 770.8333333333334C166.6666666666667 805.4166666666667 194.5833333333333 833.3333333333334 229.1666666666667 833.3333333333334C263.75 833.3333333333334 291.6666666666667 805.4166666666667 291.6666666666667 770.8333333333334C291.6666666666667 736.25 263.75 708.3333333333334 229.1666666666667 708.3333333333334z" />
    <glyph glyph-name="device-desktop"
      unicode="&#xE158;"
      horiz-adv-x="1000" d="M875 916.6666666666666L125 916.6666666666666C79.1666666666667 916.6666666666666 41.6666666666667 879.1666666666666 41.6666666666667 833.3333333333334L41.6666666666667 333.3333333333334C41.6666666666667 287.5 79.1666666666667 250 125 250L416.6666666666667 250L348.75 147.9166666666668C330.4166666666667 120.4166666666668 350 83.3333333333334 383.3333333333333 83.3333333333334L616.6666666666666 83.3333333333334C650 83.3333333333334 669.9999999999999 120.4166666666668 651.25 147.9166666666668L583.3333333333333 250L875 250C920.8333333333334 250 958.3333333333331 287.5 958.3333333333331 333.3333333333334L958.3333333333331 833.3333333333334C958.3333333333331 879.1666666666666 920.8333333333334 916.6666666666666 875 916.6666666666666zM875 416.6666666666668L125 416.6666666666668L125 791.6666666666667C125 814.5833333333334 143.75 833.3333333333334 166.6666666666667 833.3333333333334L833.3333333333333 833.3333333333334C856.25 833.3333333333334 875 814.5833333333334 875 791.6666666666667L875 416.6666666666668z" />
    <glyph glyph-name="device-mobile"
      unicode="&#xE157;"
      horiz-adv-x="1000" d="M708.3333333333333 957.9166666666666L291.6666666666667 958.3333333333334C245.8333333333334 958.3333333333334 208.3333333333333 920.8333333333334 208.3333333333333 875L208.3333333333333 125C208.3333333333333 79.1666666666666 245.8333333333334 41.6666666666667 291.6666666666667 41.6666666666667L708.3333333333333 41.6666666666667C754.1666666666666 41.6666666666667 791.6666666666666 79.1666666666666 791.6666666666666 125L791.6666666666666 875C791.6666666666666 920.8333333333334 754.1666666666666 957.9166666666666 708.3333333333333 957.9166666666666zM708.3333333333333 208.3333333333334L291.6666666666667 208.3333333333334L291.6666666666667 791.6666666666667L708.3333333333333 791.6666666666667L708.3333333333333 208.3333333333334z" />
    <glyph glyph-name="document"
      unicode="&#xE110;"
      horiz-adv-x="1000" d="M583.3333333333333 916.6666666666666L250 916.6666666666666C204.1666666666667 916.6666666666666 167.0833333333333 879.1666666666666 167.0833333333333 833.3333333333334L166.6666666666667 166.6666666666668C166.6666666666667 120.8333333333334 203.75 83.3333333333334 249.5833333333333 83.3333333333334L750 83.3333333333334C795.8333333333334 83.3333333333334 833.3333333333333 120.8333333333334 833.3333333333333 166.6666666666668L833.3333333333333 666.6666666666667L583.3333333333333 916.6666666666666L583.3333333333333 916.6666666666666zM666.6666666666666 250L333.3333333333333 250L333.3333333333333 333.3333333333334L666.6666666666666 333.3333333333334L666.6666666666666 250L666.6666666666666 250zM666.6666666666666 416.6666666666668L333.3333333333333 416.6666666666668L333.3333333333333 500L666.6666666666666 500L666.6666666666666 416.6666666666668L666.6666666666666 416.6666666666668zM541.6666666666666 625L541.6666666666666 854.1666666666667L770.8333333333333 625L541.6666666666666 625L541.6666666666666 625z" />
    <glyph glyph-name="download"
      unicode="&#xE014;"
      horiz-adv-x="1000" d="M791.6666666666666 625L625 625L625 875L375 875L375 625L208.3333333333333 625L500 333.3333333333334L791.6666666666666 625L791.6666666666666 625zM208.3333333333333 250L208.3333333333333 166.6666666666668L791.6666666666666 166.6666666666668L791.6666666666666 250L208.3333333333333 250L208.3333333333333 250z" />
    </font>
</defs>
</svg>
