<svg width="560" height="244" viewBox="0 0 560 244" fill="none" xmlns="http://www.w3.org/2000/svg">
<g filter="url(#filter0_b_513_5690)">
<g clip-path="url(#clip0_513_5690)">
<rect x="42" y="37" width="518" height="156" rx="3" fill="#F1F8FE"/>
<rect x="42" y="37" width="3" height="156" fill="#0172CB"/>
<path d="M65.3332 55.0833C65.3332 55.6611 64.8998 56.1667 64.2498 56.1667C63.5998 56.1667 63.1665 55.6611 63.1665 55.0833C63.1665 54.5056 63.6721 54 64.2498 54C64.8276 54 65.3332 54.5056 65.3332 55.0833ZM63.0276 63.1667C62.6109 63.1667 62.3332 62.9045 62.3332 62.5112C62.3332 62.118 62.6109 61.8558 63.0276 61.8558H63.5832C63.6526 61.8558 63.7221 61.7903 63.7221 61.7247V58.7753C63.7221 58.7097 63.6526 58.6442 63.5832 58.6442H63.0276C62.6109 58.6442 62.3332 58.382 62.3332 57.9888C62.3332 57.5955 62.6109 57.3333 63.0276 57.3333H63.7221C64.4859 57.3333 65.1109 57.9232 65.1109 58.6442V61.7903C65.1109 61.8558 65.1804 61.9214 65.2498 61.9214H65.8054C66.2221 61.9214 66.4998 62.1835 66.4998 62.5768C66.4998 62.97 66.2221 63.1667 65.8054 63.1667H63.0276ZM63.9998 50.6667C59.4165 50.6667 55.6665 54.4167 55.6665 59C55.6665 63.5833 59.4165 67.3333 63.9998 67.3333C68.5832 67.3333 72.3332 63.5833 72.3332 59C72.3332 54.4167 68.5832 50.6667 63.9998 50.6667Z" fill="#0172CB"/>
<path d="M85.122 64V54.074H83.162V64H85.122ZM89.0933 60.038C89.0933 59.24 89.5693 58.61 90.3813 58.61C91.2773 58.61 91.6553 59.212 91.6553 59.982V64H93.5173V59.66C93.5173 58.148 92.7333 56.93 91.0253 56.93C90.2833 56.93 89.4573 57.252 89.0373 57.966V57.112H87.2313V64H89.0933V60.038ZM98.7284 55.404C99.0364 55.404 99.2184 55.446 99.3164 55.474V53.906C99.1624 53.836 98.7844 53.766 98.3924 53.766C96.8664 53.766 95.8864 54.774 95.8864 56.328V57.112H94.7384V58.708H95.8864V64H97.7624V58.708H99.3164V57.112H97.7624V56.356C97.7624 55.586 98.3084 55.404 98.7284 55.404ZM103.617 62.516C102.707 62.516 101.867 61.844 101.867 60.556C101.867 59.254 102.707 58.596 103.617 58.596C104.527 58.596 105.367 59.254 105.367 60.556C105.367 61.858 104.527 62.516 103.617 62.516ZM103.617 56.902C101.559 56.902 100.005 58.428 100.005 60.556C100.005 62.67 101.559 64.21 103.617 64.21C105.675 64.21 107.229 62.67 107.229 60.556C107.229 58.428 105.675 56.902 103.617 56.902ZM112.91 57.084C112.77 57.07 112.63 57.056 112.476 57.056C111.888 57.056 110.936 57.224 110.516 58.134V57.112H108.71V64H110.572V60.85C110.572 59.366 111.398 58.904 112.35 58.904C112.518 58.904 112.7 58.918 112.91 58.96V57.084ZM116 64V59.968C116 59.212 116.476 58.61 117.288 58.61C118.128 58.61 118.506 59.17 118.506 59.912V64H120.354V59.968C120.354 59.226 120.83 58.61 121.628 58.61C122.482 58.61 122.846 59.17 122.846 59.912V64H124.652V59.534C124.652 57.686 123.434 56.916 122.16 56.916C121.25 56.916 120.522 57.224 119.976 58.064C119.626 57.322 118.87 56.916 117.932 56.916C117.176 56.916 116.294 57.28 115.916 57.952V57.112H114.138V64H116ZM126.077 62.124C126.077 63.202 126.973 64.196 128.443 64.196C129.465 64.196 130.123 63.72 130.473 63.174C130.473 63.44 130.501 63.818 130.543 64H132.251C132.209 63.762 132.167 63.272 132.167 62.908V59.52C132.167 58.134 131.355 56.902 129.171 56.902C127.323 56.902 126.329 58.092 126.217 59.17L127.869 59.52C127.925 58.918 128.373 58.4 129.185 58.4C129.969 58.4 130.347 58.806 130.347 59.296C130.347 59.534 130.221 59.73 129.829 59.786L128.135 60.038C126.987 60.206 126.077 60.892 126.077 62.124ZM128.835 62.81C128.233 62.81 127.939 62.418 127.939 62.012C127.939 61.48 128.317 61.214 128.793 61.144L130.347 60.906V61.214C130.347 62.432 129.619 62.81 128.835 62.81ZM136.384 55.054H134.704V56.02C134.704 56.636 134.368 57.112 133.64 57.112H133.29V58.764H134.536V61.97C134.536 63.3 135.376 64.098 136.72 64.098C137.266 64.098 137.602 64 137.77 63.93V62.39C137.672 62.418 137.42 62.446 137.196 62.446C136.664 62.446 136.384 62.25 136.384 61.648V58.764H137.77V57.112H136.384V55.054ZM141.128 64V57.112H139.266V64H141.128ZM139.042 54.858C139.042 55.474 139.56 55.992 140.19 55.992C140.834 55.992 141.338 55.474 141.338 54.858C141.338 54.214 140.834 53.696 140.19 53.696C139.56 53.696 139.042 54.214 139.042 54.858ZM146.218 62.516C145.308 62.516 144.468 61.844 144.468 60.556C144.468 59.254 145.308 58.596 146.218 58.596C147.128 58.596 147.968 59.254 147.968 60.556C147.968 61.858 147.128 62.516 146.218 62.516ZM146.218 56.902C144.16 56.902 142.606 58.428 142.606 60.556C142.606 62.67 144.16 64.21 146.218 64.21C148.276 64.21 149.83 62.67 149.83 60.556C149.83 58.428 148.276 56.902 146.218 56.902ZM153.173 60.038C153.173 59.24 153.649 58.61 154.461 58.61C155.357 58.61 155.735 59.212 155.735 59.982V64H157.597V59.66C157.597 58.148 156.813 56.93 155.105 56.93C154.363 56.93 153.537 57.252 153.117 57.966V57.112H151.311V64H153.173V60.038ZM159.026 62.124C159.026 63.202 159.922 64.196 161.392 64.196C162.414 64.196 163.072 63.72 163.422 63.174C163.422 63.44 163.45 63.818 163.492 64H165.2C165.158 63.762 165.116 63.272 165.116 62.908V59.52C165.116 58.134 164.304 56.902 162.12 56.902C160.272 56.902 159.278 58.092 159.166 59.17L160.818 59.52C160.874 58.918 161.322 58.4 162.134 58.4C162.918 58.4 163.296 58.806 163.296 59.296C163.296 59.534 163.17 59.73 162.778 59.786L161.084 60.038C159.936 60.206 159.026 60.892 159.026 62.124ZM161.784 62.81C161.182 62.81 160.888 62.418 160.888 62.012C160.888 61.48 161.266 61.214 161.742 61.144L163.296 60.906V61.214C163.296 62.432 162.568 62.81 161.784 62.81ZM168.828 64V53.864H166.966V64H168.828ZM175.91 64V59.968C175.91 59.212 176.386 58.61 177.198 58.61C178.038 58.61 178.416 59.17 178.416 59.912V64H180.264V59.968C180.264 59.226 180.74 58.61 181.538 58.61C182.392 58.61 182.756 59.17 182.756 59.912V64H184.562V59.534C184.562 57.686 183.344 56.916 182.07 56.916C181.16 56.916 180.432 57.224 179.886 58.064C179.536 57.322 178.78 56.916 177.842 56.916C177.086 56.916 176.204 57.28 175.826 57.952V57.112H174.048V64H175.91ZM187.849 59.772C187.891 59.142 188.423 58.414 189.389 58.414C190.453 58.414 190.901 59.086 190.929 59.772H187.849ZM191.111 61.564C190.887 62.18 190.411 62.614 189.543 62.614C188.619 62.614 187.849 61.956 187.807 61.046H192.735C192.735 61.018 192.763 60.738 192.763 60.472C192.763 58.26 191.489 56.902 189.361 56.902C187.597 56.902 185.973 58.33 185.973 60.528C185.973 62.852 187.639 64.21 189.529 64.21C191.223 64.21 192.315 63.216 192.665 62.026L191.111 61.564ZM193.793 62.082C193.877 62.866 194.591 64.21 196.663 64.21C198.469 64.21 199.337 63.062 199.337 61.942C199.337 60.934 198.651 60.108 197.293 59.828L196.313 59.618C195.935 59.548 195.683 59.338 195.683 59.002C195.683 58.61 196.075 58.316 196.565 58.316C197.349 58.316 197.643 58.834 197.699 59.24L199.253 58.89C199.169 58.148 198.511 56.902 196.551 56.902C195.067 56.902 193.975 57.924 193.975 59.156C193.975 60.122 194.577 60.92 195.907 61.214L196.817 61.424C197.349 61.536 197.559 61.788 197.559 62.096C197.559 62.46 197.265 62.782 196.649 62.782C195.837 62.782 195.431 62.278 195.389 61.732L193.793 62.082ZM200.383 62.082C200.467 62.866 201.181 64.21 203.253 64.21C205.059 64.21 205.927 63.062 205.927 61.942C205.927 60.934 205.241 60.108 203.883 59.828L202.903 59.618C202.525 59.548 202.273 59.338 202.273 59.002C202.273 58.61 202.665 58.316 203.155 58.316C203.939 58.316 204.233 58.834 204.289 59.24L205.843 58.89C205.759 58.148 205.101 56.902 203.141 56.902C201.657 56.902 200.565 57.924 200.565 59.156C200.565 60.122 201.167 60.92 202.497 61.214L203.407 61.424C203.939 61.536 204.149 61.788 204.149 62.096C204.149 62.46 203.855 62.782 203.239 62.782C202.427 62.782 202.021 62.278 201.979 61.732L200.383 62.082ZM207.028 62.124C207.028 63.202 207.924 64.196 209.394 64.196C210.416 64.196 211.074 63.72 211.424 63.174C211.424 63.44 211.452 63.818 211.494 64H213.202C213.16 63.762 213.118 63.272 213.118 62.908V59.52C213.118 58.134 212.306 56.902 210.122 56.902C208.274 56.902 207.28 58.092 207.168 59.17L208.82 59.52C208.876 58.918 209.324 58.4 210.136 58.4C210.92 58.4 211.298 58.806 211.298 59.296C211.298 59.534 211.172 59.73 210.78 59.786L209.086 60.038C207.938 60.206 207.028 60.892 207.028 62.124ZM209.786 62.81C209.184 62.81 208.89 62.418 208.89 62.012C208.89 61.48 209.268 61.214 209.744 61.144L211.298 60.906V61.214C211.298 62.432 210.57 62.81 209.786 62.81ZM214.562 64.378C214.758 65.694 216.018 66.87 217.908 66.87C220.498 66.87 221.52 65.148 221.52 63.258V57.112H219.728V57.924C219.49 57.462 218.86 56.986 217.768 56.986C215.878 56.986 214.562 58.526 214.562 60.346C214.562 62.278 215.934 63.692 217.768 63.692C218.762 63.692 219.406 63.258 219.686 62.81V63.314C219.686 64.644 219.028 65.232 217.852 65.232C216.97 65.232 216.368 64.686 216.242 63.93L214.562 64.378ZM218.09 62.096C217.124 62.096 216.438 61.424 216.438 60.346C216.438 59.282 217.166 58.61 218.09 58.61C218.986 58.61 219.714 59.282 219.714 60.346C219.714 61.41 219.042 62.096 218.09 62.096ZM224.873 59.772C224.915 59.142 225.447 58.414 226.413 58.414C227.477 58.414 227.925 59.086 227.953 59.772H224.873ZM228.135 61.564C227.911 62.18 227.435 62.614 226.567 62.614C225.643 62.614 224.873 61.956 224.831 61.046H229.759C229.759 61.018 229.787 60.738 229.787 60.472C229.787 58.26 228.513 56.902 226.385 56.902C224.621 56.902 222.997 58.33 222.997 60.528C222.997 62.852 224.663 64.21 226.553 64.21C228.247 64.21 229.339 63.216 229.689 62.026L228.135 61.564Z" fill="#252A31"/>
<path d="M90.26 79.348V78.074H82.252V79.348H85.57V88H86.942V79.348H90.26ZM92.8292 84.038C92.8572 83.044 93.3892 82.26 94.3972 82.26C95.5732 82.26 95.9652 83.016 95.9652 83.954V88H97.2812V83.73C97.2812 82.232 96.4832 81.07 94.8732 81.07C94.1032 81.07 93.3192 81.336 92.8292 82.05V77.864H91.5132V88H92.8292V84.038ZM100.286 83.94C100.342 83.072 101.014 82.218 102.12 82.218C103.31 82.218 103.94 82.974 103.968 83.94H100.286ZM104.164 85.69C103.912 86.446 103.366 87.048 102.274 87.048C101.14 87.048 100.272 86.208 100.244 85.004H105.312C105.326 84.92 105.34 84.752 105.34 84.584C105.34 82.484 104.178 81.056 102.106 81.056C100.412 81.056 98.8855 82.498 98.8855 84.612C98.8855 86.894 100.468 88.21 102.274 88.21C103.842 88.21 104.92 87.272 105.298 86.082L104.164 85.69ZM111.819 88V83.94C111.819 82.932 112.449 82.232 113.387 82.232C114.395 82.232 114.815 82.904 114.815 83.772V88H116.131V83.926C116.131 82.96 116.761 82.232 117.685 82.232C118.679 82.232 119.113 82.89 119.113 83.772V88H120.415V83.632C120.415 81.868 119.267 81.07 118.091 81.07C117.237 81.07 116.369 81.378 115.837 82.344C115.473 81.476 114.661 81.07 113.821 81.07C113.037 81.07 112.197 81.42 111.777 82.162V81.266H110.517V88H111.819ZM122.018 86.194C122.018 87.258 122.9 88.21 124.272 88.21C125.476 88.21 126.148 87.566 126.442 87.09C126.442 87.58 126.484 87.832 126.512 88H127.8C127.772 87.832 127.716 87.482 127.716 86.894V83.52C127.716 82.204 126.932 81.056 124.916 81.056C123.46 81.056 122.298 81.952 122.158 83.24L123.418 83.534C123.502 82.75 124.02 82.176 124.944 82.176C125.966 82.176 126.4 82.722 126.4 83.38C126.4 83.618 126.288 83.828 125.882 83.884L124.062 84.15C122.9 84.318 122.018 84.99 122.018 86.194ZM124.454 87.104C123.782 87.104 123.362 86.628 123.362 86.124C123.362 85.522 123.782 85.2 124.342 85.116L126.4 84.808V85.116C126.4 86.586 125.532 87.104 124.454 87.104ZM131.096 88V81.266H129.794V88H131.096ZM129.5 78.718C129.5 79.236 129.92 79.656 130.438 79.656C130.97 79.656 131.39 79.236 131.39 78.718C131.39 78.186 130.97 77.766 130.438 77.766C129.92 77.766 129.5 78.186 129.5 78.718ZM134.542 84.108C134.542 83.086 135.074 82.26 136.11 82.26C137.286 82.26 137.678 83.016 137.678 83.954V88H138.994V83.73C138.994 82.232 138.196 81.07 136.586 81.07C135.802 81.07 135.004 81.392 134.514 82.232V81.266H133.226V88H134.542V84.108ZM145.47 84.612C145.47 83.226 146.254 82.246 147.458 82.246C148.662 82.246 149.39 83.198 149.39 84.584C149.39 85.97 148.648 87.02 147.444 87.02C146.184 87.02 145.47 85.998 145.47 84.612ZM149.404 87.09C149.404 87.496 149.446 87.846 149.474 88H150.748C150.734 87.888 150.678 87.398 150.678 86.754V77.864H149.376V82.218C149.152 81.672 148.508 81.084 147.318 81.084C145.414 81.084 144.126 82.708 144.126 84.612C144.126 86.614 145.344 88.182 147.318 88.182C148.368 88.182 149.082 87.622 149.404 86.978V87.09ZM153.77 83.94C153.826 83.072 154.498 82.218 155.604 82.218C156.794 82.218 157.424 82.974 157.452 83.94H153.77ZM157.648 85.69C157.396 86.446 156.85 87.048 155.758 87.048C154.624 87.048 153.756 86.208 153.728 85.004H158.796C158.81 84.92 158.824 84.752 158.824 84.584C158.824 82.484 157.662 81.056 155.59 81.056C153.896 81.056 152.37 82.498 152.37 84.612C152.37 86.894 153.952 88.21 155.758 88.21C157.326 88.21 158.404 87.272 158.782 86.082L157.648 85.69ZM159.942 86.25C160.054 87.02 160.838 88.21 162.686 88.21C164.352 88.21 165.15 87.076 165.15 86.124C165.15 85.13 164.506 84.388 163.288 84.122L162.196 83.884C161.678 83.772 161.426 83.478 161.426 83.072C161.426 82.61 161.874 82.176 162.546 82.176C163.61 82.176 163.89 82.946 163.946 83.296L165.108 82.862C164.968 82.26 164.394 81.056 162.546 81.056C161.23 81.056 160.152 82.036 160.152 83.184C160.152 84.136 160.782 84.85 161.832 85.074L162.98 85.326C163.54 85.452 163.848 85.774 163.848 86.194C163.848 86.67 163.442 87.09 162.7 87.09C161.748 87.09 161.216 86.53 161.132 85.83L159.942 86.25ZM169.785 82.274C170.933 82.274 171.423 83.044 171.591 83.702L172.781 83.198C172.501 82.176 171.577 81.056 169.785 81.056C167.867 81.056 166.397 82.526 166.397 84.626C166.397 86.67 167.839 88.21 169.799 88.21C171.549 88.21 172.515 87.076 172.837 86.11L171.675 85.606C171.521 86.138 171.059 86.992 169.799 86.992C168.707 86.992 167.741 86.166 167.741 84.626C167.741 83.058 168.721 82.274 169.785 82.274ZM178.13 81.196C178.06 81.182 177.878 81.154 177.696 81.154C177.01 81.154 176.17 81.406 175.68 82.442V81.266H174.392V88H175.708V84.626C175.708 83.142 176.45 82.554 177.556 82.554C177.738 82.554 177.934 82.568 178.13 82.596V81.196ZM180.78 88V81.266H179.478V88H180.78ZM179.184 78.718C179.184 79.236 179.604 79.656 180.122 79.656C180.654 79.656 181.074 79.236 181.074 78.718C181.074 78.186 180.654 77.766 180.122 77.766C179.604 77.766 179.184 78.186 179.184 78.718ZM184.212 90.66V87.09C184.576 87.692 185.36 88.182 186.396 88.182C188.37 88.182 189.532 86.628 189.532 84.626C189.532 82.666 188.454 81.112 186.438 81.112C185.346 81.112 184.548 81.644 184.184 82.316V81.266H182.91V90.66H184.212ZM188.188 84.626C188.188 86.012 187.418 87.006 186.2 87.006C184.996 87.006 184.198 86.012 184.198 84.626C184.198 83.282 184.996 82.274 186.2 82.274C187.432 82.274 188.188 83.282 188.188 84.626ZM192.947 79.138H191.743V80.23C191.743 80.818 191.435 81.266 190.707 81.266H190.343V82.456H191.631V86.152C191.631 87.37 192.359 88.07 193.507 88.07C193.955 88.07 194.291 87.986 194.403 87.944V86.824C194.291 86.852 194.053 86.88 193.885 86.88C193.199 86.88 192.947 86.572 192.947 85.956V82.456H194.403V81.266H192.947V79.138ZM197.268 88V81.266H195.966V88H197.268ZM195.672 78.718C195.672 79.236 196.092 79.656 196.61 79.656C197.142 79.656 197.562 79.236 197.562 78.718C197.562 78.186 197.142 77.766 196.61 77.766C196.092 77.766 195.672 78.186 195.672 78.718ZM202.394 87.034C201.274 87.034 200.294 86.194 200.294 84.626C200.294 83.072 201.274 82.232 202.394 82.232C203.514 82.232 204.494 83.072 204.494 84.626C204.494 86.194 203.514 87.034 202.394 87.034ZM202.394 81.056C200.378 81.056 198.95 82.582 198.95 84.626C198.95 86.684 200.378 88.21 202.394 88.21C204.41 88.21 205.838 86.684 205.838 84.626C205.838 82.582 204.41 81.056 202.394 81.056ZM208.835 84.108C208.835 83.086 209.367 82.26 210.403 82.26C211.579 82.26 211.971 83.016 211.971 83.954V88H213.287V83.73C213.287 82.232 212.489 81.07 210.879 81.07C210.095 81.07 209.297 81.392 208.807 82.232V81.266H207.519V88H208.835V84.108ZM220.169 88V83.94C220.169 82.932 220.799 82.232 221.737 82.232C222.745 82.232 223.165 82.904 223.165 83.772V88H224.481V83.926C224.481 82.96 225.111 82.232 226.035 82.232C227.029 82.232 227.463 82.89 227.463 83.772V88H228.765V83.632C228.765 81.868 227.617 81.07 226.441 81.07C225.587 81.07 224.719 81.378 224.187 82.344C223.823 81.476 223.011 81.07 222.171 81.07C221.387 81.07 220.547 81.42 220.127 82.162V81.266H218.867V88H220.169ZM231.768 83.94C231.824 83.072 232.496 82.218 233.602 82.218C234.792 82.218 235.422 82.974 235.45 83.94H231.768ZM235.646 85.69C235.394 86.446 234.848 87.048 233.756 87.048C232.622 87.048 231.754 86.208 231.726 85.004H236.794C236.808 84.92 236.822 84.752 236.822 84.584C236.822 82.484 235.66 81.056 233.588 81.056C231.894 81.056 230.368 82.498 230.368 84.612C230.368 86.894 231.95 88.21 233.756 88.21C235.324 88.21 236.402 87.272 236.78 86.082L235.646 85.69ZM237.94 86.25C238.052 87.02 238.836 88.21 240.684 88.21C242.35 88.21 243.148 87.076 243.148 86.124C243.148 85.13 242.504 84.388 241.286 84.122L240.194 83.884C239.676 83.772 239.424 83.478 239.424 83.072C239.424 82.61 239.872 82.176 240.544 82.176C241.608 82.176 241.888 82.946 241.944 83.296L243.106 82.862C242.966 82.26 242.392 81.056 240.544 81.056C239.228 81.056 238.15 82.036 238.15 83.184C238.15 84.136 238.78 84.85 239.83 85.074L240.978 85.326C241.538 85.452 241.846 85.774 241.846 86.194C241.846 86.67 241.44 87.09 240.698 87.09C239.746 87.09 239.214 86.53 239.13 85.83L237.94 86.25ZM244.311 86.25C244.423 87.02 245.207 88.21 247.055 88.21C248.721 88.21 249.519 87.076 249.519 86.124C249.519 85.13 248.875 84.388 247.657 84.122L246.565 83.884C246.047 83.772 245.795 83.478 245.795 83.072C245.795 82.61 246.243 82.176 246.915 82.176C247.979 82.176 248.259 82.946 248.315 83.296L249.477 82.862C249.337 82.26 248.763 81.056 246.915 81.056C245.599 81.056 244.521 82.036 244.521 83.184C244.521 84.136 245.151 84.85 246.201 85.074L247.349 85.326C247.909 85.452 248.217 85.774 248.217 86.194C248.217 86.67 247.811 87.09 247.069 87.09C246.117 87.09 245.585 86.53 245.501 85.83L244.311 86.25ZM250.766 86.194C250.766 87.258 251.648 88.21 253.02 88.21C254.224 88.21 254.896 87.566 255.19 87.09C255.19 87.58 255.232 87.832 255.26 88H256.548C256.52 87.832 256.464 87.482 256.464 86.894V83.52C256.464 82.204 255.68 81.056 253.664 81.056C252.208 81.056 251.046 81.952 250.906 83.24L252.166 83.534C252.25 82.75 252.768 82.176 253.692 82.176C254.714 82.176 255.148 82.722 255.148 83.38C255.148 83.618 255.036 83.828 254.63 83.884L252.81 84.15C251.648 84.318 250.766 84.99 250.766 86.194ZM253.202 87.104C252.53 87.104 252.11 86.628 252.11 86.124C252.11 85.522 252.53 85.2 253.09 85.116L255.148 84.808V85.116C255.148 86.586 254.28 87.104 253.202 87.104ZM258.095 88.364C258.263 89.806 259.523 90.87 261.203 90.87C263.737 90.87 264.577 89.204 264.577 87.496V81.266H263.275V82.204C262.939 81.532 262.239 81.14 261.203 81.14C259.355 81.14 258.109 82.596 258.109 84.416C258.109 86.32 259.411 87.678 261.203 87.678C262.211 87.678 262.939 87.188 263.261 86.572V87.538C263.261 88.994 262.617 89.722 261.203 89.722C260.181 89.722 259.467 89.008 259.369 88.07L258.095 88.364ZM261.399 86.572C260.209 86.572 259.453 85.732 259.453 84.416C259.453 83.114 260.237 82.26 261.399 82.26C262.533 82.26 263.317 83.114 263.317 84.416C263.317 85.718 262.533 86.572 261.399 86.572ZM267.657 83.94C267.713 83.072 268.385 82.218 269.491 82.218C270.681 82.218 271.311 82.974 271.339 83.94H267.657ZM271.535 85.69C271.283 86.446 270.737 87.048 269.645 87.048C268.511 87.048 267.643 86.208 267.615 85.004H272.683C272.697 84.92 272.711 84.752 272.711 84.584C272.711 82.484 271.549 81.056 269.477 81.056C267.783 81.056 266.257 82.498 266.257 84.612C266.257 86.894 267.839 88.21 269.645 88.21C271.213 88.21 272.291 87.272 272.669 86.082L271.535 85.69ZM280.884 87.034C279.764 87.034 278.784 86.194 278.784 84.626C278.784 83.072 279.764 82.232 280.884 82.232C282.004 82.232 282.984 83.072 282.984 84.626C282.984 86.194 282.004 87.034 280.884 87.034ZM280.884 81.056C278.868 81.056 277.44 82.582 277.44 84.626C277.44 86.684 278.868 88.21 280.884 88.21C282.9 88.21 284.328 86.684 284.328 84.626C284.328 82.582 282.9 81.056 280.884 81.056ZM289.414 82.456V81.266H287.79V80.202C287.79 79.278 288.392 79.054 288.854 79.054C289.19 79.054 289.358 79.11 289.428 79.138V77.962C289.372 77.92 289.092 77.822 288.644 77.822C287.426 77.822 286.432 78.634 286.432 80.132V81.266H285.186V82.456H286.432V88H287.79V82.456H289.414ZM295.568 79.138H294.364V80.23C294.364 80.818 294.056 81.266 293.328 81.266H292.964V82.456H294.252V86.152C294.252 87.37 294.98 88.07 296.128 88.07C296.576 88.07 296.912 87.986 297.024 87.944V86.824C296.912 86.852 296.674 86.88 296.506 86.88C295.82 86.88 295.568 86.572 295.568 85.956V82.456H297.024V81.266H295.568V79.138ZM299.903 84.038C299.931 83.044 300.463 82.26 301.471 82.26C302.647 82.26 303.039 83.016 303.039 83.954V88H304.355V83.73C304.355 82.232 303.557 81.07 301.947 81.07C301.177 81.07 300.393 81.336 299.903 82.05V77.864H298.587V88H299.903V84.038ZM307.71 88V81.266H306.408V88H307.71ZM306.114 78.718C306.114 79.236 306.534 79.656 307.052 79.656C307.584 79.656 308.004 79.236 308.004 78.718C308.004 78.186 307.584 77.766 307.052 77.766C306.534 77.766 306.114 78.186 306.114 78.718ZM309.307 86.25C309.419 87.02 310.203 88.21 312.051 88.21C313.717 88.21 314.515 87.076 314.515 86.124C314.515 85.13 313.871 84.388 312.653 84.122L311.561 83.884C311.043 83.772 310.791 83.478 310.791 83.072C310.791 82.61 311.239 82.176 311.911 82.176C312.975 82.176 313.255 82.946 313.311 83.296L314.473 82.862C314.333 82.26 313.759 81.056 311.911 81.056C310.595 81.056 309.517 82.036 309.517 83.184C309.517 84.136 310.147 84.85 311.197 85.074L312.345 85.326C312.905 85.452 313.213 85.774 313.213 86.194C313.213 86.67 312.807 87.09 312.065 87.09C311.113 87.09 310.581 86.53 310.497 85.83L309.307 86.25ZM326.496 88H327.98L324.032 78.074H322.45L318.502 88H319.972L321.022 85.228H325.418L326.496 88ZM323.206 79.502L324.928 83.954H321.512L323.206 79.502ZM330.597 88V77.864H329.281V88H330.597ZM333.678 83.94C333.734 83.072 334.406 82.218 335.512 82.218C336.702 82.218 337.332 82.974 337.36 83.94H333.678ZM337.556 85.69C337.304 86.446 336.758 87.048 335.666 87.048C334.532 87.048 333.664 86.208 333.636 85.004H338.704C338.718 84.92 338.732 84.752 338.732 84.584C338.732 82.484 337.57 81.056 335.498 81.056C333.804 81.056 332.278 82.498 332.278 84.612C332.278 86.894 333.86 88.21 335.666 88.21C337.234 88.21 338.312 87.272 338.69 86.082L337.556 85.69ZM344.12 81.196C344.05 81.182 343.868 81.154 343.686 81.154C343 81.154 342.16 81.406 341.67 82.442V81.266H340.382V88H341.698V84.626C341.698 83.142 342.44 82.554 343.546 82.554C343.728 82.554 343.924 82.568 344.12 82.596V81.196ZM347.302 79.138H346.098V80.23C346.098 80.818 345.79 81.266 345.062 81.266H344.698V82.456H345.986V86.152C345.986 87.37 346.714 88.07 347.862 88.07C348.31 88.07 348.646 87.986 348.758 87.944V86.824C348.646 86.852 348.408 86.88 348.24 86.88C347.554 86.88 347.302 86.572 347.302 85.956V82.456H348.758V81.266H347.302V79.138ZM356.789 82.274C357.937 82.274 358.427 83.044 358.595 83.702L359.785 83.198C359.505 82.176 358.581 81.056 356.789 81.056C354.871 81.056 353.401 82.526 353.401 84.626C353.401 86.67 354.843 88.21 356.803 88.21C358.553 88.21 359.519 87.076 359.841 86.11L358.679 85.606C358.525 86.138 358.063 86.992 356.803 86.992C355.711 86.992 354.745 86.166 354.745 84.626C354.745 83.058 355.725 82.274 356.789 82.274ZM364.392 87.034C363.272 87.034 362.292 86.194 362.292 84.626C362.292 83.072 363.272 82.232 364.392 82.232C365.512 82.232 366.492 83.072 366.492 84.626C366.492 86.194 365.512 87.034 364.392 87.034ZM364.392 81.056C362.376 81.056 360.948 82.582 360.948 84.626C360.948 86.684 362.376 88.21 364.392 88.21C366.408 88.21 367.836 86.684 367.836 84.626C367.836 82.582 366.408 81.056 364.392 81.056ZM370.819 88V83.94C370.819 82.932 371.449 82.232 372.387 82.232C373.395 82.232 373.815 82.904 373.815 83.772V88H375.131V83.926C375.131 82.96 375.761 82.232 376.685 82.232C377.679 82.232 378.113 82.89 378.113 83.772V88H379.415V83.632C379.415 81.868 378.267 81.07 377.091 81.07C376.237 81.07 375.369 81.378 374.837 82.344C374.473 81.476 373.661 81.07 372.821 81.07C372.037 81.07 371.197 81.42 370.777 82.162V81.266H369.517V88H370.819ZM382.768 90.66V87.09C383.132 87.692 383.916 88.182 384.952 88.182C386.926 88.182 388.088 86.628 388.088 84.626C388.088 82.666 387.01 81.112 384.994 81.112C383.902 81.112 383.104 81.644 382.74 82.316V81.266H381.466V90.66H382.768ZM386.744 84.626C386.744 86.012 385.974 87.006 384.756 87.006C383.552 87.006 382.754 86.012 382.754 84.626C382.754 83.282 383.552 82.274 384.756 82.274C385.988 82.274 386.744 83.282 386.744 84.626ZM392.775 87.034C391.655 87.034 390.675 86.194 390.675 84.626C390.675 83.072 391.655 82.232 392.775 82.232C393.895 82.232 394.875 83.072 394.875 84.626C394.875 86.194 393.895 87.034 392.775 87.034ZM392.775 81.056C390.759 81.056 389.331 82.582 389.331 84.626C389.331 86.684 390.759 88.21 392.775 88.21C394.791 88.21 396.219 86.684 396.219 84.626C396.219 82.582 394.791 81.056 392.775 81.056ZM399.216 84.108C399.216 83.086 399.748 82.26 400.784 82.26C401.96 82.26 402.352 83.016 402.352 83.954V88H403.668V83.73C403.668 82.232 402.87 81.07 401.26 81.07C400.476 81.07 399.678 81.392 399.188 82.232V81.266H397.9V88H399.216V84.108ZM406.672 83.94C406.728 83.072 407.4 82.218 408.506 82.218C409.696 82.218 410.326 82.974 410.354 83.94H406.672ZM410.55 85.69C410.298 86.446 409.752 87.048 408.66 87.048C407.526 87.048 406.658 86.208 406.63 85.004H411.698C411.712 84.92 411.726 84.752 411.726 84.584C411.726 82.484 410.564 81.056 408.492 81.056C406.798 81.056 405.272 82.498 405.272 84.612C405.272 86.894 406.854 88.21 408.66 88.21C410.228 88.21 411.306 87.272 411.684 86.082L410.55 85.69ZM414.693 84.108C414.693 83.086 415.225 82.26 416.261 82.26C417.437 82.26 417.829 83.016 417.829 83.954V88H419.145V83.73C419.145 82.232 418.347 81.07 416.737 81.07C415.953 81.07 415.155 81.392 414.665 82.232V81.266H413.377V88H414.693V84.108ZM422.976 79.138H421.772V80.23C421.772 80.818 421.464 81.266 420.736 81.266H420.372V82.456H421.66V86.152C421.66 87.37 422.388 88.07 423.536 88.07C423.984 88.07 424.32 87.986 424.432 87.944V86.824C424.32 86.852 424.082 86.88 423.914 86.88C423.228 86.88 422.976 86.572 422.976 85.956V82.456H424.432V81.266H422.976V79.138ZM428.991 86.25C429.103 87.02 429.887 88.21 431.735 88.21C433.401 88.21 434.199 87.076 434.199 86.124C434.199 85.13 433.555 84.388 432.337 84.122L431.245 83.884C430.727 83.772 430.475 83.478 430.475 83.072C430.475 82.61 430.923 82.176 431.595 82.176C432.659 82.176 432.939 82.946 432.995 83.296L434.157 82.862C434.017 82.26 433.443 81.056 431.595 81.056C430.279 81.056 429.201 82.036 429.201 83.184C429.201 84.136 429.831 84.85 430.881 85.074L432.029 85.326C432.589 85.452 432.897 85.774 432.897 86.194C432.897 86.67 432.491 87.09 431.749 87.09C430.797 87.09 430.265 86.53 430.181 85.83L428.991 86.25ZM437.21 84.038C437.238 83.044 437.77 82.26 438.778 82.26C439.954 82.26 440.346 83.016 440.346 83.954V88H441.662V83.73C441.662 82.232 440.864 81.07 439.254 81.07C438.484 81.07 437.7 81.336 437.21 82.05V77.864H435.894V88H437.21V84.038ZM446.71 87.034C445.59 87.034 444.61 86.194 444.61 84.626C444.61 83.072 445.59 82.232 446.71 82.232C447.83 82.232 448.81 83.072 448.81 84.626C448.81 86.194 447.83 87.034 446.71 87.034ZM446.71 81.056C444.694 81.056 443.266 82.582 443.266 84.626C443.266 86.684 444.694 88.21 446.71 88.21C448.726 88.21 450.154 86.684 450.154 84.626C450.154 82.582 448.726 81.056 446.71 81.056ZM456.273 87.188C456.273 87.468 456.301 87.846 456.329 88H457.589C457.561 87.762 457.519 87.286 457.519 86.754V81.266H456.203V85.326C456.203 86.348 455.671 87.048 454.607 87.048C453.501 87.048 453.081 86.236 453.081 85.312V81.266H451.765V85.508C451.765 87.034 452.717 88.21 454.285 88.21C455.069 88.21 455.909 87.888 456.273 87.188ZM460.972 88V77.864H459.656V88H460.972ZM463.997 84.612C463.997 83.226 464.781 82.246 465.985 82.246C467.189 82.246 467.917 83.198 467.917 84.584C467.917 85.97 467.175 87.02 465.971 87.02C464.711 87.02 463.997 85.998 463.997 84.612ZM467.931 87.09C467.931 87.496 467.973 87.846 468.001 88H469.275C469.261 87.888 469.205 87.398 469.205 86.754V77.864H467.903V82.218C467.679 81.672 467.035 81.084 465.845 81.084C463.941 81.084 462.653 82.708 462.653 84.612C462.653 86.614 463.871 88.182 465.845 88.182C466.895 88.182 467.609 87.622 467.931 86.978V87.09ZM476.175 88V87.02C476.595 87.748 477.365 88.182 478.359 88.182C480.361 88.182 481.495 86.6 481.495 84.598C481.495 82.638 480.445 81.07 478.401 81.07C477.281 81.07 476.497 81.616 476.175 82.218V77.864H474.873V88H476.175ZM480.151 84.598C480.151 86.054 479.367 87.006 478.163 87.006C477.001 87.006 476.161 86.054 476.161 84.598C476.161 83.142 477.001 82.232 478.163 82.232C479.381 82.232 480.151 83.142 480.151 84.598ZM484.137 83.94C484.193 83.072 484.865 82.218 485.971 82.218C487.161 82.218 487.791 82.974 487.819 83.94H484.137ZM488.015 85.69C487.763 86.446 487.217 87.048 486.125 87.048C484.991 87.048 484.123 86.208 484.095 85.004H489.163C489.177 84.92 489.191 84.752 489.191 84.584C489.191 82.484 488.029 81.056 485.957 81.056C484.263 81.056 482.737 82.498 482.737 84.612C482.737 86.894 484.319 88.21 486.125 88.21C487.693 88.21 488.771 87.272 489.149 86.082L488.015 85.69ZM495.671 90.66V87.09C496.035 87.692 496.819 88.182 497.855 88.182C499.829 88.182 500.991 86.628 500.991 84.626C500.991 82.666 499.913 81.112 497.897 81.112C496.805 81.112 496.007 81.644 495.643 82.316V81.266H494.369V90.66H495.671ZM499.647 84.626C499.647 86.012 498.877 87.006 497.659 87.006C496.455 87.006 495.657 86.012 495.657 84.626C495.657 83.282 496.455 82.274 497.659 82.274C498.891 82.274 499.647 83.282 499.647 84.626ZM503.997 88V77.864H502.681V88H503.997ZM505.679 86.194C505.679 87.258 506.561 88.21 507.933 88.21C509.137 88.21 509.809 87.566 510.103 87.09C510.103 87.58 510.145 87.832 510.173 88H511.461C511.433 87.832 511.377 87.482 511.377 86.894V83.52C511.377 82.204 510.593 81.056 508.577 81.056C507.12 81.056 505.959 81.952 505.819 83.24L507.079 83.534C507.163 82.75 507.681 82.176 508.605 82.176C509.627 82.176 510.061 82.722 510.061 83.38C510.061 83.618 509.949 83.828 509.543 83.884L507.723 84.15C506.561 84.318 505.679 84.99 505.679 86.194ZM508.115 87.104C507.443 87.104 507.023 86.628 507.023 86.124C507.023 85.522 507.443 85.2 508.003 85.116L510.061 84.808V85.116C510.061 86.586 509.193 87.104 508.115 87.104ZM516.395 82.274C517.543 82.274 518.033 83.044 518.201 83.702L519.391 83.198C519.111 82.176 518.187 81.056 516.395 81.056C514.477 81.056 513.007 82.526 513.007 84.626C513.007 86.67 514.449 88.21 516.409 88.21C518.159 88.21 519.125 87.076 519.447 86.11L518.285 85.606C518.131 86.138 517.669 86.992 516.409 86.992C515.317 86.992 514.351 86.166 514.351 84.626C514.351 83.058 515.331 82.274 516.395 82.274ZM521.954 83.94C522.01 83.072 522.682 82.218 523.788 82.218C524.978 82.218 525.608 82.974 525.636 83.94H521.954ZM525.832 85.69C525.58 86.446 525.034 87.048 523.942 87.048C522.808 87.048 521.94 86.208 521.912 85.004H526.98C526.994 84.92 527.007 84.752 527.007 84.584C527.007 82.484 525.846 81.056 523.774 81.056C522.08 81.056 520.554 82.498 520.554 84.612C520.554 86.894 522.136 88.21 523.942 88.21C525.51 88.21 526.588 87.272 526.966 86.082L525.832 85.69ZM529.554 84.612C529.554 83.226 530.338 82.246 531.542 82.246C532.746 82.246 533.474 83.198 533.474 84.584C533.474 85.97 532.732 87.02 531.528 87.02C530.268 87.02 529.554 85.998 529.554 84.612ZM533.488 87.09C533.488 87.496 533.53 87.846 533.558 88H534.832C534.818 87.888 534.762 87.398 534.762 86.754V77.864H533.46V82.218C533.236 81.672 532.592 81.084 531.402 81.084C529.498 81.084 528.21 82.708 528.21 84.612C528.21 86.614 529.428 88.182 531.402 88.182C532.452 88.182 533.166 87.622 533.488 86.978V87.09ZM84.38 104.038C84.408 103.044 84.94 102.26 85.948 102.26C87.124 102.26 87.516 103.016 87.516 103.954V108H88.832V103.73C88.832 102.232 88.034 101.07 86.424 101.07C85.654 101.07 84.87 101.336 84.38 102.05V97.864H83.064V108H84.38V104.038ZM91.8363 103.94C91.8923 103.072 92.5643 102.218 93.6703 102.218C94.8603 102.218 95.4903 102.974 95.5183 103.94H91.8363ZM95.7143 105.69C95.4623 106.446 94.9163 107.048 93.8243 107.048C92.6903 107.048 91.8223 106.208 91.7943 105.004H96.8623C96.8763 104.92 96.8903 104.752 96.8903 104.584C96.8903 102.484 95.7283 101.056 93.6563 101.056C91.9623 101.056 90.4363 102.498 90.4363 104.612C90.4363 106.894 92.0183 108.21 93.8243 108.21C95.3923 108.21 96.4703 107.272 96.8483 106.082L95.7143 105.69ZM102.279 101.196C102.209 101.182 102.027 101.154 101.845 101.154C101.159 101.154 100.319 101.406 99.8286 102.442V101.266H98.5406V108H99.8566V104.626C99.8566 103.142 100.599 102.554 101.705 102.554C101.887 102.554 102.083 102.568 102.279 102.596V101.196ZM104.455 103.94C104.511 103.072 105.183 102.218 106.289 102.218C107.479 102.218 108.109 102.974 108.137 103.94H104.455ZM108.333 105.69C108.081 106.446 107.535 107.048 106.443 107.048C105.309 107.048 104.441 106.208 104.413 105.004H109.481C109.495 104.92 109.509 104.752 109.509 104.584C109.509 102.484 108.347 101.056 106.275 101.056C104.581 101.056 103.055 102.498 103.055 104.612C103.055 106.894 104.637 108.21 106.443 108.21C108.011 108.21 109.089 107.272 109.467 106.082L108.333 105.69ZM110.894 107.104C110.894 107.65 111.314 108.07 111.86 108.07C112.406 108.07 112.84 107.65 112.84 107.104C112.84 106.558 112.406 106.124 111.86 106.124C111.314 106.124 110.894 106.558 110.894 107.104ZM119.88 108V98.074H118.48V108H119.88ZM125.693 102.456V101.266H124.069V100.202C124.069 99.278 124.671 99.054 125.133 99.054C125.469 99.054 125.637 99.11 125.707 99.138V97.962C125.651 97.92 125.371 97.822 124.923 97.822C123.705 97.822 122.711 98.634 122.711 100.132V101.266H121.465V102.456H122.711V108H124.069V102.456H125.693ZM131.78 110.814L136.162 101.266H134.748L132.732 105.914L130.632 101.266H129.12L132.018 107.258L130.338 110.814H131.78ZM140.214 107.034C139.094 107.034 138.114 106.194 138.114 104.626C138.114 103.072 139.094 102.232 140.214 102.232C141.334 102.232 142.314 103.072 142.314 104.626C142.314 106.194 141.334 107.034 140.214 107.034ZM140.214 101.056C138.198 101.056 136.77 102.582 136.77 104.626C136.77 106.684 138.198 108.21 140.214 108.21C142.23 108.21 143.658 106.684 143.658 104.626C143.658 102.582 142.23 101.056 140.214 101.056ZM149.777 107.188C149.777 107.468 149.805 107.846 149.833 108H151.093C151.065 107.762 151.023 107.286 151.023 106.754V101.266H149.707V105.326C149.707 106.348 149.175 107.048 148.111 107.048C147.005 107.048 146.585 106.236 146.585 105.312V101.266H145.269V105.508C145.269 107.034 146.221 108.21 147.789 108.21C148.573 108.21 149.413 107.888 149.777 107.188ZM158.003 104.108C158.003 103.086 158.535 102.26 159.571 102.26C160.747 102.26 161.139 103.016 161.139 103.954V108H162.455V103.73C162.455 102.232 161.657 101.07 160.047 101.07C159.263 101.07 158.465 101.392 157.975 102.232V101.266H156.687V108H158.003V104.108ZM165.459 103.94C165.515 103.072 166.187 102.218 167.293 102.218C168.483 102.218 169.113 102.974 169.141 103.94H165.459ZM169.337 105.69C169.085 106.446 168.539 107.048 167.447 107.048C166.313 107.048 165.445 106.208 165.417 105.004H170.485C170.499 104.92 170.513 104.752 170.513 104.584C170.513 102.484 169.351 101.056 167.279 101.056C165.585 101.056 164.059 102.498 164.059 104.612C164.059 106.894 165.641 108.21 167.447 108.21C169.015 108.21 170.093 107.272 170.471 106.082L169.337 105.69ZM173.116 103.94C173.172 103.072 173.844 102.218 174.95 102.218C176.14 102.218 176.77 102.974 176.798 103.94H173.116ZM176.994 105.69C176.742 106.446 176.196 107.048 175.104 107.048C173.97 107.048 173.102 106.208 173.074 105.004H178.142C178.156 104.92 178.17 104.752 178.17 104.584C178.17 102.484 177.008 101.056 174.936 101.056C173.242 101.056 171.716 102.498 171.716 104.612C171.716 106.894 173.298 108.21 175.104 108.21C176.672 108.21 177.75 107.272 178.128 106.082L176.994 105.69ZM180.716 104.612C180.716 103.226 181.5 102.246 182.704 102.246C183.908 102.246 184.636 103.198 184.636 104.584C184.636 105.97 183.894 107.02 182.69 107.02C181.43 107.02 180.716 105.998 180.716 104.612ZM184.65 107.09C184.65 107.496 184.692 107.846 184.72 108H185.994C185.98 107.888 185.924 107.398 185.924 106.754V97.864H184.622V102.218C184.398 101.672 183.754 101.084 182.564 101.084C180.66 101.084 179.372 102.708 179.372 104.612C179.372 106.614 180.59 108.182 182.564 108.182C183.614 108.182 184.328 107.622 184.65 106.978V107.09ZM193.166 99.138H191.962V100.23C191.962 100.818 191.654 101.266 190.926 101.266H190.562V102.456H191.85V106.152C191.85 107.37 192.578 108.07 193.726 108.07C194.174 108.07 194.51 107.986 194.622 107.944V106.824C194.51 106.852 194.272 106.88 194.104 106.88C193.418 106.88 193.166 106.572 193.166 105.956V102.456H194.622V101.266H193.166V99.138ZM199.126 107.034C198.006 107.034 197.026 106.194 197.026 104.626C197.026 103.072 198.006 102.232 199.126 102.232C200.246 102.232 201.226 103.072 201.226 104.626C201.226 106.194 200.246 107.034 199.126 107.034ZM199.126 101.056C197.11 101.056 195.682 102.582 195.682 104.626C195.682 106.684 197.11 108.21 199.126 108.21C201.142 108.21 202.57 106.684 202.57 104.626C202.57 102.582 201.142 101.056 199.126 101.056ZM212.217 107.188C212.217 107.468 212.245 107.846 212.273 108H213.533C213.505 107.762 213.463 107.286 213.463 106.754V101.266H212.147V105.326C212.147 106.348 211.615 107.048 210.551 107.048C209.445 107.048 209.025 106.236 209.025 105.312V101.266H207.709V105.508C207.709 107.034 208.661 108.21 210.229 108.21C211.013 108.21 211.853 107.888 212.217 107.188ZM215.067 106.25C215.179 107.02 215.963 108.21 217.811 108.21C219.477 108.21 220.275 107.076 220.275 106.124C220.275 105.13 219.631 104.388 218.413 104.122L217.321 103.884C216.803 103.772 216.551 103.478 216.551 103.072C216.551 102.61 216.999 102.176 217.671 102.176C218.735 102.176 219.015 102.946 219.071 103.296L220.233 102.862C220.093 102.26 219.519 101.056 217.671 101.056C216.355 101.056 215.277 102.036 215.277 103.184C215.277 104.136 215.907 104.85 216.957 105.074L218.105 105.326C218.665 105.452 218.973 105.774 218.973 106.194C218.973 106.67 218.567 107.09 217.825 107.09C216.873 107.09 216.341 106.53 216.257 105.83L215.067 106.25ZM222.922 103.94C222.978 103.072 223.65 102.218 224.756 102.218C225.946 102.218 226.576 102.974 226.604 103.94H222.922ZM226.8 105.69C226.548 106.446 226.002 107.048 224.91 107.048C223.776 107.048 222.908 106.208 222.88 105.004H227.948C227.962 104.92 227.976 104.752 227.976 104.584C227.976 102.484 226.814 101.056 224.742 101.056C223.048 101.056 221.522 102.498 221.522 104.612C221.522 106.894 223.104 108.21 224.91 108.21C226.478 108.21 227.556 107.272 227.934 106.082L226.8 105.69ZM239.94 99.348V98.074H231.932V99.348H235.25V108H236.622V99.348H239.94ZM240.586 103.94C240.642 103.072 241.314 102.218 242.42 102.218C243.61 102.218 244.24 102.974 244.268 103.94H240.586ZM244.464 105.69C244.212 106.446 243.666 107.048 242.574 107.048C241.44 107.048 240.572 106.208 240.544 105.004H245.612C245.626 104.92 245.64 104.752 245.64 104.584C245.64 102.484 244.478 101.056 242.406 101.056C240.712 101.056 239.186 102.498 239.186 104.612C239.186 106.894 240.768 108.21 242.574 108.21C244.142 108.21 245.22 107.272 245.598 106.082L244.464 105.69ZM246.287 108H247.855L249.563 105.522L251.299 108H252.881C252.475 107.454 250.809 105.116 250.403 104.57L252.797 101.266H251.243L249.619 103.632L247.967 101.266H246.371L248.793 104.57L246.287 108ZM256.029 99.138H254.825V100.23C254.825 100.818 254.517 101.266 253.789 101.266H253.425V102.456H254.713V106.152C254.713 107.37 255.441 108.07 256.589 108.07C257.037 108.07 257.373 107.986 257.485 107.944V106.824C257.373 106.852 257.135 106.88 256.967 106.88C256.281 106.88 256.029 106.572 256.029 105.956V102.456H257.485V101.266H256.029V99.138ZM265.376 108V106.712H260.686V98.074H259.314V108H265.376ZM268.007 108V101.266H266.705V108H268.007ZM266.411 98.718C266.411 99.236 266.831 99.656 267.349 99.656C267.881 99.656 268.301 99.236 268.301 98.718C268.301 98.186 267.881 97.766 267.349 97.766C266.831 97.766 266.411 98.186 266.411 98.718ZM271.452 104.108C271.452 103.086 271.984 102.26 273.02 102.26C274.196 102.26 274.588 103.016 274.588 103.954V108H275.904V103.73C275.904 102.232 275.106 101.07 273.496 101.07C272.712 101.07 271.914 101.392 271.424 102.232V101.266H270.136V108H271.452V104.108ZM283.991 101.266H282.171L279.259 104.248V97.864H277.957V108H279.259V105.97L280.197 105.032L282.395 108H284.047L281.121 104.108L283.991 101.266ZM290.155 108V101.266H288.853V108H290.155ZM288.559 98.718C288.559 99.236 288.979 99.656 289.497 99.656C290.029 99.656 290.449 99.236 290.449 98.718C290.449 98.186 290.029 97.766 289.497 97.766C288.979 97.766 288.559 98.186 288.559 98.718ZM293.601 104.108C293.601 103.086 294.133 102.26 295.169 102.26C296.345 102.26 296.737 103.016 296.737 103.954V108H298.053V103.73C298.053 102.232 297.255 101.07 295.645 101.07C294.861 101.07 294.063 101.392 293.573 102.232V101.266H292.285V108H293.601V104.108ZM305.207 99.138H304.003V100.23C304.003 100.818 303.695 101.266 302.967 101.266H302.603V102.456H303.891V106.152C303.891 107.37 304.619 108.07 305.767 108.07C306.215 108.07 306.551 107.986 306.663 107.944V106.824C306.551 106.852 306.313 106.88 306.145 106.88C305.459 106.88 305.207 106.572 305.207 105.956V102.456H306.663V101.266H305.207V99.138ZM309.542 104.038C309.57 103.044 310.102 102.26 311.11 102.26C312.286 102.26 312.678 103.016 312.678 103.954V108H313.994V103.73C313.994 102.232 313.196 101.07 311.586 101.07C310.816 101.07 310.032 101.336 309.542 102.05V97.864H308.226V108H309.542V104.038ZM317.348 108V101.266H316.046V108H317.348ZM315.752 98.718C315.752 99.236 316.172 99.656 316.69 99.656C317.222 99.656 317.642 99.236 317.642 98.718C317.642 98.186 317.222 97.766 316.69 97.766C316.172 97.766 315.752 98.186 315.752 98.718ZM318.946 106.25C319.058 107.02 319.842 108.21 321.69 108.21C323.356 108.21 324.154 107.076 324.154 106.124C324.154 105.13 323.51 104.388 322.292 104.122L321.2 103.884C320.682 103.772 320.43 103.478 320.43 103.072C320.43 102.61 320.878 102.176 321.55 102.176C322.614 102.176 322.894 102.946 322.95 103.296L324.112 102.862C323.972 102.26 323.398 101.056 321.55 101.056C320.234 101.056 319.156 102.036 319.156 103.184C319.156 104.136 319.786 104.85 320.836 105.074L321.984 105.326C322.544 105.452 322.852 105.774 322.852 106.194C322.852 106.67 322.446 107.09 321.704 107.09C320.752 107.09 320.22 106.53 320.136 105.83L318.946 106.25ZM332.317 102.274C333.465 102.274 333.955 103.044 334.123 103.702L335.312 103.198C335.033 102.176 334.109 101.056 332.317 101.056C330.399 101.056 328.929 102.526 328.929 104.626C328.929 106.67 330.37 108.21 332.331 108.21C334.081 108.21 335.047 107.076 335.369 106.11L334.207 105.606C334.053 106.138 333.591 106.992 332.331 106.992C331.239 106.992 330.273 106.166 330.273 104.626C330.273 103.058 331.253 102.274 332.317 102.274ZM339.919 107.034C338.799 107.034 337.819 106.194 337.819 104.626C337.819 103.072 338.799 102.232 339.919 102.232C341.039 102.232 342.019 103.072 342.019 104.626C342.019 106.194 341.039 107.034 339.919 107.034ZM339.919 101.056C337.903 101.056 336.475 102.582 336.475 104.626C336.475 106.684 337.903 108.21 339.919 108.21C341.935 108.21 343.363 106.684 343.363 104.626C343.363 102.582 341.935 101.056 339.919 101.056ZM346.346 108V103.94C346.346 102.932 346.976 102.232 347.914 102.232C348.922 102.232 349.342 102.904 349.342 103.772V108H350.658V103.926C350.658 102.96 351.288 102.232 352.212 102.232C353.206 102.232 353.64 102.89 353.64 103.772V108H354.942V103.632C354.942 101.868 353.794 101.07 352.618 101.07C351.764 101.07 350.896 101.378 350.364 102.344C350 101.476 349.188 101.07 348.348 101.07C347.564 101.07 346.724 101.42 346.304 102.162V101.266H345.044V108H346.346ZM358.296 110.66V107.09C358.66 107.692 359.444 108.182 360.48 108.182C362.454 108.182 363.616 106.628 363.616 104.626C363.616 102.666 362.538 101.112 360.522 101.112C359.43 101.112 358.632 101.644 358.268 102.316V101.266H356.994V110.66H358.296ZM362.272 104.626C362.272 106.012 361.502 107.006 360.284 107.006C359.08 107.006 358.282 106.012 358.282 104.626C358.282 103.282 359.08 102.274 360.284 102.274C361.516 102.274 362.272 103.282 362.272 104.626ZM368.302 107.034C367.182 107.034 366.202 106.194 366.202 104.626C366.202 103.072 367.182 102.232 368.302 102.232C369.422 102.232 370.402 103.072 370.402 104.626C370.402 106.194 369.422 107.034 368.302 107.034ZM368.302 101.056C366.286 101.056 364.858 102.582 364.858 104.626C364.858 106.684 366.286 108.21 368.302 108.21C370.318 108.21 371.746 106.684 371.746 104.626C371.746 102.582 370.318 101.056 368.302 101.056ZM374.743 104.108C374.743 103.086 375.275 102.26 376.311 102.26C377.487 102.26 377.879 103.016 377.879 103.954V108H379.195V103.73C379.195 102.232 378.397 101.07 376.787 101.07C376.003 101.07 375.205 101.392 374.715 102.232V101.266H373.427V108H374.743V104.108ZM382.2 103.94C382.256 103.072 382.928 102.218 384.034 102.218C385.224 102.218 385.854 102.974 385.882 103.94H382.2ZM386.078 105.69C385.826 106.446 385.28 107.048 384.188 107.048C383.054 107.048 382.186 106.208 382.158 105.004H387.226C387.24 104.92 387.254 104.752 387.254 104.584C387.254 102.484 386.092 101.056 384.02 101.056C382.326 101.056 380.8 102.498 380.8 104.612C380.8 106.894 382.382 108.21 384.188 108.21C385.756 108.21 386.834 107.272 387.212 106.082L386.078 105.69ZM390.22 104.108C390.22 103.086 390.752 102.26 391.788 102.26C392.964 102.26 393.356 103.016 393.356 103.954V108H394.672V103.73C394.672 102.232 393.874 101.07 392.264 101.07C391.48 101.07 390.682 101.392 390.192 102.232V101.266H388.904V108H390.22V104.108ZM398.503 99.138H397.299V100.23C397.299 100.818 396.991 101.266 396.263 101.266H395.899V102.456H397.187V106.152C397.187 107.37 397.915 108.07 399.063 108.07C399.511 108.07 399.847 107.986 399.959 107.944V106.824C399.847 106.852 399.609 106.88 399.441 106.88C398.755 106.88 398.503 106.572 398.503 105.956V102.456H399.959V101.266H398.503V99.138ZM401.257 107.104C401.257 107.706 401.677 108.056 402.195 108.056C402.349 108.056 402.461 108.014 402.503 107.986C402.489 108.658 402.027 109.344 401.341 109.498V110.226C402.209 110.114 403.413 109.344 403.413 107.496C403.413 106.614 402.881 106.166 402.279 106.166C401.691 106.166 401.257 106.6 401.257 107.104ZM410.098 110.66V107.09C410.462 107.692 411.246 108.182 412.282 108.182C414.256 108.182 415.418 106.628 415.418 104.626C415.418 102.666 414.34 101.112 412.324 101.112C411.232 101.112 410.434 101.644 410.07 102.316V101.266H408.796V110.66H410.098ZM414.074 104.626C414.074 106.012 413.304 107.006 412.086 107.006C410.882 107.006 410.084 106.012 410.084 104.626C410.084 103.282 410.882 102.274 412.086 102.274C413.318 102.274 414.074 103.282 414.074 104.626ZM418.425 108V97.864H417.109V108H418.425ZM421.506 103.94C421.562 103.072 422.234 102.218 423.34 102.218C424.53 102.218 425.16 102.974 425.188 103.94H421.506ZM425.384 105.69C425.132 106.446 424.586 107.048 423.494 107.048C422.36 107.048 421.492 106.208 421.464 105.004H426.532C426.546 104.92 426.56 104.752 426.56 104.584C426.56 102.484 425.398 101.056 423.326 101.056C421.632 101.056 420.106 102.498 420.106 104.612C420.106 106.894 421.688 108.21 423.494 108.21C425.062 108.21 426.14 107.272 426.518 106.082L425.384 105.69ZM427.762 106.194C427.762 107.258 428.644 108.21 430.016 108.21C431.22 108.21 431.892 107.566 432.186 107.09C432.186 107.58 432.228 107.832 432.256 108H433.544C433.516 107.832 433.46 107.482 433.46 106.894V103.52C433.46 102.204 432.676 101.056 430.66 101.056C429.204 101.056 428.042 101.952 427.902 103.24L429.162 103.534C429.246 102.75 429.764 102.176 430.688 102.176C431.71 102.176 432.144 102.722 432.144 103.38C432.144 103.618 432.032 103.828 431.626 103.884L429.806 104.15C428.644 104.318 427.762 104.99 427.762 106.194ZM430.198 107.104C429.526 107.104 429.106 106.628 429.106 106.124C429.106 105.522 429.526 105.2 430.086 105.116L432.144 104.808V105.116C432.144 106.586 431.276 107.104 430.198 107.104ZM435.007 106.25C435.119 107.02 435.903 108.21 437.751 108.21C439.417 108.21 440.215 107.076 440.215 106.124C440.215 105.13 439.571 104.388 438.353 104.122L437.261 103.884C436.743 103.772 436.491 103.478 436.491 103.072C436.491 102.61 436.939 102.176 437.611 102.176C438.675 102.176 438.955 102.946 439.011 103.296L440.173 102.862C440.033 102.26 439.459 101.056 437.611 101.056C436.295 101.056 435.217 102.036 435.217 103.184C435.217 104.136 435.847 104.85 436.897 105.074L438.045 105.326C438.605 105.452 438.913 105.774 438.913 106.194C438.913 106.67 438.507 107.09 437.765 107.09C436.813 107.09 436.281 106.53 436.197 105.83L435.007 106.25ZM442.862 103.94C442.918 103.072 443.59 102.218 444.696 102.218C445.886 102.218 446.516 102.974 446.544 103.94H442.862ZM446.74 105.69C446.488 106.446 445.942 107.048 444.85 107.048C443.716 107.048 442.848 106.208 442.82 105.004H447.888C447.902 104.92 447.916 104.752 447.916 104.584C447.916 102.484 446.754 101.056 444.682 101.056C442.988 101.056 441.462 102.498 441.462 104.612C441.462 106.894 443.044 108.21 444.85 108.21C446.418 108.21 447.496 107.272 447.874 106.082L446.74 105.69ZM453.989 104.612C453.989 103.226 454.773 102.246 455.977 102.246C457.181 102.246 457.909 103.198 457.909 104.584C457.909 105.97 457.167 107.02 455.963 107.02C454.703 107.02 453.989 105.998 453.989 104.612ZM457.923 107.09C457.923 107.496 457.965 107.846 457.993 108H459.267C459.253 107.888 459.197 107.398 459.197 106.754V97.864H457.895V102.218C457.671 101.672 457.027 101.084 455.837 101.084C453.933 101.084 452.645 102.708 452.645 104.612C452.645 106.614 453.863 108.182 455.837 108.182C456.887 108.182 457.601 107.622 457.923 106.978V107.09ZM464.333 107.034C463.213 107.034 462.233 106.194 462.233 104.626C462.233 103.072 463.213 102.232 464.333 102.232C465.453 102.232 466.433 103.072 466.433 104.626C466.433 106.194 465.453 107.034 464.333 107.034ZM464.333 101.056C462.317 101.056 460.889 102.582 460.889 104.626C460.889 106.684 462.317 108.21 464.333 108.21C466.349 108.21 467.777 106.684 467.777 104.626C467.777 102.582 466.349 101.056 464.333 101.056ZM474.288 108V101.266H472.986V108H474.288ZM472.692 98.718C472.692 99.236 473.112 99.656 473.63 99.656C474.162 99.656 474.582 99.236 474.582 98.718C474.582 98.186 474.162 97.766 473.63 97.766C473.112 97.766 472.692 98.186 472.692 98.718ZM478.252 99.138H477.048V100.23C477.048 100.818 476.74 101.266 476.012 101.266H475.648V102.456H476.936V106.152C476.936 107.37 477.664 108.07 478.812 108.07C479.26 108.07 479.596 107.986 479.708 107.944V106.824C479.596 106.852 479.358 106.88 479.19 106.88C478.504 106.88 478.252 106.572 478.252 105.956V102.456H479.708V101.266H478.252V99.138ZM486.1 108V107.02C486.52 107.748 487.29 108.182 488.284 108.182C490.286 108.182 491.42 106.6 491.42 104.598C491.42 102.638 490.37 101.07 488.326 101.07C487.206 101.07 486.422 101.616 486.1 102.218V97.864H484.798V108H486.1ZM490.076 104.598C490.076 106.054 489.292 107.006 488.088 107.006C486.926 107.006 486.086 106.054 486.086 104.598C486.086 103.142 486.926 102.232 488.088 102.232C489.306 102.232 490.076 103.142 490.076 104.598ZM494.727 110.814L499.109 101.266H497.695L495.679 105.914L493.579 101.266H492.067L494.965 107.258L493.285 110.814H494.727ZM507.994 107.188C507.994 107.468 508.022 107.846 508.05 108H509.31C509.282 107.762 509.24 107.286 509.24 106.754V101.266H507.924V105.326C507.924 106.348 507.392 107.048 506.328 107.048C505.222 107.048 504.802 106.236 504.802 105.312V101.266H503.486V105.508C503.486 107.034 504.438 108.21 506.006 108.21C506.79 108.21 507.63 107.888 507.994 107.188ZM510.845 106.25C510.957 107.02 511.741 108.21 513.589 108.21C515.255 108.21 516.053 107.076 516.053 106.124C516.053 105.13 515.409 104.388 514.191 104.122L513.099 103.884C512.581 103.772 512.329 103.478 512.329 103.072C512.329 102.61 512.777 102.176 513.449 102.176C514.513 102.176 514.793 102.946 514.849 103.296L516.011 102.862C515.871 102.26 515.297 101.056 513.449 101.056C512.133 101.056 511.055 102.036 511.055 103.184C511.055 104.136 511.685 104.85 512.735 105.074L513.883 105.326C514.443 105.452 514.751 105.774 514.751 106.194C514.751 106.67 514.345 107.09 513.603 107.09C512.651 107.09 512.119 106.53 512.035 105.83L510.845 106.25ZM519.05 108V101.266H517.748V108H519.05ZM517.454 98.718C517.454 99.236 517.874 99.656 518.392 99.656C518.924 99.656 519.344 99.236 519.344 98.718C519.344 98.186 518.924 97.766 518.392 97.766C517.874 97.766 517.454 98.186 517.454 98.718ZM522.495 104.108C522.495 103.086 523.027 102.26 524.063 102.26C525.239 102.26 525.631 103.016 525.631 103.954V108H526.947V103.73C526.947 102.232 526.149 101.07 524.539 101.07C523.755 101.07 522.957 101.392 522.467 102.232V101.266H521.179V108H522.495V104.108ZM528.552 108.364C528.72 109.806 529.98 110.87 531.66 110.87C534.194 110.87 535.034 109.204 535.034 107.496V101.266H533.732V102.204C533.396 101.532 532.696 101.14 531.66 101.14C529.812 101.14 528.566 102.596 528.566 104.416C528.566 106.32 529.868 107.678 531.66 107.678C532.668 107.678 533.396 107.188 533.718 106.572V107.538C533.718 108.994 533.074 109.722 531.66 109.722C530.638 109.722 529.924 109.008 529.826 108.07L528.552 108.364ZM531.856 106.572C530.666 106.572 529.91 105.732 529.91 104.416C529.91 103.114 530.694 102.26 531.856 102.26C532.99 102.26 533.774 103.114 533.774 104.416C533.774 105.718 532.99 106.572 531.856 106.572ZM91.576 128V118.074H89.896V125.116L85.388 118.074H83.246V128H84.926V120.482L89.826 128H91.576ZM96.7934 126.754C95.7994 126.754 94.8894 125.998 94.8894 124.584C94.8894 123.17 95.7994 122.442 96.7934 122.442C97.8014 122.442 98.6974 123.17 98.6974 124.584C98.6974 126.012 97.8014 126.754 96.7934 126.754ZM96.7934 120.972C94.7634 120.972 93.2654 122.498 93.2654 124.584C93.2654 126.684 94.7634 128.21 96.7934 128.21C98.8374 128.21 100.335 126.684 100.335 124.584C100.335 122.498 98.8374 120.972 96.7934 120.972ZM105.906 121.14C105.836 121.126 105.668 121.098 105.472 121.098C104.576 121.098 103.82 121.532 103.498 122.274V121.182H101.916V128H103.54V124.752C103.54 123.478 104.114 122.75 105.374 122.75C105.542 122.75 105.724 122.764 105.906 122.792V121.14ZM108.804 128V123.954C108.804 123.086 109.35 122.442 110.218 122.442C111.142 122.442 111.534 123.058 111.534 123.842V128H113.13V123.954C113.13 123.114 113.69 122.442 114.544 122.442C115.454 122.442 115.86 123.044 115.86 123.842V128H117.428V123.576C117.428 121.77 116.252 120.986 115.02 120.986C114.138 120.986 113.34 121.294 112.808 122.19C112.444 121.392 111.66 120.986 110.764 120.986C109.994 120.986 109.14 121.35 108.748 122.05V121.182H107.194V128H108.804ZM118.941 126.152C118.941 127.23 119.823 128.21 121.251 128.21C122.357 128.21 123.029 127.65 123.351 127.132C123.351 127.678 123.407 127.958 123.421 128H124.933C124.919 127.93 124.849 127.524 124.849 126.908V123.52C124.849 122.162 124.051 120.972 121.951 120.972C120.271 120.972 119.207 122.022 119.081 123.198L120.565 123.534C120.635 122.848 121.111 122.302 121.965 122.302C122.861 122.302 123.253 122.764 123.253 123.338C123.253 123.576 123.141 123.772 122.749 123.828L120.999 124.094C119.837 124.262 118.941 124.934 118.941 126.152ZM121.559 126.936C120.915 126.936 120.565 126.516 120.565 126.054C120.565 125.494 120.971 125.214 121.475 125.13L123.253 124.864V125.172C123.253 126.502 122.469 126.936 121.559 126.936ZM128.437 128V117.864H126.813V128H128.437ZM137.676 128.21C139.762 128.21 141.386 126.936 141.386 124.542V118.074H139.706V124.444C139.706 125.844 138.95 126.614 137.676 126.614C136.416 126.614 135.646 125.844 135.646 124.444V118.074H133.98V124.542C133.98 126.936 135.604 128.21 137.676 128.21ZM145.089 124.066C145.089 123.17 145.579 122.456 146.503 122.456C147.525 122.456 147.903 123.128 147.903 123.968V128H149.527V123.688C149.527 122.19 148.729 120.986 147.063 120.986C146.307 120.986 145.495 121.308 145.047 122.092V121.182H143.465V128H145.089V124.066ZM152.667 124.57C152.667 123.268 153.451 122.442 154.515 122.442C155.579 122.442 156.307 123.254 156.307 124.556C156.307 125.858 155.565 126.74 154.501 126.74C153.395 126.74 152.667 125.872 152.667 124.57ZM157.875 117.864H156.293V121.98C156.083 121.546 155.481 121 154.291 121C152.373 121 151.043 122.61 151.043 124.57C151.043 126.628 152.359 128.168 154.319 128.168C155.285 128.168 155.999 127.692 156.321 127.118C156.321 127.398 156.363 127.846 156.391 128H157.945C157.931 127.888 157.875 127.37 157.875 126.754V117.864ZM161.117 123.842C161.173 123.114 161.761 122.33 162.783 122.33C163.903 122.33 164.435 123.044 164.463 123.842H161.117ZM164.645 125.62C164.421 126.292 163.917 126.81 162.937 126.81C161.929 126.81 161.117 126.068 161.075 125.032H166.059C166.073 125.004 166.101 124.78 166.101 124.514C166.101 122.358 164.869 120.972 162.769 120.972C161.047 120.972 159.451 122.4 159.451 124.556C159.451 126.866 161.089 128.21 162.937 128.21C164.575 128.21 165.653 127.244 166.017 126.054L164.645 125.62ZM171.668 121.14C171.598 121.126 171.43 121.098 171.234 121.098C170.338 121.098 169.582 121.532 169.26 122.274V121.182H167.678V128H169.302V124.752C169.302 123.478 169.876 122.75 171.136 122.75C171.304 122.75 171.486 122.764 171.668 122.792V121.14ZM174.579 128V117.864H172.955V128H174.579ZM178.202 128V121.182H176.592V128H178.202ZM176.34 118.788C176.34 119.376 176.816 119.838 177.39 119.838C177.978 119.838 178.454 119.376 178.454 118.788C178.454 118.2 177.978 117.724 177.39 117.724C176.816 117.724 176.34 118.2 176.34 118.788ZM181.839 124.066C181.839 123.17 182.329 122.456 183.253 122.456C184.275 122.456 184.653 123.128 184.653 123.968V128H186.277V123.688C186.277 122.19 185.479 120.986 183.813 120.986C183.057 120.986 182.245 121.308 181.797 122.092V121.182H180.215V128H181.839V124.066ZM189.459 123.842C189.515 123.114 190.103 122.33 191.125 122.33C192.245 122.33 192.777 123.044 192.805 123.842H189.459ZM192.987 125.62C192.763 126.292 192.259 126.81 191.279 126.81C190.271 126.81 189.459 126.068 189.417 125.032H194.401C194.415 125.004 194.443 124.78 194.443 124.514C194.443 122.358 193.211 120.972 191.111 120.972C189.389 120.972 187.793 122.4 187.793 124.556C187.793 126.866 189.431 128.21 191.279 128.21C192.917 128.21 193.995 127.244 194.359 126.054L192.987 125.62ZM201.177 119.138H199.973V120.23C199.973 120.818 199.665 121.266 198.937 121.266H198.573V122.456H199.861V126.152C199.861 127.37 200.589 128.07 201.737 128.07C202.185 128.07 202.521 127.986 202.633 127.944V126.824C202.521 126.852 202.283 126.88 202.115 126.88C201.429 126.88 201.177 126.572 201.177 125.956V122.456H202.633V121.266H201.177V119.138ZM205.094 123.94C205.15 123.072 205.822 122.218 206.928 122.218C208.118 122.218 208.748 122.974 208.776 123.94H205.094ZM208.972 125.69C208.72 126.446 208.174 127.048 207.082 127.048C205.948 127.048 205.08 126.208 205.052 125.004H210.12C210.134 124.92 210.148 124.752 210.148 124.584C210.148 122.484 208.986 121.056 206.914 121.056C205.22 121.056 203.694 122.498 203.694 124.612C203.694 126.894 205.276 128.21 207.082 128.21C208.65 128.21 209.728 127.272 210.106 126.082L208.972 125.69ZM210.795 128H212.363L214.071 125.522L215.807 128H217.389C216.983 127.454 215.317 125.116 214.911 124.57L217.305 121.266H215.751L214.127 123.632L212.475 121.266H210.879L213.301 124.57L210.795 128ZM220.537 119.138H219.333V120.23C219.333 120.818 219.025 121.266 218.297 121.266H217.933V122.456H219.221V126.152C219.221 127.37 219.949 128.07 221.097 128.07C221.545 128.07 221.881 127.986 221.993 127.944V126.824C221.881 126.852 221.643 126.88 221.475 126.88C220.789 126.88 220.537 126.572 220.537 125.956V122.456H221.993V121.266H220.537V119.138ZM226.552 126.25C226.664 127.02 227.448 128.21 229.296 128.21C230.962 128.21 231.76 127.076 231.76 126.124C231.76 125.13 231.116 124.388 229.898 124.122L228.806 123.884C228.288 123.772 228.036 123.478 228.036 123.072C228.036 122.61 228.484 122.176 229.156 122.176C230.22 122.176 230.5 122.946 230.556 123.296L231.718 122.862C231.578 122.26 231.004 121.056 229.156 121.056C227.84 121.056 226.762 122.036 226.762 123.184C226.762 124.136 227.392 124.85 228.442 125.074L229.59 125.326C230.15 125.452 230.458 125.774 230.458 126.194C230.458 126.67 230.052 127.09 229.31 127.09C228.358 127.09 227.826 126.53 227.742 125.83L226.552 126.25ZM235.289 119.138H234.085V120.23C234.085 120.818 233.777 121.266 233.049 121.266H232.685V122.456H233.973V126.152C233.973 127.37 234.701 128.07 235.849 128.07C236.297 128.07 236.633 127.986 236.745 127.944V126.824C236.633 126.852 236.395 126.88 236.227 126.88C235.541 126.88 235.289 126.572 235.289 125.956V122.456H236.745V121.266H235.289V119.138ZM240.184 130.814L244.566 121.266H243.152L241.136 125.914L239.036 121.266H237.524L240.422 127.258L238.742 130.814H240.184ZM247.157 128V117.864H245.841V128H247.157ZM250.239 123.94C250.295 123.072 250.967 122.218 252.073 122.218C253.263 122.218 253.893 122.974 253.921 123.94H250.239ZM254.117 125.69C253.865 126.446 253.319 127.048 252.227 127.048C251.093 127.048 250.225 126.208 250.197 125.004H255.265C255.279 124.92 255.293 124.752 255.293 124.584C255.293 122.484 254.131 121.056 252.059 121.056C250.365 121.056 248.839 122.498 248.839 124.612C248.839 126.894 250.421 128.21 252.227 128.21C253.795 128.21 254.873 127.272 255.251 126.082L254.117 125.69ZM256.677 127.104C256.677 127.65 257.097 128.07 257.643 128.07C258.189 128.07 258.623 127.65 258.623 127.104C258.623 126.558 258.189 126.124 257.643 126.124C257.097 126.124 256.677 126.558 256.677 127.104Z" fill="#252A31"/>
<path d="M82 129.75H195.017V130.45H82V129.75Z" fill="#252A31"/>
<rect x="82" y="145" width="67" height="32" rx="3" fill="#0172CB"/>
<path d="M96.6213 160.404V157.764H98.1213C99.0333 157.764 99.5853 158.28 99.5853 159.096C99.5853 159.9 99.0333 160.404 98.1213 160.404H96.6213ZM98.3373 161.676C99.9693 161.676 101.049 160.584 101.049 159.084C101.049 157.596 99.9693 156.492 98.3373 156.492H95.1813V165H96.6213V161.676H98.3373ZM105.593 159.12C105.533 159.108 105.389 159.084 105.221 159.084C104.453 159.084 103.805 159.456 103.529 160.092V159.156H102.173V165H103.565V162.216C103.565 161.124 104.057 160.5 105.137 160.5C105.281 160.5 105.437 160.512 105.593 160.536V159.12ZM108.076 165V159.156H106.696V165H108.076ZM106.48 157.104C106.48 157.608 106.888 158.004 107.38 158.004C107.884 158.004 108.292 157.608 108.292 157.104C108.292 156.6 107.884 156.192 107.38 156.192C106.888 156.192 106.48 156.6 106.48 157.104ZM111.182 165V161.532C111.182 160.788 111.65 160.236 112.394 160.236C113.186 160.236 113.522 160.764 113.522 161.436V165H114.89V161.532C114.89 160.812 115.37 160.236 116.102 160.236C116.882 160.236 117.23 160.752 117.23 161.436V165H118.574V161.208C118.574 159.66 117.566 158.988 116.51 158.988C115.754 158.988 115.07 159.252 114.614 160.02C114.302 159.336 113.63 158.988 112.862 158.988C112.202 158.988 111.47 159.3 111.134 159.9V159.156H109.802V165H111.182ZM119.871 163.416C119.871 164.34 120.627 165.18 121.851 165.18C122.799 165.18 123.375 164.7 123.651 164.256C123.651 164.724 123.699 164.964 123.711 165H125.007C124.995 164.94 124.935 164.592 124.935 164.064V161.16C124.935 159.996 124.251 158.976 122.451 158.976C121.011 158.976 120.099 159.876 119.991 160.884L121.263 161.172C121.323 160.584 121.731 160.116 122.463 160.116C123.231 160.116 123.567 160.512 123.567 161.004C123.567 161.208 123.471 161.376 123.135 161.424L121.635 161.652C120.639 161.796 119.871 162.372 119.871 163.416ZM122.115 164.088C121.563 164.088 121.263 163.728 121.263 163.332C121.263 162.852 121.611 162.612 122.043 162.54L123.567 162.312V162.576C123.567 163.716 122.895 164.088 122.115 164.088ZM130.038 159.12C129.978 159.108 129.834 159.084 129.666 159.084C128.898 159.084 128.25 159.456 127.974 160.092V159.156H126.618V165H128.01V162.216C128.01 161.124 128.502 160.5 129.582 160.5C129.726 160.5 129.882 160.512 130.038 160.536V159.12ZM133.037 167.364L136.757 159.156H135.281L133.709 162.852L132.029 159.156H130.457L132.953 164.304L131.549 167.364H133.037Z" fill="white"/>
<rect x="157" y="145" width="84" height="32" rx="3" fill="#DEF0FC"/>
<path d="M176.057 158.484C175.865 157.536 175.085 156.312 173.081 156.312C171.497 156.312 170.189 157.488 170.189 158.916C170.189 160.188 171.053 161.04 172.349 161.304L173.549 161.556C174.281 161.712 174.689 162.156 174.689 162.708C174.689 163.368 174.161 163.884 173.141 163.884C171.917 163.884 171.281 163.068 171.197 162.18L169.853 162.564C169.985 163.788 170.981 165.18 173.141 165.18C175.085 165.18 176.153 163.92 176.153 162.6C176.153 161.4 175.349 160.452 173.849 160.152L172.625 159.9C171.965 159.756 171.629 159.348 171.629 158.808C171.629 158.16 172.229 157.584 173.093 157.584C174.233 157.584 174.677 158.364 174.761 158.892L176.057 158.484ZM178.584 161.436C178.632 160.812 179.136 160.14 180.012 160.14C180.972 160.14 181.428 160.752 181.452 161.436H178.584ZM181.608 162.96C181.416 163.536 180.984 163.98 180.144 163.98C179.28 163.98 178.584 163.344 178.548 162.456H182.82C182.832 162.432 182.856 162.24 182.856 162.012C182.856 160.164 181.8 158.976 180 158.976C178.524 158.976 177.156 160.2 177.156 162.048C177.156 164.028 178.56 165.18 180.144 165.18C181.548 165.18 182.472 164.352 182.784 163.332L181.608 162.96ZM186.836 160.26C187.724 160.26 188.12 160.836 188.252 161.352L189.5 160.896C189.26 159.96 188.396 158.976 186.824 158.976C185.144 158.976 183.836 160.272 183.836 162.072C183.836 163.848 185.144 165.18 186.86 165.18C188.396 165.18 189.272 164.184 189.548 163.272L188.324 162.828C188.192 163.272 187.772 163.908 186.86 163.908C185.984 163.908 185.228 163.248 185.228 162.072C185.228 160.896 185.984 160.26 186.836 160.26ZM193.446 163.932C192.594 163.932 191.814 163.284 191.814 162.072C191.814 160.86 192.594 160.236 193.446 160.236C194.31 160.236 195.078 160.86 195.078 162.072C195.078 163.296 194.31 163.932 193.446 163.932ZM193.446 158.976C191.706 158.976 190.422 160.284 190.422 162.072C190.422 163.872 191.706 165.18 193.446 165.18C195.198 165.18 196.482 163.872 196.482 162.072C196.482 160.284 195.198 158.976 193.446 158.976ZM199.229 161.628C199.229 160.86 199.649 160.248 200.441 160.248C201.317 160.248 201.641 160.824 201.641 161.544V165H203.033V161.304C203.033 160.02 202.349 158.988 200.921 158.988C200.273 158.988 199.577 159.264 199.193 159.936V159.156H197.837V165H199.229V161.628ZM205.724 162.06C205.724 160.944 206.396 160.236 207.308 160.236C208.22 160.236 208.844 160.932 208.844 162.048C208.844 163.164 208.208 163.92 207.296 163.92C206.348 163.92 205.724 163.176 205.724 162.06ZM210.188 156.312H208.832V159.84C208.652 159.468 208.136 159 207.116 159C205.472 159 204.332 160.38 204.332 162.06C204.332 163.824 205.46 165.144 207.14 165.144C207.968 165.144 208.58 164.736 208.856 164.244C208.856 164.484 208.892 164.868 208.916 165H210.248C210.236 164.904 210.188 164.46 210.188 163.932V156.312ZM211.539 163.416C211.539 164.34 212.295 165.18 213.519 165.18C214.467 165.18 215.043 164.7 215.319 164.256C215.319 164.724 215.367 164.964 215.379 165H216.675C216.663 164.94 216.603 164.592 216.603 164.064V161.16C216.603 159.996 215.919 158.976 214.119 158.976C212.679 158.976 211.767 159.876 211.659 160.884L212.931 161.172C212.991 160.584 213.399 160.116 214.131 160.116C214.899 160.116 215.235 160.512 215.235 161.004C215.235 161.208 215.139 161.376 214.803 161.424L213.303 161.652C212.307 161.796 211.539 162.372 211.539 163.416ZM213.783 164.088C213.231 164.088 212.931 163.728 212.931 163.332C212.931 162.852 213.279 162.612 213.711 162.54L215.235 162.312V162.576C215.235 163.716 214.563 164.088 213.783 164.088ZM221.706 159.12C221.646 159.108 221.502 159.084 221.334 159.084C220.566 159.084 219.918 159.456 219.642 160.092V159.156H218.286V165H219.678V162.216C219.678 161.124 220.17 160.5 221.25 160.5C221.394 160.5 221.55 160.512 221.706 160.536V159.12ZM224.705 167.364L228.425 159.156H226.949L225.377 162.852L223.697 159.156H222.125L224.621 164.304L223.217 167.364H224.705Z" fill="#005AA3"/>
</g>
<rect x="42.5" y="37.5" width="517" height="155" rx="2.5" stroke="#0172CB" stroke-opacity="0.1"/>
</g>
<rect y="47" width="24" height="24" rx="12" fill="#EC5192"/>
<path d="M10.6212 58.428C10.5792 58.274 10.5512 58.092 10.5512 57.924C10.5512 57.07 11.0272 56.412 11.9932 56.412C12.9032 56.412 13.3652 57 13.3652 57.658C13.3652 58.288 13.0572 58.764 12.2872 59.226L10.7892 60.122C9.16522 61.102 8.66122 62.404 8.64722 64H15.3672V62.334H11.0132C11.1532 61.984 11.4472 61.732 11.7972 61.508L13.5472 60.444C14.6672 59.758 15.3112 58.806 15.3112 57.63C15.3112 56.048 14.0652 54.704 12.0352 54.704C9.92122 54.704 8.71722 56.146 8.71722 57.742C8.71722 57.966 8.75922 58.246 8.78722 58.372L10.6212 58.428Z" fill="white"/>
<path fill-rule="evenodd" clip-rule="evenodd" d="M50 59.5L24 59.5V58.5L50 58.5V59.5Z" fill="#EC5192"/>
<rect x="50" y="57" width="4" height="4" rx="2" fill="#EC5192"/>
<rect x="95" width="24" height="24" rx="12" fill="#EC5192"/>
<path d="M108.761 17V7.914H107.095C106.913 8.866 105.989 9.608 104.659 9.622V10.924H106.843V17H108.761Z" fill="white"/>
<path fill-rule="evenodd" clip-rule="evenodd" d="M107.5 24L107.5 48L106.5 48L106.5 24L107.5 24Z" fill="#EC5192"/>
<rect x="105" y="48" width="4" height="4" rx="2" fill="#EC5192"/>
<rect y="91" width="24" height="24" rx="12" fill="#EC5192"/>
<path d="M11.1542 103.968C11.3502 103.898 11.5882 103.828 11.9802 103.828C12.8482 103.828 13.4642 104.318 13.4642 105.172C13.4642 105.928 12.8902 106.544 11.9242 106.544C10.9722 106.544 10.3142 105.872 10.2722 104.948L8.4102 105.312C8.5222 106.838 9.8102 108.21 11.9242 108.21C14.1222 108.21 15.4102 106.768 15.4102 105.2C15.4102 103.534 14.1502 102.484 12.7782 102.428L15.1302 100.468V98.914H8.7042V100.58H12.6802L10.3002 102.624L11.1542 103.968Z" fill="white"/>
<path fill-rule="evenodd" clip-rule="evenodd" d="M76 103.5L24 103.5V102.5L76 102.5V103.5Z" fill="#EC5192"/>
<rect x="76" y="101" width="4" height="4" rx="2" fill="#EC5192"/>
<path fill-rule="evenodd" clip-rule="evenodd" d="M241 184.5C241 184.776 240.776 185 240.5 185L82.5 185C82.2239 185 82 184.776 82 184.5V184.5C82 184.224 82.2239 184 82.5 184L240.5 184C240.776 184 241 184.224 241 184.5V184.5Z" fill="#EC5192"/>
<path fill-rule="evenodd" clip-rule="evenodd" d="M162 185L162 220L161 220L161 185L162 185Z" fill="#EC5192"/>
<rect x="149.5" y="220" width="24" height="24" rx="12" fill="#EC5192"/>
<path d="M158.271 235.054H162.569V237H164.473V235.054H165.971V233.402H164.473V227.914H162.093L158.271 233.038V235.054ZM162.569 233.402H159.979L162.569 229.93V233.402Z" fill="white"/>
<defs>
<filter id="filter0_b_513_5690" x="34" y="29" width="534" height="172" filterUnits="userSpaceOnUse" color-interpolation-filters="sRGB">
<feFlood flood-opacity="0" result="BackgroundImageFix"/>
<feGaussianBlur in="BackgroundImageFix" stdDeviation="4"/>
<feComposite in2="SourceAlpha" operator="in" result="effect1_backgroundBlur_513_5690"/>
<feBlend mode="normal" in="SourceGraphic" in2="effect1_backgroundBlur_513_5690" result="shape"/>
</filter>
<clipPath id="clip0_513_5690">
<rect x="42" y="37" width="518" height="156" rx="3" fill="white"/>
</clipPath>
</defs>
</svg>
