<svg width="240" height="138" viewBox="0 0 240 138" fill="none" xmlns="http://www.w3.org/2000/svg">
<rect width="240" height="138" fill="white"/>
<g clip-path="url(#clip0_1218_6629)">
<rect width="240" height="138" rx="6" fill="#E8F4FD"/>
<rect width="3" height="138" fill="#0172CB"/>
<path d="M26.3333 16.0834C26.3333 16.6611 25.9 17.1667 25.25 17.1667C24.6 17.1667 24.1666 16.6611 24.1666 16.0834C24.1666 15.5056 24.6722 15 25.25 15C25.8277 15 26.3333 15.5056 26.3333 16.0834ZM24.0277 24.1667C23.6111 24.1667 23.3333 23.9045 23.3333 23.5113C23.3333 23.118 23.6111 22.8558 24.0277 22.8558H24.5833C24.6527 22.8558 24.7222 22.7903 24.7222 22.7247V19.7753C24.7222 19.7098 24.6527 19.6442 24.5833 19.6442H24.0277C23.6111 19.6442 23.3333 19.382 23.3333 18.9888C23.3333 18.5955 23.6111 18.3334 24.0277 18.3334H24.7222C25.4861 18.3334 26.1111 18.9232 26.1111 19.6442V22.7903C26.1111 22.8558 26.1805 22.9214 26.25 22.9214H26.8055C27.2222 22.9214 27.5 23.1835 27.5 23.5768C27.5 23.9701 27.2222 24.1667 26.8055 24.1667H24.0277ZM25 11.6667C20.4166 11.6667 16.6666 15.4167 16.6666 20C16.6666 24.5834 20.4166 28.3334 25 28.3334C29.5833 28.3334 33.3333 24.5834 33.3333 20C33.3333 15.4167 29.5833 11.6667 25 11.6667Z" fill="#0172CB"/>
<g opacity="0.5">
<rect x="43" y="13" width="113" height="14" rx="2" fill="#252A31"/>
</g>
<g clip-path="url(#clip1_1218_6629)">
<g opacity="0.5">
<rect x="15" y="42" width="41" height="12" rx="2" fill="#252A31"/>
</g>
<g opacity="0.5">
<rect x="62" y="42" width="162" height="12" rx="2" fill="#252A31"/>
</g>
<g opacity="0.5">
<rect x="15" y="62" width="78" height="12" rx="2" fill="#252A31"/>
</g>
<g opacity="0.5">
<rect x="99" y="62" width="41" height="12" rx="2" fill="#252A31"/>
</g>
<g opacity="0.5">
<rect x="146" y="62" width="78" height="12" rx="2" fill="#252A31"/>
</g>
</g>
<rect x="15" y="90" width="100.5" height="32" rx="6" fill="#0172CB"/>
<path d="M46.258 105.404V102.764H47.758C48.67 102.764 49.222 103.28 49.222 104.096C49.222 104.9 48.67 105.404 47.758 105.404H46.258ZM47.974 106.676C49.606 106.676 50.686 105.584 50.686 104.084C50.686 102.596 49.606 101.492 47.974 101.492H44.818V110H46.258V106.676H47.974ZM55.2293 104.12C55.1693 104.108 55.0253 104.084 54.8573 104.084C54.0893 104.084 53.4413 104.456 53.1653 105.092V104.156H51.8093V110H53.2013V107.216C53.2013 106.124 53.6933 105.5 54.7733 105.5C54.9173 105.5 55.0733 105.512 55.2293 105.536V104.12ZM57.7128 110V104.156H56.3328V110H57.7128ZM56.1168 102.104C56.1168 102.608 56.5248 103.004 57.0168 103.004C57.5208 103.004 57.9288 102.608 57.9288 102.104C57.9288 101.6 57.5208 101.192 57.0168 101.192C56.5248 101.192 56.1168 101.6 56.1168 102.104ZM60.8182 110V106.532C60.8182 105.788 61.2862 105.236 62.0302 105.236C62.8222 105.236 63.1582 105.764 63.1582 106.436V110H64.5262V106.532C64.5262 105.812 65.0062 105.236 65.7382 105.236C66.5182 105.236 66.8662 105.752 66.8662 106.436V110H68.2102V106.208C68.2102 104.66 67.2022 103.988 66.1462 103.988C65.3902 103.988 64.7062 104.252 64.2502 105.02C63.9382 104.336 63.2662 103.988 62.4982 103.988C61.8382 103.988 61.1062 104.3 60.7702 104.9V104.156H59.4382V110H60.8182ZM69.5076 108.416C69.5076 109.34 70.2636 110.18 71.4876 110.18C72.4356 110.18 73.0116 109.7 73.2876 109.256C73.2876 109.724 73.3356 109.964 73.3476 110H74.6436C74.6316 109.94 74.5716 109.592 74.5716 109.064V106.16C74.5716 104.996 73.8876 103.976 72.0876 103.976C70.6476 103.976 69.7356 104.876 69.6276 105.884L70.8996 106.172C70.9596 105.584 71.3676 105.116 72.0996 105.116C72.8676 105.116 73.2036 105.512 73.2036 106.004C73.2036 106.208 73.1076 106.376 72.7716 106.424L71.2716 106.652C70.2756 106.796 69.5076 107.372 69.5076 108.416ZM71.7516 109.088C71.1996 109.088 70.8996 108.728 70.8996 108.332C70.8996 107.852 71.2476 107.612 71.6796 107.54L73.2036 107.312V107.576C73.2036 108.716 72.5316 109.088 71.7516 109.088ZM79.6746 104.12C79.6146 104.108 79.4706 104.084 79.3026 104.084C78.5346 104.084 77.8866 104.456 77.6106 105.092V104.156H76.2546V110H77.6466V107.216C77.6466 106.124 78.1386 105.5 79.2186 105.5C79.3626 105.5 79.5186 105.512 79.6746 105.536V104.12ZM82.6741 112.364L86.3941 104.156H84.9181L83.3461 107.852L81.6661 104.156H80.0941L82.5901 109.304L81.1861 112.364H82.6741Z" fill="white"/>
<rect x="123.5" y="90" width="100.5" height="32" rx="6" fill="#C7E4FA"/>
<path d="M150.362 103.484C150.17 102.536 149.39 101.312 147.386 101.312C145.802 101.312 144.494 102.488 144.494 103.916C144.494 105.188 145.358 106.04 146.654 106.304L147.854 106.556C148.586 106.712 148.994 107.156 148.994 107.708C148.994 108.368 148.466 108.884 147.446 108.884C146.222 108.884 145.586 108.068 145.502 107.18L144.158 107.564C144.29 108.788 145.286 110.18 147.446 110.18C149.39 110.18 150.458 108.92 150.458 107.6C150.458 106.4 149.654 105.452 148.154 105.152L146.93 104.9C146.27 104.756 145.934 104.348 145.934 103.808C145.934 103.16 146.534 102.584 147.398 102.584C148.538 102.584 148.982 103.364 149.066 103.892L150.362 103.484ZM152.889 106.436C152.937 105.812 153.441 105.14 154.317 105.14C155.277 105.14 155.733 105.752 155.757 106.436H152.889ZM155.913 107.96C155.721 108.536 155.289 108.98 154.449 108.98C153.585 108.98 152.889 108.344 152.853 107.456H157.125C157.137 107.432 157.161 107.24 157.161 107.012C157.161 105.164 156.105 103.976 154.305 103.976C152.829 103.976 151.461 105.2 151.461 107.048C151.461 109.028 152.865 110.18 154.449 110.18C155.853 110.18 156.777 109.352 157.089 108.332L155.913 107.96ZM161.14 105.26C162.028 105.26 162.424 105.836 162.556 106.352L163.804 105.896C163.564 104.96 162.7 103.976 161.128 103.976C159.448 103.976 158.14 105.272 158.14 107.072C158.14 108.848 159.448 110.18 161.164 110.18C162.7 110.18 163.576 109.184 163.852 108.272L162.628 107.828C162.496 108.272 162.076 108.908 161.164 108.908C160.288 108.908 159.532 108.248 159.532 107.072C159.532 105.896 160.288 105.26 161.14 105.26ZM167.75 108.932C166.898 108.932 166.118 108.284 166.118 107.072C166.118 105.86 166.898 105.236 167.75 105.236C168.614 105.236 169.382 105.86 169.382 107.072C169.382 108.296 168.614 108.932 167.75 108.932ZM167.75 103.976C166.01 103.976 164.726 105.284 164.726 107.072C164.726 108.872 166.01 110.18 167.75 110.18C169.502 110.18 170.786 108.872 170.786 107.072C170.786 105.284 169.502 103.976 167.75 103.976ZM173.533 106.628C173.533 105.86 173.953 105.248 174.745 105.248C175.621 105.248 175.945 105.824 175.945 106.544V110H177.337V106.304C177.337 105.02 176.653 103.988 175.225 103.988C174.577 103.988 173.881 104.264 173.497 104.936V104.156H172.141V110H173.533V106.628ZM180.029 107.06C180.029 105.944 180.701 105.236 181.613 105.236C182.525 105.236 183.149 105.932 183.149 107.048C183.149 108.164 182.513 108.92 181.601 108.92C180.653 108.92 180.029 108.176 180.029 107.06ZM184.493 101.312H183.137V104.84C182.957 104.468 182.441 104 181.421 104C179.777 104 178.637 105.38 178.637 107.06C178.637 108.824 179.765 110.144 181.445 110.144C182.273 110.144 182.885 109.736 183.161 109.244C183.161 109.484 183.197 109.868 183.221 110H184.553C184.541 109.904 184.493 109.46 184.493 108.932V101.312ZM185.844 108.416C185.844 109.34 186.6 110.18 187.824 110.18C188.772 110.18 189.348 109.7 189.624 109.256C189.624 109.724 189.672 109.964 189.684 110H190.98C190.968 109.94 190.908 109.592 190.908 109.064V106.16C190.908 104.996 190.224 103.976 188.424 103.976C186.984 103.976 186.072 104.876 185.964 105.884L187.236 106.172C187.296 105.584 187.704 105.116 188.436 105.116C189.204 105.116 189.54 105.512 189.54 106.004C189.54 106.208 189.444 106.376 189.108 106.424L187.608 106.652C186.612 106.796 185.844 107.372 185.844 108.416ZM188.088 109.088C187.536 109.088 187.236 108.728 187.236 108.332C187.236 107.852 187.584 107.612 188.016 107.54L189.54 107.312V107.576C189.54 108.716 188.868 109.088 188.088 109.088ZM196.011 104.12C195.951 104.108 195.807 104.084 195.639 104.084C194.871 104.084 194.223 104.456 193.947 105.092V104.156H192.591V110H193.983V107.216C193.983 106.124 194.475 105.5 195.555 105.5C195.699 105.5 195.855 105.512 196.011 105.536V104.12ZM199.01 112.364L202.73 104.156H201.254L199.682 107.852L198.002 104.156H196.43L198.926 109.304L197.522 112.364H199.01Z" fill="#00456C"/>
</g>
<defs>
<clipPath id="clip0_1218_6629">
<rect width="240" height="138" rx="6" fill="white"/>
</clipPath>
<clipPath id="clip1_1218_6629">
<rect width="209" height="32" fill="white" transform="translate(15 42)"/>
</clipPath>
</defs>
</svg>
