<svg width="394" height="390" viewBox="0 0 394 390" fill="none" xmlns="http://www.w3.org/2000/svg">
<rect width="394" height="390" rx="6" fill="white"/>
<g opacity="0.3">
<rect x="292" y="322" width="78" height="44" rx="6" fill="#00A991"/>
<path d="M315.834 341.398C315.61 340.292 314.7 338.864 312.362 338.864C310.514 338.864 308.988 340.236 308.988 341.902C308.988 343.386 309.996 344.38 311.508 344.688L312.908 344.982C313.762 345.164 314.238 345.682 314.238 346.326C314.238 347.096 313.622 347.698 312.432 347.698C311.004 347.698 310.262 346.746 310.164 345.71L308.596 346.158C308.75 347.586 309.912 349.21 312.432 349.21C314.7 349.21 315.946 347.74 315.946 346.2C315.946 344.8 315.008 343.694 313.258 343.344L311.83 343.05C311.06 342.882 310.668 342.406 310.668 341.776C310.668 341.02 311.368 340.348 312.376 340.348C313.706 340.348 314.224 341.258 314.322 341.874L315.834 341.398ZM321.92 348.244C321.92 348.524 321.948 348.846 321.976 349H323.53C323.502 348.748 323.46 348.314 323.46 347.754V342.182H321.836V346.214C321.836 347.11 321.346 347.74 320.408 347.74C319.428 347.74 319.036 347.026 319.036 346.186V342.182H317.412V346.48C317.412 347.992 318.364 349.196 319.988 349.196C320.786 349.196 321.584 348.86 321.92 348.244ZM327.062 349V348.09C327.454 348.748 328.196 349.168 329.162 349.168C331.15 349.168 332.368 347.614 332.368 345.556C332.368 343.554 331.262 342 329.218 342C328.168 342 327.384 342.49 327.076 343.022V338.864H325.48V349H327.062ZM330.73 345.57C330.73 346.914 329.96 347.726 328.896 347.726C327.86 347.726 327.062 346.914 327.062 345.57C327.062 344.212 327.86 343.442 328.896 343.442C329.974 343.442 330.73 344.212 330.73 345.57ZM335.58 349V344.954C335.58 344.086 336.126 343.442 336.994 343.442C337.918 343.442 338.31 344.058 338.31 344.842V349H339.906V344.954C339.906 344.114 340.466 343.442 341.32 343.442C342.23 343.442 342.636 344.044 342.636 344.842V349H344.204V344.576C344.204 342.77 343.028 341.986 341.796 341.986C340.914 341.986 340.116 342.294 339.584 343.19C339.22 342.392 338.436 341.986 337.54 341.986C336.77 341.986 335.916 342.35 335.524 343.05V342.182H333.97V349H335.58ZM347.762 349V342.182H346.152V349H347.762ZM345.9 339.788C345.9 340.376 346.376 340.838 346.95 340.838C347.538 340.838 348.014 340.376 348.014 339.788C348.014 339.2 347.538 338.724 346.95 338.724C346.376 338.724 345.9 339.2 345.9 339.788ZM351.917 340.096H350.447V341.118C350.447 341.72 350.125 342.182 349.397 342.182H349.047V343.624H350.307V347.054C350.307 348.328 351.091 349.084 352.351 349.084C352.939 349.084 353.247 348.972 353.345 348.93V347.586C353.275 347.6 353.009 347.642 352.785 347.642C352.183 347.642 351.917 347.39 351.917 346.788V343.624H353.331V342.182H351.917V340.096Z" fill="white"/>
</g>
<g opacity="0.8">
<rect x="24" y="64" width="72" height="14" rx="2" fill="#697D95"/>
</g>
<g opacity="0.5">
<rect x="36" y="101" width="113" height="14" rx="2" fill="#697D95"/>
</g>
<rect x="24.5" y="86.5" width="345" height="43" rx="5.5" stroke="#BAC7D5"/>
<g opacity="0.8">
<rect x="24" y="148" width="72" height="14" rx="2" fill="#697D95"/>
</g>
<g opacity="0.5">
<rect x="36" y="185" width="113" height="14" rx="2" fill="#697D95"/>
</g>
<rect x="24.5" y="170.5" width="164" height="43" rx="5.5" stroke="#BAC7D5"/>
<g opacity="0.8">
<rect x="24" y="232" width="72" height="14" rx="2" fill="#697D95"/>
</g>
<g opacity="0.5">
<rect x="36" y="269" width="113" height="14" rx="2" fill="#697D95"/>
</g>
<rect x="24.5" y="254.5" width="164" height="43" rx="5.5" stroke="#BAC7D5"/>
<g opacity="0.8">
<rect x="205" y="148" width="72" height="14" rx="2" fill="#697D95"/>
</g>
<g opacity="0.5">
<rect x="217" y="185" width="113" height="14" rx="2" fill="#697D95"/>
</g>
<rect x="205.5" y="170.5" width="164" height="43" rx="5.5" stroke="#BAC7D5"/>
<g opacity="0.8">
<rect x="205" y="232" width="72" height="14" rx="2" fill="#697D95"/>
</g>
<g opacity="0.5">
<rect x="217" y="269" width="113" height="14" rx="2" fill="#697D95"/>
</g>
<rect x="205.5" y="254.5" width="164" height="43" rx="5.5" stroke="#BAC7D5"/>
</svg>
