<svg width="100%" viewBox="0 0 394 366" fill="none" xmlns="http://www.w3.org/2000/svg">
<rect width="394" height="366" rx="6" fill="white"/>
<rect x="278" y="298" width="92" height="44" rx="6" fill="#00A991"/>
<path d="M300.022 325.21C302.556 325.21 304.068 323.6 304.516 321.92L302.976 321.416C302.64 322.536 301.688 323.6 300.022 323.6C298.328 323.6 296.732 322.368 296.732 320.044C296.732 317.636 298.37 316.446 300.008 316.446C301.674 316.446 302.598 317.412 302.892 318.616L304.474 318.084C304.026 316.348 302.528 314.864 300.008 314.864C297.432 314.864 295.01 316.81 295.01 320.044C295.01 323.278 297.348 325.21 300.022 325.21ZM309.009 323.754C308.015 323.754 307.105 322.998 307.105 321.584C307.105 320.17 308.015 319.442 309.009 319.442C310.017 319.442 310.913 320.17 310.913 321.584C310.913 323.012 310.017 323.754 309.009 323.754ZM309.009 317.972C306.979 317.972 305.481 319.498 305.481 321.584C305.481 323.684 306.979 325.21 309.009 325.21C311.053 325.21 312.551 323.684 312.551 321.584C312.551 319.498 311.053 317.972 309.009 317.972ZM315.756 321.066C315.756 320.17 316.246 319.456 317.17 319.456C318.192 319.456 318.57 320.128 318.57 320.968V325H320.194V320.688C320.194 319.19 319.396 317.986 317.73 317.986C316.974 317.986 316.162 318.308 315.714 319.092V318.182H314.132V325H315.756V321.066ZM324.217 316.096H322.747V317.118C322.747 317.72 322.425 318.182 321.697 318.182H321.347V319.624H322.607V323.054C322.607 324.328 323.391 325.084 324.651 325.084C325.239 325.084 325.547 324.972 325.645 324.93V323.586C325.575 323.6 325.309 323.642 325.085 323.642C324.483 323.642 324.217 323.39 324.217 322.788V319.624H325.631V318.182H324.217V316.096ZM328.799 325V318.182H327.189V325H328.799ZM326.937 315.788C326.937 316.376 327.413 316.838 327.987 316.838C328.575 316.838 329.051 316.376 329.051 315.788C329.051 315.2 328.575 314.724 327.987 314.724C327.413 314.724 326.937 315.2 326.937 315.788ZM332.436 321.066C332.436 320.17 332.926 319.456 333.85 319.456C334.872 319.456 335.25 320.128 335.25 320.968V325H336.874V320.688C336.874 319.19 336.076 317.986 334.41 317.986C333.654 317.986 332.842 318.308 332.394 319.092V318.182H330.812V325H332.436V321.066ZM343.261 324.244C343.261 324.524 343.289 324.846 343.317 325H344.871C344.843 324.748 344.801 324.314 344.801 323.754V318.182H343.177V322.214C343.177 323.11 342.687 323.74 341.749 323.74C340.769 323.74 340.377 323.026 340.377 322.186V318.182H338.753V322.48C338.753 323.992 339.705 325.196 341.329 325.196C342.127 325.196 342.925 324.86 343.261 324.244ZM348.053 320.842C348.109 320.114 348.697 319.33 349.719 319.33C350.839 319.33 351.371 320.044 351.399 320.842H348.053ZM351.581 322.62C351.357 323.292 350.853 323.81 349.873 323.81C348.865 323.81 348.053 323.068 348.011 322.032H352.995C353.009 322.004 353.037 321.78 353.037 321.514C353.037 319.358 351.805 317.972 349.705 317.972C347.983 317.972 346.387 319.4 346.387 321.556C346.387 323.866 348.025 325.21 349.873 325.21C351.511 325.21 352.589 324.244 352.953 323.054L351.581 322.62Z" fill="white"/>
<g opacity="0.8">
<rect x="40" y="216" width="152" height="16" rx="2" fill="#697D95"/>
</g>
<g clip-path="url(#clip0_1163_7154)">
<g opacity="0.5">
<rect x="40" y="246" width="85" height="14" rx="2" fill="#697D95"/>
</g>
<g opacity="0.5">
<rect x="131" y="246" width="41" height="14" rx="2" fill="#697D95"/>
</g>
<g opacity="0.5">
<rect x="178" y="246" width="85" height="14" rx="2" fill="#697D95"/>
</g>
</g>
<rect x="295" y="216" width="59" height="44" rx="6" fill="#ECF8F7"/>
<path d="M319.178 243H321.012L317.148 233.074H315.202L311.338 243H313.116L314.04 240.508H318.24L319.178 243ZM316.14 234.894L317.652 238.954H314.628L316.14 234.894ZM323.225 239.57C323.225 238.268 324.009 237.442 325.073 237.442C326.137 237.442 326.865 238.254 326.865 239.556C326.865 240.858 326.123 241.74 325.059 241.74C323.953 241.74 323.225 240.872 323.225 239.57ZM328.433 232.864H326.851V236.98C326.641 236.546 326.039 236 324.849 236C322.931 236 321.601 237.61 321.601 239.57C321.601 241.628 322.917 243.168 324.877 243.168C325.843 243.168 326.557 242.692 326.879 242.118C326.879 242.398 326.921 242.846 326.949 243H328.503C328.489 242.888 328.433 242.37 328.433 241.754V232.864ZM331.634 239.57C331.634 238.268 332.418 237.442 333.482 237.442C334.546 237.442 335.274 238.254 335.274 239.556C335.274 240.858 334.532 241.74 333.468 241.74C332.362 241.74 331.634 240.872 331.634 239.57ZM336.842 232.864H335.26V236.98C335.05 236.546 334.448 236 333.258 236C331.34 236 330.01 237.61 330.01 239.57C330.01 241.628 331.326 243.168 333.286 243.168C334.252 243.168 334.966 242.692 335.288 242.118C335.288 242.398 335.33 242.846 335.358 243H336.912C336.898 242.888 336.842 242.37 336.842 241.754V232.864Z" fill="#007F6D"/>
<rect x="24.5" y="200.5" width="345" height="75" rx="5.5" stroke="#E8EDF1"/>
<g opacity="0.8">
<rect x="40" y="128" width="74" height="16" rx="2" fill="#697D95"/>
</g>
<g opacity="0.8">
<rect x="120" y="128" width="74" height="16" rx="2" fill="#697D95"/>
</g>
<g clip-path="url(#clip1_1163_7154)">
<g opacity="0.5">
<rect x="40" y="158" width="41" height="14" rx="2" fill="#697D95"/>
</g>
<g opacity="0.5">
<rect x="87" y="158" width="176" height="14" rx="2" fill="#697D95"/>
</g>
</g>
<rect x="295" y="128" width="59" height="44" rx="6" fill="#ECF8F7"/>
<path d="M319.178 155H321.012L317.148 145.074H315.202L311.338 155H313.116L314.04 152.508H318.24L319.178 155ZM316.14 146.894L317.652 150.954H314.628L316.14 146.894ZM323.225 151.57C323.225 150.268 324.009 149.442 325.073 149.442C326.137 149.442 326.865 150.254 326.865 151.556C326.865 152.858 326.123 153.74 325.059 153.74C323.953 153.74 323.225 152.872 323.225 151.57ZM328.433 144.864H326.851V148.98C326.641 148.546 326.039 148 324.849 148C322.931 148 321.601 149.61 321.601 151.57C321.601 153.628 322.917 155.168 324.877 155.168C325.843 155.168 326.557 154.692 326.879 154.118C326.879 154.398 326.921 154.846 326.949 155H328.503C328.489 154.888 328.433 154.37 328.433 153.754V144.864ZM331.634 151.57C331.634 150.268 332.418 149.442 333.482 149.442C334.546 149.442 335.274 150.254 335.274 151.556C335.274 152.858 334.532 153.74 333.468 153.74C332.362 153.74 331.634 152.872 331.634 151.57ZM336.842 144.864H335.26V148.98C335.05 148.546 334.448 148 333.258 148C331.34 148 330.01 149.61 330.01 151.57C330.01 153.628 331.326 155.168 333.286 155.168C334.252 155.168 334.966 154.692 335.288 154.118C335.288 154.398 335.33 154.846 335.358 155H336.912C336.898 154.888 336.842 154.37 336.842 153.754V144.864Z" fill="#007F6D"/>
<rect x="24.5" y="112.5" width="345" height="75" rx="5.5" stroke="#E8EDF1"/>
<g opacity="0.8">
<rect x="40" y="40" width="114" height="16" rx="2" fill="#697D95"/>
</g>
<g opacity="0.5">
<rect x="40" y="70" width="87" height="14" rx="2" fill="#697D95"/>
</g>
<g opacity="0.5">
<rect x="133" y="70" width="130" height="14" rx="2" fill="#697D95"/>
</g>
<rect x="295" y="40" width="59" height="44" rx="6" fill="#ECF8F7"/>
<path d="M319.178 67H321.012L317.148 57.074H315.202L311.338 67H313.116L314.04 64.508H318.24L319.178 67ZM316.14 58.894L317.652 62.954H314.628L316.14 58.894ZM323.225 63.57C323.225 62.268 324.009 61.442 325.073 61.442C326.137 61.442 326.865 62.254 326.865 63.556C326.865 64.858 326.123 65.74 325.059 65.74C323.953 65.74 323.225 64.872 323.225 63.57ZM328.433 56.864H326.851V60.98C326.641 60.546 326.039 60 324.849 60C322.931 60 321.601 61.61 321.601 63.57C321.601 65.628 322.917 67.168 324.877 67.168C325.843 67.168 326.557 66.692 326.879 66.118C326.879 66.398 326.921 66.846 326.949 67H328.503C328.489 66.888 328.433 66.37 328.433 65.754V56.864ZM331.634 63.57C331.634 62.268 332.418 61.442 333.482 61.442C334.546 61.442 335.274 62.254 335.274 63.556C335.274 64.858 334.532 65.74 333.468 65.74C332.362 65.74 331.634 64.872 331.634 63.57ZM336.842 56.864H335.26V60.98C335.05 60.546 334.448 60 333.258 60C331.34 60 330.01 61.61 330.01 63.57C330.01 65.628 331.326 67.168 333.286 67.168C334.252 67.168 334.966 66.692 335.288 66.118C335.288 66.398 335.33 66.846 335.358 67H336.912C336.898 66.888 336.842 66.37 336.842 65.754V56.864Z" fill="#007F6D"/>
<rect x="24.5" y="24.5" width="345" height="75" rx="5.5" stroke="#E8EDF1"/>
<defs>
<clipPath id="clip0_1163_7154">
<rect width="223" height="14" fill="white" transform="translate(40 246)"/>
</clipPath>
<clipPath id="clip1_1163_7154">
<rect width="223" height="14" fill="white" transform="translate(40 158)"/>
</clipPath>
</defs>
</svg>
