<svg width="20" height="20" viewBox="0 0 20 20" fill="none" xmlns="http://www.w3.org/2000/svg">
<path fill-rule="evenodd" clip-rule="evenodd" d="M10 20C15.5228 20 20 15.5228 20 10C20 4.47715 15.5228 0 10 0C4.47715 0 0 4.47715 0 10C0 15.5228 4.47715 20 10 20ZM10 18C14.4183 18 18 14.4183 18 10C18 5.58172 14.4183 2 10 2C5.58172 2 2 5.58172 2 10C2 14.4183 5.58172 18 10 18Z" fill="#252A31"/>
<path d="M10 15.5C10 15.7761 10.2246 16.0022 10.4999 15.9795C13.5803 15.7255 16 13.1454 16 10C16 6.85457 13.5803 4.27447 10.4999 4.02052C10.2246 3.99783 10 4.22386 10 4.5V15.5Z" fill="#252A31"/>
</svg>
