<svg width="24" height="24" viewBox="0 0 24 24" fill="none" xmlns="http://www.w3.org/2000/svg">
<path fill-rule="evenodd" clip-rule="evenodd" d="M20.4186 7.35802C20.4186 7.66026 20.2667 7.9625 19.9652 8.03806C19.8889 8.11362 19.7378 8.11362 19.663 8.11362C19.4363 8.11362 19.2852 8.03806 19.1333 7.88694L18.454 7.2069C18.3777 7.13134 18.2266 7.13134 18.1518 7.2069L12.787 12.5717C12.4092 12.9495 11.8047 12.9495 11.4269 12.5717C11.0491 12.1939 11.0491 11.5894 11.4269 11.2116L16.7917 5.84682C16.8665 5.77126 16.8665 5.62014 16.7917 5.54458L16.1109 4.86454C15.9598 4.71342 15.885 4.5623 15.885 4.33562C15.885 3.88226 16.1872 3.58002 16.6406 3.58002H19.663C20.1156 3.58002 20.4186 3.88226 20.4186 4.33562V7.35802ZM5.49008 5.69209H12.9273C13.4299 5.69209 13.8373 6.09951 13.8373 6.60209C13.8373 7.10467 13.4299 7.51209 12.9273 7.51209H5.49008C5.44037 7.51209 5.40008 7.55238 5.40008 7.60209V18.51C5.40008 18.5597 5.44037 18.6 5.49008 18.6H11.984H16.3967C16.4464 18.6 16.4867 18.5597 16.4867 18.51V11.0791C16.4867 10.5765 16.8941 10.1691 17.3967 10.1691C17.8992 10.1691 18.3067 10.5765 18.3067 11.0791V18.51C18.3067 19.5649 17.4515 20.42 16.3967 20.42H5.49008C4.43521 20.42 3.58008 19.5649 3.58008 18.51V7.60209C3.58008 6.54722 4.43521 5.69209 5.49008 5.69209Z" fill="#252A31"/>
</svg>
