<svg width="99" height="25" viewBox="0 0 99 25" fill="none" xmlns="http://www.w3.org/2000/svg"><path d="M32.366 19.587l1.22-2.835c1.32.984 3.071 1.496 4.804 1.496 1.28 0 2.086-.492 2.086-1.24-.02-2.087-7.657-.453-7.716-5.69-.02-2.657 2.342-4.704 5.689-4.704 1.988 0 3.976.492 5.394 1.614L42.7 11.122c-1.3-.827-2.914-1.417-4.45-1.417-1.042 0-1.731.492-1.731 1.122.02 2.047 7.716.925 7.795 5.925 0 2.716-2.303 4.626-5.61 4.626-2.422 0-4.646-.57-6.339-1.791zm46.83-3.859a3.542 3.542 0 0 1-3.07 1.792 3.52 3.52 0 0 1-3.524-3.524 3.52 3.52 0 0 1 3.524-3.524 3.54 3.54 0 0 1 3.07 1.792l3.367-1.87c-1.26-2.244-3.681-3.78-6.437-3.78a7.385 7.385 0 0 0-7.382 7.382 7.385 7.385 0 0 0 7.382 7.382 7.338 7.338 0 0 0 6.437-3.78l-3.366-1.87zM46.009.492h4.212v20.61h-4.212V.492zm38.208 0v20.61h4.213v-6.18l5 6.18h5.394l-6.358-7.342 5.885-6.85h-5.157l-4.764 5.688V.492h-4.213zM62.74 15.768c-.61 1.004-1.87 1.752-3.287 1.752a3.52 3.52 0 0 1-3.524-3.524 3.52 3.52 0 0 1 3.524-3.524c1.417 0 2.677.788 3.287 1.812v3.484zm0-8.859v1.674c-.689-1.162-2.401-1.969-4.193-1.969-3.7 0-6.614 3.268-6.614 7.362 0 4.095 2.913 7.402 6.614 7.402 1.792 0 3.504-.807 4.193-1.969v1.674h4.213V6.909H62.74z" fill="#fff"/><path d="M6.323 15.748a2.596 2.596 0 0 1-2.599 2.598 2.596 2.596 0 0 1-2.598-2.598 2.596 2.596 0 0 1 2.598-2.598h2.599v2.598zm1.299 0a2.596 2.596 0 0 1 2.598-2.598 2.596 2.596 0 0 1 2.599 2.598v6.496a2.596 2.596 0 0 1-2.599 2.599 2.596 2.596 0 0 1-2.598-2.599v-6.496z" fill="#E01E5A"/><path d="M10.22 5.315a2.596 2.596 0 0 1-2.598-2.598A2.596 2.596 0 0 1 10.22.118a2.596 2.596 0 0 1 2.599 2.599v2.598H10.22zm0 1.319a2.596 2.596 0 0 1 2.599 2.598 2.596 2.596 0 0 1-2.599 2.599H3.705a2.596 2.596 0 0 1-2.599-2.599 2.596 2.596 0 0 1 2.599-2.598h6.515z" fill="#36C5F0"/><path d="M20.634 9.232a2.596 2.596 0 0 1 2.598-2.598 2.596 2.596 0 0 1 2.599 2.598 2.596 2.596 0 0 1-2.599 2.599h-2.598V9.232zm-1.3 0a2.596 2.596 0 0 1-2.598 2.599 2.596 2.596 0 0 1-2.598-2.599V2.717A2.596 2.596 0 0 1 16.736.118a2.596 2.596 0 0 1 2.599 2.599v6.515z" fill="#2EB67D"/><path d="M16.736 19.646a2.596 2.596 0 0 1 2.599 2.598 2.596 2.596 0 0 1-2.599 2.599 2.596 2.596 0 0 1-2.598-2.599v-2.598h2.598zm0-1.3a2.596 2.596 0 0 1-2.598-2.598 2.596 2.596 0 0 1 2.598-2.598h6.516a2.596 2.596 0 0 1 2.598 2.598 2.596 2.596 0 0 1-2.598 2.598h-6.516z" fill="#ECB22E"/></svg>