<svg width="126" height="20" viewBox="0 0 126 20" xmlns="http://www.w3.org/2000/svg"><path d="M0 1.083C0 .513.462.05 1.032.05h.902c7.478 0 13.54 6.066 13.54 13.549v.903c0 .57-.462 1.032-1.031 1.032H8.769c-.57 0-1.032-.462-1.032-1.032v-.903a5.805 5.805 0 0 0-5.803-5.807h-.902C.462 7.792 0 7.33 0 6.76V1.083zM23.17 12.26c.093 1.277 1.253 3.623 4.874 3.623 3.087 0 4.596-1.928 4.596-3.902 0-1.696-1.16-3.136-3.551-3.624l-1.532-.302c-.51-.092-.905-.371-.905-.859 0-.604.58-.999 1.253-.999 1.068 0 1.555.65 1.648 1.417l2.925-.534c-.116-1.347-1.277-3.437-4.62-3.437-2.576 0-4.433 1.718-4.433 3.832 0 1.626.975 3.02 3.436 3.553l1.323.302c.858.186 1.137.534 1.137.953 0 .51-.441.998-1.346.998-1.207 0-1.764-.766-1.81-1.556l-2.995.534zm15.292 7.687v-5.319c.534.65 1.648 1.162 3.134 1.162 3.226 0 5.5-2.532 5.5-6.062 0-3.46-2.019-6.016-5.361-6.016-1.648 0-2.901.72-3.389 1.463V3.991h-3.412v15.956h3.528zm5.176-10.196c0 1.928-1.23 2.88-2.623 2.88-1.37 0-2.6-.976-2.6-2.88 0-1.928 1.23-2.857 2.6-2.857 1.393 0 2.623.93 2.623 2.857zm8.404-1.371c.07-.859.813-1.95 2.298-1.95 1.671 0 2.275 1.068 2.321 1.95h-4.619zm4.875 2.997c-.325.906-1.045 1.51-2.321 1.51-1.37 0-2.554-.93-2.623-2.23h8.03c.024-.07.07-.604.07-1.092 0-3.716-2.205-5.922-5.78-5.922-2.993 0-5.756 2.369-5.756 6.085 0 3.878 2.832 6.155 6.012 6.155 2.925 0 4.758-1.673 5.316-3.67l-2.948-.836zm10.737-4.483c1.37 0 2.066.836 2.321 1.719l3.157-.952c-.51-2.067-2.368-4.018-5.547-4.018-3.39 0-6.082 2.531-6.082 6.131 0 3.577 2.762 6.109 6.198 6.109 3.087 0 4.99-1.998 5.5-4.018l-3.11-.953c-.255.86-1.02 1.719-2.39 1.719-1.463 0-2.693-1.022-2.693-2.857 0-1.858 1.184-2.88 2.646-2.88zM79.574.623h-3.157V2.11c0 1.068-.58 1.881-1.787 1.881h-.58V7.08h2.042v4.947c0 2.3 1.463 3.716 3.853 3.716 1.115 0 1.695-.255 1.834-.325v-2.926a4.346 4.346 0 0 1-.928.116c-.766 0-1.277-.256-1.277-1.208V7.08h2.252V3.991h-2.252V.623zm11.951 3.368a3.484 3.484 0 0 0-.929-.116c-.928 0-2.39.371-2.994 1.672V3.991H84.19v11.543h3.528v-5.04c0-2.3 1.277-3.135 2.692-3.135.349 0 .72.023 1.115.116V3.99zm9.5 11.543h3.389a18.172 18.172 0 0 1-.116-2.067V3.991h-3.528v6.573c0 1.161-.743 1.974-1.927 1.974-1.253 0-1.857-.883-1.857-1.997V3.99h-3.528v7.293c0 2.462 1.578 4.506 4.387 4.506 1.16 0 2.484-.418 3.087-1.417 0 .302.046.952.093 1.161zm9.904 0V8.892c0-1.046.673-1.998 1.904-1.998 1.276 0 1.857.86 1.857 1.951v6.69h3.481V8.867c0-1.022.673-1.974 1.927-1.974 1.253 0 1.833.86 1.833 1.951v6.69h3.413v-7.48c0-3.135-2.09-4.412-4.271-4.412-1.556 0-2.67.51-3.575 1.811-.58-1.138-1.764-1.811-3.412-1.811-1.253 0-2.739.65-3.319 1.672V3.99h-3.366v11.543h3.528z" fill="#fff"/></svg>