<svg width="22" height="24" viewBox="0 0 22 24" fill="none" xmlns="http://www.w3.org/2000/svg">
<mask id="mask0" style="mask-type:alpha" maskUnits="userSpaceOnUse" x="0" y="0" width="22" height="24">
<path d="M0.848414 22.0683L0.000984942 2.30018C-0.0270023 1.64732 0.5448 1.09402 1.28961 1.05327L20.4956 0.00238575C21.2537 -0.0390961 21.9067 0.465319 21.9541 1.12903C21.9559 1.15403 21.9568 1.17908 21.9568 1.20414V22.745C21.9568 23.41 21.341 23.9491 20.5814 23.9491C20.5608 23.9491 20.5403 23.9487 20.5197 23.9479L2.16112 23.226C1.44612 23.1979 0.875256 22.6944 0.848414 22.0683Z" fill="white"/>
</mask>
<g mask="url(#mask0)">
<path d="M0.848414 22.0683L0.000984942 2.30018C-0.0270023 1.64732 0.5448 1.09402 1.28961 1.05327L20.4956 0.00238575C21.2537 -0.0390961 21.9067 0.465319 21.9541 1.12903C21.9559 1.15403 21.9568 1.17908 21.9568 1.20414V22.745C21.9568 23.41 21.341 23.9491 20.5814 23.9491C20.5608 23.9491 20.5403 23.9487 20.5197 23.9479L2.16112 23.226C1.44612 23.1979 0.875256 22.6944 0.848414 22.0683Z" fill="#FF4785"/>
<path d="M16.2134 2.94372L16.3446 0.181428L18.9822 0L19.0958 2.84866C19.0998 2.9478 19.0112 3.03097 18.8979 3.03444C18.8494 3.03592 18.8019 3.02231 18.7638 2.99602L17.7467 2.29455L16.5424 3.09429C16.4521 3.15424 16.3234 3.13877 16.255 3.05974C16.2261 3.02647 16.2114 2.98544 16.2134 2.94372ZM12.8402 9.02673C12.8402 9.4952 16.4446 9.27067 16.9285 8.94161C16.9285 5.75148 14.9732 4.07512 11.3928 4.07512C7.81246 4.07512 5.80643 5.77756 5.80643 8.33123C5.80643 12.7789 12.6625 12.864 12.6625 15.29C12.6625 15.9709 12.2816 16.3753 11.4436 16.3753C10.3517 16.3753 9.92006 15.8871 9.97085 14.2272C9.97085 13.8671 5.80643 13.7549 5.67946 14.2272C5.35616 18.2497 8.21874 19.4099 11.4944 19.4099C14.6685 19.4099 17.157 17.9288 17.157 15.2474C17.157 10.4806 10.1994 10.6082 10.1994 8.24611C10.1994 7.28848 11.012 7.1608 11.4944 7.1608C12.0023 7.1608 12.9164 7.23916 12.8402 9.02673Z" fill="white"/>
</g>
</svg>
