<svg xmlns="http://www.w3.org/2000/svg" viewBox="0 0 24 24" fill="currentColor"><path d="M16.43 8.84a.46.46 0 0 0 .36-.17.48.48 0 0 0 .09-.4 5 5 0 0 0-9.75 0 .49.49 0 0 0 .09.42.51.51 0 0 0 .39.19Z" fill="none" stroke-linecap="round" stroke-linejoin="round"/><path d="M8 .84v1C8 3 8.92 4.06 9.6 5M16 .84v1C16 3 15.08 4.06 14.4 5M7 10.84v6C7 19 10 22 11.32 23.23a1 1 0 0 0 1.36 0C14.05 22 17 19 17 16.84v-6Zm0 0H5.75c-1.38 0-2.29 1-3.25 2M7 14.85H5.75c-1.38 0-2.29 1-3.25 2" fill="none" stroke-linecap="round" stroke-linejoin="round"/><path d="M7.63 18.84H6.25c-1.38 0-2.29 1-3.25 2m14-10h1.25c1.38 0 2.29 1 3.25 2M17 14.85h1.25c1.38 0 2.29 1 3.25 2m-5.13 1.99h1.38c1.38 0 2.29 1 3.25 2" fill="none" stroke-linecap="round" stroke-linejoin="round"/></svg>