<svg xmlns="http://www.w3.org/2000/svg" viewBox="0 0 24 24" fill="currentColor" stroke="currentColor"><path d="M19.5 2.192c-.882-2.709-4-1.9-4 .537 0 1.766 2.67 4.025 3.691 4.825a.5.5 0 0 0 .618 0C20.83 6.754 23.5 4.5 23.5 2.729c0-2.429-3.118-3.246-4-.537ZM11.75 11.5a.25.25 0 0 1 .25.25m-.5 0a.25.25 0 0 1 .25-.25m0 .5a.25.25 0 0 1-.25-.25m.5 0a.25.25 0 0 1-.25.25" fill="none" stroke-linecap="round" stroke-linejoin="round"/><path d="M10.447 8.107a4.734 4.734 0 0 0-4.114 4.776v1.034a5.7 5.7 0 0 1-4.967-1.844.5.5 0 0 0-.866.387c.324 3.192 1.712 5.551 4.364 6.777a7.691 7.691 0 0 1-1 1.137l-2.433 2.26a.5.5 0 0 0 .34.866h6.008a7.721 7.721 0 0 0 7.721-7.721v-3.112a4.6 4.6 0 0 0-5.053-4.56Z" fill="none" stroke-linecap="round" stroke-linejoin="round"/><path d="m15.328 11.426 2.749 1.174a.5.5 0 0 1 .051.894L15.5 15" fill="none" stroke-linecap="round" stroke-linejoin="round"/></svg>