<svg xmlns="http://www.w3.org/2000/svg" viewBox="0 0 24 24" fill="currentColor" stroke="currentColor"><path d="m9.5 18.792-7.3-7.521a5.667 5.667 0 0 1-1.088-6.606h0A5.84 5.84 0 0 1 10.4 3.177L12 4.636l1.6-1.459a5.839 5.839 0 0 1 9.287 1.488h0a5.648 5.648 0 0 1 .466 3.835" fill="none" stroke-linecap="round" stroke-linejoin="round"/><path d="M22.5 22.5h-10a1 1 0 0 1-1-1v-10a1 1 0 0 1 1-1h10a1 1 0 0 1 1 1v10a1 1 0 0 1-1 1Zm-7.999-9h6m-6 3h6m-6 3h2.25" fill="none" stroke-linecap="round" stroke-linejoin="round"/></svg>