<svg xmlns="http://www.w3.org/2000/svg" viewBox="0 0 24 24" fill="currentColor"><path d="M9 2v2m1-1H8m8 18v2m1-1h-2m8-8h-1.7a1.3 1.3 0 0 0-1.3 1.3 1.31 1.31 0 0 0 .58 1.09l1.84 1.22A1.31 1.31 0 0 1 23 18.7a1.3 1.3 0 0 1-1.3 1.3H20m2-6v-1m-1 8v-1M4 2H2.3A1.3 1.3 0 0 0 1 3.3a1.31 1.31 0 0 0 .58 1.09l1.84 1.22A1.31 1.31 0 0 1 4 6.7 1.3 1.3 0 0 1 2.7 8H1m2-6V1M2 9V8m6.42 3.11 4.64 4.64M6.61 21c-1.49 1.49-4.35 1-4.35 1s-.53-2.86 1-4.35a2.08 2.08 0 0 1 3.28.11A2.09 2.09 0 0 1 6.61 21Z" fill="none" stroke-linecap="round" stroke-linejoin="round"/><g fill="none" stroke-linecap="round" stroke-linejoin="round"><path d="M20.92 3.25c-8.48-.85-11 5.14-14 10.6l3.39 3.39c5.47-3.01 11.46-5.51 10.61-13.99Z"/><path d="m8.76 10.52-1.31-.44a2.59 2.59 0 0 0-2.53.69l-1.41 1.41a.68.68 0 0 0-.18.63.59.59 0 0 0 .46.41l3.14.63m6.75 1.55.41 1.32a2.59 2.59 0 0 1-.69 2.53L12 20.66a.64.64 0 0 1-.62.18.58.58 0 0 1-.42-.46l-.63-3.14"/></g><circle cx="15.83" cy="8.34" r="1.8" fill="none" stroke-linecap="round" stroke-linejoin="round"/></svg>