
            <svg width="24px" height="24px" viewBox="0 0 24 24" version="1.1" xmlns="http://www.w3.org/2000/svg" xmlns:xlink="http://www.w3.org/1999/xlink">
            
            <g>
               <path d="M4,15.5 C4,17.43 5.57,19 7.5,19 L6,20.5 L6,21 L18,21 L18,20.5 L16.5,19 C18.43,19 20,17.43 20,15.5 L20,5 C20,1.5 16.42,1 12,1 C7.58,1 4,1.5 4,5 L4,15.5 L4,15.5 Z M12,17 C10.9,17 10,16.1 10,15 C10,13.9 10.9,13 12,13 C13.1,13 14,13.9 14,15 C14,16.1 13.1,17 12,17 L12,17 Z M18,10 L6,10 L6,5 L18,5 L18,10 L18,10 Z" id="path-1"></path>
            </g>
        </svg>
        