
            <svg width="24px" height="24px" viewBox="0 0 24 24" version="1.1" xmlns="http://www.w3.org/2000/svg" xmlns:xlink="http://www.w3.org/1999/xlink">
            
            <g>
               <path d="M13,9 L13,3.5 C13,2.67 12.33,2 11.5,2 C10.67,2 10,2.67 10,3.5 L10,7.18 L17.83,15.01 L21,16 L21,14 L13,9 L13,9 Z M3,5.27 L7.99,10.26 L2,14 L2,16 L10,13.5 L10,19 L8,20.5 L8,22 L11.5,21 L15,22 L15,20.5 L13,19 L13,15.27 L18.73,21 L20,19.73 L4.27,4 L3,5.27 L3,5.27 Z" id="path-1"></path>
            </g>
        </svg>
        