<svg width="312" height="340" viewBox="0 0 312 340" fill="none" xmlns="http://www.w3.org/2000/svg">
<rect width="312" height="340" fill="white"/>
<path d="M24 278C24 274.686 26.6863 272 30 272H282C285.314 272 288 274.686 288 278V310C288 313.314 285.314 316 282 316H30C26.6863 316 24 313.314 24 310V278Z" fill="#00A991"/>
<g opacity="0.7">
<path d="M130 289C130 287.895 130.895 287 132 287H180C181.105 287 182 287.895 182 289V299C182 300.105 181.105 301 180 301H132C130.895 301 130 300.105 130 299V289Z" fill="white"/>
</g>
<rect opacity="0.5" x="38" y="96" width="20" height="20" rx="3" fill="#697D95"/>
<g opacity="0.5">
<path d="M72 101C72 99.8954 72.8954 99 74 99H183C184.105 99 185 99.8954 185 101V111C185 112.105 184.105 113 183 113H74C72.8954 113 72 112.105 72 111V101Z" fill="#697D95"/>
</g>
<path d="M30 85H282V83H30V85ZM287 90V122H289V90H287ZM282 127H30V129H282V127ZM25 122V90H23V122H25ZM30 127C27.2386 127 25 124.761 25 122H23C23 125.866 26.134 129 30 129V127ZM287 122C287 124.761 284.761 127 282 127V129C285.866 129 289 125.866 289 122H287ZM282 85C284.761 85 287 87.2386 287 90H289C289 86.134 285.866 83 282 83V85ZM30 83C26.134 83 23 86.134 23 90H25C25 87.2386 27.2386 85 30 85V83Z" fill="#BAC7D5"/>
<rect opacity="0.5" x="38" y="156" width="20" height="20" rx="3" fill="#697D95"/>
<g opacity="0.5">
<rect x="72" y="159" width="60" height="14" rx="2" fill="#697D95"/>
<rect x="136" y="159" width="49" height="14" rx="2" fill="#697D95"/>
</g>
<path d="M30 145H282V143H30V145ZM287 150V182H289V150H287ZM282 187H30V189H282V187ZM25 182V150H23V182H25ZM30 187C27.2386 187 25 184.761 25 182H23C23 185.866 26.134 189 30 189V187ZM287 182C287 184.761 284.761 187 282 187V189C285.866 189 289 185.866 289 182H287ZM282 145C284.761 145 287 147.239 287 150H289C289 146.134 285.866 143 282 143V145ZM30 143C26.134 143 23 146.134 23 150H25C25 147.239 27.2386 145 30 145V143Z" fill="#BAC7D5"/>
<rect opacity="0.5" x="38" y="216" width="20" height="20" rx="3" fill="#697D95"/>
<g opacity="0.5">
<rect x="72" y="219" width="60" height="14" rx="2" fill="#697D95"/>
<rect x="136" y="219" width="49" height="14" rx="2" fill="#697D95"/>
</g>
<path d="M30 205H282V203H30V205ZM287 210V242H289V210H287ZM282 247H30V249H282V247ZM25 242V210H23V242H25ZM30 247C27.2386 247 25 244.761 25 242H23C23 245.866 26.134 249 30 249V247ZM287 242C287 244.761 284.761 247 282 247V249C285.866 249 289 245.866 289 242H287ZM282 205C284.761 205 287 207.239 287 210H289C289 206.134 285.866 203 282 203V205ZM30 203C26.134 203 23 206.134 23 210H25C25 207.239 27.2386 205 30 205V203Z" fill="#BAC7D5"/>
<g opacity="0.5">
<path d="M40 41C40 39.8954 40.8954 39 42 39H99C100.105 39 101 39.8954 101 41V51C101 52.1046 100.105 53 99 53H42C40.8954 53 40 52.1046 40 51V41Z" fill="#697D95"/>
</g>
<path opacity="0.5" d="M120.912 42.7472C120.579 42.3781 120.008 42.3488 119.638 42.6817C119.268 43.0147 119.238 43.5838 119.572 43.9528L124.368 49.2549C124.727 49.6521 125.352 49.651 125.71 49.2525L130.43 43.9968C130.762 43.6265 130.731 43.0575 130.36 42.7259C129.988 42.3943 129.418 42.4256 129.085 42.7958L125.332 46.9755C125.173 47.1521 124.897 47.1526 124.737 46.9766L120.912 42.7472Z" fill="#252A31"/>
<path d="M30 25H143V23H30V25ZM148 30V62H150V30H148ZM143 67H30V69H143V67ZM25 62V30H23V62H25ZM30 67C27.2386 67 25 64.7614 25 62H23C23 65.866 26.134 69 30 69V67ZM148 62C148 64.7614 145.761 67 143 67V69C146.866 69 150 65.866 150 62H148ZM143 25C145.761 25 148 27.2386 148 30H150C150 26.134 146.866 23 143 23V25ZM30 23C26.134 23 23 26.134 23 30H25C25 27.2386 27.2386 25 30 25V23Z" fill="#BAC7D5"/>
<rect opacity="0.5" x="177" y="36" width="20" height="20" rx="3" fill="#697D95"/>
<g opacity="0.5">
<path d="M211 41C211 39.8954 211.895 39 213 39H238C239.105 39 240 39.8954 240 41V51C240 52.1046 239.105 53 238 53H213C211.895 53 211 52.1046 211 51V41Z" fill="#697D95"/>
</g>
<path opacity="0.5" d="M259.913 42.7472C259.579 42.3781 259.008 42.3488 258.638 42.6817C258.268 43.0147 258.239 43.5838 258.572 43.9528L263.368 49.2549C263.727 49.6521 264.352 49.651 264.71 49.2525L269.43 43.9968C269.762 43.6265 269.731 43.0575 269.36 42.7259C268.989 42.3943 268.418 42.4256 268.086 42.7958L264.332 46.9755C264.173 47.1521 263.897 47.1526 263.738 46.9766L259.913 42.7472Z" fill="#252A31"/>
<path d="M169 25H282V23H169V25ZM287 30V62H289V30H287ZM282 67H169V69H282V67ZM164 62V30H162V62H164ZM169 67C166.239 67 164 64.7614 164 62H162C162 65.866 165.134 69 169 69V67ZM287 62C287 64.7614 284.761 67 282 67V69C285.866 69 289 65.866 289 62H287ZM282 25C284.761 25 287 27.2386 287 30H289C289 26.134 285.866 23 282 23V25ZM169 23C165.134 23 162 26.134 162 30H164C164 27.2386 166.239 25 169 25V23Z" fill="#BAC7D5"/>
</svg>
