<svg width="394" height="390" viewBox="0 0 394 390" fill="none" xmlns="http://www.w3.org/2000/svg">
<g clip-path="url(#clip0_1195_6452)">
<rect width="394" height="390" rx="6" fill="white"/>
<rect x="292" y="322" width="78" height="44" rx="6" fill="#00A991"/>
<path d="M315.834 341.398C315.61 340.292 314.7 338.864 312.362 338.864C310.514 338.864 308.988 340.236 308.988 341.902C308.988 343.386 309.996 344.38 311.508 344.688L312.908 344.982C313.762 345.164 314.238 345.682 314.238 346.326C314.238 347.096 313.622 347.698 312.432 347.698C311.004 347.698 310.262 346.746 310.164 345.71L308.596 346.158C308.75 347.586 309.912 349.21 312.432 349.21C314.7 349.21 315.946 347.74 315.946 346.2C315.946 344.8 315.008 343.694 313.258 343.344L311.83 343.05C311.06 342.882 310.668 342.406 310.668 341.776C310.668 341.02 311.368 340.348 312.376 340.348C313.706 340.348 314.224 341.258 314.322 341.874L315.834 341.398ZM321.92 348.244C321.92 348.524 321.948 348.846 321.976 349H323.53C323.502 348.748 323.46 348.314 323.46 347.754V342.182H321.836V346.214C321.836 347.11 321.346 347.74 320.408 347.74C319.428 347.74 319.036 347.026 319.036 346.186V342.182H317.412V346.48C317.412 347.992 318.364 349.196 319.988 349.196C320.786 349.196 321.584 348.86 321.92 348.244ZM327.062 349V348.09C327.454 348.748 328.196 349.168 329.162 349.168C331.15 349.168 332.368 347.614 332.368 345.556C332.368 343.554 331.262 342 329.218 342C328.168 342 327.384 342.49 327.076 343.022V338.864H325.48V349H327.062ZM330.73 345.57C330.73 346.914 329.96 347.726 328.896 347.726C327.86 347.726 327.062 346.914 327.062 345.57C327.062 344.212 327.86 343.442 328.896 343.442C329.974 343.442 330.73 344.212 330.73 345.57ZM335.58 349V344.954C335.58 344.086 336.126 343.442 336.994 343.442C337.918 343.442 338.31 344.058 338.31 344.842V349H339.906V344.954C339.906 344.114 340.466 343.442 341.32 343.442C342.23 343.442 342.636 344.044 342.636 344.842V349H344.204V344.576C344.204 342.77 343.028 341.986 341.796 341.986C340.914 341.986 340.116 342.294 339.584 343.19C339.22 342.392 338.436 341.986 337.54 341.986C336.77 341.986 335.916 342.35 335.524 343.05V342.182H333.97V349H335.58ZM347.762 349V342.182H346.152V349H347.762ZM345.9 339.788C345.9 340.376 346.376 340.838 346.95 340.838C347.538 340.838 348.014 340.376 348.014 339.788C348.014 339.2 347.538 338.724 346.95 338.724C346.376 338.724 345.9 339.2 345.9 339.788ZM351.917 340.096H350.447V341.118C350.447 341.72 350.125 342.182 349.397 342.182H349.047V343.624H350.307V347.054C350.307 348.328 351.091 349.084 352.351 349.084C352.939 349.084 353.247 348.972 353.345 348.93V347.586C353.275 347.6 353.009 347.642 352.785 347.642C352.183 347.642 351.917 347.39 351.917 346.788V343.624H353.331V342.182H351.917V340.096Z" fill="white"/>
<path d="M32.0002 231.333C30.2002 231.333 28.5335 232.067 27.2668 233.333C26.0002 234.6 25.3335 236.333 25.3335 238.133C25.3335 241.733 28.2668 244.667 31.8668 244.667H32.0002C35.7328 244.6 38.6668 241.6 38.6668 237.867C38.6668 234.267 35.7328 231.333 32.1335 231.333H32.0002ZM31.4668 235.053C31.4668 234.72 31.7335 234.52 32.0002 234.52C32.3335 234.52 32.5335 234.787 32.5335 235.053V238.387C32.5335 238.72 32.2668 238.92 32.0002 238.92C31.6668 238.92 31.4668 238.72 31.4668 238.387V235.053ZM32.0001 241.487C31.5214 241.487 31.1334 241.099 31.1334 240.62C31.1334 240.141 31.5214 239.753 32.0001 239.753C32.4787 239.753 32.8667 240.141 32.8667 240.62C32.8667 241.099 32.4787 241.487 32.0001 241.487Z" fill="#D21C1C"/>
<g opacity="0.8">
<rect x="44" y="232" width="72" height="12" rx="2" fill="#697D95"/>
</g>
<g opacity="0.2">
<rect x="40" y="269" width="113" height="14" rx="2" fill="#697D95"/>
</g>
<rect x="24.5" y="254.5" width="164" height="43" rx="5.5" stroke="#D21C1C"/>
<path d="M213 231.333C211.2 231.333 209.533 232.067 208.267 233.333C207 234.6 206.333 236.333 206.333 238.133C206.333 241.733 209.267 244.667 212.867 244.667H213C216.733 244.6 219.667 241.6 219.667 237.867C219.667 234.267 216.733 231.333 213.133 231.333H213ZM212.467 235.053C212.467 234.72 212.734 234.52 213 234.52C213.334 234.52 213.534 234.787 213.534 235.053V238.387C213.534 238.72 213.267 238.92 213 238.92C212.667 238.92 212.467 238.72 212.467 238.387V235.053ZM213 241.487C212.521 241.487 212.133 241.099 212.133 240.62C212.133 240.141 212.521 239.753 213 239.753C213.479 239.753 213.867 240.141 213.867 240.62C213.867 241.099 213.479 241.487 213 241.487Z" fill="#D21C1C"/>
<g opacity="0.8">
<rect x="225" y="232" width="72" height="12" rx="2" fill="#697D95"/>
</g>
<g opacity="0.2">
<rect x="221" y="269" width="113" height="14" rx="2" fill="#697D95"/>
</g>
<rect x="205.5" y="254.5" width="164" height="43" rx="5.5" stroke="#D21C1C"/>
<path d="M32.0002 147.333C30.2002 147.333 28.5335 148.067 27.2668 149.333C26.0002 150.6 25.3335 152.333 25.3335 154.133C25.3335 157.733 28.2668 160.667 31.8668 160.667H32.0002C35.7328 160.6 38.6668 157.6 38.6668 153.867C38.6668 150.267 35.7328 147.333 32.1335 147.333H32.0002ZM31.4668 151.053C31.4668 150.72 31.7335 150.52 32.0002 150.52C32.3335 150.52 32.5335 150.787 32.5335 151.053V154.387C32.5335 154.72 32.2668 154.92 32.0002 154.92C31.6668 154.92 31.4668 154.72 31.4668 154.387V151.053ZM32.0001 157.487C31.5214 157.487 31.1334 157.099 31.1334 156.62C31.1334 156.141 31.5214 155.753 32.0001 155.753C32.4787 155.753 32.8667 156.141 32.8667 156.62C32.8667 157.099 32.4787 157.487 32.0001 157.487Z" fill="#D21C1C"/>
<g opacity="0.8">
<rect x="44" y="148" width="72" height="12" rx="2" fill="#697D95"/>
</g>
<g opacity="0.2">
<rect x="40" y="185" width="113" height="14" rx="2" fill="#697D95"/>
</g>
<rect x="24.5" y="170.5" width="164" height="43" rx="5.5" stroke="#D21C1C"/>
<path d="M213 147.333C211.2 147.333 209.533 148.067 208.267 149.333C207 150.6 206.333 152.333 206.333 154.133C206.333 157.733 209.267 160.667 212.867 160.667H213C216.733 160.6 219.667 157.6 219.667 153.867C219.667 150.267 216.733 147.333 213.133 147.333H213ZM212.467 151.053C212.467 150.72 212.734 150.52 213 150.52C213.334 150.52 213.534 150.787 213.534 151.053V154.387C213.534 154.72 213.267 154.92 213 154.92C212.667 154.92 212.467 154.72 212.467 154.387V151.053ZM213 157.487C212.521 157.487 212.133 157.099 212.133 156.62C212.133 156.141 212.521 155.753 213 155.753C213.479 155.753 213.867 156.141 213.867 156.62C213.867 157.099 213.479 157.487 213 157.487Z" fill="#D21C1C"/>
<g opacity="0.8">
<rect x="225" y="148" width="72" height="12" rx="2" fill="#697D95"/>
</g>
<g opacity="0.2">
<rect x="221" y="185" width="113" height="14" rx="2" fill="#697D95"/>
</g>
<rect x="205.5" y="170.5" width="164" height="43" rx="5.5" stroke="#D21C1C"/>
<g filter="url(#filter0_ddddd_1195_6452)">
<rect x="16" y="24" width="178" height="30" rx="3" fill="#D21C1C"/>
<g opacity="0.7" clip-path="url(#clip1_1195_6452)">
<rect x="28" y="32" width="60" height="14" rx="2" fill="white"/>
<rect x="92" y="32" width="90" height="14" rx="2" fill="white"/>
</g>
<path d="M33.4142 60.5858L40 54H24L30.5858 60.5858C31.3668 61.3668 32.6332 61.3668 33.4142 60.5858Z" fill="#D21C1C"/>
</g>
<path d="M32.0002 63.3333C30.2002 63.3333 28.5335 64.0666 27.2668 65.3333C26.0002 66.5999 25.3335 68.3333 25.3335 70.1333C25.3335 73.7333 28.2668 76.6666 31.8668 76.6666H32.0002C35.7328 76.5999 38.6668 73.5999 38.6668 69.8666C38.6668 66.2666 35.7328 63.3333 32.1335 63.3333H32.0002ZM31.4668 67.0533C31.4668 66.72 31.7335 66.52 32.0002 66.52C32.3335 66.52 32.5335 66.7867 32.5335 67.0533V70.3867C32.5335 70.72 32.2668 70.92 32.0002 70.92C31.6668 70.92 31.4668 70.72 31.4668 70.3867V67.0533ZM32.0001 73.4867C31.5214 73.4867 31.1334 73.0987 31.1334 72.6201C31.1334 72.1414 31.5214 71.7534 32.0001 71.7534C32.4787 71.7534 32.8667 72.1414 32.8667 72.6201C32.8667 73.0987 32.4787 73.4867 32.0001 73.4867Z" fill="#D21C1C"/>
<g opacity="0.8">
<rect x="44" y="64" width="72" height="12" rx="2" fill="#697D95"/>
</g>
<g opacity="0.2">
<rect x="40" y="101" width="113" height="14" rx="2" fill="#697D95"/>
</g>
<rect x="24.5" y="86.5" width="345" height="43" rx="5.5" stroke="#D21C1C"/>
</g>
<defs>
<filter id="filter0_ddddd_1195_6452" x="-16" y="8" width="242" height="102" filterUnits="userSpaceOnUse" color-interpolation-filters="sRGB">
<feFlood flood-opacity="0" result="BackgroundImageFix"/>
<feColorMatrix in="SourceAlpha" type="matrix" values="0 0 0 0 0 0 0 0 0 0 0 0 0 0 0 0 0 0 127 0" result="hardAlpha"/>
<feOffset/>
<feGaussianBlur stdDeviation="1"/>
<feComposite in2="hardAlpha" operator="out"/>
<feColorMatrix type="matrix" values="0 0 0 0 0.309804 0 0 0 0 0.368627 0 0 0 0 0.443137 0 0 0 0.12 0"/>
<feBlend mode="normal" in2="BackgroundImageFix" result="effect1_dropShadow_1195_6452"/>
<feColorMatrix in="SourceAlpha" type="matrix" values="0 0 0 0 0 0 0 0 0 0 0 0 0 0 0 0 0 0 127 0" result="hardAlpha"/>
<feOffset dy="2"/>
<feGaussianBlur stdDeviation="2"/>
<feComposite in2="hardAlpha" operator="out"/>
<feColorMatrix type="matrix" values="0 0 0 0 0.309804 0 0 0 0 0.368627 0 0 0 0 0.443137 0 0 0 0.11 0"/>
<feBlend mode="normal" in2="effect1_dropShadow_1195_6452" result="effect2_dropShadow_1195_6452"/>
<feColorMatrix in="SourceAlpha" type="matrix" values="0 0 0 0 0 0 0 0 0 0 0 0 0 0 0 0 0 0 127 0" result="hardAlpha"/>
<feOffset dy="4"/>
<feGaussianBlur stdDeviation="4"/>
<feComposite in2="hardAlpha" operator="out"/>
<feColorMatrix type="matrix" values="0 0 0 0 0.309804 0 0 0 0 0.368627 0 0 0 0 0.443137 0 0 0 0.1 0"/>
<feBlend mode="normal" in2="effect2_dropShadow_1195_6452" result="effect3_dropShadow_1195_6452"/>
<feColorMatrix in="SourceAlpha" type="matrix" values="0 0 0 0 0 0 0 0 0 0 0 0 0 0 0 0 0 0 127 0" result="hardAlpha"/>
<feOffset dy="8"/>
<feGaussianBlur stdDeviation="8"/>
<feComposite in2="hardAlpha" operator="out"/>
<feColorMatrix type="matrix" values="0 0 0 0 0.309804 0 0 0 0 0.368627 0 0 0 0 0.443137 0 0 0 0.09 0"/>
<feBlend mode="normal" in2="effect3_dropShadow_1195_6452" result="effect4_dropShadow_1195_6452"/>
<feColorMatrix in="SourceAlpha" type="matrix" values="0 0 0 0 0 0 0 0 0 0 0 0 0 0 0 0 0 0 127 0" result="hardAlpha"/>
<feOffset dy="16"/>
<feGaussianBlur stdDeviation="16"/>
<feComposite in2="hardAlpha" operator="out"/>
<feColorMatrix type="matrix" values="0 0 0 0 0.309804 0 0 0 0 0.368627 0 0 0 0 0.443137 0 0 0 0.08 0"/>
<feBlend mode="normal" in2="effect4_dropShadow_1195_6452" result="effect5_dropShadow_1195_6452"/>
<feBlend mode="normal" in="SourceGraphic" in2="effect5_dropShadow_1195_6452" result="shape"/>
</filter>
<clipPath id="clip0_1195_6452">
<rect width="394" height="390" rx="6" fill="white"/>
</clipPath>
<clipPath id="clip1_1195_6452">
<rect width="154" height="14" fill="white" transform="translate(28 32)"/>
</clipPath>
</defs>
</svg>
