<svg width="260" height="92" viewBox="0 0 260 92" fill="none" xmlns="http://www.w3.org/2000/svg">
<rect width="260" height="92" fill="white"/>
<rect x="108" y="24" width="44" height="44" rx="6" fill="#ECF8F7"/>
<path d="M130 40.2583C130.414 40.2583 130.75 40.5941 130.75 41.0083L130.75 44.8483C130.75 45.0692 130.929 45.2483 131.15 45.2483L134.99 45.2483C135.372 45.2483 135.688 45.5344 135.734 45.9042L135.74 45.9983C135.74 46.4125 135.404 46.7483 134.99 46.7483L131.15 46.7483C130.929 46.7483 130.75 46.9274 130.75 47.1483L130.75 50.9883C130.75 51.3707 130.464 51.6862 130.094 51.7325L130 51.7383C129.586 51.7383 129.25 51.4026 129.25 50.9883L129.25 47.1483C129.25 46.9274 129.071 46.7483 128.85 46.7483L125.01 46.7483C124.628 46.7483 124.312 46.4622 124.266 46.0924L124.26 45.9983C124.26 45.5841 124.596 45.2483 125.01 45.2483L128.85 45.2483C129.071 45.2483 129.25 45.0692 129.25 44.8483L129.25 41.0083C129.25 40.6259 129.536 40.3104 129.906 40.2641L130 40.2583Z" fill="#007F6D"/>
</svg>
