<svg width="190" height="102" viewBox="0 0 190 102" fill="none" xmlns="http://www.w3.org/2000/svg">
<rect width="190" height="102" rx="3" fill="white"/>
<path d="M129.76 85.872V84.144C131.68 83.84 132.736 82.48 132.736 81.008C132.736 79.568 131.824 78.368 129.808 77.92L128.352 77.584C127.6 77.424 127.248 77.008 127.248 76.512C127.248 75.856 127.808 75.264 128.832 75.264C130.144 75.264 130.56 76.192 130.656 76.752L132.624 76.192C132.4 75.12 131.6 73.84 129.76 73.504V71.744H128.128V73.456C126.416 73.728 125.104 74.976 125.104 76.672C125.104 78.208 126.176 79.296 127.904 79.68L129.376 80C130.176 80.176 130.576 80.592 130.576 81.136C130.576 81.84 129.968 82.336 128.928 82.336C127.456 82.336 126.784 81.408 126.688 80.4L124.704 80.88C124.848 82.24 125.904 83.856 128.128 84.16V85.872H129.76ZM142.668 84V73.616H140.764C140.556 74.704 139.5 75.552 137.98 75.568V77.056H140.476V84H142.668ZM144.723 83.664C145.267 84 146.243 84.24 147.123 84.24C150.675 84.24 152.547 82.032 152.547 78.288C152.547 74.976 150.659 73.376 148.403 73.376C146.099 73.376 144.419 74.896 144.419 77.024C144.419 79.168 146.067 80.512 148.003 80.512C149.091 80.512 149.971 80.048 150.403 79.392C150.259 81.296 148.995 82.336 147.107 82.336C146.387 82.336 145.635 82.096 145.267 81.888L144.723 83.664ZM150.115 76.96C150.115 77.984 149.299 78.672 148.323 78.672C147.347 78.672 146.547 78 146.547 76.96C146.547 75.936 147.363 75.248 148.323 75.248C149.299 75.248 150.115 75.936 150.115 76.96ZM153.587 82.656C153.587 83.456 154.243 84.112 155.043 84.112C155.859 84.112 156.515 83.456 156.515 82.656C156.515 81.856 155.859 81.2 155.043 81.2C154.243 81.2 153.587 81.856 153.587 82.656ZM158.192 83.664C158.736 84 159.712 84.24 160.592 84.24C164.144 84.24 166.016 82.032 166.016 78.288C166.016 74.976 164.128 73.376 161.872 73.376C159.568 73.376 157.888 74.896 157.888 77.024C157.888 79.168 159.536 80.512 161.472 80.512C162.56 80.512 163.44 80.048 163.872 79.392C163.728 81.296 162.464 82.336 160.576 82.336C159.856 82.336 159.104 82.096 158.736 81.888L158.192 83.664ZM163.584 76.96C163.584 77.984 162.768 78.672 161.792 78.672C160.816 78.672 160.016 78 160.016 76.96C160.016 75.936 160.832 75.248 161.792 75.248C162.768 75.248 163.584 75.936 163.584 76.96ZM167.52 83.664C168.064 84 169.04 84.24 169.92 84.24C173.472 84.24 175.344 82.032 175.344 78.288C175.344 74.976 173.456 73.376 171.2 73.376C168.896 73.376 167.216 74.896 167.216 77.024C167.216 79.168 168.864 80.512 170.8 80.512C171.888 80.512 172.768 80.048 173.2 79.392C173.056 81.296 171.792 82.336 169.904 82.336C169.184 82.336 168.432 82.096 168.064 81.888L167.52 83.664ZM172.912 76.96C172.912 77.984 172.096 78.672 171.12 78.672C170.144 78.672 169.344 78 169.344 76.96C169.344 75.936 170.16 75.248 171.12 75.248C172.096 75.248 172.912 75.936 172.912 76.96Z" fill="#00A991"/>
<path d="M135.795 51.638V50.182C137.573 49.972 138.497 48.768 138.497 47.522C138.497 46.262 137.559 45.226 136.005 44.918L135.795 44.876V42.006C136.649 42.244 137.069 42.972 137.153 43.504L138.413 43.042C138.189 42.132 137.517 40.984 135.795 40.76V39.276H134.703V40.746C133.135 40.942 132.029 42.076 132.029 43.406C132.029 44.778 132.925 45.66 134.353 45.954L134.703 46.024V48.95C133.597 48.754 133.065 47.886 132.981 46.99L131.651 47.41C131.805 48.642 132.757 49.986 134.703 50.182V51.638H135.795ZM137.125 47.592C137.125 48.236 136.705 48.782 135.795 48.95V46.248C136.705 46.458 137.125 47.004 137.125 47.592ZM133.415 43.35C133.415 42.664 133.891 42.118 134.703 41.964V44.624C133.751 44.442 133.415 43.938 133.415 43.35ZM146.669 50V40.928H145.465C145.255 41.908 144.387 42.608 143.127 42.636V43.602H145.325V50H146.669ZM149.839 45.464C149.839 44.078 150.091 43.098 150.637 42.524C150.987 42.16 151.435 41.936 152.079 41.936C152.723 41.936 153.171 42.16 153.521 42.524C154.067 43.098 154.319 44.078 154.319 45.464C154.319 46.85 154.067 47.83 153.521 48.404C153.171 48.768 152.723 48.992 152.079 48.992C151.435 48.992 150.987 48.768 150.637 48.404C150.091 47.83 149.839 46.85 149.839 45.464ZM148.481 45.464C148.481 46.71 148.691 47.858 149.293 48.754C149.881 49.636 150.791 50.21 152.079 50.21C153.367 50.21 154.277 49.636 154.865 48.754C155.467 47.858 155.677 46.71 155.677 45.464C155.677 44.218 155.467 43.07 154.865 42.174C154.277 41.292 153.367 40.718 152.079 40.718C150.791 40.718 149.881 41.292 149.293 42.174C148.691 43.07 148.481 44.218 148.481 45.464ZM156.8 49.104C156.8 49.65 157.22 50.07 157.766 50.07C158.312 50.07 158.746 49.65 158.746 49.104C158.746 48.558 158.312 48.124 157.766 48.124C157.22 48.124 156.8 48.558 156.8 49.104ZM160.528 49.678C160.976 49.986 161.928 50.21 162.628 50.21C165.68 50.21 167.164 48.222 167.164 44.89C167.164 41.992 165.414 40.718 163.636 40.718C161.858 40.718 160.29 41.978 160.29 43.854C160.29 45.856 161.858 46.92 163.426 46.92C164.658 46.92 165.456 46.36 165.778 45.758C165.722 47.536 164.826 48.978 162.628 48.978C162.04 48.978 161.368 48.782 160.976 48.544L160.528 49.678ZM165.596 43.826C165.596 45.03 164.644 45.744 163.636 45.744C162.6 45.744 161.676 45.058 161.676 43.826C161.676 42.636 162.628 41.922 163.636 41.922C164.63 41.922 165.596 42.65 165.596 43.826ZM168.663 49.678C169.111 49.986 170.063 50.21 170.763 50.21C173.815 50.21 175.299 48.222 175.299 44.89C175.299 41.992 173.549 40.718 171.771 40.718C169.993 40.718 168.425 41.978 168.425 43.854C168.425 45.856 169.993 46.92 171.561 46.92C172.793 46.92 173.591 46.36 173.913 45.758C173.857 47.536 172.961 48.978 170.763 48.978C170.175 48.978 169.503 48.782 169.111 48.544L168.663 49.678ZM173.731 43.826C173.731 45.03 172.779 45.744 171.771 45.744C170.735 45.744 169.811 45.058 169.811 43.826C169.811 42.636 170.763 41.922 171.771 41.922C172.765 41.922 173.731 42.65 173.731 43.826Z" fill="#BAC7D5"/>
<path d="M140.676 27.638V26.182C142.454 25.972 143.378 24.768 143.378 23.522C143.378 22.262 142.44 21.226 140.886 20.918L140.676 20.876V18.006C141.53 18.244 141.95 18.972 142.034 19.504L143.294 19.042C143.07 18.132 142.398 16.984 140.676 16.76V15.276H139.584V16.746C138.016 16.942 136.91 18.076 136.91 19.406C136.91 20.778 137.806 21.66 139.234 21.954L139.584 22.024V24.95C138.478 24.754 137.946 23.886 137.862 22.99L136.532 23.41C136.686 24.642 137.638 25.986 139.584 26.182V27.638H140.676ZM142.006 23.592C142.006 24.236 141.586 24.782 140.676 24.95V22.248C141.586 22.458 142.006 23.004 142.006 23.592ZM138.296 19.35C138.296 18.664 138.772 18.118 139.584 17.964V20.624C138.632 20.442 138.296 19.938 138.296 19.35ZM148.456 25.678C148.904 25.986 149.856 26.21 150.556 26.21C153.608 26.21 155.092 24.222 155.092 20.89C155.092 17.992 153.342 16.718 151.564 16.718C149.786 16.718 148.218 17.978 148.218 19.854C148.218 21.856 149.786 22.92 151.354 22.92C152.586 22.92 153.384 22.36 153.706 21.758C153.65 23.536 152.754 24.978 150.556 24.978C149.968 24.978 149.296 24.782 148.904 24.544L148.456 25.678ZM153.524 19.826C153.524 21.03 152.572 21.744 151.564 21.744C150.528 21.744 149.604 21.058 149.604 19.826C149.604 18.636 150.556 17.922 151.564 17.922C152.558 17.922 153.524 18.65 153.524 19.826ZM156.212 25.104C156.212 25.65 156.632 26.07 157.178 26.07C157.724 26.07 158.158 25.65 158.158 25.104C158.158 24.558 157.724 24.124 157.178 24.124C156.632 24.124 156.212 24.558 156.212 25.104ZM160.927 21.464C160.927 20.078 161.179 19.098 161.725 18.524C162.075 18.16 162.523 17.936 163.167 17.936C163.811 17.936 164.259 18.16 164.609 18.524C165.155 19.098 165.407 20.078 165.407 21.464C165.407 22.85 165.155 23.83 164.609 24.404C164.259 24.768 163.811 24.992 163.167 24.992C162.523 24.992 162.075 24.768 161.725 24.404C161.179 23.83 160.927 22.85 160.927 21.464ZM159.569 21.464C159.569 22.71 159.779 23.858 160.381 24.754C160.969 25.636 161.879 26.21 163.167 26.21C164.455 26.21 165.365 25.636 165.953 24.754C166.555 23.858 166.765 22.71 166.765 21.464C166.765 20.218 166.555 19.07 165.953 18.174C165.365 17.292 164.455 16.718 163.167 16.718C161.879 16.718 160.969 17.292 160.381 18.174C159.779 19.07 159.569 20.218 159.569 21.464ZM169.458 21.464C169.458 20.078 169.71 19.098 170.256 18.524C170.606 18.16 171.054 17.936 171.698 17.936C172.342 17.936 172.79 18.16 173.14 18.524C173.686 19.098 173.938 20.078 173.938 21.464C173.938 22.85 173.686 23.83 173.14 24.404C172.79 24.768 172.342 24.992 171.698 24.992C171.054 24.992 170.606 24.768 170.256 24.404C169.71 23.83 169.458 22.85 169.458 21.464ZM168.1 21.464C168.1 22.71 168.31 23.858 168.912 24.754C169.5 25.636 170.41 26.21 171.698 26.21C172.986 26.21 173.896 25.636 174.484 24.754C175.086 23.858 175.296 22.71 175.296 21.464C175.296 20.218 175.086 19.07 174.484 18.174C173.896 17.292 172.986 16.718 171.698 16.718C170.41 16.718 169.5 17.292 168.912 18.174C168.31 19.07 168.1 20.218 168.1 21.464Z" fill="#BAC7D5"/>
<line x1="18" y1="62.5" x2="182" y2="62.5" stroke="#E8EDF1"/>
</svg>
