<svg width="260" height="92" viewBox="0 0 260 92" fill="none" xmlns="http://www.w3.org/2000/svg">
<rect width="260" height="92" fill="white"/>
<rect x="24" y="24" width="212" height="44" rx="6" fill="#E8EDF1"/>
<path d="M47.8488 43.398C47.6248 42.292 46.7148 40.864 44.3768 40.864C42.5288 40.864 41.0028 42.236 41.0028 43.902C41.0028 45.386 42.0108 46.38 43.5228 46.688L44.9228 46.982C45.7768 47.164 46.2528 47.682 46.2528 48.326C46.2528 49.096 45.6368 49.698 44.4468 49.698C43.0188 49.698 42.2768 48.746 42.1788 47.71L40.6108 48.158C40.7648 49.586 41.9268 51.21 44.4468 51.21C46.7148 51.21 47.9608 49.74 47.9608 48.2C47.9608 46.8 47.0228 45.694 45.2728 45.344L43.8448 45.05C43.0748 44.882 42.6828 44.406 42.6828 43.776C42.6828 43.02 43.3828 42.348 44.3908 42.348C45.7208 42.348 46.2388 43.258 46.3368 43.874L47.8488 43.398ZM51.1886 46.996C51.2166 46.128 51.7066 45.456 52.6026 45.456C53.6246 45.456 54.0026 46.128 54.0026 46.968V51H55.6266V46.688C55.6266 45.19 54.8146 43.986 53.1346 43.986C52.4206 43.986 51.6506 44.238 51.1886 44.84V40.864H49.5646V51H51.1886V46.996ZM60.6704 49.754C59.6764 49.754 58.7664 48.998 58.7664 47.584C58.7664 46.17 59.6764 45.442 60.6704 45.442C61.6784 45.442 62.5744 46.17 62.5744 47.584C62.5744 49.012 61.6784 49.754 60.6704 49.754ZM60.6704 43.972C58.6404 43.972 57.1424 45.498 57.1424 47.584C57.1424 49.684 58.6404 51.21 60.6704 51.21C62.7144 51.21 64.2124 49.684 64.2124 47.584C64.2124 45.498 62.7144 43.972 60.6704 43.972ZM69.6598 44.182L68.0498 48.9L66.6638 44.182H64.9278L67.1398 51H68.8058L70.4578 46.1L72.1518 51H73.7758L75.9598 44.182H74.3078L72.9498 48.9L71.3398 44.182H69.6598ZM81.6121 47.57C81.6121 46.268 82.3961 45.442 83.4601 45.442C84.5241 45.442 85.2521 46.254 85.2521 47.556C85.2521 48.858 84.5101 49.74 83.4461 49.74C82.3401 49.74 81.6121 48.872 81.6121 47.57ZM86.8201 40.864H85.2381V44.98C85.0281 44.546 84.4261 44 83.2361 44C81.3181 44 79.9881 45.61 79.9881 47.57C79.9881 49.628 81.3041 51.168 83.2641 51.168C84.2301 51.168 84.9441 50.692 85.2661 50.118C85.2661 50.398 85.3081 50.846 85.3361 51H86.8901C86.8761 50.888 86.8201 50.37 86.8201 49.754V40.864ZM90.0623 46.842C90.1183 46.114 90.7063 45.33 91.7283 45.33C92.8483 45.33 93.3803 46.044 93.4083 46.842H90.0623ZM93.5903 48.62C93.3663 49.292 92.8623 49.81 91.8823 49.81C90.8743 49.81 90.0623 49.068 90.0203 48.032H95.0043C95.0183 48.004 95.0463 47.78 95.0463 47.514C95.0463 45.358 93.8143 43.972 91.7143 43.972C89.9923 43.972 88.3963 45.4 88.3963 47.556C88.3963 49.866 90.0343 51.21 91.8823 51.21C93.5203 51.21 94.5983 50.244 94.9623 49.054L93.5903 48.62ZM98.6969 42.096H97.2269V43.118C97.2269 43.72 96.9049 44.182 96.1769 44.182H95.8269V45.624H97.0869V49.054C97.0869 50.328 97.8709 51.084 99.1309 51.084C99.7189 51.084 100.027 50.972 100.125 50.93V49.586C100.055 49.6 99.7889 49.642 99.5649 49.642C98.9629 49.642 98.6969 49.39 98.6969 48.788V45.624H100.111V44.182H98.6969V42.096ZM101.234 49.152C101.234 50.23 102.116 51.21 103.544 51.21C104.65 51.21 105.322 50.65 105.644 50.132C105.644 50.678 105.7 50.958 105.714 51H107.226C107.212 50.93 107.142 50.524 107.142 49.908V46.52C107.142 45.162 106.344 43.972 104.244 43.972C102.564 43.972 101.5 45.022 101.374 46.198L102.858 46.534C102.928 45.848 103.404 45.302 104.258 45.302C105.154 45.302 105.546 45.764 105.546 46.338C105.546 46.576 105.434 46.772 105.042 46.828L103.292 47.094C102.13 47.262 101.234 47.934 101.234 49.152ZM103.852 49.936C103.208 49.936 102.858 49.516 102.858 49.054C102.858 48.494 103.264 48.214 103.768 48.13L105.546 47.864V48.172C105.546 49.502 104.762 49.936 103.852 49.936ZM110.716 51V44.182H109.106V51H110.716ZM108.854 41.788C108.854 42.376 109.33 42.838 109.904 42.838C110.492 42.838 110.968 42.376 110.968 41.788C110.968 41.2 110.492 40.724 109.904 40.724C109.33 40.724 108.854 41.2 108.854 41.788ZM114.353 51V40.864H112.729V51H114.353ZM115.889 49.152C115.973 49.922 116.729 51.21 118.703 51.21C120.439 51.21 121.279 50.062 121.279 49.026C121.279 48.018 120.607 47.234 119.319 46.954L118.283 46.744C117.863 46.66 117.597 46.394 117.597 46.03C117.597 45.61 118.003 45.246 118.577 45.246C119.487 45.246 119.781 45.876 119.837 46.268L121.209 45.876C121.097 45.204 120.481 43.972 118.577 43.972C117.163 43.972 116.071 44.98 116.071 46.17C116.071 47.108 116.701 47.892 117.905 48.158L118.913 48.382C119.459 48.494 119.711 48.774 119.711 49.138C119.711 49.558 119.361 49.922 118.689 49.922C117.821 49.922 117.359 49.376 117.303 48.76L115.889 49.152Z" fill="#252A31"/>
<path d="M209.728 43.2334C209.818 43.2242 209.909 43.2195 210 43.2195C211.534 43.2195 212.778 44.4632 212.778 45.9973C212.778 47.5315 211.534 48.7752 210 48.7752C208.466 48.7752 207.222 47.5315 207.222 45.9973C207.224 45.8069 207.247 45.6172 207.292 45.432C207.306 45.3741 207.348 45.3272 207.405 45.3079C207.461 45.2886 207.523 45.2995 207.57 45.3369C208.1 45.7701 208.867 45.7511 209.375 45.292C209.882 44.8329 209.979 44.0717 209.601 43.5007C209.568 43.4502 209.563 43.3859 209.589 43.3312C209.615 43.2765 209.668 43.2394 209.728 43.2334Z" fill="#252A31"/>
<path d="M217.703 44.3758C215.877 42.3653 213.191 40.5805 210.406 40.45C210.27 40.4417 210.139 40.4417 210 40.4417C207.047 40.4653 204.358 42.157 202.401 44.2612C202.367 44.2987 202.332 44.3369 202.297 44.3751C201.457 45.2926 201.457 46.6999 202.297 47.6175C203.134 48.5404 206.161 51.553 209.911 51.553H210.089C213.839 51.553 216.866 48.5404 217.705 47.6175C218.544 46.6998 218.544 45.2927 217.703 44.3758ZM216.677 46.6828C215.17 48.3411 212.982 49.9155 210.675 50.1328C210.451 50.1564 210.226 50.1668 210 50.1641C207.479 50.105 205.25 48.6988 203.552 46.9293C203.474 46.8487 203.398 46.767 203.323 46.6841C202.971 46.294 202.971 45.7007 203.323 45.3105C204.967 43.4973 207.453 41.7715 210 41.8306C210.895 41.8296 211.781 42.0125 212.602 42.3681C213.445 42.7219 214.239 43.1834 214.964 43.741C215.583 44.2094 216.157 44.7341 216.679 45.3084C217.031 45.6992 217.03 46.293 216.677 46.6828Z" fill="#252A31"/>
</svg>
