<svg width="260" height="92" viewBox="0 0 260 92" fill="none" xmlns="http://www.w3.org/2000/svg">
<g clip-path="url(#clip0_1184_6481)">
<rect width="260" height="92" fill="white"/>
<rect x="65.5" y="24" width="44" height="44" rx="6" fill="#ECF8F7"/>
<path d="M87.5 40.2583C87.9142 40.2583 88.25 40.5941 88.25 41.0083L88.25 44.8483C88.25 45.0692 88.4291 45.2483 88.65 45.2483L92.4901 45.2483C92.8724 45.2483 93.1879 45.5344 93.2342 45.9042L93.2401 45.9983C93.2401 46.4125 92.9043 46.7483 92.4901 46.7483L88.65 46.7483C88.4291 46.7483 88.25 46.9274 88.25 47.1483L88.25 50.9883C88.25 51.3707 87.9639 51.6862 87.5941 51.7325L87.5 51.7383C87.0858 51.7383 86.75 51.4026 86.75 50.9883L86.75 47.1483C86.75 46.9274 86.5709 46.7483 86.35 46.7483L82.51 46.7483C82.1277 46.7483 81.8121 46.4622 81.7659 46.0924L81.76 45.9983C81.76 45.5841 82.0958 45.2483 82.51 45.2483L86.35 45.2483C86.5709 45.2483 86.75 45.0692 86.75 44.8483L86.75 41.0083C86.75 40.6259 87.0361 40.3104 87.406 40.2641L87.5 40.2583Z" fill="#007F6D"/>
<g filter="url(#filter0_dd_1184_6481)">
<path d="M112.914 47.4142L119.5 54V38L112.914 44.5858C112.133 45.3668 112.133 46.6332 112.914 47.4142Z" fill="#252A31"/>
<rect x="119.5" y="28" width="75" height="36" rx="3" fill="#252A31"/>
<path d="M135.655 51H137.489L133.625 41.074H131.679L127.815 51H129.593L130.517 48.508H134.717L135.655 51ZM132.617 42.894L134.129 46.954H131.105L132.617 42.894ZM139.702 47.57C139.702 46.268 140.486 45.442 141.55 45.442C142.614 45.442 143.342 46.254 143.342 47.556C143.342 48.858 142.6 49.74 141.536 49.74C140.43 49.74 139.702 48.872 139.702 47.57ZM144.91 40.864H143.328V44.98C143.118 44.546 142.516 44 141.326 44C139.408 44 138.078 45.61 138.078 47.57C138.078 49.628 139.394 51.168 141.354 51.168C142.32 51.168 143.034 50.692 143.356 50.118C143.356 50.398 143.398 50.846 143.426 51H144.98C144.966 50.888 144.91 50.37 144.91 49.754V40.864ZM148.11 47.57C148.11 46.268 148.894 45.442 149.958 45.442C151.022 45.442 151.75 46.254 151.75 47.556C151.75 48.858 151.008 49.74 149.944 49.74C148.838 49.74 148.11 48.872 148.11 47.57ZM153.318 40.864H151.736V44.98C151.526 44.546 150.924 44 149.734 44C147.816 44 146.486 45.61 146.486 47.57C146.486 49.628 147.802 51.168 149.762 51.168C150.728 51.168 151.442 50.692 151.764 50.118C151.764 50.398 151.806 50.846 151.834 51H153.388C153.374 50.888 153.318 50.37 153.318 49.754V40.864ZM160.329 51V44.182H158.719V51H160.329ZM158.467 41.788C158.467 42.376 158.943 42.838 159.517 42.838C160.105 42.838 160.581 42.376 160.581 41.788C160.581 41.2 160.105 40.724 159.517 40.724C158.943 40.724 158.467 41.2 158.467 41.788ZM164.484 42.096H163.014V43.118C163.014 43.72 162.692 44.182 161.964 44.182H161.614V45.624H162.874V49.054C162.874 50.328 163.658 51.084 164.918 51.084C165.506 51.084 165.814 50.972 165.912 50.93V49.586C165.842 49.6 165.576 49.642 165.352 49.642C164.75 49.642 164.484 49.39 164.484 48.788V45.624H165.898V44.182H164.484V42.096ZM168.633 46.842C168.689 46.114 169.277 45.33 170.299 45.33C171.419 45.33 171.951 46.044 171.979 46.842H168.633ZM172.161 48.62C171.937 49.292 171.433 49.81 170.453 49.81C169.445 49.81 168.633 49.068 168.591 48.032H173.575C173.589 48.004 173.617 47.78 173.617 47.514C173.617 45.358 172.385 43.972 170.285 43.972C168.563 43.972 166.967 45.4 166.967 47.556C166.967 49.866 168.605 51.21 170.453 51.21C172.091 51.21 173.169 50.244 173.533 49.054L172.161 48.62ZM176.804 51V46.954C176.804 46.086 177.35 45.442 178.218 45.442C179.142 45.442 179.534 46.058 179.534 46.842V51H181.13V46.954C181.13 46.114 181.69 45.442 182.544 45.442C183.454 45.442 183.86 46.044 183.86 46.842V51H185.428V46.576C185.428 44.77 184.252 43.986 183.02 43.986C182.138 43.986 181.34 44.294 180.808 45.19C180.444 44.392 179.66 43.986 178.764 43.986C177.994 43.986 177.14 44.35 176.748 45.05V44.182H175.194V51H176.804Z" fill="white"/>
</g>
</g>
<defs>
<filter id="filter0_dd_1184_6481" x="87.5" y="12" width="131" height="84" filterUnits="userSpaceOnUse" color-interpolation-filters="sRGB">
<feFlood flood-opacity="0" result="BackgroundImageFix"/>
<feColorMatrix in="SourceAlpha" type="matrix" values="0 0 0 0 0 0 0 0 0 0 0 0 0 0 0 0 0 0 127 0" result="hardAlpha"/>
<feOffset dy="8"/>
<feGaussianBlur stdDeviation="12"/>
<feColorMatrix type="matrix" values="0 0 0 0 0.145098 0 0 0 0 0.164706 0 0 0 0 0.192157 0 0 0 0.24 0"/>
<feBlend mode="normal" in2="BackgroundImageFix" result="effect1_dropShadow_1184_6481"/>
<feColorMatrix in="SourceAlpha" type="matrix" values="0 0 0 0 0 0 0 0 0 0 0 0 0 0 0 0 0 0 127 0" result="hardAlpha"/>
<feOffset dy="4"/>
<feGaussianBlur stdDeviation="4"/>
<feColorMatrix type="matrix" values="0 0 0 0 0.145098 0 0 0 0 0.164706 0 0 0 0 0.192157 0 0 0 0.16 0"/>
<feBlend mode="normal" in2="effect1_dropShadow_1184_6481" result="effect2_dropShadow_1184_6481"/>
<feBlend mode="normal" in="SourceGraphic" in2="effect2_dropShadow_1184_6481" result="shape"/>
</filter>
<clipPath id="clip0_1184_6481">
<rect width="260" height="92" fill="white"/>
</clipPath>
</defs>
</svg>
