<svg width="260" height="92" viewBox="0 0 260 92" fill="none" xmlns="http://www.w3.org/2000/svg">
<rect width="260" height="92" fill="white"/>
<rect x="24" y="24" width="212" height="44" rx="6" fill="#ECF8F7"/>
<path d="M48.4107 51H50.2447L46.3807 41.074H44.4347L40.5707 51H42.3487L43.2727 48.508H47.4727L48.4107 51ZM45.3727 42.894L46.8847 46.954H43.8607L45.3727 42.894ZM52.4578 47.57C52.4578 46.268 53.2418 45.442 54.3058 45.442C55.3698 45.442 56.0978 46.254 56.0978 47.556C56.0978 48.858 55.3558 49.74 54.2918 49.74C53.1858 49.74 52.4578 48.872 52.4578 47.57ZM57.6658 40.864H56.0838V44.98C55.8738 44.546 55.2718 44 54.0818 44C52.1638 44 50.8338 45.61 50.8338 47.57C50.8338 49.628 52.1498 51.168 54.1098 51.168C55.0758 51.168 55.7898 50.692 56.1118 50.118C56.1118 50.398 56.1538 50.846 56.1818 51H57.7358C57.7218 50.888 57.6658 50.37 57.6658 49.754V40.864ZM60.866 47.57C60.866 46.268 61.65 45.442 62.714 45.442C63.778 45.442 64.506 46.254 64.506 47.556C64.506 48.858 63.764 49.74 62.7 49.74C61.594 49.74 60.866 48.872 60.866 47.57ZM66.074 40.864H64.492V44.98C64.282 44.546 63.68 44 62.49 44C60.572 44 59.242 45.61 59.242 47.57C59.242 49.628 60.558 51.168 62.518 51.168C63.484 51.168 64.198 50.692 64.52 50.118C64.52 50.398 64.562 50.846 64.59 51H66.144C66.13 50.888 66.074 50.37 66.074 49.754V40.864ZM73.0848 53.66V50.23C73.4348 50.748 74.1768 51.168 75.1568 51.168C77.1168 51.168 78.3628 49.628 78.3628 47.584C78.3628 45.568 77.2288 44.028 75.2128 44.028C74.1628 44.028 73.3788 44.518 73.0428 45.106V44.182H71.4748V53.66H73.0848ZM76.7388 47.584C76.7388 48.886 75.9828 49.726 74.9048 49.726C73.8408 49.726 73.0708 48.886 73.0708 47.584C73.0708 46.31 73.8408 45.47 74.9048 45.47C75.9968 45.47 76.7388 46.31 76.7388 47.584ZM79.531 49.152C79.531 50.23 80.413 51.21 81.841 51.21C82.947 51.21 83.619 50.65 83.941 50.132C83.941 50.678 83.997 50.958 84.011 51H85.523C85.509 50.93 85.439 50.524 85.439 49.908V46.52C85.439 45.162 84.641 43.972 82.541 43.972C80.861 43.972 79.797 45.022 79.671 46.198L81.155 46.534C81.225 45.848 81.701 45.302 82.555 45.302C83.451 45.302 83.843 45.764 83.843 46.338C83.843 46.576 83.731 46.772 83.339 46.828L81.589 47.094C80.427 47.262 79.531 47.934 79.531 49.152ZM82.149 49.936C81.505 49.936 81.155 49.516 81.155 49.054C81.155 48.494 81.561 48.214 82.065 48.13L83.843 47.864V48.172C83.843 49.502 83.059 49.936 82.149 49.936ZM86.9265 49.152C87.0105 49.922 87.7665 51.21 89.7405 51.21C91.4765 51.21 92.3165 50.062 92.3165 49.026C92.3165 48.018 91.6445 47.234 90.3565 46.954L89.3205 46.744C88.9005 46.66 88.6345 46.394 88.6345 46.03C88.6345 45.61 89.0405 45.246 89.6145 45.246C90.5245 45.246 90.8185 45.876 90.8745 46.268L92.2465 45.876C92.1345 45.204 91.5185 43.972 89.6145 43.972C88.2005 43.972 87.1085 44.98 87.1085 46.17C87.1085 47.108 87.7385 47.892 88.9425 48.158L89.9505 48.382C90.4965 48.494 90.7485 48.774 90.7485 49.138C90.7485 49.558 90.3985 49.922 89.7265 49.922C88.8585 49.922 88.3965 49.376 88.3405 48.76L86.9265 49.152ZM93.4343 49.152C93.5183 49.922 94.2743 51.21 96.2483 51.21C97.9843 51.21 98.8243 50.062 98.8243 49.026C98.8243 48.018 98.1523 47.234 96.8643 46.954L95.8283 46.744C95.4083 46.66 95.1423 46.394 95.1423 46.03C95.1423 45.61 95.5483 45.246 96.1223 45.246C97.0323 45.246 97.3263 45.876 97.3823 46.268L98.7543 45.876C98.6423 45.204 98.0263 43.972 96.1223 43.972C94.7083 43.972 93.6163 44.98 93.6163 46.17C93.6163 47.108 94.2463 47.892 95.4503 48.158L96.4583 48.382C97.0043 48.494 97.2563 48.774 97.2563 49.138C97.2563 49.558 96.9063 49.922 96.2343 49.922C95.3663 49.922 94.9043 49.376 94.8483 48.76L93.4343 49.152ZM101.65 46.842C101.706 46.114 102.294 45.33 103.316 45.33C104.436 45.33 104.968 46.044 104.996 46.842H101.65ZM105.178 48.62C104.954 49.292 104.45 49.81 103.47 49.81C102.462 49.81 101.65 49.068 101.608 48.032H106.592C106.606 48.004 106.634 47.78 106.634 47.514C106.634 45.358 105.402 43.972 103.302 43.972C101.58 43.972 99.9842 45.4 99.9842 47.556C99.9842 49.866 101.622 51.21 103.47 51.21C105.108 51.21 106.186 50.244 106.55 49.054L105.178 48.62ZM109.835 47.066C109.835 46.17 110.325 45.456 111.249 45.456C112.271 45.456 112.649 46.128 112.649 46.968V51H114.273V46.688C114.273 45.19 113.475 43.986 111.809 43.986C111.053 43.986 110.241 44.308 109.793 45.092V44.182H108.211V51H109.835V47.066ZM115.789 51.378C115.971 52.75 117.231 53.87 119.037 53.87C121.599 53.87 122.537 52.176 122.537 50.356V44.182H120.969V45.05C120.675 44.49 120.017 44.056 118.953 44.056C117.077 44.056 115.803 45.554 115.803 47.374C115.803 49.292 117.133 50.692 118.953 50.692C119.947 50.692 120.633 50.23 120.927 49.698V50.412C120.927 51.798 120.283 52.456 118.995 52.456C118.057 52.456 117.399 51.826 117.287 50.986L115.789 51.378ZM119.219 49.306C118.155 49.306 117.441 48.564 117.441 47.374C117.441 46.212 118.183 45.456 119.219 45.456C120.227 45.456 120.969 46.212 120.969 47.374C120.969 48.55 120.255 49.306 119.219 49.306ZM125.781 46.842C125.837 46.114 126.425 45.33 127.447 45.33C128.567 45.33 129.099 46.044 129.127 46.842H125.781ZM129.309 48.62C129.085 49.292 128.581 49.81 127.601 49.81C126.593 49.81 125.781 49.068 125.739 48.032H130.723C130.737 48.004 130.765 47.78 130.765 47.514C130.765 45.358 129.533 43.972 127.433 43.972C125.711 43.972 124.115 45.4 124.115 47.556C124.115 49.866 125.753 51.21 127.601 51.21C129.239 51.21 130.317 50.244 130.681 49.054L129.309 48.62ZM136.332 44.14C136.262 44.126 136.094 44.098 135.898 44.098C135.002 44.098 134.246 44.532 133.924 45.274V44.182H132.342V51H133.966V47.752C133.966 46.478 134.54 45.75 135.8 45.75C135.968 45.75 136.15 45.764 136.332 45.792V44.14Z" fill="#007F6D"/>
</svg>
