<svg width="312" height="340" viewBox="0 0 312 340" fill="none" xmlns="http://www.w3.org/2000/svg">
<rect width="312" height="340" fill="white"/>
<path d="M24 278C24 274.686 26.6863 272 30 272H282C285.314 272 288 274.686 288 278V310C288 313.314 285.314 316 282 316H30C26.6863 316 24 313.314 24 310V278Z" fill="#00A991"/>
<g opacity="0.7">
<path d="M130 289C130 287.895 130.895 287 132 287H180C181.105 287 182 287.895 182 289V299C182 300.105 181.105 301 180 301H132C130.895 301 130 300.105 130 299V289Z" fill="white"/>
</g>
<path d="M24 90C24 86.6863 26.6863 84 30 84H282C285.314 84 288 86.6863 288 90V122C288 125.314 285.314 128 282 128H30C26.6863 128 24 125.314 24 122V90Z" fill="#00A991"/>
<rect opacity="0.5" x="38" y="96" width="20" height="20" rx="3" fill="white"/>
<g opacity="0.5">
<path d="M72 101C72 99.8954 72.8954 99 74 99H183C184.105 99 185 99.8954 185 101V111C185 112.105 184.105 113 183 113H74C72.8954 113 72 112.105 72 111V101Z" fill="white"/>
</g>
<path d="M24 150C24 146.686 26.6863 144 30 144H282C285.314 144 288 146.686 288 150V182C288 185.314 285.314 188 282 188H30C26.6863 188 24 185.314 24 182V150Z" fill="#00A991"/>
<rect opacity="0.5" x="38" y="156" width="20" height="20" rx="3" fill="white"/>
<g opacity="0.5">
<rect x="72" y="159" width="60" height="14" rx="2" fill="white"/>
<rect x="136" y="159" width="49" height="14" rx="2" fill="white"/>
</g>
<path d="M24 210C24 206.686 26.6863 204 30 204H282C285.314 204 288 206.686 288 210V242C288 245.314 285.314 248 282 248H30C26.6863 248 24 245.314 24 242V210Z" fill="#00A991"/>
<rect opacity="0.5" x="38" y="216" width="20" height="20" rx="3" fill="white"/>
<g opacity="0.5">
<rect x="72" y="219" width="60" height="14" rx="2" fill="white"/>
<rect x="136" y="219" width="49" height="14" rx="2" fill="white"/>
</g>
<path d="M24 30C24 26.6863 26.6863 24 30 24H143C146.314 24 149 26.6863 149 30V62C149 65.3137 146.314 68 143 68H30C26.6863 68 24 65.3137 24 62V30Z" fill="#00A991"/>
<g opacity="0.5">
<path d="M40 41C40 39.8954 40.8954 39 42 39H99C100.105 39 101 39.8954 101 41V51C101 52.1046 100.105 53 99 53H42C40.8954 53 40 52.1046 40 51V41Z" fill="white"/>
</g>
<path opacity="0.5" d="M120.913 42.7472C120.579 42.3781 120.008 42.3488 119.638 42.6817C119.268 43.0147 119.239 43.5838 119.572 43.9528L124.368 49.2549C124.727 49.6521 125.352 49.651 125.71 49.2525L130.43 43.9968C130.762 43.6265 130.731 43.0575 130.36 42.7259C129.989 42.3943 129.418 42.4256 129.086 42.7958L125.332 46.9755C125.173 47.1521 124.897 47.1526 124.738 46.9766L120.913 42.7472Z" fill="white"/>
<path d="M163 30C163 26.6863 165.686 24 169 24H282C285.314 24 288 26.6863 288 30V62C288 65.3137 285.314 68 282 68H169C165.686 68 163 65.3137 163 62V30Z" fill="#00A991"/>
<rect opacity="0.5" x="177" y="36" width="20" height="20" rx="3" fill="white"/>
<g opacity="0.5">
<path d="M211 41C211 39.8954 211.895 39 213 39H238C239.105 39 240 39.8954 240 41V51C240 52.1046 239.105 53 238 53H213C211.895 53 211 52.1046 211 51V41Z" fill="white"/>
</g>
<path opacity="0.5" d="M259.913 42.7472C259.579 42.3781 259.008 42.3488 258.638 42.6817C258.268 43.0147 258.239 43.5838 258.572 43.9528L263.368 49.2549C263.727 49.6521 264.352 49.651 264.71 49.2525L269.43 43.9968C269.762 43.6265 269.731 43.0575 269.36 42.7259C268.989 42.3943 268.418 42.4256 268.086 42.7958L264.332 46.9755C264.173 47.1521 263.897 47.1526 263.738 46.9766L259.913 42.7472Z" fill="white"/>
</svg>
