<svg width="260" height="92" viewBox="0 0 260 92" fill="none" xmlns="http://www.w3.org/2000/svg">
<rect width="260" height="92" fill="white"/>
<rect x="24" y="24" width="212" height="44" rx="6" fill="#ECF8F7"/>
<path d="M50.504 45.2522C50.5133 45.3145 50.4881 45.3769 50.4382 45.4152C49.2113 46.3594 48.434 47.7728 48.2937 49.3145C48.2851 49.4037 48.2104 49.4719 48.1208 49.4722H42.0138C41.8221 49.4722 41.6666 49.3167 41.6666 49.125C41.6754 48.2775 41.8532 47.4403 42.1895 46.6625C42.5637 45.9155 43.7909 45.4641 45.4894 44.8394L45.9291 44.6777C45.9798 44.6163 46.0122 44.542 46.0229 44.4632C46.0897 44.1596 46.0721 43.8436 45.9722 43.5493C45.2296 42.7415 44.8625 41.658 44.9611 40.5652C44.9611 38.8861 46.0576 37.6666 47.5694 37.6666C49.0812 37.6666 50.1777 38.8861 50.1777 40.5632C50.2767 41.6607 49.9069 42.749 49.1597 43.559C49.0691 43.8515 49.0553 44.1624 49.1194 44.4618C49.1298 44.5415 49.1631 44.6165 49.2152 44.6777L49.6513 44.8375C49.7073 44.8584 49.7627 44.879 49.8174 44.8994C50.0172 44.974 50.2089 45.0455 50.3937 45.1152C50.4526 45.1375 50.4948 45.1899 50.504 45.2522Z" fill="#007F6D"/>
<path d="M53.8194 45.3055C51.3265 45.3055 49.3055 47.3265 49.3055 49.8194C49.3055 52.3124 51.3265 54.3333 53.8194 54.3333C56.3124 54.3333 58.3333 52.3124 58.3333 49.8194C58.3302 47.3277 56.3111 45.3086 53.8194 45.3055ZM56.9444 49.8194C56.9444 50.2029 56.6335 50.5138 56.25 50.5138H54.8611C54.6693 50.5138 54.5138 50.6693 54.5138 50.8611V52.25C54.5138 52.6335 54.2029 52.9444 53.8194 52.9444C53.4359 52.9444 53.125 52.6335 53.125 52.25V50.8611C53.125 50.6693 52.9695 50.5138 52.7777 50.5138H51.3888C51.0053 50.5138 50.6944 50.2029 50.6944 49.8194C50.6944 49.4359 51.0053 49.125 51.3888 49.125H52.7777C52.9695 49.125 53.125 48.9695 53.125 48.7777V47.3888C53.125 47.0053 53.4359 46.6944 53.8194 46.6944C54.2029 46.6944 54.5138 47.0053 54.5138 47.3888V48.7777C54.5138 48.9695 54.6693 49.125 54.8611 49.125H56.25C56.6335 49.125 56.9444 49.4359 56.9444 49.8194Z" fill="#007F6D"/>
<path d="M78.4107 51H80.2447L76.3807 41.074H74.4347L70.5707 51H72.3487L73.2727 48.508H77.4727L78.4107 51ZM75.3727 42.894L76.8847 46.954H73.8607L75.3727 42.894ZM82.4578 47.57C82.4578 46.268 83.2418 45.442 84.3058 45.442C85.3698 45.442 86.0978 46.254 86.0978 47.556C86.0978 48.858 85.3558 49.74 84.2918 49.74C83.1858 49.74 82.4578 48.872 82.4578 47.57ZM87.6658 40.864H86.0838V44.98C85.8738 44.546 85.2718 44 84.0818 44C82.1638 44 80.8338 45.61 80.8338 47.57C80.8338 49.628 82.1498 51.168 84.1098 51.168C85.0758 51.168 85.7898 50.692 86.1118 50.118C86.1118 50.398 86.1538 50.846 86.1818 51H87.7358C87.7218 50.888 87.6658 50.37 87.6658 49.754V40.864ZM90.866 47.57C90.866 46.268 91.65 45.442 92.714 45.442C93.778 45.442 94.506 46.254 94.506 47.556C94.506 48.858 93.764 49.74 92.7 49.74C91.594 49.74 90.866 48.872 90.866 47.57ZM96.074 40.864H94.492V44.98C94.282 44.546 93.68 44 92.49 44C90.572 44 89.242 45.61 89.242 47.57C89.242 49.628 90.558 51.168 92.518 51.168C93.484 51.168 94.198 50.692 94.52 50.118C94.52 50.398 94.562 50.846 94.59 51H96.144C96.13 50.888 96.074 50.37 96.074 49.754V40.864ZM103.085 53.66V50.23C103.435 50.748 104.177 51.168 105.157 51.168C107.117 51.168 108.363 49.628 108.363 47.584C108.363 45.568 107.229 44.028 105.213 44.028C104.163 44.028 103.379 44.518 103.043 45.106V44.182H101.475V53.66H103.085ZM106.739 47.584C106.739 48.886 105.983 49.726 104.905 49.726C103.841 49.726 103.071 48.886 103.071 47.584C103.071 46.31 103.841 45.47 104.905 45.47C105.997 45.47 106.739 46.31 106.739 47.584ZM109.531 49.152C109.531 50.23 110.413 51.21 111.841 51.21C112.947 51.21 113.619 50.65 113.941 50.132C113.941 50.678 113.997 50.958 114.011 51H115.523C115.509 50.93 115.439 50.524 115.439 49.908V46.52C115.439 45.162 114.641 43.972 112.541 43.972C110.861 43.972 109.797 45.022 109.671 46.198L111.155 46.534C111.225 45.848 111.701 45.302 112.555 45.302C113.451 45.302 113.843 45.764 113.843 46.338C113.843 46.576 113.731 46.772 113.339 46.828L111.589 47.094C110.427 47.262 109.531 47.934 109.531 49.152ZM112.149 49.936C111.505 49.936 111.155 49.516 111.155 49.054C111.155 48.494 111.561 48.214 112.065 48.13L113.843 47.864V48.172C113.843 49.502 113.059 49.936 112.149 49.936ZM116.927 49.152C117.011 49.922 117.767 51.21 119.741 51.21C121.477 51.21 122.317 50.062 122.317 49.026C122.317 48.018 121.645 47.234 120.357 46.954L119.321 46.744C118.901 46.66 118.635 46.394 118.635 46.03C118.635 45.61 119.041 45.246 119.615 45.246C120.525 45.246 120.819 45.876 120.875 46.268L122.247 45.876C122.135 45.204 121.519 43.972 119.615 43.972C118.201 43.972 117.109 44.98 117.109 46.17C117.109 47.108 117.739 47.892 118.943 48.158L119.951 48.382C120.497 48.494 120.749 48.774 120.749 49.138C120.749 49.558 120.399 49.922 119.727 49.922C118.859 49.922 118.397 49.376 118.341 48.76L116.927 49.152ZM123.434 49.152C123.518 49.922 124.274 51.21 126.248 51.21C127.984 51.21 128.824 50.062 128.824 49.026C128.824 48.018 128.152 47.234 126.864 46.954L125.828 46.744C125.408 46.66 125.142 46.394 125.142 46.03C125.142 45.61 125.548 45.246 126.122 45.246C127.032 45.246 127.326 45.876 127.382 46.268L128.754 45.876C128.642 45.204 128.026 43.972 126.122 43.972C124.708 43.972 123.616 44.98 123.616 46.17C123.616 47.108 124.246 47.892 125.45 48.158L126.458 48.382C127.004 48.494 127.256 48.774 127.256 49.138C127.256 49.558 126.906 49.922 126.234 49.922C125.366 49.922 124.904 49.376 124.848 48.76L123.434 49.152ZM131.65 46.842C131.706 46.114 132.294 45.33 133.316 45.33C134.436 45.33 134.968 46.044 134.996 46.842H131.65ZM135.178 48.62C134.954 49.292 134.45 49.81 133.47 49.81C132.462 49.81 131.65 49.068 131.608 48.032H136.592C136.606 48.004 136.634 47.78 136.634 47.514C136.634 45.358 135.402 43.972 133.302 43.972C131.58 43.972 129.984 45.4 129.984 47.556C129.984 49.866 131.622 51.21 133.47 51.21C135.108 51.21 136.186 50.244 136.55 49.054L135.178 48.62ZM139.835 47.066C139.835 46.17 140.325 45.456 141.249 45.456C142.271 45.456 142.649 46.128 142.649 46.968V51H144.273V46.688C144.273 45.19 143.475 43.986 141.809 43.986C141.053 43.986 140.241 44.308 139.793 45.092V44.182H138.211V51H139.835V47.066ZM145.789 51.378C145.971 52.75 147.231 53.87 149.037 53.87C151.599 53.87 152.537 52.176 152.537 50.356V44.182H150.969V45.05C150.675 44.49 150.017 44.056 148.953 44.056C147.077 44.056 145.803 45.554 145.803 47.374C145.803 49.292 147.133 50.692 148.953 50.692C149.947 50.692 150.633 50.23 150.927 49.698V50.412C150.927 51.798 150.283 52.456 148.995 52.456C148.057 52.456 147.399 51.826 147.287 50.986L145.789 51.378ZM149.219 49.306C148.155 49.306 147.441 48.564 147.441 47.374C147.441 46.212 148.183 45.456 149.219 45.456C150.227 45.456 150.969 46.212 150.969 47.374C150.969 48.55 150.255 49.306 149.219 49.306ZM155.781 46.842C155.837 46.114 156.425 45.33 157.447 45.33C158.567 45.33 159.099 46.044 159.127 46.842H155.781ZM159.309 48.62C159.085 49.292 158.581 49.81 157.601 49.81C156.593 49.81 155.781 49.068 155.739 48.032H160.723C160.737 48.004 160.765 47.78 160.765 47.514C160.765 45.358 159.533 43.972 157.433 43.972C155.711 43.972 154.115 45.4 154.115 47.556C154.115 49.866 155.753 51.21 157.601 51.21C159.239 51.21 160.317 50.244 160.681 49.054L159.309 48.62ZM166.332 44.14C166.262 44.126 166.094 44.098 165.898 44.098C165.002 44.098 164.246 44.532 163.924 45.274V44.182H162.342V51H163.966V47.752C163.966 46.478 164.54 45.75 165.8 45.75C165.968 45.75 166.15 45.764 166.332 45.792V44.14Z" fill="#007F6D"/>
</svg>
