<svg width="24" height="24" viewBox="0 0 24 24" fill="none" xmlns="http://www.w3.org/2000/svg">
<path fill-rule="evenodd" clip-rule="evenodd" d="M17.5858 2C17.851 2 18.1054 2.10536 18.2929 2.29289L21.7071 5.70711C21.8946 5.89464 22 6.149 22 6.41421V16C22 17.1046 21.1046 18 20 18H10C8.89543 18 8 17.1046 8 16V4C8 2.89543 8.89543 2 10 2H17.5858ZM19.6875 16C19.8601 16 20 15.8881 20 15.75V7.16C20 7.09096 19.93 7 19.8438 7H18C17.3096 7 17 6.55228 17 6V4.16C17 4.09096 16.9263 4 16.84 4H10.3125C10.1399 4 10 4.11193 10 4.25V15.75C10 15.8881 10.1399 16 10.3125 16H19.6875Z" fill="#252A31"/>
<path d="M7 7C7 6.44772 6.55228 6 6 6H4C2.89543 6 2 6.89543 2 8V20C2 21.1046 2.89543 22 4 22H14C15.1046 22 16 21.1046 16 20C16 19.4477 15.5523 19 15 19H14.75C14.3358 19 14 19.3358 14 19.75C14 19.8881 13.8601 20 13.6875 20H4.3125C4.13991 20 4 19.8881 4 19.75V8.25C4 8.11193 4.13991 8 4.3125 8H6C6.55228 8 7 7.55228 7 7Z" fill="#252A31"/>
</svg>
