<svg width="20" height="20" viewBox="0 0 20 20" fill="none" xmlns="http://www.w3.org/2000/svg"><path fill-rule="evenodd" clip-rule="evenodd" d="M15.586 0a1 1 0 0 1 .707.293l3.414 3.414a1 1 0 0 1 .293.707V14a2 2 0 0 1-2 2H8a2 2 0 0 1-2-2V2a2 2 0 0 1 2-2h7.586zm2.101 14c.173 0 .313-.112.313-.25V5.16c0-.069-.07-.16-.156-.16H16c-.69 0-1-.448-1-1V2.16c0-.069-.074-.16-.16-.16H8.313C8.14 2 8 2.112 8 2.25v11.5c0 .138.14.25.313.25h9.374z" fill="#252A31"/><path d="M5 5a1 1 0 0 0-1-1H2a2 2 0 0 0-2 2v12a2 2 0 0 0 2 2h10a2 2 0 0 0 2-2 1 1 0 0 0-1-1h-.25a.75.75 0 0 0-.75.75c0 .138-.14.25-.313.25H2.313C2.14 18 2 17.888 2 17.75V6.25c0-.138.14-.25.313-.25H4a1 1 0 0 0 1-1z" fill="#252A31"/></svg>