<svg width="105" height="25" viewBox="0 0 105 25" xmlns="http://www.w3.org/2000/svg">
  <g fill="#fff">
    <path d="M12.816 0C5.739 0 0 5.738 0 12.816c0 5.663 3.672 10.467 8.765 12.162.64.118.875-.278.875-.617 0-.305-.012-1.315-.017-2.386-3.566.775-4.318-1.512-4.318-1.512-.583-1.481-1.423-1.875-1.423-1.875-1.163-.796.088-.78.088-.78 1.287.091 1.964 1.321 1.964 1.321 1.143 1.96 2.999 1.393 3.73 1.066.115-.829.447-1.394.814-1.714-2.847-.324-5.84-1.423-5.84-6.334 0-1.399.501-2.543 1.321-3.44-.133-.323-.572-1.627.124-3.392 0 0 1.077-.344 3.526 1.314a12.324 12.324 0 0 1 3.207-.432 12.36 12.36 0 0 1 3.211.432c2.446-1.658 3.521-1.314 3.521-1.314.698 1.765.259 3.069.126 3.392.822.897 1.319 2.041 1.319 3.44 0 4.923-2.998 6.006-5.852 6.324.459.397.869 1.177.869 2.373 0 1.715-.015 3.095-.015 3.517 0 .341.231.741.88.615 5.09-1.696 8.758-6.499 8.758-12.16C25.633 5.738 19.895 0 12.816 0" />
    <path d="M4.854 18.401c-.028.064-.128.083-.219.04-.094-.042-.146-.129-.115-.193.027-.065.127-.084.22-.04.093.042.146.13.114.193M5.374 18.981c-.062.056-.181.03-.262-.06-.084-.089-.1-.209-.038-.266.063-.057.179-.03.263.059.084.091.1.209.037.267M5.879 19.719c-.079.054-.207.003-.287-.111-.078-.114-.078-.251.002-.305.08-.055.206-.006.287.107.078.116.078.253-.002.309M6.571 20.432c-.07.077-.22.056-.329-.049-.112-.104-.144-.25-.073-.328.071-.077.221-.056.332.049.111.103.145.251.07.328M7.526 20.846c-.031.1-.175.146-.32.103-.145-.044-.24-.161-.211-.263.03-.101.175-.148.321-.103.145.044.24.161.21.263M8.575 20.923c.004.105-.119.193-.272.195-.153.003-.277-.082-.279-.186 0-.107.121-.194.274-.196.152-.003.277.082.277.187M9.551 20.757c.018.103-.088.208-.239.237-.149.027-.286-.037-.305-.139-.019-.106.089-.212.238-.239.151-.026.287.036.306.141" />
    <path d="M45.764 12.153h-6.165a.29.29 0 0 0-.289.289v3.014c0 .159.129.288.289.288h2.405v3.745s-.54.184-2.033.184c-1.762 0-4.222-.643-4.222-6.054 0-5.412 2.562-6.124 4.967-6.124 2.082 0 2.979.367 3.55.543.18.055.345-.123.345-.283l.688-2.912a.269.269 0 0 0-.11-.225c-.231-.165-1.646-.957-5.218-.957-4.116 0-8.338 1.751-8.338 10.169 0 8.418 4.834 9.672 8.907 9.672 3.372 0 5.418-1.441 5.418-1.441.085-.046.094-.164.094-.218v-9.401a.289.289 0 0 0-.288-.289M77.537 4.67c0-.16-.128-.29-.287-.29h-3.471a.288.288 0 0 0-.287.29v6.709h-5.41V4.67c0-.16-.128-.29-.287-.29h-3.471a.289.289 0 0 0-.287.29v18.165c0 .16.129.29.287.29h3.471c.159 0 .287-.13.287-.29v-7.77h5.41l-.009 7.77c0 .16.129.29.288.29h3.479c.159 0 .286-.13.287-.29V4.67zM52.314 7.054c0-1.25-1.002-2.26-2.238-2.26a2.249 2.249 0 0 0-2.238 2.26c0 1.248 1.003 2.261 2.238 2.261 1.236 0 2.238-1.013 2.238-2.261M52.066 22.659V10.618a.288.288 0 0 0-.287-.289h-3.46c-.159 0-.301.163-.301.323v12.013c0 .353.22.458.504.458h3.118c.342 0 .426-.168.426-.464zM90.729 10.356h-3.444a.289.289 0 0 0-.287.29v8.907s-.875.641-2.117.641-1.572-.564-1.572-1.78v-7.768c0-.16-.128-.29-.286-.29h-3.497a.29.29 0 0 0-.287.29v8.356c0 3.612 2.014 4.496 4.783 4.496 2.273 0 4.105-1.255 4.105-1.255s.087.661.126.74c.04.078.143.157.254.157l2.224-.01c.158 0 .287-.13.287-.29l-.001-12.194a.29.29 0 0 0-.288-.29M98.786 20.183c-1.195-.037-2.006-.579-2.006-.579v-5.752s.8-.491 1.781-.578c1.24-.111 2.436.263 2.436 3.223 0 3.12-.54 3.736-2.211 3.686m1.358-10.235c-1.956 0-3.287.873-3.287.873V4.67c0-.16-.128-.29-.286-.29h-3.482a.288.288 0 0 0-.286.29v18.165c0 .16.128.29.287.29h2.415c.109 0 .191-.056.252-.154.06-.097.147-.837.147-.837s1.423 1.349 4.118 1.349c3.164 0 4.978-1.605 4.978-7.204s-2.898-6.331-4.856-6.331M62.043 10.327h-2.604l-.004-3.44c0-.13-.067-.195-.218-.195h-3.548c-.138 0-.212.06-.212.193v3.555s-1.778.429-1.898.464a.288.288 0 0 0-.208.277v2.234c0 .16.128.29.287.29h1.819v5.374c0 3.992 2.8 4.384 4.689 4.384.864 0 1.896-.277 2.067-.34.103-.038.163-.145.163-.261l.003-2.457a.293.293 0 0 0-.288-.29c-.152 0-.54.061-.94.061-1.279 0-1.712-.594-1.712-1.364v-5.107h2.604c.159 0 .287-.13.287-.29v-2.798a.288.288 0 0 0-.287-.29" />
  </g>
</svg>
