<?xml version="1.0" encoding="UTF-8" standalone="no"?>
<!DOCTYPE svg PUBLIC "-//W3C//DTD SVG 1.1//EN" "http://www.w3.org/Graphics/SVG/1.1/DTD/svg11.dtd">
<svg width="100%" height="100%" viewBox="0 0 64 64" version="1.1" xmlns="http://www.w3.org/2000/svg" xmlns:xlink="http://www.w3.org/1999/xlink" xml:space="preserve" xmlns:serif="http://www.serif.com/" style="fill-rule:evenodd;clip-rule:evenodd;stroke-linejoin:round;stroke-miterlimit:2;">
    <rect id="orbit-glyph" x="0" y="0" width="64" height="64" style="fill:none;"/>
    <g id="orbit-glyph1" serif:id="orbit-glyph">
        <g transform="matrix(1,0,0,1,0.796795,0)">
            <circle cx="31.203" cy="32" r="32" style="fill:rgb(0,169,145);"/>
        </g>
        <path d="M44.194,21.636C51.286,20.246 54.256,20.575 55.031,22.697C55.673,24.489 54.187,26.489 50.342,28.987C50.026,29.176 49.65,29.234 49.292,29.151C48.934,29.068 48.622,28.85 48.422,28.541C48.222,28.233 48.148,27.86 48.217,27.499C48.287,27.138 48.493,26.818 48.793,26.606C51.132,25.094 51.922,24.16 52.193,23.736C51.535,23.566 49.541,23.418 43.881,24.558L43.706,24.558C43.622,24.564 43.536,24.564 43.452,24.558C43.372,24.549 43.294,24.531 43.218,24.505L43.176,24.505C43.143,24.493 43.109,24.48 43.077,24.465C43.046,24.451 43.015,24.436 42.985,24.42L42.916,24.383L42.762,24.277L42.688,24.219C42.645,24.177 42.604,24.133 42.566,24.086L42.513,24.033C41.296,22.483 39.744,21.228 37.973,20.362C36.202,19.497 34.258,19.044 32.286,19.037C30.059,19.029 27.867,19.596 25.924,20.684C23.98,21.771 22.349,23.342 21.19,25.244C20.031,27.146 19.383,29.315 19.307,31.541C19.232,33.767 19.733,35.975 20.761,37.951C24.549,37.036 28.282,35.906 31.942,34.567C35.432,33.31 38.705,31.952 41.68,30.536C41.848,30.456 42.03,30.41 42.216,30.4C42.401,30.39 42.587,30.417 42.763,30.479C42.938,30.541 43.099,30.637 43.238,30.762C43.376,30.886 43.488,31.037 43.568,31.204C43.649,31.372 43.695,31.554 43.705,31.74C43.714,31.926 43.687,32.112 43.625,32.287C43.563,32.462 43.467,32.624 43.343,32.762C43.218,32.9 43.068,33.013 42.9,33.093C39.845,34.583 36.535,35.925 32.902,37.235C29.268,38.545 25.709,39.633 22.447,40.45C23.888,42.136 25.738,43.425 27.82,44.191C29.902,44.957 32.146,45.176 34.337,44.825C36.528,44.475 38.591,43.567 40.331,42.19C42.07,40.813 43.426,39.012 44.269,36.959C44.424,36.635 44.698,36.381 45.034,36.251C45.37,36.121 45.743,36.124 46.077,36.259C46.411,36.395 46.681,36.652 46.831,36.979C46.982,37.306 47.003,37.679 46.889,38.02C45.814,40.637 44.057,42.917 41.799,44.622C39.541,46.327 36.867,47.394 34.056,47.711C31.245,48.028 28.4,47.584 25.82,46.425C23.239,45.266 21.017,43.435 19.387,41.123C18.39,41.33 17.419,41.516 16.512,41.654C15.074,41.892 13.62,42.024 12.162,42.046C9.431,42.046 7.882,41.372 7.389,40.004C6.848,38.508 7.219,35.968 16.523,31.183C16.687,28.043 17.786,25.023 19.678,22.512C21.57,20 24.168,18.11 27.141,17.084C30.114,16.059 33.325,15.944 36.363,16.755C39.401,17.566 42.128,19.265 44.194,21.636ZM16.666,34.286C12.2,36.715 10.571,38.339 10.179,39.002C11.075,39.357 13.717,39.336 17.917,38.529C17.3,37.182 16.879,35.753 16.666,34.286Z" style="fill:white;"/>
        <path d="M44.774,30.563C44.627,30.322 44.554,30.044 44.566,29.762C44.573,29.574 44.617,29.39 44.696,29.22C44.775,29.05 44.886,28.897 45.024,28.769C45.162,28.642 45.324,28.544 45.5,28.479C45.676,28.415 45.863,28.385 46.051,28.393C46.333,28.405 46.605,28.5 46.833,28.666C47.06,28.833 47.234,29.063 47.331,29.328C47.428,29.592 47.444,29.88 47.378,30.154C47.312,30.429 47.166,30.677 46.958,30.868C46.751,31.059 46.491,31.185 46.213,31.228C45.934,31.272 45.648,31.232 45.392,31.114C45.136,30.995 44.921,30.804 44.774,30.563Z" style="fill:white;fill-rule:nonzero;"/>
    </g>
</svg>
