<?xml version="1.0" encoding="UTF-8" standalone="no"?>
<!DOCTYPE svg PUBLIC "-//W3C//DTD SVG 1.1//EN" "http://www.w3.org/Graphics/SVG/1.1/DTD/svg11.dtd">
<svg width="100%" height="100%" viewBox="0 0 124 120" version="1.1" xmlns="http://www.w3.org/2000/svg" xmlns:xlink="http://www.w3.org/1999/xlink" xml:space="preserve" xmlns:serif="http://www.serif.com/" style="fill-rule:evenodd;clip-rule:evenodd;stroke-linejoin:round;stroke-miterlimit:2;">
    <g transform="matrix(1,0,0,1,-125,-51)">
        <g>
            <path d="M125,92C125,90.343 126.343,89 128,89L246,89C247.657,89 249,90.343 249,92L249,130C249,131.657 247.657,133 246,133L128,133C126.343,133 125,131.657 125,130L125,92Z" style="fill:rgb(0,169,145);fill-rule:nonzero;"/>
            <path d="M159,104C159,102.344 157.656,101 156,101L142,101C140.344,101 139,102.344 139,104L139,118C139,119.656 140.344,121 142,121L156,121C157.656,121 159,119.656 159,118L159,104Z" style="fill:white;fill-opacity:0.2;"/>
            <path d="M176.872,116L176.872,114.404L172.322,114.404L172.322,106.074L170.642,106.074L170.642,116L176.872,116ZM177.889,114.152C177.889,115.23 178.771,116.21 180.199,116.21C181.305,116.21 181.977,115.65 182.299,115.132C182.299,115.678 182.355,115.958 182.369,116L183.881,116C183.867,115.93 183.797,115.524 183.797,114.908L183.797,111.52C183.797,110.162 182.999,108.972 180.899,108.972C179.219,108.972 178.155,110.022 178.029,111.198L179.513,111.534C179.583,110.848 180.059,110.302 180.913,110.302C181.809,110.302 182.201,110.764 182.201,111.338C182.201,111.576 182.089,111.772 181.697,111.828L179.947,112.094C178.785,112.262 177.889,112.934 177.889,114.152ZM180.507,114.936C179.863,114.936 179.513,114.516 179.513,114.054C179.513,113.494 179.919,113.214 180.423,113.13L182.201,112.864L182.201,113.172C182.201,114.502 181.417,114.936 180.507,114.936ZM187.342,116L187.342,115.09C187.734,115.748 188.476,116.168 189.442,116.168C191.43,116.168 192.648,114.614 192.648,112.556C192.648,110.554 191.542,109 189.498,109C188.448,109 187.664,109.49 187.356,110.022L187.356,105.864L185.76,105.864L185.76,116L187.342,116ZM191.01,112.57C191.01,113.914 190.24,114.726 189.176,114.726C188.14,114.726 187.342,113.914 187.342,112.57C187.342,111.212 188.14,110.442 189.176,110.442C190.254,110.442 191.01,111.212 191.01,112.57ZM195.343,111.842C195.399,111.114 195.987,110.33 197.009,110.33C198.129,110.33 198.661,111.044 198.689,111.842L195.343,111.842ZM198.871,113.62C198.647,114.292 198.143,114.81 197.163,114.81C196.155,114.81 195.343,114.068 195.301,113.032L200.285,113.032C200.299,113.004 200.327,112.78 200.327,112.514C200.327,110.358 199.095,108.972 196.995,108.972C195.273,108.972 193.677,110.4 193.677,112.556C193.677,114.866 195.315,116.21 197.163,116.21C198.801,116.21 199.879,115.244 200.243,114.054L198.871,113.62ZM203.503,116L203.503,105.864L201.879,105.864L201.879,116L203.503,116Z" style="fill:white;fill-rule:nonzero;"/>
            <path d="M235,104C235,102.344 233.656,101 232,101L218,101C216.344,101 215,102.344 215,104L215,118C215,119.656 216.344,121 218,121L232,121C233.656,121 235,119.656 235,118L235,104Z" style="fill:white;fill-opacity:0.2;"/>
            <path d="M161,63C161,56.377 155.623,51 149,51C142.377,51 137,56.377 137,63C137,69.623 142.377,75 149,75C155.623,75 161,69.623 161,63Z" style="fill:rgb(236,81,146);"/>
            <path d="M150.761,68L150.761,58.914L149.095,58.914C148.913,59.866 147.989,60.608 146.659,60.622L146.659,61.924L148.843,61.924L148.843,68L150.761,68Z" style="fill:white;fill-rule:nonzero;"/>
            <rect x="148.5" y="75" width="1" height="24" style="fill:rgb(236,81,146);"/>
            <path d="M151,101C151,99.896 150.104,99 149,99C147.896,99 147,99.896 147,101C147,102.104 147.896,103 149,103C150.104,103 151,102.104 151,101Z" style="fill:rgb(236,81,146);"/>
            <path d="M236,63C236,56.377 230.623,51 224,51C217.377,51 212,56.377 212,63C212,69.623 217.377,75 224,75C230.623,75 236,69.623 236,63Z" style="fill:rgb(236,81,146);"/>
            <path d="M223.154,63.968C223.35,63.898 223.588,63.828 223.98,63.828C224.848,63.828 225.464,64.318 225.464,65.172C225.464,65.928 224.89,66.544 223.924,66.544C222.972,66.544 222.314,65.872 222.272,64.948L220.41,65.312C220.522,66.838 221.81,68.21 223.924,68.21C226.122,68.21 227.41,66.768 227.41,65.2C227.41,63.534 226.15,62.484 224.778,62.428L227.13,60.468L227.13,58.914L220.704,58.914L220.704,60.58L224.68,60.58L222.3,62.624L223.154,63.968Z" style="fill:white;fill-rule:nonzero;"/>
            <rect x="223.5" y="75" width="1" height="24" style="fill:rgb(236,81,146);"/>
            <path d="M226,101C226,99.896 225.104,99 224,99C222.896,99 222,99.896 222,101C222,102.104 222.896,103 224,103C225.104,103 226,102.104 226,101Z" style="fill:rgb(236,81,146);"/>
            <path d="M188,121C188,119.896 187.104,119 186,119C184.896,119 184,119.896 184,121C184,122.104 184.896,123 186,123C187.104,123 188,122.104 188,121Z" style="fill:rgb(236,81,146);"/>
            <rect x="185.5" y="123" width="1" height="24" style="fill:rgb(236,81,146);"/>
            <path d="M198,159C198,152.377 192.623,147 186,147C179.377,147 174,152.377 174,159C174,165.623 179.377,171 186,171C192.623,171 198,165.623 198,159Z" style="fill:rgb(236,81,146);"/>
            <path d="M184.621,158.428C184.579,158.274 184.551,158.092 184.551,157.924C184.551,157.07 185.027,156.412 185.993,156.412C186.903,156.412 187.365,157 187.365,157.658C187.365,158.288 187.057,158.764 186.287,159.226L184.789,160.122C183.165,161.102 182.661,162.404 182.647,164L189.367,164L189.367,162.334L185.013,162.334C185.153,161.984 185.447,161.732 185.797,161.508L187.547,160.444C188.667,159.758 189.311,158.806 189.311,157.63C189.311,156.048 188.065,154.704 186.035,154.704C183.921,154.704 182.717,156.146 182.717,157.742C182.717,157.966 182.759,158.246 182.787,158.372L184.621,158.428Z" style="fill:white;fill-rule:nonzero;"/>
        </g>
    </g>
</svg>
