<svg xmlns="http://www.w3.org/2000/svg" viewBox="0 0 24 24"><g><g><circle cx="17.5" cy="17.5" r="6" fill="none" stroke="#000000" stroke-linecap="round" stroke-linejoin="round"></circle><path d="M20.17,15.76l-2.9,3.87a.78.78,0,0,1-.55.3.77.77,0,0,1-.58-.22l-1.5-1.5" fill="none" stroke="#000000" stroke-linecap="round" stroke-linejoin="round"></path></g><circle cx="12" cy="7" r="4" fill="none" stroke="#000000" stroke-linecap="round" stroke-linejoin="round"></circle><path d="M12,5.5A1.5,1.5,0,1,1,10.5,7" fill="none" stroke="#000000" stroke-linecap="round" stroke-linejoin="round"></path><path d="M20.47,10.07a23,23,0,0,0,2.91-2.74.52.52,0,0,0,0-.66C22.21,5.35,17.56.5,12,.5S1.79,5.35.62,6.67a.52.52,0,0,0,0,.66c1.07,1.21,5.07,5.38,10,6.07" fill="none" stroke="#000000" stroke-linecap="round" stroke-linejoin="round"></path></g></svg>