<svg xmlns="http://www.w3.org/2000/svg" viewBox="0 0 24 24"><defs></defs><title>programming-language-code</title><path d="M5.5,17.5V3.5a3,3,0,0,1,3-3H21" fill="none" stroke="#000000" stroke-linecap="round" stroke-linejoin="round"></path><line x1="8.5" y1="5.5" x2="14.5" y2="5.5" fill="none" stroke="#000000" stroke-linecap="round" stroke-linejoin="round"></line><line x1="8.5" y1="8.5" x2="14.5" y2="8.5" fill="none" stroke="#000000" stroke-linecap="round" stroke-linejoin="round"></line><line x1="8.5" y1="11.5" x2="14.5" y2="11.5" fill="none" stroke="#000000" stroke-linecap="round" stroke-linejoin="round"></line><line x1="8.5" y1="14.5" x2="14.5" y2="14.5" fill="none" stroke="#000000" stroke-linecap="round" stroke-linejoin="round"></line><path d="M15.5,23.5H3.5a3,3,0,0,1,0-6h12a3,3,0,1,0,3,3V3A2.5,2.5,0,0,1,21,.5a2.545,2.545,0,0,1,2.474,2.514.438.438,0,0,1-.436.486H18.5" fill="none" stroke="#000000" stroke-linecap="round" stroke-linejoin="round"></path></svg>