<svg width="25" height="24" viewBox="0 0 25 24" fill="none" xmlns="http://www.w3.org/2000/svg">
<mask id="path-1-outside-1" maskUnits="userSpaceOnUse" x="1.25" y="6" width="21" height="12" fill="black">
<rect fill="white" x="1.25" y="6" width="21" height="12"/>
<path d="M16.209 14.471C15.8015 14.471 15.47 14.1393 15.47 13.7317C15.47 13.3242 15.8015 12.9927 16.209 12.9927C16.6166 12.9927 16.9481 13.3242 16.9481 13.7317C16.9481 14.1393 16.6166 14.471 16.209 14.471ZM8.03997 14.471C7.63245 14.471 7.30095 14.1393 7.30095 13.7317C7.30095 13.3242 7.63238 12.9927 8.03997 12.9927C8.4475 12.9927 8.779 13.3242 8.779 13.7317C8.779 14.1393 8.44757 14.471 8.03997 14.471ZM16.4741 10.019L17.9511 7.46079C17.9918 7.39019 18.0028 7.30634 17.9817 7.22765C17.9606 7.14895 17.9092 7.08183 17.8387 7.04102C17.7681 7.00038 17.6842 6.9894 17.6055 7.01049C17.5268 7.03157 17.4597 7.08301 17.4189 7.15351L15.9233 9.74408C14.7796 9.22218 13.4951 8.9314 12.1245 8.9314C10.7538 8.9314 9.46938 9.22218 8.32568 9.74408L6.83005 7.15351C6.78923 7.08301 6.72211 7.03157 6.64342 7.01049C6.56473 6.9894 6.48089 7.00038 6.41029 7.04102C6.33973 7.0818 6.28825 7.14891 6.26716 7.22762C6.24607 7.30634 6.25709 7.3902 6.2978 7.46079L7.7749 10.019C5.23851 11.3985 3.50378 13.9663 3.25 17H20.999C20.745 13.9664 19.0102 11.3985 16.4741 10.019"/>
</mask>
<path d="M17.9511 7.46079L18.8172 7.96081L18.8177 7.95985L17.9511 7.46079ZM17.8387 7.04102L18.3396 6.17552L18.3375 6.17435L17.8387 7.04102ZM17.4189 7.15351L16.5535 6.6524L16.5529 6.65353L17.4189 7.15351ZM15.9233 9.74408L15.5082 10.6538L16.335 11.0311L16.7894 10.2441L15.9233 9.74408ZM8.32568 9.74408L7.45965 10.2441L7.91404 11.0311L8.74083 10.6538L8.32568 9.74408ZM6.83005 7.15351L7.69608 6.65352L7.69544 6.65241L6.83005 7.15351ZM6.41029 7.04102L5.91142 6.17434L5.90994 6.1752L6.41029 7.04102ZM6.2978 7.46079L5.43156 7.96042L5.43179 7.96081L6.2978 7.46079ZM7.7749 10.019L8.25269 10.8975L9.15384 10.4074L8.64091 9.51901L7.7749 10.019ZM3.25 17L2.25348 16.9166L2.16285 18H3.25V17ZM20.999 17V18H22.0862L21.9955 16.9166L20.999 17ZM16.209 13.471C16.3542 13.471 16.47 13.5875 16.47 13.7317H14.47C14.47 14.6911 15.2487 15.471 16.209 15.471V13.471ZM16.47 13.7317C16.47 13.8765 16.3537 13.9927 16.209 13.9927V11.9927C15.2492 11.9927 14.47 12.7719 14.47 13.7317H16.47ZM16.209 13.9927C16.0644 13.9927 15.9481 13.8766 15.9481 13.7317H17.9481C17.9481 12.7718 17.1687 11.9927 16.209 11.9927V13.9927ZM15.9481 13.7317C15.9481 13.5874 16.0639 13.471 16.209 13.471V15.471C17.1692 15.471 17.9481 14.6913 17.9481 13.7317H15.9481ZM8.03997 13.471C8.18522 13.471 8.30095 13.5875 8.30095 13.7317H6.30095C6.30095 14.6911 7.07968 15.471 8.03997 15.471V13.471ZM8.30095 13.7317C8.30095 13.8764 8.18473 13.9927 8.03997 13.9927V11.9927C7.08003 11.9927 6.30095 12.772 6.30095 13.7317H8.30095ZM8.03997 13.9927C7.89527 13.9927 7.779 13.8765 7.779 13.7317H9.779C9.779 12.7718 8.99973 11.9927 8.03997 11.9927V13.9927ZM7.779 13.7317C7.779 13.5875 7.8948 13.471 8.03997 13.471V15.471C9.00033 15.471 9.779 14.6911 9.779 13.7317H7.779ZM17.3401 10.5191L18.8172 7.96081L17.0851 6.96077L15.608 9.51901L17.3401 10.5191ZM18.8177 7.95985C18.9905 7.65975 19.0373 7.30334 18.9476 6.96881L17.0158 7.48648C16.9683 7.30935 16.9931 7.12063 17.0846 6.96173L18.8177 7.95985ZM18.9476 6.96881C18.858 6.63429 18.6393 6.349 18.3396 6.17553L17.3378 7.90652C17.179 7.81467 17.0633 7.66361 17.0158 7.48648L18.9476 6.96881ZM18.3375 6.17435C18.0375 6.00162 17.6811 5.95495 17.3467 6.04456L17.8644 7.97641C17.6873 8.02385 17.4987 7.99914 17.3398 7.9077L18.3375 6.17435ZM17.3467 6.04456C17.0123 6.13418 16.727 6.35277 16.5535 6.65241L18.2843 7.65461C18.1924 7.81324 18.0414 7.92896 17.8644 7.97641L17.3467 6.04456ZM16.5529 6.65353L15.0573 9.24411L16.7894 10.2441L18.2849 7.65348L16.5529 6.65353ZM16.3385 8.83432C15.064 8.25279 13.638 7.9314 12.1245 7.9314V9.9314C13.3523 9.9314 14.4951 10.1916 15.5082 10.6538L16.3385 8.83432ZM12.1245 7.9314C10.611 7.9314 9.18492 8.25279 7.91053 8.83433L8.74083 10.6538C9.75385 10.1916 10.8967 9.9314 12.1245 9.9314V7.9314ZM9.19171 9.24409L7.69608 6.65352L5.96402 7.6535L7.45965 10.2441L9.19171 9.24409ZM7.69544 6.65241C7.52194 6.35277 7.23669 6.13418 6.90226 6.04456L6.38459 7.97641C6.20753 7.92896 6.05652 7.81324 5.96466 7.65461L7.69544 6.65241ZM6.90226 6.04456C6.56782 5.95495 6.21149 6.00162 5.91142 6.17435L6.90916 7.9077C6.75029 7.99914 6.56165 8.02385 6.38459 7.97641L6.90226 6.04456ZM5.90994 6.1752C5.60988 6.3486 5.39094 6.63404 5.30124 6.96879L7.23308 7.48646C7.18556 7.66379 7.06958 7.81499 6.91063 7.90685L5.90994 6.1752ZM5.30124 6.96879C5.21154 7.30354 5.25841 7.66021 5.43156 7.96042L7.16404 6.96116C7.25577 7.1202 7.2806 7.30913 7.23308 7.48646L5.30124 6.96879ZM5.43179 7.96081L6.90889 10.5191L8.64091 9.51901L7.16381 6.96077L5.43179 7.96081ZM7.29711 9.14056C4.46794 10.6793 2.5356 13.5442 2.25348 16.9166L4.24652 17.0834C4.47196 14.3885 6.00908 12.1178 8.25269 10.8975L7.29711 9.14056ZM3.25 18H20.999V16H3.25V18ZM21.9955 16.9166C21.7131 13.5443 19.7808 10.6793 16.9519 9.14052L15.9962 10.8974C18.2397 12.1177 19.7768 14.3885 20.0024 17.0834L21.9955 16.9166Z" fill="#697D95" mask="url(#path-1-outside-1)"/>
<circle cx="8.05078" cy="14" r="1" fill="#697D95"/>
<circle cx="16.1992" cy="14" r="1" fill="#697D95"/>
</svg>
