<?xml version="1.0" encoding="UTF-8"?>
<svg width="32px" height="32px" viewBox="0 0 32 32" version="1.1" xmlns="http://www.w3.org/2000/svg" xmlns:xlink="http://www.w3.org/1999/xlink">
    <!-- Generator: Sketch 48.2 (47327) - http://www.bohemiancoding.com/sketch -->
    <title>Icons / 24px / System / icn-calendar-question (custom)</title>
    <desc>Created with Sketch.</desc>
    <defs>
        <path d="M8.6,4 L8.6,6.4 L7.4,6.4 C6.068,6.4 5,7.48 5,8.8 L5,25.6 C5,26.9254834 6.0745166,28 7.4,28 L24.2,28 C25.5254834,28 26.6,26.9254834 26.6,25.6 L26.6,8.8 C26.6,7.4745166 25.5254834,6.4 24.2,6.4 L23,6.4 L23,4 L20.6,4 L20.6,6.4 L11,6.4 L11,4 L8.6,4 Z M7.4,12.4 L24.2,12.4 L24.2,25.6 L7.4,25.6 L7.4,12.4 Z M16.028,13.6 C14.984,13.6 14.144,13.84 13.496,14.308 C12.872,14.8 12.56,15.484 12.572,16.432 L12.584,16.468 L14.9,16.468 C14.912,16.108 15.02,15.832 15.236,15.64 C15.452,15.46 15.716,15.364 16.028,15.364 C16.4,15.364 16.712,15.484 16.928,15.7 C17.144,15.928 17.24,16.24 17.24,16.6 C17.24,16.984 17.156,17.308 16.964,17.584 C16.796,17.86 16.544,18.1 16.232,18.292 C15.62,18.7 15.2,19.06 14.972,19.384 C14.732,19.696 14.6,20.2 14.6,20.8 L17,20.8 C17,20.428 17.048,20.128 17.156,19.912 C17.264,19.696 17.468,19.48 17.768,19.288 C18.308,19 18.752,18.652 19.1,18.172 C19.448,17.692 19.628,17.2 19.628,16.6 C19.628,15.688 19.304,14.956 18.656,14.416 C18.02,13.876 17.144,13.6 16.028,13.6 Z M14.6,22 L14.6,24.4 L17,24.4 L17,22 L14.6,22 Z" id="path-1"></path>
    </defs>
    <g id="Icons" stroke="none" stroke-width="1" fill="none" fill-rule="evenodd">
        <g id="Icons-/-24px-/-System-/-icn-calendar-question-(custom)">
            <mask id="mask-2" fill="white">
                <use xlink:href="#path-1"></use>
            </mask>
            <use id="Mask" fill="#000000" fill-rule="nonzero" xlink:href="#path-1"></use>
            <g id="_Library-Helpers-/-Colors-/-Front-/-Casper" mask="url(#mask-2)" fill="#BAC7D5">
                <g transform="translate(1.000000, 1.000000)" id="Rectangle">
                    <rect x="0" y="0" width="30" height="30"></rect>
                </g>
            </g>
        </g>
    </g>
</svg>