<?xml version="1.0" encoding="UTF-8"?>
<svg width="32px" height="32px" viewBox="0 0 32 32" version="1.1" xmlns="http://www.w3.org/2000/svg" xmlns:xlink="http://www.w3.org/1999/xlink">
    <!-- Generator: Sketch 48.2 (47327) - http://www.bohemiancoding.com/sketch -->
    <title>Icons / 24px / System / icn-account-circle</title>
    <desc>Created with Sketch.</desc>
    <defs>
        <path d="M16,4 C9.376,4 4,9.376 4,16 C4,22.624 9.376,28 16,28 C22.624,28 28,22.624 28,16 C28,9.376 22.624,4 16,4 L16,4 Z M16,7.6 C17.992,7.6 19.6,9.208 19.6,11.2 C19.6,13.192 17.992,14.8 16,14.8 C14.008,14.8 12.4,13.192 12.4,11.2 C12.4,9.208 14.008,7.6 16,7.6 L16,7.6 Z M16,24.64 C13,24.64 10.348,23.104 8.8,20.776 C8.836,18.388 13.6,17.08 16,17.08 C18.388,17.08 23.164,18.388 23.2,20.776 C21.652,23.104 19,24.64 16,24.64 L16,24.64 Z" id="path-1"></path>
    </defs>
    <g id="Icons" stroke="none" stroke-width="1" fill="none" fill-rule="evenodd">
        <g id="Icons-/-24px-/-System-/-icn-account-circle">
            <mask id="mask-2" fill="white">
                <use xlink:href="#path-1"></use>
            </mask>
            <use id="Mask" fill="#171B1E" xlink:href="#path-1"></use>
            <g id="_Library-Helpers-/-Colors-/-Front-/-Casper" mask="url(#mask-2)" fill="#BAC7D5">
                <g transform="translate(1.000000, 1.000000)" id="Rectangle">
                    <rect x="0" y="0" width="30" height="30"></rect>
                </g>
            </g>
        </g>
    </g>
</svg>