<?xml version="1.0" encoding="UTF-8"?>
<svg width="32px" height="32px" viewBox="0 0 32 32" version="1.1" xmlns="http://www.w3.org/2000/svg" xmlns:xlink="http://www.w3.org/1999/xlink">
    <!-- Generator: Sketch 48.2 (47327) - http://www.bohemiancoding.com/sketch -->
    <title>Icons / 24px / System / icn-stop (custom)</title>
    <desc>Created with Sketch.</desc>
    <defs>
        <path d="M26,9.5 L26,24 C26,26.2 24.2,28 22,28 L14.7,28 C13.62,28 12.6,27.57 11.85,26.81 L4,18.83 C4,18.83 5.26,17.6 5.3,17.58 C5.52,17.39 5.79,17.29 6.09,17.29 C6.31,17.29 6.51,17.35 6.69,17.45 C6.73,17.46 11,19.91 11,19.91 L11,8 C11,7.17 11.67,6.5 12.5,6.5 C13.33,6.5 14,7.17 14,8 L14,15 L15,15 L15,5.5 C15,4.67 15.67,4 16.5,4 C17.33,4 18,4.67 18,5.5 L18,15 L19,15 L19,6.5 C19,5.67 19.67,5 20.5,5 C21.33,5 22,5.67 22,6.5 L22,15 L23,15 L23,9.5 C23,8.67 23.67,8 24.5,8 C25.33,8 26,8.67 26,9.5 Z" id="path-1"></path>
    </defs>
    <g id="Icons" stroke="none" stroke-width="1" fill="none" fill-rule="evenodd">
        <g id="Icons-/-24px-/-System-/-icn-stop-(custom)">
            <mask id="mask-2" fill="white">
                <use xlink:href="#path-1"></use>
            </mask>
            <use id="Mask" fill="#171B1E" fill-rule="nonzero" xlink:href="#path-1"></use>
            <g id="_Library-Helpers-/-Colors-/-Front-/-Casper" mask="url(#mask-2)" fill="#BAC7D5">
                <g transform="translate(1.000000, 1.000000)" id="Rectangle">
                    <rect x="0" y="0" width="30" height="30"></rect>
                </g>
            </g>
        </g>
    </g>
</svg>