<?xml version="1.0" encoding="utf-8"?>
<svg viewBox="0 0 32 32" width="32" height="32" xmlns="http://www.w3.org/2000/svg" xmlns:xlink="http://www.w3.org/1999/xlink">
  <defs>
    <path id="icon" transform="translate(0,32) scale(1, -1)" d="M8.364 26.818v-13.09H4v13.09h4.364zm17.454-14.182h-6.883l1.036-4.985.033-.35c0-.446-.186-.861-.48-1.156L18.367 5l-7.178 7.19a2.133 2.133 0 0 0-.644 1.537v10.91c0 1.2.982 2.181 2.182 2.181h9.818c.906 0 1.68-.545 2.008-1.33l3.294-7.692c.098-.25.153-.512.153-.796v-2.182c0-1.2-.982-2.182-2.182-2.182z"/>
  </defs>
  <use xlink:href="#icon" />
</svg>
