<?xml version="1.0" encoding="UTF-8"?>
<svg width="32px" height="32px" viewBox="0 0 32 32" version="1.1" xmlns="http://www.w3.org/2000/svg" xmlns:xlink="http://www.w3.org/1999/xlink">
    <!-- Generator: Sketch 48.2 (47327) - http://www.bohemiancoding.com/sketch -->
    <title>Icons / 24px / System / icn-calendar-range</title>
    <desc>Created with Sketch.</desc>
    <defs>
        <path d="M12.2000001,14.8000002 L9.80000008,14.8000002 L9.80000008,17.2000002 L12.2000001,17.2000002 L12.2000001,14.8000002 L12.2000001,14.8000002 Z M17.0000002,14.8000002 L14.6000002,14.8000002 L14.6000002,17.2000002 L17.0000002,17.2000002 L17.0000002,14.8000002 L17.0000002,14.8000002 Z M21.8000003,14.8000002 L19.4000003,14.8000002 L19.4000003,17.2000002 L21.8000003,17.2000002 L21.8000003,14.8000002 L21.8000003,14.8000002 Z M24.2000003,6.40000004 L23.0000003,6.40000004 L23.0000003,4 L20.6000003,4 L20.6000003,6.40000004 L11.0000001,6.40000004 L11.0000001,4 L8.60000006,4 L8.60000006,6.40000004 L7.40000004,6.40000004 C6.06800002,6.40000004 5.012,7.48000006 5.012,8.80000008 L5,25.6000004 C5,26.9200004 6.06800002,28.0000004 7.40000004,28.0000004 L24.2000003,28.0000004 C25.5200004,28.0000004 26.6000004,26.9200004 26.6000004,25.6000004 L26.6000004,8.80000008 C26.6000004,7.48000006 25.5200004,6.40000004 24.2000003,6.40000004 L24.2000003,6.40000004 Z M24.2000003,25.6000004 L7.40000004,25.6000004 L7.40000004,12.4000001 L24.2000003,12.4000001 L24.2000003,25.6000004 L24.2000003,25.6000004 Z" id="path-1"></path>
    </defs>
    <g id="Icons" stroke="none" stroke-width="1" fill="none" fill-rule="evenodd">
        <g id="Icons-/-24px-/-System-/-icn-calendar-range">
            <mask id="mask-2" fill="white">
                <use xlink:href="#path-1"></use>
            </mask>
            <use id="Mask" fill="#C0C8D1" xlink:href="#path-1"></use>
            <g id="_Library-Helpers-/-Colors-/-Front-/-Casper" mask="url(#mask-2)" fill="#BAC7D5">
                <g transform="translate(1.000000, 1.000000)" id="Rectangle">
                    <rect x="0" y="0" width="30" height="30"></rect>
                </g>
            </g>
        </g>
    </g>
</svg>