<?xml version="1.0" encoding="UTF-8"?>
<svg width="32px" height="32px" viewBox="0 0 32 32" version="1.1" xmlns="http://www.w3.org/2000/svg" xmlns:xlink="http://www.w3.org/1999/xlink">
    <!-- Generator: Sketch 48.2 (47327) - http://www.bohemiancoding.com/sketch -->
    <title>Icons / 24px / System / icn-magnify</title>
    <desc>Created with Sketch.</desc>
    <defs>
        <path d="M12.9142857,4 C17.8375098,4 21.8285714,7.99106166 21.8285714,12.9142857 C21.8285714,15.1222857 21.0194286,17.152 19.6891429,18.7154286 L20.0594286,19.0857143 L21.1428571,19.0857143 L28,25.9428571 L25.9428571,28 L19.0857143,21.1428571 L19.0857143,20.0594286 L18.7154286,19.6891429 C17.152,21.0194286 15.1222857,21.8285714 12.9142857,21.8285714 C7.99106166,21.8285714 4,17.8375098 4,12.9142857 C4,7.99106166 7.99106166,4 12.9142857,4 Z M12.9142857,6.74285714 C9.48571429,6.74285714 6.74285714,9.48571429 6.74285714,12.9142857 C6.74285714,16.3428571 9.48571429,19.0857143 12.9142857,19.0857143 C16.3428571,19.0857143 19.0857143,16.3428571 19.0857143,12.9142857 C19.0857143,9.48571429 16.3428571,6.74285714 12.9142857,6.74285714 Z" id="path-1"></path>
    </defs>
    <g id="Icons" stroke="none" stroke-width="1" fill="none" fill-rule="evenodd">
        <g id="Icons-/-24px-/-System-/-icn-magnify">
            <mask id="mask-2" fill="white">
                <use xlink:href="#path-1"></use>
            </mask>
            <use id="Mask" fill="#000000" fill-rule="nonzero" xlink:href="#path-1"></use>
            <g id="_Library-Helpers-/-Colors-/-Front-/-Casper" mask="url(#mask-2)" fill="#BAC7D5">
                <g transform="translate(1.000000, 1.000000)" id="Rectangle">
                    <rect x="0" y="0" width="30" height="30"></rect>
                </g>
            </g>
        </g>
    </g>
</svg>