<?xml version="1.0" encoding="UTF-8"?>
<svg width="32px" height="32px" viewBox="0 0 32 32" version="1.1" xmlns="http://www.w3.org/2000/svg" xmlns:xlink="http://www.w3.org/1999/xlink">
    <!-- Generator: Sketch 48.2 (47327) - http://www.bohemiancoding.com/sketch -->
    <title>Icons / 24px / System / icn-open-in-new</title>
    <desc>Created with Sketch.</desc>
    <defs>
        <path d="M18.6666667,4 L18.6666667,6.66666667 L23.4533333,6.66666667 L10.3466667,19.7733333 L12.2266667,21.6533333 L25.3333333,8.54666667 L25.3333333,13.3333333 L28,13.3333333 L28,4 L18.6666667,4 Z M25.3333333,25.3333333 L6.66666667,25.3333333 L6.66666667,6.66666667 L16,6.66666667 L16,4 L6.66666667,4 C5.18666667,4 4,5.2 4,6.66666667 L4,25.3333333 C4,26.8060927 5.19390733,28 6.66666667,28 L25.3333333,28 C26.8060927,28 28,26.8060927 28,25.3333333 L28,16 L25.3333333,16 L25.3333333,25.3333333 Z" id="path-1"></path>
    </defs>
    <g id="Icons" stroke="none" stroke-width="1" fill="none" fill-rule="evenodd">
        <g id="Icons-/-24px-/-System-/-icn-open-in-new">
            <mask id="mask-2" fill="white">
                <use xlink:href="#path-1"></use>
            </mask>
            <use id="Mask" fill="#000000" fill-rule="nonzero" xlink:href="#path-1"></use>
            <g id="_Library-Helpers-/-Colors-/-Front-/-Casper" mask="url(#mask-2)" fill="#BAC7D5">
                <g transform="translate(1.000000, 1.000000)" id="Rectangle">
                    <rect x="0" y="0" width="30" height="30"></rect>
                </g>
            </g>
        </g>
    </g>
</svg>