<?xml version="1.0" encoding="UTF-8"?>
<svg width="32px" height="32px" viewBox="0 0 32 32" version="1.1" xmlns="http://www.w3.org/2000/svg" xmlns:xlink="http://www.w3.org/1999/xlink">
    <!-- Generator: Sketch 48.2 (47327) - http://www.bohemiancoding.com/sketch -->
    <title>Icons / 24px / System / icn-email-outline (custom)</title>
    <desc>Created with Sketch.</desc>
    <defs>
        <path d="M6.4,7 L25.6,7 C26.9254834,7 28,8.0745166 28,9.4 L28,23.8 C28,25.1254834 26.9254834,26.2 25.6,26.2 L6.4,26.2 C5.068,26.2 4,25.12 4,23.8 L4,9.4 C4,8.068 5.068,7 6.4,7 Z M16,15.4 L25.6,9.4 L6.4,9.4 L16,15.4 Z M6.4,23.8 L25.6,23.8 L25.6,12.244 L16,18.232 L6.4,12.244 L6.4,23.8 Z" id="path-1"></path>
    </defs>
    <g id="Icons" stroke="none" stroke-width="1" fill="none" fill-rule="evenodd">
        <g id="Icons-/-24px-/-System-/-icn-email-outline-(custom)">
            <mask id="mask-2" fill="white">
                <use xlink:href="#path-1"></use>
            </mask>
            <use id="Mask" fill="#000000" fill-rule="nonzero" xlink:href="#path-1"></use>
            <g id="_Library-Helpers-/-Colors-/-Front-/-Casper" mask="url(#mask-2)" fill="#BAC7D5">
                <g transform="translate(1.000000, 1.000000)" id="Rectangle">
                    <rect x="0" y="0" width="30" height="30"></rect>
                </g>
            </g>
        </g>
    </g>
</svg>