<?xml version="1.0" encoding="UTF-8"?>
<svg width="32px" height="32px" viewBox="0 0 32 32" version="1.1" xmlns="http://www.w3.org/2000/svg" xmlns:xlink="http://www.w3.org/1999/xlink">
    <!-- Generator: Sketch 48.2 (47327) - http://www.bohemiancoding.com/sketch -->
    <title>Icons / 24px / System / icn-paperclip</title>
    <desc>Created with Sketch.</desc>
    <defs>
        <path d="M20.3636364,9.45454545 L20.3636364,22 C20.3636364,24.4099698 18.4099698,26.3636364 16,26.3636364 C13.5900302,26.3636364 11.6363636,24.4099698 11.6363636,22 L11.6363636,8.36363636 C11.6363636,6.85740523 12.8574052,5.63636364 14.3636364,5.63636364 C15.8698675,5.63636364 17.0909091,6.85740523 17.0909091,8.36363636 L17.0909091,19.8181818 C17.0909091,20.4206743 16.6024925,20.9090909 16,20.9090909 C15.3975075,20.9090909 14.9090909,20.4206743 14.9090909,19.8181818 L14.9090909,9.45454545 L13.2727273,9.45454545 L13.2727273,19.8181818 C13.2727273,21.324413 14.4937689,22.5454545 16,22.5454545 C17.5062311,22.5454545 18.7272727,21.324413 18.7272727,19.8181818 L18.7272727,8.36363636 C18.7272727,5.95366655 16.7736062,4 14.3636364,4 C11.9536665,4 10,5.95366655 10,8.36363636 L10,22 C10,25.3137085 12.6862915,28 16,28 C19.3137085,28 22,25.3137085 22,22 L22,9.45454545 L20.3636364,9.45454545 Z" id="path-1"></path>
    </defs>
    <g id="Icons" stroke="none" stroke-width="1" fill="none" fill-rule="evenodd">
        <g id="Icons-/-24px-/-System-/-icn-paperclip">
            <mask id="mask-2" fill="white">
                <use xlink:href="#path-1"></use>
            </mask>
            <use id="Mask" fill="#000000" fill-rule="nonzero" xlink:href="#path-1"></use>
            <g id="_Library-Helpers-/-Colors-/-Front-/-Casper" mask="url(#mask-2)" fill="#BAC7D5">
                <g transform="translate(1.000000, 1.000000)" id="Rectangle">
                    <rect x="0" y="0" width="30" height="30"></rect>
                </g>
            </g>
        </g>
    </g>
</svg>