
            <svg width="24px" height="24px" viewBox="0 0 24 24" version="1.1" xmlns="http://www.w3.org/2000/svg" xmlns:xlink="http://www.w3.org/1999/xlink">
            
            <g>
               <path d="M17,10 L15,10 L15,8 L17,8 L17,10 Z M17,13 L15,13 L15,11 L17,11 L17,13 Z M17,16 L15,16 L15,14 L17,14 L17,16 Z M13,16 L7,16 L7,14 L13,14 L13,16 Z M7,11 L11,11 L11,13 L7,13 L7,11 Z M7,8 L12,8 L12,10 L7,10 L7,8 Z M19.526,2.15 C19.231,1.967 18.862,1.951 18.553,2.106 L15.072,3.846 L12.555,2.168 C12.219,1.944 11.781,1.944 11.445,2.168 L8.929,3.846 L5.447,2.106 C5.138,1.951 4.77,1.967 4.475,2.15 C4.18,2.332 4,2.653 4,3 L4,21 C4,21.347 4.18,21.668 4.475,21.851 C4.635,21.951 4.817,22 5,22 C5.153,22 5.307,21.965 5.447,21.895 L8.929,20.154 L11.445,21.832 C11.781,22.056 12.219,22.056 12.555,21.832 L15.071,20.154 L18.553,21.895 C18.862,22.05 19.231,22.033 19.526,21.851 C19.821,21.668 20,21.347 20,21 L20,3 C20,2.653 19.82,2.332 19.526,2.15 L19.526,2.15 Z" id="path-1"></path>
            </g>
        </svg>
        