<svg xmlns="http://www.w3.org/2000/svg" viewBox="0 0 24 24" fill="currentColor" stroke="currentColor"><path d="M12.263 3.5a.25.25 0 1 1-.25.25.25.25 0 0 1 .25-.25" fill="none" stroke-linecap="round" stroke-linejoin="round"/><path d="M19.763 10.5h-5.5l.7-7.015a2.715 2.715 0 1 0-5.4 0l.7 7.015h-5.5a2 2 0 0 0-2 2V14a.5.5 0 0 0 .5.5h18a.5.5 0 0 0 .5-.5v-1.5a2 2 0 0 0-2-2Zm1 7.3v-3.3h-17v3.3a9.128 9.128 0 0 1-1.447 4.93.5.5 0 0 0 .42.77h1.495a3 3 0 0 0 2.5-1.335C7.622 20.826 8.763 19 8.763 19v4a.5.5 0 0 0 .5.5h11a.5.5 0 0 0 .5-.5Zm-3 5.7v-4m-3 4v-3" fill="none" stroke-linecap="round" stroke-linejoin="round"/></svg>