<svg xmlns="http://www.w3.org/2000/svg" viewBox="0 0 24 24" fill="currentColor"><path d="M20.49 12v-.25a2.25 2.25 0 0 0-4.5 0V12h-2.74v3h.25a2.25 2.25 0 0 1 0 4.5h-.25v3h9.25a1 1 0 0 0 1-1V12Z" fill="none" stroke-linecap="round" stroke-linejoin="round"/><path d="M13.5 15h-.25v-3h-2.51v.25a2.25 2.25 0 0 1-4.5 0V12H3v3h-.25a2.25 2.25 0 0 0 0 4.5H3v2a1 1 0 0 0 1 1h9.25v-3h.25a2.25 2.25 0 0 0 0-4.5Z" fill="none" stroke-linecap="round" stroke-linejoin="round"/><path d="M13.25 9H13a2.25 2.25 0 0 1 0-4.5h.25v-3H4a1 1 0 0 0-1 1v2h.25a2.25 2.25 0 0 1 0 4.5H3v3h3.26v.25a2.25 2.25 0 0 0 4.5 0V12h2.51Z" fill="none" stroke-linecap="round" stroke-linejoin="round"/><path d="M20.49 1.5v.25a2.25 2.25 0 0 1-4.5 0V1.5h-2.74v3H13A2.25 2.25 0 0 0 13 9h.25v3H16v-.25a2.25 2.25 0 0 1 4.5 0V12h3V2.5a1 1 0 0 0-1-1Z" fill="none" stroke-linecap="round" stroke-linejoin="round"/></svg>