<svg xmlns="http://www.w3.org/2000/svg" viewBox="0 0 24 24" fill="currentColor"><path d="M20.5 19.5v-18a1 1 0 0 0-1-1h-14a2 2 0 0 0-2 2v19" fill="none" stroke-linecap="round" stroke-linejoin="round"/><path d="M20.5 19.5h-15a2 2 0 0 0 0 4h15m-14-2h14m-5.14-15A5.57 5.57 0 0 0 11.5 5C8.65 5 6.35 7 6.35 9.34a4.35 4.35 0 0 0 3.14 3.95c.74.26 1.34.05 1.76-.91a1.41 1.41 0 0 1 2.4-.46m2.68-1.79-2.69 5.37m2.12-7.1a1.29 1.29 0 1 0 2.3 1.15 2.76 2.76 0 0 0-.34-3.43.13.13 0 0 0-.21.09c0 1.15-1.04.79-1.75 2.19Z" fill="none" stroke-linecap="round" stroke-linejoin="round"/><path d="M9 10a.25.25 0 0 1 .25.25m-.5 0A.25.25 0 0 1 9 10m0 .5a.25.25 0 0 1-.25-.25m.5 0a.25.25 0 0 1-.25.25m.75-3a.25.25 0 0 1 .25.25m-.5 0a.25.25 0 0 1 .25-.25m0 .5a.25.25 0 0 1-.25-.25m.5 0a.25.25 0 0 1-.25.25m2.5-1a.25.25 0 0 1 .25.25m-.5 0a.25.25 0 0 1 .25-.25m0 .5a.25.25 0 0 1-.25-.25m.5 0a.25.25 0 0 1-.25.25" fill="none" stroke-linecap="round" stroke-linejoin="round"/></svg>