<svg width="32" height="32" viewBox="0 0 32 32" fill="none" xmlns="http://www.w3.org/2000/svg">
  <path d="M16.1332 15.6088C16.0911 15.6271 16.0457 15.6366 15.9999 15.6366C15.954 15.6366 15.9086 15.6271 15.8665 15.6088L9.03652 12.6388C8.97718 12.6128 8.92669 12.5701 8.89124 12.5158C8.85579 12.4616 8.83691 12.3982 8.83691 12.3334C8.83691 12.2686 8.85579 12.2053 8.89124 12.151C8.92669 12.0968 8.97718 12.0541 9.03652 12.0281L15.8665 9.0581C15.9086 9.03975 15.954 9.03027 15.9999 9.03027C16.0457 9.03027 16.0911 9.03975 16.1332 9.0581L22.9632 12.0281C23.0225 12.0541 23.073 12.0968 23.1085 12.151C23.1439 12.2053 23.1628 12.2686 23.1628 12.3334C23.1628 12.3982 23.1439 12.4616 23.1085 12.5158C23.073 12.5701 23.0225 12.6128 22.9632 12.6388L16.1332 15.6088Z" stroke="currentColor" stroke-linecap="round" stroke-linejoin="round"/>
  <path d="M21.7499 15.1667L22.9632 15.6947C23.0225 15.7207 23.073 15.7635 23.1085 15.8177C23.1439 15.8719 23.1628 15.9353 23.1628 16.0001C23.1628 16.0649 23.1439 16.1282 23.1085 16.1825C23.073 16.2367 23.0225 16.2794 22.9632 16.3054L16.1332 19.2754C16.0911 19.2938 16.0457 19.3032 15.9999 19.3032C15.954 19.3032 15.9086 19.2938 15.8665 19.2754L9.03652 16.3054C8.97718 16.2794 8.92669 16.2367 8.89124 16.1825C8.85579 16.1282 8.83691 16.0649 8.83691 16.0001C8.83691 15.9353 8.85579 15.8719 8.89124 15.8177C8.92669 15.7635 8.97718 15.7207 9.03652 15.6947L10.2499 15.1667" stroke="currentColor" stroke-linecap="round" stroke-linejoin="round"/>
  <path d="M21.7499 18.8335L22.9632 19.3615C23.0225 19.3875 23.073 19.4302 23.1085 19.4844C23.1439 19.5387 23.1628 19.602 23.1628 19.6668C23.1628 19.7316 23.1439 19.795 23.1085 19.8492C23.073 19.9035 23.0225 19.9462 22.9632 19.9722L16.1332 22.9422C16.0911 22.9605 16.0457 22.97 15.9999 22.97C15.954 22.97 15.9086 22.9605 15.8665 22.9422L9.03652 19.9722C8.97718 19.9462 8.92669 19.9035 8.89124 19.8492C8.85579 19.795 8.83691 19.7316 8.83691 19.6668C8.83691 19.602 8.85579 19.5387 8.89124 19.4844C8.92669 19.4302 8.97718 19.3875 9.03652 19.3615L10.2499 18.8335" stroke="currentColor" stroke-linecap="round" stroke-linejoin="round"/>
</svg>
