<svg width="32" height="32" viewBox="0 0 32 32" fill="none" xmlns="http://www.w3.org/2000/svg">
  <rect x="14.5" y="22" width="12" height="1" rx="0.5" transform="rotate(-90 14.5 22)" fill="currentColor"/>
  <path d="M6.64645 15.6464C6.45118 15.8417 6.45118 16.1583 6.64645 16.3536L9.82843 19.5355C10.0237 19.7308 10.3403 19.7308 10.5355 19.5355C10.7308 19.3403 10.7308 19.0237 10.5355 18.8284L7.70711 16L10.5355 13.1716C10.7308 12.9763 10.7308 12.6597 10.5355 12.4645C10.3403 12.2692 10.0237 12.2692 9.82843 12.4645L6.64645 15.6464ZM15 15.5L7 15.5V16.5H15V15.5Z" fill="currentColor"/>
  <rect x="18" y="10" width="12" height="1" rx="0.5" transform="rotate(90 18 10)" fill="currentColor"/>
  <path d="M25.3536 16.3536C25.5488 16.1583 25.5488 15.8417 25.3536 15.6464L22.1716 12.4645C21.9763 12.2692 21.6597 12.2692 21.4645 12.4645C21.2692 12.6597 21.2692 12.9763 21.4645 13.1716L24.2929 16L21.4645 18.8284C21.2692 19.0237 21.2692 19.3403 21.4645 19.5355C21.6597 19.7308 21.9763 19.7308 22.1716 19.5355L25.3536 16.3536ZM17 16.5L25 16.5V15.5L17 15.5V16.5Z" fill="currentColor"/>
</svg>
