<svg width="32" height="32" viewBox="0 0 32 32" fill="none" xmlns="http://www.w3.org/2000/svg">
  <path d="M15.972 20H17.244L13.86 11.492H12.504L9.12 20H10.38L11.28 17.624H15.048L15.972 20ZM13.152 12.716L14.628 16.532H11.7L13.152 12.716ZM17.9086 18.452C17.9086 19.364 18.6646 20.18 19.8406 20.18C20.8726 20.18 21.4486 19.628 21.7006 19.22C21.7006 19.64 21.7366 19.856 21.7606 20H22.8646C22.8406 19.856 22.7926 19.556 22.7926 19.052V16.16C22.7926 15.032 22.1206 14.048 20.3926 14.048C19.1446 14.048 18.1486 14.816 18.0286 15.92L19.1086 16.172C19.1806 15.5 19.6246 15.008 20.4166 15.008C21.2926 15.008 21.6646 15.476 21.6646 16.04C21.6646 16.244 21.5686 16.424 21.2206 16.472L19.6606 16.7C18.6646 16.844 17.9086 17.42 17.9086 18.452ZM19.9966 19.232C19.4206 19.232 19.0606 18.824 19.0606 18.392C19.0606 17.876 19.4206 17.6 19.9006 17.528L21.6646 17.264V17.528C21.6646 18.788 20.9206 19.232 19.9966 19.232Z" fill="currentColor"/>
</svg>
