<svg width="32" height="32" viewBox="0 0 32 32" fill="none" xmlns="http://www.w3.org/2000/svg">
  <path fill-rule="evenodd" clip-rule="evenodd" d="M8 20.6667C8 22.5076 9.49238 24 11.3333 24H18.2667C19.8465 24 21.1472 22.8054 21.315 21.2703C22.8456 20.9686 24 19.6191 24 18V11.3333C24 9.49238 22.5076 8 20.6667 8H14C12.3809 8 11.0314 9.15436 10.7297 10.685C9.19456 10.8528 8 12.1535 8 13.7333V20.6667ZM10.6667 12.0464V18C10.6667 19.8409 12.1591 21.3333 14 21.3333H19.9536C19.773 22.0978 19.0863 22.6667 18.2667 22.6667H11.3333C10.2288 22.6667 9.33333 21.7712 9.33333 20.6667V13.7333C9.33333 12.9137 9.90221 12.227 10.6667 12.0464ZM14 20C12.8954 20 12 19.1046 12 18V11.3333C12 10.2288 12.8954 9.33333 14 9.33333H20.6667C21.7712 9.33333 22.6667 10.2288 22.6667 11.3333V18C22.6667 19.1046 21.7712 20 20.6667 20H14Z" fill="currentColor"/>
</svg>
